<svg xmlns:dc="http://purl.org/dc/elements/1.1/" xmlns:cc="http://creativecommons.org/ns#" xmlns:rdf="http://www.w3.org/1999/02/22-rdf-syntax-ns#" xmlns:svg="http://www.w3.org/2000/svg" xmlns="http://www.w3.org/2000/svg" id="svg9443" viewbox="0 0 1024 768" height="768px" width="1024px" version="1.1"> <metadata id="metadata9449"> 
  <rdf:rdf> 
   <cc:work rdf:about=""> 
    <dc:format>
     image/svg+xml
    </dc:format> 
    <dc:type rdf:resource="http://purl.org/dc/dcmitype/StillImage"></dc:type> 
   </cc:work> 
  </rdf:rdf> 
 </metadata> <defs id="defs9447"></defs> <g id="logo-group"> 
  <g id="title" style="font-style:normal;font-weight:300;font-size:72px;line-height:1;font-family:'Montserrat Light Alt1';font-variant-ligatures:none;text-align:center;text-anchor:middle" aria-label="Achieveo7"> 
   <path id="path9451" style="font-style: normal; font-weight: 300; font-size: 72px; line-height: 1; font-family: &quot;Montserrat Light Alt1&quot;; font-variant-ligatures: none; text-align: center; text-anchor: middle; fill: rgb(150, 115, 92);" d="m 357.5285,69.6 h -3.672 l -23.184,50.4 h 3.96 l 21.024,-46.368 21.096,46.368 h 3.96 z" transform="translate(0 296.76266666666663) translate(245.4214611111111 60.757333333333335) scale(1.1111111111111112) translate(-330.6725 -69.6)"></path> 
   <path id="path9453" style="font-style: normal; font-weight: 300; font-size: 72px; line-height: 1; font-family: &quot;Montserrat Light Alt1&quot;; font-variant-ligatures: none; text-align: center; text-anchor: middle; fill: rgb(150, 115, 92);" d="m 393.40025,117.84 c 2.88,1.656 6.12,2.448 9.792,2.448 3.024,0 5.76,-0.576 8.208,-1.728 2.448,-1.152 4.464,-2.88 6.048,-5.184 l -2.664,-1.944 c -1.368,1.872 -3.024,3.312 -5.04,4.248 -2.016,0.936 -4.176,1.368 -6.552,1.368 -2.952,0 -5.616,-0.648 -7.92,-1.944 -2.304,-1.296 -4.176,-3.168 -5.472,-5.616 -1.296,-2.376 -1.944,-5.112 -1.944,-8.28 0,-3.096 0.648,-5.832 1.944,-8.28 1.296,-2.376 3.168,-4.248 5.472,-5.544 2.304,-1.296 4.968,-2.016 7.92,-2.016 2.376,0 4.536,0.504 6.552,1.44 2.016,0.936 3.672,2.304 5.04,4.176 l 2.664,-1.944 c -1.584,-2.232 -3.6,-3.96 -6.048,-5.112 -2.448,-1.152 -5.184,-1.8 -8.208,-1.8 -3.672,0 -6.912,0.864 -9.792,2.448 -2.88,1.584 -5.184,3.888 -6.768,6.768 -1.656,2.88 -2.448,6.192 -2.448,9.864 0,3.672 0.792,6.984 2.448,9.864 1.584,2.88 3.888,5.184 6.768,6.768 z" transform="translate(0 296.76266666666663) translate(321.5456277777778 74.67733333333334) scale(1.1111111111111112) translate(-384.18425 -82.128)"></path> 
   <path id="path9455" style="font-style: normal; font-weight: 300; font-size: 72px; line-height: 1; font-family: &quot;Montserrat Light Alt1&quot;; font-variant-ligatures: none; text-align: center; text-anchor: middle; fill: rgb(150, 115, 92);" d="m 457.04262,86.232 c -2.736,-2.736 -6.47999,-4.104 -11.15999,-4.104 -3.45601,0 -6.48001,0.72 -9,2.16 -2.59201,1.44 -4.464,3.384 -5.76001,5.976 V 66.576 h -3.6 V 120 h 3.6 V 99.984 c 0,-4.464 1.22401,-7.992 3.816,-10.656 2.52,-2.592 5.976,-3.96 10.44,-3.96 3.816,0 6.768,1.152 8.928,3.312 2.16001,2.232 3.24,5.472 3.24,9.648 V 120 h 3.60001 V 98.04 c 0,-5.112 -1.368,-9.072 -4.10401,-11.808 z" transform="translate(0 296.76266666666663) translate(386.3660388888889 57.397333333333336) scale(1.1111111111111112) translate(-427.52262 -66.576)"></path> 
   <path id="path9457" style="font-style: normal; font-weight: 300; font-size: 72px; line-height: 1; font-family: &quot;Montserrat Light Alt1&quot;; font-variant-ligatures: none; text-align: center; text-anchor: middle; fill: rgb(150, 115, 92);" d="M 476.03825,82.416 V 120 h 3.6 V 82.416 Z m -0.288,-9.936 c 0.576,0.576 1.224,0.792 2.088,0.792 0.792,0 1.512,-0.288 2.088,-0.864 0.576,-0.576 0.864,-1.224 0.864,-2.088 0,-0.792 -0.288,-1.44 -0.864,-2.016 -0.576,-0.576 -1.296,-0.864 -2.088,-0.864 -0.864,0 -1.512,0.288 -2.088,0.864 -0.576,0.576 -0.864,1.296 -0.864,2.088 0,0.864 0.288,1.512 0.864,2.088 z" transform="translate(0 296.76266666666663) translate(455.6589611111112 58.357333333333344) scale(1.1111111111111112) translate(-474.88625 -67.44)"></path> 
   <path id="path9459" style="font-style: normal; font-weight: 300; font-size: 72px; line-height: 1; font-family: &quot;Montserrat Light Alt1&quot;; font-variant-ligatures: none; text-align: center; text-anchor: middle; fill: rgb(150, 115, 92);" d="m 517.058,115.752 c -2.088,0.864 -4.392,1.296 -6.768,1.296 -3.888,0 -7.128,-1.008 -9.864,-3.024 -2.736,-2.016 -4.608,-4.752 -5.472,-8.208 l 31.752,-6.192 c -0.216,-3.312 -1.008,-6.264 -2.592,-8.928 -1.584,-2.664 -3.672,-4.752 -6.264,-6.264 -2.592,-1.512 -5.544,-2.304 -8.784,-2.304 -3.528,0 -6.696,0.864 -9.432,2.448 -2.808,1.656 -4.968,3.888 -6.552,6.768 -1.584,2.88 -2.304,6.192 -2.304,9.864 0,3.744 0.792,6.984 2.448,9.864 1.656,2.88 3.96,5.184 6.912,6.768 2.952,1.656 6.264,2.448 10.08,2.448 2.88,0 5.544,-0.504 8.064,-1.512 2.376,-1.008 4.464,-2.52 6.12,-4.608 l -2.088,-2.376 c -1.44,1.8 -3.168,3.096 -5.256,3.96 z m -15.624,-28.44 c 2.232,-1.296 4.752,-2.016 7.632,-2.016 2.448,0 4.752,0.576 6.768,1.656 2.016,1.08 3.6,2.592 4.896,4.392 1.224,1.872 2.016,3.96 2.376,6.192 l -28.656,5.616 c -0.144,-0.936 -0.144,-1.656 -0.144,-2.232 0,-2.952 0.576,-5.688 1.872,-8.064 1.224,-2.376 2.952,-4.248 5.256,-5.544 z" transform="translate(0 296.76266666666663) translate(489.98312777777784 74.67733333333334) scale(1.1111111111111112) translate(-490.778 -82.128)"></path> 
   <path id="path9461" style="font-style: normal; font-weight: 300; font-size: 72px; line-height: 1; font-family: &quot;Montserrat Light Alt1&quot;; font-variant-ligatures: none; text-align: center; text-anchor: middle; fill: rgb(150, 115, 92);" d="m 567.37812,82.416 h -3.67199 l -15.12,33.624 -14.976,-33.624 h -3.81601 l 16.92,37.584 h 3.672 z" transform="translate(0 296.76266666666663) translate(550.001038888889 74.99733333333333) scale(1.1111111111111112) translate(-529.79412 -82.416)"></path> 
   <path id="path9463" style="font-style: normal; font-weight: 300; font-size: 72px; line-height: 1; font-family: &quot;Montserrat Light Alt1&quot;; font-variant-ligatures: none; text-align: center; text-anchor: middle; fill: rgb(150, 115, 92);" d="m 596.22987,115.752 c -2.08799,0.864 -4.392,1.296 -6.768,1.296 -3.88799,0 -7.12799,-1.008 -9.86399,-3.024 -2.736,-2.016 -4.60801,-4.752 -5.47201,-8.208 l 31.75201,-6.192 c -0.21601,-3.312 -1.00801,-6.264 -2.592,-8.928 -1.58401,-2.664 -3.67201,-4.752 -6.264,-6.264 -2.592,-1.512 -5.544,-2.304 -8.784,-2.304 -3.52801,0 -6.69601,0.864 -9.432,2.448 -2.808,1.656 -4.968,3.888 -6.55201,6.768 -1.58399,2.88 -2.30399,6.192 -2.30399,9.864 0,3.744 0.792,6.984 2.44799,9.864 1.656,2.88 3.96001,5.184 6.91201,6.768 2.952,1.656 6.264,2.448 10.07999,2.448 2.88,0 5.544,-0.504 8.06401,-1.512 2.376,-1.008 4.46399,-2.52 6.12,-4.608 l -2.08801,-2.376 c -1.43999,1.8 -3.168,3.096 -5.256,3.96 z m -15.624,-28.44 c 2.23201,-1.296 4.75201,-2.016 7.63201,-2.016 2.44799,0 4.75199,0.576 6.768,1.656 2.016,1.08 3.59999,2.592 4.896,4.392 1.22399,1.872 2.01599,3.96 2.37599,6.192 l -28.65599,5.616 c -0.144,-0.936 -0.144,-1.656 -0.144,-2.232 0,-2.952 0.57599,-5.688 1.87199,-8.064 1.22401,-2.376 2.952,-4.248 5.256,-5.544 z" transform="translate(0 296.76266666666663) translate(611.2852166666667 74.67733333333334) scale(1.1111111111111112) translate(-569.94988 -82.128)"></path> 
   <path id="path9465" style="font-style: normal; font-weight: 300; font-size: 72px; line-height: 1; font-family: &quot;Montserrat Light Alt1&quot;; font-variant-ligatures: none; text-align: center; text-anchor: middle; fill: rgb(101, 101, 95);" d="m 622.12513,117.84 c 2.88,1.656 6.048,2.448 9.648,2.448 3.52799,0 6.69599,-0.792 9.57599,-2.448 2.88,-1.584 5.11201,-3.888 6.768,-6.768 1.58401,-2.88 2.448,-6.192 2.448,-9.864 0,-3.6 -0.86399,-6.912 -2.448,-9.792 -1.65599,-2.88 -3.888,-5.184 -6.768,-6.84 -2.88,-1.584 -6.048,-2.448 -9.57599,-2.448 -3.6,0 -6.768,0.864 -9.648,2.448 -2.88,1.656 -5.11201,3.96 -6.69601,6.84 -1.65599,2.88 -2.44799,6.192 -2.44799,9.792 0,3.672 0.792,6.984 2.44799,9.864 1.584,2.88 3.81601,5.184 6.69601,6.768 z m 17.35199,-2.808 c -2.30399,1.368 -4.82399,2.016 -7.70399,2.016 -2.88,0 -5.47201,-0.648 -7.77601,-2.016 -2.304,-1.296 -4.10399,-3.168 -5.4,-5.616 -1.296,-2.376 -1.94399,-5.112 -1.94399,-8.208 0,-3.024 0.64799,-5.76 1.94399,-8.208 1.29601,-2.376 3.096,-4.248 5.4,-5.616 2.304,-1.296 4.89601,-2.016 7.77601,-2.016 2.88,0 5.4,0.72 7.70399,2.016 2.304,1.368 4.10401,3.24 5.4,5.616 1.29601,2.448 2.01601,5.184 2.01601,8.208 0,3.096 -0.72,5.832 -2.01601,8.208 -1.29599,2.448 -3.096,4.32 -5.4,5.616 z" transform="translate(0 296.76266666666663) translate(675.7643833333333 74.67733333333334) scale(1.1111111111111112) translate(-612.98113 -82.128)"></path> 
   <path id="path9467" style="font-style: normal; font-weight: 300; font-size: 72px; line-height: 1; font-family: &quot;Montserrat Light Alt1&quot;; font-variant-ligatures: none; text-align: center; text-anchor: middle; fill: rgb(101, 101, 95);" d="m 690.51387,69.6 h -36.144 v 12.96 h 3.6 v -9.648 h 28.29601 L 664.80988,120 h 4.03199 l 21.672,-47.808 z" transform="translate(0 296.76266666666663) translate(738.4185388888889 60.757333333333335) scale(1.1111111111111112) translate(-654.36987 -69.6)"></path> 
  </g> 
  <g id="tagline" style="font-style:normal;font-weight:400;font-size:32px;line-height:1;font-family:Montserrat;font-variant-ligatures:none;text-align:center;text-anchor:middle"></g> 
 </g> 
</svg>