<svg xmlns:dc="http://purl.org/dc/elements/1.1/" xmlns:cc="http://creativecommons.org/ns#" xmlns:rdf="http://www.w3.org/1999/02/22-rdf-syntax-ns#" xmlns:svg="http://www.w3.org/2000/svg" xmlns="http://www.w3.org/2000/svg" id="svg387369" viewbox="0 0 1024 768" height="768px" width="1024px" version="1.1"> <metadata id="metadata387375"> 
  <rdf:rdf> 
   <cc:work rdf:about=""> 
    <dc:format>
     image/svg+xml
    </dc:format> 
    <dc:type rdf:resource="http://purl.org/dc/dcmitype/StillImage"></dc:type> 
   </cc:work> 
  </rdf:rdf> 
 </metadata> <defs id="defs387373"></defs> <g id="logo-group"> 
  <g id="title" style="font-style:normal;font-weight:700;font-size:72px;line-height:1;font-family:'Comfortaa Bold Alt1';font-variant-ligatures:none;text-align:center;text-anchor:middle" aria-label="adaptableo7"> 
   <path id="path387377" style="font-style: normal; font-weight: 700; font-size: 72px; line-height: 1; font-family: &quot;Comfortaa Bold Alt1&quot;; font-variant-ligatures: none; text-align: center; text-anchor: middle; fill: rgb(48, 62, 81);" d="m 319.53444,100.344 c 0,-3.672 -0.936,-7.128 -2.664,-10.152 -1.728,-3.024 -4.104,-5.472 -7.128,-7.2 -3.024,-1.728 -6.336,-2.664 -10.008,-2.664 -3.744,0 -7.128,0.936 -10.152,2.664 -3.024,1.728 -5.4,4.176 -7.128,7.2 -1.728,3.024 -2.592,6.408 -2.592,10.152 0,3.744 0.792,7.2 2.376,10.224 1.584,3.024 3.816,5.4 6.624,7.128 2.88,1.8 5.976,2.664 9.432,2.664 h 0.576 17.208 c 0.936,0 1.728,-0.36 2.448,-1.008 0.648,-0.648 1.008,-1.44 1.008,-2.448 V 116.4 Z m -30.96,6.912 c -1.152,-2.016 -1.656,-4.32 -1.656,-6.912 0,-2.52 0.504,-4.824 1.656,-6.912 1.152,-2.016 2.664,-3.672 4.608,-4.824 1.944,-1.152 4.104,-1.8 6.552,-1.8 2.376,0 4.536,0.648 6.48,1.8 1.944,1.152 3.456,2.808 4.608,4.824 1.08,2.088 1.656,4.392 1.656,6.912 0,2.592 -0.576,4.896 -1.656,6.912 -1.152,2.016 -2.664,3.672 -4.608,4.824 -1.944,1.152 -4.104,1.728 -6.48,1.728 -2.448,0 -4.608,-0.576 -6.552,-1.728 -1.944,-1.152 -3.456,-2.808 -4.608,-4.824 z" transform="translate(0 306.57890909090906) translate(231.7326727272728 59.25745454545455) scale(0.9090909090909091) translate(-279.86244 -80.328)"></path> 
   <path id="path387379" style="font-style: normal; font-weight: 700; font-size: 72px; line-height: 1; font-family: &quot;Comfortaa Bold Alt1&quot;; font-variant-ligatures: none; text-align: center; text-anchor: middle; fill: rgb(48, 62, 81);" d="m 328.44669,100.272 c 0,3.816 0.864,7.2 2.592,10.224 1.728,3.024 4.176,5.472 7.2,7.2 3.024,1.728 6.408,2.592 10.08,2.592 h 0.288 0.144 15.912 c 1.008,0 1.8,-0.288 2.448,-0.936 0.72,-0.72 1.008,-1.512 1.008,-2.448 V 101.568 100.272 67.44 c 0,-1.08 -0.288,-1.944 -1.008,-2.664 -0.648,-0.648 -1.512,-1.008 -2.664,-1.008 -1.008,0 -1.872,0.36 -2.592,1.008 -0.72,0.72 -1.08,1.584 -1.08,2.664 v 19.44 c -1.656,-2.016 -3.672,-3.6 -6.12,-4.824 -2.376,-1.152 -4.968,-1.728 -7.776,-1.728 -3.456,0 -6.552,0.864 -9.36,2.592 -2.808,1.8 -5.04,4.176 -6.624,7.2 -1.584,3.024 -2.448,6.48 -2.448,10.152 z m 7.056,0 c 0,-2.52 0.576,-4.824 1.728,-6.84 1.152,-2.016 2.664,-3.672 4.608,-4.824 1.944,-1.152 4.104,-1.8 6.48,-1.8 2.448,0 4.608,0.648 6.552,1.8 1.944,1.152 3.456,2.808 4.536,4.824 1.152,2.016 1.656,4.32 1.656,6.84 0,2.592 -0.504,4.896 -1.656,6.912 -1.08,2.088 -2.592,3.744 -4.536,4.896 -1.944,1.152 -4.104,1.728 -6.552,1.728 -2.376,0 -4.536,-0.576 -6.48,-1.728 -1.944,-1.152 -3.456,-2.808 -4.608,-4.896 -1.152,-2.016 -1.728,-4.32 -1.728,-6.912 z" transform="translate(0 306.57890909090906) translate(289.5365363636364 44.20290909090909) scale(0.9090909090909091) translate(-328.44669 -63.768)"></path> 
   <path id="path387381" style="font-style: normal; font-weight: 700; font-size: 72px; line-height: 1; font-family: &quot;Comfortaa Bold Alt1&quot;; font-variant-ligatures: none; text-align: center; text-anchor: middle; fill: rgb(48, 62, 81);" d="m 418.81569,100.344 c 0,-3.672 -0.936,-7.128 -2.664,-10.152 -1.728,-3.024 -4.104,-5.472 -7.128,-7.2 -3.024,-1.728 -6.336,-2.664 -10.008,-2.664 -3.744,0 -7.128,0.936 -10.152,2.664 -3.024,1.728 -5.4,4.176 -7.128,7.2 -1.728,3.024 -2.592,6.408 -2.592,10.152 0,3.744 0.792,7.2 2.376,10.224 1.584,3.024 3.816,5.4 6.624,7.128 2.88,1.8 5.976,2.664 9.432,2.664 h 0.576 17.208 c 0.936,0 1.728,-0.36 2.448,-1.008 0.648,-0.648 1.008,-1.44 1.008,-2.448 V 116.4 Z m -30.96,6.912 c -1.152,-2.016 -1.656,-4.32 -1.656,-6.912 0,-2.52 0.504,-4.824 1.656,-6.912 1.152,-2.016 2.664,-3.672 4.608,-4.824 1.944,-1.152 4.104,-1.8 6.552,-1.8 2.376,0 4.536,0.648 6.48,1.8 1.944,1.152 3.456,2.808 4.608,4.824 1.08,2.088 1.656,4.392 1.656,6.912 0,2.592 -0.576,4.896 -1.656,6.912 -1.152,2.016 -2.664,3.672 -4.608,4.824 -1.944,1.152 -4.104,1.728 -6.48,1.728 -2.448,0 -4.608,-0.576 -6.552,-1.728 -1.944,-1.152 -3.456,-2.808 -4.608,-4.824 z" transform="translate(0 306.57890909090906) translate(349.2610818181818 59.25745454545455) scale(0.9090909090909091) translate(-379.14369 -80.328)"></path> 
   <path id="path387383" style="font-style: normal; font-weight: 700; font-size: 72px; line-height: 1; font-family: &quot;Comfortaa Bold Alt1&quot;; font-variant-ligatures: none; text-align: center; text-anchor: middle; fill: rgb(48, 62, 81);" d="m 469.48794,100.344 c 0,-3.744 -0.864,-7.128 -2.592,-10.152 -1.728,-3.024 -4.176,-5.472 -7.2,-7.2 -3.024,-1.728 -6.408,-2.664 -10.08,-2.664 h -0.288 -0.144 -15.912 c -1.008,0 -1.8,0.36 -2.448,1.008 -0.72,0.72 -1.008,1.512 -1.008,2.448 v 15.336 1.224 32.832 c 0,1.152 0.288,2.016 1.008,2.664 0.648,0.72 1.512,1.008 2.664,1.008 1.008,0 1.872,-0.288 2.592,-1.008 0.72,-0.648 1.08,-1.512 1.08,-2.664 v -19.44 c 1.656,2.088 3.672,3.672 6.12,4.824 2.376,1.152 4.968,1.728 7.776,1.728 3.456,0 6.552,-0.864 9.36,-2.592 2.808,-1.728 5.04,-4.104 6.624,-7.128 1.584,-3.024 2.448,-6.48 2.448,-10.224 z m -7.056,0 c 0,2.592 -0.576,4.896 -1.728,6.912 -1.152,2.016 -2.664,3.672 -4.608,4.824 -1.944,1.152 -4.104,1.728 -6.48,1.728 -2.448,0 -4.608,-0.576 -6.552,-1.728 -1.944,-1.152 -3.456,-2.808 -4.536,-4.824 -1.152,-2.016 -1.656,-4.32 -1.656,-6.912 0,-2.52 0.504,-4.824 1.656,-6.912 1.08,-2.016 2.592,-3.672 4.536,-4.824 1.944,-1.152 4.104,-1.8 6.552,-1.8 2.376,0 4.536,0.648 6.48,1.8 1.944,1.152 3.456,2.808 4.608,4.824 1.152,2.088 1.728,4.392 1.728,6.912 z" transform="translate(0 306.57890909090906) translate(408.96312727272726 59.25745454545455) scale(0.9090909090909091) translate(-429.81594 -80.328)"></path> 
   <path id="path387385" style="font-style: normal; font-weight: 700; font-size: 72px; line-height: 1; font-family: &quot;Comfortaa Bold Alt1&quot;; font-variant-ligatures: none; text-align: center; text-anchor: middle; fill: rgb(48, 62, 81);" d="m 482.09694,82.056 v 6.192 17.784 c 0,2.664 0.504,5.04 1.656,7.128 1.08,2.16 2.592,3.816 4.536,5.04 1.944,1.224 4.104,1.8 6.48,1.8 h 1.296 c 1.224,0 2.232,-0.288 3.024,-1.008 0.792,-0.648 1.224,-1.512 1.224,-2.592 0,-1.008 -0.36,-1.872 -0.936,-2.592 -0.576,-0.648 -1.296,-1.008 -2.16,-1.008 h -2.448 c -1.584,0 -2.88,-0.648 -3.888,-1.944 -1.08,-1.296 -1.584,-2.88 -1.584,-4.824 V 88.248 h 6.12 c 1.008,0 1.8,-0.288 2.448,-0.864 0.576,-0.576 0.936,-1.296 0.936,-2.16 0,-0.936 -0.36,-1.728 -0.936,-2.304 -0.648,-0.576 -1.44,-0.864 -2.448,-0.864 h -6.12 V 71.688 c 0,-1.008 -0.36,-1.872 -1.008,-2.592 -0.72,-0.648 -1.584,-1.008 -2.592,-1.008 -1.08,0 -1.944,0.36 -2.592,1.008 -0.72,0.72 -1.008,1.584 -1.008,2.592 z" transform="translate(0 306.57890909090906) translate(470.12767272727274 48.13018181818181) scale(0.9090909090909091) translate(-482.09694 -68.088)"></path> 
   <path id="path387387" style="font-style: normal; font-weight: 700; font-size: 72px; line-height: 1; font-family: &quot;Comfortaa Bold Alt1&quot;; font-variant-ligatures: none; text-align: center; text-anchor: middle; fill: rgb(48, 62, 81);" d="m 546.92506,100.344 c 0,-3.672 -0.936,-7.128 -2.664,-10.152 -1.728,-3.024 -4.104,-5.472 -7.128,-7.2 -3.024,-1.728 -6.336,-2.664 -10.008,-2.664 -3.744,0 -7.128,0.936 -10.152,2.664 -3.024,1.728 -5.4,4.176 -7.128,7.2 -1.728,3.024 -2.592,6.408 -2.592,10.152 0,3.744 0.792,7.2 2.376,10.224 1.584,3.024 3.816,5.4 6.624,7.128 2.88,1.8 5.976,2.664 9.432,2.664 h 0.576 17.208 c 0.936,0 1.728,-0.36 2.448,-1.008 0.648,-0.648 1.008,-1.44 1.008,-2.448 V 116.4 Z m -30.96,6.912 c -1.152,-2.016 -1.656,-4.32 -1.656,-6.912 0,-2.52 0.504,-4.824 1.656,-6.912 1.152,-2.016 2.664,-3.672 4.608,-4.824 1.944,-1.152 4.104,-1.8 6.552,-1.8 2.376,0 4.536,0.648 6.48,1.8 1.944,1.152 3.456,2.808 4.608,4.824 1.08,2.088 1.656,4.392 1.656,6.912 0,2.592 -0.576,4.896 -1.656,6.912 -1.152,2.016 -2.664,3.672 -4.608,4.824 -1.944,1.152 -4.104,1.728 -6.48,1.728 -2.448,0 -4.608,-0.576 -6.552,-1.728 -1.944,-1.152 -3.456,-2.808 -4.608,-4.824 z" transform="translate(0 306.57890909090906) translate(506.63323636363634 59.25745454545455) scale(0.9090909090909091) translate(-507.25306 -80.328)"></path> 
   <path id="path387389" style="font-style: normal; font-weight: 700; font-size: 72px; line-height: 1; font-family: &quot;Comfortaa Bold Alt1&quot;; font-variant-ligatures: none; text-align: center; text-anchor: middle; fill: rgb(48, 62, 81);" d="m 595.14931,90.12 c -1.584,-3.024 -3.816,-5.4 -6.624,-7.2 -2.808,-1.728 -5.904,-2.592 -9.36,-2.592 -2.808,0 -5.4,0.576 -7.776,1.728 -2.448,1.152 -4.464,2.808 -6.12,4.824 V 67.44 c 0,-1.08 -0.36,-1.944 -1.08,-2.664 -0.72,-0.648 -1.584,-1.008 -2.592,-1.008 -1.152,0 -2.016,0.36 -2.664,1.008 -0.72,0.72 -1.008,1.584 -1.008,2.664 v 32.832 1.296 15.336 c 0,0.936 0.288,1.728 1.008,2.376 0.648,0.72 1.44,1.008 2.448,1.008 h 15.912 0.144 0.288 c 3.672,0 7.056,-0.864 10.08,-2.592 3.024,-1.728 5.4,-4.176 7.2,-7.2 1.728,-3.024 2.592,-6.408 2.592,-10.224 0,-3.672 -0.864,-7.128 -2.448,-10.152 z m -6.336,17.064 c -1.152,2.088 -2.664,3.744 -4.608,4.896 -1.944,1.152 -4.104,1.728 -6.48,1.728 -2.448,0 -4.608,-0.576 -6.552,-1.728 -1.944,-1.152 -3.456,-2.808 -4.536,-4.896 -1.152,-2.016 -1.656,-4.32 -1.656,-6.912 0,-2.52 0.504,-4.824 1.656,-6.84 1.08,-2.016 2.592,-3.672 4.536,-4.824 1.944,-1.152 4.104,-1.8 6.552,-1.8 2.376,0 4.536,0.648 6.48,1.8 1.944,1.152 3.456,2.808 4.608,4.824 1.152,2.016 1.728,4.32 1.728,6.84 0,2.592 -0.576,4.896 -1.728,6.912 z" transform="translate(0 306.57890909090906) translate(566.3352818181817 44.20290909090909) scale(0.9090909090909091) translate(-557.92531 -63.768)"></path> 
   <path id="path387391" style="font-style: normal; font-weight: 700; font-size: 72px; line-height: 1; font-family: &quot;Comfortaa Bold Alt1&quot;; font-variant-ligatures: none; text-align: center; text-anchor: middle; fill: rgb(48, 62, 81);" d="m 608.11831,64.776 c -0.72,0.72 -1.008,1.584 -1.008,2.592 v 39.312 c 0,2.592 0.432,4.896 1.368,6.912 0.864,2.016 2.16,3.6 3.816,4.752 1.656,1.152 3.528,1.656 5.616,1.656 h 0.144 c 1.44,0 2.592,-0.288 3.528,-1.008 0.864,-0.648 1.368,-1.512 1.368,-2.592 0,-1.008 -0.36,-1.872 -0.936,-2.592 -0.576,-0.648 -1.368,-1.008 -2.304,-1.008 h -1.8 c -1.08,0 -1.944,-0.576 -2.592,-1.728 -0.72,-1.152 -1.008,-2.592 -1.008,-4.392 V 67.368 c 0,-1.008 -0.36,-1.872 -1.008,-2.592 -0.72,-0.648 -1.584,-1.008 -2.592,-1.008 -1.08,0 -1.944,0.36 -2.592,1.008 z" transform="translate(0 306.57890909090906) translate(624.6852818181818 44.20290909090909) scale(0.9090909090909091) translate(-607.11031 -63.768)"></path> 
   <path id="path387393" style="font-style: normal; font-weight: 700; font-size: 72px; line-height: 1; font-family: &quot;Comfortaa Bold Alt1&quot;; font-variant-ligatures: none; text-align: center; text-anchor: middle; fill: rgb(48, 62, 81);" d="m 662.51319,102 c 0.576,-0.576 0.936,-1.368 0.936,-2.304 0,-3.744 -0.72,-7.128 -2.16,-10.08 -1.44,-2.88 -3.528,-5.184 -6.192,-6.84 -2.736,-1.584 -5.904,-2.448 -9.576,-2.448 -3.744,0 -7.128,0.864 -10.08,2.592 -2.952,1.728 -5.256,4.104 -6.912,7.128 -1.656,3.024 -2.448,6.48 -2.448,10.296 0,3.888 0.864,7.272 2.592,10.296 1.728,3.024 4.176,5.4 7.344,7.128 3.096,1.728 6.624,2.52 10.584,2.52 2.16,0 4.464,-0.36 6.912,-1.224 2.448,-0.792 4.464,-1.872 6.12,-3.168 0.72,-0.576 1.152,-1.296 1.152,-2.16 0,-0.864 -0.432,-1.728 -1.296,-2.448 -0.576,-0.432 -1.296,-0.72 -2.16,-0.72 -0.936,0 -1.728,0.288 -2.376,0.792 -1.008,0.792 -2.304,1.44 -3.888,1.944 -1.584,0.576 -3.024,0.792 -4.464,0.792 -3.672,0 -6.768,-1.008 -9.288,-3.096 -2.52,-2.016 -4.032,-4.752 -4.536,-8.136 h 27.36 c 0.936,0 1.728,-0.288 2.376,-0.864 z m -25.56,-12.6 c 2.16,-1.872 5.04,-2.88 8.568,-2.88 3.168,0 5.688,1.008 7.704,2.88 1.944,1.944 3.168,4.536 3.6,7.704 h -23.976 c 0.576,-3.168 1.944,-5.76 4.104,-7.704 z" transform="translate(0 306.57890909090906) translate(655.5678999999999 59.25745454545455) scale(0.9090909090909091) translate(-626.08119 -80.328)"></path> 
   <path id="path387395" style="font-style: normal; font-weight: 700; font-size: 72px; line-height: 1; font-family: &quot;Comfortaa Bold Alt1&quot;; font-variant-ligatures: none; text-align: center; text-anchor: middle; fill: rgb(191, 191, 191);" d="m 699.41769,82.92 c -3.024,-1.728 -6.408,-2.592 -10.152,-2.592 -3.888,0 -7.272,0.864 -10.296,2.592 -3.024,1.728 -5.4,4.032 -7.056,7.056 -1.728,3.024 -2.52,6.48 -2.52,10.368 0,3.888 0.792,7.272 2.52,10.296 1.656,3.024 4.032,5.4 7.056,7.128 3.024,1.728 6.408,2.52 10.296,2.52 3.816,0 7.2,-0.792 10.224,-2.52 3.024,-1.728 5.328,-4.104 7.056,-7.128 1.656,-3.024 2.52,-6.408 2.52,-10.296 0,-3.888 -0.864,-7.344 -2.592,-10.368 -1.728,-3.024 -4.032,-5.328 -7.056,-7.056 z m -16.776,5.616 c 1.944,-1.152 4.176,-1.728 6.624,-1.728 2.448,0 4.608,0.576 6.552,1.728 1.944,1.152 3.456,2.808 4.536,4.824 1.08,2.088 1.656,4.392 1.656,6.984 0,2.592 -0.576,4.968 -1.656,6.984 -1.08,2.016 -2.592,3.6 -4.536,4.752 -1.944,1.152 -4.104,1.728 -6.552,1.728 -2.448,0 -4.68,-0.576 -6.624,-1.728 -1.944,-1.152 -3.456,-2.736 -4.536,-4.752 -1.152,-2.016 -1.656,-4.392 -1.656,-6.984 0,-2.592 0.504,-4.896 1.656,-6.984 1.08,-2.016 2.592,-3.672 4.536,-4.824 z" transform="translate(0 306.57890909090906) translate(708.5792636363635 59.25745454545455) scale(0.9090909090909091) translate(-669.39369 -80.328)"></path> 
   <path id="path387397" style="font-style: normal; font-weight: 700; font-size: 72px; line-height: 1; font-family: &quot;Comfortaa Bold Alt1&quot;; font-variant-ligatures: none; text-align: center; text-anchor: middle; fill: rgb(191, 191, 191);" d="m 712.68256,70.104 c 0.72,0.72 1.584,1.008 2.664,1.008 h 21.888 l -20.664,42.912 c -0.432,0.864 -0.648,1.656 -0.648,2.304 0,1.008 0.36,1.872 1.08,2.592 0.72,0.72 1.512,1.08 2.52,1.08 0.648,0 1.296,-0.144 1.944,-0.504 0.576,-0.36 1.08,-0.864 1.44,-1.512 l 23.04,-48.6 c 0.288,-0.72 0.504,-1.368 0.504,-1.944 0,-1.008 -0.36,-1.872 -1.08,-2.592 -0.72,-0.72 -1.584,-1.08 -2.592,-1.08 h -27.432 c -1.08,0 -1.944,0.36 -2.664,1.08 -0.72,0.72 -1.008,1.584 -1.008,2.592 0,1.08 0.288,1.944 1.008,2.664 z" transform="translate(0 306.57890909090906) translate(760.6527818181817 44.20290909090909) scale(0.9090909090909091) translate(-711.67456 -63.768)"></path> 
  </g> 
  <g id="tagline" style="font-style:normal;font-weight:500;font-size:32px;line-height:1;font-family:Raleway;font-variant-ligatures:none;text-align:center;text-anchor:middle"></g> 
 </g> 
</svg>