<svg xmlns:dc="http://purl.org/dc/elements/1.1/" xmlns:cc="http://creativecommons.org/ns#" xmlns:rdf="http://www.w3.org/1999/02/22-rdf-syntax-ns#" xmlns:svg="http://www.w3.org/2000/svg" xmlns="http://www.w3.org/2000/svg" id="svg385825" viewbox="0 0 1024 768" height="768px" width="1024px" version="1.1"> <metadata id="metadata385831"> 
  <rdf:rdf> 
   <cc:work rdf:about=""> 
    <dc:format>
     image/svg+xml
    </dc:format> 
    <dc:type rdf:resource="http://purl.org/dc/dcmitype/StillImage"></dc:type> 
   </cc:work> 
  </rdf:rdf> 
 </metadata> <defs id="defs385829"></defs> <g id="logo-group"> 
  <g id="title" style="font-style:normal;font-weight:700;font-size:72px;line-height:1;font-family:'Comfortaa Bold Alt2';font-variant-ligatures:none;text-align:center;text-anchor:middle" aria-label="Alldigitalo7"> 
   <path id="path385833" style="font-style: normal; font-weight: 700; font-size: 72px; line-height: 1; font-family: &quot;Comfortaa Bold Alt2&quot;; font-variant-ligatures: none; text-align: center; text-anchor: middle; fill: rgb(112, 121, 128);" d="M 353.54487,114.744 333.24088,66.288 c -0.64801,-1.656 -1.80001,-2.52 -3.52801,-2.52 -1.656,0 -2.808,0.864 -3.528,2.52 l -20.232,48.312 c -0.288,0.648 -0.36,1.224 -0.36,1.656 0,1.08 0.288,1.944 1.008,2.664 0.72,0.72 1.584,1.08 2.66401,1.08 0.71999,0 1.368,-0.144 2.01599,-0.576 0.576,-0.432 1.08001,-0.936 1.44,-1.728 l 17.136,-41.904 16.84801,41.904 c 0.216,0.72 0.71999,1.296 1.36799,1.728 0.648,0.432 1.296,0.576 2.08801,0.576 1.008,0 1.94399,-0.36 2.664,-1.08 0.71999,-0.72 1.07999,-1.584 1.07999,-2.592 0,-0.432 -0.144,-0.936 -0.36,-1.584 z" transform="translate(0 271.198591170593) translate(252.0000000000001 66.72384280989334) scale(1.2622607390837624) translate(-305.59287 -63.768)"></path> 
   <path id="path385835" style="font-style: normal; font-weight: 700; font-size: 72px; line-height: 1; font-family: &quot;Comfortaa Bold Alt2&quot;; font-variant-ligatures: none; text-align: center; text-anchor: middle; fill: rgb(112, 121, 128);" d="m 360.96987,64.776 c -0.72,0.72 -1.00799,1.584 -1.00799,2.592 v 39.312 c 0,2.592 0.43199,4.896 1.368,6.912 0.86399,2.016 2.15999,3.6 3.81599,4.752 1.656,1.152 3.528,1.656 5.616,1.656 h 0.144 c 1.44,0 2.59201,-0.288 3.528,-1.008 0.864,-0.648 1.368,-1.512 1.368,-2.592 0,-1.008 -0.36,-1.872 -0.93599,-2.592 -0.57601,-0.648 -1.368,-1.008 -2.30401,-1.008 h -1.8 c -1.08,0 -1.94399,-0.576 -2.592,-1.728 -0.71999,-1.152 -1.008,-2.592 -1.008,-4.392 V 67.368 c 0,-1.008 -0.36,-1.872 -1.008,-2.592 -0.72,-0.648 -1.58399,-1.008 -2.592,-1.008 -1.08,0 -1.94399,0.36 -2.592,1.008 z" transform="translate(0 271.198591170593) translate(320.6278667458526 66.72384280989334) scale(1.2622607390837624) translate(-359.96188 -63.768)"></path> 
   <path id="path385837" style="font-style: normal; font-weight: 700; font-size: 72px; line-height: 1; font-family: &quot;Comfortaa Bold Alt2&quot;; font-variant-ligatures: none; text-align: center; text-anchor: middle; fill: rgb(112, 121, 128);" d="m 382.62612,64.776 c -0.72,0.72 -1.00799,1.584 -1.00799,2.592 v 39.312 c 0,2.592 0.43199,4.896 1.368,6.912 0.86399,2.016 2.15999,3.6 3.81599,4.752 1.656,1.152 3.528,1.656 5.616,1.656 h 0.144 c 1.44,0 2.59201,-0.288 3.528,-1.008 0.864,-0.648 1.368,-1.512 1.368,-2.592 0,-1.008 -0.36,-1.872 -0.93599,-2.592 -0.57601,-0.648 -1.368,-1.008 -2.30401,-1.008 h -1.8 c -1.08,0 -1.94399,-0.576 -2.592,-1.728 -0.71999,-1.152 -1.008,-2.592 -1.008,-4.392 V 67.368 c 0,-1.008 -0.36,-1.872 -1.008,-2.592 -0.72,-0.648 -1.58399,-1.008 -2.592,-1.008 -1.08,0 -1.94399,0.36 -2.592,1.008 z" transform="translate(0 271.198591170593) translate(347.9637008766353 66.72384280989334) scale(1.2622607390837624) translate(-381.61813 -63.768)"></path> 
   <path id="path385839" style="font-style: normal; font-weight: 700; font-size: 72px; line-height: 1; font-family: &quot;Comfortaa Bold Alt2&quot;; font-variant-ligatures: none; text-align: center; text-anchor: middle; fill: rgb(150, 161, 171);" d="m 406.133,114.456 c 3.888,3.96 8.568,5.904 14.112,5.904 5.544,0 10.224,-1.944 14.112,-5.904 3.888,-3.888 5.904,-8.568 5.904,-14.112 v -33.12 c 0,-0.936 -0.36,-1.728 -1.08,-2.448 -0.648,-0.648 -1.44,-1.008 -2.376,-1.008 -1.008,0 -1.8,0.36 -2.448,1.008 -0.72,0.72 -1.008,1.512 -1.008,2.448 v 18 c -3.744,-3.24 -8.136,-4.824 -13.104,-4.824 -5.544,0 -10.224,1.944 -14.112,5.832 -3.888,3.888 -5.832,8.64 -5.832,14.112 0,5.544 1.944,10.224 5.832,14.112 z m 14.112,-27.144 c 3.6,0 6.696,1.296 9.216,3.816 2.592,2.52 3.888,5.616 3.888,9.216 0,3.6 -1.296,6.696 -3.888,9.288 -2.52,2.52 -5.616,3.816 -9.216,3.816 -3.6,0 -6.696,-1.296 -9.216,-3.816 -2.592,-2.592 -3.816,-5.688 -3.816,-9.288 0,-3.6 1.224,-6.696 3.816,-9.216 2.52,-2.52 5.616,-3.816 9.216,-3.816 z" transform="translate(0 271.198591170593) translate(371.5463541710411 66.72384280989334) scale(1.2622607390837624) translate(-400.301 -63.768)"></path> 
   <path id="path385841" style="font-style: normal; font-weight: 700; font-size: 72px; line-height: 1; font-family: &quot;Comfortaa Bold Alt2&quot;; font-variant-ligatures: none; text-align: center; text-anchor: middle; fill: rgb(150, 161, 171);" d="m 454.958,81.624 c -0.72,0.72 -1.008,1.584 -1.008,2.664 v 32.04 c 0,1.08 0.288,1.944 1.008,2.664 0.72,0.72 1.584,1.008 2.664,1.008 1.08,0 1.944,-0.288 2.664,-1.008 0.648,-0.72 1.008,-1.584 1.008,-2.664 v -32.04 c 0,-1.08 -0.36,-1.944 -1.008,-2.664 -0.72,-0.648 -1.584,-1.008 -2.664,-1.008 -1.08,0 -1.944,0.36 -2.664,1.008 z m 5.976,-15.48 c -0.936,-0.936 -2.016,-1.44 -3.312,-1.44 -1.296,0 -2.448,0.504 -3.384,1.44 -0.936,0.936 -1.368,2.016 -1.368,3.312 0,1.296 0.432,2.448 1.368,3.384 0.936,0.936 2.088,1.368 3.384,1.368 1.296,0 2.376,-0.432 3.312,-1.368 0.936,-0.936 1.44,-2.088 1.44,-3.384 0,-1.296 -0.504,-2.376 -1.44,-3.312 z" transform="translate(0 271.198591170593) translate(437.9021389639355 67.90531886167574) scale(1.2622607390837624) translate(-452.87 -64.704)"></path> 
   <path id="path385843" style="font-style: normal; font-weight: 700; font-size: 72px; line-height: 1; font-family: &quot;Comfortaa Bold Alt2&quot;; font-variant-ligatures: none; text-align: center; text-anchor: middle; fill: rgb(150, 161, 171);" d="m 512.82687,100.272 c 0,-5.544 -2.016,-10.224 -5.904,-14.184 -3.96,-3.888 -8.64,-5.904 -14.184,-5.904 -5.54399,0 -10.22399,2.016 -14.184,5.904 -3.888,3.96 -5.832,8.64 -5.832,14.184 0,5.544 1.944,10.224 5.832,14.184 3.96001,3.888 8.64001,5.832 14.184,5.832 4.96801,0 9.28801,-1.584 13.104,-4.824 v 1.368 c 0,3.6 -1.296,6.696 -3.81599,9.216 -2.59201,2.592 -5.688,3.816 -9.28801,3.816 -2.232,0 -4.31999,-0.504 -6.264,-1.584 -1.944,-1.008 -3.528,-2.52 -4.68,-4.392 -0.57599,-0.792 -1.296,-1.296 -2.23199,-1.44 -0.93601,-0.216 -1.80001,-0.072 -2.59201,0.432 -0.792,0.504 -1.296,1.224 -1.512,2.16 -0.21599,0.936 0,1.8 0.504,2.592 1.224,1.944 2.736,3.6 4.464,4.968 1.728,1.368 3.67201,2.376 5.76,3.096 2.088,0.72 4.32,1.08 6.552,1.08 5.544,0 10.224,-1.944 14.112,-5.832 3.888,-3.888 5.904,-8.568 5.904,-14.112 V 102 c 0,-0.576 0.072,-1.152 0.072,-1.728 z m -20.088,12.96 c -3.6,0 -6.624,-1.224 -9.144,-3.816 -2.59199,-2.52 -3.816,-5.544 -3.816,-9.144 0,-3.6 1.22401,-6.624 3.816,-9.216 2.52,-2.52 5.544,-3.816 9.144,-3.816 3.60001,0 6.624,1.296 9.21601,3.816 2.51999,2.592 3.81599,5.616 3.81599,9.216 0,3.6 -1.296,6.624 -3.81599,9.144 -2.59201,2.592 -5.616,3.816 -9.21601,3.816 z" transform="translate(0 271.198591170593) translate(462.96163732306934 87.4451151026924) scale(1.2622607390837624) translate(-472.72287 -80.184)"></path> 
   <path id="path385845" style="font-style: normal; font-weight: 700; font-size: 72px; line-height: 1; font-family: &quot;Comfortaa Bold Alt2&quot;; font-variant-ligatures: none; text-align: center; text-anchor: middle; fill: rgb(150, 161, 171);" d="m 525.41112,81.624 c -0.71999,0.72 -1.00799,1.584 -1.00799,2.664 v 32.04 c 0,1.08 0.288,1.944 1.00799,2.664 0.72,0.72 1.58401,1.008 2.664,1.008 1.08,0 1.94401,-0.288 2.664,-1.008 0.648,-0.72 1.008,-1.584 1.008,-2.664 v -32.04 c 0,-1.08 -0.36,-1.944 -1.008,-2.664 -0.71999,-0.648 -1.584,-1.008 -2.664,-1.008 -1.07999,0 -1.944,0.36 -2.664,1.008 z m 5.976,-15.48 c -0.93599,-0.936 -2.016,-1.44 -3.312,-1.44 -1.29599,0 -2.448,0.504 -3.38399,1.44 -0.936,0.936 -1.36801,2.016 -1.36801,3.312 0,1.296 0.43201,2.448 1.36801,3.384 0.93599,0.936 2.088,1.368 3.38399,1.368 1.296,0 2.37601,-0.432 3.312,-1.368 0.936,-0.936 1.44001,-2.088 1.44001,-3.384 0,-1.296 -0.50401,-2.376 -1.44001,-3.312 z" transform="translate(0 271.198591170593) translate(526.8323462858925 67.90531886167574) scale(1.2622607390837624) translate(-523.32312 -64.704)"></path> 
   <path id="path385847" style="font-style: normal; font-weight: 700; font-size: 72px; line-height: 1; font-family: &quot;Comfortaa Bold Alt2&quot;; font-variant-ligatures: none; text-align: center; text-anchor: middle; fill: rgb(150, 161, 171);" d="m 561.896,112.8 c -2.088,0 -3.888,-0.72 -5.328,-2.232 -1.512,-1.44 -2.232,-3.24 -2.232,-5.328 V 88.32 h 6.408 c 0.864,0 1.656,-0.288 2.304,-0.936 0.576,-0.576 0.936,-1.368 0.936,-2.304 0,-0.864 -0.36,-1.656 -0.936,-2.304 -0.648,-0.576 -1.44,-0.936 -2.304,-0.936 h -6.408 V 71.688 c 0,-1.008 -0.36,-1.8 -1.08,-2.52 -0.72,-0.72 -1.512,-1.08 -2.52,-1.08 -1.008,0 -1.872,0.36 -2.592,1.08 -0.72,0.72 -1.008,1.512 -1.008,2.52 v 33.552 c 0,4.104 1.44,7.56 4.32,10.44 2.88,2.88 6.336,4.32 10.44,4.32 1.008,0 1.8,-0.288 2.52,-1.008 0.72,-0.72 1.08,-1.584 1.08,-2.592 0,-1.008 -0.36,-1.8 -1.08,-2.52 -0.72,-0.72 -1.512,-1.08 -2.52,-1.08 z" transform="translate(0 271.198591170593) translate(556.8904097944054 72.1768092027352) scale(1.2622607390837624) translate(-547.136 -68.088)"></path> 
   <path id="path385849" style="font-style: normal; font-weight: 700; font-size: 72px; line-height: 1; font-family: &quot;Comfortaa Bold Alt2&quot;; font-variant-ligatures: none; text-align: center; text-anchor: middle; fill: rgb(150, 161, 171);" d="m 606.13212,86.232 c -3.88799,-3.888 -8.568,-5.904 -14.112,-5.904 -5.47199,0 -10.224,2.016 -14.11199,5.904 -3.88801,3.888 -5.832,8.568 -5.832,14.112 0,5.544 1.94399,10.224 5.832,14.112 3.88799,3.888 8.64,5.832 14.11199,5.832 4.968,0 9.36001,-1.584 13.10401,-4.824 v 1.368 c 0,1.008 0.288,1.8 1.00799,2.448 0.648,0.72 1.44001,1.008 2.448,1.008 0.936,0 1.72801,-0.288 2.44801,-1.008 0.64799,-0.648 1.00799,-1.44 1.00799,-2.448 v -16.488 c 0,-5.544 -1.944,-10.224 -5.904,-14.112 z m -14.112,27.144 c -3.6,0 -6.696,-1.224 -9.216,-3.816 -2.59199,-2.52 -3.816,-5.616 -3.816,-9.216 0,-3.6 1.22401,-6.696 3.816,-9.216 2.52,-2.592 5.616,-3.888 9.216,-3.888 3.60001,0 6.69601,1.296 9.21601,3.888 2.59199,2.52 3.888,5.616 3.888,9.216 0,3.6 -1.29601,6.696 -3.888,9.216 -2.52,2.592 -5.616,3.816 -9.21601,3.816 z" transform="translate(0 271.198591170593) translate(588.3713567210507 87.62688064912047) scale(1.2622607390837624) translate(-572.07613 -80.328)"></path> 
   <path id="path385851" style="font-style: normal; font-weight: 700; font-size: 72px; line-height: 1; font-family: &quot;Comfortaa Bold Alt2&quot;; font-variant-ligatures: none; text-align: center; text-anchor: middle; fill: rgb(150, 161, 171);" d="m 622.53237,64.776 c -0.72,0.72 -1.008,1.584 -1.008,2.592 v 39.312 c 0,2.592 0.432,4.896 1.36801,6.912 0.864,2.016 2.15999,3.6 3.816,4.752 1.65599,1.152 3.52799,1.656 5.616,1.656 h 0.144 c 1.43999,0 2.592,-0.288 3.52799,-1.008 0.864,-0.648 1.368,-1.512 1.368,-2.592 0,-1.008 -0.36,-1.872 -0.936,-2.592 -0.57599,-0.648 -1.36799,-1.008 -2.304,-1.008 h -1.79999 c -1.08001,0 -1.94401,-0.576 -2.592,-1.728 -0.72,-1.152 -1.00801,-2.592 -1.00801,-4.392 V 67.368 c 0,-1.008 -0.36,-1.872 -1.008,-2.592 -0.72,-0.648 -1.58399,-1.008 -2.592,-1.008 -1.08,0 -1.94399,0.36 -2.592,1.008 z" transform="translate(0 271.198591170593) translate(650.7879286898419 66.72384280989334) scale(1.2622607390837624) translate(-621.52437 -63.768)"></path> 
   <path id="path385853" style="font-style: normal; font-weight: 700; font-size: 72px; line-height: 1; font-family: &quot;Comfortaa Bold Alt2&quot;; font-variant-ligatures: none; text-align: center; text-anchor: middle; fill: rgb(188, 202, 214);" d="m 660.29525,120.288 c 5.544,0 10.224,-1.944 14.112,-5.832 3.888,-3.888 5.904,-8.568 5.904,-14.112 0,-5.544 -2.016,-10.224 -5.904,-14.112 -3.888,-3.888 -8.568,-5.904 -14.112,-5.904 -5.544,0 -10.224,2.016 -14.112,5.904 -3.888,3.888 -5.832,8.568 -5.832,14.112 0,5.544 1.944,10.224 5.832,14.112 3.888,3.888 8.568,5.832 14.112,5.832 z m 0,-33.048 c 3.6,0 6.696,1.296 9.288,3.816 2.52,2.592 3.816,5.688 3.816,9.288 0,3.6 -1.296,6.696 -3.816,9.216 -2.592,2.592 -5.688,3.816 -9.288,3.816 -3.6,0 -6.696,-1.224 -9.216,-3.816 -2.592,-2.52 -3.816,-5.616 -3.816,-9.216 0,-3.6 1.224,-6.696 3.816,-9.288 2.52,-2.52 5.616,-3.816 9.216,-3.816 z" transform="translate(0 271.198591170593) translate(674.5523601532833 87.62688064912047) scale(1.2622607390837624) translate(-640.35125 -80.328)"></path> 
   <path id="path385855" style="font-style: normal; font-weight: 700; font-size: 72px; line-height: 1; font-family: &quot;Comfortaa Bold Alt2&quot;; font-variant-ligatures: none; text-align: center; text-anchor: middle; fill: rgb(188, 202, 214);" d="m 683.78413,70.104 c 0.72,0.72 1.58399,1.008 2.66399,1.008 h 21.88801 l -20.664,42.912 c -0.432,0.864 -0.648,1.656 -0.648,2.304 0,1.008 0.36,1.872 1.07999,2.592 0.72,0.72 1.512,1.08 2.52001,1.08 0.64799,0 1.29599,-0.144 1.94399,-0.504 0.57601,-0.36 1.08001,-0.864 1.44,-1.512 l 23.04001,-48.6 c 0.288,-0.72 0.504,-1.368 0.504,-1.944 0,-1.008 -0.36,-1.872 -1.08001,-2.592 -0.72,-0.72 -1.584,-1.08 -2.59199,-1.08 h -27.43201 c -1.08,0 -1.94399,0.36 -2.66399,1.08 -0.72001,0.72 -1.00801,1.584 -1.00801,2.592 0,1.08 0.288,1.944 1.00801,2.664 z" transform="translate(0 271.198591170593) translate(728.1036079150157 66.72384280989334) scale(1.2622607390837624) translate(-682.77612 -63.768)"></path> 
  </g> 
  <g id="tagline" style="font-style:normal;font-weight:500;font-size:32px;line-height:1;font-family:Raleway;font-variant-ligatures:none;text-align:center;text-anchor:middle"></g> 
 </g> 
</svg>