<svg xmlns:dc="http://purl.org/dc/elements/1.1/" xmlns:cc="http://creativecommons.org/ns#" xmlns:rdf="http://www.w3.org/1999/02/22-rdf-syntax-ns#" xmlns:svg="http://www.w3.org/2000/svg" xmlns="http://www.w3.org/2000/svg" id="svg511033" viewbox="0 0 1024 768" height="768px" width="1024px" version="1.1"> <metadata id="metadata511039"> 
  <rdf:rdf> 
   <cc:work rdf:about=""> 
    <dc:format>
     image/svg+xml
    </dc:format> 
    <dc:type rdf:resource="http://purl.org/dc/dcmitype/StillImage"></dc:type> 
   </cc:work> 
  </rdf:rdf> 
 </metadata> <defs id="defs511037"></defs> <g id="logo-group"> 
  <g id="title" style="font-style:normal;font-weight:300;font-size:72px;line-height:1;font-family:'Montserrat Light Alt1';font-variant-ligatures:none;text-align:center;text-anchor:middle" aria-label="Allproo7"> 
   <path id="path511041" style="font-style: normal; font-weight: 300; font-size: 72px; line-height: 1; font-family: &quot;Montserrat Light Alt1&quot;; font-variant-ligatures: none; text-align: center; text-anchor: middle; fill: rgb(148, 151, 156);" d="m 392.54412,69.6 h -3.672 L 365.68813,120 h 3.95999 l 21.024,-46.368 21.096,46.368 h 3.96 z" transform="translate(0 240.04701155592065) translate(251.99999999999994 94.84909968593348) scale(1.6009353403151363) translate(-365.68813 -69.6)"></path> 
   <path id="path511043" style="font-style: normal; font-weight: 300; font-size: 72px; line-height: 1; font-family: &quot;Montserrat Light Alt1&quot;; font-variant-ligatures: none; text-align: center; text-anchor: middle; fill: rgb(148, 151, 156);" d="M 423.72575,66.576 V 120 h 3.6 V 66.576 Z" transform="translate(0 240.04701155592065) translate(352.91915362735625 90.00787121682052) scale(1.6009353403151363) translate(-423.72575 -66.576)"></path> 
   <path id="path511045" style="font-style: normal; font-weight: 300; font-size: 72px; line-height: 1; font-family: &quot;Montserrat Light Alt1&quot;; font-variant-ligatures: none; text-align: center; text-anchor: middle; fill: rgb(148, 151, 156);" d="M 442.5695,66.576 V 120 h 3.6 V 66.576 Z" transform="translate(0 240.04701155592065) translate(391.0914556479953 90.00787121682052) scale(1.6009353403151363) translate(-442.5695 -66.576)"></path> 
   <path id="path511047" style="font-style: normal; font-weight: 300; font-size: 72px; line-height: 1; font-family: &quot;Montserrat Light Alt1&quot;; font-variant-ligatures: none; text-align: center; text-anchor: middle; fill: rgb(148, 151, 156);" d="m 489.78125,84.576 c -2.88,-1.584 -6.048,-2.448 -9.504,-2.448 -3.384,0 -6.408,0.864 -9.144,2.448 -2.736,1.584 -4.824,3.816 -6.264,6.696 v -8.856 h -3.456 v 51.552 h 3.6 v -22.536 c 1.44,2.808 3.528,4.968 6.264,6.552 2.664,1.584 5.688,2.304 9,2.304 3.456,0 6.624,-0.792 9.504,-2.376 2.808,-1.584 5.04,-3.888 6.624,-6.768 1.584,-2.88 2.448,-6.192 2.448,-9.936 0,-3.672 -0.864,-6.984 -2.448,-9.864 -1.584,-2.88 -3.816,-5.112 -6.624,-6.768 z m -1.944,30.456 c -2.304,1.368 -4.896,2.016 -7.776,2.016 -2.88,0 -5.472,-0.648 -7.776,-2.016 -2.304,-1.296 -4.104,-3.168 -5.4,-5.616 -1.296,-2.376 -1.944,-5.112 -1.944,-8.208 0,-3.024 0.648,-5.76 1.944,-8.208 1.296,-2.376 3.096,-4.248 5.4,-5.616 2.304,-1.296 4.896,-2.016 7.776,-2.016 2.88,0 5.472,0.72 7.776,2.016 2.304,1.368 4.104,3.24 5.4,5.616 1.296,2.448 2.016,5.184 2.016,8.208 0,3.096 -0.72,5.832 -2.016,8.208 -1.296,2.448 -3.096,4.32 -5.4,5.616 z" transform="translate(0 240.04701155592065) translate(429.2637576686343 114.90561762940152) scale(1.6009353403151363) translate(-461.41325 -82.128)"></path> 
   <path id="path511049" style="font-style: normal; font-weight: 300; font-size: 72px; line-height: 1; font-family: &quot;Montserrat Light Alt1&quot;; font-variant-ligatures: none; text-align: center; text-anchor: middle; fill: rgb(148, 151, 156);" d="m 518.9255,84.36 c -2.448,1.44 -4.248,3.528 -5.4,6.264 v -8.208 h -3.456 V 120 h 3.6 v -19.584 c 0,-4.608 1.152,-8.28 3.528,-10.872 2.304,-2.592 5.616,-3.96 9.792,-3.96 l 0.864,0.072 v -3.528 c -3.528,0 -6.48,0.792 -8.928,2.232 z" transform="translate(0 240.04701155592065) translate(515.1639445224183 114.90561762940152) scale(1.6009353403151363) translate(-510.0695 -82.128)"></path> 
   <path id="path511051" style="font-style: normal; font-weight: 300; font-size: 72px; line-height: 1; font-family: &quot;Montserrat Light Alt1&quot;; font-variant-ligatures: none; text-align: center; text-anchor: middle; fill: rgb(148, 151, 156);" d="m 542.53138,117.84 c 2.88,1.656 6.048,2.448 9.648,2.448 3.52799,0 6.69599,-0.792 9.57599,-2.448 2.88,-1.584 5.11201,-3.888 6.768,-6.768 1.58401,-2.88 2.448,-6.192 2.448,-9.864 0,-3.6 -0.86399,-6.912 -2.448,-9.792 -1.65599,-2.88 -3.888,-5.184 -6.768,-6.84 -2.88,-1.584 -6.048,-2.448 -9.57599,-2.448 -3.6,0 -6.768,0.864 -9.648,2.448 -2.88,1.656 -5.11201,3.96 -6.69601,6.84 -1.65599,2.88 -2.44799,6.192 -2.44799,9.792 0,3.672 0.792,6.984 2.44799,9.864 1.584,2.88 3.81601,5.184 6.69601,6.768 z m 17.35199,-2.808 c -2.30399,1.368 -4.82399,2.016 -7.70399,2.016 -2.88,0 -5.47201,-0.648 -7.77601,-2.016 -2.304,-1.296 -4.10399,-3.168 -5.4,-5.616 -1.296,-2.376 -1.94399,-5.112 -1.94399,-8.208 0,-3.024 0.64799,-5.76 1.94399,-8.208 1.29601,-2.376 3.096,-4.248 5.4,-5.616 2.304,-1.296 4.89601,-2.016 7.77601,-2.016 2.88,0 5.4,0.72 7.70399,2.016 2.304,1.368 4.10401,3.24 5.4,5.616 1.29601,2.448 2.01601,5.184 2.01601,8.208 0,3.096 -0.72,5.832 -2.01601,8.208 -1.29599,2.448 -3.096,4.32 -5.4,5.616 z" transform="translate(0 240.04701155592065) translate(560.4990393772214 114.90561762940152) scale(1.6009353403151363) translate(-533.38738 -82.128)"></path> 
   <path id="path511053" style="font-style: normal; font-weight: 300; font-size: 72px; line-height: 1; font-family: &quot;Montserrat Light Alt1&quot;; font-variant-ligatures: none; text-align: center; text-anchor: middle; fill: rgb(83, 62, 58);" d="m 587.1095,117.84 c 2.88,1.656 6.048,2.448 9.648,2.448 3.528,0 6.696,-0.792 9.576,-2.448 2.88,-1.584 5.112,-3.888 6.768,-6.768 1.584,-2.88 2.448,-6.192 2.448,-9.864 0,-3.6 -0.864,-6.912 -2.448,-9.792 -1.656,-2.88 -3.888,-5.184 -6.768,-6.84 -2.88,-1.584 -6.048,-2.448 -9.576,-2.448 -3.6,0 -6.768,0.864 -9.648,2.448 -2.88,1.656 -5.112,3.96 -6.696,6.84 -1.656,2.88 -2.448,6.192 -2.448,9.792 0,3.672 0.792,6.984 2.448,9.864 1.584,2.88 3.816,5.184 6.696,6.768 z m 17.352,-2.808 c -2.304,1.368 -4.824,2.016 -7.704,2.016 -2.88,0 -5.472,-0.648 -7.776,-2.016 -2.304,-1.296 -4.104,-3.168 -5.4,-5.616 -1.296,-2.376 -1.944,-5.112 -1.944,-8.208 0,-3.024 0.648,-5.76 1.944,-8.208 1.296,-2.376 3.096,-4.248 5.4,-5.616 2.304,-1.296 4.896,-2.016 7.776,-2.016 2.88,0 5.4,0.72 7.704,2.016 2.304,1.368 4.104,3.24 5.4,5.616 1.296,2.448 2.016,5.184 2.016,8.208 0,3.096 -0.72,5.832 -2.016,8.208 -1.296,2.448 -3.096,4.32 -5.4,5.616 z" transform="translate(0 240.04701155592065) translate(639.8704037916061 114.90561762940152) scale(1.6009353403151363) translate(-577.9655 -82.128)"></path> 
   <path id="path511055" style="font-style: normal; font-weight: 300; font-size: 72px; line-height: 1; font-family: &quot;Montserrat Light Alt1&quot;; font-variant-ligatures: none; text-align: center; text-anchor: middle; fill: rgb(83, 62, 58);" d="m 655.49825,69.6 h -36.144 v 12.96 h 3.6 v -9.648 h 28.296 L 629.79425,120 h 4.032 l 21.672,-47.808 z" transform="translate(0 240.04701155592065) translate(714.1357930596497 94.84909968593348) scale(1.6009353403151363) translate(-619.35425 -69.6)"></path> 
  </g> 
  <g id="tagline" style="font-style:normal;font-weight:400;font-size:32px;line-height:1;font-family:Montserrat;font-variant-ligatures:none;text-align:center;text-anchor:middle"></g> 
 </g> 
</svg>