<svg xmlns:dc="http://purl.org/dc/elements/1.1/" xmlns:cc="http://creativecommons.org/ns#" xmlns:rdf="http://www.w3.org/1999/02/22-rdf-syntax-ns#" xmlns:svg="http://www.w3.org/2000/svg" xmlns="http://www.w3.org/2000/svg" id="svg285607" viewbox="0 0 1024 768" height="768px" width="1024px" version="1.1"> <metadata id="metadata285613"> 
  <rdf:rdf> 
   <cc:work rdf:about=""> 
    <dc:format>
     image/svg+xml
    </dc:format> 
    <dc:type rdf:resource="http://purl.org/dc/dcmitype/StillImage"></dc:type> 
   </cc:work> 
  </rdf:rdf> 
 </metadata> <defs id="defs285611"></defs> <g id="logo-group"> 
  <g id="title" style="font-style:normal;font-weight:800;font-size:72px;line-height:1;font-family:'Montserrat ExtraBold Alt1';font-variant-ligatures:none;text-align:center;text-anchor:middle" aria-label="ALPHAO7"> 
   <path id="path285615" style="font-style: normal; font-weight: 800; font-size: 72px; line-height: 1; font-family: &quot;Montserrat ExtraBold Alt1&quot;; font-variant-ligatures: none; text-align: center; text-anchor: middle; fill: rgb(57, 192, 220);" d="m 360.66894,69.6 h -14.04 l -22.248,50.4 h 14.544 l 3.96,-9.792 4.176,-10.512 6.48,-16.128 6.48,16.128 4.176,10.512 3.96,9.792 h 14.832 z" transform="translate(0 267.16342857142854) translate(233.4202714285713 80.83657142857142) scale(1.4285714285714286) translate(-324.38094 -69.6)"></path> 
   <path id="path285617" style="font-style: normal; font-weight: 800; font-size: 72px; line-height: 1; font-family: &quot;Montserrat ExtraBold Alt1&quot;; font-variant-ligatures: none; text-align: center; text-anchor: middle; fill: rgb(57, 192, 220);" d="M 387.03219,69.6 V 120 h 38.304 v -11.304 h -24.048 V 69.6 Z" transform="translate(0 267.16342857142854) translate(327.2077714285713 80.83657142857142) scale(1.4285714285714286) translate(-387.03219 -69.6)"></path> 
   <path id="path285619" style="font-style: normal; font-weight: 800; font-size: 72px; line-height: 1; font-family: &quot;Montserrat ExtraBold Alt1&quot;; font-variant-ligatures: none; text-align: center; text-anchor: middle; fill: rgb(57, 192, 220);" d="m 473.60319,78.384 c -1.872,-2.808 -4.464,-4.968 -7.776,-6.48 -3.384,-1.512 -7.344,-2.304 -11.88,-2.304 h -23.04 v 11.232 h 22.176 c 2.88,0 5.112,0.648 6.624,1.944 1.44,1.296 2.232,3.168 2.232,5.472 0,2.376 -0.792,4.176 -2.232,5.472 -1.512,1.296 -3.744,1.872 -6.624,1.872 h -22.176 V 120 h 14.256 v -13.176 h 8.784 c 4.536,0 8.496,-0.72 11.88,-2.232 3.312,-1.512 5.904,-3.672 7.776,-6.48 1.8,-2.736 2.736,-6.048 2.736,-9.864 0,-3.744 -0.936,-7.056 -2.736,-9.864 z" transform="translate(0 267.16342857142854) translate(394.17205714285706 80.83657142857142) scale(1.4285714285714286) translate(-430.90719 -69.6)"></path> 
   <path id="path285621" style="font-style: normal; font-weight: 800; font-size: 72px; line-height: 1; font-family: &quot;Montserrat ExtraBold Alt1&quot;; font-variant-ligatures: none; text-align: center; text-anchor: middle; fill: rgb(57, 192, 220);" d="m 531.17169,69.6 h -14.256 v 18.936 h -19.44 V 69.6 h -14.256 V 120 h 14.256 v -19.656 h 19.44 V 120 h 14.256 z" transform="translate(0 267.16342857142854) translate(473.18991428571417 80.83657142857142) scale(1.4285714285714286) translate(-483.21969 -69.6)"></path> 
   <path id="path285623" style="font-style: normal; font-weight: 800; font-size: 72px; line-height: 1; font-family: &quot;Montserrat ExtraBold Alt1&quot;; font-variant-ligatures: none; text-align: center; text-anchor: middle; fill: rgb(57, 192, 220);" d="m 571.46581,69.6 h -14.04 l -22.248,50.4 h 14.544 l 3.96,-9.792 4.176,-10.512 6.48,-16.128 6.48,16.128 4.176,10.512 3.96,9.792 h 14.832 z" transform="translate(0 267.16342857142854) translate(551.7015142857142 80.83657142857142) scale(1.4285714285714286) translate(-535.17781 -69.6)"></path> 
   <path id="path285625" style="font-style: normal; font-weight: 800; font-size: 72px; line-height: 1; font-family: &quot;Montserrat ExtraBold Alt1&quot;; font-variant-ligatures: none; text-align: center; text-anchor: middle; fill: rgb(57, 192, 220);" d="m 608.14194,117.624 c 4.248,2.304 9.072,3.384 14.4,3.384 5.328,0 10.08,-1.08 14.328,-3.384 4.248,-2.232 7.56,-5.328 10.008,-9.36 2.448,-3.96 3.672,-8.424 3.672,-13.464 0,-4.968 -1.224,-9.432 -3.672,-13.464 -2.448,-3.96 -5.76,-7.056 -10.008,-9.36 -4.248,-2.232 -9,-3.384 -14.328,-3.384 -5.328,0 -10.152,1.152 -14.4,3.384 -4.248,2.304 -7.56,5.4 -10.008,9.36 -2.448,4.032 -3.6,8.496 -3.6,13.464 0,5.04 1.152,9.504 3.6,13.464 2.448,4.032 5.76,7.128 10.008,9.36 z m 21.312,-10.224 c -2.088,1.224 -4.392,1.8 -6.912,1.8 -2.592,0 -4.896,-0.576 -6.912,-1.8 -2.088,-1.152 -3.744,-2.88 -4.896,-5.04 -1.224,-2.16 -1.8,-4.68 -1.8,-7.56 0,-2.808 0.576,-5.328 1.8,-7.488 1.152,-2.16 2.808,-3.888 4.896,-5.112 2.016,-1.152 4.32,-1.8 6.912,-1.8 2.52,0 4.824,0.648 6.912,1.8 2.016,1.224 3.672,2.952 4.896,5.112 1.152,2.16 1.8,4.68 1.8,7.488 0,2.88 -0.648,5.4 -1.8,7.56 -1.224,2.16 -2.88,3.888 -4.896,5.04 z" transform="translate(0 267.16342857142854) translate(640.7817 79.39657142857145) scale(1.4285714285714286) translate(-594.53394 -68.592)"></path> 
   <path id="path285627" style="font-style: normal; font-weight: 800; font-size: 72px; line-height: 1; font-family: &quot;Montserrat ExtraBold Alt1&quot;; font-variant-ligatures: none; text-align: center; text-anchor: middle; fill: rgb(57, 192, 220);" d="m 696.39256,69.6 h -41.76 v 19.08 h 12.168 v -7.776 h 13.248 L 663.05656,120 h 15.552 l 17.784,-41.472 z" transform="translate(0 267.16342857142854) translate(730.9225857142857 80.83657142857142) scale(1.4285714285714286) translate(-654.63256 -69.6)"></path> 
  </g> 
  <g id="tagline" style="font-style:normal;font-weight:500;font-size:32px;line-height:1;font-family:Montserrat;font-variant-ligatures:none;text-align:center;text-anchor:middle"></g> 
 </g> 
</svg>