<svg xmlns:dc="http://purl.org/dc/elements/1.1/" xmlns:cc="http://creativecommons.org/ns#" xmlns:rdf="http://www.w3.org/1999/02/22-rdf-syntax-ns#" xmlns:svg="http://www.w3.org/2000/svg" xmlns="http://www.w3.org/2000/svg" id="svg9439" viewbox="0 0 1024 768" height="768px" width="1024px" version="1.1"> <metadata id="metadata9445"> 
  <rdf:rdf> 
   <cc:work rdf:about=""> 
    <dc:format>
     image/svg+xml
    </dc:format> 
    <dc:type rdf:resource="http://purl.org/dc/dcmitype/StillImage"></dc:type> 
   </cc:work> 
  </rdf:rdf> 
 </metadata> <defs id="defs9443"></defs> <g id="logo-group"> 
  <g id="title" style="font-style:normal;font-weight:200;font-size:72px;line-height:1;font-family:Montserrat;font-variant-ligatures:none;text-align:center;text-anchor:middle" aria-label="ANCIENTO7"> 
   <path id="path9447" style="font-style: normal; font-weight: 200; font-size: 72px; line-height: 1; font-family: Montserrat; font-variant-ligatures: none; text-align: center; text-anchor: middle; fill: rgb(168, 139, 116);" d="m 351.80506,120 -7.056,-15.336 h -30.528 l -6.984,15.336 h -1.728 l 23.04,-50.328 h 1.584 l 23.328,50.328 z m -36.936,-16.776 h 29.16 l -14.688,-31.896 z" transform="translate(0 298.05066666666664) translate(216.52645555555551 58.02933333333333) scale(1.1111111111111112) translate(-305.50906 -69.672)"></path> 
   <path id="path9449" style="font-style: normal; font-weight: 200; font-size: 72px; line-height: 1; font-family: Montserrat; font-variant-ligatures: none; text-align: center; text-anchor: middle; fill: rgb(168, 139, 116);" d="m 401.02044,69.672 h 1.44 V 120 h -2.16 l -35.496,-48.888 V 120 h -1.44 V 69.672 h 2.16 l 35.496,48.888 z" transform="translate(0 298.05066666666664) translate(297.4768777777778 58.02933333333333) scale(1.1111111111111112) translate(-363.36444 -69.672)"></path> 
   <path id="path9451" style="font-style: normal; font-weight: 200; font-size: 72px; line-height: 1; font-family: Montserrat; font-variant-ligatures: none; text-align: center; text-anchor: middle; fill: rgb(168, 139, 116);" d="m 457.45606,76.872 q -3.24,-2.952 -7.488,-4.536 -4.176,-1.584 -8.856,-1.584 -6.624,0 -12.24,3.24 -5.616,3.24 -8.928,8.784 -3.312,5.544 -3.312,12.024 0,6.48 3.312,12.024 3.312,5.544 8.928,8.784 5.616,3.24 12.24,3.24 4.608,0 8.784,-1.584 4.248,-1.656 7.56,-4.608 l 1.008,0.936 q -3.528,3.168 -7.992,4.896 -4.464,1.728 -9.36,1.728 -6.984,0 -12.96,-3.456 -5.904,-3.456 -9.432,-9.288 -3.456,-5.832 -3.456,-12.672 0,-6.84 3.456,-12.672 3.528,-5.904 9.432,-9.288 5.976,-3.456 12.96,-3.456 4.896,0 9.288,1.728 4.464,1.728 7.992,4.824 z" transform="translate(0 298.05066666666664) translate(371.8097888888889 57.70933333333333) scale(1.1111111111111112) translate(-415.26406 -69.384)"></path> 
   <path id="path9453" style="font-style: normal; font-weight: 200; font-size: 72px; line-height: 1; font-family: Montserrat; font-variant-ligatures: none; text-align: center; text-anchor: middle; fill: rgb(168, 139, 116);" d="m 471.64569,69.672 h 1.44 V 120 h -1.44 z" transform="translate(0 298.05066666666664) translate(451.12271111111113 58.02933333333333) scale(1.1111111111111112) translate(-471.64569 -69.672)"></path> 
   <path id="path9455" style="font-style: normal; font-weight: 200; font-size: 72px; line-height: 1; font-family: Montserrat; font-variant-ligatures: none; text-align: center; text-anchor: middle; fill: rgb(168, 139, 116);" d="m 491.47381,69.672 h 31.464 v 1.44 h -30.024 V 93.36 h 26.712 v 1.44 h -26.712 v 23.76 h 31.032 V 120 h -32.472 z" transform="translate(0 298.05066666666664) translate(489.82062222222226 58.02933333333333) scale(1.1111111111111112) translate(-491.47381 -69.672)"></path> 
   <path id="path9457" style="font-style: normal; font-weight: 200; font-size: 72px; line-height: 1; font-family: Montserrat; font-variant-ligatures: none; text-align: center; text-anchor: middle; fill: rgb(168, 139, 116);" d="m 575.53606,69.672 h 1.44 V 120 h -2.16 l -35.496,-48.888 V 120 h -1.44 V 69.672 h 2.16 l 35.496,48.888 z" transform="translate(0 298.05066666666664) translate(558.0497888888889 58.02933333333333) scale(1.1111111111111112) translate(-537.88006 -69.672)"></path> 
   <path id="path9459" style="font-style: normal; font-weight: 200; font-size: 72px; line-height: 1; font-family: Montserrat; font-variant-ligatures: none; text-align: center; text-anchor: middle; fill: rgb(168, 139, 116);" d="m 587.11569,69.672 h 36 v 1.44 h -17.28 V 120 h -1.44 V 71.112 h -17.28 z" transform="translate(0 298.05066666666664) translate(629.4227111111111 58.02933333333333) scale(1.1111111111111112) translate(-587.11569 -69.672)"></path> 
   <path id="path9461" style="font-style: normal; font-weight: 200; font-size: 72px; line-height: 1; font-family: Montserrat; font-variant-ligatures: none; text-align: center; text-anchor: middle; fill: rgb(102, 91, 79);" d="m 649.79956,69.384 q 6.984,0 12.888,3.456 5.976,3.384 9.432,9.216 3.528,5.832 3.528,12.672 0,6.84 -3.528,12.744 -3.456,5.832 -9.432,9.288 -5.904,3.456 -12.888,3.456 -6.984,0 -12.96,-3.456 -5.904,-3.456 -9.432,-9.288 -3.456,-5.904 -3.456,-12.744 0,-6.84 3.456,-12.672 3.528,-5.832 9.432,-9.216 5.976,-3.456 12.96,-3.456 z m 0,1.44 q -6.552,0 -12.168,3.24 -5.616,3.24 -8.928,8.784 -3.312,5.472 -3.312,11.88 0,6.48 3.312,12.024 3.312,5.544 8.928,8.784 5.616,3.24 12.168,3.24 6.552,0 12.168,-3.24 5.616,-3.24 8.928,-8.784 3.312,-5.544 3.312,-12.024 0,-6.408 -3.312,-11.88 -3.312,-5.544 -8.928,-8.784 -5.616,-3.24 -12.168,-3.24 z" transform="translate(0 298.05066666666664) translate(687.0181222222222 57.70933333333333) scale(1.1111111111111112) translate(-623.95156 -69.384)"></path> 
   <path id="path9463" style="font-style: normal; font-weight: 200; font-size: 72px; line-height: 1; font-family: Montserrat; font-variant-ligatures: none; text-align: center; text-anchor: middle; fill: rgb(102, 91, 79);" d="m 681.86544,69.672 h 35.496 v 1.8 L 692.73744,120 h -1.584 l 24.912,-48.888 h -32.76 v 8.064 h -1.44 z" transform="translate(0 298.05066666666664) translate(768.0335444444446 58.02933333333333) scale(1.1111111111111112) translate(-681.86544 -69.672)"></path> 
  </g> 
  <g id="tagline" style="font-style:normal;font-weight:400;font-size:32px;line-height:1;font-family:Montserrat;font-variant-ligatures:none;text-align:center;text-anchor:middle"></g> 
 </g> 
</svg>