<svg xmlns:dc="http://purl.org/dc/elements/1.1/" xmlns:cc="http://creativecommons.org/ns#" xmlns:rdf="http://www.w3.org/1999/02/22-rdf-syntax-ns#" xmlns:svg="http://www.w3.org/2000/svg" xmlns="http://www.w3.org/2000/svg" id="svg935819" viewbox="0 0 1024 768" height="768px" width="1024px" version="1.1"> <metadata id="metadata935825"> 
  <rdf:rdf> 
   <cc:work rdf:about=""> 
    <dc:format>
     image/svg+xml
    </dc:format> 
    <dc:type rdf:resource="http://purl.org/dc/dcmitype/StillImage"></dc:type> 
   </cc:work> 
  </rdf:rdf> 
 </metadata> <defs id="defs935823"></defs> <g id="logo-group"> 
  <g id="title" style="font-style:normal;font-weight:700;font-size:72px;line-height:1;font-family:'Brandmark1 Bold';font-variant-ligatures:none;text-align:center;text-anchor:middle" aria-label="Astrao7"> 
   <path id="path935827" style="font-style: normal; font-weight: 700; font-size: 72px; line-height: 1; font-family: &quot;Brandmark1 Bold&quot;; font-variant-ligatures: none; text-align: center; text-anchor: middle; fill: rgb(124, 127, 126);" d="m 425.43406,122.52 h 11.952 l -21.312,-56.16 h -9.792 l -21.24,56.16 h 11.952 l 4.536,-12.456 h 19.296 z m -8.424,-22.968 h -11.664 l 5.832,-15.912 z" transform="translate(0 241.80736462232835) translate(252.00000000000006 94.33259861614998) scale(1.668062064740054) translate(-385.04206 -66.36)"></path> 
   <path id="path935829" style="font-style: normal; font-weight: 700; font-size: 72px; line-height: 1; font-family: &quot;Brandmark1 Bold&quot;; font-variant-ligatures: none; text-align: center; text-anchor: middle; fill: rgb(124, 127, 126);" d="m 453.49831,122.952 c 7.272,0 13.176,-5.904 13.176,-13.176 0,-7.272 -5.904,-13.176 -13.176,-13.176 h -3.024 c -1.08,0 -1.872,-0.864 -1.872,-1.872 0,-1.08 0.792,-1.944 1.872,-1.944 h 15.048 V 81.48 h -15.048 c -7.272,0 -13.176,5.976 -13.176,13.248 0,7.272 5.904,13.176 13.176,13.176 h 3.024 c 1.008,0 1.872,0.864 1.872,1.872 0,1.08 -0.864,1.872 -1.872,1.872 h -16.848 v 11.304 z" transform="translate(0 241.80736462232835) translate(354.7663847000215 119.5536970350196) scale(1.668062064740054) translate(-436.65031 -81.48)"></path> 
   <path id="path935831" style="font-style: normal; font-weight: 700; font-size: 72px; line-height: 1; font-family: &quot;Brandmark1 Bold&quot;; font-variant-ligatures: none; text-align: center; text-anchor: middle; fill: rgb(124, 127, 126);" d="m 493.06231,92.496 v -10.08 h -11.448 V 69.528 l -10.8,3.6 v 27.936 c 0,3.024 0.576,5.904 1.728,8.64 1.08,2.664 2.736,5.04 4.752,7.056 2.016,2.088 4.392,3.672 7.056,4.824 2.736,1.152 5.688,1.728 8.712,1.728 v -10.8 c -6.336,0 -11.448,-5.112 -11.448,-11.448 v -8.568 z" transform="translate(0 241.80736462232835) translate(428.4346777272012 99.61701923724648) scale(1.668062064740054) translate(-470.81431 -69.528)"></path> 
   <path id="path935833" style="font-style: normal; font-weight: 700; font-size: 72px; line-height: 1; font-family: &quot;Brandmark1 Bold&quot;; font-variant-ligatures: none; text-align: center; text-anchor: middle; fill: rgb(124, 127, 126);" d="m 506.83794,122.52 v 0 -17.712 c 0,-6.912 5.616,-12.6 12.6,-12.6 v -10.8 c -3.168,0 -6.264,0.648 -9.144,1.872 -2.736,1.152 -5.256,2.88 -7.416,5.04 -2.16,2.088 -3.816,4.608 -5.04,7.416 -1.224,2.88 -1.8,5.904 -1.8,9.072 v 17.712 z" transform="translate(0 241.80736462232835) translate(487.18987871264096 119.4335965663583) scale(1.668062064740054) translate(-496.03794 -81.408)"></path> 
   <path id="path935835" style="font-style: normal; font-weight: 700; font-size: 72px; line-height: 1; font-family: &quot;Brandmark1 Bold&quot;; font-variant-ligatures: none; text-align: center; text-anchor: middle; fill: rgb(124, 127, 126);" d="m 547.72606,81.984 0.072,2.304 c -2.88,-1.44 -6.048,-2.232 -9.288,-2.232 -2.736,0 -5.472,0.504 -7.992,1.584 -2.448,1.08 -4.608,2.52 -6.552,4.392 -1.872,1.872 -3.312,4.104 -4.392,6.552 -1.008,2.52 -1.584,5.256 -1.584,7.992 0,2.736 0.576,5.472 1.584,7.992 1.08,2.448 2.52,4.608 4.392,6.552 1.944,1.872 4.104,3.312 6.552,4.392 2.52,1.008 5.256,1.584 7.992,1.584 3.24,0 6.408,-0.792 9.288,-2.232 l -0.072,1.656 h 10.8 V 81.984 Z m -4.32,28.944 c -1.44,0.864 -3.168,1.368 -4.896,1.368 -5.328,0 -9.72,-4.392 -9.72,-9.72 0,-5.328 4.392,-9.72 9.72,-9.72 1.872,0 3.744,0.504 5.256,1.584 1.584,0.936 2.808,2.376 3.528,4.032 0.648,1.296 0.936,2.664 0.936,4.104 0,1.728 -0.432,3.384 -1.296,4.896 -0.864,1.44 -2.016,2.664 -3.528,3.456 z" transform="translate(0 241.80736462232835) translate(540.4879979726629 120.39440031564858) scale(1.668062064740054) translate(-517.99006 -81.984)"></path> 
   <path id="path935837" style="font-style: normal; font-weight: 700; font-size: 72px; line-height: 1; font-family: &quot;Brandmark1 Bold&quot;; font-variant-ligatures: none; text-align: center; text-anchor: middle; fill: rgb(93, 96, 97);" d="m 582.17919,123.024 c 2.736,0 5.472,-0.576 7.992,-1.584 2.448,-1.08 4.68,-2.52 6.552,-4.392 1.872,-1.944 3.312,-4.104 4.392,-6.552 1.08,-2.52 1.584,-5.256 1.584,-7.992 0,-2.808 -0.504,-5.472 -1.584,-7.992 -1.08,-2.448 -2.52,-4.68 -4.392,-6.552 -1.944,-1.872 -4.104,-3.312 -6.552,-4.392 -2.52,-1.08 -5.256,-1.584 -7.992,-1.584 -2.736,0 -5.472,0.504 -7.992,1.584 -2.448,1.08 -4.608,2.52 -6.552,4.392 -1.872,1.944 -3.312,4.104 -4.392,6.552 -1.008,2.52 -1.584,5.184 -1.584,7.992 0,2.736 0.576,5.472 1.584,7.992 1.08,2.448 2.52,4.608 4.392,6.552 1.944,1.872 4.104,3.312 6.552,4.392 2.52,1.008 5.256,1.584 7.992,1.584 z m 0,-30.24 c 5.328,0 9.72,4.392 9.72,9.72 0,5.328 -4.392,9.72 -9.72,9.72 -5.328,0 -9.72,-4.392 -9.72,-9.72 0,-5.328 4.392,-9.72 9.72,-9.72 z" transform="translate(0 241.80736462232835) translate(630.0114377732654 120.39440031564858) scale(1.668062064740054) translate(-561.65919 -81.984)"></path> 
   <path id="path935839" style="font-style: normal; font-weight: 700; font-size: 72px; line-height: 1; font-family: &quot;Brandmark1 Bold&quot;; font-variant-ligatures: none; text-align: center; text-anchor: middle; fill: rgb(93, 96, 97);" d="m 605.02906,121.512 11.16,2.232 20.592,-48.384 v -7.344 h -35.712 V 78.6 h 22.536 z" transform="translate(0 241.80736462232835) translate(712.4301675440032 97.09490939535952) scale(1.668062064740054) translate(-601.06906 -68.016)"></path> 
  </g> 
  <g id="tagline" style="font-style:normal;font-weight:400;font-size:32px;line-height:1;font-family:Montserrat;font-variant-ligatures:none;text-align:center;text-anchor:middle"></g> 
 </g> 
</svg>