<svg xmlns:dc="http://purl.org/dc/elements/1.1/" xmlns:cc="http://creativecommons.org/ns#" xmlns:rdf="http://www.w3.org/1999/02/22-rdf-syntax-ns#" xmlns:svg="http://www.w3.org/2000/svg" xmlns="http://www.w3.org/2000/svg" id="svg608166" viewbox="0 0 1024 768" height="768px" width="1024px" version="1.1"> <metadata id="metadata608172"> 
  <rdf:rdf> 
   <cc:work rdf:about=""> 
    <dc:format>
     image/svg+xml
    </dc:format> 
    <dc:type rdf:resource="http://purl.org/dc/dcmitype/StillImage"></dc:type> 
   </cc:work> 
  </rdf:rdf> 
 </metadata> <defs id="defs608170"></defs> <g id="logo-group"> 
  <g id="title" style="font-style:normal;font-weight:500;font-size:72px;line-height:1;font-family:'Raleway Medium Alt1';font-variant-ligatures:none;text-align:center;text-anchor:middle" aria-label="AWFULLYO7"> 
   <path id="path608174" style="font-style: normal; font-weight: 500; font-size: 72px; line-height: 1; font-family: &quot;Raleway Medium Alt1&quot;; font-variant-ligatures: none; text-align: center; text-anchor: middle; fill: rgb(244, 244, 244);" d="m 327.49887,75.864 -2.808,7.632 6.48001,16.488 h -12.81601 l -1.944,5.04 h 16.20001 l 6.048,14.976 h 6.91199 z m -2.808,-6.984 h -5.47199 l -20.952,51.12 h 6.62399 l 17.06401,-43.632 z" transform="translate(0 288.7910342689883) translate(252 60.742295203497676) scale(1.150730185881209) translate(-298.26688 -68.88)"></path> 
   <path id="path608176" style="font-style: normal; font-weight: 500; font-size: 72px; line-height: 1; font-family: &quot;Raleway Medium Alt1&quot;; font-variant-ligatures: none; text-align: center; text-anchor: middle; fill: rgb(244, 244, 244);" d="m 377.045,77.88 -3.96,-8.712 h -6.12 l 7.128,15.264 z m 32.976,-9 -17.28,43.488 -3.168,6.48 0.504,1.152 h 5.616 l 21.384,-51.12 z m -26.496,21.6 9.288,-21.312 h -6.12 l -19.584,43.2 -17.352,-43.488 h -6.984 L 364.085,120 h 5.616 l 10.224,-23.4 6.696,15.552 3.312,-6.408 z" transform="translate(0 288.7910342689883) translate(306.66672629809506 60.742295203497676) scale(1.150730185881209) translate(-342.773 -68.88)"></path> 
   <path id="path608178" style="font-style: normal; font-weight: 500; font-size: 72px; line-height: 1; font-family: &quot;Raleway Medium Alt1&quot;; font-variant-ligatures: none; text-align: center; text-anchor: middle; fill: rgb(244, 244, 244);" d="m 423.76062,120 h 6.48001 V 97.104 h 22.96799 v -5.4 h -29.448 z m 0,-51.12 v 16.344 h 6.48001 V 74.64 h 27.288 v -5.76 z" transform="translate(0 288.7910342689883) translate(403.31381587241543 60.742295203497676) scale(1.150730185881209) translate(-423.76062 -68.88)"></path> 
   <path id="path608180" style="font-style: normal; font-weight: 500; font-size: 72px; line-height: 1; font-family: &quot;Raleway Medium Alt1&quot;; font-variant-ligatures: none; text-align: center; text-anchor: middle; fill: rgb(244, 244, 244);" d="m 474.8075,108.408 c -1.152,-1.8 -2.016,-3.888 -2.52,-6.264 -0.504,-2.376 -0.72,-4.824 -0.72,-7.416 V 68.88 h -6.48 v 25.848 c 0,3.312 0.36,6.48 1.08,9.576 0.72,3.096 1.944,5.832 3.672,8.208 1.728,2.376 3.96,4.32 6.768,5.688 1.944,1.08 4.32,1.728 6.984,2.016 v -5.904 c -1.584,-0.288 -2.952,-0.792 -4.104,-1.44 -1.944,-1.152 -3.528,-2.592 -4.68,-4.464 z m 27.36,-39.528 v 25.848 c 0,2.52 -0.288,4.896 -0.72,7.272 -0.504,2.376 -1.368,4.464 -2.52,6.336 -1.152,1.872 -2.736,3.312 -4.68,4.464 -1.152,0.72 -2.52,1.152 -4.032,1.44 v 5.976 c 2.52,-0.288 4.752,-0.936 6.696,-1.872 2.736,-1.368 5.04,-3.24 6.768,-5.616 1.728,-2.304 2.952,-5.04 3.744,-8.136 0.792,-3.096 1.224,-6.408 1.224,-9.864 V 68.88 Z" transform="translate(0 288.7910342689883) translate(454.32209473434943 60.742295203497676) scale(1.150730185881209) translate(-465.0875 -68.88)"></path> 
   <path id="path608182" style="font-style: normal; font-weight: 500; font-size: 72px; line-height: 1; font-family: &quot;Raleway Medium Alt1&quot;; font-variant-ligatures: none; text-align: center; text-anchor: middle; fill: rgb(244, 244, 244);" d="M 520.22937,114.24 V 120 h 34.992 v -5.76 z m 6.48001,-45.36 h -6.48001 v 38.88 h 6.48001 z" transform="translate(0 288.7910342689883) translate(521.2276996069305 60.742295203497676) scale(1.150730185881209) translate(-520.22937 -68.88)"></path> 
   <path id="path608184" style="font-style: normal; font-weight: 500; font-size: 72px; line-height: 1; font-family: &quot;Raleway Medium Alt1&quot;; font-variant-ligatures: none; text-align: center; text-anchor: middle; fill: rgb(244, 244, 244);" d="M 562.27625,114.24 V 120 h 34.992 v -5.76 z m 6.48,-45.36 h -6.48 v 38.88 h 6.48 z" transform="translate(0 288.7910342689883) translate(573.064504202699 60.742295203497676) scale(1.150730185881209) translate(-562.27625 -68.88)"></path> 
   <path id="path608186" style="font-style: normal; font-weight: 500; font-size: 72px; line-height: 1; font-family: &quot;Raleway Medium Alt1&quot;; font-variant-ligatures: none; text-align: center; text-anchor: middle; fill: rgb(244, 244, 244);" d="m 591.26413,68.88 15.91199,26.64 3.312,-5.688 -12.096,-20.952 z m 38.23199,0 -15.624,26.64 -3.24,5.832 V 120 h 6.48 V 101.352 L 636.55213,68.88 Z" transform="translate(0 288.7910342689883) translate(609.8739233010449 60.742295203497676) scale(1.150730185881209) translate(-591.26413 -68.88)"></path> 
   <path id="path608188" style="font-style: normal; font-weight: 500; font-size: 72px; line-height: 1; font-family: &quot;Raleway Medium Alt1&quot;; font-variant-ligatures: none; text-align: center; text-anchor: middle; fill: rgb(43, 43, 43);" d="m 678.2705,97.248 c -0.216,1.512 -0.504,3.024 -1.008,4.464 -0.792,2.448 -1.944,4.608 -3.456,6.48 -1.512,1.872 -3.384,3.456 -5.472,4.608 -2.232,1.152 -4.68,1.728 -7.344,1.728 -2.664,0 -5.04,-0.504 -7.2,-1.656 -2.16,-1.08 -4.032,-2.592 -5.544,-4.464 -1.584,-1.872 -2.736,-3.96 -3.6,-6.408 -0.504,-1.512 -0.864,-3.096 -1.08,-4.752 h -6.552 c 0.216,2.304 0.72,4.608 1.584,6.768 1.08,3.168 2.736,5.904 4.896,8.352 2.088,2.448 4.608,4.392 7.56,5.832 2.952,1.44 6.264,2.16 9.864,2.16 3.456,0 6.624,-0.648 9.576,-2.088 2.952,-1.44 5.472,-3.312 7.632,-5.688 2.16,-2.376 3.816,-5.112 5.04,-8.28 0.864,-2.232 1.44,-4.608 1.728,-7.056 z m -33.624,-10.152 c 0.792,-2.376 1.944,-4.464 3.456,-6.408 1.512,-1.872 3.384,-3.384 5.544,-4.536 2.16,-1.152 4.608,-1.728 7.344,-1.728 2.52,0 4.896,0.576 7.056,1.656 2.16,1.152 3.96,2.592 5.544,4.464 1.584,1.872 2.736,3.96 3.6,6.408 0.432,1.296 0.792,2.664 1.008,3.96 h 6.552 c -0.288,-1.944 -0.792,-3.96 -1.44,-5.832 -1.152,-3.096 -2.808,-5.832 -4.896,-8.352 -2.16,-2.448 -4.68,-4.392 -7.56,-5.904 -2.952,-1.512 -6.264,-2.304 -9.792,-2.304 -3.528,0 -6.696,0.72 -9.648,2.16 -2.952,1.44 -5.472,3.312 -7.632,5.688 -2.16,2.448 -3.888,5.184 -5.112,8.28 -0.792,2.088 -1.368,4.176 -1.584,6.264 h 6.552 c 0.216,-1.224 0.576,-2.52 1.008,-3.816 z" transform="translate(0 288.7910342689883) translate(665.9724456329226 60.32803233658045) scale(1.150730185881209) translate(-637.0145 -68.52)"></path> 
   <path id="path608190" style="font-style: normal; font-weight: 500; font-size: 72px; line-height: 1; font-family: &quot;Raleway Medium Alt1&quot;; font-variant-ligatures: none; text-align: center; text-anchor: middle; fill: rgb(43, 43, 43);" d="m 716.14588,83.856 -22.89601,45.288 h 7.20001 l 25.70399,-51.12 h -36.288 v 5.832 z" transform="translate(0 288.7910342689883) translate(730.2423030147427 71.26457202319544) scale(1.150730185881209) translate(-689.86587 -78.024)"></path> 
  </g> 
  <g id="tagline" style="font-style:oblique;font-weight:600;font-size:32px;line-height:1;font-family:Raleway;font-variant-ligatures:none;text-align:center;text-anchor:middle"></g> 
 </g> 
</svg>