<svg xmlns:dc="http://purl.org/dc/elements/1.1/" xmlns:cc="http://creativecommons.org/ns#" xmlns:rdf="http://www.w3.org/1999/02/22-rdf-syntax-ns#" xmlns:svg="http://www.w3.org/2000/svg" xmlns="http://www.w3.org/2000/svg" id="svg988589" viewbox="0 0 1024 768" height="768px" width="1024px" version="1.1"> <metadata id="metadata988595"> 
  <rdf:rdf> 
   <cc:work rdf:about=""> 
    <dc:format>
     image/svg+xml
    </dc:format> 
    <dc:type rdf:resource="http://purl.org/dc/dcmitype/StillImage"></dc:type> 
   </cc:work> 
  </rdf:rdf> 
 </metadata> <defs id="defs988593"></defs> <g id="logo-group"> 
  <g id="title" style="font-style:normal;font-weight:700;font-size:72px;line-height:1;font-family:Jura;font-variant-ligatures:none;text-align:center;text-anchor:middle" aria-label="Bestvalueo7"> 
   <path id="path988597" style="font-style: normal; font-weight: 700; font-size: 72px; line-height: 1; font-family: Jura; font-variant-ligatures: none; text-align: center; text-anchor: middle; fill: rgb(237, 38, 86);" d="m 323.26156,92.28 q 5.688,3.312 5.688,11.736 v 2.448 q 0,6.624 -3.528,10.08 -3.456,3.456 -10.08,3.456 h -19.728 q -1.44,0 -2.232,-0.792 -0.792,-0.792 -0.792,-2.232 V 74.208 q 0,-1.44 0.792,-2.232 0.792,-0.792 2.232,-0.792 h 18.792 q 5.688,0 8.784,3.024 3.096,3.024 3.096,8.64 v 1.944 q 0,2.304 -0.792,4.248 -0.792,1.944 -2.232,3.24 z m -24.624,-1.728 h 16.704 1.296 q 1.872,-0.216 2.736,-1.728 0.864,-1.584 0.864,-4.032 v -1.944 q 0,-3.096 -1.296,-4.32 -1.296,-1.296 -4.536,-1.296 h -15.768 z m 24.264,13.464 q 0,-4.032 -1.728,-5.688 -1.728,-1.728 -5.832,-1.728 h -16.704 v 17.352 h 16.704 q 4.032,0 5.76,-1.728 1.8,-1.728 1.8,-5.76 z" transform="translate(0 292.23418790417685) translate(252.0000000000001 64.22166903555059) scale(1.1734893941833922) translate(-292.58956 -71.184)"></path> 
   <path id="path988599" style="font-style: normal; font-weight: 700; font-size: 72px; line-height: 1; font-family: Jura; font-variant-ligatures: none; text-align: center; text-anchor: middle; fill: rgb(237, 38, 86);" d="m 345.42519,104.232 v 1.728 q 0,3.168 0.72,4.896 0.72,1.656 2.448,2.376 1.728,0.72 4.896,0.72 h 5.904 q 3.672,0 5.4,-0.648 1.8,-0.72 2.376,-2.448 0.432,-1.44 1.152,-2.088 0.72,-0.72 2.088,-0.72 1.368,0 2.088,0.648 0.792,0.576 0.792,1.728 0,0.504 -0.072,0.72 -1.584,8.856 -13.824,8.856 h -5.904 q -7.2,0 -10.656,-3.456 -3.456,-3.456 -3.456,-10.584 v -8.352 q 0,-7.272 3.456,-10.728 3.456,-3.456 10.656,-3.384 h 5.904 q 7.2,0 10.656,3.456 3.456,3.456 3.456,10.656 v 3.6 q 0,1.44 -0.792,2.232 -0.792,0.792 -2.232,0.792 z m 0,-6.048 h 22.032 v -0.576 q 0,-3.168 -0.72,-4.896 -0.72,-1.728 -2.448,-2.448 -1.728,-0.72 -4.896,-0.72 h -5.904 q -3.168,-0.072 -4.896,0.648 -1.728,0.72 -2.448,2.448 -0.72,1.728 -0.72,4.968 z" transform="translate(0 292.23418790417685) translate(306.90478758397677 78.66794660081645) scale(1.1734893941833922) translate(-339.37719 -83.494531)"></path> 
   <path id="path988601" style="font-style: normal; font-weight: 700; font-size: 72px; line-height: 1; font-family: Jura; font-variant-ligatures: none; text-align: center; text-anchor: middle; fill: rgb(237, 38, 86);" d="m 395.37631,120 q -9.144,0 -10.656,-7.56 -0.072,-0.216 -0.072,-0.648 0,-1.224 0.792,-1.872 0.864,-0.72 2.232,-0.72 1.368,0 2.088,0.72 0.72,0.648 1.152,2.232 0.432,1.08 1.368,1.44 1.008,0.36 3.096,0.36 h 11.808 q 2.808,0 3.744,-0.936 1.008,-0.936 1.008,-3.816 0,-2.88 -1.008,-3.816 -0.936,-0.936 -3.744,-0.936 h -11.592 q -10.44,0 -10.44,-10.44 0,-5.328 2.592,-7.92 2.592,-2.592 7.848,-2.592 h 11.232 q 8.496,0 10.008,7.128 0.072,0.216 0.072,0.648 0,1.152 -0.864,1.872 -0.792,0.648 -2.16,0.648 -1.368,0 -2.088,-0.648 -0.648,-0.72 -1.08,-2.16 -0.432,-0.864 -1.296,-1.152 -0.864,-0.288 -2.592,-0.288 h -11.232 q -1.872,0 -2.808,0.36 -0.936,0.288 -1.296,1.224 -0.288,0.936 -0.288,2.88 0,2.592 0.864,3.528 0.864,0.864 3.528,0.864 h 11.592 q 10.8,0 10.8,10.8 0,10.8 -10.8,10.8 z" transform="translate(0 292.23418790417685) translate(360.02996676678043 78.66967045673651) scale(1.1734893941833922) translate(-384.64831 -83.496)"></path> 
   <path id="path988603" style="font-style: normal; font-weight: 700; font-size: 72px; line-height: 1; font-family: Jura; font-variant-ligatures: none; text-align: center; text-anchor: middle; fill: rgb(237, 38, 86);" d="m 446.23194,113.952 q 3.024,0 3.024,3.024 0,1.44 -0.792,2.232 -0.792,0.792 -2.232,0.792 -7.128,0 -10.512,-3.384 -3.384,-3.384 -3.384,-10.44 V 89.544 h -3.528 q -1.44,0 -2.232,-0.792 -0.792,-0.792 -0.792,-2.232 0,-3.024 3.024,-3.024 h 3.528 V 78.24 q 0,-1.44 0.792,-2.232 0.792,-0.792 2.232,-0.792 1.44,0 2.232,0.792 0.792,0.792 0.792,2.232 v 5.256 h 8.28 q 3.024,0 3.024,3.024 0,1.44 -0.792,2.232 -0.792,0.792 -2.232,0.792 h -8.28 v 16.632 q 0,3.096 0.72,4.752 0.72,1.656 2.376,2.376 1.656,0.648 4.752,0.648 z" transform="translate(0 292.23418790417685) translate(408.3021922948326 68.95317827289803) scale(1.1734893941833922) translate(-425.78394 -75.216)"></path> 
   <path id="path988605" style="font-style: normal; font-weight: 700; font-size: 72px; line-height: 1; font-family: Jura; font-variant-ligatures: none; text-align: center; text-anchor: middle; fill: rgb(237, 38, 86);" d="m 487.12231,83.856 q 1.8,0.864 1.8,2.448 0,0.648 -0.36,1.584 l -13.248,29.88 q -0.936,2.232 -3.456,2.232 -2.232,0 -3.24,-2.376 l -12.24,-29.808 q -0.36,-0.936 -0.36,-1.512 0,-1.728 1.944,-2.448 0.864,-0.36 1.44,-0.36 1.656,0 2.52,1.944 l 10.08,24.624 11.088,-24.768 q 0.936,-1.8 2.592,-1.8 0.576,0 1.44,0.36 z" transform="translate(0 292.23418790417685) translate(443.78190482964914 78.66967045673651) scale(1.1734893941833922) translate(-456.01831 -83.496)"></path> 
   <path id="path988607" style="font-style: normal; font-weight: 700; font-size: 72px; line-height: 1; font-family: Jura; font-variant-ligatures: none; text-align: center; text-anchor: middle; fill: rgb(237, 38, 86);" d="m 515.89531,83.496 q 7.2,0 10.656,3.456 3.456,3.456 3.456,10.656 v 19.368 q 0,1.44 -0.792,2.232 -0.792,0.792 -2.232,0.792 -1.44,0 -2.232,-0.792 -0.792,-0.792 -0.792,-2.232 v -1.656 q -3.816,4.68 -11.232,4.68 h -4.032 q -6.048,0 -9,-2.952 -2.952,-2.952 -2.952,-9 0,-6.048 2.88,-9 2.952,-2.952 9.072,-2.952 h 15.192 q -0.216,-3.744 -1.944,-5.112 -1.728,-1.44 -6.048,-1.44 h -4.176 q -3.6,0 -5.4,0.504 -1.728,0.504 -2.448,1.728 -0.648,1.512 -1.368,2.088 -0.72,0.576 -2.016,0.576 -1.296,0 -2.16,-0.648 -0.792,-0.648 -0.792,-1.728 0,-0.432 0.072,-0.72 1.08,-4.032 4.464,-5.904 3.456,-1.944 9.648,-1.944 z m 7.704,25.488 q 0.072,-0.216 0.144,-0.432 0.072,-0.288 0.216,-0.576 v -5.832 h -15.264 q -2.448,0 -3.672,0.504 -1.224,0.504 -1.728,1.728 -0.504,1.224 -0.504,3.672 0,2.448 0.504,3.672 0.504,1.224 1.728,1.728 1.224,0.504 3.672,0.504 h 4.032 q 9.144,0 10.872,-4.968 z" transform="translate(0 292.23418790417685) translate(491.5722604077678 78.66967045673651) scale(1.1734893941833922) translate(-496.74331 -83.496)"></path> 
   <path id="path988609" style="font-style: normal; font-weight: 700; font-size: 72px; line-height: 1; font-family: Jura; font-variant-ligatures: none; text-align: center; text-anchor: middle; fill: rgb(237, 38, 86);" d="m 555.18031,120 q -5.472,0 -8.208,-2.664 -2.664,-2.736 -2.664,-8.28 v -36.72 q 0,-1.44 0.792,-2.232 0.792,-0.792 2.232,-0.792 1.44,0 2.232,0.792 0.792,0.792 0.792,2.232 v 36.72 q 0,2.952 0.936,3.96 1.008,0.936 3.888,0.936 3.096,0 3.096,3.024 0.072,1.44 -0.72,2.232 -0.792,0.792 -2.376,0.792 z" transform="translate(0 292.23418790417685) translate(547.389283442101 62.024896889639265) scale(1.1734893941833922) translate(-544.30831 -69.312)"></path> 
   <path id="path988611" style="font-style: normal; font-weight: 700; font-size: 72px; line-height: 1; font-family: Jura; font-variant-ligatures: none; text-align: center; text-anchor: middle; fill: rgb(237, 38, 86);" d="m 598.72231,83.496 q 1.44,0 2.232,0.792 0.792,0.792 0.792,2.232 v 30.456 q 0,3.024 -3.024,3.024 -3.024,0 -3.024,-3.024 v -1.224 q -3.816,4.248 -11.232,4.248 h -2.016 q -7.2,0 -10.656,-3.456 -3.456,-3.456 -3.456,-10.656 V 86.52 q 0,-1.44 0.792,-2.232 0.792,-0.792 2.232,-0.792 1.44,0 2.232,0.792 0.792,0.792 0.792,2.232 v 19.368 q 0,3.168 0.72,4.896 0.72,1.728 2.448,2.448 1.728,0.72 4.896,0.72 h 2.016 q 4.536,0 7.632,-1.008 3.168,-1.08 3.6,-3.096 V 86.52 q 0,-1.44 0.792,-2.232 0.792,-0.792 2.232,-0.792 z" transform="translate(0 292.23418790417685) translate(575.5882335843279 78.66967045673651) scale(1.1734893941833922) translate(-568.33831 -83.496)"></path> 
   <path id="path988613" style="font-style: normal; font-weight: 700; font-size: 72px; line-height: 1; font-family: Jura; font-variant-ligatures: none; text-align: center; text-anchor: middle; fill: rgb(237, 38, 86);" d="m 621.05019,104.232 v 1.728 q 0,3.168 0.72,4.896 0.72,1.656 2.448,2.376 1.728,0.72 4.896,0.72 h 5.904 q 3.672,0 5.4,-0.648 1.8,-0.72 2.376,-2.448 0.432,-1.44 1.152,-2.088 0.72,-0.72 2.088,-0.72 1.368,0 2.088,0.648 0.792,0.576 0.792,1.728 0,0.504 -0.072,0.72 -1.584,8.856 -13.824,8.856 h -5.904 q -7.2,0 -10.656,-3.456 -3.456,-3.456 -3.456,-10.584 v -8.352 q 0,-7.272 3.456,-10.728 3.456,-3.456 10.656,-3.384 h 5.904 q 7.2,0 10.656,3.456 3.456,3.456 3.456,10.656 v 3.6 q 0,1.44 -0.792,2.232 -0.792,0.792 -2.232,0.792 z m 0,-6.048 h 22.032 v -0.576 q 0,-3.168 -0.72,-4.896 -0.72,-1.728 -2.448,-2.448 -1.728,-0.72 -4.896,-0.72 h -5.904 q -3.168,-0.072 -4.896,0.648 -1.728,0.72 -2.448,2.448 -0.72,1.728 -0.72,4.968 z" transform="translate(0 292.23418790417685) translate(630.3478018557745 78.66794660081645) scale(1.1734893941833922) translate(-615.00219 -83.494531)"></path> 
   <path id="path988615" style="font-style: normal; font-weight: 700; font-size: 72px; line-height: 1; font-family: Jura; font-variant-ligatures: none; text-align: center; text-anchor: middle; fill: rgb(237, 38, 86);" d="m 674.81731,120 q -7.2,0 -10.656,-3.456 -3.456,-3.456 -3.456,-10.584 v -8.352 q 0,-7.2 3.456,-10.656 3.456,-3.456 10.656,-3.456 h 5.904 q 7.2,0 10.656,3.456 3.456,3.456 3.456,10.656 v 8.28 q 0,7.2 -3.456,10.656 -3.456,3.456 -10.656,3.456 z m 5.904,-6.048 q 3.168,0 4.896,-0.72 1.728,-0.72 2.448,-2.448 0.72,-1.728 0.72,-4.896 v -8.28 q 0,-3.168 -0.72,-4.896 -0.72,-1.728 -2.448,-2.448 -1.728,-0.72 -4.896,-0.72 h -5.904 q -3.24,0 -4.968,0.72 -1.656,0.72 -2.376,2.448 -0.72,1.656 -0.72,4.896 v 8.352 q 0,3.168 0.72,4.896 0.72,1.656 2.448,2.376 1.728,0.72 4.896,0.72 z" transform="translate(0 292.23418790417685) translate(683.9799284568653 78.66967045673651) scale(1.1734893941833922) translate(-660.70531 -83.496)"></path> 
   <path id="path988617" style="font-style: normal; font-weight: 700; font-size: 72px; line-height: 1; font-family: Jura; font-variant-ligatures: none; text-align: center; text-anchor: middle; fill: rgb(237, 38, 86);" d="m 714.76044,120 q -1.44,0 -2.232,-0.792 -0.792,-0.792 -0.72,-2.376 0.144,-7.416 1.224,-11.952 1.08,-4.536 3.312,-7.56 2.232,-3.024 6.336,-5.904 3.312,-2.592 4.968,-5.904 1.656,-3.384 1.944,-8.28 h -22.752 q -1.44,0 -2.232,-0.792 -0.792,-0.792 -0.792,-2.232 0,-1.44 0.792,-2.232 0.792,-0.792 2.232,-0.792 h 25.848 q 1.44,0 2.232,0.792 0.792,0.792 0.792,2.232 0,7.704 -2.304,13.032 -2.232,5.328 -7.2,9.072 -3.312,2.304 -5.04,4.68 -1.656,2.376 -2.448,6.048 -0.72,3.6 -0.864,9.792 -0.144,3.168 -3.096,3.168 z" transform="translate(0 292.23418790417685) translate(734.5703822831266 64.22166903555059) scale(1.1734893941833922) translate(-703.81644 -71.184)"></path> 
  </g> 
  <g id="tagline" style="font-style:normal;font-weight:500;font-size:32px;line-height:1;font-family:Roboto;font-variant-ligatures:none;text-align:center;text-anchor:middle"></g> 
 </g> 
</svg>