<svg xmlns:dc="http://purl.org/dc/elements/1.1/" xmlns:cc="http://creativecommons.org/ns#" xmlns:rdf="http://www.w3.org/1999/02/22-rdf-syntax-ns#" xmlns:svg="http://www.w3.org/2000/svg" xmlns="http://www.w3.org/2000/svg" id="svg981638" viewbox="0 0 1024 768" height="768px" width="1024px" version="1.1"> <metadata id="metadata981644"> 
  <rdf:rdf> 
   <cc:work rdf:about=""> 
    <dc:format>
     image/svg+xml
    </dc:format> 
    <dc:type rdf:resource="http://purl.org/dc/dcmitype/StillImage"></dc:type> 
   </cc:work> 
  </rdf:rdf> 
 </metadata> <defs id="defs981642"></defs> <g id="logo-group"> 
  <g id="title" style="font-style:normal;font-weight:300;font-size:72px;line-height:1;font-family:'Montserrat Light Alt1';font-variant-ligatures:none;text-align:center;text-anchor:middle" aria-label="BICENTENNIALO7"> 
   <path id="path981646" style="font-style: normal; font-weight: 300; font-size: 72px; line-height: 1; font-family: &quot;Montserrat Light Alt1&quot;; font-variant-ligatures: none; text-align: center; text-anchor: middle; fill: rgb(12, 101, 126);" d="m 231.35806,98.256 c -1.872,-2.16 -4.608,-3.528 -8.208,-4.248 2.52,-0.792 4.608,-2.232 6.12,-4.248 1.512,-1.944 2.304,-4.32 2.304,-7.272 0,-4.104 -1.584,-7.272 -4.608,-9.504 -3.024,-2.232 -7.272,-3.384 -12.744,-3.384 h -21.024 v 3.168 h 20.88 c 4.392,0 7.776,0.864 10.152,2.592 2.376,1.728 3.6,4.176 3.6,7.416 0,3.312 -1.224,5.832 -3.6,7.56 -2.376,1.728 -5.76,2.52 -10.152,2.52 h -20.88 v 3.168 h 22.464 c 4.824,0 8.568,0.864 11.088,2.52 2.52,1.728 3.816,4.32 3.816,7.848 0,3.6 -1.296,6.192 -3.816,7.92 -2.52,1.728 -6.192,2.52 -11.088,2.52 h -22.464 V 120 h 22.464 c 6.12,0 10.728,-1.152 13.896,-3.456 3.096,-2.304 4.68,-5.544 4.68,-9.864 0,-3.384 -1.008,-6.192 -2.88,-8.424 z" transform="translate(0 326.5999069050476) translate(251.99999999999994 37.02741012034481) scale(0.8084398005796669) translate(-193.19806 -69.6)"></path> 
   <path id="path981648" style="font-style: normal; font-weight: 300; font-size: 72px; line-height: 1; font-family: &quot;Montserrat Light Alt1&quot;; font-variant-ligatures: none; text-align: center; text-anchor: middle; fill: rgb(12, 101, 126);" d="M 247.33869,69.6 V 120 h 3.672 V 69.6 Z" transform="translate(0 326.5999069050476) translate(295.7694401204575 37.02741012034481) scale(0.8084398005796669) translate(-247.33869 -69.6)"></path> 
   <path id="path981650" style="font-style: normal; font-weight: 300; font-size: 72px; line-height: 1; font-family: &quot;Montserrat Light Alt1&quot;; font-variant-ligatures: none; text-align: center; text-anchor: middle; fill: rgb(12, 101, 126);" d="m 276.49306,117.048 c 3.96,2.232 8.424,3.312 13.392,3.312 3.6,0 6.912,-0.576 10.008,-1.8 3.096,-1.152 5.76,-2.952 7.92,-5.256 l -2.304,-2.376 c -4.104,4.032 -9.288,6.048 -15.48,6.048 -4.248,0 -8.064,-0.936 -11.52,-2.88 -3.456,-1.872 -6.192,-4.536 -8.136,-7.92 -2.016,-3.384 -2.952,-7.2 -2.952,-11.376 0,-4.176 0.936,-7.92 2.952,-11.304 1.944,-3.384 4.68,-6.048 8.136,-7.992 3.456,-1.872 7.272,-2.88 11.52,-2.88 6.264,0 11.448,2.016 15.48,5.976 l 2.304,-2.376 c -2.16,-2.304 -4.824,-4.032 -7.848,-5.184 -3.096,-1.152 -6.48,-1.8 -10.08,-1.8 -4.968,0 -9.432,1.152 -13.392,3.312 -3.96,2.232 -7.056,5.256 -9.36,9.144 -2.304,3.888 -3.384,8.28 -3.384,13.104 0,4.896 1.08,9.216 3.384,13.104 2.304,3.888 5.4,6.984 9.36,9.144 z" transform="translate(0 326.5999069050476) translate(309.03623637069603 36.73637179213614) scale(0.8084398005796669) translate(-263.74906 -69.24)"></path> 
   <path id="path981652" style="font-style: normal; font-weight: 300; font-size: 72px; line-height: 1; font-family: &quot;Montserrat Light Alt1&quot;; font-variant-ligatures: none; text-align: center; text-anchor: middle; fill: rgb(12, 101, 126);" d="m 352.79844,92.784 h -32.616 v 3.24 h 32.616 z m 0,-23.184 h -32.616 v 3.312 h 32.616 z m -32.616,47.088 V 120 h 32.616 v -3.312 z" transform="translate(0 326.5999069050476) translate(354.6592268439326 37.02741012034481) scale(0.8084398005796669) translate(-320.18244 -69.6)"></path> 
   <path id="path981654" style="font-style: normal; font-weight: 300; font-size: 72px; line-height: 1; font-family: &quot;Montserrat Light Alt1&quot;; font-variant-ligatures: none; text-align: center; text-anchor: middle; fill: rgb(12, 101, 126);" d="m 409.45681,69.6 h -3.672 v 43.776 L 371.51281,69.6 h -3.096 V 120 h 3.672 V 76.224 l 34.344,43.776 h 3.024 z" transform="translate(0 326.5999069050476) translate(393.65381130781844 37.02741012034481) scale(0.8084398005796669) translate(-368.41681 -69.6)"></path> 
   <path id="path981656" style="font-style: normal; font-weight: 300; font-size: 72px; line-height: 1; font-family: &quot;Montserrat Light Alt1&quot;; font-variant-ligatures: none; text-align: center; text-anchor: middle; fill: rgb(12, 101, 126);" d="M 436.70544,72.912 V 120 h 3.672 V 72.912 h 18.144 V 69.6 h -39.96 v 3.312 z" transform="translate(0 326.5999069050476) translate(434.1927259851596 37.02741012034481) scale(0.8084398005796669) translate(-418.56144 -69.6)"></path> 
   <path id="path981658" style="font-style: normal; font-weight: 300; font-size: 72px; line-height: 1; font-family: &quot;Montserrat Light Alt1&quot;; font-variant-ligatures: none; text-align: center; text-anchor: middle; fill: rgb(12, 101, 126);" d="m 500.17344,92.784 h -32.616 v 3.24 h 32.616 z m 0,-23.184 h -32.616 v 3.312 h 32.616 z m -32.616,47.088 V 120 h 32.616 v -3.312 z" transform="translate(0 326.5999069050476) translate(473.803042454361 37.02741012034481) scale(0.8084398005796669) translate(-467.55744 -69.6)"></path> 
   <path id="path981660" style="font-style: normal; font-weight: 300; font-size: 72px; line-height: 1; font-family: &quot;Montserrat Light Alt1&quot;; font-variant-ligatures: none; text-align: center; text-anchor: middle; fill: rgb(12, 101, 126);" d="m 556.83181,69.6 h -3.672 v 43.776 L 518.88781,69.6 h -3.096 V 120 h 3.672 V 76.224 l 34.344,43.776 h 3.024 z" transform="translate(0 326.5999069050476) translate(512.7976269182469 37.02741012034481) scale(0.8084398005796669) translate(-515.79181 -69.6)"></path> 
   <path id="path981662" style="font-style: normal; font-weight: 300; font-size: 72px; line-height: 1; font-family: &quot;Montserrat Light Alt1&quot;; font-variant-ligatures: none; text-align: center; text-anchor: middle; fill: rgb(12, 101, 126);" d="m 615.47244,69.6 h -3.672 v 43.776 L 577.52844,69.6 h -3.096 V 120 h 3.672 V 76.224 l 34.344,43.776 h 3.024 z" transform="translate(0 326.5999069050476) translate(560.205046141313 37.02741012034481) scale(0.8084398005796669) translate(-574.43244 -69.6)"></path> 
   <path id="path981664" style="font-style: normal; font-weight: 300; font-size: 72px; line-height: 1; font-family: &quot;Montserrat Light Alt1&quot;; font-variant-ligatures: none; text-align: center; text-anchor: middle; fill: rgb(12, 101, 126);" d="M 633.07306,69.6 V 120 h 3.672 V 69.6 Z" transform="translate(0 326.5999069050476) translate(607.6124572799811 37.02741012034481) scale(0.8084398005796669) translate(-633.07306 -69.6)"></path> 
   <path id="path981666" style="font-style: normal; font-weight: 300; font-size: 72px; line-height: 1; font-family: &quot;Montserrat Light Alt1&quot;; font-variant-ligatures: none; text-align: center; text-anchor: middle; fill: rgb(12, 101, 126);" d="m 672.73944,69.6 h -3.672 l -23.184,50.4 h 3.96 l 21.024,-46.368 21.096,46.368 h 3.96 z" transform="translate(0 326.5999069050476) translate(617.9688783325307 37.02741012034481) scale(0.8084398005796669) translate(-645.88344 -69.6)"></path> 
   <path id="path981668" style="font-style: normal; font-weight: 300; font-size: 72px; line-height: 1; font-family: &quot;Montserrat Light Alt1&quot;; font-variant-ligatures: none; text-align: center; text-anchor: middle; fill: rgb(12, 101, 126);" d="M 705.07306,69.6 V 120 h 32.688 v -3.312 h -29.016 V 69.6 Z" transform="translate(0 326.5999069050476) translate(665.8201229217171 37.02741012034481) scale(0.8084398005796669) translate(-705.07306 -69.6)"></path> 
   <path id="path981670" style="font-style: normal; font-weight: 300; font-size: 72px; line-height: 1; font-family: &quot;Montserrat Light Alt1&quot;; font-variant-ligatures: none; text-align: center; text-anchor: middle; fill: rgb(14, 148, 188);" d="m 754.26819,117.048 c 3.96,2.232 8.424,3.312 13.392,3.312 4.896,0 9.36,-1.08 13.392,-3.312 3.96,-2.16 7.056,-5.256 9.36,-9.144 2.304,-3.888 3.456,-8.208 3.456,-13.104 0,-4.824 -1.152,-9.216 -3.456,-13.104 -2.304,-3.888 -5.4,-6.912 -9.36,-9.144 -4.032,-2.16 -8.496,-3.312 -13.392,-3.312 -4.968,0 -9.432,1.152 -13.392,3.384 -4.032,2.232 -7.128,5.256 -9.432,9.144 -2.304,3.888 -3.384,8.28 -3.384,13.032 0,4.824 1.08,9.144 3.384,13.032 2.304,3.888 5.4,6.984 9.432,9.216 z m 24.84,-2.952 c -3.456,1.944 -7.272,2.88 -11.448,2.88 -4.248,0 -8.064,-0.936 -11.52,-2.88 -3.456,-1.872 -6.12,-4.536 -8.064,-7.92 -2.016,-3.384 -2.952,-7.2 -2.952,-11.376 0,-4.176 0.936,-7.92 2.952,-11.304 1.944,-3.384 4.608,-6.048 8.064,-7.992 3.456,-1.872 7.272,-2.88 11.52,-2.88 4.176,0 7.992,1.008 11.448,2.88 3.384,1.944 6.048,4.608 8.064,7.992 1.944,3.384 2.952,7.128 2.952,11.304 0,4.176 -1.008,7.992 -2.952,11.376 -2.016,3.384 -4.68,6.048 -8.064,7.92 z" transform="translate(0 326.5999069050476) translate(695.2304595241789 36.73637179213614) scale(0.8084398005796669) translate(-741.45219 -69.24)"></path> 
   <path id="path981672" style="font-style: normal; font-weight: 300; font-size: 72px; line-height: 1; font-family: &quot;Montserrat Light Alt1&quot;; font-variant-ligatures: none; text-align: center; text-anchor: middle; fill: rgb(14, 148, 188);" d="m 836.41231,69.6 h -36.144 v 12.96 h 3.6 v -9.648 h 28.296 L 810.70831,120 h 4.032 l 21.672,-47.808 z" transform="translate(0 326.5999069050476) translate(742.7797518478486 37.02741012034481) scale(0.8084398005796669) translate(-800.26831 -69.6)"></path> 
  </g> 
  <g id="tagline" style="font-style:normal;font-weight:400;font-size:32px;line-height:1;font-family:Montserrat;font-variant-ligatures:none;text-align:center;text-anchor:middle"></g> 
 </g> 
</svg>