<svg xmlns:dc="http://purl.org/dc/elements/1.1/" xmlns:cc="http://creativecommons.org/ns#" xmlns:rdf="http://www.w3.org/1999/02/22-rdf-syntax-ns#" xmlns:svg="http://www.w3.org/2000/svg" xmlns="http://www.w3.org/2000/svg" id="svg18508" viewbox="0 0 1024 768" height="768px" width="1024px" version="1.1"> <metadata id="metadata18514"> 
  <rdf:rdf> 
   <cc:work rdf:about=""> 
    <dc:format>
     image/svg+xml
    </dc:format> 
    <dc:type rdf:resource="http://purl.org/dc/dcmitype/StillImage"></dc:type> 
   </cc:work> 
  </rdf:rdf> 
 </metadata> <defs id="defs18512"></defs> <g id="logo-group"> 
  <g id="title" style="font-style:normal;font-weight:700;font-size:72px;line-height:1;font-family:'Comfortaa Bold Alt2';font-variant-ligatures:none;text-align:center;text-anchor:middle" aria-label="Blackhawko7"> 
   <path id="path18516" style="font-style: normal; font-weight: 700; font-size: 72px; line-height: 1; font-family: &quot;Comfortaa Bold Alt2&quot;; font-variant-ligatures: none; text-align: center; text-anchor: middle; fill: rgb(233, 232, 227);" d="m 311.9075,65.712 c -2.52,-1.296 -5.4,-1.944 -8.568,-1.944 h -17.208 c -1.08,0 -1.944,0.36 -2.664,1.08 -0.72,0.72 -1.08,1.584 -1.08,2.664 v 48.744 c 0,1.08 0.36,1.944 1.08,2.664 0.72,0.72 1.584,1.08 2.664,1.08 h 18.72 c 3.528,0 6.696,-0.72 9.504,-2.16 2.808,-1.44 4.968,-3.456 6.552,-6.048 1.584,-2.592 2.376,-5.472 2.376,-8.784 0,-3.528 -0.936,-6.48 -2.808,-8.784 -1.872,-2.304 -4.464,-3.816 -7.704,-4.608 2.16,-1.152 3.888,-2.664 5.184,-4.536 1.296,-1.872 1.944,-3.96 1.944,-6.336 0,-2.88 -0.72,-5.4 -2.16,-7.704 -1.44,-2.304 -3.384,-4.032 -5.832,-5.328 z m -1.8,19.08 c -1.728,1.44 -3.96,2.088 -6.768,2.088 h -13.464 v -16.2 h 13.464 c 2.808,0 5.04,0.72 6.768,2.088 1.728,1.368 2.592,3.384 2.592,5.976 0,2.664 -0.864,4.68 -2.592,6.048 z m 2.88,25.704 c -2.088,1.728 -4.824,2.592 -8.136,2.592 h -14.976 V 93.792 h 14.976 c 3.384,0 6.12,0.792 8.136,2.376 2.016,1.584 3.096,3.888 3.096,6.84 0,3.24 -1.08,5.76 -3.096,7.488 z" transform="translate(0 294.57307631269475) translate(252.00000000000023 57.65396203104194) scale(1.120028259174538) translate(-282.3875 -63.768)"></path> 
   <path id="path18518" style="font-style: normal; font-weight: 700; font-size: 72px; line-height: 1; font-family: &quot;Comfortaa Bold Alt2&quot;; font-variant-ligatures: none; text-align: center; text-anchor: middle; fill: rgb(233, 232, 227);" d="m 333.26675,64.776 c -0.72,0.72 -1.008,1.584 -1.008,2.592 v 39.312 c 0,2.592 0.432,4.896 1.368,6.912 0.864,2.016 2.16,3.6 3.816,4.752 1.656,1.152 3.528,1.656 5.616,1.656 h 0.144 c 1.44,0 2.592,-0.288 3.528,-1.008 0.864,-0.648 1.368,-1.512 1.368,-2.592 0,-1.008 -0.36,-1.872 -0.936,-2.592 -0.576,-0.648 -1.368,-1.008 -2.304,-1.008 h -1.8 c -1.08,0 -1.944,-0.576 -2.592,-1.728 -0.72,-1.152 -1.008,-2.592 -1.008,-4.392 V 67.368 c 0,-1.008 -0.36,-1.872 -1.008,-2.592 -0.72,-0.648 -1.584,-1.008 -2.592,-1.008 -1.08,0 -1.944,0.36 -2.592,1.008 z" transform="translate(0 294.57307631269475) translate(307.85720932035844 57.65396203104194) scale(1.120028259174538) translate(-332.25875 -63.768)"></path> 
   <path id="path18520" style="font-style: normal; font-weight: 700; font-size: 72px; line-height: 1; font-family: &quot;Comfortaa Bold Alt2&quot;; font-variant-ligatures: none; text-align: center; text-anchor: middle; fill: rgb(233, 232, 227);" d="m 385.06962,86.232 c -3.888,-3.888 -8.568,-5.904 -14.112,-5.904 -5.47199,0 -10.22399,2.016 -14.112,5.904 -3.888,3.888 -5.832,8.568 -5.832,14.112 0,5.544 1.944,10.224 5.832,14.112 3.88801,3.888 8.64001,5.832 14.112,5.832 4.96801,0 9.36001,-1.584 13.104,-4.824 v 1.368 c 0,1.008 0.288,1.8 1.008,2.448 0.648,0.72 1.44001,1.008 2.448,1.008 0.936,0 1.72801,-0.288 2.448,-1.008 0.64801,-0.648 1.008,-1.44 1.008,-2.448 v -16.488 c 0,-5.544 -1.944,-10.224 -5.904,-14.112 z m -14.112,27.144 c -3.6,0 -6.696,-1.224 -9.216,-3.816 -2.59199,-2.52 -3.81599,-5.616 -3.81599,-9.216 0,-3.6 1.224,-6.696 3.81599,-9.216 2.52,-2.592 5.616,-3.888 9.216,-3.888 3.60001,0 6.696,1.296 9.21601,3.888 2.59199,2.52 3.88799,5.616 3.88799,9.216 0,3.6 -1.296,6.696 -3.88799,9.216 -2.52001,2.592 -5.616,3.816 -9.21601,3.816 z" transform="translate(0 294.57307631269475) translate(328.8631937175032 76.20163000297228) scale(1.120028259174538) translate(-351.01362 -80.328)"></path> 
   <path id="path18522" style="font-style: normal; font-weight: 700; font-size: 72px; line-height: 1; font-family: &quot;Comfortaa Bold Alt2&quot;; font-variant-ligatures: none; text-align: center; text-anchor: middle; fill: rgb(233, 232, 227);" d="m 433.50988,86.808 c -3.74401,-4.32 -8.49601,-6.48 -14.11201,-6.48 -3.74399,0 -7.12799,0.864 -10.07999,2.592 -3.024,1.728 -5.32801,4.104 -6.98401,7.128 -1.656,3.024 -2.448,6.48 -2.448,10.296 0,3.744 0.792,7.2 2.52,10.224 1.728,3.024 4.10401,5.4 7.12801,7.128 3.024,1.728 6.40799,2.592 10.224,2.592 5.18399,0 9.504,-1.584 12.95999,-4.824 0.57601,-0.576 0.86401,-1.224 0.86401,-1.944 0,-0.936 -0.50401,-1.8 -1.368,-2.592 -0.57601,-0.432 -1.22401,-0.648 -1.872,-0.648 -0.86401,0 -1.80001,0.36 -2.66401,1.008 -2.016,1.728 -4.67999,2.52 -7.91999,2.52 -2.52001,0 -4.75201,-0.576 -6.69601,-1.728 -1.94399,-1.152 -3.45599,-2.736 -4.536,-4.752 -1.08,-2.016 -1.584,-4.392 -1.584,-6.984 0,-4.032 1.15201,-7.344 3.456,-9.792 2.304,-2.448 5.25601,-3.744 9,-3.744 1.8,0 3.38401,0.36 4.824,0.936 1.44,0.576 2.736,1.512 3.96,2.808 0.72001,0.864 1.656,1.296 2.808,1.296 0.576,0 1.15201,-0.144 1.656,-0.504 1.008,-0.72 1.584,-1.584 1.584,-2.664 0,-0.72 -0.288,-1.296 -0.71999,-1.872 z" transform="translate(0 294.57307631269475) translate(383.601494806946 76.20163000297228) scale(1.120028259174538) translate(-399.88587 -80.328)"></path> 
   <path id="path18524" style="font-style: normal; font-weight: 700; font-size: 72px; line-height: 1; font-family: &quot;Comfortaa Bold Alt2&quot;; font-variant-ligatures: none; text-align: center; text-anchor: middle; fill: rgb(233, 232, 227);" d="m 475.74237,116.976 c 0,-0.864 -0.28799,-1.584 -0.792,-2.16 l -13.968,-17.136 13.248,-11.808 c 0.72,-0.576 1.15201,-1.44 1.15201,-2.448 0,-0.864 -0.36001,-1.584 -0.93601,-2.232 -0.64799,-0.72 -1.44,-1.152 -2.448,-1.152 -0.864,0 -1.656,0.36 -2.232,0.936 L 452.27037,96.6 V 67.296 c 0,-1.008 -0.36,-1.872 -1.00799,-2.52 -0.64801,-0.648 -1.512,-1.008 -2.52001,-1.008 -1.08,0 -1.94399,0.36 -2.592,1.008 -0.648,0.648 -0.93599,1.512 -0.93599,2.52 v 49.176 c 0,1.08 0.28799,1.944 0.93599,2.592 0.64801,0.648 1.512,0.936 2.592,0.936 1.00801,0 1.872,-0.288 2.52001,-0.936 0.64799,-0.648 1.00799,-1.512 1.00799,-2.592 v -11.016 l 3.60001,-3.168 13.67999,16.92 c 0.648,0.864 1.512,1.296 2.59201,1.296 0.79199,0 1.584,-0.288 2.30399,-0.864 0.86401,-0.72 1.296,-1.584 1.296,-2.664 z" transform="translate(0 294.57307631269475) translate(434.3707069532216 57.65396203104194) scale(1.120028259174538) translate(-445.21438 -63.768)"></path> 
   <path id="path18526" style="font-style: normal; font-weight: 700; font-size: 72px; line-height: 1; font-family: &quot;Comfortaa Bold Alt2&quot;; font-variant-ligatures: none; text-align: center; text-anchor: middle; fill: rgb(233, 232, 227);" d="m 514.64825,82.416 c -2.664,-1.44 -5.616,-2.16 -8.928,-2.16 -2.448,0 -4.68,0.432 -6.768,1.296 -2.16,0.864 -3.96,2.016 -5.472,3.528 V 67.44 c 0,-1.08 -0.36,-1.944 -1.008,-2.664 -0.72,-0.648 -1.584,-1.008 -2.664,-1.008 -1.08,0 -1.944,0.36 -2.664,1.008 -0.72,0.72 -1.008,1.584 -1.008,2.664 v 48.96 c 0,1.08 0.288,1.944 1.008,2.664 0.72,0.72 1.584,1.008 2.664,1.008 1.08,0 1.944,-0.288 2.664,-1.008 0.648,-0.72 1.008,-1.584 1.008,-2.664 V 96.096 c 0,-1.728 0.432,-3.24 1.368,-4.68 0.936,-1.368 2.232,-2.448 3.888,-3.312 1.656,-0.792 3.528,-1.224 5.544,-1.224 3.456,0 6.192,1.008 8.28,3.024 2.088,2.016 3.168,4.896 3.168,8.784 V 116.4 c 0,1.08 0.288,1.944 1.008,2.664 0.72,0.72 1.584,1.008 2.664,1.008 1.008,0 1.872,-0.288 2.592,-1.008 0.72,-0.72 1.08,-1.584 1.08,-2.664 V 98.688 c 0,-3.888 -0.792,-7.2 -2.232,-9.936 -1.512,-2.736 -3.6,-4.896 -6.192,-6.336 z" transform="translate(0 294.57307631269475) translate(480.2043577714884 57.65396203104194) scale(1.120028259174538) translate(-486.13625 -63.768)"></path> 
   <path id="path18528" style="font-style: normal; font-weight: 700; font-size: 72px; line-height: 1; font-family: &quot;Comfortaa Bold Alt2&quot;; font-variant-ligatures: none; text-align: center; text-anchor: middle; fill: rgb(233, 232, 227);" d="m 567.179,86.232 c -3.888,-3.888 -8.568,-5.904 -14.112,-5.904 -5.472,0 -10.224,2.016 -14.112,5.904 -3.888,3.888 -5.832,8.568 -5.832,14.112 0,5.544 1.944,10.224 5.832,14.112 3.888,3.888 8.64,5.832 14.112,5.832 4.968,0 9.36,-1.584 13.104,-4.824 v 1.368 c 0,1.008 0.288,1.8 1.008,2.448 0.648,0.72 1.44,1.008 2.448,1.008 0.936,0 1.728,-0.288 2.448,-1.008 0.648,-0.648 1.008,-1.44 1.008,-2.448 v -16.488 c 0,-5.544 -1.944,-10.224 -5.904,-14.112 z m -14.112,27.144 c -3.6,0 -6.696,-1.224 -9.216,-3.816 -2.592,-2.52 -3.816,-5.616 -3.816,-9.216 0,-3.6 1.224,-6.696 3.816,-9.216 2.52,-2.592 5.616,-3.888 9.216,-3.888 3.6,0 6.696,1.296 9.216,3.888 2.592,2.52 3.888,5.616 3.888,9.216 0,3.6 -1.296,6.696 -3.888,9.216 -2.52,2.592 -5.616,3.816 -9.216,3.816 z" transform="translate(0 294.57307631269475) translate(532.8308455782576 76.20163000297228) scale(1.120028259174538) translate(-533.123 -80.328)"></path> 
   <path id="path18530" style="font-style: normal; font-weight: 700; font-size: 72px; line-height: 1; font-family: &quot;Comfortaa Bold Alt2&quot;; font-variant-ligatures: none; text-align: center; text-anchor: middle; fill: rgb(233, 232, 227);" d="m 625.96587,81.408 c -0.504,-0.504 -1.22399,-0.792 -2.232,-0.792 -1.87199,0 -3.096,1.152 -3.744,3.312 l -7.91999,24.768 -6.48001,-25.344 c -0.288,-0.792 -0.72,-1.44 -1.296,-1.944 -0.57599,-0.504 -1.36799,-0.792 -2.232,-0.792 -1.008,0 -1.79999,0.288 -2.376,0.792 -0.576,0.504 -1.008,1.152 -1.224,1.944 l -7.34399,24.84 -7.77601,-24.264 c -0.43199,-1.152 -0.93599,-1.944 -1.51199,-2.52 -0.57601,-0.504 -1.36801,-0.792 -2.232,-0.792 -2.01601,0 -3.024,1.008 -3.024,3.024 0,0.72 0.072,1.44 0.288,2.016 l 10.65599,31.968 c 0.216,0.72 0.64801,1.296 1.29601,1.728 0.64799,0.432 1.36799,0.648 2.16,0.648 0.72,0 1.43999,-0.216 2.08799,-0.648 0.648,-0.432 1.08001,-1.008 1.36801,-1.728 l 7.41599,-26.136 7.05601,26.136 c 0.144,0.72 0.576,1.296 1.22399,1.728 0.648,0.432 1.368,0.648 2.23201,0.648 0.71999,0 1.43999,-0.216 2.08799,-0.648 0.57601,-0.432 1.00801,-1.008 1.29601,-1.728 l 10.65599,-31.968 c 0.216,-0.576 0.36001,-1.296 0.36001,-2.088 0,-0.864 -0.28801,-1.584 -0.79201,-2.16 z" transform="translate(0 294.57307631269475) translate(581.4970590642592 76.52419814161456) scale(1.120028259174538) translate(-576.57388 -80.616)"></path> 
   <path id="path18532" style="font-style: normal; font-weight: 700; font-size: 72px; line-height: 1; font-family: &quot;Comfortaa Bold Alt2&quot;; font-variant-ligatures: none; text-align: center; text-anchor: middle; fill: rgb(233, 232, 227);" d="m 664.883,116.976 c 0,-0.864 -0.288,-1.584 -0.792,-2.16 L 650.123,97.68 663.371,85.872 c 0.72,-0.576 1.152,-1.44 1.152,-2.448 0,-0.864 -0.36,-1.584 -0.936,-2.232 -0.648,-0.72 -1.44,-1.152 -2.448,-1.152 -0.864,0 -1.656,0.36 -2.232,0.936 L 641.411,96.6 V 67.296 c 0,-1.008 -0.36,-1.872 -1.008,-2.52 -0.648,-0.648 -1.512,-1.008 -2.52,-1.008 -1.08,0 -1.944,0.36 -2.592,1.008 -0.648,0.648 -0.936,1.512 -0.936,2.52 v 49.176 c 0,1.08 0.288,1.944 0.936,2.592 0.648,0.648 1.512,0.936 2.592,0.936 1.008,0 1.872,-0.288 2.52,-0.936 0.648,-0.648 1.008,-1.512 1.008,-2.592 v -11.016 l 3.6,-3.168 13.68,16.92 c 0.648,0.864 1.512,1.296 2.592,1.296 0.792,0 1.584,-0.288 2.304,-0.864 0.864,-0.72 1.296,-1.584 1.296,-2.664 z" transform="translate(0 294.57307631269475) translate(646.2135463110143 57.65396203104194) scale(1.120028259174538) translate(-634.355 -63.768)"></path> 
   <path id="path18534" style="font-style: normal; font-weight: 700; font-size: 72px; line-height: 1; font-family: &quot;Comfortaa Bold Alt2&quot;; font-variant-ligatures: none; text-align: center; text-anchor: middle; fill: rgb(243, 97, 53);" d="m 689.40462,120.288 c 5.544,0 10.22401,-1.944 14.112,-5.832 3.888,-3.888 5.904,-8.568 5.904,-14.112 0,-5.544 -2.016,-10.224 -5.904,-14.112 -3.88799,-3.888 -8.568,-5.904 -14.112,-5.904 -5.54399,0 -10.224,2.016 -14.11199,5.904 -3.88801,3.888 -5.832,8.568 -5.832,14.112 0,5.544 1.94399,10.224 5.832,14.112 3.88799,3.888 8.568,5.832 14.11199,5.832 z m 0,-33.048 c 3.60001,0 6.69601,1.296 9.28801,3.816 2.51999,2.592 3.816,5.688 3.816,9.288 0,3.6 -1.29601,6.696 -3.816,9.216 -2.592,2.592 -5.688,3.816 -9.28801,3.816 -3.6,0 -6.696,-1.224 -9.216,-3.816 -2.59199,-2.52 -3.816,-5.616 -3.816,-9.216 0,-3.6 1.22401,-6.696 3.816,-9.288 2.52,-2.52 5.616,-3.816 9.216,-3.816 z" transform="translate(0 294.57307631269475) translate(685.5328439671397 76.20163000297228) scale(1.120028259174538) translate(-669.46063 -80.328)"></path> 
   <path id="path18536" style="font-style: normal; font-weight: 700; font-size: 72px; line-height: 1; font-family: &quot;Comfortaa Bold Alt2&quot;; font-variant-ligatures: none; text-align: center; text-anchor: middle; fill: rgb(243, 97, 53);" d="m 712.8935,70.104 c 0.72,0.72 1.584,1.008 2.664,1.008 h 21.888 l -20.664,42.912 c -0.432,0.864 -0.648,1.656 -0.648,2.304 0,1.008 0.36,1.872 1.08,2.592 0.72,0.72 1.512,1.08 2.52,1.08 0.648,0 1.296,-0.144 1.944,-0.504 0.576,-0.36 1.08,-0.864 1.44,-1.512 l 23.04,-48.6 c 0.288,-0.72 0.504,-1.368 0.504,-1.944 0,-1.008 -0.36,-1.872 -1.08,-2.592 -0.72,-0.72 -1.584,-1.08 -2.592,-1.08 h -27.432 c -1.08,0 -1.944,0.36 -2.664,1.08 -0.72,0.72 -1.008,1.584 -1.008,2.592 0,1.08 0.288,1.944 1.008,2.664 z" transform="translate(0 294.57307631269475) translate(733.0498972589457 57.65396203104194) scale(1.120028259174538) translate(-711.8855 -63.768)"></path> 
  </g> 
  <g id="tagline" style="font-style:normal;font-weight:500;font-size:32px;line-height:1;font-family:Raleway;font-variant-ligatures:none;text-align:center;text-anchor:middle"></g> 
 </g> 
</svg>