<svg xmlns:dc="http://purl.org/dc/elements/1.1/" xmlns:cc="http://creativecommons.org/ns#" xmlns:rdf="http://www.w3.org/1999/02/22-rdf-syntax-ns#" xmlns:svg="http://www.w3.org/2000/svg" xmlns="http://www.w3.org/2000/svg" id="svg491699" viewbox="0 0 1024 768" height="768px" width="1024px" version="1.1"> <metadata id="metadata491705"> 
  <rdf:rdf> 
   <cc:work rdf:about=""> 
    <dc:format>
     image/svg+xml
    </dc:format> 
    <dc:type rdf:resource="http://purl.org/dc/dcmitype/StillImage"></dc:type> 
   </cc:work> 
  </rdf:rdf> 
 </metadata> <defs id="defs491703"></defs> <g id="logo-group"> 
  <g id="title" style="font-style:normal;font-weight:300;font-size:72px;line-height:1;font-family:'Montserrat Light Alt1';font-variant-ligatures:none;text-align:center;text-anchor:middle" aria-label="BLACKPEARLO7"> 
   <path id="path491707" style="font-style: normal; font-weight: 300; font-size: 72px; line-height: 1; font-family: &quot;Montserrat Light Alt1&quot;; font-variant-ligatures: none; text-align: center; text-anchor: middle; fill: rgb(107, 196, 162);" d="m 262.08463,98.256 c -1.87201,-2.16 -4.608,-3.528 -8.20801,-4.248 2.52001,-0.792 4.608,-2.232 6.12,-4.248 1.512,-1.944 2.30401,-4.32 2.30401,-7.272 0,-4.104 -1.584,-7.272 -4.608,-9.504 -3.024,-2.232 -7.27201,-3.384 -12.74401,-3.384 h -21.024 v 3.168 h 20.88 c 4.392,0 7.776,0.864 10.152,2.592 2.376,1.728 3.6,4.176 3.6,7.416 0,3.312 -1.224,5.832 -3.6,7.56 -2.376,1.728 -5.76,2.52 -10.152,2.52 h -20.88 v 3.168 h 22.464 c 4.824,0 8.568,0.864 11.08801,2.52 2.51999,1.728 3.81599,4.32 3.81599,7.848 0,3.6 -1.296,6.192 -3.81599,7.92 -2.52001,1.728 -6.19201,2.52 -11.08801,2.52 h -22.464 V 120 h 22.464 c 6.12,0 10.728,-1.152 13.896,-3.456 3.096,-2.304 4.68,-5.544 4.68,-9.864 0,-3.384 -1.00799,-6.192 -2.87999,-8.424 z" transform="translate(0 324.24) translate(237.51619583333326 38.760000000000005) scale(0.8333333333333334) translate(-223.92462 -69.6)"></path> 
   <path id="path491709" style="font-style: normal; font-weight: 300; font-size: 72px; line-height: 1; font-family: &quot;Montserrat Light Alt1&quot;; font-variant-ligatures: none; text-align: center; text-anchor: middle; fill: rgb(107, 196, 162);" d="M 278.06525,69.6 V 120 h 32.688 v -3.312 h -29.016 V 69.6 Z" transform="translate(0 324.24) translate(288.4667208333332 38.760000000000005) scale(0.8333333333333334) translate(-278.06525 -69.6)"></path> 
   <path id="path491711" style="font-style: normal; font-weight: 300; font-size: 72px; line-height: 1; font-family: &quot;Montserrat Light Alt1&quot;; font-variant-ligatures: none; text-align: center; text-anchor: middle; fill: rgb(107, 196, 162);" d="m 338.82537,69.6 h -3.672 L 311.96938,120 h 3.95999 l 21.024,-46.368 21.096,46.368 h 3.96 z" transform="translate(0 324.24) translate(322.5534958333333 38.760000000000005) scale(0.8333333333333334) translate(-311.96938 -69.6)"></path> 
   <path id="path491713" style="font-style: normal; font-weight: 300; font-size: 72px; line-height: 1; font-family: &quot;Montserrat Light Alt1&quot;; font-variant-ligatures: none; text-align: center; text-anchor: middle; fill: rgb(107, 196, 162);" d="m 378.37587,117.048 c 3.96,2.232 8.424,3.312 13.392,3.312 3.60001,0 6.912,-0.576 10.008,-1.8 3.096,-1.152 5.76001,-2.952 7.92,-5.256 l -2.30399,-2.376 c -4.10401,4.032 -9.288,6.048 -15.48001,6.048 -4.24799,0 -8.064,-0.936 -11.51999,-2.88 -3.45601,-1.872 -6.192,-4.536 -8.13601,-7.92 -2.016,-3.384 -2.952,-7.2 -2.952,-11.376 0,-4.176 0.936,-7.92 2.952,-11.304 1.94401,-3.384 4.68,-6.048 8.13601,-7.992 3.45599,-1.872 7.272,-2.88 11.51999,-2.88 6.26401,0 11.448,2.016 15.48001,5.976 l 2.30399,-2.376 c -2.15999,-2.304 -4.824,-4.032 -7.848,-5.184 -3.096,-1.152 -6.47999,-1.8 -10.08,-1.8 -4.968,0 -9.432,1.152 -13.392,3.312 -3.95999,2.232 -7.05599,5.256 -9.36,9.144 -2.30399,3.888 -3.384,8.28 -3.384,13.104 0,4.896 1.08001,9.216 3.384,13.104 2.30401,3.888 5.40001,6.984 9.36,9.144 z" transform="translate(0 324.24) translate(373.1055708333333 38.459999999999994) scale(0.8333333333333334) translate(-365.63187 -69.24)"></path> 
   <path id="path491715" style="font-style: normal; font-weight: 300; font-size: 72px; line-height: 1; font-family: &quot;Montserrat Light Alt1&quot;; font-variant-ligatures: none; text-align: center; text-anchor: middle; fill: rgb(107, 196, 162);" d="m 437.04125,95.16 21.672,24.84 h 4.464 l -23.688,-27.504 22.176,-22.896 h -4.464 l -31.464,32.4 V 69.6 h -3.672 V 120 h 3.672 v -13.248 z" transform="translate(0 324.24) translate(425.9667208333332 38.760000000000005) scale(0.8333333333333334) translate(-422.06525 -69.6)"></path> 
   <path id="path491717" style="font-style: normal; font-weight: 300; font-size: 72px; line-height: 1; font-family: &quot;Montserrat Light Alt1&quot;; font-variant-ligatures: none; text-align: center; text-anchor: middle; fill: rgb(107, 196, 162);" d="m 505.66625,74.136 c -3.6,-3.024 -8.568,-4.536 -14.904,-4.536 h -18.072 v 3.312 h 18.072 c 5.328,0 9.432,1.224 12.312,3.6 2.808,2.376 4.248,5.76 4.248,10.08 0,4.392 -1.44,7.776 -4.248,10.08 -2.88,2.376 -6.984,3.528 -12.312,3.528 h -18.072 V 120 h 3.672 v -16.488 h 14.4 c 6.336,0 11.304,-1.44 14.904,-4.464 3.6,-3.024 5.4,-7.128 5.4,-12.456 0,-5.256 -1.8,-9.432 -5.4,-12.456 z" transform="translate(0 324.24) translate(473.98755416666654 38.760000000000005) scale(0.8333333333333334) translate(-472.69025 -69.6)"></path> 
   <path id="path491719" style="font-style: normal; font-weight: 300; font-size: 72px; line-height: 1; font-family: &quot;Montserrat Light Alt1&quot;; font-variant-ligatures: none; text-align: center; text-anchor: middle; fill: rgb(107, 196, 162);" d="m 556.07187,92.784 h -32.616 v 3.24 h 32.616 z m 0,-23.184 h -32.616 v 3.312 h 32.616 z m -32.616,47.088 V 120 h 32.616 v -3.312 z" transform="translate(0 324.24) translate(522.1255708333333 38.760000000000005) scale(0.8333333333333334) translate(-523.45587 -69.6)"></path> 
   <path id="path491721" style="font-style: normal; font-weight: 300; font-size: 72px; line-height: 1; font-family: &quot;Montserrat Light Alt1&quot;; font-variant-ligatures: none; text-align: center; text-anchor: middle; fill: rgb(107, 196, 162);" d="m 590.12225,69.6 h -3.672 l -23.184,50.4 h 3.96 l 21.024,-46.368 21.096,46.368 h 3.96 z" transform="translate(0 324.24) translate(561.1342208333333 38.760000000000005) scale(0.8333333333333334) translate(-563.26625 -69.6)"></path> 
   <path id="path491723" style="font-style: normal; font-weight: 300; font-size: 72px; line-height: 1; font-family: &quot;Montserrat Light Alt1&quot;; font-variant-ligatures: none; text-align: center; text-anchor: middle; fill: rgb(107, 196, 162);" d="m 649.02387,102.36 c 3.744,-1.08 6.696,-2.952 8.712,-5.688 2.01601,-2.736 3.096,-6.048 3.096,-10.08 0,-5.256 -1.79999,-9.432 -5.4,-12.456 -3.6,-3.024 -8.568,-4.536 -14.904,-4.536 h -18.072 v 3.312 h 18.072 c 5.328,0 9.432,1.224 12.312,3.6 2.808,2.376 4.248,5.76 4.248,10.08 0,4.392 -1.44,7.776 -4.248,10.152 -2.88,2.376 -6.984,3.528 -12.312,3.528 h -18.072 V 120 h 3.67201 v -16.488 h 14.39999 c 1.44001,0 3.096,-0.072 4.896,-0.36 l 12.024,16.848 h 4.176 z" transform="translate(0 324.24) translate(616.2922375 38.760000000000005) scale(0.8333333333333334) translate(-622.45587 -69.6)"></path> 
   <path id="path491725" style="font-style: normal; font-weight: 300; font-size: 72px; line-height: 1; font-family: &quot;Montserrat Light Alt1&quot;; font-variant-ligatures: none; text-align: center; text-anchor: middle; fill: rgb(107, 196, 162);" d="M 674.3465,69.6 V 120 h 32.688 v -3.312 h -29.016 V 69.6 Z" transform="translate(0 324.24) translate(665.3677625 38.760000000000005) scale(0.8333333333333334) translate(-674.3465 -69.6)"></path> 
   <path id="path491727" style="font-style: normal; font-weight: 300; font-size: 72px; line-height: 1; font-family: &quot;Montserrat Light Alt1&quot;; font-variant-ligatures: none; text-align: center; text-anchor: middle; fill: rgb(221, 145, 71);" d="m 723.54162,117.048 c 3.96,2.232 8.42401,3.312 13.392,3.312 4.896,0 9.36001,-1.08 13.392,-3.312 3.96,-2.16 7.056,-5.256 9.36,-9.144 2.30401,-3.888 3.456,-8.208 3.456,-13.104 0,-4.824 -1.15199,-9.216 -3.456,-13.104 -2.304,-3.888 -5.4,-6.912 -9.36,-9.144 -4.03199,-2.16 -8.496,-3.312 -13.392,-3.312 -4.96799,0 -9.432,1.152 -13.392,3.384 -4.03199,2.232 -7.12799,5.256 -9.43199,9.144 -2.30401,3.888 -3.384,8.28 -3.384,13.032 0,4.824 1.07999,9.144 3.384,13.032 2.304,3.888 5.4,6.984 9.43199,9.216 z m 24.84,-2.952 c -3.456,1.944 -7.27199,2.88 -11.448,2.88 -4.248,0 -8.06399,-0.936 -11.51999,-2.88 -3.45601,-1.872 -6.12,-4.536 -8.06401,-7.92 -2.016,-3.384 -2.952,-7.2 -2.952,-11.376 0,-4.176 0.936,-7.92 2.952,-11.304 1.94401,-3.384 4.608,-6.048 8.06401,-7.992 3.456,-1.872 7.27199,-2.88 11.51999,-2.88 4.17601,0 7.992,1.008 11.448,2.88 3.384,1.944 6.048,4.608 8.06401,7.992 1.944,3.384 2.95199,7.128 2.95199,11.304 0,4.176 -1.00799,7.992 -2.95199,11.376 -2.01601,3.384 -4.68001,6.048 -8.06401,7.92 z" transform="translate(0 324.24) translate(701.5170375 38.459999999999994) scale(0.8333333333333334) translate(-710.72563 -69.24)"></path> 
   <path id="path491729" style="font-style: normal; font-weight: 300; font-size: 72px; line-height: 1; font-family: &quot;Montserrat Light Alt1&quot;; font-variant-ligatures: none; text-align: center; text-anchor: middle; fill: rgb(221, 145, 71);" d="m 805.68575,69.6 h -36.144 v 12.96 h 3.6 v -9.648 h 28.296 L 779.98175,120 h 4.032 l 21.672,-47.808 z" transform="translate(0 324.24) translate(756.3638041666667 38.760000000000005) scale(0.8333333333333334) translate(-769.54175 -69.6)"></path> 
  </g> 
  <g id="tagline" style="font-style:normal;font-weight:400;font-size:32px;line-height:1;font-family:Montserrat;font-variant-ligatures:none;text-align:center;text-anchor:middle"></g> 
 </g> 
</svg>