<svg xmlns:dc="http://purl.org/dc/elements/1.1/" xmlns:cc="http://creativecommons.org/ns#" xmlns:rdf="http://www.w3.org/1999/02/22-rdf-syntax-ns#" xmlns:svg="http://www.w3.org/2000/svg" xmlns="http://www.w3.org/2000/svg" id="svg14361" viewbox="0 0 1024 768" height="768px" width="1024px" version="1.1"> <metadata id="metadata14367"> 
  <rdf:rdf> 
   <cc:work rdf:about=""> 
    <dc:format>
     image/svg+xml
    </dc:format> 
    <dc:type rdf:resource="http://purl.org/dc/dcmitype/StillImage"></dc:type> 
   </cc:work> 
  </rdf:rdf> 
 </metadata> <defs id="defs14365"></defs> <g id="logo-group"> 
  <g id="title" style="font-style:normal;font-weight:700;font-size:72px;line-height:1;font-family:Phenomena;font-variant-ligatures:none;text-align:center;text-anchor:middle" aria-label="BLACKROCKO7"> 
   <path id="path14369" style="font-style: normal; font-weight: 700; font-size: 72px; line-height: 1; font-family: Phenomena; font-variant-ligatures: none; text-align: center; text-anchor: middle; fill: rgb(255, 255, 255);" d="m 371.0645,94.08 c 2.952,-1.656 4.752,-5.112 4.752,-9.36 v -3.168 c 0,-7.632 -4.752,-12.672 -11.952,-12.672 -6.984,0 -11.664,5.04 -11.664,12.672 v 35.712 c 0,1.728 1.224,2.952 2.88,2.952 h 9.576 c 7.272,0 12.24,-5.04 12.24,-12.816 v -3.312 c 0,-4.536 -2.232,-8.208 -5.832,-10.008 z m -12.384,-12.888 c 0,-3.888 1.944,-6.264 5.184,-6.264 3.456,0 5.472,2.376 5.472,6.264 v 4.032 c 0,3.96 -2.088,6.336 -5.472,6.336 h -5.184 z m 11.592,26.568 c 0,4.032 -2.088,6.48 -5.76,6.48 h -5.832 V 97.464 h 5.832 c 3.672,0 5.76,2.448 5.76,6.552 z" transform="translate(0 249.50260907451843) translate(251.99999999999994 92.58098024205877) scale(1.617145473897485) translate(-352.2005 -68.88)"></path> 
   <path id="path14371" style="font-style: normal; font-weight: 700; font-size: 72px; line-height: 1; font-family: Phenomena; font-variant-ligatures: none; text-align: center; text-anchor: middle; fill: rgb(255, 255, 255);" d="m 394.8155,114.168 c -3.312,0 -5.688,-2.736 -5.688,-6.84 V 70.536 c 0,-0.576 -0.36,-0.936 -1.008,-0.936 h -4.608 c -0.576,0 -0.936,0.36 -0.936,0.936 v 37.008 c 0,7.2 4.536,12.672 11.88,12.672 h 7.272 c 0.648,0 1.008,-0.36 1.008,-0.936 v -4.104 c 0,-0.648 -0.36,-1.008 -1.008,-1.008 z" transform="translate(0 249.50260907451843) translate(301.120793769636 93.74532498326495) scale(1.617145473897485) translate(-382.5755 -69.6)"></path> 
   <path id="path14373" style="font-style: normal; font-weight: 700; font-size: 72px; line-height: 1; font-family: Phenomena; font-variant-ligatures: none; text-align: center; text-anchor: middle; fill: rgb(255, 255, 255);" d="m 407.55837,120 h 4.60801 c 0.57599,0 0.93599,-0.36 0.93599,-1.008 v -15.984 h 11.664 v 15.984 c 0,0.648 0.432,1.008 1.00801,1.008 h 4.536 c 0.64799,0 1.00799,-0.36 1.00799,-1.008 V 82.128 c 0,-7.92 -4.968,-13.248 -12.384,-13.248 -7.416,0 -12.312,5.328 -12.312,13.248 v 36.864 c 0,0.648 0.36,1.008 0.936,1.008 z m 5.544,-22.968 V 81.84 c 0,-4.32 2.16001,-6.84 5.832,-6.84 3.74401,0 5.832,2.52 5.832,6.84 v 15.192 z" transform="translate(0 249.50260907451843) translate(340.0080807515372 92.58098024205877) scale(1.617145473897485) translate(-406.62237 -68.88)"></path> 
   <path id="path14375" style="font-style: normal; font-weight: 700; font-size: 72px; line-height: 1; font-family: Phenomena; font-variant-ligatures: none; text-align: center; text-anchor: middle; fill: rgb(255, 255, 255);" d="m 450.62675,120.792 c 7.344,0 12.168,-5.544 12.456,-14.256 0,-0.648 -0.36,-1.008 -0.936,-1.008 h -4.608 c -0.576,0 -0.936,0.288 -0.936,0.936 -0.144,5.256 -2.376,8.208 -6.048,8.208 -3.6,0 -5.688,-2.448 -5.688,-6.48 V 81.408 c 0,-4.032 2.088,-6.48 5.688,-6.48 3.312,0 5.544,2.664 5.688,7.704 0,0.648 0.36,0.936 0.936,0.936 h 4.608 c 0.648,0 0.936,-0.36 0.936,-0.936 -0.216,-8.424 -5.04,-13.824 -12.096,-13.824 -7.344,0 -12.312,5.184 -12.312,12.96 v 26.064 c 0,7.776 4.968,12.96 12.312,12.96 z" transform="translate(0 249.50260907451843) translate(391.25926962557634 92.46454576793816) scale(1.617145473897485) translate(-438.31475 -68.808)"></path> 
   <path id="path14377" style="font-style: normal; font-weight: 700; font-size: 72px; line-height: 1; font-family: Phenomena; font-variant-ligatures: none; text-align: center; text-anchor: middle; fill: rgb(255, 255, 255);" d="m 469.79675,120 h 4.536 c 0.576,0 0.936,-0.36 0.936,-1.008 V 97.68 h 5.256 c 3.816,0 6.048,2.736 6.048,7.056 v 14.256 c 0,0.648 0.36,1.008 1.008,1.008 h 4.536 c 0.648,0 1.008,-0.36 1.008,-1.008 V 104.88 c 0,-5.472 -2.232,-9.72 -6.336,-11.592 l 6.624,-22.608 c 0.144,-0.648 -0.144,-1.08 -0.864,-1.08 h -4.536 c -0.504,0 -0.936,0.288 -1.08,0.792 l -5.904,21.24 h -5.76 V 70.536 c 0,-0.576 -0.36,-0.936 -0.936,-0.936 h -4.536 c -0.648,0 -1.008,0.36 -1.008,0.936 v 48.456 c 0,0.648 0.36,1.008 1.008,1.008 z" transform="translate(0 249.50260907451843) translate(440.54016079712824 93.74532498326495) scale(1.617145473897485) translate(-468.78875 -69.6)"></path> 
   <path id="path14379" style="font-style: normal; font-weight: 700; font-size: 72px; line-height: 1; font-family: Phenomena; font-variant-ligatures: none; text-align: center; text-anchor: middle; fill: rgb(255, 255, 255);" d="m 500.79275,120 h 4.608 c 0.576,0 0.936,-0.36 0.936,-1.008 v -18 h 5.832 l 6.84,18.144 c 0.144,0.576 0.432,0.864 1.008,0.864 h 4.896 c 0.648,0 1.152,-0.432 0.936,-1.08 l -7.704,-19.44 c 3.744,-2.016 6.408,-6.048 6.408,-11.592 v -5.76 c 0,-7.848 -5.04,-13.32 -12.456,-13.32 -7.272,0 -12.24,5.472 -12.24,13.32 v 36.864 c 0,0.648 0.36,1.008 0.936,1.008 z m 5.544,-24.984 V 81.84 c 0,-4.176 2.376,-6.912 5.832,-6.912 3.456,0 5.832,2.736 5.832,6.912 v 6.192 c 0,4.248 -2.376,6.984 -6.12,6.984 z" transform="translate(0 249.50260907451843) translate(490.7816363801752 92.46454576793816) scale(1.617145473897485) translate(-499.85675 -68.808)"></path> 
   <path id="path14381" style="font-style: normal; font-weight: 700; font-size: 72px; line-height: 1; font-family: Phenomena; font-variant-ligatures: none; text-align: center; text-anchor: middle; fill: rgb(255, 255, 255);" d="m 543.30875,120.72 c 7.488,0 12.672,-5.472 12.672,-13.032 V 81.912 c 0,-7.56 -5.184,-13.032 -12.672,-13.032 -7.488,0 -12.744,5.472 -12.744,13.536 v 24.768 c 0,8.064 5.256,13.536 12.744,13.536 z m 0,-6.048 c -3.672,0 -6.192,-2.736 -6.192,-7.2 V 82.128 c 0,-4.464 2.52,-7.2 6.192,-7.2 3.672,0 6.12,2.736 6.12,6.696 v 26.352 c 0,3.96 -2.448,6.696 -6.12,6.696 z" transform="translate(0 249.50260907451843) translate(540.4409395926191 92.58098024205877) scale(1.617145473897485) translate(-530.56475 -68.88)"></path> 
   <path id="path14383" style="font-style: normal; font-weight: 700; font-size: 72px; line-height: 1; font-family: Phenomena; font-variant-ligatures: none; text-align: center; text-anchor: middle; fill: rgb(255, 255, 255);" d="m 574.51738,120.792 c 7.34399,0 12.168,-5.544 12.456,-14.256 0,-0.648 -0.36,-1.008 -0.93601,-1.008 h -4.60799 c -0.576,0 -0.936,0.288 -0.936,0.936 -0.14401,5.256 -2.376,8.208 -6.048,8.208 -3.60001,0 -5.688,-2.448 -5.688,-6.48 V 81.408 c 0,-4.032 2.08799,-6.48 5.688,-6.48 3.312,0 5.54399,2.664 5.68799,7.704 0,0.648 0.36001,0.936 0.93601,0.936 h 4.60799 c 0.648,0 0.93601,-0.36 0.93601,-0.936 -0.21601,-8.424 -5.04001,-13.824 -12.096,-13.824 -7.34401,0 -12.31201,5.184 -12.31201,12.96 v 26.064 c 0,7.776 4.968,12.96 12.31201,12.96 z" transform="translate(0 249.50260907451843) translate(591.6084250169292 92.46454576793816) scale(1.617145473897485) translate(-562.20537 -68.808)"></path> 
   <path id="path14385" style="font-style: normal; font-weight: 700; font-size: 72px; line-height: 1; font-family: Phenomena; font-variant-ligatures: none; text-align: center; text-anchor: middle; fill: rgb(255, 255, 255);" d="m 593.68737,120 h 4.53601 c 0.576,0 0.93599,-0.36 0.93599,-1.008 V 97.68 h 5.25601 c 3.81599,0 6.048,2.736 6.048,7.056 v 14.256 c 0,0.648 0.35999,1.008 1.00799,1.008 h 4.53601 c 0.648,0 1.00799,-0.36 1.00799,-1.008 V 104.88 c 0,-5.472 -2.232,-9.72 -6.33599,-11.592 l 6.62399,-22.608 c 0.144,-0.648 -0.144,-1.08 -0.86399,-1.08 h -4.53601 c -0.504,0 -0.936,0.288 -1.08,0.792 l -5.904,21.24 h -5.76 V 70.536 c 0,-0.576 -0.35999,-0.936 -0.93599,-0.936 h -4.53601 c -0.648,0 -1.00799,0.36 -1.00799,0.936 v 48.456 c 0,0.648 0.35999,1.008 1.00799,1.008 z" transform="translate(0 249.50260907451843) translate(640.8893323599359 93.74532498326495) scale(1.617145473897485) translate(-592.67938 -69.6)"></path> 
   <path id="path14387" style="font-style: normal; font-weight: 700; font-size: 72px; line-height: 1; font-family: Phenomena; font-variant-ligatures: none; text-align: center; text-anchor: middle; fill: rgb(116, 111, 75);" d="m 635.41813,120.72 c 7.48799,0 12.67199,-5.472 12.67199,-13.032 V 81.912 c 0,-7.56 -5.184,-13.032 -12.67199,-13.032 -7.48801,0 -12.74401,5.472 -12.74401,13.536 v 24.768 c 0,8.064 5.256,13.536 12.74401,13.536 z m 0,-6.048 c -3.67201,0 -6.192,-2.736 -6.192,-7.2 V 82.128 c 0,-4.464 2.51999,-7.2 6.192,-7.2 3.67199,0 6.12,2.736 6.12,6.696 v 26.352 c 0,3.96 -2.44801,6.696 -6.12,6.696 z" transform="translate(0 249.50260907451843) translate(689.3951903916678 92.58098024205877) scale(1.617145473897485) translate(-622.67412 -68.88)"></path> 
   <path id="path14389" style="font-style: normal; font-weight: 700; font-size: 72px; line-height: 1; font-family: Phenomena; font-variant-ligatures: none; text-align: center; text-anchor: middle; fill: rgb(116, 111, 75);" d="m 652.15475,70.536 v 4.104 c 0,0.648 0.36,1.008 0.936,1.008 h 13.752 l -10.44,43.272 c -0.144,0.648 0.144,1.08 0.864,1.08 h 4.536 c 0.576,0 0.936,-0.288 1.08,-0.864 L 673.39475,75 c 0.288,-1.224 0.36,-2.088 0.36,-3.384 0,-1.368 -0.792,-2.016 -2.16,-2.016 h -18.504 c -0.576,0 -0.936,0.36 -0.936,0.936 z" transform="translate(0 249.50260907451843) translate(737.0696577638141 93.74532498326495) scale(1.617145473897485) translate(-652.15475 -69.6)"></path> 
  </g> 
  <g id="tagline" style="font-style:oblique;font-weight:normal;font-size:32px;line-height:1;font-family:'Fira Sans Condensed';font-variant-ligatures:none;text-align:center;text-anchor:middle"></g> 
 </g> 
</svg>