<svg xmlns:dc="http://purl.org/dc/elements/1.1/" xmlns:cc="http://creativecommons.org/ns#" xmlns:rdf="http://www.w3.org/1999/02/22-rdf-syntax-ns#" xmlns:svg="http://www.w3.org/2000/svg" xmlns="http://www.w3.org/2000/svg" id="svg8244" viewbox="0 0 1024 768" height="768px" width="1024px" version="1.1"> <metadata id="metadata8250"> 
  <rdf:rdf> 
   <cc:work rdf:about=""> 
    <dc:format>
     image/svg+xml
    </dc:format> 
    <dc:type rdf:resource="http://purl.org/dc/dcmitype/StillImage"></dc:type> 
   </cc:work> 
  </rdf:rdf> 
 </metadata> <defs id="defs8248"></defs> <g id="logo-group"> 
  <g id="title" style="font-style:normal;font-weight:700;font-size:72px;line-height:1;font-family:'Comfortaa Bold Alt2';font-variant-ligatures:none;text-align:center;text-anchor:middle" aria-label="BLACKO7"> 
   <path id="path8252" style="font-style: normal; font-weight: 700; font-size: 72px; line-height: 1; font-family: &quot;Comfortaa Bold Alt2&quot;; font-variant-ligatures: none; text-align: center; text-anchor: middle; fill: rgb(11, 11, 16);" d="m 373.29031,65.712 c -2.52,-1.296 -5.4,-1.944 -8.568,-1.944 h -17.208 c -1.08,0 -1.944,0.36 -2.664,1.08 -0.72,0.72 -1.08,1.584 -1.08,2.664 v 48.744 c 0,1.08 0.36,1.944 1.08,2.664 0.72,0.72 1.584,1.08 2.664,1.08 h 18.72 c 3.528,0 6.696,-0.72 9.504,-2.16 2.808,-1.44 4.968,-3.456 6.552,-6.048 1.584,-2.592 2.376,-5.472 2.376,-8.784 0,-3.528 -0.936,-6.48 -2.808,-8.784 -1.872,-2.304 -4.464,-3.816 -7.704,-4.608 2.16,-1.152 3.888,-2.664 5.184,-4.536 1.296,-1.872 1.944,-3.96 1.944,-6.336 0,-2.88 -0.72,-5.4 -2.16,-7.704 -1.44,-2.304 -3.384,-4.032 -5.832,-5.328 z m -1.8,19.08 c -1.728,1.44 -3.96,2.088 -6.768,2.088 h -13.464 v -16.2 h 13.464 c 2.808,0 5.04,0.72 6.768,2.088 1.728,1.368 2.592,3.384 2.592,5.976 0,2.664 -0.864,4.68 -2.592,6.048 z m 2.88,25.704 c -2.088,1.728 -4.824,2.592 -8.136,2.592 h -14.976 V 93.792 h 14.976 c 3.384,0 6.12,0.792 8.136,2.376 2.016,1.584 3.096,3.888 3.096,6.84 0,3.24 -1.08,5.76 -3.096,7.488 z" transform="translate(0 256.9940598726978) translate(252 84.20181016715301) scale(1.5226566329060505) translate(-343.77031 -63.768)"></path> 
   <path id="path8254" style="font-style: normal; font-weight: 700; font-size: 72px; line-height: 1; font-family: &quot;Comfortaa Bold Alt2&quot;; font-variant-ligatures: none; text-align: center; text-anchor: middle; fill: rgb(11, 11, 16);" d="m 431.94556,113.592 c -0.72,-0.72 -1.656,-1.08 -2.664,-1.08 h -26.064 v -45 c 0,-1.008 -0.36,-1.944 -1.08,-2.664 -0.72,-0.72 -1.656,-1.08 -2.664,-1.08 -1.008,0 -1.872,0.36 -2.592,1.08 -0.72,0.72 -1.08,1.656 -1.08,2.664 v 48.744 c 0,1.08 0.288,1.944 1.008,2.664 0.72,0.72 1.584,1.08 2.664,1.08 h 29.808 c 1.008,0 1.944,-0.36 2.664,-1.08 0.72,-0.72 1.08,-1.584 1.08,-2.664 0,-1.008 -0.36,-1.944 -1.08,-2.664 z" transform="translate(0 256.9940598726978) translate(331.2257279308929 84.20181016715301) scale(1.5226566329060505) translate(-395.80156 -63.768)"></path> 
   <path id="path8256" style="font-style: normal; font-weight: 700; font-size: 72px; line-height: 1; font-family: &quot;Comfortaa Bold Alt2&quot;; font-variant-ligatures: none; text-align: center; text-anchor: middle; fill: rgb(11, 11, 16);" d="m 484.11519,114.744 -20.304,-48.456 c -0.648,-1.656 -1.8,-2.52 -3.528,-2.52 -1.656,0 -2.808,0.864 -3.528,2.52 l -20.232,48.312 c -0.288,0.648 -0.36,1.224 -0.36,1.656 0,1.08 0.288,1.944 1.008,2.664 0.72,0.72 1.584,1.08 2.664,1.08 0.72,0 1.368,-0.144 2.016,-0.576 0.576,-0.432 1.08,-0.936 1.44,-1.728 l 17.136,-41.904 16.848,41.904 c 0.216,0.72 0.72,1.296 1.368,1.728 0.648,0.432 1.296,0.576 2.088,0.576 1.008,0 1.944,-0.36 2.664,-1.08 0.72,-0.72 1.08,-1.584 1.08,-2.592 0,-0.432 -0.144,-0.936 -0.36,-1.584 z" transform="translate(0 256.9940598726978) translate(392.68263156529275 84.20181016715301) scale(1.5226566329060505) translate(-436.16319 -63.768)"></path> 
   <path id="path8258" style="font-style: normal; font-weight: 700; font-size: 72px; line-height: 1; font-family: &quot;Comfortaa Bold Alt2&quot;; font-variant-ligatures: none; text-align: center; text-anchor: middle; fill: rgb(11, 11, 16);" d="m 516.91794,120.792 c 3.24,0 6.408,-0.504 9.432,-1.584 2.952,-1.008 5.688,-2.52 8.136,-4.392 0.792,-0.576 1.224,-1.368 1.368,-2.376 0.144,-1.008 -0.072,-1.872 -0.72,-2.664 -0.576,-0.792 -1.368,-1.224 -2.376,-1.368 -1.008,-0.144 -1.872,0.072 -2.664,0.72 -3.888,2.952 -8.28,4.464 -13.176,4.464 -6.048,0 -11.16,-2.16 -15.408,-6.408 -4.248,-4.248 -6.336,-9.36 -6.336,-15.336 0,-5.976 2.088,-11.16 6.336,-15.408 4.248,-4.248 9.36,-6.336 15.408,-6.336 4.968,0 9.432,1.512 13.32,4.608 0.792,0.648 1.728,0.864 2.664,0.72 1.008,-0.072 1.8,-0.576 2.448,-1.368 0.576,-0.72 0.864,-1.656 0.72,-2.664 -0.144,-0.936 -0.576,-1.728 -1.368,-2.376 -2.448,-1.944 -5.256,-3.456 -8.208,-4.464 -3.096,-1.08 -6.336,-1.656 -9.576,-1.656 -3.96,0 -7.704,0.792 -11.304,2.304 -3.456,1.44 -6.552,3.528 -9.216,6.192 -2.664,2.664 -4.752,5.688 -6.192,9.144 -1.512,3.6 -2.232,7.344 -2.232,11.304 0,3.96 0.72,7.704 2.232,11.232 1.44,3.528 3.528,6.552 6.192,9.216 2.664,2.664 5.76,4.752 9.216,6.192 3.6,1.512 7.344,2.304 11.304,2.304 z" transform="translate(0 256.9940598726978) translate(471.5726137086299 82.88623483632219) scale(1.5226566329060505) translate(-487.97394 -62.904)"></path> 
   <path id="path8260" style="font-style: normal; font-weight: 700; font-size: 72px; line-height: 1; font-family: &quot;Comfortaa Bold Alt2&quot;; font-variant-ligatures: none; text-align: center; text-anchor: middle; fill: rgb(11, 11, 16);" d="m 561.29469,91.488 23.04,-22.464 c 0.72,-0.648 1.08,-1.512 1.08,-2.52 0,-1.008 -0.288,-1.8 -1.008,-2.52 -0.72,-0.72 -1.512,-1.08 -2.52,-1.08 -1.008,-0.072 -1.872,0.288 -2.592,1.008 l -24.696,24.12 V 67.368 c 0,-1.008 -0.36,-1.872 -1.08,-2.592 -0.72,-0.72 -1.584,-1.008 -2.52,-1.008 -1.008,0 -1.872,0.288 -2.592,1.008 -0.72,0.72 -1.008,1.584 -1.008,2.592 v 49.176 c 0,0.936 0.288,1.8 1.008,2.52 0.72,0.72 1.584,1.08 2.592,1.08 0.936,0 1.8,-0.36 2.52,-1.08 0.72,-0.72 1.08,-1.584 1.08,-2.52 v -21.6 l 24.696,24.12 c 0.72,0.72 1.512,1.08 2.52,1.08 1.008,0 1.872,-0.36 2.592,-1.152 0.72,-0.648 1.008,-1.512 1.008,-2.52 0,-1.008 -0.36,-1.872 -1.08,-2.52 z" transform="translate(0 256.9940598726978) translate(562.0561034549138 82.87246697504744) scale(1.5226566329060505) translate(-547.39869 -62.894958)"></path> 
   <path id="path8262" style="font-style: normal; font-weight: 700; font-size: 72px; line-height: 1; font-family: &quot;Comfortaa Bold Alt2&quot;; font-variant-ligatures: none; text-align: center; text-anchor: middle; fill: rgb(225, 227, 222);" d="m 618.52794,120.864 c 3.888,0 7.632,-0.792 11.232,-2.304 3.456,-1.44 6.552,-3.528 9.216,-6.192 2.664,-2.664 4.752,-5.688 6.192,-9.216 1.512,-3.528 2.304,-7.272 2.304,-11.232 0,-3.96 -0.792,-7.704 -2.304,-11.304 -1.44,-3.456 -3.528,-6.48 -6.192,-9.144 -2.664,-2.664 -5.76,-4.752 -9.216,-6.192 -3.6,-1.512 -7.344,-2.304 -11.232,-2.304 -3.96,0 -7.704,0.792 -11.304,2.304 -3.456,1.44 -6.552,3.528 -9.216,6.192 -2.664,2.664 -4.752,5.688 -6.192,9.144 -1.512,3.6 -2.232,7.344 -2.232,11.304 0,3.96 0.72,7.704 2.232,11.232 1.44,3.528 3.528,6.552 6.192,9.216 2.664,2.664 5.76,4.752 9.216,6.192 3.6,1.512 7.344,2.304 11.304,2.304 z m 0,-50.688 c 5.976,0 11.088,2.088 15.336,6.336 4.248,4.248 6.408,9.432 6.408,15.408 0,5.976 -2.16,11.088 -6.408,15.336 -4.248,4.248 -9.36,6.408 -15.336,6.408 -6.048,0 -11.16,-2.16 -15.408,-6.408 -4.248,-4.176 -6.336,-9.36 -6.336,-15.336 0,-5.976 2.088,-11.16 6.336,-15.408 4.248,-4.248 9.36,-6.336 15.408,-6.336 z" transform="translate(0 256.9940598726978) translate(626.2897541782138 82.99586611389142) scale(1.5226566329060505) translate(-589.58394 -62.976)"></path> 
   <path id="path8264" style="font-style: normal; font-weight: 700; font-size: 72px; line-height: 1; font-family: &quot;Comfortaa Bold Alt2&quot;; font-variant-ligatures: none; text-align: center; text-anchor: middle; fill: rgb(225, 227, 222);" d="m 651.51069,70.104 c 0.72,0.72 1.584,1.008 2.664,1.008 h 21.888 l -20.664,42.912 c -0.432,0.864 -0.648,1.656 -0.648,2.304 0,1.008 0.36,1.872 1.08,2.592 0.72,0.72 1.512,1.08 2.52,1.08 0.648,0 1.296,-0.144 1.944,-0.504 0.576,-0.36 1.08,-0.864 1.44,-1.512 l 23.04,-48.6 c 0.288,-0.72 0.504,-1.368 0.504,-1.944 0,-1.008 -0.36,-1.872 -1.08,-2.592 -0.72,-0.72 -1.584,-1.08 -2.592,-1.08 h -27.432 c -1.08,0 -1.944,0.36 -2.664,1.08 -0.72,0.72 -1.008,1.584 -1.008,2.592 0,1.08 0.288,1.944 1.008,2.664 z" transform="translate(0 256.9940598726978) translate(719.0480929340594 84.20181016715301) scale(1.5226566329060505) translate(-650.50269 -63.768)"></path> 
  </g> 
  <g id="tagline" style="font-style:normal;font-weight:500;font-size:32px;line-height:1;font-family:Raleway;font-variant-ligatures:none;text-align:center;text-anchor:middle"></g> 
 </g> 
</svg>