<svg xmlns:dc="http://purl.org/dc/elements/1.1/" xmlns:cc="http://creativecommons.org/ns#" xmlns:rdf="http://www.w3.org/1999/02/22-rdf-syntax-ns#" xmlns:svg="http://www.w3.org/2000/svg" xmlns="http://www.w3.org/2000/svg" id="svg529934" viewbox="0 0 1024 768" height="768px" width="1024px" version="1.1"> <metadata id="metadata529940"> 
  <rdf:rdf> 
   <cc:work rdf:about=""> 
    <dc:format>
     image/svg+xml
    </dc:format> 
    <dc:type rdf:resource="http://purl.org/dc/dcmitype/StillImage"></dc:type> 
   </cc:work> 
  </rdf:rdf> 
 </metadata> <defs id="defs529938"></defs> <g id="logo-group"> 
  <g id="title" style="font-style:normal;font-weight:200;font-size:72px;line-height:1;font-family:Montserrat;font-variant-ligatures:none;text-align:center;text-anchor:middle" aria-label="Blueplaneto7"> 
   <path id="path529942" style="font-style: normal; font-weight: 200; font-size: 72px; line-height: 1; font-family: Montserrat; font-variant-ligatures: none; text-align: center; text-anchor: middle; fill: rgb(43, 54, 76);" d="m 309.76831,69.672 q 7.272,0 11.304,3.312 4.032,3.24 4.032,9.144 0,4.752 -2.592,7.848 -2.592,3.024 -7.344,3.816 5.976,0.72 9.288,4.104 3.312,3.312 3.312,8.64 0,6.408 -4.752,9.936 -4.68,3.528 -13.248,3.528 h -20.232 V 69.672 Z m 0,23.544 q 6.624,0 10.224,-2.88 3.672,-2.88 3.672,-8.208 0,-5.256 -3.672,-8.136 -3.6,-2.88 -10.224,-2.88 h -18.792 v 22.104 z m 0,25.344 q 7.92,0 12.24,-3.168 4.392,-3.168 4.392,-8.928 0,-5.688 -4.392,-8.784 -4.32,-3.096 -12.24,-3.096 h -18.792 v 23.976 z" transform="translate(0 285.2937857016328) translate(252.00000000000023 63.52554813503107) scale(1.1496949726580414) translate(-289.53631 -69.672)"></path> 
   <path id="path529944" style="font-style: normal; font-weight: 200; font-size: 72px; line-height: 1; font-family: Montserrat; font-variant-ligatures: none; text-align: center; text-anchor: middle; fill: rgb(43, 54, 76);" d="m 341.19406,66.576 h 1.44 V 120 h -1.44 z" transform="translate(0 285.2937857016328) translate(311.3906554738261 59.966092499681764) scale(1.1496949726580414) translate(-341.19406 -66.576)"></path> 
   <path id="path529946" style="font-style: normal; font-weight: 200; font-size: 72px; line-height: 1; font-family: Montserrat; font-variant-ligatures: none; text-align: center; text-anchor: middle; fill: rgb(43, 54, 76);" d="M 388.85806,82.776 V 120 h -1.44 v -10.872 q -1.728,5.184 -5.688,7.992 -3.96,2.808 -9.792,2.88 -6.768,0 -10.584,-3.888 -3.816,-3.888 -3.816,-10.8 V 82.776 h 1.44 v 22.536 q 0,6.264 3.384,9.792 3.456,3.456 9.576,3.456 7.272,-0.144 11.376,-4.752 4.104,-4.68 4.104,-12.816 V 82.776 Z" transform="translate(0 285.2937857016328) translate(330.1812701069491 78.59115105674204) scale(1.1496949726580414) translate(-357.53806 -82.776)"></path> 
   <path id="path529948" style="font-style: normal; font-weight: 200; font-size: 72px; line-height: 1; font-family: Montserrat; font-variant-ligatures: none; text-align: center; text-anchor: middle; fill: rgb(43, 54, 76);" d="m 418.42981,118.56 q 4.032,0 7.416,-1.368 3.456,-1.44 5.76,-4.032 l 1.008,1.008 q -2.592,2.808 -6.264,4.32 -3.672,1.512 -7.92,1.512 -5.112,0 -9.216,-2.376 -4.032,-2.448 -6.408,-6.696 -2.304,-4.248 -2.304,-9.576 0,-5.328 2.304,-9.576 2.376,-4.248 6.408,-6.624 4.104,-2.376 9.216,-2.376 5.112,0 9,2.376 3.96,2.376 6.12,6.624 2.16,4.248 2.16,9.576 h -33.768 q 0,4.968 2.088,8.928 2.16,3.888 5.904,6.12 3.744,2.16 8.496,2.16 z m 0,-34.344 q -4.536,0 -8.208,2.016 -3.6,1.944 -5.76,5.544 -2.16,3.528 -2.448,8.136 h 32.256 q -0.504,-7.056 -4.752,-11.376 -4.248,-4.32 -11.088,-4.32 z" transform="translate(0 285.2937857016328) translate(379.5764774884861 78.59115105674204) scale(1.1496949726580414) translate(-400.50181 -82.776)"></path> 
   <path id="path529950" style="font-style: normal; font-weight: 200; font-size: 72px; line-height: 1; font-family: Montserrat; font-variant-ligatures: none; text-align: center; text-anchor: middle; fill: rgb(43, 54, 76);" d="m 465.57856,82.776 q 5.184,0 9.288,2.448 4.104,2.376 6.408,6.624 2.376,4.248 2.376,9.576 0,5.328 -2.376,9.576 -2.304,4.176 -6.408,6.624 -4.104,2.376 -9.288,2.376 -5.76,0 -10.224,-2.952 -4.392,-2.952 -6.408,-7.992 v 24.912 h -1.44 V 82.776 h 1.44 V 93.72 q 2.016,-5.04 6.408,-7.992 4.464,-2.952 10.224,-2.952 z m 0,35.784 q 4.752,0 8.496,-2.16 3.816,-2.232 5.976,-6.12 2.16,-3.96 2.16,-8.856 0,-4.896 -2.16,-8.784 -2.16,-3.96 -5.976,-6.192 -3.744,-2.232 -8.496,-2.232 -4.752,0 -8.568,2.232 -3.744,2.232 -5.904,6.192 -2.16,3.888 -2.16,8.784 0,4.896 2.16,8.856 2.16,3.888 5.904,6.12 3.816,2.16 8.568,2.16 z" transform="translate(0 285.2937857016328) translate(433.61760225453423 78.59115105674204) scale(1.1496949726580414) translate(-447.50656 -82.776)"></path> 
   <path id="path529952" style="font-style: normal; font-weight: 200; font-size: 72px; line-height: 1; font-family: Montserrat; font-variant-ligatures: none; text-align: center; text-anchor: middle; fill: rgb(43, 54, 76);" d="m 495.74094,66.576 h 1.44 V 120 h -1.44 z" transform="translate(0 285.2937857016328) translate(489.07242644981187 59.966092499681764) scale(1.1496949726580414) translate(-495.74094 -66.576)"></path> 
   <path id="path529954" style="font-style: normal; font-weight: 200; font-size: 72px; line-height: 1; font-family: Montserrat; font-variant-ligatures: none; text-align: center; text-anchor: middle; fill: rgb(43, 54, 76);" d="m 537.78894,120 -0.072,-8.424 q -2.448,4.248 -6.48,6.336 -3.96,2.088 -9.144,2.088 -5.328,0 -8.712,-3.024 -3.384,-3.024 -3.384,-7.704 0,-4.536 3.672,-7.056 3.744,-2.52 10.152,-2.52 h 13.824 V 95.16 q -0.072,-5.256 -3.096,-8.064 -2.952,-2.88 -8.712,-2.88 -3.528,0 -6.696,1.368 -3.096,1.296 -6.336,3.816 l -0.864,-1.152 q 6.912,-5.472 13.896,-5.472 6.336,0 9.72,3.312 3.456,3.312 3.528,9.072 l 0.144,24.84 z m -15.624,-1.44 q 5.616,0 9.504,-2.448 3.888,-2.448 6.048,-7.776 l -0.072,-7.2 h -13.824 q -5.904,0 -9.144,2.16 -3.24,2.088 -3.24,5.976 0,4.176 2.88,6.768 2.952,2.52 7.848,2.52 z" transform="translate(0 285.2937857016328) translate(505.46247798002486 78.59115105674204) scale(1.1496949726580414) translate(-509.99694 -82.776)"></path> 
   <path id="path529956" style="font-style: normal; font-weight: 200; font-size: 72px; line-height: 1; font-family: Montserrat; font-variant-ligatures: none; text-align: center; text-anchor: middle; fill: rgb(43, 54, 76);" d="m 571.01694,82.776 q 6.912,0 10.728,3.888 3.888,3.888 3.888,10.8 V 120 h -1.44 V 97.464 q 0,-6.264 -3.528,-9.72 -3.456,-3.528 -9.648,-3.528 -6.912,0.144 -11.016,4.248 -4.104,4.104 -4.68,11.304 V 120 h -1.44 V 82.776 h 1.44 v 10.512 q 1.8,-4.968 5.832,-7.704 4.032,-2.736 9.864,-2.808 z" transform="translate(0 285.2937857016328) translate(555.9156921601503 78.59115105674204) scale(1.1496949726580414) translate(-553.88094 -82.776)"></path> 
   <path id="path529958" style="font-style: normal; font-weight: 200; font-size: 72px; line-height: 1; font-family: Montserrat; font-variant-ligatures: none; text-align: center; text-anchor: middle; fill: rgb(43, 54, 76);" d="m 614.03919,118.56 q 4.032,0 7.416,-1.368 3.456,-1.44 5.76,-4.032 l 1.008,1.008 q -2.592,2.808 -6.264,4.32 -3.672,1.512 -7.92,1.512 -5.112,0 -9.216,-2.376 -4.032,-2.448 -6.408,-6.696 -2.304,-4.248 -2.304,-9.576 0,-5.328 2.304,-9.576 2.376,-4.248 6.408,-6.624 4.104,-2.376 9.216,-2.376 5.112,0 9,2.376 3.96,2.376 6.12,6.624 2.16,4.248 2.16,9.576 h -33.768 q 0,4.968 2.088,8.928 2.16,3.888 5.904,6.12 3.744,2.16 8.496,2.16 z m 0,-34.344 q -4.536,0 -8.208,2.016 -3.6,1.944 -5.76,5.544 -2.16,3.528 -2.448,8.136 h 32.256 q -0.504,-7.056 -4.752,-11.376 -4.248,-4.32 -11.088,-4.32 z" transform="translate(0 285.2937857016328) translate(604.4675982792427 78.59115105674204) scale(1.1496949726580414) translate(-596.11119 -82.776)"></path> 
   <path id="path529960" style="font-style: normal; font-weight: 200; font-size: 72px; line-height: 1; font-family: Montserrat; font-variant-ligatures: none; text-align: center; text-anchor: middle; fill: rgb(43, 54, 76);" d="m 659.17194,117.336 q -3.6,2.664 -7.488,2.664 -3.816,0 -5.832,-2.592 -1.944,-2.592 -1.944,-7.632 v -24.84 h -5.472 v -1.44 h 5.472 V 74.64 h 1.44 v 8.856 h 13.104 v 1.44 h -13.104 v 24.84 q 0,4.32 1.584,6.552 1.656,2.232 4.752,2.232 3.6,0 6.624,-2.376 z" transform="translate(0 285.2937857016328) translate(653.1281505732511 69.23723275919622) scale(1.1496949726580414) translate(-638.43594 -74.64)"></path> 
   <path id="path529962" style="font-style: normal; font-weight: 200; font-size: 72px; line-height: 1; font-family: Montserrat; font-variant-ligatures: none; text-align: center; text-anchor: middle; fill: rgb(187, 148, 108);" d="m 681.96444,82.776 q 5.112,0 9.216,2.376 4.176,2.376 6.48,6.624 2.376,4.248 2.376,9.576 0,5.328 -2.376,9.576 -2.304,4.248 -6.48,6.696 -4.104,2.376 -9.216,2.376 -5.112,0 -9.288,-2.376 -4.104,-2.448 -6.48,-6.696 -2.304,-4.248 -2.304,-9.576 0,-5.328 2.304,-9.576 2.376,-4.248 6.48,-6.624 4.176,-2.376 9.288,-2.376 z m 0,1.44 q -4.752,0 -8.568,2.232 -3.816,2.16 -5.976,6.048 -2.088,3.888 -2.088,8.856 0,4.968 2.088,8.928 2.16,3.888 5.976,6.12 3.816,2.16 8.568,2.16 4.752,0 8.568,-2.16 3.816,-2.232 5.904,-6.12 2.16,-3.96 2.16,-8.928 0,-4.968 -2.16,-8.856 -2.088,-3.888 -5.904,-6.048 -3.816,-2.232 -8.568,-2.232 z" transform="translate(0 285.2937857016328) translate(682.3953606447205 78.59115105674204) scale(1.1496949726580414) translate(-663.89244 -82.776)"></path> 
   <path id="path529964" style="font-style: normal; font-weight: 200; font-size: 72px; line-height: 1; font-family: Montserrat; font-variant-ligatures: none; text-align: center; text-anchor: middle; fill: rgb(187, 148, 108);" d="m 706.33419,69.672 h 35.496 v 1.8 L 717.20619,120 h -1.584 l 24.912,-48.888 h -32.76 v 8.064 h -1.44 z" transform="translate(0 285.2937857016328) translate(731.19042725053 63.52554813503107) scale(1.1496949726580414) translate(-706.33419 -69.672)"></path> 
  </g> 
  <g id="tagline" style="font-style:normal;font-weight:400;font-size:32px;line-height:1;font-family:Montserrat;font-variant-ligatures:none;text-align:center;text-anchor:middle"></g> 
 </g> 
</svg>