<svg xmlns:dc="http://purl.org/dc/elements/1.1/" xmlns:cc="http://creativecommons.org/ns#" xmlns:rdf="http://www.w3.org/1999/02/22-rdf-syntax-ns#" xmlns:svg="http://www.w3.org/2000/svg" xmlns="http://www.w3.org/2000/svg" id="svg96314" viewbox="0 0 1024 768" height="768px" width="1024px" version="1.1"> <metadata id="metadata96320"> 
  <rdf:rdf> 
   <cc:work rdf:about=""> 
    <dc:format>
     image/svg+xml
    </dc:format> 
    <dc:type rdf:resource="http://purl.org/dc/dcmitype/StillImage"></dc:type> 
   </cc:work> 
  </rdf:rdf> 
 </metadata> <defs id="defs96318"></defs> <g id="logo-group"> 
  <g id="title" style="font-style:normal;font-weight:300;font-size:72px;line-height:1;font-family:'Uni Neue';font-variant-ligatures:none;text-align:center;text-anchor:middle" aria-label="Blueboxo7"> 
   <path id="path96322" style="font-style: normal; font-weight: 300; font-size: 72px; line-height: 1; font-family: &quot;Uni Neue&quot;; font-variant-ligatures: none; text-align: center; text-anchor: middle; fill: rgb(55, 207, 168);" d="m 390.55906,80.976 c 0,-6.696 -4.032,-12.456 -15.696,-12.456 h -15.336 c -0.288,0 -0.504,0.144 -0.504,0.432 v 50.616 c 0,0.288 0.216,0.432 0.504,0.432 h 15.336 c 11.52,0 17.784,-5.256 17.784,-14.256 0,-7.2 -3.744,-12.024 -10.656,-13.392 5.256,-1.512 8.568,-5.544 8.568,-11.376 z m -29.088,36.792 V 93.504 h 14.688 c 9.792,0 14.112,4.896 14.112,12.24 0,7.56 -5.112,12.024 -15.408,12.024 z m 26.64,-36.792 c 0,6.552 -4.464,10.296 -11.952,10.296 h -14.688 v -20.52 h 13.392 c 10.296,0 13.248,4.896 13.248,10.224 z" transform="translate(0 268.6089102313641) translate(251.99999999999983 78.453027594028) scale(1.4152514243144774) translate(-359.02306 -68.52)"></path> 
   <path id="path96324" style="font-style: normal; font-weight: 300; font-size: 72px; line-height: 1; font-family: &quot;Uni Neue&quot;; font-variant-ligatures: none; text-align: center; text-anchor: middle; fill: rgb(55, 207, 168);" d="m 415.19319,120.432 c 0.288,-0.072 0.432,-0.288 0.432,-0.576 v -1.224 c 0,-0.288 -0.144,-0.36 -0.432,-0.36 -1.44,0.216 -3.096,0.288 -4.104,0.288 -4.248,0 -6.912,-2.664 -6.912,-9.504 V 68.952 c 0,-0.288 -0.144,-0.432 -0.432,-0.432 h -1.44 c -0.288,0 -0.432,0.144 -0.432,0.432 v 39.888 c 0,8.424 3.6,11.88 9.144,11.88 1.152,0 2.952,-0.144 4.176,-0.288 z" transform="translate(0 268.6089102313641) translate(322.5504674847617 78.453027594028) scale(1.4152514243144774) translate(-401.87319 -68.52)"></path> 
   <path id="path96326" style="font-style: normal; font-weight: 300; font-size: 72px; line-height: 1; font-family: &quot;Uni Neue&quot;; font-variant-ligatures: none; text-align: center; text-anchor: middle; fill: rgb(55, 207, 168);" d="m 446.50644,82.992 c -0.288,0 -0.504,0.216 -0.504,0.504 v 32.976 c -3.168,1.224 -6.912,2.16 -10.872,2.16 -8.064,0 -12.672,-4.104 -12.672,-12.456 v -22.68 c 0,-0.288 -0.144,-0.504 -0.432,-0.504 h -1.44 c -0.288,0 -0.432,0.216 -0.432,0.504 v 22.68 c 0,9.648 5.688,14.544 14.976,14.544 4.608,0 9.072,-1.008 12.816,-2.736 0.288,-0.072 0.36,-0.36 0.36,-0.576 V 83.496 c 0,-0.288 -0.144,-0.504 -0.432,-0.504 z" transform="translate(0 268.6089102313641) translate(358.32979255571206 98.93454620670711) scale(1.4152514243144774) translate(-420.15444 -82.992)"></path> 
   <path id="path96328" style="font-style: normal; font-weight: 300; font-size: 72px; line-height: 1; font-family: &quot;Uni Neue&quot;; font-variant-ligatures: none; text-align: center; text-anchor: middle; fill: rgb(55, 207, 168);" d="m 486.54294,95.952 c 0,-8.712 -5.904,-13.68 -14.328,-13.68 -8.424,0 -14.328,4.968 -14.328,13.68 v 11.664 c 0,8.28 6.768,13.104 14.328,13.104 6.12,0 10.584,-2.736 13.608,-5.544 0.288,-0.144 0.288,-0.36 0.072,-0.576 l -0.792,-0.936 c -0.144,-0.216 -0.36,-0.216 -0.576,-0.072 -2.736,2.448 -6.624,5.04 -12.24,5.04 -6.552,0 -12.096,-4.032 -12.096,-11.016 v -4.752 h 25.92 c 0.216,0 0.432,-0.144 0.432,-0.432 z m -2.304,0 v 4.896 h -24.048 v -4.896 c 0,-7.416 4.752,-11.52 12.024,-11.52 7.2,0 12.024,4.176 12.024,11.52 z" transform="translate(0 268.6089102313641) translate(421.6375268938594 97.91556518120068) scale(1.4152514243144774) translate(-457.88694 -82.272)"></path> 
   <path id="path96330" style="font-style: normal; font-weight: 300; font-size: 72px; line-height: 1; font-family: &quot;Uni Neue&quot;; font-variant-ligatures: none; text-align: center; text-anchor: middle; fill: rgb(55, 207, 168);" d="M 498.04944,85.584 V 68.952 c 0,-0.288 -0.144,-0.432 -0.432,-0.432 h -1.44 c -0.216,0 -0.432,0.144 -0.432,0.432 v 48.744 c 0,0.216 0.144,0.432 0.36,0.504 3.888,1.584 8.496,2.52 13.104,2.52 9.432,0 15.264,-4.752 15.264,-15.336 V 97.68 c 0,-10.44 -5.76,-15.408 -15.192,-15.408 -4.176,0 -8.136,1.296 -11.232,3.312 z m 11.16,33.048 c -4.032,0 -7.92,-0.792 -11.16,-1.944 v -28.8 c 3.168,-2.16 7.128,-3.456 11.16,-3.456 8.28,0 12.888,3.96 12.888,13.248 v 7.704 c 0,9.288 -4.68,13.248 -12.888,13.248 z" transform="translate(0 268.6089102313641) translate(485.12358291147035 78.453027594028) scale(1.4152514243144774) translate(-495.74544 -68.52)"></path> 
   <path id="path96332" style="font-style: normal; font-weight: 300; font-size: 72px; line-height: 1; font-family: &quot;Uni Neue&quot;; font-variant-ligatures: none; text-align: center; text-anchor: middle; fill: rgb(55, 207, 168);" d="M 562.65144,107.184 V 95.808 c 0,-7.56 -5.184,-13.536 -14.976,-13.536 -9.72,0 -14.976,5.976 -14.976,13.536 v 11.376 c 0,7.632 5.256,13.536 14.976,13.536 9.792,0 14.976,-5.904 14.976,-13.536 z m -27.648,0 V 95.808 c 0,-6.336 4.248,-11.376 12.672,-11.376 8.496,0 12.672,5.04 12.672,11.376 v 11.376 c 0,6.408 -4.176,11.448 -12.672,11.448 -8.424,0 -12.672,-5.04 -12.672,-11.448 z" transform="translate(0 268.6089102313641) translate(547.3295440157889 97.91556518120068) scale(1.4152514243144774) translate(-532.69944 -82.272)"></path> 
   <path id="path96334" style="font-style: normal; font-weight: 300; font-size: 72px; line-height: 1; font-family: &quot;Uni Neue&quot;; font-variant-ligatures: none; text-align: center; text-anchor: middle; fill: rgb(55, 207, 168);" d="m 583.65519,101.064 13.032,-17.496 c 0.216,-0.288 0.072,-0.576 -0.288,-0.576 h -1.728 c -0.144,0 -0.432,0.144 -0.504,0.288 l -11.952,16.128 -11.952,-16.128 c -0.072,-0.144 -0.288,-0.288 -0.504,-0.288 h -1.728 c -0.36,0 -0.432,0.288 -0.288,0.576 l 13.032,17.496 -13.896,18.36 c -0.144,0.288 -0.072,0.576 0.288,0.576 h 1.8 c 0.216,0 0.432,-0.072 0.504,-0.288 l 12.744,-16.92 12.744,16.92 c 0.072,0.216 0.36,0.288 0.504,0.288 h 1.8 c 0.36,0 0.504,-0.288 0.288,-0.576 z" transform="translate(0 268.6089102313641) translate(605.5108414246704 98.93454620670711) scale(1.4152514243144774) translate(-566.80966 -82.992)"></path> 
   <path id="path96336" style="font-style: normal; font-weight: 300; font-size: 72px; line-height: 1; font-family: &quot;Uni Neue&quot;; font-variant-ligatures: none; text-align: center; text-anchor: middle; fill: rgb(19, 70, 99);" d="M 631.83894,107.184 V 95.808 c 0,-7.56 -5.184,-13.536 -14.976,-13.536 -9.72,0 -14.976,5.976 -14.976,13.536 v 11.376 c 0,7.632 5.256,13.536 14.976,13.536 9.792,0 14.976,-5.904 14.976,-13.536 z m -27.648,0 V 95.808 c 0,-6.336 4.248,-11.376 12.672,-11.376 8.496,0 12.672,5.04 12.672,11.376 v 11.376 c 0,6.408 -4.176,11.448 -12.672,11.448 -8.424,0 -12.672,-5.04 -12.672,-11.448 z" transform="translate(0 268.6089102313641) translate(665.0607718759494 97.91556518120068) scale(1.4152514243144774) translate(-601.88694 -82.272)"></path> 
   <path id="path96338" style="font-style: normal; font-weight: 300; font-size: 72px; line-height: 1; font-family: &quot;Uni Neue&quot;; font-variant-ligatures: none; text-align: center; text-anchor: middle; fill: rgb(19, 70, 99);" d="m 645.89694,120 c 0.216,0 0.504,-0.144 0.576,-0.36 l 23.832,-49.392 c 0.144,-0.144 0.144,-0.36 0.144,-0.504 v -0.792 c 0,-0.288 -0.216,-0.432 -0.504,-0.432 h -31.68 c -0.288,0 -0.504,0.144 -0.504,0.432 v 1.368 c 0,0.216 0.216,0.432 0.504,0.432 h 29.304 l -23.616,48.672 c -0.144,0.36 0.072,0.576 0.36,0.576 z" transform="translate(0 268.6089102313641) translate(725.7382614420083 78.453027594028) scale(1.4152514243144774) translate(-637.76094 -68.52)"></path> 
  </g> 
  <g id="tagline" style="font-style:oblique;font-weight:400;font-size:32px;line-height:1;font-family:Lato;font-variant-ligatures:none;text-align:center;text-anchor:middle"></g> 
 </g> 
</svg>