<svg xmlns:dc="http://purl.org/dc/elements/1.1/" xmlns:cc="http://creativecommons.org/ns#" xmlns:rdf="http://www.w3.org/1999/02/22-rdf-syntax-ns#" xmlns:svg="http://www.w3.org/2000/svg" xmlns="http://www.w3.org/2000/svg" id="svg47557" viewbox="0 0 1024 768" height="768px" width="1024px" version="1.1"> <metadata id="metadata47563"> 
  <rdf:rdf> 
   <cc:work rdf:about=""> 
    <dc:format>
     image/svg+xml
    </dc:format> 
    <dc:type rdf:resource="http://purl.org/dc/dcmitype/StillImage"></dc:type> 
   </cc:work> 
  </rdf:rdf> 
 </metadata> <defs id="defs47561"></defs> <g id="logo-group"> 
  <g id="title" style="font-style:normal;font-weight:700;font-size:72px;line-height:1;font-family:'Brandmark1 Bold';font-variant-ligatures:none;text-align:center;text-anchor:middle" aria-label="Bluefireo7"> 
   <path id="path47565" style="font-style: normal; font-weight: 700; font-size: 72px; line-height: 1; font-family: &quot;Brandmark1 Bold&quot;; font-variant-ligatures: none; text-align: center; text-anchor: middle; fill: rgb(255, 255, 255);" d="m 353.39412,122.52 h 21.168 c 6.192,0 11.088,-1.512 14.47201,-4.464 3.312,-2.88 5.11199,-6.984 5.11199,-11.952 0,-4.104 -1.296,-7.704 -3.744,-10.44 -1.07999,-1.224 -2.304,-2.232 -3.744,-3.024 0.93601,-0.864 1.8,-1.8 2.52001,-2.952 1.584,-2.376 2.44799,-5.256 2.44799,-8.352 0,-2.448 -0.504,-4.752 -1.44,-6.696 -0.93599,-1.944 -2.376,-3.528 -4.17599,-4.824 -3.24001,-2.304 -7.77601,-3.456 -13.392,-3.456 h -19.22401 z m 20.59201,-10.728 h -9.28801 V 98.904 h 8.352 c 3.24,0 5.832,0.72 7.416,1.944 1.368,1.08 2.088,2.664 2.088,4.752 0,2.088 -0.72,3.6 -2.016,4.608 -1.512,1.08 -3.744,1.584 -6.55199,1.584 z m -1.296,-23.4 h -7.99201 V 77.088 l 7.272,-0.072 c 2.952,0 5.25601,0.576 6.55201,1.656 0.43199,0.36 1.656,1.296 1.656,3.888 0,2.088 -0.64801,3.528 -2.01601,4.464 -1.296,0.936 -3.168,1.368 -5.47199,1.368 z" transform="translate(0 245.08993000811165) translate(251.99999999999994 97.35194978543473) scale(1.621337398816075) translate(-353.39412 -66.36)"></path> 
   <path id="path47567" style="font-style: normal; font-weight: 700; font-size: 72px; line-height: 1; font-family: &quot;Brandmark1 Bold&quot;; font-variant-ligatures: none; text-align: center; text-anchor: middle; fill: rgb(255, 255, 255);" d="m 398.66525,122.52 h 10.872 V 64.488 l -10.872,3.6 z" transform="translate(0 245.08993000811165) translate(325.39977615566437 94.31680617485102) scale(1.621337398816075) translate(-398.66525 -64.488)"></path> 
   <path id="path47569" style="font-style: normal; font-weight: 700; font-size: 72px; line-height: 1; font-family: &quot;Brandmark1 Bold&quot;; font-variant-ligatures: none; text-align: center; text-anchor: middle; fill: rgb(255, 255, 255);" d="m 432.87538,123.024 c 4.824,0 9.35999,-1.872 12.74399,-5.256 3.384,-3.384 5.25601,-7.92 5.25601,-12.744 V 82.416 h -10.80001 v 22.608 c 0,3.96 -3.24,7.2 -7.19999,7.2 -3.96001,0 -7.20001,-3.24 -7.20001,-7.2 V 82.416 h -10.79999 v 22.608 c 0,4.824 1.87199,9.36 5.25599,12.744 3.384,3.384 7.92,5.256 12.74401,5.256 z" transform="translate(0 245.08993000811165) translate(351.6818661643348 123.38414306082564) scale(1.621337398816075) translate(-414.87538 -82.416)"></path> 
   <path id="path47571" style="font-style: normal; font-weight: 700; font-size: 72px; line-height: 1; font-family: &quot;Brandmark1 Bold&quot;; font-variant-ligatures: none; text-align: center; text-anchor: middle; fill: rgb(255, 255, 255);" d="m 473.37538,122.808 c 2.80799,0 5.54399,-0.576 8.13599,-1.728 2.52001,-1.08 4.752,-2.664 6.624,-4.608 l -7.632,-7.2 c -1.872,2.016 -4.392,3.096 -7.12799,3.096 -3.52801,0 -6.62401,-1.872 -8.35201,-4.608 h 28.584 v -5.256 c 0,-5.4 -2.08799,-10.512 -5.904,-14.328 -3.81599,-3.816 -8.928,-5.976 -14.32799,-5.976 -5.47201,0 -10.512,2.16 -14.40001,5.976 -3.816,3.816 -5.904,8.928 -5.904,14.328 0,5.4 2.088,10.512 5.904,14.328 3.88801,3.816 8.928,5.976 14.40001,5.976 z M 465.02337,97.32 c 1.728,-2.808 4.824,-4.68 8.35201,-4.68 3.45599,0 6.55199,1.872 8.35199,4.68 z" transform="translate(0 245.08993000811165) translate(413.61045323613956 123.03393418268138) scale(1.621337398816075) translate(-453.07137 -82.2)"></path> 
   <path id="path47573" style="font-style: normal; font-weight: 700; font-size: 72px; line-height: 1; font-family: &quot;Brandmark1 Bold&quot;; font-variant-ligatures: none; text-align: center; text-anchor: middle; fill: rgb(255, 255, 255);" d="m 507.06575,82.56 v -0.072 c 0,-6.264 5.112,-11.448 11.448,-11.448 v -10.8 c -3.024,0 -5.976,0.648 -8.712,1.8 -2.664,1.08 -5.04,2.664 -7.056,4.752 -2.016,2.016 -3.672,4.392 -4.752,7.056 -1.152,2.736 -1.728,5.688 -1.728,8.64 v 40.032 h 10.8 V 92.64 h 11.448 V 82.56 Z" transform="translate(0 245.08993000811165) translate(483.6431169488127 87.42936490468037) scale(1.621337398816075) translate(-496.26575 -60.24)"></path> 
   <path id="path47575" style="font-style: normal; font-weight: 700; font-size: 72px; line-height: 1; font-family: &quot;Brandmark1 Bold&quot;; font-variant-ligatures: none; text-align: center; text-anchor: middle; fill: rgb(255, 255, 255);" d="m 519.884,122.52 h 10.872 V 80.976 l -10.872,3.6 z" transform="translate(0 245.08993000811165) translate(521.9362689684003 121.04941720653048) scale(1.621337398816075) translate(-519.884 -80.976)"></path> 
   <path id="path47577" style="font-style: normal; font-weight: 700; font-size: 72px; line-height: 1; font-family: &quot;Brandmark1 Bold&quot;; font-variant-ligatures: none; text-align: center; text-anchor: middle; fill: rgb(255, 255, 255);" d="m 547.83012,122.52 v 0 -17.712 c 0,-6.912 5.61601,-12.6 12.6,-12.6 v -10.8 c -3.168,0 -6.264,0.648 -9.144,1.872 -2.736,1.152 -5.256,2.88 -7.41599,5.04 -2.16001,2.088 -3.81601,4.608 -5.04001,7.416 -1.22399,2.88 -1.8,5.904 -1.8,9.072 v 17.712 z" transform="translate(0 245.08993000811165) translate(549.7359145689887 121.74983496281902) scale(1.621337398816075) translate(-537.03012 -81.408)"></path> 
   <path id="path47579" style="font-style: normal; font-weight: 700; font-size: 72px; line-height: 1; font-family: &quot;Brandmark1 Bold&quot;; font-variant-ligatures: none; text-align: center; text-anchor: middle; fill: rgb(255, 255, 255);" d="m 578.42225,122.808 c 2.808,0 5.544,-0.576 8.136,-1.728 2.52,-1.08 4.752,-2.664 6.624,-4.608 l -7.632,-7.2 c -1.872,2.016 -4.392,3.096 -7.128,3.096 -3.528,0 -6.624,-1.872 -8.352,-4.608 h 28.584 v -5.256 c 0,-5.4 -2.088,-10.512 -5.904,-14.328 -3.816,-3.816 -8.928,-5.976 -14.328,-5.976 -5.472,0 -10.512,2.16 -14.4,5.976 -3.816,3.816 -5.904,8.928 -5.904,14.328 0,5.4 2.088,10.512 5.904,14.328 3.888,3.816 8.928,5.976 14.4,5.976 z m -8.352,-25.488 c 1.728,-2.808 4.824,-4.68 8.352,-4.68 3.456,0 6.552,1.872 8.352,4.68 z" transform="translate(0 245.08993000811165) translate(583.926888409084 123.03393418268138) scale(1.621337398816075) translate(-558.11825 -82.2)"></path> 
   <path id="path47581" style="font-style: normal; font-weight: 700; font-size: 72px; line-height: 1; font-family: &quot;Brandmark1 Bold&quot;; font-variant-ligatures: none; text-align: center; text-anchor: middle; fill: rgb(221, 221, 221);" d="m 619.51512,123.024 c 2.736,0 5.472,-0.576 7.992,-1.584 2.448,-1.08 4.68001,-2.52 6.552,-4.392 1.872,-1.944 3.312,-4.104 4.39201,-6.552 1.07999,-2.52 1.58399,-5.256 1.58399,-7.992 0,-2.808 -0.504,-5.472 -1.58399,-7.992 -1.08001,-2.448 -2.52001,-4.68 -4.39201,-6.552 -1.94399,-1.872 -4.104,-3.312 -6.552,-4.392 -2.52,-1.08 -5.256,-1.584 -7.992,-1.584 -2.73599,0 -5.47199,0.504 -7.99199,1.584 -2.44801,1.08 -4.60801,2.52 -6.552,4.392 -1.87201,1.944 -3.312,4.104 -4.39201,6.552 -1.00799,2.52 -1.58399,5.184 -1.58399,7.992 0,2.736 0.576,5.472 1.58399,7.992 1.08001,2.448 2.52,4.608 4.39201,6.552 1.94399,1.872 4.10399,3.312 6.552,4.392 2.52,1.008 5.256,1.584 7.99199,1.584 z m 0,-30.24 c 5.328,0 9.72001,4.392 9.72001,9.72 0,5.328 -4.39201,9.72 -9.72001,9.72 -5.32799,0 -9.72,-4.392 -9.72,-9.72 0,-5.328 4.39201,-9.72 9.72,-9.72 z" transform="translate(0 245.08993000811165) translate(650.2021027000008 122.68372530453709) scale(1.621337398816075) translate(-598.99513 -81.984)"></path> 
   <path id="path47583" style="font-style: normal; font-weight: 700; font-size: 72px; line-height: 1; font-family: &quot;Brandmark1 Bold&quot;; font-variant-ligatures: none; text-align: center; text-anchor: middle; fill: rgb(221, 221, 221);" d="m 642.365,121.512 11.16,2.232 20.592,-48.384 V 68.016 H 638.405 V 78.6 h 22.536 z" transform="translate(0 245.08993000811165) translate(714.0987988134804 100.03688451787417) scale(1.621337398816075) translate(-638.405 -68.016)"></path> 
  </g> 
  <g id="tagline" style="font-style:normal;font-weight:400;font-size:32px;line-height:1;font-family:Montserrat;font-variant-ligatures:none;text-align:center;text-anchor:middle"></g> 
 </g> 
</svg>