<svg xmlns:dc="http://purl.org/dc/elements/1.1/" xmlns:cc="http://creativecommons.org/ns#" xmlns:rdf="http://www.w3.org/1999/02/22-rdf-syntax-ns#" xmlns:svg="http://www.w3.org/2000/svg" xmlns="http://www.w3.org/2000/svg" id="svg387520" viewbox="0 0 1024 768" height="768px" width="1024px" version="1.1"> <metadata id="metadata387526"> 
  <rdf:rdf> 
   <cc:work rdf:about=""> 
    <dc:format>
     image/svg+xml
    </dc:format> 
    <dc:type rdf:resource="http://purl.org/dc/dcmitype/StillImage"></dc:type> 
   </cc:work> 
  </rdf:rdf> 
 </metadata> <defs id="defs387524"></defs> <g id="logo-group"> 
  <g id="title" style="font-style:oblique;font-weight:700;font-size:72px;line-height:1;font-family:'Uni Neue';font-variant-ligatures:none;text-align:center;text-anchor:middle" aria-label="BLUEJAYO7"> 
   <path id="path387528" style="font-style: oblique; font-weight: 700; font-size: 72px; line-height: 1; font-family: &quot;Uni Neue&quot;; font-variant-ligatures: none; text-align: center; text-anchor: middle; fill: rgb(75, 57, 45);" d="m 347.26512,120 c 12.16801,0 18.792,-5.544 20.448,-15.48 0.93601,-5.544 -0.936,-9.648 -4.96799,-11.736 3.52799,-1.8 5.832,-5.184 6.55199,-9.36 1.44,-8.424 -3.59999,-14.904 -13.68,-14.904 h -17.712 c -0.72,0 -1.152,0.432 -1.296,1.152 l -8.63999,48.96 c -0.144,0.792 0.28799,1.368 1.15199,1.368 z m -4.31999,-22.104 h 7.848 c 4.46399,0 5.97599,2.16 5.47199,5.544 -0.72,4.32 -3.744,6.408 -7.776,6.408 h -7.632 z m 3.52799,-19.512 h 6.624 c 4.032,0 5.328,1.872 4.75201,4.896 -0.57601,3.384 -2.88,5.328 -6.55201,5.328 h -6.62399 z" transform="translate(0 270.57034928863357) translate(251.99999999999994 77.65316684429058) scale(1.3899177881536864) translate(-327.94184 -68.52)"></path> 
   <path id="path387530" style="font-style: oblique; font-weight: 700; font-size: 72px; line-height: 1; font-family: &quot;Uni Neue&quot;; font-variant-ligatures: none; text-align: center; text-anchor: middle; fill: rgb(75, 57, 45);" d="m 392.8445,69.888 c 0.072,-0.792 -0.288,-1.368 -1.152,-1.368 h -8.928 c -0.72,0 -1.224,0.432 -1.296,1.152 l -8.64,48.96 c -0.144,0.792 0.288,1.368 1.08,1.368 h 28.656 c 0.792,0 1.224,-0.432 1.368,-1.152 l 1.368,-7.92 c 0.144,-0.792 -0.288,-1.368 -1.152,-1.368 h -18.288 z" transform="translate(0 270.57034928863357) translate(314.35062784069953 77.65316684429058) scale(1.3899177881536864) translate(-372.80106 -68.52)"></path> 
   <path id="path387532" style="font-style: oblique; font-weight: 700; font-size: 72px; line-height: 1; font-family: &quot;Uni Neue&quot;; font-variant-ligatures: none; text-align: center; text-anchor: middle; fill: rgb(75, 57, 45);" d="m 449.37462,102.216 5.61601,-32.328 c 0.072,-0.792 -0.36001,-1.368 -1.15201,-1.368 h -9.072 c -0.72,0 -1.152,0.432 -1.296,1.152 l -5.472,31.68 c -1.07999,5.976 -4.464,8.928 -9.288,8.928 -4.68,0 -7.2,-3.168 -6.12,-9.432 l 5.54401,-30.96 c 0.14399,-0.792 -0.288,-1.368 -1.15201,-1.368 h -9.072 c -0.72,0 -1.152,0.432 -1.296,1.152 l -5.32799,29.88 c -2.23201,13.32 4.03199,21.312 15.76799,21.312 12.88801,0 20.30401,-6.912 22.32,-18.648 z" transform="translate(0 270.57034928863357) translate(367.2212658105854 77.65316684429058) scale(1.3899177881536864) translate(-410.83974 -68.52)"></path> 
   <path id="path387534" style="font-style: oblique; font-weight: 700; font-size: 72px; line-height: 1; font-family: &quot;Uni Neue&quot;; font-variant-ligatures: none; text-align: center; text-anchor: middle; fill: rgb(75, 57, 45);" d="m 496.97113,69.888 c 0.14399,-0.792 -0.288,-1.368 -1.15201,-1.368 h -29.592 c -0.72,0 -1.15199,0.432 -1.296,1.152 l -8.71199,48.96 c -0.072,0.792 0.28799,1.368 1.15199,1.368 h 30.744 c 0.792,0 1.224,-0.36 1.368,-1.152 L 490.77913,111 c 0.072,-0.792 -0.36001,-1.368 -1.15201,-1.368 h -20.376 l 1.87201,-10.728 h 17.35199 c 0.72001,0 1.152,-0.432 1.296,-1.152 l 1.368,-7.56 c 0.144,-0.864 -0.28799,-1.368 -1.08,-1.368 h -17.13599 l 1.79999,-10.008 h 19.584 c 0.72,0 1.15201,-0.432 1.296,-1.152 z" transform="translate(0 270.57034928863357) translate(430.28243352376705 77.65316684429058) scale(1.3899177881536864) translate(-456.21017 -68.52)"></path> 
   <path id="path387536" style="font-style: oblique; font-weight: 700; font-size: 72px; line-height: 1; font-family: &quot;Uni Neue&quot;; font-variant-ligatures: none; text-align: center; text-anchor: middle; fill: rgb(75, 57, 45);" d="m 527.59025,103.728 5.832,-33.84 c 0.072,-0.792 -0.36,-1.368 -1.152,-1.368 h -8.928 c -0.792,0 -1.224,0.432 -1.368,1.152 l -5.904,33.624 c -0.864,4.68 -3.528,7.056 -7.56,7.056 -3.384,0 -5.976,-1.008 -8.208,-2.808 -0.72,-0.432 -1.296,-0.432 -1.8,0.216 l -4.896,6.336 c -0.504,0.648 -0.432,1.224 0.144,1.8 3.744,3.24 7.992,4.968 13.752,4.968 10.656,0 18.144,-6.048 20.088,-17.136 z" transform="translate(0 270.57034928863357) translate(481.791452431666 77.65316684429058) scale(1.3899177881536864) translate(-493.26921 -68.52)"></path> 
   <path id="path387538" style="font-style: oblique; font-weight: 700; font-size: 72px; line-height: 1; font-family: &quot;Uni Neue&quot;; font-variant-ligatures: none; text-align: center; text-anchor: middle; fill: rgb(75, 57, 45);" d="m 573.218,120 c 0.864,0 1.296,-0.504 1.152,-1.296 L 566.954,69.672 C 566.81,68.88 566.306,68.52 565.586,68.52 h -10.512 c -0.648,0 -1.152,0.288 -1.44,0.936 l -23.976,49.032 c -0.432,0.936 -0.072,1.512 0.864,1.512 h 9.864 c 0.648,0 1.224,-0.288 1.44,-0.936 l 3.888,-8.64 h 16.2 l 1.008,8.424 c 0.072,0.792 0.576,1.152 1.296,1.152 z m -14.4,-38.952 c 0.432,4.608 1.224,12.024 1.944,19.152 H 550.25 c 3.168,-6.912 6.264,-14.4 8.28,-19.152 z" transform="translate(0 270.57034928863357) translate(532.1167895528175 77.65316684429058) scale(1.3899177881536864) translate(-529.47663 -68.52)"></path> 
   <path id="path387540" style="font-style: oblique; font-weight: 700; font-size: 72px; line-height: 1; font-family: &quot;Uni Neue&quot;; font-variant-ligatures: none; text-align: center; text-anchor: middle; fill: rgb(75, 57, 45);" d="m 595.76975,120 c 0.72,0 1.152,-0.36 1.296,-1.152 l 3.24,-17.136 20.376,-31.68 c 0.504,-0.864 0.144,-1.512 -0.792,-1.512 h -9.936 c -0.648,0 -1.08,0.288 -1.44,0.864 l -12.24,21.456 h -0.144 l -5.256,-21.24 c -0.144,-0.72 -0.576,-1.08 -1.296,-1.08 h -9.36 c -0.864,0 -1.296,0.576 -1.008,1.368 l 9.576,31.608 -3.168,17.136 c -0.144,0.864 0.288,1.368 1.152,1.368 z" transform="translate(0 270.57034928863357) translate(601.1182435057219 77.65316684429058) scale(1.3899177881536864) translate(-579.1209 -68.52)"></path> 
   <path id="path387542" style="font-style: oblique; font-weight: 700; font-size: 72px; line-height: 1; font-family: &quot;Uni Neue&quot;; font-variant-ligatures: none; text-align: center; text-anchor: middle; fill: rgb(158, 188, 198);" d="m 657.93837,101.64 2.23201,-12.744 c 2.15999,-12.96 -4.32001,-21.312 -16.63201,-21.312 -12.6,0 -21.168,7.056 -23.256,18.864 l -2.23199,12.744 c -2.23201,12.816 4.03199,21.744 16.34399,21.744 12.96,0 21.456,-6.984 23.544,-19.296 z m -28.44,-1.152 2.376,-13.032 c 1.08001,-5.904 4.46401,-9.36 10.15201,-9.36 5.47199,0 7.63199,3.96 6.624,9.72 l -2.30401,13.176 c -1.00799,5.832 -4.60799,9.432 -10.29599,9.432 -5.328,0 -7.56001,-4.032 -6.55201,-9.936 z" transform="translate(0 270.57034928863357) translate(654.6078118666726 76.35220379457874) scale(1.3899177881536864) translate(-617.60488 -67.584)"></path> 
   <path id="path387544" style="font-style: oblique; font-weight: 700; font-size: 72px; line-height: 1; font-family: &quot;Uni Neue&quot;; font-variant-ligatures: none; text-align: center; text-anchor: middle; fill: rgb(158, 188, 198);" d="m 674.17325,120 c 0.72,0 1.152,-0.288 1.512,-0.864 l 24.84,-41.688 c 0.288,-0.504 0.432,-0.936 0.504,-1.44 l 1.008,-6.12 c 0.144,-0.792 -0.288,-1.368 -1.08,-1.368 h -31.896 c -0.792,0 -1.224,0.36 -1.296,1.152 l -1.368,7.776 c -0.144,0.792 0.288,1.368 1.152,1.368 h 19.872 l -23.688,39.672 c -0.504,0.864 -0.072,1.512 0.864,1.512 z" transform="translate(0 270.57034928863357) translate(718.4265820686434 77.65316684429058) scale(1.3899177881536864) translate(-663.52038 -68.52)"></path> 
  </g> 
  <g id="tagline" style="font-style:oblique;font-weight:400;font-size:32px;line-height:1;font-family:Lato;font-variant-ligatures:none;text-align:center;text-anchor:middle"></g> 
 </g> 
</svg>