<svg xmlns:dc="http://purl.org/dc/elements/1.1/" xmlns:cc="http://creativecommons.org/ns#" xmlns:rdf="http://www.w3.org/1999/02/22-rdf-syntax-ns#" xmlns:svg="http://www.w3.org/2000/svg" xmlns="http://www.w3.org/2000/svg" id="svg41013" viewbox="0 0 1024 768" height="768px" width="1024px" version="1.1"> <metadata id="metadata41019"> 
  <rdf:rdf> 
   <cc:work rdf:about=""> 
    <dc:format>
     image/svg+xml
    </dc:format> 
    <dc:type rdf:resource="http://purl.org/dc/dcmitype/StillImage"></dc:type> 
   </cc:work> 
  </rdf:rdf> 
 </metadata> <defs id="defs41017"></defs> <g id="logo-group"> 
  <g id="title" style="font-style:normal;font-weight:700;font-size:72px;line-height:1;font-family:'Brandmark1 Bold';font-variant-ligatures:none;text-align:center;text-anchor:middle" aria-label="bluewatero7"> 
   <path id="path41021" style="font-style: normal; font-weight: 700; font-size: 72px; line-height: 1; font-family: &quot;Brandmark1 Bold&quot;; font-variant-ligatures: none; text-align: center; text-anchor: middle; fill: rgb(0, 89, 187);" d="m 355.17444,102.504 c 0,-2.808 -0.576,-5.472 -1.656,-7.992 -1.008,-2.448 -2.52,-4.68 -4.392,-6.552 -1.872,-1.872 -4.032,-3.384 -6.48,-4.392 -2.592,-1.08 -5.256,-1.584 -7.992,-1.584 -2.808,0 -5.472,0.504 -7.992,1.584 -0.648,0.288 -1.224,0.504 -1.728,0.864 v -20.52 l -10.8,3.6 v 34.992 c 0,2.736 0.504,5.472 1.584,7.992 1.008,2.448 2.52,4.608 4.392,6.48 1.872,1.944 4.104,3.384 6.552,4.392 2.52,1.08 5.184,1.656 7.992,1.656 2.736,0 5.4,-0.576 7.992,-1.656 2.376,-1.008 4.608,-2.52 6.48,-4.392 1.872,-1.872 3.384,-4.032 4.392,-6.48 1.08,-2.592 1.656,-5.256 1.656,-7.992 z m -10.8,0 c 0,5.328 -4.392,9.72 -9.72,9.72 -5.4,0 -9.72,-4.392 -9.72,-9.72 0,-5.4 4.32,-9.72 9.72,-9.72 5.328,0 9.72,4.32 9.72,9.72 z" transform="translate(0 291.42011857589756) translate(252.00000000000006 58.626145602349375) scale(1.1349691075596033) translate(-314.13444 -63.912)"></path> 
   <path id="path41023" style="font-style: normal; font-weight: 700; font-size: 72px; line-height: 1; font-family: &quot;Brandmark1 Bold&quot;; font-variant-ligatures: none; text-align: center; text-anchor: middle; fill: rgb(0, 89, 187);" d="m 358.93869,122.52 h 10.872 V 64.488 l -10.872,3.6 z" transform="translate(0 291.42011857589756) translate(309.66125428273506 59.279887808303705) scale(1.1349691075596033) translate(-358.93869 -64.488)"></path> 
   <path id="path41025" style="font-style: normal; font-weight: 700; font-size: 72px; line-height: 1; font-family: &quot;Brandmark1 Bold&quot;; font-variant-ligatures: none; text-align: center; text-anchor: middle; fill: rgb(0, 89, 187);" d="m 393.14881,123.024 c 4.824,0 9.36,-1.872 12.744,-5.256 3.384,-3.384 5.256,-7.92 5.256,-12.744 V 82.416 h -10.8 v 22.608 c 0,3.96 -3.24,7.2 -7.2,7.2 -3.96,0 -7.2,-3.24 -7.2,-7.2 V 82.416 h -10.8 v 22.608 c 0,4.824 1.872,9.36 5.256,12.744 3.384,3.384 7.92,5.256 12.744,5.256 z" transform="translate(0 291.42011857589756) translate(334.86905435792676 79.62761396863226) scale(1.1349691075596033) translate(-375.14881 -82.416)"></path> 
   <path id="path41027" style="font-style: normal; font-weight: 700; font-size: 72px; line-height: 1; font-family: &quot;Brandmark1 Bold&quot;; font-variant-ligatures: none; text-align: center; text-anchor: middle; fill: rgb(0, 89, 187);" d="m 433.64881,122.808 c 2.808,0 5.544,-0.576 8.136,-1.728 2.52,-1.08 4.752,-2.664 6.624,-4.608 l -7.632,-7.2 c -1.872,2.016 -4.392,3.096 -7.128,3.096 -3.528,0 -6.624,-1.872 -8.352,-4.608 h 28.584 v -5.256 c 0,-5.4 -2.088,-10.512 -5.904,-14.328 -3.816,-3.816 -8.928,-5.976 -14.328,-5.976 -5.472,0 -10.512,2.16 -14.4,5.976 -3.816,3.816 -5.904,8.928 -5.904,14.328 0,5.4 2.088,10.512 5.904,14.328 3.888,3.816 8.928,5.976 14.4,5.976 z m -8.352,-25.488 c 1.728,-2.808 4.824,-4.68 8.352,-4.68 3.456,0 6.552,1.872 8.352,4.68 z" transform="translate(0 291.42011857589756) translate(385.0301490356309 79.38246064139938) scale(1.1349691075596033) translate(-413.34481 -82.2)"></path> 
   <path id="path41029" style="font-style: normal; font-weight: 700; font-size: 72px; line-height: 1; font-family: &quot;Brandmark1 Bold&quot;; font-variant-ligatures: none; text-align: center; text-anchor: middle; fill: rgb(0, 89, 187);" d="m 485.43819,122.52 h 9.144 l 13.824,-40.104 h -11.376 l -6.912,20.88 -6.552,-20.88 h -8.712 l -6.408,20.88 -6.984,-20.88 h -11.376 l 13.896,40.104 h 8.928 l 6.264,-19.872 z" transform="translate(0 291.42011857589756) translate(433.5402949500968 79.62761396863226) scale(1.1349691075596033) translate(-450.08619 -82.416)"></path> 
   <path id="path41031" style="font-style: normal; font-weight: 700; font-size: 72px; line-height: 1; font-family: &quot;Brandmark1 Bold&quot;; font-variant-ligatures: none; text-align: center; text-anchor: middle; fill: rgb(0, 89, 187);" d="m 534.78856,81.984 0.072,2.304 c -2.88,-1.44 -6.048,-2.232 -9.288,-2.232 -2.736,0 -5.472,0.504 -7.992,1.584 -2.448,1.08 -4.608,2.52 -6.552,4.392 -1.872,1.872 -3.312,4.104 -4.392,6.552 -1.008,2.52 -1.584,5.256 -1.584,7.992 0,2.736 0.576,5.472 1.584,7.992 1.08,2.448 2.52,4.608 4.392,6.552 1.944,1.872 4.104,3.312 6.552,4.392 2.52,1.008 5.256,1.584 7.992,1.584 3.24,0 6.408,-0.792 9.288,-2.232 l -0.072,1.656 h 10.8 V 81.984 Z m -4.32,28.944 c -1.44,0.864 -3.168,1.368 -4.896,1.368 -5.328,0 -9.72,-4.392 -9.72,-9.72 0,-5.328 4.392,-9.72 9.72,-9.72 1.872,0 3.744,0.504 5.256,1.584 1.584,0.936 2.808,2.376 3.528,4.032 0.648,1.296 0.936,2.664 0.936,4.104 0,1.728 -0.432,3.384 -1.296,4.896 -0.864,1.44 -2.016,2.664 -3.528,3.456 z" transform="translate(0 291.42011857589756) translate(502.73524150014543 79.13730731416652) scale(1.1349691075596033) translate(-505.05256 -81.984)"></path> 
   <path id="path41033" style="font-style: normal; font-weight: 700; font-size: 72px; line-height: 1; font-family: &quot;Brandmark1 Bold&quot;; font-variant-ligatures: none; text-align: center; text-anchor: middle; fill: rgb(0, 89, 187);" d="m 573.92169,92.496 v -10.08 h -11.448 V 69.528 l -10.8,3.6 v 27.936 c 0,3.024 0.576,5.904 1.728,8.64 1.08,2.664 2.736,5.04 4.752,7.056 2.016,2.088 4.392,3.672 7.056,4.824 2.736,1.152 5.688,1.728 8.712,1.728 v -10.8 c -6.336,0 -11.448,-5.112 -11.448,-11.448 v -8.568 z" transform="translate(0 291.42011857589756) translate(562.4585984550232 65.00013211040411) scale(1.1349691075596033) translate(-551.67369 -69.528)"></path> 
   <path id="path41035" style="font-style: normal; font-weight: 700; font-size: 72px; line-height: 1; font-family: &quot;Brandmark1 Bold&quot;; font-variant-ligatures: none; text-align: center; text-anchor: middle; fill: rgb(0, 89, 187);" d="m 592.27381,122.808 c 2.808,0 5.544,-0.576 8.136,-1.728 2.52,-1.08 4.752,-2.664 6.624,-4.608 l -7.632,-7.2 c -1.872,2.016 -4.392,3.096 -7.128,3.096 -3.528,0 -6.624,-1.872 -8.352,-4.608 h 28.584 v -5.256 c 0,-5.4 -2.088,-10.512 -5.904,-14.328 -3.816,-3.816 -8.928,-5.976 -14.328,-5.976 -5.472,0 -10.512,2.16 -14.4,5.976 -3.816,3.816 -5.904,8.928 -5.904,14.328 0,5.4 2.088,10.512 5.904,14.328 3.888,3.816 8.928,5.976 14.4,5.976 z m -8.352,-25.488 c 1.728,-2.808 4.824,-4.68 8.352,-4.68 3.456,0 6.552,1.872 8.352,4.68 z" transform="translate(0 291.42011857589756) translate(592.3038823037035 79.38246064139938) scale(1.1349691075596033) translate(-571.96981 -82.2)"></path> 
   <path id="path41037" style="font-style: normal; font-weight: 700; font-size: 72px; line-height: 1; font-family: &quot;Brandmark1 Bold&quot;; font-variant-ligatures: none; text-align: center; text-anchor: middle; fill: rgb(0, 89, 187);" d="m 625.80669,122.52 v 0 -17.712 c 0,-6.912 5.616,-12.6 12.6,-12.6 v -10.8 c -3.168,0 -6.264,0.648 -9.144,1.872 -2.736,1.152 -5.256,2.88 -7.416,5.04 -2.16,2.088 -3.816,4.608 -5.04,7.416 -1.224,2.88 -1.8,5.904 -1.8,9.072 v 17.712 z" transform="translate(0 291.42011857589756) translate(647.9592262348108 78.48356510821219) scale(1.1349691075596033) translate(-615.00669 -81.408)"></path> 
   <path id="path41039" style="font-style: normal; font-weight: 700; font-size: 72px; line-height: 1; font-family: &quot;Brandmark1 Bold&quot;; font-variant-ligatures: none; text-align: center; text-anchor: middle; fill: rgb(0, 128, 226);" d="m 657.69481,123.024 c 2.736,0 5.472,-0.576 7.992,-1.584 2.448,-1.08 4.68,-2.52 6.552,-4.392 1.872,-1.944 3.312,-4.104 4.392,-6.552 1.08,-2.52 1.584,-5.256 1.584,-7.992 0,-2.808 -0.504,-5.472 -1.584,-7.992 -1.08,-2.448 -2.52,-4.68 -4.392,-6.552 -1.944,-1.872 -4.104,-3.312 -6.552,-4.392 -2.52,-1.08 -5.256,-1.584 -7.992,-1.584 -2.736,0 -5.472,0.504 -7.992,1.584 -2.448,1.08 -4.608,2.52 -6.552,4.392 -1.872,1.944 -3.312,4.104 -4.392,6.552 -1.008,2.52 -1.584,5.184 -1.584,7.992 0,2.736 0.576,5.472 1.584,7.992 1.08,2.448 2.52,4.608 4.392,6.552 1.944,1.872 4.104,3.312 6.552,4.392 2.52,1.008 5.256,1.584 7.992,1.584 z m 0,-30.24 c 5.328,0 9.72,4.392 9.72,9.72 0,5.328 -4.392,9.72 -9.72,9.72 -5.328,0 -9.72,-4.392 -9.72,-9.72 0,-5.328 4.392,-9.72 9.72,-9.72 z" transform="translate(0 291.42011857589756) translate(679.9291722528426 79.13730731416652) scale(1.1349691075596033) translate(-637.17481 -81.984)"></path> 
   <path id="path41041" style="font-style: normal; font-weight: 700; font-size: 72px; line-height: 1; font-family: &quot;Brandmark1 Bold&quot;; font-variant-ligatures: none; text-align: center; text-anchor: middle; fill: rgb(0, 128, 226);" d="m 680.54469,121.512 11.16,2.232 20.592,-48.384 v -7.344 h -35.712 V 78.6 h 22.536 z" transform="translate(0 291.42011857589756) translate(731.4679832308314 63.28405881977398) scale(1.1349691075596033) translate(-676.58469 -68.016)"></path> 
  </g> 
  <g id="tagline" style="font-style:normal;font-weight:400;font-size:32px;line-height:1;font-family:Montserrat;font-variant-ligatures:none;text-align:center;text-anchor:middle"></g> 
 </g> 
</svg>