<svg xmlns:dc="http://purl.org/dc/elements/1.1/" xmlns:cc="http://creativecommons.org/ns#" xmlns:rdf="http://www.w3.org/1999/02/22-rdf-syntax-ns#" xmlns:svg="http://www.w3.org/2000/svg" xmlns="http://www.w3.org/2000/svg" id="svg8999" viewbox="0 0 1024 768" height="768px" width="1024px" version="1.1"> <metadata id="metadata9005"> 
  <rdf:rdf> 
   <cc:work rdf:about=""> 
    <dc:format>
     image/svg+xml
    </dc:format> 
    <dc:type rdf:resource="http://purl.org/dc/dcmitype/StillImage"></dc:type> 
   </cc:work> 
  </rdf:rdf> 
 </metadata> <defs id="defs9003"></defs> <g id="logo-group"> 
  <g id="title" style="font-style:normal;font-weight:300;font-size:72px;line-height:1;font-family:'Uni Neue';font-variant-ligatures:none;text-align:center;text-anchor:middle" aria-label="BLUESTARO7"> 
   <path id="path9007" style="font-style: normal; font-weight: 300; font-size: 72px; line-height: 1; font-family: &quot;Uni Neue&quot;; font-variant-ligatures: none; text-align: center; text-anchor: middle; fill: rgb(240, 240, 240);" d="m 344.85594,80.976 c 0,-6.696 -4.032,-12.456 -15.696,-12.456 h -15.336 c -0.288,0 -0.504,0.144 -0.504,0.432 v 50.616 c 0,0.288 0.216,0.432 0.504,0.432 h 15.336 c 11.52,0 17.784,-5.256 17.784,-14.256 0,-7.2 -3.744,-12.024 -10.656,-13.392 5.256,-1.512 8.568,-5.544 8.568,-11.376 z m -29.088,36.792 V 93.504 h 14.688 c 9.792,0 14.112,4.896 14.112,12.24 0,7.56 -5.112,12.024 -15.408,12.024 z m 26.64,-36.792 c 0,6.552 -4.464,10.296 -11.952,10.296 h -14.688 v -20.52 h 13.392 c 10.296,0 13.248,4.896 13.248,10.224 z" transform="translate(0 292.35005701690187) translate(252.00000000000006 61.761957279884214) scale(1.1611494057192677) translate(-313.31994 -68.52)"></path> 
   <path id="path9009" style="font-style: normal; font-weight: 300; font-size: 72px; line-height: 1; font-family: &quot;Uni Neue&quot;; font-variant-ligatures: none; text-align: center; text-anchor: middle; fill: rgb(240, 240, 240);" d="m 385.11406,120 c 0.288,0 0.432,-0.144 0.432,-0.432 V 118.2 c 0,-0.288 -0.144,-0.432 -0.432,-0.432 h -24.768 V 68.952 c 0,-0.288 -0.144,-0.432 -0.432,-0.432 h -1.512 c -0.288,0 -0.504,0.144 -0.504,0.432 v 50.616 c 0,0.288 0.216,0.432 0.504,0.432 z" transform="translate(0 292.35005701690187) translate(309.5676045746786 61.761957279884214) scale(1.1611494057192677) translate(-357.89806 -68.52)"></path> 
   <path id="path9011" style="font-style: normal; font-weight: 300; font-size: 72px; line-height: 1; font-family: &quot;Uni Neue&quot;; font-variant-ligatures: none; text-align: center; text-anchor: middle; fill: rgb(240, 240, 240);" d="M 425.44306,102.648 V 68.952 c 0,-0.288 -0.216,-0.432 -0.504,-0.432 h -1.512 c -0.288,0 -0.432,0.144 -0.432,0.432 v 33.624 c 0,9.504 -5.4,15.768 -15.264,15.768 -9.864,0 -15.192,-6.264 -15.192,-15.768 V 68.952 c 0,-0.288 -0.144,-0.432 -0.432,-0.432 h -1.512 c -0.288,0 -0.504,0.144 -0.504,0.432 v 33.696 c 0,10.656 6.48,17.928 17.64,17.928 11.232,0 17.712,-7.272 17.712,-17.928 z" transform="translate(0 292.35005701690187) translate(352.75423442159536 61.761957279884214) scale(1.1611494057192677) translate(-390.09106 -68.52)"></path> 
   <path id="path9013" style="font-style: normal; font-weight: 300; font-size: 72px; line-height: 1; font-family: &quot;Uni Neue&quot;; font-variant-ligatures: none; text-align: center; text-anchor: middle; fill: rgb(240, 240, 240);" d="m 441.48669,94.872 h 24.624 c 0.288,0 0.504,-0.144 0.504,-0.432 v -1.368 c 0,-0.288 -0.216,-0.432 -0.504,-0.432 h -24.624 V 70.752 h 26.136 c 0.288,0 0.432,-0.144 0.432,-0.432 v -1.368 c 0,-0.288 -0.144,-0.432 -0.432,-0.432 h -28.08 c -0.288,0 -0.504,0.144 -0.504,0.432 v 50.616 c 0,0.288 0.216,0.432 0.504,0.432 h 29.16 c 0.288,0 0.432,-0.144 0.432,-0.432 V 118.2 c 0,-0.288 -0.144,-0.432 -0.432,-0.432 h -27.216 z" transform="translate(0 292.35005701690187) translate(415.39549293605825 61.761957279884214) scale(1.1611494057192677) translate(-439.03869 -68.52)"></path> 
   <path id="path9015" style="font-style: normal; font-weight: 300; font-size: 72px; line-height: 1; font-family: &quot;Uni Neue&quot;; font-variant-ligatures: none; text-align: center; text-anchor: middle; fill: rgb(240, 240, 240);" d="m 511.86669,107.112 c 0,-7.704 -4.896,-11.52 -17.64,-14.544 -10.008,-2.376 -15.12,-5.616 -15.12,-12.168 0,-7.128 6.624,-10.368 14.184,-10.368 6.048,0.072 11.304,1.8 15.768,5.4 0.216,0.144 0.432,0.144 0.648,-0.144 l 0.72,-1.152 c 0.144,-0.144 0.216,-0.432 -0.072,-0.576 -4.824,-3.816 -10.008,-5.76 -16.776,-5.76 -9.144,0 -16.92,3.888 -16.92,12.456 0,7.848 6.048,12.096 17.064,14.616 11.592,2.664 15.696,5.688 15.696,12.24 0,7.56 -6.264,11.304 -15.192,11.304 -6.336,0 -11.088,-2.016 -16.272,-6.336 -0.216,-0.144 -0.432,-0.072 -0.648,0.144 l -0.864,1.08 c -0.144,0.216 -0.144,0.432 0.072,0.648 5.544,4.68 10.512,6.768 17.712,6.768 10.512,0 17.64,-4.824 17.64,-13.608 z" transform="translate(0 292.35005701690187) translate(464.5163393818201 60.92592970776634) scale(1.1611494057192677) translate(-476.34233 -67.8)"></path> 
   <path id="path9017" style="font-style: normal; font-weight: 300; font-size: 72px; line-height: 1; font-family: &quot;Uni Neue&quot;; font-variant-ligatures: none; text-align: center; text-anchor: middle; fill: rgb(240, 240, 240);" d="m 516.03819,68.52 c -0.288,0 -0.432,0.144 -0.432,0.432 v 1.368 c 0,0.288 0.144,0.432 0.432,0.432 h 16.56 v 48.816 c 0,0.288 0.216,0.432 0.504,0.432 h 1.512 c 0.216,0 0.432,-0.144 0.432,-0.432 V 70.752 h 16.776 c 0.288,0 0.504,-0.144 0.504,-0.432 v -1.368 c 0,-0.288 -0.216,-0.432 -0.504,-0.432 z" transform="translate(0 292.35005701690187) translate(515.913294115661 61.761957279884214) scale(1.1611494057192677) translate(-515.60619 -68.52)"></path> 
   <path id="path9019" style="font-style: normal; font-weight: 300; font-size: 72px; line-height: 1; font-family: &quot;Uni Neue&quot;; font-variant-ligatures: none; text-align: center; text-anchor: middle; fill: rgb(240, 240, 240);" d="m 551.15956,120 c 0.216,0 0.36,-0.144 0.432,-0.36 l 5.904,-15.768 h 24.12 l 5.832,15.768 c 0.144,0.216 0.288,0.36 0.504,0.36 h 1.656 c 0.288,0 0.432,-0.216 0.36,-0.504 l -18.936,-50.616 c -0.072,-0.216 -0.288,-0.36 -0.504,-0.36 h -2.016 c -0.144,0 -0.36,0.144 -0.432,0.36 l -18.936,50.616 c -0.072,0.288 0.072,0.504 0.36,0.504 z m 18.288,-48.528 h 0.216 l 11.16,30.168 h -22.536 z" transform="translate(0 292.35005701690187) translate(560.6396312975496 61.761957279884214) scale(1.1611494057192677) translate(-549.12521 -68.52)"></path> 
   <path id="path9021" style="font-style: normal; font-weight: 300; font-size: 72px; line-height: 1; font-family: &quot;Uni Neue&quot;; font-variant-ligatures: none; text-align: center; text-anchor: middle; fill: rgb(240, 240, 240);" d="m 631.71631,120 c 0.36,0 0.432,-0.288 0.288,-0.576 l -16.632,-21.384 c 9.936,-0.504 15.84,-5.904 15.84,-14.688 0,-9.36 -6.552,-14.832 -17.136,-14.832 h -15.768 c -0.288,0 -0.504,0.144 -0.504,0.432 v 50.616 c 0,0.288 0.216,0.432 0.504,0.432 h 1.512 c 0.216,0 0.432,-0.144 0.432,-0.432 V 98.112 h 12.312 l 16.632,21.6 c 0.072,0.216 0.36,0.288 0.576,0.288 z m -17.64,-49.248 c 9.288,0 14.76,4.536 14.76,12.6 0,8.136 -5.472,12.528 -14.76,12.528 h -13.824 V 70.752 Z" transform="translate(0 292.35005701690187) translate(622.9690863620948 61.761957279884214) scale(1.1611494057192677) translate(-597.80431 -68.52)"></path> 
   <path id="path9023" style="font-style: normal; font-weight: 300; font-size: 72px; line-height: 1; font-family: &quot;Uni Neue&quot;; font-variant-ligatures: none; text-align: center; text-anchor: middle; fill: rgb(218, 218, 218);" d="M 677.95381,103.872 V 85.224 c 0,-10.368 -7.416,-17.424 -18.72,-17.424 -11.376,0 -18.792,7.056 -18.792,17.424 v 18.648 c 0,9.72 7.488,16.848 18.792,16.848 11.232,0 18.72,-7.128 18.72,-16.848 z m -35.136,0 V 85.224 c 0,-9.072 6.336,-15.192 16.416,-15.192 10.008,0 16.344,6.12 16.344,15.192 v 18.648 c 0,8.424 -6.408,14.544 -16.344,14.544 -10.008,0 -16.416,-6.12 -16.416,-14.544 z" transform="translate(0 292.35005701690187) translate(678.2833411770465 60.92592970776634) scale(1.1611494057192677) translate(-640.44181 -67.8)"></path> 
   <path id="path9025" style="font-style: normal; font-weight: 300; font-size: 72px; line-height: 1; font-family: &quot;Uni Neue&quot;; font-variant-ligatures: none; text-align: center; text-anchor: middle; fill: rgb(218, 218, 218);" d="m 691.60006,120 c 0.216,0 0.504,-0.144 0.576,-0.36 l 23.832,-49.392 c 0.144,-0.144 0.144,-0.36 0.144,-0.504 v -0.792 c 0,-0.288 -0.216,-0.432 -0.504,-0.432 h -31.68 c -0.288,0 -0.504,0.144 -0.504,0.432 v 1.368 c 0,0.216 0.216,0.432 0.504,0.432 h 29.304 l -23.616,48.672 c -0.144,0.36 0.072,0.576 0.36,0.576 z" transform="translate(0 292.35005701690187) translate(734.0443482258487 61.761957279884214) scale(1.1611494057192677) translate(-683.46406 -68.52)"></path> 
  </g> 
  <g id="tagline" style="font-style:oblique;font-weight:400;font-size:32px;line-height:1;font-family:Lato;font-variant-ligatures:none;text-align:center;text-anchor:middle"></g> 
 </g> 
</svg>