<svg xmlns:dc="http://purl.org/dc/elements/1.1/" xmlns:cc="http://creativecommons.org/ns#" xmlns:rdf="http://www.w3.org/1999/02/22-rdf-syntax-ns#" xmlns:svg="http://www.w3.org/2000/svg" xmlns="http://www.w3.org/2000/svg" id="svg4077" viewbox="0 0 1024 768" height="768px" width="1024px" version="1.1"> <metadata id="metadata4083"> 
  <rdf:rdf> 
   <cc:work rdf:about=""> 
    <dc:format>
     image/svg+xml
    </dc:format> 
    <dc:type rdf:resource="http://purl.org/dc/dcmitype/StillImage"></dc:type> 
   </cc:work> 
  </rdf:rdf> 
 </metadata> <defs id="defs4081"></defs> <g id="logo-group"> 
  <g id="title" style="font-style:normal;font-weight:700;font-size:72px;line-height:1;font-family:'Brandmark1 Bold';font-variant-ligatures:none;text-align:center;text-anchor:middle" aria-label="brightsideo7"> 
   <path id="path4085" style="font-style: normal; font-weight: 700; font-size: 72px; line-height: 1; font-family: &quot;Brandmark1 Bold&quot;; font-variant-ligatures: none; text-align: center; text-anchor: middle; fill: rgb(236, 88, 102);" d="m 352.08069,102.504 c 0,-2.808 -0.576,-5.472 -1.656,-7.992 -1.008,-2.448 -2.52,-4.68 -4.392,-6.552 -1.872,-1.872 -4.032,-3.384 -6.48,-4.392 -2.592,-1.08 -5.256,-1.584 -7.992,-1.584 -2.808,0 -5.472,0.504 -7.992,1.584 -0.648,0.288 -1.224,0.504 -1.728,0.864 v -20.52 l -10.8,3.6 v 34.992 c 0,2.736 0.504,5.472 1.584,7.992 1.008,2.448 2.52,4.608 4.392,6.48 1.872,1.944 4.104,3.384 6.552,4.392 2.52,1.08 5.184,1.656 7.992,1.656 2.736,0 5.4,-0.576 7.992,-1.656 2.376,-1.008 4.608,-2.52 6.48,-4.392 1.872,-1.872 3.384,-4.032 4.392,-6.48 1.08,-2.592 1.656,-5.256 1.656,-7.992 z m -10.8,0 c 0,5.328 -4.392,9.72 -9.72,9.72 -5.4,0 -9.72,-4.392 -9.72,-9.72 0,-5.4 4.32,-9.72 9.72,-9.72 5.328,0 9.72,4.32 9.72,9.72 z" transform="translate(0 268.17362375517735) translate(251.99999999999994 68.27981537765262) scale(1.2860153864321664) translate(-311.04069 -63.912)"></path> 
   <path id="path4087" style="font-style: normal; font-weight: 700; font-size: 72px; line-height: 1; font-family: &quot;Brandmark1 Bold&quot;; font-variant-ligatures: none; text-align: center; text-anchor: middle; fill: rgb(236, 88, 102);" d="m 366.21294,122.52 v 0 -17.712 c 0,-6.912 5.616,-12.6 12.6,-12.6 v -10.8 c -3.168,0 -6.264,0.648 -9.144,1.872 -2.736,1.152 -5.256,2.88 -7.416,5.04 -2.16,2.088 -3.816,4.608 -5.04,7.416 -1.224,2.88 -1.8,5.904 -1.8,9.072 v 17.712 z" transform="translate(0 268.17362375517735) translate(309.0633962306146 90.7799405786698) scale(1.2860153864321664) translate(-355.41294 -81.408)"></path> 
   <path id="path4089" style="font-style: normal; font-weight: 700; font-size: 72px; line-height: 1; font-family: &quot;Brandmark1 Bold&quot;; font-variant-ligatures: none; text-align: center; text-anchor: middle; fill: rgb(236, 88, 102);" d="m 381.29806,122.52 h 10.872 V 80.976 l -10.872,3.6 z" transform="translate(0 268.17362375517735) translate(342.35205883025765 90.2243819317311) scale(1.2860153864321664) translate(-381.29806 -80.976)"></path> 
   <path id="path4091" style="font-style: normal; font-weight: 700; font-size: 72px; line-height: 1; font-family: &quot;Brandmark1 Bold&quot;; font-variant-ligatures: none; text-align: center; text-anchor: middle; fill: rgb(236, 88, 102);" d="m 430.41219,87.888 c -3.816,-3.816 -8.928,-5.904 -14.256,-5.904 -5.4,0 -10.512,2.088 -14.328,5.904 -3.816,3.816 -5.904,8.856 -5.904,14.256 0,5.4 2.088,10.44 5.904,14.256 3.816,3.816 8.928,5.904 14.328,5.904 3.168,0 6.264,-0.72 9,-2.088 -1.08,3.96 -4.752,6.84 -9,6.84 -2.448,0 -4.752,-0.936 -6.48,-2.592 l -7.488,7.848 c 3.816,3.6 8.712,5.544 13.896,5.544 5.4,0 10.512,-2.088 14.328,-5.904 3.816,-3.816 5.904,-8.856 5.904,-14.256 v -15.552 c 0,-5.4 -2.088,-10.44 -5.904,-14.256 z m -14.256,23.616 c -5.184,0 -9.432,-4.176 -9.432,-9.36 0,-5.184 4.248,-9.432 9.432,-9.432 5.184,0 9.36,4.248 9.36,9.432 0,5.184 -4.248,9.36 -9.36,9.36 z" transform="translate(0 268.17362375517735) translate(361.1614870542147 91.5206854412547) scale(1.2860153864321664) translate(-395.92419 -81.984)"></path> 
   <path id="path4093" style="font-style: normal; font-weight: 700; font-size: 72px; line-height: 1; font-family: &quot;Brandmark1 Bold&quot;; font-variant-ligatures: none; text-align: center; text-anchor: middle; fill: rgb(236, 88, 102);" d="m 472.72006,88.032 c -3.456,-3.456 -7.992,-5.328 -12.888,-5.328 -2.592,0 -5.112,0.504 -7.416,1.584 v -19.8 l -10.8,3.6 v 31.248 c -0.072,0.576 -0.072,1.08 -0.072,1.656 h 0.072 v 21.528 h 10.8 V 99.912 c 0.504,-3.6 3.6,-6.408 7.416,-6.408 4.104,0 7.488,3.312 7.488,7.488 v 21.528 h 10.8 v -21.528 c 0,-4.896 -1.944,-9.504 -5.4,-12.96 z" transform="translate(0 268.17362375517735) translate(419.8293418012499 69.02056024023753) scale(1.2860153864321664) translate(-441.54406 -64.488)"></path> 
   <path id="path4095" style="font-style: normal; font-weight: 700; font-size: 72px; line-height: 1; font-family: &quot;Brandmark1 Bold&quot;; font-variant-ligatures: none; text-align: center; text-anchor: middle; fill: rgb(236, 88, 102);" d="m 506.42169,92.496 v -10.08 h -11.448 V 69.528 l -10.8,3.6 v 27.936 c 0,3.024 0.576,5.904 1.728,8.64 1.08,2.664 2.736,5.04 4.752,7.056 2.016,2.088 4.392,3.672 7.056,4.824 2.736,1.152 5.688,1.728 8.712,1.728 v -10.8 c -6.336,0 -11.448,-5.112 -11.448,-11.448 v -8.568 z" transform="translate(0 268.17362375517735) translate(474.6517018991602 75.50207778785565) scale(1.2860153864321664) translate(-484.17369 -69.528)"></path> 
   <path id="path4097" style="font-style: normal; font-weight: 700; font-size: 72px; line-height: 1; font-family: &quot;Brandmark1 Bold&quot;; font-variant-ligatures: none; text-align: center; text-anchor: middle; fill: rgb(236, 88, 102);" d="m 524.37331,122.952 c 7.272,0 13.176,-5.904 13.176,-13.176 0,-7.272 -5.904,-13.176 -13.176,-13.176 h -3.024 c -1.08,0 -1.872,-0.864 -1.872,-1.872 0,-1.08 0.792,-1.944 1.872,-1.944 h 15.048 V 81.48 h -15.048 c -7.272,0 -13.176,5.976 -13.176,13.248 0,7.272 5.904,13.176 13.176,13.176 h 3.024 c 1.008,0 1.872,0.864 1.872,1.872 0,1.08 -0.864,1.872 -1.872,1.872 h -16.848 v 11.304 z" transform="translate(0 268.17362375517735) translate(504.68224451727724 90.87253368649291) scale(1.2860153864321664) translate(-507.52531 -81.48)"></path> 
   <path id="path4099" style="font-style: normal; font-weight: 700; font-size: 72px; line-height: 1; font-family: &quot;Brandmark1 Bold&quot;; font-variant-ligatures: none; text-align: center; text-anchor: middle; fill: rgb(236, 88, 102);" d="m 541.32931,122.52 h 10.872 V 80.976 l -10.872,3.6 z" transform="translate(0 268.17362375517735) translate(548.1547086402302 90.2243819317311) scale(1.2860153864321664) translate(-541.32931 -80.976)"></path> 
   <path id="path4101" style="font-style: normal; font-weight: 700; font-size: 72px; line-height: 1; font-family: &quot;Brandmark1 Bold&quot;; font-variant-ligatures: none; text-align: center; text-anchor: middle; fill: rgb(236, 88, 102);" d="m 557.75544,110.496 c 1.08,2.448 2.52,4.68 4.392,6.552 1.944,1.872 4.104,3.384 6.552,4.392 2.52,1.08 5.256,1.584 7.992,1.584 2.736,0 5.472,-0.504 7.992,-1.584 2.448,-1.008 4.608,-2.52 6.552,-4.392 1.872,-1.872 3.312,-4.104 4.392,-6.552 1.08,-2.52 1.584,-5.184 1.584,-7.992 v -34.92 l -10.8,-3.6 v 20.448 c -0.576,-0.288 -1.152,-0.576 -1.728,-0.792 -2.52,-1.08 -5.184,-1.584 -7.992,-1.584 -2.736,0 -5.472,0.504 -7.992,1.584 -2.448,1.008 -4.608,2.52 -6.552,4.392 -1.872,1.872 -3.312,4.104 -4.392,6.552 -1.008,2.52 -1.584,5.184 -1.584,7.92 0,2.808 0.576,5.472 1.584,7.992 z m 18.936,-17.712 c 5.328,0 9.72,4.392 9.72,9.72 0,5.4 -4.392,9.72 -9.72,9.72 -5.328,0 -9.72,-4.32 -9.72,-9.72 0,-5.328 4.392,-9.72 9.72,-9.72 z" transform="translate(0 268.17362375517735) translate(567.2419161876567 68.37240848547575) scale(1.2860153864321664) translate(-556.17144 -63.984)"></path> 
   <path id="path4103" style="font-style: normal; font-weight: 700; font-size: 72px; line-height: 1; font-family: &quot;Brandmark1 Bold&quot;; font-variant-ligatures: none; text-align: center; text-anchor: middle; fill: rgb(236, 88, 102);" d="m 619.69569,122.808 c 2.808,0 5.544,-0.576 8.136,-1.728 2.52,-1.08 4.752,-2.664 6.624,-4.608 l -7.632,-7.2 c -1.872,2.016 -4.392,3.096 -7.128,3.096 -3.528,0 -6.624,-1.872 -8.352,-4.608 h 28.584 v -5.256 c 0,-5.4 -2.088,-10.512 -5.904,-14.328 -3.816,-3.816 -8.928,-5.976 -14.328,-5.976 -5.472,0 -10.512,2.16 -14.4,5.976 -3.816,3.816 -5.904,8.928 -5.904,14.328 0,5.4 2.088,10.512 5.904,14.328 3.888,3.816 8.928,5.976 14.4,5.976 z m -8.352,-25.488 c 1.728,-2.808 4.824,-4.68 8.352,-4.68 3.456,0 6.552,1.872 8.352,4.68 z" transform="translate(0 268.17362375517735) translate(622.8238226931016 91.79846476472406) scale(1.2860153864321664) translate(-599.39169 -82.2)"></path> 
   <path id="path4105" style="font-style: normal; font-weight: 700; font-size: 72px; line-height: 1; font-family: &quot;Brandmark1 Bold&quot;; font-variant-ligatures: none; text-align: center; text-anchor: middle; fill: rgb(250, 191, 146);" d="m 660.78856,123.024 c 2.736,0 5.472,-0.576 7.992,-1.584 2.448,-1.08 4.68,-2.52 6.552,-4.392 1.872,-1.944 3.312,-4.104 4.392,-6.552 1.08,-2.52 1.584,-5.256 1.584,-7.992 0,-2.808 -0.504,-5.472 -1.584,-7.992 -1.08,-2.448 -2.52,-4.68 -4.392,-6.552 -1.944,-1.872 -4.104,-3.312 -6.552,-4.392 -2.52,-1.08 -5.256,-1.584 -7.992,-1.584 -2.736,0 -5.472,0.504 -7.992,1.584 -2.448,1.08 -4.608,2.52 -6.552,4.392 -1.872,1.944 -3.312,4.104 -4.392,6.552 -1.008,2.52 -1.584,5.184 -1.584,7.992 0,2.736 0.576,5.472 1.584,7.992 1.08,2.448 2.52,4.608 4.392,6.552 1.944,1.872 4.104,3.312 6.552,4.392 2.52,1.008 5.256,1.584 7.992,1.584 z m 0,-30.24 c 5.328,0 9.72,4.392 9.72,9.72 0,5.328 -4.392,9.72 -9.72,9.72 -5.328,0 -9.72,-4.392 -9.72,-9.72 0,-5.328 4.392,-9.72 9.72,-9.72 z" transform="translate(0 268.17362375517735) translate(675.3921064622891 91.5206854412547) scale(1.2860153864321664) translate(-640.26856 -81.984)"></path> 
   <path id="path4107" style="font-style: normal; font-weight: 700; font-size: 72px; line-height: 1; font-family: &quot;Brandmark1 Bold&quot;; font-variant-ligatures: none; text-align: center; text-anchor: middle; fill: rgb(250, 191, 146);" d="m 683.63844,121.512 11.16,2.232 20.592,-48.384 v -7.344 h -35.712 V 78.6 h 22.536 z" transform="translate(0 268.17362375517735) translate(726.0738185197345 73.55762252357025) scale(1.2860153864321664) translate(-679.67844 -68.016)"></path> 
  </g> 
  <g id="tagline" style="font-style:normal;font-weight:400;font-size:32px;line-height:1;font-family:Montserrat;font-variant-ligatures:none;text-align:center;text-anchor:middle"></g> 
 </g> 
</svg>