<svg xmlns:dc="http://purl.org/dc/elements/1.1/" xmlns:cc="http://creativecommons.org/ns#" xmlns:rdf="http://www.w3.org/1999/02/22-rdf-syntax-ns#" xmlns:svg="http://www.w3.org/2000/svg" xmlns="http://www.w3.org/2000/svg" id="svg70398" viewbox="0 0 1024 768" height="768px" width="1024px" version="1.1"> <metadata id="metadata70404"> 
  <rdf:rdf> 
   <cc:work rdf:about=""> 
    <dc:format>
     image/svg+xml
    </dc:format> 
    <dc:type rdf:resource="http://purl.org/dc/dcmitype/StillImage"></dc:type> 
   </cc:work> 
  </rdf:rdf> 
 </metadata> <defs id="defs70402"></defs> <g id="logo-group"> 
  <g id="title" style="font-style:normal;font-weight:700;font-size:72px;line-height:1;font-family:'Brandmark1 Bold';font-variant-ligatures:none;text-align:center;text-anchor:middle" aria-label="carbono7"> 
   <path id="path70406" style="font-style: normal; font-weight: 700; font-size: 72px; line-height: 1; font-family: &quot;Brandmark1 Bold&quot;; font-variant-ligatures: none; text-align: center; text-anchor: middle; fill: rgb(0, 0, 0);" d="m 377.78075,123.096 c 6.696,0 13.032,-3.312 16.92,-8.928 l -8.928,-6.12 c -1.8,2.664 -4.824,4.248 -7.992,4.248 -5.4,0 -9.72,-4.392 -9.72,-9.72 0,-5.4 4.32,-9.72 9.72,-9.72 3.096,0 6.12,1.512 7.92,4.104 l 8.856,-6.192 c -1.872,-2.664 -4.392,-4.824 -7.2,-6.336 -2.952,-1.584 -6.264,-2.376 -9.576,-2.376 -2.808,0 -5.472,0.504 -7.992,1.584 -2.448,1.08 -4.68,2.52 -6.552,4.392 -1.872,1.944 -3.384,4.104 -4.392,6.552 -1.08,2.52 -1.584,5.256 -1.584,7.992 0,2.736 0.504,5.472 1.584,7.992 1.008,2.448 2.52,4.608 4.392,6.552 1.872,1.872 4.104,3.312 6.552,4.392 2.52,1.008 5.184,1.584 7.992,1.584 z" transform="translate(0 269.50417194439854) translate(251.9999999999999 98.38531784680941) scale(1.368544869927969) translate(-357.26075 -82.056)"></path> 
   <path id="path70408" style="font-style: normal; font-weight: 700; font-size: 72px; line-height: 1; font-family: &quot;Brandmark1 Bold&quot;; font-variant-ligatures: none; text-align: center; text-anchor: middle; fill: rgb(0, 0, 0);" d="m 424.32762,81.984 0.072,2.304 c -2.88,-1.44 -6.048,-2.232 -9.28801,-2.232 -2.73599,0 -5.47199,0.504 -7.992,1.584 -2.448,1.08 -4.608,2.52 -6.55199,4.392 -1.87201,1.872 -3.31201,4.104 -4.392,6.552 -1.00801,2.52 -1.584,5.256 -1.584,7.992 0,2.736 0.57599,5.472 1.584,7.992 1.07999,2.448 2.51999,4.608 4.392,6.552 1.94399,1.872 4.10399,3.312 6.55199,4.392 2.52001,1.008 5.25601,1.584 7.992,1.584 3.24001,0 6.40801,-0.792 9.28801,-2.232 l -0.072,1.656 h 10.80001 V 81.984 Z m -4.31999,28.944 c -1.44,0.864 -3.16801,1.368 -4.89601,1.368 -5.32799,0 -9.72,-4.392 -9.72,-9.72 0,-5.328 4.39201,-9.72 9.72,-9.72 1.87201,0 3.74401,0.504 5.256,1.584 1.584,0.936 2.80801,2.376 3.528,4.032 0.64801,1.296 0.936,2.664 0.936,4.104 0,1.728 -0.43199,3.384 -1.296,4.896 -0.864,1.44 -2.01599,2.664 -3.52799,3.456 z" transform="translate(0 269.50417194439854) translate(316.7744193277275 98.28678261617458) scale(1.368544869927969) translate(-394.59162 -81.984)"></path> 
   <path id="path70410" style="font-style: normal; font-weight: 700; font-size: 72px; line-height: 1; font-family: &quot;Brandmark1 Bold&quot;; font-variant-ligatures: none; text-align: center; text-anchor: middle; fill: rgb(0, 0, 0);" d="m 451.22075,122.52 v 0 -17.712 c 0,-6.912 5.616,-12.6 12.6,-12.6 v -10.8 c -3.168,0 -6.264,0.648 -9.144,1.872 -2.736,1.152 -5.256,2.88 -7.416,5.04 -2.16,2.088 -3.816,4.608 -5.04,7.416 -1.224,2.88 -1.8,5.904 -1.8,9.072 v 17.712 z" transform="translate(0 269.50417194439854) translate(393.1790887817692 97.4985007710961) scale(1.368544869927969) translate(-440.42075 -81.408)"></path> 
   <path id="path70412" style="font-style: normal; font-weight: 700; font-size: 72px; line-height: 1; font-family: &quot;Brandmark1 Bold&quot;; font-variant-ligatures: none; text-align: center; text-anchor: middle; fill: rgb(0, 0, 0);" d="m 506.69787,102.504 c 0,-2.808 -0.576,-5.472 -1.656,-7.992 -1.00799,-2.448 -2.51999,-4.68 -4.392,-6.552 -1.872,-1.872 -4.03199,-3.384 -6.48,-4.392 -2.592,-1.08 -5.25599,-1.584 -7.992,-1.584 -2.808,0 -5.472,0.504 -7.992,1.584 -0.648,0.288 -1.22399,0.504 -1.728,0.864 v -20.52 l -10.8,3.6 v 34.992 c 0,2.736 0.504,5.472 1.584,7.992 1.008,2.448 2.52,4.608 4.392,6.48 1.872,1.944 4.104,3.384 6.552,4.392 2.52,1.08 5.184,1.656 7.992,1.656 2.73601,0 5.4,-0.576 7.992,-1.656 2.37601,-1.008 4.608,-2.52 6.48,-4.392 1.87201,-1.872 3.38401,-4.032 4.392,-6.48 1.08,-2.592 1.656,-5.256 1.656,-7.992 z m -10.8,0 c 0,5.328 -4.392,9.72 -9.72,9.72 -5.4,0 -9.72,-4.392 -9.72,-9.72 0,-5.4 4.32,-9.72 9.72,-9.72 5.328,0 9.72,4.32 9.72,9.72 z" transform="translate(0 269.50417194439854) translate(441.4026685888055 73.55443972683636) scale(1.368544869927969) translate(-465.65787 -63.912)"></path> 
   <path id="path70414" style="font-style: normal; font-weight: 700; font-size: 72px; line-height: 1; font-family: &quot;Brandmark1 Bold&quot;; font-variant-ligatures: none; text-align: center; text-anchor: middle; fill: rgb(0, 0, 0);" d="m 528.39012,123.024 c 2.736,0 5.472,-0.576 7.992,-1.584 2.448,-1.08 4.68001,-2.52 6.552,-4.392 1.872,-1.944 3.312,-4.104 4.39201,-6.552 1.07999,-2.52 1.58399,-5.256 1.58399,-7.992 0,-2.808 -0.504,-5.472 -1.58399,-7.992 -1.08001,-2.448 -2.52001,-4.68 -4.39201,-6.552 -1.94399,-1.872 -4.104,-3.312 -6.552,-4.392 -2.52,-1.08 -5.256,-1.584 -7.992,-1.584 -2.73599,0 -5.47199,0.504 -7.99199,1.584 -2.44801,1.08 -4.60801,2.52 -6.552,4.392 -1.872,1.944 -3.312,4.104 -4.39201,6.552 -1.008,2.52 -1.584,5.184 -1.584,7.992 0,2.736 0.576,5.472 1.584,7.992 1.08001,2.448 2.52001,4.608 4.39201,6.552 1.94399,1.872 4.10399,3.312 6.552,4.392 2.52,1.008 5.256,1.584 7.99199,1.584 z m 0,-30.24 c 5.328,0 9.72001,4.392 9.72001,9.72 0,5.328 -4.39201,9.72 -9.72001,9.72 -5.32799,0 -9.72,-4.392 -9.72,-9.72 0,-5.328 4.39201,-9.72 9.72,-9.72 z" transform="translate(0 269.50417194439854) translate(512.857475473702 98.28678261617458) scale(1.368544869927969) translate(-507.87012 -81.984)"></path> 
   <path id="path70416" style="font-style: normal; font-weight: 700; font-size: 72px; line-height: 1; font-family: &quot;Brandmark1 Bold&quot;; font-variant-ligatures: none; text-align: center; text-anchor: middle; fill: rgb(0, 0, 0);" d="m 583.74013,88.392 c -3.456,-3.384 -7.99201,-5.256 -12.81601,-5.256 -2.59199,0 -5.03999,0.504 -7.272,1.512 v -2.664 h -10.8 v 17.64 c -0.072,0.576 -0.072,1.08 -0.072,1.656 h 0.072 v 21.24 h 10.8 V 100.2 c 0.504,-3.528 3.528,-6.264 7.272,-6.264 4.03201,0 7.34401,3.312 7.34401,7.344 v 21.24 h 10.79999 v -21.24 c 0,-4.896 -1.94399,-9.432 -5.32799,-12.888 z" transform="translate(0 269.50417194439854) translate(588.0042742814469 98.28678261617458) scale(1.368544869927969) translate(-552.78012 -81.984)"></path> 
   <path id="path70418" style="font-style: normal; font-weight: 700; font-size: 72px; line-height: 1; font-family: &quot;Brandmark1 Bold&quot;; font-variant-ligatures: none; text-align: center; text-anchor: middle; fill: rgb(252, 252, 252);" d="m 612.6245,123.024 c 2.736,0 5.472,-0.576 7.992,-1.584 2.448,-1.08 4.68,-2.52 6.552,-4.392 1.872,-1.944 3.312,-4.104 4.392,-6.552 1.08,-2.52 1.584,-5.256 1.584,-7.992 0,-2.808 -0.504,-5.472 -1.584,-7.992 -1.08,-2.448 -2.52,-4.68 -4.392,-6.552 -1.944,-1.872 -4.104,-3.312 -6.552,-4.392 -2.52,-1.08 -5.256,-1.584 -7.992,-1.584 -2.736,0 -5.472,0.504 -7.992,1.584 -2.448,1.08 -4.608,2.52 -6.552,4.392 -1.872,1.944 -3.312,4.104 -4.392,6.552 -1.008,2.52 -1.584,5.184 -1.584,7.992 0,2.736 0.576,5.472 1.584,7.992 1.08,2.448 2.52,4.608 4.392,6.552 1.944,1.872 4.104,3.312 6.552,4.392 2.52,1.008 5.256,1.584 7.992,1.584 z m 0,-30.24 c 5.328,0 9.72,4.392 9.72,9.72 0,5.328 -4.392,9.72 -9.72,9.72 -5.328,0 -9.72,-4.392 -9.72,-9.72 0,-5.328 4.392,-9.72 9.72,-9.72 z" transform="translate(0 269.50417194439854) translate(655.5069014928247 98.28678261617458) scale(1.368544869927969) translate(-592.1045 -81.984)"></path> 
   <path id="path70420" style="font-style: normal; font-weight: 700; font-size: 72px; line-height: 1; font-family: &quot;Brandmark1 Bold&quot;; font-variant-ligatures: none; text-align: center; text-anchor: middle; fill: rgb(252, 252, 252);" d="m 635.47437,121.512 11.16,2.232 20.592,-48.384 v -7.344 h -35.712 V 78.6 h 22.53601 z" transform="translate(0 269.50417194439854) translate(723.1265256051325 79.17094787302074) scale(1.368544869927969) translate(-631.51437 -68.016)"></path> 
  </g> 
  <g id="tagline" style="font-style:normal;font-weight:400;font-size:32px;line-height:1;font-family:Montserrat;font-variant-ligatures:none;text-align:center;text-anchor:middle"></g> 
 </g> 
</svg>