<svg xmlns:dc="http://purl.org/dc/elements/1.1/" xmlns:cc="http://creativecommons.org/ns#" xmlns:rdf="http://www.w3.org/1999/02/22-rdf-syntax-ns#" xmlns:svg="http://www.w3.org/2000/svg" xmlns="http://www.w3.org/2000/svg" id="svg252545" viewbox="0 0 1024 768" height="768px" width="1024px" version="1.1"> <metadata id="metadata252551"> 
  <rdf:rdf> 
   <cc:work rdf:about=""> 
    <dc:format>
     image/svg+xml
    </dc:format> 
    <dc:type rdf:resource="http://purl.org/dc/dcmitype/StillImage"></dc:type> 
   </cc:work> 
  </rdf:rdf> 
 </metadata> <defs id="defs252549"></defs> <g id="logo-group"> 
  <g id="title" style="font-style:normal;font-weight:500;font-size:72px;line-height:1;font-family:'Raleway Medium Alt1';font-variant-ligatures:none;text-align:center;text-anchor:middle" aria-label="CHAMPIONINGO7"> 
   <path id="path252553" style="font-style: normal; font-weight: 500; font-size: 72px; line-height: 1; font-family: &quot;Raleway Medium Alt1&quot;; font-variant-ligatures: none; text-align: center; text-anchor: middle; fill: rgb(76, 71, 47);" d="m 220.02594,87.24 c 0.72,-2.376 1.872,-4.536 3.384,-6.408 1.44,-1.872 3.312,-3.456 5.472,-4.608 2.16,-1.152 4.68,-1.8 7.56,-1.8 1.296,0 2.592,0.144 3.96,0.432 1.296,0.288 2.592,0.792 3.888,1.44 1.224,0.72 2.448,1.584 3.528,2.664 1.08,1.152 2.016,2.52 2.808,4.104 l 5.112,-3.312 c -1.584,-3.312 -4.032,-5.976 -7.272,-8.064 -3.312,-2.016 -7.2,-3.096 -11.736,-3.096 -3.888,0 -7.272,0.792 -10.296,2.232 -3.096,1.512 -5.616,3.456 -7.704,5.904 -2.088,2.448 -3.672,5.184 -4.752,8.208 -0.792,2.16 -1.224,4.32 -1.44,6.408 h 6.552 c 0.216,-1.368 0.504,-2.736 0.936,-4.104 z m 31.248,18.36 c -0.72,1.584 -1.656,2.952 -2.808,4.104 -1.152,1.152 -2.376,2.088 -3.6,2.808 -1.368,0.72 -2.664,1.296 -4.104,1.584 -1.44,0.36 -2.808,0.504 -4.104,0.504 -2.592,0 -4.896,-0.504 -7.056,-1.656 -2.16,-1.08 -4.032,-2.592 -5.616,-4.464 -1.656,-1.872 -2.88,-3.96 -3.744,-6.408 -0.576,-1.512 -0.936,-3.024 -1.152,-4.68 h -6.552 c 0.288,2.16 0.792,4.248 1.584,6.336 1.152,3.168 2.808,5.976 4.968,8.424 2.16,2.448 4.68,4.464 7.632,5.976 2.88,1.584 6.12,2.304 9.648,2.304 1.944,0 3.96,-0.216 6.048,-0.792 2.016,-0.504 3.96,-1.224 5.832,-2.304 1.872,-0.936 3.528,-2.232 4.968,-3.672 1.44,-1.44 2.592,-3.168 3.456,-5.112 z" transform="translate(0 326.4953846153846) translate(248.31658846153846 34.24307692307693) scale(0.7692307692307693) translate(-212.53794 -68.592)"></path> 
   <path id="path252555" style="font-style: normal; font-weight: 500; font-size: 72px; line-height: 1; font-family: &quot;Raleway Medium Alt1&quot;; font-variant-ligatures: none; text-align: center; text-anchor: middle; fill: rgb(76, 71, 47);" d="m 264.78406,120 h 6.48 V 68.88 h -6.48 z m 34.632,-51.12 v 22.104 h -22.392 v 5.76 h 22.392 V 120 h 6.48 V 68.88 Z" transform="translate(0 326.4953846153846) translate(293.89052692307695 34.464615384615385) scale(0.7692307692307693) translate(-264.78406 -68.88)"></path> 
   <path id="path252557" style="font-style: normal; font-weight: 500; font-size: 72px; line-height: 1; font-family: &quot;Raleway Medium Alt1&quot;; font-variant-ligatures: none; text-align: center; text-anchor: middle; fill: rgb(76, 71, 47);" d="m 341.91294,75.864 -2.808,7.632 6.48,16.488 h -12.816 l -1.944,5.04 h 16.2 l 6.048,14.976 h 6.912 z m -2.808,-6.984 h -5.472 l -20.952,51.12 h 6.624 l 17.064,-43.632 z" transform="translate(0 326.4953846153846) translate(336.11889615384615 34.464615384615385) scale(0.7692307692307693) translate(-312.68094 -68.88)"></path> 
   <path id="path252559" style="font-style: normal; font-weight: 500; font-size: 72px; line-height: 1; font-family: &quot;Raleway Medium Alt1&quot;; font-variant-ligatures: none; text-align: center; text-anchor: middle; fill: rgb(76, 71, 47);" d="M 366.87781,68.88 V 120 h 6.48 V 80.472 l 11.448,20.448 3.456,-5.904 -14.544,-26.136 z m 43.92,0 -18.576,33.192 -3.384,5.904 1.584,2.808 h 3.672 l 16.992,-30.312 V 120 h 6.48 V 68.88 Z" transform="translate(0 326.4953846153846) translate(383.1934115384615 34.464615384615385) scale(0.7692307692307693) translate(-366.87781 -68.88)"></path> 
   <path id="path252561" style="font-style: normal; font-weight: 500; font-size: 72px; line-height: 1; font-family: &quot;Raleway Medium Alt1&quot;; font-variant-ligatures: none; text-align: center; text-anchor: middle; fill: rgb(76, 71, 47);" d="m 465.37719,79.32 c -0.792,-1.944 -1.872,-3.672 -3.24,-5.256 -1.368,-1.584 -3.024,-2.808 -4.896,-3.744 -1.872,-0.936 -3.96,-1.44 -6.192,-1.44 h -21.312 v 20.448 h 6.48 V 74.64 h 14.472 c 1.224,0 2.376,0.288 3.528,0.792 1.08,0.576 2.088,1.296 2.952,2.232 0.864,1.008 1.512,2.088 2.016,3.384 0.504,1.296 0.792,2.736 0.792,4.176 0,1.44 -0.216,2.808 -0.648,4.104 -0.504,1.368 -1.08,2.448 -1.8,3.456 -0.792,1.008 -1.728,1.728 -2.808,2.304 -1.08,0.576 -2.304,0.792 -3.6,0.792 h -21.384 V 120 h 6.48 v -18.36 h 15.264 c 2.232,0 4.248,-0.432 6.12,-1.368 1.872,-0.864 3.456,-2.088 4.752,-3.672 1.296,-1.512 2.304,-3.24 3.096,-5.256 0.72,-1.944 1.08,-3.96 1.08,-6.12 0,-2.016 -0.432,-3.96 -1.152,-5.904 z" transform="translate(0 326.4953846153846) translate(436.9313961538461 34.464615384615385) scale(0.7692307692307693) translate(-429.73719 -68.88)"></path> 
   <path id="path252563" style="font-style: normal; font-weight: 500; font-size: 72px; line-height: 1; font-family: &quot;Raleway Medium Alt1&quot;; font-variant-ligatures: none; text-align: center; text-anchor: middle; fill: rgb(76, 71, 47);" d="m 474.59656,120 h 6.48 V 68.88 h -6.48 z" transform="translate(0 326.4953846153846) translate(476.8232192307692 34.464615384615385) scale(0.7692307692307693) translate(-474.59656 -68.88)"></path> 
   <path id="path252565" style="font-style: normal; font-weight: 500; font-size: 72px; line-height: 1; font-family: &quot;Raleway Medium Alt1&quot;; font-variant-ligatures: none; text-align: center; text-anchor: middle; fill: rgb(76, 71, 47);" d="m 531.38769,97.248 c -0.216,1.512 -0.504,3.024 -1.008,4.464 -0.792,2.448 -1.944,4.608 -3.456,6.48 -1.512,1.872 -3.384,3.456 -5.472,4.608 -2.232,1.152 -4.68,1.728 -7.344,1.728 -2.664,0 -5.04,-0.504 -7.2,-1.656 -2.16,-1.08 -4.032,-2.592 -5.544,-4.464 -1.584,-1.872 -2.736,-3.96 -3.6,-6.408 -0.504,-1.512 -0.864,-3.096 -1.08,-4.752 h -6.552 c 0.216,2.304 0.72,4.608 1.584,6.768 1.08,3.168 2.736,5.904 4.896,8.352 2.088,2.448 4.608,4.392 7.56,5.832 2.952,1.44 6.264,2.16 9.864,2.16 3.456,0 6.624,-0.648 9.576,-2.088 2.952,-1.44 5.472,-3.312 7.632,-5.688 2.16,-2.376 3.816,-5.112 5.04,-8.28 0.864,-2.232 1.44,-4.608 1.728,-7.056 z m -33.624,-10.152 c 0.792,-2.376 1.944,-4.464 3.456,-6.408 1.512,-1.872 3.384,-3.384 5.544,-4.536 2.16,-1.152 4.608,-1.728 7.344,-1.728 2.52,0 4.896,0.576 7.056,1.656 2.16,1.152 3.96,2.592 5.544,4.464 1.584,1.872 2.736,3.96 3.6,6.408 0.432,1.296 0.792,2.664 1.008,3.96 h 6.552 c -0.288,-1.944 -0.792,-3.96 -1.44,-5.832 -1.152,-3.096 -2.808,-5.832 -4.896,-8.352 -2.16,-2.448 -4.68,-4.392 -7.56,-5.904 -2.952,-1.512 -6.264,-2.304 -9.792,-2.304 -3.528,0 -6.696,0.72 -9.648,2.16 -2.952,1.44 -5.472,3.312 -7.632,5.688 -2.16,2.448 -3.888,5.184 -5.112,8.28 -0.792,2.088 -1.368,4.176 -1.584,6.264 h 6.552 c 0.216,-1.224 0.576,-2.52 1.008,-3.816 z" transform="translate(0 326.4953846153846) translate(494.1579346153846 34.1876923076923) scale(0.7692307692307693) translate(-490.13169 -68.52)"></path> 
   <path id="path252567" style="font-style: normal; font-weight: 500; font-size: 72px; line-height: 1; font-family: &quot;Raleway Medium Alt1&quot;; font-variant-ligatures: none; text-align: center; text-anchor: middle; fill: rgb(76, 71, 47);" d="m 547.15906,120 h 6.48 V 91.272 l -6.48,-8.424 z m 36.72,-51.048 v 39.744 l -31.68,-39.816 h -5.04 v 3.888 l 6.48,8.208 31.248,39.024 h 5.472 V 68.952 Z" transform="translate(0 326.4953846153846) translate(543.4097576923076 34.464615384615385) scale(0.7692307692307693) translate(-547.15906 -68.88)"></path> 
   <path id="path252569" style="font-style: normal; font-weight: 500; font-size: 72px; line-height: 1; font-family: &quot;Raleway Medium Alt1&quot;; font-variant-ligatures: none; text-align: center; text-anchor: middle; fill: rgb(76, 71, 47);" d="m 602.56531,120 h 6.48 V 68.88 h -6.48 z" transform="translate(0 326.4953846153846) translate(591.4145653846153 34.464615384615385) scale(0.7692307692307693) translate(-602.56531 -68.88)"></path> 
   <path id="path252571" style="font-style: normal; font-weight: 500; font-size: 72px; line-height: 1; font-family: &quot;Raleway Medium Alt1&quot;; font-variant-ligatures: none; text-align: center; text-anchor: middle; fill: rgb(76, 71, 47);" d="m 621.26844,120 h 6.48 V 91.272 l -6.48,-8.424 z m 36.72,-51.048 v 39.744 l -31.68,-39.816 h -5.04 v 3.888 l 6.48,8.208 31.248,39.024 h 5.472 V 68.952 Z" transform="translate(0 326.4953846153846) translate(611.1862038461538 34.464615384615385) scale(0.7692307692307693) translate(-621.26844 -68.88)"></path> 
   <path id="path252573" style="font-style: normal; font-weight: 500; font-size: 72px; line-height: 1; font-family: &quot;Raleway Medium Alt1&quot;; font-variant-ligatures: none; text-align: center; text-anchor: middle; fill: rgb(76, 71, 47);" d="m 690.64269,112.944 c -2.232,-1.008 -4.104,-2.448 -5.616,-4.32 -1.584,-1.872 -2.88,-3.96 -3.744,-6.408 -0.936,-2.448 -1.368,-4.968 -1.368,-7.776 0,-2.52 0.36,-5.04 1.224,-7.488 0.792,-2.448 1.944,-4.536 3.456,-6.408 1.44,-1.872 3.24,-3.312 5.4,-4.464 2.088,-1.152 4.392,-1.728 7.056,-1.728 3.168,0 5.976,0.72 8.568,2.16 2.52,1.44 4.536,3.672 6.12,6.624 l 4.968,-3.456 c -1.728,-3.24 -4.176,-5.976 -7.344,-8.064 -3.168,-2.016 -7.272,-3.096 -12.168,-3.096 -3.456,0 -6.624,0.72 -9.504,2.088 -2.952,1.44 -5.472,3.312 -7.56,5.688 -2.16,2.376 -3.816,5.112 -4.968,8.208 -1.224,3.096 -1.8,6.336 -1.8,9.792 0,3.384 0.576,6.552 1.8,9.648 1.224,3.168 2.88,5.904 5.04,8.352 2.088,2.448 4.536,4.392 7.488,5.832 2.88,1.512 6.048,2.232 9.504,2.232 3.6,0 6.912,-0.864 10.008,-2.736 v -6.048 c -3.024,2.016 -6.192,2.952 -9.504,2.952 -2.592,0 -4.896,-0.504 -7.056,-1.584 z m 11.088,-18.432 v 4.896 h 11.016 V 120 h 5.472 V 94.512 Z" transform="translate(0 326.4953846153846) translate(656.6433192307692 34.1876923076923) scale(0.7692307692307693) translate(-673.36269 -68.52)"></path> 
   <path id="path252575" style="font-style: normal; font-weight: 500; font-size: 72px; line-height: 1; font-family: &quot;Raleway Medium Alt1&quot;; font-variant-ligatures: none; text-align: center; text-anchor: middle; fill: rgb(255, 250, 223);" d="m 766.23144,97.248 c -0.216,1.512 -0.504,3.024 -1.008,4.464 -0.792,2.448 -1.944,4.608 -3.456,6.48 -1.512,1.872 -3.384,3.456 -5.472,4.608 -2.232,1.152 -4.68,1.728 -7.344,1.728 -2.664,0 -5.04,-0.504 -7.2,-1.656 -2.16,-1.08 -4.032,-2.592 -5.544,-4.464 -1.584,-1.872 -2.736,-3.96 -3.6,-6.408 -0.504,-1.512 -0.864,-3.096 -1.08,-4.752 h -6.552 c 0.216,2.304 0.72,4.608 1.584,6.768 1.08,3.168 2.736,5.904 4.896,8.352 2.088,2.448 4.608,4.392 7.56,5.832 2.952,1.44 6.264,2.16 9.864,2.16 3.456,0 6.624,-0.648 9.576,-2.088 2.952,-1.44 5.472,-3.312 7.632,-5.688 2.16,-2.376 3.816,-5.112 5.04,-8.28 0.864,-2.232 1.44,-4.608 1.728,-7.056 z m -33.624,-10.152 c 0.792,-2.376 1.944,-4.464 3.456,-6.408 1.512,-1.872 3.384,-3.384 5.544,-4.536 2.16,-1.152 4.608,-1.728 7.344,-1.728 2.52,0 4.896,0.576 7.056,1.656 2.16,1.152 3.96,2.592 5.544,4.464 1.584,1.872 2.736,3.96 3.6,6.408 0.432,1.296 0.792,2.664 1.008,3.96 h 6.552 c -0.288,-1.944 -0.792,-3.96 -1.44,-5.832 -1.152,-3.096 -2.808,-5.832 -4.896,-8.352 -2.16,-2.448 -4.68,-4.392 -7.56,-5.904 -2.952,-1.512 -6.264,-2.304 -9.792,-2.304 -3.528,0 -6.696,0.72 -9.648,2.16 -2.952,1.44 -5.472,3.312 -7.632,5.688 -2.16,2.448 -3.888,5.184 -5.112,8.28 -0.792,2.088 -1.368,4.176 -1.584,6.264 h 6.552 c 0.216,-1.224 0.576,-2.52 1.008,-3.816 z" transform="translate(0 326.4953846153846) translate(701.7300499999999 34.1876923076923) scale(0.7692307692307693) translate(-724.97544 -68.52)"></path> 
   <path id="path252577" style="font-style: normal; font-weight: 500; font-size: 72px; line-height: 1; font-family: &quot;Raleway Medium Alt1&quot;; font-variant-ligatures: none; text-align: center; text-anchor: middle; fill: rgb(255, 250, 223);" d="m 804.10681,83.856 -22.896,45.288 h 7.2 l 25.704,-51.12 h -36.288 v 5.832 z" transform="translate(0 326.4953846153846) translate(747.7695653846152 41.49846153846154) scale(0.7692307692307693) translate(-777.82681 -78.024)"></path> 
  </g> 
  <g id="tagline" style="font-style:oblique;font-weight:600;font-size:32px;line-height:1;font-family:Raleway;font-variant-ligatures:none;text-align:center;text-anchor:middle"></g> 
 </g> 
</svg>