<svg xmlns:dc="http://purl.org/dc/elements/1.1/" xmlns:cc="http://creativecommons.org/ns#" xmlns:rdf="http://www.w3.org/1999/02/22-rdf-syntax-ns#" xmlns:svg="http://www.w3.org/2000/svg" xmlns="http://www.w3.org/2000/svg" id="svg346284" viewbox="0 0 1024 768" height="768px" width="1024px" version="1.1"> <metadata id="metadata346290"> 
  <rdf:rdf> 
   <cc:work rdf:about=""> 
    <dc:format>
     image/svg+xml
    </dc:format> 
    <dc:type rdf:resource="http://purl.org/dc/dcmitype/StillImage"></dc:type> 
   </cc:work> 
  </rdf:rdf> 
 </metadata> <defs id="defs346288"></defs> <g id="logo-group"> 
  <g id="title" style="font-style:normal;font-weight:700;font-size:72px;line-height:1;font-family:'Comfortaa Bold Alt1';font-variant-ligatures:none;text-align:center;text-anchor:middle" aria-label="COMPONENTO7"> 
   <path id="path346292" style="font-style: normal; font-weight: 700; font-size: 72px; line-height: 1; font-family: &quot;Comfortaa Bold Alt1&quot;; font-variant-ligatures: none; text-align: center; text-anchor: middle; fill: rgb(55, 57, 52);" d="m 243.75387,64.488 c -2.664,-0.936 -5.832,-1.44 -9.432,-1.44 -5.184,0 -9.864,1.296 -14.112,3.888 -4.248,2.592 -7.56,6.048 -10.008,10.44 -2.448,4.392 -3.672,9.216 -3.672,14.472 0,5.328 1.224,10.224 3.672,14.616 2.448,4.464 5.76,7.92 10.008,10.44 4.248,2.592 8.928,3.816 14.112,3.816 6.552,0 12.456,-2.088 17.64001,-6.264 0.71999,-0.72 1.15199,-1.656 1.15199,-2.664 0,-1.008 -0.36,-1.872 -0.936,-2.52 -0.576,-0.648 -1.368,-1.008 -2.232,-1.008 -0.792,0 -1.584,0.288 -2.376,0.864 -4.248,3.168 -8.64,4.752 -13.248,4.752 -3.744,0 -7.2,-0.936 -10.368,-2.952 -3.168,-1.944 -5.616,-4.608 -7.488,-7.992 -1.872,-3.312 -2.736,-7.056 -2.736,-11.088 0,-3.96 0.864,-7.632 2.736,-11.016 1.872,-3.384 4.32,-6.048 7.488,-8.064 3.168,-1.944 6.624,-2.952 10.368,-2.952 2.952,0 5.4,0.432 7.272,1.152 1.872,0.72 3.744,1.944 5.76001,3.6 0.71999,0.648 1.584,0.936 2.51999,0.936 0.864,0 1.656,-0.288 2.376,-0.936 0.72,-0.576 1.08001,-1.368 1.08001,-2.376 0,-0.576 -0.14401,-1.152 -0.28801,-1.584 -0.216,-0.432 -0.576,-0.936 -1.15199,-1.368 -2.73601,-2.16 -5.47201,-3.744 -8.13601,-4.752 z" transform="translate(0 313.51709090909094) translate(210.45579090909104 44.26836363636363) scale(0.9090909090909091) translate(-206.52987 -63.048)"></path> 
   <path id="path346294" style="font-style: normal; font-weight: 700; font-size: 72px; line-height: 1; font-family: &quot;Comfortaa Bold Alt1&quot;; font-variant-ligatures: none; text-align: center; text-anchor: middle; fill: rgb(55, 57, 52);" d="m 291.01062,120.72 c 3.888,0 7.632,-0.72 11.232,-2.232 3.456,-1.44 6.48,-3.528 9.144,-6.192 2.66401,-2.664 4.752,-5.688 6.192,-9.144 1.512,-3.6 2.30401,-7.344 2.30401,-11.232 0,-3.888 -0.79201,-7.632 -2.30401,-11.232 -1.44,-3.456 -3.52799,-6.48 -6.192,-9.144 -2.664,-2.664 -5.688,-4.752 -9.144,-6.192 -3.6,-1.512 -7.344,-2.304 -11.232,-2.304 -3.88799,0 -7.632,0.792 -11.232,2.304 -3.45599,1.44 -6.47999,3.528 -9.14399,6.192 -2.66401,2.664 -4.752,5.688 -6.192,9.144 -1.512,3.6 -2.23201,7.344 -2.23201,11.232 0,3.888 0.72001,7.632 2.23201,11.232 1.44,3.456 3.52799,6.48 6.192,9.144 2.664,2.664 5.688,4.752 9.14399,6.192 3.6,1.512 7.34401,2.232 11.232,2.232 z m 0,-50.616 c 6.048,0 11.16,2.16 15.40801,6.408 4.24799,4.248 6.40799,9.36 6.40799,15.408 0,6.048 -2.16,11.16 -6.40799,15.408 -4.24801,4.248 -9.36001,6.336 -15.40801,6.336 -6.048,0 -11.16,-2.088 -15.408,-6.336 -4.248,-4.248 -6.336,-9.36 -6.336,-15.408 0,-6.048 2.088,-11.16 6.336,-15.408 4.248,-4.248 9.36,-6.408 15.408,-6.408 z" transform="translate(0 313.51709090909094) translate(265.62010909090924 44.26836363636363) scale(0.9090909090909091) translate(-262.21062 -63.048)"></path> 
   <path id="path346296" style="font-style: normal; font-weight: 700; font-size: 72px; line-height: 1; font-family: &quot;Comfortaa Bold Alt1&quot;; font-variant-ligatures: none; text-align: center; text-anchor: middle; fill: rgb(55, 57, 52);" d="m 386.68962,64.848 c -0.792,-0.72 -1.65599,-1.08 -2.664,-1.008 -1.44,0 -2.52,0.648 -3.312,1.872 0,0.072 0,0.072 0,0.144 -0.072,0 -0.072,0.072 -0.072,0.072 l -18.864,38.808 c -0.36,0.792 -1.00799,1.152 -1.944,1.224 -0.864,0 -1.512,-0.432 -1.94399,-1.224 l -19.36801,-38.88 c 0,0 -0.072,-0.072 -0.072,-0.072 -0.79201,-1.296 -1.87201,-2.016 -3.24,-2.016 -1.08001,0 -1.94401,0.36 -2.66401,1.08 -0.72,0.72 -1.08,1.656 -1.08,2.664 v 48.744 c 0,1.08 0.36,1.944 1.08,2.664 0.72,0.72 1.584,1.08 2.66401,1.08 1.00799,0 1.94399,-0.36 2.66399,-1.08 0.72,-0.72 1.08,-1.584 1.08,-2.664 v -25.92 c 0,-1.152 0.504,-1.8 1.656,-2.088 1.08,-0.288 1.872,0.144 2.44801,1.152 l 13.104,26.208 c 0.71999,1.512 1.872,2.232 3.45599,2.232 1.29601,0 2.304,-0.576 3.096,-1.728 0.072,-0.072 0.144,-0.144 0.144,-0.216 l 13.248,-27 c 0.504,-1.08 1.368,-1.44 2.448,-1.152 1.152,0.216 1.72801,0.936 1.72801,2.088 v 26.424 c 0,1.08 0.35999,1.944 1.07999,2.664 0.72001,0.72 1.584,1.08 2.664,1.08 1.00801,0 1.872,-0.36 2.592,-1.08 0.72,-0.72 1.15201,-1.584 1.15201,-2.664 V 67.512 c 0,-1.008 -0.36001,-1.944 -1.08001,-2.664 z" transform="translate(0 313.51709090909094) translate(333.1246454545456 44.92290909090909) scale(0.9090909090909091) translate(-331.46561 -63.768)"></path> 
   <path id="path346298" style="font-style: normal; font-weight: 700; font-size: 72px; line-height: 1; font-family: &quot;Comfortaa Bold Alt1&quot;; font-variant-ligatures: none; text-align: center; text-anchor: middle; fill: rgb(55, 57, 52);" d="m 408.608,118.92 c 0.72,-0.648 1.08,-1.584 1.08,-2.664 v -13.608 c 0,-0.576 0.216,-1.08 0.648,-1.512 0.432,-0.432 0.936,-0.648 1.512,-0.648 h 8.496 c 3.528,0 6.696,-0.72 9.504,-2.304 2.808,-1.512 4.968,-3.6 6.552,-6.408 1.584,-2.664 2.376,-5.832 2.376,-9.36 0,-3.6 -0.792,-6.768 -2.376,-9.648 -1.584,-2.808 -3.744,-5.04 -6.552,-6.624 -2.808,-1.584 -5.976,-2.376 -9.504,-2.376 h -14.4 c -1.08,0 -2.016,0.36 -2.664,1.08 -0.72,0.72 -1.08,1.584 -1.08,2.664 v 48.744 c 0,1.08 0.36,1.944 1.08,2.664 0.72,0.72 1.584,1.08 2.664,1.08 1.08,0 1.944,-0.36 2.664,-1.08 z m 19.8,-28.44 c -2.16,2.088 -4.824,3.096 -8.064,3.096 h -8.496 c -0.576,0 -1.08,-0.216 -1.512,-0.648 -0.432,-0.432 -0.648,-0.936 -0.648,-1.512 V 72.84 c 0,-0.576 0.216,-1.08 0.648,-1.512 0.432,-0.432 0.936,-0.648 1.512,-0.648 h 8.496 c 3.24,0 5.904,1.152 8.064,3.312 2.088,2.232 3.168,5.04 3.168,8.424 0,3.312 -1.08,5.976 -3.168,8.064 z" transform="translate(0 313.51709090909094) translate(401.974090909091 44.92290909090909) scale(0.9090909090909091) translate(-402.2 -63.768)"></path> 
   <path id="path346300" style="font-style: normal; font-weight: 700; font-size: 72px; line-height: 1; font-family: &quot;Comfortaa Bold Alt1&quot;; font-variant-ligatures: none; text-align: center; text-anchor: middle; fill: rgb(55, 57, 52);" d="m 472.97937,120.72 c 3.888,0 7.632,-0.72 11.232,-2.232 3.456,-1.44 6.48,-3.528 9.144,-6.192 2.66401,-2.664 4.752,-5.688 6.192,-9.144 1.512,-3.6 2.30401,-7.344 2.30401,-11.232 0,-3.888 -0.79201,-7.632 -2.30401,-11.232 -1.44,-3.456 -3.52799,-6.48 -6.192,-9.144 -2.664,-2.664 -5.688,-4.752 -9.144,-6.192 -3.6,-1.512 -7.344,-2.304 -11.232,-2.304 -3.88799,0 -7.632,0.792 -11.232,2.304 -3.45599,1.44 -6.47999,3.528 -9.14399,6.192 -2.66401,2.664 -4.752,5.688 -6.192,9.144 -1.512,3.6 -2.23201,7.344 -2.23201,11.232 0,3.888 0.72001,7.632 2.23201,11.232 1.44,3.456 3.52799,6.48 6.192,9.144 2.664,2.664 5.688,4.752 9.14399,6.192 3.6,1.512 7.34401,2.232 11.232,2.232 z m 0,-50.616 c 6.048,0 11.16,2.16 15.40801,6.408 4.24799,4.248 6.40799,9.36 6.40799,15.408 0,6.048 -2.16,11.16 -6.40799,15.408 -4.24801,4.248 -9.36001,6.336 -15.40801,6.336 -6.048,0 -11.16,-2.088 -15.408,-6.336 -4.248,-4.248 -6.336,-9.36 -6.336,-15.408 0,-6.048 2.088,-11.16 6.336,-15.408 4.248,-4.248 9.36,-6.408 15.408,-6.408 z" transform="translate(0 313.51709090909094) translate(444.6826090909092 44.26836363636363) scale(0.9090909090909091) translate(-444.17937 -63.048)"></path> 
   <path id="path346302" style="font-style: normal; font-weight: 700; font-size: 72px; line-height: 1; font-family: &quot;Comfortaa Bold Alt1&quot;; font-variant-ligatures: none; text-align: center; text-anchor: middle; fill: rgb(55, 57, 52);" d="m 552.45838,64.848 c -0.792,0.72 -1.08001,1.584 -1.08001,2.664 v 32.976 c 0,1.008 -0.504,1.656 -1.512,2.016 -1.00799,0.36 -1.8,0.072 -2.376,-0.72 l -27.504,-36.504 c 0,-0.072 0,-0.072 -0.072,-0.144 0,0 0,0 0,-0.072 -0.35999,-0.36 -0.79199,-0.648 -1.22399,-0.864 -0.57601,-0.288 -1.08001,-0.432 -1.58401,-0.432 -1.07999,0 -1.944,0.36 -2.664,1.08 -0.71999,0.72 -1.00799,1.584 -1.00799,2.664 v 48.744 c 0,1.152 0.288,2.016 1.00799,2.736 0.72,0.72 1.58401,1.008 2.664,1.008 1.08,0 1.94401,-0.36 2.664,-1.08 0.72,-0.648 1.08,-1.584 1.08,-2.664 V 83.424 c 0,-1.008 0.432,-1.728 1.44001,-2.016 1.00799,-0.36 1.79999,-0.072 2.448,0.72 l 27.504,36.576 c 0.288,0.504 0.64799,0.792 1.22399,1.008 0.576,0.216 1.08,0.288 1.65601,0.288 1.00799,0 1.87199,-0.288 2.592,-1.008 0.72,-0.72 1.07999,-1.584 1.07999,-2.736 V 67.512 c 0,-1.08 -0.35999,-1.944 -1.07999,-2.664 -0.72001,-0.72 -1.58401,-1.08 -2.592,-1.08 -1.08001,0 -2.01601,0.36 -2.664,1.08 z" transform="translate(0 313.51709090909094) translate(512.1871636363637 44.92290909090909) scale(0.9090909090909091) translate(-513.43438 -63.768)"></path> 
   <path id="path346304" style="font-style: normal; font-weight: 700; font-size: 72px; line-height: 1; font-family: &quot;Comfortaa Bold Alt1&quot;; font-variant-ligatures: none; text-align: center; text-anchor: middle; fill: rgb(55, 57, 52);" d="m 612.152,114.024 c -0.72,-0.576 -1.584,-0.936 -2.664,-0.936 h -26.64 c -0.648,0 -1.152,-0.144 -1.584,-0.576 -0.432,-0.432 -0.576,-0.936 -0.576,-1.584 V 97.32 c 0,-0.648 0.144,-1.152 0.576,-1.584 0.432,-0.432 0.936,-0.648 1.584,-0.648 h 18.504 c 1.008,0 1.872,-0.288 2.592,-0.936 0.72,-0.648 1.08,-1.44 1.08,-2.52 0,-1.008 -0.36,-1.8 -1.08,-2.448 -0.72,-0.648 -1.584,-1.008 -2.592,-1.008 h -18.504 c -0.648,0 -1.152,-0.144 -1.584,-0.576 -0.432,-0.432 -0.576,-0.936 -0.576,-1.584 V 72.912 c 0,-0.648 0.144,-1.152 0.576,-1.584 0.432,-0.432 0.936,-0.648 1.584,-0.648 h 26.64 c 1.08,0 1.944,-0.288 2.664,-0.936 0.648,-0.576 1.008,-1.44 1.008,-2.448 0,-1.008 -0.36,-1.872 -1.008,-2.52 -0.72,-0.648 -1.584,-1.008 -2.664,-1.008 h -32.544 c -1.08,0 -2.016,0.36 -2.664,1.08 -0.72,0.72 -1.08,1.584 -1.08,2.664 v 48.744 c 0,1.08 0.36,1.944 1.08,2.664 0.72,0.72 1.584,1.08 2.664,1.08 h 32.544 c 1.08,0 1.944,-0.288 2.664,-0.936 0.648,-0.648 1.008,-1.512 1.008,-2.592 0,-1.008 -0.36,-1.8 -1.008,-2.448 z" transform="translate(0 313.51709090909094) translate(571.065 44.92290909090909) scale(0.9090909090909091) translate(-573.2 -63.768)"></path> 
   <path id="path346306" style="font-style: normal; font-weight: 700; font-size: 72px; line-height: 1; font-family: &quot;Comfortaa Bold Alt1&quot;; font-variant-ligatures: none; text-align: center; text-anchor: middle; fill: rgb(55, 57, 52);" d="m 662.56775,64.848 c -0.792,0.72 -1.08,1.584 -1.08,2.664 v 32.976 c 0,1.008 -0.504,1.656 -1.512,2.016 -1.008,0.36 -1.8,0.072 -2.376,-0.72 l -27.504,-36.504 c 0,-0.072 0,-0.072 -0.072,-0.144 0,0 0,0 0,-0.072 -0.36,-0.36 -0.792,-0.648 -1.224,-0.864 -0.576,-0.288 -1.08,-0.432 -1.584,-0.432 -1.08,0 -1.944,0.36 -2.664,1.08 -0.72,0.72 -1.008,1.584 -1.008,2.664 v 48.744 c 0,1.152 0.288,2.016 1.008,2.736 0.72,0.72 1.584,1.008 2.664,1.008 1.08,0 1.944,-0.36 2.664,-1.08 0.72,-0.648 1.08,-1.584 1.08,-2.664 V 83.424 c 0,-1.008 0.432,-1.728 1.44,-2.016 1.008,-0.36 1.8,-0.072 2.448,0.72 l 27.504,36.576 c 0.288,0.504 0.648,0.792 1.224,1.008 0.576,0.216 1.08,0.288 1.656,0.288 1.008,0 1.872,-0.288 2.592,-1.008 0.72,-0.72 1.08,-1.584 1.08,-2.736 V 67.512 c 0,-1.08 -0.36,-1.944 -1.08,-2.664 -0.72,-0.72 -1.584,-1.08 -2.592,-1.08 -1.08,0 -2.016,0.36 -2.664,1.08 z" transform="translate(0 313.51709090909094) translate(621.3775 44.92290909090909) scale(0.9090909090909091) translate(-623.54375 -63.768)"></path> 
   <path id="path346308" style="font-style: normal; font-weight: 700; font-size: 72px; line-height: 1; font-family: &quot;Comfortaa Bold Alt1&quot;; font-variant-ligatures: none; text-align: center; text-anchor: middle; fill: rgb(55, 57, 52);" d="m 721.61338,64.776 c -0.64801,-0.648 -1.44001,-1.008 -2.448,-1.008 h -38.52001 c -1.00799,0 -1.872,0.36 -2.52,1.008 -0.64799,0.648 -0.93599,1.44 -0.93599,2.448 0,1.008 0.288,1.872 0.93599,2.52 0.648,0.648 1.51201,0.936 2.52,0.936 h 13.392 c 0.57601,0 1.08001,0.216 1.51201,0.648 0.43199,0.432 0.64799,0.936 0.64799,1.512 v 43.416 c 0,1.08 0.36,1.944 1.08,2.664 0.72001,0.72 1.584,1.08 2.664,1.08 1.00801,0 1.944,-0.36 2.664,-1.08 0.72,-0.72 1.08001,-1.584 1.08001,-2.664 V 72.84 c 0,-0.576 0.216,-1.08 0.648,-1.512 0.43199,-0.432 0.93599,-0.648 1.51199,-0.648 h 13.32001 c 1.00799,0 1.79999,-0.288 2.448,-0.936 0.648,-0.648 1.00799,-1.512 1.00799,-2.52 0,-1.008 -0.35999,-1.8 -1.00799,-2.448 z" transform="translate(0 313.51709090909094) translate(674.6917090909092 44.92290909090909) scale(0.9090909090909091) translate(-677.18938 -63.768)"></path> 
   <path id="path346310" style="font-style: normal; font-weight: 700; font-size: 72px; line-height: 1; font-family: &quot;Comfortaa Bold Alt1&quot;; font-variant-ligatures: none; text-align: center; text-anchor: middle; fill: rgb(195, 151, 78);" d="m 753.10437,120.72 c 3.88801,0 7.632,-0.72 11.232,-2.232 3.456,-1.44 6.48,-3.528 9.144,-6.192 2.664,-2.664 4.75201,-5.688 6.192,-9.144 1.51201,-3.6 2.304,-7.344 2.304,-11.232 0,-3.888 -0.79199,-7.632 -2.304,-11.232 -1.43999,-3.456 -3.528,-6.48 -6.192,-9.144 -2.664,-2.664 -5.688,-4.752 -9.144,-6.192 -3.6,-1.512 -7.34399,-2.304 -11.232,-2.304 -3.888,0 -7.63199,0.792 -11.23199,2.304 -3.456,1.44 -6.48,3.528 -9.144,6.192 -2.664,2.664 -4.75201,5.688 -6.192,9.144 -1.51201,3.6 -2.232,7.344 -2.232,11.232 0,3.888 0.71999,7.632 2.232,11.232 1.43999,3.456 3.528,6.48 6.192,9.144 2.664,2.664 5.688,4.752 9.144,6.192 3.6,1.512 7.34399,2.232 11.23199,2.232 z m 0,-50.616 c 6.048,0 11.16,2.16 15.40801,6.408 4.24799,4.248 6.408,9.36 6.408,15.408 0,6.048 -2.16001,11.16 -6.408,15.408 -4.24801,4.248 -9.36001,6.336 -15.40801,6.336 -6.048,0 -11.15999,-2.088 -15.408,-6.336 -4.24799,-4.248 -6.336,-9.36 -6.336,-15.408 0,-6.048 2.08801,-11.16 6.336,-15.408 4.24801,-4.248 9.36,-6.408 15.408,-6.408 z" transform="translate(0 313.51709090909094) translate(722.0689818181818 44.26836363636363) scale(0.9090909090909091) translate(-724.30438 -63.048)"></path> 
   <path id="path346312" style="font-style: normal; font-weight: 700; font-size: 72px; line-height: 1; font-family: &quot;Comfortaa Bold Alt1&quot;; font-variant-ligatures: none; text-align: center; text-anchor: middle; fill: rgb(195, 151, 78);" d="m 786.15913,70.104 c 0.72,0.72 1.58399,1.008 2.66399,1.008 h 21.88801 l -20.664,42.912 c -0.432,0.864 -0.648,1.656 -0.648,2.304 0,1.008 0.36,1.872 1.07999,2.592 0.72,0.72 1.512,1.08 2.52001,1.08 0.64799,0 1.29599,-0.144 1.94399,-0.504 0.57601,-0.36 1.08001,-0.864 1.44,-1.512 l 23.04001,-48.6 c 0.288,-0.72 0.504,-1.368 0.504,-1.944 0,-1.008 -0.36,-1.872 -1.08001,-2.592 -0.72,-0.72 -1.584,-1.08 -2.59199,-1.08 h -27.43201 c -1.08,0 -1.94399,0.36 -2.66399,1.08 -0.72001,0.72 -1.00801,1.584 -1.00801,2.592 0,1.08 0.288,1.944 1.00801,2.664 z" transform="translate(0 313.51709090909094) translate(781.9296545454544 44.92290909090909) scale(0.9090909090909091) translate(-785.15112 -63.768)"></path> 
  </g> 
  <g id="tagline" style="font-style:normal;font-weight:500;font-size:32px;line-height:1;font-family:Raleway;font-variant-ligatures:none;text-align:center;text-anchor:middle"></g> 
 </g> 
</svg>