<svg xmlns:dc="http://purl.org/dc/elements/1.1/" xmlns:cc="http://creativecommons.org/ns#" xmlns:rdf="http://www.w3.org/1999/02/22-rdf-syntax-ns#" xmlns:svg="http://www.w3.org/2000/svg" xmlns="http://www.w3.org/2000/svg" id="svg78587" viewbox="0 0 1024 768" height="768px" width="1024px" version="1.1"> <metadata id="metadata78593"> 
  <rdf:rdf> 
   <cc:work rdf:about=""> 
    <dc:format>
     image/svg+xml
    </dc:format> 
    <dc:type rdf:resource="http://purl.org/dc/dcmitype/StillImage"></dc:type> 
   </cc:work> 
  </rdf:rdf> 
 </metadata> <defs id="defs78591"></defs> <g id="logo-group"> 
  <g id="title" style="font-style:normal;font-weight:300;font-size:72px;line-height:1;font-family:'Uni Neue';font-variant-ligatures:none;text-align:center;text-anchor:middle" aria-label="Cowgirlo7"> 
   <path id="path78595" style="font-style: normal; font-weight: 300; font-size: 72px; line-height: 1; font-family: &quot;Uni Neue&quot;; font-variant-ligatures: none; text-align: center; text-anchor: middle; fill: rgb(135, 207, 222);" d="m 399.28456,114.816 c 0.288,-0.216 0.288,-0.432 0.144,-0.648 l -0.864,-1.152 c -0.144,-0.216 -0.36,-0.288 -0.576,-0.072 -4.248,3.672 -9.432,5.544 -14.904,5.544 -9.936,0 -14.976,-6.264 -14.976,-14.832 V 84.864 c 0,-8.568 4.968,-14.832 14.832,-14.832 5.04,0 9.936,1.728 13.896,4.896 0.288,0.216 0.504,0.144 0.648,-0.072 l 0.792,-1.152 c 0.216,-0.144 0.216,-0.432 -0.072,-0.576 -4.464,-3.6 -9.792,-5.328 -15.192,-5.328 -10.944,0 -17.28,6.984 -17.28,17.064 v 18.792 c 0,10.08 6.264,17.064 17.424,17.064 5.76,0 11.52,-1.8 16.128,-5.904 z" transform="translate(0 237.65555188653093) translate(251.9999999999999 92.27906609389915) scale(1.623585045632731) translate(-365.73256 -67.8)"></path> 
   <path id="path78597" style="font-style: normal; font-weight: 300; font-size: 72px; line-height: 1; font-family: &quot;Uni Neue&quot;; font-variant-ligatures: none; text-align: center; text-anchor: middle; fill: rgb(135, 207, 222);" d="M 435.94831,107.184 V 95.808 c 0,-7.56 -5.184,-13.536 -14.976,-13.536 -9.72,0 -14.976,5.976 -14.976,13.536 v 11.376 c 0,7.632 5.256,13.536 14.976,13.536 9.792,0 14.976,-5.904 14.976,-13.536 z m -27.648,0 V 95.808 c 0,-6.336 4.248,-11.376 12.672,-11.376 8.496,0 12.672,5.04 12.672,11.376 v 11.376 c 0,6.408 -4.176,11.448 -12.672,11.448 -8.424,0 -12.672,-5.04 -12.672,-11.448 z" transform="translate(0 237.65555188653093) translate(322.24237751799296 115.77558887429605) scale(1.623585045632731) translate(-405.99631 -82.272)"></path> 
   <path id="path78599" style="font-style: normal; font-weight: 300; font-size: 72px; line-height: 1; font-family: &quot;Uni Neue&quot;; font-variant-ligatures: none; text-align: center; text-anchor: middle; fill: rgb(135, 207, 222);" d="m 455.05644,120 c 0.288,0 0.36,-0.144 0.432,-0.36 l 10.8,-32.76 h 0.072 l 10.728,32.76 c 0.072,0.216 0.216,0.36 0.504,0.36 h 1.8 c 0.288,0 0.432,-0.144 0.504,-0.36 l 11.448,-36.072 c 0.144,-0.36 -0.072,-0.576 -0.36,-0.576 h -1.512 c -0.216,0 -0.36,0.144 -0.432,0.36 l -10.584,33.696 -10.8,-32.832 c -0.072,-0.216 -0.216,-0.36 -0.504,-0.36 h -1.728 c -0.216,0 -0.36,0.144 -0.432,0.36 l -10.8,32.832 h -0.072 l -10.512,-33.696 c -0.072,-0.216 -0.216,-0.36 -0.504,-0.36 h -1.512 c -0.288,0 -0.432,0.216 -0.36,0.576 l 11.52,36.072 c 0.072,0.216 0.216,0.36 0.432,0.36 z" transform="translate(0 237.65555188653093) translate(384.29219360327465 116.94457010715162) scale(1.623585045632731) translate(-441.21409 -82.992)"></path> 
   <path id="path78601" style="font-style: normal; font-weight: 300; font-size: 72px; line-height: 1; font-family: &quot;Uni Neue&quot;; font-variant-ligatures: none; text-align: center; text-anchor: middle; fill: rgb(135, 207, 222);" d="M 525.21144,121.08 V 85.368 c 0,-0.216 -0.072,-0.432 -0.36,-0.504 -3.6,-1.584 -8.64,-2.592 -13.032,-2.592 -9.072,0 -15.192,4.32 -15.192,14.256 v 7.776 c 0,9.504 5.832,14.328 15.192,14.328 3.744,0 7.848,-1.008 11.088,-2.664 v 5.04 c 0.072,6.768 -3.528,11.232 -11.808,11.232 -5.256,0 -9,-2.232 -12.24,-5.256 -0.216,-0.216 -0.432,-0.144 -0.576,0.072 l -0.72,1.008 c -0.144,0.288 -0.144,0.432 0,0.576 3.744,3.6 8.064,5.76 13.536,5.76 9.792,0 14.112,-5.544 14.112,-13.32 z m -26.28,-16.776 v -7.776 c 0,-8.28 4.752,-12.096 12.816,-12.096 3.528,0 8.064,0.792 11.16,1.872 v 27.432 c -3.096,1.656 -7.056,2.736 -11.016,2.736 -7.92,0 -12.96,-3.6 -12.96,-12.168 z" transform="translate(0 237.65555188653093) translate(479.13123512858533 115.77558887429605) scale(1.623585045632731) translate(-496.62744 -82.272)"></path> 
   <path id="path78603" style="font-style: normal; font-weight: 300; font-size: 72px; line-height: 1; font-family: &quot;Uni Neue&quot;; font-variant-ligatures: none; text-align: center; text-anchor: middle; fill: rgb(135, 207, 222);" d="m 538.04881,120 c 0.288,0 0.432,-0.144 0.432,-0.432 V 83.496 c 0,-0.288 -0.144,-0.504 -0.432,-0.504 h -1.44 c -0.288,0 -0.432,0.216 -0.432,0.504 v 36.072 c 0,0.288 0.144,0.432 0.432,0.432 z m 1.152,-46.944 c 0,-1.152 -0.792,-1.872 -1.872,-1.872 -1.08,0 -1.872,0.72 -1.872,1.872 0,1.08 0.792,1.8 1.872,1.8 1.08,0 1.872,-0.72 1.872,-1.8 z" transform="translate(0 237.65555188653093) translate(547.0447747288239 97.77327788832032) scale(1.623585045632731) translate(-535.45681 -71.184)"></path> 
   <path id="path78605" style="font-style: normal; font-weight: 300; font-size: 72px; line-height: 1; font-family: &quot;Uni Neue&quot;; font-variant-ligatures: none; text-align: center; text-anchor: middle; fill: rgb(135, 207, 222);" d="m 551.33619,120 c 0.288,0 0.432,-0.144 0.432,-0.432 V 86.304 c 3.096,-1.224 6.84,-1.872 10.296,-1.872 2.376,0 4.896,0.216 7.128,0.576 0.288,0.072 0.432,-0.072 0.432,-0.36 v -1.224 c 0,-0.288 -0.072,-0.432 -0.432,-0.504 -2.304,-0.36 -4.824,-0.648 -7.272,-0.648 -4.104,0 -8.64,0.864 -12.096,2.52 -0.216,0.072 -0.36,0.288 -0.36,0.504 v 34.272 c 0,0.288 0.216,0.432 0.432,0.432 z" transform="translate(0 237.65555188653093) translate(574.657702562217 115.77558887429605) scale(1.623585045632731) translate(-549.46419 -82.272)"></path> 
   <path id="path78607" style="font-style: normal; font-weight: 300; font-size: 72px; line-height: 1; font-family: &quot;Uni Neue&quot;; font-variant-ligatures: none; text-align: center; text-anchor: middle; fill: rgb(135, 207, 222);" d="m 589.42756,120.432 c 0.288,-0.072 0.432,-0.288 0.432,-0.576 v -1.224 c 0,-0.288 -0.144,-0.36 -0.432,-0.36 -1.44,0.216 -3.096,0.288 -4.104,0.288 -4.248,0 -6.912,-2.664 -6.912,-9.504 V 68.952 c 0,-0.288 -0.144,-0.432 -0.432,-0.432 h -1.44 c -0.288,0 -0.432,0.144 -0.432,0.432 v 39.888 c 0,8.424 3.6,11.88 9.144,11.88 1.152,0 2.952,-0.144 4.176,-0.288 z" transform="translate(0 237.65555188653093) translate(622.786234796375 93.44804732675472) scale(1.623585045632731) translate(-576.10756 -68.52)"></path> 
   <path id="path78609" style="font-style: normal; font-weight: 300; font-size: 72px; line-height: 1; font-family: &quot;Uni Neue&quot;; font-variant-ligatures: none; text-align: center; text-anchor: middle; fill: rgb(205, 246, 237);" d="M 623.40144,107.184 V 95.808 c 0,-7.56 -5.184,-13.536 -14.976,-13.536 -9.72,0 -14.976,5.976 -14.976,13.536 v 11.376 c 0,7.632 5.256,13.536 14.976,13.536 9.792,0 14.976,-5.904 14.976,-13.536 z m -27.648,0 V 95.808 c 0,-6.336 4.248,-11.376 12.672,-11.376 8.496,0 12.672,5.04 12.672,11.376 v 11.376 c 0,6.408 -4.176,11.448 -12.672,11.448 -8.424,0 -12.672,-5.04 -12.672,-11.448 z" transform="translate(0 237.65555188653093) translate(655.8130069644304 115.77558887429605) scale(1.623585045632731) translate(-593.44944 -82.272)"></path> 
   <path id="path78611" style="font-style: normal; font-weight: 300; font-size: 72px; line-height: 1; font-family: &quot;Uni Neue&quot;; font-variant-ligatures: none; text-align: center; text-anchor: middle; fill: rgb(205, 246, 237);" d="m 637.45944,120 c 0.216,0 0.504,-0.144 0.576,-0.36 l 23.832,-49.392 c 0.144,-0.144 0.144,-0.36 0.144,-0.504 v -0.792 c 0,-0.288 -0.216,-0.432 -0.504,-0.432 h -31.68 c -0.288,0 -0.504,0.144 -0.504,0.432 v 1.368 c 0,0.216 0.216,0.432 0.504,0.432 h 29.304 l -23.616,48.672 c -0.144,0.36 0.072,0.576 0.36,0.576 z" transform="translate(0 237.65555188653093) translate(718.9282520283573 93.44804732675472) scale(1.623585045632731) translate(-629.32344 -68.52)"></path> 
  </g> 
  <g id="tagline" style="font-style:oblique;font-weight:400;font-size:32px;line-height:1;font-family:Lato;font-variant-ligatures:none;text-align:center;text-anchor:middle"></g> 
 </g> 
</svg>