<svg xmlns:dc="http://purl.org/dc/elements/1.1/" xmlns:cc="http://creativecommons.org/ns#" xmlns:rdf="http://www.w3.org/1999/02/22-rdf-syntax-ns#" xmlns:svg="http://www.w3.org/2000/svg" xmlns="http://www.w3.org/2000/svg" id="svg8549" viewbox="0 0 1024 768" height="768px" width="1024px" version="1.1"> <metadata id="metadata8555"> 
  <rdf:rdf> 
   <cc:work rdf:about=""> 
    <dc:format>
     image/svg+xml
    </dc:format> 
    <dc:type rdf:resource="http://purl.org/dc/dcmitype/StillImage"></dc:type> 
   </cc:work> 
  </rdf:rdf> 
 </metadata> <defs id="defs8553"></defs> <g id="logo-group"> 
  <g id="title" style="font-style:normal;font-weight:500;font-size:72px;line-height:1;font-family:'Raleway Medium Alt1';font-variant-ligatures:none;text-align:center;text-anchor:middle" aria-label="CREEKSIDEO7"> 
   <path id="path8557" style="font-style: normal; font-weight: 500; font-size: 72px; line-height: 1; font-family: &quot;Raleway Medium Alt1&quot;; font-variant-ligatures: none; text-align: center; text-anchor: middle; fill: rgb(188, 185, 178);" d="m 282.60406,87.24 c 0.72,-2.376 1.872,-4.536 3.384,-6.408 1.44,-1.872 3.312,-3.456 5.472,-4.608 2.16,-1.152 4.68,-1.8 7.56,-1.8 1.296,0 2.592,0.144 3.96,0.432 1.296,0.288 2.592,0.792 3.888,1.44 1.224,0.72 2.448,1.584 3.528,2.664 1.08,1.152 2.016,2.52 2.808,4.104 l 5.112,-3.312 c -1.584,-3.312 -4.032,-5.976 -7.272,-8.064 -3.312,-2.016 -7.2,-3.096 -11.736,-3.096 -3.888,0 -7.272,0.792 -10.296,2.232 -3.096,1.512 -5.616,3.456 -7.704,5.904 -2.088,2.448 -3.672,5.184 -4.752,8.208 -0.792,2.16 -1.224,4.32 -1.44,6.408 h 6.552 c 0.216,-1.368 0.504,-2.736 0.936,-4.104 z m 31.248,18.36 c -0.72,1.584 -1.656,2.952 -2.808,4.104 -1.152,1.152 -2.376,2.088 -3.6,2.808 -1.368,0.72 -2.664,1.296 -4.104,1.584 -1.44,0.36 -2.808,0.504 -4.104,0.504 -2.592,0 -4.896,-0.504 -7.056,-1.656 -2.16,-1.08 -4.032,-2.592 -5.616,-4.464 -1.656,-1.872 -2.88,-3.96 -3.744,-6.408 -0.576,-1.512 -0.936,-3.024 -1.152,-4.68 h -6.552 c 0.288,2.16 0.792,4.248 1.584,6.336 1.152,3.168 2.808,5.976 4.968,8.424 2.16,2.448 4.68,4.464 7.632,5.976 2.88,1.584 6.12,2.304 9.648,2.304 1.944,0 3.96,-0.216 6.048,-0.792 2.016,-0.504 3.96,-1.224 5.832,-2.304 1.872,-0.936 3.528,-2.232 4.968,-3.672 1.44,-1.44 2.592,-3.168 3.456,-5.112 z" transform="translate(0 308.46674289658495) translate(251.9999999999999 46.755427100913124) scale(0.9516478175430534) translate(-275.11606 -68.592)"></path> 
   <path id="path8559" style="font-style: normal; font-weight: 500; font-size: 72px; line-height: 1; font-family: &quot;Raleway Medium Alt1&quot;; font-variant-ligatures: none; text-align: center; text-anchor: middle; fill: rgb(188, 185, 178);" d="m 354.00219,100.416 c 1.584,-0.36 3.096,-1.08 4.392,-2.088 1.296,-0.936 2.448,-2.088 3.384,-3.456 0.936,-1.296 1.656,-2.808 2.16,-4.464 0.504,-1.656 0.792,-3.384 0.792,-5.184 0,-2.016 -0.432,-3.96 -1.152,-5.904 -0.792,-1.944 -1.872,-3.672 -3.24,-5.256 -1.368,-1.584 -3.024,-2.808 -4.896,-3.744 -1.872,-0.936 -3.96,-1.44 -6.192,-1.44 h -21.888 V 120 h 6.48 v -18.36 h 6.48 l -3.6,-5.76 h -2.88 V 74.64 h 15.048 c 1.224,0 2.376,0.288 3.528,0.864 1.152,0.576 2.088,1.296 2.952,2.304 0.864,1.008 1.512,2.088 2.016,3.384 0.504,1.296 0.792,2.664 0.792,4.032 0,1.44 -0.216,2.736 -0.648,4.032 -0.504,1.368 -1.08,2.448 -1.8,3.456 -0.792,1.008 -1.728,1.8 -2.808,2.304 -1.08,0.576 -2.304,0.864 -3.6,0.864 h -5.688 l 3.744,5.76 11.664,18.36 h 7.344 z" transform="translate(0 308.46674289658495) translate(308.3814503123719 47.02950167236551) scale(0.9516478175430534) translate(-327.36219 -68.88)"></path> 
   <path id="path8561" style="font-style: normal; font-weight: 500; font-size: 72px; line-height: 1; font-family: &quot;Raleway Medium Alt1&quot;; font-variant-ligatures: none; text-align: center; text-anchor: middle; fill: rgb(188, 185, 178);" d="m 381.09219,74.64 h 27.576 v -5.76 h -34.056 v 15.84 h 6.48 z m -6.48,39.6 V 120 h 34.704 v -5.76 z m 6.48,-17.64 h 23.976 v -5.4 h -30.456 v 16.56 h 6.48 z" transform="translate(0 308.46674289658495) translate(360.00834441408256 47.02950167236551) scale(0.9516478175430534) translate(-374.61219 -68.88)"></path> 
   <path id="path8563" style="font-style: normal; font-weight: 500; font-size: 72px; line-height: 1; font-family: &quot;Raleway Medium Alt1&quot;; font-variant-ligatures: none; text-align: center; text-anchor: middle; fill: rgb(188, 185, 178);" d="m 424.68594,74.64 h 27.576 v -5.76 h -34.056 v 15.84 h 6.48 z m -6.48,39.6 V 120 h 34.704 v -5.76 z m 6.48,-17.64 h 23.976 v -5.4 h -30.456 v 16.56 h 6.48 z" transform="translate(0 308.46674289658495) translate(408.15577618290143 47.02950167236551) scale(0.9516478175430534) translate(-418.20594 -68.88)"></path> 
   <path id="path8565" style="font-style: normal; font-weight: 500; font-size: 72px; line-height: 1; font-family: &quot;Raleway Medium Alt1&quot;; font-variant-ligatures: none; text-align: center; text-anchor: middle; fill: rgb(188, 185, 178);" d="m 468.27969,68.952 h -6.48 v 26.784 l 6.48,-6.984 z m 12.816,22.464 20.52,-22.536 h -6.984 l -26.352,28.296 -6.48,6.912 V 120 h 6.48 v -15.624 l 8.856,-9.216 18.576,24.84 h 7.056 z" transform="translate(0 308.46674289658495) translate(456.3032079517203 47.02950167236551) scale(0.9516478175430534) translate(-461.79969 -68.88)"></path> 
   <path id="path8567" style="font-style: normal; font-weight: 500; font-size: 72px; line-height: 1; font-family: &quot;Raleway Medium Alt1&quot;; font-variant-ligatures: none; text-align: center; text-anchor: middle; fill: rgb(188, 185, 178);" d="m 538.79244,79.608 3.024,-5.256 c -2.16,-1.728 -4.68,-3.168 -7.416,-4.248 -2.808,-1.008 -5.904,-1.584 -9.36,-1.584 -2.664,0 -5.112,0.36 -7.344,1.008 -2.304,0.648 -4.248,1.584 -5.832,2.88 -1.656,1.296 -2.952,2.88 -3.816,4.752 -0.936,1.872 -1.368,4.032 -1.368,6.48 0,2.016 0.288,3.744 1.008,5.184 0.648,1.44 1.656,2.664 2.952,3.672 1.296,1.008 2.952,1.872 4.968,2.592 1.944,0.72 4.248,1.44 6.84,2.016 2.304,0.576 4.392,1.152 6.264,1.728 1.872,0.576 3.384,1.152 4.68,1.872 1.224,0.72 2.16,1.584 2.808,2.592 0.648,1.008 1.008,2.16 1.008,3.6 0,2.592 -1.008,4.536 -3.024,5.832 -2.016,1.296 -4.896,1.944 -8.496,1.944 -2.016,0 -3.888,-0.144 -5.688,-0.576 -1.8,-0.432 -3.456,-0.936 -5.04,-1.584 -1.584,-0.648 -2.952,-1.368 -4.176,-2.232 -1.224,-0.792 -2.232,-1.584 -2.952,-2.448 l -3.096,5.472 c 2.88,2.376 6.048,4.176 9.576,5.4 3.528,1.224 7.272,1.8 11.232,1.8 2.592,0 5.04,-0.216 7.344,-0.792 2.232,-0.576 4.176,-1.44 5.832,-2.592 1.656,-1.152 2.952,-2.664 3.96,-4.464 0.936,-1.8 1.44,-3.96 1.44,-6.408 0,-2.304 -0.432,-4.248 -1.224,-5.832 -0.792,-1.584 -1.944,-2.88 -3.456,-4.032 -1.512,-1.08 -3.312,-2.016 -5.472,-2.736 -2.16,-0.72 -4.536,-1.44 -7.128,-2.016 -2.304,-0.504 -4.32,-1.008 -5.976,-1.512 -1.728,-0.432 -3.096,-1.008 -4.248,-1.656 -1.152,-0.648 -1.944,-1.44 -2.448,-2.376 -0.576,-0.864 -0.792,-2.016 -0.792,-3.456 0,-2.592 0.864,-4.608 2.736,-6.12 1.872,-1.44 4.752,-2.232 8.784,-2.232 1.512,0 2.952,0.216 4.392,0.504 1.44,0.288 2.736,0.72 3.96,1.224 1.152,0.504 2.232,1.08 3.24,1.656 0.936,0.648 1.728,1.296 2.304,1.944 z" transform="translate(0 308.46674289658495) translate(503.82540710441333 46.68690845805001) scale(0.9516478175430534) translate(-504.73644 -68.52)"></path> 
   <path id="path8569" style="font-style: normal; font-weight: 500; font-size: 72px; line-height: 1; font-family: &quot;Raleway Medium Alt1&quot;; font-variant-ligatures: none; text-align: center; text-anchor: middle; fill: rgb(188, 185, 178);" d="m 552.64344,120 h 6.48 V 68.88 h -6.48 z" transform="translate(0 308.46674289658495) translate(556.0775338222497 47.02950167236551) scale(0.9516478175430534) translate(-552.64344 -68.88)"></path> 
   <path id="path8571" style="font-style: normal; font-weight: 500; font-size: 72px; line-height: 1; font-family: &quot;Raleway Medium Alt1&quot;; font-variant-ligatures: none; text-align: center; text-anchor: middle; fill: rgb(188, 185, 178);" d="m 612.17056,84.504 c -1.008,-3.096 -2.592,-5.832 -4.608,-8.136 -2.088,-2.232 -4.68,-4.104 -7.776,-5.472 -3.096,-1.296 -6.696,-2.016 -10.728,-2.016 h -17.712 v 5.76 h 17.712 c 2.88,0 5.4,0.504 7.704,1.512 2.232,1.008 4.104,2.376 5.688,4.032 1.584,1.728 2.736,3.816 3.528,6.264 0.792,2.448 1.224,5.112 1.224,7.92 0,2.88 -0.432,5.472 -1.224,7.92 -0.792,2.448 -1.944,4.536 -3.456,6.264 -1.512,1.8 -3.384,3.24 -5.688,4.176 -2.304,1.008 -4.896,1.512 -7.776,1.512 h -11.232 V 81.48 h -6.48 V 120 h 17.712 c 3.744,0 7.128,-0.576 10.152,-1.8 3.024,-1.224 5.688,-2.952 7.848,-5.184 2.16,-2.232 3.816,-4.896 4.968,-8.064 1.152,-3.168 1.728,-6.696 1.728,-10.584 0,-3.456 -0.576,-6.768 -1.584,-9.864 z" transform="translate(0 308.46674289658495) translate(580.5378518742968 47.02950167236551) scale(0.9516478175430534) translate(-571.34656 -68.88)"></path> 
   <path id="path8573" style="font-style: normal; font-weight: 500; font-size: 72px; line-height: 1; font-family: &quot;Raleway Medium Alt1&quot;; font-variant-ligatures: none; text-align: center; text-anchor: middle; fill: rgb(188, 185, 178);" d="m 629.43594,74.64 h 27.576 v -5.76 h -34.056 v 15.84 h 6.48 z m -6.48,39.6 V 120 h 34.704 v -5.76 z m 6.48,-17.64 h 23.976 v -5.4 h -30.456 v 16.56 h 6.48 z" transform="translate(0 308.46674289658495) translate(636.3133404388484 47.02950167236551) scale(0.9516478175430534) translate(-622.95594 -68.88)"></path> 
   <path id="path8575" style="font-style: normal; font-weight: 500; font-size: 72px; line-height: 1; font-family: &quot;Raleway Medium Alt1&quot;; font-variant-ligatures: none; text-align: center; text-anchor: middle; fill: rgb(214, 213, 208);" d="m 703.65331,97.248 c -0.216,1.512 -0.504,3.024 -1.008,4.464 -0.792,2.448 -1.944,4.608 -3.456,6.48 -1.512,1.872 -3.384,3.456 -5.472,4.608 -2.232,1.152 -4.68,1.728 -7.344,1.728 -2.664,0 -5.04,-0.504 -7.2,-1.656 -2.16,-1.08 -4.032,-2.592 -5.544,-4.464 -1.584,-1.872 -2.736,-3.96 -3.6,-6.408 -0.504,-1.512 -0.864,-3.096 -1.08,-4.752 h -6.552 c 0.216,2.304 0.72,4.608 1.584,6.768 1.08,3.168 2.736,5.904 4.896,8.352 2.088,2.448 4.608,4.392 7.56,5.832 2.952,1.44 6.264,2.16 9.864,2.16 3.456,0 6.624,-0.648 9.576,-2.088 2.952,-1.44 5.472,-3.312 7.632,-5.688 2.16,-2.376 3.816,-5.112 5.04,-8.28 0.864,-2.232 1.44,-4.608 1.728,-7.056 z m -33.624,-10.152 c 0.792,-2.376 1.944,-4.464 3.456,-6.408 1.512,-1.872 3.384,-3.384 5.544,-4.536 2.16,-1.152 4.608,-1.728 7.344,-1.728 2.52,0 4.896,0.576 7.056,1.656 2.16,1.152 3.96,2.592 5.544,4.464 1.584,1.872 2.736,3.96 3.6,6.408 0.432,1.296 0.792,2.664 1.008,3.96 h 6.552 c -0.288,-1.944 -0.792,-3.96 -1.44,-5.832 -1.152,-3.096 -2.808,-5.832 -4.896,-8.352 -2.16,-2.448 -4.68,-4.392 -7.56,-5.904 -2.952,-1.512 -6.264,-2.304 -9.792,-2.304 -3.528,0 -6.696,0.72 -9.648,2.16 -2.952,1.44 -5.472,3.312 -7.632,5.688 -2.16,2.448 -3.888,5.184 -5.112,8.28 -0.792,2.088 -1.368,4.176 -1.584,6.264 h 6.552 c 0.216,-1.224 0.576,-2.52 1.008,-3.816 z" transform="translate(0 308.46674289658495) translate(680.5091688430578 46.68690845805001) scale(0.9516478175430534) translate(-662.39731 -68.52)"></path> 
   <path id="path8577" style="font-style: normal; font-weight: 500; font-size: 72px; line-height: 1; font-family: &quot;Raleway Medium Alt1&quot;; font-variant-ligatures: none; text-align: center; text-anchor: middle; fill: rgb(214, 213, 208);" d="m 741.52869,83.856 -22.896,45.288 h 7.2 l 25.704,-51.12 h -36.288 v 5.832 z" transform="translate(0 308.46674289658495) translate(737.4666039969978 55.73136931597921) scale(0.9516478175430534) translate(-715.24869 -78.024)"></path> 
  </g> 
  <g id="tagline" style="font-style:oblique;font-weight:600;font-size:32px;line-height:1;font-family:Raleway;font-variant-ligatures:none;text-align:center;text-anchor:middle"></g> 
 </g> 
</svg>