<svg xmlns:dc="http://purl.org/dc/elements/1.1/" xmlns:cc="http://creativecommons.org/ns#" xmlns:rdf="http://www.w3.org/1999/02/22-rdf-syntax-ns#" xmlns:svg="http://www.w3.org/2000/svg" xmlns="http://www.w3.org/2000/svg" id="svg28996" viewbox="0 0 1024 768" height="768px" width="1024px" version="1.1"> <metadata id="metadata29002"> 
  <rdf:rdf> 
   <cc:work rdf:about=""> 
    <dc:format>
     image/svg+xml
    </dc:format> 
    <dc:type rdf:resource="http://purl.org/dc/dcmitype/StillImage"></dc:type> 
   </cc:work> 
  </rdf:rdf> 
 </metadata> <defs id="defs29000"></defs> <g id="logo-group"> 
  <g id="title" style="font-style:normal;font-weight:400;font-size:72px;line-height:1;font-family:'Abril Fatface';font-variant-ligatures:none;text-align:center;text-anchor:middle" aria-label="Cypruso7"> 
   <path id="path29004" style="font-style: normal; font-weight: 400; font-size: 72px; line-height: 1; font-family: &quot;Abril Fatface&quot;; font-variant-ligatures: none; text-align: center; text-anchor: middle; fill: rgb(247, 112, 67);" d="m 384.21406,70.248 q -11.16,0 -11.16,21.528 v 5.688 q 0,10.224 2.952,16.056 2.952,5.76 8.712,5.76 7.92,0 14.544,-15.408 h 1.296 l -0.504,16.056 h -0.792 q -0.432,-0.792 -0.792,-1.08 -0.36,-0.36 -1.08,-0.36 -0.648,0 -5.184,1.152 -4.536,1.08 -9.216,1.08 -11.736,0 -18.216,-6.336 -6.408,-6.336 -6.408,-19.008 0,-12.744 6.696,-19.656 6.768,-6.912 18.144,-6.912 4.392,0 8.568,1.152 4.248,1.08 4.968,1.08 0.72,0 1.08,-0.288 0.36,-0.36 0.792,-1.152 h 0.792 l 0.576,15.624 h -1.296 q -3.24,-7.272 -6.696,-11.088 -3.384,-3.888 -7.776,-3.888 z" transform="translate(0 240.1231133792765) translate(251.99999999999994 89.44720945610173) scale(1.5732939404735165) translate(-358.36606 -68.808)"></path> 
   <path id="path29006" style="font-style: normal; font-weight: 400; font-size: 72px; line-height: 1; font-family: &quot;Abril Fatface&quot;; font-variant-ligatures: none; text-align: center; text-anchor: middle; fill: rgb(247, 112, 67);" d="m 402.60219,87.024 v -1.296 h 20.88 v 1.296 h -3.888 l 7.848,23.904 8.352,-23.904 h -4.824 v -1.296 h 10.152 v 1.296 h -3.6 l -13.464,38.808 q -2.376,6.768 -5.328,9.432 -2.952,2.736 -7.2,2.736 -4.248,0 -6.696,-1.944 -2.448,-1.944 -2.448,-4.968 0,-3.024 1.584,-4.608 1.584,-1.584 4.176,-1.584 5.976,0 5.976,4.968 0,1.08 -0.432,2.592 h -2.52 q -0.576,1.656 -0.144,2.736 0.432,1.08 1.944,1.08 2.952,0 5.256,-2.952 2.304,-2.88 4.392,-8.856 l 1.584,-4.464 h -6.336 l -12.312,-32.976 z" transform="translate(0 240.1231133792765) translate(325.97648560927695 116.06734292891359) scale(1.5732939404735165) translate(-402.38619 -85.728)"></path> 
   <path id="path29008" style="font-style: normal; font-weight: 400; font-size: 72px; line-height: 1; font-family: &quot;Abril Fatface&quot;; font-variant-ligatures: none; text-align: center; text-anchor: middle; fill: rgb(247, 112, 67);" d="m 467.49219,100.632 q 0,-7.416 -0.72,-9.936 -0.72,-2.592 -2.808,-2.592 -2.088,0 -3.744,2.736 -1.656,2.664 -1.656,7.2 v 13.176 q 0,3.096 1.224,5.256 1.224,2.16 3.6,2.16 2.376,0 3.24,-3.168 0.864,-3.168 0.864,-11.088 z m -9.072,-14.904 v 5.688 q 2.808,-6.408 9.936,-6.408 6.192,0 9.576,4.464 3.456,4.464 3.456,13.536 0,9.072 -3.744,13.392 -3.672,4.32 -11.088,4.32 -3.456,0 -5.184,-0.864 -1.728,-0.864 -2.808,-2.664 v 18.648 h 9.288 v 1.296 h -26.64 v -1.296 h 3.96 V 87.024 h -3.816 v -1.296 z" transform="translate(0 240.1231133792765) translate(391.7810779635223 114.93457129177268) scale(1.5732939404735165) translate(-441.21219 -85.008)"></path> 
   <path id="path29010" style="font-style: normal; font-weight: 400; font-size: 72px; line-height: 1; font-family: &quot;Abril Fatface&quot;; font-variant-ligatures: none; text-align: center; text-anchor: middle; fill: rgb(247, 112, 67);" d="m 507.58831,87.744 q -2.664,0 -4.68,3.456 -2.016,3.456 -2.016,8.208 v 19.296 h 5.112 V 120 h -22.464 v -1.296 h 3.96 v -31.68 h -3.96 v -1.296 h 17.352 v 6.912 q 0.936,-3.672 3.6,-5.616 2.664,-2.016 6.048,-2.016 3.384,0 5.472,1.944 2.16,1.872 2.16,5.4 0,3.456 -1.584,5.328 -1.584,1.872 -4.896,1.872 -3.24,0 -4.824,-2.16 -1.512,-2.16 -0.36,-5.976 h 2.592 q 1.8,-3.672 -1.512,-3.672 z" transform="translate(0 240.1231133792765) translate(463.0955344925787 114.93457129177268) scale(1.5732939404735165) translate(-483.54031 -85.008)"></path> 
   <path id="path29012" style="font-style: normal; font-weight: 400; font-size: 72px; line-height: 1; font-family: &quot;Abril Fatface&quot;; font-variant-ligatures: none; text-align: center; text-anchor: middle; fill: rgb(247, 112, 67);" d="m 560.81656,120 h -16.416 l -0.792,-5.256 q -1.152,2.88 -3.456,4.464 -2.232,1.512 -6.696,1.512 -11.16,0 -11.16,-12.024 V 87.024 h -4.032 v -1.296 h 17.424 v 24.696 q 0,4.32 0.576,5.688 0.648,1.368 2.448,1.368 1.872,0 3.312,-2.232 1.44,-2.232 1.44,-6.192 V 87.024 h -3.312 v -1.296 h 16.704 v 32.976 h 3.96 z" transform="translate(0 240.1231133792765) translate(522.4468684264868 116.06734292891359) scale(1.5732939404735165) translate(-518.26456 -85.728)"></path> 
   <path id="path29014" style="font-style: normal; font-weight: 400; font-size: 72px; line-height: 1; font-family: &quot;Abril Fatface&quot;; font-variant-ligatures: none; text-align: center; text-anchor: middle; fill: rgb(247, 112, 67);" d="m 563.94631,120.72 v -12.888 h 0.864 q 1.872,6.264 5.04,8.784 3.168,2.52 7.92,2.52 7.344,0 7.344,-4.68 0,-2.016 -1.8,-3.024 -2.808,-1.584 -7.2,-2.448 -4.896,-1.296 -8.208,-3.456 -3.96,-2.592 -3.96,-8.208 0,-5.616 3.456,-8.928 3.456,-3.384 9.216,-3.384 3.528,0 7.272,1.656 1.368,0.576 2.088,0.576 0.72,0 1.224,-0.504 0.504,-0.504 1.224,-1.872 h 0.792 V 95.88 h -0.864 q -3.672,-9.36 -11.376,-9.36 -3.384,0 -5.04,1.224 -1.656,1.152 -1.656,2.952 0,1.08 0.504,1.728 0.504,0.576 0.792,0.864 0.288,0.288 0.936,0.648 0.648,0.288 1.08,0.504 0.432,0.144 1.296,0.432 0.936,0.288 1.368,0.36 4.896,1.224 7.056,2.16 2.16,0.864 4.104,2.16 3.96,2.736 3.96,8.856 0,6.048 -3.6,9.216 -3.6,3.096 -9.864,3.096 -4.464,0 -8.64,-2.088 -0.864,-0.576 -1.368,-0.576 -1.584,0 -3.096,2.664 z" transform="translate(0 240.1231133792765) translate(599.0375707131336 114.70801696434451) scale(1.5732939404735165) translate(-563.94631 -84.864)"></path> 
   <path id="path29016" style="font-style: normal; font-weight: 400; font-size: 72px; line-height: 1; font-family: &quot;Abril Fatface&quot;; font-variant-ligatures: none; text-align: center; text-anchor: middle; fill: rgb(194, 119, 69);" d="m 616.76506,105.816 v -6.12 q 0,-6.984 -0.792,-10.152 -0.72,-3.24 -3.456,-3.24 -1.584,0 -2.592,0.936 -0.936,0.864 -1.368,2.952 -0.648,3.24 -0.648,9.864 v 5.616 q 0,7.848 0.432,9.432 0.504,1.584 1.008,2.592 0.792,1.728 3.096,1.728 2.808,0 3.672,-3.24 0.648,-2.304 0.648,-10.368 z m -4.464,14.904 q -9,0 -13.608,-4.608 -4.608,-4.608 -4.608,-13.176 0,-8.64 4.896,-13.248 4.968,-4.68 13.896,-4.68 8.928,0 13.32,4.32 4.392,4.248 4.392,13.032 0,18.36 -18.288,18.36 z" transform="translate(0 240.1231133792765) translate(651.1745652830002 114.93457129177268) scale(1.5732939404735165) translate(-594.08506 -85.008)"></path> 
   <path id="path29018" style="font-style: normal; font-weight: 400; font-size: 72px; line-height: 1; font-family: &quot;Abril Fatface&quot;; font-variant-ligatures: none; text-align: center; text-anchor: middle; fill: rgb(194, 119, 69);" d="m 648.80281,120.72 q -3.888,0 -6.12,-2.088 -2.232,-2.16 -2.232,-5.256 0,-3.168 2.088,-6.912 2.16,-3.816 9.288,-12.096 l 11.88,-13.752 h -18.432 q -5.112,0 -6.768,1.296 -1.584,1.224 -2.52,5.976 h -1.152 l 0.792,-18.288 h 32.256 v 7.776 l -7.992,13.968 q -5.328,9.432 -6.84,13.536 -1.44,4.032 -1.44,7.704 0,3.672 2.16,6.768 l -0.504,0.864 q -2.016,0.504 -4.464,0.504 z" transform="translate(0 240.1231133792765) translate(720.0057818552312 90.69325825695672) scale(1.5732939404735165) translate(-634.83481 -69.6)"></path> 
  </g> 
  <g id="tagline" style="font-style:oblique;font-weight:normal;font-size:32px;line-height:1;font-family:'Droid Serif';font-variant-ligatures:none;text-align:center;text-anchor:middle"></g> 
 </g> 
</svg>