<svg xmlns:dc="http://purl.org/dc/elements/1.1/" xmlns:cc="http://creativecommons.org/ns#" xmlns:rdf="http://www.w3.org/1999/02/22-rdf-syntax-ns#" xmlns:svg="http://www.w3.org/2000/svg" xmlns="http://www.w3.org/2000/svg" id="svg410887" viewbox="0 0 1024 768" height="768px" width="1024px" version="1.1"> <metadata id="metadata410893"> 
  <rdf:rdf> 
   <cc:work rdf:about=""> 
    <dc:format>
     image/svg+xml
    </dc:format> 
    <dc:type rdf:resource="http://purl.org/dc/dcmitype/StillImage"></dc:type> 
   </cc:work> 
  </rdf:rdf> 
 </metadata> <defs id="defs410891"></defs> <g id="logo-group"> 
  <g id="title" style="font-style:oblique;font-weight:700;font-size:72px;line-height:1;font-family:'Uni Neue';font-variant-ligatures:none;text-align:center;text-anchor:middle" aria-label="DARKSIDEO7"> 
   <path id="path410895" style="font-style: oblique; font-weight: 700; font-size: 72px; line-height: 1; font-family: &quot;Uni Neue&quot;; font-variant-ligatures: none; text-align: center; text-anchor: middle; fill: rgb(210, 211, 201);" d="m 324.38994,120 c 12.096,0 20.304,-4.824 22.752,-19.008 l 2.088,-11.88 c 2.448,-14.256 -5.76,-20.592 -16.272,-20.592 h -16.92 c -0.72,0 -1.224,0.432 -1.296,1.152 l -8.64,48.96 c -0.144,0.792 0.288,1.368 1.08,1.368 z m 0.072,-41.04 h 7.2 c 5.112,0 7.2,2.52 6.12,8.712 l -2.232,12.816 c -1.152,6.408 -4.32,9.072 -9.36,9.072 h -7.128 z" transform="translate(0 291.4021697456711) translate(252 62.50998481886927) scale(1.1689139640815713) translate(-306.0745 -68.52)"></path> 
   <path id="path410897" style="font-style: oblique; font-weight: 700; font-size: 72px; line-height: 1; font-family: &quot;Uni Neue&quot;; font-variant-ligatures: none; text-align: center; text-anchor: middle; fill: rgb(210, 211, 201);" d="m 390.75706,120 c 0.864,0 1.296,-0.504 1.152,-1.296 l -7.416,-49.032 c -0.144,-0.792 -0.648,-1.152 -1.368,-1.152 h -10.512 c -0.648,0 -1.152,0.288 -1.44,0.936 l -23.976,49.032 c -0.432,0.936 -0.072,1.512 0.864,1.512 h 9.864 c 0.648,0 1.224,-0.288 1.44,-0.936 l 3.888,-8.64 h 16.2 l 1.008,8.424 c 0.072,0.792 0.576,1.152 1.296,1.152 z m -14.4,-38.952 c 0.432,4.608 1.224,12.024 1.944,19.152 h -10.512 c 3.168,-6.912 6.264,-14.4 8.28,-19.152 z" transform="translate(0 291.4021697456711) translate(303.3634705893615 62.50998481886927) scale(1.1689139640815713) translate(-347.01569 -68.52)"></path> 
   <path id="path410899" style="font-style: oblique; font-weight: 700; font-size: 72px; line-height: 1; font-family: &quot;Uni Neue&quot;; font-variant-ligatures: none; text-align: center; text-anchor: middle; fill: rgb(210, 211, 201);" d="m 407.30694,120 c 0.792,0 1.224,-0.432 1.368,-1.152 l 2.736,-15.984 h 4.752 l 6.624,16.2 c 0.216,0.648 0.72,0.936 1.44,0.936 h 9.792 c 0.936,0 1.296,-0.576 0.864,-1.44 l -8.064,-17.064 c 7.056,-2.16 11.304,-6.984 12.528,-14.472 1.728,-10.44 -3.96,-18.504 -15.624,-18.504 h -16.56 c -0.792,0 -1.224,0.432 -1.368,1.152 l -8.568,48.96 c -0.144,0.792 0.288,1.368 1.152,1.368 z m 8.28,-41.112 h 6.408 c 4.752,0 6.48,2.52 5.76,7.272 -0.72,4.392 -3.384,6.48 -8.208,6.48 h -6.336 z" transform="translate(0 291.4021697456711) translate(365.53094409851724 62.50998481886927) scale(1.1689139640815713) translate(-397.19965 -68.52)"></path> 
   <path id="path410901" style="font-style: oblique; font-weight: 700; font-size: 72px; line-height: 1; font-family: &quot;Uni Neue&quot;; font-variant-ligatures: none; text-align: center; text-anchor: middle; fill: rgb(210, 211, 201);" d="m 476.29644,68.52 c -0.576,0 -1.152,0.288 -1.512,0.72 l -16.272,18.504 3.168,-17.856 c 0.144,-0.864 -0.288,-1.368 -1.152,-1.368 h -8.856 c -0.792,0 -1.224,0.432 -1.368,1.152 l -8.64,48.96 c -0.144,0.792 0.288,1.368 1.152,1.368 h 8.856 c 0.792,0 1.224,-0.432 1.368,-1.152 l 2.664,-15.048 4.32,-4.176 9.432,19.44 c 0.216,0.648 0.792,0.936 1.44,0.936 h 10.152 c 0.936,0 1.368,-0.648 0.936,-1.512 l -13.752,-26.784 20.376,-21.6 c 0.72,-0.864 0.36,-1.584 -0.72,-1.584 z" transform="translate(0 291.4021697456711) translate(420.98130026963673 62.50998481886927) scale(1.1689139640815713) translate(-441.63715 -68.52)"></path> 
   <path id="path410903" style="font-style: oblique; font-weight: 700; font-size: 72px; line-height: 1; font-family: &quot;Uni Neue&quot;; font-variant-ligatures: none; text-align: center; text-anchor: middle; fill: rgb(210, 211, 201);" d="m 524.18994,106.608 c 2.376,-12.168 -8.064,-15.84 -14.616,-17.856 -4.608,-1.368 -7.632,-2.592 -7.056,-6.048 0.576,-2.88 3.024,-4.752 6.912,-4.752 4.104,0 8.352,1.44 11.592,3.528 0.648,0.432 1.224,0.36 1.728,-0.216 l 5.04,-6.48 c 0.504,-0.648 0.432,-1.296 -0.216,-1.728 -4.968,-3.672 -10.008,-5.472 -16.848,-5.472 -9.72,0 -17.712,3.888 -19.44,13.968 -1.728,10.224 5.256,14.976 12.96,17.208 5.328,1.512 9,2.952 8.424,6.552 -0.576,3.384 -4.248,5.04 -8.424,5.04 -4.464,0 -8.28,-1.656 -12.24,-4.752 -0.648,-0.504 -1.296,-0.504 -1.8,0.144 l -5.184,6.408 c -0.504,0.648 -0.432,1.296 0.144,1.8 4.896,4.32 10.296,6.984 17.856,6.984 9.36,0 18.864,-3.096 21.168,-14.328 z" transform="translate(0 291.4021697456711) translate(474.80715825917395 61.41588134848894) scale(1.1689139640815713) translate(-484.6849 -67.584)"></path> 
   <path id="path410905" style="font-style: oblique; font-weight: 700; font-size: 72px; line-height: 1; font-family: &quot;Uni Neue&quot;; font-variant-ligatures: none; text-align: center; text-anchor: middle; fill: rgb(210, 211, 201);" d="m 549.28981,69.888 c 0.144,-0.792 -0.288,-1.368 -1.152,-1.368 h -8.856 c -0.792,0 -1.224,0.432 -1.368,1.152 l -8.64,48.96 c -0.072,0.792 0.36,1.368 1.152,1.368 h 8.928 c 0.72,0 1.152,-0.432 1.296,-1.152 z" transform="translate(0 291.4021697456711) translate(530.425417232094 62.50998481886927) scale(1.1689139640815713) translate(-529.26604 -68.52)"></path> 
   <path id="path410907" style="font-style: oblique; font-weight: 700; font-size: 72px; line-height: 1; font-family: &quot;Uni Neue&quot;; font-variant-ligatures: none; text-align: center; text-anchor: middle; fill: rgb(210, 211, 201);" d="m 569.21806,120 c 12.096,0 20.304,-4.824 22.752,-19.008 l 2.088,-11.88 c 2.448,-14.256 -5.76,-20.592 -16.272,-20.592 h -16.92 c -0.72,0 -1.224,0.432 -1.296,1.152 l -8.64,48.96 c -0.144,0.792 0.288,1.368 1.08,1.368 z m 0.072,-41.04 h 7.2 c 5.112,0 7.2,2.52 6.12,8.712 l -2.232,12.816 c -1.152,6.408 -4.32,9.072 -9.36,9.072 h -7.128 z" transform="translate(0 291.4021697456711) translate(559.2234596213067 62.50998481886927) scale(1.1689139640815713) translate(-550.90262 -68.52)"></path> 
   <path id="path410909" style="font-style: oblique; font-weight: 700; font-size: 72px; line-height: 1; font-family: &quot;Uni Neue&quot;; font-variant-ligatures: none; text-align: center; text-anchor: middle; fill: rgb(210, 211, 201);" d="m 638.22894,69.888 c 0.144,-0.792 -0.288,-1.368 -1.152,-1.368 h -29.592 c -0.72,0 -1.152,0.432 -1.296,1.152 l -8.712,48.96 c -0.072,0.792 0.288,1.368 1.152,1.368 h 30.744 c 0.792,0 1.224,-0.36 1.368,-1.152 l 1.296,-7.848 c 0.072,-0.792 -0.36,-1.368 -1.152,-1.368 h -20.376 l 1.872,-10.728 h 17.352 c 0.72,0 1.152,-0.432 1.296,-1.152 l 1.368,-7.56 c 0.144,-0.864 -0.288,-1.368 -1.08,-1.368 h -17.136 l 1.8,-10.008 h 19.584 c 0.72,0 1.152,-0.432 1.296,-1.152 z" transform="translate(0 291.4021697456711) translate(617.1611010600368 62.50998481886927) scale(1.1689139640815713) translate(-597.46798 -68.52)"></path> 
   <path id="path410911" style="font-style: oblique; font-weight: 700; font-size: 72px; line-height: 1; font-family: &quot;Uni Neue&quot;; font-variant-ligatures: none; text-align: center; text-anchor: middle; fill: rgb(70, 65, 55);" d="m 679.80556,101.64 2.232,-12.744 c 2.16,-12.96 -4.32,-21.312 -16.632,-21.312 -12.6,0 -21.168,7.056 -23.256,18.864 l -2.232,12.744 c -2.232,12.816 4.032,21.744 16.344,21.744 12.96,0 21.456,-6.984 23.544,-19.296 z m -28.44,-1.152 2.376,-13.032 c 1.08,-5.904 4.464,-9.36 10.152,-9.36 5.472,0 7.632,3.96 6.624,9.72 l -2.304,13.176 c -1.008,5.832 -4.608,9.432 -10.296,9.432 -5.328,0 -7.56,-4.032 -6.552,-9.936 z" transform="translate(0 291.4021697456711) translate(669.7670103018206 61.41588134848894) scale(1.1689139640815713) translate(-639.47207 -67.584)"></path> 
   <path id="path410913" style="font-style: oblique; font-weight: 700; font-size: 72px; line-height: 1; font-family: &quot;Uni Neue&quot;; font-variant-ligatures: none; text-align: center; text-anchor: middle; fill: rgb(70, 65, 55);" d="m 696.04044,120 c 0.72,0 1.152,-0.288 1.512,-0.864 l 24.84,-41.688 c 0.288,-0.504 0.432,-0.936 0.504,-1.44 l 1.008,-6.12 c 0.144,-0.792 -0.288,-1.368 -1.08,-1.368 h -31.896 c -0.792,0 -1.224,0.36 -1.296,1.152 l -1.368,7.776 c -0.144,0.792 0.288,1.368 1.152,1.368 h 19.872 l -23.688,39.672 c -0.504,0.864 -0.072,1.512 0.864,1.512 z" transform="translate(0 291.4021697456711) translate(726.9450213118527 62.50998481886927) scale(1.1689139640815713) translate(-685.38757 -68.52)"></path> 
  </g> 
  <g id="tagline" style="font-style:oblique;font-weight:400;font-size:32px;line-height:1;font-family:Lato;font-variant-ligatures:none;text-align:center;text-anchor:middle"></g> 
 </g> 
</svg>