<svg xmlns:dc="http://purl.org/dc/elements/1.1/" xmlns:cc="http://creativecommons.org/ns#" xmlns:rdf="http://www.w3.org/1999/02/22-rdf-syntax-ns#" xmlns:svg="http://www.w3.org/2000/svg" xmlns="http://www.w3.org/2000/svg" id="svg65825" viewbox="0 0 1024 768" height="768px" width="1024px" version="1.1"> <metadata id="metadata65831"> 
  <rdf:rdf> 
   <cc:work rdf:about=""> 
    <dc:format>
     image/svg+xml
    </dc:format> 
    <dc:type rdf:resource="http://purl.org/dc/dcmitype/StillImage"></dc:type> 
   </cc:work> 
  </rdf:rdf> 
 </metadata> <defs id="defs65829"></defs> <g id="logo-group"> 
  <g id="title" style="font-style:normal;font-weight:500;font-size:72px;line-height:1;font-family:'Raleway Medium Alt1';font-variant-ligatures:none;text-align:center;text-anchor:middle" aria-label="DARWINO7"> 
   <path id="path65833" style="font-style: normal; font-weight: 500; font-size: 72px; line-height: 1; font-family: &quot;Raleway Medium Alt1&quot;; font-variant-ligatures: none; text-align: center; text-anchor: middle; fill: rgb(52, 50, 53);" d="m 365.72525,84.504 c -1.008,-3.096 -2.592,-5.832 -4.608,-8.136 -2.088,-2.232 -4.68,-4.104 -7.776,-5.472 -3.096,-1.296 -6.696,-2.016 -10.728,-2.016 h -17.712 v 5.76 h 17.712 c 2.88,0 5.4,0.504 7.704,1.512 2.232,1.008 4.104,2.376 5.688,4.032 1.584,1.728 2.736,3.816 3.528,6.264 0.792,2.448 1.224,5.112 1.224,7.92 0,2.88 -0.432,5.472 -1.224,7.92 -0.792,2.448 -1.944,4.536 -3.456,6.264 -1.512,1.8 -3.384,3.24 -5.688,4.176 -2.304,1.008 -4.896,1.512 -7.776,1.512 h -11.232 V 81.48 h -6.48 V 120 h 17.712 c 3.744,0 7.128,-0.576 10.152,-1.8 3.024,-1.224 5.688,-2.952 7.848,-5.184 2.16,-2.232 3.816,-4.896 4.968,-8.064 1.152,-3.168 1.728,-6.696 1.728,-10.584 0,-3.456 -0.576,-6.768 -1.584,-9.864 z" transform="translate(0 274.36463549975593) translate(252 70.79663334524052) scale(1.2966990903780564) translate(-324.90125 -68.88)"></path> 
   <path id="path65835" style="font-style: normal; font-weight: 500; font-size: 72px; line-height: 1; font-family: &quot;Raleway Medium Alt1&quot;; font-variant-ligatures: none; text-align: center; text-anchor: middle; fill: rgb(52, 50, 53);" d="m 398.5145,75.864 -2.808,7.632 6.48,16.488 h -12.816 l -1.944,5.04 h 16.2 l 6.048,14.976 h 6.912 z m -2.808,-6.984 h -5.472 L 369.2825,120 h 6.624 l 17.064,-43.632 z" transform="translate(0 274.36463549975593) translate(313.4392237759753 70.79663334524052) scale(1.2966990903780564) translate(-369.2825 -68.88)"></path> 
   <path id="path65837" style="font-style: normal; font-weight: 500; font-size: 72px; line-height: 1; font-family: &quot;Raleway Medium Alt1&quot;; font-variant-ligatures: none; text-align: center; text-anchor: middle; fill: rgb(52, 50, 53);" d="m 450.11937,100.416 c 1.584,-0.36 3.096,-1.08 4.392,-2.088 1.296,-0.936 2.44801,-2.088 3.384,-3.456 0.936,-1.296 1.656,-2.808 2.16001,-4.464 0.50399,-1.656 0.79199,-3.384 0.79199,-5.184 0,-2.016 -0.432,-3.96 -1.15199,-5.904 -0.79201,-1.944 -1.87201,-3.672 -3.24001,-5.256 -1.368,-1.584 -3.024,-2.808 -4.896,-3.744 -1.872,-0.936 -3.96,-1.44 -6.192,-1.44 h -21.888 V 120 h 6.48001 v -18.36 h 6.47999 l -3.59999,-5.76 h -2.88 V 74.64 h 15.048 c 1.224,0 2.37599,0.288 3.52799,0.864 1.152,0.576 2.088,1.296 2.952,2.304 0.86401,1.008 1.512,2.088 2.016,3.384 0.50401,1.296 0.792,2.664 0.792,4.032 0,1.44 -0.21599,2.736 -0.648,4.032 -0.504,1.368 -1.08,2.448 -1.8,3.456 -0.79199,1.008 -1.728,1.8 -2.808,2.304 -1.07999,0.576 -2.304,0.864 -3.6,0.864 h -5.688 l 3.74401,5.76 11.66399,18.36 h 7.344 z" transform="translate(0 274.36463549975593) translate(387.60635307744724 70.79663334524052) scale(1.2966990903780564) translate(-423.47937 -68.88)"></path> 
   <path id="path65839" style="font-style: normal; font-weight: 500; font-size: 72px; line-height: 1; font-family: &quot;Raleway Medium Alt1&quot;; font-variant-ligatures: none; text-align: center; text-anchor: middle; fill: rgb(52, 50, 53);" d="m 498.12313,77.88 -3.96001,-8.712 h -6.11999 l 7.128,15.264 z m 32.97599,-9 -17.28,43.488 -3.168,6.48 0.504,1.152 h 5.616 l 21.384,-51.12 z m -26.496,21.6 9.288,-21.312 h -6.12 l -19.584,43.2 -17.352,-43.488 h -6.98399 L 485.16312,120 h 5.61601 l 10.22399,-23.4 6.696,15.552 3.312,-6.408 z" transform="translate(0 274.36463549975593) translate(443.84647481754257 70.79663334524052) scale(1.2966990903780564) translate(-463.85113 -68.88)"></path> 
   <path id="path65841" style="font-style: normal; font-weight: 500; font-size: 72px; line-height: 1; font-family: &quot;Raleway Medium Alt1&quot;; font-variant-ligatures: none; text-align: center; text-anchor: middle; fill: rgb(52, 50, 53);" d="m 544.83875,120 h 6.48 V 68.88 h -6.48 z" transform="translate(0 274.36463549975593) translate(552.7531452745604 70.79663334524052) scale(1.2966990903780564) translate(-544.83875 -68.88)"></path> 
   <path id="path65843" style="font-style: normal; font-weight: 500; font-size: 72px; line-height: 1; font-family: &quot;Raleway Medium Alt1&quot;; font-variant-ligatures: none; text-align: center; text-anchor: middle; fill: rgb(52, 50, 53);" d="m 563.54187,120 h 6.48001 V 91.272 l -6.48001,-8.424 z m 36.72001,-51.048 v 39.744 L 568.58187,68.88 h -5.04 v 3.888 l 6.48001,8.208 31.24799,39.024 h 5.47201 V 68.952 Z" transform="translate(0 274.36463549975593) translate(580.8955612369263 70.79663334524052) scale(1.2966990903780564) translate(-563.54187 -68.88)"></path> 
   <path id="path65845" style="font-style: normal; font-weight: 500; font-size: 72px; line-height: 1; font-family: &quot;Raleway Medium Alt1&quot;; font-variant-ligatures: none; text-align: center; text-anchor: middle; fill: rgb(196, 200, 204);" d="m 657.03612,97.248 c -0.216,1.512 -0.504,3.024 -1.00799,4.464 -0.792,2.448 -1.94401,4.608 -3.456,6.48 -1.51201,1.872 -3.384,3.456 -5.472,4.608 -2.23201,1.152 -4.68001,1.728 -7.34401,1.728 -2.664,0 -5.03999,-0.504 -7.2,-1.656 -2.16,-1.08 -4.03199,-2.592 -5.544,-4.464 -1.58399,-1.872 -2.736,-3.96 -3.6,-6.408 -0.50399,-1.512 -0.86399,-3.096 -1.07999,-4.752 h -6.55201 c 0.216,2.304 0.72001,4.608 1.584,6.768 1.08,3.168 2.73601,5.904 4.89601,8.352 2.08799,2.448 4.60799,4.392 7.55999,5.832 2.952,1.44 6.264,2.16 9.864,2.16 3.456,0 6.62401,-0.648 9.57601,-2.088 2.952,-1.44 5.47199,-3.312 7.63199,-5.688 2.16001,-2.376 3.816,-5.112 5.04001,-8.28 0.86399,-2.232 1.43999,-4.608 1.72799,-7.056 z m -33.624,-10.152 c 0.792,-2.376 1.94401,-4.464 3.456,-6.408 1.51201,-1.872 3.384,-3.384 5.54401,-4.536 2.16,-1.152 4.60799,-1.728 7.34399,-1.728 2.52,0 4.896,0.576 7.05601,1.656 2.15999,1.152 3.95999,2.592 5.544,4.464 1.58399,1.872 2.73599,3.96 3.6,6.408 0.43199,1.296 0.79199,2.664 1.00799,3.96 h 6.552 c -0.288,-1.944 -0.792,-3.96 -1.43999,-5.832 -1.15201,-3.096 -2.808,-5.832 -4.89601,-8.352 -2.16,-2.448 -4.67999,-4.392 -7.55999,-5.904 -2.952,-1.512 -6.264,-2.304 -9.79201,-2.304 -3.528,0 -6.696,0.72 -9.648,2.16 -2.952,1.44 -5.472,3.312 -7.63199,5.688 -2.16001,2.448 -3.88801,5.184 -5.11201,8.28 -0.79199,2.088 -1.368,4.176 -1.584,6.264 h 6.55201 c 0.216,-1.224 0.576,-2.52 1.00799,-3.816 z" transform="translate(0 274.36463549975593) translate(652.522949766002 70.32982167270443) scale(1.2966990903780564) translate(-615.78012 -68.52)"></path> 
   <path id="path65847" style="font-style: normal; font-weight: 500; font-size: 72px; line-height: 1; font-family: &quot;Raleway Medium Alt1&quot;; font-variant-ligatures: none; text-align: center; text-anchor: middle; fill: rgb(196, 200, 204);" d="m 694.9115,83.856 -22.896,45.288 h 7.2 l 25.704,-51.12 h -36.288 v 5.832 z" transform="translate(0 274.36463549975593) translate(724.9453834083611 82.65364982765747) scale(1.2966990903780564) translate(-668.6315 -78.024)"></path> 
  </g> 
  <g id="tagline" style="font-style:oblique;font-weight:600;font-size:32px;line-height:1;font-family:Raleway;font-variant-ligatures:none;text-align:center;text-anchor:middle"></g> 
 </g> 
</svg>