<svg xmlns:dc="http://purl.org/dc/elements/1.1/" xmlns:cc="http://creativecommons.org/ns#" xmlns:rdf="http://www.w3.org/1999/02/22-rdf-syntax-ns#" xmlns:svg="http://www.w3.org/2000/svg" xmlns="http://www.w3.org/2000/svg" id="svg277828" viewbox="0 0 1024 768" height="768px" width="1024px" version="1.1"> <metadata id="metadata277834"> 
  <rdf:rdf> 
   <cc:work rdf:about=""> 
    <dc:format>
     image/svg+xml
    </dc:format> 
    <dc:type rdf:resource="http://purl.org/dc/dcmitype/StillImage"></dc:type> 
   </cc:work> 
  </rdf:rdf> 
 </metadata> <defs id="defs277832"></defs> <g id="logo-group"> 
  <g id="title" style="font-style:normal;font-weight:200;font-size:72px;line-height:1;font-family:Montserrat;font-variant-ligatures:none;text-align:center;text-anchor:middle" aria-label="EARTHLYO7"> 
   <path id="path277836" style="font-style: normal; font-weight: 200; font-size: 72px; line-height: 1; font-family: Montserrat; font-variant-ligatures: none; text-align: center; text-anchor: middle; fill: rgb(255, 255, 255);" d="m 312.73944,69.672 h 31.464 v 1.44 h -30.024 V 93.36 h 26.712 v 1.44 h -26.712 v 23.76 h 31.032 V 120 h -32.472 z" transform="translate(0 292.82699462721126) translate(252.00000000000006 61.86840167017864) scale(1.1662131368437632) translate(-312.73944 -69.672)"></path> 
   <path id="path277838" style="font-style: normal; font-weight: 200; font-size: 72px; line-height: 1; font-family: Montserrat; font-variant-ligatures: none; text-align: center; text-anchor: middle; fill: rgb(255, 255, 255);" d="m 396.94569,120 -7.056,-15.336 h -30.528 l -6.984,15.336 h -1.728 l 23.04,-50.328 h 1.584 l 23.328,50.328 z m -36.936,-16.776 h 29.16 l -14.688,-31.896 z" transform="translate(0 292.82699462721126) translate(302.04249725525017 61.86840167017864) scale(1.1662131368437632) translate(-350.64969 -69.672)"></path> 
   <path id="path277840" style="font-style: normal; font-weight: 200; font-size: 72px; line-height: 1; font-family: Montserrat; font-variant-ligatures: none; text-align: center; text-anchor: middle; fill: rgb(255, 255, 255);" d="m 444.79306,86.016 q 0,6.48 -3.384,10.656 -3.384,4.104 -9.648,5.472 l 13.032,17.856 h -1.8 l -12.816,-17.568 q -2.88,0.288 -4.608,0.288 h -15.624 V 120 h -1.44 V 69.672 h 17.064 q 9.144,0 14.184,4.32 5.04,4.248 5.04,12.024 z m -19.224,15.264 q 8.496,0 13.104,-3.96 4.68,-4.032 4.68,-11.304 0,-7.128 -4.68,-11.016 -4.608,-3.888 -13.104,-3.888 h -15.624 v 30.168 z" transform="translate(0 292.82699462721126) translate(375.34525547042557 61.86840167017864) scale(1.1662131368437632) translate(-408.50506 -69.672)"></path> 
   <path id="path277842" style="font-style: normal; font-weight: 200; font-size: 72px; line-height: 1; font-family: Montserrat; font-variant-ligatures: none; text-align: center; text-anchor: middle; fill: rgb(255, 255, 255);" d="m 452.25631,69.672 h 36 v 1.44 h -17.28 V 120 h -1.44 V 71.112 h -17.28 z" transform="translate(0 292.82699462721126) translate(432.19960365798005 61.86840167017864) scale(1.1662131368437632) translate(-452.25631 -69.672)"></path> 
   <path id="path277844" style="font-style: normal; font-weight: 200; font-size: 72px; line-height: 1; font-family: Montserrat; font-variant-ligatures: none; text-align: center; text-anchor: middle; fill: rgb(255, 255, 255);" d="m 498.36444,69.672 h 1.44 v 24.192 h 36.216 V 69.672 h 1.44 V 120 h -1.44 V 95.304 h -36.216 V 120 h -1.44 z" transform="translate(0 292.82699462721126) translate(491.80257626349896 61.86840167017864) scale(1.1662131368437632) translate(-498.36444 -69.672)"></path> 
   <path id="path277846" style="font-style: normal; font-weight: 200; font-size: 72px; line-height: 1; font-family: Montserrat; font-variant-ligatures: none; text-align: center; text-anchor: middle; fill: rgb(255, 255, 255);" d="m 555.88006,69.672 h 1.44 v 48.888 h 22.536 V 120 h -23.976 z" transform="translate(0 292.82699462721126) translate(564.7091135654317 61.86840167017864) scale(1.1662131368437632) translate(-555.88006 -69.672)"></path> 
   <path id="path277848" style="font-style: normal; font-weight: 200; font-size: 72px; line-height: 1; font-family: Montserrat; font-variant-ligatures: none; text-align: center; text-anchor: middle; fill: rgb(255, 255, 255);" d="m 624.87294,69.672 -20.232,30.96 V 120 h -1.44 v -19.368 l -20.52,-30.96 h 1.728 l 19.512,29.52 19.224,-29.52 z" transform="translate(0 292.82699462721126) translate(601.7957175846238 61.86840167017864) scale(1.1662131368437632) translate(-582.68094 -69.672)"></path> 
   <path id="path277850" style="font-style: normal; font-weight: 200; font-size: 72px; line-height: 1; font-family: Montserrat; font-variant-ligatures: none; text-align: center; text-anchor: middle; fill: rgb(255, 255, 255);" d="m 651.06519,69.384 q 6.984,0 12.888,3.456 5.976,3.384 9.432,9.216 3.528,5.832 3.528,12.672 0,6.84 -3.528,12.744 -3.456,5.832 -9.432,9.288 -5.904,3.456 -12.888,3.456 -6.984,0 -12.96,-3.456 -5.904,-3.456 -9.432,-9.288 -3.456,-5.904 -3.456,-12.744 0,-6.84 3.456,-12.672 3.528,-5.832 9.432,-9.216 5.976,-3.456 12.96,-3.456 z m 0,1.44 q -6.552,0 -12.168,3.24 -5.616,3.24 -8.928,8.784 -3.312,5.472 -3.312,11.88 0,6.48 3.312,12.024 3.312,5.544 8.928,8.784 5.616,3.24 12.168,3.24 6.552,0 12.168,-3.24 5.616,-3.24 8.928,-8.784 3.312,-5.544 3.312,-12.024 0,-6.408 -3.312,-11.88 -3.312,-5.544 -8.928,-8.784 -5.616,-3.24 -12.168,-3.24 z" transform="translate(0 292.82699462721126) translate(657.2331168109132 61.532532286767676) scale(1.1662131368437632) translate(-625.21719 -69.384)"></path> 
   <path id="path277852" style="font-style: normal; font-weight: 200; font-size: 72px; line-height: 1; font-family: Montserrat; font-variant-ligatures: none; text-align: center; text-anchor: middle; fill: rgb(255, 255, 255);" d="m 683.13106,69.672 h 35.496 v 1.8 L 694.00306,120 h -1.584 l 24.912,-48.888 h -32.76 v 8.064 h -1.44 z" transform="translate(0 292.82699462721126) translate(730.604098494594 61.86840167017864) scale(1.1662131368437632) translate(-683.13106 -69.672)"></path> 
  </g> 
  <g id="tagline" style="font-style:normal;font-weight:400;font-size:32px;line-height:1;font-family:Montserrat;font-variant-ligatures:none;text-align:center;text-anchor:middle"></g> 
 </g> 
</svg>