<svg xmlns:dc="http://purl.org/dc/elements/1.1/" xmlns:cc="http://creativecommons.org/ns#" xmlns:rdf="http://www.w3.org/1999/02/22-rdf-syntax-ns#" xmlns:svg="http://www.w3.org/2000/svg" xmlns="http://www.w3.org/2000/svg" id="svg25113" viewbox="0 0 1024 768" height="768px" width="1024px" version="1.1"> <metadata id="metadata25119"> 
  <rdf:rdf> 
   <cc:work rdf:about=""> 
    <dc:format>
     image/svg+xml
    </dc:format> 
    <dc:type rdf:resource="http://purl.org/dc/dcmitype/StillImage"></dc:type> 
   </cc:work> 
  </rdf:rdf> 
 </metadata> <defs id="defs25117"></defs> <g id="logo-group"> 
  <g id="title" style="font-style:normal;font-weight:700;font-size:72px;line-height:1;font-family:'Comfortaa Bold Alt1';font-variant-ligatures:none;text-align:center;text-anchor:middle" aria-label="easywayo7"> 
   <path id="path25121" style="font-style: normal; font-weight: 700; font-size: 72px; line-height: 1; font-family: &quot;Comfortaa Bold Alt1&quot;; font-variant-ligatures: none; text-align: center; text-anchor: middle; fill: rgb(255, 255, 255);" d="m 357.56788,102 c 0.57599,-0.576 0.93599,-1.368 0.93599,-2.304 0,-3.744 -0.71999,-7.128 -2.15999,-10.08 -1.44001,-2.88 -3.52801,-5.184 -6.192,-6.84 -2.736,-1.584 -5.904,-2.448 -9.57601,-2.448 -3.74399,0 -7.128,0.864 -10.08,2.592 -2.95199,1.728 -5.256,4.104 -6.912,7.128 -1.656,3.024 -2.448,6.48 -2.448,10.296 0,3.888 0.864,7.272 2.592,10.296 1.728,3.024 4.176,5.4 7.344,7.128 3.096,1.728 6.624,2.52 10.584,2.52 2.16,0 4.464,-0.36 6.91201,-1.224 2.44799,-0.792 4.464,-1.872 6.12,-3.168 0.71999,-0.576 1.15199,-1.296 1.15199,-2.16 0,-0.864 -0.432,-1.728 -1.29599,-2.448 -0.57601,-0.432 -1.296,-0.72 -2.16001,-0.72 -0.936,0 -1.728,0.288 -2.37599,0.792 -1.00801,0.792 -2.30401,1.44 -3.88801,1.944 -1.584,0.576 -3.024,0.792 -4.464,0.792 -3.672,0 -6.768,-1.008 -9.28799,-3.096 -2.52001,-2.016 -4.03201,-4.752 -4.536,-8.136 h 27.35999 c 0.93601,0 1.728,-0.288 2.37601,-0.864 z m -25.56,-12.6 c 2.15999,-1.872 5.03999,-2.88 8.56799,-2.88 3.168,0 5.688,1.008 7.704,2.88 1.94401,1.944 3.168,4.536 3.6,7.704 h -23.976 c 0.576,-3.168 1.944,-5.76 4.10401,-7.704 z" transform="translate(0 261.65637491054997) translate(252 94.99781333995207) scale(1.3540211799117627) translate(-321.13587 -80.328)"></path> 
   <path id="path25123" style="font-style: normal; font-weight: 700; font-size: 72px; line-height: 1; font-family: &quot;Comfortaa Bold Alt1&quot;; font-variant-ligatures: none; text-align: center; text-anchor: middle; fill: rgb(255, 255, 255);" d="m 404.12037,100.344 c 0,-3.672 -0.936,-7.128 -2.664,-10.152 -1.72799,-3.024 -4.104,-5.472 -7.128,-7.2 -3.024,-1.728 -6.336,-2.664 -10.00799,-2.664 -3.74401,0 -7.128,0.936 -10.152,2.664 -3.024,1.728 -5.40001,4.176 -7.12801,7.2 -1.728,3.024 -2.592,6.408 -2.592,10.152 0,3.744 0.792,7.2 2.376,10.224 1.584,3.024 3.816,5.4 6.624,7.128 2.88,1.8 5.976,2.664 9.43201,2.664 h 0.57599 17.208 c 0.936,0 1.72801,-0.36 2.448,-1.008 0.648,-0.648 1.008,-1.44 1.008,-2.448 V 116.4 Z m -30.96,6.912 c -1.152,-2.016 -1.656,-4.32 -1.656,-6.912 0,-2.52 0.504,-4.824 1.656,-6.912 1.152,-2.016 2.664,-3.672 4.608,-4.824 1.944,-1.152 4.104,-1.8 6.55201,-1.8 2.37599,0 4.536,0.648 6.47999,1.8 1.944,1.152 3.456,2.808 4.608,4.824 1.08001,2.088 1.656,4.392 1.656,6.912 0,2.592 -0.57599,4.896 -1.656,6.912 -1.152,2.016 -2.664,3.672 -4.608,4.824 -1.94399,1.152 -4.104,1.728 -6.47999,1.728 -2.44801,0 -4.60801,-0.576 -6.55201,-1.728 -1.944,-1.152 -3.456,-2.808 -4.608,-4.824 z" transform="translate(0 261.65637491054997) translate(310.6460423549282 94.99781333995207) scale(1.3540211799117627) translate(-364.44837 -80.328)"></path> 
   <path id="path25125" style="font-style: normal; font-weight: 700; font-size: 72px; line-height: 1; font-family: &quot;Comfortaa Bold Alt1&quot;; font-variant-ligatures: none; text-align: center; text-anchor: middle; fill: rgb(255, 255, 255);" d="m 437.29662,81.84 c -2.448,-1.008 -5.256,-1.512 -8.352,-1.512 -2.592,0 -4.96799,0.432 -7.2,1.224 -2.304,0.864 -4.104,2.088 -5.472,3.672 -1.44,1.656 -2.088,3.672 -2.088,5.976 0,5.832 4.608,9.648 13.824,11.376 3.52801,0.72 6.048,1.512 7.56,2.52 1.44,1.008 2.23201,2.232 2.23201,3.672 0,1.584 -0.79201,2.808 -2.30401,3.672 -1.512,0.936 -3.6,1.368 -6.336,1.368 -2.08799,0 -4.032,-0.36 -5.832,-1.08 -1.872,-0.72 -3.24,-1.656 -4.104,-2.664 -0.86399,-0.864 -1.8,-1.296 -2.73599,-1.296 -0.79201,0 -1.65601,0.36 -2.52001,1.008 -1.008,0.72 -1.44,1.656 -1.44,2.808 0,0.864 0.288,1.656 0.936,2.232 1.58401,1.656 3.888,2.952 6.768,3.96 2.88,1.008 5.904,1.512 9.216,1.512 3.24,0 6.048,-0.504 8.35201,-1.512 2.30399,-1.008 4.10399,-2.448 5.32799,-4.248 1.152,-1.8 1.8,-3.816 1.8,-6.048 0,-2.952 -1.152,-5.4 -3.312,-7.272 -2.16,-1.872 -5.904,-3.312 -11.088,-4.392 -2.592,-0.504 -4.536,-1.008 -5.832,-1.584 -1.368,-0.576 -2.304,-1.152 -2.736,-1.8 -0.504,-0.648 -0.71999,-1.44 -0.71999,-2.448 0,-1.296 0.64799,-2.376 2.08799,-3.096 1.44,-0.72 3.24,-1.152 5.47201,-1.152 1.87199,0 3.52799,0.288 4.89599,0.72 1.296,0.432 2.59201,1.224 3.81601,2.304 1.00799,0.936 2.08799,1.368 3.38399,1.368 0.792,0 1.44001,-0.144 2.016,-0.576 0.79201,-0.648 1.224,-1.368 1.224,-2.232 0,-0.72 -0.36,-1.512 -0.936,-2.304 -1.44,-1.728 -3.456,-3.168 -5.904,-4.176 z" transform="translate(0 261.65637491054997) translate(375.74771919038074 94.99781333995207) scale(1.3540211799117627) translate(-412.52862 -80.328)"></path> 
   <path id="path25127" style="font-style: normal; font-weight: 700; font-size: 72px; line-height: 1; font-family: &quot;Comfortaa Bold Alt1&quot;; font-variant-ligatures: none; text-align: center; text-anchor: middle; fill: rgb(255, 255, 255);" d="m 486.54237,83.784 c 0,-1.296 -0.79199,-2.232 -2.23199,-2.808 -0.57601,-0.216 -1.15201,-0.36 -1.728,-0.36 -1.296,0 -2.23201,0.72 -2.808,2.088 l -11.59201,26.136 -13.176,-26.208 c -0.71999,-1.296 -1.728,-2.016 -3.024,-2.016 -0.57599,0 -1.008,0.144 -1.44,0.288 -0.64799,0.288 -1.152,0.72 -1.512,1.224 -0.432,0.576 -0.57599,1.152 -0.57599,1.728 0,0.576 0.072,1.08 0.35999,1.512 l 16.2,30.744 -7.2,16.2 c -0.28799,0.576 -0.43199,1.152 -0.43199,1.728 0,1.296 0.71999,2.232 2.15999,2.808 0.64801,0.288 1.224,0.432 1.728,0.432 1.296,0 2.23201,-0.72 2.808,-2.232 l 22.032,-49.536 c 0.288,-0.648 0.432,-1.224 0.432,-1.728 z" transform="translate(0 261.65637491054997) translate(424.3919591348076 95.38777143976668) scale(1.3540211799117627) translate(-448.45438 -80.616)"></path> 
   <path id="path25129" style="font-style: normal; font-weight: 700; font-size: 72px; line-height: 1; font-family: &quot;Comfortaa Bold Alt1&quot;; font-variant-ligatures: none; text-align: center; text-anchor: middle; fill: rgb(255, 255, 255);" d="m 537.09087,81.408 c -0.504,-0.504 -1.22399,-0.792 -2.232,-0.792 -1.87199,0 -3.096,1.152 -3.744,3.312 l -7.91999,24.768 -6.48001,-25.344 c -0.288,-0.792 -0.72,-1.44 -1.296,-1.944 -0.57599,-0.504 -1.36799,-0.792 -2.232,-0.792 -1.008,0 -1.79999,0.288 -2.376,0.792 -0.576,0.504 -1.008,1.152 -1.22399,1.944 l -7.344,24.84 -7.776,-24.264 c -0.43201,-1.152 -0.93601,-1.944 -1.512,-2.52 -0.57601,-0.504 -1.368,-0.792 -2.23201,-0.792 -2.01599,0 -3.024,1.008 -3.024,3.024 0,0.72 0.072,1.44 0.288,2.016 l 10.656,31.968 c 0.216,0.72 0.64801,1.296 1.296,1.728 0.64801,0.432 1.368,0.648 2.16001,0.648 0.71999,0 1.44,-0.216 2.08799,-0.648 0.648,-0.432 1.08001,-1.008 1.368,-1.728 l 7.416,-26.136 7.05601,26.136 c 0.144,0.72 0.576,1.296 1.22399,1.728 0.648,0.432 1.368,0.648 2.23201,0.648 0.71999,0 1.43999,-0.216 2.08799,-0.648 0.57601,-0.432 1.00801,-1.008 1.29601,-1.728 l 10.65599,-31.968 c 0.216,-0.576 0.36001,-1.296 0.36001,-2.088 0,-0.864 -0.28801,-1.584 -0.79201,-2.16 z" transform="translate(0 261.65637491054997) translate(477.529829789643 95.38777143976668) scale(1.3540211799117627) translate(-487.69887 -80.616)"></path> 
   <path id="path25131" style="font-style: normal; font-weight: 700; font-size: 72px; line-height: 1; font-family: &quot;Comfortaa Bold Alt1&quot;; font-variant-ligatures: none; text-align: center; text-anchor: middle; fill: rgb(255, 255, 255);" d="m 581.72975,100.344 c 0,-3.672 -0.936,-7.128 -2.664,-10.152 -1.728,-3.024 -4.104,-5.472 -7.128,-7.2 -3.024,-1.728 -6.336,-2.664 -10.008,-2.664 -3.744,0 -7.128,0.936 -10.152,2.664 -3.024,1.728 -5.4,4.176 -7.128,7.2 -1.728,3.024 -2.592,6.408 -2.592,10.152 0,3.744 0.792,7.2 2.376,10.224 1.584,3.024 3.816,5.4 6.624,7.128 2.88,1.8 5.976,2.664 9.432,2.664 h 0.576 17.208 c 0.936,0 1.728,-0.36 2.448,-1.008 0.648,-0.648 1.008,-1.44 1.008,-2.448 V 116.4 Z m -30.96,6.912 c -1.152,-2.016 -1.656,-4.32 -1.656,-6.912 0,-2.52 0.504,-4.824 1.656,-6.912 1.152,-2.016 2.664,-3.672 4.608,-4.824 1.944,-1.152 4.104,-1.8 6.552,-1.8 2.376,0 4.536,0.648 6.48,1.8 1.944,1.152 3.456,2.808 4.608,4.824 1.08,2.088 1.656,4.392 1.656,6.912 0,2.592 -0.576,4.896 -1.656,6.912 -1.152,2.016 -2.664,3.672 -4.608,4.824 -1.944,1.152 -4.104,1.728 -6.48,1.728 -2.448,0 -4.608,-0.576 -6.552,-1.728 -1.944,-1.152 -3.456,-2.808 -4.608,-4.824 z" transform="translate(0 261.65637491054997) translate(551.132904625925 94.99781333995207) scale(1.3540211799117627) translate(-542.05775 -80.328)"></path> 
   <path id="path25133" style="font-style: normal; font-weight: 700; font-size: 72px; line-height: 1; font-family: &quot;Comfortaa Bold Alt1&quot;; font-variant-ligatures: none; text-align: center; text-anchor: middle; fill: rgb(255, 255, 255);" d="m 625.058,83.784 c 0,-1.296 -0.792,-2.232 -2.232,-2.808 -0.576,-0.216 -1.152,-0.36 -1.728,-0.36 -1.296,0 -2.232,0.72 -2.808,2.088 L 606.698,108.84 593.522,82.632 c -0.72,-1.296 -1.728,-2.016 -3.024,-2.016 -0.576,0 -1.008,0.144 -1.44,0.288 -0.648,0.288 -1.152,0.72 -1.512,1.224 -0.432,0.576 -0.576,1.152 -0.576,1.728 0,0.576 0.072,1.08 0.36,1.512 l 16.2,30.744 -7.2,16.2 c -0.288,0.576 -0.432,1.152 -0.432,1.728 0,1.296 0.72,2.232 2.16,2.808 0.648,0.288 1.224,0.432 1.728,0.432 1.296,0 2.232,-0.72 2.808,-2.232 l 22.032,-49.536 c 0.288,-0.648 0.432,-1.224 0.432,-1.728 z" transform="translate(0 261.65637491054997) translate(611.945042363417 95.38777143976668) scale(1.3540211799117627) translate(-586.97 -80.616)"></path> 
   <path id="path25135" style="font-style: normal; font-weight: 700; font-size: 72px; line-height: 1; font-family: &quot;Comfortaa Bold Alt1&quot;; font-variant-ligatures: none; text-align: center; text-anchor: middle; fill: rgb(221, 221, 221);" d="m 658.14425,82.92 c -3.024,-1.728 -6.408,-2.592 -10.152,-2.592 -3.888,0 -7.272,0.864 -10.296,2.592 -3.024,1.728 -5.4,4.032 -7.056,7.056 -1.728,3.024 -2.52,6.48 -2.52,10.368 0,3.888 0.792,7.272 2.52,10.296 1.656,3.024 4.032,5.4 7.056,7.128 3.024,1.728 6.408,2.52 10.296,2.52 3.816,0 7.2,-0.792 10.224,-2.52 3.024,-1.728 5.328,-4.104 7.056,-7.128 1.656,-3.024 2.52,-6.408 2.52,-10.296 0,-3.888 -0.864,-7.344 -2.592,-10.368 -1.728,-3.024 -4.032,-5.328 -7.056,-7.056 z m -16.776,5.616 c 1.944,-1.152 4.176,-1.728 6.624,-1.728 2.448,0 4.608,0.576 6.552,1.728 1.944,1.152 3.456,2.808 4.536,4.824 1.08,2.088 1.656,4.392 1.656,6.984 0,2.592 -0.576,4.968 -1.656,6.984 -1.08,2.016 -2.592,3.6 -4.536,4.752 -1.944,1.152 -4.104,1.728 -6.552,1.728 -2.448,0 -4.68,-0.576 -6.624,-1.728 -1.944,-1.152 -3.456,-2.736 -4.536,-4.752 -1.152,-2.016 -1.656,-4.392 -1.656,-6.984 0,-2.592 0.504,-4.896 1.656,-6.984 1.08,-2.016 2.592,-3.672 4.536,-4.824 z" transform="translate(0 261.65637491054997) translate(667.6633524220811 94.99781333995207) scale(1.3540211799117627) translate(-628.12025 -80.328)"></path> 
   <path id="path25137" style="font-style: normal; font-weight: 700; font-size: 72px; line-height: 1; font-family: &quot;Comfortaa Bold Alt1&quot;; font-variant-ligatures: none; text-align: center; text-anchor: middle; fill: rgb(221, 221, 221);" d="m 671.40913,70.104 c 0.72,0.72 1.58399,1.008 2.66399,1.008 h 21.88801 l -20.664,42.912 c -0.432,0.864 -0.648,1.656 -0.648,2.304 0,1.008 0.36,1.872 1.07999,2.592 0.72,0.72 1.512,1.08 2.52001,1.08 0.64799,0 1.29599,-0.144 1.94399,-0.504 0.57601,-0.36 1.08001,-0.864 1.44,-1.512 l 23.04001,-48.6 c 0.288,-0.72 0.504,-1.368 0.504,-1.944 0,-1.008 -0.36,-1.872 -1.08001,-2.592 -0.72,-0.72 -1.584,-1.08 -2.59199,-1.08 h -27.43201 c -1.08,0 -1.94399,0.36 -2.66399,1.08 -0.72001,0.72 -1.00801,1.584 -1.00801,2.592 0,1.08 0.288,1.944 1.00801,2.664 z" transform="translate(0 261.65637491054997) translate(724.9125459071769 72.57522260061327) scale(1.3540211799117627) translate(-670.40112 -63.768)"></path> 
  </g> 
  <g id="tagline" style="font-style:normal;font-weight:500;font-size:32px;line-height:1;font-family:Raleway;font-variant-ligatures:none;text-align:center;text-anchor:middle"></g> 
 </g> 
</svg>