<svg xmlns:dc="http://purl.org/dc/elements/1.1/" xmlns:cc="http://creativecommons.org/ns#" xmlns:rdf="http://www.w3.org/1999/02/22-rdf-syntax-ns#" xmlns:svg="http://www.w3.org/2000/svg" xmlns="http://www.w3.org/2000/svg" id="svg70365" viewbox="0 0 1024 768" height="768px" width="1024px" version="1.1"> <metadata id="metadata70371"> 
  <rdf:rdf> 
   <cc:work rdf:about=""> 
    <dc:format>
     image/svg+xml
    </dc:format> 
    <dc:type rdf:resource="http://purl.org/dc/dcmitype/StillImage"></dc:type> 
   </cc:work> 
  </rdf:rdf> 
 </metadata> <defs id="defs70369"></defs> <g id="logo-group"> 
  <g id="title" style="font-style:normal;font-weight:300;font-size:72px;line-height:1;font-family:'Uni Neue';font-variant-ligatures:none;text-align:center;text-anchor:middle" aria-label="Eldoradoo7"> 
   <path id="path70373" style="font-style: normal; font-weight: 300; font-size: 72px; line-height: 1; font-family: &quot;Uni Neue&quot;; font-variant-ligatures: none; text-align: center; text-anchor: middle; fill: rgb(0, 0, 0);" d="m 347.40856,94.872 h 24.624 c 0.288,0 0.504,-0.144 0.504,-0.432 v -1.368 c 0,-0.288 -0.216,-0.432 -0.504,-0.432 h -24.624 V 70.752 h 26.136 c 0.288,0 0.432,-0.144 0.432,-0.432 v -1.368 c 0,-0.288 -0.144,-0.432 -0.432,-0.432 h -28.08 c -0.288,0 -0.504,0.144 -0.504,0.432 v 50.616 c 0,0.288 0.216,0.432 0.504,0.432 h 29.16 c 0.288,0 0.432,-0.144 0.432,-0.432 V 118.2 c 0,-0.288 -0.144,-0.432 -0.432,-0.432 h -27.216 z" transform="translate(0 268.28924873294534) translate(252 78.68451359985822) scale(1.4186297956780243) translate(-344.96056 -68.52)"></path> 
   <path id="path70375" style="font-style: normal; font-weight: 300; font-size: 72px; line-height: 1; font-family: &quot;Uni Neue&quot;; font-variant-ligatures: none; text-align: center; text-anchor: middle; fill: rgb(0, 0, 0);" d="m 397.05256,120.432 c 0.288,-0.072 0.432,-0.288 0.432,-0.576 v -1.224 c 0,-0.288 -0.144,-0.36 -0.432,-0.36 -1.44,0.216 -3.096,0.288 -4.104,0.288 -4.248,0 -6.912,-2.664 -6.912,-9.504 V 68.952 c 0,-0.288 -0.144,-0.432 -0.432,-0.432 h -1.44 c -0.288,0 -0.432,0.144 -0.432,0.432 v 39.888 c 0,8.424 3.6,11.88 9.144,11.88 1.152,0 2.952,-0.144 4.176,-0.288 z" transform="translate(0 268.28924873294534) translate(311.2590038250624 78.68451359985822) scale(1.4186297956780243) translate(-383.73256 -68.52)"></path> 
   <path id="path70377" style="font-style: normal; font-weight: 300; font-size: 72px; line-height: 1; font-family: &quot;Uni Neue&quot;; font-variant-ligatures: none; text-align: center; text-anchor: middle; fill: rgb(0, 0, 0);" d="m 427.42644,85.584 c -3.096,-2.016 -7.056,-3.312 -11.232,-3.312 -9.432,0 -15.192,4.968 -15.192,15.408 v 7.704 c 0,10.584 5.832,15.336 15.264,15.336 4.608,0 9.216,-0.936 13.104,-2.52 0.216,-0.072 0.36,-0.288 0.36,-0.504 V 68.952 c 0,-0.288 -0.216,-0.432 -0.504,-0.432 h -1.368 c -0.288,0 -0.432,0.144 -0.432,0.432 z m -24.12,19.8 V 97.68 c 0,-9.288 4.68,-13.248 12.96,-13.248 4.032,0 7.992,1.296 11.16,3.456 v 28.8 c -3.24,1.152 -7.128,1.944 -11.16,1.944 -8.208,0 -12.96,-3.888 -12.96,-13.248 z" transform="translate(0 268.28924873294534) translate(340.01445954788045 78.68451359985822) scale(1.4186297956780243) translate(-401.00244 -68.52)"></path> 
   <path id="path70379" style="font-style: normal; font-weight: 300; font-size: 72px; line-height: 1; font-family: &quot;Uni Neue&quot;; font-variant-ligatures: none; text-align: center; text-anchor: middle; fill: rgb(0, 0, 0);" d="M 469.27644,107.184 V 95.808 c 0,-7.56 -5.184,-13.536 -14.976,-13.536 -9.72,0 -14.976,5.976 -14.976,13.536 v 11.376 c 0,7.632 5.256,13.536 14.976,13.536 9.792,0 14.976,-5.904 14.976,-13.536 z m -27.648,0 V 95.808 c 0,-6.336 4.248,-11.376 12.672,-11.376 8.496,0 12.672,5.04 12.672,11.376 v 11.376 c 0,6.408 -4.176,11.448 -12.672,11.448 -8.424,0 -12.672,-5.04 -12.672,-11.448 z" transform="translate(0 268.28924873294534) translate(398.6350799648877 98.19351055002242) scale(1.4186297956780243) translate(-439.32444 -82.272)"></path> 
   <path id="path70381" style="font-style: normal; font-weight: 300; font-size: 72px; line-height: 1; font-family: &quot;Uni Neue&quot;; font-variant-ligatures: none; text-align: center; text-anchor: middle; fill: rgb(0, 0, 0);" d="m 480.74244,120 c 0.288,0 0.432,-0.144 0.432,-0.432 V 86.304 c 3.096,-1.224 6.84,-1.872 10.296,-1.872 2.376,0 4.896,0.216 7.128,0.576 0.288,0.072 0.432,-0.072 0.432,-0.36 v -1.224 c 0,-0.288 -0.072,-0.432 -0.432,-0.504 -2.304,-0.36 -4.824,-0.648 -7.272,-0.648 -4.104,0 -8.64,0.864 -12.096,2.52 -0.216,0.072 -0.36,0.288 -0.36,0.504 v 34.272 c 0,0.288 0.216,0.432 0.432,0.432 z" transform="translate(0 268.28924873294534) translate(458.9921032518049 98.19351055002242) scale(1.4186297956780243) translate(-478.87044 -82.272)"></path> 
   <path id="path70383" style="font-style: normal; font-weight: 300; font-size: 72px; line-height: 1; font-family: &quot;Uni Neue&quot;; font-variant-ligatures: none; text-align: center; text-anchor: middle; fill: rgb(0, 0, 0);" d="m 504.02544,85.944 c -0.144,0.144 -0.072,0.36 0,0.576 l 0.648,1.008 c 0.144,0.144 0.36,0.216 0.648,0.072 2.736,-1.728 6.984,-3.168 11.52,-3.168 7.992,0 11.088,4.32 11.088,11.16 v 3.744 c -2.88,-0.648 -6.84,-1.368 -11.088,-1.368 -9.288,0 -14.76,4.032 -14.76,11.232 0,7.272 6.336,11.52 14.76,11.52 5.328,0 10.008,-1.224 13.032,-2.52 0.288,-0.072 0.36,-0.36 0.36,-0.504 V 95.52 c 0,-8.064 -4.248,-13.248 -13.32,-13.248 -5.184,0 -9.792,1.512 -12.888,3.672 z m 0.36,23.256 c 0,-5.832 4.32,-9.144 12.456,-9.144 4.104,0 8.28,0.648 11.088,1.296 v 15.264 c -2.664,1.008 -6.408,2.016 -11.088,2.016 -7.272,0 -12.456,-3.672 -12.456,-9.432 z" transform="translate(0 268.28924873294534) translate(496.17580882632154 98.19351055002242) scale(1.4186297956780243) translate(-502.08144 -82.272)"></path> 
   <path id="path70385" style="font-style: normal; font-weight: 300; font-size: 72px; line-height: 1; font-family: &quot;Uni Neue&quot;; font-variant-ligatures: none; text-align: center; text-anchor: middle; fill: rgb(0, 0, 0);" d="m 565.80144,85.584 c -3.096,-2.016 -7.056,-3.312 -11.232,-3.312 -9.432,0 -15.192,4.968 -15.192,15.408 v 7.704 c 0,10.584 5.832,15.336 15.264,15.336 4.608,0 9.216,-0.936 13.104,-2.52 0.216,-0.072 0.36,-0.288 0.36,-0.504 V 68.952 c 0,-0.288 -0.216,-0.432 -0.504,-0.432 h -1.368 c -0.288,0 -0.432,0.144 -0.432,0.432 z m -24.12,19.8 V 97.68 c 0,-9.288 4.68,-13.248 12.96,-13.248 4.032,0 7.992,1.296 11.16,3.456 v 28.8 c -3.24,1.152 -7.128,1.944 -11.16,1.944 -8.208,0 -12.96,-3.888 -12.96,-13.248 z" transform="translate(0 268.28924873294534) translate(553.3409150729632 78.68451359985822) scale(1.4186297956780243) translate(-539.37744 -68.52)"></path> 
   <path id="path70387" style="font-style: normal; font-weight: 300; font-size: 72px; line-height: 1; font-family: &quot;Uni Neue&quot;; font-variant-ligatures: none; text-align: center; text-anchor: middle; fill: rgb(0, 0, 0);" d="M 607.65144,107.184 V 95.808 c 0,-7.56 -5.184,-13.536 -14.976,-13.536 -9.72,0 -14.976,5.976 -14.976,13.536 v 11.376 c 0,7.632 5.256,13.536 14.976,13.536 9.792,0 14.976,-5.904 14.976,-13.536 z m -27.648,0 V 95.808 c 0,-6.336 4.248,-11.376 12.672,-11.376 8.496,0 12.672,5.04 12.672,11.376 v 11.376 c 0,6.408 -4.176,11.448 -12.672,11.448 -8.424,0 -12.672,-5.04 -12.672,-11.448 z" transform="translate(0 268.28924873294534) translate(611.9615354899705 98.19351055002242) scale(1.4186297956780243) translate(-577.69944 -82.272)"></path> 
   <path id="path70389" style="font-style: normal; font-weight: 300; font-size: 72px; line-height: 1; font-family: &quot;Uni Neue&quot;; font-variant-ligatures: none; text-align: center; text-anchor: middle; fill: rgb(177, 136, 9);" d="M 645.90144,107.184 V 95.808 c 0,-7.56 -5.184,-13.536 -14.976,-13.536 -9.72,0 -14.976,5.976 -14.976,13.536 v 11.376 c 0,7.632 5.256,13.536 14.976,13.536 9.792,0 14.976,-5.904 14.976,-13.536 z m -27.648,0 V 95.808 c 0,-6.336 4.248,-11.376 12.672,-11.376 8.496,0 12.672,5.04 12.672,11.376 v 11.376 c 0,6.408 -4.176,11.448 -12.672,11.448 -8.424,0 -12.672,-5.04 -12.672,-11.448 z" transform="translate(0 268.28924873294534) translate(670.480014561689 98.19351055002242) scale(1.4186297956780243) translate(-615.94944 -82.272)"></path> 
   <path id="path70391" style="font-style: normal; font-weight: 300; font-size: 72px; line-height: 1; font-family: &quot;Uni Neue&quot;; font-variant-ligatures: none; text-align: center; text-anchor: middle; fill: rgb(177, 136, 9);" d="m 659.95944,120 c 0.216,0 0.504,-0.144 0.576,-0.36 l 23.832,-49.392 c 0.144,-0.144 0.144,-0.36 0.144,-0.504 v -0.792 c 0,-0.288 -0.216,-0.432 -0.504,-0.432 h -31.68 c -0.288,0 -0.504,0.144 -0.504,0.432 v 1.368 c 0,0.216 0.216,0.432 0.504,0.432 h 29.304 l -23.616,48.672 c -0.144,0.36 0.072,0.576 0.36,0.576 z" transform="translate(0 268.28924873294534) translate(725.6278292388766 78.68451359985822) scale(1.4186297956780243) translate(-651.82344 -68.52)"></path> 
  </g> 
  <g id="tagline" style="font-style:oblique;font-weight:400;font-size:32px;line-height:1;font-family:Lato;font-variant-ligatures:none;text-align:center;text-anchor:middle"></g> 
 </g> 
</svg>