<svg xmlns:dc="http://purl.org/dc/elements/1.1/" xmlns:cc="http://creativecommons.org/ns#" xmlns:rdf="http://www.w3.org/1999/02/22-rdf-syntax-ns#" xmlns:svg="http://www.w3.org/2000/svg" xmlns="http://www.w3.org/2000/svg" id="svg24813" viewbox="0 0 1024 768" height="768px" width="1024px" version="1.1"> <metadata id="metadata24819"> 
  <rdf:rdf> 
   <cc:work rdf:about=""> 
    <dc:format>
     image/svg+xml
    </dc:format> 
    <dc:type rdf:resource="http://purl.org/dc/dcmitype/StillImage"></dc:type> 
   </cc:work> 
  </rdf:rdf> 
 </metadata> <defs id="defs24817"></defs> <g id="logo-group"> 
  <g id="title" style="font-style:normal;font-weight:200;font-size:72px;line-height:1;font-family:Montserrat;font-variant-ligatures:none;text-align:center;text-anchor:middle" aria-label="Elemento7"> 
   <path id="path24821" style="font-style: normal; font-weight: 200; font-size: 72px; line-height: 1; font-family: Montserrat; font-variant-ligatures: none; text-align: center; text-anchor: middle; fill: rgb(255, 255, 255);" d="m 331.23162,69.672 h 31.464 v 1.44 h -30.024 V 93.36 h 26.712 v 1.44 h -26.712 v 23.76 h 31.032 V 120 h -32.472 z" transform="translate(0 277.11110119857744) translate(251.9999999999999 75.63357067675062) scale(1.3234810350894277) translate(-331.23162 -69.672)"></path> 
   <path id="path24823" style="font-style: normal; font-weight: 200; font-size: 72px; line-height: 1; font-family: Montserrat; font-variant-ligatures: none; text-align: center; text-anchor: middle; fill: rgb(255, 255, 255);" d="m 376.70187,66.576 h 1.44001 V 120 h -1.44001 z" transform="translate(0 277.11110119857744) translate(316.1494566410432 71.53607339211374) scale(1.3234810350894277) translate(-376.70187 -66.576)"></path> 
   <path id="path24825" style="font-style: normal; font-weight: 200; font-size: 72px; line-height: 1; font-family: Montserrat; font-variant-ligatures: none; text-align: center; text-anchor: middle; fill: rgb(255, 255, 255);" d="m 408.09388,118.56 q 4.03199,0 7.416,-1.368 3.45599,-1.44 5.76,-4.032 l 1.00799,1.008 q -2.592,2.808 -6.264,4.32 -3.67199,1.512 -7.91999,1.512 -5.11201,0 -9.216,-2.376 -4.03201,-2.448 -6.40801,-6.696 -2.30399,-4.248 -2.30399,-9.576 0,-5.328 2.30399,-9.576 2.376,-4.248 6.40801,-6.624 4.10399,-2.376 9.216,-2.376 5.11199,0 9,2.376 3.95999,2.376 6.12,6.624 2.15999,4.248 2.15999,9.576 h -33.76799 q 0,4.968 2.08799,8.928 2.16001,3.888 5.904,6.12 3.74401,2.16 8.49601,2.16 z m 0,-34.344 q -4.536,0 -8.20801,2.016 -3.6,1.944 -5.76,5.544 -2.16,3.528 -2.448,8.136 h 32.256 q -0.504,-7.056 -4.752,-11.376 -4.248,-4.32 -11.08799,-4.32 z" transform="translate(0 277.11110119857744) translate(337.93926163756595 92.97646616056247) scale(1.3234810350894277) translate(-390.16588 -82.776)"></path> 
   <path id="path24827" style="font-style: normal; font-weight: 200; font-size: 72px; line-height: 1; font-family: Montserrat; font-variant-ligatures: none; text-align: center; text-anchor: middle; fill: rgb(255, 255, 255);" d="m 483.25063,82.776 q 6.76799,0 10.512,3.888 3.74399,3.888 3.74399,10.8 V 120 h -1.44 V 97.464 q 0,-6.264 -3.38399,-9.72 -3.384,-3.528 -9.432,-3.528 -7.272,0.144 -11.30401,4.824 -4.032,4.608 -4.032,12.744 V 120 h -1.44 V 97.464 q 0,-6.264 -3.456,-9.72 -3.38399,-3.528 -9.43199,-3.528 -7.20001,0.144 -11.30401,4.824 -4.03199,4.608 -4.03199,12.744 V 120 h -1.44 V 82.776 h 1.44 v 10.656 q 1.728,-5.04 5.68799,-7.776 3.96,-2.808 9.72001,-2.88 5.832,0 9.50399,3.024 3.67201,2.952 4.536,8.352 1.656,-5.4 5.616,-8.352 4.03201,-2.952 9.93601,-3.024 z" transform="translate(0 277.11110119857744) translate(403.64314675432183 92.97646616056247) scale(1.3234810350894277) translate(-436.81063 -82.776)"></path> 
   <path id="path24829" style="font-style: normal; font-weight: 200; font-size: 72px; line-height: 1; font-family: Montserrat; font-variant-ligatures: none; text-align: center; text-anchor: middle; fill: rgb(255, 255, 255);" d="m 525.93763,118.56 q 4.03199,0 7.41599,-1.368 3.456,-1.44 5.76,-4.032 l 1.008,1.008 q -2.592,2.808 -6.264,4.32 -3.672,1.512 -7.91999,1.512 -5.11201,0 -9.216,-2.376 -4.03201,-2.448 -6.40801,-6.696 -2.30399,-4.248 -2.30399,-9.576 0,-5.328 2.30399,-9.576 2.376,-4.248 6.40801,-6.624 4.10399,-2.376 9.216,-2.376 5.11199,0 9,2.376 3.95999,2.376 6.12,6.624 2.15999,4.248 2.15999,9.576 h -33.76799 q 0,4.968 2.08799,8.928 2.16001,3.888 5.90401,6.12 3.74399,2.16 8.496,2.16 z m 0,-34.344 q -4.53601,0 -8.208,2.016 -3.6,1.944 -5.76001,5.544 -2.16,3.528 -2.448,8.136 h 32.256 q -0.50399,-7.056 -4.752,-11.376 -4.248,-4.32 -11.08799,-4.32 z" transform="translate(0 277.11110119857744) translate(501.8441160769223 92.97646616056247) scale(1.3234810350894277) translate(-508.00963 -82.776)"></path> 
   <path id="path24831" style="font-style: normal; font-weight: 200; font-size: 72px; line-height: 1; font-family: Montserrat; font-variant-ligatures: none; text-align: center; text-anchor: middle; fill: rgb(255, 255, 255);" d="m 571.79038,82.776 q 6.91199,0 10.72799,3.888 3.88801,3.888 3.88801,10.8 V 120 h -1.44001 V 97.464 q 0,-6.264 -3.528,-9.72 -3.45599,-3.528 -9.64799,-3.528 -6.91201,0.144 -11.01601,4.248 -4.10399,4.104 -4.67999,11.304 V 120 h -1.44001 V 82.776 h 1.44001 v 10.512 q 1.79999,-4.968 5.83199,-7.704 4.03201,-2.736 9.86401,-2.808 z" transform="translate(0 277.11110119857744) translate(567.5479879588678 92.97646616056247) scale(1.3234810350894277) translate(-554.65437 -82.776)"></path> 
   <path id="path24833" style="font-style: normal; font-weight: 200; font-size: 72px; line-height: 1; font-family: Montserrat; font-variant-ligatures: none; text-align: center; text-anchor: middle; fill: rgb(255, 255, 255);" d="m 617.47663,117.336 q -3.60001,2.664 -7.48801,2.664 -3.81599,0 -5.832,-2.592 -1.944,-2.592 -1.944,-7.632 v -24.84 h -5.47199 v -1.44 h 5.47199 V 74.64 h 1.44 v 8.856 h 13.104 v 1.44 h -13.104 v 24.84 q 0,4.32 1.584,6.552 1.656,2.232 4.752,2.232 3.6,0 6.624,-2.376 z" transform="translate(0 277.11110119857744) translate(627.2187980119788 82.20862445907491) scale(1.3234810350894277) translate(-596.74063 -74.64)"></path> 
   <path id="path24835" style="font-style: normal; font-weight: 200; font-size: 72px; line-height: 1; font-family: Montserrat; font-variant-ligatures: none; text-align: center; text-anchor: middle; fill: rgb(78, 62, 59);" d="m 640.26913,82.776 q 5.11199,0 9.216,2.376 4.17599,2.376 6.47999,6.624 2.37601,4.248 2.37601,9.576 0,5.328 -2.37601,9.576 -2.304,4.248 -6.47999,6.696 -4.10401,2.376 -9.216,2.376 -5.11201,0 -9.288,-2.376 -4.10401,-2.448 -6.48001,-6.696 -2.30399,-4.248 -2.30399,-9.576 0,-5.328 2.30399,-9.576 2.376,-4.248 6.48001,-6.624 4.17599,-2.376 9.288,-2.376 z m 0,1.44 q -4.75201,0 -8.568,2.232 -3.816,2.16 -5.976,6.048 -2.08801,3.888 -2.08801,8.856 0,4.968 2.08801,8.928 2.16,3.888 5.976,6.12 3.81599,2.16 8.568,2.16 4.75199,0 8.568,-2.16 3.816,-2.232 5.90399,-6.12 2.16,-3.96 2.16,-8.928 0,-4.968 -2.16,-8.856 -2.08799,-3.888 -5.90399,-6.048 -3.81601,-2.232 -8.568,-2.232 z" transform="translate(0 277.11110119857744) translate(664.8804360870012 92.97646616056247) scale(1.3234810350894277) translate(-622.19713 -82.776)"></path> 
   <path id="path24837" style="font-style: normal; font-weight: 200; font-size: 72px; line-height: 1; font-family: Montserrat; font-variant-ligatures: none; text-align: center; text-anchor: middle; fill: rgb(78, 62, 59);" d="m 664.63887,69.672 h 35.496 v 1.8 L 675.51088,120 h -1.58401 l 24.91201,-48.888 h -32.76 v 8.064 h -1.44001 z" transform="translate(0 277.11110119857744) translate(725.0217171784658 75.63357067675062) scale(1.3234810350894277) translate(-664.63887 -69.672)"></path> 
  </g> 
  <g id="tagline" style="font-style:normal;font-weight:400;font-size:32px;line-height:1;font-family:Montserrat;font-variant-ligatures:none;text-align:center;text-anchor:middle"></g> 
 </g> 
</svg>