<svg xmlns:dc="http://purl.org/dc/elements/1.1/" xmlns:cc="http://creativecommons.org/ns#" xmlns:rdf="http://www.w3.org/1999/02/22-rdf-syntax-ns#" xmlns:svg="http://www.w3.org/2000/svg" xmlns="http://www.w3.org/2000/svg" id="svg951274" viewbox="0 0 1024 768" height="768px" width="1024px" version="1.1"> <metadata id="metadata951280"> 
  <rdf:rdf> 
   <cc:work rdf:about=""> 
    <dc:format>
     image/svg+xml
    </dc:format> 
    <dc:type rdf:resource="http://purl.org/dc/dcmitype/StillImage"></dc:type> 
   </cc:work> 
  </rdf:rdf> 
 </metadata> <defs id="defs951278"></defs> <g id="logo-group"> 
  <g id="title" style="font-style:normal;font-weight:700;font-size:72px;line-height:1;font-family:'Brandmark1 Bold';font-variant-ligatures:none;text-align:center;text-anchor:middle" aria-label="elementalo7"> 
   <path id="path951282" style="font-style: normal; font-weight: 700; font-size: 72px; line-height: 1; font-family: &quot;Brandmark1 Bold&quot;; font-variant-ligatures: none; text-align: center; text-anchor: middle; fill: rgb(254, 246, 225);" d="m 330.0785,122.808 c 2.808,0 5.544,-0.576 8.136,-1.728 2.52,-1.08 4.752,-2.664 6.624,-4.608 l -7.632,-7.2 c -1.872,2.016 -4.392,3.096 -7.128,3.096 -3.528,0 -6.624,-1.872 -8.352,-4.608 h 28.584 v -5.256 c 0,-5.4 -2.088,-10.512 -5.904,-14.328 -3.816,-3.816 -8.928,-5.976 -14.328,-5.976 -5.472,0 -10.512,2.16 -14.4,5.976 -3.816,3.816 -5.904,8.928 -5.904,14.328 0,5.4 2.088,10.512 5.904,14.328 3.888,3.816 8.928,5.976 14.4,5.976 z m -8.352,-25.488 c 1.728,-2.808 4.824,-4.68 8.352,-4.68 3.456,0 6.552,1.872 8.352,4.68 z" transform="translate(0 277.30603639357304) translate(252 91.35114964988202) scale(1.2875808959839659) translate(-309.7745 -82.2)"></path> 
   <path id="path951284" style="font-style: normal; font-weight: 700; font-size: 72px; line-height: 1; font-family: &quot;Brandmark1 Bold&quot;; font-variant-ligatures: none; text-align: center; text-anchor: middle; fill: rgb(254, 246, 225);" d="m 353.24338,122.52 h 10.87199 V 64.488 l -10.87199,3.6 z" transform="translate(0 277.30603639357304) translate(307.9696994578195 68.545516820214) scale(1.2875808959839659) translate(-353.24338 -64.488)"></path> 
   <path id="path951286" style="font-style: normal; font-weight: 700; font-size: 72px; line-height: 1; font-family: &quot;Brandmark1 Bold&quot;; font-variant-ligatures: none; text-align: center; text-anchor: middle; fill: rgb(254, 246, 225);" d="m 387.4535,122.808 c 2.808,0 5.544,-0.576 8.136,-1.728 2.52,-1.08 4.752,-2.664 6.624,-4.608 l -7.632,-7.2 c -1.872,2.016 -4.392,3.096 -7.128,3.096 -3.528,0 -6.624,-1.872 -8.352,-4.608 h 28.584 v -5.256 c 0,-5.4 -2.088,-10.512 -5.904,-14.328 -3.816,-3.816 -8.928,-5.976 -14.328,-5.976 -5.472,0 -10.512,2.16 -14.4,5.976 -3.816,3.816 -5.904,8.928 -5.904,14.328 0,5.4 2.088,10.512 5.904,14.328 3.888,3.816 8.928,5.976 14.4,5.976 z m -8.352,-25.488 c 1.728,-2.808 4.824,-4.68 8.352,-4.68 3.456,0 6.552,1.872 8.352,4.68 z" transform="translate(0 277.30603639357304) translate(325.87495390708006 91.35114964988202) scale(1.2875808959839659) translate(-367.1495 -82.2)"></path> 
   <path id="path951288" style="font-style: normal; font-weight: 700; font-size: 72px; line-height: 1; font-family: &quot;Brandmark1 Bold&quot;; font-variant-ligatures: none; text-align: center; text-anchor: middle; fill: rgb(254, 246, 225);" d="m 463.61037,87.672 c -3.24,-3.24 -7.63199,-5.04 -12.24,-5.04 -4.46399,0 -8.712,1.656 -11.88,4.752 -3.23999,-3.096 -7.48799,-4.752 -11.952,-4.752 -2.232,0 -4.464,0.432 -6.48,1.296 v -1.944 h -10.8 v 40.536 h 10.8 V 99.912 c 0,-3.528 2.88,-6.48 6.48,-6.48 3.6,0 6.552,2.952 6.552,6.48 v 22.608 h 10.8 V 99.912 c 0,-3.528 2.88,-6.48 6.48,-6.48 3.6,0 6.552,2.952 6.552,6.48 v 22.608 h 10.8 V 99.912 c 0,-4.608 -1.8,-8.928 -5.112,-12.24 z" transform="translate(0 277.30603639357304) translate(381.3811113665364 91.07303217634944) scale(1.2875808959839659) translate(-410.25837 -81.984)"></path> 
   <path id="path951290" style="font-style: normal; font-weight: 700; font-size: 72px; line-height: 1; font-family: &quot;Brandmark1 Bold&quot;; font-variant-ligatures: none; text-align: center; text-anchor: middle; fill: rgb(254, 246, 225);" d="m 490.9535,122.808 c 2.808,0 5.544,-0.576 8.136,-1.728 2.52,-1.08 4.752,-2.664 6.624,-4.608 l -7.632,-7.2 c -1.872,2.016 -4.392,3.096 -7.128,3.096 -3.528,0 -6.624,-1.872 -8.352,-4.608 h 28.584 v -5.256 c 0,-5.4 -2.088,-10.512 -5.904,-14.328 -3.816,-3.816 -8.928,-5.976 -14.328,-5.976 -5.472,0 -10.512,2.16 -14.4,5.976 -3.816,3.816 -5.904,8.928 -5.904,14.328 0,5.4 2.088,10.512 5.904,14.328 3.888,3.816 8.928,5.976 14.4,5.976 z m -8.352,-25.488 c 1.728,-2.808 4.824,-4.68 8.352,-4.68 3.456,0 6.552,1.872 8.352,4.68 z" transform="translate(0 277.30603639357304) translate(459.13957664142055 91.35114964988202) scale(1.2875808959839659) translate(-470.6495 -82.2)"></path> 
   <path id="path951292" style="font-style: normal; font-weight: 700; font-size: 72px; line-height: 1; font-family: &quot;Brandmark1 Bold&quot;; font-variant-ligatures: none; text-align: center; text-anchor: middle; fill: rgb(254, 246, 225);" d="m 544.64638,88.392 c -3.456,-3.384 -7.99201,-5.256 -12.81601,-5.256 -2.59199,0 -5.03999,0.504 -7.272,1.512 v -2.664 h -10.8 v 17.64 c -0.072,0.576 -0.072,1.08 -0.072,1.656 h 0.072 v 21.24 h 10.8 V 100.2 c 0.504,-3.528 3.528,-6.264 7.272,-6.264 4.03201,0 7.34401,3.312 7.34401,7.344 v 21.24 h 10.79999 v -21.24 c 0,-4.896 -1.94399,-9.432 -5.32799,-12.888 z" transform="translate(0 277.30603639357304) translate(514.553028276366 91.07303217634944) scale(1.2875808959839659) translate(-513.68637 -81.984)"></path> 
   <path id="path951294" style="font-style: normal; font-weight: 700; font-size: 72px; line-height: 1; font-family: &quot;Brandmark1 Bold&quot;; font-variant-ligatures: none; text-align: center; text-anchor: middle; fill: rgb(254, 246, 225);" d="m 578.21075,92.496 v -10.08 h -11.448 V 69.528 l -10.8,3.6 v 27.936 c 0,3.024 0.576,5.904 1.728,8.64 1.08,2.664 2.736,5.04 4.752,7.056 2.016,2.088 4.392,3.672 7.056,4.824 2.736,1.152 5.688,1.728 8.712,1.728 v -10.8 c -6.336,0 -11.448,-5.112 -11.448,-11.448 v -8.568 z" transform="translate(0 277.30603639357304) translate(568.9872875157246 75.03492453597318) scale(1.2875808959839659) translate(-555.96275 -69.528)"></path> 
   <path id="path951296" style="font-style: normal; font-weight: 700; font-size: 72px; line-height: 1; font-family: &quot;Brandmark1 Bold&quot;; font-variant-ligatures: none; text-align: center; text-anchor: middle; fill: rgb(254, 246, 225);" d="m 606.9995,81.984 0.072,2.304 c -2.88,-1.44 -6.048,-2.232 -9.288,-2.232 -2.736,0 -5.472,0.504 -7.992,1.584 -2.448,1.08 -4.608,2.52 -6.552,4.392 -1.872,1.872 -3.312,4.104 -4.392,6.552 -1.008,2.52 -1.584,5.256 -1.584,7.992 0,2.736 0.576,5.472 1.584,7.992 1.08,2.448 2.52,4.608 4.392,6.552 1.944,1.872 4.104,3.312 6.552,4.392 2.52,1.008 5.256,1.584 7.992,1.584 3.24,0 6.408,-0.792 9.288,-2.232 l -0.072,1.656 h 10.8 V 81.984 Z m -4.32,28.944 c -1.44,0.864 -3.168,1.368 -4.896,1.368 -5.328,0 -9.72,-4.392 -9.72,-9.72 0,-5.328 4.392,-9.72 9.72,-9.72 1.872,0 3.744,0.504 5.256,1.584 1.584,0.936 2.808,2.376 3.528,4.032 0.648,1.296 0.936,2.664 0.936,4.104 0,1.728 -0.432,3.384 -1.296,4.896 -0.864,1.44 -2.016,2.664 -3.528,3.456 z" transform="translate(0 277.30603639357304) translate(596.413726285855 91.07303217634944) scale(1.2875808959839659) translate(-577.2635 -81.984)"></path> 
   <path id="path951298" style="font-style: normal; font-weight: 700; font-size: 72px; line-height: 1; font-family: &quot;Brandmark1 Bold&quot;; font-variant-ligatures: none; text-align: center; text-anchor: middle; fill: rgb(254, 246, 225);" d="m 623.52463,122.52 h 10.87199 V 64.488 l -10.87199,3.6 z" transform="translate(0 277.30603639357304) translate(655.9786735004856 68.545516820214) scale(1.2875808959839659) translate(-623.52463 -64.488)"></path> 
   <path id="path951300" style="font-style: normal; font-weight: 700; font-size: 72px; line-height: 1; font-family: &quot;Brandmark1 Bold&quot;; font-variant-ligatures: none; text-align: center; text-anchor: middle; fill: rgb(250, 216, 223);" d="m 659.03075,123.024 c 2.736,0 5.472,-0.576 7.992,-1.584 2.448,-1.08 4.68,-2.52 6.552,-4.392 1.872,-1.944 3.312,-4.104 4.392,-6.552 1.08,-2.52 1.584,-5.256 1.584,-7.992 0,-2.808 -0.504,-5.472 -1.584,-7.992 -1.08,-2.448 -2.52,-4.68 -4.392,-6.552 -1.944,-1.872 -4.104,-3.312 -6.552,-4.392 -2.52,-1.08 -5.256,-1.584 -7.992,-1.584 -2.736,0 -5.472,0.504 -7.992,1.584 -2.448,1.08 -4.608,2.52 -6.552,4.392 -1.872,1.944 -3.312,4.104 -4.392,6.552 -1.008,2.52 -1.584,5.184 -1.584,7.992 0,2.736 0.576,5.472 1.584,7.992 1.08,2.448 2.52,4.608 4.392,6.552 1.944,1.872 4.104,3.312 6.552,4.392 2.52,1.008 5.256,1.584 7.992,1.584 z m 0,-30.24 c 5.328,0 9.72,4.392 9.72,9.72 0,5.328 -4.392,9.72 -9.72,9.72 -5.328,0 -9.72,-4.392 -9.72,-9.72 0,-5.328 4.392,-9.72 9.72,-9.72 z" transform="translate(0 277.30603639357304) translate(675.2745153174089 91.07303217634944) scale(1.2875808959839659) translate(-638.51075 -81.984)"></path> 
   <path id="path951302" style="font-style: normal; font-weight: 700; font-size: 72px; line-height: 1; font-family: &quot;Brandmark1 Bold&quot;; font-variant-ligatures: none; text-align: center; text-anchor: middle; fill: rgb(250, 216, 223);" d="m 681.88062,121.512 11.16,2.232 20.592,-48.384 v -7.344 h -35.712 V 78.6 h 22.53601 z" transform="translate(0 277.30603639357304) translate(726.0179110426205 73.08810222124544) scale(1.2875808959839659) translate(-677.92062 -68.016)"></path> 
  </g> 
  <g id="tagline" style="font-style:normal;font-weight:400;font-size:32px;line-height:1;font-family:Montserrat;font-variant-ligatures:none;text-align:center;text-anchor:middle"></g> 
 </g> 
</svg>