<svg xmlns:dc="http://purl.org/dc/elements/1.1/" xmlns:cc="http://creativecommons.org/ns#" xmlns:rdf="http://www.w3.org/1999/02/22-rdf-syntax-ns#" xmlns:svg="http://www.w3.org/2000/svg" xmlns="http://www.w3.org/2000/svg" id="svg371944" viewbox="0 0 1024 768" height="768px" width="1024px" version="1.1"> <metadata id="metadata371950"> 
  <rdf:rdf> 
   <cc:work rdf:about=""> 
    <dc:format>
     image/svg+xml
    </dc:format> 
    <dc:type rdf:resource="http://purl.org/dc/dcmitype/StillImage"></dc:type> 
   </cc:work> 
  </rdf:rdf> 
 </metadata> <defs id="defs371948"></defs> <g id="logo-group"> 
  <g id="title" style="font-style:oblique;font-weight:700;font-size:72px;line-height:1;font-family:Averta;font-variant-ligatures:none;text-align:center;text-anchor:middle" aria-label="Eurekao7"> 
   <path id="path371952" style="font-style: oblique; font-weight: 700; font-size: 72px; line-height: 1; font-family: Averta; font-variant-ligatures: none; text-align: center; text-anchor: middle; fill: rgb(30, 180, 232);" d="m 380.79519,68.88 -6.264,51.12 h 31.68 l 1.296,-10.296 h -20.448 l 1.296,-10.152 h 15.048 l 1.152,-9.936 h -15.048 l 1.296,-10.44 h 19.08 l 1.296,-10.296 z" transform="translate(0 225.88701672855422) translate(252 111.20557703802278) scale(1.8614050092628163) translate(-374.53119 -68.88)"></path> 
   <path id="path371954" style="font-style: oblique; font-weight: 700; font-size: 72px; line-height: 1; font-family: Averta; font-variant-ligatures: none; text-align: center; text-anchor: middle; fill: rgb(30, 180, 232);" d="m 423.26619,120.648 c 4.392,0 7.848,-2.304 10.44,-5.832 h 0.144 l -0.432,5.184 h 10.584 l 4.32,-35.208 h -10.8 l -1.944,16.128 c -0.648,5.184 -4.896,10.08 -7.92,10.08 -2.52,0 -3.096,-1.872 -2.304,-7.56 l 2.664,-18.648 h -10.728 l -3.024,21.888 c -1.512,10.44 2.448,13.968 9,13.968 z" transform="translate(0 225.88701672855422) translate(325.36470970118114 140.82425354541272) scale(1.8614050092628163) translate(-413.94481 -84.792)"></path> 
   <path id="path371956" style="font-style: oblique; font-weight: 700; font-size: 72px; line-height: 1; font-family: Averta; font-variant-ligatures: none; text-align: center; text-anchor: middle; fill: rgb(30, 180, 232);" d="m 456.24669,84.792 -4.32,35.208 h 10.8 l 1.584,-13.536 c 1.296,-8.352 5.616,-12.24 10.8,-10.368 l 1.512,-11.952 c -3.888,0 -7.344,1.872 -10.08,5.472 h -0.144 l 0.648,-4.824 z" transform="translate(0 225.88701672855422) translate(396.0643713944003 139.61806309941045) scale(1.8614050092628163) translate(-451.92669 -84.144)"></path> 
   <path id="path371958" style="font-style: oblique; font-weight: 700; font-size: 72px; line-height: 1; font-family: Averta; font-variant-ligatures: none; text-align: center; text-anchor: middle; fill: rgb(30, 180, 232);" d="m 508.00006,93.864 c 0.072,-6.624 -6.336,-9.72 -12.024,-9.72 -11.88,0 -19.296,9.792 -19.296,21.744 -0.072,9.144 5.832,14.76 14.688,14.76 6.912,0 11.592,-2.592 15.336,-7.704 l -8.064,-4.752 c -1.944,2.592 -4.032,3.528 -6.408,3.528 -2.088,0 -4.392,-1.296 -5.04,-4.464 10.368,-1.08 20.664,-4.464 20.808,-13.392 z m -10.368,1.512 c -0.072,3.456 -4.824,4.824 -10.08,5.4 1.224,-4.896 4.392,-7.632 7.488,-7.632 1.656,0 2.664,0.792 2.592,2.232 z" transform="translate(0 225.88701672855422) translate(442.1392083952802 139.61806309941045) scale(1.8614050092628163) translate(-476.67941 -84.144)"></path> 
   <path id="path371960" style="font-style: oblique; font-weight: 700; font-size: 72px; line-height: 1; font-family: Averta; font-variant-ligatures: none; text-align: center; text-anchor: middle; fill: rgb(30, 180, 232);" d="m 540.51256,120.504 2.448,-8.784 c -3.168,-0.216 -5.04,-1.08 -6.624,-6.12 l -1.008,-3.024 c 4.968,-4.68 8.64,-10.656 10.008,-17.784 h -11.16 c -1.44,5.76 -4.176,10.944 -10.008,15.048 l -0.144,-0.072 4.032,-32.76 h -10.728 l -6.552,52.992 h 10.584 l 1.08,-9.36 c 1.512,-0.648 2.88,-1.368 4.248,-2.232 l 0.648,2.16 c 1.944,5.904 4.536,10.08 10.008,10.08 1.728,0 2.448,-0.072 3.168,-0.144 z" transform="translate(0 225.88701672855422) translate(505.6078142068658 107.72102686068278) scale(1.8614050092628163) translate(-510.77656 -67.008)"></path> 
   <path id="path371962" style="font-style: oblique; font-weight: 700; font-size: 72px; line-height: 1; font-family: Averta; font-variant-ligatures: none; text-align: center; text-anchor: middle; fill: rgb(30, 180, 232);" d="m 557.38419,120.648 c 3.96,0 7.488,-2.16 10.08,-5.904 l 0.216,0.072 -0.648,5.184 h 10.872 l 4.32,-35.208 h -10.872 l -0.288,2.448 h -0.216 c -1.872,-1.944 -4.608,-3.096 -8.28,-3.096 -9.216,0 -16.632,9.576 -16.632,22.104 0,8.136 3.888,14.4 11.448,14.4 z m 3.456,-9.576 c -2.448,0 -4.032,-2.232 -4.032,-5.616 0,-5.256 2.88,-11.664 7.632,-11.664 2.232,0 4.248,0.864 5.832,2.52 l -0.144,1.008 c -1.224,8.856 -5.544,13.752 -9.288,13.752 z" transform="translate(0 225.88701672855422) translate(571.0541256126932 139.61806309941045) scale(1.8614050092628163) translate(-545.93619 -84.144)"></path> 
   <path id="path371964" style="font-style: oblique; font-weight: 700; font-size: 72px; line-height: 1; font-family: Averta; font-variant-ligatures: none; text-align: center; text-anchor: middle; fill: rgb(214, 243, 245);" d="m 600.70906,120.648 c 13.464,0 19.584,-10.008 19.584,-21.456 0,-9.576 -5.976,-15.048 -15.048,-15.048 -12.384,0 -19.44,10.08 -19.44,21.384 0,9.648 5.976,15.12 14.904,15.12 z m 0.792,-9.648 c -2.304,0 -4.752,-1.872 -4.752,-6.048 0,-5.4 2.88,-11.16 7.632,-11.16 1.944,0 4.968,1.08 4.968,6.12 0,5.76 -3.096,11.088 -7.848,11.088 z" transform="translate(0 225.88701672855422) translate(645.2662399443411 139.61806309941045) scale(1.8614050092628163) translate(-585.80506 -84.144)"></path> 
   <path id="path371966" style="font-style: oblique; font-weight: 700; font-size: 72px; line-height: 1; font-family: Averta; font-variant-ligatures: none; text-align: center; text-anchor: middle; fill: rgb(214, 243, 245);" d="m 653.89006,70.536 h -27.864 l -1.224,10.08 h 15.48 l -17.568,38.52 11.088,2.016 19.224,-43.344 z" transform="translate(0 225.88701672855422) translate(713.9688374312225 114.28806373336202) scale(1.8614050092628163) translate(-622.71406 -70.536)"></path> 
  </g> 
  <g id="tagline" style="font-style:normal;font-weight:500;font-size:32px;line-height:1;font-family:Raleway;font-variant-ligatures:none;text-align:center;text-anchor:middle"></g> 
 </g> 
</svg>