<svg xmlns:dc="http://purl.org/dc/elements/1.1/" xmlns:cc="http://creativecommons.org/ns#" xmlns:rdf="http://www.w3.org/1999/02/22-rdf-syntax-ns#" xmlns:svg="http://www.w3.org/2000/svg" xmlns="http://www.w3.org/2000/svg" id="svg7696" viewbox="0 0 1024 768" height="768px" width="1024px" version="1.1"> <metadata id="metadata7702"> 
  <rdf:rdf> 
   <cc:work rdf:about=""> 
    <dc:format>
     image/svg+xml
    </dc:format> 
    <dc:type rdf:resource="http://purl.org/dc/dcmitype/StillImage"></dc:type> 
   </cc:work> 
  </rdf:rdf> 
 </metadata> <defs id="defs7700"></defs> <g id="logo-group"> 
  <g id="title" style="font-style:normal;font-weight:800;font-size:72px;line-height:1;font-family:'Montserrat ExtraBold Alt1';font-variant-ligatures:none;text-align:center;text-anchor:middle" aria-label="Evadeo7"> 
   <path id="path7704" style="font-style: normal; font-weight: 800; font-size: 72px; line-height: 1; font-family: &quot;Montserrat ExtraBold Alt1&quot;; font-variant-ligatures: none; text-align: center; text-anchor: middle; fill: rgb(116, 116, 118);" d="m 394.15625,69.6 h -39.96 v 11.016 h 39.96 z m 0,19.512 h -39.96 v 10.656 h 39.96 z m -39.96,19.872 V 120 h 39.96 v -11.016 z" transform="translate(0 266.84457142857144) translate(220.2135714285714 82.85257142857142) scale(1.4285714285714286) translate(-354.19625 -69.6)"></path> 
   <path id="path7706" style="font-style: normal; font-weight: 800; font-size: 72px; line-height: 1; font-family: &quot;Montserrat ExtraBold Alt1&quot;; font-variant-ligatures: none; text-align: center; text-anchor: middle; fill: rgb(116, 116, 118);" d="m 442.89463,80.976 h -13.03201 l -9.864,23.832 -9.36,-23.832 H 396.59863 L 412.65462,120 h 14.112 z" transform="translate(0 266.84457142857144) translate(302.2169714285714 99.10400000000001) scale(1.4285714285714286) translate(-396.59863 -80.976)"></path> 
   <path id="path7708" style="font-style: normal; font-weight: 800; font-size: 72px; line-height: 1; font-family: &quot;Montserrat ExtraBold Alt1&quot;; font-variant-ligatures: none; text-align: center; text-anchor: middle; fill: rgb(116, 116, 118);" d="m 476.4185,84.792 c -3.456,-2.952 -8.352,-4.464 -14.832,-4.464 -3.168,0 -6.264,0.432 -9.36,1.224 -3.096,0.792 -5.688,1.872 -7.848,3.312 l 4.608,9.288 c 1.296,-1.008 2.952,-1.872 4.896,-2.448 1.872,-0.576 3.816,-0.936 5.688,-0.936 5.256,0 7.992,2.088 8.28,6.192 h -7.776 c -5.904,0 -10.296,1.08 -13.104,3.096 -2.88,2.016 -4.248,4.896 -4.248,8.568 0,2.304 0.504,4.392 1.656,6.192 1.152,1.8 2.808,3.24 5.04,4.248 2.16,1.08 4.824,1.584 7.848,1.584 5.688,0 9.504,-1.872 11.52,-5.688 V 120 h 12.744 V 98.328 c 0,-6.048 -1.728,-10.584 -5.112,-13.536 z m -11.16,26.064 c -1.224,0.792 -2.592,1.152 -4.176,1.152 -1.584,0 -2.88,-0.36 -3.744,-1.08 -0.936,-0.72 -1.368,-1.656 -1.368,-2.88 0,-2.592 1.944,-3.96 5.976,-3.96 h 5.904 v 3.384 c -0.576,1.512 -1.44,2.664 -2.592,3.384 z" transform="translate(0 266.84457142857144) translate(389.5367857142857 98.17828571428572) scale(1.4285714285714286) translate(-442.7225 -80.328)"></path> 
   <path id="path7710" style="font-style: normal; font-weight: 800; font-size: 72px; line-height: 1; font-family: &quot;Montserrat ExtraBold Alt1&quot;; font-variant-ligatures: none; text-align: center; text-anchor: middle; fill: rgb(116, 116, 118);" d="m 532.27025,66.576 h -13.68 V 84.36 c -2.592,-2.664 -6.192,-4.032 -10.8,-4.032 -3.6,0 -6.84,0.864 -9.72,2.448 -2.952,1.656 -5.256,4.032 -6.984,7.056 -1.728,3.024 -2.52,6.552 -2.52,10.584 0,4.032 0.792,7.632 2.52,10.656 1.728,3.096 4.032,5.472 6.984,7.128 2.88,1.656 6.12,2.448 9.72,2.448 5.04,0 8.856,-1.512 11.448,-4.536 V 120 h 13.032 z m -15.768,40.752 c -1.584,1.656 -3.528,2.448 -5.832,2.448 -2.448,0 -4.392,-0.792 -5.904,-2.448 -1.584,-1.656 -2.304,-3.96 -2.304,-6.912 0,-2.88 0.72,-5.112 2.304,-6.768 1.512,-1.584 3.456,-2.448 5.904,-2.448 2.376,0 4.32,0.864 5.832,2.448 1.512,1.656 2.304,3.888 2.304,6.768 0,2.952 -0.792,5.256 -2.304,6.912 z" transform="translate(0 266.84457142857144) translate(476.4564285714286 78.53257142857143) scale(1.4285714285714286) translate(-488.56625 -66.576)"></path> 
   <path id="path7712" style="font-style: normal; font-weight: 800; font-size: 72px; line-height: 1; font-family: &quot;Montserrat ExtraBold Alt1&quot;; font-variant-ligatures: none; text-align: center; text-anchor: middle; fill: rgb(116, 116, 118);" d="m 580.67337,103.944 c 0.144,-2.16 0.216,-3.24 0.216,-3.384 0,-4.176 -0.93599,-7.776 -2.808,-10.8 -1.87199,-3.024 -4.31999,-5.4 -7.48799,-6.984 -3.168,-1.584 -6.69601,-2.448 -10.58401,-2.448 -4.10399,0 -7.77599,0.864 -11.01599,2.592 -3.31201,1.728 -5.832,4.176 -7.70401,7.2 -1.872,3.024 -2.736,6.48 -2.736,10.296 0,3.888 0.936,7.416 2.808,10.44 1.87201,3.096 4.60801,5.472 8.06401,7.2 3.456,1.728 7.41599,2.592 12.024,2.592 7.27199,0 12.81599,-2.088 16.63199,-6.336 l -7.19999,-7.488 c -1.44001,1.224 -2.80801,2.088 -4.17601,2.592 -1.368,0.576 -2.952,0.792 -4.82399,0.792 -2.52001,0 -4.60801,-0.504 -6.264,-1.584 -1.65601,-1.08 -2.736,-2.664 -3.312,-4.68 z m -25.92,-12.096 c 1.44001,-1.152 3.168,-1.8 5.328,-1.8 2.088,0 3.816,0.648 5.256,1.8 1.44,1.224 2.30401,2.88 2.736,4.896 h -15.98399 c 0.36,-2.016 1.22399,-3.672 2.66399,-4.896 z" transform="translate(0 266.84457142857144) translate(569.2951714285714 98.17828571428572) scale(1.4285714285714286) translate(-538.55337 -80.328)"></path> 
   <path id="path7714" style="font-style: normal; font-weight: 800; font-size: 72px; line-height: 1; font-family: &quot;Montserrat ExtraBold Alt1&quot;; font-variant-ligatures: none; text-align: center; text-anchor: middle; fill: rgb(205, 205, 208);" d="m 595.547,118.056 c 3.312,1.728 7.128,2.592 11.304,2.592 4.176,0 7.992,-0.864 11.376,-2.592 3.312,-1.728 5.976,-4.104 7.848,-7.2 1.872,-3.024 2.808,-6.552 2.808,-10.44 0,-3.888 -0.936,-7.344 -2.808,-10.368 -1.872,-3.024 -4.536,-5.4 -7.848,-7.128 -3.384,-1.728 -7.2,-2.592 -11.376,-2.592 -4.248,0 -8.064,0.864 -11.376,2.592 -3.312,1.728 -5.976,4.104 -7.848,7.128 -1.872,3.096 -2.808,6.552 -2.808,10.368 0,3.888 0.936,7.416 2.808,10.44 1.872,3.096 4.536,5.472 7.92,7.2 z m 17.208,-10.728 c -1.584,1.656 -3.528,2.448 -5.904,2.448 -2.448,0 -4.392,-0.792 -5.904,-2.448 -1.584,-1.656 -2.304,-3.96 -2.304,-6.912 0,-2.88 0.72,-5.112 2.304,-6.768 1.512,-1.584 3.456,-2.448 5.904,-2.448 2.376,0 4.32,0.864 5.904,2.448 1.512,1.656 2.304,3.888 2.304,6.768 0,2.952 -0.792,5.256 -2.304,6.912 z" transform="translate(0 266.84457142857144) translate(656.8175 98.17828571428572) scale(1.4285714285714286) translate(-584.819 -80.328)"></path> 
   <path id="path7716" style="font-style: normal; font-weight: 800; font-size: 72px; line-height: 1; font-family: &quot;Montserrat ExtraBold Alt1&quot;; font-variant-ligatures: none; text-align: center; text-anchor: middle; fill: rgb(205, 205, 208);" d="m 672.69725,69.6 h -41.76 v 19.08 h 12.168 v -7.776 h 13.248 L 639.36125,120 h 15.552 l 17.784,-41.472 z" transform="translate(0 266.84457142857144) translate(744.1292857142857 82.85257142857142) scale(1.4285714285714286) translate(-630.93725 -69.6)"></path> 
  </g> 
  <g id="tagline" style="font-style:normal;font-weight:500;font-size:32px;line-height:1;font-family:Montserrat;font-variant-ligatures:none;text-align:center;text-anchor:middle"></g> 
 </g> 
</svg>