<svg xmlns:dc="http://purl.org/dc/elements/1.1/" xmlns:cc="http://creativecommons.org/ns#" xmlns:rdf="http://www.w3.org/1999/02/22-rdf-syntax-ns#" xmlns:svg="http://www.w3.org/2000/svg" xmlns="http://www.w3.org/2000/svg" id="svg347060" viewbox="0 0 1024 768" height="768px" width="1024px" version="1.1"> <metadata id="metadata347066"> 
  <rdf:rdf> 
   <cc:work rdf:about=""> 
    <dc:format>
     image/svg+xml
    </dc:format> 
    <dc:type rdf:resource="http://purl.org/dc/dcmitype/StillImage"></dc:type> 
   </cc:work> 
  </rdf:rdf> 
 </metadata> <defs id="defs347064"></defs> <g id="logo-group"> 
  <g id="title" style="font-style:normal;font-weight:700;font-size:72px;line-height:1;font-family:'Brandmark1 Bold';font-variant-ligatures:none;text-align:center;text-anchor:middle" aria-label="EXETERO7"> 
   <path id="path347068" style="font-style: normal; font-weight: 700; font-size: 72px; line-height: 1; font-family: &quot;Brandmark1 Bold&quot;; font-variant-ligatures: none; text-align: center; text-anchor: middle; fill: rgb(255, 255, 255);" d="m 338.34725,122.52 h 36.36 v -10.728 h -25.056 v -11.88 h 25.056 V 89.184 h -25.056 V 77.088 h 25.056 V 66.36 h -36.36 z" transform="translate(0 281.40999999999997) translate(248.98961249999996 66.94999999999999) scale(1.25) translate(-338.34725 -66.36)"></path> 
   <path id="path347070" style="font-style: normal; font-weight: 700; font-size: 72px; line-height: 1; font-family: &quot;Brandmark1 Bold&quot;; font-variant-ligatures: none; text-align: center; text-anchor: middle; fill: rgb(255, 255, 255);" d="m 413.92925,122.52 h 13.536 l -19.152,-28.08 18.864,-28.08 h -13.32 l -12.672,18.792 -12.744,-18.792 h -13.32 l 18.792,28.08 -19.08,28.08 h 13.392 l 12.888,-18.72 z" transform="translate(0 281.40999999999997) translate(307.0971125 66.94999999999999) scale(1.25) translate(-374.83325 -66.36)"></path> 
   <path id="path347072" style="font-style: normal; font-weight: 700; font-size: 72px; line-height: 1; font-family: &quot;Brandmark1 Bold&quot;; font-variant-ligatures: none; text-align: center; text-anchor: middle; fill: rgb(255, 255, 255);" d="m 428.76912,122.52 h 36.36 v -10.728 h -25.056 v -11.88 h 25.056 V 89.184 h -25.056 V 77.088 h 25.056 V 66.36 h -36.36 z" transform="translate(0 281.40999999999997) translate(387.0169499999999 66.94999999999999) scale(1.25) translate(-428.76912 -66.36)"></path> 
   <path id="path347074" style="font-style: normal; font-weight: 700; font-size: 72px; line-height: 1; font-family: &quot;Brandmark1 Bold&quot;; font-variant-ligatures: none; text-align: center; text-anchor: middle; fill: rgb(255, 255, 255);" d="m 482.60712,122.52 h 11.304 V 77.088 h 15.48 V 66.36 h -42.048 v 10.728 h 15.264 z" transform="translate(0 281.40999999999997) translate(447.73444999999987 66.94999999999999) scale(1.25) translate(-467.34312 -66.36)"></path> 
   <path id="path347076" style="font-style: normal; font-weight: 700; font-size: 72px; line-height: 1; font-family: &quot;Brandmark1 Bold&quot;; font-variant-ligatures: none; text-align: center; text-anchor: middle; fill: rgb(255, 255, 255);" d="m 512.72225,122.52 h 36.36 v -10.728 h -25.056 v -11.88 h 25.056 V 89.184 h -25.056 V 77.088 h 25.056 V 66.36 h -36.36 z" transform="translate(0 281.40999999999997) translate(516.9583624999999 66.94999999999999) scale(1.25) translate(-512.72225 -66.36)"></path> 
   <path id="path347078" style="font-style: normal; font-weight: 700; font-size: 72px; line-height: 1; font-family: &quot;Brandmark1 Bold&quot;; font-variant-ligatures: none; text-align: center; text-anchor: middle; fill: rgb(255, 255, 255);" d="m 584.41625,101.424 c 2.952,-1.08 5.328,-2.736 7.2,-4.824 2.592,-3.024 3.96,-7.056 3.96,-11.88 0,-5.328 -1.656,-9.864 -4.752,-13.032 -1.728,-1.728 -3.816,-3.096 -6.264,-3.96 -2.448,-0.864 -5.328,-1.368 -8.424,-1.368 h -20.664 v 56.16 h 11.304 V 77.088 h 8.496 c 2.88,0 5.184,0.72 6.624,1.944 1.44,1.224 2.16,3.096 2.16,5.544 0,2.376 -0.72,4.248 -2.088,5.472 -1.656,1.512 -4.176,2.232 -7.56,2.232 h -2.16 v 11.016 l 13.32,19.224 h 13.68 z" transform="translate(0 281.40999999999997) translate(582.8958624999999 66.94999999999999) scale(1.25) translate(-555.47225 -66.36)"></path> 
   <path id="path347080" style="font-style: normal; font-weight: 700; font-size: 72px; line-height: 1; font-family: &quot;Brandmark1 Bold&quot;; font-variant-ligatures: none; text-align: center; text-anchor: middle; fill: rgb(255, 255, 255);" d="m 625.89837,122.808 c 3.81601,0 7.56001,-0.72 11.088,-2.232 3.384,-1.368 6.408,-3.456 9,-6.048 2.59201,-2.592 4.68001,-5.616 6.12,-9 1.44,-3.528 2.23201,-7.272 2.23201,-11.088 0,-3.816 -0.79201,-7.56 -2.23201,-11.088 -1.43999,-3.384 -3.52799,-6.408 -6.12,-9 -2.592,-2.592 -5.616,-4.68 -9,-6.12 -3.52799,-1.44 -7.27199,-2.232 -11.088,-2.232 -3.816,0 -7.55999,0.792 -11.08799,2.232 -3.38401,1.44 -6.40801,3.528 -9,6.12 -2.592,2.592 -4.68001,5.616 -6.048,9 -1.51201,3.528 -2.232,7.272 -2.232,11.088 0,3.816 0.71999,7.56 2.232,11.088 1.36799,3.384 3.456,6.408 6.048,9 2.59199,2.592 5.61599,4.68 9,6.048 3.528,1.512 7.27199,2.232 11.08799,2.232 z m 0,-45.504 c 4.53601,0 8.856,1.8 12.096,5.04 3.24,3.24 5.04,7.56 5.04,12.096 0,4.608 -1.8,8.856 -5.04,12.096 -3.24,3.24 -7.48799,5.04 -12.096,5.04 -4.53599,0 -8.856,-1.8 -12.096,-5.04 -3.24,-3.24 -5.03999,-7.488 -5.03999,-12.096 0,-4.536 1.79999,-8.856 5.03999,-12.096 3.24,-3.24 7.56001,-5.04 12.096,-5.04 z" transform="translate(0 281.40999999999997) translate(647.968525 66.5) scale(1.25) translate(-597.53038 -66)"></path> 
   <path id="path347082" style="font-style: normal; font-weight: 700; font-size: 72px; line-height: 1; font-family: &quot;Brandmark1 Bold&quot;; font-variant-ligatures: none; text-align: center; text-anchor: middle; fill: rgb(255, 255, 255);" d="m 657.41187,121.512 11.16,2.232 20.592,-48.384 v -7.344 h -35.712 V 78.6 h 22.53601 z" transform="translate(0 281.40999999999997) translate(730.3703874999999 69.02000000000001) scale(1.25) translate(-653.45187 -68.016)"></path> 
  </g> 
  <g id="tagline" style="font-style:normal;font-weight:400;font-size:32px;line-height:1;font-family:Montserrat;font-variant-ligatures:none;text-align:center;text-anchor:middle"></g> 
 </g> 
</svg>