<svg xmlns:dc="http://purl.org/dc/elements/1.1/" xmlns:cc="http://creativecommons.org/ns#" xmlns:rdf="http://www.w3.org/1999/02/22-rdf-syntax-ns#" xmlns:svg="http://www.w3.org/2000/svg" xmlns="http://www.w3.org/2000/svg" id="svg341806" viewbox="0 0 1024 768" height="768px" width="1024px" version="1.1"> <metadata id="metadata341812"> 
  <rdf:rdf> 
   <cc:work rdf:about=""> 
    <dc:format>
     image/svg+xml
    </dc:format> 
    <dc:type rdf:resource="http://purl.org/dc/dcmitype/StillImage"></dc:type> 
   </cc:work> 
  </rdf:rdf> 
 </metadata> <defs id="defs341810"></defs> <g id="logo-group"> 
  <g id="title" style="font-style:normal;font-weight:700;font-size:72px;line-height:1;font-family:Phenomena;font-variant-ligatures:none;text-align:center;text-anchor:middle" aria-label="FIRSTCHOICEO7"> 
   <path id="path341814" style="font-style: normal; font-weight: 700; font-size: 72px; line-height: 1; font-family: Phenomena; font-variant-ligatures: none; text-align: center; text-anchor: middle; fill: rgb(157, 96, 91);" d="m 344.1365,120 h 4.608 c 0.576,0 0.936,-0.36 0.936,-1.008 V 97.968 h 10.728 c 0.576,0 0.936,-0.36 0.936,-0.936 v -4.104 c 0,-0.576 -0.36,-0.936 -0.936,-0.936 h -10.728 v -9.36 c 0,-4.104 2.52,-6.984 6.264,-6.984 h 5.832 c 0.648,0 1.008,-0.36 1.008,-1.008 v -4.104 c 0,-0.576 -0.36,-0.936 -1.008,-0.936 h -6.336 c -7.272,0 -12.24,5.472 -12.24,12.888 v 36.504 c 0,0.648 0.36,1.008 0.936,1.008 z" transform="translate(0 279.4305112109306) translate(251.9999999999999 71.77294113627879) scale(1.301450303682167) translate(-343.2005 -69.6)"></path> 
   <path id="path341816" style="font-style: normal; font-weight: 700; font-size: 72px; line-height: 1; font-family: Phenomena; font-variant-ligatures: none; text-align: center; text-anchor: middle; fill: rgb(157, 96, 91);" d="m 368.3825,70.536 v 48.456 c 0,0.648 0.36,1.008 1.008,1.008 h 4.536 c 0.576,0 0.936,-0.36 0.936,-1.008 V 70.536 c 0,-0.576 -0.36,-0.936 -0.936,-0.936 h -4.536 c -0.648,0 -1.008,0.36 -1.008,0.936 z" transform="translate(0 279.4305112109306) translate(291.28037306573503 71.77294113627879) scale(1.301450303682167) translate(-368.3825 -69.6)"></path> 
   <path id="path341818" style="font-style: normal; font-weight: 700; font-size: 72px; line-height: 1; font-family: Phenomena; font-variant-ligatures: none; text-align: center; text-anchor: middle; fill: rgb(157, 96, 91);" d="m 384.074,120 h 4.608 c 0.576,0 0.936,-0.36 0.936,-1.008 v -18 h 5.832 l 6.84,18.144 c 0.144,0.576 0.432,0.864 1.008,0.864 h 4.896 c 0.648,0 1.152,-0.432 0.936,-1.08 l -7.704,-19.44 c 3.744,-2.016 6.408,-6.048 6.408,-11.592 v -5.76 c 0,-7.848 -5.04,-13.32 -12.456,-13.32 -7.272,0 -12.24,5.472 -12.24,13.32 v 36.864 c 0,0.648 0.36,1.008 0.936,1.008 z m 5.544,-24.984 V 81.84 c 0,-4.176 2.376,-6.912 5.832,-6.912 3.456,0 5.832,2.736 5.832,6.912 v 6.192 c 0,4.248 -2.376,6.984 -6.12,6.984 z" transform="translate(0 279.4305112109306) translate(316.99117454012804 70.74219249576255) scale(1.301450303682167) translate(-383.138 -68.808)"></path> 
   <path id="path341820" style="font-style: normal; font-weight: 700; font-size: 72px; line-height: 1; font-family: Phenomena; font-variant-ligatures: none; text-align: center; text-anchor: middle; fill: rgb(157, 96, 91);" d="m 425.93187,120.792 c 7.488,0 12.456,-4.68 12.456,-12.096 0,-14.688 -18.144,-18.072 -18.144,-28.368 0,-3.6 1.94401,-5.472 5.472,-5.472 3.384,0 5.32801,2.448 5.54401,7.776 0,0.576 0.35999,0.936 0.93599,0.936 h 4.536 c 0.648,0 0.936,-0.36 0.936,-0.936 -0.288,-8.424 -4.96799,-13.824 -12.024,-13.824 -7.128,0 -11.88,4.464 -11.88,11.52 0,13.824 18.072,17.208 18.072,28.368 0,3.888 -2.01599,5.976 -5.832,5.976 -3.88799,0 -5.976,-2.736 -6.12,-8.208 -0.072,-0.576 -0.432,-0.936 -1.008,-0.936 h -4.536 c -0.648,0 -1.00799,0.36 -1.00799,1.008 0.28799,8.712 5.11199,14.256 12.59999,14.256 z" transform="translate(0 279.4305112109306) translate(362.7942603538818 70.74219249576255) scale(1.301450303682167) translate(-413.33188 -68.808)"></path> 
   <path id="path341822" style="font-style: normal; font-weight: 700; font-size: 72px; line-height: 1; font-family: Phenomena; font-variant-ligatures: none; text-align: center; text-anchor: middle; fill: rgb(157, 96, 91);" d="m 464.25725,69.6 h -22.104 c -0.576,0 -0.936,0.36 -0.936,0.936 v 4.104 c 0,0.648 0.36,1.008 0.936,1.008 h 7.848 v 43.344 c 0,0.648 0.36,1.008 0.936,1.008 h 4.536 c 0.648,0 1.008,-0.36 1.008,-1.008 V 75.648 h 7.776 c 0.648,0 1.008,-0.36 1.008,-1.008 v -4.104 c 0,-0.576 -0.36,-0.936 -1.008,-0.936 z" transform="translate(0 279.4305112109306) translate(405.59293512708217 71.77294113627879) scale(1.301450303682167) translate(-441.21725 -69.6)"></path> 
   <path id="path341824" style="font-style: normal; font-weight: 700; font-size: 72px; line-height: 1; font-family: Phenomena; font-variant-ligatures: none; text-align: center; text-anchor: middle; fill: rgb(157, 96, 91);" d="m 480.01738,120.792 c 7.34399,0 12.168,-5.544 12.45599,-14.256 0,-0.648 -0.35999,-1.008 -0.936,-1.008 h -4.608 c -0.57599,0 -0.93599,0.288 -0.93599,0.936 -0.14401,5.256 -2.37601,8.208 -6.048,8.208 -3.60001,0 -5.688,-2.448 -5.688,-6.48 V 81.408 c 0,-4.032 2.08799,-6.48 5.688,-6.48 3.312,0 5.54399,2.664 5.68799,7.704 0,0.648 0.36001,0.936 0.936,0.936 h 4.608 c 0.648,0 0.93601,-0.36 0.93601,-0.936 -0.21601,-8.424 -5.04001,-13.824 -12.096,-13.824 -7.344,0 -12.31201,5.184 -12.31201,12.96 v 26.064 c 0,7.776 4.96801,12.96 12.31201,12.96 z" transform="translate(0 279.4305112109306) translate(446.57315846346273 70.74219249576255) scale(1.301450303682167) translate(-467.70537 -68.808)"></path> 
   <path id="path341826" style="font-style: normal; font-weight: 700; font-size: 72px; line-height: 1; font-family: Phenomena; font-variant-ligatures: none; text-align: center; text-anchor: middle; fill: rgb(157, 96, 91);" d="M 515.74738,70.536 V 91.488 H 504.65937 V 70.536 c 0,-0.576 -0.36,-0.936 -0.936,-0.936 h -4.536 c -0.648,0 -1.008,0.36 -1.008,0.936 v 48.456 c 0,0.648 0.36,1.008 1.008,1.008 h 4.536 c 0.576,0 0.936,-0.36 0.936,-1.008 V 97.464 h 11.08801 v 21.528 c 0,0.648 0.36,1.008 1.00799,1.008 h 4.53601 c 0.576,0 0.936,-0.36 0.936,-1.008 V 70.536 c 0,-0.576 -0.36,-0.936 -0.936,-0.936 h -4.53601 c -0.64799,0 -1.00799,0.36 -1.00799,0.936 z" transform="translate(0 279.4305112109306) translate(492.74080653628386 71.77294113627879) scale(1.301450303682167) translate(-498.17937 -69.6)"></path> 
   <path id="path341828" style="font-style: normal; font-weight: 700; font-size: 72px; line-height: 1; font-family: Phenomena; font-variant-ligatures: none; text-align: center; text-anchor: middle; fill: rgb(157, 96, 91);" d="m 542.32438,120.72 c 7.48799,0 12.67199,-5.472 12.67199,-13.032 V 81.912 c 0,-7.56 -5.184,-13.032 -12.67199,-13.032 -7.48801,0 -12.74401,5.472 -12.74401,13.536 v 24.768 c 0,8.064 5.256,13.536 12.74401,13.536 z m 0,-6.048 c -3.67201,0 -6.192,-2.736 -6.192,-7.2 V 82.128 c 0,-4.464 2.51999,-7.2 6.192,-7.2 3.67199,0 6.12,2.736 6.12,6.696 v 26.352 c 0,3.96 -2.44801,6.696 -6.12,6.696 z" transform="translate(0 279.4305112109306) translate(540.1148990406184 70.83589691762766) scale(1.301450303682167) translate(-529.58037 -68.88)"></path> 
   <path id="path341830" style="font-style: normal; font-weight: 700; font-size: 72px; line-height: 1; font-family: Phenomena; font-variant-ligatures: none; text-align: center; text-anchor: middle; fill: rgb(157, 96, 91);" d="m 562.445,70.536 v 48.456 c 0,0.648 0.36,1.008 1.008,1.008 h 4.536 c 0.576,0 0.936,-0.36 0.936,-1.008 V 70.536 c 0,-0.576 -0.36,-0.936 -0.936,-0.936 h -4.536 c -0.648,0 -1.008,0.36 -1.008,0.936 z" transform="translate(0 279.4305112109306) translate(589.3938332529312 71.77294113627879) scale(1.301450303682167) translate(-562.445 -69.6)"></path> 
   <path id="path341832" style="font-style: normal; font-weight: 700; font-size: 72px; line-height: 1; font-family: Phenomena; font-variant-ligatures: none; text-align: center; text-anchor: middle; fill: rgb(157, 96, 91);" d="m 588.7205,120.792 c 7.344,0 12.168,-5.544 12.456,-14.256 0,-0.648 -0.36,-1.008 -0.936,-1.008 h -4.608 c -0.576,0 -0.936,0.288 -0.936,0.936 -0.144,5.256 -2.376,8.208 -6.048,8.208 -3.6,0 -5.688,-2.448 -5.688,-6.48 V 81.408 c 0,-4.032 2.088,-6.48 5.688,-6.48 3.312,0 5.544,2.664 5.688,7.704 0,0.648 0.36,0.936 0.936,0.936 h 4.608 c 0.648,0 0.936,-0.36 0.936,-0.936 -0.216,-8.424 -5.04,-13.824 -12.096,-13.824 -7.344,0 -12.312,5.184 -12.312,12.96 v 26.064 c 0,7.776 4.968,12.96 12.312,12.96 z" transform="translate(0 279.4305112109306) translate(614.0738860868079 70.74219249576255) scale(1.301450303682167) translate(-576.4085 -68.808)"></path> 
   <path id="path341834" style="font-style: normal; font-weight: 700; font-size: 72px; line-height: 1; font-family: Phenomena; font-variant-ligatures: none; text-align: center; text-anchor: middle; fill: rgb(157, 96, 91);" d="m 617.9705,120.216 h 7.56 c 0.576,0 0.936,-0.36 0.936,-0.936 v -4.104 c 0,-0.648 -0.36,-1.008 -0.936,-1.008 h -7.056 c -3.744,0 -6.264,-2.88 -6.264,-6.984 v -9.72 h 11.52 c 0.648,0 1.008,-0.36 1.008,-1.008 v -3.888 c 0,-0.648 -0.36,-1.008 -1.008,-1.008 h -11.52 v -9.144 c 0,-4.104 2.52,-6.984 6.264,-6.984 h 7.056 c 0.576,0 0.936,-0.36 0.936,-1.008 V 70.32 c 0,-0.576 -0.36,-0.936 -0.936,-0.936 h -7.56 c -7.272,0 -12.312,5.472 -12.312,12.888 v 25.056 c 0,7.416 5.04,12.888 12.312,12.888 z" transform="translate(0 279.4305112109306) translate(658.6485589879221 71.49182787068348) scale(1.301450303682167) translate(-605.6585 -69.384)"></path> 
   <path id="path341836" style="font-style: normal; font-weight: 700; font-size: 72px; line-height: 1; font-family: Phenomena; font-variant-ligatures: none; text-align: center; text-anchor: middle; fill: rgb(51, 50, 67);" d="m 644.41813,120.72 c 7.48799,0 12.67199,-5.472 12.67199,-13.032 V 81.912 c 0,-7.56 -5.184,-13.032 -12.67199,-13.032 -7.48801,0 -12.74401,5.472 -12.74401,13.536 v 24.768 c 0,8.064 5.256,13.536 12.74401,13.536 z m 0,-6.048 c -3.67201,0 -6.192,-2.736 -6.192,-7.2 V 82.128 c 0,-4.464 2.51999,-7.2 6.192,-7.2 3.67199,0 6.12,2.736 6.12,6.696 v 26.352 c 0,3.96 -2.44801,6.696 -6.12,6.696 z" transform="translate(0 279.4305112109306) translate(699.0138470558128 70.83589691762766) scale(1.301450303682167) translate(-631.67412 -68.88)"></path> 
   <path id="path341838" style="font-style: normal; font-weight: 700; font-size: 72px; line-height: 1; font-family: Phenomena; font-variant-ligatures: none; text-align: center; text-anchor: middle; fill: rgb(51, 50, 67);" d="m 661.15475,70.536 v 4.104 c 0,0.648 0.36,1.008 0.936,1.008 h 13.752 l -10.44,43.272 c -0.144,0.648 0.144,1.08 0.864,1.08 h 4.536 c 0.576,0 0.936,-0.288 1.08,-0.864 L 682.39475,75 c 0.288,-1.224 0.36,-2.088 0.36,-3.384 0,-1.368 -0.792,-2.016 -2.16,-2.016 h -18.504 c -0.576,0 -0.936,0.36 -0.936,0.936 z" transform="translate(0 279.4305112109306) translate(743.8886734404651 71.77294113627879) scale(1.301450303682167) translate(-661.15475 -69.6)"></path> 
  </g> 
  <g id="tagline" style="font-style:oblique;font-weight:normal;font-size:32px;line-height:1;font-family:'Fira Sans Condensed';font-variant-ligatures:none;text-align:center;text-anchor:middle"></g> 
 </g> 
</svg>