<svg xmlns:dc="http://purl.org/dc/elements/1.1/" xmlns:cc="http://creativecommons.org/ns#" xmlns:rdf="http://www.w3.org/1999/02/22-rdf-syntax-ns#" xmlns:svg="http://www.w3.org/2000/svg" xmlns="http://www.w3.org/2000/svg" id="svg47660" viewbox="0 0 1024 768" height="768px" width="1024px" version="1.1"> <metadata id="metadata47666"> 
  <rdf:rdf> 
   <cc:work rdf:about=""> 
    <dc:format>
     image/svg+xml
    </dc:format> 
    <dc:type rdf:resource="http://purl.org/dc/dcmitype/StillImage"></dc:type> 
   </cc:work> 
  </rdf:rdf> 
 </metadata> <defs id="defs47664"></defs> <g id="logo-group"> 
  <g id="title" style="font-style:normal;font-weight:700;font-size:72px;line-height:1;font-family:'Comfortaa Bold Alt1';font-variant-ligatures:none;text-align:center;text-anchor:middle" aria-label="firstrateo7"> 
   <path id="path47668" style="font-style: normal; font-weight: 700; font-size: 72px; line-height: 1; font-family: &quot;Comfortaa Bold Alt1&quot;; font-variant-ligatures: none; text-align: center; text-anchor: middle; fill: rgb(233, 232, 227);" d="m 325.27812,82.056 v 6.192 28.08 c 0,1.152 0.288,2.016 1.00801,2.664 0.71999,0.72 1.512,1.008 2.51999,1.008 1.152,0 2.088,-0.288 2.808,-1.008 0.64801,-0.648 1.008,-1.512 1.008,-2.664 v -28.08 h 7.344 c 1.00801,0 1.8,-0.288 2.44801,-0.864 0.57599,-0.576 0.93599,-1.296 0.93599,-2.16 0,-0.936 -0.36,-1.728 -0.93599,-2.304 -0.64801,-0.576 -1.44,-0.864 -2.44801,-0.864 h -7.344 v -1.944 c 0,-2.88 0.79201,-5.256 2.44801,-7.056 1.584,-1.728 3.74399,-2.664 6.47999,-2.664 1.00801,0 1.872,-0.288 2.59201,-0.936 0.71999,-0.576 1.07999,-1.368 1.07999,-2.376 0,-0.936 -0.36,-1.728 -1.07999,-2.376 -0.72001,-0.576 -1.584,-0.936 -2.59201,-0.936 -3.23999,0 -6.048,0.72 -8.496,2.16 -2.44799,1.44 -4.392,3.384 -5.76,5.976 -1.36799,2.592 -2.016,5.544 -2.016,8.928 z" transform="translate(0 307.18344781048654) translate(252 48.975262556709396) scale(0.983930224512442) translate(-325.27812 -63.768)"></path> 
   <path id="path47670" style="font-style: normal; font-weight: 700; font-size: 72px; line-height: 1; font-family: &quot;Comfortaa Bold Alt1&quot;; font-variant-ligatures: none; text-align: center; text-anchor: middle; fill: rgb(233, 232, 227);" d="m 352.72363,81.624 c -0.72001,0.72 -1.00801,1.584 -1.00801,2.664 v 32.04 c 0,1.08 0.288,1.944 1.00801,2.664 0.71999,0.72 1.584,1.008 2.664,1.008 1.07999,0 1.94399,-0.288 2.66399,-1.008 0.64801,-0.72 1.008,-1.584 1.008,-2.664 v -32.04 c 0,-1.08 -0.35999,-1.944 -1.008,-2.664 -0.72,-0.648 -1.584,-1.008 -2.66399,-1.008 -1.08,0 -1.94401,0.36 -2.664,1.008 z" transform="translate(0 307.18344781048654) translate(292.7716086782343 65.55251897929503) scale(0.983930224512442) translate(-351.71562 -80.616)"></path> 
   <path id="path47672" style="font-style: normal; font-weight: 700; font-size: 72px; line-height: 1; font-family: &quot;Comfortaa Bold Alt1&quot;; font-variant-ligatures: none; text-align: center; text-anchor: middle; fill: rgb(233, 232, 227);" d="m 398.0645,81.336 c -1.44,-0.72 -3.456,-1.152 -5.976,-1.152 -2.448,0 -4.68,0.504 -6.768,1.44 -2.16,1.008 -3.888,2.304 -5.328,3.96 v -1.368 c 0,-2.376 -1.224,-3.6 -3.6,-3.6 -1.152,0 -2.088,0.36 -2.664,0.936 -0.648,0.648 -0.936,1.512 -0.936,2.664 V 116.4 c 0,1.224 0.288,2.16 0.936,2.736 0.576,0.576 1.512,0.864 2.664,0.864 1.152,0 2.088,-0.288 2.664,-0.936 0.576,-0.576 0.936,-1.512 0.936,-2.664 V 95.376 c 0,-2.664 1.008,-4.824 3.168,-6.408 2.088,-1.584 4.896,-2.376 8.352,-2.376 1.152,0 2.736,0.216 4.68,0.504 0.432,0.144 0.792,0.144 1.08,0.144 1.44,0 2.448,-0.72 2.88,-2.304 0,-0.144 0.072,-0.36 0.072,-0.72 0,-1.152 -0.72,-2.088 -2.16,-2.88 z" transform="translate(0 307.18344781048654) translate(328.2687413163428 65.12746112230565) scale(0.983930224512442) translate(-372.7925 -80.184)"></path> 
   <path id="path47674" style="font-style: normal; font-weight: 700; font-size: 72px; line-height: 1; font-family: &quot;Comfortaa Bold Alt1&quot;; font-variant-ligatures: none; text-align: center; text-anchor: middle; fill: rgb(233, 232, 227);" d="m 429.98412,81.84 c -2.448,-1.008 -5.256,-1.512 -8.352,-1.512 -2.592,0 -4.96799,0.432 -7.2,1.224 -2.304,0.864 -4.104,2.088 -5.472,3.672 -1.44,1.656 -2.088,3.672 -2.088,5.976 0,5.832 4.608,9.648 13.824,11.376 3.52801,0.72 6.048,1.512 7.56,2.52 1.44,1.008 2.23201,2.232 2.23201,3.672 0,1.584 -0.79201,2.808 -2.30401,3.672 -1.512,0.936 -3.6,1.368 -6.336,1.368 -2.08799,0 -4.032,-0.36 -5.832,-1.08 -1.872,-0.72 -3.24,-1.656 -4.104,-2.664 -0.86399,-0.864 -1.8,-1.296 -2.73599,-1.296 -0.79201,0 -1.65601,0.36 -2.52001,1.008 -1.008,0.72 -1.44,1.656 -1.44,2.808 0,0.864 0.288,1.656 0.936,2.232 1.58401,1.656 3.888,2.952 6.768,3.96 2.88,1.008 5.904,1.512 9.216,1.512 3.24,0 6.048,-0.504 8.35201,-1.512 2.30399,-1.008 4.10399,-2.448 5.32799,-4.248 1.152,-1.8 1.8,-3.816 1.8,-6.048 0,-2.952 -1.152,-5.4 -3.312,-7.272 -2.16,-1.872 -5.904,-3.312 -11.088,-4.392 -2.592,-0.504 -4.536,-1.008 -5.832,-1.584 -1.368,-0.576 -2.304,-1.152 -2.736,-1.8 -0.504,-0.648 -0.71999,-1.44 -0.71999,-2.448 0,-1.296 0.64799,-2.376 2.08799,-3.096 1.44,-0.72 3.24,-1.152 5.47201,-1.152 1.87199,0 3.52799,0.288 4.89599,0.72 1.296,0.432 2.59201,1.224 3.81601,2.304 1.00799,0.936 2.08799,1.368 3.38399,1.368 0.792,0 1.44001,-0.144 2.016,-0.576 0.79201,-0.648 1.224,-1.368 1.224,-2.232 0,-0.72 -0.36,-1.512 -0.936,-2.304 -1.44,-1.728 -3.456,-3.168 -5.904,-4.176 z" transform="translate(0 307.18344781048654) translate(374.93027439013554 65.26914707463544) scale(0.983930224512442) translate(-405.21612 -80.328)"></path> 
   <path id="path47676" style="font-style: normal; font-weight: 700; font-size: 72px; line-height: 1; font-family: &quot;Comfortaa Bold Alt1&quot;; font-variant-ligatures: none; text-align: center; text-anchor: middle; fill: rgb(233, 232, 227);" d="m 448.55788,82.056 v 6.192 17.784 c 0,2.664 0.50399,5.04 1.656,7.128 1.08,2.16 2.592,3.816 4.53599,5.04 1.944,1.224 4.10401,1.8 6.48,1.8 h 1.296 c 1.224,0 2.23201,-0.288 3.024,-1.008 0.79201,-0.648 1.224,-1.512 1.224,-2.592 0,-1.008 -0.35999,-1.872 -0.936,-2.592 -0.57599,-0.648 -1.296,-1.008 -2.16,-1.008 h -2.448 c -1.584,0 -2.88,-0.648 -3.88799,-1.944 -1.08001,-1.296 -1.584,-2.88 -1.584,-4.824 V 88.248 h 6.12 c 1.00799,0 1.79999,-0.288 2.44799,-0.864 0.57601,-0.576 0.93601,-1.296 0.93601,-2.16 0,-0.936 -0.36,-1.728 -0.93601,-2.304 -0.648,-0.576 -1.44,-0.864 -2.44799,-0.864 h -6.12 V 71.688 c 0,-1.008 -0.36001,-1.872 -1.00801,-2.592 -0.72,-0.648 -1.58399,-1.008 -2.592,-1.008 -1.08,0 -1.94399,0.36 -2.592,1.008 -0.72,0.72 -1.00799,1.584 -1.00799,2.592 z" transform="translate(0 307.18344781048654) translate(432.3344954053866 53.22584112660314) scale(0.983930224512442) translate(-448.55788 -68.088)"></path> 
   <path id="path47678" style="font-style: normal; font-weight: 700; font-size: 72px; line-height: 1; font-family: &quot;Comfortaa Bold Alt1&quot;; font-variant-ligatures: none; text-align: center; text-anchor: middle; fill: rgb(233, 232, 227);" d="m 501.002,81.336 c -1.44,-0.72 -3.456,-1.152 -5.976,-1.152 -2.448,0 -4.68,0.504 -6.768,1.44 -2.16,1.008 -3.888,2.304 -5.328,3.96 v -1.368 c 0,-2.376 -1.224,-3.6 -3.6,-3.6 -1.152,0 -2.088,0.36 -2.664,0.936 -0.648,0.648 -0.936,1.512 -0.936,2.664 V 116.4 c 0,1.224 0.288,2.16 0.936,2.736 0.576,0.576 1.512,0.864 2.664,0.864 1.152,0 2.088,-0.288 2.664,-0.936 0.576,-0.576 0.936,-1.512 0.936,-2.664 V 95.376 c 0,-2.664 1.008,-4.824 3.168,-6.408 2.088,-1.584 4.896,-2.376 8.352,-2.376 1.152,0 2.736,0.216 4.68,0.504 0.432,0.144 0.792,0.144 1.08,0.144 1.44,0 2.448,-0.72 2.88,-2.304 0,-0.144 0.072,-0.36 0.072,-0.72 0,-1.152 -0.72,-2.088 -2.16,-2.88 z" transform="translate(0 307.18344781048654) translate(473.82891890515225 65.12746112230565) scale(0.983930224512442) translate(-475.73 -80.184)"></path> 
   <path id="path47680" style="font-style: normal; font-weight: 700; font-size: 72px; line-height: 1; font-family: &quot;Comfortaa Bold Alt1&quot;; font-variant-ligatures: none; text-align: center; text-anchor: middle; fill: rgb(233, 232, 227);" d="m 545.58912,100.344 c 0,-3.672 -0.93599,-7.128 -2.664,-10.152 -1.72799,-3.024 -4.10399,-5.472 -7.12799,-7.2 -3.024,-1.728 -6.336,-2.664 -10.008,-2.664 -3.74401,0 -7.12801,0.936 -10.15201,2.664 -3.024,1.728 -5.4,4.176 -7.128,7.2 -1.728,3.024 -2.592,6.408 -2.592,10.152 0,3.744 0.792,7.2 2.376,10.224 1.584,3.024 3.816,5.4 6.62401,7.128 2.88,1.8 5.976,2.664 9.43199,2.664 h 0.576 17.20801 c 0.93599,0 1.728,-0.36 2.448,-1.008 0.64799,-0.648 1.00799,-1.44 1.00799,-2.448 V 116.4 Z m -30.95999,6.912 c -1.15201,-2.016 -1.65601,-4.32 -1.65601,-6.912 0,-2.52 0.504,-4.824 1.65601,-6.912 1.15199,-2.016 2.664,-3.672 4.60799,-4.824 1.944,-1.152 4.10401,-1.8 6.55201,-1.8 2.37599,0 4.53599,0.648 6.48,1.8 1.94399,1.152 3.456,2.808 4.60799,4.824 1.08001,2.088 1.65601,4.392 1.65601,6.912 0,2.592 -0.576,4.896 -1.65601,6.912 -1.15199,2.016 -2.664,3.672 -4.60799,4.824 -1.94401,1.152 -4.10401,1.728 -6.48,1.728 -2.448,0 -4.60801,-0.576 -6.55201,-1.728 -1.94399,-1.152 -3.456,-2.808 -4.60799,-4.824 z" transform="translate(0 307.18344781048654) translate(518.2898920318229 65.26914707463544) scale(0.983930224512442) translate(-505.91712 -80.328)"></path> 
   <path id="path47682" style="font-style: normal; font-weight: 700; font-size: 72px; line-height: 1; font-family: &quot;Comfortaa Bold Alt1&quot;; font-variant-ligatures: none; text-align: center; text-anchor: middle; fill: rgb(233, 232, 227);" d="m 558.24537,82.056 v 6.192 17.784 c 0,2.664 0.504,5.04 1.65601,7.128 1.07999,2.16 2.592,3.816 4.53599,5.04 1.94401,1.224 4.10401,1.8 6.48,1.8 h 1.29601 c 1.22399,0 2.232,-0.288 3.024,-1.008 0.79199,-0.648 1.22399,-1.512 1.22399,-2.592 0,-1.008 -0.36,-1.872 -0.936,-2.592 -0.57599,-0.648 -1.296,-1.008 -2.16,-1.008 h -2.448 c -1.58399,0 -2.88,-0.648 -3.888,-1.944 -1.07999,-1.296 -1.58399,-2.88 -1.58399,-4.824 V 88.248 h 6.12 c 1.00799,0 1.79999,-0.288 2.44799,-0.864 0.57601,-0.576 0.93601,-1.296 0.93601,-2.16 0,-0.936 -0.36,-1.728 -0.93601,-2.304 -0.648,-0.576 -1.44,-0.864 -2.44799,-0.864 h -6.12 V 71.688 c 0,-1.008 -0.36001,-1.872 -1.00801,-2.592 -0.72,-0.648 -1.58399,-1.008 -2.592,-1.008 -1.08,0 -1.94399,0.36 -2.592,1.008 -0.72,0.72 -1.008,1.584 -1.008,2.592 z" transform="translate(0 307.18344781048654) translate(584.5361921703527 53.22584112660314) scale(0.983930224512442) translate(-558.24537 -68.088)"></path> 
   <path id="path47684" style="font-style: normal; font-weight: 700; font-size: 72px; line-height: 1; font-family: &quot;Comfortaa Bold Alt1&quot;; font-variant-ligatures: none; text-align: center; text-anchor: middle; fill: rgb(233, 232, 227);" d="m 619.8335,102 c 0.576,-0.576 0.936,-1.368 0.936,-2.304 0,-3.744 -0.72,-7.128 -2.16,-10.08 -1.44,-2.88 -3.528,-5.184 -6.192,-6.84 -2.736,-1.584 -5.904,-2.448 -9.576,-2.448 -3.744,0 -7.128,0.864 -10.08,2.592 -2.952,1.728 -5.256,4.104 -6.912,7.128 -1.656,3.024 -2.448,6.48 -2.448,10.296 0,3.888 0.864,7.272 2.592,10.296 1.728,3.024 4.176,5.4 7.344,7.128 3.096,1.728 6.624,2.52 10.584,2.52 2.16,0 4.464,-0.36 6.912,-1.224 2.448,-0.792 4.464,-1.872 6.12,-3.168 0.72,-0.576 1.152,-1.296 1.152,-2.16 0,-0.864 -0.432,-1.728 -1.296,-2.448 -0.576,-0.432 -1.296,-0.72 -2.16,-0.72 -0.936,0 -1.728,0.288 -2.376,0.792 -1.008,0.792 -2.304,1.44 -3.888,1.944 -1.584,0.576 -3.024,0.792 -4.464,0.792 -3.672,0 -6.768,-1.008 -9.288,-3.096 -2.52,-2.016 -4.032,-4.752 -4.536,-8.136 h 27.36 c 0.936,0 1.728,-0.288 2.376,-0.864 z m -25.56,-12.6 c 2.16,-1.872 5.04,-2.88 8.568,-2.88 3.168,0 5.688,1.008 7.704,2.88 1.944,1.944 3.168,4.536 3.6,7.704 h -23.976 c 0.576,-3.168 1.944,-5.76 4.104,-7.704 z" transform="translate(0 307.18344781048654) translate(624.0470221768036 65.26914707463544) scale(0.983930224512442) translate(-583.4015 -80.328)"></path> 
   <path id="path47686" style="font-style: normal; font-weight: 700; font-size: 72px; line-height: 1; font-family: &quot;Comfortaa Bold Alt1&quot;; font-variant-ligatures: none; text-align: center; text-anchor: middle; fill: rgb(90, 49, 25);" d="m 656.738,82.92 c -3.024,-1.728 -6.408,-2.592 -10.152,-2.592 -3.888,0 -7.272,0.864 -10.296,2.592 -3.024,1.728 -5.4,4.032 -7.056,7.056 -1.728,3.024 -2.52,6.48 -2.52,10.368 0,3.888 0.792,7.272 2.52,10.296 1.656,3.024 4.032,5.4 7.056,7.128 3.024,1.728 6.408,2.52 10.296,2.52 3.816,0 7.2,-0.792 10.224,-2.52 3.024,-1.728 5.328,-4.104 7.056,-7.128 1.656,-3.024 2.52,-6.408 2.52,-10.296 0,-3.888 -0.864,-7.344 -2.592,-10.368 -1.728,-3.024 -4.032,-5.328 -7.056,-7.056 z m -16.776,5.616 c 1.944,-1.152 4.176,-1.728 6.624,-1.728 2.448,0 4.608,0.576 6.552,1.728 1.944,1.152 3.456,2.808 4.536,4.824 1.08,2.088 1.656,4.392 1.656,6.984 0,2.592 -0.576,4.968 -1.656,6.984 -1.08,2.016 -2.592,3.6 -4.536,4.752 -1.944,1.152 -4.104,1.728 -6.552,1.728 -2.448,0 -4.68,-0.576 -6.624,-1.728 -1.944,-1.152 -3.456,-2.736 -4.536,-4.752 -1.152,-2.016 -1.656,-4.392 -1.656,-6.984 0,-2.592 0.504,-4.896 1.656,-6.984 1.08,-2.016 2.592,-3.672 4.536,-4.824 z" transform="translate(0 307.18344781048654) translate(681.4224533936853 65.26914707463544) scale(0.983930224512442) translate(-626.714 -80.328)"></path> 
   <path id="path47688" style="font-style: normal; font-weight: 700; font-size: 72px; line-height: 1; font-family: &quot;Comfortaa Bold Alt1&quot;; font-variant-ligatures: none; text-align: center; text-anchor: middle; fill: rgb(90, 49, 25);" d="m 670.00288,70.104 c 0.72,0.72 1.58399,1.008 2.66399,1.008 h 21.88801 l -20.664,42.912 c -0.432,0.864 -0.648,1.656 -0.648,2.304 0,1.008 0.36,1.872 1.07999,2.592 0.72,0.72 1.512,1.08 2.52001,1.08 0.64799,0 1.29599,-0.144 1.94399,-0.504 0.57601,-0.36 1.08001,-0.864 1.44,-1.512 l 23.04001,-48.6 c 0.288,-0.72 0.504,-1.368 0.504,-1.944 0,-1.008 -0.36,-1.872 -1.08001,-2.592 -0.72,-0.72 -1.584,-1.08 -2.59199,-1.08 h -27.43201 c -1.08,0 -1.94399,0.36 -2.66399,1.08 -0.72001,0.72 -1.00801,1.584 -1.00801,2.592 0,1.08 0.288,1.944 1.00801,2.664 z" transform="translate(0 307.18344781048654) translate(737.7828326730532 48.975262556709396) scale(0.983930224512442) translate(-668.99487 -63.768)"></path> 
  </g> 
  <g id="tagline" style="font-style:normal;font-weight:500;font-size:32px;line-height:1;font-family:Raleway;font-variant-ligatures:none;text-align:center;text-anchor:middle"></g> 
 </g> 
</svg>