<svg xmlns:dc="http://purl.org/dc/elements/1.1/" xmlns:cc="http://creativecommons.org/ns#" xmlns:rdf="http://www.w3.org/1999/02/22-rdf-syntax-ns#" xmlns:svg="http://www.w3.org/2000/svg" xmlns="http://www.w3.org/2000/svg" id="svg96756" viewbox="0 0 1024 768" height="768px" width="1024px" version="1.1"> <metadata id="metadata96762"> 
  <rdf:rdf> 
   <cc:work rdf:about=""> 
    <dc:format>
     image/svg+xml
    </dc:format> 
    <dc:type rdf:resource="http://purl.org/dc/dcmitype/StillImage"></dc:type> 
   </cc:work> 
  </rdf:rdf> 
 </metadata> <defs id="defs96760"></defs> <g id="logo-group"> 
  <g id="title" style="font-style:oblique;font-weight:700;font-size:72px;line-height:1;font-family:Averta;font-variant-ligatures:none;text-align:center;text-anchor:middle" aria-label="Firststepo7"> 
   <path id="path96764" style="font-style: oblique; font-weight: 700; font-size: 72px; line-height: 1; font-family: Averta; font-variant-ligatures: none; text-align: center; text-anchor: middle; fill: rgb(166, 159, 149);" d="m 353.65625,68.88 -6.264,51.12 h 11.304 l 2.232,-18.648 h 16.632 l 1.152,-10.152 h -16.488 l 1.512,-12.024 h 20.016 l 1.296,-10.296 z" transform="translate(0 244.35771827978755) translate(252.0000000000001 89.60391742799659) scale(1.558245026538859) translate(-347.39225 -68.88)"></path> 
   <path id="path96766" style="font-style: oblique; font-weight: 700; font-size: 72px; line-height: 1; font-family: Averta; font-variant-ligatures: none; text-align: center; text-anchor: middle; fill: rgb(166, 159, 149);" d="m 395.729,80.256 c 3.96,0 6.696,-2.736 6.696,-6.408 0,-3.528 -2.592,-6.12 -6.48,-6.12 -3.96,0 -6.696,2.664 -6.696,6.336 0,3.528 2.664,6.192 6.48,6.192 z m -6.696,4.536 -4.32,35.208 h 10.8 l 4.32,-35.208 z" transform="translate(0 244.35771827978755) translate(310.1548730742003 87.80881915742386) scale(1.558245026538859) translate(-384.713 -67.728)"></path> 
   <path id="path96768" style="font-style: oblique; font-weight: 700; font-size: 72px; line-height: 1; font-family: Averta; font-variant-ligatures: none; text-align: center; text-anchor: middle; fill: rgb(166, 159, 149);" d="M 408.08262,84.792 403.76263,120 h 10.8 l 1.58399,-13.536 c 1.29601,-8.352 5.61601,-12.24 10.8,-10.368 l 1.512,-11.952 c -3.888,0 -7.344,1.872 -10.08,5.472 h -0.144 l 0.64801,-4.824 z" transform="translate(0 244.35771827978755) translate(339.83886427910574 113.38896951308577) scale(1.558245026538859) translate(-403.76263 -84.144)"></path> 
   <path id="path96770" style="font-style: oblique; font-weight: 700; font-size: 72px; line-height: 1; font-family: Averta; font-variant-ligatures: none; text-align: center; text-anchor: middle; fill: rgb(166, 159, 149);" d="m 440.87975,120.648 c 8.568,0 13.968,-4.536 13.968,-11.448 0,-5.544 -3.744,-8.064 -9.216,-10.8 -3.24,-1.584 -4.968,-2.736 -4.968,-3.888 0,-1.368 1.368,-2.16 2.808,-2.16 1.656,0.072 4.104,0.936 6.048,3.6 l 6.552,-6.192 c -3.168,-3.816 -7.92,-5.616 -12.672,-5.616 -7.272,0 -13.032,4.68 -13.032,11.736 0,5.184 3.24,8.064 8.568,10.728 4.032,2.088 5.472,2.664 5.472,3.96 0,1.224 -1.368,1.944 -3.24,1.944 -2.736,0 -5.904,-1.656 -7.992,-4.176 l -6.048,6.264 c 3.096,3.888 8.712,6.048 13.752,6.048 z" transform="translate(0 244.35771827978755) translate(376.24744631358936 113.38896951308577) scale(1.558245026538859) translate(-427.12775 -84.144)"></path> 
   <path id="path96772" style="font-style: oblique; font-weight: 700; font-size: 72px; line-height: 1; font-family: Averta; font-variant-ligatures: none; text-align: center; text-anchor: middle; fill: rgb(166, 159, 149);" d="m 469.81812,120.648 c 3.24001,0 6.40801,-0.792 9.43201,-2.448 l -1.728,-8.424 c -1.368,0.72 -2.59201,1.152 -3.52801,1.152 -1.152,0 -1.872,-0.936 -1.584,-2.952 l 1.728,-14.472 h 7.272 l 1.08,-8.712 h -7.272 l 1.512,-12.456 -11.01599,2.16 -1.36801,10.296 h -3.456 l -1.07999,8.712 h 3.45599 l -1.872,15.912 c -1.008,8.136 2.952,11.232 8.424,11.232 z" transform="translate(0 244.35771827978755) translate(427.17460240404245 94.98921223971492) scale(1.558245026538859) translate(-459.81013 -72.336)"></path> 
   <path id="path96774" style="font-style: oblique; font-weight: 700; font-size: 72px; line-height: 1; font-family: Averta; font-variant-ligatures: none; text-align: center; text-anchor: middle; fill: rgb(166, 159, 149);" d="m 496.98912,120.648 c 8.568,0 13.96801,-4.536 13.96801,-11.448 0,-5.544 -3.74401,-8.064 -9.21601,-10.8 -3.24,-1.584 -4.968,-2.736 -4.968,-3.888 0,-1.368 1.368,-2.16 2.808,-2.16 1.656,0.072 4.10401,0.936 6.048,3.6 l 6.552,-6.192 c -3.168,-3.816 -7.92,-5.616 -12.672,-5.616 -7.272,0 -13.032,4.68 -13.032,11.736 0,5.184 3.24,8.064 8.568,10.728 4.03201,2.088 5.47201,2.664 5.47201,3.96 0,1.224 -1.368,1.944 -3.24001,1.944 -2.73599,0 -5.90399,-1.656 -7.992,-4.176 l -6.048,6.264 c 3.096,3.888 8.712,6.048 13.752,6.048 z" transform="translate(0 244.35771827978755) translate(463.67959305831806 113.38896951308577) scale(1.558245026538859) translate(-483.23712 -84.144)"></path> 
   <path id="path96776" style="font-style: oblique; font-weight: 700; font-size: 72px; line-height: 1; font-family: Averta; font-variant-ligatures: none; text-align: center; text-anchor: middle; fill: rgb(166, 159, 149);" d="m 525.9275,120.648 c 3.24,0 6.408,-0.792 9.432,-2.448 l -1.728,-8.424 c -1.368,0.72 -2.592,1.152 -3.528,1.152 -1.152,0 -1.872,-0.936 -1.584,-2.952 l 1.728,-14.472 h 7.272 l 1.08,-8.712 h -7.272 l 1.512,-12.456 -11.016,2.16 -1.368,10.296 h -3.456 l -1.08,8.712 h 3.456 l -1.872,15.912 c -1.008,8.136 2.952,11.232 8.424,11.232 z" transform="translate(0 244.35771827978755) translate(514.6067491487711 94.98921223971492) scale(1.558245026538859) translate(-515.9195 -72.336)"></path> 
   <path id="path96778" style="font-style: oblique; font-weight: 700; font-size: 72px; line-height: 1; font-family: Averta; font-variant-ligatures: none; text-align: center; text-anchor: middle; fill: rgb(166, 159, 149);" d="m 569.80475,93.864 c 0.072,-6.624 -6.336,-9.72 -12.024,-9.72 -11.88,0 -19.296,9.792 -19.296,21.744 -0.072,9.144 5.832,14.76 14.688,14.76 6.912,0 11.592,-2.592 15.336,-7.704 l -8.064,-4.752 c -1.944,2.592 -4.032,3.528 -6.408,3.528 -2.088,0 -4.392,-1.296 -5.04,-4.464 10.368,-1.08 20.664,-4.464 20.808,-13.392 z m -10.368,1.512 c -0.072,3.456 -4.824,4.824 -10.08,5.4 1.224,-4.896 4.392,-7.632 7.488,-7.632 1.656,0 2.664,0.792 2.592,2.232 z" transform="translate(0 244.35771827978755) translate(549.76792487461 113.38896951308577) scale(1.558245026538859) translate(-538.4841 -84.144)"></path> 
   <path id="path96780" style="font-style: oblique; font-weight: 700; font-size: 72px; line-height: 1; font-family: Averta; font-variant-ligatures: none; text-align: center; text-anchor: middle; fill: rgb(166, 159, 149);" d="m 576.97325,84.792 -6.12,49.464 h 10.8 l 1.944,-15.912 0.288,-0.072 c 2.16,1.656 4.896,2.376 8.208,2.376 9.432,0 16.848,-9.576 16.848,-22.104 0,-7.992 -3.816,-14.4 -11.16,-14.4 -4.464,0 -7.992,2.304 -10.584,6.048 l -0.072,-0.144 0.648,-5.256 z m 12.24,26.28 c -1.872,0 -3.672,-0.72 -4.752,-2.16 l 0.072,-0.936 c 1.296,-9.216 5.688,-14.256 9.648,-14.256 2.448,0 3.96,2.52 3.96,5.904 0,5.832 -3.096,11.448 -8.928,11.448 z" transform="translate(0 244.35771827978755) translate(600.2069918754004 113.38896951308577) scale(1.558245026538859) translate(-570.85325 -84.144)"></path> 
   <path id="path96782" style="font-style: oblique; font-weight: 700; font-size: 72px; line-height: 1; font-family: Averta; font-variant-ligatures: none; text-align: center; text-anchor: middle; fill: rgb(212, 175, 160);" d="m 627.92,120.648 c 13.464,0 19.584,-10.008 19.584,-21.456 0,-9.576 -5.976,-15.048 -15.048,-15.048 -12.384,0 -19.44,10.08 -19.44,21.384 0,9.648 5.976,15.12 14.904,15.12 z M 628.712,111 c -2.304,0 -4.752,-1.872 -4.752,-6.048 0,-5.4 2.88,-11.16 7.632,-11.16 1.944,0 4.968,1.08 4.968,6.12 0,5.76 -3.096,11.088 -7.848,11.088 z" transform="translate(0 244.35771827978755) translate(665.9068873681017 113.38896951308577) scale(1.558245026538859) translate(-613.016 -84.144)"></path> 
   <path id="path96784" style="font-style: oblique; font-weight: 700; font-size: 72px; line-height: 1; font-family: Averta; font-variant-ligatures: none; text-align: center; text-anchor: middle; fill: rgb(212, 175, 160);" d="m 681.101,70.536 h -27.864 l -1.224,10.08 h 15.48 l -17.568,38.52 11.088,2.016 19.224,-43.344 z" transform="translate(0 244.35771827978755) translate(723.4201530526245 92.18437119194495) scale(1.558245026538859) translate(-649.925 -70.536)"></path> 
  </g> 
  <g id="tagline" style="font-style:normal;font-weight:500;font-size:32px;line-height:1;font-family:Raleway;font-variant-ligatures:none;text-align:center;text-anchor:middle"></g> 
 </g> 
</svg>