<svg xmlns:dc="http://purl.org/dc/elements/1.1/" xmlns:cc="http://creativecommons.org/ns#" xmlns:rdf="http://www.w3.org/1999/02/22-rdf-syntax-ns#" xmlns:svg="http://www.w3.org/2000/svg" xmlns="http://www.w3.org/2000/svg" id="svg6179" viewbox="0 0 1024 768" height="768px" width="1024px" version="1.1"> <metadata id="metadata6185"> 
  <rdf:rdf> 
   <cc:work rdf:about=""> 
    <dc:format>
     image/svg+xml
    </dc:format> 
    <dc:type rdf:resource="http://purl.org/dc/dcmitype/StillImage"></dc:type> 
   </cc:work> 
  </rdf:rdf> 
 </metadata> <defs id="defs6183"></defs> <g id="logo-group"> 
  <g id="title" style="font-style:normal;font-weight:700;font-size:72px;line-height:1;font-family:Jura;font-variant-ligatures:none;text-align:center;text-anchor:middle" aria-label="FIRSTCALLO7"> 
   <path id="path6187" style="font-style: normal; font-weight: 700; font-size: 72px; line-height: 1; font-family: Jura; font-variant-ligatures: none; text-align: center; text-anchor: middle; fill: rgb(238, 236, 223);" d="m 294.48856,120 q -1.44,0 -2.232,-0.792 -0.792,-0.792 -0.792,-2.232 V 74.208 q 0,-1.44 0.792,-2.232 0.792,-0.792 2.232,-0.792 h 26.496 q 1.44,0 2.232,0.792 0.792,0.792 0.792,2.232 0,1.44 -0.792,2.232 -0.792,0.792 -2.232,0.792 h -23.472 v 15.12 h 14.472 q 1.44,0 2.232,0.792 0.792,0.792 0.792,2.232 0,1.44 -0.792,2.232 -0.792,0.792 -2.232,0.792 h -14.472 v 18.576 q 0,1.44 -0.792,2.232 -0.792,0.792 -2.232,0.792 z" transform="translate(0 304.4612016717514) translate(251.99999999999994 53.54014931056315) scale(1.049714308138952) translate(-291.46456 -71.184)"></path> 
   <path id="path6189" style="font-style: normal; font-weight: 700; font-size: 72px; line-height: 1; font-family: Jura; font-variant-ligatures: none; text-align: center; text-anchor: middle; fill: rgb(238, 236, 223);" d="m 334.56669,120 q -1.584,0 -2.304,-0.72 -0.72,-0.72 -0.72,-2.304 V 74.28 q 0,-1.584 0.72,-2.304 0.72,-0.72 2.304,-0.72 1.584,0 2.304,0.72 0.72,0.72 0.72,2.304 v 42.696 q 0,1.584 -0.72,2.304 -0.72,0.72 -2.304,0.72 z" transform="translate(0 304.4612016717514) translate(299.3191580451477 53.61572874074916) scale(1.049714308138952) translate(-331.54269 -71.256)"></path> 
   <path id="path6191" style="font-style: normal; font-weight: 700; font-size: 72px; line-height: 1; font-family: Jura; font-variant-ligatures: none; text-align: center; text-anchor: middle; fill: rgb(238, 236, 223);" d="m 386.11644,86.952 q 0,5.688 -2.664,9.144 -2.664,3.456 -7.704,4.248 l 9.432,15.696 q 0.432,0.72 0.432,1.584 0,1.584 -1.584,2.52 -0.936,0.576 -1.656,0.576 -1.44,0 -2.448,-1.584 l -10.944,-18.216 -0.216,-0.36 h -10.08 v 16.416 q 0,1.44 -0.792,2.232 -0.792,0.792 -2.232,0.792 -1.44,0 -2.232,-0.792 -0.792,-0.792 -0.792,-2.232 V 74.208 q 0,-1.44 0.792,-2.232 0.792,-0.792 2.232,-0.792 h 16.848 q 6.624,0 10.08,3.528 3.528,3.456 3.528,10.08 z m -6.048,-2.16 q 0,-4.032 -1.728,-5.76 -1.728,-1.8 -5.832,-1.8 h -13.824 v 17.28 h 13.824 q 4.104,0 5.832,-1.728 1.728,-1.728 1.728,-5.832 z" transform="translate(0 304.4612016717514) translate(326.71014077314845 53.54014931056315) scale(1.049714308138952) translate(-352.63644 -71.184)"></path> 
   <path id="path6193" style="font-style: normal; font-weight: 700; font-size: 72px; line-height: 1; font-family: Jura; font-variant-ligatures: none; text-align: center; text-anchor: middle; fill: rgb(238, 236, 223);" d="m 409.80444,120 q -6.192,0 -9.648,-2.448 -3.384,-2.52 -4.248,-7.704 -0.144,-1.512 0.648,-2.304 0.792,-0.864 2.304,-0.864 1.44,0 2.16,0.72 0.72,0.648 1.008,2.232 0.504,2.448 2.232,3.384 1.8,0.936 5.544,0.936 h 10.368 q 3.168,0 4.824,-0.72 1.728,-0.72 2.448,-2.376 0.72,-1.728 0.72,-4.824 0,-4.608 -1.728,-6.336 -1.728,-1.728 -6.264,-1.728 h -8.928 q -6.768,0 -10.08,-3.312 -3.312,-3.312 -3.312,-10.152 0,-6.768 3.24,-10.008 3.312,-3.312 10.08,-3.312 h 8.568 q 11.376,0 13.104,9.504 0.216,1.512 -0.576,2.376 -0.792,0.792 -2.376,0.792 -1.44,0 -2.16,-0.72 -0.72,-0.72 -0.936,-2.232 -0.576,-2.088 -2.16,-2.88 -1.584,-0.792 -4.896,-0.792 h -8.568 q -2.952,0 -4.536,0.648 -1.512,0.648 -2.16,2.232 -0.576,1.512 -0.576,4.392 0,2.952 0.648,4.536 0.648,1.512 2.16,2.232 1.584,0.648 4.536,0.648 h 8.928 q 7.128,0 10.584,3.456 3.456,3.456 3.456,10.656 0,7.128 -3.456,10.584 -3.456,3.384 -10.584,3.384 z" transform="translate(0 304.4612016717514) translate(377.3586986837066 53.54014931056315) scale(1.049714308138952) translate(-395.88629 -71.184)"></path> 
   <path id="path6195" style="font-style: normal; font-weight: 700; font-size: 72px; line-height: 1; font-family: Jura; font-variant-ligatures: none; text-align: center; text-anchor: middle; fill: rgb(238, 236, 223);" d="m 458.37744,120 q -3.024,0 -3.024,-3.024 V 77.304 h -13.968 q -3.024,0 -3.024,-3.024 0,-3.024 3.024,-3.024 h 33.984 q 3.024,0 3.024,3.024 0,3.024 -3.024,3.024 h -13.968 v 39.672 q 0,1.44 -0.792,2.232 -0.792,0.792 -2.232,0.792 z" transform="translate(0 304.4612016717514) translate(427.1940429197496 53.61572874074916) scale(1.049714308138952) translate(-438.36144 -71.256)"></path> 
   <path id="path6197" style="font-style: normal; font-weight: 700; font-size: 72px; line-height: 1; font-family: Jura; font-variant-ligatures: none; text-align: center; text-anchor: middle; fill: rgb(238, 236, 223);" d="m 499.50519,120 q -8.28,0 -12.24,-3.888 -3.888,-3.96 -3.888,-12.24 v -16.56 q 0,-8.28 3.888,-12.24 3.96,-3.96 12.168,-3.888 h 8.712 q 6.768,0 10.296,2.808 3.6,2.808 4.176,8.784 0.216,1.512 -0.576,2.304 -0.792,0.792 -2.304,0.792 -1.44,0 -2.232,-0.72 -0.72,-0.792 -0.936,-2.304 -0.36,-3.24 -2.232,-4.392 -1.872,-1.224 -6.192,-1.224 h -8.712 q -3.888,-0.072 -6.048,0.864 -2.16,0.936 -3.096,3.096 -0.864,2.16 -0.864,6.12 v 16.56 q 0,3.96 0.936,6.12 0.936,2.088 3.024,3.024 2.16,0.936 6.12,0.936 h 8.64 q 4.32,0 6.192,-1.152 1.872,-1.224 2.232,-4.464 0.216,-1.512 0.936,-2.232 0.792,-0.792 2.232,-0.792 1.512,0 2.304,0.792 0.792,0.792 0.576,2.304 -0.576,5.976 -4.176,8.784 -3.528,2.808 -10.296,2.808 z" transform="translate(0 304.4612016717514) translate(479.6962913270504 53.53879937796289) scale(1.049714308138952) translate(-483.37719 -71.182714)"></path> 
   <path id="path6199" style="font-style: normal; font-weight: 700; font-size: 72px; line-height: 1; font-family: Jura; font-variant-ligatures: none; text-align: center; text-anchor: middle; fill: rgb(238, 236, 223);" d="m 572.39169,115.752 q 0.288,0.648 0.288,1.44 0,1.728 -1.944,2.52 -0.648,0.288 -1.44,0.288 -1.728,0 -2.52,-1.944 l -3.888,-9.432 h -22.392 l -3.744,9.432 q -0.792,1.944 -2.52,1.944 -0.72,0 -1.368,-0.288 -2.016,-0.72 -2.016,-2.52 0,-0.792 0.288,-1.44 l 17.136,-42.192 q 1.08,-2.376 3.384,-2.376 h 0.144 q 2.376,0.144 3.168,2.376 z m -29.52,-13.176 h 17.568 l -9,-21.816 z" transform="translate(0 304.4612016717514) translate(534.7753259322553 53.54014931056315) scale(1.049714308138952) translate(-530.84769 -71.184)"></path> 
   <path id="path6201" style="font-style: normal; font-weight: 700; font-size: 72px; line-height: 1; font-family: Jura; font-variant-ligatures: none; text-align: center; text-anchor: middle; fill: rgb(238, 236, 223);" d="m 586.14481,120 q -3.024,0 -3.024,-3.024 V 74.208 q 0,-3.024 3.024,-3.024 3.024,0 3.024,3.024 v 39.744 h 19.944 q 3.024,0 3.024,3.024 0,3.024 -3.024,3.024 z" transform="translate(0 304.4612016717514) translate(594.8957394680145 53.54014931056315) scale(1.049714308138952) translate(-583.12081 -71.184)"></path> 
   <path id="path6203" style="font-style: normal; font-weight: 700; font-size: 72px; line-height: 1; font-family: Jura; font-variant-ligatures: none; text-align: center; text-anchor: middle; fill: rgb(238, 236, 223);" d="m 625.09794,120 q -3.024,0 -3.024,-3.024 V 74.208 q 0,-3.024 3.024,-3.024 3.024,0 3.024,3.024 v 39.744 h 19.944 q 3.024,0 3.024,3.024 0,3.024 -3.024,3.024 z" transform="translate(0 304.4612016717514) translate(641.033968916506 53.54014931056315) scale(1.049714308138952) translate(-622.07394 -71.184)"></path> 
   <path id="path6205" style="font-style: normal; font-weight: 700; font-size: 72px; line-height: 1; font-family: Jura; font-variant-ligatures: none; text-align: center; text-anchor: middle; fill: rgb(184, 137, 121);" d="m 674.02081,120 q -8.28,0 -12.24,-3.888 -3.888,-3.96 -3.888,-12.24 V 87.24 q 0,-8.28 3.96,-12.168 3.96,-3.96 12.168,-3.888 h 8.64 q 8.28,0 12.168,3.96 3.96,3.888 3.96,12.168 v 16.56 q 0,8.28 -3.96,12.24 -3.888,3.888 -12.168,3.888 z m 8.64,-6.048 q 3.96,0 6.048,-0.936 2.16,-0.936 3.096,-3.024 0.936,-2.16 0.936,-6.12 v -16.56 q 0,-3.888 -0.936,-6.048 -0.936,-2.16 -3.096,-3.096 -2.16,-0.936 -6.048,-0.936 h -8.64 q -3.888,-0.072 -6.048,0.864 -2.16,0.936 -3.096,3.096 -0.936,2.16 -0.936,6.048 v 16.632 q 0,3.96 0.936,6.12 0.936,2.088 3.024,3.024 2.16,0.936 6.12,0.936 z" transform="translate(0 304.4612016717514) translate(683.8821207975699 53.53879937796289) scale(1.049714308138952) translate(-657.89281 -71.182714)"></path> 
   <path id="path6207" style="font-style: normal; font-weight: 700; font-size: 72px; line-height: 1; font-family: Jura; font-variant-ligatures: none; text-align: center; text-anchor: middle; fill: rgb(184, 137, 121);" d="m 715.88544,120 q -1.44,0 -2.232,-0.792 -0.792,-0.792 -0.72,-2.376 0.144,-7.416 1.224,-11.952 1.08,-4.536 3.312,-7.56 2.232,-3.024 6.336,-5.904 3.312,-2.592 4.968,-5.904 1.656,-3.384 1.944,-8.28 h -22.752 q -1.44,0 -2.232,-0.792 -0.792,-0.792 -0.792,-2.232 0,-1.44 0.792,-2.232 0.792,-0.792 2.232,-0.792 h 25.848 q 1.44,0 2.232,0.792 0.792,0.792 0.792,2.232 0,7.704 -2.304,13.032 -2.232,5.328 -7.2,9.072 -3.312,2.304 -5.04,4.68 -1.656,2.376 -2.448,6.048 -0.72,3.6 -0.864,9.792 -0.144,3.168 -3.096,3.168 z" transform="translate(0 304.4612016717514) translate(738.5183124276001 53.54014931056315) scale(1.049714308138952) translate(-704.94144 -71.184)"></path> 
  </g> 
  <g id="tagline" style="font-style:normal;font-weight:500;font-size:32px;line-height:1;font-family:Roboto;font-variant-ligatures:none;text-align:center;text-anchor:middle"></g> 
 </g> 
</svg>