<svg xmlns:dc="http://purl.org/dc/elements/1.1/" xmlns:cc="http://creativecommons.org/ns#" xmlns:rdf="http://www.w3.org/1999/02/22-rdf-syntax-ns#" xmlns:svg="http://www.w3.org/2000/svg" xmlns="http://www.w3.org/2000/svg" id="svg18182" viewbox="0 0 1024 768" height="768px" width="1024px" version="1.1"> <metadata id="metadata18188"> 
  <rdf:rdf> 
   <cc:work rdf:about=""> 
    <dc:format>
     image/svg+xml
    </dc:format> 
    <dc:type rdf:resource="http://purl.org/dc/dcmitype/StillImage"></dc:type> 
   </cc:work> 
  </rdf:rdf> 
 </metadata> <defs id="defs18186"></defs> <g id="logo-group"> 
  <g id="title" style="font-style:normal;font-weight:700;font-size:72px;line-height:1;font-family:'Brandmark1 Bold';font-variant-ligatures:none;text-align:center;text-anchor:middle" aria-label="Firstcoasto7"> 
   <path id="path18190" style="font-style: normal; font-weight: 700; font-size: 72px; line-height: 1; font-family: &quot;Brandmark1 Bold&quot;; font-variant-ligatures: none; text-align: center; text-anchor: middle; fill: rgb(175, 175, 175);" d="m 318.30819,122.52 h 11.304 v -21.744 h 25.632 V 90.048 h -25.632 v -12.96 h 25.632 V 66.36 h -36.936 z" transform="translate(0 301.6825033802011) translate(252 52.53111934193761) scale(1.0381422444535504) translate(-318.30819 -66.36)"></path> 
   <path id="path18192" style="font-style: normal; font-weight: 700; font-size: 72px; line-height: 1; font-family: &quot;Brandmark1 Bold&quot;; font-variant-ligatures: none; text-align: center; text-anchor: middle; fill: rgb(175, 175, 175);" d="m 358.23556,122.52 h 10.872 V 80.976 l -10.872,3.6 z" transform="translate(0 301.6825033802011) translate(303.83171195146286 67.70460638687071) scale(1.0381422444535504) translate(-358.23556 -80.976)"></path> 
   <path id="path18194" style="font-style: normal; font-weight: 700; font-size: 72px; line-height: 1; font-family: &quot;Brandmark1 Bold&quot;; font-variant-ligatures: none; text-align: center; text-anchor: middle; fill: rgb(175, 175, 175);" d="m 386.18169,122.52 v 0 -17.712 c 0,-6.912 5.616,-12.6 12.6,-12.6 v -10.8 c -3.168,0 -6.264,0.648 -9.144,1.872 -2.736,1.152 -5.256,2.88 -7.416,5.04 -2.16,2.088 -3.816,4.608 -5.04,7.416 -1.224,2.88 -1.8,5.904 -1.8,9.072 v 17.712 z" transform="translate(0 301.6825033802011) translate(332.0132562778907 68.15308383647464) scale(1.0381422444535504) translate(-375.38169 -81.408)"></path> 
   <path id="path18196" style="font-style: normal; font-weight: 700; font-size: 72px; line-height: 1; font-family: &quot;Brandmark1 Bold&quot;; font-variant-ligatures: none; text-align: center; text-anchor: middle; fill: rgb(175, 175, 175);" d="m 415.81081,122.952 c 7.272,0 13.176,-5.904 13.176,-13.176 0,-7.272 -5.904,-13.176 -13.176,-13.176 h -3.024 c -1.08,0 -1.872,-0.864 -1.872,-1.872 0,-1.08 0.792,-1.944 1.872,-1.944 h 15.048 V 81.48 h -15.048 c -7.272,0 -13.176,5.976 -13.176,13.248 0,7.272 5.904,13.176 13.176,13.176 h 3.024 c 1.008,0 1.872,0.864 1.872,1.872 0,1.08 -0.864,1.872 -1.872,1.872 h -16.848 v 11.304 z" transform="translate(0 301.6825033802011) translate(366.87523556595477 68.22783007807529) scale(1.0381422444535504) translate(-398.96281 -81.48)"></path> 
   <path id="path18198" style="font-style: normal; font-weight: 700; font-size: 72px; line-height: 1; font-family: &quot;Brandmark1 Bold&quot;; font-variant-ligatures: none; text-align: center; text-anchor: middle; fill: rgb(175, 175, 175);" d="m 455.37481,92.496 v -10.08 h -11.448 V 69.528 l -10.8,3.6 v 27.936 c 0,3.024 0.576,5.904 1.728,8.64 1.08,2.664 2.736,5.04 4.752,7.056 2.016,2.088 4.392,3.672 7.056,4.824 2.736,1.152 5.688,1.728 8.712,1.728 v -10.8 c -6.336,0 -11.448,-5.112 -11.448,-11.448 v -8.568 z" transform="translate(0 301.6825033802011) translate(412.72374965000137 55.81995397236646) scale(1.0381422444535504) translate(-433.12681 -69.528)"></path> 
   <path id="path18200" style="font-style: normal; font-weight: 700; font-size: 72px; line-height: 1; font-family: &quot;Brandmark1 Bold&quot;; font-variant-ligatures: none; text-align: center; text-anchor: middle; fill: rgb(175, 175, 175);" d="m 475.02294,123.096 c 6.696,0 13.032,-3.312 16.92,-8.928 l -8.928,-6.12 c -1.8,2.664 -4.824,4.248 -7.992,4.248 -5.4,0 -9.72,-4.392 -9.72,-9.72 0,-5.4 4.32,-9.72 9.72,-9.72 3.096,0 6.12,1.512 7.92,4.104 l 8.856,-6.192 c -1.872,-2.664 -4.392,-4.824 -7.2,-6.336 -2.952,-1.584 -6.264,-2.376 -9.576,-2.376 -2.808,0 -5.472,0.504 -7.992,1.584 -2.448,1.08 -4.68,2.52 -6.552,4.392 -1.872,1.944 -3.384,4.104 -4.392,6.552 -1.08,2.52 -1.584,5.256 -1.584,7.992 0,2.736 0.504,5.472 1.584,7.992 1.008,2.448 2.52,4.608 4.392,6.552 1.872,1.872 4.104,3.312 6.552,4.392 2.52,1.008 5.184,1.584 7.992,1.584 z" transform="translate(0 301.6825033802011) translate(445.2966356704678 68.82580001088054) scale(1.0381422444535504) translate(-454.50294 -82.056)"></path> 
   <path id="path18202" style="font-style: normal; font-weight: 700; font-size: 72px; line-height: 1; font-family: &quot;Brandmark1 Bold&quot;; font-variant-ligatures: none; text-align: center; text-anchor: middle; fill: rgb(175, 175, 175);" d="m 512.56981,123.024 c 2.736,0 5.472,-0.576 7.992,-1.584 2.448,-1.08 4.68,-2.52 6.552,-4.392 1.872,-1.944 3.312,-4.104 4.392,-6.552 1.08,-2.52 1.584,-5.256 1.584,-7.992 0,-2.808 -0.504,-5.472 -1.584,-7.992 -1.08,-2.448 -2.52,-4.68 -4.392,-6.552 -1.944,-1.872 -4.104,-3.312 -6.552,-4.392 -2.52,-1.08 -5.256,-1.584 -7.992,-1.584 -2.736,0 -5.472,0.504 -7.992,1.584 -2.448,1.08 -4.608,2.52 -6.552,4.392 -1.872,1.944 -3.312,4.104 -4.392,6.552 -1.008,2.52 -1.584,5.184 -1.584,7.992 0,2.736 0.576,5.472 1.584,7.992 1.08,2.448 2.52,4.608 4.392,6.552 1.944,1.872 4.104,3.312 6.552,4.392 2.52,1.008 5.256,1.584 7.992,1.584 z m 0,-30.24 c 5.328,0 9.72,4.392 9.72,9.72 0,5.328 -4.392,9.72 -9.72,9.72 -5.328,0 -9.72,-4.392 -9.72,-9.72 0,-5.328 4.392,-9.72 9.72,-9.72 z" transform="translate(0 301.6825033802011) translate(494.65705000900897 68.75105376927986) scale(1.0381422444535504) translate(-492.04981 -81.984)"></path> 
   <path id="path18204" style="font-style: normal; font-weight: 700; font-size: 72px; line-height: 1; font-family: &quot;Brandmark1 Bold&quot;; font-variant-ligatures: none; text-align: center; text-anchor: middle; fill: rgb(175, 175, 175);" d="m 564.31981,81.984 0.072,2.304 c -2.88,-1.44 -6.048,-2.232 -9.288,-2.232 -2.736,0 -5.472,0.504 -7.992,1.584 -2.448,1.08 -4.608,2.52 -6.552,4.392 -1.872,1.872 -3.312,4.104 -4.392,6.552 -1.008,2.52 -1.584,5.256 -1.584,7.992 0,2.736 0.576,5.472 1.584,7.992 1.08,2.448 2.52,4.608 4.392,6.552 1.944,1.872 4.104,3.312 6.552,4.392 2.52,1.008 5.256,1.584 7.992,1.584 3.24,0 6.408,-0.792 9.288,-2.232 l -0.072,1.656 h 10.8 V 81.984 Z m -4.32,28.944 c -1.44,0.864 -3.168,1.368 -4.896,1.368 -5.328,0 -9.72,-4.392 -9.72,-9.72 0,-5.328 4.392,-9.72 9.72,-9.72 1.872,0 3.744,0.504 5.256,1.584 1.584,0.936 2.808,2.376 3.528,4.032 0.648,1.296 0.936,2.664 0.936,4.104 0,1.728 -0.432,3.384 -1.296,4.896 -0.864,1.44 -2.016,2.664 -3.528,3.456 z" transform="translate(0 301.6825033802011) translate(549.1948146791318 68.75105376927986) scale(1.0381422444535504) translate(-534.58381 -81.984)"></path> 
   <path id="path18206" style="font-style: normal; font-weight: 700; font-size: 72px; line-height: 1; font-family: &quot;Brandmark1 Bold&quot;; font-variant-ligatures: none; text-align: center; text-anchor: middle; fill: rgb(175, 175, 175);" d="m 595.38894,122.952 c 7.272,0 13.176,-5.904 13.176,-13.176 0,-7.272 -5.904,-13.176 -13.176,-13.176 h -3.024 c -1.08,0 -1.872,-0.864 -1.872,-1.872 0,-1.08 0.792,-1.944 1.872,-1.944 h 15.048 V 81.48 h -15.048 c -7.272,0 -13.176,5.976 -13.176,13.248 0,7.272 5.904,13.176 13.176,13.176 h 3.024 c 1.008,0 1.872,0.864 1.872,1.872 0,1.08 -0.864,1.872 -1.872,1.872 h -16.848 v 11.304 z" transform="translate(0 301.6825033802011) translate(605.209990721604 68.22783007807529) scale(1.0381422444535504) translate(-578.54094 -81.48)"></path> 
   <path id="path18208" style="font-style: normal; font-weight: 700; font-size: 72px; line-height: 1; font-family: &quot;Brandmark1 Bold&quot;; font-variant-ligatures: none; text-align: center; text-anchor: middle; fill: rgb(175, 175, 175);" d="m 634.95294,92.496 v -10.08 h -11.448 V 69.528 l -10.8,3.6 v 27.936 c 0,3.024 0.576,5.904 1.728,8.64 1.08,2.664 2.736,5.04 4.752,7.056 2.016,2.088 4.392,3.672 7.056,4.824 2.736,1.152 5.688,1.728 8.712,1.728 v -10.8 c -6.336,0 -11.448,-5.112 -11.448,-11.448 v -8.568 z" transform="translate(0 301.6825033802011) translate(651.0585048056506 55.81995397236646) scale(1.0381422444535504) translate(-612.70494 -69.528)"></path> 
   <path id="path18210" style="font-style: normal; font-weight: 700; font-size: 72px; line-height: 1; font-family: &quot;Brandmark1 Bold&quot;; font-variant-ligatures: none; text-align: center; text-anchor: middle; fill: rgb(176, 189, 193);" d="m 654.60106,123.024 c 2.736,0 5.472,-0.576 7.992,-1.584 2.448,-1.08 4.68,-2.52 6.552,-4.392 1.872,-1.944 3.312,-4.104 4.392,-6.552 1.08,-2.52 1.584,-5.256 1.584,-7.992 0,-2.808 -0.504,-5.472 -1.584,-7.992 -1.08,-2.448 -2.52,-4.68 -4.392,-6.552 -1.944,-1.872 -4.104,-3.312 -6.552,-4.392 -2.52,-1.08 -5.256,-1.584 -7.992,-1.584 -2.736,0 -5.472,0.504 -7.992,1.584 -2.448,1.08 -4.608,2.52 -6.552,4.392 -1.872,1.944 -3.312,4.104 -4.392,6.552 -1.008,2.52 -1.584,5.184 -1.584,7.992 0,2.736 0.576,5.472 1.584,7.992 1.08,2.448 2.52,4.608 4.392,6.552 1.944,1.872 4.104,3.312 6.552,4.392 2.52,1.008 5.256,1.584 7.992,1.584 z m 0,-30.24 c 5.328,0 9.72,4.392 9.72,9.72 0,5.328 -4.392,9.72 -9.72,9.72 -5.328,0 -9.72,-4.392 -9.72,-9.72 0,-5.328 4.392,-9.72 9.72,-9.72 z" transform="translate(0 301.6825033802011) translate(683.6313804446945 68.75105376927986) scale(1.0381422444535504) translate(-634.08106 -81.984)"></path> 
   <path id="path18212" style="font-style: normal; font-weight: 700; font-size: 72px; line-height: 1; font-family: &quot;Brandmark1 Bold&quot;; font-variant-ligatures: none; text-align: center; text-anchor: middle; fill: rgb(176, 189, 193);" d="m 677.45094,121.512 11.16,2.232 20.592,-48.384 v -7.344 h -35.712 V 78.6 h 22.536 z" transform="translate(0 301.6825033802011) translate(734.9258641660751 54.25028289875269) scale(1.0381422444535504) translate(-673.49094 -68.016)"></path> 
  </g> 
  <g id="tagline" style="font-style:normal;font-weight:400;font-size:32px;line-height:1;font-family:Montserrat;font-variant-ligatures:none;text-align:center;text-anchor:middle"></g> 
 </g> 
</svg>