<svg xmlns:dc="http://purl.org/dc/elements/1.1/" xmlns:cc="http://creativecommons.org/ns#" xmlns:rdf="http://www.w3.org/1999/02/22-rdf-syntax-ns#" xmlns:svg="http://www.w3.org/2000/svg" xmlns="http://www.w3.org/2000/svg" id="svg5079" viewbox="0 0 1024 768" height="768px" width="1024px" version="1.1"> <metadata id="metadata5085"> 
  <rdf:rdf> 
   <cc:work rdf:about=""> 
    <dc:format>
     image/svg+xml
    </dc:format> 
    <dc:type rdf:resource="http://purl.org/dc/dcmitype/StillImage"></dc:type> 
   </cc:work> 
  </rdf:rdf> 
 </metadata> <defs id="defs5083"></defs> <g id="logo-group"> 
  <g id="title" style="font-style:oblique;font-weight:700;font-size:72px;line-height:1;font-family:Averta;font-variant-ligatures:none;text-align:center;text-anchor:middle" aria-label="Flairo7"> 
   <path id="path5087" style="font-style: oblique; font-weight: 700; font-size: 72px; line-height: 1; font-family: Averta; font-variant-ligatures: none; text-align: center; text-anchor: middle; fill: rgb(245, 130, 50);" d="m 416.16406,68.88 -6.264,51.12 h 11.304 l 2.232,-18.648 h 16.632 l 1.152,-10.152 h -16.488 l 1.512,-12.024 h 20.016 l 1.296,-10.296 z" transform="translate(0 166.58916695072804) translate(252 154.62007419678844) scale(2.491696779860459) translate(-409.90006 -68.88)"></path> 
   <path id="path5089" style="font-style: oblique; font-weight: 700; font-size: 72px; line-height: 1; font-family: Averta; font-variant-ligatures: none; text-align: center; text-anchor: middle; fill: rgb(245, 130, 50);" d="m 454.19469,67.008 -6.48,52.992 h 10.8 l 6.552,-52.992 z" transform="translate(0 166.58916695072804) translate(346.2225918026147 149.95561782488966) scale(2.491696779860459) translate(-447.71469 -67.008)"></path> 
   <path id="path5091" style="font-style: oblique; font-weight: 700; font-size: 72px; line-height: 1; font-family: Averta; font-variant-ligatures: none; text-align: center; text-anchor: middle; fill: rgb(245, 130, 50);" d="m 478.21231,120.648 c 3.96,0 7.488,-2.16 10.08,-5.904 l 0.216,0.072 -0.648,5.184 h 10.872 l 4.32,-35.208 h -10.872 l -0.288,2.448 h -0.216 c -1.872,-1.944 -4.608,-3.096 -8.28,-3.096 -9.216,0 -16.632,9.576 -16.632,22.104 0,8.136 3.888,14.4 11.448,14.4 z m 3.456,-9.576 c -2.448,0 -4.032,-2.232 -4.032,-5.616 0,-5.256 2.88,-11.664 7.632,-11.664 2.232,0 4.248,0.864 5.832,2.52 l -0.144,1.008 c -1.224,8.856 -5.544,13.752 -9.288,13.752 z" transform="translate(0 166.58916695072804) translate(393.6884686141802 192.65333384457853) scale(2.491696779860459) translate(-466.76431 -84.144)"></path> 
   <path id="path5093" style="font-style: oblique; font-weight: 700; font-size: 72px; line-height: 1; font-family: Averta; font-variant-ligatures: none; text-align: center; text-anchor: middle; fill: rgb(245, 130, 50);" d="m 517.72119,80.256 c 3.96,0 6.696,-2.736 6.696,-6.408 0,-3.528 -2.592,-6.12 -6.48,-6.12 -3.96,0 -6.696,2.664 -6.696,6.336 0,3.528 2.664,6.192 6.48,6.192 z m -6.696,4.536 -4.32,35.208 h 10.8 l 4.32,-35.208 z" transform="translate(0 166.58916695072804) translate(493.2090306949732 151.74963950638914) scale(2.491696779860459) translate(-506.70519 -67.728)"></path> 
   <path id="path5095" style="font-style: oblique; font-weight: 700; font-size: 72px; line-height: 1; font-family: Averta; font-variant-ligatures: none; text-align: center; text-anchor: middle; fill: rgb(245, 130, 50);" d="m 530.07481,84.792 -4.32,35.208 h 10.8 l 1.584,-13.536 c 1.296,-8.352 5.616,-12.24 10.8,-10.368 l 1.512,-11.952 c -3.888,0 -7.344,1.872 -10.08,5.472 h -0.144 l 0.648,-4.824 z" transform="translate(0 166.58916695072804) translate(540.6749075065386 192.65333384457853) scale(2.491696779860459) translate(-525.75481 -84.144)"></path> 
   <path id="path5097" style="font-style: oblique; font-weight: 700; font-size: 72px; line-height: 1; font-family: Averta; font-variant-ligatures: none; text-align: center; text-anchor: middle; fill: rgb(249, 216, 201);" d="m 565.41219,120.648 c 13.464,0 19.584,-10.008 19.584,-21.456 0,-9.576 -5.976,-15.048 -15.048,-15.048 -12.384,0 -19.44,10.08 -19.44,21.384 0,9.648 5.976,15.12 14.904,15.12 z m 0.792,-9.648 c -2.304,0 -4.752,-1.872 -4.752,-6.048 0,-5.4 2.88,-11.16 7.632,-11.16 1.944,0 4.968,1.08 4.968,6.12 0,5.76 -3.096,11.088 -7.848,11.088 z" transform="translate(0 166.58916695072804) translate(602.3528247432008 192.65333384457853) scale(2.491696779860459) translate(-550.50819 -84.144)"></path> 
   <path id="path5099" style="font-style: oblique; font-weight: 700; font-size: 72px; line-height: 1; font-family: Averta; font-variant-ligatures: none; text-align: center; text-anchor: middle; fill: rgb(249, 216, 201);" d="m 618.59319,70.536 h -27.864 l -1.224,10.08 h 15.48 l -17.568,38.52 11.088,2.016 19.224,-43.344 z" transform="translate(0 166.58916695072804) translate(694.3188611910704 158.74632406423734) scale(2.491696779860459) translate(-587.41719 -70.536)"></path> 
  </g> 
  <g id="tagline" style="font-style:normal;font-weight:500;font-size:32px;line-height:1;font-family:Raleway;font-variant-ligatures:none;text-align:center;text-anchor:middle"></g> 
 </g> 
</svg>