<svg xmlns:dc="http://purl.org/dc/elements/1.1/" xmlns:cc="http://creativecommons.org/ns#" xmlns:rdf="http://www.w3.org/1999/02/22-rdf-syntax-ns#" xmlns:svg="http://www.w3.org/2000/svg" xmlns="http://www.w3.org/2000/svg" id="svg25228" viewbox="0 0 1024 768" height="768px" width="1024px" version="1.1"> <metadata id="metadata25234"> 
  <rdf:rdf> 
   <cc:work rdf:about=""> 
    <dc:format>
     image/svg+xml
    </dc:format> 
    <dc:type rdf:resource="http://purl.org/dc/dcmitype/StillImage"></dc:type> 
   </cc:work> 
  </rdf:rdf> 
 </metadata> <defs id="defs25232"></defs> <g id="logo-group"> 
  <g id="title" style="font-style:normal;font-weight:800;font-size:72px;line-height:1;font-family:'Montserrat ExtraBold Alt1';font-variant-ligatures:none;text-align:center;text-anchor:middle" aria-label="Forestlando7"> 
   <path id="path25236" style="font-style: normal; font-weight: 800; font-size: 72px; line-height: 1; font-family: &quot;Montserrat ExtraBold Alt1&quot;; font-variant-ligatures: none; text-align: center; text-anchor: middle; fill: rgb(43, 99, 217);" d="m 265.46188,120 h 14.25599 v -17.28 h 23.832 V 91.704 h -38.08799 z m 0,-50.4 v 11.016 h 38.08799 V 69.6 Z" transform="translate(0 312.22588480129593) translate(251.99999999999994 49.11181799160151) scale(0.9437904883850792) translate(-265.46188 -69.6)"></path> 
   <path id="path25238" style="font-style: normal; font-weight: 800; font-size: 72px; line-height: 1; font-family: &quot;Montserrat ExtraBold Alt1&quot;; font-variant-ligatures: none; text-align: center; text-anchor: middle; fill: rgb(43, 99, 217);" d="m 318.51575,118.056 c 3.312,1.728 7.128,2.592 11.304,2.592 4.176,0 7.992,-0.864 11.376,-2.592 3.312,-1.728 5.976,-4.104 7.848,-7.2 1.872,-3.024 2.808,-6.552 2.808,-10.44 0,-3.888 -0.936,-7.344 -2.808,-10.368 -1.872,-3.024 -4.536,-5.4 -7.848,-7.128 -3.384,-1.728 -7.2,-2.592 -11.376,-2.592 -4.248,0 -8.064,0.864 -11.376,2.592 -3.312,1.728 -5.976,4.104 -7.848,7.128 -1.872,3.096 -2.808,6.552 -2.808,10.368 0,3.888 0.936,7.416 2.808,10.44 1.872,3.096 4.536,5.472 7.92,7.2 z m 17.208,-10.728 c -1.584,1.656 -3.528,2.448 -5.904,2.448 -2.448,0 -4.392,-0.792 -5.904,-2.448 -1.584,-1.656 -2.304,-3.96 -2.304,-6.912 0,-2.88 0.72,-5.112 2.304,-6.768 1.512,-1.584 3.456,-2.448 5.904,-2.448 2.376,0 4.32,0.864 5.904,2.448 1.512,1.656 2.304,3.888 2.304,6.768 0,2.952 -0.792,5.256 -2.304,6.912 z" transform="translate(0 312.22588480129593) translate(296.66570596054873 59.236802350996655) scale(0.9437904883850792) translate(-307.78775 -80.328)"></path> 
   <path id="path25240" style="font-style: normal; font-weight: 800; font-size: 72px; line-height: 1; font-family: &quot;Montserrat ExtraBold Alt1&quot;; font-variant-ligatures: none; text-align: center; text-anchor: middle; fill: rgb(43, 99, 217);" d="m 376.62087,81.696 c -2.232,0.864 -4.03199,2.232 -5.4,3.96 v -4.68 h -13.032 V 120 h 13.68 v -17.928 c 0,-3.24 0.792,-5.688 2.448,-7.272 1.656,-1.584 3.96001,-2.376 6.91201,-2.376 0.79199,0 1.8,0.072 3.096,0.216 V 80.328 c -2.88,0 -5.47201,0.504 -7.70401,1.368 z" transform="translate(0 312.22588480129593) translate(348.9527560624291 59.236802350996655) scale(0.9437904883850792) translate(-358.18887 -80.328)"></path> 
   <path id="path25242" style="font-style: normal; font-weight: 800; font-size: 72px; line-height: 1; font-family: &quot;Montserrat ExtraBold Alt1&quot;; font-variant-ligatures: none; text-align: center; text-anchor: middle; fill: rgb(43, 99, 217);" d="m 429.22025,103.944 c 0.144,-2.16 0.216,-3.24 0.216,-3.384 0,-4.176 -0.936,-7.776 -2.808,-10.8 -1.872,-3.024 -4.32,-5.4 -7.488,-6.984 -3.168,-1.584 -6.696,-2.448 -10.584,-2.448 -4.104,0 -7.776,0.864 -11.016,2.592 -3.312,1.728 -5.832,4.176 -7.704,7.2 -1.872,3.024 -2.736,6.48 -2.736,10.296 0,3.888 0.936,7.416 2.808,10.44 1.872,3.096 4.608,5.472 8.064,7.2 3.456,1.728 7.416,2.592 12.024,2.592 7.272,0 12.816,-2.088 16.632,-6.336 l -7.2,-7.488 c -1.44,1.224 -2.808,2.088 -4.176,2.592 -1.368,0.576 -2.952,0.792 -4.824,0.792 -2.52,0 -4.608,-0.504 -6.264,-1.584 -1.656,-1.08 -2.736,-2.664 -3.312,-4.68 z m -25.92,-12.096 c 1.44,-1.152 3.168,-1.8 5.328,-1.8 2.088,0 3.816,0.648 5.256,1.8 1.44,1.224 2.304,2.88 2.736,4.896 h -15.984 c 0.36,-2.016 1.224,-3.672 2.664,-4.896 z" transform="translate(0 312.22588480129593) translate(380.9579939544411 59.236802350996655) scale(0.9437904883850792) translate(-387.10025 -80.328)"></path> 
   <path id="path25244" style="font-style: normal; font-weight: 800; font-size: 72px; line-height: 1; font-family: &quot;Montserrat ExtraBold Alt1&quot;; font-variant-ligatures: none; text-align: center; text-anchor: middle; fill: rgb(43, 99, 217);" d="m 440.34987,119.568 c 3.168,0.72 6.336,1.08 9.64801,1.08 4.03199,0 7.56,-0.504 10.44,-1.656 2.88,-1.08 5.11199,-2.592 6.62399,-4.536 1.44,-1.944 2.23201,-4.176 2.23201,-6.624 0,-2.952 -0.79201,-5.256 -2.37601,-6.912 -1.584,-1.656 -3.38399,-2.808 -5.472,-3.456 -2.16,-0.576 -4.824,-1.152 -7.992,-1.656 -2.592,-0.36 -4.392,-0.72 -5.472,-1.08 -1.15199,-0.36 -1.656,-1.008 -1.656,-1.944 0,-0.792 0.50401,-1.44 1.512,-1.944 1.008,-0.504 2.592,-0.792 4.752,-0.792 4.032,0 7.77601,1.008 11.232,2.88 l 4.10401,-9.288 c -1.87201,-1.008 -4.24801,-1.872 -6.98401,-2.448 -2.808,-0.576 -5.616,-0.864 -8.424,-0.864 -4.03199,0 -7.416,0.576 -10.296,1.728 -2.87999,1.152 -5.04,2.664 -6.48,4.608 -1.512,1.944 -2.23199,4.176 -2.23199,6.624 0,3.024 0.79199,5.4 2.37599,7.056 1.584,1.728 3.45601,2.88 5.616,3.456 2.16,0.648 4.824,1.152 7.992,1.512 2.448,0.36 4.176,0.72 5.328,1.08 1.15201,0.36 1.728,0.936 1.728,1.8 0,0.864 -0.50399,1.584 -1.44,2.016 -0.936,0.432 -2.52,0.648 -4.68,0.648 -2.448,0 -4.82399,-0.288 -7.272,-0.936 -2.448,-0.648 -4.608,-1.512 -6.336,-2.664 l -4.104,9.36 c 1.872,1.224 4.464,2.232 7.632,2.952 z" transform="translate(0 312.22588480129593) translate(428.7304222551315 59.236802350996655) scale(0.9437904883850792) translate(-432.71787 -80.328)"></path> 
   <path id="path25246" style="font-style: normal; font-weight: 800; font-size: 72px; line-height: 1; font-family: &quot;Montserrat ExtraBold Alt1&quot;; font-variant-ligatures: none; text-align: center; text-anchor: middle; fill: rgb(43, 99, 217);" d="m 502.11687,118.416 -3.384,-9.576 c -1.224,0.864 -2.592,1.224 -4.176,1.224 -1.296,0 -2.30399,-0.36 -3.024,-1.152 -0.71999,-0.792 -1.08,-1.872 -1.08,-3.312 V 92.64 h 8.928 V 82.416 h -8.928 V 72.264 h -13.68 v 10.152 h -5.688 V 92.64 h 5.688 v 13.104 c 0,4.968 1.368,8.712 4.104,11.16 2.736,2.52 6.624,3.744 11.736,3.744 1.872,0 3.6,-0.144 5.256,-0.576 1.656,-0.36 3.096,-0.936 4.248,-1.656 z" transform="translate(0 312.22588480129593) translate(469.65978436492725 51.62607585265937) scale(0.9437904883850792) translate(-471.08487 -72.264)"></path> 
   <path id="path25248" style="font-style: normal; font-weight: 800; font-size: 72px; line-height: 1; font-family: &quot;Montserrat ExtraBold Alt1&quot;; font-variant-ligatures: none; text-align: center; text-anchor: middle; fill: rgb(43, 99, 217);" d="M 507.392,66.576 V 120 h 13.68 V 66.576 Z" transform="translate(0 312.22588480129593) translate(508.6450607614132 46.25779555472502) scale(0.9437904883850792) translate(-507.392 -66.576)"></path> 
   <path id="path25250" style="font-style: normal; font-weight: 800; font-size: 72px; line-height: 1; font-family: &quot;Montserrat ExtraBold Alt1&quot;; font-variant-ligatures: none; text-align: center; text-anchor: middle; fill: rgb(43, 99, 217);" d="m 561.356,84.792 c -3.456,-2.952 -8.352,-4.464 -14.832,-4.464 -3.168,0 -6.264,0.432 -9.36,1.224 -3.096,0.792 -5.688,1.872 -7.848,3.312 l 4.608,9.288 c 1.296,-1.008 2.952,-1.872 4.896,-2.448 1.872,-0.576 3.816,-0.936 5.688,-0.936 5.256,0 7.992,2.088 8.28,6.192 h -7.776 c -5.904,0 -10.296,1.08 -13.104,3.096 -2.88,2.016 -4.248,4.896 -4.248,8.568 0,2.304 0.504,4.392 1.656,6.192 1.152,1.8 2.808,3.24 5.04,4.248 2.16,1.08 4.824,1.584 7.848,1.584 5.688,0 9.504,-1.872 11.52,-5.688 V 120 h 12.744 V 98.328 c 0,-6.048 -1.728,-10.584 -5.112,-13.536 z m -11.16,26.064 c -1.224,0.792 -2.592,1.152 -4.176,1.152 -1.584,0 -2.88,-0.36 -3.744,-1.08 -0.936,-0.72 -1.368,-1.656 -1.368,-2.88 0,-2.592 1.944,-3.96 5.976,-3.96 h 5.904 v 3.384 c -0.576,1.512 -1.44,2.664 -2.592,3.384 z" transform="translate(0 312.22588480129593) translate(532.4927588219274 59.236802350996655) scale(0.9437904883850792) translate(-527.66 -80.328)"></path> 
   <path id="path25252" style="font-style: normal; font-weight: 800; font-size: 72px; line-height: 1; font-family: &quot;Montserrat ExtraBold Alt1&quot;; font-variant-ligatures: none; text-align: center; text-anchor: middle; fill: rgb(43, 99, 217);" d="m 612.25325,84.648 c -2.952,-2.88 -6.84,-4.32 -11.664,-4.32 -2.52,0 -4.824,0.432 -6.912,1.296 -2.16,0.864 -3.96,2.016 -5.472,3.6 v -4.248 h -13.032 V 120 h 13.68 v -18.864 c 0,-3.024 0.648,-5.328 2.088,-6.912 1.44,-1.512 3.312,-2.304 5.688,-2.304 4.248,0 6.408,2.664 6.408,7.992 V 120 h 13.68 V 97.68 c 0,-5.76 -1.512,-10.152 -4.464,-13.032 z" transform="translate(0 312.22588480129593) translate(582.0542646861152 59.236802350996655) scale(0.9437904883850792) translate(-575.17325 -80.328)"></path> 
   <path id="path25254" style="font-style: normal; font-weight: 800; font-size: 72px; line-height: 1; font-family: &quot;Montserrat ExtraBold Alt1&quot;; font-variant-ligatures: none; text-align: center; text-anchor: middle; fill: rgb(43, 99, 217);" d="m 667.27025,66.576 h -13.68 V 84.36 c -2.592,-2.664 -6.192,-4.032 -10.8,-4.032 -3.6,0 -6.84,0.864 -9.72,2.448 -2.952,1.656 -5.256,4.032 -6.984,7.056 -1.728,3.024 -2.52,6.552 -2.52,10.584 0,4.032 0.792,7.632 2.52,10.656 1.728,3.096 4.032,5.472 6.984,7.128 2.88,1.656 6.12,2.448 9.72,2.448 5.04,0 8.856,-1.512 11.448,-4.536 V 120 h 13.032 z m -15.768,40.752 c -1.584,1.656 -3.528,2.448 -5.832,2.448 -2.448,0 -4.392,-0.792 -5.904,-2.448 -1.584,-1.656 -2.304,-3.96 -2.304,-6.912 0,-2.88 0.72,-5.112 2.304,-6.768 1.512,-1.584 3.456,-2.448 5.904,-2.448 2.376,0 4.32,0.864 5.832,2.448 1.512,1.656 2.304,3.888 2.304,6.768 0,2.952 -0.792,5.256 -2.304,6.912 z" transform="translate(0 312.22588480129593) translate(632.4460702324596 46.25779555472502) scale(0.9437904883850792) translate(-623.56625 -66.576)"></path> 
   <path id="path25256" style="font-style: normal; font-weight: 800; font-size: 72px; line-height: 1; font-family: &quot;Montserrat ExtraBold Alt1&quot;; font-variant-ligatures: none; text-align: center; text-anchor: middle; fill: rgb(43, 99, 217);" d="m 684.28138,118.056 c 3.312,1.728 7.12799,2.592 11.30399,2.592 4.17601,0 7.992,-0.864 11.376,-2.592 3.312,-1.728 5.976,-4.104 7.84801,-7.2 1.87199,-3.024 2.808,-6.552 2.808,-10.44 0,-3.888 -0.93601,-7.344 -2.808,-10.368 -1.87201,-3.024 -4.53601,-5.4 -7.84801,-7.128 -3.384,-1.728 -7.19999,-2.592 -11.376,-2.592 -4.248,0 -8.06399,0.864 -11.37599,2.592 -3.31201,1.728 -5.976,4.104 -7.84801,7.128 -1.872,3.096 -2.808,6.552 -2.808,10.368 0,3.888 0.936,7.416 2.808,10.44 1.87201,3.096 4.536,5.472 7.92001,7.2 z m 17.20799,-10.728 c -1.58399,1.656 -3.528,2.448 -5.904,2.448 -2.44799,0 -4.39199,-0.792 -5.904,-2.448 -1.58399,-1.656 -2.30399,-3.96 -2.30399,-6.912 0,-2.88 0.72,-5.112 2.30399,-6.768 1.51201,-1.584 3.45601,-2.448 5.904,-2.448 2.376,0 4.32001,0.864 5.904,2.448 1.51201,1.656 2.304,3.888 2.304,6.768 0,2.952 -0.79199,5.256 -2.304,6.912 z" transform="translate(0 312.22588480129593) translate(684.3423910721486 59.236802350996655) scale(0.9437904883850792) translate(-673.55337 -80.328)"></path> 
   <path id="path25258" style="font-style: normal; font-weight: 800; font-size: 72px; line-height: 1; font-family: &quot;Montserrat ExtraBold Alt1&quot;; font-variant-ligatures: none; text-align: center; text-anchor: middle; fill: rgb(43, 99, 217);" d="m 761.43162,69.6 h -41.76 v 19.08 h 12.168 v -7.776 h 13.248 L 728.09563,120 h 15.55199 l 17.784,-41.472 z" transform="translate(0 312.22588480129593) translate(732.5873092050391 49.11181799160151) scale(0.9437904883850792) translate(-719.67162 -69.6)"></path> 
  </g> 
  <g id="tagline" style="font-style:normal;font-weight:500;font-size:32px;line-height:1;font-family:Montserrat;font-variant-ligatures:none;text-align:center;text-anchor:middle"></g> 
 </g> 
</svg>