<svg xmlns:dc="http://purl.org/dc/elements/1.1/" xmlns:cc="http://creativecommons.org/ns#" xmlns:rdf="http://www.w3.org/1999/02/22-rdf-syntax-ns#" xmlns:svg="http://www.w3.org/2000/svg" xmlns="http://www.w3.org/2000/svg" id="svg275453" viewbox="0 0 1024 768" height="768px" width="1024px" version="1.1"> <metadata id="metadata275459"> 
  <rdf:rdf> 
   <cc:work rdf:about=""> 
    <dc:format>
     image/svg+xml
    </dc:format> 
    <dc:type rdf:resource="http://purl.org/dc/dcmitype/StillImage"></dc:type> 
   </cc:work> 
  </rdf:rdf> 
 </metadata> <defs id="defs275457"></defs> <g id="logo-group"> 
  <g id="title" style="font-style:normal;font-weight:700;font-size:72px;line-height:1;font-family:'Brandmark1 Bold';font-variant-ligatures:none;text-align:center;text-anchor:middle" aria-label="freespirito7"> 
   <path id="path275461" style="font-style: normal; font-weight: 700; font-size: 72px; line-height: 1; font-family: &quot;Brandmark1 Bold&quot;; font-variant-ligatures: none; text-align: center; text-anchor: middle; fill: rgb(255, 255, 255);" d="m 344.15169,82.56 v -0.072 c 0,-6.264 5.112,-11.448 11.448,-11.448 v -10.8 c -3.024,0 -5.976,0.648 -8.712,1.8 -2.664,1.08 -5.04,2.664 -7.056,4.752 -2.016,2.016 -3.672,4.392 -4.752,7.056 -1.152,2.736 -1.728,5.688 -1.728,8.64 v 40.032 h 10.8 V 92.64 h 11.448 V 82.56 Z" transform="translate(0 267.6554961990048) translate(251.99999999999994 67.16945414557145) scale(1.2850174990964718) translate(-333.35169 -60.24)"></path> 
   <path id="path275463" style="font-style: normal; font-weight: 700; font-size: 72px; line-height: 1; font-family: &quot;Brandmark1 Bold&quot;; font-variant-ligatures: none; text-align: center; text-anchor: middle; fill: rgb(255, 255, 255);" d="m 367.33794,122.52 v 0 -17.712 c 0,-6.912 5.616,-12.6 12.6,-12.6 v -10.8 c -3.168,0 -6.264,0.648 -9.144,1.872 -2.736,1.152 -5.256,2.88 -7.416,5.04 -2.16,2.088 -3.816,4.608 -5.04,7.416 -1.224,2.88 -1.8,5.904 -1.8,9.072 v 17.712 z" transform="translate(0 267.6554961990048) translate(286.9348069848114 94.37070456644557) scale(1.2850174990964718) translate(-356.53794 -81.408)"></path> 
   <path id="path275465" style="font-style: normal; font-weight: 700; font-size: 72px; line-height: 1; font-family: &quot;Brandmark1 Bold&quot;; font-variant-ligatures: none; text-align: center; text-anchor: middle; fill: rgb(255, 255, 255);" d="m 397.93006,122.808 c 2.808,0 5.544,-0.576 8.136,-1.728 2.52,-1.08 4.752,-2.664 6.624,-4.608 l -7.632,-7.2 c -1.872,2.016 -4.392,3.096 -7.128,3.096 -3.528,0 -6.624,-1.872 -8.352,-4.608 h 28.584 v -5.256 c 0,-5.4 -2.088,-10.512 -5.904,-14.328 -3.816,-3.816 -8.928,-5.976 -14.328,-5.976 -5.472,0 -10.512,2.16 -14.4,5.976 -3.816,3.816 -5.904,8.928 -5.904,14.328 0,5.4 2.088,10.512 5.904,14.328 3.888,3.816 8.928,5.976 14.4,5.976 z m -8.352,-25.488 c 1.728,-2.808 4.824,-4.68 8.352,-4.68 3.456,0 6.552,1.872 8.352,4.68 z" transform="translate(0 267.6554961990048) translate(319.1734802042436 95.38843842572999) scale(1.2850174990964718) translate(-377.62606 -82.2)"></path> 
   <path id="path275467" style="font-style: normal; font-weight: 700; font-size: 72px; line-height: 1; font-family: &quot;Brandmark1 Bold&quot;; font-variant-ligatures: none; text-align: center; text-anchor: middle; fill: rgb(255, 255, 255);" d="m 437.72694,122.808 c 2.808,0 5.544,-0.576 8.136,-1.728 2.52,-1.08 4.752,-2.664 6.624,-4.608 l -7.632,-7.2 c -1.872,2.016 -4.392,3.096 -7.128,3.096 -3.528,0 -6.624,-1.872 -8.352,-4.608 h 28.584 v -5.256 c 0,-5.4 -2.088,-10.512 -5.904,-14.328 -3.816,-3.816 -8.928,-5.976 -14.328,-5.976 -5.472,0 -10.512,2.16 -14.4,5.976 -3.816,3.816 -5.904,8.928 -5.904,14.328 0,5.4 2.088,10.512 5.904,14.328 3.888,3.816 8.928,5.976 14.4,5.976 z m -8.352,-25.488 c 1.728,-2.808 4.824,-4.68 8.352,-4.68 3.456,0 6.552,1.872 8.352,4.68 z" transform="translate(0 267.6554961990048) translate(375.45323741007184 95.38843842572999) scale(1.2850174990964718) translate(-417.42294 -82.2)"></path> 
   <path id="path275469" style="font-style: normal; font-weight: 700; font-size: 72px; line-height: 1; font-family: &quot;Brandmark1 Bold&quot;; font-variant-ligatures: none; text-align: center; text-anchor: middle; fill: rgb(255, 255, 255);" d="m 475.43581,122.952 c 7.272,0 13.176,-5.904 13.176,-13.176 0,-7.272 -5.904,-13.176 -13.176,-13.176 h -3.024 c -1.08,0 -1.872,-0.864 -1.872,-1.872 0,-1.08 0.792,-1.944 1.872,-1.944 h 15.048 V 81.48 h -15.048 c -7.272,0 -13.176,5.976 -13.176,13.248 0,7.272 5.904,13.176 13.176,13.176 h 3.024 c 1.008,0 1.872,0.864 1.872,1.872 0,1.08 -0.864,1.872 -1.872,1.872 h -16.848 v 11.304 z" transform="translate(0 267.6554961990048) translate(433.4908857044891 94.46322582638052) scale(1.2850174990964718) translate(-458.58781 -81.48)"></path> 
   <path id="path275471" style="font-style: normal; font-weight: 700; font-size: 72px; line-height: 1; font-family: &quot;Brandmark1 Bold&quot;; font-variant-ligatures: none; text-align: center; text-anchor: middle; fill: rgb(255, 255, 255);" d="m 531.12781,94.584 c -1.08,-2.448 -2.52,-4.608 -4.392,-6.552 -1.944,-1.872 -4.104,-3.312 -6.552,-4.392 -2.52,-1.08 -5.184,-1.584 -7.992,-1.584 -2.736,0 -5.472,0.504 -7.992,1.584 -2.448,1.08 -4.608,2.52 -6.552,4.392 -1.872,1.872 -3.312,4.104 -4.392,6.552 -1.008,2.52 -1.584,5.184 -1.584,7.992 v 30.6 l 10.8,3.6 v -16.128 c 0.576,0.288 1.152,0.576 1.728,0.792 2.52,1.08 5.256,1.656 7.992,1.656 2.736,0 5.472,-0.576 7.992,-1.656 2.448,-1.008 4.608,-2.448 6.552,-4.392 1.872,-1.872 3.312,-4.032 4.392,-6.48 1.08,-2.52 1.584,-5.256 1.584,-7.992 0,-2.808 -0.504,-5.472 -1.584,-7.992 z m -18.936,17.712 c -5.328,0 -9.72,-4.392 -9.72,-9.72 0,-5.328 4.392,-9.72 9.72,-9.72 5.328,0 9.72,4.392 9.72,9.72 0,5.328 -4.392,9.72 -9.72,9.72 z" transform="translate(0 267.6554961990048) translate(481.14447464098265 95.20339590586008) scale(1.2850174990964718) translate(-491.67181 -82.056)"></path> 
   <path id="path275473" style="font-style: normal; font-weight: 700; font-size: 72px; line-height: 1; font-family: &quot;Brandmark1 Bold&quot;; font-variant-ligatures: none; text-align: center; text-anchor: middle; fill: rgb(255, 255, 255);" d="m 536.54806,122.52 h 10.872 V 80.976 l -10.872,3.6 z" transform="translate(0 267.6554961990048) translate(543.9513111811965 93.8155770068359) scale(1.2850174990964718) translate(-536.54806 -80.976)"></path> 
   <path id="path275475" style="font-style: normal; font-weight: 700; font-size: 72px; line-height: 1; font-family: &quot;Brandmark1 Bold&quot;; font-variant-ligatures: none; text-align: center; text-anchor: middle; fill: rgb(255, 255, 255);" d="m 564.49419,122.52 v 0 -17.712 c 0,-6.912 5.616,-12.6 12.6,-12.6 v -10.8 c -3.168,0 -6.264,0.648 -9.144,1.872 -2.736,1.152 -5.256,2.88 -7.416,5.04 -2.16,2.088 -3.816,4.608 -5.04,7.416 -1.224,2.88 -1.8,5.904 -1.8,9.072 v 17.712 z" transform="translate(0 267.6554961990048) translate(571.1244582693655 94.37070456644557) scale(1.2850174990964718) translate(-553.69419 -81.408)"></path> 
   <path id="path275477" style="font-style: normal; font-weight: 700; font-size: 72px; line-height: 1; font-family: &quot;Brandmark1 Bold&quot;; font-variant-ligatures: none; text-align: center; text-anchor: middle; fill: rgb(255, 255, 255);" d="m 579.57931,122.52 h 10.872 V 80.976 l -10.872,3.6 z" transform="translate(0 267.6554961990048) translate(609.5273604319634 93.8155770068359) scale(1.2850174990964718) translate(-579.57931 -80.976)"></path> 
   <path id="path275479" style="font-style: normal; font-weight: 700; font-size: 72px; line-height: 1; font-family: &quot;Brandmark1 Bold&quot;; font-variant-ligatures: none; text-align: center; text-anchor: middle; fill: rgb(255, 255, 255);" d="m 619.76544,92.496 v -10.08 h -11.448 V 69.528 l -10.8,3.6 v 27.936 c 0,3.024 0.576,5.904 1.728,8.64 1.08,2.664 2.736,5.04 4.752,7.056 2.016,2.088 4.392,3.672 7.056,4.824 2.736,1.152 5.688,1.728 8.712,1.728 v -10.8 c -6.336,0 -11.448,-5.112 -11.448,-11.448 v -8.568 z" transform="translate(0 267.6554961990048) translate(637.7182413794167 79.1046966771795) scale(1.2850174990964718) translate(-597.51744 -69.528)"></path> 
   <path id="path275481" style="font-style: normal; font-weight: 700; font-size: 72px; line-height: 1; font-family: &quot;Brandmark1 Bold&quot;; font-variant-ligatures: none; text-align: center; text-anchor: middle; fill: rgb(255, 255, 255);" d="m 639.41356,123.024 c 2.736,0 5.472,-0.576 7.992,-1.584 2.448,-1.08 4.68,-2.52 6.552,-4.392 1.872,-1.944 3.312,-4.104 4.392,-6.552 1.08,-2.52 1.584,-5.256 1.584,-7.992 0,-2.808 -0.504,-5.472 -1.584,-7.992 -1.08,-2.448 -2.52,-4.68 -4.392,-6.552 -1.944,-1.872 -4.104,-3.312 -6.552,-4.392 -2.52,-1.08 -5.256,-1.584 -7.992,-1.584 -2.736,0 -5.472,0.504 -7.992,1.584 -2.448,1.08 -4.608,2.52 -6.552,4.392 -1.872,1.944 -3.312,4.104 -4.392,6.552 -1.008,2.52 -1.584,5.184 -1.584,7.992 0,2.736 0.576,5.472 1.584,7.992 1.08,2.448 2.52,4.608 4.392,6.552 1.944,1.872 4.104,3.312 6.552,4.392 2.52,1.008 5.256,1.584 7.992,1.584 z m 0,-30.24 c 5.328,0 9.72,4.392 9.72,9.72 0,5.328 -4.392,9.72 -9.72,9.72 -5.328,0 -9.72,-4.392 -9.72,-9.72 0,-5.328 4.392,-9.72 9.72,-9.72 z" transform="translate(0 267.6554961990048) translate(670.3269996385885 95.11087464592512) scale(1.2850174990964718) translate(-618.89356 -81.984)"></path> 
   <path id="path275483" style="font-style: normal; font-weight: 700; font-size: 72px; line-height: 1; font-family: &quot;Brandmark1 Bold&quot;; font-variant-ligatures: none; text-align: center; text-anchor: middle; fill: rgb(255, 255, 255);" d="m 662.26344,121.512 11.16,2.232 20.592,-48.384 v -7.344 h -35.712 V 78.6 h 22.536 z" transform="translate(0 267.6554961990048) translate(726.1094550722665 77.16175021854562) scale(1.2850174990964718) translate(-658.30344 -68.016)"></path> 
  </g> 
  <g id="tagline" style="font-style:normal;font-weight:400;font-size:32px;line-height:1;font-family:Montserrat;font-variant-ligatures:none;text-align:center;text-anchor:middle"></g> 
 </g> 
</svg>