<svg xmlns:dc="http://purl.org/dc/elements/1.1/" xmlns:cc="http://creativecommons.org/ns#" xmlns:rdf="http://www.w3.org/1999/02/22-rdf-syntax-ns#" xmlns:svg="http://www.w3.org/2000/svg" xmlns="http://www.w3.org/2000/svg" id="svg73125" viewbox="0 0 1024 768" height="768px" width="1024px" version="1.1"> <metadata id="metadata73131"> 
  <rdf:rdf> 
   <cc:work rdf:about=""> 
    <dc:format>
     image/svg+xml
    </dc:format> 
    <dc:type rdf:resource="http://purl.org/dc/dcmitype/StillImage"></dc:type> 
   </cc:work> 
  </rdf:rdf> 
 </metadata> <defs id="defs73129"></defs> <g id="logo-group"> 
  <g id="title" style="font-style:normal;font-weight:300;font-size:72px;line-height:1;font-family:'Montserrat Light Alt1';font-variant-ligatures:none;text-align:center;text-anchor:middle" aria-label="Fringyo7"> 
   <path id="path73133" style="font-style: normal; font-weight: 300; font-size: 72px; line-height: 1; font-family: &quot;Montserrat Light Alt1&quot;; font-variant-ligatures: none; text-align: center; text-anchor: middle; fill: rgb(232, 224, 205);" d="m 365.74494,69.6 v 3.312 h 32.256 V 69.6 Z m 0,50.4 h 3.672 V 97.752 h 28.584 V 94.44 h -32.256 z" transform="translate(0 271.3524455342757) translate(252.00000000000006 72.33960684212289) scale(1.2899368799155588) translate(-365.74494 -69.6)"></path> 
   <path id="path73135" style="font-style: normal; font-weight: 300; font-size: 72px; line-height: 1; font-family: &quot;Montserrat Light Alt1&quot;; font-variant-ligatures: none; text-align: center; text-anchor: middle; fill: rgb(232, 224, 205);" d="m 418.16769,84.36 c -2.448,1.44 -4.248,3.528 -5.4,6.264 v -8.208 h -3.456 V 120 h 3.6 v -19.584 c 0,-4.608 1.152,-8.28 3.528,-10.872 2.304,-2.592 5.616,-3.96 9.792,-3.96 l 0.864,0.072 v -3.528 c -3.528,0 -6.48,0.792 -8.928,2.232 z" transform="translate(0 271.3524455342757) translate(327.54741076179454 88.49993607370502) scale(1.2899368799155588) translate(-409.31169 -82.128)"></path> 
   <path id="path73137" style="font-style: normal; font-weight: 300; font-size: 72px; line-height: 1; font-family: &quot;Montserrat Light Alt1&quot;; font-variant-ligatures: none; text-align: center; text-anchor: middle; fill: rgb(232, 224, 205);" d="M 437.01481,82.416 V 120 h 3.6 V 82.416 Z m -0.288,-9.936 c 0.576,0.576 1.224,0.792 2.088,0.792 0.792,0 1.512,-0.288 2.088,-0.864 0.576,-0.576 0.864,-1.224 0.864,-2.088 0,-0.792 -0.288,-1.44 -0.864,-2.016 -0.576,-0.576 -1.296,-0.864 -2.088,-0.864 -0.864,0 -1.512,0.288 -2.088,0.864 -0.576,0.576 -0.864,1.296 -0.864,2.088 0,0.864 0.288,1.512 0.864,2.088 z" transform="translate(0 271.3524455342757) translate(381.14573285159156 69.55334318150528) scale(1.2899368799155588) translate(-435.86281 -67.44)"></path> 
   <path id="path73139" style="font-style: normal; font-weight: 300; font-size: 72px; line-height: 1; font-family: &quot;Montserrat Light Alt1&quot;; font-variant-ligatures: none; text-align: center; text-anchor: middle; fill: rgb(232, 224, 205);" d="m 485.37856,86.232 c -2.736,-2.736 -6.48,-4.104 -11.16,-4.104 -3.528,0 -6.552,0.792 -9.144,2.232 -2.592,1.512 -4.464,3.6 -5.76,6.192 v -8.136 h -3.456 V 120 h 3.6 V 99.984 c 0,-4.464 1.224,-7.992 3.816,-10.656 2.52,-2.592 5.976,-3.96 10.44,-3.96 3.816,0 6.768,1.152 8.928,3.312 2.16,2.232 3.24,5.472 3.24,9.648 V 120 h 3.6 V 98.04 c 0,-5.112 -1.368,-9.072 -4.104,-11.808 z" transform="translate(0 271.3524455342757) translate(426.2880414168965 88.49993607370502) scale(1.2899368799155588) translate(-455.85856 -82.128)"></path> 
   <path id="path73141" style="font-style: normal; font-weight: 300; font-size: 72px; line-height: 1; font-family: &quot;Montserrat Light Alt1&quot;; font-variant-ligatures: none; text-align: center; text-anchor: middle; fill: rgb(232, 224, 205);" d="m 538.35481,82.416 h -3.456 v 8.496 c -1.512,-2.736 -3.672,-4.896 -6.408,-6.48 -2.808,-1.512 -5.904,-2.304 -9.36,-2.304 -3.528,0 -6.696,0.792 -9.576,2.304 -2.88,1.584 -5.112,3.744 -6.696,6.48 -1.656,2.808 -2.448,5.976 -2.448,9.432 0,3.528 0.792,6.696 2.448,9.432 1.584,2.808 3.816,4.968 6.696,6.552 2.88,1.584 6.048,2.304 9.576,2.304 3.384,0 6.48,-0.72 9.216,-2.232 2.736,-1.44 4.824,-3.6 6.408,-6.336 v 6.336 c 0,5.04 -1.224,8.712 -3.6,11.088 -2.448,2.376 -6.12,3.528 -11.088,3.528 -3.024,0 -5.832,-0.432 -8.424,-1.44 -2.664,-0.936 -4.896,-2.304 -6.768,-4.032 l -1.944,2.736 c 1.872,1.872 4.32,3.384 7.416,4.392 3.024,1.08 6.336,1.584 9.792,1.584 6.048,0 10.656,-1.44 13.68,-4.464 3.024,-2.952 4.536,-7.56 4.536,-13.824 z m -11.016,31.104 c -2.376,1.296 -5.04,1.872 -7.92,1.872 -2.952,0 -5.616,-0.576 -7.92,-1.872 -2.304,-1.296 -4.176,-3.024 -5.472,-5.328 -1.296,-2.304 -1.944,-4.896 -1.944,-7.848 0,-2.88 0.648,-5.472 1.944,-7.776 1.296,-2.232 3.168,-3.96 5.472,-5.256 2.304,-1.296 4.968,-1.944 7.92,-1.944 2.88,0 5.544,0.648 7.92,1.944 2.304,1.296 4.176,3.024 5.472,5.256 1.296,2.304 2.016,4.896 2.016,7.776 0,2.952 -0.72,5.544 -2.016,7.848 -1.296,2.304 -3.168,4.032 -5.472,5.328 z" transform="translate(0 271.3524455342757) translate(503.1066849738478 88.49993607370502) scale(1.2899368799155588) translate(-500.41081 -82.128)"></path> 
   <path id="path73143" style="font-style: normal; font-weight: 300; font-size: 72px; line-height: 1; font-family: &quot;Montserrat Light Alt1&quot;; font-variant-ligatures: none; text-align: center; text-anchor: middle; fill: rgb(232, 224, 205);" d="m 583.76094,82.416 h -3.672 l -15.048,33.624 -15.048,-33.624 h -3.816 l 16.92,37.44 -2.016,4.536 c -1.152,2.448 -2.304,4.176 -3.6,5.184 -1.296,1.008 -2.88,1.512 -4.68,1.512 -2.736,0 -5.112,-0.936 -6.984,-2.952 l -1.8,2.736 c 1.008,1.152 2.304,1.944 3.816,2.52 1.512,0.576 3.168,0.864 4.896,0.864 2.592,0 4.824,-0.648 6.696,-2.088 1.872,-1.368 3.6,-3.744 5.04,-7.056 z" transform="translate(0 271.3524455342757) translate(578.7048934499733 88.87143789512069) scale(1.2899368799155588) translate(-544.01694 -82.416)"></path> 
   <path id="path73145" style="font-style: normal; font-weight: 300; font-size: 72px; line-height: 1; font-family: &quot;Montserrat Light Alt1&quot;; font-variant-ligatures: none; text-align: center; text-anchor: middle; fill: rgb(76, 73, 68);" d="m 595.47669,117.84 c 2.88,1.656 6.048,2.448 9.648,2.448 3.528,0 6.696,-0.792 9.576,-2.448 2.88,-1.584 5.112,-3.888 6.768,-6.768 1.584,-2.88 2.448,-6.192 2.448,-9.864 0,-3.6 -0.864,-6.912 -2.448,-9.792 -1.656,-2.88 -3.888,-5.184 -6.768,-6.84 -2.88,-1.584 -6.048,-2.448 -9.576,-2.448 -3.6,0 -6.768,0.864 -9.648,2.448 -2.88,1.656 -5.112,3.96 -6.696,6.84 -1.656,2.88 -2.448,6.192 -2.448,9.792 0,3.672 0.792,6.984 2.448,9.864 1.584,2.88 3.816,5.184 6.696,6.768 z m 17.352,-2.808 c -2.304,1.368 -4.824,2.016 -7.704,2.016 -2.88,0 -5.472,-0.648 -7.776,-2.016 -2.304,-1.296 -4.104,-3.168 -5.4,-5.616 -1.296,-2.376 -1.944,-5.112 -1.944,-8.208 0,-3.024 0.648,-5.76 1.944,-8.208 1.296,-2.376 3.096,-4.248 5.4,-5.616 2.304,-1.296 4.896,-2.016 7.776,-2.016 2.88,0 5.4,0.72 7.704,2.016 2.304,1.368 4.104,3.24 5.4,5.616 1.296,2.448 2.016,5.184 2.016,8.208 0,3.096 -0.72,5.832 -2.016,8.208 -1.296,2.448 -3.096,4.32 -5.4,5.616 z" transform="translate(0 271.3524455342757) translate(652.6385931749934 88.49993607370502) scale(1.2899368799155588) translate(-586.33269 -82.128)"></path> 
   <path id="path73147" style="font-style: normal; font-weight: 300; font-size: 72px; line-height: 1; font-family: &quot;Montserrat Light Alt1&quot;; font-variant-ligatures: none; text-align: center; text-anchor: middle; fill: rgb(76, 73, 68);" d="m 663.86544,69.6 h -36.144 v 12.96 h 3.6 v -9.648 h 28.296 L 638.16144,120 h 4.032 l 21.672,-47.808 z" transform="translate(0 271.3524455342757) translate(725.3765214123318 72.33960684212289) scale(1.2899368799155588) translate(-627.72144 -69.6)"></path> 
  </g> 
  <g id="tagline" style="font-style:normal;font-weight:400;font-size:32px;line-height:1;font-family:Montserrat;font-variant-ligatures:none;text-align:center;text-anchor:middle"></g> 
 </g> 
</svg>