<svg xmlns:dc="http://purl.org/dc/elements/1.1/" xmlns:cc="http://creativecommons.org/ns#" xmlns:rdf="http://www.w3.org/1999/02/22-rdf-syntax-ns#" xmlns:svg="http://www.w3.org/2000/svg" xmlns="http://www.w3.org/2000/svg" id="svg11650" viewbox="0 0 1024 768" height="768px" width="1024px" version="1.1"> <metadata id="metadata11656"> 
  <rdf:rdf> 
   <cc:work rdf:about=""> 
    <dc:format>
     image/svg+xml
    </dc:format> 
    <dc:type rdf:resource="http://purl.org/dc/dcmitype/StillImage"></dc:type> 
   </cc:work> 
  </rdf:rdf> 
 </metadata> <defs id="defs11654"></defs> <g id="logo-group"> 
  <g id="title" style="font-style:normal;font-weight:400;font-size:72px;line-height:1;font-family:'Abril Fatface';font-variant-ligatures:none;text-align:center;text-anchor:middle" aria-label="FULLTHROTTLEO7"> 
   <path id="path11658" style="font-style: normal; font-weight: 400; font-size: 72px; line-height: 1; font-family: &quot;Abril Fatface&quot;; font-variant-ligatures: none; text-align: center; text-anchor: middle; fill: rgb(20, 16, 17);" d="m 188.87919,69.6 h 37.44 l 0.72,14.976 h -1.296 q -2.664,-7.776 -6.192,-10.584 -3.456,-2.808 -10.368,-2.808 h -2.016 v 23.4 h 3.24 q 3.456,0 5.76,-2.52 2.304,-2.52 3.168,-6.912 h 1.08 v 21.312 h -1.224 q -1.152,-5.4 -3.24,-7.704 -2.016,-2.304 -5.544,-2.304 h -3.24 v 21.96 h 8.928 V 120 h -27.216 v -1.584 h 4.248 V 71.184 h -4.248 z" transform="translate(0 326.6512239832903) translate(251.99999999999994 37.12581042128859) scale(0.803646701455296) translate(-188.87919 -69.6)"></path> 
   <path id="path11660" style="font-style: normal; font-weight: 400; font-size: 72px; line-height: 1; font-family: &quot;Abril Fatface&quot;; font-variant-ligatures: none; text-align: center; text-anchor: middle; fill: rgb(20, 16, 17);" d="m 248.36356,104.664 q 0,6.624 2.232,10.152 2.304,3.528 8.208,3.528 5.904,0 9.072,-3.672 3.168,-3.672 3.168,-11.16 V 70.968 h -4.68 V 69.6 h 10.512 v 1.368 h -3.96 v 32.04 q 0,8.928 -3.96,13.32 -3.96,4.392 -14.04,4.392 -10.008,0 -15.336,-4.176 -5.256,-4.176 -5.256,-14.328 V 70.968 h -3.96 V 69.6 h 22.68 v 1.368 h -4.68 z" transform="translate(0 326.6512239832903) translate(285.338777112451 37.12581042128859) scale(0.803646701455296) translate(-230.36356 -69.6)"></path> 
   <path id="path11662" style="font-style: normal; font-weight: 400; font-size: 72px; line-height: 1; font-family: &quot;Abril Fatface&quot;; font-variant-ligatures: none; text-align: center; text-anchor: middle; fill: rgb(20, 16, 17);" d="m 279.58231,69.6 h 25.92 v 1.584 h -7.632 v 47.232 h 2.592 q 6.12,0 9.72,-3.744 3.672,-3.744 7.416,-11.52 h 1.512 l -1.368,16.848 h -38.16 v -1.584 h 4.248 V 71.184 h -4.248 z" transform="translate(0 326.6512239832903) translate(324.8932631997038 37.12581042128859) scale(0.803646701455296) translate(-279.58231 -69.6)"></path> 
   <path id="path11664" style="font-style: normal; font-weight: 400; font-size: 72px; line-height: 1; font-family: &quot;Abril Fatface&quot;; font-variant-ligatures: none; text-align: center; text-anchor: middle; fill: rgb(20, 16, 17);" d="m 322.47294,69.6 h 25.92 v 1.584 h -7.632 v 47.232 h 2.592 q 6.12,0 9.72,-3.744 3.672,-3.744 7.416,-11.52 h 1.512 l -1.368,16.848 h -38.16 v -1.584 h 4.248 V 71.184 h -4.248 z" transform="translate(0 326.6512239832903) translate(359.36217652254334 37.12581042128859) scale(0.803646701455296) translate(-322.47294 -69.6)"></path> 
   <path id="path11666" style="font-style: normal; font-weight: 400; font-size: 72px; line-height: 1; font-family: &quot;Abril Fatface&quot;; font-variant-ligatures: none; text-align: center; text-anchor: middle; fill: rgb(20, 16, 17);" d="m 403.87794,69.6 0.72,18.072 h -1.368 q -3.168,-9.576 -5.616,-13.032 -2.448,-3.528 -7.056,-3.528 h -0.864 v 47.376 h 6.12 V 120 h -26.28 v -1.512 h 6.12 V 71.112 h -0.936 q -4.608,0 -7.128,3.672 -2.52,3.6 -5.544,12.888 h -1.368 l 0.72,-18.072 z" transform="translate(0 326.6512239832903) translate(390.06549875164285 37.12581042128859) scale(0.803646701455296) translate(-360.67794 -69.6)"></path> 
   <path id="path11668" style="font-style: normal; font-weight: 400; font-size: 72px; line-height: 1; font-family: &quot;Abril Fatface&quot;; font-variant-ligatures: none; text-align: center; text-anchor: middle; fill: rgb(20, 16, 17);" d="m 408.81669,69.6 h 22.464 v 1.368 h -4.176 v 22.32 h 14.328 v -22.32 h -4.248 V 69.6 h 22.536 v 1.368 h -4.248 v 47.664 h 4.248 V 120 h -22.536 v -1.368 h 4.248 V 95.16 h -14.328 v 23.472 h 4.176 V 120 h -22.464 v -1.368 h 4.248 V 70.968 h -4.248 z" transform="translate(0 326.6512239832903) translate(428.752046401324 37.12581042128859) scale(0.803646701455296) translate(-408.81669 -69.6)"></path> 
   <path id="path11670" style="font-style: normal; font-weight: 400; font-size: 72px; line-height: 1; font-family: &quot;Abril Fatface&quot;; font-variant-ligatures: none; text-align: center; text-anchor: middle; fill: rgb(20, 16, 17);" d="m 484.78006,94.512 h -3.816 v 24.12 h 4.68 V 120 h -23.4 v -1.368 h 4.68 V 70.968 h -4.68 V 69.6 h 21.744 q 9.36,0 13.248,1.008 3.96,0.936 5.544,2.304 3.456,2.808 3.456,8.928 0,6.12 -3.024,8.784 -3.024,2.592 -9.216,3.096 v 0.216 q 5.832,0.792 8.136,3.456 2.304,2.664 2.304,8.928 v 3.816 q 0,3.744 0.36,5.04 0.432,1.296 1.728,1.296 1.296,0 2.016,-1.152 0.792,-1.224 1.44,-5.04 l 1.224,0.144 q -0.792,6.12 -2.808,8.208 -1.944,2.088 -7.848,2.088 -5.904,0 -8.424,-2.736 -2.448,-2.808 -2.448,-10.44 v -5.256 q 0,-4.032 -1.08,-5.904 -1.008,-1.872 -3.816,-1.872 z m -3.816,-23.544 v 22.176 h 2.304 q 4.104,0 6.048,-2.52 2.016,-2.52 2.016,-8.208 v -2.088 q 0,-5.688 -1.944,-7.488 -1.872,-1.872 -6.048,-1.872 z" transform="translate(0 326.6512239832903) translate(471.6887760692556 37.12581042128859) scale(0.803646701455296) translate(-462.24406 -69.6)"></path> 
   <path id="path11672" style="font-style: normal; font-weight: 400; font-size: 72px; line-height: 1; font-family: &quot;Abril Fatface&quot;; font-variant-ligatures: none; text-align: center; text-anchor: middle; fill: rgb(20, 16, 17);" d="m 547.43919,97.752 v -5.328 q 0,-13.176 -1.296,-16.632 -1.44,-3.96 -4.104,-4.896 -1.512,-0.576 -3.672,-0.576 -2.16,0 -3.744,0.576 -1.512,0.576 -2.52,2.016 -1.008,1.44 -1.656,3.024 -0.576,1.584 -0.936,4.464 -0.432,4.176 -0.432,12.312 v 5.184 q 0,8.784 0.648,12.528 0.72,3.672 1.728,5.256 2.232,3.528 6.912,3.528 5.688,0 7.344,-4.752 1.728,-4.824 1.728,-16.704 z m -9.216,22.968 q -12.024,0 -18,-6.48 -5.904,-6.552 -5.904,-18.864 0,-12.384 6.336,-19.44 6.408,-7.128 18.072,-7.128 11.664,0 17.568,6.768 5.976,6.696 5.976,19.08 0,12.384 -6.048,19.224 -5.976,6.84 -18,6.84 z" transform="translate(0 326.6512239832903) translate(513.5387825216113 36.48932223373602) scale(0.803646701455296) translate(-514.31919 -68.808)"></path> 
   <path id="path11674" style="font-style: normal; font-weight: 400; font-size: 72px; line-height: 1; font-family: &quot;Abril Fatface&quot;; font-variant-ligatures: none; text-align: center; text-anchor: middle; fill: rgb(20, 16, 17);" d="m 608.90919,69.6 0.72,18.072 h -1.368 q -3.168,-9.576 -5.616,-13.032 -2.448,-3.528 -7.056,-3.528 h -0.864 v 47.376 h 6.12 V 120 h -26.28 v -1.512 h 6.12 V 71.112 h -0.936 q -4.608,0 -7.128,3.672 -2.52,3.6 -5.544,12.888 h -1.368 l 0.72,-18.072 z" transform="translate(0 326.6512239832903) translate(554.838186509399 37.12581042128859) scale(0.803646701455296) translate(-565.70919 -69.6)"></path> 
   <path id="path11676" style="font-style: normal; font-weight: 400; font-size: 72px; line-height: 1; font-family: &quot;Abril Fatface&quot;; font-variant-ligatures: none; text-align: center; text-anchor: middle; fill: rgb(20, 16, 17);" d="m 656.72169,69.6 0.72,18.072 h -1.368 q -3.168,-9.576 -5.616,-13.032 -2.448,-3.528 -7.056,-3.528 h -0.864 v 47.376 h 6.12 V 120 h -26.28 v -1.512 h 6.12 V 71.112 h -0.936 q -4.608,0 -7.128,3.672 -2.52,3.6 -5.544,12.888 h -1.368 l 0.72,-18.072 z" transform="translate(0 326.6512239832903) translate(593.2625444227303 37.12581042128859) scale(0.803646701455296) translate(-613.52169 -69.6)"></path> 
   <path id="path11678" style="font-style: normal; font-weight: 400; font-size: 72px; line-height: 1; font-family: &quot;Abril Fatface&quot;; font-variant-ligatures: none; text-align: center; text-anchor: middle; fill: rgb(20, 16, 17);" d="m 661.66044,69.6 h 25.92 v 1.584 h -7.632 v 47.232 h 2.592 q 6.12,0 9.72,-3.744 3.672,-3.744 7.416,-11.52 h 1.512 l -1.368,16.848 h -38.16 v -1.584 h 4.248 V 71.184 h -4.248 z" transform="translate(0 326.6512239832903) translate(631.9490920724115 37.12581042128859) scale(0.803646701455296) translate(-661.66044 -69.6)"></path> 
   <path id="path11680" style="font-style: normal; font-weight: 400; font-size: 72px; line-height: 1; font-family: &quot;Abril Fatface&quot;; font-variant-ligatures: none; text-align: center; text-anchor: middle; fill: rgb(20, 16, 17);" d="m 704.55106,69.6 h 37.44 l 0.72,14.256 h -1.296 q -3.024,-7.272 -6.336,-9.936 -3.312,-2.736 -9.72,-2.736 h -2.52 v 22.248 h 2.448 q 3.384,0 5.688,-2.52 2.304,-2.592 3.24,-6.912 h 1.08 v 21.312 h -1.224 q -1.296,-5.4 -3.528,-7.704 -2.16,-2.304 -5.976,-2.304 h -1.728 v 23.112 h 2.736 q 6.624,0 11.232,-3.96 4.68,-3.96 6.408,-10.152 h 1.44 l -0.576,15.696 h -39.528 v -1.584 h 4.248 V 71.184 h -4.248 z" transform="translate(0 326.6512239832903) translate(666.4179973587841 37.12581042128859) scale(0.803646701455296) translate(-704.55106 -69.6)"></path> 
   <path id="path11682" style="font-style: normal; font-weight: 400; font-size: 72px; line-height: 1; font-family: &quot;Abril Fatface&quot;; font-variant-ligatures: none; text-align: center; text-anchor: middle; fill: rgb(0, 0, 0);" d="m 782.14231,97.752 v -5.328 q 0,-13.176 -1.296,-16.632 -1.44,-3.96 -4.104,-4.896 -1.512,-0.576 -3.672,-0.576 -2.16,0 -3.744,0.576 -1.512,0.576 -2.52,2.016 -1.008,1.44 -1.656,3.024 -0.576,1.584 -0.936,4.464 -0.432,4.176 -0.432,12.312 v 5.184 q 0,8.784 0.648,12.528 0.72,3.672 1.728,5.256 2.232,3.528 6.912,3.528 5.688,0 7.344,-4.752 1.728,-4.824 1.728,-16.704 z m -9.216,22.968 q -12.024,0 -18,-6.48 -5.904,-6.552 -5.904,-18.864 0,-12.384 6.336,-19.44 6.408,-7.128 18.072,-7.128 11.664,0 17.568,6.768 5.976,6.696 5.976,19.08 0,12.384 -6.048,19.224 -5.976,6.84 -18,6.84 z" transform="translate(0 326.6512239832903) translate(702.1571707308779 36.48932223373602) scale(0.803646701455296) translate(-749.02231 -68.808)"></path> 
   <path id="path11684" style="font-style: normal; font-weight: 400; font-size: 72px; line-height: 1; font-family: &quot;Abril Fatface&quot;; font-variant-ligatures: none; text-align: center; text-anchor: middle; fill: rgb(0, 0, 0);" d="m 816.84969,120.72 q -3.888,0 -6.12,-2.088 -2.232,-2.16 -2.232,-5.256 0,-3.168 2.088,-6.912 2.16,-3.816 9.288,-12.096 l 11.88,-13.752 h -18.432 q -5.112,0 -6.768,1.296 -1.584,1.224 -2.52,5.976 h -1.152 l 0.792,-18.288 h 32.256 v 7.776 l -7.992,13.968 q -5.328,9.432 -6.84,13.536 -1.44,4.032 -1.44,7.704 0,3.672 2.16,6.768 l -0.504,0.864 q -2.016,0.504 -4.464,0.504 z" transform="translate(0 326.6512239832903) translate(745.4410838103053 37.12581042128859) scale(0.803646701455296) translate(-802.88169 -69.6)"></path> 
  </g> 
  <g id="tagline" style="font-style:oblique;font-weight:normal;font-size:32px;line-height:1;font-family:'Droid Serif';font-variant-ligatures:none;text-align:center;text-anchor:middle"></g> 
 </g> 
</svg>