<svg xmlns:dc="http://purl.org/dc/elements/1.1/" xmlns:cc="http://creativecommons.org/ns#" xmlns:rdf="http://www.w3.org/1999/02/22-rdf-syntax-ns#" xmlns:svg="http://www.w3.org/2000/svg" xmlns="http://www.w3.org/2000/svg" id="svg104505" viewbox="0 0 1024 768" height="768px" width="1024px" version="1.1"> <metadata id="metadata104511"> 
  <rdf:rdf> 
   <cc:work rdf:about=""> 
    <dc:format>
     image/svg+xml
    </dc:format> 
    <dc:type rdf:resource="http://purl.org/dc/dcmitype/StillImage"></dc:type> 
   </cc:work> 
  </rdf:rdf> 
 </metadata> <defs id="defs104509"></defs> <g id="logo-group"> 
  <g id="title" style="font-style:normal;font-weight:400;font-size:72px;line-height:1;font-family:'Abril Fatface';font-variant-ligatures:none;text-align:center;text-anchor:middle" aria-label="GOLDSTARO7"> 
   <path id="path104513" style="font-style: normal; font-weight: 400; font-size: 72px; line-height: 1; font-family: &quot;Abril Fatface&quot;; font-variant-ligatures: none; text-align: center; text-anchor: middle; fill: rgb(255, 36, 119);" d="m 303.19719,119.28 q 3.528,0 4.464,-1.296 1.008,-1.296 1.008,-4.392 V 99.624 h -4.608 V 98.04 h 20.736 v 1.584 h -2.808 v 20.304 h -1.08 q -1.296,-1.8 -3.672,-1.8 -1.008,0 -6.048,1.296 -4.968,1.296 -8.496,1.296 -11.736,0 -18.216,-6.336 -6.408,-6.336 -6.408,-19.008 0,-12.744 6.696,-19.656 6.768,-6.912 18.144,-6.912 4.392,0 8.784,1.152 4.464,1.08 5.184,1.08 0.72,0 1.08,-0.288 0.36,-0.36 0.792,-1.152 h 0.792 l 0.576,15.624 h -1.296 q -3.528,-6.984 -7.128,-10.944 -3.528,-4.032 -7.92,-4.032 -11.016,0 -11.016,21.528 v 5.688 q 0,10.8 2.664,16.344 2.736,5.472 7.776,5.472 z" transform="translate(0 307.14448702559935) translate(252.00000000000006 50.65313503801612) scale(1.0094921380946418) translate(-278.06919 -68.808)"></path> 
   <path id="path104515" style="font-style: normal; font-weight: 400; font-size: 72px; line-height: 1; font-family: &quot;Abril Fatface&quot;; font-variant-ligatures: none; text-align: center; text-anchor: middle; fill: rgb(255, 36, 119);" d="m 362.23606,97.752 v -5.328 q 0,-13.176 -1.296,-16.632 -1.44,-3.96 -4.104,-4.896 -1.512,-0.576 -3.672,-0.576 -2.16,0 -3.744,0.576 -1.512,0.576 -2.52,2.016 -1.008,1.44 -1.656,3.024 -0.576,1.584 -0.936,4.464 -0.432,4.176 -0.432,12.312 v 5.184 q 0,8.784 0.648,12.528 0.72,3.672 1.728,5.256 2.232,3.528 6.912,3.528 5.688,0 7.344,-4.752 1.728,-4.824 1.728,-16.704 z m -9.216,22.968 q -12.024,0 -18,-6.48 -5.904,-6.552 -5.904,-18.864 0,-12.384 6.336,-19.44 6.408,-7.128 18.072,-7.128 11.664,0 17.568,6.768 5.976,6.696 5.976,19.08 0,12.384 -6.048,19.224 -5.976,6.84 -18,6.84 z" transform="translate(0 307.14448702559935) translate(308.57887462981245 50.65313503801612) scale(1.0094921380946418) translate(-329.11606 -68.808)"></path> 
   <path id="path104517" style="font-style: normal; font-weight: 400; font-size: 72px; line-height: 1; font-family: &quot;Abril Fatface&quot;; font-variant-ligatures: none; text-align: center; text-anchor: middle; fill: rgb(255, 36, 119);" d="m 381.53544,69.6 h 25.92 v 1.584 h -7.632 v 47.232 h 2.592 q 6.12,0 9.72,-3.744 3.672,-3.744 7.416,-11.52 h 1.512 l -1.368,16.848 h -38.16 v -1.584 h 4.248 V 71.184 h -4.248 z" transform="translate(0 307.14448702559935) translate(366.5432873140811 51.452652811387054) scale(1.0094921380946418) translate(-381.53544 -69.6)"></path> 
   <path id="path104519" style="font-style: normal; font-weight: 400; font-size: 72px; line-height: 1; font-family: &quot;Abril Fatface&quot;; font-variant-ligatures: none; text-align: center; text-anchor: middle; fill: rgb(255, 36, 119);" d="m 474.32206,93.936 q 0,14.832 -8.352,20.664 -7.704,5.4 -21.168,5.4 h -20.376 v -1.368 h 4.752 V 70.968 h -4.752 V 69.6 h 22.248 q 13.824,0 20.736,5.688 6.912,5.616 6.912,18.648 z m -31.104,24.696 h 2.736 q 7.272,0 10.368,-5.112 3.168,-5.184 3.168,-17.28 v -4.176 q 0,-16.2 -6.192,-19.512 -2.952,-1.584 -8.352,-1.584 h -1.728 z" transform="translate(0 307.14448702559935) translate(414.8884916925591 51.452652811387054) scale(1.0094921380946418) translate(-424.42606 -69.6)"></path> 
   <path id="path104521" style="font-style: normal; font-weight: 400; font-size: 72px; line-height: 1; font-family: &quot;Abril Fatface&quot;; font-variant-ligatures: none; text-align: center; text-anchor: middle; fill: rgb(255, 36, 119);" d="m 500.03281,119.208 q 3.6,0 6.336,-1.944 2.808,-1.944 2.808,-5.832 0,-3.96 -3.024,-6.048 -2.952,-2.088 -8.496,-3.6 -5.472,-1.584 -7.992,-2.736 -2.448,-1.152 -4.68,-3.024 -4.464,-3.744 -4.464,-11.592 0,-6.408 4.536,-11.016 4.608,-4.608 12.528,-4.608 3.816,0 7.92,1.152 4.176,1.08 5.184,1.08 1.008,0 1.8,-1.44 h 0.792 l 0.504,14.544 h -1.152 q -3.456,-6.264 -7.272,-10.008 -3.744,-3.816 -8.208,-3.816 -4.392,0 -6.84,2.088 -2.448,2.016 -2.448,5.472 0,3.384 2.88,5.256 2.952,1.8 7.2,2.952 4.248,1.152 5.544,1.584 1.368,0.432 3.312,1.224 2.016,0.72 3.24,1.584 1.296,0.792 2.664,2.088 1.44,1.224 2.232,2.736 1.944,3.456 1.944,8.208 0,7.776 -4.896,12.528 -4.824,4.68 -12.744,4.68 -4.104,0 -9.432,-1.08 -5.256,-1.08 -5.832,-1.08 -1.008,0 -1.944,2.16 h -1.008 l -0.72,-17.136 h 1.224 q 3.168,6.264 8.064,10.944 4.968,4.68 10.44,4.68 z" transform="translate(0 307.14448702559935) translate(476.34511119458824 50.65313503801612) scale(1.0094921380946418) translate(-480.30481 -68.808)"></path> 
   <path id="path104523" style="font-style: normal; font-weight: 400; font-size: 72px; line-height: 1; font-family: &quot;Abril Fatface&quot;; font-variant-ligatures: none; text-align: center; text-anchor: middle; fill: rgb(255, 36, 119);" d="m 562.36231,69.6 0.72,18.072 h -1.368 q -3.168,-9.576 -5.616,-13.032 -2.448,-3.528 -7.056,-3.528 h -0.864 v 47.376 h 6.12 V 120 h -26.28 v -1.512 h 6.12 V 71.112 h -0.936 q -4.608,0 -7.128,3.672 -2.52,3.6 -5.544,12.888 h -1.368 l 0.72,-18.072 z" transform="translate(0 307.14448702559935) translate(520.6189126410741 51.452652811387054) scale(1.0094921380946418) translate(-519.16231 -69.6)"></path> 
   <path id="path104525" style="font-style: normal; font-weight: 400; font-size: 72px; line-height: 1; font-family: &quot;Abril Fatface&quot;; font-variant-ligatures: none; text-align: center; text-anchor: middle; fill: rgb(255, 36, 119);" d="m 589.29931,118.632 -5.256,-15.552 h -14.256 l -5.544,15.552 h 5.4 V 120 h -11.016 v -1.368 h 3.384 l 18.36,-49.464 h 5.904 l 18.144,49.464 h 3.312 V 120 h -23.544 v -1.368 z m -12.096,-36 -6.768,18.864 h 13.032 z" transform="translate(0 307.14448702559935) translate(565.5059805614524 51.016552207730186) scale(1.0094921380946418) translate(-558.62731 -69.168)"></path> 
   <path id="path104527" style="font-style: normal; font-weight: 400; font-size: 72px; line-height: 1; font-family: &quot;Abril Fatface&quot;; font-variant-ligatures: none; text-align: center; text-anchor: middle; fill: rgb(255, 36, 119);" d="m 631.73319,94.512 h -3.816 v 24.12 h 4.68 V 120 h -23.4 v -1.368 h 4.68 V 70.968 h -4.68 V 69.6 h 21.744 q 9.36,0 13.248,1.008 3.96,0.936 5.544,2.304 3.456,2.808 3.456,8.928 0,6.12 -3.024,8.784 -3.024,2.592 -9.216,3.096 v 0.216 q 5.832,0.792 8.136,3.456 2.304,2.664 2.304,8.928 v 3.816 q 0,3.744 0.36,5.04 0.432,1.296 1.728,1.296 1.296,0 2.016,-1.152 0.792,-1.224 1.44,-5.04 l 1.224,0.144 q -0.792,6.12 -2.808,8.208 -1.944,2.088 -7.848,2.088 -5.904,0 -8.424,-2.736 -2.448,-2.808 -2.448,-10.44 v -5.256 q 0,-4.032 -1.08,-5.904 -1.008,-1.872 -3.816,-1.872 z m -3.816,-23.544 v 22.176 h 2.304 q 4.104,0 6.048,-2.52 2.016,-2.52 2.016,-8.208 v -2.088 q 0,-5.688 -1.944,-7.488 -1.872,-1.872 -6.048,-1.872 z" transform="translate(0 307.14448702559935) translate(621.603337536315 51.452652811387054) scale(1.0094921380946418) translate(-609.19719 -69.6)"></path> 
   <path id="path104529" style="font-style: normal; font-weight: 400; font-size: 72px; line-height: 1; font-family: &quot;Abril Fatface&quot;; font-variant-ligatures: none; text-align: center; text-anchor: middle; fill: rgb(194, 189, 206);" d="m 694.39231,97.752 v -5.328 q 0,-13.176 -1.296,-16.632 -1.44,-3.96 -4.104,-4.896 -1.512,-0.576 -3.672,-0.576 -2.16,0 -3.744,0.576 -1.512,0.576 -2.52,2.016 -1.008,1.44 -1.656,3.024 -0.576,1.584 -0.936,4.464 -0.432,4.176 -0.432,12.312 v 5.184 q 0,8.784 0.648,12.528 0.72,3.672 1.728,5.256 2.232,3.528 6.912,3.528 5.688,0 7.344,-4.752 1.728,-4.824 1.728,-16.704 z m -9.216,22.968 q -12.024,0 -18,-6.48 -5.904,-6.552 -5.904,-18.864 0,-12.384 6.336,-19.44 6.408,-7.128 18.072,-7.128 11.664,0 17.568,6.768 5.976,6.696 5.976,19.08 0,12.384 -6.048,19.224 -5.976,6.84 -18,6.84 z" transform="translate(0 307.14448702559935) translate(679.2202224571232 50.65313503801612) scale(1.0094921380946418) translate(-661.27231 -68.808)"></path> 
   <path id="path104531" style="font-style: normal; font-weight: 400; font-size: 72px; line-height: 1; font-family: &quot;Abril Fatface&quot;; font-variant-ligatures: none; text-align: center; text-anchor: middle; fill: rgb(194, 189, 206);" d="m 729.09969,120.72 q -3.888,0 -6.12,-2.088 -2.232,-2.16 -2.232,-5.256 0,-3.168 2.088,-6.912 2.16,-3.816 9.288,-12.096 l 11.88,-13.752 h -18.432 q -5.112,0 -6.768,1.296 -1.584,1.224 -2.52,5.976 h -1.152 l 0.792,-18.288 h 32.256 v 7.776 l -7.992,13.968 q -5.328,9.432 -6.84,13.536 -1.44,4.032 -1.44,7.704 0,3.672 2.16,6.768 l -0.504,0.864 q -2.016,0.504 -4.464,0.504 z" transform="translate(0 307.14448702559935) translate(738.6383038202483 51.452652811387054) scale(1.0094921380946418) translate(-715.13169 -69.6)"></path> 
  </g> 
  <g id="tagline" style="font-style:oblique;font-weight:normal;font-size:32px;line-height:1;font-family:'Droid Serif';font-variant-ligatures:none;text-align:center;text-anchor:middle"></g> 
 </g> 
</svg>