<svg xmlns:dc="http://purl.org/dc/elements/1.1/" xmlns:cc="http://creativecommons.org/ns#" xmlns:rdf="http://www.w3.org/1999/02/22-rdf-syntax-ns#" xmlns:svg="http://www.w3.org/2000/svg" xmlns="http://www.w3.org/2000/svg" id="svg94105" viewbox="0 0 1024 768" height="768px" width="1024px" version="1.1"> <metadata id="metadata94111"> 
  <rdf:rdf> 
   <cc:work rdf:about=""> 
    <dc:format>
     image/svg+xml
    </dc:format> 
    <dc:type rdf:resource="http://purl.org/dc/dcmitype/StillImage"></dc:type> 
   </cc:work> 
  </rdf:rdf> 
 </metadata> <defs id="defs94109"></defs> <g id="logo-group"> 
  <g id="title" style="font-style:normal;font-weight:300;font-size:72px;line-height:1;font-family:'Uni Neue';font-variant-ligatures:none;text-align:center;text-anchor:middle" aria-label="GOLDENAGEO7"> 
   <path id="path94113" style="font-style: normal; font-weight: 300; font-size: 72px; line-height: 1; font-family: &quot;Uni Neue&quot;; font-variant-ligatures: none; text-align: center; text-anchor: middle; fill: rgb(0, 0, 0);" d="m 313.96737,113.808 c 0.144,-0.144 0.216,-0.36 0.216,-0.576 V 93.864 c 0,-0.288 -0.216,-0.432 -0.432,-0.432 h -17.064 c -0.28799,0 -0.43199,0.144 -0.43199,0.432 v 1.368 c 0,0.288 0.144,0.432 0.43199,0.432 h 15.12 v 16.992 c -4.248,3.816 -9.648,5.76 -15.33599,5.76 -10.22401,0 -15.55201,-6.12 -15.55201,-14.832 v -18.72 c 0,-8.712 5.256,-14.832 15.33601,-14.832 5.47199,0 11.01599,1.872 15.192,5.256 0.28799,0.144 0.50399,0.072 0.64799,-0.144 l 0.79201,-1.08 c 0.216,-0.216 0.216,-0.504 -0.072,-0.648 -4.75201,-3.744 -10.72801,-5.616 -16.56,-5.616 -11.23201,0 -17.712,6.912 -17.712,17.064 v 18.72 c 0,10.08 6.55199,17.136 17.928,17.136 6.47999,0 12.67199,-2.304 17.49599,-6.912 z" transform="translate(0 307.64596855174057) translate(252.00000000000006 49.92377819002749) scale(0.9988757845136798) translate(-278.54338 -67.8)"></path> 
   <path id="path94115" style="font-style: normal; font-weight: 300; font-size: 72px; line-height: 1; font-family: &quot;Uni Neue&quot;; font-variant-ligatures: none; text-align: center; text-anchor: middle; fill: rgb(0, 0, 0);" d="M 361.7585,103.872 V 85.224 c 0,-10.368 -7.416,-17.424 -18.72,-17.424 -11.376,0 -18.792,7.056 -18.792,17.424 v 18.648 c 0,9.72 7.488,16.848 18.792,16.848 11.232,0 18.72,-7.128 18.72,-16.848 z m -35.136,0 V 85.224 c 0,-9.072 6.336,-15.192 16.416,-15.192 10.008,0 16.344,6.12 16.344,15.192 v 18.648 c 0,8.424 -6.408,14.544 -16.344,14.544 -10.008,0 -16.416,-6.12 -16.416,-14.544 z" transform="translate(0 307.64596855174057) translate(302.6461187672913 49.92377819002749) scale(0.9988757845136798) translate(-324.2465 -67.8)"></path> 
   <path id="path94117" style="font-style: normal; font-weight: 300; font-size: 72px; line-height: 1; font-family: &quot;Uni Neue&quot;; font-variant-ligatures: none; text-align: center; text-anchor: middle; fill: rgb(0, 0, 0);" d="m 401.075,120 c 0.288,0 0.432,-0.144 0.432,-0.432 V 118.2 c 0,-0.288 -0.144,-0.432 -0.432,-0.432 H 376.307 V 68.952 c 0,-0.288 -0.144,-0.432 -0.432,-0.432 h -1.512 c -0.288,0 -0.504,0.144 -0.504,0.432 v 50.616 c 0,0.288 0.216,0.432 0.504,0.432 z" transform="translate(0 307.64596855174057) translate(357.19722254904457 50.64296875487733) scale(0.9988757845136798) translate(-373.859 -68.52)"></path> 
   <path id="path94119" style="font-style: normal; font-weight: 300; font-size: 72px; line-height: 1; font-family: &quot;Uni Neue&quot;; font-variant-ligatures: none; text-align: center; text-anchor: middle; fill: rgb(0, 0, 0);" d="m 427.00513,120 c 10.72799,0 17.63999,-6.48 17.63999,-17.712 v -15.84 c 0,-11.16 -6.84,-17.928 -17.63999,-17.928 h -17.06401 c -0.288,0 -0.504,0.144 -0.504,0.432 v 50.616 c 0,0.288 0.216,0.432 0.504,0.432 z m -15.12,-49.248 h 15.048 c 9.50399,0 15.264,5.76 15.264,15.696 v 15.84 c 0,9.936 -5.76001,15.408 -15.264,15.408 h -15.048 z" transform="translate(0 307.64596855174057) translate(397.72972399813483 50.64296875487733) scale(0.9988757845136798) translate(-409.43712 -68.52)"></path> 
   <path id="path94121" style="font-style: normal; font-weight: 300; font-size: 72px; line-height: 1; font-family: &quot;Uni Neue&quot;; font-variant-ligatures: none; text-align: center; text-anchor: middle; fill: rgb(0, 0, 0);" d="m 459.27575,94.872 h 24.624 c 0.288,0 0.504,-0.144 0.504,-0.432 v -1.368 c 0,-0.288 -0.216,-0.432 -0.504,-0.432 h -24.624 V 70.752 h 26.136 c 0.288,0 0.432,-0.144 0.432,-0.432 v -1.368 c 0,-0.288 -0.144,-0.432 -0.432,-0.432 h -28.08 c -0.288,0 -0.504,0.144 -0.504,0.432 v 50.616 c 0,0.288 0.216,0.432 0.504,0.432 h 29.16 c 0.288,0 0.432,-0.144 0.432,-0.432 V 118.2 c 0,-0.288 -0.144,-0.432 -0.432,-0.432 h -27.216 z" transform="translate(0 307.64596855174057) translate(450.0614556405507 50.64296875487733) scale(0.9988757845136798) translate(-456.82775 -68.52)"></path> 
   <path id="path94123" style="font-style: normal; font-weight: 300; font-size: 72px; line-height: 1; font-family: &quot;Uni Neue&quot;; font-variant-ligatures: none; text-align: center; text-anchor: middle; fill: rgb(0, 0, 0);" d="m 499.34375,120 c 0.216,0 0.432,-0.144 0.432,-0.432 l -0.072,-47.16 31.176,47.304 c 0.072,0.216 0.36,0.288 0.576,0.288 h 1.728 c 0.288,0 0.504,-0.144 0.504,-0.432 V 68.952 c 0,-0.288 -0.216,-0.432 -0.504,-0.432 h -1.44 c -0.288,0 -0.504,0.144 -0.504,0.432 l 0.072,47.304 -31.176,-47.448 c -0.072,-0.216 -0.36,-0.288 -0.504,-0.288 h -1.8 c -0.288,0 -0.504,0.144 -0.504,0.432 v 50.616 c 0,0.288 0.216,0.432 0.504,0.432 z" transform="translate(0 307.64596855174057) translate(495.51030383592314 50.64296875487733) scale(0.9988757845136798) translate(-497.32775 -68.52)"></path> 
   <path id="path94125" style="font-style: normal; font-weight: 300; font-size: 72px; line-height: 1; font-family: &quot;Uni Neue&quot;; font-variant-ligatures: none; text-align: center; text-anchor: middle; fill: rgb(0, 0, 0);" d="m 543.4955,120 c 0.216,0 0.36,-0.144 0.432,-0.36 l 5.904,-15.768 h 24.12 l 5.832,15.768 c 0.144,0.216 0.288,0.36 0.504,0.36 h 1.656 c 0.288,0 0.432,-0.216 0.36,-0.504 L 563.3675,68.88 c -0.072,-0.216 -0.288,-0.36 -0.504,-0.36 h -2.016 c -0.144,0 -0.36,0.144 -0.432,0.36 l -18.936,50.616 c -0.072,0.288 0.072,0.504 0.36,0.504 z m 18.288,-48.528 h 0.216 l 11.16,30.168 h -22.536 z" transform="translate(0 307.64596855174057) translate(544.5884673067476 50.64296875487733) scale(0.9988757845136798) translate(-541.46115 -68.52)"></path> 
   <path id="path94127" style="font-style: normal; font-weight: 300; font-size: 72px; line-height: 1; font-family: &quot;Uni Neue&quot;; font-variant-ligatures: none; text-align: center; text-anchor: middle; fill: rgb(0, 0, 0);" d="m 623.34237,113.808 c 0.144,-0.144 0.216,-0.36 0.216,-0.576 V 93.864 c 0,-0.288 -0.216,-0.432 -0.43199,-0.432 h -17.06401 c -0.288,0 -0.432,0.144 -0.432,0.432 v 1.368 c 0,0.288 0.144,0.432 0.432,0.432 h 15.12 v 16.992 c -4.24799,3.816 -9.648,5.76 -15.336,5.76 -10.22399,0 -15.552,-6.12 -15.552,-14.832 v -18.72 c 0,-8.712 5.25601,-14.832 15.336,-14.832 5.47201,0 11.01601,1.872 15.192,5.256 0.288,0.144 0.504,0.072 0.648,-0.144 l 0.79201,-1.08 c 0.216,-0.216 0.216,-0.504 -0.072,-0.648 -4.75201,-3.744 -10.72801,-5.616 -16.56001,-5.616 -11.232,0 -17.712,6.912 -17.712,17.064 v 18.72 c 0,10.08 6.552,17.136 17.928,17.136 6.48,0 12.672,-2.304 17.496,-6.912 z" transform="translate(0 307.64596855174057) translate(595.9878383031406 49.92377819002749) scale(0.9988757845136798) translate(-587.91837 -67.8)"></path> 
   <path id="path94129" style="font-style: normal; font-weight: 300; font-size: 72px; line-height: 1; font-family: &quot;Uni Neue&quot;; font-variant-ligatures: none; text-align: center; text-anchor: middle; fill: rgb(0, 0, 0);" d="m 637.8695,94.872 h 24.624 c 0.288,0 0.504,-0.144 0.504,-0.432 v -1.368 c 0,-0.288 -0.216,-0.432 -0.504,-0.432 h -24.624 V 70.752 h 26.136 c 0.288,0 0.432,-0.144 0.432,-0.432 v -1.368 c 0,-0.288 -0.144,-0.432 -0.432,-0.432 h -28.08 c -0.288,0 -0.504,0.144 -0.504,0.432 v 50.616 c 0,0.288 0.216,0.432 0.504,0.432 h 29.16 c 0.288,0 0.432,-0.144 0.432,-0.432 V 118.2 c 0,-0.288 -0.144,-0.432 -0.432,-0.432 h -27.216 z" transform="translate(0 307.64596855174057) translate(648.4319434713144 50.64296875487733) scale(0.9988757845136798) translate(-635.4215 -68.52)"></path> 
   <path id="path94131" style="font-style: normal; font-weight: 300; font-size: 72px; line-height: 1; font-family: &quot;Uni Neue&quot;; font-variant-ligatures: none; text-align: center; text-anchor: middle; fill: rgb(255, 202, 8);" d="M 710.93038,103.872 V 85.224 c 0,-10.368 -7.41601,-17.424 -18.72001,-17.424 -11.37599,0 -18.792,7.056 -18.792,17.424 v 18.648 c 0,9.72 7.48801,16.848 18.792,16.848 11.232,0 18.72001,-7.128 18.72001,-16.848 z m -35.13601,0 V 85.224 c 0,-9.072 6.336,-15.192 16.416,-15.192 10.00801,0 16.34401,6.12 16.34401,15.192 v 18.648 c 0,8.424 -6.408,14.544 -16.34401,14.544 -10.008,0 -16.416,-6.12 -16.416,-14.544 z" transform="translate(0 307.64596855174057) translate(691.380475724197 49.92377819002749) scale(0.9988757845136798) translate(-673.41837 -67.8)"></path> 
   <path id="path94133" style="font-style: normal; font-weight: 300; font-size: 72px; line-height: 1; font-family: &quot;Uni Neue&quot;; font-variant-ligatures: none; text-align: center; text-anchor: middle; fill: rgb(255, 202, 8);" d="m 724.57663,120 c 0.216,0 0.504,-0.144 0.57599,-0.36 l 23.83201,-49.392 c 0.144,-0.144 0.144,-0.36 0.144,-0.504 v -0.792 c 0,-0.288 -0.216,-0.432 -0.504,-0.432 h -31.68001 c -0.288,0 -0.504,0.144 -0.504,0.432 v 1.368 c 0,0.216 0.216,0.432 0.504,0.432 h 29.304 l -23.616,48.672 c -0.144,0.36 0.072,0.576 0.36,0.576 z" transform="translate(0 307.64596855174057) translate(739.348738367059 50.64296875487733) scale(0.9988757845136798) translate(-716.44062 -68.52)"></path> 
  </g> 
  <g id="tagline" style="font-style:oblique;font-weight:400;font-size:32px;line-height:1;font-family:Lato;font-variant-ligatures:none;text-align:center;text-anchor:middle"></g> 
 </g> 
</svg>