<svg xmlns:dc="http://purl.org/dc/elements/1.1/" xmlns:cc="http://creativecommons.org/ns#" xmlns:rdf="http://www.w3.org/1999/02/22-rdf-syntax-ns#" xmlns:svg="http://www.w3.org/2000/svg" xmlns="http://www.w3.org/2000/svg" id="svg36426" viewbox="0 0 1024 768" height="768px" width="1024px" version="1.1"> <metadata id="metadata36432"> 
  <rdf:rdf> 
   <cc:work rdf:about=""> 
    <dc:format>
     image/svg+xml
    </dc:format> 
    <dc:type rdf:resource="http://purl.org/dc/dcmitype/StillImage"></dc:type> 
   </cc:work> 
  </rdf:rdf> 
 </metadata> <defs id="defs36430"></defs> <g id="logo-group"> 
  <g id="title" style="font-style:normal;font-weight:700;font-size:72px;line-height:1;font-family:'Comfortaa Bold Alt2';font-variant-ligatures:none;text-align:center;text-anchor:middle" aria-label="Gotoo7"> 
   <path id="path36434" style="font-style: normal; font-weight: 700; font-size: 72px; line-height: 1; font-family: &quot;Comfortaa Bold Alt2&quot;; font-variant-ligatures: none; text-align: center; text-anchor: middle; fill: rgb(194, 188, 188);" d="m 413.56362,120.864 c 5.904,0 11.304,-1.656 16.2,-4.968 1.00801,-0.72 1.584,-1.656 1.584,-2.952 v -20.16 c 0,-1.008 -0.36,-1.8 -1.08,-2.52 -0.72,-0.72 -1.584,-1.08 -2.52,-1.08 h -13.75199 c -0.93601,0 -1.80001,0.36 -2.52001,1.08 -0.72,0.72 -1.08,1.512 -1.08,2.52 0,1.008 0.36,1.872 1.08,2.592 0.72,0.648 1.584,1.008 2.52001,1.008 h 10.15199 v 14.544 c -3.312,1.8 -6.83999,2.736 -10.584,2.736 -6.048,0 -11.16,-2.16 -15.408,-6.408 -4.248,-4.176 -6.336,-9.36 -6.336,-15.336 0,-5.976 2.088,-11.16 6.336,-15.408 4.248,-4.248 9.36,-6.336 15.408,-6.336 4.752,0 9.072,1.44 12.96,4.248 0.792,0.648 1.656,0.864 2.66401,0.72 1.00799,-0.144 1.79999,-0.648 2.37599,-1.44 0.57601,-0.792 0.792,-1.656 0.64801,-2.664 -0.144,-1.008 -0.57601,-1.8 -1.36801,-2.376 -5.184,-3.816 -10.87199,-5.688 -17.28,-5.688 -3.95999,0 -7.704,0.792 -11.30399,2.304 -3.45601,1.44 -6.48001,3.528 -9.144,6.192 -2.73601,2.664 -4.752,5.688 -6.264,9.144 -1.51201,3.6 -2.23201,7.344 -2.23201,11.304 0,3.96 0.72,7.704 2.23201,11.232 1.512,3.528 3.52799,6.552 6.264,9.216 2.66399,2.664 5.68799,4.752 9.144,6.192 3.59999,1.512 7.344,2.304 11.30399,2.304 z" transform="translate(0 210.7826303886477) translate(252.0000000000001 114.58833468934426) scale(2.025602367399394) translate(-384.61962 -62.976)"></path> 
   <path id="path36436" style="font-style: normal; font-weight: 700; font-size: 72px; line-height: 1; font-family: &quot;Comfortaa Bold Alt2&quot;; font-variant-ligatures: none; text-align: center; text-anchor: middle; fill: rgb(194, 188, 188);" d="m 457.93587,120.288 c 5.544,0 10.224,-1.944 14.112,-5.832 3.888,-3.888 5.904,-8.568 5.904,-14.112 0,-5.544 -2.016,-10.224 -5.904,-14.112 -3.888,-3.888 -8.568,-5.904 -14.112,-5.904 -5.54399,0 -10.22399,2.016 -14.112,5.904 -3.888,3.888 -5.832,8.568 -5.832,14.112 0,5.544 1.944,10.224 5.832,14.112 3.88801,3.888 8.56801,5.832 14.112,5.832 z m 0,-33.048 c 3.6,0 6.696,1.296 9.28801,3.816 2.51999,2.592 3.81599,5.688 3.81599,9.288 0,3.6 -1.296,6.696 -3.81599,9.216 -2.59201,2.592 -5.68801,3.816 -9.28801,3.816 -3.6,0 -6.696,-1.224 -9.216,-3.816 -2.59199,-2.52 -3.816,-5.616 -3.816,-9.216 0,-3.6 1.22401,-6.696 3.816,-9.288 2.52,-2.52 5.616,-3.816 9.216,-3.816 z" transform="translate(0 210.7826303886477) translate(360.1109559534325 149.73658696845854) scale(2.025602367399394) translate(-437.99187 -80.328)"></path> 
   <path id="path36438" style="font-style: normal; font-weight: 700; font-size: 72px; line-height: 1; font-family: &quot;Comfortaa Bold Alt2&quot;; font-variant-ligatures: none; text-align: center; text-anchor: middle; fill: rgb(194, 188, 188);" d="m 505.22413,112.8 c -2.08801,0 -3.88801,-0.72 -5.32801,-2.232 -1.512,-1.44 -2.23199,-3.24 -2.23199,-5.328 V 88.32 h 6.408 c 0.86399,0 1.65599,-0.288 2.30399,-0.936 0.57601,-0.576 0.936,-1.368 0.936,-2.304 0,-0.864 -0.35999,-1.656 -0.936,-2.304 -0.648,-0.576 -1.44,-0.936 -2.30399,-0.936 h -6.408 V 71.688 c 0,-1.008 -0.36001,-1.8 -1.08001,-2.52 -0.72,-0.72 -1.51199,-1.08 -2.52,-1.08 -1.008,0 -1.872,0.36 -2.592,1.08 -0.72,0.72 -1.00799,1.512 -1.00799,2.52 v 33.552 c 0,4.104 1.44,7.56 4.32,10.44 2.88,2.88 6.336,4.32 10.44,4.32 1.00799,0 1.8,-0.288 2.51999,-1.008 0.72001,-0.72 1.08,-1.584 1.08,-2.592 0,-1.008 -0.35999,-1.8 -1.08,-2.52 -0.71999,-0.72 -1.512,-1.08 -2.51999,-1.08 z" transform="translate(0 210.7826303886477) translate(466.3988900322291 124.94321399148993) scale(2.025602367399394) translate(-490.46413 -68.088)"></path> 
   <path id="path36440" style="font-style: normal; font-weight: 700; font-size: 72px; line-height: 1; font-family: &quot;Comfortaa Bold Alt2&quot;; font-variant-ligatures: none; text-align: center; text-anchor: middle; fill: rgb(194, 188, 188);" d="m 535.42025,120.288 c 5.544,0 10.224,-1.944 14.112,-5.832 3.888,-3.888 5.904,-8.568 5.904,-14.112 0,-5.544 -2.016,-10.224 -5.904,-14.112 -3.888,-3.888 -8.568,-5.904 -14.112,-5.904 -5.544,0 -10.224,2.016 -14.112,5.904 -3.888,3.888 -5.832,8.568 -5.832,14.112 0,5.544 1.944,10.224 5.832,14.112 3.888,3.888 8.568,5.832 14.112,5.832 z m 0,-33.048 c 3.6,0 6.696,1.296 9.288,3.816 2.52,2.592 3.816,5.688 3.816,9.288 0,3.6 -1.296,6.696 -3.816,9.216 -2.592,2.592 -5.688,3.816 -9.288,3.816 -3.6,0 -6.696,-1.224 -9.216,-3.816 -2.592,-2.52 -3.816,-5.616 -3.816,-9.216 0,-3.6 1.224,-6.696 3.816,-9.288 2.52,-2.52 5.616,-3.816 9.216,-3.816 z" transform="translate(0 210.7826303886477) translate(517.063499517907 149.73658696845854) scale(2.025602367399394) translate(-515.47625 -80.328)"></path> 
   <path id="path36442" style="font-style: normal; font-weight: 700; font-size: 72px; line-height: 1; font-family: &quot;Comfortaa Bold Alt2&quot;; font-variant-ligatures: none; text-align: center; text-anchor: middle; fill: rgb(255, 255, 255);" d="m 584.0765,120.288 c 5.544,0 10.224,-1.944 14.112,-5.832 3.888,-3.888 5.904,-8.568 5.904,-14.112 0,-5.544 -2.016,-10.224 -5.904,-14.112 -3.888,-3.888 -8.568,-5.904 -14.112,-5.904 -5.544,0 -10.224,2.016 -14.112,5.904 -3.888,3.888 -5.832,8.568 -5.832,14.112 0,5.544 1.944,10.224 5.832,14.112 3.888,3.888 8.568,5.832 14.112,5.832 z m 0,-33.048 c 3.6,0 6.696,1.296 9.288,3.816 2.52,2.592 3.816,5.688 3.816,9.288 0,3.6 -1.296,6.696 -3.816,9.216 -2.592,2.592 -5.688,3.816 -9.288,3.816 -3.6,0 -6.696,-1.224 -9.216,-3.816 -2.592,-2.52 -3.816,-5.616 -3.816,-9.216 0,-3.6 1.224,-6.696 3.816,-9.288 2.52,-2.52 5.616,-3.816 9.216,-3.816 z" transform="translate(0 210.7826303886477) translate(615.6217147066837 149.73658696845854) scale(2.025602367399394) translate(-564.1325 -80.328)"></path> 
   <path id="path36444" style="font-style: normal; font-weight: 700; font-size: 72px; line-height: 1; font-family: &quot;Comfortaa Bold Alt2&quot;; font-variant-ligatures: none; text-align: center; text-anchor: middle; fill: rgb(255, 255, 255);" d="m 607.56538,70.104 c 0.72,0.72 1.58399,1.008 2.66399,1.008 h 21.88801 l -20.664,42.912 c -0.432,0.864 -0.648,1.656 -0.648,2.304 0,1.008 0.36,1.872 1.07999,2.592 0.72,0.72 1.512,1.08 2.52001,1.08 0.64799,0 1.29599,-0.144 1.94399,-0.504 0.57601,-0.36 1.08001,-0.864 1.44,-1.512 l 23.04001,-48.6 c 0.288,-0.72 0.504,-1.368 0.504,-1.944 0,-1.008 -0.36,-1.872 -1.08001,-2.592 -0.72,-0.72 -1.584,-1.08 -2.59199,-1.08 h -27.43201 c -1.08,0 -1.94399,0.36 -2.66399,1.08 -0.72001,0.72 -1.00801,1.584 -1.00801,2.592 0,1.08 0.288,1.944 1.00801,2.664 z" transform="translate(0 210.7826303886477) translate(701.5576318152952 116.19261176432457) scale(2.025602367399394) translate(-606.55737 -63.768)"></path> 
  </g> 
  <g id="tagline" style="font-style:normal;font-weight:500;font-size:32px;line-height:1;font-family:Raleway;font-variant-ligatures:none;text-align:center;text-anchor:middle"></g> 
 </g> 
</svg>