<svg xmlns:dc="http://purl.org/dc/elements/1.1/" xmlns:cc="http://creativecommons.org/ns#" xmlns:rdf="http://www.w3.org/1999/02/22-rdf-syntax-ns#" xmlns:svg="http://www.w3.org/2000/svg" xmlns="http://www.w3.org/2000/svg" id="svg112399" viewbox="0 0 1024 768" height="768px" width="1024px" version="1.1"> <metadata id="metadata112405"> 
  <rdf:rdf> 
   <cc:work rdf:about=""> 
    <dc:format>
     image/svg+xml
    </dc:format> 
    <dc:type rdf:resource="http://purl.org/dc/dcmitype/StillImage"></dc:type> 
   </cc:work> 
  </rdf:rdf> 
 </metadata> <defs id="defs112403"></defs> <g id="logo-group"> 
  <g id="title" style="font-style:normal;font-weight:700;font-size:72px;line-height:1;font-family:Jura;font-variant-ligatures:none;text-align:center;text-anchor:middle" aria-label="Greeneartho7"> 
   <path id="path112407" style="font-style: normal; font-weight: 700; font-size: 72px; line-height: 1; font-family: Jura; font-variant-ligatures: none; text-align: center; text-anchor: middle; fill: rgb(0, 144, 217);" d="m 282.09894,120 q -8.28,0 -12.24,-3.888 -3.888,-3.96 -3.888,-12.24 v -16.56 q 0,-8.28 3.888,-12.24 3.96,-3.96 12.168,-3.888 h 8.712 q 6.768,0 10.296,2.808 3.6,2.808 4.176,8.784 0.216,1.512 -0.576,2.304 -0.792,0.792 -2.304,0.792 -1.44,0 -2.232,-0.72 -0.72,-0.792 -0.936,-2.304 -0.36,-3.24 -2.232,-4.392 -1.872,-1.224 -6.192,-1.224 h -8.712 q -3.888,-0.072 -6.048,0.864 -2.16,0.936 -3.096,3.096 -0.864,2.16 -0.864,6.12 v 16.56 q 0,3.96 0.936,6.12 0.936,2.088 3.024,3.024 2.16,0.936 6.12,0.936 h 8.64 q 3.456,0 5.256,-0.72 1.872,-0.792 2.592,-2.592 0.792,-1.872 0.792,-5.328 v -3.384 l -5.616,-0.072 q -3.024,0 -3.024,-3.024 0,-1.44 0.792,-2.232 0.792,-0.792 2.232,-0.792 l 8.64,0.072 q 1.44,0 2.232,0.792 0.792,0.792 0.792,2.232 v 6.408 q 0,7.632 -3.6,11.16 -3.528,3.528 -11.088,3.528 z" transform="translate(0 310.0251849365046) translate(252.00000000000006 50.841066648027436) scale(0.9855351489973735) translate(-265.97094 -71.182714)"></path> 
   <path id="path112409" style="font-style: normal; font-weight: 700; font-size: 72px; line-height: 1; font-family: Jura; font-variant-ligatures: none; text-align: center; text-anchor: middle; fill: rgb(0, 144, 217);" d="m 336.91006,83.496 q 1.44,0 2.232,0.792 0.792,0.792 0.792,2.232 0,1.44 -0.792,2.232 -0.792,0.792 -2.232,0.792 -6.12,0 -9.504,2.304 -3.312,2.232 -3.456,6.12 v 19.008 q 0,1.44 -0.792,2.232 -0.792,0.792 -2.232,0.792 -1.44,0 -2.232,-0.792 -0.792,-0.792 -0.792,-2.232 V 86.52 q 0,-3.024 3.024,-3.024 3.024,0 3.024,3.024 v 2.808 q 4.392,-5.832 12.96,-5.832 z" transform="translate(0 310.0251849365046) translate(306.1365495337927 62.97624280068469) scale(0.9855351489973735) translate(-317.90206 -83.496)"></path> 
   <path id="path112411" style="font-style: normal; font-weight: 700; font-size: 72px; line-height: 1; font-family: Jura; font-variant-ligatures: none; text-align: center; text-anchor: middle; fill: rgb(0, 144, 217);" d="m 351.61269,104.232 v 1.728 q 0,3.168 0.72,4.896 0.72,1.656 2.448,2.376 1.728,0.72 4.896,0.72 h 5.904 q 3.672,0 5.4,-0.648 1.8,-0.72 2.376,-2.448 0.432,-1.44 1.152,-2.088 0.72,-0.72 2.088,-0.72 1.368,0 2.088,0.648 0.792,0.576 0.792,1.728 0,0.504 -0.072,0.72 -1.584,8.856 -13.824,8.856 h -5.904 q -7.2,0 -10.656,-3.456 -3.456,-3.456 -3.456,-10.584 v -8.352 q 0,-7.272 3.456,-10.728 3.456,-3.456 10.656,-3.384 h 5.904 q 7.2,0 10.656,3.456 3.456,3.456 3.456,10.656 v 3.6 q 0,1.44 -0.792,2.232 -0.792,0.792 -2.232,0.792 z m 0,-6.048 h 22.032 v -0.576 q 0,-3.168 -0.72,-4.896 -0.72,-1.728 -2.448,-2.448 -1.728,-0.72 -4.896,-0.72 h -5.904 q -3.168,-0.072 -4.896,0.648 -1.728,0.72 -2.448,2.448 -0.72,1.728 -0.72,4.968 z" transform="translate(0 310.0251849365046) translate(336.355649159494 62.97479504955082) scale(0.9855351489973735) translate(-345.56469 -83.494531)"></path> 
   <path id="path112413" style="font-style: normal; font-weight: 700; font-size: 72px; line-height: 1; font-family: Jura; font-variant-ligatures: none; text-align: center; text-anchor: middle; fill: rgb(0, 144, 217);" d="m 397.31581,104.232 v 1.728 q 0,3.168 0.72,4.896 0.72,1.656 2.448,2.376 1.728,0.72 4.896,0.72 h 5.904 q 3.672,0 5.4,-0.648 1.8,-0.72 2.376,-2.448 0.432,-1.44 1.152,-2.088 0.72,-0.72 2.088,-0.72 1.368,0 2.088,0.648 0.792,0.576 0.792,1.728 0,0.504 -0.072,0.72 -1.584,8.856 -13.824,8.856 h -5.904 q -7.2,0 -10.656,-3.456 -3.456,-3.456 -3.456,-10.584 v -8.352 q 0,-7.272 3.456,-10.728 3.456,-3.456 10.656,-3.384 h 5.904 q 7.2,0 10.656,3.456 3.456,3.456 3.456,10.656 v 3.6 q 0,1.44 -0.792,2.232 -0.792,0.792 -2.232,0.792 z m 0,-6.048 h 22.032 v -0.576 q 0,-3.168 -0.72,-4.896 -0.72,-1.728 -2.448,-2.448 -1.728,-0.72 -4.896,-0.72 h -5.904 q -3.168,-0.072 -4.896,0.648 -1.728,0.72 -2.448,2.448 -0.72,1.728 -0.72,4.968 z" transform="translate(0 310.0251849365046) translate(384.354285785331 62.97479504955082) scale(0.9855351489973735) translate(-391.26781 -83.494531)"></path> 
   <path id="path112415" style="font-style: normal; font-weight: 700; font-size: 72px; line-height: 1; font-family: Jura; font-variant-ligatures: none; text-align: center; text-anchor: middle; fill: rgb(0, 144, 217);" d="m 457.99494,83.496 q 7.2,0 10.656,3.456 3.456,3.456 3.456,10.656 v 19.368 q 0,1.44 -0.792,2.232 -0.792,0.792 -2.232,0.792 -1.44,0 -2.232,-0.792 -0.792,-0.792 -0.792,-2.232 V 97.608 q 0,-3.168 -0.72,-4.896 -0.72,-1.728 -2.448,-2.448 -1.728,-0.72 -4.896,-0.72 h -2.016 q -4.536,0 -7.704,1.08 -3.096,1.008 -3.528,3.024 v 23.328 q 0,1.44 -0.792,2.232 -0.792,0.792 -2.232,0.792 -1.44,0 -2.232,-0.792 -0.792,-0.792 -0.792,-2.232 V 86.52 q 0,-3.024 3.024,-3.024 3.024,0 3.024,3.024 v 1.224 q 3.816,-4.248 11.232,-4.248 z" transform="translate(0 310.0251849365046) translate(434.0559370039869 62.97624280068469) scale(0.9855351489973735) translate(-438.69894 -83.496)"></path> 
   <path id="path112417" style="font-style: normal; font-weight: 700; font-size: 72px; line-height: 1; font-family: Jura; font-variant-ligatures: none; text-align: center; text-anchor: middle; fill: rgb(0, 144, 217);" d="m 490.69081,104.232 v 1.728 q 0,3.168 0.72,4.896 0.72,1.656 2.448,2.376 1.728,0.72 4.896,0.72 h 5.904 q 3.672,0 5.4,-0.648 1.8,-0.72 2.376,-2.448 0.432,-1.44 1.152,-2.088 0.72,-0.72 2.088,-0.72 1.368,0 2.088,0.648 0.792,0.576 0.792,1.728 0,0.504 -0.072,0.72 -1.584,8.856 -13.824,8.856 h -5.904 q -7.2,0 -10.656,-3.456 -3.456,-3.456 -3.456,-10.584 v -8.352 q 0,-7.272 3.456,-10.728 3.456,-3.456 10.656,-3.384 h 5.904 q 7.2,0 10.656,3.456 3.456,3.456 3.456,10.656 v 3.6 q 0,1.44 -0.792,2.232 -0.792,0.792 -2.232,0.792 z m 0,-6.048 h 22.032 v -0.576 q 0,-3.168 -0.72,-4.896 -0.72,-1.728 -2.448,-2.448 -1.728,-0.72 -4.896,-0.72 h -5.904 q -3.168,-0.072 -4.896,0.648 -1.728,0.72 -2.448,2.448 -0.72,1.728 -0.72,4.968 z" transform="translate(0 310.0251849365046) translate(482.291841216945 62.97479504955082) scale(0.9855351489973735) translate(-484.64281 -83.494531)"></path> 
   <path id="path112419" style="font-style: normal; font-weight: 700; font-size: 72px; line-height: 1; font-family: Jura; font-variant-ligatures: none; text-align: center; text-anchor: middle; fill: rgb(0, 144, 217);" d="m 549.78594,83.496 q 7.2,0 10.656,3.456 3.456,3.456 3.456,10.656 v 19.368 q 0,1.44 -0.792,2.232 -0.792,0.792 -2.232,0.792 -1.44,0 -2.232,-0.792 -0.792,-0.792 -0.792,-2.232 v -1.656 q -3.816,4.68 -11.232,4.68 h -4.032 q -6.048,0 -9,-2.952 -2.952,-2.952 -2.952,-9 0,-6.048 2.88,-9 2.952,-2.952 9.072,-2.952 h 15.192 q -0.216,-3.744 -1.944,-5.112 -1.728,-1.44 -6.048,-1.44 h -4.176 q -3.6,0 -5.4,0.504 -1.728,0.504 -2.448,1.728 -0.648,1.512 -1.368,2.088 -0.72,0.576 -2.016,0.576 -1.296,0 -2.16,-0.648 -0.792,-0.648 -0.792,-1.728 0,-0.432 0.072,-0.72 1.08,-4.032 4.464,-5.904 3.456,-1.944 9.648,-1.944 z m 7.704,25.488 q 0.072,-0.216 0.144,-0.432 0.072,-0.288 0.216,-0.576 v -5.832 h -15.264 q -2.448,0 -3.672,0.504 -1.224,0.504 -1.728,1.728 -0.504,1.224 -0.504,3.672 0,2.448 0.504,3.672 0.504,1.224 1.728,1.728 1.224,0.504 3.672,0.504 h 4.032 q 9.144,0 10.872,-4.968 z" transform="translate(0 310.0251849365046) translate(530.5743218210447 62.97624280068469) scale(0.9855351489973735) translate(-530.63394 -83.496)"></path> 
   <path id="path112421" style="font-style: normal; font-weight: 700; font-size: 72px; line-height: 1; font-family: Jura; font-variant-ligatures: none; text-align: center; text-anchor: middle; fill: rgb(0, 144, 217);" d="m 597.20694,83.496 q 1.44,0 2.232,0.792 0.792,0.792 0.792,2.232 0,1.44 -0.792,2.232 -0.792,0.792 -2.232,0.792 -6.12,0 -9.504,2.304 -3.312,2.232 -3.456,6.12 v 19.008 q 0,1.44 -0.792,2.232 -0.792,0.792 -2.232,0.792 -1.44,0 -2.232,-0.792 -0.792,-0.792 -0.792,-2.232 V 86.52 q 0,-3.024 3.024,-3.024 3.024,0 3.024,3.024 v 2.808 q 4.392,-5.832 12.96,-5.832 z" transform="translate(0 310.0251849365046) translate(580.4079066300968 62.97624280068469) scale(0.9855351489973735) translate(-578.19894 -83.496)"></path> 
   <path id="path112423" style="font-style: normal; font-weight: 700; font-size: 72px; line-height: 1; font-family: Jura; font-variant-ligatures: none; text-align: center; text-anchor: middle; fill: rgb(0, 144, 217);" d="m 624.40381,113.952 q 3.024,0 3.024,3.024 0,1.44 -0.792,2.232 -0.792,0.792 -2.232,0.792 -7.128,0 -10.512,-3.384 -3.384,-3.384 -3.384,-10.44 V 89.544 h -3.528 q -1.44,0 -2.232,-0.792 -0.792,-0.792 -0.792,-2.232 0,-3.024 3.024,-3.024 h 3.528 V 78.24 q 0,-1.44 0.792,-2.232 0.792,-0.792 2.232,-0.792 1.44,0 2.232,0.792 0.792,0.792 0.792,2.232 v 5.256 h 8.28 q 3.024,0 3.024,3.024 0,1.44 -0.792,2.232 -0.792,0.792 -2.232,0.792 h -8.28 v 16.632 q 0,3.096 0.72,4.752 0.72,1.656 2.376,2.376 1.656,0.648 4.752,0.648 z" transform="translate(0 310.0251849365046) translate(608.748812790245 54.816011766986435) scale(0.9855351489973735) translate(-603.95581 -75.216)"></path> 
   <path id="path112425" style="font-style: normal; font-weight: 700; font-size: 72px; line-height: 1; font-family: Jura; font-variant-ligatures: none; text-align: center; text-anchor: middle; fill: rgb(0, 144, 217);" d="m 658.88619,83.496 q 7.2,0 10.656,3.456 3.456,3.456 3.456,10.656 v 19.368 q 0,1.44 -0.792,2.232 -0.792,0.792 -2.232,0.792 -1.44,0 -2.232,-0.792 -0.792,-0.792 -0.792,-2.232 V 97.608 q 0,-3.168 -0.72,-4.896 -0.72,-1.728 -2.448,-2.448 -1.728,-0.72 -4.896,-0.72 h -2.016 q -4.752,0 -7.416,1.224 -2.664,1.224 -3.456,3.744 -0.072,0.36 -0.36,1.08 v 21.384 q 0,1.44 -0.792,2.232 -0.792,0.792 -2.232,0.792 -1.44,0 -2.232,-0.792 -0.792,-0.792 -0.792,-2.232 v -20.88 q -0.36,-0.576 -0.36,-1.224 0,-0.432 0.072,-0.648 0.144,-0.72 0.288,-1.152 V 72.336 q 0,-1.44 0.792,-2.232 0.792,-0.792 2.232,-0.792 1.44,0 2.232,0.792 0.792,0.792 0.792,2.232 V 85.8 q 4.392,-2.304 11.232,-2.304 z" transform="translate(0 310.0251849365046) translate(646.469559586327 48.997412247305945) scale(0.9855351489973735) translate(-639.23019 -69.312)"></path> 
   <path id="path112427" style="font-style: normal; font-weight: 700; font-size: 72px; line-height: 1; font-family: Jura; font-variant-ligatures: none; text-align: center; text-anchor: middle; fill: rgb(255, 208, 0);" d="m 699.70794,120 q -7.2,0 -10.656,-3.456 -3.456,-3.456 -3.456,-10.584 v -8.352 q 0,-7.2 3.456,-10.656 3.456,-3.456 10.656,-3.456 h 5.904 q 7.2,0 10.656,3.456 3.456,3.456 3.456,10.656 v 8.28 q 0,7.2 -3.456,10.656 -3.456,3.456 -10.656,3.456 z m 5.904,-6.048 q 3.168,0 4.896,-0.72 1.728,-0.72 2.448,-2.448 0.72,-1.728 0.72,-4.896 v -8.28 q 0,-3.168 -0.72,-4.896 -0.72,-1.728 -2.448,-2.448 -1.728,-0.72 -4.896,-0.72 h -5.904 q -3.24,0 -4.968,0.72 -1.656,0.72 -2.376,2.448 -0.72,1.656 -0.72,4.896 v 8.352 q 0,3.168 0.72,4.896 0.72,1.656 2.448,2.376 1.728,0.72 4.896,0.72 z" transform="translate(0 310.0251849365046) translate(695.1212413679442 62.97624280068469) scale(0.9855351489973735) translate(-685.59594 -83.496)"></path> 
   <path id="path112429" style="font-style: normal; font-weight: 700; font-size: 72px; line-height: 1; font-family: Jura; font-variant-ligatures: none; text-align: center; text-anchor: middle; fill: rgb(255, 208, 0);" d="m 739.65106,120 q -1.44,0 -2.232,-0.792 -0.792,-0.792 -0.72,-2.376 0.144,-7.416 1.224,-11.952 1.08,-4.536 3.312,-7.56 2.232,-3.024 6.336,-5.904 3.312,-2.592 4.968,-5.904 1.656,-3.384 1.944,-8.28 h -22.752 q -1.44,0 -2.232,-0.792 -0.792,-0.792 -0.792,-2.232 0,-1.44 0.792,-2.232 0.792,-0.792 2.232,-0.792 h 25.848 q 1.44,0 2.232,0.792 0.792,0.792 0.792,2.232 0,7.704 -2.304,13.032 -2.232,5.328 -7.2,9.072 -3.312,2.304 -5.04,4.68 -1.656,2.376 -2.448,6.048 -0.72,3.6 -0.864,9.792 -0.144,3.168 -3.096,3.168 z" transform="translate(0 310.0251849365046) translate(740.5653708875799 50.84233404622904) scale(0.9855351489973735) translate(-728.70706 -71.184)"></path> 
  </g> 
  <g id="tagline" style="font-style:normal;font-weight:500;font-size:32px;line-height:1;font-family:Roboto;font-variant-ligatures:none;text-align:center;text-anchor:middle"></g> 
 </g> 
</svg>