<svg xmlns:dc="http://purl.org/dc/elements/1.1/" xmlns:cc="http://creativecommons.org/ns#" xmlns:rdf="http://www.w3.org/1999/02/22-rdf-syntax-ns#" xmlns:svg="http://www.w3.org/2000/svg" xmlns="http://www.w3.org/2000/svg" id="svg18930" viewbox="0 0 1024 768" height="768px" width="1024px" version="1.1"> <metadata id="metadata18936"> 
  <rdf:rdf> 
   <cc:work rdf:about=""> 
    <dc:format>
     image/svg+xml
    </dc:format> 
    <dc:type rdf:resource="http://purl.org/dc/dcmitype/StillImage"></dc:type> 
   </cc:work> 
  </rdf:rdf> 
 </metadata> <defs id="defs18934"></defs> <g id="logo-group"> 
  <g id="title" style="font-style:normal;font-weight:700;font-size:72px;line-height:1;font-family:'Brandmark1 Bold';font-variant-ligatures:none;text-align:center;text-anchor:middle" aria-label="greenpointo7"> 
   <path id="path18938" style="font-style: normal; font-weight: 700; font-size: 72px; line-height: 1; font-family: &quot;Brandmark1 Bold&quot;; font-variant-ligatures: none; text-align: center; text-anchor: middle; fill: rgb(50, 65, 255);" d="m 329.37313,87.888 c -3.81601,-3.816 -8.928,-5.904 -14.25601,-5.904 -5.4,0 -10.512,2.088 -14.32799,5.904 -3.81601,3.816 -5.904,8.856 -5.904,14.256 0,5.4 2.08799,10.44 5.904,14.256 3.81599,3.816 8.92799,5.904 14.32799,5.904 3.168,0 6.264,-0.72 9,-2.088 -1.08,3.96 -4.752,6.84 -9,6.84 -2.448,0 -4.752,-0.936 -6.47999,-2.592 l -7.488,7.848 c 3.81599,3.6 8.712,5.544 13.89599,5.544 5.40001,0 10.512,-2.088 14.32801,-5.904 3.81599,-3.816 5.90399,-8.856 5.90399,-14.256 v -15.552 c 0,-5.4 -2.088,-10.44 -5.90399,-14.256 z m -14.25601,23.616 c -5.18399,0 -9.432,-4.176 -9.432,-9.36 0,-5.184 4.24801,-9.432 9.432,-9.432 5.18401,0 9.36,4.248 9.36,9.432 0,5.184 -4.248,9.36 -9.36,9.36 z" transform="translate(0 316.236) translate(239.35130416666664 50.30399999999999) scale(0.8333333333333334) translate(-294.88513 -81.984)"></path> 
   <path id="path18940" style="font-style: normal; font-weight: 700; font-size: 72px; line-height: 1; font-family: &quot;Brandmark1 Bold&quot;; font-variant-ligatures: none; text-align: center; text-anchor: middle; fill: rgb(50, 65, 255);" d="m 351.377,122.52 v 0 -17.712 c 0,-6.912 5.616,-12.6 12.6,-12.6 v -10.8 c -3.168,0 -6.264,0.648 -9.144,1.872 -2.736,1.152 -5.256,2.88 -7.416,5.04 -2.16,2.088 -3.816,4.608 -5.04,7.416 -1.224,2.88 -1.8,5.904 -1.8,9.072 v 17.712 z" transform="translate(0 316.236) translate(294.0945291666666 49.824) scale(0.8333333333333334) translate(-340.577 -81.408)"></path> 
   <path id="path18942" style="font-style: normal; font-weight: 700; font-size: 72px; line-height: 1; font-family: &quot;Brandmark1 Bold&quot;; font-variant-ligatures: none; text-align: center; text-anchor: middle; fill: rgb(50, 65, 255);" d="m 381.96913,122.808 c 2.80799,0 5.54399,-0.576 8.13599,-1.728 2.52001,-1.08 4.752,-2.664 6.624,-4.608 l -7.632,-7.2 c -1.872,2.016 -4.392,3.096 -7.12799,3.096 -3.52801,0 -6.62401,-1.872 -8.35201,-4.608 h 28.584 v -5.256 c 0,-5.4 -2.08799,-10.512 -5.904,-14.328 -3.81599,-3.816 -8.928,-5.976 -14.32799,-5.976 -5.47201,0 -10.512,2.16 -14.40001,5.976 -3.816,3.816 -5.904,8.928 -5.904,14.328 0,5.4 2.088,10.512 5.904,14.328 3.88801,3.816 8.928,5.976 14.40001,5.976 z M 373.61712,97.32 c 1.728,-2.808 4.824,-4.68 8.35201,-4.68 3.45599,0 6.55199,1.872 8.35199,4.68 z" transform="translate(0 316.236) translate(328.3346291666666 50.483999999999995) scale(0.8333333333333334) translate(-361.66512 -82.2)"></path> 
   <path id="path18944" style="font-style: normal; font-weight: 700; font-size: 72px; line-height: 1; font-family: &quot;Brandmark1 Bold&quot;; font-variant-ligatures: none; text-align: center; text-anchor: middle; fill: rgb(50, 65, 255);" d="m 421.766,122.808 c 2.808,0 5.544,-0.576 8.136,-1.728 2.52,-1.08 4.752,-2.664 6.624,-4.608 l -7.632,-7.2 c -1.872,2.016 -4.392,3.096 -7.128,3.096 -3.528,0 -6.624,-1.872 -8.352,-4.608 h 28.584 v -5.256 c 0,-5.4 -2.088,-10.512 -5.904,-14.328 -3.816,-3.816 -8.928,-5.976 -14.328,-5.976 -5.472,0 -10.512,2.16 -14.4,5.976 -3.816,3.816 -5.904,8.928 -5.904,14.328 0,5.4 2.088,10.512 5.904,14.328 3.888,3.816 8.928,5.976 14.4,5.976 z M 413.414,97.32 c 1.728,-2.808 4.824,-4.68 8.352,-4.68 3.456,0 6.552,1.872 8.352,4.68 z" transform="translate(0 316.236) translate(378.16536249999996 50.483999999999995) scale(0.8333333333333334) translate(-401.462 -82.2)"></path> 
   <path id="path18946" style="font-style: normal; font-weight: 700; font-size: 72px; line-height: 1; font-family: &quot;Brandmark1 Bold&quot;; font-variant-ligatures: none; text-align: center; text-anchor: middle; fill: rgb(50, 65, 255);" d="m 475.45887,88.392 c -3.45599,-3.384 -7.99199,-5.256 -12.816,-5.256 -2.59199,0 -5.04,0.504 -7.272,1.512 v -2.664 h -10.8 v 17.64 c -0.072,0.576 -0.072,1.08 -0.072,1.656 h 0.072 v 21.24 h 10.8 V 100.2 c 0.504,-3.528 3.528,-6.264 7.272,-6.264 4.032,0 7.344,3.312 7.344,7.344 v 21.24 h 10.8 v -21.24 c 0,-4.896 -1.944,-9.432 -5.328,-12.888 z" transform="translate(0 316.236) translate(430.6960875 50.30399999999999) scale(0.8333333333333334) translate(-444.49887 -81.984)"></path> 
   <path id="path18948" style="font-style: normal; font-weight: 700; font-size: 72px; line-height: 1; font-family: &quot;Brandmark1 Bold&quot;; font-variant-ligatures: none; text-align: center; text-anchor: middle; fill: rgb(50, 65, 255);" d="m 525.15125,94.584 c -1.08,-2.448 -2.52,-4.608 -4.392,-6.552 -1.944,-1.872 -4.104,-3.312 -6.552,-4.392 -2.52,-1.08 -5.184,-1.584 -7.992,-1.584 -2.736,0 -5.472,0.504 -7.992,1.584 -2.448,1.08 -4.608,2.52 -6.552,4.392 -1.872,1.872 -3.312,4.104 -4.392,6.552 -1.008,2.52 -1.584,5.184 -1.584,7.992 v 30.6 l 10.8,3.6 v -16.128 c 0.576,0.288 1.152,0.576 1.728,0.792 2.52,1.08 5.256,1.656 7.992,1.656 2.736,0 5.472,-0.576 7.992,-1.656 2.448,-1.008 4.608,-2.448 6.552,-4.392 1.872,-1.872 3.312,-4.032 4.392,-6.48 1.08,-2.52 1.584,-5.256 1.584,-7.992 0,-2.808 -0.504,-5.472 -1.584,-7.992 z m -18.936,17.712 c -5.328,0 -9.72,-4.392 -9.72,-9.72 0,-5.328 4.392,-9.72 9.72,-9.72 5.328,0 9.72,4.392 9.72,9.72 0,5.328 -4.392,9.72 -9.72,9.72 z" transform="translate(0 316.236) translate(481.6930708333333 50.36399999999999) scale(0.8333333333333334) translate(-485.69525 -82.056)"></path> 
   <path id="path18950" style="font-style: normal; font-weight: 700; font-size: 72px; line-height: 1; font-family: &quot;Brandmark1 Bold&quot;; font-variant-ligatures: none; text-align: center; text-anchor: middle; fill: rgb(50, 65, 255);" d="m 548.4995,123.024 c 2.736,0 5.472,-0.576 7.992,-1.584 2.448,-1.08 4.68,-2.52 6.552,-4.392 1.872,-1.944 3.312,-4.104 4.392,-6.552 1.08,-2.52 1.584,-5.256 1.584,-7.992 0,-2.808 -0.504,-5.472 -1.584,-7.992 -1.08,-2.448 -2.52,-4.68 -4.392,-6.552 -1.944,-1.872 -4.104,-3.312 -6.552,-4.392 -2.52,-1.08 -5.256,-1.584 -7.992,-1.584 -2.736,0 -5.472,0.504 -7.992,1.584 -2.448,1.08 -4.608,2.52 -6.552,4.392 -1.872,1.944 -3.312,4.104 -4.392,6.552 -1.008,2.52 -1.584,5.184 -1.584,7.992 0,2.736 0.576,5.472 1.584,7.992 1.08,2.448 2.52,4.608 4.392,6.552 1.944,1.872 4.104,3.312 6.552,4.392 2.52,1.008 5.256,1.584 7.992,1.584 z m 0,-30.24 c 5.328,0 9.72,4.392 9.72,9.72 0,5.328 -4.392,9.72 -9.72,9.72 -5.328,0 -9.72,-4.392 -9.72,-9.72 0,-5.328 4.392,-9.72 9.72,-9.72 z" transform="translate(0 316.236) translate(533.5966125000001 50.30399999999999) scale(0.8333333333333334) translate(-527.9795 -81.984)"></path> 
   <path id="path18952" style="font-style: normal; font-weight: 700; font-size: 72px; line-height: 1; font-family: &quot;Brandmark1 Bold&quot;; font-variant-ligatures: none; text-align: center; text-anchor: middle; fill: rgb(50, 65, 255);" d="m 573.3215,122.52 h 10.872 V 80.976 l -10.872,3.6 z" transform="translate(0 316.236) translate(588.0482791666668 49.464) scale(0.8333333333333334) translate(-573.3215 -80.976)"></path> 
   <path id="path18954" style="font-style: normal; font-weight: 700; font-size: 72px; line-height: 1; font-family: &quot;Brandmark1 Bold&quot;; font-variant-ligatures: none; text-align: center; text-anchor: middle; fill: rgb(50, 65, 255);" d="m 621.42763,88.392 c -3.456,-3.384 -7.99201,-5.256 -12.81601,-5.256 -2.59199,0 -5.03999,0.504 -7.272,1.512 v -2.664 h -10.8 v 17.64 c -0.072,0.576 -0.072,1.08 -0.072,1.656 h 0.072 v 21.24 h 10.8 V 100.2 c 0.504,-3.528 3.528,-6.264 7.272,-6.264 4.03201,0 7.34401,3.312 7.34401,7.344 v 21.24 h 10.79999 v -21.24 c 0,-4.896 -1.94399,-9.432 -5.32799,-12.888 z" transform="translate(0 316.236) translate(619.0033791666668 50.30399999999999) scale(0.8333333333333334) translate(-590.46762 -81.984)"></path> 
   <path id="path18956" style="font-style: normal; font-weight: 700; font-size: 72px; line-height: 1; font-family: &quot;Brandmark1 Bold&quot;; font-variant-ligatures: none; text-align: center; text-anchor: middle; fill: rgb(50, 65, 255);" d="M 654.992,92.496 V 82.416 H 643.544 V 69.528 l -10.8,3.6 v 27.936 c 0,3.024 0.576,5.904 1.728,8.64 1.08,2.664 2.736,5.04 4.752,7.056 2.016,2.088 4.392,3.672 7.056,4.824 2.736,1.152 5.688,1.728 8.712,1.728 v -10.8 c -6.336,0 -11.448,-5.112 -11.448,-11.448 v -8.568 z" transform="translate(0 316.236) translate(670.9003625000001 39.92399999999999) scale(0.8333333333333334) translate(-632.744 -69.528)"></path> 
   <path id="path18958" style="font-style: normal; font-weight: 700; font-size: 72px; line-height: 1; font-family: &quot;Brandmark1 Bold&quot;; font-variant-ligatures: none; text-align: center; text-anchor: middle; fill: rgb(86, 86, 86);" d="m 674.64012,123.024 c 2.736,0 5.472,-0.576 7.992,-1.584 2.448,-1.08 4.68001,-2.52 6.552,-4.392 1.872,-1.944 3.312,-4.104 4.39201,-6.552 1.07999,-2.52 1.58399,-5.256 1.58399,-7.992 0,-2.808 -0.504,-5.472 -1.58399,-7.992 -1.08001,-2.448 -2.52001,-4.68 -4.39201,-6.552 -1.94399,-1.872 -4.104,-3.312 -6.552,-4.392 -2.52,-1.08 -5.256,-1.584 -7.992,-1.584 -2.73599,0 -5.47199,0.504 -7.99199,1.584 -2.44801,1.08 -4.60801,2.52 -6.552,4.392 -1.87201,1.944 -3.312,4.104 -4.39201,6.552 -1.00799,2.52 -1.58399,5.184 -1.58399,7.992 0,2.736 0.576,5.472 1.58399,7.992 1.08001,2.448 2.52,4.608 4.39201,6.552 1.94399,1.872 4.10399,3.312 6.552,4.392 2.52,1.008 5.256,1.584 7.99199,1.584 z m 0,-30.24 c 5.328,0 9.72001,4.392 9.72001,9.72 0,5.328 -4.39201,9.72 -9.72001,9.72 -5.32799,0 -9.72,-4.392 -9.72,-9.72 0,-5.328 4.39201,-9.72 9.72,-9.72 z" transform="translate(0 316.236) translate(705.3804708333334 50.30399999999999) scale(0.8333333333333334) translate(-654.12013 -81.984)"></path> 
   <path id="path18960" style="font-style: normal; font-weight: 700; font-size: 72px; line-height: 1; font-family: &quot;Brandmark1 Bold&quot;; font-variant-ligatures: none; text-align: center; text-anchor: middle; fill: rgb(86, 86, 86);" d="m 697.49,121.512 11.16,2.232 20.592,-48.384 V 68.016 H 693.53 V 78.6 h 22.536 z" transform="translate(0 316.236) translate(754.8886958333334 38.664) scale(0.8333333333333334) translate(-693.53 -68.016)"></path> 
  </g> 
  <g id="tagline" style="font-style:normal;font-weight:400;font-size:32px;line-height:1;font-family:Montserrat;font-variant-ligatures:none;text-align:center;text-anchor:middle"></g> 
 </g> 
</svg>