<svg xmlns:dc="http://purl.org/dc/elements/1.1/" xmlns:cc="http://creativecommons.org/ns#" xmlns:rdf="http://www.w3.org/1999/02/22-rdf-syntax-ns#" xmlns:svg="http://www.w3.org/2000/svg" xmlns="http://www.w3.org/2000/svg" id="svg309685" viewbox="0 0 1024 768" height="768px" width="1024px" version="1.1"> <metadata id="metadata309691"> 
  <rdf:rdf> 
   <cc:work rdf:about=""> 
    <dc:format>
     image/svg+xml
    </dc:format> 
    <dc:type rdf:resource="http://purl.org/dc/dcmitype/StillImage"></dc:type> 
   </cc:work> 
  </rdf:rdf> 
 </metadata> <defs id="defs309689"></defs> <g id="logo-group"> 
  <g id="title" style="font-style:normal;font-weight:500;font-size:72px;line-height:1;font-family:'Raleway Medium Alt1';font-variant-ligatures:none;text-align:center;text-anchor:middle" aria-label="HANDMADEO7"> 
   <path id="path309693" style="font-style: normal; font-weight: 500; font-size: 72px; line-height: 1; font-family: &quot;Raleway Medium Alt1&quot;; font-variant-ligatures: none; text-align: center; text-anchor: middle; fill: rgb(255, 255, 255);" d="m 264.4325,120 h 6.48 V 68.88 h -6.48 z m 34.632,-51.12 v 22.104 h -22.392 v 5.76 h 22.392 V 120 h 6.48 V 68.88 Z" transform="translate(0 299.93081921906276) translate(251.9999999999999 52.978530558836795) scale(1.0380158327357258) translate(-264.4325 -68.88)"></path> 
   <path id="path309695" style="font-style: normal; font-weight: 500; font-size: 72px; line-height: 1; font-family: &quot;Raleway Medium Alt1&quot;; font-variant-ligatures: none; text-align: center; text-anchor: middle; fill: rgb(255, 255, 255);" d="m 341.56137,75.864 -2.808,7.632 6.48001,16.488 h -12.81601 l -1.944,5.04 h 16.20001 l 6.048,14.976 h 6.91199 z m -2.808,-6.984 h -5.47199 l -20.952,51.12 h 6.62399 l 17.06401,-43.632 z" transform="translate(0 299.93081921906276) translate(301.717719778643 52.978530558836795) scale(1.0380158327357258) translate(-312.32938 -68.88)"></path> 
   <path id="path309697" style="font-style: normal; font-weight: 500; font-size: 72px; line-height: 1; font-family: &quot;Raleway Medium Alt1&quot;; font-variant-ligatures: none; text-align: center; text-anchor: middle; fill: rgb(255, 255, 255);" d="m 366.52625,120 h 6.48 V 91.272 l -6.48,-8.424 z m 36.72,-51.048 v 39.744 l -31.68,-39.816 h -5.04 v 3.888 l 6.48,8.208 31.248,39.024 h 5.472 V 68.952 Z" transform="translate(0 299.93081921906276) translate(357.9749289233629 52.978530558836795) scale(1.0380158327357258) translate(-366.52625 -68.88)"></path> 
   <path id="path309699" style="font-style: normal; font-weight: 500; font-size: 72px; line-height: 1; font-family: &quot;Raleway Medium Alt1&quot;; font-variant-ligatures: none; text-align: center; text-anchor: middle; fill: rgb(255, 255, 255);" d="m 462.7565,84.504 c -1.008,-3.096 -2.592,-5.832 -4.608,-8.136 -2.088,-2.232 -4.68,-4.104 -7.776,-5.472 -3.096,-1.296 -6.696,-2.016 -10.728,-2.016 h -17.712 v 5.76 h 17.712 c 2.88,0 5.4,0.504 7.704,1.512 2.232,1.008 4.104,2.376 5.688,4.032 1.584,1.728 2.736,3.816 3.528,6.264 0.792,2.448 1.224,5.112 1.224,7.92 0,2.88 -0.432,5.472 -1.224,7.92 -0.792,2.448 -1.944,4.536 -3.456,6.264 -1.512,1.8 -3.384,3.24 -5.688,4.176 -2.304,1.008 -4.896,1.512 -7.776,1.512 h -11.232 V 81.48 h -6.48 V 120 h 17.712 c 3.744,0 7.128,-0.576 10.152,-1.8 3.024,-1.224 5.688,-2.952 7.848,-5.184 2.16,-2.232 3.816,-4.896 4.968,-8.064 1.152,-3.168 1.728,-6.696 1.728,-10.584 0,-3.456 -0.576,-6.768 -1.584,-9.864 z" transform="translate(0 299.93081921906276) translate(415.48749365587673 52.978530558836795) scale(1.0380158327357258) translate(-421.9325 -68.88)"></path> 
   <path id="path309701" style="font-style: normal; font-weight: 500; font-size: 72px; line-height: 1; font-family: &quot;Raleway Medium Alt1&quot;; font-variant-ligatures: none; text-align: center; text-anchor: middle; fill: rgb(255, 255, 255);" d="M 473.54187,68.88 V 120 h 6.48001 V 80.472 l 11.44799,20.448 3.45601,-5.904 -14.54401,-26.136 z m 43.92,0 -18.576,33.192 -3.384,5.904 1.584,2.808 h 3.67201 L 517.74987,80.472 V 120 h 6.48 V 68.88 Z" transform="translate(0 299.93081921906276) translate(469.05883683339295 52.978530558836795) scale(1.0380158327357258) translate(-473.54187 -68.88)"></path> 
   <path id="path309703" style="font-style: normal; font-weight: 500; font-size: 72px; line-height: 1; font-family: &quot;Raleway Medium Alt1&quot;; font-variant-ligatures: none; text-align: center; text-anchor: middle; fill: rgb(255, 255, 255);" d="m 560.23325,75.864 -2.808,7.632 6.48,16.488 h -12.816 l -1.944,5.04 h 16.2 l 6.048,14.976 h 6.912 z m -2.808,-6.984 h -5.472 l -20.952,51.12 h 6.624 l 17.064,-43.632 z" transform="translate(0 299.93081921906276) translate(528.7025830125715 52.978530558836795) scale(1.0380158327357258) translate(-531.00125 -68.88)"></path> 
   <path id="path309705" style="font-style: normal; font-weight: 500; font-size: 72px; line-height: 1; font-family: &quot;Raleway Medium Alt1&quot;; font-variant-ligatures: none; text-align: center; text-anchor: middle; fill: rgb(255, 255, 255);" d="m 626.02212,84.504 c -1.00799,-3.096 -2.592,-5.832 -4.60799,-8.136 -2.088,-2.232 -4.68001,-4.104 -7.77601,-5.472 -3.096,-1.296 -6.69599,-2.016 -10.728,-2.016 h -17.712 v 5.76 h 17.712 c 2.88,0 5.4,0.504 7.70401,1.512 2.232,1.008 4.10399,2.376 5.688,4.032 1.58399,1.728 2.736,3.816 3.52799,6.264 0.792,2.448 1.224,5.112 1.224,7.92 0,2.88 -0.432,5.472 -1.224,7.92 -0.79199,2.448 -1.944,4.536 -3.45599,6.264 -1.51201,1.8 -3.384,3.24 -5.68801,4.176 -2.304,1.008 -4.896,1.512 -7.776,1.512 H 591.67813 V 81.48 h -6.48001 V 120 h 17.712 c 3.74401,0 7.12801,-0.576 10.15201,-1.8 3.024,-1.224 5.688,-2.952 7.84799,-5.184 2.16,-2.232 3.81601,-4.896 4.968,-8.064 1.152,-3.168 1.72801,-6.696 1.72801,-10.584 0,-3.456 -0.57601,-6.768 -1.58401,-9.864 z" transform="translate(0 299.93081921906276) translate(584.9597921572913 52.978530558836795) scale(1.0380158327357258) translate(-585.19812 -68.88)"></path> 
   <path id="path309707" style="font-style: normal; font-weight: 500; font-size: 72px; line-height: 1; font-family: &quot;Raleway Medium Alt1&quot;; font-variant-ligatures: none; text-align: center; text-anchor: middle; fill: rgb(255, 255, 255);" d="m 643.2875,74.64 h 27.576 v -5.76 h -34.056 v 15.84 h 6.48 z m -6.48,39.6 V 120 h 34.704 v -5.76 z m 6.48,-17.64 h 23.976 v -5.4 h -30.456 v 16.56 h 6.48 z" transform="translate(0 299.93081921906276) translate(638.5311457149659 52.978530558836795) scale(1.0380158327357258) translate(-636.8075 -68.88)"></path> 
   <path id="path309709" style="font-style: normal; font-weight: 500; font-size: 72px; line-height: 1; font-family: &quot;Raleway Medium Alt1&quot;; font-variant-ligatures: none; text-align: center; text-anchor: middle; fill: rgb(126, 170, 215);" d="m 717.50487,97.248 c -0.216,1.512 -0.504,3.024 -1.00799,4.464 -0.792,2.448 -1.94401,4.608 -3.456,6.48 -1.51201,1.872 -3.384,3.456 -5.472,4.608 -2.23201,1.152 -4.68001,1.728 -7.34401,1.728 -2.664,0 -5.03999,-0.504 -7.2,-1.656 -2.16,-1.08 -4.03199,-2.592 -5.544,-4.464 -1.58399,-1.872 -2.736,-3.96 -3.6,-6.408 -0.50399,-1.512 -0.86399,-3.096 -1.07999,-4.752 h -6.55201 c 0.216,2.304 0.72001,4.608 1.584,6.768 1.08,3.168 2.73601,5.904 4.89601,8.352 2.08799,2.448 4.60799,4.392 7.55999,5.832 2.952,1.44 6.264,2.16 9.864,2.16 3.456,0 6.62401,-0.648 9.57601,-2.088 2.952,-1.44 5.47199,-3.312 7.63199,-5.688 2.16001,-2.376 3.816,-5.112 5.04001,-8.28 0.86399,-2.232 1.43999,-4.608 1.72799,-7.056 z m -33.624,-10.152 c 0.792,-2.376 1.94401,-4.464 3.456,-6.408 1.51201,-1.872 3.384,-3.384 5.54401,-4.536 2.16,-1.152 4.60799,-1.728 7.34399,-1.728 2.52,0 4.896,0.576 7.05601,1.656 2.15999,1.152 3.95999,2.592 5.544,4.464 1.58399,1.872 2.73599,3.96 3.6,6.408 0.43199,1.296 0.79199,2.664 1.00799,3.96 h 6.552 c -0.288,-1.944 -0.792,-3.96 -1.43999,-5.832 -1.15201,-3.096 -2.808,-5.832 -4.89601,-8.352 -2.16,-2.448 -4.67999,-4.392 -7.55999,-5.904 -2.952,-1.512 -6.264,-2.304 -9.79201,-2.304 -3.528,0 -6.696,0.72 -9.648,2.16 -2.952,1.44 -5.472,3.312 -7.63199,5.688 -2.16001,2.448 -3.88801,5.184 -5.11201,8.28 -0.79199,2.088 -1.368,4.176 -1.584,6.264 h 6.55201 c 0.216,-1.224 0.576,-2.52 1.00799,-3.816 z" transform="translate(0 299.93081921906276) translate(679.4719122397538 52.60484485905194) scale(1.0380158327357258) translate(-676.24887 -68.52)"></path> 
   <path id="path309711" style="font-style: normal; font-weight: 500; font-size: 72px; line-height: 1; font-family: &quot;Raleway Medium Alt1&quot;; font-variant-ligatures: none; text-align: center; text-anchor: middle; fill: rgb(126, 170, 215);" d="m 755.38025,83.856 -22.896,45.288 h 7.2 l 25.704,-51.12 h -36.288 v 5.832 z" transform="translate(0 299.93081921906276) translate(734.332481461686 62.47014733337228) scale(1.0380158327357258) translate(-729.10025 -78.024)"></path> 
  </g> 
  <g id="tagline" style="font-style:oblique;font-weight:600;font-size:32px;line-height:1;font-family:Raleway;font-variant-ligatures:none;text-align:center;text-anchor:middle"></g> 
 </g> 
</svg>