<svg xmlns:dc="http://purl.org/dc/elements/1.1/" xmlns:cc="http://creativecommons.org/ns#" xmlns:rdf="http://www.w3.org/1999/02/22-rdf-syntax-ns#" xmlns:svg="http://www.w3.org/2000/svg" xmlns="http://www.w3.org/2000/svg" id="svg280285" viewbox="0 0 1024 768" height="768px" width="1024px" version="1.1"> <metadata id="metadata280291"> 
  <rdf:rdf> 
   <cc:work rdf:about=""> 
    <dc:format>
     image/svg+xml
    </dc:format> 
    <dc:type rdf:resource="http://purl.org/dc/dcmitype/StillImage"></dc:type> 
   </cc:work> 
  </rdf:rdf> 
 </metadata> <defs id="defs280289"></defs> <g id="logo-group"> 
  <g id="title" style="font-style:oblique;font-weight:700;font-size:72px;line-height:1;font-family:'Uni Neue';font-variant-ligatures:none;text-align:center;text-anchor:middle" aria-label="Heavenlyo7"> 
   <path id="path280293" style="font-style: oblique; font-weight: 700; font-size: 72px; line-height: 1; font-family: &quot;Uni Neue&quot;; font-variant-ligatures: none; text-align: center; text-anchor: middle; fill: rgb(0, 0, 0);" d="m 361.40356,88.752 h -14.832 l 3.312,-18.864 c 0.072,-0.792 -0.288,-1.368 -1.152,-1.368 h -8.928 c -0.72,0 -1.152,0.432 -1.296,1.152 l -8.64,48.96 c -0.144,0.792 0.288,1.368 1.152,1.368 h 8.856 c 0.792,0 1.224,-0.432 1.368,-1.152 l 3.456,-19.656 h 14.904 l -3.456,19.44 c -0.144,0.792 0.288,1.368 1.08,1.368 h 8.928 c 0.792,0 1.224,-0.432 1.296,-1.152 l 8.712,-48.96 c 0.072,-0.792 -0.36,-1.368 -1.152,-1.368 h -8.928 c -0.72,0 -1.224,0.432 -1.296,1.152 z" transform="translate(0 269.6400901621391) translate(252 71.15548577877153) scale(1.3087490627374712) translate(-329.84027 -68.52)"></path> 
   <path id="path280295" style="font-style: oblique; font-weight: 700; font-size: 72px; line-height: 1; font-family: &quot;Uni Neue&quot;; font-variant-ligatures: none; text-align: center; text-anchor: middle; fill: rgb(0, 0, 0);" d="m 378.98956,95.376 -1.872,10.44 c -1.656,9.36 4.896,15.12 14.328,15.12 6.264,0 11.16,-1.728 15.048,-4.392 0.648,-0.36 0.72,-1.008 0.432,-1.728 l -2.952,-5.544 c -0.36,-0.792 -0.936,-0.864 -1.656,-0.36 -2.88,1.728 -6.192,2.88 -9.36,2.88 -3.96,0 -5.688,-1.872 -4.968,-5.688 l 0.216,-1.008 h 20.016 c 0.72,0 1.152,-0.36 1.296,-1.08 l 1.224,-6.984 c 1.944,-10.584 -4.608,-15.48 -13.824,-15.48 -8.712,0 -16.2,4.392 -17.928,13.824 z m 21.024,2.52 h -10.512 l 0.36,-1.944 c 0.648,-3.384 3.024,-5.256 6.12,-5.256 3.672,0 4.896,2.52 4.392,5.4 z" transform="translate(0 269.6400901621391) translate(317.46487142973797 88.21110356436627) scale(1.3087490627374712) translate(-376.86122 -81.552)"></path> 
   <path id="path280297" style="font-style: oblique; font-weight: 700; font-size: 72px; line-height: 1; font-family: &quot;Uni Neue&quot;; font-variant-ligatures: none; text-align: center; text-anchor: middle; fill: rgb(0, 0, 0);" d="m 441.73981,118.416 c 0.648,-0.216 0.936,-0.72 1.08,-1.368 l 3.24,-18.216 c 1.944,-10.8 -3.096,-17.28 -12.888,-17.28 -5.832,0 -11.232,1.296 -14.688,3.384 -0.432,0.288 -0.432,0.792 -0.216,1.44 l 2.232,5.904 c 0.288,0.792 0.864,0.936 1.656,0.576 2.16,-1.008 5.4,-1.656 8.568,-1.656 4.536,0 5.544,1.944 4.896,5.472 l -0.144,1.152 c -1.8,-0.36 -3.96,-0.576 -6.12,-0.576 -9.216,0 -15.12,3.096 -16.344,10.08 -1.44,7.848 3.672,13.608 13.752,13.608 5.544,0 10.872,-1.08 14.976,-2.52 z m -18,-10.512 c 0.36,-2.16 2.232,-3.312 5.76,-3.312 1.584,0 3.24,0.216 4.608,0.504 l -1.008,6.264 c -1.296,0.288 -3.312,0.576 -4.968,0.576 -3.168,0 -4.896,-1.296 -4.392,-4.032 z" transform="translate(0 269.6400901621391) translate(368.3897109098407 88.21110356436627) scale(1.3087490627374712) translate(-412.7723 -81.552)"></path> 
   <path id="path280299" style="font-style: oblique; font-weight: 700; font-size: 72px; line-height: 1; font-family: &quot;Uni Neue&quot;; font-variant-ligatures: none; text-align: center; text-anchor: middle; fill: rgb(0, 0, 0);" d="m 467.74869,120 c 0.648,0 1.152,-0.288 1.44,-0.936 L 486.97269,84 c 0.432,-0.864 0.072,-1.44 -0.864,-1.44 h -8.928 c -0.72,0 -1.224,0.36 -1.512,0.936 l -6.84,15.624 c -1.296,3.096 -2.592,6.408 -3.888,9.576 h -0.144 c -0.216,-3.24 -0.576,-7.056 -0.864,-9.504 l -1.728,-15.48 c -0.072,-0.792 -0.576,-1.152 -1.296,-1.152 h -8.352 c -0.864,0 -1.296,0.504 -1.224,1.296 l 5.544,34.992 c 0.072,0.792 0.576,1.152 1.368,1.152 z" transform="translate(0 269.6400901621391) translate(422.7717026515989 89.53032261960563) scale(1.3087490627374712) translate(-451.32495 -82.56)"></path> 
   <path id="path280301" style="font-style: oblique; font-weight: 700; font-size: 72px; line-height: 1; font-family: &quot;Uni Neue&quot;; font-variant-ligatures: none; text-align: center; text-anchor: middle; fill: rgb(0, 0, 0);" d="m 487.55206,95.376 -1.872,10.44 c -1.656,9.36 4.896,15.12 14.328,15.12 6.264,0 11.16,-1.728 15.048,-4.392 0.648,-0.36 0.72,-1.008 0.432,-1.728 l -2.952,-5.544 c -0.36,-0.792 -0.936,-0.864 -1.656,-0.36 -2.88,1.728 -6.192,2.88 -9.36,2.88 -3.96,0 -5.688,-1.872 -4.968,-5.688 l 0.216,-1.008 h 20.016 c 0.72,0 1.152,-0.36 1.296,-1.08 l 1.224,-6.984 c 1.944,-10.584 -4.608,-15.48 -13.824,-15.48 -8.712,0 -16.2,4.392 -17.928,13.824 z m 21.024,2.52 h -10.512 l 0.36,-1.944 c 0.648,-3.384 3.024,-5.256 6.12,-5.256 3.672,0 4.896,2.52 4.392,5.4 z" transform="translate(0 269.6400901621391) translate(471.3246831178119 88.21110356436627) scale(1.3087490627374712) translate(-485.42372 -81.552)"></path> 
   <path id="path280303" style="font-style: oblique; font-weight: 700; font-size: 72px; line-height: 1; font-family: &quot;Uni Neue&quot;; font-variant-ligatures: none; text-align: center; text-anchor: middle; fill: rgb(0, 0, 0);" d="m 531.29431,120 c 0.792,0 1.224,-0.36 1.368,-1.152 l 4.752,-27 c 1.08,-0.504 2.88,-0.864 4.608,-0.864 3.816,0 5.4,2.088 4.536,6.624 l -3.6,21.024 c -0.072,0.792 0.36,1.368 1.152,1.368 h 8.28 c 0.792,0 1.224,-0.432 1.368,-1.152 l 3.6,-20.16 c 1.8,-10.224 -3.096,-17.136 -13.968,-17.136 -4.68,0 -10.08,1.152 -14.616,2.88 -0.648,0.288 -0.936,0.72 -1.08,1.296 l -5.904,32.904 c -0.144,0.792 0.288,1.368 1.152,1.368 z" transform="translate(0 269.6400901621391) translate(522.80995512156 88.21110356436627) scale(1.3087490627374712) translate(-521.76302 -81.552)"></path> 
   <path id="path280305" style="font-style: oblique; font-weight: 700; font-size: 72px; line-height: 1; font-family: &quot;Uni Neue&quot;; font-variant-ligatures: none; text-align: center; text-anchor: middle; fill: rgb(0, 0, 0);" d="m 577.29331,120.576 c 0.504,-0.072 0.792,-0.432 0.936,-1.152 l 1.152,-6.84 c 0.144,-0.864 -0.288,-1.224 -1.152,-1.152 -0.432,0 -0.936,0 -1.44,0 -2.592,0 -3.456,-1.944 -2.808,-5.4 l 6.336,-36.144 c 0.144,-0.792 -0.288,-1.368 -1.08,-1.368 h -8.352 c -0.72,0 -1.152,0.432 -1.296,1.152 l -6.336,35.784 c -1.584,9.36 2.448,15.48 10.224,15.48 1.512,0 2.808,-0.144 3.816,-0.36 z" transform="translate(0 269.6400901621391) translate(580.590925229135 71.15548577877153) scale(1.3087490627374712) translate(-562.91279 -68.52)"></path> 
   <path id="path280307" style="font-style: oblique; font-weight: 700; font-size: 72px; line-height: 1; font-family: &quot;Uni Neue&quot;; font-variant-ligatures: none; text-align: center; text-anchor: middle; fill: rgb(0, 0, 0);" d="m 604.29106,108.552 c -1.08,0.648 -2.88,1.224 -4.824,1.224 -3.24,0 -5.04,-1.8 -4.248,-6.048 l 3.6,-19.872 c 0.144,-0.792 -0.288,-1.296 -1.152,-1.296 h -8.28 c -0.792,0 -1.224,0.36 -1.296,1.08 l -3.456,19.08 c -1.656,9.72 3.168,16.272 12.024,16.272 2.16,0 4.176,-0.432 6.12,-1.08 -0.792,5.04 -3.168,7.056 -7.704,7.056 -3.168,0 -5.76,-0.936 -7.704,-2.304 -0.72,-0.432 -1.296,-0.432 -1.8,0.288 l -4.464,5.688 c -0.432,0.576 -0.432,1.296 0.144,1.728 3.168,2.736 7.2,4.176 12.96,4.176 11.808,0 17.208,-5.184 19.512,-18.072 l 5.76,-32.616 c 0.072,-0.792 -0.36,-1.296 -1.152,-1.296 h -8.28 c -0.792,0 -1.224,0.36 -1.368,1.08 z" transform="translate(0 269.6400901621391) translate(607.9258900406605 89.53032261960563) scale(1.3087490627374712) translate(-580.79912 -82.56)"></path> 
   <path id="path280309" style="font-style: oblique; font-weight: 700; font-size: 72px; line-height: 1; font-family: &quot;Uni Neue&quot;; font-variant-ligatures: none; text-align: center; text-anchor: middle; fill: rgb(149, 141, 120);" d="m 655.05556,106.68 1.656,-9.072 c 1.512,-8.784 -4.248,-16.056 -14.112,-16.056 -10.008,0 -17.064,5.4 -18.648,14.112 l -1.512,8.928 c -1.656,9.144 4.176,16.344 13.824,16.344 10.584,0 17.136,-5.184 18.792,-14.256 z m -21.816,-1.008 1.656,-9.288 c 0.576,-3.24 3.024,-5.4 6.48,-5.4 3.456,0 4.968,2.664 4.392,5.904 l -1.656,9.216 c -0.576,3.384 -2.88,5.4 -6.624,5.4 -3.384,0 -4.896,-2.304 -4.248,-5.832 z" transform="translate(0 269.6400901621391) translate(665.9827706256418 88.21110356436627) scale(1.3087490627374712) translate(-622.15971 -81.552)"></path> 
   <path id="path280311" style="font-style: oblique; font-weight: 700; font-size: 72px; line-height: 1; font-family: &quot;Uni Neue&quot;; font-variant-ligatures: none; text-align: center; text-anchor: middle; fill: rgb(149, 141, 120);" d="m 672.27481,120 c 0.72,0 1.152,-0.288 1.512,-0.864 l 24.84,-41.688 c 0.288,-0.504 0.432,-0.936 0.504,-1.44 l 1.008,-6.12 c 0.144,-0.792 -0.288,-1.368 -1.08,-1.368 h -31.896 c -0.792,0 -1.224,0.36 -1.296,1.152 l -1.368,7.776 c -0.144,0.792 0.288,1.368 1.152,1.368 h 19.872 l -23.688,39.672 c -0.504,0.864 -0.072,1.512 0.864,1.512 z" transform="translate(0 269.6400901621391) translate(721.5551743398847 71.15548577877153) scale(1.3087490627374712) translate(-661.62194 -68.52)"></path> 
  </g> 
  <g id="tagline" style="font-style:oblique;font-weight:400;font-size:32px;line-height:1;font-family:Lato;font-variant-ligatures:none;text-align:center;text-anchor:middle"></g> 
 </g> 
</svg>