<svg xmlns:dc="http://purl.org/dc/elements/1.1/" xmlns:cc="http://creativecommons.org/ns#" xmlns:rdf="http://www.w3.org/1999/02/22-rdf-syntax-ns#" xmlns:svg="http://www.w3.org/2000/svg" xmlns="http://www.w3.org/2000/svg" id="svg249555" viewbox="0 0 1024 768" height="768px" width="1024px" version="1.1"> <metadata id="metadata249561"> 
  <rdf:rdf> 
   <cc:work rdf:about=""> 
    <dc:format>
     image/svg+xml
    </dc:format> 
    <dc:type rdf:resource="http://purl.org/dc/dcmitype/StillImage"></dc:type> 
   </cc:work> 
  </rdf:rdf> 
 </metadata> <defs id="defs249559"></defs> <g id="logo-group"> 
  <g id="title" style="font-style:oblique;font-weight:700;font-size:72px;line-height:1;font-family:Averta;font-variant-ligatures:none;text-align:center;text-anchor:middle" aria-label="Helioo7"> 
   <path id="path249563" style="font-style: oblique; font-weight: 700; font-size: 72px; line-height: 1; font-family: Averta; font-variant-ligatures: none; text-align: center; text-anchor: middle; fill: rgb(218, 214, 202);" d="m 407.02344,68.88 -6.264,51.12 h 11.592 l 2.376,-19.44 h 15.192 l -2.376,19.44 h 11.592 l 6.336,-51.12 h -11.664 l -2.592,21.384 h -15.192 l 2.592,-21.384 z" transform="translate(0 210.63259407916848) translate(252.0000000000001 122.37399362060877) scale(2.0235481071516954) translate(-400.75944 -68.88)"></path> 
   <path id="path249565" style="font-style: oblique; font-weight: 700; font-size: 72px; line-height: 1; font-family: Averta; font-variant-ligatures: none; text-align: center; text-anchor: middle; fill: rgb(218, 214, 202);" d="m 479.59381,93.864 c 0.072,-6.624 -6.336,-9.72 -12.024,-9.72 -11.88,0 -19.296,9.792 -19.296,21.744 -0.072,9.144 5.832,14.76 14.688,14.76 6.912,0 11.592,-2.592 15.336,-7.704 l -8.064,-4.752 c -1.944,2.592 -4.032,3.528 -6.408,3.528 -2.088,0 -4.392,-1.296 -5.04,-4.464 10.368,-1.08 20.664,-4.464 20.808,-13.392 z m -10.368,1.512 c -0.072,3.456 -4.824,4.824 -10.08,5.4 1.224,-4.896 4.392,-7.632 7.488,-7.632 1.656,0 2.664,0.792 2.592,2.232 z" transform="translate(0 210.63259407916848) translate(358.2640387054944 153.26143192817227) scale(2.0235481071516954) translate(-448.27316 -84.144)"></path> 
   <path id="path249567" style="font-style: oblique; font-weight: 700; font-size: 72px; line-height: 1; font-family: Averta; font-variant-ligatures: none; text-align: center; text-anchor: middle; fill: rgb(218, 214, 202);" d="m 489.21031,67.008 -6.48,52.992 h 10.8 l 6.552,-52.992 z" transform="translate(0 210.63259407916848) translate(438.1074799015948 118.5859115640208) scale(2.0235481071516954) translate(-482.73031 -67.008)"></path> 
   <path id="path249569" style="font-style: oblique; font-weight: 700; font-size: 72px; line-height: 1; font-family: Averta; font-variant-ligatures: none; text-align: center; text-anchor: middle; fill: rgb(218, 214, 202);" d="m 512.93994,80.256 c 3.96,0 6.696,-2.736 6.696,-6.408 0,-3.528 -2.592,-6.12 -6.48,-6.12 -3.96,0 -6.696,2.664 -6.696,6.336 0,3.528 2.664,6.192 6.48,6.192 z m -6.696,4.536 -4.32,35.208 h 10.8 l 4.32,-35.208 z" transform="translate(0 210.63259407916848) translate(487.0644540932234 120.04286620117001) scale(2.0235481071516954) translate(-501.92394 -67.728)"></path> 
   <path id="path249571" style="font-style: oblique; font-weight: 700; font-size: 72px; line-height: 1; font-family: Averta; font-variant-ligatures: none; text-align: center; text-anchor: middle; fill: rgb(218, 214, 202);" d="m 536.02156,120.648 c 13.464,0 19.584,-10.008 19.584,-21.456 0,-9.576 -5.976,-15.048 -15.048,-15.048 -12.384,0 -19.44,10.08 -19.44,21.384 0,9.648 5.976,15.12 14.904,15.12 z m 0.792,-9.648 c -2.304,0 -4.752,-1.872 -4.752,-6.048 0,-5.4 2.88,-11.16 7.632,-11.16 1.944,0 4.968,1.08 4.968,6.12 0,5.76 -3.096,11.088 -7.848,11.088 z" transform="translate(0 210.63259407916848) translate(536.0214080493707 153.26143192817227) scale(2.0235481071516954) translate(-521.11756 -84.144)"></path> 
   <path id="path249573" style="font-style: oblique; font-weight: 700; font-size: 72px; line-height: 1; font-family: Averta; font-variant-ligatures: none; text-align: center; text-anchor: middle; fill: rgb(218, 214, 202);" d="m 574.55281,120.648 c 13.464,0 19.584,-10.008 19.584,-21.456 0,-9.576 -5.976,-15.048 -15.048,-15.048 -12.384,0 -19.44,10.08 -19.44,21.384 0,9.648 5.976,15.12 14.904,15.12 z m 0.792,-9.648 c -2.304,0 -4.752,-1.872 -4.752,-6.048 0,-5.4 2.88,-11.16 7.632,-11.16 1.944,0 4.968,1.08 4.968,6.12 0,5.76 -3.096,11.088 -7.848,11.088 z" transform="translate(0 210.63259407916848) translate(624.1089865888182 153.26143192817227) scale(2.0235481071516954) translate(-559.64881 -84.144)"></path> 
   <path id="path249575" style="font-style: oblique; font-weight: 700; font-size: 72px; line-height: 1; font-family: Averta; font-variant-ligatures: none; text-align: center; text-anchor: middle; fill: rgb(218, 214, 202);" d="m 627.73381,70.536 h -27.864 l -1.224,10.08 h 15.48 l -17.568,38.52 11.088,2.016 19.224,-43.344 z" transform="translate(0 210.63259407916848) translate(708.9138642114386 125.72498928605201) scale(2.0235481071516954) translate(-596.55781 -70.536)"></path> 
  </g> 
  <g id="tagline" style="font-style:normal;font-weight:500;font-size:32px;line-height:1;font-family:Raleway;font-variant-ligatures:none;text-align:center;text-anchor:middle"></g> 
 </g> 
</svg>