<svg xmlns:dc="http://purl.org/dc/elements/1.1/" xmlns:cc="http://creativecommons.org/ns#" xmlns:rdf="http://www.w3.org/1999/02/22-rdf-syntax-ns#" xmlns:svg="http://www.w3.org/2000/svg" xmlns="http://www.w3.org/2000/svg" id="svg65179" viewbox="0 0 1024 768" height="768px" width="1024px" version="1.1"> <metadata id="metadata65185"> 
  <rdf:rdf> 
   <cc:work rdf:about=""> 
    <dc:format>
     image/svg+xml
    </dc:format> 
    <dc:type rdf:resource="http://purl.org/dc/dcmitype/StillImage"></dc:type> 
   </cc:work> 
  </rdf:rdf> 
 </metadata> <defs id="defs65183"></defs> <g id="logo-group"> 
  <g id="title" style="font-style:normal;font-weight:700;font-size:72px;line-height:1;font-family:Phenomena;font-variant-ligatures:none;text-align:center;text-anchor:middle" aria-label="Highlando7"> 
   <path id="path65187" style="font-style: normal; font-weight: 700; font-size: 72px; line-height: 1; font-family: Phenomena; font-variant-ligatures: none; text-align: center; text-anchor: middle; fill: rgb(255, 255, 255);" d="m 405.00519,70.536 v 20.952 h -11.088 V 70.536 c 0,-0.576 -0.36,-0.936 -0.936,-0.936 h -4.536 c -0.648,0 -1.008,0.36 -1.008,0.936 v 48.456 c 0,0.648 0.36,1.008 1.008,1.008 h 4.536 c 0.576,0 0.936,-0.36 0.936,-1.008 V 97.464 h 11.088 v 21.528 c 0,0.648 0.36,1.008 1.008,1.008 h 4.536 c 0.576,0 0.936,-0.36 0.936,-1.008 V 70.536 c 0,-0.576 -0.36,-0.936 -0.936,-0.936 h -4.536 c -0.648,0 -1.008,0.36 -1.008,0.936 z" transform="translate(0 224.02627694372924) translate(251.9999999999999 102.45878281101258) scale(1.7537181438363876) translate(-387.43719 -69.6)"></path> 
   <path id="path65189" style="font-style: normal; font-weight: 700; font-size: 72px; line-height: 1; font-family: Phenomena; font-variant-ligatures: none; text-align: center; text-anchor: middle; fill: rgb(255, 255, 255);" d="m 422.79819,79.464 c 2.088,0 3.744,-1.728 3.744,-3.672 0,-2.16 -1.656,-3.744 -3.744,-3.744 -2.16,0 -3.672,1.584 -3.672,3.744 0,2.088 1.512,3.672 3.672,3.672 z m -2.088,40.536 h 4.176 c 0.648,0 1.008,-0.36 1.008,-1.008 V 84.936 c 0,-0.576 -0.36,-0.936 -1.008,-0.936 h -4.176 c -0.648,0 -1.008,0.36 -1.008,0.936 v 34.056 c 0,0.648 0.36,1.008 1.008,1.008 z" transform="translate(0 224.02627694372924) translate(316.3421649792131 106.75188482712406) scale(1.7537181438363876) translate(-419.12619 -72.048)"></path> 
   <path id="path65191" style="font-style: normal; font-weight: 700; font-size: 72px; line-height: 1; font-family: Phenomena; font-variant-ligatures: none; text-align: center; text-anchor: middle; fill: rgb(255, 255, 255);" d="m 443.28894,83.208 c -6.912,0 -11.52,4.896 -11.52,11.736 v 12.384 c 0,6.84 4.608,11.736 11.016,11.736 2.232,0 4.248,-0.936 5.76,-2.52 v 7.128 c 0,3.528 -1.944,5.616 -5.256,5.616 -3.096,0 -5.04,-2.088 -5.256,-5.688 -0.072,-0.72 -0.432,-1.008 -1.008,-1.008 h -4.248 c -0.648,0 -1.008,0.36 -0.936,1.008 0.288,7.056 4.752,11.592 11.448,11.592 6.984,0 11.448,-4.608 11.448,-11.736 V 94.944 c 0,-6.84 -4.608,-11.736 -11.448,-11.736 z m 0,30.024 c -3.312,0 -5.328,-2.304 -5.328,-5.688 V 94.728 c 0,-3.384 2.016,-5.616 5.328,-5.616 3.312,0 5.256,2.232 5.256,5.616 v 12.816 c 0,3.384 -1.944,5.688 -5.256,5.688 z" transform="translate(0 224.02627694372924) translate(347.28257576138253 126.32337931233815) scale(1.7537181438363876) translate(-431.76894 -83.208)"></path> 
   <path id="path65193" style="font-style: normal; font-weight: 700; font-size: 72px; line-height: 1; font-family: Phenomena; font-variant-ligatures: none; text-align: center; text-anchor: middle; fill: rgb(255, 255, 255);" d="m 462.89769,120 h 4.176 c 0.648,0 1.008,-0.36 1.008,-1.008 v -24.12 c 0,-3.528 2.016,-5.76 5.112,-5.76 3.312,0 5.256,2.232 5.256,5.76 v 24.12 c 0,0.648 0.36,1.008 1.008,1.008 h 4.176 c 0.648,0 1.008,-0.36 1.008,-1.008 V 95.088 c 0,-6.984 -4.248,-11.88 -10.8,-11.88 -2.376,0 -4.392,1.008 -5.76,2.52 V 70.536 c 0,-0.576 -0.36,-0.936 -1.008,-0.936 h -4.176 c -0.648,0 -1.008,0.36 -1.008,0.936 v 48.456 c 0,0.648 0.36,1.008 1.008,1.008 z" transform="translate(0 224.02627694372924) translate(408.8744722615243 102.45878281101258) scale(1.7537181438363876) translate(-461.88969 -69.6)"></path> 
   <path id="path65195" style="font-style: normal; font-weight: 700; font-size: 72px; line-height: 1; font-family: Phenomena; font-variant-ligatures: none; text-align: center; text-anchor: middle; fill: rgb(255, 255, 255);" d="m 492.85081,120 h 4.176 c 0.648,0 1.008,-0.36 1.008,-1.008 V 70.536 c 0,-0.576 -0.36,-0.936 -1.008,-0.936 h -4.176 c -0.648,0 -1.008,0.36 -1.008,0.936 v 48.456 c 0,0.648 0.36,1.008 1.008,1.008 z" transform="translate(0 224.02627694372924) translate(470.17239298921487 102.45878281101258) scale(1.7537181438363876) translate(-491.84281 -69.6)"></path> 
   <path id="path65197" style="font-style: normal; font-weight: 700; font-size: 72px; line-height: 1; font-family: Phenomena; font-variant-ligatures: none; text-align: center; text-anchor: middle; fill: rgb(255, 255, 255);" d="m 515.63206,120.72 c 6.912,0 11.232,-4.752 11.232,-11.376 V 94.872 c 0,-6.768 -4.392,-11.664 -11.232,-11.664 -6.408,0 -10.656,4.464 -11.088,10.728 0,0.576 0.36,1.008 0.936,1.008 h 4.176 c 0.648,0 0.936,-0.216 1.008,-0.864 0.216,-2.952 1.872,-4.968 4.896,-4.968 3.24,0 5.184,2.232 5.184,5.472 v 3.96 h -5.4 c -6.768,0 -11.376,4.608 -11.376,10.584 0,6.768 4.68,11.592 11.664,11.592 z m -0.072,-5.904 c -3.384,0 -5.4,-2.232 -5.4,-5.688 0,-2.808 2.016,-5.04 5.4,-5.04 h 5.184 v 5.256 c 0,3.312 -1.872,5.472 -5.184,5.472 z" transform="translate(0 224.02627694372924) translate(500.20525463194895 126.32337931233815) scale(1.7537181438363876) translate(-503.96806 -83.208)"></path> 
   <path id="path65199" style="font-style: normal; font-weight: 700; font-size: 72px; line-height: 1; font-family: Phenomena; font-variant-ligatures: none; text-align: center; text-anchor: middle; fill: rgb(255, 255, 255);" d="m 534.04044,120 h 4.176 c 0.648,0 1.008,-0.36 1.008,-1.008 V 94.728 c 0,-3.384 1.872,-5.688 5.04,-5.688 3.168,0 5.04,2.304 5.04,5.688 v 24.264 c 0,0.648 0.36,1.008 1.008,1.008 h 4.176 c 0.648,0 1.008,-0.36 1.008,-1.008 V 94.944 c 0,-6.84 -4.536,-11.736 -11.232,-11.736 -6.696,0 -11.232,4.896 -11.232,11.736 v 24.048 c 0,0.648 0.36,1.008 1.008,1.008 z" transform="translate(0 224.02627694372924) translate(559.9445758964862 126.32337931233815) scale(1.7537181438363876) translate(-533.03244 -83.208)"></path> 
   <path id="path65201" style="font-style: normal; font-weight: 700; font-size: 72px; line-height: 1; font-family: Phenomena; font-variant-ligatures: none; text-align: center; text-anchor: middle; fill: rgb(255, 255, 255);" d="m 583.66644,69.6 h -4.176 c -0.648,0 -1.008,0.36 -1.008,0.936 v 15.336 c -1.44,-1.656 -3.456,-2.664 -5.976,-2.664 -6.48,0 -10.728,4.896 -10.728,11.736 v 14.112 c 0,6.84 4.536,11.736 11.448,11.736 6.84,0 11.448,-4.896 11.448,-11.736 v -38.52 c 0,-0.576 -0.36,-0.936 -1.008,-0.936 z m -5.184,39.672 c 0,3.384 -1.944,5.616 -5.256,5.616 -3.312,0 -5.328,-2.232 -5.328,-5.616 V 94.728 c 0,-3.384 2.016,-5.616 5.328,-5.616 3.312,0 5.256,2.232 5.256,5.616 z" transform="translate(0 224.02627694372924) translate(619.1255483783891 102.45878281101258) scale(1.7537181438363876) translate(-561.77844 -69.6)"></path> 
   <path id="path65203" style="font-style: normal; font-weight: 700; font-size: 72px; line-height: 1; font-family: Phenomena; font-variant-ligatures: none; text-align: center; text-anchor: middle; fill: rgb(53, 53, 53);" d="m 602.05456,120.792 c 6.984,0 11.52,-4.896 11.52,-11.736 V 94.944 c 0,-6.84 -4.536,-11.736 -11.52,-11.736 -6.912,0 -11.52,4.896 -11.52,11.736 v 14.112 c 0,6.84 4.608,11.736 11.52,11.736 z m 0,-5.832 c -3.312,0 -5.256,-2.304 -5.256,-5.688 V 94.728 c 0,-3.384 1.944,-5.688 5.256,-5.688 3.312,0 5.328,2.304 5.328,5.688 v 14.544 c 0,3.384 -2.016,5.688 -5.328,5.688 z" transform="translate(0 224.02627694372924) translate(678.3242684879075 126.32337931233815) scale(1.7537181438363876) translate(-590.53456 -83.208)"></path> 
   <path id="path65205" style="font-style: normal; font-weight: 700; font-size: 72px; line-height: 1; font-family: Phenomena; font-variant-ligatures: none; text-align: center; text-anchor: middle; fill: rgb(53, 53, 53);" d="m 617.35006,70.536 v 4.104 c 0,0.648 0.36,1.008 0.936,1.008 h 13.752 l -10.44,43.272 c -0.144,0.648 0.144,1.08 0.864,1.08 h 4.536 c 0.576,0 0.936,-0.288 1.08,-0.864 L 638.59006,75 c 0.288,-1.224 0.36,-2.088 0.36,-3.384 0,-1.368 -0.792,-2.016 -2.16,-2.016 h -18.504 c -0.576,0 -0.936,0.36 -0.936,0.936 z" transform="translate(0 224.02627694372924) translate(734.119688093134 102.45878281101258) scale(1.7537181438363876) translate(-617.35006 -69.6)"></path> 
  </g> 
  <g id="tagline" style="font-style:oblique;font-weight:normal;font-size:32px;line-height:1;font-family:'Fira Sans Condensed';font-variant-ligatures:none;text-align:center;text-anchor:middle"></g> 
 </g> 
</svg>