<svg xmlns:dc="http://purl.org/dc/elements/1.1/" xmlns:cc="http://creativecommons.org/ns#" xmlns:rdf="http://www.w3.org/1999/02/22-rdf-syntax-ns#" xmlns:svg="http://www.w3.org/2000/svg" xmlns="http://www.w3.org/2000/svg" id="svg96505" viewbox="0 0 1024 768" height="768px" width="1024px" version="1.1"> <metadata id="metadata96511"> 
  <rdf:rdf> 
   <cc:work rdf:about=""> 
    <dc:format>
     image/svg+xml
    </dc:format> 
    <dc:type rdf:resource="http://purl.org/dc/dcmitype/StillImage"></dc:type> 
   </cc:work> 
  </rdf:rdf> 
 </metadata> <defs id="defs96509"></defs> <g id="logo-group"> 
  <g id="title" style="font-style:normal;font-weight:700;font-size:72px;line-height:1;font-family:'Brandmark1 Bold';font-variant-ligatures:none;text-align:center;text-anchor:middle" aria-label="HIGHPERFORMANCEO7"> 
   <path id="path96513" style="font-style: normal; font-weight: 700; font-size: 72px; line-height: 1; font-family: &quot;Brandmark1 Bold&quot;; font-variant-ligatures: none; text-align: center; text-anchor: middle; fill: rgb(41, 194, 226);" d="m 144.3545,122.52 h 11.304 V 66.36 h -11.304 v 23.976 h -21.672 V 66.36 h -11.304 v 56.16 h 11.304 v -21.456 h 21.672 z" transform="translate(0 328.711) translate(210.21720499999998 33.98599999999999) scale(0.75) translate(-111.3785 -66.36)"></path> 
   <path id="path96515" style="font-style: normal; font-weight: 700; font-size: 72px; line-height: 1; font-family: &quot;Brandmark1 Bold&quot;; font-variant-ligatures: none; text-align: center; text-anchor: middle; fill: rgb(41, 194, 226);" d="m 163.62912,122.52 h 11.304 V 66.36 l -11.304,3.6 z" transform="translate(0 328.711) translate(249.40517 33.98599999999999) scale(0.75) translate(-163.62912 -66.36)"></path> 
   <path id="path96517" style="font-style: normal; font-weight: 700; font-size: 72px; line-height: 1; font-family: &quot;Brandmark1 Bold&quot;; font-variant-ligatures: none; text-align: center; text-anchor: middle; fill: rgb(41, 194, 226);" d="m 208.15662,122.952 c 3.816,0 7.56,-0.792 11.08801,-2.232 3.38399,-1.44 6.40799,-3.456 9.07199,-6.12 2.592,-2.592 4.608,-5.616 6.048,-9.072 1.512,-3.456 2.23201,-7.2 2.23201,-11.088 v -5.616 h -28.44001 v 11.304 h 16.2 c -0.792,2.376 -2.232,4.608 -4.104,6.48 -3.23999,3.24 -7.56,5.04 -12.096,5.04 -4.60799,0 -8.928,-1.8 -12.16799,-5.04 -3.24001,-3.24 -5.04001,-7.56 -5.04001,-12.168 0,-4.536 1.8,-8.856 5.04001,-12.096 3.23999,-3.312 7.56,-5.04 12.16799,-5.04 2.736,0 5.4,0.648 7.92,1.872 2.304,1.224 4.392,3.024 5.976,5.184 l 9.072,-6.696 c -2.52,-3.528 -5.976,-6.48 -9.864,-8.496 -4.032,-2.088 -8.568,-3.168 -13.104,-3.168 -3.88799,0 -7.56,0.72 -11.088,2.232 -3.384,1.44 -6.48,3.456 -9.072,6.048 -2.592,2.664 -4.68,5.688 -6.12,9.072 -1.44,3.528 -2.232,7.272 -2.232,11.088 0,3.888 0.792,7.56 2.232,11.088 1.44,3.384 3.528,6.48 6.12,9.072 2.592,2.592 5.688,4.68 9.072,6.12 3.528,1.44 7.20001,2.232 11.088,2.232 z" transform="translate(0 328.711) translate(261.416795 33.715999999999994) scale(0.75) translate(-179.64462 -66)"></path> 
   <path id="path96519" style="font-style: normal; font-weight: 700; font-size: 72px; line-height: 1; font-family: &quot;Brandmark1 Bold&quot;; font-variant-ligatures: none; text-align: center; text-anchor: middle; fill: rgb(41, 194, 226);" d="m 270.63575,122.52 h 11.304 V 66.36 h -11.304 v 23.976 h -21.672 V 66.36 h -11.304 v 56.16 h 11.304 v -21.456 h 21.672 z" transform="translate(0 328.711) translate(304.9281425 33.98599999999999) scale(0.75) translate(-237.65975 -66.36)"></path> 
   <path id="path96521" style="font-style: normal; font-weight: 700; font-size: 72px; line-height: 1; font-family: &quot;Brandmark1 Bold&quot;; font-variant-ligatures: none; text-align: center; text-anchor: middle; fill: rgb(41, 194, 226);" d="m 289.55037,122.52 h 11.304 v -19.512 h 7.99201 c 2.88,0 5.61599,-0.288 7.99199,-1.008 2.52001,-0.72 4.752,-1.872 6.552,-3.384 1.94401,-1.584 3.45601,-3.528 4.392,-5.832 1.008,-2.376 1.584,-5.04 1.584,-8.064 0,-5.328 -1.656,-9.864 -4.752,-13.032 -3.384,-3.528 -8.35199,-5.328 -14.688,-5.328 h -20.376 z m 18.72,-30.24 h -7.416 V 77.088 h 8.424 c 2.736,0 4.968,0.72 6.408,1.944 1.44,1.224 2.16001,3.096 2.16001,5.544 0,2.376 -0.72001,4.248 -2.08801,5.544 -1.584,1.44 -4.10399,2.16 -7.488,2.16 z" transform="translate(0 328.711) translate(343.84610749999996 33.98599999999999) scale(0.75) translate(-289.55037 -66.36)"></path> 
   <path id="path96523" style="font-style: normal; font-weight: 700; font-size: 72px; line-height: 1; font-family: &quot;Brandmark1 Bold&quot;; font-variant-ligatures: none; text-align: center; text-anchor: middle; fill: rgb(41, 194, 226);" d="m 333.70662,122.52 h 36.36 v -10.728 h -25.056 v -11.88 h 25.056 V 89.184 h -25.056 V 77.088 h 25.056 V 66.36 h -36.36 z" transform="translate(0 328.711) translate(376.963295 33.98599999999999) scale(0.75) translate(-333.70662 -66.36)"></path> 
   <path id="path96525" style="font-style: normal; font-weight: 700; font-size: 72px; line-height: 1; font-family: &quot;Brandmark1 Bold&quot;; font-variant-ligatures: none; text-align: center; text-anchor: middle; fill: rgb(41, 194, 226);" d="m 405.40062,101.424 c 2.952,-1.08 5.32801,-2.736 7.2,-4.824 2.59201,-3.024 3.96001,-7.056 3.96001,-11.88 0,-5.328 -1.65601,-9.864 -4.75201,-13.032 -1.728,-1.728 -3.816,-3.096 -6.264,-3.96 -2.44799,-0.864 -5.32799,-1.368 -8.42399,-1.368 h -20.66401 v 56.16 h 11.304 V 77.088 h 8.496 c 2.88,0 5.184,0.72 6.624,1.944 1.44,1.224 2.16,3.096 2.16,5.544 0,2.376 -0.72,4.248 -2.088,5.472 -1.656,1.512 -4.17599,2.232 -7.56,2.232 h -2.16 v 11.016 l 13.32,19.224 h 13.68 z" transform="translate(0 328.711) translate(409.025795 33.98599999999999) scale(0.75) translate(-376.45662 -66.36)"></path> 
   <path id="path96527" style="font-style: normal; font-weight: 700; font-size: 72px; line-height: 1; font-family: &quot;Brandmark1 Bold&quot;; font-variant-ligatures: none; text-align: center; text-anchor: middle; fill: rgb(41, 194, 226);" d="m 422.72225,122.52 h 11.304 v -21.744 h 25.632 V 90.048 h -25.632 v -12.96 h 25.632 V 66.36 h -36.936 z" transform="translate(0 328.711) translate(443.7250175 33.98599999999999) scale(0.75) translate(-422.72225 -66.36)"></path> 
   <path id="path96529" style="font-style: normal; font-weight: 700; font-size: 72px; line-height: 1; font-family: &quot;Brandmark1 Bold&quot;; font-variant-ligatures: none; text-align: center; text-anchor: middle; fill: rgb(41, 194, 226);" d="m 488.36712,122.808 c 3.81601,0 7.56,-0.72 11.088,-2.232 3.384,-1.368 6.40801,-3.456 9,-6.048 2.592,-2.592 4.68001,-5.616 6.12,-9 1.44,-3.528 2.23201,-7.272 2.23201,-11.088 0,-3.816 -0.79201,-7.56 -2.23201,-11.088 -1.43999,-3.384 -3.528,-6.408 -6.12,-9 -2.59199,-2.592 -5.616,-4.68 -9,-6.12 -3.528,-1.44 -7.27199,-2.232 -11.088,-2.232 -3.81599,0 -7.56,0.792 -11.08799,2.232 -3.38401,1.44 -6.40801,3.528 -9,6.12 -2.59201,2.592 -4.68,5.616 -6.048,9 -1.512,3.528 -2.23201,7.272 -2.23201,11.088 0,3.816 0.72001,7.56 2.23201,11.088 1.368,3.384 3.45599,6.408 6.048,9 2.59199,2.592 5.61599,4.68 9,6.048 3.52799,1.512 7.272,2.232 11.08799,2.232 z m 0,-45.504 c 4.536,0 8.856,1.8 12.096,5.04 3.24,3.24 5.04,7.56 5.04,12.096 0,4.608 -1.8,8.856 -5.04,12.096 -3.24,3.24 -7.488,5.04 -12.096,5.04 -4.536,0 -8.856,-1.8 -12.096,-5.04 -3.24,-3.24 -5.03999,-7.488 -5.03999,-12.096 0,-4.536 1.79999,-8.856 5.03999,-12.096 3.24,-3.24 7.56,-5.04 12.096,-5.04 z" transform="translate(0 328.711) translate(471.68267000000003 33.715999999999994) scale(0.75) translate(-459.99912 -66)"></path> 
   <path id="path96531" style="font-style: normal; font-weight: 700; font-size: 72px; line-height: 1; font-family: &quot;Brandmark1 Bold&quot;; font-variant-ligatures: none; text-align: center; text-anchor: middle; fill: rgb(41, 194, 226);" d="m 550.80687,101.424 c 2.952,-1.08 5.328,-2.736 7.20001,-4.824 2.592,-3.024 3.95999,-7.056 3.95999,-11.88 0,-5.328 -1.656,-9.864 -4.752,-13.032 -1.72799,-1.728 -3.816,-3.096 -6.264,-3.96 -2.44799,-0.864 -5.32799,-1.368 -8.42399,-1.368 h -20.664 v 56.16 h 11.30399 V 77.088 h 8.496 c 2.88,0 5.184,0.72 6.624,1.944 1.44,1.224 2.16,3.096 2.16,5.544 0,2.376 -0.72,4.248 -2.088,5.472 -1.656,1.512 -4.176,2.232 -7.56,2.232 h -2.16 v 11.016 l 13.32001,19.224 h 13.67999 z" transform="translate(0 328.711) translate(518.08049 33.98599999999999) scale(0.75) translate(-521.86288 -66.36)"></path> 
   <path id="path96533" style="font-style: normal; font-weight: 700; font-size: 72px; line-height: 1; font-family: &quot;Brandmark1 Bold&quot;; font-variant-ligatures: none; text-align: center; text-anchor: middle; fill: rgb(41, 194, 226);" d="m 612.1925,122.52 h 11.304 V 66.36 h -10.296 l -17.352,30.6 -17.424,-30.6 h -10.296 v 56.16 h 11.376 V 90.336 l 12.672,21.888 h 7.2 l 12.816,-22.032 z" transform="translate(0 328.711) translate(552.779705 33.98599999999999) scale(0.75) translate(-568.1285 -66.36)"></path> 
   <path id="path96535" style="font-style: normal; font-weight: 700; font-size: 72px; line-height: 1; font-family: &quot;Brandmark1 Bold&quot;; font-variant-ligatures: none; text-align: center; text-anchor: middle; fill: rgb(41, 194, 226);" d="m 665.8325,122.52 h 11.952 l -21.312,-56.16 h -9.792 l -21.24,56.16 h 11.952 l 4.536,-12.456 h 19.296 z m -8.424,-22.968 h -11.664 l 5.832,-15.912 z" transform="translate(0 328.711) translate(595.763705 33.98599999999999) scale(0.75) translate(-625.4405 -66.36)"></path> 
   <path id="path96537" style="font-style: normal; font-weight: 700; font-size: 72px; line-height: 1; font-family: &quot;Brandmark1 Bold&quot;; font-variant-ligatures: none; text-align: center; text-anchor: middle; fill: rgb(41, 194, 226);" d="m 715.92875,122.52 h 10.296 V 66.36 h -11.304 v 35.424 l -25.128,-35.424 h -10.008 v 56.16 h 11.304 V 87.456 Z" transform="translate(0 328.711) translate(636.5218924999999 33.98599999999999) scale(0.75) translate(-679.78475 -66.36)"></path> 
   <path id="path96539" style="font-style: normal; font-weight: 700; font-size: 72px; line-height: 1; font-family: &quot;Brandmark1 Bold&quot;; font-variant-ligatures: none; text-align: center; text-anchor: middle; fill: rgb(41, 194, 226);" d="m 760.27737,123.024 c 9.50401,0 18.36001,-4.752 23.688,-12.6 l -9.36,-6.336 c -3.24,4.752 -8.568,7.632 -14.328,7.632 -4.608,0 -9,-1.8 -12.24,-5.04 -3.312,-3.312 -5.11199,-7.632 -5.11199,-12.312 0,-4.608 1.79999,-8.928 5.11199,-12.24 3.24,-3.24 7.632,-5.04 12.24,-5.04 5.76,0 11.16,2.88 14.4,7.704 l 9.36,-6.336 c -5.32799,-7.92 -14.18399,-12.672 -23.76,-12.672 -3.888,0 -7.63199,0.72 -11.15999,2.232 -3.384,1.44 -6.48,3.528 -9.072,6.12 -2.664,2.664 -4.68001,5.688 -6.12,9.144 -1.51201,3.528 -2.30401,7.272 -2.30401,11.088 0,3.888 0.792,7.632 2.30401,11.16 1.43999,3.384 3.456,6.48 6.12,9.072 2.592,2.664 5.688,4.752 9.072,6.192 3.528,1.44 7.27199,2.232 11.15999,2.232 z" transform="translate(0 328.711) translate(675.3993574999998 33.554) scale(0.75) translate(-731.62137 -65.784)"></path> 
   <path id="path96541" style="font-style: normal; font-weight: 700; font-size: 72px; line-height: 1; font-family: &quot;Brandmark1 Bold&quot;; font-variant-ligatures: none; text-align: center; text-anchor: middle; fill: rgb(41, 194, 226);" d="m 786.09725,122.52 h 36.36 v -10.728 h -25.056 v -11.88 h 25.056 V 89.184 h -25.056 V 77.088 h 25.056 V 66.36 h -36.36 z" transform="translate(0 328.711) translate(716.2562674999999 33.98599999999999) scale(0.75) translate(-786.09725 -66.36)"></path> 
   <path id="path96543" style="font-style: normal; font-weight: 700; font-size: 72px; line-height: 1; font-family: &quot;Brandmark1 Bold&quot;; font-variant-ligatures: none; text-align: center; text-anchor: middle; fill: rgb(213, 167, 56);" d="m 852.86712,122.808 c 3.81601,0 7.56001,-0.72 11.088,-2.232 3.384,-1.368 6.408,-3.456 9,-6.048 2.59201,-2.592 4.68001,-5.616 6.12,-9 1.44,-3.528 2.23201,-7.272 2.23201,-11.088 0,-3.816 -0.79201,-7.56 -2.23201,-11.088 -1.43999,-3.384 -3.52799,-6.408 -6.12,-9 -2.592,-2.592 -5.616,-4.68 -9,-6.12 -3.52799,-1.44 -7.27199,-2.232 -11.088,-2.232 -3.816,0 -7.55999,0.792 -11.08799,2.232 -3.38401,1.44 -6.40801,3.528 -9,6.12 -2.592,2.592 -4.68001,5.616 -6.048,9 -1.51201,3.528 -2.232,7.272 -2.232,11.088 0,3.816 0.71999,7.56 2.232,11.088 1.36799,3.384 3.456,6.408 6.048,9 2.59199,2.592 5.61599,4.68 9,6.048 3.528,1.512 7.27199,2.232 11.08799,2.232 z m 0,-45.504 c 4.53601,0 8.856,1.8 12.096,5.04 3.24,3.24 5.04,7.56 5.04,12.096 0,4.608 -1.8,8.856 -5.04,12.096 -3.24,3.24 -7.48799,5.04 -12.096,5.04 -4.53599,0 -8.856,-1.8 -12.096,-5.04 -3.24,-3.24 -5.03999,-7.488 -5.03999,-12.096 0,-4.536 1.79999,-8.856 5.03999,-12.096 3.24,-3.24 7.56001,-5.04 12.096,-5.04 z" transform="translate(0 328.711) translate(745.0576775 33.715999999999994) scale(0.75) translate(-824.49913 -66)"></path> 
   <path id="path96545" style="font-style: normal; font-weight: 700; font-size: 72px; line-height: 1; font-family: &quot;Brandmark1 Bold&quot;; font-variant-ligatures: none; text-align: center; text-anchor: middle; fill: rgb(213, 167, 56);" d="m 884.38062,121.512 11.16,2.232 20.592,-48.384 v -7.344 h -35.712 V 78.6 h 22.53601 z" transform="translate(0 328.711) translate(786.998795 35.227999999999994) scale(0.75) translate(-880.42062 -68.016)"></path> 
  </g> 
  <g id="tagline" style="font-style:normal;font-weight:400;font-size:32px;line-height:1;font-family:Montserrat;font-variant-ligatures:none;text-align:center;text-anchor:middle"></g> 
 </g> 
</svg>