<svg xmlns:dc="http://purl.org/dc/elements/1.1/" xmlns:cc="http://creativecommons.org/ns#" xmlns:rdf="http://www.w3.org/1999/02/22-rdf-syntax-ns#" xmlns:svg="http://www.w3.org/2000/svg" xmlns="http://www.w3.org/2000/svg" id="svg22505" viewbox="0 0 1024 768" height="768px" width="1024px" version="1.1"> <metadata id="metadata22511"> 
  <rdf:rdf> 
   <cc:work rdf:about=""> 
    <dc:format>
     image/svg+xml
    </dc:format> 
    <dc:type rdf:resource="http://purl.org/dc/dcmitype/StillImage"></dc:type> 
   </cc:work> 
  </rdf:rdf> 
 </metadata> <defs id="defs22509"></defs> <g id="logo-group"> 
  <g id="title" style="font-style:normal;font-weight:500;font-size:72px;line-height:1;font-family:'Raleway Medium Alt1';font-variant-ligatures:none;text-align:center;text-anchor:middle" aria-label="HIGHQUALITYO7"> 
   <path id="path22513" style="font-style: normal; font-weight: 500; font-size: 72px; line-height: 1; font-family: &quot;Raleway Medium Alt1&quot;; font-variant-ligatures: none; text-align: center; text-anchor: middle; fill: rgb(255, 255, 255);" d="m 231.8075,120 h 6.48 V 68.88 h -6.48 z m 34.632,-51.12 v 22.104 h -22.392 v 5.76 h 22.392 V 120 h 6.48 V 68.88 Z" transform="translate(0 326.4953846153846) translate(224.9977884615385 34.464615384615385) scale(0.7692307692307693) translate(-231.8075 -68.88)"></path> 
   <path id="path22515" style="font-style: normal; font-weight: 500; font-size: 72px; line-height: 1; font-family: &quot;Raleway Medium Alt1&quot;; font-variant-ligatures: none; text-align: center; text-anchor: middle; fill: rgb(255, 255, 255);" d="m 285.10437,120 h 6.48001 V 68.88 h -6.48001 z" transform="translate(0 326.4953846153846) translate(277.53384230769234 34.464615384615385) scale(0.7692307692307693) translate(-285.10437 -68.88)"></path> 
   <path id="path22517" style="font-style: normal; font-weight: 500; font-size: 72px; line-height: 1; font-family: &quot;Raleway Medium Alt1&quot;; font-variant-ligatures: none; text-align: center; text-anchor: middle; fill: rgb(255, 255, 255);" d="m 317.7755,112.944 c -2.232,-1.008 -4.104,-2.448 -5.616,-4.32 -1.584,-1.872 -2.88,-3.96 -3.744,-6.408 -0.936,-2.448 -1.368,-4.968 -1.368,-7.776 0,-2.52 0.36,-5.04 1.224,-7.488 0.792,-2.448 1.944,-4.536 3.456,-6.408 1.44,-1.872 3.24,-3.312 5.4,-4.464 2.088,-1.152 4.392,-1.728 7.056,-1.728 3.168,0 5.976,0.72 8.568,2.16 2.52,1.44 4.536,3.672 6.12,6.624 l 4.968,-3.456 c -1.728,-3.24 -4.176,-5.976 -7.344,-8.064 -3.168,-2.016 -7.272,-3.096 -12.168,-3.096 -3.456,0 -6.624,0.72 -9.504,2.088 -2.952,1.44 -5.472,3.312 -7.56,5.688 -2.16,2.376 -3.816,5.112 -4.968,8.208 -1.224,3.096 -1.8,6.336 -1.8,9.792 0,3.384 0.576,6.552 1.8,9.648 1.224,3.168 2.88,5.904 5.04,8.352 2.088,2.448 4.536,4.392 7.488,5.832 2.88,1.512 6.048,2.232 9.504,2.232 3.6,0 6.912,-0.864 10.008,-2.736 v -6.048 c -3.024,2.016 -6.192,2.952 -9.504,2.952 -2.592,0 -4.896,-0.504 -7.056,-1.584 z m 11.088,-18.432 v 4.896 h 11.016 V 120 h 5.472 V 94.512 Z" transform="translate(0 326.4953846153846) translate(300.9116346153846 34.1876923076923) scale(0.7692307692307693) translate(-300.4955 -68.52)"></path> 
   <path id="path22519" style="font-style: normal; font-weight: 500; font-size: 72px; line-height: 1; font-family: &quot;Raleway Medium Alt1&quot;; font-variant-ligatures: none; text-align: center; text-anchor: middle; fill: rgb(255, 255, 255);" d="m 355.27625,120 h 6.48 V 68.88 h -6.48 z m 34.632,-51.12 v 22.104 h -22.392 v 5.76 h 22.392 V 120 h 6.48 V 68.88 Z" transform="translate(0 326.4953846153846) translate(354.58913461538464 34.464615384615385) scale(0.7692307692307693) translate(-355.27625 -68.88)"></path> 
   <path id="path22521" style="font-style: normal; font-weight: 500; font-size: 72px; line-height: 1; font-family: &quot;Raleway Medium Alt1&quot;; font-variant-ligatures: none; text-align: center; text-anchor: middle; fill: rgb(255, 255, 255);" d="m 451.55712,104.376 c 1.224,-3.096 1.872,-6.408 1.872,-9.864 0,-3.168 -0.576,-6.336 -1.728,-9.432 -1.152,-3.096 -2.808,-5.832 -4.896,-8.352 -2.16,-2.448 -4.67999,-4.392 -7.55999,-5.904 -2.952,-1.512 -6.264,-2.304 -9.79201,-2.304 -3.528,0 -6.696,0.72 -9.648,2.16 -2.952,1.44 -5.472,3.312 -7.63199,5.688 -2.16001,2.448 -3.88801,5.184 -5.11201,8.28 -1.22399,3.168 -1.8,6.408 -1.8,9.792 0,3.312 0.57601,6.48 1.728,9.576 1.152,3.168 2.736,5.904 4.89601,8.28 2.08799,2.448 4.608,4.392 7.56,5.832 2.952,1.512 6.192,2.232 9.86399,2.232 2.592,0 5.04001,-0.36 7.344,-1.224 0.144,0 0.36,-0.144 0.64801,-0.216 l -4.176,-4.824 c -1.15201,0.288 -2.44801,0.432 -3.74401,0.432 -2.664,0 -5.04,-0.504 -7.2,-1.656 -2.16,-1.08 -4.03199,-2.592 -5.54399,-4.464 -1.584,-1.872 -2.73601,-3.96 -3.60001,-6.408 -0.86399,-2.448 -1.22399,-4.896 -1.22399,-7.56 0,-2.448 0.36,-4.896 1.22399,-7.344 0.792,-2.376 1.94401,-4.536 3.45601,-6.408 1.512,-1.872 3.38399,-3.456 5.54399,-4.608 2.16001,-1.152 4.608,-1.728 7.344,-1.728 2.52,0 4.896,0.576 7.056,1.656 2.16,1.152 3.96001,2.592 5.54401,4.464 1.584,1.872 2.73599,4.032 3.59999,6.48 0.86401,2.448 1.296,4.896 1.296,7.488 0,2.448 -0.43199,4.824 -1.152,7.128 -0.79199,2.304 -1.872,4.392 -3.24,6.264 l -3.888,-4.536 h -6.336 l 6.84001,7.992 3.88799,4.536 3.6,4.176 h 6.336 l -6.40799,-7.416 c 2.08799,-2.376 3.81599,-5.112 5.03999,-8.208 z" transform="translate(0 326.4953846153846) translate(404.57749615384614 34.1876923076923) scale(0.7692307692307693) translate(-405.26112 -68.52)"></path> 
   <path id="path22523" style="font-style: normal; font-weight: 500; font-size: 72px; line-height: 1; font-family: &quot;Raleway Medium Alt1&quot;; font-variant-ligatures: none; text-align: center; text-anchor: middle; fill: rgb(255, 255, 255);" d="m 471.29187,108.408 c -1.15199,-1.8 -2.016,-3.888 -2.51999,-6.264 -0.50401,-2.376 -0.72001,-4.824 -0.72001,-7.416 V 68.88 h -6.48 v 25.848 c 0,3.312 0.36,6.48 1.08001,9.576 0.71999,3.096 1.94399,5.832 3.67199,8.208 1.728,2.376 3.96001,4.32 6.76801,5.688 1.94399,1.08 4.31999,1.728 6.98399,2.016 v -5.904 c -1.584,-0.288 -2.952,-0.792 -4.104,-1.44 -1.944,-1.152 -3.528,-2.592 -4.68,-4.464 z M 498.65188,68.88 v 25.848 c 0,2.52 -0.28801,4.896 -0.72001,7.272 -0.50399,2.376 -1.368,4.464 -2.52,6.336 -1.15199,1.872 -2.73599,3.312 -4.68,4.464 -1.15199,0.72 -2.51999,1.152 -4.03199,1.44 v 5.976 c 2.51999,-0.288 4.75199,-0.936 6.69599,-1.872 2.736,-1.368 5.04,-3.24 6.76801,-5.616 1.728,-2.304 2.952,-5.04 3.74399,-8.136 0.79201,-3.096 1.224,-6.408 1.224,-9.864 V 68.88 Z" transform="translate(0 326.4953846153846) translate(459.4319192307692 34.464615384615385) scale(0.7692307692307693) translate(-461.57187 -68.88)"></path> 
   <path id="path22525" style="font-style: normal; font-weight: 500; font-size: 72px; line-height: 1; font-family: &quot;Raleway Medium Alt1&quot;; font-variant-ligatures: none; text-align: center; text-anchor: middle; fill: rgb(255, 255, 255);" d="m 538.43637,75.864 -2.808,7.632 6.48001,16.488 h -12.81601 l -1.94399,5.04 h 16.19999 l 6.048,14.976 h 6.912 z m -2.808,-6.984 h -5.47199 l -20.952,51.12 h 6.624 l 17.064,-43.632 z" transform="translate(0 326.4953846153846) translate(507.61077307692307 34.464615384615385) scale(0.7692307692307693) translate(-509.20438 -68.88)"></path> 
   <path id="path22527" style="font-style: normal; font-weight: 500; font-size: 72px; line-height: 1; font-family: &quot;Raleway Medium Alt1&quot;; font-variant-ligatures: none; text-align: center; text-anchor: middle; fill: rgb(255, 255, 255);" d="M 563.40125,114.24 V 120 h 34.992 v -5.76 z m 6.48,-45.36 h -6.48 v 38.88 h 6.48 z" transform="translate(0 326.4953846153846) translate(560.8391346153846 34.464615384615385) scale(0.7692307692307693) translate(-563.40125 -68.88)"></path> 
   <path id="path22529" style="font-style: normal; font-weight: 500; font-size: 72px; line-height: 1; font-family: &quot;Raleway Medium Alt1&quot;; font-variant-ligatures: none; text-align: center; text-anchor: middle; fill: rgb(255, 255, 255);" d="m 605.44812,120 h 6.48001 V 68.88 h -6.48001 z" transform="translate(0 326.4953846153846) translate(604.7213423076925 34.464615384615385) scale(0.7692307692307693) translate(-605.44812 -68.88)"></path> 
   <path id="path22531" style="font-style: normal; font-weight: 500; font-size: 72px; line-height: 1; font-family: &quot;Raleway Medium Alt1&quot;; font-variant-ligatures: none; text-align: center; text-anchor: middle; fill: rgb(255, 255, 255);" d="m 636.89525,120 h 6.48 V 81.12 h -6.48 z m -17.64,-51.12 v 5.76 h 41.76 v -5.76 z" transform="translate(0 326.4953846153846) translate(626.8806730769232 34.464615384615385) scale(0.7692307692307693) translate(-619.25525 -68.88)"></path> 
   <path id="path22533" style="font-style: normal; font-weight: 500; font-size: 72px; line-height: 1; font-family: &quot;Raleway Medium Alt1&quot;; font-variant-ligatures: none; text-align: center; text-anchor: middle; fill: rgb(255, 255, 255);" d="m 663.1235,68.88 15.912,26.64 3.312,-5.688 -12.096,-20.952 z m 38.232,0 -15.624,26.64 -3.24,5.832 V 120 h 6.48 v -18.648 l 19.44,-32.472 z" transform="translate(0 326.4953846153846) translate(672.1639423076925 34.464615384615385) scale(0.7692307692307693) translate(-663.1235 -68.88)"></path> 
   <path id="path22535" style="font-style: normal; font-weight: 500; font-size: 72px; line-height: 1; font-family: &quot;Raleway Medium Alt1&quot;; font-variant-ligatures: none; text-align: center; text-anchor: middle; fill: rgb(197, 183, 170);" d="m 750.12987,97.248 c -0.216,1.512 -0.504,3.024 -1.00799,4.464 -0.792,2.448 -1.94401,4.608 -3.456,6.48 -1.51201,1.872 -3.384,3.456 -5.472,4.608 -2.23201,1.152 -4.68001,1.728 -7.34401,1.728 -2.664,0 -5.03999,-0.504 -7.2,-1.656 -2.16,-1.08 -4.03199,-2.592 -5.544,-4.464 -1.58399,-1.872 -2.736,-3.96 -3.6,-6.408 -0.50399,-1.512 -0.86399,-3.096 -1.07999,-4.752 h -6.55201 c 0.216,2.304 0.72001,4.608 1.584,6.768 1.08,3.168 2.73601,5.904 4.89601,8.352 2.08799,2.448 4.60799,4.392 7.55999,5.832 2.952,1.44 6.264,2.16 9.864,2.16 3.456,0 6.62401,-0.648 9.57601,-2.088 2.952,-1.44 5.47199,-3.312 7.63199,-5.688 2.16001,-2.376 3.816,-5.112 5.04001,-8.28 0.86399,-2.232 1.43999,-4.608 1.72799,-7.056 z m -33.624,-10.152 c 0.792,-2.376 1.94401,-4.464 3.456,-6.408 1.51201,-1.872 3.384,-3.384 5.54401,-4.536 2.16,-1.152 4.60799,-1.728 7.34399,-1.728 2.52,0 4.896,0.576 7.05601,1.656 2.15999,1.152 3.95999,2.592 5.544,4.464 1.58399,1.872 2.73599,3.96 3.6,6.408 0.43199,1.296 0.79199,2.664 1.00799,3.96 h 6.552 c -0.288,-1.944 -0.792,-3.96 -1.43999,-5.832 -1.15201,-3.096 -2.808,-5.832 -4.89601,-8.352 -2.16,-2.448 -4.67999,-4.392 -7.55999,-5.904 -2.952,-1.512 -6.264,-2.304 -9.79201,-2.304 -3.528,0 -6.696,0.72 -9.648,2.16 -2.952,1.44 -5.472,3.312 -7.63199,5.688 -2.16001,2.448 -3.88801,5.184 -5.11201,8.28 -0.79199,2.088 -1.368,4.176 -1.584,6.264 h 6.55201 c 0.216,-1.224 0.576,-2.52 1.00799,-3.816 z" transform="translate(0 326.4953846153846) translate(718.8949961538464 34.1876923076923) scale(0.7692307692307693) translate(-708.87387 -68.52)"></path> 
   <path id="path22537" style="font-style: normal; font-weight: 500; font-size: 72px; line-height: 1; font-family: &quot;Raleway Medium Alt1&quot;; font-variant-ligatures: none; text-align: center; text-anchor: middle; fill: rgb(197, 183, 170);" d="m 788.00525,83.856 -22.896,45.288 h 7.2 l 25.704,-51.12 h -36.288 v 5.832 z" transform="translate(0 326.4953846153846) translate(771.0883653846155 41.49846153846154) scale(0.7692307692307693) translate(-761.72525 -78.024)"></path> 
  </g> 
  <g id="tagline" style="font-style:oblique;font-weight:600;font-size:32px;line-height:1;font-family:Raleway;font-variant-ligatures:none;text-align:center;text-anchor:middle"></g> 
 </g> 
</svg>