<svg xmlns:dc="http://purl.org/dc/elements/1.1/" xmlns:cc="http://creativecommons.org/ns#" xmlns:rdf="http://www.w3.org/1999/02/22-rdf-syntax-ns#" xmlns:svg="http://www.w3.org/2000/svg" xmlns="http://www.w3.org/2000/svg" id="svg38463" viewbox="0 0 1024 768" height="768px" width="1024px" version="1.1"> <metadata id="metadata38469"> 
  <rdf:rdf> 
   <cc:work rdf:about=""> 
    <dc:format>
     image/svg+xml
    </dc:format> 
    <dc:type rdf:resource="http://purl.org/dc/dcmitype/StillImage"></dc:type> 
   </cc:work> 
  </rdf:rdf> 
 </metadata> <defs id="defs38467"></defs> <g id="logo-group"> 
  <g id="title" style="font-style:normal;font-weight:200;font-size:72px;line-height:1;font-family:Phenomena;font-variant-ligatures:none;text-align:center;text-anchor:middle" aria-label="HOTRODO7"> 
   <path id="path38471" style="font-style: normal; font-weight: 200; font-size: 72px; line-height: 1; font-family: Phenomena; font-variant-ligatures: none; text-align: center; text-anchor: middle; fill: rgb(255, 255, 255);" d="m 417.96012,69.96 v 23.688 h -18.288 V 69.96 c 0,-0.216 -0.144,-0.36 -0.36,-0.36 h -0.72 c -0.216,0 -0.36,0.144 -0.36,0.36 v 49.68 c 0,0.216 0.144,0.36 0.36,0.36 h 0.72 c 0.216,0 0.36,-0.144 0.36,-0.36 V 95.016 h 18.288 v 24.624 c 0,0.216 0.144,0.36 0.36001,0.36 h 0.71999 c 0.216,0 0.36,-0.144 0.36,-0.36 V 69.96 c 0,-0.216 -0.144,-0.36 -0.36,-0.36 h -0.71999 c -0.21601,0 -0.36001,0.144 -0.36001,0.36 z" transform="translate(0 217.43243183140407) translate(252 117.21396144023498) scale(1.9584764574746407) translate(-398.23212 -69.6)"></path> 
   <path id="path38473" style="font-style: normal; font-weight: 200; font-size: 72px; line-height: 1; font-family: Phenomena; font-variant-ligatures: none; text-align: center; text-anchor: middle; fill: rgb(255, 255, 255);" d="m 441.431,120.504 c 7.056,0 11.592,-4.896 11.592,-13.248 v -24.84 c 0,-8.424 -4.536,-13.32 -11.592,-13.32 -7.056,0 -11.592,4.896 -11.592,13.32 v 24.84 c 0,8.352 4.536,13.248 11.592,13.248 z m 0,-1.368 c -6.192,0 -10.152,-4.32 -10.152,-11.88 v -24.84 c 0,-7.632 3.96,-11.952 10.152,-11.952 6.192,0 10.152,4.32 10.152,11.952 v 24.84 c 0,7.56 -3.96,11.88 -10.152,11.88 z" transform="translate(0 217.43243183140407) translate(323.69371266159925 116.22688930566778) scale(1.9584764574746407) translate(-429.839 -69.096)"></path> 
   <path id="path38475" style="font-style: normal; font-weight: 200; font-size: 72px; line-height: 1; font-family: Phenomena; font-variant-ligatures: none; text-align: center; text-anchor: middle; fill: rgb(255, 255, 255);" d="m 478.86875,69.6 h -20.88 c -0.216,0 -0.36,0.144 -0.36,0.36 v 0.648 c 0,0.216 0.144,0.36 0.36,0.36 h 9.72 v 48.672 c 0,0.216 0.144,0.36 0.36,0.36 h 0.72 c 0.216,0 0.36,-0.144 0.36,-0.36 V 70.968 h 9.72 c 0.216,0 0.36,-0.144 0.36,-0.36 V 69.96 c 0,-0.216 -0.144,-0.36 -0.36,-0.36 z" transform="translate(0 217.43243183140407) translate(387.9116660830784 117.21396144023498) scale(1.9584764574746407) translate(-457.62875 -69.6)"></path> 
   <path id="path38477" style="font-style: normal; font-weight: 200; font-size: 72px; line-height: 1; font-family: Phenomena; font-variant-ligatures: none; text-align: center; text-anchor: middle; fill: rgb(255, 255, 255);" d="m 484.919,120 h 0.72 c 0.216,0 0.36,-0.144 0.36,-0.36 V 97.968 h 9.288 l 10.368,21.744 c 0.072,0.144 0.288,0.288 0.432,0.288 h 0.792 c 0.216,0 0.36,-0.216 0.288,-0.432 l -10.368,-21.6 c 5.04,-0.288 9.648,-5.256 9.648,-11.88 v -5.112 c 0,-6.84 -4.608,-11.88 -10.944,-11.88 -6.408,0 -10.944,5.04 -10.944,11.88 v 38.664 c 0,0.216 0.144,0.36 0.36,0.36 z m 1.08,-23.4 V 80.976 c 0,-6.192 3.96,-10.512 9.504,-10.512 5.616,0 9.504,4.32 9.504,10.512 v 5.112 c 0,6.192 -3.888,10.512 -9.504,10.512 z" transform="translate(0 217.43243183140407) translate(450.446308989358 116.22688930566778) scale(1.9584764574746407) translate(-484.559 -69.096)"></path> 
   <path id="path38479" style="font-style: normal; font-weight: 200; font-size: 72px; line-height: 1; font-family: Phenomena; font-variant-ligatures: none; text-align: center; text-anchor: middle; fill: rgb(255, 255, 255);" d="m 526.64975,120.504 c 7.056,0 11.592,-4.896 11.592,-13.248 v -24.84 c 0,-8.424 -4.536,-13.32 -11.592,-13.32 -7.056,0 -11.592,4.896 -11.592,13.32 v 24.84 c 0,8.352 4.536,13.248 11.592,13.248 z m 0,-1.368 c -6.192,0 -10.152,-4.32 -10.152,-11.88 v -24.84 c 0,-7.632 3.96,-11.952 10.152,-11.952 6.192,0 10.152,4.32 10.152,11.952 v 24.84 c 0,7.56 -3.96,11.88 -10.152,11.88 z" transform="translate(0 217.43243183140407) translate(519.969775134136 116.22688930566778) scale(1.9584764574746407) translate(-515.05775 -69.096)"></path> 
   <path id="path38481" style="font-style: normal; font-weight: 200; font-size: 72px; line-height: 1; font-family: Phenomena; font-variant-ligatures: none; text-align: center; text-anchor: middle; fill: rgb(255, 255, 255);" d="m 549.28025,120.144 h 9.432 c 6.696,0 11.376,-5.4 11.376,-11.88 V 80.328 c 0,-6.192 -4.68,-10.872 -11.376,-10.872 h -9.432 c -0.432,0 -0.72,0.288 -0.72,0.72 v 49.248 c 0,0.432 0.288,0.72 0.72,0.72 z m 0.72,-1.368 V 70.824 h 8.712 c 5.904,0 9.936,4.032 9.936,9.504 v 27.936 c 0,5.76 -4.032,10.512 -9.936,10.512 z" transform="translate(0 217.43243183140407) translate(595.3760149380532 116.93194083035866) scale(1.9584764574746407) translate(-548.56025 -69.456)"></path> 
   <path id="path38483" style="font-style: normal; font-weight: 200; font-size: 72px; line-height: 1; font-family: Phenomena; font-variant-ligatures: none; text-align: center; text-anchor: middle; fill: rgb(186, 184, 185);" d="m 590.63413,120.504 c 7.05599,0 11.592,-4.896 11.592,-13.248 v -24.84 c 0,-8.424 -4.53601,-13.32 -11.592,-13.32 -7.05601,0 -11.592,4.896 -11.592,13.32 v 24.84 c 0,8.352 4.53599,13.248 11.592,13.248 z m 0,-1.368 c -6.192,0 -10.15201,-4.32 -10.15201,-11.88 v -24.84 c 0,-7.632 3.96001,-11.952 10.15201,-11.952 6.192,0 10.15199,4.32 10.15199,11.952 v 24.84 c 0,7.56 -3.95999,11.88 -10.15199,11.88 z" transform="translate(0 217.43243183140407) translate(664.8664415849936 116.22688930566778) scale(1.9584764574746407) translate(-579.04213 -69.096)"></path> 
   <path id="path38485" style="font-style: normal; font-weight: 200; font-size: 72px; line-height: 1; font-family: Phenomena; font-variant-ligatures: none; text-align: center; text-anchor: middle; fill: rgb(186, 184, 185);" d="m 608.80062,69.96 v 0.648 c 0,0.216 0.144,0.36 0.36,0.36 h 18 l -12.168,48.6 c -0.072,0.288 0.144,0.432 0.36,0.432 h 0.72001 c 0.216,0 0.288,-0.072 0.36,-0.288 l 12.24,-48.816 c 0.072,-0.36 0.072,-0.576 0.072,-0.864 0,-0.288 -0.216,-0.432 -0.432,-0.432 h -19.15201 c -0.216,0 -0.36,0.144 -0.36,0.36 z" transform="translate(0 217.43243183140407) translate(732.9401259473613 117.21396144023498) scale(1.9584764574746407) translate(-608.80062 -69.6)"></path> 
  </g> 
  <g id="tagline" style="font-style:oblique;font-weight:300;font-size:32px;line-height:1;font-family:'Fira Sans Condensed';font-variant-ligatures:none;text-align:center;text-anchor:middle"></g> 
 </g> 
</svg>