<svg xmlns:dc="http://purl.org/dc/elements/1.1/" xmlns:cc="http://creativecommons.org/ns#" xmlns:rdf="http://www.w3.org/1999/02/22-rdf-syntax-ns#" xmlns:svg="http://www.w3.org/2000/svg" xmlns="http://www.w3.org/2000/svg" id="svg586995" viewbox="0 0 1024 768" height="768px" width="1024px" version="1.1"> <metadata id="metadata587001"> 
  <rdf:rdf> 
   <cc:work rdf:about=""> 
    <dc:format>
     image/svg+xml
    </dc:format> 
    <dc:type rdf:resource="http://purl.org/dc/dcmitype/StillImage"></dc:type> 
   </cc:work> 
  </rdf:rdf> 
 </metadata> <defs id="defs586999"></defs> <g id="logo-group"> 
  <g id="title" style="font-style:normal;font-weight:400;font-size:72px;line-height:1;font-family:Teko;font-variant-ligatures:none;text-align:center;text-anchor:middle" aria-label="Howtoo7"> 
   <path id="path587003" style="font-style: normal; font-weight: 400; font-size: 72px; line-height: 1; font-family: Teko; font-variant-ligatures: none; text-align: center; text-anchor: middle; fill: rgb(25, 122, 60);" d="m 438.9875,74.928 h 6.48 V 120 h -6.48 v -19.8 h -9.576 V 120 h -6.48 V 74.928 h 6.48 v 20.016 h 9.576 z" transform="translate(0 129.72286394519784) translate(252.00000000000006 189.71825332752826) scale(2.8647001565173) translate(-422.9315 -74.928)"></path> 
   <path id="path587005" style="font-style: normal; font-weight: 400; font-size: 72px; line-height: 1; font-family: Teko; font-variant-ligatures: none; text-align: center; text-anchor: middle; fill: rgb(25, 122, 60);" d="m 458.71325,84.864 h 7.704 q 6.696,0 6.696,6.408 v 22.392 q 0,6.336 -6.696,6.336 h -7.704 q -6.624,0 -6.624,-6.336 V 91.272 q 0,-6.408 6.624,-6.408 z m 7.992,27.864 V 92.136 q 0,-1.296 -0.432,-1.728 -0.432,-0.432 -1.728,-0.432 h -3.96 q -1.296,0 -1.728,0.432 -0.36,0.432 -0.36,1.728 v 20.592 q 0,1.296 0.36,1.728 0.432,0.432 1.728,0.432 h 3.96 q 1.296,0 1.728,-0.432 0.432,-0.432 0.432,-1.728 z" transform="translate(0 129.72286394519784) translate(335.5282109886923 218.18191408268416) scale(2.8647001565173) translate(-452.08925 -84.864)"></path> 
   <path id="path587007" style="font-style: normal; font-weight: 400; font-size: 72px; line-height: 1; font-family: Teko; font-variant-ligatures: none; text-align: center; text-anchor: middle; fill: rgb(25, 122, 60);" d="m 508.47537,84.864 h 6.12 l -6.48,35.136 h -8.568 l -4.176,-26.568 -4.17599,26.568 h -8.56801 l -6.40799,-35.136 h 6.12 l 4.68,29.592 4.536,-29.592 h 7.70399 l 4.39201,29.592 z" transform="translate(0 129.72286394519784) translate(404.65379817647516 218.18191408268416) scale(2.8647001565173) translate(-476.21938 -84.864)"></path> 
   <path id="path587009" style="font-style: normal; font-weight: 400; font-size: 72px; line-height: 1; font-family: Teko; font-variant-ligatures: none; text-align: center; text-anchor: middle; fill: rgb(25, 122, 60);" d="m 530.00112,90.12 h -4.82399 v 22.248 q 0,1.296 0.35999,1.728 0.432,0.36 1.728,0.36 h 2.736 V 120 h -4.60799 q -6.768,0 -6.768,-6.336 V 90.12 h -3.312 v -5.256 h 3.312 v -5.976 h 6.552 v 5.976 h 4.82399 z" transform="translate(0 129.72286394519784) translate(516.6456699203234 201.06246594733682) scale(2.8647001565173) translate(-515.31313 -78.888)"></path> 
   <path id="path587011" style="font-style: normal; font-weight: 400; font-size: 72px; line-height: 1; font-family: Teko; font-variant-ligatures: none; text-align: center; text-anchor: middle; fill: rgb(25, 122, 60);" d="m 540.13513,84.864 h 7.70399 q 6.696,0 6.696,6.408 v 22.392 q 0,6.336 -6.696,6.336 h -7.70399 q -6.62401,0 -6.62401,-6.336 V 91.272 q 0,-6.408 6.62401,-6.408 z m 7.99199,27.864 V 92.136 q 0,-1.296 -0.432,-1.728 -0.432,-0.432 -1.728,-0.432 h -3.96 q -1.29599,0 -1.72799,0.432 -0.36001,0.432 -0.36001,1.728 v 20.592 q 0,1.296 0.36001,1.728 0.432,0.432 1.72799,0.432 h 3.96 q 1.296,0 1.728,-0.432 0.432,-0.432 0.432,-1.728 z" transform="translate(0 129.72286394519784) translate(568.7774547216236 218.18191408268416) scale(2.8647001565173) translate(-533.51112 -84.864)"></path> 
   <path id="path587013" style="font-style: normal; font-weight: 400; font-size: 72px; line-height: 1; font-family: Teko; font-variant-ligatures: none; text-align: center; text-anchor: middle; fill: rgb(141, 236, 176);" d="m 566.71325,84.864 h 7.704 q 6.696,0 6.696,6.408 v 22.392 q 0,6.336 -6.696,6.336 h -7.704 q -6.624,0 -6.624,-6.336 V 91.272 q 0,-6.408 6.624,-6.408 z m 7.992,27.864 V 92.136 q 0,-1.296 -0.432,-1.728 -0.432,-0.432 -1.728,-0.432 h -3.96 q -1.296,0 -1.728,0.432 -0.36,0.432 -0.36,1.728 v 20.592 q 0,1.296 0.36,1.728 0.432,0.432 1.728,0.432 h 3.96 q 1.296,0 1.728,-0.432 0.432,-0.432 0.432,-1.728 z" transform="translate(0 129.72286394519784) translate(644.9158278925607 218.18191408268416) scale(2.8647001565173) translate(-560.08925 -84.864)"></path> 
   <path id="path587015" style="font-style: normal; font-weight: 400; font-size: 72px; line-height: 1; font-family: Teko; font-variant-ligatures: none; text-align: center; text-anchor: middle; fill: rgb(141, 236, 176);" d="m 604.45137,74.928 v 4.032 l -12.096,41.04 h -6.624 l 11.736,-39.672 h -13.17599 v -5.4 z" transform="translate(0 129.72286394519784) translate(714.2476734916129 189.71825332752826) scale(2.8647001565173) translate(-584.29138 -74.928)"></path> 
  </g> 
  <g id="tagline" style="font-style:oblique;font-weight:normal;font-size:32px;line-height:1;font-family:'Fira Sans Condensed';font-variant-ligatures:none;text-align:center;text-anchor:middle"></g> 
 </g> 
</svg>