<svg xmlns:dc="http://purl.org/dc/elements/1.1/" xmlns:cc="http://creativecommons.org/ns#" xmlns:rdf="http://www.w3.org/1999/02/22-rdf-syntax-ns#" xmlns:svg="http://www.w3.org/2000/svg" xmlns="http://www.w3.org/2000/svg" id="svg940972" viewbox="0 0 1024 768" height="768px" width="1024px" version="1.1"> <metadata id="metadata940978"> 
  <rdf:rdf> 
   <cc:work rdf:about=""> 
    <dc:format>
     image/svg+xml
    </dc:format> 
    <dc:type rdf:resource="http://purl.org/dc/dcmitype/StillImage"></dc:type> 
   </cc:work> 
  </rdf:rdf> 
 </metadata> <defs id="defs940976"></defs> <g id="logo-group"> 
  <g id="title" style="font-style:normal;font-weight:800;font-size:72px;line-height:1;font-family:'Montserrat ExtraBold Alt1';font-variant-ligatures:none;text-align:center;text-anchor:middle" aria-label="Inciteo7"> 
   <path id="path940980" style="font-style: normal; font-weight: 800; font-size: 72px; line-height: 1; font-family: &quot;Montserrat ExtraBold Alt1&quot;; font-variant-ligatures: none; text-align: center; text-anchor: middle; fill: rgb(39, 39, 39);" d="M 361.86031,69.6 V 120 h 14.256 V 69.6 Z" transform="translate(0 249.5309534917295) translate(252 99.53213259986458) scale(1.604082364940583) translate(-361.86031 -69.6)"></path> 
   <path id="path940982" style="font-style: normal; font-weight: 800; font-size: 72px; line-height: 1; font-family: &quot;Montserrat ExtraBold Alt1&quot;; font-variant-ligatures: none; text-align: center; text-anchor: middle; fill: rgb(39, 39, 39);" d="m 422.76106,84.648 c -2.952,-2.88 -6.84,-4.32 -11.664,-4.32 -2.52,0 -4.824,0.432 -6.912,1.296 -2.16,0.864 -3.96,2.016 -5.472,3.6 v -4.248 h -13.032 V 120 h 13.68 v -18.864 c 0,-3.024 0.648,-5.328 2.088,-6.912 1.44,-1.512 3.312,-2.304 5.688,-2.304 4.248,0 6.408,2.664 6.408,7.992 V 120 h 13.68 V 97.68 c 0,-5.76 -1.512,-10.152 -4.464,-13.032 z" transform="translate(0 249.5309534917295) translate(295.0226920894802 116.74072821094717) scale(1.604082364940583) translate(-385.68106 -80.328)"></path> 
   <path id="path940984" style="font-style: normal; font-weight: 800; font-size: 72px; line-height: 1; font-family: &quot;Montserrat ExtraBold Alt1&quot;; font-variant-ligatures: none; text-align: center; text-anchor: middle; fill: rgb(39, 39, 39);" d="m 444.65806,118.056 c 3.384,1.728 7.272,2.592 11.592,2.592 4.392,0 8.208,-0.936 11.448,-2.808 3.168,-1.872 5.472,-4.536 6.84,-7.92 l -10.584,-5.4 c -1.8,3.528 -4.392,5.256 -7.776,5.256 -2.448,0 -4.536,-0.792 -6.12,-2.448 -1.584,-1.656 -2.376,-3.96 -2.376,-6.912 0,-2.88 0.792,-5.112 2.376,-6.768 1.584,-1.584 3.672,-2.448 6.12,-2.448 3.384,0 5.976,1.8 7.776,5.256 l 10.584,-5.4 c -1.368,-3.312 -3.672,-5.976 -6.84,-7.848 -3.24,-1.872 -7.056,-2.88 -11.448,-2.88 -4.32,0 -8.208,0.864 -11.592,2.592 -3.456,1.728 -6.12,4.104 -7.992,7.128 -1.872,3.024 -2.808,6.48 -2.808,10.368 0,3.888 0.936,7.416 2.808,10.44 1.872,3.096 4.536,5.472 7.992,7.2 z" transform="translate(0 249.5309534917295) translate(377.11481528004447 116.74072821094717) scale(1.604082364940583) translate(-433.85806 -80.328)"></path> 
   <path id="path940986" style="font-style: normal; font-weight: 800; font-size: 72px; line-height: 1; font-family: &quot;Montserrat ExtraBold Alt1&quot;; font-variant-ligatures: none; text-align: center; text-anchor: middle; fill: rgb(39, 39, 39);" d="M 479.75919,80.976 V 120 h 13.68 V 80.976 Z m 0.792,-6.408 c 1.512,1.44 3.528,2.088 6.048,2.088 2.448,0 4.464,-0.648 6.048,-2.088 1.512,-1.44 2.304,-3.24 2.304,-5.4 0,-2.016 -0.792,-3.744 -2.304,-5.04 -1.584,-1.296 -3.6,-2.016 -6.048,-2.016 -2.52,0 -4.536,0.72 -6.048,2.088 -1.584,1.44 -2.304,3.168 -2.304,5.184 0,2.088 0.72,3.816 2.304,5.184 z" transform="translate(0 249.5309534917295) translate(453.1308830029211 87.52076385118951) scale(1.604082364940583) translate(-478.24719 -62.112)"></path> 
   <path id="path940988" style="font-style: normal; font-weight: 800; font-size: 72px; line-height: 1; font-family: &quot;Montserrat ExtraBold Alt1&quot;; font-variant-ligatures: none; text-align: center; text-anchor: middle; fill: rgb(39, 39, 39);" d="m 529.18719,118.416 -3.384,-9.576 c -1.224,0.864 -2.592,1.224 -4.176,1.224 -1.296,0 -2.304,-0.36 -3.024,-1.152 -0.72,-0.792 -1.08,-1.872 -1.08,-3.312 V 92.64 h 8.928 V 82.416 h -8.928 V 72.264 h -13.68 v 10.152 h -5.688 V 92.64 h 5.688 v 13.104 c 0,4.968 1.368,8.712 4.104,11.16 2.736,2.52 6.624,3.744 11.736,3.744 1.872,0 3.6,-0.144 5.256,-0.576 1.656,-0.36 3.096,-0.936 4.248,-1.656 z" transform="translate(0 249.5309534917295) translate(489.87720181898 103.8054080200663) scale(1.604082364940583) translate(-498.15519 -72.264)"></path> 
   <path id="path940990" style="font-style: normal; font-weight: 800; font-size: 72px; line-height: 1; font-family: &quot;Montserrat ExtraBold Alt1&quot;; font-variant-ligatures: none; text-align: center; text-anchor: middle; fill: rgb(39, 39, 39);" d="m 573.00931,103.944 c 0.144,-2.16 0.216,-3.24 0.216,-3.384 0,-4.176 -0.936,-7.776 -2.808,-10.8 -1.872,-3.024 -4.32,-5.4 -7.488,-6.984 -3.168,-1.584 -6.696,-2.448 -10.584,-2.448 -4.104,0 -7.776,0.864 -11.016,2.592 -3.312,1.728 -5.832,4.176 -7.704,7.2 -1.872,3.024 -2.736,6.48 -2.736,10.296 0,3.888 0.936,7.416 2.808,10.44 1.872,3.096 4.608,5.472 8.064,7.2 3.456,1.728 7.416,2.592 12.024,2.592 7.272,0 12.816,-2.088 16.632,-6.336 l -7.2,-7.488 c -1.44,1.224 -2.808,2.088 -4.176,2.592 -1.368,0.576 -2.952,0.792 -4.824,0.792 -2.52,0 -4.608,-0.504 -6.264,-1.584 -1.656,-1.08 -2.736,-2.664 -3.312,-4.68 z m -25.92,-12.096 c 1.44,-1.152 3.168,-1.8 5.328,-1.8 2.088,0 3.816,0.648 5.256,1.8 1.44,1.224 2.304,2.88 2.736,4.896 h -15.984 c 0.36,-2.016 1.224,-3.672 2.664,-4.896 z" transform="translate(0 249.5309534917295) translate(547.1976735376506 116.74072821094717) scale(1.604082364940583) translate(-530.88931 -80.328)"></path> 
   <path id="path940992" style="font-style: normal; font-weight: 800; font-size: 72px; line-height: 1; font-family: &quot;Montserrat ExtraBold Alt1&quot;; font-variant-ligatures: none; text-align: center; text-anchor: middle; fill: rgb(27, 27, 27);" d="m 587.88294,118.056 c 3.312,1.728 7.128,2.592 11.304,2.592 4.176,0 7.992,-0.864 11.376,-2.592 3.312,-1.728 5.976,-4.104 7.848,-7.2 1.872,-3.024 2.808,-6.552 2.808,-10.44 0,-3.888 -0.936,-7.344 -2.808,-10.368 -1.872,-3.024 -4.536,-5.4 -7.848,-7.128 -3.384,-1.728 -7.2,-2.592 -11.376,-2.592 -4.248,0 -8.064,0.864 -11.376,2.592 -3.312,1.728 -5.976,4.104 -7.848,7.128 -1.872,3.096 -2.808,6.552 -2.808,10.368 0,3.888 0.936,7.416 2.808,10.44 1.872,3.096 4.536,5.472 7.92,7.2 z m 17.208,-10.728 c -1.584,1.656 -3.528,2.448 -5.904,2.448 -2.448,0 -4.392,-0.792 -5.904,-2.448 -1.584,-1.656 -2.304,-3.96 -2.304,-6.912 0,-2.88 0.72,-5.112 2.304,-6.768 1.512,-1.584 3.456,-2.448 5.904,-2.448 2.376,0 4.32,0.864 5.904,2.448 1.512,1.656 2.304,3.888 2.304,6.768 0,2.952 -0.792,5.256 -2.304,6.912 z" transform="translate(0 249.5309534917295) translate(626.2238018183383 116.74072821094717) scale(1.604082364940583) translate(-577.15494 -80.328)"></path> 
   <path id="path940994" style="font-style: normal; font-weight: 800; font-size: 72px; line-height: 1; font-family: &quot;Montserrat ExtraBold Alt1&quot;; font-variant-ligatures: none; text-align: center; text-anchor: middle; fill: rgb(27, 27, 27);" d="m 665.03319,69.6 h -41.76 v 19.08 h 12.168 v -7.776 h 13.248 L 631.69719,120 h 15.552 l 17.784,-41.472 z" transform="translate(0 249.5309534917295) translate(705.0135204400812 99.53213259986458) scale(1.604082364940583) translate(-623.27319 -69.6)"></path> 
  </g> 
  <g id="tagline" style="font-style:normal;font-weight:500;font-size:32px;line-height:1;font-family:Montserrat;font-variant-ligatures:none;text-align:center;text-anchor:middle"></g> 
 </g> 
</svg>