<svg xmlns:dc="http://purl.org/dc/elements/1.1/" xmlns:cc="http://creativecommons.org/ns#" xmlns:rdf="http://www.w3.org/1999/02/22-rdf-syntax-ns#" xmlns:svg="http://www.w3.org/2000/svg" xmlns="http://www.w3.org/2000/svg" id="svg511569" viewbox="0 0 1024 768" height="768px" width="1024px" version="1.1"> <metadata id="metadata511575"> 
  <rdf:rdf> 
   <cc:work rdf:about=""> 
    <dc:format>
     image/svg+xml
    </dc:format> 
    <dc:type rdf:resource="http://purl.org/dc/dcmitype/StillImage"></dc:type> 
   </cc:work> 
  </rdf:rdf> 
 </metadata> <defs id="defs511573"></defs> <g id="logo-group"> 
  <g id="title" style="font-style:normal;font-weight:700;font-size:72px;line-height:1;font-family:'Comfortaa Bold Alt2';font-variant-ligatures:none;text-align:center;text-anchor:middle" aria-label="INFORMO7"> 
   <path id="path511577" style="font-style: normal; font-weight: 700; font-size: 72px; line-height: 1; font-family: &quot;Comfortaa Bold Alt2&quot;; font-variant-ligatures: none; text-align: center; text-anchor: middle; fill: rgb(157, 162, 165);" d="m 314.54562,64.848 c -0.72,0.72 -1.08,1.584 -1.08,2.664 v 48.744 c 0,1.08 0.36,1.944 1.08,2.664 0.72,0.72 1.584,1.08 2.66401,1.08 1.07999,0 1.94399,-0.36 2.66399,-1.08 0.72,-0.72 1.08,-1.584 1.08,-2.664 V 67.512 c 0,-1.08 -0.36,-1.944 -1.08,-2.664 -0.72,-0.72 -1.584,-1.08 -2.66399,-1.08 -1.08001,0 -1.94401,0.36 -2.66401,1.08 z" transform="translate(0 282.076) translate(247.55140000000006 66.73400000000001) scale(1.25) translate(-313.46562 -63.768)"></path> 
   <path id="path511579" style="font-style: normal; font-weight: 700; font-size: 72px; line-height: 1; font-family: &quot;Comfortaa Bold Alt2&quot;; font-variant-ligatures: none; text-align: center; text-anchor: middle; fill: rgb(157, 162, 165);" d="m 374.42712,64.848 c -0.71999,0.72 -1.08,1.584 -1.08,2.664 v 39.384 l -31.392,-41.76 c -0.36,-0.36 -0.792,-0.648 -1.29599,-0.936 -0.57601,-0.288 -1.08001,-0.432 -1.584,-0.432 -1.08,0 -1.94401,0.36 -2.664,1.08 -0.72001,0.72 -1.00801,1.584 -1.00801,2.664 v 48.744 c 0,1.152 0.288,2.016 1.00801,2.736 0.71999,0.72 1.584,1.008 2.664,1.008 1.07999,0 1.94399,-0.36 2.66399,-1.08 0.72,-0.72 1.08,-1.584 1.08,-2.664 V 76.944 l 31.392,41.76 c 0.288,0.432 0.648,0.792 1.224,1.008 0.576,0.216 1.08,0.288 1.65601,0.288 1.008,0 1.87199,-0.288 2.592,-1.008 0.71999,-0.72 1.07999,-1.584 1.07999,-2.736 V 67.512 c 0,-1.08 -0.36,-1.944 -1.07999,-2.664 -0.72001,-0.72 -1.584,-1.08 -2.592,-1.08 -1.08001,0 -1.944,0.36 -2.66401,1.08 z" transform="translate(0 282.076) translate(278.72327500000006 66.73400000000001) scale(1.25) translate(-335.40312 -63.768)"></path> 
   <path id="path511581" style="font-style: normal; font-weight: 700; font-size: 72px; line-height: 1; font-family: &quot;Comfortaa Bold Alt2&quot;; font-variant-ligatures: none; text-align: center; text-anchor: middle; fill: rgb(157, 162, 165);" d="m 421.37675,89.184 c -0.72,-0.648 -1.584,-1.008 -2.592,-1.008 h -20.664 V 70.68 h 28.8 c 1.08,0 1.944,-0.288 2.664,-0.936 0.648,-0.576 1.008,-1.44 1.008,-2.448 0,-1.008 -0.36,-1.872 -1.008,-2.52 -0.72,-0.648 -1.584,-1.008 -2.664,-1.008 h -32.544 c -1.08,0 -1.944,0.36 -2.664,1.08 -0.72,0.72 -1.08,1.584 -1.08,2.664 v 48.744 c 0,1.08 0.36,1.944 1.08,2.664 0.72,0.72 1.584,1.08 2.664,1.08 1.008,0 1.944,-0.36 2.664,-1.08 0.72,-0.72 1.08,-1.584 1.08,-2.664 V 95.088 h 20.664 c 1.008,0 1.872,-0.288 2.592,-0.936 0.72,-0.648 1.08,-1.512 1.08,-2.52 0,-1.008 -0.36,-1.8 -1.08,-2.448 z" transform="translate(0 282.076) translate(351.5103125 66.73400000000001) scale(1.25) translate(-390.63275 -63.768)"></path> 
   <path id="path511583" style="font-style: normal; font-weight: 700; font-size: 72px; line-height: 1; font-family: &quot;Comfortaa Bold Alt2&quot;; font-variant-ligatures: none; text-align: center; text-anchor: middle; fill: rgb(157, 162, 165);" d="m 466.16075,120.864 c 3.888,0 7.632,-0.792 11.232,-2.304 3.456,-1.44 6.552,-3.528 9.216,-6.192 2.664,-2.664 4.752,-5.688 6.192,-9.216 1.512,-3.528 2.304,-7.272 2.304,-11.232 0,-3.96 -0.792,-7.704 -2.304,-11.304 -1.44,-3.456 -3.528,-6.48 -6.192,-9.144 -2.664,-2.664 -5.76,-4.752 -9.216,-6.192 -3.6,-1.512 -7.344,-2.304 -11.232,-2.304 -3.96,0 -7.704,0.792 -11.304,2.304 -3.456,1.44 -6.552,3.528 -9.216,6.192 -2.664,2.664 -4.752,5.688 -6.192,9.144 -1.512,3.6 -2.232,7.344 -2.232,11.304 0,3.96 0.72,7.704 2.232,11.232 1.44,3.528 3.528,6.552 6.192,9.216 2.664,2.664 5.76,4.752 9.216,6.192 3.6,1.512 7.344,2.304 11.304,2.304 z m 0,-50.688 c 5.976,0 11.088,2.088 15.336,6.336 4.248,4.248 6.408,9.432 6.408,15.408 0,5.976 -2.16,11.088 -6.408,15.336 -4.248,4.248 -9.36,6.408 -15.336,6.408 -6.048,0 -11.16,-2.16 -15.408,-6.408 -4.248,-4.176 -6.336,-9.36 -6.336,-15.336 0,-5.976 2.088,-11.16 6.336,-15.408 4.248,-4.248 9.36,-6.336 15.408,-6.336 z" transform="translate(0 282.076) translate(413.4903125 65.744) scale(1.25) translate(-437.21675 -62.976)"></path> 
   <path id="path511585" style="font-style: normal; font-weight: 700; font-size: 72px; line-height: 1; font-family: &quot;Comfortaa Bold Alt2&quot;; font-variant-ligatures: none; text-align: center; text-anchor: middle; fill: rgb(157, 162, 165);" d="m 540.16775,120.144 c 0.72,0 1.368,-0.216 2.016,-0.648 0.792,-0.576 1.296,-1.368 1.512,-2.376 0.144,-0.936 0,-1.872 -0.576,-2.664 l -11.88,-17.136 c 2.52,-1.08 4.608,-2.664 6.408,-4.752 2.808,-3.24 4.176,-7.056 4.176,-11.304 0,-4.824 -1.728,-8.928 -5.112,-12.384 -3.456,-3.384 -7.56,-5.112 -12.384,-5.112 h -14.04 c -1.008,0 -1.8,0.36 -2.52,1.08 -0.72,0.72 -1.08,1.512 -1.08,2.52 v 49.104 c 0,1.008 0.36,1.872 1.08,2.52 0.72,0.72 1.512,1.08 2.52,1.08 1.008,0 1.872,-0.36 2.52,-1.08 0.72,-0.648 1.08,-1.512 1.08,-2.52 V 70.968 h 10.44 c 2.808,0 5.256,1.008 7.272,3.024 2.016,2.016 3.024,4.392 3.024,7.272 0,2.52 -0.864,4.752 -2.448,6.624 -1.584,1.872 -3.6,3.024 -5.976,3.456 l -1.296,0.144 c -1.368,0.144 -2.376,0.864 -2.88,2.088 -0.648,1.224 -0.504,2.448 0.288,3.528 l 14.904,21.456 c 0.648,1.008 1.656,1.584 2.952,1.584 z" transform="translate(0 282.076) translate(504.0790625000001 66.73400000000001) scale(1.25) translate(-506.68775 -63.768)"></path> 
   <path id="path511587" style="font-style: normal; font-weight: 700; font-size: 72px; line-height: 1; font-family: &quot;Comfortaa Bold Alt2&quot;; font-variant-ligatures: none; text-align: center; text-anchor: middle; fill: rgb(157, 162, 165);" d="m 607.33025,64.848 c -0.72,-0.72 -1.656,-1.08 -2.664,-1.08 -1.44,0 -2.592,0.72 -3.312,2.016 l -20.808,42.84 -21.384,-42.84 c -0.792,-1.296 -1.872,-2.016 -3.312,-2.016 -1.08,0 -1.944,0.36 -2.664,1.08 -0.72,0.72 -1.08,1.656 -1.08,2.664 v 48.744 c 0,1.08 0.36,1.944 1.08,2.664 0.72,0.72 1.584,1.08 2.664,1.08 1.008,0 1.944,-0.36 2.664,-1.08 0.72,-0.72 1.08,-1.584 1.08,-2.664 V 81.12 l 17.208,34.488 c 0.72,1.512 1.872,2.232 3.456,2.232 1.296,0 2.376,-0.576 3.24,-1.872 l 17.424,-35.496 v 35.784 c 0,1.08 0.36,1.944 1.08,2.664 0.72,0.72 1.584,1.08 2.664,1.08 1.008,0 1.872,-0.36 2.592,-1.08 0.72,-0.72 1.152,-1.584 1.152,-2.664 V 67.512 c 0,-1.008 -0.36,-1.944 -1.08,-2.664 z" transform="translate(0 282.076) translate(564.6021875 66.73400000000001) scale(1.25) translate(-552.10625 -63.768)"></path> 
   <path id="path511589" style="font-style: normal; font-weight: 700; font-size: 72px; line-height: 1; font-family: &quot;Comfortaa Bold Alt2&quot;; font-variant-ligatures: none; text-align: center; text-anchor: middle; fill: rgb(112, 102, 103);" d="m 648.83262,120.864 c 3.88801,0 7.632,-0.792 11.232,-2.304 3.456,-1.44 6.552,-3.528 9.216,-6.192 2.664,-2.664 4.75201,-5.688 6.192,-9.216 1.51201,-3.528 2.304,-7.272 2.304,-11.232 0,-3.96 -0.79199,-7.704 -2.304,-11.304 -1.43999,-3.456 -3.528,-6.48 -6.192,-9.144 -2.664,-2.664 -5.76,-4.752 -9.216,-6.192 -3.6,-1.512 -7.34399,-2.304 -11.232,-2.304 -3.96,0 -7.70399,0.792 -11.30399,2.304 -3.456,1.44 -6.552,3.528 -9.216,6.192 -2.664,2.664 -4.75201,5.688 -6.192,9.144 -1.51201,3.6 -2.232,7.344 -2.232,11.304 0,3.96 0.71999,7.704 2.232,11.232 1.43999,3.528 3.528,6.552 6.192,9.216 2.664,2.664 5.76,4.752 9.216,6.192 3.6,1.512 7.34399,2.304 11.30399,2.304 z m 0,-50.688 c 5.976,0 11.088,2.088 15.33601,6.336 4.24799,4.248 6.408,9.432 6.408,15.408 0,5.976 -2.16001,11.088 -6.408,15.336 -4.24801,4.248 -9.36001,6.408 -15.33601,6.408 -6.048,0 -11.15999,-2.16 -15.408,-6.408 -4.248,-4.176 -6.336,-9.36 -6.336,-15.336 0,-5.976 2.088,-11.16 6.336,-15.408 4.24801,-4.248 9.36,-6.336 15.408,-6.336 z" transform="translate(0 282.076) translate(653.0801625 65.744) scale(1.25) translate(-619.88863 -62.976)"></path> 
   <path id="path511591" style="font-style: normal; font-weight: 700; font-size: 72px; line-height: 1; font-family: &quot;Comfortaa Bold Alt2&quot;; font-variant-ligatures: none; text-align: center; text-anchor: middle; fill: rgb(112, 102, 103);" d="m 681.81538,70.104 c 0.72,0.72 1.58399,1.008 2.66399,1.008 h 21.88801 l -20.664,42.912 c -0.432,0.864 -0.648,1.656 -0.648,2.304 0,1.008 0.36,1.872 1.07999,2.592 0.72,0.72 1.512,1.08 2.52001,1.08 0.64799,0 1.29599,-0.144 1.94399,-0.504 0.57601,-0.36 1.08001,-0.864 1.44,-1.512 l 23.04001,-48.6 c 0.288,-0.72 0.504,-1.368 0.504,-1.944 0,-1.008 -0.36,-1.872 -1.08001,-2.592 -0.72,-0.72 -1.584,-1.08 -2.59199,-1.08 h -27.43201 c -1.08,0 -1.94399,0.36 -2.66399,1.08 -0.72001,0.72 -1.00801,1.584 -1.00801,2.592 0,1.08 0.288,1.944 1.00801,2.664 z" transform="translate(0 282.076) translate(732.9785874999999 66.73400000000001) scale(1.25) translate(-680.80737 -63.768)"></path> 
  </g> 
  <g id="tagline" style="font-style:normal;font-weight:500;font-size:32px;line-height:1;font-family:Raleway;font-variant-ligatures:none;text-align:center;text-anchor:middle"></g> 
 </g> 
</svg>