<svg xmlns:dc="http://purl.org/dc/elements/1.1/" xmlns:cc="http://creativecommons.org/ns#" xmlns:rdf="http://www.w3.org/1999/02/22-rdf-syntax-ns#" xmlns:svg="http://www.w3.org/2000/svg" xmlns="http://www.w3.org/2000/svg" id="svg365308" viewbox="0 0 1024 768" height="768px" width="1024px" version="1.1"> <metadata id="metadata365314"> 
  <rdf:rdf> 
   <cc:work rdf:about=""> 
    <dc:format>
     image/svg+xml
    </dc:format> 
    <dc:type rdf:resource="http://purl.org/dc/dcmitype/StillImage"></dc:type> 
   </cc:work> 
  </rdf:rdf> 
 </metadata> <defs id="defs365312"></defs> <g id="logo-group"> 
  <g id="title" style="font-style:normal;font-weight:200;font-size:72px;line-height:1;font-family:Montserrat;font-variant-ligatures:none;text-align:center;text-anchor:middle" aria-label="Inorganico7"> 
   <path id="path365316" style="font-style: normal; font-weight: 200; font-size: 72px; line-height: 1; font-family: Montserrat; font-variant-ligatures: none; text-align: center; text-anchor: middle; fill: rgb(175, 175, 175);" d="m 318.57537,69.672 h 1.44 V 120 h -1.44 z" transform="translate(0 284.4812689194383) translate(251.99999999999994 61.886206794783874) scale(1.1706023480707295) translate(-318.57537 -69.672)"></path> 
   <path id="path365318" style="font-style: normal; font-weight: 200; font-size: 72px; line-height: 1; font-family: Montserrat; font-variant-ligatures: none; text-align: center; text-anchor: middle; fill: rgb(175, 175, 175);" d="m 354.2435,82.776 q 6.912,0 10.728,3.888 3.888,3.888 3.888,10.8 V 120 h -1.44 V 97.464 q 0,-6.264 -3.528,-9.72 -3.456,-3.528 -9.648,-3.528 -6.912,0.144 -11.016,4.248 -4.104,4.104 -4.68,11.304 V 120 h -1.44 V 82.776 h 1.44 v 10.512 q 1.8,-4.968 5.832,-7.704 4.032,-2.736 9.864,-2.808 z" transform="translate(0 284.4812689194383) translate(279.5467666331056 77.22577996390271) scale(1.1706023480707295) translate(-337.1075 -82.776)"></path> 
   <path id="path365320" style="font-style: normal; font-weight: 200; font-size: 72px; line-height: 1; font-family: Montserrat; font-variant-ligatures: none; text-align: center; text-anchor: middle; fill: rgb(175, 175, 175);" d="m 397.40975,82.776 q 5.112,0 9.216,2.376 4.176,2.376 6.48,6.624 2.376,4.248 2.376,9.576 0,5.328 -2.376,9.576 -2.304,4.248 -6.48,6.696 -4.104,2.376 -9.216,2.376 -5.112,0 -9.288,-2.376 -4.104,-2.448 -6.48,-6.696 -2.304,-4.248 -2.304,-9.576 0,-5.328 2.304,-9.576 2.376,-4.248 6.48,-6.624 4.176,-2.376 9.288,-2.376 z m 0,1.44 q -4.752,0 -8.568,2.232 -3.816,2.16 -5.976,6.048 -2.088,3.888 -2.088,8.856 0,4.968 2.088,8.928 2.16,3.888 5.976,6.12 3.816,2.16 8.568,2.16 4.752,0 8.568,-2.16 3.816,-2.232 5.904,-6.12 2.16,-3.96 2.16,-8.928 0,-4.968 -2.16,-8.856 -2.088,-3.888 -5.904,-6.048 -3.816,-2.232 -8.568,-2.232 z" transform="translate(0 284.4812689194383) translate(334.83460818307316 77.22577996390271) scale(1.1706023480707295) translate(-379.33775 -82.776)"></path> 
   <path id="path365322" style="font-style: normal; font-weight: 200; font-size: 72px; line-height: 1; font-family: Montserrat; font-variant-ligatures: none; text-align: center; text-anchor: middle; fill: rgb(175, 175, 175);" d="m 428.5475,92.928 q 1.656,-4.752 5.328,-7.416 3.672,-2.664 8.928,-2.736 v 1.44 q -6.336,0.144 -10.08,4.248 -3.672,4.032 -4.176,11.16 V 120 h -1.44 V 82.776 h 1.44 z" transform="translate(0 284.4812689194383) translate(396.60700144017846 77.22577996390271) scale(1.1706023480707295) translate(-427.1075 -82.776)"></path> 
   <path id="path365324" style="font-style: normal; font-weight: 200; font-size: 72px; line-height: 1; font-family: Montserrat; font-variant-ligatures: none; text-align: center; text-anchor: middle; fill: rgb(175, 175, 175);" d="m 482.10762,82.776 v 33.048 q 0,5.472 -2.23199,9.576 -2.16001,4.104 -6.19201,6.336 -3.96,2.232 -9.288,2.232 -4.392,0 -8.064,-1.656 -3.6,-1.584 -6.912,-4.824 l 1.008,-1.008 q 3.024,3.024 6.408,4.536 3.456,1.512 7.56,1.512 4.896,0 8.568,-2.088 3.672,-2.016 5.688,-5.832 2.016,-3.744 2.016,-8.784 v -7.776 q -1.944,4.896 -6.264,7.776 -4.248,2.808 -9.792,2.808 -4.968,0 -8.928,-2.304 -3.95999,-2.304 -6.192,-6.336 -2.23199,-4.104 -2.23199,-9.216 0,-5.184 2.23199,-9.288 2.23201,-4.104 6.192,-6.408 3.96,-2.304 8.928,-2.304 5.544,0 9.792,2.88 4.32,2.88 6.264,7.776 V 82.776 Z m -17.496,34.488 q 4.608,0 8.208,-2.088 3.672,-2.16 5.76001,-5.904 2.08799,-3.816 2.08799,-8.496 0,-4.752 -2.08799,-8.496 -2.08801,-3.816 -5.76001,-5.976 -3.6,-2.16 -8.208,-2.16 -4.608,0 -8.28,2.16 -3.6,2.16 -5.688,5.976 -2.01599,3.744 -2.01599,8.496 0,4.68 2.01599,8.496 2.088,3.744 5.688,5.904 3.672,2.088 8.28,2.088 z" transform="translate(0 284.4812689194383) translate(426.0501438771587 77.22577996390271) scale(1.1706023480707295) translate(-447.25963 -82.776)"></path> 
   <path id="path365326" style="font-style: normal; font-weight: 200; font-size: 72px; line-height: 1; font-family: Montserrat; font-variant-ligatures: none; text-align: center; text-anchor: middle; fill: rgb(175, 175, 175);" d="m 521.2655,120 -0.072,-8.424 q -2.448,4.248 -6.48,6.336 -3.96,2.088 -9.144,2.088 -5.328,0 -8.712,-3.024 -3.384,-3.024 -3.384,-7.704 0,-4.536 3.672,-7.056 3.744,-2.52 10.152,-2.52 h 13.824 V 95.16 q -0.072,-5.256 -3.096,-8.064 -2.952,-2.88 -8.712,-2.88 -3.528,0 -6.696,1.368 -3.096,1.296 -6.336,3.816 l -0.864,-1.152 q 6.912,-5.472 13.896,-5.472 6.336,0 9.72,3.312 3.456,3.312 3.528,9.072 l 0.144,24.84 z m -15.624,-1.44 q 5.616,0 9.504,-2.448 3.888,-2.448 6.048,-7.776 l -0.072,-7.2 h -13.824 q -5.904,0 -9.144,2.16 -3.24,2.088 -3.24,5.976 0,4.176 2.88,6.768 2.952,2.52 7.848,2.52 z" transform="translate(0 284.4812689194383) translate(486.00122035294777 77.22577996390271) scale(1.1706023480707295) translate(-493.4735 -82.776)"></path> 
   <path id="path365328" style="font-style: normal; font-weight: 200; font-size: 72px; line-height: 1; font-family: Montserrat; font-variant-ligatures: none; text-align: center; text-anchor: middle; fill: rgb(175, 175, 175);" d="m 554.4935,82.776 q 6.912,0 10.728,3.888 3.888,3.888 3.888,10.8 V 120 h -1.44 V 97.464 q 0,-6.264 -3.528,-9.72 -3.456,-3.528 -9.648,-3.528 -6.912,0.144 -11.016,4.248 -4.104,4.104 -4.68,11.304 V 120 h -1.44 V 82.776 h 1.44 v 10.512 q 1.8,-4.968 5.832,-7.704 4.032,-2.736 9.864,-2.808 z" transform="translate(0 284.4812689194383) translate(543.2249455360372 77.22577996390271) scale(1.1706023480707295) translate(-537.3575 -82.776)"></path> 
   <path id="path365330" style="font-style: normal; font-weight: 200; font-size: 72px; line-height: 1; font-family: Montserrat; font-variant-ligatures: none; text-align: center; text-anchor: middle; fill: rgb(175, 175, 175);" d="m 583.76375,82.776 h 1.44 V 120 h -1.44 z m 0.72,-12.6 q 0.72,0 1.296,0.576 0.576,0.504 0.576,1.296 0,0.72 -0.576,1.296 -0.576,0.576 -1.296,0.576 -0.792,0 -1.368,-0.576 -0.504,-0.576 -0.504,-1.296 0,-0.792 0.504,-1.296 0.576,-0.576 1.368,-0.576 z" transform="translate(0 284.4812689194383) translate(602.0526885865709 62.4761903782115) scale(1.1706023480707295) translate(-582.61175 -70.176)"></path> 
   <path id="path365332" style="font-style: normal; font-weight: 200; font-size: 72px; line-height: 1; font-family: Montserrat; font-variant-ligatures: none; text-align: center; text-anchor: middle; fill: rgb(175, 175, 175);" d="m 626.69263,88.752 q -4.968,-4.536 -11.736,-4.536 -4.75201,0 -8.568,2.232 -3.816,2.16 -5.976,6.048 -2.16001,3.888 -2.16001,8.856 0,4.968 2.16001,8.928 2.16,3.888 5.976,6.12 3.81599,2.16 8.568,2.16 3.81599,0 6.98399,-1.368 3.24,-1.44 5.54401,-4.032 l 0.93599,1.008 q -2.448,2.808 -5.976,4.32 -3.456,1.512 -7.48799,1.512 -5.11201,0 -9.288,-2.376 -4.10401,-2.448 -6.48001,-6.696 -2.30399,-4.248 -2.30399,-9.576 0,-5.328 2.30399,-9.576 2.376,-4.248 6.48001,-6.624 4.17599,-2.376 9.288,-2.376 3.672,0 6.91199,1.296 3.312,1.296 5.76001,3.672 z" transform="translate(0 284.4812689194383) translate(624.6135671686562 77.22577996390271) scale(1.1706023480707295) translate(-596.88463 -82.776)"></path> 
   <path id="path365334" style="font-style: normal; font-weight: 200; font-size: 72px; line-height: 1; font-family: Montserrat; font-variant-ligatures: none; text-align: center; text-anchor: middle; fill: rgb(80, 116, 86);" d="m 652.92538,82.776 q 5.11199,0 9.216,2.376 4.17599,2.376 6.47999,6.624 2.37601,4.248 2.37601,9.576 0,5.328 -2.37601,9.576 -2.304,4.248 -6.47999,6.696 -4.10401,2.376 -9.216,2.376 -5.11201,0 -9.288,-2.376 -4.10401,-2.448 -6.48001,-6.696 -2.30399,-4.248 -2.30399,-9.576 0,-5.328 2.30399,-9.576 2.376,-4.248 6.48001,-6.624 4.17599,-2.376 9.288,-2.376 z m 0,1.44 q -4.75201,0 -8.568,2.232 -3.816,2.16 -5.976,6.048 -2.08801,3.888 -2.08801,8.856 0,4.968 2.08801,8.928 2.16,3.888 5.976,6.12 3.81599,2.16 8.568,2.16 4.75199,0 8.568,-2.16 3.816,-2.232 5.90399,-6.12 2.16,-3.96 2.16,-8.928 0,-4.968 -2.16,-8.856 -2.08799,-3.888 -5.90399,-6.048 -3.81601,-2.232 -8.568,-2.232 z" transform="translate(0 284.4812689194383) translate(674.9128868123204 77.22577996390271) scale(1.1706023480707295) translate(-634.85338 -82.776)"></path> 
   <path id="path365336" style="font-style: normal; font-weight: 200; font-size: 72px; line-height: 1; font-family: Montserrat; font-variant-ligatures: none; text-align: center; text-anchor: middle; fill: rgb(80, 116, 86);" d="m 677.29512,69.672 h 35.496 v 1.8 L 688.16713,120 h -1.58401 l 24.91201,-48.888 h -32.76 v 8.064 h -1.44001 z" transform="translate(0 284.4812689194383) translate(730.4482990528815 61.886206794783874) scale(1.1706023480707295) translate(-677.29512 -69.672)"></path> 
  </g> 
  <g id="tagline" style="font-style:normal;font-weight:400;font-size:32px;line-height:1;font-family:Montserrat;font-variant-ligatures:none;text-align:center;text-anchor:middle"></g> 
 </g> 
</svg>