<svg xmlns:dc="http://purl.org/dc/elements/1.1/" xmlns:cc="http://creativecommons.org/ns#" xmlns:rdf="http://www.w3.org/1999/02/22-rdf-syntax-ns#" xmlns:svg="http://www.w3.org/2000/svg" xmlns="http://www.w3.org/2000/svg" id="svg252949" viewbox="0 0 1024 768" height="768px" width="1024px" version="1.1"> <metadata id="metadata252955"> 
  <rdf:rdf> 
   <cc:work rdf:about=""> 
    <dc:format>
     image/svg+xml
    </dc:format> 
    <dc:type rdf:resource="http://purl.org/dc/dcmitype/StillImage"></dc:type> 
   </cc:work> 
  </rdf:rdf> 
 </metadata> <defs id="defs252953"></defs> <g id="logo-group"> 
  <g id="title" style="font-style:normal;font-weight:500;font-size:72px;line-height:1;font-family:'Raleway Medium Alt1';font-variant-ligatures:none;text-align:center;text-anchor:middle" aria-label="Interconnectingo7"> 
   <path id="path252957" style="font-style: normal; font-weight: 500; font-size: 72px; line-height: 1; font-family: &quot;Raleway Medium Alt1&quot;; font-variant-ligatures: none; text-align: center; text-anchor: middle; fill: rgb(138, 37, 27);" d="m 210.85437,120 h 6.48 V 68.88 h -6.48 z" transform="translate(0 322.7195486466542) translate(252.00000000000006 35.851118146975494) scale(0.7736805770466826) translate(-210.85437 -68.88)"></path> 
   <path id="path252959" style="font-style: normal; font-weight: 500; font-size: 72px; line-height: 1; font-family: &quot;Raleway Medium Alt1&quot;; font-variant-ligatures: none; text-align: center; text-anchor: middle; fill: rgb(138, 37, 27);" d="M 261.1655,120 V 97.536 c 0,-2.232 -0.216,-4.32 -0.576,-6.264 -0.36,-1.872 -0.936,-3.528 -1.8,-4.968 -0.864,-1.44 -2.016,-2.52 -3.456,-3.312 -1.44,-0.792 -3.24,-1.224 -5.4,-1.224 -3.312,0 -6.408,0.792 -9.216,2.376 -2.808,1.584 -4.968,3.744 -6.408,6.336 v -8.064 h -5.76 V 120 h 6.336 V 97.32 c 0.432,-1.44 1.08,-2.736 1.944,-3.96 0.864,-1.152 1.872,-2.232 3.024,-3.096 1.152,-0.864 2.376,-1.512 3.672,-2.016 1.296,-0.504 2.592,-0.792 3.888,-0.792 2.448,0 4.32,0.936 5.544,2.736 1.224,1.872 1.872,4.752 1.872,8.784 V 120 Z" transform="translate(0 322.7195486466542) translate(268.78510069750286 45.82231342395315) scale(0.7736805770466826) translate(-228.5495 -81.768)"></path> 
   <path id="path252961" style="font-style: normal; font-weight: 500; font-size: 72px; line-height: 1; font-family: &quot;Raleway Medium Alt1&quot;; font-variant-ligatures: none; text-align: center; text-anchor: middle; fill: rgb(138, 37, 27);" d="m 290.03638,118.128 -1.512,-5.04 c -0.43201,0.288 -1.15201,0.576 -2.16001,1.008 -1.00799,0.432 -2.15999,0.576 -3.384,0.576 -1.152,0 -2.08799,-0.288 -2.88,-0.936 -0.864,-0.576 -1.296,-1.584 -1.368,-3.024 V 87.384 h 8.42401 v -4.968 h -8.42401 V 69.888 h -6.336 v 12.528 h -5.112 v 4.968 h 5.112 v 25.272 c 0,2.736 0.792,4.68 2.52001,5.976 1.656,1.296 3.67199,1.872 5.976,1.872 1.00799,0 1.94399,-0.072 2.87999,-0.216 0.936,-0.144 1.80001,-0.36 2.592,-0.648 0.79201,-0.288 1.512,-0.504 2.16001,-0.792 0.57599,-0.288 1.07999,-0.504 1.512,-0.72 z" transform="translate(0 322.7195486466542) translate(301.84823957911783 36.63098816863857) scale(0.7736805770466826) translate(-267.28437 -69.888)"></path> 
   <path id="path252963" style="font-style: normal; font-weight: 500; font-size: 72px; line-height: 1; font-family: &quot;Raleway Medium Alt1&quot;; font-variant-ligatures: none; text-align: center; text-anchor: middle; fill: rgb(138, 37, 27);" d="m 311.97838,120.72 c 1.87199,0 3.67199,-0.216 5.39999,-0.72 1.72801,-0.432 3.24001,-1.08 4.68,-1.944 1.44,-0.864 2.664,-1.872 3.744,-3.024 1.08001,-1.152 1.944,-2.376 2.59201,-3.816 l -5.47201,-1.512 c -0.432,1.008 -1.008,1.872 -1.728,2.592 -0.72,0.792 -1.584,1.44 -2.52,1.944 -1.00799,0.576 -2.016,1.008 -3.096,1.296 -1.152,0.288 -2.23199,0.432 -3.384,0.432 -1.656,0 -3.23999,-0.288 -4.68,-0.936 -1.44,-0.576 -2.736,-1.44 -3.888,-2.592 -1.152,-1.08 -2.088,-2.376 -2.808,-3.96 -0.72,-1.512 -1.15199,-3.24 -1.296,-5.112 h 31.176 c 0,-0.216 0.072,-0.576 0.072,-1.008 0,-0.432 0.072,-0.864 0.072,-1.44 0,-2.448 -0.504,-4.896 -1.368,-7.2 -0.864,-2.304 -2.16,-4.392 -3.744,-6.12 -1.65599,-1.728 -3.672,-3.168 -5.976,-4.248 -2.304,-1.008 -4.89599,-1.584 -7.704,-1.584 -2.88,0 -5.472,0.576 -7.77599,1.584 -2.37601,1.008 -4.392,2.448 -6.12,4.176 -1.72801,1.8 -3.024,3.888 -3.96001,6.192 -0.936,2.376 -1.368,4.896 -1.368,7.488 0,2.664 0.432,5.184 1.368,7.56 0.93601,2.376 2.232,4.464 3.96001,6.192 1.656,1.8 3.67199,3.24 6.048,4.248 2.30399,1.008 4.89599,1.512 7.776,1.512 z m 12.88799,-22.032 h -25.488 c 0.144,-1.728 0.50401,-3.384 1.224,-4.896 0.72001,-1.44 1.584,-2.736 2.736,-3.816 1.152,-1.08 2.44801,-1.944 3.96001,-2.52 1.44,-0.576 3.024,-0.936 4.75199,-0.936 1.656,0 3.24,0.36 4.752,0.936 1.44,0.576 2.736,1.44 3.88801,2.448 1.15199,1.08 2.08799,2.376 2.80799,3.888 0.72,1.512 1.224,3.168 1.368,4.896 z" transform="translate(0 322.7195486466542) translate(324.70431118623094 45.82231342395315) scale(0.7736805770466826) translate(-292.82637 -81.768)"></path> 
   <path id="path252965" style="font-style: normal; font-weight: 500; font-size: 72px; line-height: 1; font-family: &quot;Raleway Medium Alt1&quot;; font-variant-ligatures: none; text-align: center; text-anchor: middle; fill: rgb(138, 37, 27);" d="M 357.82775,87.96 V 82.2 c -0.288,0 -0.576,-0.072 -0.864,-0.072 h -1.224 c -2.448,0.216 -4.68,1.152 -6.768,2.736 -2.16,1.584 -3.816,3.672 -5.112,6.264 v -8.712 h -5.904 V 120 h 6.336 V 96.816 c 1.008,-2.736 2.664,-4.824 5.112,-6.408 2.448,-1.512 5.256,-2.304 8.424,-2.448 z" transform="translate(0 322.7195486466542) translate(362.71475825457674 46.10083843168995) scale(0.7736805770466826) translate(-337.95575 -82.128)"></path> 
   <path id="path252967" style="font-style: normal; font-weight: 500; font-size: 72px; line-height: 1; font-family: &quot;Raleway Medium Alt1&quot;; font-variant-ligatures: none; text-align: center; text-anchor: middle; fill: rgb(138, 37, 27);" d="m 360.74825,101.136 c 0,2.664 0.432,5.184 1.368,7.56 0.936,2.376 2.232,4.464 3.96,6.192 1.656,1.8 3.672,3.24 6.048,4.248 2.304,1.08 4.896,1.584 7.776,1.584 1.872,0 3.6,-0.216 5.328,-0.72 1.728,-0.432 3.24,-1.08 4.68,-1.944 1.368,-0.792 2.592,-1.8 3.6,-2.952 1.008,-1.152 1.872,-2.376 2.448,-3.816 l -6.192,-1.872 c -0.288,0.864 -0.792,1.584 -1.44,2.304 -0.72,0.72 -1.512,1.296 -2.376,1.8 -0.864,0.576 -1.872,1.008 -2.952,1.296 -1.08,0.288 -2.16,0.432 -3.24,0.432 -1.728,0 -3.384,-0.36 -4.896,-1.08 -1.512,-0.72 -2.808,-1.656 -3.96,-2.952 -1.152,-1.296 -2.016,-2.808 -2.664,-4.536 -0.72,-1.728 -1.008,-3.528 -1.008,-5.544 0,-2.016 0.288,-3.816 0.936,-5.544 0.648,-1.656 1.512,-3.096 2.664,-4.392 1.08,-1.224 2.376,-2.16 3.96,-2.88 1.512,-0.72 3.168,-1.08 4.896,-1.08 2.088,0 4.032,0.504 5.76,1.512 1.728,1.008 3.024,2.376 4.032,4.104 l 6.192,-1.944 c -1.44,-2.736 -3.456,-4.968 -6.192,-6.624 -2.736,-1.656 -5.904,-2.52 -9.648,-2.52 -2.88,0 -5.544,0.576 -7.848,1.584 -2.304,1.008 -4.32,2.448 -5.976,4.176 -1.728,1.728 -3.024,3.816 -3.888,6.12 -0.936,2.376 -1.368,4.896 -1.368,7.488 z" transform="translate(0 322.7195486466542) translate(383.4435951151 45.82231342395315) scale(0.7736805770466826) translate(-360.74825 -81.768)"></path> 
   <path id="path252969" style="font-style: normal; font-weight: 500; font-size: 72px; line-height: 1; font-family: &quot;Raleway Medium Alt1&quot;; font-variant-ligatures: none; text-align: center; text-anchor: middle; fill: rgb(138, 37, 27);" d="m 419.19988,120.72 c 2.808,0 5.39999,-0.504 7.704,-1.584 2.30399,-1.008 4.32,-2.448 6.04799,-4.248 1.656,-1.728 2.952,-3.816 3.888,-6.192 0.864,-2.304 1.368,-4.824 1.368,-7.416 0,-2.592 -0.504,-5.112 -1.44,-7.488 -0.93599,-2.304 -2.23199,-4.392 -3.888,-6.192 -1.65599,-1.728 -3.672,-3.168 -5.97599,-4.248 -2.37601,-1.008 -4.96801,-1.584 -7.704,-1.584 -2.808,0 -5.40001,0.576 -7.70401,1.584 -2.304,1.08 -4.31999,2.52 -5.97599,4.248 -1.65601,1.8 -2.952,3.888 -3.88801,6.192 -0.936,2.376 -1.368,4.896 -1.368,7.488 0,2.592 0.432,5.112 1.368,7.416 0.864,2.376 2.16,4.464 3.816,6.192 1.65601,1.8 3.672,3.24 5.976,4.248 2.304,1.08 4.89601,1.584 7.77601,1.584 z m -12.45601,-19.368 c 0,-1.944 0.28801,-3.744 0.936,-5.472 0.648,-1.728 1.512,-3.168 2.66401,-4.464 1.15199,-1.296 2.44799,-2.304 3.95999,-3.024 1.512,-0.72 3.168,-1.152 4.89601,-1.152 1.72799,0 3.312,0.36 4.82399,1.08 1.512,0.72 2.88001,1.728 4.03201,3.024 1.15199,1.296 2.01599,2.736 2.66399,4.464 0.64801,1.728 1.008,3.528 1.008,5.4 0,2.016 -0.35999,3.816 -1.008,5.544 -0.648,1.728 -1.512,3.168 -2.66399,4.464 -1.152,1.296 -2.52001,2.232 -4.03201,2.952 -1.51199,0.72 -3.096,1.08 -4.82399,1.08 -1.72801,0 -3.38401,-0.36 -4.89601,-1.08 -1.512,-0.72 -2.808,-1.656 -3.95999,-2.952 -1.15201,-1.224 -2.01601,-2.664 -2.66401,-4.392 -0.64799,-1.656 -0.936,-3.456 -0.936,-5.472 z" transform="translate(0 322.7195486466542) translate(417.11078510724417 45.82231342395315) scale(0.7736805770466826) translate(-400.26387 -81.768)"></path> 
   <path id="path252971" style="font-style: normal; font-weight: 500; font-size: 72px; line-height: 1; font-family: &quot;Raleway Medium Alt1&quot;; font-variant-ligatures: none; text-align: center; text-anchor: middle; fill: rgb(138, 37, 27);" d="M 478.57175,120 V 97.536 c 0,-2.232 -0.216,-4.32 -0.576,-6.264 -0.36,-1.872 -0.936,-3.528 -1.8,-4.968 -0.864,-1.44 -2.016,-2.52 -3.456,-3.312 -1.44,-0.792 -3.24,-1.224 -5.4,-1.224 -3.312,0 -6.408,0.792 -9.216,2.376 -2.808,1.584 -4.968,3.744 -6.408,6.336 v -8.064 h -5.76 V 120 h 6.336 V 97.32 c 0.432,-1.44 1.08,-2.736 1.944,-3.96 0.864,-1.152 1.872,-2.232 3.024,-3.096 1.152,-0.864 2.376,-1.512 3.672,-2.016 1.296,-0.504 2.592,-0.792 3.888,-0.792 2.448,0 4.32,0.936 5.544,2.736 1.224,1.872 1.872,4.752 1.872,8.784 V 120 Z" transform="translate(0 322.7195486466542) translate(455.5564275001787 45.82231342395315) scale(0.7736805770466826) translate(-445.95575 -81.768)"></path> 
   <path id="path252973" style="font-style: normal; font-weight: 500; font-size: 72px; line-height: 1; font-family: &quot;Raleway Medium Alt1&quot;; font-variant-ligatures: none; text-align: center; text-anchor: middle; fill: rgb(138, 37, 27);" d="M 521.0405,120 V 97.536 c 0,-2.232 -0.216,-4.32 -0.576,-6.264 -0.36,-1.872 -0.936,-3.528 -1.8,-4.968 -0.864,-1.44 -2.016,-2.52 -3.456,-3.312 -1.44,-0.792 -3.24,-1.224 -5.4,-1.224 -3.312,0 -6.408,0.792 -9.216,2.376 -2.808,1.584 -4.968,3.744 -6.408,6.336 v -8.064 h -5.76 V 120 h 6.336 V 97.32 c 0.432,-1.44 1.08,-2.736 1.944,-3.96 0.864,-1.152 1.872,-2.232 3.024,-3.096 1.152,-0.864 2.376,-1.512 3.672,-2.016 1.296,-0.504 2.592,-0.792 3.888,-0.792 2.448,0 4.32,0.936 5.544,2.736 1.224,1.872 1.872,4.752 1.872,8.784 V 120 Z" transform="translate(0 322.7195486466542) translate(491.5083968148167 45.82231342395315) scale(0.7736805770466826) translate(-488.4245 -81.768)"></path> 
   <path id="path252975" style="font-style: normal; font-weight: 500; font-size: 72px; line-height: 1; font-family: &quot;Raleway Medium Alt1&quot;; font-variant-ligatures: none; text-align: center; text-anchor: middle; fill: rgb(138, 37, 27);" d="m 547.52525,120.72 c 1.872,0 3.672,-0.216 5.4,-0.72 1.728,-0.432 3.24,-1.08 4.68,-1.944 1.44,-0.864 2.664,-1.872 3.744,-3.024 1.08,-1.152 1.944,-2.376 2.592,-3.816 l -5.472,-1.512 c -0.432,1.008 -1.008,1.872 -1.728,2.592 -0.72,0.792 -1.584,1.44 -2.52,1.944 -1.008,0.576 -2.016,1.008 -3.096,1.296 -1.152,0.288 -2.232,0.432 -3.384,0.432 -1.656,0 -3.24,-0.288 -4.68,-0.936 -1.44,-0.576 -2.736,-1.44 -3.888,-2.592 -1.152,-1.08 -2.088,-2.376 -2.808,-3.96 -0.72,-1.512 -1.152,-3.24 -1.296,-5.112 h 31.176 c 0,-0.216 0.072,-0.576 0.072,-1.008 0,-0.432 0.072,-0.864 0.072,-1.44 0,-2.448 -0.504,-4.896 -1.368,-7.2 -0.864,-2.304 -2.16,-4.392 -3.744,-6.12 -1.656,-1.728 -3.672,-3.168 -5.976,-4.248 -2.304,-1.008 -4.896,-1.584 -7.704,-1.584 -2.88,0 -5.472,0.576 -7.776,1.584 -2.376,1.008 -4.392,2.448 -6.12,4.176 -1.728,1.8 -3.024,3.888 -3.96,6.192 -0.936,2.376 -1.368,4.896 -1.368,7.488 0,2.664 0.432,5.184 1.368,7.56 0.936,2.376 2.232,4.464 3.96,6.192 1.656,1.8 3.672,3.24 6.048,4.248 2.304,1.008 4.896,1.512 7.776,1.512 z m 12.888,-22.032 h -25.488 c 0.144,-1.728 0.504,-3.384 1.224,-4.896 0.72,-1.44 1.584,-2.736 2.736,-3.816 1.152,-1.08 2.448,-1.944 3.96,-2.52 1.44,-0.576 3.024,-0.936 4.752,-0.936 1.656,0 3.24,0.36 4.752,0.936 1.44,0.576 2.736,1.44 3.888,2.448 1.152,1.08 2.088,2.376 2.808,3.888 0.72,1.512 1.224,3.168 1.368,4.896 z" transform="translate(0 322.7195486466542) translate(525.5106910752971 45.82231342395315) scale(0.7736805770466826) translate(-528.37325 -81.768)"></path> 
   <path id="path252977" style="font-style: normal; font-weight: 500; font-size: 72px; line-height: 1; font-family: &quot;Raleway Medium Alt1&quot;; font-variant-ligatures: none; text-align: center; text-anchor: middle; fill: rgb(138, 37, 27);" d="m 570.98262,101.136 c 0,2.664 0.432,5.184 1.36801,7.56 0.93599,2.376 2.23199,4.464 3.95999,6.192 1.65601,1.8 3.672,3.24 6.048,4.248 2.30401,1.08 4.89601,1.584 7.77601,1.584 1.87199,0 3.6,-0.216 5.32799,-0.72 1.728,-0.432 3.24,-1.08 4.68,-1.944 1.368,-0.792 2.59201,-1.8 3.6,-2.952 1.00801,-1.152 1.87201,-2.376 2.448,-3.816 l -6.192,-1.872 c -0.28799,0.864 -0.79199,1.584 -1.44,2.304 -0.72,0.72 -1.512,1.296 -2.37599,1.8 -0.86401,0.576 -1.87201,1.008 -2.952,1.296 -1.08001,0.288 -2.16001,0.432 -3.24,0.432 -1.72801,0 -3.38401,-0.36 -4.89601,-1.08 -1.512,-0.72 -2.808,-1.656 -3.95999,-2.952 -1.15201,-1.296 -2.01601,-2.808 -2.664,-4.536 -0.72,-1.728 -1.00801,-3.528 -1.00801,-5.544 0,-2.016 0.28801,-3.816 0.93601,-5.544 0.64799,-1.656 1.51199,-3.096 2.664,-4.392 1.07999,-1.224 2.37599,-2.16 3.95999,-2.88 1.512,-0.72 3.168,-1.08 4.89601,-1.08 2.08799,0 4.03199,0.504 5.75999,1.512 1.728,1.008 3.024,2.376 4.03201,4.104 l 6.19199,-1.944 c -1.44,-2.736 -3.45599,-4.968 -6.19199,-6.624 -2.736,-1.656 -5.90401,-2.52 -9.648,-2.52 -2.88,0 -5.544,0.576 -7.84801,1.584 -2.304,1.008 -4.31999,2.448 -5.976,4.176 -1.728,1.728 -3.024,3.816 -3.88799,6.12 -0.93601,2.376 -1.36801,4.896 -1.36801,7.488 z" transform="translate(0 322.7195486466542) translate(561.5714553526795 45.82231342395315) scale(0.7736805770466826) translate(-570.98262 -81.768)"></path> 
   <path id="path252979" style="font-style: normal; font-weight: 500; font-size: 72px; line-height: 1; font-family: &quot;Raleway Medium Alt1&quot;; font-variant-ligatures: none; text-align: center; text-anchor: middle; fill: rgb(138, 37, 27);" d="m 632.88013,118.128 -1.51201,-5.04 c -0.432,0.288 -1.15199,0.576 -2.16,1.008 -1.008,0.432 -2.15999,0.576 -3.384,0.576 -1.15199,0 -2.08799,-0.288 -2.88,-0.936 -0.864,-0.576 -1.29599,-1.584 -1.36799,-3.024 V 87.384 h 8.424 v -4.968 h -8.424 V 69.888 h -6.336 v 12.528 h -5.11201 v 4.968 h 5.11201 v 25.272 c 0,2.736 0.79199,4.68 2.52,5.976 1.65599,1.296 3.672,1.872 5.976,1.872 1.008,0 1.94399,-0.072 2.87999,-0.216 0.93601,-0.144 1.8,-0.36 2.592,-0.648 0.79201,-0.288 1.51201,-0.504 2.16,-0.792 0.576,-0.288 1.08,-0.504 1.51201,-0.72 z" transform="translate(0 322.7195486466542) translate(594.9522906896472 36.63098816863857) scale(0.7736805770466826) translate(-610.12812 -69.888)"></path> 
   <path id="path252981" style="font-style: normal; font-weight: 500; font-size: 72px; line-height: 1; font-family: &quot;Raleway Medium Alt1&quot;; font-variant-ligatures: none; text-align: center; text-anchor: middle; fill: rgb(138, 37, 27);" d="m 638.75262,120 h 6.336 V 82.416 h -6.336 z m 0,-44.64 h 6.336 v -7.92 h -6.336 z" transform="translate(0 322.7195486466542) translate(620.1932326755066 34.73701811602828) scale(0.7736805770466826) translate(-638.75262 -67.44)"></path> 
   <path id="path252983" style="font-style: normal; font-weight: 500; font-size: 72px; line-height: 1; font-family: &quot;Raleway Medium Alt1&quot;; font-variant-ligatures: none; text-align: center; text-anchor: middle; fill: rgb(138, 37, 27);" d="M 687.96237,120 V 97.536 c 0,-2.232 -0.216,-4.32 -0.57599,-6.264 -0.36,-1.872 -0.93601,-3.528 -1.80001,-4.968 -0.86399,-1.44 -2.01599,-2.52 -3.456,-3.312 -1.43999,-0.792 -3.24,-1.224 -5.4,-1.224 -3.312,0 -6.408,0.792 -9.216,2.376 -2.808,1.584 -4.968,3.744 -6.408,6.336 v -8.064 h -5.76 V 120 h 6.336 V 97.32 c 0.432,-1.44 1.08001,-2.736 1.94401,-3.96 0.86399,-1.152 1.87199,-2.232 3.024,-3.096 1.15199,-0.864 2.376,-1.512 3.67199,-2.016 1.29601,-0.504 2.592,-0.792 3.888,-0.792 2.448,0 4.32001,0.936 5.544,2.736 1.22401,1.872 1.87201,4.752 1.87201,8.784 V 120 Z" transform="translate(0 322.7195486466542) translate(636.1262170590617 45.82231342395315) scale(0.7736805770466826) translate(-655.34637 -81.768)"></path> 
   <path id="path252985" style="font-style: normal; font-weight: 500; font-size: 72px; line-height: 1; font-family: &quot;Raleway Medium Alt1&quot;; font-variant-ligatures: none; text-align: center; text-anchor: middle; fill: rgb(138, 37, 27);" d="m 712.79112,120.432 c 1.29601,0 2.664,-0.144 3.96,-0.504 1.29601,-0.288 2.52,-0.792 3.67201,-1.44 1.15199,-0.648 2.15999,-1.44 3.168,-2.376 1.00799,-0.936 1.87199,-2.016 2.592,-3.168 v 6.624 c 0,2.016 -0.36001,3.672 -1.08001,5.112 -0.72,1.44 -1.58399,2.664 -2.736,3.6 -1.152,1.008 -2.52,1.728 -4.104,2.16 -1.584,0.504 -3.16799,0.72 -4.896,0.72 -2.736,0 -5.32799,-0.504 -7.63199,-1.656 -2.37601,-1.08 -4.32001,-2.736 -5.76,-4.968 l -3.672,3.24 c 1.72799,2.592 3.95999,4.68 6.624,6.12 2.664,1.44 6.12,2.16 10.43999,2.16 2.592,0 5.112,-0.36 7.41601,-1.08 2.304,-0.72 4.39199,-1.728 6.12,-3.168 1.72799,-1.368 3.096,-3.096 4.10399,-5.112 1.008,-2.016 1.51201,-4.392 1.51201,-7.128 V 82.416 h -5.616 v 7.488 c -1.58401,-2.304 -3.528,-4.248 -5.832,-5.832 -2.30401,-1.512 -5.04001,-2.304 -8.20801,-2.304 -2.592,0 -4.968,0.576 -7.12799,1.584 -2.16001,1.008 -3.96001,2.448 -5.47201,4.176 -1.584,1.8 -2.736,3.888 -3.59999,6.264 -0.86401,2.376 -1.22401,4.896 -1.22401,7.488 0,2.52 0.36,4.896 1.22401,7.2 0.86399,2.304 2.01599,4.392 3.59999,6.12 1.512,1.8 3.312,3.24 5.47201,4.248 2.15999,1.08 4.46399,1.584 7.05599,1.584 z m 1.94401,-5.184 c -1.87201,0 -3.528,-0.36 -5.11201,-1.08 -1.58399,-0.72 -2.88,-1.728 -4.03199,-3.024 -1.15201,-1.224 -2.08801,-2.664 -2.736,-4.392 -0.72,-1.656 -1.00801,-3.456 -1.00801,-5.328 0,-1.728 0.28801,-3.384 0.86401,-5.112 0.57599,-1.728 1.36799,-3.24 2.448,-4.608 1.008,-1.296 2.30399,-2.376 3.816,-3.24 1.51199,-0.792 3.23999,-1.224 5.184,-1.224 1.22399,0 2.44799,0.216 3.672,0.648 1.22399,0.432 2.376,1.08 3.456,1.872 1.00799,0.792 1.944,1.728 2.808,2.736 0.86399,1.08 1.51199,2.232 2.088,3.528 v 10.8 c -0.28801,1.08 -0.72001,2.088 -1.44001,3.096 -0.71999,1.008 -1.65599,1.944 -2.664,2.736 -1.07999,0.792 -2.232,1.44 -3.456,1.872 -1.29599,0.504 -2.592,0.72 -3.88799,0.72 z" transform="translate(0 322.7195486466542) translate(670.2399213226369 45.82231342395315) scale(0.7736805770466826) translate(-695.43912 -81.768)"></path> 
   <path id="path252987" style="font-style: normal; font-weight: 500; font-size: 72px; line-height: 1; font-family: &quot;Raleway Medium Alt1&quot;; font-variant-ligatures: none; text-align: center; text-anchor: middle; fill: rgb(109, 110, 114);" d="m 759.0905,120.72 c 2.808,0 5.4,-0.504 7.704,-1.584 2.304,-1.008 4.32,-2.448 6.048,-4.248 1.656,-1.728 2.952,-3.816 3.888,-6.192 0.864,-2.304 1.368,-4.824 1.368,-7.416 0,-2.592 -0.504,-5.112 -1.44,-7.488 -0.936,-2.304 -2.232,-4.392 -3.888,-6.192 -1.656,-1.728 -3.672,-3.168 -5.976,-4.248 -2.376,-1.008 -4.968,-1.584 -7.704,-1.584 -2.808,0 -5.4,0.576 -7.704,1.584 -2.304,1.08 -4.32,2.52 -5.976,4.248 -1.656,1.8 -2.952,3.888 -3.888,6.192 -0.936,2.376 -1.368,4.896 -1.368,7.488 0,2.592 0.432,5.112 1.368,7.416 0.864,2.376 2.16,4.464 3.816,6.192 1.656,1.8 3.672,3.24 5.976,4.248 2.304,1.08 4.896,1.584 7.776,1.584 z m -12.456,-19.368 c 0,-1.944 0.288,-3.744 0.936,-5.472 0.648,-1.728 1.512,-3.168 2.664,-4.464 1.152,-1.296 2.448,-2.304 3.96,-3.024 1.512,-0.72 3.168,-1.152 4.896,-1.152 1.728,0 3.312,0.36 4.824,1.08 1.512,0.72 2.88,1.728 4.032,3.024 1.152,1.296 2.016,2.736 2.664,4.464 0.648,1.728 1.008,3.528 1.008,5.4 0,2.016 -0.36,3.816 -1.008,5.544 -0.648,1.728 -1.512,3.168 -2.664,4.464 -1.152,1.296 -2.52,2.232 -4.032,2.952 -1.512,0.72 -3.096,1.08 -4.824,1.08 -1.728,0 -3.384,-0.36 -4.896,-1.08 -1.512,-0.72 -2.808,-1.656 -3.96,-2.952 -1.152,-1.224 -2.016,-2.664 -2.664,-4.392 -0.648,-1.656 -0.936,-3.456 -0.936,-5.472 z" transform="translate(0 322.7195486466542) translate(707.9300646320852 45.82231342395315) scale(0.7736805770466826) translate(-740.1545 -81.768)"></path> 
   <path id="path252989" style="font-style: normal; font-weight: 500; font-size: 72px; line-height: 1; font-family: &quot;Raleway Medium Alt1&quot;; font-variant-ligatures: none; text-align: center; text-anchor: middle; fill: rgb(109, 110, 114);" d="m 808.95838,83.856 -22.89601,45.288 h 7.20001 l 25.70399,-51.12 h -36.288 v 5.832 z" transform="translate(0 322.7195486466542) translate(743.9246792201301 42.92565334349037) scale(0.7736805770466826) translate(-782.67837 -78.024)"></path> 
  </g> 
  <g id="tagline" style="font-style:oblique;font-weight:600;font-size:32px;line-height:1;font-family:Raleway;font-variant-ligatures:none;text-align:center;text-anchor:middle"></g> 
 </g> 
</svg>