<svg xmlns:dc="http://purl.org/dc/elements/1.1/" xmlns:cc="http://creativecommons.org/ns#" xmlns:rdf="http://www.w3.org/1999/02/22-rdf-syntax-ns#" xmlns:svg="http://www.w3.org/2000/svg" xmlns="http://www.w3.org/2000/svg" id="svg20319" viewbox="0 0 1024 768" height="768px" width="1024px" version="1.1"> <metadata id="metadata20325"> 
  <rdf:rdf> 
   <cc:work rdf:about=""> 
    <dc:format>
     image/svg+xml
    </dc:format> 
    <dc:type rdf:resource="http://purl.org/dc/dcmitype/StillImage"></dc:type> 
   </cc:work> 
  </rdf:rdf> 
 </metadata> <defs id="defs20323"></defs> <g id="logo-group"> 
  <g id="title" style="font-style:normal;font-weight:700;font-size:72px;line-height:1;font-family:Phenomena;font-variant-ligatures:none;text-align:center;text-anchor:middle" aria-label="INTERO7"> 
   <path id="path20327" style="font-style: normal; font-weight: 700; font-size: 72px; line-height: 1; font-family: Phenomena; font-variant-ligatures: none; text-align: center; text-anchor: middle; fill: rgb(66, 65, 67);" d="m 424.35125,70.536 v 48.456 c 0,0.648 0.36,1.008 1.008,1.008 h 4.536 c 0.576,0 0.936,-0.36 0.936,-1.008 V 70.536 c 0,-0.576 -0.36,-0.936 -0.936,-0.936 h -4.536 c -0.648,0 -1.008,0.36 -1.008,0.936 z" transform="translate(0 125.47817850434541) translate(252.00000000000006 184.87858537100118) scale(2.926531399008638) translate(-424.35125 -69.6)"></path> 
   <path id="path20329" style="font-style: normal; font-weight: 700; font-size: 72px; line-height: 1; font-family: Phenomena; font-variant-ligatures: none; text-align: center; text-anchor: middle; fill: rgb(66, 65, 67);" d="m 440.04275,120 h 4.608 c 0.576,0 0.936,-0.36 0.936,-1.008 V 81.768 c 0,-4.104 2.232,-6.84 5.832,-6.84 3.6,0 5.832,2.736 5.832,6.84 v 37.224 c 0,0.648 0.432,1.008 1.008,1.008 h 4.536 c 0.648,0 1.008,-0.36 1.008,-1.008 V 82.056 c 0,-7.776 -4.896,-13.248 -12.384,-13.248 -7.488,0 -12.312,5.472 -12.312,13.248 v 36.936 c 0,0.648 0.36,1.008 0.936,1.008 z" transform="translate(0 125.47817850434541) translate(295.1824340580719 182.56077250298637) scale(2.926531399008638) translate(-439.10675 -68.808)"></path> 
   <path id="path20331" style="font-style: normal; font-weight: 700; font-size: 72px; line-height: 1; font-family: Phenomena; font-variant-ligatures: none; text-align: center; text-anchor: middle; fill: rgb(66, 65, 67);" d="m 489.99162,69.6 h -22.10399 c -0.57601,0 -0.93601,0.36 -0.93601,0.936 v 4.104 c 0,0.648 0.36,1.008 0.93601,1.008 h 7.848 v 43.344 c 0,0.648 0.35999,1.008 0.93599,1.008 h 4.536 c 0.648,0 1.008,-0.36 1.008,-1.008 V 75.648 h 7.776 c 0.64801,0 1.008,-0.36 1.008,-1.008 v -4.104 c 0,-0.576 -0.35999,-0.936 -1.008,-0.936 z" transform="translate(0 125.47817850434541) translate(376.67132041438555 184.87858537100118) scale(2.926531399008638) translate(-466.95162 -69.6)"></path> 
   <path id="path20333" style="font-style: normal; font-weight: 700; font-size: 72px; line-height: 1; font-family: Phenomena; font-variant-ligatures: none; text-align: center; text-anchor: middle; fill: rgb(66, 65, 67);" d="m 505.75175,120.216 h 7.56 c 0.576,0 0.936,-0.36 0.936,-0.936 v -4.104 c 0,-0.648 -0.36,-1.008 -0.936,-1.008 h -7.056 c -3.744,0 -6.264,-2.88 -6.264,-6.984 v -9.72 h 11.52 c 0.648,0 1.008,-0.36 1.008,-1.008 v -3.888 c 0,-0.648 -0.36,-1.008 -1.008,-1.008 h -11.52 v -9.144 c 0,-4.104 2.52,-6.984 6.264,-6.984 h 7.056 c 0.576,0 0.936,-0.36 0.936,-1.008 V 70.32 c 0,-0.576 -0.36,-0.936 -0.936,-0.936 h -7.56 c -7.272,0 -12.312,5.472 -12.312,12.888 v 25.056 c 0,7.416 5.04,12.888 12.312,12.888 z" transform="translate(0 125.47817850434541) translate(454.1896645604083 184.2464545888153) scale(2.926531399008638) translate(-493.43975 -69.384)"></path> 
   <path id="path20335" style="font-style: normal; font-weight: 700; font-size: 72px; line-height: 1; font-family: Phenomena; font-variant-ligatures: none; text-align: center; text-anchor: middle; fill: rgb(66, 65, 67);" d="m 521.18337,120 h 4.60801 c 0.576,0 0.936,-0.36 0.936,-1.008 v -18 h 5.832 l 6.83999,18.144 c 0.144,0.576 0.432,0.864 1.008,0.864 h 4.896 c 0.648,0 1.152,-0.432 0.936,-1.08 l -7.70399,-19.44 c 3.74399,-2.016 6.408,-6.048 6.408,-11.592 v -5.76 c 0,-7.848 -5.04001,-13.32 -12.456,-13.32 -7.27201,0 -12.24,5.472 -12.24,13.32 v 36.864 c 0,0.648 0.36,1.008 0.93599,1.008 z m 5.54401,-24.984 V 81.84 c 0,-4.176 2.376,-6.912 5.832,-6.912 3.45599,0 5.832,2.736 5.832,6.912 v 6.192 c 0,4.248 -2.37601,6.984 -6.12,6.984 z" transform="translate(0 125.47817850434541) translate(532.6430354884143 182.56077250298637) scale(2.926531399008638) translate(-520.24738 -68.808)"></path> 
   <path id="path20337" style="font-style: normal; font-weight: 700; font-size: 72px; line-height: 1; font-family: Phenomena; font-variant-ligatures: none; text-align: center; text-anchor: middle; fill: rgb(141, 136, 137);" d="m 563.69938,120.72 c 7.48799,0 12.67199,-5.472 12.67199,-13.032 V 81.912 c 0,-7.56 -5.184,-13.032 -12.67199,-13.032 -7.48801,0 -12.74401,5.472 -12.74401,13.536 v 24.768 c 0,8.064 5.256,13.536 12.74401,13.536 z m 0,-6.048 c -3.67201,0 -6.192,-2.736 -6.192,-7.2 V 82.128 c 0,-4.464 2.51999,-7.2 6.192,-7.2 3.67199,0 6.12,2.736 6.12,6.696 v 26.352 c 0,3.96 -2.44801,6.696 -6.12,6.696 z" transform="translate(0 125.47817850434541) translate(622.5109324238575 182.77148276371497) scale(2.926531399008638) translate(-550.95537 -68.88)"></path> 
   <path id="path20339" style="font-style: normal; font-weight: 700; font-size: 72px; line-height: 1; font-family: Phenomena; font-variant-ligatures: none; text-align: center; text-anchor: middle; fill: rgb(141, 136, 137);" d="m 580.436,70.536 v 4.104 c 0,0.648 0.36,1.008 0.936,1.008 h 13.752 l -10.44,43.272 c -0.144,0.648 0.144,1.08 0.864,1.08 h 4.536 c 0.576,0 0.936,-0.288 1.08,-0.864 L 601.676,75 c 0.288,-1.224 0.36,-2.088 0.36,-3.384 0,-1.368 -0.792,-2.016 -2.16,-2.016 h -18.504 c -0.576,0 -0.936,0.36 -0.936,0.936 z" transform="translate(0 125.47817850434541) translate(708.7869217814134 184.87858537100118) scale(2.926531399008638) translate(-580.436 -69.6)"></path> 
  </g> 
  <g id="tagline" style="font-style:oblique;font-weight:normal;font-size:32px;line-height:1;font-family:'Fira Sans Condensed';font-variant-ligatures:none;text-align:center;text-anchor:middle"></g> 
 </g> 
</svg>