<svg xmlns:dc="http://purl.org/dc/elements/1.1/" xmlns:cc="http://creativecommons.org/ns#" xmlns:rdf="http://www.w3.org/1999/02/22-rdf-syntax-ns#" xmlns:svg="http://www.w3.org/2000/svg" xmlns="http://www.w3.org/2000/svg" id="svg951873" viewbox="0 0 1024 768" height="768px" width="1024px" version="1.1"> <metadata id="metadata951879"> 
  <rdf:rdf> 
   <cc:work rdf:about=""> 
    <dc:format>
     image/svg+xml
    </dc:format> 
    <dc:type rdf:resource="http://purl.org/dc/dcmitype/StillImage"></dc:type> 
   </cc:work> 
  </rdf:rdf> 
 </metadata> <defs id="defs951877"></defs> <g id="logo-group"> 
  <g id="title" style="font-style:normal;font-weight:700;font-size:72px;line-height:1;font-family:'Comfortaa Bold Alt2';font-variant-ligatures:none;text-align:center;text-anchor:middle" aria-label="Ironhorseo7"> 
   <path id="path951881" style="font-style: normal; font-weight: 700; font-size: 72px; line-height: 1; font-family: &quot;Comfortaa Bold Alt2&quot;; font-variant-ligatures: none; text-align: center; text-anchor: middle; fill: rgb(22, 22, 22);" d="m 294.85812,64.848 c -0.72,0.72 -1.08,1.584 -1.08,2.664 v 48.744 c 0,1.08 0.36,1.944 1.08,2.664 0.72,0.72 1.584,1.08 2.66401,1.08 1.07999,0 1.94399,-0.36 2.66399,-1.08 0.72,-0.72 1.08,-1.584 1.08,-2.664 V 67.512 c 0,-1.08 -0.36,-1.944 -1.08,-2.664 -0.72,-0.72 -1.584,-1.08 -2.66399,-1.08 -1.08001,0 -1.94401,0.36 -2.66401,1.08 z" transform="translate(0 296.27214670206183) translate(252.00000000000017 56.560460610932765) scale(1.102880137544423) translate(-293.77812 -63.768)"></path> 
   <path id="path951883" style="font-style: normal; font-weight: 700; font-size: 72px; line-height: 1; font-family: &quot;Comfortaa Bold Alt2&quot;; font-variant-ligatures: none; text-align: center; text-anchor: middle; fill: rgb(22, 22, 22);" d="m 336.95562,79.536 c -6.048,0 -11.16,2.16 -15.48,6.408 -4.248,4.248 -6.33599,9.36 -6.33599,15.408 v 15.192 c 0,1.008 0.28799,1.8 1.00799,2.448 0.648,0.72 1.44,1.008 2.448,1.008 0.93601,0 1.728,-0.288 2.37601,-1.008 0.71999,-0.648 1.07999,-1.44 1.07999,-2.448 v -15.192 c 0,-4.104 1.44,-7.632 4.32,-10.512 2.952,-2.952 6.48001,-4.392 10.584,-4.392 0.936,0 1.728,-0.36 2.448,-1.008 0.648,-0.72 1.00801,-1.512 1.00801,-2.448 0,-0.936 -0.36001,-1.8 -1.00801,-2.448 -0.72,-0.648 -1.512,-1.008 -2.448,-1.008 z" transform="translate(0 296.27214670206183) translate(278.86782549959 73.95067461973323) scale(1.102880137544423) translate(-315.13963 -79.536)"></path> 
   <path id="path951885" style="font-style: normal; font-weight: 700; font-size: 72px; line-height: 1; font-family: &quot;Comfortaa Bold Alt2&quot;; font-variant-ligatures: none; text-align: center; text-anchor: middle; fill: rgb(22, 22, 22);" d="m 364.98275,120.288 c 5.544,0 10.224,-1.944 14.112,-5.832 3.888,-3.888 5.904,-8.568 5.904,-14.112 0,-5.544 -2.016,-10.224 -5.904,-14.112 -3.888,-3.888 -8.568,-5.904 -14.112,-5.904 -5.544,0 -10.224,2.016 -14.112,5.904 -3.888,3.888 -5.832,8.568 -5.832,14.112 0,5.544 1.944,10.224 5.832,14.112 3.888,3.888 8.568,5.832 14.112,5.832 z m 0,-33.048 c 3.6,0 6.696,1.296 9.288,3.816 2.52,2.592 3.816,5.688 3.816,9.288 0,3.6 -1.296,6.696 -3.816,9.216 -2.592,2.592 -5.688,3.816 -9.288,3.816 -3.6,0 -6.696,-1.224 -9.216,-3.816 -2.592,-2.52 -3.816,-5.616 -3.816,-9.216 0,-3.6 1.224,-6.696 3.816,-9.288 2.52,-2.52 5.616,-3.816 9.216,-3.816 z" transform="translate(0 296.27214670206183) translate(315.15161149028046 74.82415568866841) scale(1.102880137544423) translate(-345.03875 -80.328)"></path> 
   <path id="path951887" style="font-style: normal; font-weight: 700; font-size: 72px; line-height: 1; font-family: &quot;Comfortaa Bold Alt2&quot;; font-variant-ligatures: none; text-align: center; text-anchor: middle; fill: rgb(22, 22, 22);" d="m 429.047,120.216 c 1.008,0 1.872,-0.36 2.592,-1.08 0.72,-0.72 1.008,-1.584 1.008,-2.592 V 98.04 c 0,-5.04 -1.8,-9.36 -5.328,-12.96 -3.6,-3.6 -7.992,-5.4 -13.032,-5.4 -5.112,0 -9.432,1.8 -13.032,5.4 -3.6,3.6 -5.4,7.92 -5.4,12.96 v 18.504 c 0,1.008 0.36,1.872 1.08,2.592 0.72,0.72 1.584,1.008 2.52,1.008 1.008,0 1.872,-0.288 2.592,-1.008 0.72,-0.72 1.008,-1.584 1.008,-2.592 V 98.04 c 0,-3.024 1.152,-5.688 3.312,-7.848 2.16,-2.232 4.824,-3.312 7.92,-3.312 3.096,0 5.688,1.08 7.92,3.312 2.16,2.16 3.24,4.824 3.24,7.848 v 18.576 c 0,0.936 0.36,1.8 1.08,2.52 0.72,0.72 1.584,1.08 2.52,1.08 z" transform="translate(0 296.27214670206183) translate(374.5044846924056 74.10948935953965) scale(1.102880137544423) translate(-395.855 -79.68)"></path> 
   <path id="path951889" style="font-style: normal; font-weight: 700; font-size: 72px; line-height: 1; font-family: &quot;Comfortaa Bold Alt2&quot;; font-variant-ligatures: none; text-align: center; text-anchor: middle; fill: rgb(22, 22, 22);" d="m 473.44513,82.416 c -2.66401,-1.44 -5.61601,-2.16 -8.928,-2.16 -2.44801,0 -4.68,0.432 -6.76801,1.296 -2.15999,0.864 -3.95999,2.016 -5.472,3.528 V 67.44 c 0,-1.08 -0.36,-1.944 -1.008,-2.664 -0.72,-0.648 -1.584,-1.008 -2.664,-1.008 -1.08,0 -1.94399,0.36 -2.664,1.008 -0.72,0.72 -1.00799,1.584 -1.00799,2.664 v 48.96 c 0,1.08 0.28799,1.944 1.00799,2.664 0.72001,0.72 1.584,1.008 2.664,1.008 1.08,0 1.944,-0.288 2.664,-1.008 0.648,-0.72 1.008,-1.584 1.008,-2.664 V 96.096 c 0,-1.728 0.432,-3.24 1.368,-4.68 0.936,-1.368 2.232,-2.448 3.888,-3.312 1.656,-0.792 3.528,-1.224 5.54401,-1.224 3.45599,0 6.19199,1.008 8.27999,3.024 2.08801,2.016 3.168,4.896 3.168,8.784 V 116.4 c 0,1.08 0.28801,1.944 1.008,2.664 0.72,0.72 1.584,1.008 2.66401,1.008 1.00799,0 1.87199,-0.288 2.592,-1.008 0.71999,-0.72 1.07999,-1.584 1.07999,-2.664 V 98.688 c 0,-3.888 -0.79199,-7.2 -2.23199,-9.936 -1.512,-2.736 -3.60001,-4.896 -6.192,-6.336 z" transform="translate(0 296.27214670206183) translate(431.9404198698619 56.560460610932765) scale(1.102880137544423) translate(-444.93313 -63.768)"></path> 
   <path id="path951891" style="font-style: normal; font-weight: 700; font-size: 72px; line-height: 1; font-family: &quot;Comfortaa Bold Alt2&quot;; font-variant-ligatures: none; text-align: center; text-anchor: middle; fill: rgb(22, 22, 22);" d="m 511.93587,120.288 c 5.544,0 10.22401,-1.944 14.112,-5.832 3.888,-3.888 5.904,-8.568 5.904,-14.112 0,-5.544 -2.016,-10.224 -5.904,-14.112 -3.88799,-3.888 -8.568,-5.904 -14.112,-5.904 -5.54399,0 -10.22399,2.016 -14.112,5.904 -3.888,3.888 -5.832,8.568 -5.832,14.112 0,5.544 1.944,10.224 5.832,14.112 3.88801,3.888 8.56801,5.832 14.112,5.832 z m 0,-33.048 c 3.60001,0 6.69601,1.296 9.28801,3.816 2.51999,2.592 3.816,5.688 3.816,9.288 0,3.6 -1.29601,6.696 -3.816,9.216 -2.592,2.592 -5.688,3.816 -9.28801,3.816 -3.6,0 -6.696,-1.224 -9.216,-3.816 -2.59199,-2.52 -3.816,-5.616 -3.816,-9.216 0,-3.6 1.22401,-6.696 3.816,-9.288 2.52,-2.52 5.616,-3.816 9.216,-3.816 z" transform="translate(0 296.27214670206183) translate(487.14920992636235 74.82415568866841) scale(1.102880137544423) translate(-491.99187 -80.328)"></path> 
   <path id="path951893" style="font-style: normal; font-weight: 700; font-size: 72px; line-height: 1; font-family: &quot;Comfortaa Bold Alt2&quot;; font-variant-ligatures: none; text-align: center; text-anchor: middle; fill: rgb(22, 22, 22);" d="m 564.76813,79.536 c -6.048,0 -11.16001,2.16 -15.48,6.408 -4.24801,4.248 -6.336,9.36 -6.336,15.408 v 15.192 c 0,1.008 0.288,1.8 1.00799,2.448 0.648,0.72 1.44,1.008 2.44801,1.008 0.93599,0 1.72799,-0.288 2.376,-1.008 0.72,-0.648 1.07999,-1.44 1.07999,-2.448 v -15.192 c 0,-4.104 1.44,-7.632 4.32,-10.512 2.952,-2.952 6.48001,-4.392 10.58401,-4.392 0.93599,0 1.72799,-0.36 2.448,-1.008 0.648,-0.72 1.00799,-1.512 1.00799,-2.448 0,-0.936 -0.35999,-1.8 -1.00799,-2.448 -0.72001,-0.648 -1.51201,-1.008 -2.448,-1.008 z" transform="translate(0 296.27214670206183) translate(546.6609088970952 73.95067461973323) scale(1.102880137544423) translate(-542.95213 -79.536)"></path> 
   <path id="path951895" style="font-style: normal; font-weight: 700; font-size: 72px; line-height: 1; font-family: &quot;Comfortaa Bold Alt2&quot;; font-variant-ligatures: none; text-align: center; text-anchor: middle; fill: rgb(22, 22, 22);" d="m 599.99975,81.84 c -2.448,-1.008 -5.256,-1.512 -8.352,-1.512 -2.592,0 -4.968,0.432 -7.2,1.224 -2.304,0.864 -4.104,2.088 -5.472,3.672 -1.44,1.656 -2.088,3.672 -2.088,5.976 0,5.832 4.608,9.648 13.824,11.376 3.528,0.72 6.048,1.512 7.56,2.52 1.44,1.008 2.232,2.232 2.232,3.672 0,1.584 -0.792,2.808 -2.304,3.672 -1.512,0.936 -3.6,1.368 -6.336,1.368 -2.088,0 -4.032,-0.36 -5.832,-1.08 -1.872,-0.72 -3.24,-1.656 -4.104,-2.664 -0.864,-0.864 -1.8,-1.296 -2.736,-1.296 -0.792,0 -1.656,0.36 -2.52,1.008 -1.008,0.72 -1.44,1.656 -1.44,2.808 0,0.864 0.288,1.656 0.936,2.232 1.584,1.656 3.888,2.952 6.768,3.96 2.88,1.008 5.904,1.512 9.216,1.512 3.24,0 6.048,-0.504 8.352,-1.512 2.304,-1.008 4.104,-2.448 5.328,-4.248 1.152,-1.8 1.8,-3.816 1.8,-6.048 0,-2.952 -1.152,-5.4 -3.312,-7.272 -2.16,-1.872 -5.904,-3.312 -11.088,-4.392 -2.592,-0.504 -4.536,-1.008 -5.832,-1.584 -1.368,-0.576 -2.304,-1.152 -2.736,-1.8 -0.504,-0.648 -0.72,-1.44 -0.72,-2.448 0,-1.296 0.648,-2.376 2.088,-3.096 1.44,-0.72 3.24,-1.152 5.472,-1.152 1.872,0 3.528,0.288 4.896,0.72 1.296,0.432 2.592,1.224 3.816,2.304 1.008,0.936 2.088,1.368 3.384,1.368 0.792,0 1.44,-0.144 2.016,-0.576 0.792,-0.648 1.224,-1.368 1.224,-2.232 0,-0.72 -0.36,-1.512 -0.936,-2.304 -1.44,-1.728 -3.456,-3.168 -5.904,-4.176 z" transform="translate(0 296.27214670206183) translate(585.5701010552102 74.82415568866841) scale(1.102880137544423) translate(-575.23175 -80.328)"></path> 
   <path id="path951897" style="font-style: normal; font-weight: 700; font-size: 72px; line-height: 1; font-family: &quot;Comfortaa Bold Alt2&quot;; font-variant-ligatures: none; text-align: center; text-anchor: middle; fill: rgb(22, 22, 22);" d="m 633.8375,120.288 c 4.752,0 8.928,-1.44 12.6,-4.464 0.792,-0.576 1.152,-1.368 1.296,-2.304 0.072,-1.008 -0.144,-1.8 -0.792,-2.592 -0.576,-0.72 -1.368,-1.152 -2.304,-1.224 -0.936,-0.072 -1.8,0.144 -2.52,0.792 -2.448,1.944 -5.184,2.88 -8.28,2.88 -3.6,0 -6.696,-1.224 -9.216,-3.816 -2.592,-2.52 -3.816,-5.616 -3.816,-9.216 0,-3.6 1.224,-6.696 3.816,-9.288 2.52,-2.52 5.616,-3.816 9.216,-3.816 2.952,0 5.616,0.936 7.992,2.736 2.304,1.8 3.816,4.104 4.608,6.912 h -12.6 c -0.936,0 -1.8,0.36 -2.448,1.008 -0.648,0.648 -1.008,1.512 -1.008,2.448 0,0.936 0.36,1.8 1.008,2.448 0.648,0.648 1.512,1.008 2.448,1.008 h 16.56 c 0.936,0 1.728,-0.36 2.376,-1.008 0.72,-0.648 1.08,-1.512 1.08,-2.448 0,-5.544 -2.016,-10.224 -5.904,-14.112 -3.888,-3.888 -8.568,-5.904 -14.112,-5.904 -5.544,0 -10.224,2.016 -14.112,5.904 -3.888,3.888 -5.832,8.568 -5.832,14.112 0,5.544 1.944,10.224 5.832,14.112 3.888,3.888 8.568,5.832 14.112,5.832 z" transform="translate(0 296.27214670206183) translate(631.5180176255516 74.82415568866841) scale(1.102880137544423) translate(-613.8935 -80.328)"></path> 
   <path id="path951899" style="font-style: normal; font-weight: 700; font-size: 72px; line-height: 1; font-family: &quot;Comfortaa Bold Alt2&quot;; font-variant-ligatures: none; text-align: center; text-anchor: middle; fill: rgb(200, 199, 204);" d="m 678.014,120.288 c 5.544,0 10.224,-1.944 14.112,-5.832 3.888,-3.888 5.904,-8.568 5.904,-14.112 0,-5.544 -2.016,-10.224 -5.904,-14.112 -3.888,-3.888 -8.568,-5.904 -14.112,-5.904 -5.544,0 -10.224,2.016 -14.112,5.904 -3.888,3.888 -5.832,8.568 -5.832,14.112 0,5.544 1.944,10.224 5.832,14.112 3.888,3.888 8.568,5.832 14.112,5.832 z m 0,-33.048 c 3.6,0 6.696,1.296 9.288,3.816 2.52,2.592 3.816,5.688 3.816,9.288 0,3.6 -1.296,6.696 -3.816,9.216 -2.592,2.592 -5.688,3.816 -9.288,3.816 -3.6,0 -6.696,-1.224 -9.216,-3.816 -2.592,-2.52 -3.816,-5.616 -3.816,-9.216 0,-3.6 1.224,-6.696 3.816,-9.288 2.52,-2.52 5.616,-3.816 9.216,-3.816 z" transform="translate(0 296.27214670206183) translate(683.5480424344161 74.82415568866841) scale(1.102880137544423) translate(-658.07 -80.328)"></path> 
   <path id="path951901" style="font-style: normal; font-weight: 700; font-size: 72px; line-height: 1; font-family: &quot;Comfortaa Bold Alt2&quot;; font-variant-ligatures: none; text-align: center; text-anchor: middle; fill: rgb(200, 199, 204);" d="m 701.50288,70.104 c 0.72,0.72 1.58399,1.008 2.66399,1.008 h 21.88801 l -20.664,42.912 c -0.432,0.864 -0.648,1.656 -0.648,2.304 0,1.008 0.36,1.872 1.07999,2.592 0.72,0.72 1.512,1.08 2.52001,1.08 0.64799,0 1.29599,-0.144 1.94399,-0.504 0.57601,-0.36 1.08001,-0.864 1.44,-1.512 l 23.04001,-48.6 c 0.288,-0.72 0.504,-1.368 0.504,-1.944 0,-1.008 -0.36,-1.872 -1.08001,-2.592 -0.72,-0.72 -1.584,-1.08 -2.59199,-1.08 h -27.43201 c -1.08,0 -1.94399,0.36 -2.66399,1.08 -0.72001,0.72 -1.00801,1.584 -1.00801,2.592 0,1.08 0.288,1.944 1.00801,2.664 z" transform="translate(0 296.27214670206183) translate(733.6462293079536 56.560460610932765) scale(1.102880137544423) translate(-700.49487 -63.768)"></path> 
  </g> 
  <g id="tagline" style="font-style:normal;font-weight:500;font-size:32px;line-height:1;font-family:Raleway;font-variant-ligatures:none;text-align:center;text-anchor:middle"></g> 
 </g> 
</svg>