<svg xmlns:dc="http://purl.org/dc/elements/1.1/" xmlns:cc="http://creativecommons.org/ns#" xmlns:rdf="http://www.w3.org/1999/02/22-rdf-syntax-ns#" xmlns:svg="http://www.w3.org/2000/svg" xmlns="http://www.w3.org/2000/svg" id="svg43182" viewbox="0 0 1024 768" height="768px" width="1024px" version="1.1"> <metadata id="metadata43188"> 
  <rdf:rdf> 
   <cc:work rdf:about=""> 
    <dc:format>
     image/svg+xml
    </dc:format> 
    <dc:type rdf:resource="http://purl.org/dc/dcmitype/StillImage"></dc:type> 
   </cc:work> 
  </rdf:rdf> 
 </metadata> <defs id="defs43186"></defs> <g id="logo-group"> 
  <g id="title" style="font-style:normal;font-weight:500;font-size:72px;line-height:1;font-family:'Raleway Medium Alt1';font-variant-ligatures:none;text-align:center;text-anchor:middle" aria-label="Isleo7"> 
   <path id="path43190" style="font-style: normal; font-weight: 500; font-size: 72px; line-height: 1; font-family: &quot;Raleway Medium Alt1&quot;; font-variant-ligatures: none; text-align: center; text-anchor: middle; fill: rgb(250, 122, 0);" d="m 418.76844,120 h 6.48 V 68.88 h -6.48 z" transform="translate(0 166.20928545133148) translate(252 147.40242479664965) scale(2.393182706106993) translate(-418.76844 -68.88)"></path> 
   <path id="path43192" style="font-style: normal; font-weight: 500; font-size: 72px; line-height: 1; font-family: &quot;Raleway Medium Alt1&quot;; font-variant-ligatures: none; text-align: center; text-anchor: middle; fill: rgb(250, 122, 0);" d="m 449.21769,120.72 c 4.536,0 8.136,-1.008 10.872,-3.096 2.664,-2.016 4.032,-4.824 4.032,-8.352 0,-1.584 -0.36,-2.88 -0.936,-4.032 -0.576,-1.08 -1.512,-2.016 -2.736,-2.88 -1.224,-0.792 -2.736,-1.512 -4.608,-2.088 -1.872,-0.576 -4.032,-1.224 -6.48,-1.8 -1.584,-0.36 -2.952,-0.72 -4.104,-1.08 -1.152,-0.288 -2.016,-0.72 -2.736,-1.152 -0.72,-0.432 -1.296,-0.936 -1.584,-1.512 -0.288,-0.576 -0.432,-1.296 -0.432,-2.16 0,-2.16 0.792,-3.672 2.376,-4.68 1.584,-1.008 3.6,-1.512 5.904,-1.512 2.016,0 4.032,0.36 6.048,1.08 1.944,0.72 3.744,1.728 5.328,3.096 l 2.88,-3.816 c -1.728,-1.44 -3.744,-2.664 -6.192,-3.6 -2.448,-0.864 -5.112,-1.368 -7.92,-1.368 -2.016,0 -3.96,0.288 -5.688,0.792 -1.728,0.504 -3.24,1.224 -4.536,2.232 -1.296,1.008 -2.376,2.232 -3.096,3.672 -0.72,1.44 -1.08,3.096 -1.08,4.968 0,1.512 0.216,2.736 0.72,3.744 0.432,1.008 1.224,1.872 2.304,2.592 1.008,0.72 2.376,1.368 4.032,1.872 1.584,0.576 3.528,1.08 5.832,1.656 1.728,0.432 3.312,0.864 4.68,1.224 1.296,0.432 2.448,0.864 3.312,1.296 0.864,0.504 1.512,1.08 1.944,1.728 0.432,0.648 0.648,1.44 0.648,2.304 0,2.016 -0.864,3.528 -2.448,4.608 -1.584,1.08 -3.744,1.584 -6.48,1.584 -2.448,0 -4.824,-0.36 -6.984,-1.224 -2.232,-0.864 -4.464,-2.088 -6.624,-3.816 l -2.736,4.248 c 2.088,1.8 4.608,3.168 7.56,4.104 2.88,0.936 5.904,1.368 8.928,1.368 z" transform="translate(0 166.20928545133148) translate(297.3777355861712 178.2457635129566) scale(2.393182706106993) translate(-432.72969 -81.768)"></path> 
   <path id="path43194" style="font-style: normal; font-weight: 500; font-size: 72px; line-height: 1; font-family: &quot;Raleway Medium Alt1&quot;; font-variant-ligatures: none; text-align: center; text-anchor: middle; fill: rgb(250, 122, 0);" d="m 471.76381,67.44 v 45.144 c 0,2.52 0.648,4.464 2.088,5.832 1.44,1.44 3.384,2.088 5.832,2.088 1.08,0 2.376,-0.144 3.816,-0.432 1.44,-0.288 2.664,-0.648 3.744,-1.08 l -1.008,-5.112 c -0.648,0.288 -1.296,0.504 -2.016,0.648 -0.72,0.144 -1.368,0.216 -1.872,0.216 -1.368,0 -2.448,-0.36 -3.168,-1.152 -0.72,-0.792 -1.08,-1.872 -1.08,-3.312 V 67.44 Z" transform="translate(0 166.20928545133148) translate(402.75943004881117 143.95624169985558) scale(2.393182706106993) translate(-471.76381 -67.44)"></path> 
   <path id="path43196" style="font-style: normal; font-weight: 500; font-size: 72px; line-height: 1; font-family: &quot;Raleway Medium Alt1&quot;; font-variant-ligatures: none; text-align: center; text-anchor: middle; fill: rgb(250, 122, 0);" d="m 508.78306,120.72 c 1.872,0 3.672,-0.216 5.4,-0.72 1.728,-0.432 3.24,-1.08 4.68,-1.944 1.44,-0.864 2.664,-1.872 3.744,-3.024 1.08,-1.152 1.944,-2.376 2.592,-3.816 l -5.472,-1.512 c -0.432,1.008 -1.008,1.872 -1.728,2.592 -0.72,0.792 -1.584,1.44 -2.52,1.944 -1.008,0.576 -2.016,1.008 -3.096,1.296 -1.152,0.288 -2.232,0.432 -3.384,0.432 -1.656,0 -3.24,-0.288 -4.68,-0.936 -1.44,-0.576 -2.736,-1.44 -3.888,-2.592 -1.152,-1.08 -2.088,-2.376 -2.808,-3.96 -0.72,-1.512 -1.152,-3.24 -1.296,-5.112 h 31.176 c 0,-0.216 0.072,-0.576 0.072,-1.008 0,-0.432 0.072,-0.864 0.072,-1.44 0,-2.448 -0.504,-4.896 -1.368,-7.2 -0.864,-2.304 -2.16,-4.392 -3.744,-6.12 -1.656,-1.728 -3.672,-3.168 -5.976,-4.248 -2.304,-1.008 -4.896,-1.584 -7.704,-1.584 -2.88,0 -5.472,0.576 -7.776,1.584 -2.376,1.008 -4.392,2.448 -6.12,4.176 -1.728,1.8 -3.024,3.888 -3.96,6.192 -0.936,2.376 -1.368,4.896 -1.368,7.488 0,2.664 0.432,5.184 1.368,7.56 0.936,2.376 2.232,4.464 3.96,6.192 1.656,1.8 3.672,3.24 6.048,4.248 2.304,1.008 4.896,1.512 7.776,1.512 z m 12.888,-22.032 h -25.488 c 0.144,-1.728 0.504,-3.384 1.224,-4.896 0.72,-1.44 1.584,-2.736 2.736,-3.816 1.152,-1.08 2.448,-1.944 3.96,-2.52 1.44,-0.576 3.024,-0.936 4.752,-0.936 1.656,0 3.24,0.36 4.752,0.936 1.44,0.576 2.736,1.44 3.888,2.448 1.152,1.08 2.088,2.376 2.808,3.888 0.72,1.512 1.224,3.168 1.368,4.896 z" transform="translate(0 166.20928545133148) translate(457.4849372850363 178.2457635129566) scale(2.393182706106993) translate(-489.63106 -81.768)"></path> 
   <path id="path43198" style="font-style: normal; font-weight: 500; font-size: 72px; line-height: 1; font-family: &quot;Raleway Medium Alt1&quot;; font-variant-ligatures: none; text-align: center; text-anchor: middle; fill: rgb(250, 122, 0);" d="m 551.17644,120.72 c 2.808,0 5.4,-0.504 7.704,-1.584 2.304,-1.008 4.32,-2.448 6.048,-4.248 1.656,-1.728 2.952,-3.816 3.888,-6.192 0.864,-2.304 1.368,-4.824 1.368,-7.416 0,-2.592 -0.504,-5.112 -1.44,-7.488 -0.936,-2.304 -2.232,-4.392 -3.888,-6.192 -1.656,-1.728 -3.672,-3.168 -5.976,-4.248 -2.376,-1.008 -4.968,-1.584 -7.704,-1.584 -2.808,0 -5.4,0.576 -7.704,1.584 -2.304,1.08 -4.32,2.52 -5.976,4.248 -1.656,1.8 -2.952,3.888 -3.888,6.192 -0.936,2.376 -1.368,4.896 -1.368,7.488 0,2.592 0.432,5.112 1.368,7.416 0.864,2.376 2.16,4.464 3.816,6.192 1.656,1.8 3.672,3.24 5.976,4.248 2.304,1.08 4.896,1.584 7.776,1.584 z m -12.456,-19.368 c 0,-1.944 0.288,-3.744 0.936,-5.472 0.648,-1.728 1.512,-3.168 2.664,-4.464 1.152,-1.296 2.448,-2.304 3.96,-3.024 1.512,-0.72 3.168,-1.152 4.896,-1.152 1.728,0 3.312,0.36 4.824,1.08 1.512,0.72 2.88,1.728 4.032,3.024 1.152,1.296 2.016,2.736 2.664,4.464 0.648,1.728 1.008,3.528 1.008,5.4 0,2.016 -0.36,3.816 -1.008,5.544 -0.648,1.728 -1.512,3.168 -2.664,4.464 -1.152,1.296 -2.52,2.232 -4.032,2.952 -1.512,0.72 -3.096,1.08 -4.824,1.08 -1.728,0 -3.384,-0.36 -4.896,-1.08 -1.512,-0.72 -2.808,-1.656 -3.96,-2.952 -1.152,-1.224 -2.016,-2.664 -2.664,-4.392 -0.648,-1.656 -0.936,-3.456 -0.936,-5.472 z" transform="translate(0 166.20928545133148) translate(571.4228821495125 178.2457635129566) scale(2.393182706106993) translate(-532.24044 -81.768)"></path> 
   <path id="path43200" style="font-style: normal; font-weight: 500; font-size: 72px; line-height: 1; font-family: &quot;Raleway Medium Alt1&quot;; font-variant-ligatures: none; text-align: center; text-anchor: middle; fill: rgb(250, 122, 0);" d="m 601.04431,83.856 -22.896,45.288 h 7.2 l 25.704,-51.12 h -36.288 v 5.832 z" transform="translate(0 166.20928545133148) translate(685.1561859607895 169.285687461292) scale(2.393182706106993) translate(-574.76431 -78.024)"></path> 
  </g> 
  <g id="tagline" style="font-style:oblique;font-weight:600;font-size:32px;line-height:1;font-family:Raleway;font-variant-ligatures:none;text-align:center;text-anchor:middle"></g> 
 </g> 
</svg>