<svg xmlns:dc="http://purl.org/dc/elements/1.1/" xmlns:cc="http://creativecommons.org/ns#" xmlns:rdf="http://www.w3.org/1999/02/22-rdf-syntax-ns#" xmlns:svg="http://www.w3.org/2000/svg" xmlns="http://www.w3.org/2000/svg" id="svg346255" viewbox="0 0 1024 768" height="768px" width="1024px" version="1.1"> <metadata id="metadata346261"> 
  <rdf:rdf> 
   <cc:work rdf:about=""> 
    <dc:format>
     image/svg+xml
    </dc:format> 
    <dc:type rdf:resource="http://purl.org/dc/dcmitype/StillImage"></dc:type> 
   </cc:work> 
  </rdf:rdf> 
 </metadata> <defs id="defs346259"></defs> <g id="logo-group"> 
  <g id="title" style="font-style:oblique;font-weight:700;font-size:72px;line-height:1;font-family:Averta;font-variant-ligatures:none;text-align:center;text-anchor:middle" aria-label="Jaguaro7"> 
   <path id="path346263" style="font-style: oblique; font-weight: 700; font-size: 72px; line-height: 1; font-family: Averta; font-variant-ligatures: none; text-align: center; text-anchor: middle; fill: rgb(255, 255, 255);" d="m 381.92581,120.648 c 10.584,0 15.408,-6.264 16.992,-19.368 l 3.96,-32.4 h -11.52 l -3.96,31.896 c -0.864,7.2 -3.096,8.856 -5.616,8.856 -2.232,0 -3.888,-1.728 -4.824,-3.744 l -7.632,7.776 c 2.664,4.68 7.632,6.984 12.6,6.984 z" transform="translate(0 230.6720665479196) translate(252.00000000000006 97.53426663702055) scale(1.6901025934526792) translate(-369.32581 -68.88)"></path> 
   <path id="path346265" style="font-style: oblique; font-weight: 700; font-size: 72px; line-height: 1; font-family: Averta; font-variant-ligatures: none; text-align: center; text-anchor: middle; fill: rgb(255, 255, 255);" d="m 416.61856,120.648 c 3.96,0 7.488,-2.16 10.08,-5.904 l 0.216,0.072 -0.648,5.184 h 10.872 l 4.32,-35.208 h -10.872 l -0.288,2.448 h -0.216 c -1.872,-1.944 -4.608,-3.096 -8.28,-3.096 -9.216,0 -16.632,9.576 -16.632,22.104 0,8.136 3.888,14.4 11.448,14.4 z m 3.456,-9.576 c -2.448,0 -4.032,-2.232 -4.032,-5.616 0,-5.256 2.88,-11.664 7.632,-11.664 2.232,0 4.248,0.864 5.832,2.52 l -0.144,1.008 c -1.224,8.856 -5.544,13.752 -9.288,13.752 z" transform="translate(0 230.6720665479196) translate(317.651612717021 123.33199262348225) scale(1.6901025934526792) translate(-405.17056 -84.144)"></path> 
   <path id="path346267" style="font-style: oblique; font-weight: 700; font-size: 72px; line-height: 1; font-family: Averta; font-variant-ligatures: none; text-align: center; text-anchor: middle; fill: rgb(255, 255, 255);" d="m 481.03944,84.792 h -10.8 l -0.216,2.232 -0.216,0.072 c -1.872,-1.944 -4.608,-2.952 -8.208,-2.952 -9.216,0 -16.56,9.576 -16.56,21.744 0,7.344 3.816,13.68 11.448,13.68 3.888,0 7.416,-2.232 10.008,-5.904 l 0.216,0.072 c -1.296,10.224 -4.896,12.024 -10.296,12.024 -3.096,0 -6.048,-0.936 -9,-2.736 l -3.384,8.424 c 4.104,2.52 8.352,3.456 12.816,3.456 9.504,0 18.504,-3.744 20.448,-19.44 z m -11.88,11.376 -0.144,1.152 c -1.224,7.776 -5.4,12.672 -9.144,12.672 -2.448,0 -3.96,-1.8 -3.96,-5.184 0,-4.608 2.808,-11.016 7.56,-11.016 2.232,0 4.104,0.792 5.688,2.376 z" transform="translate(0 230.6720665479196) translate(388.4007945692323 123.33199262348225) scale(1.6901025934526792) translate(-444.03144 -84.144)"></path> 
   <path id="path346269" style="font-style: oblique; font-weight: 700; font-size: 72px; line-height: 1; font-family: Averta; font-variant-ligatures: none; text-align: center; text-anchor: middle; fill: rgb(255, 255, 255);" d="m 494.70369,120.648 c 4.392,0 7.848,-2.304 10.44,-5.832 h 0.144 l -0.432,5.184 h 10.584 l 4.32,-35.208 h -10.8 l -1.944,16.128 c -0.648,5.184 -4.896,10.08 -7.92,10.08 -2.52,0 -3.096,-1.872 -2.304,-7.56 l 2.664,-18.648 h -10.728 l -3.024,21.888 c -1.512,10.44 2.448,13.968 9,13.968 z" transform="translate(0 230.6720665479196) translate(463.358314978115 124.4271791040396) scale(1.6901025934526792) translate(-485.38231 -84.792)"></path> 
   <path id="path346271" style="font-style: oblique; font-weight: 700; font-size: 72px; line-height: 1; font-family: Averta; font-variant-ligatures: none; text-align: center; text-anchor: middle; fill: rgb(255, 255, 255);" d="m 534.88419,120.648 c 3.96,0 7.488,-2.16 10.08,-5.904 l 0.216,0.072 -0.648,5.184 h 10.872 l 4.32,-35.208 h -10.872 l -0.288,2.448 h -0.216 c -1.872,-1.944 -4.608,-3.096 -8.28,-3.096 -9.216,0 -16.632,9.576 -16.632,22.104 0,8.136 3.888,14.4 11.448,14.4 z m 3.456,-9.576 c -2.448,0 -4.032,-2.232 -4.032,-5.616 0,-5.256 2.88,-11.664 7.632,-11.664 2.232,0 4.248,0.864 5.832,2.52 l -0.144,1.008 c -1.224,8.856 -5.544,13.752 -9.288,13.752 z" transform="translate(0 230.6720665479196) translate(532.7435840374101 123.33199262348225) scale(1.6901025934526792) translate(-523.43619 -84.144)"></path> 
   <path id="path346273" style="font-style: oblique; font-weight: 700; font-size: 72px; line-height: 1; font-family: Averta; font-variant-ligatures: none; text-align: center; text-anchor: middle; fill: rgb(255, 255, 255);" d="m 567.48106,84.792 -4.32,35.208 h 10.8 l 1.584,-13.536 c 1.296,-8.352 5.616,-12.24 10.8,-10.368 l 1.512,-11.952 c -3.888,0 -7.344,1.872 -10.08,5.472 h -0.144 l 0.648,-4.824 z" transform="translate(0 230.6720665479196) translate(604.9529976293387 123.33199262348225) scale(1.6901025934526792) translate(-563.16106 -84.144)"></path> 
   <path id="path346275" style="font-style: oblique; font-weight: 700; font-size: 72px; line-height: 1; font-family: Averta; font-variant-ligatures: none; text-align: center; text-anchor: middle; fill: rgb(21, 21, 21);" d="m 602.81844,120.648 c 13.464,0 19.584,-10.008 19.584,-21.456 0,-9.576 -5.976,-15.048 -15.048,-15.048 -12.384,0 -19.44,10.08 -19.44,21.384 0,9.648 5.976,15.12 14.904,15.12 z m 0.792,-9.648 c -2.304,0 -4.752,-1.872 -4.752,-6.048 0,-5.4 2.88,-11.16 7.632,-11.16 1.944,0 4.968,1.08 4.968,6.12 0,5.76 -3.096,11.088 -7.848,11.088 z" transform="translate(0 230.6720665479196) translate(651.8590571444164 123.33199262348225) scale(1.6901025934526792) translate(-587.91444 -84.144)"></path> 
   <path id="path346277" style="font-style: oblique; font-weight: 700; font-size: 72px; line-height: 1; font-family: Averta; font-variant-ligatures: none; text-align: center; text-anchor: middle; fill: rgb(21, 21, 21);" d="m 655.99944,70.536 h -27.864 l -1.224,10.08 h 15.48 l -17.568,38.52 11.088,2.016 19.224,-43.344 z" transform="translate(0 230.6720665479196) translate(719.3093615465193 100.3330765317782) scale(1.6901025934526792) translate(-624.82344 -70.536)"></path> 
  </g> 
  <g id="tagline" style="font-style:normal;font-weight:500;font-size:32px;line-height:1;font-family:Raleway;font-variant-ligatures:none;text-align:center;text-anchor:middle"></g> 
 </g> 
</svg>