<svg xmlns:dc="http://purl.org/dc/elements/1.1/" xmlns:cc="http://creativecommons.org/ns#" xmlns:rdf="http://www.w3.org/1999/02/22-rdf-syntax-ns#" xmlns:svg="http://www.w3.org/2000/svg" xmlns="http://www.w3.org/2000/svg" id="svg20034" viewbox="0 0 1024 768" height="768px" width="1024px" version="1.1"> <metadata id="metadata20040"> 
  <rdf:rdf> 
   <cc:work rdf:about=""> 
    <dc:format>
     image/svg+xml
    </dc:format> 
    <dc:type rdf:resource="http://purl.org/dc/dcmitype/StillImage"></dc:type> 
   </cc:work> 
  </rdf:rdf> 
 </metadata> <defs id="defs20038"></defs> <g id="logo-group"> 
  <g id="title" style="font-style:normal;font-weight:700;font-size:72px;line-height:1;font-family:'Comfortaa Bold Alt2';font-variant-ligatures:none;text-align:center;text-anchor:middle" aria-label="Januso7"> 
   <path id="path20042" style="font-style: normal; font-weight: 700; font-size: 72px; line-height: 1; font-family: &quot;Comfortaa Bold Alt2&quot;; font-variant-ligatures: none; text-align: center; text-anchor: middle; fill: rgb(178, 56, 95);" d="m 390.28062,112.44 c 1.44,-2.592 2.23201,-5.616 2.23201,-9 V 67.512 c 0,-1.08 -0.36001,-1.944 -1.08,-2.664 -0.72001,-0.72 -1.65601,-1.08 -2.73601,-1.08 -1.08,0 -1.94399,0.36 -2.664,1.08 -0.71999,0.72 -1.00799,1.584 -1.00799,2.664 v 35.928 c 0,3.096 -0.93601,5.616 -2.808,7.56 -1.87201,2.016 -4.17601,2.952 -7.05601,2.952 -2.88,0 -5.256,-0.936 -7.056,-2.952 -1.872,-1.944 -2.736,-4.464 -2.736,-7.56 0,-1.08 -0.36,-1.944 -1.07999,-2.664 -0.72001,-0.72 -1.584,-1.08 -2.66401,-1.08 -1.08,0 -1.94399,0.36 -2.664,1.08 -0.71999,0.72 -1.08,1.584 -1.08,2.664 0,3.384 0.72,6.408 2.16,9 1.44,2.592 3.528,4.68 6.12,6.12 2.59201,1.44 5.61601,2.16 9,2.16 3.312,0 6.336,-0.72 8.928,-2.16 2.59201,-1.44 4.68,-3.528 6.192,-6.12 z" transform="translate(0 256.409450378242) translate(251.99999999999994 83.95274056068976) scale(1.5324416723229484) translate(-357.88062 -63.768)"></path> 
   <path id="path20044" style="font-style: normal; font-weight: 700; font-size: 72px; line-height: 1; font-family: &quot;Comfortaa Bold Alt2&quot;; font-variant-ligatures: none; text-align: center; text-anchor: middle; fill: rgb(178, 56, 95);" d="m 438.08525,86.232 c -3.888,-3.888 -8.568,-5.904 -14.112,-5.904 -5.472,0 -10.224,2.016 -14.112,5.904 -3.888,3.888 -5.832,8.568 -5.832,14.112 0,5.544 1.944,10.224 5.832,14.112 3.888,3.888 8.64,5.832 14.112,5.832 4.968,0 9.36,-1.584 13.104,-4.824 v 1.368 c 0,1.008 0.288,1.8 1.008,2.448 0.648,0.72 1.44,1.008 2.448,1.008 0.936,0 1.728,-0.288 2.448,-1.008 0.648,-0.648 1.008,-1.44 1.008,-2.448 v -16.488 c 0,-5.544 -1.944,-10.224 -5.904,-14.112 z m -14.112,27.144 c -3.6,0 -6.696,-1.224 -9.216,-3.816 -2.592,-2.52 -3.816,-5.616 -3.816,-9.216 0,-3.6 1.224,-6.696 3.816,-9.216 2.52,-2.592 5.616,-3.888 9.216,-3.888 3.6,0 6.696,1.296 9.216,3.888 2.592,2.52 3.888,5.616 3.888,9.216 0,3.6 -1.296,6.696 -3.888,9.216 -2.52,2.592 -5.616,3.816 -9.216,3.816 z" transform="translate(0 256.409450378242) translate(330.3822920942277 109.32997465435781) scale(1.5324416723229484) translate(-404.02925 -80.328)"></path> 
   <path id="path20046" style="font-style: normal; font-weight: 700; font-size: 72px; line-height: 1; font-family: &quot;Comfortaa Bold Alt2&quot;; font-variant-ligatures: none; text-align: center; text-anchor: middle; fill: rgb(178, 56, 95);" d="m 488.1095,120.216 c 1.008,0 1.872,-0.36 2.592,-1.08 0.72,-0.72 1.008,-1.584 1.008,-2.592 V 98.04 c 0,-5.04 -1.8,-9.36 -5.328,-12.96 -3.6,-3.6 -7.992,-5.4 -13.032,-5.4 -5.112,0 -9.432,1.8 -13.032,5.4 -3.6,3.6 -5.4,7.92 -5.4,12.96 v 18.504 c 0,1.008 0.36,1.872 1.08,2.592 0.72,0.72 1.584,1.008 2.52,1.008 1.008,0 1.872,-0.288 2.592,-1.008 0.72,-0.72 1.008,-1.584 1.008,-2.592 V 98.04 c 0,-3.024 1.152,-5.688 3.312,-7.848 2.16,-2.232 4.824,-3.312 7.92,-3.312 3.096,0 5.688,1.08 7.92,3.312 2.16,2.16 3.24,4.824 3.24,7.848 v 18.576 c 0,0.936 0.36,1.8 1.08,2.52 0.72,0.72 1.584,1.08 2.52,1.08 z" transform="translate(0 256.409450378242) translate(416.0277753874308 108.33695245069254) scale(1.5324416723229484) translate(-454.9175 -79.68)"></path> 
   <path id="path20048" style="font-style: normal; font-weight: 700; font-size: 72px; line-height: 1; font-family: &quot;Comfortaa Bold Alt2&quot;; font-variant-ligatures: none; text-align: center; text-anchor: middle; fill: rgb(178, 56, 95);" d="m 536.46762,80.472 c -1.008,0 -1.87199,0.36 -2.59199,1.08 -0.72001,0.72 -1.00801,1.512 -1.00801,2.52 V 102 c 0,3.096 -1.15199,5.76 -3.312,7.92 -2.232,2.232 -4.824,3.312 -7.92,3.312 -3.096,0 -5.68799,-1.08 -7.91999,-3.312 -2.16,-2.16 -3.24001,-4.824 -3.24001,-7.92 V 84.072 c 0,-1.008 -0.35999,-1.8 -1.08,-2.52 -0.71999,-0.72 -1.512,-1.08 -2.51999,-1.08 -1.00801,0 -1.87201,0.36 -2.59201,1.08 -0.72,0.72 -1.008,1.512 -1.008,2.52 V 102 c 0,5.112 1.728,9.432 5.32801,13.032 3.59999,3.6 7.92,5.4 13.03199,5.4 5.04,0 9.43201,-1.8 13.03201,-5.4 3.59999,-3.6 5.4,-7.92 5.4,-13.032 V 84.072 c 0,-1.008 -0.36001,-1.8 -1.08001,-2.52 -0.72,-0.72 -1.51199,-1.08 -2.52,-1.08 z" transform="translate(0 256.409450378242) translate(497.7959820322393 109.5506462551723) scale(1.5324416723229484) translate(-503.27562 -80.472)"></path> 
   <path id="path20050" style="font-style: normal; font-weight: 700; font-size: 72px; line-height: 1; font-family: &quot;Comfortaa Bold Alt2&quot;; font-variant-ligatures: none; text-align: center; text-anchor: middle; fill: rgb(178, 56, 95);" d="m 575.24975,81.84 c -2.448,-1.008 -5.256,-1.512 -8.352,-1.512 -2.592,0 -4.968,0.432 -7.2,1.224 -2.304,0.864 -4.104,2.088 -5.472,3.672 -1.44,1.656 -2.088,3.672 -2.088,5.976 0,5.832 4.608,9.648 13.824,11.376 3.528,0.72 6.048,1.512 7.56,2.52 1.44,1.008 2.232,2.232 2.232,3.672 0,1.584 -0.792,2.808 -2.304,3.672 -1.512,0.936 -3.6,1.368 -6.336,1.368 -2.088,0 -4.032,-0.36 -5.832,-1.08 -1.872,-0.72 -3.24,-1.656 -4.104,-2.664 -0.864,-0.864 -1.8,-1.296 -2.736,-1.296 -0.792,0 -1.656,0.36 -2.52,1.008 -1.008,0.72 -1.44,1.656 -1.44,2.808 0,0.864 0.288,1.656 0.936,2.232 1.584,1.656 3.888,2.952 6.768,3.96 2.88,1.008 5.904,1.512 9.216,1.512 3.24,0 6.048,-0.504 8.352,-1.512 2.304,-1.008 4.104,-2.448 5.328,-4.248 1.152,-1.8 1.8,-3.816 1.8,-6.048 0,-2.952 -1.152,-5.4 -3.312,-7.272 -2.16,-1.872 -5.904,-3.312 -11.088,-4.392 -2.592,-0.504 -4.536,-1.008 -5.832,-1.584 -1.368,-0.576 -2.304,-1.152 -2.736,-1.8 -0.504,-0.648 -0.72,-1.44 -0.72,-2.448 0,-1.296 0.648,-2.376 2.088,-3.096 1.44,-0.72 3.24,-1.152 5.472,-1.152 1.872,0 3.528,0.288 4.896,0.72 1.296,0.432 2.592,1.224 3.816,2.304 1.008,0.936 2.088,1.368 3.384,1.368 0.792,0 1.44,-0.144 2.016,-0.576 0.792,-0.648 1.224,-1.368 1.224,-2.232 0,-0.72 -0.36,-1.512 -0.936,-2.304 -1.44,-1.728 -3.456,-3.168 -5.904,-4.176 z" transform="translate(0 256.409450378242) translate(577.7988311949485 109.32997465435781) scale(1.5324416723229484) translate(-550.48175 -80.328)"></path> 
   <path id="path20052" style="font-style: normal; font-weight: 700; font-size: 72px; line-height: 1; font-family: &quot;Comfortaa Bold Alt2&quot;; font-variant-ligatures: none; text-align: center; text-anchor: middle; fill: rgb(196, 185, 200);" d="m 609.9515,120.288 c 5.544,0 10.224,-1.944 14.112,-5.832 3.888,-3.888 5.904,-8.568 5.904,-14.112 0,-5.544 -2.016,-10.224 -5.904,-14.112 -3.888,-3.888 -8.568,-5.904 -14.112,-5.904 -5.544,0 -10.224,2.016 -14.112,5.904 -3.888,3.888 -5.832,8.568 -5.832,14.112 0,5.544 1.944,10.224 5.832,14.112 3.888,3.888 8.568,5.832 14.112,5.832 z m 0,-33.048 c 3.6,0 6.696,1.296 9.288,3.816 2.52,2.592 3.816,5.688 3.816,9.288 0,3.6 -1.296,6.696 -3.816,9.216 -2.592,2.592 -5.688,3.816 -9.288,3.816 -3.6,0 -6.696,-1.224 -9.216,-3.816 -2.592,-2.52 -3.816,-5.616 -3.816,-9.216 0,-3.6 1.224,-6.696 3.816,-9.288 2.52,-2.52 5.616,-3.816 9.216,-3.816 z" transform="translate(0 256.409450378242) translate(646.0319459863822 109.32997465435781) scale(1.5324416723229484) translate(-590.0075 -80.328)"></path> 
   <path id="path20054" style="font-style: normal; font-weight: 700; font-size: 72px; line-height: 1; font-family: &quot;Comfortaa Bold Alt2&quot;; font-variant-ligatures: none; text-align: center; text-anchor: middle; fill: rgb(196, 185, 200);" d="m 633.44038,70.104 c 0.72,0.72 1.58399,1.008 2.66399,1.008 h 21.88801 l -20.664,42.912 c -0.432,0.864 -0.648,1.656 -0.648,2.304 0,1.008 0.36,1.872 1.07999,2.592 0.72,0.72 1.512,1.08 2.52001,1.08 0.64799,0 1.29599,-0.144 1.94399,-0.504 0.57601,-0.36 1.08001,-0.864 1.44,-1.512 l 23.04001,-48.6 c 0.288,-0.72 0.504,-1.368 0.504,-1.944 0,-1.008 -0.36,-1.872 -1.08001,-2.592 -0.72,-0.72 -1.584,-1.08 -2.59199,-1.08 h -27.43201 c -1.08,0 -1.94399,0.36 -2.66399,1.08 -0.72001,0.72 -1.00801,1.584 -1.00801,2.592 0,1.08 0.288,1.944 1.00801,2.664 z" transform="translate(0 256.409450378242) translate(718.7077930788804 83.95274056068976) scale(1.5324416723229484) translate(-632.43237 -63.768)"></path> 
  </g> 
  <g id="tagline" style="font-style:normal;font-weight:500;font-size:32px;line-height:1;font-family:Raleway;font-variant-ligatures:none;text-align:center;text-anchor:middle"></g> 
 </g> 
</svg>