<svg xmlns:dc="http://purl.org/dc/elements/1.1/" xmlns:cc="http://creativecommons.org/ns#" xmlns:rdf="http://www.w3.org/1999/02/22-rdf-syntax-ns#" xmlns:svg="http://www.w3.org/2000/svg" xmlns="http://www.w3.org/2000/svg" id="svg376891" viewbox="0 0 1024 768" height="768px" width="1024px" version="1.1"> <metadata id="metadata376897"> 
  <rdf:rdf> 
   <cc:work rdf:about=""> 
    <dc:format>
     image/svg+xml
    </dc:format> 
    <dc:type rdf:resource="http://purl.org/dc/dcmitype/StillImage"></dc:type> 
   </cc:work> 
  </rdf:rdf> 
 </metadata> <defs id="defs376895"></defs> <g id="logo-group"> 
  <g id="title" style="font-style:oblique;font-weight:700;font-size:72px;line-height:1;font-family:'Uni Neue';font-variant-ligatures:none;text-align:center;text-anchor:middle" aria-label="LANO7"> 
   <path id="path376899" style="font-style: oblique; font-weight: 700; font-size: 72px; line-height: 1; font-family: &quot;Uni Neue&quot;; font-variant-ligatures: none; text-align: center; text-anchor: middle; fill: rgb(155, 147, 110);" d="m 426.31325,69.888 c 0.072,-0.792 -0.288,-1.368 -1.152,-1.368 h -8.928 c -0.72,0 -1.224,0.432 -1.296,1.152 l -8.64,48.96 c -0.144,0.792 0.288,1.368 1.08,1.368 h 28.656 c 0.792,0 1.224,-0.432 1.368,-1.152 l 1.368,-7.92 c 0.144,-0.792 -0.288,-1.368 -1.152,-1.368 h -18.288 z" transform="translate(0 187.97919296621745) translate(252.00000000000006 137.6907865261487) scale(2.266123562845136) translate(-406.26981 -68.52)"></path> 
   <path id="path376901" style="font-style: oblique; font-weight: 700; font-size: 72px; line-height: 1; font-family: &quot;Uni Neue&quot;; font-variant-ligatures: none; text-align: center; text-anchor: middle; fill: rgb(155, 147, 110);" d="m 482.093,120 c 0.864,0 1.296,-0.504 1.152,-1.296 l -7.416,-49.032 c -0.144,-0.792 -0.648,-1.152 -1.368,-1.152 h -10.512 c -0.648,0 -1.152,0.288 -1.44,0.936 l -23.976,49.032 c -0.432,0.936 -0.072,1.512 0.864,1.512 h 9.864 c 0.648,0 1.224,-0.288 1.44,-0.936 l 3.888,-8.64 h 16.2 l 1.008,8.424 c 0.072,0.792 0.576,1.152 1.296,1.152 z m -14.4,-38.952 c 0.432,4.608 1.224,12.024 1.944,19.152 h -10.512 c 3.168,-6.912 6.264,-14.4 8.28,-19.152 z" transform="translate(0 187.97919296621745) translate(331.4997389294918 137.6907865261487) scale(2.266123562845136) translate(-438.35163 -68.52)"></path> 
   <path id="path376903" style="font-style: oblique; font-weight: 700; font-size: 72px; line-height: 1; font-family: &quot;Uni Neue&quot;; font-variant-ligatures: none; text-align: center; text-anchor: middle; fill: rgb(155, 147, 110);" d="m 498.49887,120 c 0.72001,0 1.152,-0.432 1.296,-1.152 l 1.872,-10.8 c 1.224,-6.624 2.08801,-14.472 2.736,-21.312 l 0.288,-0.144 c 0.864,4.176 2.952,11.88 4.96801,17.136 l 5.68799,15.264 c 0.288,0.72 0.792,1.008 1.44,1.008 h 9.43201 c 0.792,0 1.22399,-0.432 1.36799,-1.152 l 8.64001,-48.96 c 0.14399,-0.792 -0.288,-1.368 -1.152,-1.368 h -8.784 c -0.72001,0 -1.15201,0.432 -1.29601,1.152 l -2.16,12.384 c -1.08,6.264 -2.15999,13.536 -2.87999,19.944 l -0.36001,0.072 c -0.864,-3.312 -2.808,-10.224 -4.46399,-15.48 l -5.688,-17.064 c -0.14401,-0.72 -0.72001,-1.008 -1.44,-1.008 h -9.50401 c -0.72,0 -1.224,0.432 -1.296,1.152 l -8.63999,48.96 c -0.144,0.792 0.28799,1.368 1.07999,1.368 z" transform="translate(0 187.97919296621745) translate(452.02082393237055 137.6907865261487) scale(2.266123562845136) translate(-488.53544 -68.52)"></path> 
   <path id="path376905" style="font-style: oblique; font-weight: 700; font-size: 72px; line-height: 1; font-family: &quot;Uni Neue&quot;; font-variant-ligatures: none; text-align: center; text-anchor: middle; fill: rgb(242, 145, 64);" d="m 579.61025,101.64 2.232,-12.744 c 2.16,-12.96 -4.32,-21.312 -16.632,-21.312 -12.6,0 -21.168,7.056 -23.256,18.864 l -2.232,12.744 c -2.232,12.816 4.032,21.744 16.344,21.744 12.96,0 21.456,-6.984 23.544,-19.296 z m -28.44,-1.152 2.376,-13.032 c 1.08,-5.904 4.464,-9.36 10.152,-9.36 5.472,0 7.632,3.96 6.624,9.72 l -2.304,13.176 c -1.008,5.832 -4.608,9.432 -10.296,9.432 -5.328,0 -7.56,-4.032 -6.552,-9.936 z" transform="translate(0 187.97919296621745) translate(573.8052954827712 135.56969487132568) scale(2.266123562845136) translate(-539.27676 -67.584)"></path> 
   <path id="path376907" style="font-style: oblique; font-weight: 700; font-size: 72px; line-height: 1; font-family: &quot;Uni Neue&quot;; font-variant-ligatures: none; text-align: center; text-anchor: middle; fill: rgb(242, 145, 64);" d="m 595.84513,120 c 0.71999,0 1.15199,-0.288 1.51199,-0.864 l 24.84001,-41.688 c 0.288,-0.504 0.432,-0.936 0.504,-1.44 l 1.00799,-6.12 c 0.144,-0.792 -0.288,-1.368 -1.07999,-1.368 h -31.89601 c -0.79199,0 -1.22399,0.36 -1.29599,1.152 l -1.36801,7.776 c -0.144,0.792 0.288,1.368 1.15201,1.368 h 19.87199 l -23.688,39.672 c -0.504,0.864 -0.072,1.512 0.86401,1.512 z" transform="translate(0 187.97919296621745) translate(684.6538399598868 137.6907865261487) scale(2.266123562845136) translate(-585.19225 -68.52)"></path> 
  </g> 
  <g id="tagline" style="font-style:oblique;font-weight:400;font-size:32px;line-height:1;font-family:Lato;font-variant-ligatures:none;text-align:center;text-anchor:middle"></g> 
 </g> 
</svg>