<svg xmlns:dc="http://purl.org/dc/elements/1.1/" xmlns:cc="http://creativecommons.org/ns#" xmlns:rdf="http://www.w3.org/1999/02/22-rdf-syntax-ns#" xmlns:svg="http://www.w3.org/2000/svg" xmlns="http://www.w3.org/2000/svg" id="svg25164" viewbox="0 0 1024 768" height="768px" width="1024px" version="1.1"> <metadata id="metadata25170"> 
  <rdf:rdf> 
   <cc:work rdf:about=""> 
    <dc:format>
     image/svg+xml
    </dc:format> 
    <dc:type rdf:resource="http://purl.org/dc/dcmitype/StillImage"></dc:type> 
   </cc:work> 
  </rdf:rdf> 
 </metadata> <defs id="defs25168"></defs> <g id="logo-group"> 
  <g id="title" style="font-style:normal;font-weight:200;font-size:72px;line-height:1;font-family:Montserrat;font-variant-ligatures:none;text-align:center;text-anchor:middle" aria-label="Lastminuteo7"> 
   <path id="path25172" style="font-style: normal; font-weight: 200; font-size: 72px; line-height: 1; font-family: Montserrat; font-variant-ligatures: none; text-align: center; text-anchor: middle; fill: rgb(255, 255, 255);" d="m 286.79412,69.672 h 1.44 v 48.888 h 22.536 V 120 h -23.976 z" transform="translate(0 324.48696102344616) translate(252.0000000000001 38.501900581788135) scale(0.8349681447609962) translate(-286.79412 -69.672)"></path> 
   <path id="path25174" style="font-style: normal; font-weight: 200; font-size: 72px; line-height: 1; font-family: Montserrat; font-variant-ligatures: none; text-align: center; text-anchor: middle; fill: rgb(255, 255, 255);" d="m 345.203,120 -0.072,-8.424 q -2.448,4.248 -6.48,6.336 -3.96,2.088 -9.144,2.088 -5.328,0 -8.712,-3.024 -3.384,-3.024 -3.384,-7.704 0,-4.536 3.672,-7.056 3.744,-2.52 10.152,-2.52 h 13.824 V 95.16 q -0.072,-5.256 -3.096,-8.064 -2.952,-2.88 -8.712,-2.88 -3.528,0 -6.696,1.368 -3.096,1.296 -6.336,3.816 l -0.864,-1.152 q 6.912,-5.472 13.896,-5.472 6.336,0 9.72,3.312 3.456,3.312 3.528,9.072 l 0.144,24.84 z m -15.624,-1.44 q 5.616,0 9.504,-2.448 3.888,-2.448 6.048,-7.776 l -0.072,-7.2 h -13.824 q -5.904,0 -9.144,2.16 -3.24,2.088 -3.24,5.976 0,4.176 2.88,6.768 2.952,2.52 7.848,2.52 z" transform="translate(0 324.48696102344616) translate(290.0886416633851 49.44332315073622) scale(0.8349681447609962) translate(-317.411 -82.776)"></path> 
   <path id="path25176" style="font-style: normal; font-weight: 200; font-size: 72px; line-height: 1; font-family: Montserrat; font-variant-ligatures: none; text-align: center; text-anchor: middle; fill: rgb(255, 255, 255);" d="m 378.575,86.664 q -3.816,-2.448 -9.144,-2.448 -4.608,0 -7.56,1.872 -2.88,1.872 -2.88,5.472 0,2.52 1.368,4.104 1.44,1.584 3.456,2.448 2.088,0.864 5.76,2.016 3.888,1.152 6.192,2.232 2.376,1.008 3.96,2.952 1.656,1.944 1.656,5.04 0,4.752 -3.672,7.2 -3.6,2.448 -8.856,2.448 -3.888,0 -7.416,-1.368 -3.456,-1.368 -5.904,-3.816 l 0.936,-1.08 q 2.376,2.304 5.544,3.6 3.168,1.224 6.84,1.224 4.752,0 7.92,-2.088 3.168,-2.088 3.168,-6.048 0,-2.52 -1.44,-4.104 -1.44,-1.656 -3.6,-2.592 -2.088,-0.936 -5.688,-2.016 -3.816,-1.224 -6.192,-2.232 -2.304,-1.08 -3.888,-2.952 -1.584,-1.872 -1.584,-4.824 0,-4.392 3.312,-6.624 3.384,-2.304 8.496,-2.304 5.328,0 9.936,2.664 z" transform="translate(0 324.48696102344616) translate(334.4454893856683 49.44332315073622) scale(0.8349681447609962) translate(-355.535 -82.776)"></path> 
   <path id="path25178" style="font-style: normal; font-weight: 200; font-size: 72px; line-height: 1; font-family: Montserrat; font-variant-ligatures: none; text-align: center; text-anchor: middle; fill: rgb(255, 255, 255);" d="m 408.50788,117.336 q -3.60001,2.664 -7.488,2.664 -3.81601,0 -5.832,-2.592 -1.94401,-2.592 -1.94401,-7.632 v -24.84 h -5.47199 v -1.44 h 5.47199 V 74.64 h 1.44 v 8.856 h 13.104 v 1.44 h -13.104 v 24.84 q 0,4.32 1.584,6.552 1.656,2.232 4.75201,2.232 3.59999,0 6.62399,-2.376 z" transform="translate(0 324.48696102344616) translate(373.88677944356607 42.65002232496076) scale(0.8349681447609962) translate(-387.77188 -74.64)"></path> 
   <path id="path25180" style="font-style: normal; font-weight: 200; font-size: 72px; line-height: 1; font-family: Montserrat; font-variant-ligatures: none; text-align: center; text-anchor: middle; fill: rgb(255, 255, 255);" d="m 464.5475,82.776 q 6.768,0 10.512,3.888 3.744,3.888 3.744,10.8 V 120 h -1.44 V 97.464 q 0,-6.264 -3.384,-9.72 -3.384,-3.528 -9.432,-3.528 -7.272,0.144 -11.304,4.824 -4.032,4.608 -4.032,12.744 V 120 h -1.44 V 97.464 q 0,-6.264 -3.456,-9.72 -3.384,-3.528 -9.432,-3.528 -7.2,0.144 -11.304,4.824 -4.032,4.608 -4.032,12.744 V 120 h -1.44 V 82.776 h 1.44 v 10.656 q 1.728,-5.04 5.688,-7.776 3.96,-2.808 9.72,-2.88 5.832,0 9.504,3.024 3.672,2.952 4.536,8.352 1.656,-5.4 5.616,-8.352 4.032,-2.952 9.936,-3.024 z" transform="translate(0 324.48696102344616) translate(411.7405779665556 49.44332315073622) scale(0.8349681447609962) translate(-418.1075 -82.776)"></path> 
   <path id="path25182" style="font-style: normal; font-weight: 200; font-size: 72px; line-height: 1; font-family: Montserrat; font-variant-ligatures: none; text-align: center; text-anchor: middle; fill: rgb(255, 255, 255);" d="m 493.4825,82.776 h 1.44 V 120 h -1.44 z m 0.72,-12.6 q 0.72,0 1.296,0.576 0.576,0.504 0.576,1.296 0,0.72 -0.576,1.296 -0.576,0.576 -1.296,0.576 -0.792,0 -1.368,-0.576 -0.504,-0.576 -0.504,-1.296 0,-0.792 0.504,-1.296 0.576,-0.576 1.368,-0.576 z" transform="translate(0 324.48696102344616) translate(486.2389407465659 38.922724526747686) scale(0.8349681447609962) translate(-492.3305 -70.176)"></path> 
   <path id="path25184" style="font-style: normal; font-weight: 200; font-size: 72px; line-height: 1; font-family: Montserrat; font-variant-ligatures: none; text-align: center; text-anchor: middle; fill: rgb(255, 255, 255);" d="m 527.91538,82.776 q 6.91199,0 10.72799,3.888 3.88801,3.888 3.88801,10.8 V 120 h -1.44001 V 97.464 q 0,-6.264 -3.528,-9.72 -3.45599,-3.528 -9.64799,-3.528 -6.91201,0.144 -11.01601,4.248 -4.10399,4.104 -4.67999,11.304 V 120 h -1.44 V 82.776 h 1.44 v 10.512 q 1.79999,-4.968 5.83199,-7.704 4.03201,-2.736 9.86401,-2.808 z" transform="translate(0 324.48696102344616) translate(514.167690024499 49.44332315073622) scale(0.8349681447609962) translate(-510.77938 -82.776)"></path> 
   <path id="path25186" style="font-style: normal; font-weight: 200; font-size: 72px; line-height: 1; font-family: Montserrat; font-variant-ligatures: none; text-align: center; text-anchor: middle; fill: rgb(255, 255, 255);" d="M 587.20962,82.776 V 120 h -1.43999 v -10.872 q -1.72801,5.184 -5.688,7.992 -3.96001,2.808 -9.79201,2.88 -6.768,0 -10.58399,-3.888 -3.816,-3.888 -3.816,-10.8 V 82.776 h 1.43999 v 22.536 q 0,6.264 3.384,9.792 3.456,3.456 9.576,3.456 7.27201,-0.144 11.376,-4.752 4.10401,-4.68 4.10401,-12.816 V 82.776 Z" transform="translate(0 324.48696102344616) translate(564.3578339481187 49.44332315073622) scale(0.8349681447609962) translate(-555.88963 -82.776)"></path> 
   <path id="path25188" style="font-style: normal; font-weight: 200; font-size: 72px; line-height: 1; font-family: Montserrat; font-variant-ligatures: none; text-align: center; text-anchor: middle; fill: rgb(255, 255, 255);" d="m 619.44538,117.336 q -3.60001,2.664 -7.48801,2.664 -3.81599,0 -5.832,-2.592 -1.944,-2.592 -1.944,-7.632 v -24.84 h -5.47199 v -1.44 h 5.47199 V 74.64 h 1.44 v 8.856 h 13.104 v 1.44 h -13.104 v 24.84 q 0,4.32 1.584,6.552 1.656,2.232 4.752,2.232 3.6,0 6.624,-2.376 z" transform="translate(0 324.48696102344616) translate(612.6354833361634 42.65002232496076) scale(0.8349681447609962) translate(-598.70938 -74.64)"></path> 
   <path id="path25190" style="font-style: normal; font-weight: 200; font-size: 72px; line-height: 1; font-family: Montserrat; font-variant-ligatures: none; text-align: center; text-anchor: middle; fill: rgb(255, 255, 255);" d="m 642.09388,118.56 q 4.03199,0 7.41599,-1.368 3.456,-1.44 5.76,-4.032 l 1.008,1.008 q -2.592,2.808 -6.264,4.32 -3.672,1.512 -7.91999,1.512 -5.11201,0 -9.216,-2.376 -4.03201,-2.448 -6.40801,-6.696 -2.30399,-4.248 -2.30399,-9.576 0,-5.328 2.30399,-9.576 2.376,-4.248 6.40801,-6.624 4.10399,-2.376 9.216,-2.376 5.11199,0 9,2.376 3.95999,2.376 6.12,6.624 2.15999,4.248 2.15999,9.576 h -33.768 q 0,4.968 2.08801,8.928 2.16,3.888 5.904,6.12 3.74399,2.16 8.496,2.16 z m 0,-34.344 q -4.53601,0 -8.208,2.016 -3.6,1.944 -5.76001,5.544 -2.16,3.528 -2.448,8.136 h 32.256 q -0.50399,-7.056 -4.752,-11.376 -4.248,-4.32 -11.08799,-4.32 z" transform="translate(0 324.48696102344616) translate(646.4153720846866 49.44332315073622) scale(0.8349681447609962) translate(-624.16588 -82.776)"></path> 
   <path id="path25192" style="font-style: normal; font-weight: 200; font-size: 72px; line-height: 1; font-family: Montserrat; font-variant-ligatures: none; text-align: center; text-anchor: middle; fill: rgb(104, 104, 104);" d="m 684.70663,82.776 q 5.11199,0 9.216,2.376 4.17599,2.376 6.47999,6.624 2.37601,4.248 2.37601,9.576 0,5.328 -2.37601,9.576 -2.304,4.248 -6.47999,6.696 -4.10401,2.376 -9.216,2.376 -5.11201,0 -9.288,-2.376 -4.10401,-2.448 -6.48001,-6.696 -2.30399,-4.248 -2.30399,-9.576 0,-5.328 2.30399,-9.576 2.376,-4.248 6.48001,-6.624 4.17599,-2.376 9.288,-2.376 z m 0,1.44 q -4.75201,0 -8.568,2.232 -3.816,2.16 -5.976,6.048 -2.08801,3.888 -2.08801,8.856 0,4.968 2.08801,8.928 2.16,3.888 5.976,6.12 3.81599,2.16 8.568,2.16 4.75199,0 8.568,-2.16 3.816,-2.232 5.90399,-6.12 2.16,-3.96 2.16,-8.928 0,-4.968 -2.16,-8.856 -2.08799,-3.888 -5.90399,-6.048 -3.81601,-2.232 -8.568,-2.232 z" transform="translate(0 324.48696102344616) translate(694.3999476539202 49.44332315073622) scale(0.8349681447609962) translate(-666.63463 -82.776)"></path> 
   <path id="path25194" style="font-style: normal; font-weight: 200; font-size: 72px; line-height: 1; font-family: Montserrat; font-variant-ligatures: none; text-align: center; text-anchor: middle; fill: rgb(104, 104, 104);" d="m 709.07637,69.672 h 35.496 v 1.8 L 719.94838,120 h -1.58401 l 24.91201,-48.888 h -32.76 v 8.064 h -1.44001 z" transform="translate(0 324.48696102344616) translate(742.3619707335637 38.501900581788135) scale(0.8349681447609962) translate(-709.07637 -69.672)"></path> 
  </g> 
  <g id="tagline" style="font-style:normal;font-weight:400;font-size:32px;line-height:1;font-family:Montserrat;font-variant-ligatures:none;text-align:center;text-anchor:middle"></g> 
 </g> 
</svg>