<svg xmlns:dc="http://purl.org/dc/elements/1.1/" xmlns:cc="http://creativecommons.org/ns#" xmlns:rdf="http://www.w3.org/1999/02/22-rdf-syntax-ns#" xmlns:svg="http://www.w3.org/2000/svg" xmlns="http://www.w3.org/2000/svg" id="svg518005" viewbox="0 0 1024 768" height="768px" width="1024px" version="1.1"> <metadata id="metadata518011"> 
  <rdf:rdf> 
   <cc:work rdf:about=""> 
    <dc:format>
     image/svg+xml
    </dc:format> 
    <dc:type rdf:resource="http://purl.org/dc/dcmitype/StillImage"></dc:type> 
   </cc:work> 
  </rdf:rdf> 
 </metadata> <defs id="defs518009"></defs> <g id="logo-group"> 
  <g id="title" style="font-style:normal;font-weight:700;font-size:72px;line-height:1;font-family:'Comfortaa Bold Alt2';font-variant-ligatures:none;text-align:center;text-anchor:middle" aria-label="LIGHTBLUEO7"> 
   <path id="path518013" style="font-style: normal; font-weight: 700; font-size: 72px; line-height: 1; font-family: &quot;Comfortaa Bold Alt2&quot;; font-variant-ligatures: none; text-align: center; text-anchor: middle; fill: rgb(255, 255, 255);" d="m 282.32056,113.592 c -0.72,-0.72 -1.656,-1.08 -2.664,-1.08 h -26.064 v -45 c 0,-1.008 -0.36,-1.944 -1.08,-2.664 -0.72,-0.72 -1.656,-1.08 -2.664,-1.08 -1.008,0 -1.872,0.36 -2.592,1.08 -0.72,0.72 -1.08,1.656 -1.08,2.664 v 48.744 c 0,1.08 0.288,1.944 1.008,2.664 0.72,0.72 1.584,1.08 2.664,1.08 h 29.808 c 1.008,0 1.944,-0.36 2.664,-1.08 0.72,-0.72 1.08,-1.584 1.08,-2.664 0,-1.008 -0.36,-1.944 -1.08,-2.664 z" transform="translate(0 312.4980962608728) translate(252.0000000000001 45.53750110397836) scale(0.9175997538573949) translate(-246.17656 -63.768)"></path> 
   <path id="path518015" style="font-style: normal; font-weight: 700; font-size: 72px; line-height: 1; font-family: &quot;Comfortaa Bold Alt2&quot;; font-variant-ligatures: none; text-align: center; text-anchor: middle; fill: rgb(255, 255, 255);" d="m 293.52219,64.848 c -0.72,0.72 -1.08,1.584 -1.08,2.664 v 48.744 c 0,1.08 0.36,1.944 1.08,2.664 0.72,0.72 1.584,1.08 2.664,1.08 1.08,0 1.944,-0.36 2.664,-1.08 0.72,-0.72 1.08,-1.584 1.08,-2.664 V 67.512 c 0,-1.08 -0.36,-1.944 -1.08,-2.664 -0.72,-0.72 -1.584,-1.08 -2.664,-1.08 -1.08,0 -1.944,0.36 -2.664,1.08 z" transform="translate(0 312.4980962608728) translate(297.2061299616296 45.53750110397836) scale(0.9175997538573949) translate(-292.44219 -63.768)"></path> 
   <path id="path518017" style="font-style: normal; font-weight: 700; font-size: 72px; line-height: 1; font-family: &quot;Comfortaa Bold Alt2&quot;; font-variant-ligatures: none; text-align: center; text-anchor: middle; fill: rgb(255, 255, 255);" d="m 340.22769,120.864 c 5.904,0 11.304,-1.656 16.2,-4.968 1.008,-0.72 1.584,-1.656 1.584,-2.952 v -20.16 c 0,-1.008 -0.36,-1.8 -1.08,-2.52 -0.72,-0.72 -1.584,-1.08 -2.52,-1.08 h -13.752 c -0.936,0 -1.8,0.36 -2.52,1.08 -0.72,0.72 -1.08,1.512 -1.08,2.52 0,1.008 0.36,1.872 1.08,2.592 0.72,0.648 1.584,1.008 2.52,1.008 h 10.152 v 14.544 c -3.312,1.8 -6.84,2.736 -10.584,2.736 -6.048,0 -11.16,-2.16 -15.408,-6.408 -4.248,-4.176 -6.336,-9.36 -6.336,-15.336 0,-5.976 2.088,-11.16 6.336,-15.408 4.248,-4.248 9.36,-6.336 15.408,-6.336 4.752,0 9.072,1.44 12.96,4.248 0.792,0.648 1.656,0.864 2.664,0.72 1.008,-0.144 1.8,-0.648 2.376,-1.44 0.576,-0.792 0.792,-1.656 0.648,-2.664 -0.144,-1.008 -0.576,-1.8 -1.368,-2.376 -5.184,-3.816 -10.872,-5.688 -17.28,-5.688 -3.96,0 -7.704,0.792 -11.304,2.304 -3.456,1.44 -6.48,3.528 -9.144,6.192 -2.736,2.664 -4.752,5.688 -6.264,9.144 -1.512,3.6 -2.232,7.344 -2.232,11.304 0,3.96 0.72,7.704 2.232,11.232 1.512,3.528 3.528,6.552 6.264,9.216 2.664,2.664 5.688,4.752 9.144,6.192 3.6,1.512 7.344,2.304 11.304,2.304 z" transform="translate(0 312.4980962608728) translate(317.2478849855059 44.810762098923306) scale(0.9175997538573949) translate(-311.28369 -62.976)"></path> 
   <path id="path518019" style="font-style: normal; font-weight: 700; font-size: 72px; line-height: 1; font-family: &quot;Comfortaa Bold Alt2&quot;; font-variant-ligatures: none; text-align: center; text-anchor: middle; fill: rgb(255, 255, 255);" d="m 412.32444,64.848 c -0.72,0.72 -1.08,1.584 -1.08,2.664 v 20.664 h -33.408 V 67.512 c 0,-1.08 -0.36,-1.944 -1.08,-2.664 -0.72,-0.72 -1.584,-1.08 -2.664,-1.08 -1.08,0 -1.944,0.36 -2.664,1.08 -0.72,0.72 -1.08,1.584 -1.08,2.664 v 48.744 c 0,1.08 0.36,1.944 1.08,2.664 0.72,0.72 1.584,1.08 2.664,1.08 1.08,0 1.944,-0.36 2.664,-1.08 0.72,-0.72 1.08,-1.584 1.08,-2.664 V 94.8 h 33.408 v 21.456 c 0,1.08 0.36,1.944 1.08,2.664 0.72,0.72 1.584,1.08 2.664,1.08 1.008,0 1.872,-0.288 2.592,-1.008 0.72,-0.72 1.08,-1.584 1.08,-2.736 V 67.512 c 0,-1.08 -0.36,-1.944 -1.08,-2.664 -0.72,-0.72 -1.584,-1.08 -2.592,-1.08 -1.08,0 -1.944,0.36 -2.664,1.08 z" transform="translate(0 312.4980962608728) translate(374.1984843087267 45.53750110397836) scale(0.9175997538573949) translate(-370.34844 -63.768)"></path> 
   <path id="path518021" style="font-style: normal; font-weight: 700; font-size: 72px; line-height: 1; font-family: &quot;Comfortaa Bold Alt2&quot;; font-variant-ligatures: none; text-align: center; text-anchor: middle; fill: rgb(255, 255, 255);" d="m 471.37119,64.776 c -0.648,-0.648 -1.44,-1.008 -2.448,-1.008 h -38.52 c -1.008,0 -1.872,0.36 -2.52,1.008 -0.648,0.648 -0.936,1.44 -0.936,2.448 0,1.008 0.288,1.872 0.936,2.52 0.648,0.648 1.512,0.936 2.52,0.936 h 15.552 v 45.576 c 0,1.08 0.36,1.944 1.08,2.664 0.72,0.72 1.584,1.08 2.664,1.08 1.008,0 1.944,-0.36 2.664,-1.08 0.72,-0.72 1.08,-1.584 1.08,-2.664 V 70.68 h 15.48 c 1.008,0 1.8,-0.288 2.448,-0.936 0.648,-0.648 1.008,-1.512 1.008,-2.52 0,-1.008 -0.36,-1.8 -1.008,-2.448 z" transform="translate(0 312.4980962608728) translate(428.8862826389351 45.53750110397836) scale(0.9175997538573949) translate(-426.94719 -63.768)"></path> 
   <path id="path518023" style="font-style: normal; font-weight: 700; font-size: 72px; line-height: 1; font-family: &quot;Comfortaa Bold Alt2&quot;; font-variant-ligatures: none; text-align: center; text-anchor: middle; fill: rgb(248, 227, 197);" d="m 510.11844,65.712 c -2.52,-1.296 -5.4,-1.944 -8.568,-1.944 h -17.208 c -1.08,0 -1.944,0.36 -2.664,1.08 -0.72,0.72 -1.08,1.584 -1.08,2.664 v 48.744 c 0,1.08 0.36,1.944 1.08,2.664 0.72,0.72 1.584,1.08 2.664,1.08 h 18.72 c 3.528,0 6.696,-0.72 9.504,-2.16 2.808,-1.44 4.968,-3.456 6.552,-6.048 1.584,-2.592 2.376,-5.472 2.376,-8.784 0,-3.528 -0.936,-6.48 -2.808,-8.784 -1.872,-2.304 -4.464,-3.816 -7.704,-4.608 2.16,-1.152 3.888,-2.664 5.184,-4.536 1.296,-1.872 1.944,-3.96 1.944,-6.336 0,-2.88 -0.72,-5.4 -2.16,-7.704 -1.44,-2.304 -3.384,-4.032 -5.832,-5.328 z m -1.8,19.08 c -1.728,1.44 -3.96,2.088 -6.768,2.088 h -13.464 v -16.2 h 13.464 c 2.808,0 5.04,0.72 6.768,2.088 1.728,1.368 2.592,3.384 2.592,5.976 0,2.664 -0.864,4.68 -2.592,6.048 z m 2.88,25.704 c -2.088,1.728 -4.824,2.592 -8.136,2.592 h -14.976 V 93.792 h 14.976 c 3.384,0 6.12,0.792 8.136,2.376 2.016,1.584 3.096,3.888 3.096,6.84 0,3.24 -1.08,5.76 -3.096,7.488 z" transform="translate(0 312.4980962608728) translate(480.8694556946488 45.53750110397836) scale(0.9175997538573949) translate(-480.59844 -63.768)"></path> 
   <path id="path518025" style="font-style: normal; font-weight: 700; font-size: 72px; line-height: 1; font-family: &quot;Comfortaa Bold Alt2&quot;; font-variant-ligatures: none; text-align: center; text-anchor: middle; fill: rgb(248, 227, 197);" d="m 568.77369,113.592 c -0.72,-0.72 -1.656,-1.08 -2.664,-1.08 h -26.064 v -45 c 0,-1.008 -0.36,-1.944 -1.08,-2.664 -0.72,-0.72 -1.656,-1.08 -2.664,-1.08 -1.008,0 -1.872,0.36 -2.592,1.08 -0.72,0.72 -1.08,1.656 -1.08,2.664 v 48.744 c 0,1.08 0.288,1.944 1.008,2.664 0.72,0.72 1.584,1.08 2.664,1.08 h 29.808 c 1.008,0 1.944,-0.36 2.664,-1.08 0.72,-0.72 1.08,-1.584 1.08,-2.664 0,-1.008 -0.36,-1.944 -1.08,-2.664 z" transform="translate(0 312.4980962608728) translate(531.3661171491136 45.53750110397836) scale(0.9175997538573949) translate(-532.62969 -63.768)"></path> 
   <path id="path518027" style="font-style: normal; font-weight: 700; font-size: 72px; line-height: 1; font-family: &quot;Comfortaa Bold Alt2&quot;; font-variant-ligatures: none; text-align: center; text-anchor: middle; fill: rgb(248, 227, 197);" d="m 579.97531,64.848 c -0.72,0.72 -1.08,1.584 -1.08,2.664 v 33.624 c 0,3.888 0.936,7.344 2.952,10.368 2.016,3.024 4.752,5.4 8.352,7.128 3.6,1.728 7.632,2.52 12.24,2.52 4.392,0 8.352,-0.792 11.808,-2.52 3.456,-1.728 6.192,-4.104 8.136,-7.128 1.944,-3.024 2.952,-6.48 2.952,-10.368 V 67.512 c 0,-1.08 -0.36,-1.944 -1.08,-2.664 -0.72,-0.72 -1.584,-1.08 -2.592,-1.08 -1.08,0 -1.944,0.36 -2.664,1.08 -0.72,0.72 -1.08,1.584 -1.08,2.664 v 33.624 c 0,2.592 -0.72,4.824 -2.016,6.84 -1.296,2.016 -3.168,3.6 -5.472,4.752 -2.376,1.152 -5.04,1.656 -7.992,1.656 -3.168,0 -5.904,-0.504 -8.352,-1.656 -2.448,-1.152 -4.32,-2.736 -5.688,-4.752 -1.368,-2.016 -2.016,-4.248 -2.016,-6.84 V 67.512 c 0,-1.08 -0.36,-1.944 -1.08,-2.664 -0.72,-0.72 -1.584,-1.08 -2.664,-1.08 -1.08,0 -1.944,0.36 -2.664,1.08 z" transform="translate(0 312.4980962608728) translate(576.5722379347455 45.53750110397836) scale(0.9175997538573949) translate(-578.89531 -63.768)"></path> 
   <path id="path518029" style="font-style: normal; font-weight: 700; font-size: 72px; line-height: 1; font-family: &quot;Comfortaa Bold Alt2&quot;; font-variant-ligatures: none; text-align: center; text-anchor: middle; fill: rgb(248, 227, 197);" d="m 678.73794,114.024 c -0.72,-0.576 -1.584,-0.936 -2.664,-0.936 h -28.8 v -18 h 20.664 c 1.008,0 1.872,-0.288 2.592,-0.936 0.72,-0.648 1.08,-1.512 1.08,-2.52 0,-1.008 -0.36,-1.8 -1.08,-2.448 -0.72,-0.648 -1.584,-1.008 -2.592,-1.008 h -20.664 V 70.68 h 28.8 c 1.08,0 1.944,-0.288 2.664,-0.936 0.648,-0.576 1.008,-1.44 1.008,-2.448 0,-1.008 -0.36,-1.872 -1.008,-2.52 -0.72,-0.648 -1.584,-1.008 -2.664,-1.008 h -32.544 c -1.08,0 -1.944,0.36 -2.664,1.08 -0.72,0.72 -1.08,1.584 -1.08,2.664 v 48.744 c 0,1.08 0.36,1.944 1.08,2.664 0.72,0.72 1.584,1.08 2.664,1.08 h 32.544 c 1.08,0 1.944,-0.288 2.664,-0.936 0.648,-0.648 1.008,-1.512 1.008,-2.592 0,-1.008 -0.36,-1.8 -1.008,-2.448 z" transform="translate(0 312.4980962608728) translate(635.1982642965395 45.53750110397836) scale(0.9175997538573949) translate(-639.78594 -63.768)"></path> 
   <path id="path518031" style="font-style: normal; font-weight: 700; font-size: 72px; line-height: 1; font-family: &quot;Comfortaa Bold Alt2&quot;; font-variant-ligatures: none; text-align: center; text-anchor: middle; fill: rgb(242, 203, 146);" d="m 716.12169,120.864 c 3.888,0 7.632,-0.792 11.232,-2.304 3.456,-1.44 6.552,-3.528 9.216,-6.192 2.664,-2.664 4.752,-5.688 6.192,-9.216 1.512,-3.528 2.304,-7.272 2.304,-11.232 0,-3.96 -0.792,-7.704 -2.304,-11.304 -1.44,-3.456 -3.528,-6.48 -6.192,-9.144 -2.664,-2.664 -5.76,-4.752 -9.216,-6.192 -3.6,-1.512 -7.344,-2.304 -11.232,-2.304 -3.96,0 -7.704,0.792 -11.304,2.304 -3.456,1.44 -6.552,3.528 -9.216,6.192 -2.664,2.664 -4.752,5.688 -6.192,9.144 -1.512,3.6 -2.232,7.344 -2.232,11.304 0,3.96 0.72,7.704 2.232,11.232 1.44,3.528 3.528,6.552 6.192,9.216 2.664,2.664 5.76,4.752 9.216,6.192 3.6,1.512 7.344,2.304 11.304,2.304 z m 0,-50.688 c 5.976,0 11.088,2.088 15.336,6.336 4.248,4.248 6.408,9.432 6.408,15.408 0,5.976 -2.16,11.088 -6.408,15.336 -4.248,4.248 -9.36,6.408 -15.336,6.408 -6.048,0 -11.16,-2.16 -15.408,-6.408 -4.248,-4.176 -6.336,-9.36 -6.336,-15.336 0,-5.976 2.088,-11.16 6.336,-15.408 4.248,-4.248 9.36,-6.336 15.408,-6.336 z" transform="translate(0 312.4980962608728) translate(681.4377216929828 44.810762098923306) scale(0.9175997538573949) translate(-687.17769 -62.976)"></path> 
   <path id="path518033" style="font-style: normal; font-weight: 700; font-size: 72px; line-height: 1; font-family: &quot;Comfortaa Bold Alt2&quot;; font-variant-ligatures: none; text-align: center; text-anchor: middle; fill: rgb(242, 203, 146);" d="m 749.10444,70.104 c 0.72,0.72 1.584,1.008 2.664,1.008 h 21.888 l -20.664,42.912 c -0.432,0.864 -0.648,1.656 -0.648,2.304 0,1.008 0.36,1.872 1.08,2.592 0.72,0.72 1.512,1.08 2.52,1.08 0.648,0 1.296,-0.144 1.944,-0.504 0.576,-0.36 1.08,-0.864 1.44,-1.512 l 23.04,-48.6 c 0.288,-0.72 0.504,-1.368 0.504,-1.944 0,-1.008 -0.36,-1.872 -1.08,-2.592 -0.72,-0.72 -1.584,-1.08 -2.592,-1.08 h -27.432 c -1.08,0 -1.944,0.36 -2.664,1.08 -0.72,0.72 -1.008,1.584 -1.008,2.592 0,1.08 0.288,1.944 1.008,2.664 z" transform="translate(0 312.4980962608728) translate(740.0895509598552 45.53750110397836) scale(0.9175997538573949) translate(-748.09644 -63.768)"></path> 
  </g> 
  <g id="tagline" style="font-style:normal;font-weight:500;font-size:32px;line-height:1;font-family:Raleway;font-variant-ligatures:none;text-align:center;text-anchor:middle"></g> 
 </g> 
</svg>