<svg xmlns:dc="http://purl.org/dc/elements/1.1/" xmlns:cc="http://creativecommons.org/ns#" xmlns:rdf="http://www.w3.org/1999/02/22-rdf-syntax-ns#" xmlns:svg="http://www.w3.org/2000/svg" xmlns="http://www.w3.org/2000/svg" id="svg521176" viewbox="0 0 1024 768" height="768px" width="1024px" version="1.1"> <metadata id="metadata521182"> 
  <rdf:rdf> 
   <cc:work rdf:about=""> 
    <dc:format>
     image/svg+xml
    </dc:format> 
    <dc:type rdf:resource="http://purl.org/dc/dcmitype/StillImage"></dc:type> 
   </cc:work> 
  </rdf:rdf> 
 </metadata> <defs id="defs521180"></defs> <g id="logo-group"> 
  <g id="title" style="font-style:normal;font-weight:200;font-size:72px;line-height:1;font-family:Montserrat;font-variant-ligatures:none;text-align:center;text-anchor:middle" aria-label="LOWCOUNTRYO7"> 
   <path id="path521184" style="font-style: normal; font-weight: 200; font-size: 72px; line-height: 1; font-family: Montserrat; font-variant-ligatures: none; text-align: center; text-anchor: middle; fill: rgb(149, 209, 196);" d="m 214.93475,69.672 h 1.44 v 48.888 h 22.536 V 120 h -23.976 z" transform="translate(0 324.384) translate(247.62625000000003 38.676) scale(0.8333333333333334) translate(-214.93475 -69.672)"></path> 
   <path id="path521186" style="font-style: normal; font-weight: 200; font-size: 72px; line-height: 1; font-family: Montserrat; font-variant-ligatures: none; text-align: center; text-anchor: middle; fill: rgb(149, 209, 196);" d="m 270.46362,69.384 q 6.98401,0 12.88801,3.456 5.97599,3.384 9.432,9.216 3.52799,5.832 3.52799,12.672 0,6.84 -3.52799,12.744 -3.45601,5.832 -9.432,9.288 -5.904,3.456 -12.88801,3.456 -6.984,0 -12.96,-3.456 -5.904,-3.456 -9.432,-9.288 -3.456,-5.904 -3.456,-12.744 0,-6.84 3.456,-12.672 3.528,-5.832 9.432,-9.216 5.976,-3.456 12.96,-3.456 z m 0,1.44 q -6.55199,0 -12.168,3.24 -5.616,3.24 -8.928,8.784 -3.312,5.472 -3.312,11.88 0,6.48 3.312,12.024 3.312,5.544 8.928,8.784 5.61601,3.24 12.168,3.24 6.552,0 12.168,-3.24 5.616,-3.24 8.928,-8.784 3.312,-5.544 3.312,-12.024 0,-6.408 -3.312,-11.88 -3.312,-5.544 -8.928,-8.784 -5.616,-3.24 -12.168,-3.24 z" transform="translate(0 324.384) translate(274.86030833333336 38.43599999999999) scale(0.8333333333333334) translate(-244.61562 -69.384)"></path> 
   <path id="path521188" style="font-style: normal; font-weight: 200; font-size: 72px; line-height: 1; font-family: Montserrat; font-variant-ligatures: none; text-align: center; text-anchor: middle; fill: rgb(149, 209, 196);" d="m 368.063,69.672 h 1.656 L 352.655,120 h -1.512 L 334.943,71.688 318.671,120 h -1.512 L 300.095,69.672 h 1.656 l 16.2,48.672 16.128,-48.672 h 1.656 l 16.2,48.672 z" transform="translate(0 324.384) translate(323.59312500000004 38.676) scale(0.8333333333333334) translate(-300.095 -69.672)"></path> 
   <path id="path521190" style="font-style: normal; font-weight: 200; font-size: 72px; line-height: 1; font-family: Montserrat; font-variant-ligatures: none; text-align: center; text-anchor: middle; fill: rgb(149, 209, 196);" d="m 414.917,76.872 q -3.24,-2.952 -7.488,-4.536 -4.176,-1.584 -8.856,-1.584 -6.624,0 -12.24,3.24 -5.616,3.24 -8.928,8.784 -3.312,5.544 -3.312,12.024 0,6.48 3.312,12.024 3.312,5.544 8.928,8.784 5.616,3.24 12.24,3.24 4.608,0 8.784,-1.584 4.248,-1.656 7.56,-4.608 l 1.008,0.936 q -3.528,3.168 -7.992,4.896 -4.464,1.728 -9.36,1.728 -6.984,0 -12.96,-3.456 -5.904,-3.456 -9.432,-9.288 -3.456,-5.832 -3.456,-12.672 0,-6.84 3.456,-12.672 3.528,-5.904 9.432,-9.288 5.976,-3.456 12.96,-3.456 4.896,0 9.288,1.728 4.464,1.728 7.992,4.824 z" transform="translate(0 324.384) translate(386.618125 38.43599999999999) scale(0.8333333333333334) translate(-372.725 -69.384)"></path> 
   <path id="path521192" style="font-style: normal; font-weight: 200; font-size: 72px; line-height: 1; font-family: Montserrat; font-variant-ligatures: none; text-align: center; text-anchor: middle; fill: rgb(149, 209, 196);" d="m 447.93237,69.384 q 6.98401,0 12.88801,3.456 5.97599,3.384 9.432,9.216 3.52799,5.832 3.52799,12.672 0,6.84 -3.52799,12.744 -3.45601,5.832 -9.432,9.288 -5.904,3.456 -12.88801,3.456 -6.984,0 -12.96,-3.456 -5.904,-3.456 -9.432,-9.288 -3.45599,-5.904 -3.45599,-12.744 0,-6.84 3.45599,-12.672 3.528,-5.832 9.432,-9.216 5.976,-3.456 12.96,-3.456 z m 0,1.44 q -6.55199,0 -12.168,3.24 -5.616,3.24 -8.928,8.784 -3.31199,5.472 -3.31199,11.88 0,6.48 3.31199,12.024 3.312,5.544 8.928,8.784 5.61601,3.24 12.168,3.24 6.552,0 12.168,-3.24 5.616,-3.24 8.928,-8.784 3.312,-5.544 3.312,-12.024 0,-6.408 -3.312,-11.88 -3.312,-5.544 -8.928,-8.784 -5.616,-3.24 -12.168,-3.24 z" transform="translate(0 324.384) translate(430.2509416666667 38.43599999999999) scale(0.8333333333333334) translate(-422.08438 -69.384)"></path> 
   <path id="path521194" style="font-style: normal; font-weight: 200; font-size: 72px; line-height: 1; font-family: Montserrat; font-variant-ligatures: none; text-align: center; text-anchor: middle; fill: rgb(149, 209, 196);" d="m 486.76625,99.768 q 0,9.072 4.824,14.04 4.896,4.968 13.68,4.968 8.784,0 13.608,-4.968 4.896,-4.968 4.896,-14.04 V 69.672 h 1.44 v 30.096 q 0,9.792 -5.256,15.12 -5.184,5.328 -14.688,5.328 -9.504,0 -14.76,-5.328 -5.184,-5.328 -5.184,-15.12 V 69.672 h 1.44 z" transform="translate(0 324.384) translate(485.45250000000004 38.676) scale(0.8333333333333334) translate(-485.32625 -69.672)"></path> 
   <path id="path521196" style="font-style: normal; font-weight: 200; font-size: 72px; line-height: 1; font-family: Montserrat; font-variant-ligatures: none; text-align: center; text-anchor: middle; fill: rgb(149, 209, 196);" d="m 579.96575,69.672 h 1.44 V 120 h -2.16 l -35.496,-48.888 V 120 h -1.44 V 69.672 h 2.16 l 35.496,48.888 z" transform="translate(0 324.384) translate(535.43875 38.676) scale(0.8333333333333334) translate(-542.30975 -69.672)"></path> 
   <path id="path521198" style="font-style: normal; font-weight: 200; font-size: 72px; line-height: 1; font-family: Montserrat; font-variant-ligatures: none; text-align: center; text-anchor: middle; fill: rgb(149, 209, 196);" d="m 591.54538,69.672 h 36 v 1.44 H 610.26537 V 120 h -1.44 V 71.112 h -17.27999 z" transform="translate(0 324.384) translate(578.9684416666668 38.676) scale(0.8333333333333334) translate(-591.54538 -69.672)"></path> 
   <path id="path521200" style="font-style: normal; font-weight: 200; font-size: 72px; line-height: 1; font-family: Montserrat; font-variant-ligatures: none; text-align: center; text-anchor: middle; fill: rgb(149, 209, 196);" d="m 673.9415,86.016 q 0,6.48 -3.384,10.656 -3.384,4.104 -9.648,5.472 L 673.9415,120 h -1.8 l -12.816,-17.568 q -2.88,0.288 -4.608,0.288 h -15.624 V 120 h -1.44 V 69.672 h 17.064 q 9.144,0 14.184,4.32 5.04,4.248 5.04,12.024 z m -19.224,15.264 q 8.496,0 13.104,-3.96 4.68,-4.032 4.68,-11.304 0,-7.128 -4.68,-11.016 -4.608,-3.888 -13.104,-3.888 h -15.624 v 30.168 z" transform="translate(0 324.384) translate(619.891875 38.676) scale(0.8333333333333334) translate(-637.6535 -69.672)"></path> 
   <path id="path521202" style="font-style: normal; font-weight: 200; font-size: 72px; line-height: 1; font-family: Montserrat; font-variant-ligatures: none; text-align: center; text-anchor: middle; fill: rgb(149, 209, 196);" d="m 722.67763,69.672 -20.23201,30.96 V 120 h -1.44 v -19.368 l -20.51999,-30.96 h 1.72799 l 19.51201,29.52 19.22399,-29.52 z" transform="translate(0 324.384) translate(658.0853166666667 38.676) scale(0.8333333333333334) translate(-680.48563 -69.672)"></path> 
   <path id="path521204" style="font-style: normal; font-weight: 200; font-size: 72px; line-height: 1; font-family: Montserrat; font-variant-ligatures: none; text-align: center; text-anchor: middle; fill: rgb(192, 168, 155);" d="m 748.86987,69.384 q 6.98401,0 12.88801,3.456 5.97599,3.384 9.432,9.216 3.528,5.832 3.528,12.672 0,6.84 -3.528,12.744 -3.45601,5.832 -9.432,9.288 -5.904,3.456 -12.88801,3.456 -6.984,0 -12.95999,-3.456 -5.90401,-3.456 -9.432,-9.288 -3.456,-5.904 -3.456,-12.744 0,-6.84 3.456,-12.672 3.52799,-5.832 9.432,-9.216 5.97599,-3.456 12.95999,-3.456 z m 0,1.44 q -6.552,0 -12.168,3.24 -5.616,3.24 -8.928,8.784 -3.312,5.472 -3.312,11.88 0,6.48 3.312,12.024 3.312,5.544 8.928,8.784 5.616,3.24 12.168,3.24 6.552,0 12.168,-3.24 5.616,-3.24 8.928,-8.784 3.312,-5.544 3.312,-12.024 0,-6.408 -3.312,-11.88 -3.312,-5.544 -8.928,-8.784 -5.616,-3.24 -12.168,-3.24 z" transform="translate(0 324.384) translate(696.0321916666667 38.43599999999999) scale(0.8333333333333334) translate(-723.02188 -69.384)"></path> 
   <path id="path521206" style="font-style: normal; font-weight: 200; font-size: 72px; line-height: 1; font-family: Montserrat; font-variant-ligatures: none; text-align: center; text-anchor: middle; fill: rgb(192, 168, 155);" d="m 780.93575,69.672 h 35.496 v 1.8 L 791.80775,120 h -1.584 l 24.912,-48.888 h -32.76 v 8.064 h -1.44 z" transform="translate(0 324.384) translate(746.79375 38.676) scale(0.8333333333333334) translate(-780.93575 -69.672)"></path> 
  </g> 
  <g id="tagline" style="font-style:normal;font-weight:400;font-size:32px;line-height:1;font-family:Montserrat;font-variant-ligatures:none;text-align:center;text-anchor:middle"></g> 
 </g> 
</svg>