<svg xmlns:dc="http://purl.org/dc/elements/1.1/" xmlns:cc="http://creativecommons.org/ns#" xmlns:rdf="http://www.w3.org/1999/02/22-rdf-syntax-ns#" xmlns:svg="http://www.w3.org/2000/svg" xmlns="http://www.w3.org/2000/svg" id="svg51745" viewbox="0 0 1024 768" height="768px" width="1024px" version="1.1"> <metadata id="metadata51751"> 
  <rdf:rdf> 
   <cc:work rdf:about=""> 
    <dc:format>
     image/svg+xml
    </dc:format> 
    <dc:type rdf:resource="http://purl.org/dc/dcmitype/StillImage"></dc:type> 
   </cc:work> 
  </rdf:rdf> 
 </metadata> <defs id="defs51749"></defs> <g id="logo-group"> 
  <g id="title" style="font-style:oblique;font-weight:700;font-size:72px;line-height:1;font-family:Averta;font-variant-ligatures:none;text-align:center;text-anchor:middle" aria-label="Maddogo7"> 
   <path id="path51753" style="font-style: oblique; font-weight: 700; font-size: 72px; line-height: 1; font-family: Averta; font-variant-ligatures: none; text-align: center; text-anchor: middle; fill: rgb(255, 255, 255);" d="m 359.5625,68.88 -6.264,51.12 h 11.304 l 3.528,-28.584 0.144,-0.072 6.84,19.152 h 6.984 l 10.8,-18.504 0.144,0.072 -3.384,27.936 h 11.304 l 6.264,-51.12 h -11.304 l -15.408,27.792 h -0.216 l -9.432,-27.792 z" transform="translate(0 247.90886287032902) translate(252.00000000000023 87.4480854777501) scale(1.5164936916049667) translate(-353.2985 -68.88)"></path> 
   <path id="path51755" style="font-style: oblique; font-weight: 700; font-size: 72px; line-height: 1; font-family: Averta; font-variant-ligatures: none; text-align: center; text-anchor: middle; fill: rgb(255, 255, 255);" d="m 421.47012,120.648 c 3.96,0 7.488,-2.16 10.08,-5.904 l 0.216,0.072 -0.64799,5.184 h 10.87199 l 4.32,-35.208 h -10.87199 l -0.28801,2.448 h -0.216 c -1.872,-1.944 -4.608,-3.096 -8.27999,-3.096 -9.216,0 -16.632,9.576 -16.632,22.104 0,8.136 3.88799,14.4 11.44799,14.4 z m 3.45601,-9.576 c -2.44801,0 -4.03201,-2.232 -4.03201,-5.616 0,-5.256 2.88001,-11.664 7.632,-11.664 2.232,0 4.24801,0.864 5.832,2.52 l -0.14399,1.008 c -1.22401,8.856 -5.54401,13.752 -9.288,13.752 z" transform="translate(0 247.90886287032902) translate(342.5705081347494 110.59584518640831) scale(1.5164936916049667) translate(-410.02213 -84.144)"></path> 
   <path id="path51757" style="font-style: oblique; font-weight: 700; font-size: 72px; line-height: 1; font-family: Averta; font-variant-ligatures: none; text-align: center; text-anchor: middle; fill: rgb(255, 255, 255);" d="m 461.339,120.648 c 4.032,0 7.488,-2.16 10.152,-5.904 l 0.216,0.072 -0.648,5.184 h 10.8 l 6.552,-52.992 h -10.872 l -2.448,20.232 h -0.216 c -2.088,-2.016 -4.968,-3.096 -8.424,-3.096 -9.216,0 -16.632,9.576 -16.632,22.104 0,8.136 3.888,14.4 11.52,14.4 z m 3.384,-9.576 c -2.448,0 -4.032,-2.232 -4.032,-5.616 0,-5.256 2.88,-11.664 7.632,-11.664 2.376,0 4.392,0.792 5.976,2.52 l -0.144,1.008 c -1.296,8.856 -5.616,13.752 -9.432,13.752 z" transform="translate(0 247.90886287032902) translate(407.4716915101873 84.60920928706561) scale(1.5164936916049667) translate(-449.819 -67.008)"></path> 
   <path id="path51759" style="font-style: oblique; font-weight: 700; font-size: 72px; line-height: 1; font-family: Averta; font-variant-ligatures: none; text-align: center; text-anchor: middle; fill: rgb(255, 255, 255);" d="m 500.85462,120.648 c 4.032,0 7.488,-2.16 10.152,-5.904 l 0.216,0.072 -0.64799,5.184 h 10.8 l 6.552,-52.992 h -10.87201 l -2.448,20.232 h -0.216 c -2.08799,-2.016 -4.968,-3.096 -8.42399,-3.096 -9.216,0 -16.632,9.576 -16.632,22.104 0,8.136 3.88799,14.4 11.51999,14.4 z m 3.38401,-9.576 c -2.44801,0 -4.03201,-2.232 -4.03201,-5.616 0,-5.256 2.88001,-11.664 7.632,-11.664 2.376,0 4.39201,0.792 5.976,2.52 l -0.144,1.008 c -1.29599,8.856 -5.616,13.752 -9.43199,13.752 z" transform="translate(0 247.90886287032902) translate(471.94637619979824 84.60920928706561) scale(1.5164936916049667) translate(-489.33463 -67.008)"></path> 
   <path id="path51761" style="font-style: oblique; font-weight: 700; font-size: 72px; line-height: 1; font-family: Averta; font-variant-ligatures: none; text-align: center; text-anchor: middle; fill: rgb(255, 255, 255);" d="m 543.82625,120.648 c 13.464,0 19.584,-10.008 19.584,-21.456 0,-9.576 -5.976,-15.048 -15.048,-15.048 -12.384,0 -19.44,10.08 -19.44,21.384 0,9.648 5.976,15.12 14.904,15.12 z m 0.792,-9.648 c -2.304,0 -4.752,-1.872 -4.752,-6.048 0,-5.4 2.88,-11.16 7.632,-11.16 1.944,0 4.968,1.08 4.968,6.12 0,5.76 -3.096,11.088 -7.848,11.088 z" transform="translate(0 247.90886287032902) translate(536.5302332702677 110.59584518640831) scale(1.5164936916049667) translate(-528.92225 -84.144)"></path> 
   <path id="path51763" style="font-style: oblique; font-weight: 700; font-size: 72px; line-height: 1; font-family: Averta; font-variant-ligatures: none; text-align: center; text-anchor: middle; fill: rgb(255, 255, 255);" d="m 603.4535,84.792 h -10.8 l -0.216,2.232 -0.216,0.072 c -1.872,-1.944 -4.608,-2.952 -8.208,-2.952 -9.216,0 -16.56,9.576 -16.56,21.744 0,7.344 3.816,13.68 11.448,13.68 3.888,0 7.416,-2.232 10.008,-5.904 l 0.216,0.072 c -1.296,10.224 -4.896,12.024 -10.296,12.024 -3.096,0 -6.048,-0.936 -9,-2.736 l -3.384,8.424 c 4.104,2.52 8.352,3.456 12.816,3.456 9.504,0 18.504,-3.744 20.448,-19.44 z m -11.88,11.376 -0.144,1.152 c -1.224,7.776 -5.4,12.672 -9.144,12.672 -2.448,0 -3.96,-1.8 -3.96,-5.184 0,-4.608 2.808,-11.016 7.56,-11.016 2.232,0 4.104,0.792 5.688,2.376 z" transform="translate(0 247.90886287032902) translate(597.9834862585989 110.59584518640831) scale(1.5164936916049667) translate(-566.4455 -84.144)"></path> 
   <path id="path51765" style="font-style: oblique; font-weight: 700; font-size: 72px; line-height: 1; font-family: Averta; font-variant-ligatures: none; text-align: center; text-anchor: middle; fill: rgb(204, 196, 98);" d="m 622.01375,120.648 c 13.464,0 19.584,-10.008 19.584,-21.456 0,-9.576 -5.976,-15.048 -15.048,-15.048 -12.384,0 -19.44,10.08 -19.44,21.384 0,9.648 5.976,15.12 14.904,15.12 z m 0.792,-9.648 c -2.304,0 -4.752,-1.872 -4.752,-6.048 0,-5.4 2.88,-11.16 7.632,-11.16 1.944,0 4.968,1.08 4.968,6.12 0,5.76 -3.096,11.088 -7.848,11.088 z" transform="translate(0 247.90886287032902) translate(664.2000459322609 110.59584518640831) scale(1.5164936916049667) translate(-607.10975 -84.144)"></path> 
   <path id="path51767" style="font-style: oblique; font-weight: 700; font-size: 72px; line-height: 1; font-family: Averta; font-variant-ligatures: none; text-align: center; text-anchor: middle; fill: rgb(204, 196, 98);" d="m 675.19475,70.536 h -27.864 l -1.224,10.08 h 15.48 l -17.568,38.52 11.088,2.016 19.224,-43.344 z" transform="translate(0 247.90886287032902) translate(724.7217926705237 89.95939903104794) scale(1.5164936916049667) translate(-644.01875 -70.536)"></path> 
  </g> 
  <g id="tagline" style="font-style:normal;font-weight:500;font-size:32px;line-height:1;font-family:Raleway;font-variant-ligatures:none;text-align:center;text-anchor:middle"></g> 
 </g> 
</svg>