<svg xmlns:dc="http://purl.org/dc/elements/1.1/" xmlns:cc="http://creativecommons.org/ns#" xmlns:rdf="http://www.w3.org/1999/02/22-rdf-syntax-ns#" xmlns:svg="http://www.w3.org/2000/svg" xmlns="http://www.w3.org/2000/svg" id="svg60815" viewbox="0 0 1024 768" height="768px" width="1024px" version="1.1"> <metadata id="metadata60821"> 
  <rdf:rdf> 
   <cc:work rdf:about=""> 
    <dc:format>
     image/svg+xml
    </dc:format> 
    <dc:type rdf:resource="http://purl.org/dc/dcmitype/StillImage"></dc:type> 
   </cc:work> 
  </rdf:rdf> 
 </metadata> <defs id="defs60819"></defs> <g id="logo-group"> 
  <g id="title" style="font-style:normal;font-weight:700;font-size:72px;line-height:1;font-family:Phenomena;font-variant-ligatures:none;text-align:center;text-anchor:middle" aria-label="Magellano7"> 
   <path id="path60823" style="font-style: normal; font-weight: 700; font-size: 72px; line-height: 1; font-family: Phenomena; font-variant-ligatures: none; text-align: center; text-anchor: middle; fill: rgb(46, 129, 180);" d="m 409.12381,68.808 c -3.96,0 -6.552,1.872 -8.496,4.536 -1.944,-2.664 -4.464,-4.536 -8.496,-4.536 -7.272,0 -11.736,5.256 -11.736,13.392 v 36.792 c 0,0.648 0.36,1.008 0.936,1.008 h 4.536 c 0.576,0 0.936,-0.36 0.936,-1.008 v -37.08 c 0,-4.464 1.8,-6.984 5.328,-6.984 3.096,0 5.256,2.52 5.256,6.984 v 37.08 c 0,0.648 0.36,1.008 0.936,1.008 h 4.536 c 0.576,0 0.936,-0.36 0.936,-1.008 v -37.08 c 0,-4.464 2.088,-6.984 5.328,-6.984 3.384,0 5.256,2.52 5.256,6.984 v 37.08 c 0,0.648 0.36,1.008 0.936,1.008 h 4.536 c 0.648,0 1.008,-0.36 1.008,-1.008 V 82.2 c 0,-8.136 -4.536,-13.392 -11.736,-13.392 z" transform="translate(0 221.2658963507539) translate(252 103.65816733232673) scale(1.7798245455808441) translate(-380.39581 -68.808)"></path> 
   <path id="path60825" style="font-style: normal; font-weight: 700; font-size: 72px; line-height: 1; font-family: Phenomena; font-variant-ligatures: none; text-align: center; text-anchor: middle; fill: rgb(46, 129, 180);" d="m 438.14769,120.72 c 6.912,0 11.232,-4.752 11.232,-11.376 V 94.872 c 0,-6.768 -4.392,-11.664 -11.232,-11.664 -6.408,0 -10.656,4.464 -11.088,10.728 0,0.576 0.36,1.008 0.936,1.008 h 4.176 c 0.648,0 0.936,-0.216 1.008,-0.864 0.216,-2.952 1.872,-4.968 4.896,-4.968 3.24,0 5.184,2.232 5.184,5.472 v 3.96 h -5.4 c -6.768,0 -11.376,4.608 -11.376,10.584 0,6.768 4.68,11.592 11.664,11.592 z m -0.072,-5.904 c -3.384,0 -5.4,-2.232 -5.4,-5.688 0,-2.808 2.016,-5.04 5.4,-5.04 h 5.184 v 5.256 c 0,3.312 -1.872,5.472 -5.184,5.472 z" transform="translate(0 221.2658963507539) translate(339.3678137145271 129.28764078869085) scale(1.7798245455808441) translate(-426.48369 -83.208)"></path> 
   <path id="path60827" style="font-style: normal; font-weight: 700; font-size: 72px; line-height: 1; font-family: Phenomena; font-variant-ligatures: none; text-align: center; text-anchor: middle; fill: rgb(46, 129, 180);" d="m 466.49206,83.208 c -6.912,0 -11.52,4.896 -11.52,11.736 v 12.384 c 0,6.84 4.608,11.736 11.016,11.736 2.232,0 4.248,-0.936 5.76,-2.52 v 7.128 c 0,3.528 -1.944,5.616 -5.256,5.616 -3.096,0 -5.04,-2.088 -5.256,-5.688 -0.072,-0.72 -0.432,-1.008 -1.008,-1.008 h -4.248 c -0.648,0 -1.008,0.36 -0.936,1.008 0.288,7.056 4.752,11.592 11.448,11.592 6.984,0 11.448,-4.608 11.448,-11.736 V 94.944 c 0,-6.84 -4.608,-11.736 -11.448,-11.736 z m 0,30.024 c -3.312,0 -5.328,-2.304 -5.328,-5.688 V 94.728 c 0,-3.384 2.016,-5.616 5.328,-5.616 3.312,0 5.256,2.232 5.256,5.616 v 12.816 c 0,3.384 -1.944,5.688 -5.256,5.688 z" transform="translate(0 221.2658963507539) translate(395.4115875408585 129.28764078869085) scale(1.7798245455808441) translate(-454.97206 -83.208)"></path> 
   <path id="path60829" style="font-style: normal; font-weight: 700; font-size: 72px; line-height: 1; font-family: Phenomena; font-variant-ligatures: none; text-align: center; text-anchor: middle; fill: rgb(46, 129, 180);" d="m 495.45744,120.72 c 6.48,0 11.016,-4.464 11.376,-11.16 0,-0.576 -0.36,-0.936 -0.936,-0.936 h -4.248 c -0.576,0 -0.936,0.288 -1.008,0.936 -0.216,3.168 -2.16,5.328 -5.112,5.328 -3.312,0 -5.256,-2.304 -5.256,-5.616 v -3.744 h 5.328 c 6.84,0 11.448,-4.536 11.448,-10.872 0,-6.624 -4.752,-11.448 -11.52,-11.376 -6.912,0 -11.376,4.752 -11.448,11.592 v 14.112 c 0,7.056 4.608,11.736 11.376,11.736 z m -5.184,-20.808 V 94.8 c 0,-3.456 1.872,-5.688 5.256,-5.688 3.312,0 5.328,2.232 5.328,5.688 0,3.024 -1.944,5.112 -5.256,5.112 z" transform="translate(0 221.2658963507539) translate(452.5606502082411 129.41437319545895) scale(1.7798245455808441) translate(-484.08144 -83.279205)"></path> 
   <path id="path60831" style="font-style: normal; font-weight: 700; font-size: 72px; line-height: 1; font-family: Phenomena; font-variant-ligatures: none; text-align: center; text-anchor: middle; fill: rgb(46, 129, 180);" d="m 514.08519,120 h 4.176 c 0.648,0 1.008,-0.36 1.008,-1.008 V 70.536 c 0,-0.576 -0.36,-0.936 -1.008,-0.936 h -4.176 c -0.648,0 -1.008,0.36 -1.008,0.936 v 48.456 c 0,0.648 0.36,1.008 1.008,1.008 z" transform="translate(0 221.2658963507539) translate(509.50747141250935 105.06778837242673) scale(1.7798245455808441) translate(-513.07719 -69.6)"></path> 
   <path id="path60833" style="font-style: normal; font-weight: 700; font-size: 72px; line-height: 1; font-family: Phenomena; font-variant-ligatures: none; text-align: center; text-anchor: middle; fill: rgb(46, 129, 180);" d="m 528.28831,120 h 4.176 c 0.648,0 1.008,-0.36 1.008,-1.008 V 70.536 c 0,-0.576 -0.36,-0.936 -1.008,-0.936 h -4.176 c -0.648,0 -1.008,0.36 -1.008,0.936 v 48.456 c 0,0.648 0.36,1.008 1.008,1.008 z" transform="translate(0 221.2658963507539) translate(540.1260066490821 105.06778837242673) scale(1.7798245455808441) translate(-527.28031 -69.6)"></path> 
   <path id="path60835" style="font-style: normal; font-weight: 700; font-size: 72px; line-height: 1; font-family: Phenomena; font-variant-ligatures: none; text-align: center; text-anchor: middle; fill: rgb(46, 129, 180);" d="m 551.06956,120.72 c 6.912,0 11.232,-4.752 11.232,-11.376 V 94.872 c 0,-6.768 -4.392,-11.664 -11.232,-11.664 -6.408,0 -10.656,4.464 -11.088,10.728 0,0.576 0.36,1.008 0.936,1.008 h 4.176 c 0.648,0 0.936,-0.216 1.008,-0.864 0.216,-2.952 1.872,-4.968 4.896,-4.968 3.24,0 5.184,2.232 5.184,5.472 v 3.96 h -5.4 c -6.768,0 -11.376,4.608 -11.376,10.584 0,6.768 4.68,11.592 11.664,11.592 z m -0.072,-5.904 c -3.384,0 -5.4,-2.232 -5.4,-5.688 0,-2.808 2.016,-5.04 5.4,-5.04 h 5.184 v 5.256 c 0,3.312 -1.872,5.472 -5.184,5.472 z" transform="translate(0 221.2658963507539) translate(567.0462978571289 129.28764078869085) scale(1.7798245455808441) translate(-539.40556 -83.208)"></path> 
   <path id="path60837" style="font-style: normal; font-weight: 700; font-size: 72px; line-height: 1; font-family: Phenomena; font-variant-ligatures: none; text-align: center; text-anchor: middle; fill: rgb(46, 129, 180);" d="m 569.47794,120 h 4.176 c 0.648,0 1.008,-0.36 1.008,-1.008 V 94.728 c 0,-3.384 1.872,-5.688 5.04,-5.688 3.168,0 5.04,2.304 5.04,5.688 v 24.264 c 0,0.648 0.36,1.008 1.008,1.008 h 4.176 c 0.648,0 1.008,-0.36 1.008,-1.008 V 94.944 c 0,-6.84 -4.536,-11.736 -11.232,-11.736 -6.696,0 -11.232,4.896 -11.232,11.736 v 24.048 c 0,0.648 0.36,1.008 1.008,1.008 z" transform="translate(0 221.2658963507539) translate(624.1152684199603 129.28764078869085) scale(1.7798245455808441) translate(-568.46994 -83.208)"></path> 
   <path id="path60839" style="font-style: normal; font-weight: 700; font-size: 72px; line-height: 1; font-family: Phenomena; font-variant-ligatures: none; text-align: center; text-anchor: middle; fill: rgb(76, 183, 196);" d="m 608.66394,120.792 c 6.984,0 11.52,-4.896 11.52,-11.736 V 94.944 c 0,-6.84 -4.536,-11.736 -11.52,-11.736 -6.912,0 -11.52,4.896 -11.52,11.736 v 14.112 c 0,6.84 4.608,11.736 11.52,11.736 z m 0,-5.832 c -3.312,0 -5.256,-2.304 -5.256,-5.688 V 94.728 c 0,-3.384 1.944,-5.688 5.256,-5.688 3.312,0 5.328,2.304 5.328,5.688 v 14.544 c 0,3.384 -2.016,5.688 -5.328,5.688 z" transform="translate(0 221.2658963507539) translate(680.4894310766882 129.28764078869085) scale(1.7798245455808441) translate(-597.14394 -83.208)"></path> 
   <path id="path60841" style="font-style: normal; font-weight: 700; font-size: 72px; line-height: 1; font-family: Phenomena; font-variant-ligatures: none; text-align: center; text-anchor: middle; fill: rgb(76, 183, 196);" d="m 623.95944,70.536 v 4.104 c 0,0.648 0.36,1.008 0.936,1.008 h 13.752 l -10.44,43.272 c -0.144,0.648 0.144,1.08 0.864,1.08 h 4.536 c 0.576,0 0.936,-0.288 1.08,-0.864 L 645.19944,75 c 0.288,-1.224 0.36,-2.088 0.36,-3.384 0,-1.368 -0.792,-2.016 -2.16,-2.016 h -18.504 c -0.576,0 -0.936,0.36 -0.936,0.936 z" transform="translate(0 221.2658963507539) translate(733.5557898154539 105.06778837242673) scale(1.7798245455808441) translate(-623.95944 -69.6)"></path> 
  </g> 
  <g id="tagline" style="font-style:oblique;font-weight:normal;font-size:32px;line-height:1;font-family:'Fira Sans Condensed';font-variant-ligatures:none;text-align:center;text-anchor:middle"></g> 
 </g> 
</svg>