<svg xmlns:dc="http://purl.org/dc/elements/1.1/" xmlns:cc="http://creativecommons.org/ns#" xmlns:rdf="http://www.w3.org/1999/02/22-rdf-syntax-ns#" xmlns:svg="http://www.w3.org/2000/svg" xmlns="http://www.w3.org/2000/svg" id="svg474414" viewbox="0 0 1024 768" height="768px" width="1024px" version="1.1"> <metadata id="metadata474420"> 
  <rdf:rdf> 
   <cc:work rdf:about=""> 
    <dc:format>
     image/svg+xml
    </dc:format> 
    <dc:type rdf:resource="http://purl.org/dc/dcmitype/StillImage"></dc:type> 
   </cc:work> 
  </rdf:rdf> 
 </metadata> <defs id="defs474418"></defs> <g id="logo-group"> 
  <g id="title" style="font-style:normal;font-weight:700;font-size:72px;line-height:1;font-family:Phenomena;font-variant-ligatures:none;text-align:center;text-anchor:middle" aria-label="MAGICALO7"> 
   <path id="path474422" style="font-style: normal; font-weight: 700; font-size: 72px; line-height: 1; font-family: Phenomena; font-variant-ligatures: none; text-align: center; text-anchor: middle; fill: rgb(48, 86, 115);" d="m 410.81131,68.808 c -3.96,0 -6.552,1.872 -8.496,4.536 -1.944,-2.664 -4.464,-4.536 -8.496,-4.536 -7.272,0 -11.736,5.256 -11.736,13.392 v 36.792 c 0,0.648 0.36,1.008 0.936,1.008 h 4.536 c 0.576,0 0.936,-0.36 0.936,-1.008 v -37.08 c 0,-4.464 1.8,-6.984 5.328,-6.984 3.096,0 5.256,2.52 5.256,6.984 v 37.08 c 0,0.648 0.36,1.008 0.936,1.008 h 4.536 c 0.576,0 0.936,-0.36 0.936,-1.008 v -37.08 c 0,-4.464 2.088,-6.984 5.328,-6.984 3.384,0 5.256,2.52 5.256,6.984 v 37.08 c 0,0.648 0.36,1.008 0.936,1.008 h 4.536 c 0.648,0 1.008,-0.36 1.008,-1.008 V 82.2 c 0,-8.136 -4.536,-13.392 -11.736,-13.392 z" transform="translate(0 214.5034124401812) translate(252.00000000000006 117.86776013519001) scale(1.9863353118124345) translate(-382.08331 -68.808)"></path> 
   <path id="path474424" style="font-style: normal; font-weight: 700; font-size: 72px; line-height: 1; font-family: Phenomena; font-variant-ligatures: none; text-align: center; text-anchor: middle; fill: rgb(48, 86, 115);" d="m 431.25369,120 h 4.608 c 0.576,0 0.936,-0.36 0.936,-1.008 v -15.984 h 11.664 v 15.984 c 0,0.648 0.432,1.008 1.008,1.008 h 4.536 c 0.648,0 1.008,-0.36 1.008,-1.008 V 82.128 c 0,-7.92 -4.968,-13.248 -12.384,-13.248 -7.416,0 -12.312,5.328 -12.312,13.248 v 36.864 c 0,0.648 0.36,1.008 0.936,1.008 z m 5.544,-22.968 V 81.84 c 0,-4.32 2.16,-6.84 5.832,-6.84 3.744,0 5.832,2.52 5.832,6.84 v 15.192 z" transform="translate(0 214.5034124401812) translate(347.80965223737957 118.01077627764046) scale(1.9863353118124345) translate(-430.31769 -68.88)"></path> 
   <path id="path474426" style="font-style: normal; font-weight: 700; font-size: 72px; line-height: 1; font-family: Phenomena; font-variant-ligatures: none; text-align: center; text-anchor: middle; fill: rgb(48, 86, 115);" d="m 474.68206,120.792 c 7.488,0 12.672,-5.472 12.672,-12.888 v -12.24 c 0,-1.872 -1.08,-2.952 -2.952,-2.952 h -8.496 c -0.648,0 -1.008,0.36 -1.008,1.008 v 3.816 c 0,0.576 0.36,0.936 1.008,0.936 h 4.968 v 9.792 c 0,3.744 -2.52,6.408 -6.12,6.408 -3.672,0 -6.192,-2.664 -6.192,-6.912 V 81.84 c 0,-4.248 2.232,-6.912 5.904,-6.912 3.456,0 5.616,2.592 5.832,6.984 0.072,0.648 0.432,1.008 1.008,1.008 h 4.608 c 0.576,0 0.936,-0.36 0.936,-1.008 -0.216,-7.704 -5.184,-13.104 -12.384,-13.104 -7.488,0 -12.456,5.4 -12.456,13.248 v 25.416 c 0,7.848 5.184,13.32 12.672,13.32 z" transform="translate(0 214.5034124401812) translate(410.76132588340454 117.86776013519001) scale(1.9863353118124345) translate(-462.01006 -68.808)"></path> 
   <path id="path474428" style="font-style: normal; font-weight: 700; font-size: 72px; line-height: 1; font-family: Phenomena; font-variant-ligatures: none; text-align: center; text-anchor: middle; fill: rgb(48, 86, 115);" d="m 493.89031,70.536 v 48.456 c 0,0.648 0.36,1.008 1.008,1.008 h 4.536 c 0.576,0 0.936,-0.36 0.936,-1.008 V 70.536 c 0,-0.576 -0.36,-0.936 -0.936,-0.936 h -4.536 c -0.648,0 -1.008,0.36 -1.008,0.936 z" transform="translate(0 214.5034124401812) translate(474.08619220781287 119.44093770214543) scale(1.9863353118124345) translate(-493.89031 -69.6)"></path> 
   <path id="path474430" style="font-style: normal; font-weight: 700; font-size: 72px; line-height: 1; font-family: Phenomena; font-variant-ligatures: none; text-align: center; text-anchor: middle; fill: rgb(48, 86, 115);" d="m 520.16581,120.792 c 7.344,0 12.168,-5.544 12.456,-14.256 0,-0.648 -0.36,-1.008 -0.936,-1.008 h -4.608 c -0.576,0 -0.936,0.288 -0.936,0.936 -0.144,5.256 -2.376,8.208 -6.048,8.208 -3.6,0 -5.688,-2.448 -5.688,-6.48 V 81.408 c 0,-4.032 2.088,-6.48 5.688,-6.48 3.312,0 5.544,2.664 5.688,7.704 0,0.648 0.36,0.936 0.936,0.936 h 4.608 c 0.648,0 0.936,-0.36 0.936,-0.936 -0.216,-8.424 -5.04,-13.824 -12.096,-13.824 -7.344,0 -12.312,5.184 -12.312,12.96 v 26.064 c 0,7.776 4.968,12.96 12.312,12.96 z" transform="translate(0 214.5034124401812) translate(501.82238533430575 117.86776013519001) scale(1.9863353118124345) translate(-507.85381 -68.808)"></path> 
   <path id="path474432" style="font-style: normal; font-weight: 700; font-size: 72px; line-height: 1; font-family: Phenomena; font-variant-ligatures: none; text-align: center; text-anchor: middle; fill: rgb(48, 86, 115);" d="m 538.97244,120 h 4.608 c 0.576,0 0.936,-0.36 0.936,-1.008 v -15.984 h 11.664 v 15.984 c 0,0.648 0.432,1.008 1.008,1.008 h 4.536 c 0.648,0 1.008,-0.36 1.008,-1.008 V 82.128 c 0,-7.92 -4.968,-13.248 -12.384,-13.248 -7.416,0 -12.312,5.328 -12.312,13.248 v 36.864 c 0,0.648 0.36,1.008 0.936,1.008 z m 5.544,-22.968 V 81.84 c 0,-4.32 2.16,-6.84 5.832,-6.84 3.744,0 5.832,2.52 5.832,6.84 v 15.192 z" transform="translate(0 214.5034124401812) translate(561.7752091066751 118.01077627764046) scale(1.9863353118124345) translate(-538.03644 -68.88)"></path> 
   <path id="path474434" style="font-style: normal; font-weight: 700; font-size: 72px; line-height: 1; font-family: Phenomena; font-variant-ligatures: none; text-align: center; text-anchor: middle; fill: rgb(48, 86, 115);" d="m 582.76081,114.168 c -3.312,0 -5.688,-2.736 -5.688,-6.84 V 70.536 c 0,-0.576 -0.36,-0.936 -1.008,-0.936 h -4.608 c -0.576,0 -0.936,0.36 -0.936,0.936 v 37.008 c 0,7.2 4.536,12.672 11.88,12.672 h 7.272 c 0.648,0 1.008,-0.36 1.008,-0.936 v -4.104 c 0,-0.648 -0.36,-1.008 -1.008,-1.008 z" transform="translate(0 214.5034124401812) translate(626.3000603196556 119.44093770214543) scale(1.9863353118124345) translate(-570.52081 -69.6)"></path> 
   <path id="path474436" style="font-style: normal; font-weight: 700; font-size: 72px; line-height: 1; font-family: Phenomena; font-variant-ligatures: none; text-align: center; text-anchor: middle; fill: rgb(218, 188, 104);" d="m 605.53531,120.72 c 7.488,0 12.672,-5.472 12.672,-13.032 V 81.912 c 0,-7.56 -5.184,-13.032 -12.672,-13.032 -7.488,0 -12.744,5.472 -12.744,13.536 v 24.768 c 0,8.064 5.256,13.536 12.744,13.536 z m 0,-6.048 c -3.672,0 -6.192,-2.736 -6.192,-7.2 V 82.128 c 0,-4.464 2.52,-7.2 6.192,-7.2 3.672,0 6.12,2.736 6.12,6.696 v 26.352 c 0,3.96 -2.448,6.696 -6.12,6.696 z" transform="translate(0 214.5034124401812) translate(670.5367408813744 118.01077627764046) scale(1.9863353118124345) translate(-592.79131 -68.88)"></path> 
   <path id="path474438" style="font-style: normal; font-weight: 700; font-size: 72px; line-height: 1; font-family: Phenomena; font-variant-ligatures: none; text-align: center; text-anchor: middle; fill: rgb(218, 188, 104);" d="m 622.27194,70.536 v 4.104 c 0,0.648 0.36,1.008 0.936,1.008 h 13.752 l -10.44,43.272 c -0.144,0.648 0.144,1.08 0.864,1.08 h 4.536 c 0.576,0 0.936,-0.288 1.08,-0.864 L 643.51194,75 c 0.288,-1.224 0.36,-2.088 0.36,-3.384 0,-1.368 -0.792,-2.016 -2.16,-2.016 h -18.504 c -0.576,0 -0.936,0.36 -0.936,0.936 z" transform="translate(0 214.5034124401812) translate(729.0951572648513 119.44093770214543) scale(1.9863353118124345) translate(-622.27194 -69.6)"></path> 
  </g> 
  <g id="tagline" style="font-style:oblique;font-weight:normal;font-size:32px;line-height:1;font-family:'Fira Sans Condensed';font-variant-ligatures:none;text-align:center;text-anchor:middle"></g> 
 </g> 
</svg>