<svg xmlns:dc="http://purl.org/dc/elements/1.1/" xmlns:cc="http://creativecommons.org/ns#" xmlns:rdf="http://www.w3.org/1999/02/22-rdf-syntax-ns#" xmlns:svg="http://www.w3.org/2000/svg" xmlns="http://www.w3.org/2000/svg" id="svg21770" viewbox="0 0 1024 768" height="768px" width="1024px" version="1.1"> <metadata id="metadata21776"> 
  <rdf:rdf> 
   <cc:work rdf:about=""> 
    <dc:format>
     image/svg+xml
    </dc:format> 
    <dc:type rdf:resource="http://purl.org/dc/dcmitype/StillImage"></dc:type> 
   </cc:work> 
  </rdf:rdf> 
 </metadata> <defs id="defs21774"></defs> <g id="logo-group"> 
  <g id="title" style="font-style:oblique;font-weight:700;font-size:72px;line-height:1;font-family:Averta;font-variant-ligatures:none;text-align:center;text-anchor:middle" aria-label="Maximalo7"> 
   <path id="path21778" style="font-style: oblique; font-weight: 700; font-size: 72px; line-height: 1; font-family: Averta; font-variant-ligatures: none; text-align: center; text-anchor: middle; fill: rgb(202, 202, 204);" d="m 352.60156,68.88 -6.264,51.12 h 11.304 l 3.528,-28.584 0.144,-0.072 6.84,19.152 h 6.984 l 10.8,-18.504 0.144,0.072 -3.384,27.936 h 11.304 l 6.264,-51.12 h -11.304 l -15.408,27.792 h -0.216 l -9.432,-27.792 z" transform="translate(0 270.8343971458748) translate(251.99999999999994 78.29767351819883) scale(1.3836479895208889) translate(-346.33756 -68.88)"></path> 
   <path id="path21780" style="font-style: oblique; font-weight: 700; font-size: 72px; line-height: 1; font-family: Averta; font-variant-ligatures: none; text-align: center; text-anchor: middle; fill: rgb(202, 202, 204);" d="m 414.50919,120.648 c 3.96,0 7.488,-2.16 10.08,-5.904 l 0.216,0.072 -0.648,5.184 h 10.872 l 4.32,-35.208 h -10.872 l -0.288,2.448 h -0.216 c -1.872,-1.944 -4.608,-3.096 -8.28,-3.096 -9.216,0 -16.632,9.576 -16.632,22.104 0,8.136 3.888,14.4 11.448,14.4 z m 3.456,-9.576 c -2.448,0 -4.032,-2.232 -4.032,-5.616 0,-5.256 2.88,-11.664 7.632,-11.664 2.232,0 4.248,0.864 5.832,2.52 l -0.144,1.008 c -1.224,8.856 -5.544,13.752 -9.288,13.752 z" transform="translate(0 270.8343971458748) translate(337.4037765554312 99.41767643024569) scale(1.3836479895208889) translate(-403.06119 -84.144)"></path> 
   <path id="path21782" style="font-style: oblique; font-weight: 700; font-size: 72px; line-height: 1; font-family: Averta; font-variant-ligatures: none; text-align: center; text-anchor: middle; fill: rgb(202, 202, 204);" d="M 452.21806,101.712 439.40206,120 h 11.664 l 6.048,-8.856 h 0.144 l 3.744,8.856 h 11.52 l -8.496,-17.712 12.744,-17.496 h -12.24 l -5.256,8.496 h -0.072 l -3.24,-8.496 h -11.952 z" transform="translate(0 270.8343971458748) translate(394.6049882159756 100.3142803274552) scale(1.3836479895208889) translate(-439.40206 -84.792)"></path> 
   <path id="path21784" style="font-style: oblique; font-weight: 700; font-size: 72px; line-height: 1; font-family: Averta; font-variant-ligatures: none; text-align: center; text-anchor: middle; fill: rgb(202, 202, 204);" d="m 488.33056,80.256 c 3.96,0 6.696,-2.736 6.696,-6.408 0,-3.528 -2.592,-6.12 -6.48,-6.12 -3.96,0 -6.696,2.664 -6.696,6.336 0,3.528 2.664,6.192 6.48,6.192 z m -6.696,4.536 -4.32,35.208 h 10.8 l 4.32,-35.208 z" transform="translate(0 270.8343971458748) translate(453.9807825662907 76.70371103427077) scale(1.3836479895208889) translate(-477.31456 -67.728)"></path> 
   <path id="path21786" style="font-style: oblique; font-weight: 700; font-size: 72px; line-height: 1; font-family: Averta; font-variant-ligatures: none; text-align: center; text-anchor: middle; fill: rgb(202, 202, 204);" d="m 500.68419,84.792 -4.32,35.208 h 10.8 l 1.656,-13.752 c 1.008,-8.208 5.688,-12.456 8.064,-12.456 2.448,0 2.592,2.232 1.944,7.128 l -2.52,19.08 h 10.728 l 1.728,-12.96 c 1.152,-8.928 5.76,-13.248 8.208,-13.248 2.232,0 2.592,2.232 1.944,7.128 l -2.52,19.08 h 10.728 l 2.808,-21.096 c 1.296,-10.152 -1.224,-14.76 -8.208,-14.76 -4.896,0 -8.784,1.8 -11.808,5.328 h -0.36 c -1.008,-3.672 -3.6,-5.328 -7.632,-5.328 -4.104,0 -7.776,1.8 -10.728,5.112 l -0.288,-0.072 0.576,-4.392 z" transform="translate(0 270.8343971458748) translate(487.25700476451203 99.41767643024569) scale(1.3836479895208889) translate(-496.36419 -84.144)"></path> 
   <path id="path21788" style="font-style: oblique; font-weight: 700; font-size: 72px; line-height: 1; font-family: Averta; font-variant-ligatures: none; text-align: center; text-anchor: middle; fill: rgb(202, 202, 204);" d="m 566.38419,120.648 c 3.96,0 7.488,-2.16 10.08,-5.904 l 0.216,0.072 -0.648,5.184 h 10.872 l 4.32,-35.208 h -10.872 l -0.288,2.448 h -0.216 c -1.872,-1.944 -4.608,-3.096 -8.28,-3.096 -9.216,0 -16.632,9.576 -16.632,22.104 0,8.136 3.888,14.4 11.448,14.4 z m 3.456,-9.576 c -2.448,0 -4.032,-2.232 -4.032,-5.616 0,-5.256 2.88,-11.664 7.632,-11.664 2.232,0 4.248,0.864 5.832,2.52 l -0.144,1.008 c -1.224,8.856 -5.544,13.752 -9.288,13.752 z" transform="translate(0 270.8343971458748) translate(575.2182747543341 99.41767643024569) scale(1.3836479895208889) translate(-554.93619 -84.144)"></path> 
   <path id="path21790" style="font-style: oblique; font-weight: 700; font-size: 72px; line-height: 1; font-family: Averta; font-variant-ligatures: none; text-align: center; text-anchor: middle; fill: rgb(202, 202, 204);" d="m 601.42906,67.008 -6.48,52.992 h 10.8 l 6.552,-52.992 z" transform="translate(0 270.8343971458748) translate(637.5002418323993 75.70748448181571) scale(1.3836479895208889) translate(-594.94906 -67.008)"></path> 
   <path id="path21792" style="font-style: oblique; font-weight: 700; font-size: 72px; line-height: 1; font-family: Averta; font-variant-ligatures: none; text-align: center; text-anchor: middle; fill: rgb(237, 31, 39);" d="m 628.97469,120.648 c 13.464,0 19.584,-10.008 19.584,-21.456 0,-9.576 -5.976,-15.048 -15.048,-15.048 -12.384,0 -19.44,10.08 -19.44,21.384 0,9.648 5.976,15.12 14.904,15.12 z m 0.792,-9.648 c -2.304,0 -4.752,-1.872 -4.752,-6.048 0,-5.4 2.88,-11.16 7.632,-11.16 1.944,0 4.968,1.08 4.968,6.12 0,5.76 -3.096,11.088 -7.848,11.088 z" transform="translate(0 270.8343971458748) translate(670.876086685866 99.41767643024569) scale(1.3836479895208889) translate(-614.07069 -84.144)"></path> 
   <path id="path21794" style="font-style: oblique; font-weight: 700; font-size: 72px; line-height: 1; font-family: Averta; font-variant-ligatures: none; text-align: center; text-anchor: middle; fill: rgb(237, 31, 39);" d="m 682.15569,70.536 h -27.864 l -1.224,10.08 h 15.48 l -17.568,38.52 11.088,2.016 19.224,-43.344 z" transform="translate(0 270.8343971458748) translate(728.8633902786968 80.58899458884541) scale(1.3836479895208889) translate(-650.97969 -70.536)"></path> 
  </g> 
  <g id="tagline" style="font-style:normal;font-weight:500;font-size:32px;line-height:1;font-family:Raleway;font-variant-ligatures:none;text-align:center;text-anchor:middle"></g> 
 </g> 
</svg>