<svg xmlns:dc="http://purl.org/dc/elements/1.1/" xmlns:cc="http://creativecommons.org/ns#" xmlns:rdf="http://www.w3.org/1999/02/22-rdf-syntax-ns#" xmlns:svg="http://www.w3.org/2000/svg" xmlns="http://www.w3.org/2000/svg" id="svg396828" viewbox="0 0 1024 768" height="768px" width="1024px" version="1.1"> <metadata id="metadata396834"> 
  <rdf:rdf> 
   <cc:work rdf:about=""> 
    <dc:format>
     image/svg+xml
    </dc:format> 
    <dc:type rdf:resource="http://purl.org/dc/dcmitype/StillImage"></dc:type> 
   </cc:work> 
  </rdf:rdf> 
 </metadata> <defs id="defs396832"></defs> <g id="logo-group"> 
  <g id="title" style="font-style:normal;font-weight:200;font-size:72px;line-height:1;font-family:Phenomena;font-variant-ligatures:none;text-align:center;text-anchor:middle" aria-label="Metallico7"> 
   <path id="path396836" style="font-style: normal; font-weight: 200; font-size: 72px; line-height: 1; font-family: Phenomena; font-variant-ligatures: none; text-align: center; text-anchor: middle; fill: rgb(55, 54, 54);" d="m 424.76356,69.096 c -4.392,0 -7.848,3.096 -9.288,7.344 -1.44,-4.248 -4.968,-7.344 -9.288,-7.344 -6.336,0 -10.152,5.184 -10.152,11.88 v 38.664 c 0,0.216 0.144,0.36 0.36,0.36 h 0.72 c 0.216,0 0.36,-0.144 0.36,-0.36 V 80.976 c 0,-6.048 3.24,-10.512 8.712,-10.512 5.04,0 8.568,4.68 8.568,10.512 v 38.664 c 0,0.216 0.144,0.36 0.36,0.36 h 0.72 c 0.216,0 0.36,-0.144 0.36,-0.36 V 80.976 c 0,-5.832 3.6,-10.512 8.568,-10.512 5.544,0 8.712,4.464 8.712,10.512 v 38.664 c 0,0.216 0.144,0.36 0.36,0.36 h 0.72 c 0.216,0 0.36,-0.144 0.36,-0.36 V 80.976 c 0,-6.696 -3.888,-11.88 -10.152,-11.88 z" transform="translate(0 237.219877389361) translate(252 101.80459670785564) scale(1.7497481288042094) translate(-396.03556 -69.096)"></path> 
   <path id="path396838" style="font-style: normal; font-weight: 200; font-size: 72px; line-height: 1; font-family: Phenomena; font-variant-ligatures: none; text-align: center; text-anchor: middle; fill: rgb(55, 54, 54);" d="m 454.03831,120.504 c 6.624,0 9.936,-4.608 10.08,-10.296 0,-0.144 -0.144,-0.288 -0.36,-0.288 h -0.648 c -0.216,0 -0.36,0.144 -0.36,0.36 -0.144,4.968 -2.88,8.928 -8.712,8.928 -5.76,0 -8.424,-4.176 -8.424,-9.504 v -5.472 h 7.2 c 7.848,0 11.592,-4.32 11.592,-10.152 0,-5.832 -4.176,-10.584 -10.08,-10.584 -6.12,0 -10.08,4.608 -10.08,10.872 v 15.336 c 0,6.048 3.168,10.8 9.792,10.8 z m -8.424,-17.568 v -8.568 c 0,-5.544 3.312,-9.576 8.712,-9.576 5.184,0 8.712,4.176 8.712,9.288 0,5.112 -3.024,8.856 -10.224,8.856 z" transform="translate(0 237.219877389361) translate(348.6049065023771 127.00096976263626) scale(1.7497481288042094) translate(-444.24631 -83.496)"></path> 
   <path id="path396840" style="font-style: normal; font-weight: 200; font-size: 72px; line-height: 1; font-family: Phenomena; font-variant-ligatures: none; text-align: center; text-anchor: middle; fill: rgb(55, 54, 54);" d="m 484.90269,118.848 h -1.008 c -5.04,0 -7.704,-3.24 -7.704,-9.36 V 85.296 h 8.064 c 0.216,0 0.36,-0.144 0.36,-0.36 V 84.36 c 0,-0.216 -0.144,-0.36 -0.36,-0.36 h -8.064 v -9.72 c 0,-0.216 -0.144,-0.36 -0.36,-0.36 h -0.648 c -0.216,0 -0.36,0.144 -0.36,0.36 V 84 h -5.04 c -0.216,0 -0.36,0.144 -0.36,0.36 v 0.576 c 0,0.216 0.144,0.36 0.36,0.36 h 5.04 v 24.192 c 0,6.984 3.096,10.656 9.072,10.656 h 1.008 c 0.216,0 0.36,-0.144 0.36,-0.36 v -0.576 c 0,-0.216 -0.144,-0.36 -0.36,-0.36 z" transform="translate(0 237.219877389361) translate(404.90546719907024 110.24538168120716) scale(1.7497481288042094) translate(-469.42269 -73.92)"></path> 
   <path id="path396842" style="font-style: normal; font-weight: 200; font-size: 72px; line-height: 1; font-family: Phenomena; font-variant-ligatures: none; text-align: center; text-anchor: middle; fill: rgb(55, 54, 54);" d="m 500.73594,120.504 c 6.192,0 9.648,-4.32 9.648,-11.16 V 94.368 c 0,-6.84 -3.672,-10.872 -9.648,-10.872 -6.264,0 -9.864,3.888 -10.152,9.144 0,0.216 0.144,0.36 0.36,0.36 h 0.648 c 0.216,0 0.36,-0.144 0.36,-0.36 0.288,-4.464 3.384,-7.848 8.784,-7.848 5.112,0 8.28,3.528 8.28,9.576 v 4.896 h -7.632 c -7.488,0 -11.376,3.816 -11.376,10.08 0,7.128 3.888,11.16 10.728,11.16 z m 0,-1.296 c -5.976,0 -9.36,-3.6 -9.36,-9.864 0,-5.472 3.384,-8.784 10.008,-8.784 h 7.632 v 8.784 c 0,6.048 -2.952,9.864 -8.28,9.864 z" transform="translate(0 237.219877389361) translate(453.17270676916667 127.00096976263626) scale(1.7497481288042094) translate(-490.00794 -83.496)"></path> 
   <path id="path396844" style="font-style: normal; font-weight: 200; font-size: 72px; line-height: 1; font-family: Phenomena; font-variant-ligatures: none; text-align: center; text-anchor: middle; fill: rgb(55, 54, 54);" d="m 520.28956,120 h 0.648 c 0.216,0 0.36,-0.144 0.36,-0.36 V 69.96 c 0,-0.216 -0.144,-0.36 -0.36,-0.36 h -0.648 c -0.216,0 -0.36,0.144 -0.36,0.36 v 49.68 c 0,0.216 0.144,0.36 0.36,0.36 z" transform="translate(0 237.219877389361) translate(517.7762422765868 102.68646976477297) scale(1.7497481288042094) translate(-519.92956 -69.6)"></path> 
   <path id="path396846" style="font-style: normal; font-weight: 200; font-size: 72px; line-height: 1; font-family: Phenomena; font-variant-ligatures: none; text-align: center; text-anchor: middle; fill: rgb(55, 54, 54);" d="m 532.66456,120 h 0.648 c 0.216,0 0.36,-0.144 0.36,-0.36 V 69.96 c 0,-0.216 -0.144,-0.36 -0.36,-0.36 h -0.648 c -0.216,0 -0.36,0.144 -0.36,0.36 v 49.68 c 0,0.216 0.144,0.36 0.36,0.36 z" transform="translate(0 237.219877389361) translate(551.6776122721683 102.68646976477297) scale(1.7497481288042094) translate(-532.30456 -69.6)"></path> 
   <path id="path396848" style="font-style: normal; font-weight: 200; font-size: 72px; line-height: 1; font-family: Phenomena; font-variant-ligatures: none; text-align: center; text-anchor: middle; fill: rgb(55, 54, 54);" d="m 545.39956,77.88 c 0.936,0 1.584,-0.648 1.584,-1.584 0,-0.936 -0.648,-1.584 -1.584,-1.584 -0.936,0 -1.584,0.648 -1.584,1.584 0,0.936 0.648,1.584 1.584,1.584 z m -0.36,42.12 h 0.648 c 0.216,0 0.36,-0.144 0.36,-0.36 V 84.36 c 0,-0.216 -0.144,-0.36 -0.36,-0.36 h -0.648 c -0.216,0 -0.36,0.144 -0.36,0.36 v 35.28 c 0,0.216 0.144,0.36 0.36,0.36 z" transform="translate(0 237.219877389361) translate(584.0671998844629 111.63118219922009) scale(1.7497481288042094) translate(-543.81556 -74.712)"></path> 
   <path id="path396850" style="font-style: normal; font-weight: 200; font-size: 72px; line-height: 1; font-family: Phenomena; font-variant-ligatures: none; text-align: center; text-anchor: middle; fill: rgb(55, 54, 54);" d="m 565.91731,120.504 c 5.832,0 9.936,-4.104 10.152,-10.224 0,-0.216 -0.144,-0.36 -0.36,-0.36 h -0.648 c -0.216,0 -0.36,0.144 -0.36,0.36 -0.216,5.328 -3.744,8.928 -8.784,8.928 -5.328,0 -8.928,-3.888 -8.928,-9.648 V 94.944 c 0,-6.12 3.456,-10.152 8.712,-10.152 4.968,0 8.424,3.168 8.64,7.848 0,0.216 0.144,0.36 0.36,0.36 h 0.648 c 0.216,0 0.36,-0.144 0.36,-0.36 -0.216,-5.472 -4.248,-9.144 -10.008,-9.144 -6.048,0 -10.08,4.608 -10.08,11.448 v 14.616 c 0,6.552 4.104,10.944 10.296,10.944 z" transform="translate(0 237.219877389361) translate(616.9725257577226 127.00096976263626) scale(1.7497481288042094) translate(-555.62131 -83.496)"></path> 
   <path id="path396852" style="font-style: normal; font-weight: 200; font-size: 72px; line-height: 1; font-family: Phenomena; font-variant-ligatures: none; text-align: center; text-anchor: middle; fill: rgb(148, 145, 144);" d="m 593.68906,120.504 c 6.408,0 10.224,-4.752 10.224,-10.944 V 94.44 c 0,-6.192 -3.816,-10.944 -10.224,-10.944 -6.408,0 -10.224,4.752 -10.224,10.944 v 15.12 c 0,6.192 3.816,10.944 10.224,10.944 z m 0,-1.296 c -5.544,0 -8.856,-4.248 -8.856,-9.648 V 94.44 c 0,-5.4 3.312,-9.648 8.856,-9.648 5.544,0 8.856,4.248 8.856,9.648 v 15.12 c 0,5.4 -3.312,9.648 -8.856,9.648 z" transform="translate(0 237.219877389361) translate(677.9403121207444 127.00096976263626) scale(1.7497481288042094) translate(-583.46506 -83.496)"></path> 
   <path id="path396854" style="font-style: normal; font-weight: 200; font-size: 72px; line-height: 1; font-family: Phenomena; font-variant-ligatures: none; text-align: center; text-anchor: middle; fill: rgb(148, 145, 144);" d="m 610.27719,69.96 v 0.648 c 0,0.216 0.144,0.36 0.36,0.36 h 18 l -12.168,48.6 c -0.072,0.288 0.144,0.432 0.36,0.432 h 0.72 c 0.216,0 0.288,-0.072 0.36,-0.288 l 12.24,-48.816 c 0.072,-0.36 0.072,-0.576 0.072,-0.864 0,-0.288 -0.216,-0.432 -0.432,-0.432 h -19.152 c -0.216,0 -0.36,0.144 -0.36,0.36 z" transform="translate(0 237.219877389361) translate(737.1030233191291 102.68646976477297) scale(1.7497481288042094) translate(-610.27719 -69.6)"></path> 
  </g> 
  <g id="tagline" style="font-style:oblique;font-weight:300;font-size:32px;line-height:1;font-family:'Fira Sans Condensed';font-variant-ligatures:none;text-align:center;text-anchor:middle"></g> 
 </g> 
</svg>