<svg xmlns:dc="http://purl.org/dc/elements/1.1/" xmlns:cc="http://creativecommons.org/ns#" xmlns:rdf="http://www.w3.org/1999/02/22-rdf-syntax-ns#" xmlns:svg="http://www.w3.org/2000/svg" xmlns="http://www.w3.org/2000/svg" id="svg649538" viewbox="0 0 1024 768" height="768px" width="1024px" version="1.1"> <metadata id="metadata649544"> 
  <rdf:rdf> 
   <cc:work rdf:about=""> 
    <dc:format>
     image/svg+xml
    </dc:format> 
    <dc:type rdf:resource="http://purl.org/dc/dcmitype/StillImage"></dc:type> 
   </cc:work> 
  </rdf:rdf> 
 </metadata> <defs id="defs649542"></defs> <g id="logo-group"> 
  <g id="title" style="font-style:normal;font-weight:300;font-size:72px;line-height:1;font-family:'Montserrat Light Alt1';font-variant-ligatures:none;text-align:center;text-anchor:middle" aria-label="MINIO7"> 
   <path id="path649546" style="font-style: normal; font-weight: 300; font-size: 72px; line-height: 1; font-family: &quot;Montserrat Light Alt1&quot;; font-variant-ligatures: none; text-align: center; text-anchor: middle; fill: rgb(189, 195, 194);" d="m 432.46362,120 h 3.6 l -0.072,-50.4 h -3.024 l -22.536,38.952 -22.536,-38.952 h -3.096 V 120 h 3.60001 V 77.016 l 21.096,36.288 h 1.79999 l 21.096,-36.432 z" transform="translate(0 230.27833355560534) translate(252 107.74451460474542) scale(1.824490152367032) translate(-384.79962 -69.6)"></path> 
   <path id="path649548" style="font-style: normal; font-weight: 300; font-size: 72px; line-height: 1; font-family: &quot;Montserrat Light Alt1&quot;; font-variant-ligatures: none; text-align: center; text-anchor: middle; fill: rgb(189, 195, 194);" d="M 453.56525,69.6 V 120 h 3.672 V 69.6 Z" transform="translate(0 230.27833355560534) translate(386.5846655181501 107.74451460474542) scale(1.824490152367032) translate(-453.56525 -69.6)"></path> 
   <path id="path649550" style="font-style: normal; font-weight: 300; font-size: 72px; line-height: 1; font-family: &quot;Montserrat Light Alt1&quot;; font-variant-ligatures: none; text-align: center; text-anchor: middle; fill: rgb(189, 195, 194);" d="m 515.83962,69.6 h -3.67199 v 43.776 L 477.89562,69.6 h -3.096 V 120 h 3.67201 V 76.224 L 512.81562,120 h 3.024 z" transform="translate(0 230.27833355560534) translate(434.44901523670313 107.74451460474542) scale(1.824490152367032) translate(-474.79962 -69.6)"></path> 
   <path id="path649552" style="font-style: normal; font-weight: 300; font-size: 72px; line-height: 1; font-family: &quot;Montserrat Light Alt1&quot;; font-variant-ligatures: none; text-align: center; text-anchor: middle; fill: rgb(189, 195, 194);" d="M 533.44025,69.6 V 120 h 3.672 V 69.6 Z" transform="translate(0 230.27833355560534) translate(550.5607179621371 107.74451460474542) scale(1.824490152367032) translate(-533.44025 -69.6)"></path> 
   <path id="path649554" style="font-style: normal; font-weight: 300; font-size: 72px; line-height: 1; font-family: &quot;Montserrat Light Alt1&quot;; font-variant-ligatures: none; text-align: center; text-anchor: middle; fill: rgb(90, 98, 101);" d="m 562.66662,117.048 c 3.96,2.232 8.42401,3.312 13.392,3.312 4.896,0 9.36001,-1.08 13.392,-3.312 3.96,-2.16 7.056,-5.256 9.36,-9.144 2.30401,-3.888 3.456,-8.208 3.456,-13.104 0,-4.824 -1.15199,-9.216 -3.456,-13.104 -2.304,-3.888 -5.4,-6.912 -9.36,-9.144 -4.03199,-2.16 -8.496,-3.312 -13.392,-3.312 -4.96799,0 -9.432,1.152 -13.392,3.384 -4.03199,2.232 -7.12799,5.256 -9.43199,9.144 -2.30401,3.888 -3.384,8.28 -3.384,13.032 0,4.824 1.07999,9.144 3.384,13.032 2.304,3.888 5.4,6.984 9.43199,9.216 z m 24.84,-2.952 c -3.456,1.944 -7.27199,2.88 -11.448,2.88 -4.248,0 -8.06399,-0.936 -11.51999,-2.88 -3.45601,-1.872 -6.12,-4.536 -8.06401,-7.92 -2.016,-3.384 -2.952,-7.2 -2.952,-11.376 0,-4.176 0.936,-7.92 2.952,-11.304 1.94401,-3.384 4.608,-6.048 8.06401,-7.992 3.456,-1.872 7.27199,-2.88 11.51999,-2.88 4.17601,0 7.992,1.008 11.448,2.88 3.384,1.944 6.048,4.608 8.06401,7.992 1.944,3.384 2.95199,7.128 2.95199,11.304 0,4.176 -1.00799,7.992 -2.95199,11.376 -2.01601,3.384 -4.68001,6.048 -8.06401,7.92 z" transform="translate(0 230.27833355560534) translate(589.6237454305732 107.08769814989331) scale(1.824490152367032) translate(-549.85063 -69.24)"></path> 
   <path id="path649556" style="font-style: normal; font-weight: 300; font-size: 72px; line-height: 1; font-family: &quot;Montserrat Light Alt1&quot;; font-variant-ligatures: none; text-align: center; text-anchor: middle; fill: rgb(90, 98, 101);" d="m 644.81075,69.6 h -36.144 v 12.96 h 3.6 v -9.648 h 28.296 L 619.10675,120 h 4.032 l 21.672,-47.808 z" transform="translate(0 230.27833355560534) translate(706.0556279328459 107.74451460474542) scale(1.824490152367032) translate(-608.66675 -69.6)"></path> 
  </g> 
  <g id="tagline" style="font-style:normal;font-weight:400;font-size:32px;line-height:1;font-family:Montserrat;font-variant-ligatures:none;text-align:center;text-anchor:middle"></g> 
 </g> 
</svg>