<svg xmlns:dc="http://purl.org/dc/elements/1.1/" xmlns:cc="http://creativecommons.org/ns#" xmlns:rdf="http://www.w3.org/1999/02/22-rdf-syntax-ns#" xmlns:svg="http://www.w3.org/2000/svg" xmlns="http://www.w3.org/2000/svg" id="svg376827" viewbox="0 0 1024 768" height="768px" width="1024px" version="1.1"> <metadata id="metadata376833"> 
  <rdf:rdf> 
   <cc:work rdf:about=""> 
    <dc:format>
     image/svg+xml
    </dc:format> 
    <dc:type rdf:resource="http://purl.org/dc/dcmitype/StillImage"></dc:type> 
   </cc:work> 
  </rdf:rdf> 
 </metadata> <defs id="defs376831"></defs> <g id="logo-group"> 
  <g id="title" style="font-style:normal;font-weight:300;font-size:72px;line-height:1;font-family:'Uni Neue';font-variant-ligatures:none;text-align:center;text-anchor:middle" aria-label="Minorityo7"> 
   <path id="path376835" style="font-style: normal; font-weight: 300; font-size: 72px; line-height: 1; font-family: &quot;Uni Neue&quot;; font-variant-ligatures: none; text-align: center; text-anchor: middle; fill: rgb(211, 53, 36);" d="m 357.73437,120 c 0.216,0 0.43201,-0.144 0.43201,-0.432 l -0.072,-47.304 v -0.072 l 19.728,34.92 c 0.144,0.144 0.35999,0.288 0.57599,0.288 h 1.152 c 0.216,0 0.504,-0.144 0.576,-0.288 l 19.728,-34.92 v 0.072 l -0.072,47.304 c 0,0.288 0.216,0.432 0.43201,0.432 h 1.512 c 0.28799,0 0.50399,-0.144 0.50399,-0.432 V 68.952 c 0,-0.288 -0.216,-0.432 -0.50399,-0.432 h -2.01601 c -0.216,0 -0.432,0.072 -0.504,0.288 l -20.232,35.64 -20.16,-35.64 c -0.144,-0.216 -0.35999,-0.288 -0.57599,-0.288 h -2.01601 c -0.288,0 -0.504,0.144 -0.504,0.432 v 50.616 c 0,0.288 0.216,0.432 0.504,0.432 z" transform="translate(0 249.61041041196773) translate(252.0000000000001 84.74596765791414) scale(1.5070923476052853) translate(-355.71837 -68.52)"></path> 
   <path id="path376837" style="font-style: normal; font-weight: 300; font-size: 72px; line-height: 1; font-family: &quot;Uni Neue&quot;; font-variant-ligatures: none; text-align: center; text-anchor: middle; fill: rgb(211, 53, 36);" d="m 416.61912,120 c 0.288,0 0.43201,-0.144 0.43201,-0.432 V 83.496 c 0,-0.288 -0.14401,-0.504 -0.43201,-0.504 h -1.44 c -0.288,0 -0.432,0.216 -0.432,0.504 v 36.072 c 0,0.288 0.144,0.432 0.432,0.432 z m 1.152,-46.944 c 0,-1.152 -0.792,-1.872 -1.87199,-1.872 -1.08001,0 -1.87201,0.72 -1.87201,1.872 0,1.08 0.792,1.8 1.87201,1.8 1.07999,0 1.87199,-0.72 1.87199,-1.8 z" transform="translate(0 249.61041041196773) translate(344.3979479662457 88.76086167193465) scale(1.5070923476052853) translate(-414.02712 -71.184)"></path> 
   <path id="path376839" style="font-style: normal; font-weight: 300; font-size: 72px; line-height: 1; font-family: &quot;Uni Neue&quot;; font-variant-ligatures: none; text-align: center; text-anchor: middle; fill: rgb(211, 53, 36);" d="m 429.9065,120 c 0.288,0 0.432,-0.144 0.432,-0.432 V 86.52 c 3.168,-1.224 7.2,-2.088 11.16,-2.088 8.28,0 12.96,4.104 12.96,12.456 v 22.68 c 0,0.288 0.216,0.432 0.504,0.432 h 1.368 c 0.288,0 0.432,-0.144 0.432,-0.432 V 96.816 c 0,-9.72 -5.688,-14.544 -15.264,-14.544 -4.68,0 -9.216,1.008 -13.104,2.736 -0.216,0.144 -0.36,0.36 -0.36,0.576 v 33.984 c 0,0.288 0.216,0.432 0.432,0.432 z" transform="translate(0 249.61041041196773) translate(370.0296402170607 105.47150162218206) scale(1.5070923476052853) translate(-428.0345 -82.272)"></path> 
   <path id="path376841" style="font-style: normal; font-weight: 300; font-size: 72px; line-height: 1; font-family: &quot;Uni Neue&quot;; font-variant-ligatures: none; text-align: center; text-anchor: middle; fill: rgb(211, 53, 36);" d="M 496.0655,107.184 V 95.808 c 0,-7.56 -5.184,-13.536 -14.976,-13.536 -9.72,0 -14.976,5.976 -14.976,13.536 v 11.376 c 0,7.632 5.256,13.536 14.976,13.536 9.792,0 14.976,-5.904 14.976,-13.536 z m -27.648,0 V 95.808 c 0,-6.336 4.248,-11.376 12.672,-11.376 8.496,0 12.672,5.04 12.672,11.376 v 11.376 c 0,6.408 -4.176,11.448 -12.672,11.448 -8.424,0 -12.672,-5.04 -12.672,-11.448 z" transform="translate(0 249.61041041196773) translate(431.93948676433826 105.47150162218206) scale(1.5070923476052853) translate(-466.1135 -82.272)"></path> 
   <path id="path376843" style="font-style: normal; font-weight: 300; font-size: 72px; line-height: 1; font-family: &quot;Uni Neue&quot;; font-variant-ligatures: none; text-align: center; text-anchor: middle; fill: rgb(211, 53, 36);" d="m 507.5315,120 c 0.288,0 0.432,-0.144 0.432,-0.432 V 86.304 c 3.096,-1.224 6.84,-1.872 10.296,-1.872 2.376,0 4.896,0.216 7.128,0.576 0.288,0.072 0.432,-0.072 0.432,-0.36 v -1.224 c 0,-0.288 -0.072,-0.432 -0.432,-0.504 -2.304,-0.36 -4.824,-0.648 -7.272,-0.648 -4.104,0 -8.64,0.864 -12.096,2.52 -0.216,0.072 -0.36,0.288 -0.36,0.504 v 34.272 c 0,0.288 0.216,0.432 0.432,0.432 z" transform="translate(0 249.61041041196773) translate(496.0602377855528 105.47150162218206) scale(1.5070923476052853) translate(-505.6595 -82.272)"></path> 
   <path id="path376845" style="font-style: normal; font-weight: 300; font-size: 72px; line-height: 1; font-family: &quot;Uni Neue&quot;; font-variant-ligatures: none; text-align: center; text-anchor: middle; fill: rgb(211, 53, 36);" d="m 534.46288,120 c 0.28799,0 0.43199,-0.144 0.43199,-0.432 V 83.496 c 0,-0.288 -0.144,-0.504 -0.43199,-0.504 h -1.44001 c -0.288,0 -0.432,0.216 -0.432,0.504 v 36.072 c 0,0.288 0.144,0.432 0.432,0.432 z m 1.15199,-46.944 c 0,-1.152 -0.792,-1.872 -1.87199,-1.872 -1.08001,0 -1.87201,0.72 -1.87201,1.872 0,1.08 0.792,1.8 1.87201,1.8 1.07999,0 1.87199,-0.72 1.87199,-1.8 z" transform="translate(0 249.61041041196773) translate(540.0844699756194 88.76086167193465) scale(1.5070923476052853) translate(-531.87087 -71.184)"></path> 
   <path id="path376847" style="font-style: normal; font-weight: 300; font-size: 72px; line-height: 1; font-family: &quot;Uni Neue&quot;; font-variant-ligatures: none; text-align: center; text-anchor: middle; fill: rgb(211, 53, 36);" d="M 547.96625,108.84 V 85.224 h 12.168 c 0.216,0 0.432,-0.216 0.432,-0.504 v -1.224 c 0,-0.216 -0.216,-0.432 -0.432,-0.432 h -12.168 v -8.928 c -0.072,-0.288 -0.216,-0.432 -0.504,-0.432 h -1.368 c -0.288,0 -0.432,0.144 -0.432,0.432 v 34.776 c 0,7.416 4.176,11.664 11.088,11.664 1.008,0 2.952,-0.072 4.32,-0.216 0.288,-0.072 0.432,-0.216 0.432,-0.504 v -1.224 c 0,-0.288 -0.144,-0.432 -0.432,-0.432 -1.44,0.144 -3.24,0.216 -4.32,0.216 -5.76,0 -8.784,-3.528 -8.784,-9.576 z" transform="translate(0 249.61041041196773) translate(565.3906302793519 92.55873438789995) scale(1.5070923476052853) translate(-545.66225 -73.704)"></path> 
   <path id="path376849" style="font-style: normal; font-weight: 300; font-size: 72px; line-height: 1; font-family: &quot;Uni Neue&quot;; font-variant-ligatures: none; text-align: center; text-anchor: middle; fill: rgb(211, 53, 36);" d="m 593.23513,113.808 c -3.168,1.656 -6.76801,2.664 -10.72801,2.664 -7.77599,0 -12.81599,-3.672 -12.81599,-11.808 V 83.496 c 0,-0.288 -0.216,-0.504 -0.504,-0.504 h -1.36801 c -0.288,0 -0.432,0.216 -0.432,0.504 v 21.24 c 0,9.36 6.048,13.896 14.904,13.896 3.96,0 7.77601,-0.936 10.94401,-2.592 v 4.968 c 0.072,6.768 -3.528,11.232 -11.592,11.232 -5.18401,0 -8.85601,-2.304 -12.096,-5.112 -0.216,-0.216 -0.432,-0.144 -0.576,0.072 l -0.79201,0.936 c -0.144,0.216 -0.144,0.504 0,0.648 3.74401,3.384 7.992,5.616 13.46401,5.616 9.57599,0 13.896,-5.544 13.896,-13.32 V 83.496 c 0,-0.288 -0.14401,-0.504 -0.43201,-0.504 h -1.44 c -0.28799,0 -0.43199,0.216 -0.43199,0.504 z" transform="translate(0 249.61041041196773) translate(602.6532926518873 106.55660811245785) scale(1.5070923476052853) translate(-567.38712 -82.992)"></path> 
   <path id="path376851" style="font-style: normal; font-weight: 300; font-size: 72px; line-height: 1; font-family: &quot;Uni Neue&quot;; font-variant-ligatures: none; text-align: center; text-anchor: middle; fill: rgb(237, 232, 213);" d="M 635.14363,107.184 V 95.808 c 0,-7.56 -5.18401,-13.536 -14.976,-13.536 -9.72,0 -14.976,5.976 -14.976,13.536 v 11.376 c 0,7.632 5.256,13.536 14.976,13.536 9.79199,0 14.976,-5.904 14.976,-13.536 z m -27.648,0 V 95.808 c 0,-6.336 4.24799,-11.376 12.672,-11.376 8.496,0 12.67199,5.04 12.67199,11.376 v 11.376 c 0,6.408 -4.17599,11.448 -12.67199,11.448 -8.42401,0 -12.672,-5.04 -12.672,-11.448 z" transform="translate(0 249.61041041196773) translate(664.1494574206707 105.47150162218206) scale(1.5070923476052853) translate(-605.19163 -82.272)"></path> 
   <path id="path376853" style="font-style: normal; font-weight: 300; font-size: 72px; line-height: 1; font-family: &quot;Uni Neue&quot;; font-variant-ligatures: none; text-align: center; text-anchor: middle; fill: rgb(237, 232, 213);" d="m 649.20163,120 c 0.216,0 0.504,-0.144 0.57599,-0.36 l 23.83201,-49.392 c 0.144,-0.144 0.144,-0.36 0.144,-0.504 v -0.792 c 0,-0.288 -0.216,-0.432 -0.504,-0.432 h -31.68001 c -0.288,0 -0.504,0.144 -0.504,0.432 v 1.368 c 0,0.216 0.216,0.432 0.504,0.432 h 29.304 l -23.616,48.672 c -0.144,0.36 0.072,0.576 0.36,0.576 z" transform="translate(0 249.61041041196773) translate(722.736150270555 84.74596765791414) scale(1.5070923476052853) translate(-641.06562 -68.52)"></path> 
  </g> 
  <g id="tagline" style="font-style:oblique;font-weight:400;font-size:32px;line-height:1;font-family:Lato;font-variant-ligatures:none;text-align:center;text-anchor:middle"></g> 
 </g> 
</svg>