<svg xmlns:dc="http://purl.org/dc/elements/1.1/" xmlns:cc="http://creativecommons.org/ns#" xmlns:rdf="http://www.w3.org/1999/02/22-rdf-syntax-ns#" xmlns:svg="http://www.w3.org/2000/svg" xmlns="http://www.w3.org/2000/svg" id="svg24535" viewbox="0 0 1024 768" height="768px" width="1024px" version="1.1"> <metadata id="metadata24541"> 
  <rdf:rdf> 
   <cc:work rdf:about=""> 
    <dc:format>
     image/svg+xml
    </dc:format> 
    <dc:type rdf:resource="http://purl.org/dc/dcmitype/StillImage"></dc:type> 
   </cc:work> 
  </rdf:rdf> 
 </metadata> <defs id="defs24539"></defs> <g id="logo-group"> 
  <g id="title" style="font-style:oblique;font-weight:700;font-size:72px;line-height:1;font-family:Averta;font-variant-ligatures:none;text-align:center;text-anchor:middle" aria-label="MOBIO7"> 
   <path id="path24543" style="font-style: oblique; font-weight: 700; font-size: 72px; line-height: 1; font-family: Averta; font-variant-ligatures: none; text-align: center; text-anchor: middle; fill: rgb(242, 232, 220);" d="m 391.48437,68.88 -6.264,51.12 h 11.30401 l 3.52799,-28.584 0.144,-0.072 6.84001,19.152 h 6.98399 l 10.80001,-18.504 0.144,0.072 -3.38401,27.936 h 11.304 l 6.264,-51.12 h -11.30399 l -15.40801,27.792 h -0.216 l -9.432,-27.792 z" transform="translate(0 244.41199999999998) translate(234.45625 96.56800000000001) scale(1.6666666666666667) translate(-385.22037 -68.88)"></path> 
   <path id="path24545" style="font-style: oblique; font-weight: 700; font-size: 72px; line-height: 1; font-family: Averta; font-variant-ligatures: none; text-align: center; text-anchor: middle; fill: rgb(242, 232, 220);" d="m 464.408,120.648 c 17.208,0 27.144,-14.04 27.144,-30.888 0,-13.608 -8.424,-21.528 -20.88,-21.528 -16.488,0 -27.072,14.472 -27.072,30.744 0,13.752 8.28,21.672 20.808,21.672 z m 0.864,-10.8 c -5.544,0 -9.648,-3.672 -9.648,-11.592 0,-9.936 5.904,-19.296 13.968,-19.296 5.76,0 9.936,3.528 9.936,11.448 0,10.728 -5.832,19.44 -14.256,19.44 z" transform="translate(0 244.41199999999998) translate(356.7556333333334 95.488) scale(1.6666666666666667) translate(-443.6 -68.232)"></path> 
   <path id="path24547" style="font-style: oblique; font-weight: 700; font-size: 72px; line-height: 1; font-family: Averta; font-variant-ligatures: none; text-align: center; text-anchor: middle; fill: rgb(242, 232, 220);" d="m 502.15625,68.88 -6.264,51.12 h 17.424 c 13.896,0 19.728,-6.336 19.728,-16.632 0,-5.472 -2.808,-9 -7.2,-10.728 v -0.144 c 5.112,-2.592 7.848,-8.136 7.848,-13.032 0,-7.128 -4.536,-10.584 -13.536,-10.584 z m 13.176,20.592 h -4.464 l 1.368,-10.44 h 5.04 c 3.168,0 4.752,1.08 4.752,3.672 0,4.032 -2.736,6.768 -6.696,6.768 z m -1.44,20.52 h -5.472 l 1.44,-11.592 h 6.048 c 3.744,0 5.472,1.512 5.472,4.176 0,4.32 -2.232,7.416 -7.488,7.416 z" transform="translate(0 244.41199999999998) translate(468.9093833333333 96.56800000000001) scale(1.6666666666666667) translate(-495.89225 -68.88)"></path> 
   <path id="path24549" style="font-style: oblique; font-weight: 700; font-size: 72px; line-height: 1; font-family: Averta; font-variant-ligatures: none; text-align: center; text-anchor: middle; fill: rgb(242, 232, 220);" d="M 544.985,68.88 538.721,120 h 11.664 l 6.264,-51.12 z" transform="translate(0 244.41199999999998) translate(565.2906333333335 96.56800000000001) scale(1.6666666666666667) translate(-538.721 -68.88)"></path> 
   <path id="path24551" style="font-style: oblique; font-weight: 700; font-size: 72px; line-height: 1; font-family: Averta; font-variant-ligatures: none; text-align: center; text-anchor: middle; fill: rgb(255, 253, 239);" d="m 582.25175,120.648 c 17.208,0 27.144,-14.04 27.144,-30.888 0,-13.608 -8.424,-21.528 -20.88,-21.528 -16.488,0 -27.072,14.472 -27.072,30.744 0,13.752 8.28,21.672 20.808,21.672 z m 0.864,-10.8 c -5.544,0 -9.648,-3.672 -9.648,-11.592 0,-9.936 5.904,-19.296 13.968,-19.296 5.76,0 9.936,3.528 9.936,11.448 0,10.728 -5.832,19.44 -14.256,19.44 z" transform="translate(0 244.41199999999998) translate(628.1618833333335 95.488) scale(1.6666666666666667) translate(-561.44375 -68.232)"></path> 
   <path id="path24553" style="font-style: oblique; font-weight: 700; font-size: 72px; line-height: 1; font-family: Averta; font-variant-ligatures: none; text-align: center; text-anchor: middle; fill: rgb(255, 253, 239);" d="m 643.27287,70.536 h -27.864 l -1.22399,10.08 h 15.48 l -17.56801,38.52 11.08801,2.016 19.22399,-43.344 z" transform="translate(0 244.41199999999998) translate(737.5837500000001 99.328) scale(1.6666666666666667) translate(-612.09687 -70.536)"></path> 
  </g> 
  <g id="tagline" style="font-style:normal;font-weight:500;font-size:32px;line-height:1;font-family:Raleway;font-variant-ligatures:none;text-align:center;text-anchor:middle"></g> 
 </g> 
</svg>