<svg xmlns:dc="http://purl.org/dc/elements/1.1/" xmlns:cc="http://creativecommons.org/ns#" xmlns:rdf="http://www.w3.org/1999/02/22-rdf-syntax-ns#" xmlns:svg="http://www.w3.org/2000/svg" xmlns="http://www.w3.org/2000/svg" id="svg70687" viewbox="0 0 1024 768" height="768px" width="1024px" version="1.1"> <metadata id="metadata70693"> 
  <rdf:rdf> 
   <cc:work rdf:about=""> 
    <dc:format>
     image/svg+xml
    </dc:format> 
    <dc:type rdf:resource="http://purl.org/dc/dcmitype/StillImage"></dc:type> 
   </cc:work> 
  </rdf:rdf> 
 </metadata> <defs id="defs70691"></defs> <g id="logo-group"> 
  <g id="title" style="font-style:normal;font-weight:400;font-size:72px;line-height:1;font-family:'Abril Fatface';font-variant-ligatures:none;text-align:center;text-anchor:middle" aria-label="Mutualityo7"> 
   <path id="path70695" style="font-style: normal; font-weight: 400; font-size: 72px; line-height: 1; font-family: &quot;Abril Fatface&quot;; font-variant-ligatures: none; text-align: center; text-anchor: middle; fill: rgb(255, 255, 255);" d="m 351.48725,69.6 h 19.224 v 1.368 h -3.96 v 47.664 h 3.96 V 120 h -21.96 v -1.368 h 3.96 v -45 h -0.288 l -10.8,46.368 h -9 l -12.672,-46.584 h -0.288 v 45.216 h 3.96 V 120 h -9.792 v -1.368 h 3.96 V 70.968 h -3.96 V 69.6 h 19.44 l 9.576,37.08 z" transform="translate(0 281.4574749811911) translate(252.0000000000001 64.8878406010696) scale(1.16218161783146) translate(-313.83125 -69.6)"></path> 
   <path id="path70697" style="font-style: normal; font-weight: 400; font-size: 72px; line-height: 1; font-family: &quot;Abril Fatface&quot;; font-variant-ligatures: none; text-align: center; text-anchor: middle; fill: rgb(255, 255, 255);" d="m 414.63687,120 h -16.416 l -0.792,-5.256 q -1.15199,2.88 -3.456,4.464 -2.23199,1.512 -6.69599,1.512 -11.16001,0 -11.16001,-12.024 V 87.024 h -4.032 v -1.296 h 17.424 v 24.696 q 0,4.32 0.576,5.688 0.648,1.368 2.448,1.368 1.872,0 3.312,-2.232 1.44,-2.232 1.44,-6.192 V 87.024 h -3.312 v -1.296 h 16.704 v 32.976 h 3.96 z" transform="translate(0 281.4574749811911) translate(325.5121944252965 83.63150573345538) scale(1.16218161783146) translate(-372.08487 -85.728)"></path> 
   <path id="path70699" style="font-style: normal; font-weight: 400; font-size: 72px; line-height: 1; font-family: &quot;Abril Fatface&quot;; font-variant-ligatures: none; text-align: center; text-anchor: middle; fill: rgb(255, 255, 255);" d="m 419.71062,109.704 v -22.68 h -3.95999 v -1.296 h 3.95999 V 76.44 l 13.392,-3.312 v 12.6 h 9.36 v 1.296 h -9.36 v 24.264 q 0,3.384 0.64801,4.968 0.71999,1.584 2.87999,1.584 2.16,0 3.744,-2.16 1.656,-2.16 2.16,-5.904 l 1.224,0.144 q -0.57599,4.968 -3.168,7.92 -2.592,2.88 -8.568,2.88 -5.976,0 -9.144,-2.376 -3.168,-2.376 -3.168,-8.64 z" transform="translate(0 281.4574749811911) translate(382.070646115094 68.98801734877901) scale(1.16218161783146) translate(-415.75063 -73.128)"></path> 
   <path id="path70701" style="font-style: normal; font-weight: 400; font-size: 72px; line-height: 1; font-family: &quot;Abril Fatface&quot;; font-variant-ligatures: none; text-align: center; text-anchor: middle; fill: rgb(255, 255, 255);" d="m 486.215,120 h -16.416 l -0.792,-5.256 q -1.152,2.88 -3.456,4.464 -2.232,1.512 -6.696,1.512 -11.16,0 -11.16,-12.024 V 87.024 h -4.032 v -1.296 h 17.424 v 24.696 q 0,4.32 0.576,5.688 0.648,1.368 2.448,1.368 1.872,0 3.312,-2.232 1.44,-2.232 1.44,-6.192 V 87.024 h -3.312 v -1.296 h 16.704 v 32.976 h 3.96 z" transform="translate(0 281.4574749811911) translate(420.32079752836165 83.63150573345538) scale(1.16218161783146) translate(-443.663 -85.728)"></path> 
   <path id="path70703" style="font-style: normal; font-weight: 400; font-size: 72px; line-height: 1; font-family: &quot;Abril Fatface&quot;; font-variant-ligatures: none; text-align: center; text-anchor: middle; fill: rgb(255, 255, 255);" d="m 504.96875,103.08 h 2.088 v -5.544 q 0,-6.84 -0.792,-9.144 -0.72,-2.376 -2.88,-2.376 -1.296,0 -2.376,0.72 -1.008,0.648 -1.008,1.872 0,1.152 0.432,2.376 h 1.8 q 0.576,1.512 0.576,3.672 0,2.088 -1.8,3.672 -1.8,1.512 -4.536,1.512 -6.192,0 -6.192,-5.976 0,-8.856 15.048,-8.856 8.568,0 11.808,2.952 3.312,2.88 3.312,10.656 v 14.616 q 0,3.744 2.088,3.744 2.448,0 2.88,-7.416 l 1.08,0.072 q -0.288,6.336 -2.376,8.712 -2.088,2.376 -6.84,2.376 -8.64,0 -9.936,-5.328 -0.936,2.736 -2.808,4.032 -1.872,1.296 -5.472,1.296 -10.656,0 -10.656,-8.712 0,-5.112 4.032,-6.984 4.104,-1.944 12.528,-1.944 z m -2.88,8.856 q 0,3.744 0.36,4.824 0.432,1.08 1.512,1.08 1.152,0 2.088,-1.8 1.008,-1.872 1.008,-5.112 v -6.696 h -0.504 q -4.464,0 -4.464,6.552 z" transform="translate(0 281.4574749811911) translate(478.1343937436009 82.79473496861675) scale(1.16218161783146) translate(-488.40875 -85.008)"></path> 
   <path id="path70705" style="font-style: normal; font-weight: 400; font-size: 72px; line-height: 1; font-family: &quot;Abril Fatface&quot;; font-variant-ligatures: none; text-align: center; text-anchor: middle; fill: rgb(255, 255, 255);" d="m 526.91638,66 h 17.63999 v 52.704 h 4.03201 V 120 h -21.384 v -1.296 h 3.95999 V 67.296 h -4.24799 z" transform="translate(0 281.4574749811911) translate(528.6981615650134 60.70398677687635) scale(1.16218161783146) translate(-526.91638 -66)"></path> 
   <path id="path70707" style="font-style: normal; font-weight: 400; font-size: 72px; line-height: 1; font-family: &quot;Abril Fatface&quot;; font-variant-ligatures: none; text-align: center; text-anchor: middle; fill: rgb(255, 255, 255);" d="m 560.56962,80.76 q -3.81599,0 -5.472,-1.944 -1.58399,-1.944 -1.58399,-4.824 0,-2.88 1.72799,-4.752 1.8,-1.872 5.4,-1.872 3.6,0 5.472,1.728 1.87201,1.656 1.87201,4.824 0,3.096 -1.80001,4.968 -1.8,1.872 -5.616,1.872 z m -10.87199,4.968 h 17.63999 v 32.976 h 4.03201 V 120 h -21.384 v -1.296 h 3.95999 v -31.68 h -4.24799 z" transform="translate(0 281.4574749811911) translate(560.9850196353937 62.29385123006978) scale(1.16218161783146) translate(-549.69763 -67.368)"></path> 
   <path id="path70709" style="font-style: normal; font-weight: 400; font-size: 72px; line-height: 1; font-family: &quot;Abril Fatface&quot;; font-variant-ligatures: none; text-align: center; text-anchor: middle; fill: rgb(255, 255, 255);" d="m 576.36688,109.704 v -22.68 h -3.96 v -1.296 h 3.96 V 76.44 l 13.39199,-3.312 v 12.6 h 9.36 v 1.296 h -9.36 v 24.264 q 0,3.384 0.64801,4.968 0.72,1.584 2.87999,1.584 2.16,0 3.74401,-2.16 1.65599,-2.16 2.15999,-5.904 l 1.22401,0.144 q -0.576,4.968 -3.168,7.92 -2.59201,2.88 -8.56801,2.88 -5.976,0 -9.14399,-2.376 -3.168,-2.376 -3.168,-8.64 z" transform="translate(0 281.4574749811911) translate(593.18820062929 68.98801734877901) scale(1.16218161783146) translate(-572.40688 -73.128)"></path> 
   <path id="path70711" style="font-style: normal; font-weight: 400; font-size: 72px; line-height: 1; font-family: &quot;Abril Fatface&quot;; font-variant-ligatures: none; text-align: center; text-anchor: middle; fill: rgb(255, 255, 255);" d="m 600.11,87.024 v -1.296 h 20.88 v 1.296 h -3.888 l 7.848,23.904 8.352,-23.904 h -4.824 v -1.296 h 10.152 v 1.296 h -3.6 l -13.464,38.808 q -2.376,6.768 -5.328,9.432 -2.952,2.736 -7.2,2.736 -4.248,0 -6.696,-1.944 -2.448,-1.944 -2.448,-4.968 0,-3.024 1.584,-4.608 1.584,-1.584 4.176,-1.584 5.976,0 5.976,4.968 0,1.08 -0.432,2.592 h -2.52 q -0.576,1.656 -0.144,2.736 0.432,1.08 1.944,1.08 2.952,0 5.256,-2.952 2.304,-2.88 4.392,-8.856 L 621.71,120 h -6.336 L 603.062,87.024 Z" transform="translate(0 281.4574749811911) translate(630.9441343095748 83.63150573345538) scale(1.16218161783146) translate(-599.894 -85.728)"></path> 
   <path id="path70713" style="font-style: normal; font-weight: 400; font-size: 72px; line-height: 1; font-family: &quot;Abril Fatface&quot;; font-variant-ligatures: none; text-align: center; text-anchor: middle; fill: rgb(214, 215, 217);" d="m 660.14787,105.816 v -6.12 q 0,-6.984 -0.792,-10.152 -0.72,-3.24 -3.456,-3.24 -1.584,0 -2.592,0.936 -0.93599,0.864 -1.36799,2.952 -0.64801,3.24 -0.64801,9.864 v 5.616 q 0,7.848 0.43201,9.432 0.504,1.584 1.00799,2.592 0.792,1.728 3.096,1.728 2.808,0 3.672,-3.24 0.648,-2.304 0.648,-10.368 z m -4.464,14.904 q -9,0 -13.608,-4.608 -4.60799,-4.608 -4.60799,-13.176 0,-8.64 4.89599,-13.248 4.968,-4.68 13.896,-4.68 8.928,0 13.32001,4.32 4.39199,4.248 4.39199,13.032 0,18.36 -18.288,18.36 z" transform="translate(0 281.4574749811911) translate(680.4227150453372 82.79473496861675) scale(1.16218161783146) translate(-637.46788 -85.008)"></path> 
   <path id="path70715" style="font-style: normal; font-weight: 400; font-size: 72px; line-height: 1; font-family: &quot;Abril Fatface&quot;; font-variant-ligatures: none; text-align: center; text-anchor: middle; fill: rgb(214, 215, 217);" d="m 692.18562,120.72 q -3.88799,0 -6.12,-2.088 -2.232,-2.16 -2.232,-5.256 0,-3.168 2.088,-6.912 2.16001,-3.816 9.288,-12.096 l 11.88,-13.752 h -18.43199 q -5.11201,0 -6.768,1.296 -1.58401,1.224 -2.52,5.976 h -1.15201 L 679.00963,69.6 h 32.25599 v 7.776 l -7.99199,13.968 q -5.32801,9.432 -6.84001,13.536 -1.44,4.032 -1.44,7.704 0,3.672 2.16001,6.768 l -0.504,0.864 q -2.016,0.504 -4.46401,0.504 z" transform="translate(0 281.4574749811911) translate(733.5922218939058 64.8878406010696) scale(1.16218161783146) translate(-678.21762 -69.6)"></path> 
  </g> 
  <g id="tagline" style="font-style:oblique;font-weight:normal;font-size:32px;line-height:1;font-family:'Droid Serif';font-variant-ligatures:none;text-align:center;text-anchor:middle"></g> 
 </g> 
</svg>