<svg xmlns:dc="http://purl.org/dc/elements/1.1/" xmlns:cc="http://creativecommons.org/ns#" xmlns:rdf="http://www.w3.org/1999/02/22-rdf-syntax-ns#" xmlns:svg="http://www.w3.org/2000/svg" xmlns="http://www.w3.org/2000/svg" id="svg510942" viewbox="0 0 1024 768" height="768px" width="1024px" version="1.1"> <metadata id="metadata510948"> 
  <rdf:rdf> 
   <cc:work rdf:about=""> 
    <dc:format>
     image/svg+xml
    </dc:format> 
    <dc:type rdf:resource="http://purl.org/dc/dcmitype/StillImage"></dc:type> 
   </cc:work> 
  </rdf:rdf> 
 </metadata> <defs id="defs510946"></defs> <g id="logo-group"> 
  <g id="title" style="font-style:normal;font-weight:300;font-size:72px;line-height:1;font-family:'Montserrat Light Alt1';font-variant-ligatures:none;text-align:center;text-anchor:middle" aria-label="Neuroneso7"> 
   <path id="path510950" style="font-style: normal; font-weight: 300; font-size: 72px; line-height: 1; font-family: &quot;Montserrat Light Alt1&quot;; font-variant-ligatures: none; text-align: center; text-anchor: middle; fill: rgb(255, 61, 122);" d="m 345.68337,69.6 h -3.672 v 43.776 L 307.73937,69.6 h -3.096 V 120 h 3.67201 V 76.224 L 342.65937,120 h 3.024 z" transform="translate(0 286.1407936260923) translate(252.00000000000006 66.50508050665624) scale(1.2371419613025325) translate(-304.64337 -69.6)"></path> 
   <path id="path510952" style="font-style: normal; font-weight: 300; font-size: 72px; line-height: 1; font-family: &quot;Montserrat Light Alt1&quot;; font-variant-ligatures: none; text-align: center; text-anchor: middle; fill: rgb(255, 61, 122);" d="m 384.308,115.752 c -2.088,0.864 -4.392,1.296 -6.768,1.296 -3.888,0 -7.128,-1.008 -9.864,-3.024 -2.736,-2.016 -4.608,-4.752 -5.472,-8.208 l 31.752,-6.192 c -0.216,-3.312 -1.008,-6.264 -2.592,-8.928 -1.584,-2.664 -3.672,-4.752 -6.264,-6.264 -2.592,-1.512 -5.544,-2.304 -8.784,-2.304 -3.528,0 -6.696,0.864 -9.432,2.448 -2.808,1.656 -4.968,3.888 -6.552,6.768 -1.584,2.88 -2.304,6.192 -2.304,9.864 0,3.744 0.792,6.984 2.448,9.864 1.656,2.88 3.96,5.184 6.912,6.768 2.952,1.656 6.264,2.448 10.08,2.448 2.88,0 5.544,-0.504 8.064,-1.512 2.376,-1.008 4.464,-2.52 6.12,-4.608 l -2.088,-2.376 c -1.44,1.8 -3.168,3.096 -5.256,3.96 z m -15.624,-28.44 c 2.232,-1.296 4.752,-2.016 7.632,-2.016 2.448,0 4.752,0.576 6.768,1.656 2.016,1.08 3.6,2.592 4.896,4.392 1.224,1.872 2.016,3.96 2.376,6.192 l -28.656,5.616 c -0.144,-0.936 -0.144,-1.656 -0.144,-2.232 0,-2.952 0.576,-5.688 1.872,-8.064 1.224,-2.376 2.952,-4.248 5.256,-5.544 z" transform="translate(0 286.1407936260923) translate(318.04436586161006 82.00399499785439) scale(1.2371419613025325) translate(-358.028 -82.128)"></path> 
   <path id="path510954" style="font-style: normal; font-weight: 300; font-size: 72px; line-height: 1; font-family: &quot;Montserrat Light Alt1&quot;; font-variant-ligatures: none; text-align: center; text-anchor: middle; fill: rgb(255, 61, 122);" d="m 438.06725,82.416 h -3.6 v 20.016 c 0,4.464 -1.296,8.064 -3.744,10.656 -2.448,2.664 -5.832,3.96 -10.008,3.96 -3.96,0 -6.984,-1.08 -9.144,-3.312 -2.16,-2.16 -3.24,-5.4 -3.24,-9.648 V 82.416 h -3.6 v 21.96 c 0,5.184 1.368,9.072 4.176,11.808 2.736,2.736 6.624,4.104 11.52,4.104 3.312,0 6.192,-0.72 8.64,-2.16 2.448,-1.44 4.248,-3.528 5.544,-6.192 V 120 h 3.456 z" transform="translate(0 286.1407936260923) translate(375.8229161658125 82.3602918827095) scale(1.2371419613025325) translate(-404.73125 -82.416)"></path> 
   <path id="path510956" style="font-style: normal; font-weight: 300; font-size: 72px; line-height: 1; font-family: &quot;Montserrat Light Alt1&quot;; font-variant-ligatures: none; text-align: center; text-anchor: middle; fill: rgb(255, 61, 122);" d="m 462.25362,84.36 c -2.44799,1.44 -4.248,3.528 -5.39999,6.264 v -8.208 h -3.45601 V 120 h 3.6 v -19.584 c 0,-4.608 1.15201,-8.28 3.528,-10.872 2.30401,-2.592 5.616,-3.96 9.79201,-3.96 l 0.86399,0.072 v -3.528 c -3.528,0 -6.48,0.792 -8.928,2.232 z" transform="translate(0 286.1407936260923) translate(436.03012459708725 82.00399499785439) scale(1.2371419613025325) translate(-453.39762 -82.128)"></path> 
   <path id="path510958" style="font-style: normal; font-weight: 300; font-size: 72px; line-height: 1; font-family: &quot;Montserrat Light Alt1&quot;; font-variant-ligatures: none; text-align: center; text-anchor: middle; fill: rgb(255, 61, 122);" d="m 485.8595,117.84 c 2.88,1.656 6.048,2.448 9.648,2.448 3.528,0 6.696,-0.792 9.576,-2.448 2.88,-1.584 5.112,-3.888 6.768,-6.768 1.584,-2.88 2.448,-6.192 2.448,-9.864 0,-3.6 -0.864,-6.912 -2.448,-9.792 -1.656,-2.88 -3.888,-5.184 -6.768,-6.84 -2.88,-1.584 -6.048,-2.448 -9.576,-2.448 -3.6,0 -6.768,0.864 -9.648,2.448 -2.88,1.656 -5.112,3.96 -6.696,6.84 -1.656,2.88 -2.448,6.192 -2.448,9.792 0,3.672 0.792,6.984 2.448,9.864 1.584,2.88 3.816,5.184 6.696,6.768 z m 17.352,-2.808 c -2.304,1.368 -4.824,2.016 -7.704,2.016 -2.88,0 -5.472,-0.648 -7.776,-2.016 -2.304,-1.296 -4.104,-3.168 -5.4,-5.616 -1.296,-2.376 -1.944,-5.112 -1.944,-8.208 0,-3.024 0.648,-5.76 1.944,-8.208 1.296,-2.376 3.096,-4.248 5.4,-5.616 2.304,-1.296 4.896,-2.016 7.776,-2.016 2.88,0 5.4,0.72 7.704,2.016 2.304,1.368 4.104,3.24 5.4,5.616 1.296,2.448 2.016,5.184 2.016,8.208 0,3.096 -0.72,5.832 -2.016,8.208 -1.296,2.448 -3.096,4.32 -5.4,5.616 z" transform="translate(0 286.1407936260923) translate(464.87765239370435 82.00399499785439) scale(1.2371419613025325) translate(-476.7155 -82.128)"></path> 
   <path id="path510960" style="font-style: normal; font-weight: 300; font-size: 72px; line-height: 1; font-family: &quot;Montserrat Light Alt1&quot;; font-variant-ligatures: none; text-align: center; text-anchor: middle; fill: rgb(255, 61, 122);" d="m 554.91763,86.232 c -2.736,-2.736 -6.48,-4.104 -11.16001,-4.104 -3.528,0 -6.55199,0.792 -9.144,2.232 -2.592,1.512 -4.46399,3.6 -5.76,6.192 v -8.136 h -3.456 V 120 h 3.6 V 99.984 c 0,-4.464 1.22401,-7.992 3.816,-10.656 2.52,-2.592 5.976,-3.96 10.44001,-3.96 3.81599,0 6.76799,1.152 8.928,3.312 2.16,2.232 3.23999,5.472 3.23999,9.648 V 120 h 3.6 V 98.04 c 0,-5.112 -1.36799,-9.072 -4.10399,-11.808 z" transform="translate(0 286.1407936260923) translate(525.1043458108694 82.00399499785439) scale(1.2371419613025325) translate(-525.39762 -82.128)"></path> 
   <path id="path510962" style="font-style: normal; font-weight: 300; font-size: 72px; line-height: 1; font-family: &quot;Montserrat Light Alt1&quot;; font-variant-ligatures: none; text-align: center; text-anchor: middle; fill: rgb(255, 61, 122);" d="m 596.22987,115.752 c -2.08799,0.864 -4.392,1.296 -6.768,1.296 -3.88799,0 -7.12799,-1.008 -9.86399,-3.024 -2.736,-2.016 -4.60801,-4.752 -5.47201,-8.208 l 31.75201,-6.192 c -0.21601,-3.312 -1.00801,-6.264 -2.592,-8.928 -1.58401,-2.664 -3.67201,-4.752 -6.264,-6.264 -2.592,-1.512 -5.544,-2.304 -8.784,-2.304 -3.52801,0 -6.69601,0.864 -9.432,2.448 -2.808,1.656 -4.968,3.888 -6.55201,6.768 -1.58399,2.88 -2.30399,6.192 -2.30399,9.864 0,3.744 0.792,6.984 2.44799,9.864 1.656,2.88 3.96001,5.184 6.91201,6.768 2.952,1.656 6.264,2.448 10.07999,2.448 2.88,0 5.544,-0.504 8.06401,-1.512 2.376,-1.008 4.46399,-2.52 6.12,-4.608 l -2.08801,-2.376 c -1.43999,1.8 -3.168,3.096 -5.256,3.96 z m -15.624,-28.44 c 2.23201,-1.296 4.75201,-2.016 7.63201,-2.016 2.44799,0 4.75199,0.576 6.768,1.656 2.016,1.08 3.59999,2.592 4.896,4.392 1.22399,1.872 2.01599,3.96 2.37599,6.192 l -28.65599,5.616 c -0.144,-0.936 -0.144,-1.656 -0.144,-2.232 0,-2.952 0.57599,-5.688 1.87199,-8.064 1.22401,-2.376 2.952,-4.248 5.256,-5.544 z" transform="translate(0 286.1407936260923) translate(580.2218161277298 82.00399499785439) scale(1.2371419613025325) translate(-569.94988 -82.128)"></path> 
   <path id="path510964" style="font-style: normal; font-weight: 300; font-size: 72px; line-height: 1; font-family: &quot;Montserrat Light Alt1&quot;; font-variant-ligatures: none; text-align: center; text-anchor: middle; fill: rgb(255, 61, 122);" d="m 617.94912,118.92 c 2.736,0.936 5.616,1.368 8.64,1.368 4.68001,0 8.35201,-0.936 10.94401,-2.808 2.592,-1.872 3.88799,-4.32 3.88799,-7.488 0,-2.304 -0.64799,-4.176 -1.872,-5.544 -1.296,-1.296 -2.808,-2.304 -4.60799,-2.88 -1.80001,-0.576 -4.17601,-1.152 -7.056,-1.728 -2.664,-0.504 -4.75201,-1.008 -6.19201,-1.44 -1.44,-0.432 -2.66399,-1.152 -3.672,-2.088 -1.008,-0.936 -1.51199,-2.232 -1.51199,-3.96 0,-2.088 0.86399,-3.816 2.664,-5.112 1.72799,-1.296 4.39199,-1.944 7.91999,-1.944 2.016,0 4.03201,0.288 6.048,0.864 1.944,0.576 3.67201,1.44 5.256,2.52 l 1.65601,-2.88 c -1.51201,-1.08 -3.45601,-1.944 -5.76,-2.664 -2.37601,-0.648 -4.75201,-1.008 -7.12801,-1.008 -4.60799,0 -8.13599,1.008 -10.58399,2.952 -2.44801,1.944 -3.672,4.392 -3.672,7.344 0,2.448 0.648,4.392 1.94399,5.76 1.29601,1.44 2.808,2.448 4.68001,3.024 1.79999,0.648 4.17599,1.224 7.19999,1.728 2.52,0.504 4.53601,0.936 5.976,1.368 1.44001,0.432 2.592,1.152 3.6,2.016 1.00801,0.936 1.51201,2.16 1.51201,3.744 0,2.232 -0.936,3.96 -2.73601,5.184 -1.8,1.296 -4.608,1.872 -8.352,1.872 -2.664,0 -5.184,-0.432 -7.63199,-1.296 -2.448,-0.864 -4.39201,-1.944 -5.904,-3.24 l -1.65601,2.88 c 1.51201,1.44 3.672,2.592 6.408,3.456 z" transform="translate(0 286.1407936260923) translate(631.6760843543341 82.00399499785439) scale(1.2371419613025325) translate(-611.54112 -82.128)"></path> 
   <path id="path510966" style="font-style: normal; font-weight: 300; font-size: 72px; line-height: 1; font-family: &quot;Montserrat Light Alt1&quot;; font-variant-ligatures: none; text-align: center; text-anchor: middle; fill: rgb(255, 102, 98);" d="m 656.57825,117.84 c 2.88,1.656 6.048,2.448 9.648,2.448 3.528,0 6.696,-0.792 9.576,-2.448 2.88,-1.584 5.112,-3.888 6.768,-6.768 1.584,-2.88 2.448,-6.192 2.448,-9.864 0,-3.6 -0.864,-6.912 -2.448,-9.792 -1.656,-2.88 -3.888,-5.184 -6.768,-6.84 -2.88,-1.584 -6.048,-2.448 -9.576,-2.448 -3.6,0 -6.768,0.864 -9.648,2.448 -2.88,1.656 -5.112,3.96 -6.696,6.84 -1.656,2.88 -2.448,6.192 -2.448,9.792 0,3.672 0.792,6.984 2.448,9.864 1.584,2.88 3.816,5.184 6.696,6.768 z m 17.352,-2.808 c -2.304,1.368 -4.824,2.016 -7.704,2.016 -2.88,0 -5.472,-0.648 -7.776,-2.016 -2.304,-1.296 -4.104,-3.168 -5.4,-5.616 -1.296,-2.376 -1.944,-5.112 -1.944,-8.208 0,-3.024 0.648,-5.76 1.944,-8.208 1.296,-2.376 3.096,-4.248 5.4,-5.616 2.304,-1.296 4.896,-2.016 7.776,-2.016 2.88,0 5.4,0.72 7.704,2.016 2.304,1.368 4.104,3.24 5.4,5.616 1.296,2.448 2.016,5.184 2.016,8.208 0,3.096 -0.72,5.832 -2.016,8.208 -1.296,2.448 -3.096,4.32 -5.4,5.616 z" transform="translate(0 286.1407936260923) translate(676.0809815998208 82.00399499785439) scale(1.2371419613025325) translate(-647.43425 -82.128)"></path> 
   <path id="path510968" style="font-style: normal; font-weight: 300; font-size: 72px; line-height: 1; font-family: &quot;Montserrat Light Alt1&quot;; font-variant-ligatures: none; text-align: center; text-anchor: middle; fill: rgb(255, 102, 98);" d="m 724.967,69.6 h -36.144 v 12.96 h 3.6 v -9.648 h 28.296 L 699.263,120 h 4.032 l 21.672,-47.808 z" transform="translate(0 286.1407936260923) translate(727.2847409506809 66.50508050665624) scale(1.2371419613025325) translate(-688.823 -69.6)"></path> 
  </g> 
  <g id="tagline" style="font-style:normal;font-weight:400;font-size:32px;line-height:1;font-family:Montserrat;font-variant-ligatures:none;text-align:center;text-anchor:middle"></g> 
 </g> 
</svg>