<svg xmlns:dc="http://purl.org/dc/elements/1.1/" xmlns:cc="http://creativecommons.org/ns#" xmlns:rdf="http://www.w3.org/1999/02/22-rdf-syntax-ns#" xmlns:svg="http://www.w3.org/2000/svg" xmlns="http://www.w3.org/2000/svg" id="svg356727" viewbox="0 0 1024 768" height="768px" width="1024px" version="1.1"> <metadata id="metadata356733"> 
  <rdf:rdf> 
   <cc:work rdf:about=""> 
    <dc:format>
     image/svg+xml
    </dc:format> 
    <dc:type rdf:resource="http://purl.org/dc/dcmitype/StillImage"></dc:type> 
   </cc:work> 
  </rdf:rdf> 
 </metadata> <defs id="defs356731"></defs> <g id="logo-group"> 
  <g id="title" style="font-style:oblique;font-weight:700;font-size:72px;line-height:1;font-family:'Uni Neue';font-variant-ligatures:none;text-align:center;text-anchor:middle" aria-label="Newerao7"> 
   <path id="path356735" style="font-style: oblique; font-weight: 700; font-size: 72px; line-height: 1; font-family: &quot;Uni Neue&quot;; font-variant-ligatures: none; text-align: center; text-anchor: middle; fill: rgb(51, 51, 51);" d="m 367.36606,120 c 0.72,0 1.152,-0.432 1.296,-1.152 l 1.872,-10.8 c 1.224,-6.624 2.088,-14.472 2.736,-21.312 l 0.288,-0.144 c 0.864,4.176 2.952,11.88 4.968,17.136 l 5.688,15.264 c 0.288,0.72 0.792,1.008 1.44,1.008 h 9.432 c 0.792,0 1.224,-0.432 1.368,-1.152 l 8.64,-48.96 c 0.144,-0.792 -0.288,-1.368 -1.152,-1.368 h -8.784 c -0.72,0 -1.152,0.432 -1.296,1.152 l -2.16,12.384 c -1.08,6.264 -2.16,13.536 -2.88,19.944 l -0.36,0.072 c -0.864,-3.312 -2.808,-10.224 -4.464,-15.48 l -5.688,-17.064 c -0.144,-0.72 -0.72,-1.008 -1.44,-1.008 h -9.504 c -0.72,0 -1.224,0.432 -1.296,1.152 l -8.64,48.96 c -0.144,0.792 0.288,1.368 1.08,1.368 z" transform="translate(0 246.24340140776206) translate(252 94.52020496094228) scale(1.6497402942344177) translate(-357.40262 -68.52)"></path> 
   <path id="path356737" style="font-style: oblique; font-weight: 700; font-size: 72px; line-height: 1; font-family: &quot;Uni Neue&quot;; font-variant-ligatures: none; text-align: center; text-anchor: middle; fill: rgb(51, 51, 51);" d="m 408.09894,95.376 -1.872,10.44 c -1.656,9.36 4.896,15.12 14.328,15.12 6.264,0 11.16,-1.728 15.048,-4.392 0.648,-0.36 0.72,-1.008 0.432,-1.728 l -2.952,-5.544 c -0.36,-0.792 -0.936,-0.864 -1.656,-0.36 -2.88,1.728 -6.192,2.88 -9.36,2.88 -3.96,0 -5.688,-1.872 -4.968,-5.688 l 0.216,-1.008 h 20.016 c 0.72,0 1.152,-0.36 1.296,-1.08 l 1.224,-6.984 c 1.944,-10.584 -4.608,-15.48 -13.824,-15.48 -8.712,0 -16.2,4.392 -17.928,13.824 z m 21.024,2.52 h -10.512 l 0.36,-1.944 c 0.648,-3.384 3.024,-5.256 6.12,-5.256 3.672,0 4.896,2.52 4.392,5.4 z" transform="translate(0 246.24340140776206) translate(332.12455361557124 116.01962047540526) scale(1.6497402942344177) translate(-405.9706 -81.552)"></path> 
   <path id="path356739" style="font-style: oblique; font-weight: 700; font-size: 72px; line-height: 1; font-family: &quot;Uni Neue&quot;; font-variant-ligatures: none; text-align: center; text-anchor: middle; fill: rgb(51, 51, 51);" d="m 458.26606,120 c 0.648,0 1.152,-0.36 1.368,-1.008 l 5.112,-12.168 c 1.008,-2.52 2.952,-7.992 3.744,-10.584 h 0.216 c 0.072,2.52 0.144,7.272 0.216,10.584 l 0.504,11.952 c 0.072,0.792 0.504,1.224 1.296,1.224 h 9 c 0.72,0 1.224,-0.36 1.512,-0.936 l 15.408,-35.136 c 0.432,-0.864 0,-1.368 -0.936,-1.368 h -8.28 c -0.648,0 -1.152,0.288 -1.44,0.936 l -4.392,11.952 c -1.224,3.384 -3.312,9 -4.32,12.24 h -0.288 c 0.072,-3.6 -0.072,-8.28 -0.216,-11.952 l -0.576,-11.52 c 0,-0.792 -0.432,-1.152 -1.224,-1.152 h -8.568 c -0.648,0 -1.152,0.288 -1.44,0.936 l -4.608,11.664 c -1.296,3.312 -3.024,8.352 -4.176,12.024 h -0.288 c 0,-3.24 -0.072,-8.928 -0.144,-12.096 l -0.288,-11.808 c 0,-0.864 -0.504,-1.224 -1.296,-1.224 h -8.28 c -0.792,0 -1.296,0.432 -1.224,1.296 l 3.168,34.992 c 0.072,0.792 0.576,1.152 1.296,1.152 z" transform="translate(0 246.24340140776206) translate(395.93756403034683 117.68255869199352) scale(1.6497402942344177) translate(-444.65124 -82.56)"></path> 
   <path id="path356741" style="font-style: oblique; font-weight: 700; font-size: 72px; line-height: 1; font-family: &quot;Uni Neue&quot;; font-variant-ligatures: none; text-align: center; text-anchor: middle; fill: rgb(51, 51, 51);" d="m 497.67706,95.376 -1.872,10.44 c -1.656,9.36 4.896,15.12 14.328,15.12 6.264,0 11.16,-1.728 15.048,-4.392 0.648,-0.36 0.72,-1.008 0.432,-1.728 l -2.952,-5.544 c -0.36,-0.792 -0.936,-0.864 -1.656,-0.36 -2.88,1.728 -6.192,2.88 -9.36,2.88 -3.96,0 -5.688,-1.872 -4.968,-5.688 l 0.216,-1.008 h 20.016 c 0.72,0 1.152,-0.36 1.296,-1.08 l 1.224,-6.984 c 1.944,-10.584 -4.608,-15.48 -13.824,-15.48 -8.712,0 -16.2,4.392 -17.928,13.824 z m 21.024,2.52 h -10.512 l 0.36,-1.944 c 0.648,-3.384 3.024,-5.256 6.12,-5.256 3.672,0 4.896,2.52 4.392,5.4 z" transform="translate(0 246.24340140776206) translate(479.9051876613373 116.01962047540526) scale(1.6497402942344177) translate(-495.54872 -81.552)"></path> 
   <path id="path356743" style="font-style: oblique; font-weight: 700; font-size: 72px; line-height: 1; font-family: &quot;Uni Neue&quot;; font-variant-ligatures: none; text-align: center; text-anchor: middle; fill: rgb(51, 51, 51);" d="m 541.49131,120 c 0.72,0 1.152,-0.432 1.296,-1.152 l 4.68,-26.568 c 1.224,-0.504 2.808,-0.864 4.68,-0.864 1.512,0 2.952,0.144 4.176,0.36 0.792,0.072 1.368,-0.288 1.44,-1.08 l 1.296,-7.056 c 0.144,-0.72 -0.216,-1.296 -1.008,-1.44 -2.088,-0.432 -4.032,-0.648 -5.976,-0.648 -4.536,0 -9.144,1.08 -13.32,3.024 -0.576,0.288 -0.936,0.72 -1.08,1.368 l -5.688,32.688 c -0.144,0.792 0.288,1.368 1.152,1.368 z" transform="translate(0 246.24340140776206) translate(539.974376436795 116.01962047540526) scale(1.6497402942344177) translate(-531.96002 -81.552)"></path> 
   <path id="path356745" style="font-style: oblique; font-weight: 700; font-size: 72px; line-height: 1; font-family: &quot;Uni Neue&quot;; font-variant-ligatures: none; text-align: center; text-anchor: middle; fill: rgb(51, 51, 51);" d="m 585.59919,118.416 c 0.648,-0.216 0.936,-0.72 1.08,-1.368 l 3.24,-18.216 c 1.944,-10.8 -3.096,-17.28 -12.888,-17.28 -5.832,0 -11.232,1.296 -14.688,3.384 -0.432,0.288 -0.432,0.792 -0.216,1.44 l 2.232,5.904 c 0.288,0.792 0.864,0.936 1.656,0.576 2.16,-1.008 5.4,-1.656 8.568,-1.656 4.536,0 5.544,1.944 4.896,5.472 l -0.144,1.152 c -1.8,-0.36 -3.96,-0.576 -6.12,-0.576 -9.216,0 -15.12,3.096 -16.344,10.08 -1.44,7.848 3.672,13.608 13.752,13.608 5.544,0 10.872,-1.08 14.976,-2.52 z m -18,-10.512 c 0.36,-2.16 2.232,-3.312 5.76,-3.312 1.584,0 3.24,0.216 4.608,0.504 l -1.008,6.264 c -1.296,0.288 -3.312,0.576 -4.968,0.576 -3.168,0 -4.896,-1.296 -4.392,-4.032 z" transform="translate(0 246.24340140776206) translate(580.6762080644464 116.01962047540526) scale(1.6497402942344177) translate(-556.63168 -81.552)"></path> 
   <path id="path356747" style="font-style: oblique; font-weight: 700; font-size: 72px; line-height: 1; font-family: &quot;Uni Neue&quot;; font-variant-ligatures: none; text-align: center; text-anchor: middle; fill: rgb(190, 174, 129);" d="m 627.49306,106.68 1.656,-9.072 c 1.512,-8.784 -4.248,-16.056 -14.112,-16.056 -10.008,0 -17.064,5.4 -18.648,14.112 l -1.512,8.928 c -1.656,9.144 4.176,16.344 13.824,16.344 10.584,0 17.136,-5.184 18.792,-14.256 z m -21.816,-1.008 1.656,-9.288 c 0.576,-3.24 3.024,-5.4 6.48,-5.4 3.456,0 4.968,2.664 4.392,5.904 l -1.656,9.216 c -0.576,3.384 -2.88,5.4 -6.624,5.4 -3.384,0 -4.896,-2.304 -4.248,-5.832 z" transform="translate(0 246.24340140776206) translate(643.3094726974122 116.01962047540526) scale(1.6497402942344177) translate(-594.59721 -81.552)"></path> 
   <path id="path356749" style="font-style: oblique; font-weight: 700; font-size: 72px; line-height: 1; font-family: &quot;Uni Neue&quot;; font-variant-ligatures: none; text-align: center; text-anchor: middle; fill: rgb(190, 174, 129);" d="m 644.71231,120 c 0.72,0 1.152,-0.288 1.512,-0.864 l 24.84,-41.688 c 0.288,-0.504 0.432,-0.936 0.504,-1.44 l 1.008,-6.12 c 0.144,-0.792 -0.288,-1.368 -1.08,-1.368 h -31.896 c -0.792,0 -1.224,0.36 -1.296,1.152 l -1.368,7.776 c -0.144,0.792 0.288,1.368 1.152,1.368 h 19.872 l -23.688,39.672 c -0.504,0.864 -0.072,1.512 0.864,1.512 z" transform="translate(0 246.24340140776206) translate(708.4119036287583 94.52020496094228) scale(1.6497402942344177) translate(-634.05944 -68.52)"></path> 
  </g> 
  <g id="tagline" style="font-style:oblique;font-weight:400;font-size:32px;line-height:1;font-family:Lato;font-variant-ligatures:none;text-align:center;text-anchor:middle"></g> 
 </g> 
</svg>