<svg xmlns:dc="http://purl.org/dc/elements/1.1/" xmlns:cc="http://creativecommons.org/ns#" xmlns:rdf="http://www.w3.org/1999/02/22-rdf-syntax-ns#" xmlns:svg="http://www.w3.org/2000/svg" xmlns="http://www.w3.org/2000/svg" id="svg80938" viewbox="0 0 1024 768" height="768px" width="1024px" version="1.1"> <metadata id="metadata80944"> 
  <rdf:rdf> 
   <cc:work rdf:about=""> 
    <dc:format>
     image/svg+xml
    </dc:format> 
    <dc:type rdf:resource="http://purl.org/dc/dcmitype/StillImage"></dc:type> 
   </cc:work> 
  </rdf:rdf> 
 </metadata> <defs id="defs80942"></defs> <g id="logo-group"> 
  <g id="title" style="font-style:normal;font-weight:700;font-size:72px;line-height:1;font-family:Phenomena;font-variant-ligatures:none;text-align:center;text-anchor:middle" aria-label="NEWEARTHO7"> 
   <path id="path80946" style="font-style: normal; font-weight: 700; font-size: 72px; line-height: 1; font-family: Phenomena; font-variant-ligatures: none; text-align: center; text-anchor: middle; fill: rgb(255, 255, 255);" d="m 361.15212,120 h 4.60801 c 0.57599,0 0.93599,-0.36 0.93599,-1.008 V 81.768 c 0,-4.104 2.23201,-6.84 5.832,-6.84 3.6,0 5.832,2.736 5.832,6.84 v 37.224 c 0,0.648 0.432,1.008 1.00801,1.008 h 4.536 c 0.64799,0 1.00799,-0.36 1.00799,-1.008 V 82.056 c 0,-7.776 -4.896,-13.248 -12.384,-13.248 -7.488,0 -12.312,5.472 -12.312,13.248 v 36.936 c 0,0.648 0.36,1.008 0.936,1.008 z" transform="translate(0 241.4584505830838) translate(252.0000000000001 98.30317928564527) scale(1.7019994664231666) translate(-360.21612 -68.808)"></path> 
   <path id="path80948" style="font-style: normal; font-weight: 700; font-size: 72px; line-height: 1; font-family: Phenomena; font-variant-ligatures: none; text-align: center; text-anchor: middle; fill: rgb(255, 255, 255);" d="m 404.2205,120.216 h 7.56 c 0.576,0 0.936,-0.36 0.936,-0.936 v -4.104 c 0,-0.648 -0.36,-1.008 -0.936,-1.008 h -7.056 c -3.744,0 -6.264,-2.88 -6.264,-6.984 v -9.72 h 11.52 c 0.648,0 1.008,-0.36 1.008,-1.008 v -3.888 c 0,-0.648 -0.36,-1.008 -1.008,-1.008 h -11.52 v -9.144 c 0,-4.104 2.52,-6.984 6.264,-6.984 h 7.056 c 0.576,0 0.936,-0.36 0.936,-1.008 V 70.32 c 0,-0.576 -0.36,-0.936 -0.936,-0.936 h -7.56 c -7.272,0 -12.312,5.472 -12.312,12.888 v 25.056 c 0,7.416 5.04,12.888 12.312,12.888 z" transform="translate(0 241.4584505830838) translate(305.94041384968034 99.283530978305) scale(1.7019994664231666) translate(-391.9085 -69.384)"></path> 
   <path id="path80950" style="font-style: normal; font-weight: 700; font-size: 72px; line-height: 1; font-family: Phenomena; font-variant-ligatures: none; text-align: center; text-anchor: middle; fill: rgb(255, 255, 255);" d="m 458.0315,69.6 h -4.536 c -0.576,0 -0.936,0.36 -0.936,0.936 v 37.152 c 0,4.464 -1.8,6.984 -5.256,6.984 -3.096,0 -5.328,-2.52 -5.328,-6.984 V 70.536 c 0,-0.576 -0.36,-0.936 -0.936,-0.936 h -4.536 c -0.576,0 -0.936,0.36 -0.936,0.936 v 37.152 c 0,4.464 -2.088,6.984 -5.256,6.984 -3.456,0 -5.328,-2.52 -5.328,-6.984 V 70.536 c 0,-0.576 -0.36,-0.936 -0.936,-0.936 h -4.536 c -0.576,0 -0.936,0.36 -0.936,0.936 V 107.4 c 0,8.136 4.464,13.392 11.736,13.392 3.96,0 6.48,-1.872 8.424,-4.536 2.016,2.664 4.464,4.536 8.568,4.536 7.272,0 11.736,-5.256 11.736,-13.392 V 70.536 c 0,-0.576 -0.36,-0.936 -1.008,-0.936 z" transform="translate(0 241.4584505830838) translate(351.32763362078686 99.65116286305236) scale(1.7019994664231666) translate(-418.5755 -69.6)"></path> 
   <path id="path80952" style="font-style: normal; font-weight: 700; font-size: 72px; line-height: 1; font-family: Phenomena; font-variant-ligatures: none; text-align: center; text-anchor: middle; fill: rgb(255, 255, 255);" d="m 478.32988,120.216 h 7.56 c 0.57599,0 0.93599,-0.36 0.93599,-0.936 v -4.104 c 0,-0.648 -0.36,-1.008 -0.93599,-1.008 h -7.05601 c -3.744,0 -6.26399,-2.88 -6.26399,-6.984 v -9.72 h 11.51999 c 0.648,0 1.008,-0.36 1.008,-1.008 v -3.888 c 0,-0.648 -0.36,-1.008 -1.008,-1.008 h -11.51999 v -9.144 c 0,-4.104 2.51999,-6.984 6.26399,-6.984 h 7.05601 c 0.57599,0 0.93599,-0.36 0.93599,-1.008 V 70.32 c 0,-0.576 -0.36,-0.936 -0.93599,-0.936 h -7.56 c -7.272,0 -12.31201,5.472 -12.31201,12.888 v 25.056 c 0,7.416 5.04001,12.888 12.31201,12.888 z" transform="translate(0 241.4584505830838) translate(432.0745220466374 99.283530978305) scale(1.7019994664231666) translate(-466.01787 -69.384)"></path> 
   <path id="path80954" style="font-style: normal; font-weight: 700; font-size: 72px; line-height: 1; font-family: Phenomena; font-variant-ligatures: none; text-align: center; text-anchor: middle; fill: rgb(255, 255, 255);" d="m 493.7615,120 h 4.608 c 0.576,0 0.936,-0.36 0.936,-1.008 v -15.984 h 11.664 v 15.984 c 0,0.648 0.432,1.008 1.008,1.008 h 4.536 c 0.648,0 1.008,-0.36 1.008,-1.008 V 82.128 c 0,-7.92 -4.968,-13.248 -12.384,-13.248 -7.416,0 -12.312,5.328 -12.312,13.248 v 36.864 c 0,0.648 0.36,1.008 0.936,1.008 z m 5.544,-22.968 V 81.84 c 0,-4.32 2.16,-6.84 5.832,-6.84 3.744,0 5.832,2.52 5.832,6.84 v 15.192 z" transform="translate(0 241.4584505830838) translate(477.701094002707 98.42572324722771) scale(1.7019994664231666) translate(-492.8255 -68.88)"></path> 
   <path id="path80956" style="font-style: normal; font-weight: 700; font-size: 72px; line-height: 1; font-family: Phenomena; font-variant-ligatures: none; text-align: center; text-anchor: middle; fill: rgb(255, 255, 255);" d="m 526.24587,120 h 4.60801 c 0.576,0 0.936,-0.36 0.936,-1.008 v -18 h 5.832 l 6.83999,18.144 c 0.144,0.576 0.432,0.864 1.008,0.864 h 4.896 c 0.648,0 1.152,-0.432 0.936,-1.08 l -7.70399,-19.44 c 3.74399,-2.016 6.408,-6.048 6.408,-11.592 v -5.76 c 0,-7.848 -5.04001,-13.32 -12.456,-13.32 -7.27201,0 -12.24,5.472 -12.24,13.32 v 36.864 c 0,0.648 0.36,1.008 0.93599,1.008 z m 5.54401,-24.984 V 81.84 c 0,-4.176 2.376,-6.912 5.832,-6.912 3.45599,0 5.832,2.736 5.832,6.912 v 6.192 c 0,4.248 -2.37601,6.984 -6.12,6.984 z" transform="translate(0 241.4584505830838) translate(532.9894914297945 98.30317928564527) scale(1.7019994664231666) translate(-525.30988 -68.808)"></path> 
   <path id="path80958" style="font-style: normal; font-weight: 700; font-size: 72px; line-height: 1; font-family: Phenomena; font-variant-ligatures: none; text-align: center; text-anchor: middle; fill: rgb(255, 255, 255);" d="m 577.31975,69.6 h -22.104 c -0.576,0 -0.936,0.36 -0.936,0.936 v 4.104 c 0,0.648 0.36,1.008 0.936,1.008 h 7.848 v 43.344 c 0,0.648 0.36,1.008 0.936,1.008 h 4.536 c 0.648,0 1.008,-0.36 1.008,-1.008 V 75.648 h 7.776 c 0.648,0 1.008,-0.36 1.008,-1.008 v -4.104 c 0,-0.576 -0.36,-0.936 -1.008,-0.936 z" transform="translate(0 241.4584505830838) translate(582.2961947121431 99.65116286305236) scale(1.7019994664231666) translate(-554.27975 -69.6)"></path> 
   <path id="path80960" style="font-style: normal; font-weight: 700; font-size: 72px; line-height: 1; font-family: Phenomena; font-variant-ligatures: none; text-align: center; text-anchor: middle; fill: rgb(255, 255, 255);" d="m 600.8255,70.536 v 20.952 h -11.088 V 70.536 c 0,-0.576 -0.36,-0.936 -0.936,-0.936 h -4.536 c -0.648,0 -1.008,0.36 -1.008,0.936 v 48.456 c 0,0.648 0.36,1.008 1.008,1.008 h 4.536 c 0.576,0 0.936,-0.36 0.936,-1.008 V 97.464 h 11.088 v 21.528 c 0,0.648 0.36,1.008 1.008,1.008 h 4.536 c 0.576,0 0.936,-0.36 0.936,-1.008 V 70.536 c 0,-0.576 -0.36,-0.936 -0.936,-0.936 h -4.536 c -0.648,0 -1.008,0.36 -1.008,0.936 z" transform="translate(0 241.4584505830838) translate(631.6163097502871 99.65116286305236) scale(1.7019994664231666) translate(-583.2575 -69.6)"></path> 
   <path id="path80962" style="font-style: normal; font-weight: 700; font-size: 72px; line-height: 1; font-family: Phenomena; font-variant-ligatures: none; text-align: center; text-anchor: middle; fill: rgb(255, 255, 255);" d="m 627.4025,120.72 c 7.488,0 12.672,-5.472 12.672,-13.032 V 81.912 c 0,-7.56 -5.184,-13.032 -12.672,-13.032 -7.488,0 -12.744,5.472 -12.744,13.536 v 24.768 c 0,8.064 5.256,13.536 12.744,13.536 z m 0,-6.048 c -3.672,0 -6.192,-2.736 -6.192,-7.2 V 82.128 c 0,-4.464 2.52,-7.2 6.192,-7.2 3.672,0 6.12,2.736 6.12,6.696 v 26.352 c 0,3.96 -2.448,6.696 -6.12,6.696 z" transform="translate(0 241.4584505830838) translate(685.0607949954409 98.42572324722771) scale(1.7019994664231666) translate(-614.6585 -68.88)"></path> 
   <path id="path80964" style="font-style: normal; font-weight: 700; font-size: 72px; line-height: 1; font-family: Phenomena; font-variant-ligatures: none; text-align: center; text-anchor: middle; fill: rgb(255, 255, 255);" d="m 644.13913,70.536 v 4.104 c 0,0.648 0.36,1.008 0.93599,1.008 h 13.75201 l -10.44001,43.272 c -0.144,0.648 0.144,1.08 0.864,1.08 h 4.536 c 0.576,0 0.936,-0.288 1.08,-0.864 L 665.37913,75 c 0.28799,-1.224 0.36,-2.088 0.36,-3.384 0,-1.368 -0.792,-2.016 -2.16001,-2.016 h -18.504 c -0.57599,0 -0.93599,0.36 -0.93599,0.936 z" transform="translate(0 241.4584505830838) translate(735.2368115252597 99.65116286305236) scale(1.7019994664231666) translate(-644.13913 -69.6)"></path> 
  </g> 
  <g id="tagline" style="font-style:oblique;font-weight:normal;font-size:32px;line-height:1;font-family:'Fira Sans Condensed';font-variant-ligatures:none;text-align:center;text-anchor:middle"></g> 
 </g> 
</svg>