<svg xmlns:dc="http://purl.org/dc/elements/1.1/" xmlns:cc="http://creativecommons.org/ns#" xmlns:rdf="http://www.w3.org/1999/02/22-rdf-syntax-ns#" xmlns:svg="http://www.w3.org/2000/svg" xmlns="http://www.w3.org/2000/svg" id="svg52900" viewbox="0 0 1024 768" height="768px" width="1024px" version="1.1"> <metadata id="metadata52906"> 
  <rdf:rdf> 
   <cc:work rdf:about=""> 
    <dc:format>
     image/svg+xml
    </dc:format> 
    <dc:type rdf:resource="http://purl.org/dc/dcmitype/StillImage"></dc:type> 
   </cc:work> 
  </rdf:rdf> 
 </metadata> <defs id="defs52904"></defs> <g id="logo-group"> 
  <g id="title" style="font-style:normal;font-weight:300;font-size:72px;line-height:1;font-family:'Montserrat Light Alt1';font-variant-ligatures:none;text-align:center;text-anchor:middle" aria-label="Newhouseo7"> 
   <path id="path52908" style="font-style: normal; font-weight: 300; font-size: 72px; line-height: 1; font-family: &quot;Montserrat Light Alt1&quot;; font-variant-ligatures: none; text-align: center; text-anchor: middle; fill: rgb(155, 155, 155);" d="m 328.73806,69.6 h -3.672 v 43.776 L 290.79406,69.6 h -3.096 V 120 h 3.672 V 76.224 l 34.344,43.776 h 3.024 z" transform="translate(0 293.611852573978) translate(252 63.10445916657173) scale(1.1448341834277544) translate(-287.69806 -69.6)"></path> 
   <path id="path52910" style="font-style: normal; font-weight: 300; font-size: 72px; line-height: 1; font-family: &quot;Montserrat Light Alt1&quot;; font-variant-ligatures: none; text-align: center; text-anchor: middle; fill: rgb(155, 155, 155);" d="m 367.36269,115.752 c -2.088,0.864 -4.392,1.296 -6.768,1.296 -3.888,0 -7.128,-1.008 -9.864,-3.024 -2.736,-2.016 -4.608,-4.752 -5.472,-8.208 l 31.752,-6.192 c -0.216,-3.312 -1.008,-6.264 -2.592,-8.928 -1.584,-2.664 -3.672,-4.752 -6.264,-6.264 -2.592,-1.512 -5.544,-2.304 -8.784,-2.304 -3.528,0 -6.696,0.864 -9.432,2.448 -2.808,1.656 -4.968,3.888 -6.552,6.768 -1.584,2.88 -2.304,6.192 -2.304,9.864 0,3.744 0.792,6.984 2.448,9.864 1.656,2.88 3.96,5.184 6.912,6.768 2.952,1.656 6.264,2.448 10.08,2.448 2.88,0 5.544,-0.504 8.064,-1.512 2.376,-1.008 4.464,-2.52 6.12,-4.608 l -2.088,-2.376 c -1.44,1.8 -3.168,3.096 -5.256,3.96 z m -15.624,-28.44 c 2.232,-1.296 4.752,-2.016 7.632,-2.016 2.448,0 4.752,0.576 6.768,1.656 2.016,1.08 3.6,2.592 4.896,4.392 1.224,1.872 2.016,3.96 2.376,6.192 l -28.656,5.616 c -0.144,-0.936 -0.144,-1.656 -0.144,-2.232 0,-2.952 0.576,-5.688 1.872,-8.064 1.224,-2.376 2.952,-4.248 5.256,-5.544 z" transform="translate(0 293.611852573978) translate(313.1165492936428 77.44694181655464) scale(1.1448341834277544) translate(-341.08269 -82.128)"></path> 
   <path id="path52912" style="font-style: normal; font-weight: 300; font-size: 72px; line-height: 1; font-family: &quot;Montserrat Light Alt1&quot;; font-variant-ligatures: none; text-align: center; text-anchor: middle; fill: rgb(155, 155, 155);" d="m 441.22681,82.416 h -3.312 l -12.672,33.48 -12.744,-33.48 h -3.096 l -12.816,33.552 -12.528,-33.552 h -3.456 l 14.256,37.584 h 3.312 l 12.744,-32.616 12.672,32.616 h 3.384 z" transform="translate(0 293.611852573978) translate(358.3605336028096 77.77665406138183) scale(1.1448341834277544) translate(-380.60281 -82.416)"></path> 
   <path id="path52914" style="font-style: normal; font-weight: 300; font-size: 72px; line-height: 1; font-family: &quot;Montserrat Light Alt1&quot;; font-variant-ligatures: none; text-align: center; text-anchor: middle; fill: rgb(155, 155, 155);" d="m 479.05044,86.232 c -2.736,-2.736 -6.48,-4.104 -11.16,-4.104 -3.456,0 -6.48,0.72 -9,2.16 -2.592,1.44 -4.464,3.384 -5.76,5.976 V 66.576 h -3.6 V 120 h 3.6 V 99.984 c 0,-4.464 1.224,-7.992 3.816,-10.656 2.52,-2.592 5.976,-3.96 10.44,-3.96 3.816,0 6.768,1.152 8.928,3.312 2.16,2.232 3.24,5.472 3.24,9.648 V 120 h 3.6 V 98.04 c 0,-5.112 -1.368,-9.072 -4.104,-11.808 z" transform="translate(0 293.611852573978) translate(437.27124060947 59.642480595886184) scale(1.1448341834277544) translate(-449.53044 -66.576)"></path> 
   <path id="path52916" style="font-style: normal; font-weight: 300; font-size: 72px; line-height: 1; font-family: &quot;Montserrat Light Alt1&quot;; font-variant-ligatures: none; text-align: center; text-anchor: middle; fill: rgb(155, 155, 155);" d="m 503.22669,117.84 c 2.88,1.656 6.048,2.448 9.648,2.448 3.528,0 6.696,-0.792 9.576,-2.448 2.88,-1.584 5.112,-3.888 6.768,-6.768 1.584,-2.88 2.448,-6.192 2.448,-9.864 0,-3.6 -0.864,-6.912 -2.448,-9.792 -1.656,-2.88 -3.888,-5.184 -6.768,-6.84 -2.88,-1.584 -6.048,-2.448 -9.576,-2.448 -3.6,0 -6.768,0.864 -9.648,2.448 -2.88,1.656 -5.112,3.96 -6.696,6.84 -1.656,2.88 -2.448,6.192 -2.448,9.792 0,3.672 0.792,6.984 2.448,9.864 1.584,2.88 3.816,5.184 6.696,6.768 z m 17.352,-2.808 c -2.304,1.368 -4.824,2.016 -7.704,2.016 -2.88,0 -5.472,-0.648 -7.776,-2.016 -2.304,-1.296 -4.104,-3.168 -5.4,-5.616 -1.296,-2.376 -1.944,-5.112 -1.944,-8.208 0,-3.024 0.648,-5.76 1.944,-8.208 1.296,-2.376 3.096,-4.248 5.4,-5.616 2.304,-1.296 4.896,-2.016 7.776,-2.016 2.88,0 5.4,0.72 7.704,2.016 2.304,1.368 4.104,3.24 5.4,5.616 1.296,2.448 2.016,5.184 2.016,8.208 0,3.096 -0.72,5.832 -2.016,8.208 -1.296,2.448 -3.096,4.32 -5.4,5.616 z" transform="translate(0 293.611852573978) translate(488.27617935808917 77.44694181655464) scale(1.1448341834277544) translate(-494.08269 -82.128)"></path> 
   <path id="path52918" style="font-style: normal; font-weight: 300; font-size: 72px; line-height: 1; font-family: &quot;Montserrat Light Alt1&quot;; font-variant-ligatures: none; text-align: center; text-anchor: middle; fill: rgb(155, 155, 155);" d="m 575.66881,82.416 h -3.6 v 20.016 c 0,4.464 -1.296,8.064 -3.744,10.656 -2.448,2.664 -5.832,3.96 -10.008,3.96 -3.96,0 -6.984,-1.08 -9.144,-3.312 -2.16,-2.16 -3.24,-5.4 -3.24,-9.648 V 82.416 h -3.6 v 21.96 c 0,5.184 1.368,9.072 4.176,11.808 2.736,2.736 6.624,4.104 11.52,4.104 3.312,0 6.192,-0.72 8.64,-2.16 2.448,-1.44 4.248,-3.528 5.544,-6.192 V 120 h 3.456 z" transform="translate(0 293.611852573978) translate(543.5145660885803 77.77665406138183) scale(1.1448341834277544) translate(-542.33281 -82.416)"></path> 
   <path id="path52920" style="font-style: normal; font-weight: 300; font-size: 72px; line-height: 1; font-family: &quot;Montserrat Light Alt1&quot;; font-variant-ligatures: none; text-align: center; text-anchor: middle; fill: rgb(155, 155, 155);" d="m 591.86319,118.92 c 2.736,0.936 5.616,1.368 8.64,1.368 4.68,0 8.352,-0.936 10.944,-2.808 2.592,-1.872 3.888,-4.32 3.888,-7.488 0,-2.304 -0.648,-4.176 -1.872,-5.544 -1.296,-1.296 -2.808,-2.304 -4.608,-2.88 -1.8,-0.576 -4.176,-1.152 -7.056,-1.728 -2.664,-0.504 -4.752,-1.008 -6.192,-1.44 -1.44,-0.432 -2.664,-1.152 -3.672,-2.088 -1.008,-0.936 -1.512,-2.232 -1.512,-3.96 0,-2.088 0.864,-3.816 2.664,-5.112 1.728,-1.296 4.392,-1.944 7.92,-1.944 2.016,0 4.032,0.288 6.048,0.864 1.944,0.576 3.672,1.44 5.256,2.52 l 1.656,-2.88 c -1.512,-1.08 -3.456,-1.944 -5.76,-2.664 -2.376,-0.648 -4.752,-1.008 -7.128,-1.008 -4.608,0 -8.136,1.008 -10.584,2.952 -2.448,1.944 -3.672,4.392 -3.672,7.344 0,2.448 0.648,4.392 1.944,5.76 1.296,1.44 2.808,2.448 4.68,3.024 1.8,0.648 4.176,1.224 7.2,1.728 2.52,0.504 4.536,0.936 5.976,1.368 1.44,0.432 2.592,1.152 3.6,2.016 1.008,0.936 1.512,2.16 1.512,3.744 0,2.232 -0.936,3.96 -2.736,5.184 -1.8,1.296 -4.608,1.872 -8.352,1.872 -2.664,0 -5.184,-0.432 -7.632,-1.296 -2.448,-0.864 -4.392,-1.944 -5.904,-3.24 l -1.656,2.88 c 1.512,1.44 3.672,2.592 6.408,3.456 z" transform="translate(0 293.611852573978) translate(592.8825407833416 77.44694181655464) scale(1.1448341834277544) translate(-585.45519 -82.128)"></path> 
   <path id="path52922" style="font-style: normal; font-weight: 300; font-size: 72px; line-height: 1; font-family: &quot;Montserrat Light Alt1&quot;; font-variant-ligatures: none; text-align: center; text-anchor: middle; fill: rgb(155, 155, 155);" d="m 647.62831,115.752 c -2.088,0.864 -4.392,1.296 -6.768,1.296 -3.888,0 -7.128,-1.008 -9.864,-3.024 -2.736,-2.016 -4.608,-4.752 -5.472,-8.208 l 31.752,-6.192 c -0.216,-3.312 -1.008,-6.264 -2.592,-8.928 -1.584,-2.664 -3.672,-4.752 -6.264,-6.264 -2.592,-1.512 -5.544,-2.304 -8.784,-2.304 -3.528,0 -6.696,0.864 -9.432,2.448 -2.808,1.656 -4.968,3.888 -6.552,6.768 -1.584,2.88 -2.304,6.192 -2.304,9.864 0,3.744 0.792,6.984 2.448,9.864 1.656,2.88 3.96,5.184 6.912,6.768 2.952,1.656 6.264,2.448 10.08,2.448 2.88,0 5.544,-0.504 8.064,-1.512 2.376,-1.008 4.464,-2.52 6.12,-4.608 l -2.088,-2.376 c -1.44,1.8 -3.168,3.096 -5.256,3.96 z m -15.624,-28.44 c 2.232,-1.296 4.752,-2.016 7.632,-2.016 2.448,0 4.752,0.576 6.768,1.656 2.016,1.08 3.6,2.592 4.896,4.392 1.224,1.872 2.016,3.96 2.376,6.192 l -28.656,5.616 c -0.144,-0.936 -0.144,-1.656 -0.144,-2.232 0,-2.952 0.576,-5.688 1.872,-8.064 1.224,-2.376 2.952,-4.248 5.256,-5.544 z" transform="translate(0 293.611852573978) translate(633.9742115092159 77.44694181655464) scale(1.1448341834277544) translate(-621.34831 -82.128)"></path> 
   <path id="path52924" style="font-style: normal; font-weight: 300; font-size: 72px; line-height: 1; font-family: &quot;Montserrat Light Alt1&quot;; font-variant-ligatures: none; text-align: center; text-anchor: middle; fill: rgb(255, 207, 11);" d="m 673.52356,117.84 c 2.88,1.656 6.048,2.448 9.648,2.448 3.528,0 6.696,-0.792 9.576,-2.448 2.88,-1.584 5.112,-3.888 6.768,-6.768 1.584,-2.88 2.448,-6.192 2.448,-9.864 0,-3.6 -0.864,-6.912 -2.448,-9.792 -1.656,-2.88 -3.888,-5.184 -6.768,-6.84 -2.88,-1.584 -6.048,-2.448 -9.576,-2.448 -3.6,0 -6.768,0.864 -9.648,2.448 -2.88,1.656 -5.112,3.96 -6.696,6.84 -1.656,2.88 -2.448,6.192 -2.448,9.792 0,3.672 0.792,6.984 2.448,9.864 1.584,2.88 3.816,5.184 6.696,6.768 z m 17.352,-2.808 c -2.304,1.368 -4.824,2.016 -7.704,2.016 -2.88,0 -5.472,-0.648 -7.776,-2.016 -2.304,-1.296 -4.104,-3.168 -5.4,-5.616 -1.296,-2.376 -1.944,-5.112 -1.944,-8.208 0,-3.024 0.648,-5.76 1.944,-8.208 1.296,-2.376 3.096,-4.248 5.4,-5.616 2.304,-1.296 4.896,-2.016 7.776,-2.016 2.88,0 5.4,0.72 7.704,2.016 2.304,1.368 4.104,3.24 5.4,5.616 1.296,2.448 2.016,5.184 2.016,8.208 0,3.096 -0.72,5.832 -2.016,8.208 -1.296,2.448 -3.096,4.32 -5.4,5.616 z" transform="translate(0 293.611852573978) translate(683.2378574648415 77.44694181655464) scale(1.1448341834277544) translate(-664.37956 -82.128)"></path> 
   <path id="path52926" style="font-style: normal; font-weight: 300; font-size: 72px; line-height: 1; font-family: &quot;Montserrat Light Alt1&quot;; font-variant-ligatures: none; text-align: center; text-anchor: middle; fill: rgb(255, 207, 11);" d="m 741.91231,69.6 h -36.144 v 12.96 h 3.6 v -9.648 h 28.296 L 716.20831,120 h 4.032 l 21.672,-47.808 z" transform="translate(0 293.611852573978) translate(730.6211132741871 63.10445916657173) scale(1.1448341834277544) translate(-705.76831 -69.6)"></path> 
  </g> 
  <g id="tagline" style="font-style:normal;font-weight:400;font-size:32px;line-height:1;font-family:Montserrat;font-variant-ligatures:none;text-align:center;text-anchor:middle"></g> 
 </g> 
</svg>