<svg xmlns:dc="http://purl.org/dc/elements/1.1/" xmlns:cc="http://creativecommons.org/ns#" xmlns:rdf="http://www.w3.org/1999/02/22-rdf-syntax-ns#" xmlns:svg="http://www.w3.org/2000/svg" xmlns="http://www.w3.org/2000/svg" id="svg33478" viewbox="0 0 1024 768" height="768px" width="1024px" version="1.1"> <metadata id="metadata33484"> 
  <rdf:rdf> 
   <cc:work rdf:about=""> 
    <dc:format>
     image/svg+xml
    </dc:format> 
    <dc:type rdf:resource="http://purl.org/dc/dcmitype/StillImage"></dc:type> 
   </cc:work> 
  </rdf:rdf> 
 </metadata> <defs id="defs33482"></defs> <g id="logo-group"> 
  <g id="title" style="font-style:normal;font-weight:200;font-size:72px;line-height:1;font-family:Montserrat;font-variant-ligatures:none;text-align:center;text-anchor:middle" aria-label="NEWLEAFO7"> 
   <path id="path33486" style="font-style: normal; font-weight: 200; font-size: 72px; line-height: 1; font-family: Montserrat; font-variant-ligatures: none; text-align: center; text-anchor: middle; fill: rgb(255, 239, 216);" d="m 336.82513,69.672 h 1.43999 V 120 h -2.16 l -35.496,-48.888 V 120 h -1.44 V 69.672 h 2.16 l 35.49601,48.888 z" transform="translate(0 289.5438521574516) translate(251.99999999999994 64.28130359162482) scale(1.2008454413770928) translate(-299.16912 -69.672)"></path> 
   <path id="path33488" style="font-style: normal; font-weight: 200; font-size: 72px; line-height: 1; font-family: Montserrat; font-variant-ligatures: none; text-align: center; text-anchor: middle; fill: rgb(255, 239, 216);" d="m 356.68475,69.672 h 31.464 v 1.44 h -30.024 V 93.36 h 26.712 v 1.44 h -26.712 v 23.76 h 31.032 V 120 h -32.472 z" transform="translate(0 289.5438521574516) translate(321.0673820934315 64.28130359162482) scale(1.2008454413770928) translate(-356.68475 -69.672)"></path> 
   <path id="path33490" style="font-style: normal; font-weight: 200; font-size: 72px; line-height: 1; font-family: Montserrat; font-variant-ligatures: none; text-align: center; text-anchor: middle; fill: rgb(255, 239, 216);" d="m 462.563,69.672 h 1.656 L 447.155,120 h -1.512 L 429.443,71.688 413.171,120 h -1.512 L 394.595,69.672 h 1.656 l 16.2,48.672 16.128,-48.672 h 1.656 l 16.2,48.672 z" transform="translate(0 289.5438521574516) translate(366.59173298739745 64.28130359162482) scale(1.2008454413770928) translate(-394.595 -69.672)"></path> 
   <path id="path33492" style="font-style: normal; font-weight: 200; font-size: 72px; line-height: 1; font-family: Montserrat; font-variant-ligatures: none; text-align: center; text-anchor: middle; fill: rgb(255, 239, 216);" d="m 474.10662,69.672 h 1.44 v 48.888 h 22.536 V 120 h -23.976 z" transform="translate(0 289.5438521574516) translate(462.0728994009051 64.28130359162482) scale(1.2008454413770928) translate(-474.10662 -69.672)"></path> 
   <path id="path33494" style="font-style: normal; font-weight: 200; font-size: 72px; line-height: 1; font-family: Montserrat; font-variant-ligatures: none; text-align: center; text-anchor: middle; fill: rgb(255, 239, 216);" d="m 509.4035,69.672 h 31.464 v 1.44 h -30.024 V 93.36 h 26.712 v 1.44 h -26.712 v 23.76 h 31.032 V 120 h -32.472 z" transform="translate(0 289.5438521574516) translate(504.4589968437394 64.28130359162482) scale(1.2008454413770928) translate(-509.4035 -69.672)"></path> 
   <path id="path33496" style="font-style: normal; font-weight: 200; font-size: 72px; line-height: 1; font-family: Montserrat; font-variant-ligatures: none; text-align: center; text-anchor: middle; fill: rgb(255, 239, 216);" d="m 593.60975,120 -7.056,-15.336 h -30.528 l -6.984,15.336 h -1.728 l 23.04,-50.328 h 1.584 l 23.328,50.328 z m -36.936,-16.776 h 29.16 l -14.688,-31.896 z" transform="translate(0 289.5438521574516) translate(549.9833477377055 64.28130359162482) scale(1.2008454413770928) translate(-547.31375 -69.672)"></path> 
   <path id="path33498" style="font-style: normal; font-weight: 200; font-size: 72px; line-height: 1; font-family: Montserrat; font-variant-ligatures: none; text-align: center; text-anchor: middle; fill: rgb(255, 239, 216);" d="m 605.16912,69.672 h 29.304 v 1.44 h -27.864 v 24.192 h 24.552 v 1.44 h -24.552 V 120 h -1.44 z" transform="translate(0 289.5438521574516) translate(619.4587050613904 64.28130359162482) scale(1.2008454413770928) translate(-605.16912 -69.672)"></path> 
   <path id="path33500" style="font-style: normal; font-weight: 200; font-size: 72px; line-height: 1; font-family: Montserrat; font-variant-ligatures: none; text-align: center; text-anchor: middle; fill: rgb(255, 239, 216);" d="m 664.6355,69.384 q 6.984,0 12.888,3.456 5.976,3.384 9.432,9.216 3.528,5.832 3.528,12.672 0,6.84 -3.528,12.744 -3.456,5.832 -9.432,9.288 -5.904,3.456 -12.888,3.456 -6.984,0 -12.96,-3.456 -5.904,-3.456 -9.432,-9.288 -3.456,-5.904 -3.456,-12.744 0,-6.84 3.456,-12.672 3.528,-5.832 9.432,-9.216 5.976,-3.456 12.96,-3.456 z m 0,1.44 q -6.552,0 -12.168,3.24 -5.616,3.24 -8.928,8.784 -3.312,5.472 -3.312,11.88 0,6.48 3.312,12.024 3.312,5.544 8.928,8.784 5.616,3.24 12.168,3.24 6.552,0 12.168,-3.24 5.616,-3.24 8.928,-8.784 3.312,-5.544 3.312,-12.024 0,-6.408 -3.312,-11.88 -3.312,-5.544 -8.928,-8.784 -5.616,-3.24 -12.168,-3.24 z" transform="translate(0 289.5438521574516) translate(659.8291834308733 63.93546010450821) scale(1.2008454413770928) translate(-638.7875 -69.384)"></path> 
   <path id="path33502" style="font-style: normal; font-weight: 200; font-size: 72px; line-height: 1; font-family: Montserrat; font-variant-ligatures: none; text-align: center; text-anchor: middle; fill: rgb(255, 239, 216);" d="m 696.70137,69.672 h 35.496 v 1.8 L 707.57338,120 h -1.58401 l 24.91201,-48.888 h -32.76 v 8.064 h -1.44001 z" transform="translate(0 289.5438521574516) translate(729.3747902128788 64.28130359162482) scale(1.2008454413770928) translate(-696.70137 -69.672)"></path> 
  </g> 
  <g id="tagline" style="font-style:normal;font-weight:400;font-size:32px;line-height:1;font-family:Montserrat;font-variant-ligatures:none;text-align:center;text-anchor:middle"></g> 
 </g> 
</svg>