<svg xmlns:dc="http://purl.org/dc/elements/1.1/" xmlns:cc="http://creativecommons.org/ns#" xmlns:rdf="http://www.w3.org/1999/02/22-rdf-syntax-ns#" xmlns:svg="http://www.w3.org/2000/svg" xmlns="http://www.w3.org/2000/svg" id="svg29133" viewbox="0 0 1024 768" height="768px" width="1024px" version="1.1"> <metadata id="metadata29139"> 
  <rdf:rdf> 
   <cc:work rdf:about=""> 
    <dc:format>
     image/svg+xml
    </dc:format> 
    <dc:type rdf:resource="http://purl.org/dc/dcmitype/StillImage"></dc:type> 
   </cc:work> 
  </rdf:rdf> 
 </metadata> <defs id="defs29137"></defs> <g id="logo-group"> 
  <g id="title" style="font-style:normal;font-weight:200;font-size:72px;line-height:1;font-family:Montserrat;font-variant-ligatures:none;text-align:center;text-anchor:middle" aria-label="Newvisiono7"> 
   <path id="path29141" style="font-style: normal; font-weight: 200; font-size: 72px; line-height: 1; font-family: Montserrat; font-variant-ligatures: none; text-align: center; text-anchor: middle; fill: rgb(244, 244, 244);" d="m 344.06731,69.672 h 1.44 V 120 h -2.16 l -35.496,-48.888 V 120 h -1.44 V 69.672 h 2.16 l 35.496,48.888 z" transform="translate(0 285.8475080972633) translate(251.99999999999994 66.88867316048203) scale(1.242402588708262) translate(-306.41131 -69.672)"></path> 
   <path id="path29143" style="font-style: normal; font-weight: 200; font-size: 72px; line-height: 1; font-family: Montserrat; font-variant-ligatures: none; text-align: center; text-anchor: middle; fill: rgb(244, 244, 244);" d="m 376.38294,118.56 q 4.032,0 7.416,-1.368 3.456,-1.44 5.76,-4.032 l 1.008,1.008 q -2.592,2.808 -6.264,4.32 -3.672,1.512 -7.92,1.512 -5.112,0 -9.216,-2.376 -4.032,-2.448 -6.408,-6.696 -2.304,-4.248 -2.304,-9.576 0,-5.328 2.304,-9.576 2.376,-4.248 6.408,-6.624 4.104,-2.376 9.216,-2.376 5.112,0 9,2.376 3.96,2.376 6.12,6.624 2.16,4.248 2.16,9.576 h -33.768 q 0,4.968 2.088,8.928 2.16,3.888 5.904,6.12 3.744,2.16 8.496,2.16 z m 0,-34.344 q -4.536,0 -8.208,2.016 -3.6,1.944 -5.76,5.544 -2.16,3.528 -2.448,8.136 h 32.256 q -0.504,-7.056 -4.752,-11.376 -4.248,-4.32 -11.088,-4.32 z" transform="translate(0 285.8475080972633) translate(316.6591406377749 83.16911668291507) scale(1.242402588708262) translate(-358.45494 -82.776)"></path> 
   <path id="path29145" style="font-style: normal; font-weight: 200; font-size: 72px; line-height: 1; font-family: Montserrat; font-variant-ligatures: none; text-align: center; text-anchor: middle; fill: rgb(244, 244, 244);" d="m 396.91531,82.776 h 1.728 l 13.32,35.568 13.176,-35.568 h 1.728 l 13.32,35.568 13.248,-35.568 h 1.656 L 440.90731,120 h -1.584 l -13.248,-35.208 -13.392,35.208 h -1.584 z" transform="translate(0 285.8475080972633) translate(364.4424038884524 83.16911668291507) scale(1.242402588708262) translate(-396.91531 -82.776)"></path> 
   <path id="path29147" style="font-style: normal; font-weight: 200; font-size: 72px; line-height: 1; font-family: Montserrat; font-variant-ligatures: none; text-align: center; text-anchor: middle; fill: rgb(244, 244, 244);" d="m 455.83719,82.776 h 1.656 l 14.4,35.568 14.328,-35.568 h 1.728 L 472.68519,120 h -1.584 z" transform="translate(0 285.8475080972633) translate(437.64710013201005 83.16911668291507) scale(1.242402588708262) translate(-455.83719 -82.776)"></path> 
   <path id="path29149" style="font-style: normal; font-weight: 200; font-size: 72px; line-height: 1; font-family: Montserrat; font-variant-ligatures: none; text-align: center; text-anchor: middle; fill: rgb(244, 244, 244);" d="m 495.80281,82.776 h 1.44 V 120 h -1.44 z m 0.72,-12.6 q 0.72,0 1.296,0.576 0.576,0.504 0.576,1.296 0,0.72 -0.576,1.296 -0.576,0.576 -1.296,0.576 -0.792,0 -1.368,-0.576 -0.504,-0.576 -0.504,-1.296 0,-0.792 0.504,-1.296 0.576,-0.576 1.368,-0.576 z" transform="translate(0 285.8475080972633) translate(485.86924209714874 67.514844065191) scale(1.242402588708262) translate(-494.65081 -70.176)"></path> 
   <path id="path29151" style="font-style: normal; font-weight: 200; font-size: 72px; line-height: 1; font-family: Montserrat; font-variant-ligatures: none; text-align: center; text-anchor: middle; fill: rgb(244, 244, 244);" d="m 530.37969,86.664 q -3.816,-2.448 -9.144,-2.448 -4.608,0 -7.56,1.872 -2.88,1.872 -2.88,5.472 0,2.52 1.368,4.104 1.44,1.584 3.456,2.448 2.088,0.864 5.76,2.016 3.888,1.152 6.192,2.232 2.376,1.008 3.96,2.952 1.656,1.944 1.656,5.04 0,4.752 -3.672,7.2 -3.6,2.448 -8.856,2.448 -3.888,0 -7.416,-1.368 -3.456,-1.368 -5.904,-3.816 l 0.936,-1.08 q 2.376,2.304 5.544,3.6 3.168,1.224 6.84,1.224 4.752,0 7.92,-2.088 3.168,-2.088 3.168,-6.048 0,-2.52 -1.44,-4.104 -1.44,-1.656 -3.6,-2.592 -2.088,-0.936 -5.688,-2.016 -3.816,-1.224 -6.192,-2.232 -2.304,-1.08 -3.888,-2.952 -1.584,-1.872 -1.584,-4.824 0,-4.392 3.312,-6.624 3.384,-2.304 8.496,-2.304 5.328,0 9.936,2.664 z" transform="translate(0 285.8475080972633) translate(501.63393945695725 83.16911668291507) scale(1.242402588708262) translate(-507.33969 -82.776)"></path> 
   <path id="path29153" style="font-style: normal; font-weight: 200; font-size: 72px; line-height: 1; font-family: Montserrat; font-variant-ligatures: none; text-align: center; text-anchor: middle; fill: rgb(244, 244, 244);" d="m 543.89656,82.776 h 1.44 V 120 h -1.44 z m 0.72,-12.6 q 0.72,0 1.296,0.576 0.576,0.504 0.576,1.296 0,0.72 -0.576,1.296 -0.576,0.576 -1.296,0.576 -0.792,0 -1.368,-0.576 -0.504,-0.576 -0.504,-1.296 0,-0.792 0.504,-1.296 0.576,-0.576 1.368,-0.576 z" transform="translate(0 285.8475080972633) translate(545.6210415978367 67.514844065191) scale(1.242402588708262) translate(-542.74456 -70.176)"></path> 
   <path id="path29155" style="font-style: normal; font-weight: 200; font-size: 72px; line-height: 1; font-family: Montserrat; font-variant-ligatures: none; text-align: center; text-anchor: middle; fill: rgb(244, 244, 244);" d="m 575.08944,82.776 q 5.112,0 9.216,2.376 4.176,2.376 6.48,6.624 2.376,4.248 2.376,9.576 0,5.328 -2.376,9.576 -2.304,4.248 -6.48,6.696 -4.104,2.376 -9.216,2.376 -5.112,0 -9.288,-2.376 -4.104,-2.448 -6.48,-6.696 -2.304,-4.248 -2.304,-9.576 0,-5.328 2.304,-9.576 2.376,-4.248 6.48,-6.624 4.176,-2.376 9.288,-2.376 z m 0,1.44 q -4.752,0 -8.568,2.232 -3.816,2.16 -5.976,6.048 -2.088,3.888 -2.088,8.856 0,4.968 2.088,8.928 2.16,3.888 5.976,6.12 3.816,2.16 8.568,2.16 4.752,0 8.568,-2.16 3.816,-2.232 5.904,-6.12 2.16,-3.96 2.16,-8.928 0,-4.968 -2.16,-8.856 -2.088,-3.888 -5.904,-6.048 -3.816,-2.232 -8.568,-2.232 z" transform="translate(0 285.8475080972633) translate(563.3537046581589 83.16911668291507) scale(1.242402588708262) translate(-557.01744 -82.776)"></path> 
   <path id="path29157" style="font-style: normal; font-weight: 200; font-size: 72px; line-height: 1; font-family: Montserrat; font-variant-ligatures: none; text-align: center; text-anchor: middle; fill: rgb(244, 244, 244);" d="m 621.92319,82.776 q 6.912,0 10.728,3.888 3.888,3.888 3.888,10.8 V 120 h -1.44 V 97.464 q 0,-6.264 -3.528,-9.72 -3.456,-3.528 -9.648,-3.528 -6.912,0.144 -11.016,4.248 -4.104,4.104 -4.68,11.304 V 120 h -1.44 V 82.776 h 1.44 v 10.512 q 1.8,-4.968 5.832,-7.704 4.032,-2.736 9.864,-2.808 z" transform="translate(0 285.8475080972633) translate(622.7029657201055 83.16911668291507) scale(1.242402588708262) translate(-604.78719 -82.776)"></path> 
   <path id="path29159" style="font-style: normal; font-weight: 200; font-size: 72px; line-height: 1; font-family: Montserrat; font-variant-ligatures: none; text-align: center; text-anchor: middle; fill: rgb(244, 244, 244);" d="m 665.08944,82.776 q 5.112,0 9.216,2.376 4.176,2.376 6.48,6.624 2.376,4.248 2.376,9.576 0,5.328 -2.376,9.576 -2.304,4.248 -6.48,6.696 -4.104,2.376 -9.216,2.376 -5.112,0 -9.288,-2.376 -4.104,-2.448 -6.48,-6.696 -2.304,-4.248 -2.304,-9.576 0,-5.328 2.304,-9.576 2.376,-4.248 6.48,-6.624 4.176,-2.376 9.288,-2.376 z m 0,1.44 q -4.752,0 -8.568,2.232 -3.816,2.16 -5.976,6.048 -2.088,3.888 -2.088,8.856 0,4.968 2.088,8.928 2.16,3.888 5.976,6.12 3.816,2.16 8.568,2.16 4.752,0 8.568,-2.16 3.816,-2.232 5.904,-6.12 2.16,-3.96 2.16,-8.928 0,-4.968 -2.16,-8.856 -2.088,-3.888 -5.904,-6.048 -3.816,-2.232 -8.568,-2.232 z" transform="translate(0 285.8475080972633) translate(675.1699376419025 83.16911668291507) scale(1.242402588708262) translate(-647.01744 -82.776)"></path> 
   <path id="path29161" style="font-style: normal; font-weight: 200; font-size: 72px; line-height: 1; font-family: Montserrat; font-variant-ligatures: none; text-align: center; text-anchor: middle; fill: rgb(244, 244, 244);" d="m 689.45919,69.672 h 35.496 v 1.8 L 700.33119,120 h -1.584 l 24.912,-48.888 h -32.76 v 8.064 h -1.44 z" transform="translate(0 285.8475080972633) translate(727.8996777112114 66.88867316048203) scale(1.242402588708262) translate(-689.45919 -69.672)"></path> 
  </g> 
  <g id="tagline" style="font-style:normal;font-weight:400;font-size:32px;line-height:1;font-family:Montserrat;font-variant-ligatures:none;text-align:center;text-anchor:middle"></g> 
 </g> 
</svg>