<svg xmlns:dc="http://purl.org/dc/elements/1.1/" xmlns:cc="http://creativecommons.org/ns#" xmlns:rdf="http://www.w3.org/1999/02/22-rdf-syntax-ns#" xmlns:svg="http://www.w3.org/2000/svg" xmlns="http://www.w3.org/2000/svg" id="svg8719" viewbox="0 0 1024 768" height="768px" width="1024px" version="1.1"> <metadata id="metadata8725"> 
  <rdf:rdf> 
   <cc:work rdf:about=""> 
    <dc:format>
     image/svg+xml
    </dc:format> 
    <dc:type rdf:resource="http://purl.org/dc/dcmitype/StillImage"></dc:type> 
   </cc:work> 
  </rdf:rdf> 
 </metadata> <defs id="defs8723"></defs> <g id="logo-group"> 
  <g id="title" style="font-style:normal;font-weight:700;font-size:72px;line-height:1;font-family:Phenomena;font-variant-ligatures:none;text-align:center;text-anchor:middle" aria-label="NEXTDAYO7"> 
   <path id="path8727" style="font-style: normal; font-weight: 700; font-size: 72px; line-height: 1; font-family: Phenomena; font-variant-ligatures: none; text-align: center; text-anchor: middle; fill: rgb(167, 167, 167);" d="m 384.28494,120 h 4.608 c 0.576,0 0.936,-0.36 0.936,-1.008 V 81.768 c 0,-4.104 2.232,-6.84 5.832,-6.84 3.6,0 5.832,2.736 5.832,6.84 v 37.224 c 0,0.648 0.432,1.008 1.008,1.008 h 4.536 c 0.648,0 1.008,-0.36 1.008,-1.008 V 82.056 c 0,-7.776 -4.896,-13.248 -12.384,-13.248 -7.488,0 -12.312,5.472 -12.312,13.248 v 36.936 c 0,0.648 0.36,1.008 0.936,1.008 z" transform="translate(0 272.8770246309517) translate(252.00000000000006 75.53468871294449) scale(1.371100580062558) translate(-383.34894 -68.808)"></path> 
   <path id="path8729" style="font-style: normal; font-weight: 700; font-size: 72px; line-height: 1; font-family: Phenomena; font-variant-ligatures: none; text-align: center; text-anchor: middle; fill: rgb(167, 167, 167);" d="m 427.35331,120.216 h 7.56 c 0.576,0 0.936,-0.36 0.936,-0.936 v -4.104 c 0,-0.648 -0.36,-1.008 -0.936,-1.008 h -7.056 c -3.744,0 -6.264,-2.88 -6.264,-6.984 v -9.72 h 11.52 c 0.648,0 1.008,-0.36 1.008,-1.008 v -3.888 c 0,-0.648 -0.36,-1.008 -1.008,-1.008 h -11.52 v -9.144 c 0,-4.104 2.52,-6.984 6.264,-6.984 h 7.056 c 0.576,0 0.936,-0.36 0.936,-1.008 V 70.32 c 0,-0.576 -0.36,-0.936 -0.936,-0.936 h -7.56 c -7.272,0 -12.312,5.472 -12.312,12.888 v 25.056 c 0,7.416 5.04,12.888 12.312,12.888 z" transform="translate(0 272.8770246309517) translate(316.0199355914956 76.32444264706054) scale(1.371100580062558) translate(-415.04131 -69.384)"></path> 
   <path id="path8731" style="font-style: normal; font-weight: 700; font-size: 72px; line-height: 1; font-family: Phenomena; font-variant-ligatures: none; text-align: center; text-anchor: middle; fill: rgb(167, 167, 167);" d="m 465.67756,84.576 v -14.04 c 0,-0.576 -0.36,-0.936 -1.008,-0.936 h -4.536 c -0.648,0 -1.008,0.36 -1.008,0.936 v 14.328 c 0,3.816 -2.304,6.624 -5.688,6.624 -3.384,0 -5.688,-2.808 -5.688,-6.624 V 70.536 c 0,-0.576 -0.36,-0.936 -1.008,-0.936 h -4.536 c -0.648,0 -1.008,0.36 -1.008,0.936 v 14.04 c 0,4.392 1.8,7.704 5.04,9.864 -3.24,2.232 -5.04,5.544 -5.04,9.936 v 14.616 c 0,0.648 0.36,1.008 1.008,1.008 h 4.536 c 0.648,0 1.008,-0.36 1.008,-1.008 v -14.904 c 0,-3.816 2.304,-6.552 5.688,-6.552 3.384,0 5.688,2.736 5.688,6.552 v 14.904 c 0,0.648 0.36,1.008 1.008,1.008 h 4.536 c 0.648,0 1.008,-0.36 1.008,-1.008 v -14.616 c 0,-4.392 -1.8,-7.704 -5.04,-9.936 3.24,-2.16 5.04,-5.472 5.04,-9.864 z" transform="translate(0 272.8770246309517) translate(372.44929383969526 76.62060037235402) scale(1.371100580062558) translate(-441.19756 -69.6)"></path> 
   <path id="path8733" style="font-style: normal; font-weight: 700; font-size: 72px; line-height: 1; font-family: Phenomena; font-variant-ligatures: none; text-align: center; text-anchor: middle; fill: rgb(167, 167, 167);" d="m 492.73381,69.6 h -22.104 c -0.576,0 -0.936,0.36 -0.936,0.936 v 4.104 c 0,0.648 0.36,1.008 0.936,1.008 h 7.848 v 43.344 c 0,0.648 0.36,1.008 0.936,1.008 h 4.536 c 0.648,0 1.008,-0.36 1.008,-1.008 V 75.648 h 7.776 c 0.648,0 1.008,-0.36 1.008,-1.008 v -4.104 c 0,-0.576 -0.36,-0.936 -1.008,-0.936 z" transform="translate(0 272.8770246309517) translate(432.08702744524123 76.62060037235402) scale(1.371100580062558) translate(-469.69381 -69.6)"></path> 
   <path id="path8735" style="font-style: normal; font-weight: 700; font-size: 72px; line-height: 1; font-family: Phenomena; font-variant-ligatures: none; text-align: center; text-anchor: middle; fill: rgb(167, 167, 167);" d="m 501.62356,120.216 h 9.288 c 7.488,0 12.312,-5.472 12.312,-13.032 V 82.416 c 0,-7.56 -4.752,-13.032 -12.312,-13.032 h -9.288 c -1.872,0 -2.952,1.008 -2.952,2.88 v 45.072 c 0,1.872 1.08,2.88 2.952,2.88 z m 3.6,-6.048 V 75.432 h 5.472 c 3.816,0 5.976,2.736 5.976,6.84 v 25.056 c 0,4.104 -2.232,6.84 -5.976,6.84 z" transform="translate(0 272.8770246309517) translate(492.38494598008737 76.32444264706054) scale(1.371100580062558) translate(-498.67156 -69.384)"></path> 
   <path id="path8737" style="font-style: normal; font-weight: 700; font-size: 72px; line-height: 1; font-family: Phenomena; font-variant-ligatures: none; text-align: center; text-anchor: middle; fill: rgb(167, 167, 167);" d="m 531.23806,120 h 4.608 c 0.576,0 0.936,-0.36 0.936,-1.008 v -15.984 h 11.664 v 15.984 c 0,0.648 0.432,1.008 1.008,1.008 h 4.536 c 0.648,0 1.008,-0.36 1.008,-1.008 V 82.128 c 0,-7.92 -4.968,-13.248 -12.384,-13.248 -7.416,0 -12.312,5.328 -12.312,13.248 v 36.864 c 0,0.648 0.36,1.008 0.936,1.008 z m 5.544,-22.968 V 81.84 c 0,-4.32 2.16,-6.84 5.832,-6.84 3.744,0 5.832,2.52 5.832,6.84 v 15.192 z" transform="translate(0 272.8770246309517) translate(556.3200515786945 75.633407954709) scale(1.371100580062558) translate(-530.30206 -68.88)"></path> 
   <path id="path8739" style="font-style: normal; font-weight: 700; font-size: 72px; line-height: 1; font-family: Phenomena; font-variant-ligatures: none; text-align: center; text-anchor: middle; fill: rgb(167, 167, 167);" d="m 571.36119,120 h 4.536 c 0.576,0 0.936,-0.36 0.936,-1.008 v -15.48 c 5.472,-1.296 9,-6.192 9,-12.456 v -20.52 c 0,-0.576 -0.36,-0.936 -1.008,-0.936 h -4.536 c -0.576,0 -0.936,0.36 -0.936,0.936 v 20.808 c 0,3.744 -2.304,6.552 -5.76,6.552 -3.456,0 -5.688,-2.808 -5.688,-6.552 V 70.536 c 0,-0.576 -0.432,-0.936 -1.008,-0.936 h -4.536 c -0.648,0 -1.008,0.36 -1.008,0.936 v 20.52 c 0,6.264 3.6,11.16 9,12.456 v 15.48 c 0,0.648 0.36,1.008 1.008,1.008 z" transform="translate(0 272.8770246309517) translate(619.4607826342308 76.62060037235402) scale(1.371100580062558) translate(-561.35319 -69.6)"></path> 
   <path id="path8741" style="font-style: normal; font-weight: 700; font-size: 72px; line-height: 1; font-family: Phenomena; font-variant-ligatures: none; text-align: center; text-anchor: middle; fill: rgb(0, 0, 0);" d="m 604.26969,120.72 c 7.488,0 12.672,-5.472 12.672,-13.032 V 81.912 c 0,-7.56 -5.184,-13.032 -12.672,-13.032 -7.488,0 -12.744,5.472 -12.744,13.536 v 24.768 c 0,8.064 5.256,13.536 12.744,13.536 z m 0,-6.048 c -3.672,0 -6.192,-2.736 -6.192,-7.2 V 82.128 c 0,-4.464 2.52,-7.2 6.192,-7.2 3.672,0 6.12,2.736 6.12,6.696 v 26.352 c 0,3.96 -2.448,6.696 -6.12,6.696 z" transform="translate(0 272.8770246309517) translate(681.3968235871067 75.633407954709) scale(1.371100580062558) translate(-591.52569 -68.88)"></path> 
   <path id="path8743" style="font-style: normal; font-weight: 700; font-size: 72px; line-height: 1; font-family: Phenomena; font-variant-ligatures: none; text-align: center; text-anchor: middle; fill: rgb(0, 0, 0);" d="m 621.00631,70.536 v 4.104 c 0,0.648 0.36,1.008 0.936,1.008 h 13.752 l -10.44,43.272 c -0.144,0.648 0.144,1.08 0.864,1.08 h 4.536 c 0.576,0 0.936,-0.288 1.08,-0.864 L 642.24631,75 c 0.288,-1.224 0.36,-2.088 0.36,-3.384 0,-1.368 -0.792,-2.016 -2.16,-2.016 h -18.504 c -0.576,0 -0.936,0.36 -0.936,0.936 z" transform="translate(0 272.8770246309517) translate(742.3842274706487 76.62060037235402) scale(1.371100580062558) translate(-621.00631 -69.6)"></path> 
  </g> 
  <g id="tagline" style="font-style:oblique;font-weight:normal;font-size:32px;line-height:1;font-family:'Fira Sans Condensed';font-variant-ligatures:none;text-align:center;text-anchor:middle"></g> 
 </g> 
</svg>