<svg xmlns:dc="http://purl.org/dc/elements/1.1/" xmlns:cc="http://creativecommons.org/ns#" xmlns:rdf="http://www.w3.org/1999/02/22-rdf-syntax-ns#" xmlns:svg="http://www.w3.org/2000/svg" xmlns="http://www.w3.org/2000/svg" id="svg75386" viewbox="0 0 1024 768" height="768px" width="1024px" version="1.1"> <metadata id="metadata75392"> 
  <rdf:rdf> 
   <cc:work rdf:about=""> 
    <dc:format>
     image/svg+xml
    </dc:format> 
    <dc:type rdf:resource="http://purl.org/dc/dcmitype/StillImage"></dc:type> 
   </cc:work> 
  </rdf:rdf> 
 </metadata> <defs id="defs75390"></defs> <g id="logo-group"> 
  <g id="title" style="font-style:oblique;font-weight:700;font-size:72px;line-height:1;font-family:Averta;font-variant-ligatures:none;text-align:center;text-anchor:middle" aria-label="Nextlevelo7"> 
   <path id="path75394" style="font-style: oblique; font-weight: 700; font-size: 72px; line-height: 1; font-family: Averta; font-variant-ligatures: none; text-align: center; text-anchor: middle; fill: rgb(13, 13, 13);" d="m 344.79687,68.88 -6.264,51.12 h 11.16001 l 3.88799,-30.888 h 0.216 l 13.176,30.888 h 11.16001 l 6.336,-51.12 h -11.23201 l -3.88799,31.608 -0.216,0.072 -13.53601,-31.68 z" transform="translate(0 303.44334708407496) translate(251.9999999999999 54.42326374201656) scale(1.037039252932877) translate(-338.53287 -68.88)"></path> 
   <path id="path75396" style="font-style: oblique; font-weight: 700; font-size: 72px; line-height: 1; font-family: Averta; font-variant-ligatures: none; text-align: center; text-anchor: middle; fill: rgb(13, 13, 13);" d="m 418.49225,93.864 c 0.072,-6.624 -6.336,-9.72 -12.024,-9.72 -11.88,0 -19.296,9.792 -19.296,21.744 -0.072,9.144 5.832,14.76 14.688,14.76 6.912,0 11.592,-2.592 15.336,-7.704 l -8.064,-4.752 c -1.944,2.592 -4.032,3.528 -6.408,3.528 -2.088,0 -4.392,-1.296 -5.04,-4.464 10.368,-1.08 20.664,-4.464 20.808,-13.392 z m -10.368,1.512 c -0.072,3.456 -4.824,4.824 -10.08,5.4 1.224,-4.896 4.392,-7.632 7.488,-7.632 1.656,0 2.664,0.792 2.592,2.232 z" transform="translate(0 303.44334708407496) translate(317.995861016797 70.252630898784) scale(1.037039252932877) translate(-387.1716 -84.144)"></path> 
   <path id="path75398" style="font-style: oblique; font-weight: 700; font-size: 72px; line-height: 1; font-family: Averta; font-variant-ligatures: none; text-align: center; text-anchor: middle; fill: rgb(13, 13, 13);" d="M 428.804,101.712 415.988,120 h 11.664 l 6.048,-8.856 h 0.144 l 3.744,8.856 h 11.52 l -8.496,-17.712 12.744,-17.496 h -12.24 l -5.256,8.496 h -0.072 l -3.24,-8.496 h -11.952 z" transform="translate(0 303.44334708407496) translate(363.4351877390051 70.92463233468452) scale(1.037039252932877) translate(-415.988 -84.792)"></path> 
   <path id="path75400" style="font-style: oblique; font-weight: 700; font-size: 72px; line-height: 1; font-family: Averta; font-variant-ligatures: none; text-align: center; text-anchor: middle; fill: rgb(13, 13, 13);" d="m 464.0525,120.648 c 3.24,0 6.408,-0.792 9.432,-2.448 l -1.728,-8.424 c -1.368,0.72 -2.592,1.152 -3.528,1.152 -1.152,0 -1.872,-0.936 -1.584,-2.952 l 1.728,-14.472 h 7.272 l 1.08,-8.712 h -7.272 l 1.512,-12.456 -11.016,2.16 -1.368,10.296 h -3.456 l -1.08,8.712 h 3.456 l -1.872,15.912 c -1.008,8.136 2.952,11.232 8.424,11.232 z" transform="translate(0 303.44334708407496) translate(418.4568608622383 58.00727140015259) scale(1.037039252932877) translate(-454.0445 -72.336)"></path> 
   <path id="path75402" style="font-style: oblique; font-weight: 700; font-size: 72px; line-height: 1; font-family: Averta; font-variant-ligatures: none; text-align: center; text-anchor: middle; fill: rgb(13, 13, 13);" d="M 485.06187,67.008 478.58188,120 h 10.79999 l 6.552,-52.992 z" transform="translate(0 303.44334708407496) translate(459.4586758803615 52.48192626052622) scale(1.037039252932877) translate(-478.58188 -67.008)"></path> 
   <path id="path75404" style="font-style: oblique; font-weight: 700; font-size: 72px; line-height: 1; font-family: Averta; font-variant-ligatures: none; text-align: center; text-anchor: middle; fill: rgb(13, 13, 13);" d="m 529.0235,93.864 c 0.072,-6.624 -6.336,-9.72 -12.024,-9.72 -11.88,0 -19.296,9.792 -19.296,21.744 -0.072,9.144 5.832,14.76 14.688,14.76 6.912,0 11.592,-2.592 15.336,-7.704 l -8.064,-4.752 c -1.944,2.592 -4.032,3.528 -6.408,3.528 -2.088,0 -4.392,-1.296 -5.04,-4.464 10.368,-1.08 20.664,-4.464 20.808,-13.392 z m -10.368,1.512 c -0.072,3.456 -4.824,4.824 -10.08,5.4 1.224,-4.896 4.392,-7.632 7.488,-7.632 1.656,0 2.664,0.792 2.592,2.232 z" transform="translate(0 303.44334708407496) translate(494.8434611185066 70.252630898784) scale(1.037039252932877) translate(-497.70285 -84.144)"></path> 
   <path id="path75406" style="font-style: oblique; font-weight: 700; font-size: 72px; line-height: 1; font-family: Averta; font-variant-ligatures: none; text-align: center; text-anchor: middle; fill: rgb(13, 13, 13);" d="m 543.752,120.648 c 9.504,0 18.648,-5.4 20.952,-21.384 0.72,-4.896 0.72,-9.936 -0.072,-14.472 h -10.8 c 0.648,4.608 0.72,8.136 0.072,12.312 -1.512,10.872 -5.832,13.896 -8.28,13.896 -2.376,0 -2.592,-2.88 -1.944,-7.992 l 2.232,-18.216 h -10.656 l -2.592,20.448 c -1.08,9.144 1.944,15.408 11.088,15.408 z" transform="translate(0 303.44334708407496) translate(546.4386321053393 70.92463233468452) scale(1.037039252932877) translate(-532.45523 -84.792)"></path> 
   <path id="path75408" style="font-style: oblique; font-weight: 700; font-size: 72px; line-height: 1; font-family: Averta; font-variant-ligatures: none; text-align: center; text-anchor: middle; fill: rgb(13, 13, 13);" d="m 599.61725,93.864 c 0.072,-6.624 -6.336,-9.72 -12.024,-9.72 -11.88,0 -19.296,9.792 -19.296,21.744 -0.072,9.144 5.832,14.76 14.688,14.76 6.912,0 11.592,-2.592 15.336,-7.704 l -8.064,-4.752 c -1.944,2.592 -4.032,3.528 -6.408,3.528 -2.088,0 -4.392,-1.296 -5.04,-4.464 10.368,-1.08 20.664,-4.464 20.808,-13.392 z m -10.368,1.512 c -0.072,3.456 -4.824,4.824 -10.08,5.4 1.224,-4.896 4.392,-7.632 7.488,-7.632 1.656,0 2.664,0.792 2.592,2.232 z" transform="translate(0 303.44334708407496) translate(599.1631284682232 70.252630898784) scale(1.037039252932877) translate(-568.2966 -84.144)"></path> 
   <path id="path75410" style="font-style: oblique; font-weight: 700; font-size: 72px; line-height: 1; font-family: Averta; font-variant-ligatures: none; text-align: center; text-anchor: middle; fill: rgb(13, 13, 13);" d="m 609.23375,67.008 -6.48,52.992 h 10.8 l 6.552,-52.992 z" transform="translate(0 303.44334708407496) translate(650.4521343564124 52.48192626052622) scale(1.037039252932877) translate(-602.75375 -67.008)"></path> 
   <path id="path75412" style="font-style: oblique; font-weight: 700; font-size: 72px; line-height: 1; font-family: Averta; font-variant-ligatures: none; text-align: center; text-anchor: middle; fill: rgb(13, 13, 13);" d="m 636.77937,120.648 c 13.46401,0 19.58401,-10.008 19.58401,-21.456 0,-9.576 -5.976,-15.048 -15.048,-15.048 -12.38401,0 -19.44001,10.08 -19.44001,21.384 0,9.648 5.976,15.12 14.904,15.12 z m 0.792,-9.648 c -2.30399,0 -4.75199,-1.872 -4.75199,-6.048 0,-5.4 2.88,-11.16 7.63199,-11.16 1.94401,0 4.968,1.08 4.968,6.12 0,5.76 -3.096,11.088 -7.848,11.088 z" transform="translate(0 303.44334708407496) translate(685.837593670072 70.252630898784) scale(1.037039252932877) translate(-621.87537 -84.144)"></path> 
   <path id="path75414" style="font-style: oblique; font-weight: 700; font-size: 72px; line-height: 1; font-family: Averta; font-variant-ligatures: none; text-align: center; text-anchor: middle; fill: rgb(13, 13, 13);" d="m 689.96037,70.536 h -27.864 l -1.22399,10.08 h 15.48 l -17.56801,38.52 11.08801,2.016 19.22399,-43.344 z" transform="translate(0 303.44334708407496) translate(739.6692642505647 56.14060074487341) scale(1.037039252932877) translate(-658.78437 -70.536)"></path> 
  </g> 
  <g id="tagline" style="font-style:normal;font-weight:500;font-size:32px;line-height:1;font-family:Raleway;font-variant-ligatures:none;text-align:center;text-anchor:middle"></g> 
 </g> 
</svg>