<svg xmlns:dc="http://purl.org/dc/elements/1.1/" xmlns:cc="http://creativecommons.org/ns#" xmlns:rdf="http://www.w3.org/1999/02/22-rdf-syntax-ns#" xmlns:svg="http://www.w3.org/2000/svg" xmlns="http://www.w3.org/2000/svg" id="svg26051" viewbox="0 0 1024 768" height="768px" width="1024px" version="1.1"> <metadata id="metadata26057"> 
  <rdf:rdf> 
   <cc:work rdf:about=""> 
    <dc:format>
     image/svg+xml
    </dc:format> 
    <dc:type rdf:resource="http://purl.org/dc/dcmitype/StillImage"></dc:type> 
   </cc:work> 
  </rdf:rdf> 
 </metadata> <defs id="defs26055"></defs> <g id="logo-group"> 
  <g id="title" style="font-style:normal;font-weight:800;font-size:72px;line-height:1;font-family:'Montserrat ExtraBold Alt1';font-variant-ligatures:none;text-align:center;text-anchor:middle" aria-label="Nightowlo7"> 
   <path id="path26059" style="font-style: normal; font-weight: 800; font-size: 72px; line-height: 1; font-family: &quot;Montserrat ExtraBold Alt1&quot;; font-variant-ligatures: none; text-align: center; text-anchor: middle; fill: rgb(156, 186, 227);" d="m 295.76656,120 h 13.968 v -8.496 l -13.968,-17.784 z m 33.984,-50.4 v 9.144 l 13.968,16.848 V 69.6 Z m 0,26.856 -22.248,-26.856 h -11.736 v 6.696 l 13.968,16.848 22.248,26.856 h 11.736 v -5.832 l -13.968,-17.784 z" transform="translate(0 289.6309450886853) translate(251.99999999999994 63.23143277853182) scale(1.0825205858984457) translate(-295.76656 -69.6)"></path> 
   <path id="path26061" style="font-style: normal; font-weight: 800; font-size: 72px; line-height: 1; font-family: &quot;Montserrat ExtraBold Alt1&quot;; font-variant-ligatures: none; text-align: center; text-anchor: middle; fill: rgb(156, 186, 227);" d="M 353.19669,80.976 V 120 h 13.68 V 80.976 Z m 0.792,-6.408 c 1.512,1.44 3.528,2.088 6.048,2.088 2.448,0 4.464,-0.648 6.048,-2.088 1.512,-1.44 2.304,-3.24 2.304,-5.4 0,-2.016 -0.792,-3.744 -2.304,-5.04 -1.584,-1.296 -3.6,-2.016 -6.048,-2.016 -2.52,0 -4.536,0.72 -6.048,2.088 -1.584,1.44 -2.304,3.168 -2.304,5.184 0,2.088 0.72,3.816 2.304,5.184 z" transform="translate(0 289.6309450886853) translate(317.9451297794376 55.12551863132426) scale(1.0825205858984457) translate(-351.68469 -62.112)"></path> 
   <path id="path26063" style="font-style: normal; font-weight: 800; font-size: 72px; line-height: 1; font-family: &quot;Montserrat ExtraBold Alt1&quot;; font-variant-ligatures: none; text-align: center; text-anchor: middle; fill: rgb(156, 186, 227);" d="m 417.67269,80.976 h -13.032 v 4.752 c -2.592,-3.6 -6.696,-5.4 -12.24,-5.4 -3.456,0 -6.696,0.792 -9.576,2.376 -2.952,1.584 -5.256,3.744 -6.984,6.624 -1.728,2.88 -2.592,6.12 -2.592,9.792 0,3.744 0.864,7.056 2.592,9.936 1.728,2.88 4.032,5.04 6.984,6.624 2.88,1.584 6.12,2.304 9.576,2.304 5.04,0 8.928,-1.512 11.592,-4.608 v 1.296 c 0,3.168 -0.864,5.472 -2.52,7.056 -1.728,1.584 -4.32,2.376 -7.92,2.376 -2.376,0 -4.752,-0.36 -7.2,-1.08 -2.448,-0.72 -4.392,-1.8 -5.976,-3.096 l -4.968,9.576 c 2.304,1.728 5.184,2.952 8.568,3.816 3.312,0.864 6.912,1.296 10.8,1.296 7.344,0 13.032,-1.8 16.992,-5.4 3.888,-3.6 5.904,-9.072 5.904,-16.344 z m -15.984,23.904 c -1.584,1.512 -3.6,2.232 -6.048,2.232 -2.448,0 -4.536,-0.72 -6.12,-2.232 -1.656,-1.44 -2.448,-3.384 -2.448,-5.76 0,-2.304 0.792,-4.248 2.376,-5.688 1.584,-1.44 3.672,-2.232 6.192,-2.232 2.448,0 4.536,0.792 6.12,2.232 1.584,1.44 2.376,3.384 2.376,5.688 0,2.376 -0.864,4.32 -2.448,5.76 z" transform="translate(0 289.6309450886853) translate(346.70120662324393 74.84471362405034) scale(1.0825205858984457) translate(-373.24869 -80.328)"></path> 
   <path id="path26065" style="font-style: normal; font-weight: 800; font-size: 72px; line-height: 1; font-family: &quot;Montserrat ExtraBold Alt1&quot;; font-variant-ligatures: none; text-align: center; text-anchor: middle; fill: rgb(156, 186, 227);" d="m 463.54231,84.648 c -2.952,-2.88 -6.84,-4.32 -11.664,-4.32 -2.304,0 -4.464,0.36 -6.48,1.08 -2.016,0.72 -3.816,1.8 -5.256,3.168 v -18 h -13.68 V 120 h 13.68 v -18.864 c 0,-3.024 0.648,-5.328 2.088,-6.912 1.44,-1.512 3.312,-2.304 5.688,-2.304 4.248,0 6.408,2.664 6.408,7.992 V 120 h 13.68 V 97.68 c 0,-5.76 -1.512,-10.152 -4.464,-13.032 z" transform="translate(0 289.6309450886853) translate(409.7186486529134 59.95789052677491) scale(1.0825205858984457) translate(-426.46231 -66.576)"></path> 
   <path id="path26067" style="font-style: normal; font-weight: 800; font-size: 72px; line-height: 1; font-family: &quot;Montserrat ExtraBold Alt1&quot;; font-variant-ligatures: none; text-align: center; text-anchor: middle; fill: rgb(156, 186, 227);" d="m 503.45281,118.416 -3.384,-9.576 c -1.224,0.864 -2.592,1.224 -4.176,1.224 -1.296,0 -2.304,-0.36 -3.024,-1.152 -0.72,-0.792 -1.08,-1.872 -1.08,-3.312 V 92.64 h 8.928 V 82.416 h -8.928 V 72.264 h -13.68 v 10.152 h -5.688 V 92.64 h 5.688 v 13.104 c 0,4.968 1.368,8.712 4.104,11.16 2.736,2.52 6.624,3.744 11.736,3.744 1.872,0 3.6,-0.144 5.256,-0.576 1.656,-0.36 3.096,-0.936 4.248,-1.656 z" transform="translate(0 289.6309450886853) translate(464.88227392941934 66.11526761936528) scale(1.0825205858984457) translate(-472.42081 -72.264)"></path> 
   <path id="path26069" style="font-style: normal; font-weight: 800; font-size: 72px; line-height: 1; font-family: &quot;Montserrat ExtraBold Alt1&quot;; font-variant-ligatures: none; text-align: center; text-anchor: middle; fill: rgb(156, 186, 227);" d="m 515.88294,118.056 c 3.312,1.728 7.128,2.592 11.304,2.592 4.176,0 7.992,-0.864 11.376,-2.592 3.312,-1.728 5.976,-4.104 7.848,-7.2 1.872,-3.024 2.808,-6.552 2.808,-10.44 0,-3.888 -0.936,-7.344 -2.808,-10.368 -1.872,-3.024 -4.536,-5.4 -7.848,-7.128 -3.384,-1.728 -7.2,-2.592 -11.376,-2.592 -4.248,0 -8.064,0.864 -11.376,2.592 -3.312,1.728 -5.976,4.104 -7.848,7.128 -1.872,3.096 -2.808,6.552 -2.808,10.368 0,3.888 0.936,7.416 2.808,10.44 1.872,3.096 4.536,5.472 7.92,7.2 z m 17.208,-10.728 c -1.584,1.656 -3.528,2.448 -5.904,2.448 -2.448,0 -4.392,-0.792 -5.904,-2.448 -1.584,-1.656 -2.304,-3.96 -2.304,-6.912 0,-2.88 0.72,-5.112 2.304,-6.768 1.512,-1.584 3.456,-2.448 5.904,-2.448 2.376,0 4.32,0.864 5.904,2.448 1.512,1.656 2.304,3.888 2.304,6.768 0,2.952 -0.792,5.256 -2.304,6.912 z" transform="translate(0 289.6309450886853) translate(505.7302464453875 74.84471362405034) scale(1.0825205858984457) translate(-505.15494 -80.328)"></path> 
   <path id="path26071" style="font-style: normal; font-weight: 800; font-size: 72px; line-height: 1; font-family: &quot;Montserrat ExtraBold Alt1&quot;; font-variant-ligatures: none; text-align: center; text-anchor: middle; fill: rgb(156, 186, 227);" d="m 619.08706,80.976 h -12.024 l -8.28,23.832 -8.064,-23.832 h -11.664 l -8.28,23.616 -7.992,-23.616 h -12.96 l 13.896,39.024 h 13.248 l 7.632,-21.24 7.344,21.24 h 13.248 z" transform="translate(0 289.6309450886853) translate(559.4970088082619 75.54618696371253) scale(1.0825205858984457) translate(-549.82306 -80.976)"></path> 
   <path id="path26073" style="font-style: normal; font-weight: 800; font-size: 72px; line-height: 1; font-family: &quot;Montserrat ExtraBold Alt1&quot;; font-variant-ligatures: none; text-align: center; text-anchor: middle; fill: rgb(156, 186, 227);" d="M 623.19669,66.576 V 120 h 13.68 V 66.576 Z" transform="translate(0 289.6309450886853) translate(644.3380766748497 59.95789052677491) scale(1.0825205858984457) translate(-623.19669 -66.576)"></path> 
   <path id="path26075" style="font-style: normal; font-weight: 800; font-size: 72px; line-height: 1; font-family: &quot;Montserrat ExtraBold Alt1&quot;; font-variant-ligatures: none; text-align: center; text-anchor: middle; fill: rgb(156, 186, 227);" d="m 653.97669,118.056 c 3.312,1.728 7.128,2.592 11.304,2.592 4.176,0 7.992,-0.864 11.376,-2.592 3.312,-1.728 5.976,-4.104 7.848,-7.2 1.872,-3.024 2.808,-6.552 2.808,-10.44 0,-3.888 -0.936,-7.344 -2.808,-10.368 -1.872,-3.024 -4.536,-5.4 -7.848,-7.128 -3.384,-1.728 -7.2,-2.592 -11.376,-2.592 -4.248,0 -8.064,0.864 -11.376,2.592 -3.312,1.728 -5.976,4.104 -7.848,7.128 -1.872,3.096 -2.808,6.552 -2.808,10.368 0,3.888 0.936,7.416 2.808,10.44 1.872,3.096 4.536,5.472 7.92,7.2 z m 17.208,-10.728 c -1.584,1.656 -3.528,2.448 -5.904,2.448 -2.448,0 -4.392,-0.792 -5.904,-2.448 -1.584,-1.656 -2.304,-3.96 -2.304,-6.912 0,-2.88 0.72,-5.112 2.304,-6.768 1.512,-1.584 3.456,-2.448 5.904,-2.448 2.376,0 4.32,0.864 5.904,2.448 1.512,1.656 2.304,3.888 2.304,6.768 0,2.952 -0.792,5.256 -2.304,6.912 z" transform="translate(0 289.6309450886853) translate(671.4573823927776 74.84471362405034) scale(1.0825205858984457) translate(-643.24869 -80.328)"></path> 
   <path id="path26077" style="font-style: normal; font-weight: 800; font-size: 72px; line-height: 1; font-family: &quot;Montserrat ExtraBold Alt1&quot;; font-variant-ligatures: none; text-align: center; text-anchor: middle; fill: rgb(156, 186, 227);" d="m 731.12694,69.6 h -41.76 v 19.08 h 12.168 v -7.776 h 13.248 L 697.79094,120 h 15.552 l 17.784,-41.472 z" transform="translate(0 289.6309450886853) translate(726.7939403328809 63.23143277853182) scale(1.0825205858984457) translate(-689.36694 -69.6)"></path> 
  </g> 
  <g id="tagline" style="font-style:normal;font-weight:500;font-size:32px;line-height:1;font-family:Montserrat;font-variant-ligatures:none;text-align:center;text-anchor:middle"></g> 
 </g> 
</svg>