<svg xmlns:dc="http://purl.org/dc/elements/1.1/" xmlns:cc="http://creativecommons.org/ns#" xmlns:rdf="http://www.w3.org/1999/02/22-rdf-syntax-ns#" xmlns:svg="http://www.w3.org/2000/svg" xmlns="http://www.w3.org/2000/svg" id="svg47631" viewbox="0 0 1024 768" height="768px" width="1024px" version="1.1"> <metadata id="metadata47637"> 
  <rdf:rdf> 
   <cc:work rdf:about=""> 
    <dc:format>
     image/svg+xml
    </dc:format> 
    <dc:type rdf:resource="http://purl.org/dc/dcmitype/StillImage"></dc:type> 
   </cc:work> 
  </rdf:rdf> 
 </metadata> <defs id="defs47635"></defs> <g id="logo-group"> 
  <g id="title" style="font-style:normal;font-weight:300;font-size:72px;line-height:1;font-family:'Montserrat Light Alt1';font-variant-ligatures:none;text-align:center;text-anchor:middle" aria-label="NOBULLO7"> 
   <path id="path47639" style="font-style: normal; font-weight: 300; font-size: 72px; line-height: 1; font-family: &quot;Montserrat Light Alt1&quot;; font-variant-ligatures: none; text-align: center; text-anchor: middle; fill: rgb(217, 157, 103);" d="m 353.98025,69.6 h -3.672 v 43.776 L 316.03625,69.6 h -3.096 V 120 h 3.672 V 76.224 l 34.344,43.776 h 3.024 z" transform="translate(0 284.74) translate(237.79383124999998 67.76) scale(1.25) translate(-312.94025 -69.6)"></path> 
   <path id="path47641" style="font-style: normal; font-weight: 300; font-size: 72px; line-height: 1; font-family: &quot;Montserrat Light Alt1&quot;; font-variant-ligatures: none; text-align: center; text-anchor: middle; fill: rgb(217, 157, 103);" d="m 379.57287,117.048 c 3.96,2.232 8.424,3.312 13.392,3.312 4.89601,0 9.36001,-1.08 13.392,-3.312 3.96,-2.16 7.056,-5.256 9.36001,-9.144 2.30399,-3.888 3.45599,-8.208 3.45599,-13.104 0,-4.824 -1.152,-9.216 -3.45599,-13.104 -2.30401,-3.888 -5.40001,-6.912 -9.36001,-9.144 -4.03199,-2.16 -8.49599,-3.312 -13.392,-3.312 -4.968,0 -9.432,1.152 -13.392,3.384 -4.03199,2.232 -7.12799,5.256 -9.432,9.144 -2.30399,3.888 -3.384,8.28 -3.384,13.032 0,4.824 1.08001,9.144 3.384,13.032 2.30401,3.888 5.40001,6.984 9.432,9.216 z m 24.84,-2.952 c -3.45599,1.944 -7.272,2.88 -11.448,2.88 -4.24799,0 -8.064,-0.936 -11.51999,-2.88 -3.45601,-1.872 -6.12,-4.536 -8.06401,-7.92 -2.016,-3.384 -2.952,-7.2 -2.952,-11.376 0,-4.176 0.936,-7.92 2.952,-11.304 1.94401,-3.384 4.608,-6.048 8.06401,-7.992 3.45599,-1.872 7.272,-2.88 11.51999,-2.88 4.176,0 7.99201,1.008 11.448,2.88 3.384,1.944 6.048,4.608 8.064,7.992 1.94401,3.384 2.952,7.128 2.952,11.304 0,4.176 -1.00799,7.992 -2.952,11.376 -2.016,3.384 -4.68,6.048 -8.064,7.92 z" transform="translate(0 284.74) translate(311.31460625 67.31000000000002) scale(1.25) translate(-366.75687 -69.24)"></path> 
   <path id="path47643" style="font-style: normal; font-weight: 300; font-size: 72px; line-height: 1; font-family: &quot;Montserrat Light Alt1&quot;; font-variant-ligatures: none; text-align: center; text-anchor: middle; fill: rgb(217, 157, 103);" d="m 470.069,98.256 c -1.872,-2.16 -4.608,-3.528 -8.208,-4.248 2.52,-0.792 4.608,-2.232 6.12,-4.248 1.512,-1.944 2.304,-4.32 2.304,-7.272 0,-4.104 -1.584,-7.272 -4.608,-9.504 -3.024,-2.232 -7.272,-3.384 -12.744,-3.384 h -21.024 v 3.168 h 20.88 c 4.392,0 7.776,0.864 10.152,2.592 2.376,1.728 3.6,4.176 3.6,7.416 0,3.312 -1.224,5.832 -3.6,7.56 -2.376,1.728 -5.76,2.52 -10.152,2.52 h -20.88 v 3.168 h 22.464 c 4.824,0 8.568,0.864 11.088,2.52 2.52,1.728 3.816,4.32 3.816,7.848 0,3.6 -1.296,6.192 -3.816,7.92 -2.52,1.728 -6.192,2.52 -11.088,2.52 H 431.909 V 120 h 22.464 c 6.12,0 10.728,-1.152 13.896,-3.456 3.096,-2.304 4.68,-5.544 4.68,-9.864 0,-3.384 -1.008,-6.192 -2.88,-8.424 z" transform="translate(0 284.74) translate(399.00476875 67.76) scale(1.25) translate(-431.909 -69.6)"></path> 
   <path id="path47645" style="font-style: normal; font-weight: 300; font-size: 72px; line-height: 1; font-family: &quot;Montserrat Light Alt1&quot;; font-variant-ligatures: none; text-align: center; text-anchor: middle; fill: rgb(217, 157, 103);" d="m 490.87362,114.816 c 3.52801,3.744 8.496,5.544 14.904,5.544 6.336,0 11.30401,-1.8 14.904,-5.544 3.528,-3.672 5.32801,-9.072 5.32801,-16.2 V 69.6 h -3.67201 v 28.872 c 0,6.192 -1.44,10.872 -4.248,13.896 -2.88,3.096 -6.912,4.608 -12.24,4.608 -5.39999,0 -9.504,-1.512 -12.312,-4.608 -2.88,-3.024 -4.248,-7.704 -4.248,-13.896 V 69.6 h -3.672 v 29.016 c 0,7.128 1.728,12.528 5.256,16.2 z" transform="translate(0 284.74) translate(472.39054374999995 67.76) scale(1.25) translate(-485.61762 -69.6)"></path> 
   <path id="path47647" style="font-style: normal; font-weight: 300; font-size: 72px; line-height: 1; font-family: &quot;Montserrat Light Alt1&quot;; font-variant-ligatures: none; text-align: center; text-anchor: middle; fill: rgb(217, 157, 103);" d="M 543.14337,69.6 V 120 h 32.688 v -3.312 H 546.81538 V 69.6 Z" transform="translate(0 284.74) translate(550.54773125 67.76) scale(1.25) translate(-543.14337 -69.6)"></path> 
   <path id="path47649" style="font-style: normal; font-weight: 300; font-size: 72px; line-height: 1; font-family: &quot;Montserrat Light Alt1&quot;; font-variant-ligatures: none; text-align: center; text-anchor: middle; fill: rgb(217, 157, 103);" d="M 585.33087,69.6 V 120 h 32.688 v -3.312 H 589.00288 V 69.6 Z" transform="translate(0 284.74) translate(609.53210625 67.76) scale(1.25) translate(-585.33087 -69.6)"></path> 
   <path id="path47651" style="font-style: normal; font-weight: 300; font-size: 72px; line-height: 1; font-family: &quot;Montserrat Light Alt1&quot;; font-variant-ligatures: none; text-align: center; text-anchor: middle; fill: rgb(218, 175, 145);" d="m 634.526,117.048 c 3.96,2.232 8.424,3.312 13.392,3.312 4.896,0 9.36,-1.08 13.392,-3.312 3.96,-2.16 7.056,-5.256 9.36,-9.144 2.304,-3.888 3.456,-8.208 3.456,-13.104 0,-4.824 -1.152,-9.216 -3.456,-13.104 -2.304,-3.888 -5.4,-6.912 -9.36,-9.144 -4.032,-2.16 -8.496,-3.312 -13.392,-3.312 -4.968,0 -9.432,1.152 -13.392,3.384 -4.032,2.232 -7.128,5.256 -9.432,9.144 -2.304,3.888 -3.384,8.28 -3.384,13.032 0,4.824 1.08,9.144 3.384,13.032 2.304,3.888 5.4,6.984 9.432,9.216 z m 24.84,-2.952 c -3.456,1.944 -7.272,2.88 -11.448,2.88 -4.248,0 -8.064,-0.936 -11.52,-2.88 -3.456,-1.872 -6.12,-4.536 -8.064,-7.92 -2.016,-3.384 -2.952,-7.2 -2.952,-11.376 0,-4.176 0.936,-7.92 2.952,-11.304 1.944,-3.384 4.608,-6.048 8.064,-7.992 3.456,-1.872 7.272,-2.88 11.52,-2.88 4.176,0 7.992,1.008 11.448,2.88 3.384,1.944 6.048,4.608 8.064,7.992 1.944,3.384 2.952,7.128 2.952,11.304 0,4.176 -1.008,7.992 -2.952,11.376 -2.016,3.384 -4.68,6.048 -8.064,7.92 z" transform="translate(0 284.74) translate(661.2560187500001 67.31000000000002) scale(1.25) translate(-621.71 -69.24)"></path> 
   <path id="path47653" style="font-style: normal; font-weight: 300; font-size: 72px; line-height: 1; font-family: &quot;Montserrat Light Alt1&quot;; font-variant-ligatures: none; text-align: center; text-anchor: middle; fill: rgb(218, 175, 145);" d="m 716.67012,69.6 h -36.144 v 12.96 h 3.6 v -9.648 h 28.29601 L 690.96613,120 h 4.03199 l 21.672,-47.808 z" transform="translate(0 284.74) translate(741.0261687500001 67.76) scale(1.25) translate(-680.52612 -69.6)"></path> 
  </g> 
  <g id="tagline" style="font-style:normal;font-weight:400;font-size:32px;line-height:1;font-family:Montserrat;font-variant-ligatures:none;text-align:center;text-anchor:middle"></g> 
 </g> 
</svg>