<svg xmlns:dc="http://purl.org/dc/elements/1.1/" xmlns:cc="http://creativecommons.org/ns#" xmlns:rdf="http://www.w3.org/1999/02/22-rdf-syntax-ns#" xmlns:svg="http://www.w3.org/2000/svg" xmlns="http://www.w3.org/2000/svg" id="svg65405" viewbox="0 0 1024 768" height="768px" width="1024px" version="1.1"> <metadata id="metadata65411"> 
  <rdf:rdf> 
   <cc:work rdf:about=""> 
    <dc:format>
     image/svg+xml
    </dc:format> 
    <dc:type rdf:resource="http://purl.org/dc/dcmitype/StillImage"></dc:type> 
   </cc:work> 
  </rdf:rdf> 
 </metadata> <defs id="defs65409"></defs> <g id="logo-group"> 
  <g id="title" style="font-style:oblique;font-weight:700;font-size:72px;line-height:1;font-family:Averta;font-variant-ligatures:none;text-align:center;text-anchor:middle" aria-label="Nonuniversityo7"> 
   <path id="path65413" style="font-style: oblique; font-weight: 700; font-size: 72px; line-height: 1; font-family: Averta; font-variant-ligatures: none; text-align: center; text-anchor: middle; fill: rgb(51, 51, 51);" d="m 270.26562,68.88 -6.264,51.12 h 11.16001 l 3.88799,-30.888 h 0.216 l 13.176,30.888 h 11.16001 l 6.336,-51.12 h -11.23201 l -3.88799,31.608 -0.216,0.072 -13.53601,-31.68 z" transform="translate(0 325.741) translate(245.56625000000008 33.932) scale(0.75) translate(-264.00162 -68.88)"></path> 
   <path id="path65415" style="font-style: oblique; font-weight: 700; font-size: 72px; line-height: 1; font-family: Averta; font-variant-ligatures: none; text-align: center; text-anchor: middle; fill: rgb(51, 51, 51);" d="m 327.545,120.648 c 13.464,0 19.584,-10.008 19.584,-21.456 0,-9.576 -5.976,-15.048 -15.048,-15.048 -12.384,0 -19.44,10.08 -19.44,21.384 0,9.648 5.976,15.12 14.904,15.12 z M 328.337,111 c -2.304,0 -4.752,-1.872 -4.752,-6.048 0,-5.4 2.88,-11.16 7.632,-11.16 1.944,0 4.968,1.08 4.968,6.12 0,5.76 -3.096,11.088 -7.848,11.088 z" transform="translate(0 325.741) translate(293.2957850000001 45.38000000000001) scale(0.75) translate(-312.641 -84.144)"></path> 
   <path id="path65417" style="font-style: oblique; font-weight: 700; font-size: 72px; line-height: 1; font-family: Averta; font-variant-ligatures: none; text-align: center; text-anchor: middle; fill: rgb(51, 51, 51);" d="m 355.34825,84.792 -4.392,35.208 h 10.8 l 1.584,-13.032 c 1.152,-8.784 5.76,-13.176 9,-13.176 2.304,0 2.736,2.232 2.088,7.128 l -2.52,19.08 h 10.728 l 2.808,-21.528 c 1.296,-9.864 -1.44,-14.328 -8.136,-14.328 -4.608,0 -8.496,1.944 -11.664,5.616 l -0.144,-0.072 0.576,-4.896 z" transform="translate(0 325.741) translate(333.28222250000005 45.38000000000001) scale(0.75) translate(-350.95625 -84.144)"></path> 
   <path id="path65419" style="font-style: oblique; font-weight: 700; font-size: 72px; line-height: 1; font-family: Averta; font-variant-ligatures: none; text-align: center; text-anchor: middle; fill: rgb(52, 56, 45);" d="m 400.55525,120.648 c 4.392,0 7.848,-2.304 10.44,-5.832 h 0.144 l -0.432,5.184 h 10.584 l 4.32,-35.208 h -10.8 l -1.944,16.128 c -0.648,5.184 -4.896,10.08 -7.92,10.08 -2.52,0 -3.096,-1.872 -2.304,-7.56 l 2.664,-18.648 h -10.728 l -3.024,21.888 c -1.512,10.44 2.448,13.968 9,13.968 z" transform="translate(0 325.741) translate(374.7404375000001 45.866) scale(0.75) translate(-391.23387 -84.792)"></path> 
   <path id="path65421" style="font-style: oblique; font-weight: 700; font-size: 72px; line-height: 1; font-family: Averta; font-variant-ligatures: none; text-align: center; text-anchor: middle; fill: rgb(52, 56, 45);" d="m 433.53575,84.792 -4.392,35.208 h 10.8 l 1.584,-13.032 c 1.152,-8.784 5.76,-13.176 9,-13.176 2.304,0 2.736,2.232 2.088,7.128 l -2.52,19.08 h 10.728 l 2.808,-21.528 c 1.296,-9.864 -1.44,-14.328 -8.136,-14.328 -4.608,0 -8.496,1.944 -11.664,5.616 l -0.144,-0.072 0.576,-4.896 z" transform="translate(0 325.741) translate(414.42284750000005 45.38000000000001) scale(0.75) translate(-429.14375 -84.144)"></path> 
   <path id="path65423" style="font-style: oblique; font-weight: 700; font-size: 72px; line-height: 1; font-family: Averta; font-variant-ligatures: none; text-align: center; text-anchor: middle; fill: rgb(52, 56, 45);" d="m 479.82275,80.256 c 3.96,0 6.696,-2.736 6.696,-6.408 0,-3.528 -2.592,-6.12 -6.48,-6.12 -3.96,0 -6.696,2.664 -6.696,6.336 0,3.528 2.664,6.192 6.48,6.192 z m -6.696,4.536 -4.32,35.208 h 10.8 l 4.32,-35.208 z" transform="translate(0 325.741) translate(455.42009750000005 33.068) scale(0.75) translate(-468.80675 -67.728)"></path> 
   <path id="path65425" style="font-style: oblique; font-weight: 700; font-size: 72px; line-height: 1; font-family: Averta; font-variant-ligatures: none; text-align: center; text-anchor: middle; fill: rgb(52, 56, 45);" d="m 499.73637,120.648 c 9.504,0 18.648,-5.4 20.952,-21.384 0.72,-4.896 0.72,-9.936 -0.072,-14.472 h -10.8 c 0.64801,4.608 0.72001,8.136 0.072,12.312 -1.512,10.872 -5.832,13.896 -8.27999,13.896 -2.37601,0 -2.59201,-2.88 -1.94401,-7.992 l 2.232,-18.216 h -10.656 l -2.592,20.448 c -1.08,9.144 1.944,15.408 11.088,15.408 z" transform="translate(0 325.741) translate(481.394735 45.866) scale(0.75) translate(-488.4396 -84.792)"></path> 
   <path id="path65427" style="font-style: oblique; font-weight: 700; font-size: 72px; line-height: 1; font-family: Averta; font-variant-ligatures: none; text-align: center; text-anchor: middle; fill: rgb(52, 56, 45);" d="m 555.60163,93.864 c 0.072,-6.624 -6.33601,-9.72 -12.02401,-9.72 -11.87999,0 -19.296,9.792 -19.296,21.744 -0.072,9.144 5.832,14.76 14.688,14.76 6.912,0 11.59201,-2.592 15.336,-7.704 l -8.064,-4.752 c -1.94399,2.592 -4.032,3.528 -6.408,3.528 -2.08799,0 -4.39199,-1.296 -5.03999,-4.464 10.36799,-1.08 20.66399,-4.464 20.808,-13.392 z m -10.36801,1.512 c -0.072,3.456 -4.824,4.824 -10.07999,5.4 1.22399,-4.896 4.39199,-7.632 7.48799,-7.632 1.65601,0 2.664,0.792 2.592,2.232 z" transform="translate(0 325.741) translate(519.5257625 45.38000000000001) scale(0.75) translate(-524.28097 -84.144)"></path> 
   <path id="path65429" style="font-style: oblique; font-weight: 700; font-size: 72px; line-height: 1; font-family: Averta; font-variant-ligatures: none; text-align: center; text-anchor: middle; fill: rgb(52, 56, 45);" d="m 562.77012,84.792 -4.32,35.208 h 10.80001 l 1.58399,-13.536 c 1.29601,-8.352 5.616,-12.24 10.80001,-10.368 l 1.51199,-11.952 c -3.888,0 -7.34399,1.872 -10.07999,5.472 h -0.144 l 0.64799,-4.824 z" transform="translate(0 325.741) translate(556.402625 45.38000000000001) scale(0.75) translate(-558.45012 -84.144)"></path> 
   <path id="path65431" style="font-style: oblique; font-weight: 700; font-size: 72px; line-height: 1; font-family: Averta; font-variant-ligatures: none; text-align: center; text-anchor: middle; fill: rgb(52, 56, 45);" d="m 595.56725,120.648 c 8.568,0 13.968,-4.536 13.968,-11.448 0,-5.544 -3.744,-8.064 -9.216,-10.8 -3.24,-1.584 -4.968,-2.736 -4.968,-3.888 0,-1.368 1.368,-2.16 2.808,-2.16 1.656,0.072 4.104,0.936 6.048,3.6 l 6.552,-6.192 c -3.168,-3.816 -7.92,-5.616 -12.672,-5.616 -7.272,0 -13.032,4.68 -13.032,11.736 0,5.184 3.24,8.064 8.568,10.728 4.032,2.088 5.472,2.664 5.472,3.96 0,1.224 -1.368,1.944 -3.24,1.944 -2.736,0 -5.904,-1.656 -7.992,-4.176 l -6.048,6.264 c 3.096,3.888 8.712,6.048 13.752,6.048 z" transform="translate(0 325.741) translate(585.1764725 45.38000000000001) scale(0.75) translate(-581.81525 -84.144)"></path> 
   <path id="path65433" style="font-style: oblique; font-weight: 700; font-size: 72px; line-height: 1; font-family: Averta; font-variant-ligatures: none; text-align: center; text-anchor: middle; fill: rgb(52, 56, 45);" d="m 625.36963,80.256 c 3.95999,0 6.69599,-2.736 6.69599,-6.408 0,-3.528 -2.592,-6.12 -6.47999,-6.12 -3.96,0 -6.696,2.664 -6.696,6.336 0,3.528 2.66399,6.192 6.48,6.192 z m -6.696,4.536 -4.32001,35.208 h 10.80001 l 4.31999,-35.208 z" transform="translate(0 325.741) translate(620.83025 33.068) scale(0.75) translate(-614.35362 -67.728)"></path> 
   <path id="path65435" style="font-style: oblique; font-weight: 700; font-size: 72px; line-height: 1; font-family: Averta; font-variant-ligatures: none; text-align: center; text-anchor: middle; fill: rgb(52, 56, 45);" d="m 643.63062,120.648 c 3.24001,0 6.40801,-0.792 9.43201,-2.448 l -1.72801,-8.424 c -1.36799,0.72 -2.592,1.152 -3.52799,1.152 -1.15201,0 -1.87201,-0.936 -1.58401,-2.952 l 1.728,-14.472 h 7.272 l 1.08001,-8.712 h -7.27201 l 1.51201,-12.456 -11.01601,2.16 -1.36799,10.296 h -3.45601 l -1.08,8.712 h 3.456 l -1.87199,15.912 c -1.00801,8.136 2.952,11.232 8.42399,11.232 z" transform="translate(0 325.741) translate(646.5319999999999 36.524) scale(0.75) translate(-633.62262 -72.336)"></path> 
   <path id="path65437" style="font-style: oblique; font-weight: 700; font-size: 72px; line-height: 1; font-family: Averta; font-variant-ligatures: none; text-align: center; text-anchor: middle; fill: rgb(52, 56, 45);" d="m 692.864,84.792 h -10.728 l -2.016,16.056 c -0.576,5.04 -4.824,10.152 -7.92,10.152 -2.592,0 -3.096,-1.872 -2.304,-7.56 l 2.592,-18.648 H 661.76 l -3.024,21.888 c -1.512,10.44 2.376,13.968 9,13.968 4.392,0 7.848,-2.232 10.44,-5.76 l 0.216,0.072 v 0.072 c -1.296,9.36 -4.896,11.016 -9.72,11.016 -2.88,0 -5.832,-0.792 -8.784,-2.736 l -3.384,8.136 c 4.104,2.52 8.496,3.456 12.744,3.456 8.928,0 18,-3.744 19.872,-19.656 z" transform="translate(0 325.741) translate(674.943035 45.866) scale(0.75) translate(-656.504 -84.792)"></path> 
   <path id="path65439" style="font-style: oblique; font-weight: 700; font-size: 72px; line-height: 1; font-family: Averta; font-variant-ligatures: none; text-align: center; text-anchor: middle; fill: rgb(54, 61, 41);" d="m 711.31062,120.648 c 13.46401,0 19.58401,-10.008 19.58401,-21.456 0,-9.576 -5.976,-15.048 -15.048,-15.048 -12.38401,0 -19.44001,10.08 -19.44001,21.384 0,9.648 5.976,15.12 14.904,15.12 z m 0.792,-9.648 c -2.30399,0 -4.75199,-1.872 -4.75199,-6.048 0,-5.4 2.88,-11.16 7.63199,-11.16 1.94401,0 4.968,1.08 4.968,6.12 0,5.76 -3.096,11.088 -7.848,11.088 z" transform="translate(0 325.741) translate(716.1199999999999 45.38000000000001) scale(0.75) translate(-696.40662 -84.144)"></path> 
   <path id="path65441" style="font-style: oblique; font-weight: 700; font-size: 72px; line-height: 1; font-family: Averta; font-variant-ligatures: none; text-align: center; text-anchor: middle; fill: rgb(54, 61, 41);" d="m 764.49162,70.536 h -27.864 l -1.22399,10.08 h 15.48 l -17.56801,38.52 11.08801,2.016 19.22399,-43.344 z" transform="translate(0 325.741) translate(755.0517499999999 35.17400000000001) scale(0.75) translate(-733.31562 -70.536)"></path> 
  </g> 
  <g id="tagline" style="font-style:normal;font-weight:500;font-size:32px;line-height:1;font-family:Raleway;font-variant-ligatures:none;text-align:center;text-anchor:middle"></g> 
 </g> 
</svg>