<svg xmlns:dc="http://purl.org/dc/elements/1.1/" xmlns:cc="http://creativecommons.org/ns#" xmlns:rdf="http://www.w3.org/1999/02/22-rdf-syntax-ns#" xmlns:svg="http://www.w3.org/2000/svg" xmlns="http://www.w3.org/2000/svg" id="svg252642" viewbox="0 0 1024 768" height="768px" width="1024px" version="1.1"> <metadata id="metadata252648"> 
  <rdf:rdf> 
   <cc:work rdf:about=""> 
    <dc:format>
     image/svg+xml
    </dc:format> 
    <dc:type rdf:resource="http://purl.org/dc/dcmitype/StillImage"></dc:type> 
   </cc:work> 
  </rdf:rdf> 
 </metadata> <defs id="defs252646"></defs> <g id="logo-group"> 
  <g id="title" style="font-style:normal;font-weight:700;font-size:72px;line-height:1;font-family:Jura;font-variant-ligatures:none;text-align:center;text-anchor:middle" aria-label="Nonnewso7"> 
   <path id="path252650" style="font-style: normal; font-weight: 700; font-size: 72px; line-height: 1; font-family: Jura; font-variant-ligatures: none; text-align: center; text-anchor: middle; fill: rgb(251, 243, 242);" d="m 344.98419,71.184 q 1.44,0 2.232,0.792 0.792,0.792 0.792,2.232 v 42.768 q 0,1.44 -0.792,2.232 -0.792,0.792 -2.232,0.792 -0.864,0 -1.584,-0.432 -0.72,-0.432 -1.44,-1.368 l -27.432,-35.352 v 34.128 q 0,1.44 -0.792,2.232 -0.792,0.792 -2.232,0.792 -1.44,0 -2.232,-0.792 -0.792,-0.792 -0.792,-2.232 V 74.208 q 0,-1.44 0.792,-2.232 0.792,-0.792 2.232,-0.792 0.864,0 1.512,0.432 0.72,0.432 1.512,1.368 l 27.432,35.352 V 74.208 q 0,-1.44 0.792,-2.232 0.792,-0.792 2.232,-0.792 z" transform="translate(0 295.05048295364384) translate(251.99999999999994 60.82855625395243) scale(1.1521206486563331) translate(-308.48019 -71.184)"></path> 
   <path id="path252652" style="font-style: normal; font-weight: 700; font-size: 72px; line-height: 1; font-family: Jura; font-variant-ligatures: none; text-align: center; text-anchor: middle; fill: rgb(251, 243, 242);" d="m 375.42669,120 q -7.2,0 -10.656,-3.456 -3.456,-3.456 -3.456,-10.584 v -8.352 q 0,-7.2 3.456,-10.656 3.456,-3.456 10.656,-3.456 h 5.904 q 7.2,0 10.656,3.456 3.456,3.456 3.456,10.656 v 8.28 q 0,7.2 -3.456,10.656 -3.456,3.456 -10.656,3.456 z m 5.904,-6.048 q 3.168,0 4.896,-0.72 1.728,-0.72 2.448,-2.448 0.72,-1.728 0.72,-4.896 v -8.28 q 0,-3.168 -0.72,-4.896 -0.72,-1.728 -2.448,-2.448 -1.728,-0.72 -4.896,-0.72 h -5.904 q -3.24,0 -4.968,0.72 -1.656,0.72 -2.376,2.448 -0.72,1.656 -0.72,4.896 v 8.352 q 0,3.168 0.72,4.896 0.72,1.656 2.448,2.376 1.728,0.72 4.896,0.72 z" transform="translate(0 295.05048295364384) translate(318.6323216547146 75.01346568020918) scale(1.1521206486563331) translate(-361.31469 -83.496)"></path> 
   <path id="path252654" style="font-style: normal; font-weight: 700; font-size: 72px; line-height: 1; font-family: Jura; font-variant-ligatures: none; text-align: center; text-anchor: middle; fill: rgb(251, 243, 242);" d="m 428.04181,83.496 q 7.2,0 10.656,3.456 3.456,3.456 3.456,10.656 v 19.368 q 0,1.44 -0.792,2.232 -0.792,0.792 -2.232,0.792 -1.44,0 -2.232,-0.792 -0.792,-0.792 -0.792,-2.232 V 97.608 q 0,-3.168 -0.72,-4.896 -0.72,-1.728 -2.448,-2.448 -1.728,-0.72 -4.896,-0.72 h -2.016 q -4.536,0 -7.704,1.08 -3.096,1.008 -3.528,3.024 v 23.328 q 0,1.44 -0.792,2.232 -0.792,0.792 -2.232,0.792 -1.44,0 -2.232,-0.792 -0.792,-0.792 -0.792,-2.232 V 86.52 q 0,-3.024 3.024,-3.024 3.024,0 3.024,3.024 v 1.224 q 3.816,-4.248 11.232,-4.248 z" transform="translate(0 295.05048295364384) translate(379.03929763889266 75.01346568020918) scale(1.1521206486563331) translate(-408.74581 -83.496)"></path> 
   <path id="path252656" style="font-style: normal; font-weight: 700; font-size: 72px; line-height: 1; font-family: Jura; font-variant-ligatures: none; text-align: center; text-anchor: middle; fill: rgb(251, 243, 242);" d="m 475.71369,83.496 q 7.2,0 10.656,3.456 3.456,3.456 3.456,10.656 v 19.368 q 0,1.44 -0.792,2.232 -0.792,0.792 -2.232,0.792 -1.44,0 -2.232,-0.792 -0.792,-0.792 -0.792,-2.232 V 97.608 q 0,-3.168 -0.72,-4.896 -0.72,-1.728 -2.448,-2.448 -1.728,-0.72 -4.896,-0.72 h -2.016 q -4.536,0 -7.704,1.08 -3.096,1.008 -3.528,3.024 v 23.328 q 0,1.44 -0.792,2.232 -0.792,0.792 -2.232,0.792 -1.44,0 -2.232,-0.792 -0.792,-0.792 -0.792,-2.232 V 86.52 q 0,-3.024 3.024,-3.024 3.024,0 3.024,3.024 v 1.224 q 3.816,-4.248 11.232,-4.248 z" transform="translate(0 295.05048295364384) translate(439.72365819044114 75.01346568020918) scale(1.1521206486563331) translate(-456.41769 -83.496)"></path> 
   <path id="path252658" style="font-style: normal; font-weight: 700; font-size: 72px; line-height: 1; font-family: Jura; font-variant-ligatures: none; text-align: center; text-anchor: middle; fill: rgb(251, 243, 242);" d="m 508.40956,104.232 v 1.728 q 0,3.168 0.72,4.896 0.72,1.656 2.448,2.376 1.728,0.72 4.896,0.72 h 5.904 q 3.672,0 5.4,-0.648 1.8,-0.72 2.376,-2.448 0.432,-1.44 1.152,-2.088 0.72,-0.72 2.088,-0.72 1.368,0 2.088,0.648 0.792,0.576 0.792,1.728 0,0.504 -0.072,0.72 -1.584,8.856 -13.824,8.856 h -5.904 q -7.2,0 -10.656,-3.456 -3.456,-3.456 -3.456,-10.584 v -8.352 q 0,-7.272 3.456,-10.728 3.456,-3.456 10.656,-3.384 h 5.904 q 7.2,0 10.656,3.456 3.456,3.456 3.456,10.656 v 3.6 q 0,1.44 -0.792,2.232 -0.792,0.792 -2.232,0.792 z m 0,-6.048 h 22.032 v -0.576 q 0,-3.168 -0.72,-4.896 -0.72,-1.728 -2.448,-2.448 -1.728,-0.72 -4.896,-0.72 h -5.904 q -3.168,-0.072 -4.896,0.648 -1.728,0.72 -2.448,2.448 -0.72,1.728 -0.72,4.968 z" transform="translate(0 295.05048295364384) translate(498.41714273990505 75.01177321497633) scale(1.1521206486563331) translate(-502.36156 -83.494531)"></path> 
   <path id="path252660" style="font-style: normal; font-weight: 700; font-size: 72px; line-height: 1; font-family: Jura; font-variant-ligatures: none; text-align: center; text-anchor: middle; fill: rgb(251, 243, 242);" d="m 590.43444,83.712 q 2.088,0.792 2.088,2.52 0,0.72 -0.288,1.368 l -10.944,29.952 q -0.864,2.448 -3.384,2.448 -2.664,0 -3.312,-2.52 l -7.056,-23.544 -7.632,23.616 q -0.36,1.152 -1.224,1.8 -0.792,0.648 -1.944,0.648 -2.304,0 -3.168,-2.448 l -10.008,-30.096 q -0.216,-0.648 -0.216,-1.224 0,-1.872 2.16,-2.52 0.72,-0.216 1.296,-0.216 1.728,0 2.52,2.16 l 7.92,23.544 7.416,-23.544 q 0.72,-2.376 3.456,-2.376 2.52,0 3.24,2.52 l 7.056,23.4 8.136,-23.616 q 0.792,-2.16 2.52,-2.16 0.36,0 1.368,0.288 z" transform="translate(0 295.05048295364384) translate(551.3972725138888 74.76460762009944) scale(1.1521206486563331) translate(-543.34644 -83.28)"></path> 
   <path id="path252662" style="font-style: normal; font-weight: 700; font-size: 72px; line-height: 1; font-family: Jura; font-variant-ligatures: none; text-align: center; text-anchor: middle; fill: rgb(251, 243, 242);" d="m 611.09506,120 q -9.144,0 -10.656,-7.56 -0.072,-0.216 -0.072,-0.648 0,-1.224 0.792,-1.872 0.864,-0.72 2.232,-0.72 1.368,0 2.088,0.72 0.72,0.648 1.152,2.232 0.432,1.08 1.368,1.44 1.008,0.36 3.096,0.36 h 11.808 q 2.808,0 3.744,-0.936 1.008,-0.936 1.008,-3.816 0,-2.88 -1.008,-3.816 -0.936,-0.936 -3.744,-0.936 h -11.592 q -10.44,0 -10.44,-10.44 0,-5.328 2.592,-7.92 2.592,-2.592 7.848,-2.592 h 11.232 q 8.496,0 10.008,7.128 0.072,0.216 0.072,0.648 0,1.152 -0.864,1.872 -0.792,0.648 -2.16,0.648 -1.368,0 -2.088,-0.648 -0.648,-0.72 -1.08,-2.16 -0.432,-0.864 -1.296,-1.152 -0.864,-0.288 -2.592,-0.288 h -11.232 q -1.872,0 -2.808,0.36 -0.936,0.288 -1.296,1.224 -0.288,0.936 -0.288,2.88 0,2.592 0.864,3.528 0.864,0.864 3.528,0.864 h 11.592 q 10.8,0 10.8,10.8 0,10.8 -10.8,10.8 z" transform="translate(0 295.05048295364384) translate(622.8525094583567 75.01346568020918) scale(1.1521206486563331) translate(-600.36706 -83.496)"></path> 
   <path id="path252664" style="font-style: normal; font-weight: 700; font-size: 72px; line-height: 1; font-family: Jura; font-variant-ligatures: none; text-align: center; text-anchor: middle; fill: rgb(251, 243, 242);" d="m 658.92669,120 q -7.2,0 -10.656,-3.456 -3.456,-3.456 -3.456,-10.584 v -8.352 q 0,-7.2 3.456,-10.656 3.456,-3.456 10.656,-3.456 h 5.904 q 7.2,0 10.656,3.456 3.456,3.456 3.456,10.656 v 8.28 q 0,7.2 -3.456,10.656 -3.456,3.456 -10.656,3.456 z m 5.904,-6.048 q 3.168,0 4.896,-0.72 1.728,-0.72 2.448,-2.448 0.72,-1.728 0.72,-4.896 v -8.28 q 0,-3.168 -0.72,-4.896 -0.72,-1.728 -2.448,-2.448 -1.728,-0.72 -4.896,-0.72 h -5.904 q -3.24,0 -4.968,0.72 -1.656,0.72 -2.376,2.448 -0.72,1.656 -0.72,4.896 v 8.352 q 0,3.168 0.72,4.896 0.72,1.656 2.448,2.376 1.728,0.72 4.896,0.72 z" transform="translate(0 295.05048295364384) translate(679.8221450084751 75.01346568020918) scale(1.1521206486563331) translate(-644.81469 -83.496)"></path> 
   <path id="path252666" style="font-style: normal; font-weight: 700; font-size: 72px; line-height: 1; font-family: Jura; font-variant-ligatures: none; text-align: center; text-anchor: middle; fill: rgb(251, 243, 242);" d="m 698.86981,120 q -1.44,0 -2.232,-0.792 -0.792,-0.792 -0.72,-2.376 0.144,-7.416 1.224,-11.952 1.08,-4.536 3.312,-7.56 2.232,-3.024 6.336,-5.904 3.312,-2.592 4.968,-5.904 1.656,-3.384 1.944,-8.28 h -22.752 q -1.44,0 -2.232,-0.792 -0.792,-0.792 -0.792,-2.232 0,-1.44 0.792,-2.232 0.792,-0.792 2.232,-0.792 h 25.848 q 1.44,0 2.232,0.792 0.792,0.792 0.792,2.232 0,7.704 -2.304,13.032 -2.232,5.328 -7.2,9.072 -3.312,2.304 -5.04,4.68 -1.656,2.376 -2.448,6.048 -0.72,3.6 -0.864,9.792 -0.144,3.168 -3.096,3.168 z" transform="translate(0 295.05048295364384) translate(735.2519597904576 60.82855625395243) scale(1.1521206486563331) translate(-687.92581 -71.184)"></path> 
  </g> 
  <g id="tagline" style="font-style:normal;font-weight:500;font-size:32px;line-height:1;font-family:Roboto;font-variant-ligatures:none;text-align:center;text-anchor:middle"></g> 
 </g> 
</svg>