<svg xmlns:dc="http://purl.org/dc/elements/1.1/" xmlns:cc="http://creativecommons.org/ns#" xmlns:rdf="http://www.w3.org/1999/02/22-rdf-syntax-ns#" xmlns:svg="http://www.w3.org/2000/svg" xmlns="http://www.w3.org/2000/svg" id="svg493766" viewbox="0 0 1024 768" height="768px" width="1024px" version="1.1"> <metadata id="metadata493772"> 
  <rdf:rdf> 
   <cc:work rdf:about=""> 
    <dc:format>
     image/svg+xml
    </dc:format> 
    <dc:type rdf:resource="http://purl.org/dc/dcmitype/StillImage"></dc:type> 
   </cc:work> 
  </rdf:rdf> 
 </metadata> <defs id="defs493770"></defs> <g id="logo-group"> 
  <g id="title" style="font-style:normal;font-weight:500;font-size:72px;line-height:1;font-family:'Raleway Medium Alt1';font-variant-ligatures:none;text-align:center;text-anchor:middle" aria-label="NORMALO7"> 
   <path id="path493774" style="font-style: normal; font-weight: 500; font-size: 72px; line-height: 1; font-family: &quot;Raleway Medium Alt1&quot;; font-variant-ligatures: none; text-align: center; text-anchor: middle; fill: rgb(89, 85, 120);" d="m 317.58875,120 h 6.48 V 91.272 l -6.48,-8.424 z m 36.72,-51.048 v 39.744 l -31.68,-39.816 h -5.04 v 3.888 l 6.48,8.208 31.248,39.024 h 5.472 V 68.952 Z" transform="translate(0 272.29443551866154) translate(252.0000000000001 72.23943906300177) scale(1.3176457471399794) translate(-317.58875 -68.88)"></path> 
   <path id="path493776" style="font-style: normal; font-weight: 500; font-size: 72px; line-height: 1; font-family: &quot;Raleway Medium Alt1&quot;; font-variant-ligatures: none; text-align: center; text-anchor: middle; fill: rgb(89, 85, 120);" d="m 411.083,97.248 c -0.216,1.512 -0.504,3.024 -1.008,4.464 -0.792,2.448 -1.944,4.608 -3.456,6.48 -1.512,1.872 -3.384,3.456 -5.472,4.608 -2.232,1.152 -4.68,1.728 -7.344,1.728 -2.664,0 -5.04,-0.504 -7.2,-1.656 -2.16,-1.08 -4.032,-2.592 -5.544,-4.464 -1.584,-1.872 -2.736,-3.96 -3.6,-6.408 -0.504,-1.512 -0.864,-3.096 -1.08,-4.752 h -6.552 c 0.216,2.304 0.72,4.608 1.584,6.768 1.08,3.168 2.736,5.904 4.896,8.352 2.088,2.448 4.608,4.392 7.56,5.832 2.952,1.44 6.264,2.16 9.864,2.16 3.456,0 6.624,-0.648 9.576,-2.088 2.952,-1.44 5.472,-3.312 7.632,-5.688 2.16,-2.376 3.816,-5.112 5.04,-8.28 0.864,-2.232 1.44,-4.608 1.728,-7.056 z M 377.459,87.096 c 0.792,-2.376 1.944,-4.464 3.456,-6.408 1.512,-1.872 3.384,-3.384 5.544,-4.536 2.16,-1.152 4.608,-1.728 7.344,-1.728 2.52,0 4.896,0.576 7.056,1.656 2.16,1.152 3.96,2.592 5.544,4.464 1.584,1.872 2.736,3.96 3.6,6.408 0.432,1.296 0.792,2.664 1.008,3.96 h 6.552 c -0.288,-1.944 -0.792,-3.96 -1.44,-5.832 -1.152,-3.096 -2.808,-5.832 -4.896,-8.352 -2.16,-2.448 -4.68,-4.392 -7.56,-5.904 -2.952,-1.512 -6.264,-2.304 -9.792,-2.304 -3.528,0 -6.696,0.72 -9.648,2.16 -2.952,1.44 -5.472,3.312 -7.632,5.688 -2.16,2.448 -3.888,5.184 -5.112,8.28 -0.792,2.088 -1.368,4.176 -1.584,6.264 h 6.552 c 0.216,-1.224 0.576,-2.52 1.008,-3.816 z" transform="translate(0 272.29443551866154) translate(320.8315079505352 71.76508659403139) scale(1.3176457471399794) translate(-369.827 -68.52)"></path> 
   <path id="path493778" style="font-style: normal; font-weight: 500; font-size: 72px; line-height: 1; font-family: &quot;Raleway Medium Alt1&quot;; font-variant-ligatures: none; text-align: center; text-anchor: middle; fill: rgb(89, 85, 120);" d="m 453.49437,100.416 c 1.584,-0.36 3.096,-1.08 4.392,-2.088 1.296,-0.936 2.44801,-2.088 3.384,-3.456 0.936,-1.296 1.656,-2.808 2.16001,-4.464 0.50399,-1.656 0.79199,-3.384 0.79199,-5.184 0,-2.016 -0.432,-3.96 -1.15199,-5.904 -0.79201,-1.944 -1.87201,-3.672 -3.24001,-5.256 -1.368,-1.584 -3.024,-2.808 -4.896,-3.744 -1.872,-0.936 -3.96,-1.44 -6.192,-1.44 h -21.888 V 120 h 6.48001 v -18.36 h 6.47999 l -3.59999,-5.76 h -2.88 V 74.64 h 15.048 c 1.224,0 2.37599,0.288 3.52799,0.864 1.152,0.576 2.088,1.296 2.952,2.304 0.86401,1.008 1.512,2.088 2.016,3.384 0.50401,1.296 0.792,2.664 0.792,4.032 0,1.44 -0.21599,2.736 -0.648,4.032 -0.504,1.368 -1.08,2.448 -1.8,3.456 -0.79199,1.008 -1.728,1.8 -2.808,2.304 -1.07999,0.576 -2.304,0.864 -3.6,0.864 h -5.688 l 3.74401,5.76 11.66399,18.36 h 7.344 z" transform="translate(0 272.29443551866154) translate(395.9733795016133 72.23943906300177) scale(1.3176457471399794) translate(-426.85437 -68.88)"></path> 
   <path id="path493780" style="font-style: normal; font-weight: 500; font-size: 72px; line-height: 1; font-family: &quot;Raleway Medium Alt1&quot;; font-variant-ligatures: none; text-align: center; text-anchor: middle; fill: rgb(89, 85, 120);" d="M 474.10437,68.88 V 120 h 6.48001 V 80.472 l 11.44799,20.448 3.45601,-5.904 -14.54401,-26.136 z m 43.92,0 -18.576,33.192 -3.384,5.904 1.584,2.808 h 3.67201 L 518.31237,80.472 V 120 h 6.48 V 68.88 Z" transform="translate(0 272.29443551866154) translate(458.23214105397733 72.23943906300177) scale(1.3176457471399794) translate(-474.10437 -68.88)"></path> 
   <path id="path493782" style="font-style: normal; font-weight: 500; font-size: 72px; line-height: 1; font-family: &quot;Raleway Medium Alt1&quot;; font-variant-ligatures: none; text-align: center; text-anchor: middle; fill: rgb(89, 85, 120);" d="m 560.79575,75.864 -2.808,7.632 6.48,16.488 h -12.816 l -1.944,5.04 h 16.2 l 6.048,14.976 h 6.912 z m -2.808,-6.984 h -5.472 l -20.952,51.12 h 6.624 l 17.064,-43.632 z" transform="translate(0 272.29443551866154) translate(533.9432487442773 72.23943906300177) scale(1.3176457471399794) translate(-531.56375 -68.88)"></path> 
   <path id="path493784" style="font-style: normal; font-weight: 500; font-size: 72px; line-height: 1; font-family: &quot;Raleway Medium Alt1&quot;; font-variant-ligatures: none; text-align: center; text-anchor: middle; fill: rgb(89, 85, 120);" d="M 585.76062,114.24 V 120 h 34.992 v -5.76 z m 6.48001,-45.36 h -6.48001 v 38.88 h 6.48001 z" transform="translate(0 272.29443551866154) translate(605.3555240080757 72.23943906300177) scale(1.3176457471399794) translate(-585.76062 -68.88)"></path> 
   <path id="path493786" style="font-style: normal; font-weight: 500; font-size: 72px; line-height: 1; font-family: &quot;Raleway Medium Alt1&quot;; font-variant-ligatures: none; text-align: center; text-anchor: middle; fill: rgb(110, 111, 141);" d="m 664.34862,97.248 c -0.216,1.512 -0.504,3.024 -1.00799,4.464 -0.792,2.448 -1.94401,4.608 -3.456,6.48 -1.51201,1.872 -3.384,3.456 -5.472,4.608 -2.23201,1.152 -4.68001,1.728 -7.34401,1.728 -2.664,0 -5.03999,-0.504 -7.2,-1.656 -2.16,-1.08 -4.03199,-2.592 -5.544,-4.464 -1.58399,-1.872 -2.736,-3.96 -3.6,-6.408 -0.50399,-1.512 -0.86399,-3.096 -1.07999,-4.752 h -6.55201 c 0.216,2.304 0.72001,4.608 1.584,6.768 1.08,3.168 2.73601,5.904 4.89601,8.352 2.08799,2.448 4.60799,4.392 7.55999,5.832 2.952,1.44 6.264,2.16 9.864,2.16 3.456,0 6.62401,-0.648 9.57601,-2.088 2.952,-1.44 5.47199,-3.312 7.63199,-5.688 2.16001,-2.376 3.816,-5.112 5.04001,-8.28 0.86399,-2.232 1.43999,-4.608 1.72799,-7.056 z m -33.624,-10.152 c 0.792,-2.376 1.94401,-4.464 3.456,-6.408 1.51201,-1.872 3.384,-3.384 5.54401,-4.536 2.16,-1.152 4.60799,-1.728 7.34399,-1.728 2.52,0 4.896,0.576 7.05601,1.656 2.15999,1.152 3.95999,2.592 5.544,4.464 1.58399,1.872 2.73599,3.96 3.6,6.408 0.43199,1.296 0.79199,2.664 1.00799,3.96 h 6.552 c -0.288,-1.944 -0.792,-3.96 -1.43999,-5.832 -1.15201,-3.096 -2.808,-5.832 -4.89601,-8.352 -2.16,-2.448 -4.67999,-4.392 -7.55999,-5.904 -2.952,-1.512 -6.264,-2.304 -9.79201,-2.304 -3.528,0 -6.696,0.72 -9.648,2.16 -2.952,1.44 -5.472,3.312 -7.63199,5.688 -2.16001,2.448 -3.88801,5.184 -5.11201,8.28 -0.79199,2.088 -1.368,4.176 -1.584,6.264 h 6.55201 c 0.216,-1.224 0.576,-2.52 1.00799,-3.816 z" transform="translate(0 272.29443551866154) translate(654.5458750403054 71.76508659403139) scale(1.3176457471399794) translate(-623.09262 -68.52)"></path> 
   <path id="path493788" style="font-style: normal; font-weight: 500; font-size: 72px; line-height: 1; font-family: &quot;Raleway Medium Alt1&quot;; font-variant-ligatures: none; text-align: center; text-anchor: middle; fill: rgb(110, 111, 141);" d="m 702.224,83.856 -22.896,45.288 h 7.2 l 25.704,-51.12 h -36.288 v 5.832 z" transform="translate(0 272.29443551866154) translate(724.1852711277844 84.28799177484977) scale(1.3176457471399794) translate(-675.944 -78.024)"></path> 
  </g> 
  <g id="tagline" style="font-style:oblique;font-weight:600;font-size:32px;line-height:1;font-family:Raleway;font-variant-ligatures:none;text-align:center;text-anchor:middle"></g> 
 </g> 
</svg>