<svg xmlns:dc="http://purl.org/dc/elements/1.1/" xmlns:cc="http://creativecommons.org/ns#" xmlns:rdf="http://www.w3.org/1999/02/22-rdf-syntax-ns#" xmlns:svg="http://www.w3.org/2000/svg" xmlns="http://www.w3.org/2000/svg" id="svg313503" viewbox="0 0 1024 768" height="768px" width="1024px" version="1.1"> <metadata id="metadata313509"> 
  <rdf:rdf> 
   <cc:work rdf:about=""> 
    <dc:format>
     image/svg+xml
    </dc:format> 
    <dc:type rdf:resource="http://purl.org/dc/dcmitype/StillImage"></dc:type> 
   </cc:work> 
  </rdf:rdf> 
 </metadata> <defs id="defs313507"></defs> <g id="logo-group"> 
  <g id="title" style="font-style:normal;font-weight:300;font-size:72px;line-height:1;font-family:'Montserrat Light Alt1';font-variant-ligatures:none;text-align:center;text-anchor:middle" aria-label="NORTHBAYO7"> 
   <path id="path313511" style="font-style: normal; font-weight: 300; font-size: 72px; line-height: 1; font-family: &quot;Montserrat Light Alt1&quot;; font-variant-ligatures: none; text-align: center; text-anchor: middle; fill: rgb(91, 90, 86);" d="m 303.70681,69.6 h -3.672 v 43.776 L 265.76281,69.6 h -3.096 V 120 h 3.672 V 76.224 l 34.344,43.776 h 3.024 z" transform="translate(0 305.4841546234285) translate(251.9999999999999 52.530114327103135) scale(1.0311798035503323) translate(-262.66681 -69.6)"></path> 
   <path id="path313513" style="font-style: normal; font-weight: 300; font-size: 72px; line-height: 1; font-family: &quot;Montserrat Light Alt1&quot;; font-variant-ligatures: none; text-align: center; text-anchor: middle; fill: rgb(91, 90, 86);" d="m 329.29944,117.048 c 3.96,2.232 8.424,3.312 13.392,3.312 4.896,0 9.36,-1.08 13.392,-3.312 3.96,-2.16 7.056,-5.256 9.36,-9.144 2.304,-3.888 3.456,-8.208 3.456,-13.104 0,-4.824 -1.152,-9.216 -3.456,-13.104 -2.304,-3.888 -5.4,-6.912 -9.36,-9.144 -4.032,-2.16 -8.496,-3.312 -13.392,-3.312 -4.968,0 -9.432,1.152 -13.392,3.384 -4.032,2.232 -7.128,5.256 -9.432,9.144 -2.304,3.888 -3.384,8.28 -3.384,13.032 0,4.824 1.08,9.144 3.384,13.032 2.304,3.888 5.4,6.984 9.432,9.216 z m 24.84,-2.952 c -3.456,1.944 -7.272,2.88 -11.448,2.88 -4.248,0 -8.064,-0.936 -11.52,-2.88 -3.456,-1.872 -6.12,-4.536 -8.064,-7.92 -2.016,-3.384 -2.952,-7.2 -2.952,-11.376 0,-4.176 0.936,-7.92 2.952,-11.304 1.944,-3.384 4.608,-6.048 8.064,-7.992 3.456,-1.872 7.272,-2.88 11.52,-2.88 4.176,0 7.992,1.008 11.448,2.88 3.384,1.944 6.048,4.608 8.064,7.992 1.944,3.384 2.952,7.128 2.952,11.304 0,4.176 -1.008,7.992 -2.952,11.376 -2.016,3.384 -4.68,6.048 -8.064,7.92 z" transform="translate(0 305.4841546234285) translate(307.49462195114074 52.15888959782501) scale(1.0311798035503323) translate(-316.48344 -69.24)"></path> 
   <path id="path313515" style="font-style: normal; font-weight: 300; font-size: 72px; line-height: 1; font-family: &quot;Montserrat Light Alt1&quot;; font-variant-ligatures: none; text-align: center; text-anchor: middle; fill: rgb(91, 90, 86);" d="m 408.20356,102.36 c 3.744,-1.08 6.696,-2.952 8.712,-5.688 2.016,-2.736 3.096,-6.048 3.096,-10.08 0,-5.256 -1.8,-9.432 -5.4,-12.456 -3.6,-3.024 -8.568,-4.536 -14.904,-4.536 h -18.072 v 3.312 h 18.072 c 5.328,0 9.432,1.224 12.312,3.6 2.808,2.376 4.248,5.76 4.248,10.08 0,4.392 -1.44,7.776 -4.248,10.152 -2.88,2.376 -6.984,3.528 -12.312,3.528 h -18.072 V 120 h 3.672 v -16.488 h 14.4 c 1.44,0 3.096,-0.072 4.896,-0.36 l 12.024,16.848 h 4.176 z" transform="translate(0 305.4841546234285) translate(374.6781722536284 52.530114327103135) scale(1.0311798035503323) translate(-381.63556 -69.6)"></path> 
   <path id="path313517" style="font-style: normal; font-weight: 300; font-size: 72px; line-height: 1; font-family: &quot;Montserrat Light Alt1&quot;; font-variant-ligatures: none; text-align: center; text-anchor: middle; fill: rgb(91, 90, 86);" d="M 442.47106,72.912 V 120 h 3.672 V 72.912 h 18.144 V 69.6 h -39.96 v 3.312 z" transform="translate(0 305.4841546234285) translate(418.7007848368974 52.530114327103135) scale(1.0311798035503323) translate(-424.32706 -69.6)"></path> 
   <path id="path313519" style="font-style: normal; font-weight: 300; font-size: 72px; line-height: 1; font-family: &quot;Montserrat Light Alt1&quot;; font-variant-ligatures: none; text-align: center; text-anchor: middle; fill: rgb(91, 90, 86);" d="m 514.36306,69.6 h -3.672 v 23.184 h -33.696 V 69.6 h -3.672 V 120 h 3.672 V 96.024 h 33.696 V 120 h 3.672 z" transform="translate(0 305.4841546234285) translate(469.22447049164947 52.530114327103135) scale(1.0311798035503323) translate(-473.32306 -69.6)"></path> 
   <path id="path313521" style="font-style: normal; font-weight: 300; font-size: 72px; line-height: 1; font-family: &quot;Montserrat Light Alt1&quot;; font-variant-ligatures: none; text-align: center; text-anchor: middle; fill: rgb(91, 90, 86);" d="m 570.12369,98.256 c -1.872,-2.16 -4.608,-3.528 -8.208,-4.248 2.52,-0.792 4.608,-2.232 6.12,-4.248 1.512,-1.944 2.304,-4.32 2.304,-7.272 0,-4.104 -1.584,-7.272 -4.608,-9.504 -3.024,-2.232 -7.272,-3.384 -12.744,-3.384 h -21.024 v 3.168 h 20.88 c 4.392,0 7.776,0.864 10.152,2.592 2.376,1.728 3.6,4.176 3.6,7.416 0,3.312 -1.224,5.832 -3.6,7.56 -2.376,1.728 -5.76,2.52 -10.152,2.52 h -20.88 v 3.168 h 22.464 c 4.824,0 8.568,0.864 11.088,2.52 2.52,1.728 3.816,4.32 3.816,7.848 0,3.6 -1.296,6.192 -3.816,7.92 -2.52,1.728 -6.192,2.52 -11.088,2.52 h -22.464 V 120 h 22.464 c 6.12,0 10.728,-1.152 13.896,-3.456 3.096,-2.304 4.68,-5.544 4.68,-9.864 0,-3.384 -1.008,-6.192 -2.88,-8.424 z" transform="translate(0 305.4841546234285) translate(529.6935038151172 52.530114327103135) scale(1.0311798035503323) translate(-531.96369 -69.6)"></path> 
   <path id="path313523" style="font-style: normal; font-weight: 300; font-size: 72px; line-height: 1; font-family: &quot;Montserrat Light Alt1&quot;; font-variant-ligatures: none; text-align: center; text-anchor: middle; fill: rgb(91, 90, 86);" d="m 604.53631,69.6 h -3.672 l -23.184,50.4 h 3.96 l 21.024,-46.368 21.096,46.368 h 3.96 z" transform="translate(0 305.4841546234285) translate(576.8355590457023 52.530114327103135) scale(1.0311798035503323) translate(-577.68031 -69.6)"></path> 
   <path id="path313525" style="font-style: normal; font-weight: 300; font-size: 72px; line-height: 1; font-family: &quot;Montserrat Light Alt1&quot;; font-variant-ligatures: none; text-align: center; text-anchor: middle; fill: rgb(91, 90, 86);" d="m 649.46881,102.648 20.304,-33.048 h -3.816 l -18.216,29.664 -18.216,-29.664 h -4.032 l 20.304,33.048 V 120 h 3.672 z" transform="translate(0 305.4841546234285) translate(626.1388434029526 52.530114327103135) scale(1.0311798035503323) translate(-625.49281 -69.6)"></path> 
   <path id="path313527" style="font-style: normal; font-weight: 300; font-size: 72px; line-height: 1; font-family: &quot;Montserrat Light Alt1&quot;; font-variant-ligatures: none; text-align: center; text-anchor: middle; fill: rgb(91, 90, 86);" d="m 684.79944,117.048 c 3.96,2.232 8.424,3.312 13.392,3.312 4.896,0 9.36,-1.08 13.392,-3.312 3.96,-2.16 7.056,-5.256 9.36,-9.144 2.304,-3.888 3.456,-8.208 3.456,-13.104 0,-4.824 -1.152,-9.216 -3.456,-13.104 -2.304,-3.888 -5.4,-6.912 -9.36,-9.144 -4.032,-2.16 -8.496,-3.312 -13.392,-3.312 -4.968,0 -9.432,1.152 -13.392,3.384 -4.032,2.232 -7.128,5.256 -9.432,9.144 -2.304,3.888 -3.384,8.28 -3.384,13.032 0,4.824 1.08,9.144 3.384,13.032 2.304,3.888 5.4,6.984 9.432,9.216 z m 24.84,-2.952 c -3.456,1.944 -7.272,2.88 -11.448,2.88 -4.248,0 -8.064,-0.936 -11.52,-2.88 -3.456,-1.872 -6.12,-4.536 -8.064,-7.92 -2.016,-3.384 -2.952,-7.2 -2.952,-11.376 0,-4.176 0.936,-7.92 2.952,-11.304 1.944,-3.384 4.608,-6.048 8.064,-7.992 3.456,-1.872 7.272,-2.88 11.52,-2.88 4.176,0 7.992,1.008 11.448,2.88 3.384,1.944 6.048,4.608 8.064,7.992 1.944,3.384 2.952,7.128 2.952,11.304 0,4.176 -1.008,7.992 -2.952,11.376 -2.016,3.384 -4.68,6.048 -8.064,7.92 z" transform="translate(0 305.4841546234285) translate(674.0790421132839 52.15888959782501) scale(1.0311798035503323) translate(-671.98344 -69.24)"></path> 
   <path id="path313529" style="font-style: normal; font-weight: 300; font-size: 72px; line-height: 1; font-family: &quot;Montserrat Light Alt1&quot;; font-variant-ligatures: none; text-align: center; text-anchor: middle; fill: rgb(91, 90, 86);" d="m 766.94356,69.6 h -36.144 v 12.96 h 3.6 v -9.648 h 28.296 L 741.23956,120 h 4.032 l 21.672,-47.808 z" transform="translate(0 305.4841546234285) translate(734.7290371804768 52.530114327103135) scale(1.0311798035503323) translate(-730.79956 -69.6)"></path> 
  </g> 
  <g id="tagline" style="font-style:normal;font-weight:400;font-size:32px;line-height:1;font-family:Montserrat;font-variant-ligatures:none;text-align:center;text-anchor:middle"></g> 
 </g> 
</svg>