<svg xmlns:dc="http://purl.org/dc/elements/1.1/" xmlns:cc="http://creativecommons.org/ns#" xmlns:rdf="http://www.w3.org/1999/02/22-rdf-syntax-ns#" xmlns:svg="http://www.w3.org/2000/svg" xmlns="http://www.w3.org/2000/svg" id="svg376709" viewbox="0 0 1024 768" height="768px" width="1024px" version="1.1"> <metadata id="metadata376715"> 
  <rdf:rdf> 
   <cc:work rdf:about=""> 
    <dc:format>
     image/svg+xml
    </dc:format> 
    <dc:type rdf:resource="http://purl.org/dc/dcmitype/StillImage"></dc:type> 
   </cc:work> 
  </rdf:rdf> 
 </metadata> <defs id="defs376713"></defs> <g id="logo-group"> 
  <g id="title" style="font-style:normal;font-weight:700;font-size:72px;line-height:1;font-family:Jura;font-variant-ligatures:none;text-align:center;text-anchor:middle" aria-label="Northo7"> 
   <path id="path376717" style="font-style: normal; font-weight: 700; font-size: 72px; line-height: 1; font-family: Jura; font-variant-ligatures: none; text-align: center; text-anchor: middle; fill: rgb(225, 216, 229);" d="m 409.32013,71.184 q 1.44,0 2.23199,0.792 0.79201,0.792 0.79201,2.232 v 42.768 q 0,1.44 -0.79201,2.232 -0.79199,0.792 -2.23199,0.792 -0.86401,0 -1.584,-0.432 -0.72001,-0.432 -1.44,-1.368 L 378.86412,82.848 v 34.128 q 0,1.44 -0.79199,2.232 -0.79201,0.792 -2.23201,0.792 -1.44,0 -2.232,-0.792 -0.792,-0.792 -0.792,-2.232 V 74.208 q 0,-1.44 0.792,-2.232 0.792,-0.792 2.232,-0.792 0.864,0 1.512,0.432 0.72001,0.432 1.512,1.368 l 27.43201,35.352 V 74.208 q 0,-1.44 0.79199,-2.232 0.79201,-0.792 2.23201,-0.792 z" transform="translate(0 229.18257865229657) translate(252.00000000000006 111.63826970519484) scale(1.8396025750898353) translate(-372.81612 -71.184)"></path> 
   <path id="path376719" style="font-style: normal; font-weight: 700; font-size: 72px; line-height: 1; font-family: Jura; font-variant-ligatures: none; text-align: center; text-anchor: middle; fill: rgb(225, 216, 229);" d="m 439.76263,120 q -7.2,0 -10.65601,-3.456 -3.456,-3.456 -3.456,-10.584 v -8.352 q 0,-7.2 3.456,-10.656 3.45601,-3.456 10.65601,-3.456 h 5.90399 q 7.2,0 10.65601,3.456 3.456,3.456 3.456,10.656 v 8.28 q 0,7.2 -3.456,10.656 Q 452.86662,120 445.66662,120 Z m 5.90399,-6.048 q 3.16801,0 4.89601,-0.72 1.72799,-0.72 2.44799,-2.448 0.72001,-1.728 0.72001,-4.896 v -8.28 q 0,-3.168 -0.72001,-4.896 -0.72,-1.728 -2.44799,-2.448 -1.728,-0.72 -4.89601,-0.72 h -5.90399 q -3.24001,0 -4.96801,0.72 -1.656,0.72 -2.37599,2.448 -0.72001,1.656 -0.72001,4.896 v 8.352 q 0,3.168 0.72001,4.896 0.71999,1.656 2.44799,2.376 1.728,0.72 4.89601,0.72 z" transform="translate(0 229.18257865229657) translate(349.19448225358394 134.28745660970088) scale(1.8396025750898353) translate(-425.65062 -83.496)"></path> 
   <path id="path376721" style="font-style: normal; font-weight: 700; font-size: 72px; line-height: 1; font-family: Jura; font-variant-ligatures: none; text-align: center; text-anchor: middle; fill: rgb(225, 216, 229);" d="m 492.08975,83.496 q 1.44,0 2.232,0.792 0.792,0.792 0.792,2.232 0,1.44 -0.792,2.232 -0.792,0.792 -2.232,0.792 -6.12,0 -9.504,2.304 -3.312,2.232 -3.456,6.12 v 19.008 q 0,1.44 -0.792,2.232 -0.792,0.792 -2.232,0.792 -1.44,0 -2.232,-0.792 -0.792,-0.792 -0.792,-2.232 V 86.52 q 0,-3.024 3.024,-3.024 3.024,0 3.024,3.024 v 2.808 q 4.392,-5.832 12.96,-5.832 z" transform="translate(0 229.18257865229657) translate(436.4489111410046 134.28745660970088) scale(1.8396025750898353) translate(-473.08175 -83.496)"></path> 
   <path id="path376723" style="font-style: normal; font-weight: 700; font-size: 72px; line-height: 1; font-family: Jura; font-variant-ligatures: none; text-align: center; text-anchor: middle; fill: rgb(225, 216, 229);" d="m 519.28662,113.952 q 3.024,0 3.024,3.024 0,1.44 -0.79199,2.232 -0.792,0.792 -2.23201,0.792 -7.12799,0 -10.51199,-3.384 -3.38401,-3.384 -3.38401,-10.44 V 89.544 h -3.528 q -1.44,0 -2.232,-0.792 -0.792,-0.792 -0.792,-2.232 0,-3.024 3.024,-3.024 h 3.528 V 78.24 q 0,-1.44 0.79201,-2.232 0.79199,-0.792 2.23199,-0.792 1.44,0 2.232,0.792 0.792,0.792 0.792,2.232 v 5.256 h 8.28 q 3.024,0 3.024,3.024 0,1.44 -0.792,2.232 -0.79199,0.792 -2.232,0.792 h -8.28 v 16.632 q 0,3.096 0.72001,4.752 0.72,1.656 2.37599,2.376 1.656,0.648 4.752,0.648 z" transform="translate(0 229.18257865229657) translate(483.8313155192588 119.05554728795705) scale(1.8396025750898353) translate(-498.83862 -75.216)"></path> 
   <path id="path376725" style="font-style: normal; font-weight: 700; font-size: 72px; line-height: 1; font-family: Jura; font-variant-ligatures: none; text-align: center; text-anchor: middle; fill: rgb(225, 216, 229);" d="m 553.769,83.496 q 7.2,0 10.656,3.456 3.456,3.456 3.456,10.656 v 19.368 q 0,1.44 -0.792,2.232 -0.792,0.792 -2.232,0.792 -1.44,0 -2.232,-0.792 -0.792,-0.792 -0.792,-2.232 V 97.608 q 0,-3.168 -0.72,-4.896 -0.72,-1.728 -2.448,-2.448 -1.728,-0.72 -4.896,-0.72 h -2.016 q -4.752,0 -7.416,1.224 -2.664,1.224 -3.456,3.744 -0.072,0.36 -0.36,1.08 v 21.384 q 0,1.44 -0.792,2.232 -0.792,0.792 -2.232,0.792 -1.44,0 -2.232,-0.792 -0.792,-0.792 -0.792,-2.232 v -20.88 q -0.36,-0.576 -0.36,-1.224 0,-0.432 0.072,-0.648 0.144,-0.72 0.288,-1.152 V 72.336 q 0,-1.44 0.792,-2.232 0.792,-0.792 2.232,-0.792 1.44,0 2.232,0.792 0.792,0.792 0.792,2.232 V 85.8 q 4.392,-2.304 11.232,-2.304 z" transform="translate(0 229.18257865229657) translate(548.7221558019563 108.19453368462668) scale(1.8396025750898353) translate(-534.113 -69.312)"></path> 
   <path id="path376727" style="font-style: normal; font-weight: 700; font-size: 72px; line-height: 1; font-family: Jura; font-variant-ligatures: none; text-align: center; text-anchor: middle; fill: rgb(135, 93, 159);" d="m 594.59075,120 q -7.2,0 -10.656,-3.456 -3.456,-3.456 -3.456,-10.584 v -8.352 q 0,-7.2 3.456,-10.656 3.456,-3.456 10.656,-3.456 h 5.904 q 7.2,0 10.656,3.456 3.456,3.456 3.456,10.656 v 8.28 q 0,7.2 -3.456,10.656 -3.456,3.456 -10.656,3.456 z m 5.904,-6.048 q 3.168,0 4.896,-0.72 1.728,-0.72 2.448,-2.448 0.72,-1.728 0.72,-4.896 v -8.28 q 0,-3.168 -0.72,-4.896 -0.72,-1.728 -2.448,-2.448 -1.728,-0.72 -4.896,-0.72 h -5.904 q -3.24,0 -4.968,0.72 -1.656,0.72 -2.376,2.448 -0.72,1.656 -0.72,4.896 v 8.352 q 0,3.168 0.72,4.896 0.72,1.656 2.448,2.376 1.728,0.72 4.896,0.72 z" transform="translate(0 229.18257865229657) translate(634.0167088979276 134.28745660970088) scale(1.8396025750898353) translate(-580.47875 -83.496)"></path> 
   <path id="path376729" style="font-style: normal; font-weight: 700; font-size: 72px; line-height: 1; font-family: Jura; font-variant-ligatures: none; text-align: center; text-anchor: middle; fill: rgb(135, 93, 159);" d="m 634.53387,120 q -1.43999,0 -2.232,-0.792 -0.792,-0.792 -0.72,-2.376 0.144,-7.416 1.22401,-11.952 1.08,-4.536 3.312,-7.56 2.23199,-3.024 6.336,-5.904 3.312,-2.592 4.96799,-5.904 1.656,-3.384 1.944,-8.28 h -22.752 q -1.44,0 -2.23199,-0.792 -0.79201,-0.792 -0.79201,-2.232 0,-1.44 0.79201,-2.232 0.79199,-0.792 2.23199,-0.792 h 25.848 q 1.44001,0 2.23201,0.792 0.79199,0.792 0.79199,2.232 0,7.704 -2.304,13.032 -2.23199,5.328 -7.2,9.072 -3.31199,2.304 -5.04,4.68 -1.65599,2.376 -2.448,6.048 -0.72,3.6 -0.864,9.792 -0.144,3.168 -3.096,3.168 z" transform="translate(0 229.18257865229657) translate(713.3240362649344 111.63826970519484) scale(1.8396025750898353) translate(-623.58987 -71.184)"></path> 
  </g> 
  <g id="tagline" style="font-style:normal;font-weight:500;font-size:32px;line-height:1;font-family:Roboto;font-variant-ligatures:none;text-align:center;text-anchor:middle"></g> 
 </g> 
</svg>