<svg xmlns:dc="http://purl.org/dc/elements/1.1/" xmlns:cc="http://creativecommons.org/ns#" xmlns:rdf="http://www.w3.org/1999/02/22-rdf-syntax-ns#" xmlns:svg="http://www.w3.org/2000/svg" xmlns="http://www.w3.org/2000/svg" id="svg481014" viewbox="0 0 1024 768" height="768px" width="1024px" version="1.1"> <metadata id="metadata481020"> 
  <rdf:rdf> 
   <cc:work rdf:about=""> 
    <dc:format>
     image/svg+xml
    </dc:format> 
    <dc:type rdf:resource="http://purl.org/dc/dcmitype/StillImage"></dc:type> 
   </cc:work> 
  </rdf:rdf> 
 </metadata> <defs id="defs481018"></defs> <g id="logo-group"> 
  <g id="title" style="font-style:oblique;font-weight:700;font-size:72px;line-height:1;font-family:Averta;font-variant-ligatures:none;text-align:center;text-anchor:middle" aria-label="Northwesterno7"> 
   <path id="path481022" style="font-style: oblique; font-weight: 700; font-size: 72px; line-height: 1; font-family: Averta; font-variant-ligatures: none; text-align: center; text-anchor: middle; fill: rgb(56, 56, 56);" d="m 277.57812,68.88 -6.264,51.12 h 11.16001 l 3.88799,-30.888 h 0.216 l 13.176,30.888 h 11.16001 l 6.336,-51.12 h -11.23201 l -3.88799,31.608 -0.216,0.072 -13.53601,-31.68 z" transform="translate(0 307.80003223686094) translate(251.99999999999994 51.23354782658397) scale(0.990730949863298) translate(-271.31412 -68.88)"></path> 
   <path id="path481024" style="font-style: oblique; font-weight: 700; font-size: 72px; line-height: 1; font-family: Averta; font-variant-ligatures: none; text-align: center; text-anchor: middle; fill: rgb(56, 56, 56);" d="m 334.8575,120.648 c 13.464,0 19.584,-10.008 19.584,-21.456 0,-9.576 -5.976,-15.048 -15.048,-15.048 -12.384,0 -19.44,10.08 -19.44,21.384 0,9.648 5.976,15.12 14.904,15.12 z m 0.792,-9.648 c -2.304,0 -4.752,-1.872 -4.752,-6.048 0,-5.4 2.88,-11.16 7.632,-11.16 1.944,0 4.968,1.08 4.968,6.12 0,5.76 -3.096,11.088 -7.848,11.088 z" transform="translate(0 307.80003223686094) translate(303.1607319977517 66.35606504529737) scale(0.990730949863298) translate(-319.9535 -84.144)"></path> 
   <path id="path481026" style="font-style: oblique; font-weight: 700; font-size: 72px; line-height: 1; font-family: Averta; font-variant-ligatures: none; text-align: center; text-anchor: middle; fill: rgb(56, 56, 56);" d="m 362.66075,84.792 -4.32,35.208 h 10.8 l 1.584,-13.536 c 1.296,-8.352 5.616,-12.24 10.8,-10.368 l 1.512,-11.952 c -3.888,0 -7.344,1.872 -10.08,5.472 h -0.144 l 0.648,-4.824 z" transform="translate(0 307.80003223686094) translate(344.16436150248154 66.35606504529737) scale(0.990730949863298) translate(-358.34075 -84.144)"></path> 
   <path id="path481028" style="font-style: oblique; font-weight: 700; font-size: 72px; line-height: 1; font-family: Averta; font-variant-ligatures: none; text-align: center; text-anchor: middle; fill: rgb(56, 56, 56);" d="m 394.16187,120.648 c 3.24001,0 6.40801,-0.792 9.43201,-2.448 l -1.728,-8.424 c -1.368,0.72 -2.59201,1.152 -3.52801,1.152 -1.152,0 -1.872,-0.936 -1.584,-2.952 l 1.728,-14.472 h 7.272 l 1.08,-8.712 h -7.272 l 1.512,-12.456 -11.01599,2.16 -1.36801,10.296 h -3.456 l -1.07999,8.712 h 3.45599 l -1.872,15.912 c -1.008,8.136 2.952,11.232 8.424,11.232 z" transform="translate(0 307.80003223686094) translate(372.7104211559162 54.657513989311525) scale(0.990730949863298) translate(-384.15388 -72.336)"></path> 
   <path id="path481030" style="font-style: oblique; font-weight: 700; font-size: 72px; line-height: 1; font-family: Averta; font-variant-ligatures: none; text-align: center; text-anchor: middle; fill: rgb(56, 56, 56);" d="m 414.88325,67.008 -6.552,52.992 h 10.8 l 1.512,-12.672 c 1.08,-8.928 5.76,-13.536 9.072,-13.536 2.304,0 2.736,2.232 2.088,7.128 l -2.592,19.08 h 10.8 l 2.808,-21.528 c 1.296,-9.864 -1.44,-14.328 -8.136,-14.328 -4.608,0 -8.568,1.944 -11.736,5.616 l -0.144,-0.072 2.808,-22.68 z" transform="translate(0 307.80003223686094) translate(399.6358827508025 49.37889948843987) scale(0.990730949863298) translate(-408.33125 -67.008)"></path> 
   <path id="path481032" style="font-style: oblique; font-weight: 700; font-size: 72px; line-height: 1; font-family: Averta; font-variant-ligatures: none; text-align: center; text-anchor: middle; fill: rgb(56, 56, 56);" d="m 457.78625,120.648 c 4.104,0 8.64,-2.232 11.16,-6.408 h 0.144 c 1.008,3.744 4.032,6.408 9.648,6.408 9.144,0 18.072,-5.4 20.304,-21.384 0.792,-4.896 0.792,-9.936 0,-14.472 h -10.872 c 0.576,4.608 0.576,8.136 0,12.312 -1.44,10.872 -5.328,13.896 -7.632,13.896 -2.016,0 -2.664,-1.872 -2.016,-6.984 l 2.376,-19.224 h -10.44 l -1.872,14.976 c -1.08,8.64 -4.896,11.232 -6.912,11.232 -2.304,0 -2.808,-2.592 -2.16,-7.416 l 2.592,-18.792 h -10.656 l -3.024,21.312 c -1.152,8.568 1.872,14.544 9.36,14.544 z" transform="translate(0 307.80003223686094) translate(442.0960452687833 66.99805870080876) scale(0.990730949863298) translate(-448.18866 -84.792)"></path> 
   <path id="path481034" style="font-style: oblique; font-weight: 700; font-size: 72px; line-height: 1; font-family: Averta; font-variant-ligatures: none; text-align: center; text-anchor: middle; fill: rgb(56, 56, 56);" d="m 533.94538,93.864 c 0.072,-6.624 -6.33601,-9.72 -12.02401,-9.72 -11.87999,0 -19.29599,9.792 -19.29599,21.744 -0.072,9.144 5.832,14.76 14.68799,14.76 6.912,0 11.59201,-2.592 15.336,-7.704 l -8.064,-4.752 c -1.94399,2.592 -4.032,3.528 -6.408,3.528 -2.08799,0 -4.39199,-1.296 -5.03999,-4.464 10.36799,-1.08 20.66399,-4.464 20.808,-13.392 z m -10.36801,1.512 c -0.072,3.456 -4.824,4.824 -10.07999,5.4 1.22399,-4.896 4.39199,-7.632 7.48799,-7.632 1.65601,0 2.664,0.792 2.592,2.232 z" transform="translate(0 307.80003223686094) translate(498.9997374562982 66.35606504529737) scale(0.990730949863298) translate(-502.62473 -84.144)"></path> 
   <path id="path481036" style="font-style: oblique; font-weight: 700; font-size: 72px; line-height: 1; font-family: Averta; font-variant-ligatures: none; text-align: center; text-anchor: middle; fill: rgb(56, 56, 56);" d="m 548.45787,120.648 c 8.56801,0 13.96801,-4.536 13.96801,-11.448 0,-5.544 -3.74401,-8.064 -9.21601,-10.8 -3.24,-1.584 -4.96799,-2.736 -4.96799,-3.888 0,-1.368 1.36799,-2.16 2.808,-2.16 1.65599,0.072 4.10399,0.936 6.048,3.6 l 6.55199,-6.192 c -3.168,-3.816 -7.92,-5.616 -12.67199,-5.616 -7.27201,0 -13.03201,4.68 -13.03201,11.736 0,5.184 3.24,8.064 8.568,10.728 4.03201,2.088 5.472,2.664 5.472,3.96 0,1.224 -1.36799,1.944 -3.24,1.944 -2.736,0 -5.904,-1.656 -7.992,-4.176 l -6.048,6.264 c 3.096,3.888 8.712,6.048 13.752,6.048 z" transform="translate(0 307.80003223686094) translate(533.7557086107856 66.35606504529737) scale(0.990730949863298) translate(-534.70587 -84.144)"></path> 
   <path id="path481038" style="font-style: oblique; font-weight: 700; font-size: 72px; line-height: 1; font-family: Averta; font-variant-ligatures: none; text-align: center; text-anchor: middle; fill: rgb(56, 56, 56);" d="m 577.39625,120.648 c 3.24,0 6.408,-0.792 9.432,-2.448 l -1.728,-8.424 c -1.368,0.72 -2.592,1.152 -3.528,1.152 -1.152,0 -1.872,-0.936 -1.584,-2.952 l 1.728,-14.472 h 7.272 l 1.08,-8.712 h -7.272 l 1.512,-12.456 -11.016,2.16 -1.368,10.296 h -3.456 l -1.08,8.712 h 3.456 l -1.872,15.912 c -1.008,8.136 2.952,11.232 8.424,11.232 z" transform="translate(0 307.80003223686094) translate(569.1073468415688 54.657513989311525) scale(0.990730949863298) translate(-567.38825 -72.336)"></path> 
   <path id="path481040" style="font-style: oblique; font-weight: 700; font-size: 72px; line-height: 1; font-family: Averta; font-variant-ligatures: none; text-align: center; text-anchor: middle; fill: rgb(56, 56, 56);" d="m 621.2735,93.864 c 0.072,-6.624 -6.336,-9.72 -12.024,-9.72 -11.88,0 -19.296,9.792 -19.296,21.744 -0.072,9.144 5.832,14.76 14.688,14.76 6.912,0 11.592,-2.592 15.336,-7.704 l -8.064,-4.752 c -1.944,2.592 -4.032,3.528 -6.408,3.528 -2.088,0 -4.392,-1.296 -5.04,-4.464 10.368,-1.08 20.664,-4.464 20.808,-13.392 z m -10.368,1.512 c -0.072,3.456 -4.824,4.824 -10.08,5.4 1.224,-4.896 4.392,-7.632 7.488,-7.632 1.656,0 2.664,0.792 2.592,2.232 z" transform="translate(0 307.80003223686094) translate(594.4349872824441 66.35606504529737) scale(0.990730949863298) translate(-589.95285 -84.144)"></path> 
   <path id="path481042" style="font-style: oblique; font-weight: 700; font-size: 72px; line-height: 1; font-family: Averta; font-variant-ligatures: none; text-align: center; text-anchor: middle; fill: rgb(56, 56, 56);" d="M 628.442,84.792 624.122,120 h 10.8 l 1.584,-13.536 c 1.296,-8.352 5.616,-12.24 10.8,-10.368 l 1.512,-11.952 c -3.888,0 -7.344,1.872 -10.08,5.472 h -0.144 l 0.648,-4.824 z" transform="translate(0 307.80003223686094) translate(631.2596145675554 66.35606504529737) scale(0.990730949863298) translate(-624.122 -84.144)"></path> 
   <path id="path481044" style="font-style: oblique; font-weight: 700; font-size: 72px; line-height: 1; font-family: Averta; font-variant-ligatures: none; text-align: center; text-anchor: middle; fill: rgb(56, 56, 56);" d="m 653.89512,84.792 -4.392,35.208 h 10.80001 l 1.58399,-13.032 c 1.15201,-8.784 5.76,-13.176 9,-13.176 2.30401,0 2.736,2.232 2.08801,7.128 L 670.45512,120 h 10.72801 l 2.80799,-21.528 c 1.29601,-9.864 -1.44,-14.328 -8.13599,-14.328 -4.60801,0 -8.49601,1.944 -11.664,5.616 l -0.144,-0.072 0.57599,-4.896 z" transform="translate(0 307.80003223686094) translate(659.3776685433396 66.35606504529737) scale(0.990730949863298) translate(-649.50312 -84.144)"></path> 
   <path id="path481046" style="font-style: oblique; font-weight: 700; font-size: 72px; line-height: 1; font-family: Averta; font-variant-ligatures: none; text-align: center; text-anchor: middle; fill: rgb(51, 153, 219);" d="m 703.99812,120.648 c 13.46401,0 19.58401,-10.008 19.58401,-21.456 0,-9.576 -5.976,-15.048 -15.048,-15.048 -12.38401,0 -19.44001,10.08 -19.44001,21.384 0,9.648 5.976,15.12 14.904,15.12 z m 0.792,-9.648 c -2.30399,0 -4.75199,-1.872 -4.75199,-6.048 0,-5.4 2.88,-11.16 7.63199,-11.16 1.94401,0 4.968,1.08 4.968,6.12 0,5.76 -3.096,11.088 -7.848,11.088 z" transform="translate(0 307.80003223686094) translate(701.5738904289673 66.35606504529737) scale(0.990730949863298) translate(-689.09412 -84.144)"></path> 
   <path id="path481048" style="font-style: oblique; font-weight: 700; font-size: 72px; line-height: 1; font-family: Averta; font-variant-ligatures: none; text-align: center; text-anchor: middle; fill: rgb(51, 153, 219);" d="m 757.17912,70.536 h -27.864 l -1.22399,10.08 h 15.48 l -17.56801,38.52 11.08801,2.016 19.22399,-43.344 z" transform="translate(0 307.80003223686094) translate(741.1129719070616 52.87419827955759) scale(0.990730949863298) translate(-726.00312 -70.536)"></path> 
  </g> 
  <g id="tagline" style="font-style:normal;font-weight:500;font-size:32px;line-height:1;font-family:Raleway;font-variant-ligatures:none;text-align:center;text-anchor:middle"></g> 
 </g> 
</svg>