<svg xmlns:dc="http://purl.org/dc/elements/1.1/" xmlns:cc="http://creativecommons.org/ns#" xmlns:rdf="http://www.w3.org/1999/02/22-rdf-syntax-ns#" xmlns:svg="http://www.w3.org/2000/svg" xmlns="http://www.w3.org/2000/svg" id="svg485531" viewbox="0 0 1024 768" height="768px" width="1024px" version="1.1"> <metadata id="metadata485537"> 
  <rdf:rdf> 
   <cc:work rdf:about=""> 
    <dc:format>
     image/svg+xml
    </dc:format> 
    <dc:type rdf:resource="http://purl.org/dc/dcmitype/StillImage"></dc:type> 
   </cc:work> 
  </rdf:rdf> 
 </metadata> <defs id="defs485535"></defs> <g id="logo-group"> 
  <g id="title" style="font-style:normal;font-weight:300;font-size:72px;line-height:1;font-family:'Uni Neue';font-variant-ligatures:none;text-align:center;text-anchor:middle" aria-label="NUMBERONEO7"> 
   <path id="path485539" style="font-style: normal; font-weight: 300; font-size: 72px; line-height: 1; font-family: &quot;Uni Neue&quot;; font-variant-ligatures: none; text-align: center; text-anchor: middle; fill: rgb(44, 166, 120);" d="m 266.39844,120 c 0.216,0 0.432,-0.144 0.432,-0.432 l -0.072,-47.16 31.176,47.304 c 0.072,0.216 0.36,0.288 0.576,0.288 h 1.728 c 0.288,0 0.504,-0.144 0.504,-0.432 V 68.952 c 0,-0.288 -0.216,-0.432 -0.504,-0.432 h -1.44 c -0.288,0 -0.504,0.144 -0.504,0.432 l 0.072,47.304 -31.176,-47.448 c -0.072,-0.216 -0.36,-0.288 -0.504,-0.288 h -1.8 c -0.288,0 -0.504,0.144 -0.504,0.432 v 50.616 c 0,0.288 0.216,0.432 0.504,0.432 z" transform="translate(0 316.1090909090909) translate(216.22403636363634 44.490909090909085) scale(0.9090909090909091) translate(-264.38244 -68.52)"></path> 
   <path id="path485541" style="font-style: normal; font-weight: 300; font-size: 72px; line-height: 1; font-family: &quot;Uni Neue&quot;; font-variant-ligatures: none; text-align: center; text-anchor: middle; fill: rgb(44, 166, 120);" d="M 349.64619,102.648 V 68.952 c 0,-0.288 -0.216,-0.432 -0.504,-0.432 h -1.512 c -0.288,0 -0.432,0.144 -0.432,0.432 v 33.624 c 0,9.504 -5.4,15.768 -15.264,15.768 -9.864,0 -15.192,-6.264 -15.192,-15.768 V 68.952 c 0,-0.288 -0.144,-0.432 -0.432,-0.432 h -1.512 c -0.288,0 -0.504,0.144 -0.504,0.432 v 33.696 c 0,10.656 6.48,17.928 17.64,17.928 11.232,0 17.712,-7.272 17.712,-17.928 z" transform="translate(0 316.1090909090909) translate(275.2347181818182 44.490909090909085) scale(0.9090909090909091) translate(-314.29419 -68.52)"></path> 
   <path id="path485543" style="font-style: normal; font-weight: 300; font-size: 72px; line-height: 1; font-family: &quot;Uni Neue&quot;; font-variant-ligatures: none; text-align: center; text-anchor: middle; fill: rgb(44, 166, 120);" d="m 365.25781,120 c 0.216,0 0.432,-0.144 0.432,-0.432 l -0.072,-47.304 v -0.072 l 19.728,34.92 c 0.144,0.144 0.36,0.288 0.576,0.288 h 1.152 c 0.216,0 0.504,-0.144 0.576,-0.288 l 19.728,-34.92 v 0.072 l -0.072,47.304 c 0,0.288 0.216,0.432 0.432,0.432 h 1.512 c 0.288,0 0.504,-0.144 0.504,-0.432 V 68.952 c 0,-0.288 -0.216,-0.432 -0.504,-0.432 h -2.016 c -0.216,0 -0.432,0.072 -0.504,0.288 l -20.232,35.64 -20.16,-35.64 c -0.144,-0.216 -0.36,-0.288 -0.576,-0.288 h -2.016 c -0.288,0 -0.504,0.144 -0.504,0.432 v 50.616 c 0,0.288 0.216,0.432 0.504,0.432 z" transform="translate(0 316.1090909090909) translate(333.3689181818182 44.490909090909085) scale(0.9090909090909091) translate(-363.24181 -68.52)"></path> 
   <path id="path485545" style="font-style: normal; font-weight: 300; font-size: 72px; line-height: 1; font-family: &quot;Uni Neue&quot;; font-variant-ligatures: none; text-align: center; text-anchor: middle; fill: rgb(44, 166, 120);" d="m 455.24656,80.976 c 0,-6.696 -4.032,-12.456 -15.696,-12.456 h -15.336 c -0.288,0 -0.504,0.144 -0.504,0.432 v 50.616 c 0,0.288 0.216,0.432 0.504,0.432 h 15.336 c 11.52,0 17.784,-5.256 17.784,-14.256 0,-7.2 -3.744,-12.024 -10.656,-13.392 5.256,-1.512 8.568,-5.544 8.568,-11.376 z m -29.088,36.792 V 93.504 h 14.688 c 9.792,0 14.112,4.896 14.112,12.24 0,7.56 -5.112,12.024 -15.408,12.024 z m 26.64,-36.792 c 0,6.552 -4.464,10.296 -11.952,10.296 h -14.688 v -20.52 h 13.392 c 10.296,0 13.248,4.896 13.248,10.224 z" transform="translate(0 316.1090909090909) translate(401.97687272727273 44.490909090909085) scale(0.9090909090909091) translate(-423.71056 -68.52)"></path> 
   <path id="path485547" style="font-style: normal; font-weight: 300; font-size: 72px; line-height: 1; font-family: &quot;Uni Neue&quot;; font-variant-ligatures: none; text-align: center; text-anchor: middle; fill: rgb(44, 166, 120);" d="m 470.73669,94.872 h 24.624 c 0.288,0 0.504,-0.144 0.504,-0.432 v -1.368 c 0,-0.288 -0.216,-0.432 -0.504,-0.432 h -24.624 V 70.752 h 26.136 c 0.288,0 0.432,-0.144 0.432,-0.432 v -1.368 c 0,-0.288 -0.144,-0.432 -0.432,-0.432 h -28.08 c -0.288,0 -0.504,0.144 -0.504,0.432 v 50.616 c 0,0.288 0.216,0.432 0.504,0.432 h 29.16 c 0.288,0 0.432,-0.144 0.432,-0.432 V 118.2 c 0,-0.288 -0.144,-0.432 -0.432,-0.432 h -27.216 z" transform="translate(0 316.1090909090909) translate(456.13880909090904 44.490909090909085) scale(0.9090909090909091) translate(-468.28869 -68.52)"></path> 
   <path id="path485549" style="font-style: normal; font-weight: 300; font-size: 72px; line-height: 1; font-family: &quot;Uni Neue&quot;; font-variant-ligatures: none; text-align: center; text-anchor: middle; fill: rgb(44, 166, 120);" d="m 542.70069,120 c 0.36,0 0.432,-0.288 0.288,-0.576 l -16.632,-21.384 c 9.936,-0.504 15.84,-5.904 15.84,-14.688 0,-9.36 -6.552,-14.832 -17.136,-14.832 h -15.768 c -0.288,0 -0.504,0.144 -0.504,0.432 v 50.616 c 0,0.288 0.216,0.432 0.504,0.432 h 1.512 c 0.216,0 0.432,-0.144 0.432,-0.432 V 98.112 h 12.312 l 16.632,21.6 c 0.072,0.216 0.36,0.288 0.576,0.288 z m -17.64,-49.248 c 9.288,0 14.76,4.536 14.76,12.6 0,8.136 -5.472,12.528 -14.76,12.528 h -13.824 V 70.752 Z" transform="translate(0 316.1090909090909) translate(506.5933545454545 44.490909090909085) scale(0.9090909090909091) translate(-508.78869 -68.52)"></path> 
   <path id="path485551" style="font-style: normal; font-weight: 300; font-size: 72px; line-height: 1; font-family: &quot;Uni Neue&quot;; font-variant-ligatures: none; text-align: center; text-anchor: middle; fill: rgb(44, 166, 120);" d="M 588.93819,103.872 V 85.224 c 0,-10.368 -7.416,-17.424 -18.72,-17.424 -11.376,0 -18.792,7.056 -18.792,17.424 v 18.648 c 0,9.72 7.488,16.848 18.792,16.848 11.232,0 18.72,-7.128 18.72,-16.848 z m -35.136,0 V 85.224 c 0,-9.072 6.336,-15.192 16.416,-15.192 10.008,0 16.344,6.12 16.344,15.192 v 18.648 c 0,8.424 -6.408,14.544 -16.344,14.544 -10.008,0 -16.416,-6.12 -16.416,-14.544 z" transform="translate(0 316.1090909090909) translate(558.9910818181818 43.83636363636363) scale(0.9090909090909091) translate(-551.42619 -67.8)"></path> 
   <path id="path485553" style="font-style: normal; font-weight: 300; font-size: 72px; line-height: 1; font-family: &quot;Uni Neue&quot;; font-variant-ligatures: none; text-align: center; text-anchor: middle; fill: rgb(44, 166, 120);" d="m 603.05469,120 c 0.216,0 0.432,-0.144 0.432,-0.432 l -0.072,-47.16 31.176,47.304 c 0.072,0.216 0.36,0.288 0.576,0.288 h 1.728 c 0.288,0 0.504,-0.144 0.504,-0.432 V 68.952 c 0,-0.288 -0.216,-0.432 -0.504,-0.432 h -1.44 c -0.288,0 -0.504,0.144 -0.504,0.432 l 0.072,47.304 -31.176,-47.448 c -0.072,-0.216 -0.36,-0.288 -0.504,-0.288 h -1.8 c -0.288,0 -0.504,0.144 -0.504,0.432 v 50.616 c 0,0.288 0.216,0.432 0.504,0.432 z" transform="translate(0 316.1090909090909) translate(617.729718181818 44.490909090909085) scale(0.9090909090909091) translate(-601.03869 -68.52)"></path> 
   <path id="path485555" style="font-style: normal; font-weight: 300; font-size: 72px; line-height: 1; font-family: &quot;Uni Neue&quot;; font-variant-ligatures: none; text-align: center; text-anchor: middle; fill: rgb(44, 166, 120);" d="m 653.83044,94.872 h 24.624 c 0.288,0 0.504,-0.144 0.504,-0.432 v -1.368 c 0,-0.288 -0.216,-0.432 -0.504,-0.432 h -24.624 V 70.752 h 26.136 c 0.288,0 0.432,-0.144 0.432,-0.432 v -1.368 c 0,-0.288 -0.144,-0.432 -0.432,-0.432 h -28.08 c -0.288,0 -0.504,0.144 -0.504,0.432 v 50.616 c 0,0.288 0.216,0.432 0.504,0.432 h 29.16 c 0.288,0 0.432,-0.144 0.432,-0.432 V 118.2 c 0,-0.288 -0.144,-0.432 -0.432,-0.432 h -27.216 z" transform="translate(0 316.1090909090909) translate(677.133127272727 44.490909090909085) scale(0.9090909090909091) translate(-651.38244 -68.52)"></path> 
   <path id="path485557" style="font-style: normal; font-weight: 300; font-size: 72px; line-height: 1; font-family: &quot;Uni Neue&quot;; font-variant-ligatures: none; text-align: center; text-anchor: middle; fill: rgb(44, 166, 120);" d="M 726.89131,103.872 V 85.224 c 0,-10.368 -7.416,-17.424 -18.72,-17.424 -11.376,0 -18.792,7.056 -18.792,17.424 v 18.648 c 0,9.72 7.488,16.848 18.792,16.848 11.232,0 18.72,-7.128 18.72,-16.848 z m -35.136,0 V 85.224 c 0,-9.072 6.336,-15.192 16.416,-15.192 10.008,0 16.344,6.12 16.344,15.192 v 18.648 c 0,8.424 -6.408,14.544 -16.344,14.544 -10.008,0 -16.416,-6.12 -16.416,-14.544 z" transform="translate(0 316.1090909090909) translate(725.3120999999999 43.83636363636363) scale(0.9090909090909091) translate(-689.37931 -67.8)"></path> 
   <path id="path485559" style="font-style: normal; font-weight: 300; font-size: 72px; line-height: 1; font-family: &quot;Uni Neue&quot;; font-variant-ligatures: none; text-align: center; text-anchor: middle; fill: rgb(44, 166, 120);" d="m 740.53756,120 c 0.216,0 0.504,-0.144 0.576,-0.36 l 23.832,-49.392 c 0.144,-0.144 0.144,-0.36 0.144,-0.504 v -0.792 c 0,-0.288 -0.216,-0.432 -0.504,-0.432 h -31.68 c -0.288,0 -0.504,0.144 -0.504,0.432 v 1.368 c 0,0.216 0.216,0.432 0.504,0.432 h 29.304 l -23.616,48.672 c -0.144,0.36 0.072,0.576 0.36,0.576 z" transform="translate(0 316.1090909090909) translate(778.0595999999999 44.490909090909085) scale(0.9090909090909091) translate(-732.40156 -68.52)"></path> 
  </g> 
  <g id="tagline" style="font-style:oblique;font-weight:400;font-size:32px;line-height:1;font-family:Lato;font-variant-ligatures:none;text-align:center;text-anchor:middle"></g> 
 </g> 
</svg>