<svg xmlns:dc="http://purl.org/dc/elements/1.1/" xmlns:cc="http://creativecommons.org/ns#" xmlns:rdf="http://www.w3.org/1999/02/22-rdf-syntax-ns#" xmlns:svg="http://www.w3.org/2000/svg" xmlns="http://www.w3.org/2000/svg" id="svg371339" viewbox="0 0 1024 768" height="768px" width="1024px" version="1.1"> <metadata id="metadata371345"> 
  <rdf:rdf> 
   <cc:work rdf:about=""> 
    <dc:format>
     image/svg+xml
    </dc:format> 
    <dc:type rdf:resource="http://purl.org/dc/dcmitype/StillImage"></dc:type> 
   </cc:work> 
  </rdf:rdf> 
 </metadata> <defs id="defs371343"></defs> <g id="logo-group"> 
  <g id="title" style="font-style:normal;font-weight:700;font-size:72px;line-height:1;font-family:'Comfortaa Bold Alt2';font-variant-ligatures:none;text-align:center;text-anchor:middle" aria-label="Nutrio7"> 
   <path id="path371347" style="font-style: normal; font-weight: 700; font-size: 72px; line-height: 1; font-family: &quot;Comfortaa Bold Alt2&quot;; font-variant-ligatures: none; text-align: center; text-anchor: middle; fill: rgb(131, 189, 213);" d="m 419.14587,64.848 c -0.71999,0.72 -1.08,1.584 -1.08,2.664 v 39.384 l -31.392,-41.76 c -0.36,-0.36 -0.792,-0.648 -1.29599,-0.936 -0.57601,-0.288 -1.08001,-0.432 -1.584,-0.432 -1.08,0 -1.94401,0.36 -2.664,1.08 -0.72001,0.72 -1.00801,1.584 -1.00801,2.664 v 48.744 c 0,1.152 0.288,2.016 1.00801,2.736 0.71999,0.72 1.584,1.008 2.664,1.008 1.07999,0 1.94399,-0.36 2.66399,-1.08 0.72,-0.72 1.08,-1.584 1.08,-2.664 V 76.944 l 31.392,41.76 c 0.288,0.432 0.648,0.792 1.224,1.008 0.576,0.216 1.08,0.288 1.65601,0.288 1.008,0 1.87199,-0.288 2.592,-1.008 0.71999,-0.72 1.07999,-1.584 1.07999,-2.736 V 67.512 c 0,-1.08 -0.36,-1.944 -1.07999,-2.664 -0.72001,-0.72 -1.584,-1.08 -2.592,-1.08 -1.08001,0 -1.944,0.36 -2.66401,1.08 z" transform="translate(0 264.2916958900769) translate(252 78.64803648731353) scale(1.4492541162858097) translate(-380.12187 -63.768)"></path> 
   <path id="path371349" style="font-style: normal; font-weight: 700; font-size: 72px; line-height: 1; font-family: &quot;Comfortaa Bold Alt2&quot;; font-variant-ligatures: none; text-align: center; text-anchor: middle; fill: rgb(131, 189, 213);" d="m 471.6395,80.472 c -1.008,0 -1.872,0.36 -2.592,1.08 -0.72,0.72 -1.008,1.512 -1.008,2.52 V 102 c 0,3.096 -1.152,5.76 -3.312,7.92 -2.232,2.232 -4.824,3.312 -7.92,3.312 -3.096,0 -5.688,-1.08 -7.92,-3.312 -2.16,-2.16 -3.24,-4.824 -3.24,-7.92 V 84.072 c 0,-1.008 -0.36,-1.8 -1.08,-2.52 -0.72,-0.72 -1.512,-1.08 -2.52,-1.08 -1.008,0 -1.872,0.36 -2.592,1.08 -0.72,0.72 -1.008,1.512 -1.008,2.52 V 102 c 0,5.112 1.728,9.432 5.328,13.032 3.6,3.6 7.92,5.4 13.032,5.4 5.04,0 9.432,-1.8 13.032,-5.4 3.6,-3.6 5.4,-7.92 5.4,-13.032 V 84.072 c 0,-1.008 -0.36,-1.8 -1.08,-2.52 -0.72,-0.72 -1.512,-1.08 -2.52,-1.08 z" transform="translate(0 264.2916958900769) translate(358.26747110675024 102.85637724575167) scale(1.4492541162858097) translate(-438.4475 -80.472)"></path> 
   <path id="path371351" style="font-style: normal; font-weight: 700; font-size: 72px; line-height: 1; font-family: &quot;Comfortaa Bold Alt2&quot;; font-variant-ligatures: none; text-align: center; text-anchor: middle; fill: rgb(131, 189, 213);" d="m 504.66163,112.8 c -2.08801,0 -3.88801,-0.72 -5.32801,-2.232 -1.512,-1.44 -2.23199,-3.24 -2.23199,-5.328 V 88.32 h 6.408 c 0.86399,0 1.65599,-0.288 2.30399,-0.936 0.57601,-0.576 0.936,-1.368 0.936,-2.304 0,-0.864 -0.35999,-1.656 -0.936,-2.304 -0.648,-0.576 -1.44,-0.936 -2.30399,-0.936 h -6.408 V 71.688 c 0,-1.008 -0.36001,-1.8 -1.08001,-2.52 -0.72,-0.72 -1.51199,-1.08 -2.52,-1.08 -1.008,0 -1.872,0.36 -2.592,1.08 -0.72,0.72 -1.00799,1.512 -1.00799,2.52 v 33.552 c 0,4.104 1.44,7.56 4.32,10.44 2.88,2.88 6.336,4.32 10.44,4.32 1.00799,0 1.8,-0.288 2.51999,-1.008 0.72001,-0.72 1.08,-1.584 1.08,-2.592 0,-1.008 -0.35999,-1.8 -1.08,-2.52 -0.71999,-0.72 -1.512,-1.08 -2.51999,-1.08 z" transform="translate(0 264.2916958900769) translate(454.57639255344253 84.9088142696682) scale(1.4492541162858097) translate(-489.90163 -68.088)"></path> 
   <path id="path371353" style="font-style: normal; font-weight: 700; font-size: 72px; line-height: 1; font-family: &quot;Comfortaa Bold Alt2&quot;; font-variant-ligatures: none; text-align: center; text-anchor: middle; fill: rgb(131, 189, 213);" d="m 539.03375,79.536 c -6.048,0 -11.16,2.16 -15.48,6.408 -4.248,4.248 -6.336,9.36 -6.336,15.408 v 15.192 c 0,1.008 0.288,1.8 1.008,2.448 0.648,0.72 1.44,1.008 2.448,1.008 0.936,0 1.728,-0.288 2.376,-1.008 0.72,-0.648 1.08,-1.44 1.08,-2.448 v -15.192 c 0,-4.104 1.44,-7.632 4.32,-10.512 2.952,-2.952 6.48,-4.392 10.584,-4.392 0.936,0 1.728,-0.36 2.448,-1.008 0.648,-0.72 1.008,-1.512 1.008,-2.448 0,-0.936 -0.36,-1.8 -1.008,-2.448 -0.72,-0.648 -1.512,-1.008 -2.448,-1.008 z" transform="translate(0 264.2916958900769) translate(515.9032036486868 101.49987539290817) scale(1.4492541162858097) translate(-517.21775 -79.536)"></path> 
   <path id="path371355" style="font-style: normal; font-weight: 700; font-size: 72px; line-height: 1; font-family: &quot;Comfortaa Bold Alt2&quot;; font-variant-ligatures: none; text-align: center; text-anchor: middle; fill: rgb(131, 189, 213);" d="m 553.81737,81.624 c -0.71999,0.72 -1.00799,1.584 -1.00799,2.664 v 32.04 c 0,1.08 0.288,1.944 1.00799,2.664 0.72,0.72 1.58401,1.008 2.664,1.008 1.08,0 1.94401,-0.288 2.664,-1.008 0.648,-0.72 1.008,-1.584 1.008,-2.664 v -32.04 c 0,-1.08 -0.36,-1.944 -1.008,-2.664 -0.71999,-0.648 -1.584,-1.008 -2.664,-1.008 -1.07999,0 -1.944,0.36 -2.664,1.008 z m 5.976,-15.48 c -0.93599,-0.936 -2.016,-1.44 -3.312,-1.44 -1.29599,0 -2.448,0.504 -3.38399,1.44 -0.936,0.936 -1.36801,2.016 -1.36801,3.312 0,1.296 0.43201,2.448 1.36801,3.384 0.93599,0.936 2.088,1.368 3.38399,1.368 1.296,0 2.37601,-0.432 3.312,-1.368 0.936,-0.936 1.44001,-2.088 1.44001,-3.384 0,-1.296 -0.50401,-2.376 -1.44001,-3.312 z" transform="translate(0 264.2916958900769) translate(587.6581227376655 80.00453834015704) scale(1.4492541162858097) translate(-551.72937 -64.704)"></path> 
   <path id="path371357" style="font-style: normal; font-weight: 700; font-size: 72px; line-height: 1; font-family: &quot;Comfortaa Bold Alt2&quot;; font-variant-ligatures: none; text-align: center; text-anchor: middle; fill: rgb(131, 189, 213);" d="m 591.67025,120.288 c 5.544,0 10.224,-1.944 14.112,-5.832 3.888,-3.888 5.904,-8.568 5.904,-14.112 0,-5.544 -2.016,-10.224 -5.904,-14.112 -3.888,-3.888 -8.568,-5.904 -14.112,-5.904 -5.544,0 -10.224,2.016 -14.112,5.904 -3.888,3.888 -5.832,8.568 -5.832,14.112 0,5.544 1.944,10.224 5.832,14.112 3.888,3.888 8.568,5.832 14.112,5.832 z m 0,-33.048 c 3.6,0 6.696,1.296 9.288,3.816 2.52,2.592 3.816,5.688 3.816,9.288 0,3.6 -1.296,6.696 -3.816,9.216 -2.592,2.592 -5.688,3.816 -9.288,3.816 -3.6,0 -6.696,-1.224 -9.216,-3.816 -2.592,-2.52 -3.816,-5.616 -3.816,-9.216 0,-3.6 1.224,-6.696 3.816,-9.288 2.52,-2.52 5.616,-3.816 9.216,-3.816 z" transform="translate(0 264.2916958900769) translate(638.3774951348261 102.64768465300651) scale(1.4492541162858097) translate(-571.72625 -80.328)"></path> 
   <path id="path371359" style="font-style: normal; font-weight: 700; font-size: 72px; line-height: 1; font-family: &quot;Comfortaa Bold Alt2&quot;; font-variant-ligatures: none; text-align: center; text-anchor: middle; fill: rgb(131, 189, 213);" d="m 615.15913,70.104 c 0.72,0.72 1.58399,1.008 2.66399,1.008 h 21.88801 l -20.664,42.912 c -0.432,0.864 -0.648,1.656 -0.648,2.304 0,1.008 0.36,1.872 1.07999,2.592 0.72,0.72 1.512,1.08 2.52001,1.08 0.64799,0 1.29599,-0.144 1.94399,-0.504 0.57601,-0.36 1.08001,-0.864 1.44,-1.512 l 23.04001,-48.6 c 0.288,-0.72 0.504,-1.368 0.504,-1.944 0,-1.008 -0.36,-1.872 -1.08001,-2.592 -0.72,-0.72 -1.584,-1.08 -2.59199,-1.08 h -27.43201 c -1.08,0 -1.94399,0.36 -2.66399,1.08 -0.72001,0.72 -1.00801,1.584 -1.00801,2.592 0,1.08 0.288,1.944 1.00801,2.664 z" transform="translate(0 264.2916958900769) translate(721.6007243595035 78.64803648731353) scale(1.4492541162858097) translate(-614.15112 -63.768)"></path> 
  </g> 
  <g id="tagline" style="font-style:normal;font-weight:500;font-size:32px;line-height:1;font-family:Raleway;font-variant-ligatures:none;text-align:center;text-anchor:middle"></g> 
 </g> 
</svg>