<svg xmlns:dc="http://purl.org/dc/elements/1.1/" xmlns:cc="http://creativecommons.org/ns#" xmlns:rdf="http://www.w3.org/1999/02/22-rdf-syntax-ns#" xmlns:svg="http://www.w3.org/2000/svg" xmlns="http://www.w3.org/2000/svg" id="svg25129" viewbox="0 0 1024 768" height="768px" width="1024px" version="1.1"> <metadata id="metadata25135"> 
  <rdf:rdf> 
   <cc:work rdf:about=""> 
    <dc:format>
     image/svg+xml
    </dc:format> 
    <dc:type rdf:resource="http://purl.org/dc/dcmitype/StillImage"></dc:type> 
   </cc:work> 
  </rdf:rdf> 
 </metadata> <defs id="defs25133"></defs> <g id="logo-group"> 
  <g id="title" style="font-style:normal;font-weight:800;font-size:72px;line-height:1;font-family:'Montserrat ExtraBold Alt1';font-variant-ligatures:none;text-align:center;text-anchor:middle" aria-label="O7AFTERNOON"> 
   <path id="path25137" style="font-style: normal; font-weight: 800; font-size: 72px; line-height: 1; font-family: &quot;Montserrat ExtraBold Alt1&quot;; font-variant-ligatures: none; text-align: center; text-anchor: middle; fill: rgb(154, 215, 216);" d="m 232.60287,117.624 c 4.248,2.304 9.07201,3.384 14.4,3.384 5.328,0 10.08,-1.08 14.328,-3.384 4.248,-2.232 7.56,-5.328 10.00801,-9.36 2.44799,-3.96 3.67199,-8.424 3.67199,-13.464 0,-4.968 -1.224,-9.432 -3.67199,-13.464 -2.44801,-3.96 -5.76001,-7.056 -10.00801,-9.36 -4.248,-2.232 -9,-3.384 -14.328,-3.384 -5.32799,0 -10.152,1.152 -14.4,3.384 -4.248,2.304 -7.56,5.4 -10.008,9.36 -2.448,4.032 -3.6,8.496 -3.6,13.464 0,5.04 1.152,9.504 3.6,13.464 2.448,4.032 5.76,7.128 10.008,9.36 z m 21.312,-10.224 c -2.088,1.224 -4.392,1.8 -6.912,1.8 -2.592,0 -4.896,-0.576 -6.912,-1.8 -2.088,-1.152 -3.744,-2.88 -4.896,-5.04 -1.224,-2.16 -1.79999,-4.68 -1.79999,-7.56 0,-2.808 0.57599,-5.328 1.79999,-7.488 1.152,-2.16 2.808,-3.888 4.896,-5.112 2.016,-1.152 4.32,-1.8 6.912,-1.8 2.52,0 4.824,0.648 6.912,1.8 2.01601,1.224 3.67201,2.952 4.896,5.112 1.152,2.16 1.80001,4.68 1.80001,7.488 0,2.88 -0.64801,5.4 -1.80001,7.56 -1.22399,2.16 -2.87999,3.888 -4.896,5.04 z" transform="translate(0 316.41018181818185) translate(178.64903181818192 43.764363636363626) scale(0.9090909090909091) translate(-218.99487 -68.592)"></path> 
   <path id="path25139" style="font-style: normal; font-weight: 800; font-size: 72px; line-height: 1; font-family: &quot;Montserrat ExtraBold Alt1&quot;; font-variant-ligatures: none; text-align: center; text-anchor: middle; fill: rgb(154, 215, 216);" d="m 320.8535,69.6 h -41.76 v 19.08 h 12.168 v -7.776 h 13.248 L 287.5175,120 h 15.552 l 17.784,-41.472 z" transform="translate(0 316.41018181818185) translate(246.92051363636375 44.68072727272727) scale(0.9090909090909091) translate(-279.0935 -69.6)"></path> 
   <path id="path25141" style="font-style: normal; font-weight: 800; font-size: 72px; line-height: 1; font-family: &quot;Montserrat ExtraBold Alt1&quot;; font-variant-ligatures: none; text-align: center; text-anchor: middle; fill: rgb(160, 151, 169);" d="m 354.12987,69.6 h -14.04 L 317.84188,120 h 14.54399 l 3.96,-9.792 4.17601,-10.512 6.47999,-16.128 6.48,16.128 4.176,10.512 3.96001,9.792 h 14.832 z" transform="translate(0 316.41018181818185) translate(295.78267727272737 44.68072727272727) scale(0.9090909090909091) translate(-317.84188 -69.6)"></path> 
   <path id="path25143" style="font-style: normal; font-weight: 800; font-size: 72px; line-height: 1; font-family: &quot;Montserrat ExtraBold Alt1&quot;; font-variant-ligatures: none; text-align: center; text-anchor: middle; fill: rgb(160, 151, 169);" d="m 380.49313,120 h 14.25599 v -17.28 h 23.832 V 91.704 h -38.08799 z m 0,-50.4 v 11.016 h 38.08799 V 69.6 Z" transform="translate(0 316.41018181818185) translate(366.3747227272728 44.68072727272727) scale(0.9090909090909091) translate(-380.49313 -69.6)"></path> 
   <path id="path25145" style="font-style: normal; font-weight: 800; font-size: 72px; line-height: 1; font-family: &quot;Montserrat ExtraBold Alt1&quot;; font-variant-ligatures: none; text-align: center; text-anchor: middle; fill: rgb(160, 151, 169);" d="M 437.90863,80.904 V 120 h 14.25599 V 80.904 h 15.40801 V 69.6 h -45.14401 v 11.304 z" transform="translate(0 316.41018181818185) translate(418.1342590909092 44.68072727272727) scale(0.9090909090909091) translate(-422.42862 -69.6)"></path> 
   <path id="path25147" style="font-style: normal; font-weight: 800; font-size: 72px; line-height: 1; font-family: &quot;Montserrat ExtraBold Alt1&quot;; font-variant-ligatures: none; text-align: center; text-anchor: middle; fill: rgb(160, 151, 169);" d="m 512.84375,69.6 h -39.96 v 11.016 h 39.96 z m 0,19.512 h -39.96 v 10.656 h 39.96 z m -39.96,19.872 V 120 h 39.96 v -11.016 z" transform="translate(0 316.41018181818185) translate(477.63892272727287 44.68072727272727) scale(0.9090909090909091) translate(-472.88375 -69.6)"></path> 
   <path id="path25149" style="font-style: normal; font-weight: 800; font-size: 72px; line-height: 1; font-family: &quot;Montserrat ExtraBold Alt1&quot;; font-variant-ligatures: none; text-align: center; text-anchor: middle; fill: rgb(160, 151, 169);" d="m 556.82675,104.16 c 3.096,-1.512 5.544,-3.6 7.272,-6.336 1.728,-2.736 2.592,-5.904 2.592,-9.576 0,-3.744 -0.936,-7.056 -2.736,-9.864 -1.872,-2.808 -4.464,-4.968 -7.776,-6.48 -3.384,-1.512 -7.344,-2.304 -11.88,-2.304 h -23.04 v 11.232 h 22.176 c 2.88,0 5.112,0.648 6.624,1.944 1.44,1.296 2.232,3.168 2.232,5.472 0,2.376 -0.792,4.176 -2.232,5.472 -1.512,1.296 -3.744,1.872 -6.624,1.872 h -22.176 V 120 h 14.256 v -13.392 h 7.776 l 9.144,13.392 h 15.264 z" transform="translate(0 316.41018181818185) translate(535.2525590909092 44.68072727272727) scale(0.9090909090909091) translate(-521.25875 -69.6)"></path> 
   <path id="path25151" style="font-style: normal; font-weight: 800; font-size: 72px; line-height: 1; font-family: &quot;Montserrat ExtraBold Alt1&quot;; font-variant-ligatures: none; text-align: center; text-anchor: middle; fill: rgb(160, 151, 169);" d="m 574.55562,120 h 13.96801 v -8.496 L 574.55562,93.72 Z m 33.984,-50.4 v 9.144 l 13.968,16.848 V 69.6 Z m 0,26.856 -22.248,-26.856 h -11.736 v 6.696 L 588.52363,93.144 610.77162,120 h 11.736 v -5.832 l -13.968,-17.784 z" transform="translate(0 316.41018181818185) translate(597.3406227272728 44.68072727272727) scale(0.9090909090909091) translate(-574.55562 -69.6)"></path> 
   <path id="path25153" style="font-style: normal; font-weight: 800; font-size: 72px; line-height: 1; font-family: &quot;Montserrat ExtraBold Alt1&quot;; font-variant-ligatures: none; text-align: center; text-anchor: middle; fill: rgb(160, 151, 169);" d="m 643.64975,117.624 c 4.248,2.304 9.072,3.384 14.4,3.384 5.328,0 10.08,-1.08 14.328,-3.384 4.248,-2.232 7.56,-5.328 10.008,-9.36 2.448,-3.96 3.672,-8.424 3.672,-13.464 0,-4.968 -1.224,-9.432 -3.672,-13.464 -2.448,-3.96 -5.76,-7.056 -10.008,-9.36 -4.248,-2.232 -9,-3.384 -14.328,-3.384 -5.328,0 -10.152,1.152 -14.4,3.384 -4.248,2.304 -7.56,5.4 -10.008,9.36 -2.448,4.032 -3.6,8.496 -3.6,13.464 0,5.04 1.152,9.504 3.6,13.464 2.448,4.032 5.76,7.128 10.008,9.36 z m 21.312,-10.224 c -2.088,1.224 -4.392,1.8 -6.912,1.8 -2.592,0 -4.896,-0.576 -6.912,-1.8 -2.088,-1.152 -3.744,-2.88 -4.896,-5.04 -1.224,-2.16 -1.8,-4.68 -1.8,-7.56 0,-2.808 0.576,-5.328 1.8,-7.488 1.152,-2.16 2.808,-3.888 4.896,-5.112 2.016,-1.152 4.32,-1.8 6.912,-1.8 2.52,0 4.824,0.648 6.912,1.8 2.016,1.224 3.672,2.952 4.896,5.112 1.152,2.16 1.8,4.68 1.8,7.488 0,2.88 -0.648,5.4 -1.8,7.56 -1.224,2.16 -2.88,3.888 -4.896,5.04 z" transform="translate(0 316.41018181818185) translate(661.4189227272728 43.764363636363626) scale(0.9090909090909091) translate(-630.04175 -68.592)"></path> 
   <path id="path25155" style="font-style: normal; font-weight: 800; font-size: 72px; line-height: 1; font-family: &quot;Montserrat ExtraBold Alt1&quot;; font-variant-ligatures: none; text-align: center; text-anchor: middle; fill: rgb(160, 151, 169);" d="m 704.54038,117.624 c 4.24799,2.304 9.072,3.384 14.4,3.384 5.32799,0 10.08,-1.08 14.32799,-3.384 4.24801,-2.232 7.56001,-5.328 10.00801,-9.36 2.44799,-3.96 3.672,-8.424 3.672,-13.464 0,-4.968 -1.22401,-9.432 -3.672,-13.464 -2.448,-3.96 -5.76,-7.056 -10.00801,-9.36 -4.24799,-2.232 -9,-3.384 -14.32799,-3.384 -5.328,0 -10.15201,1.152 -14.4,3.384 -4.24801,2.304 -7.56001,5.4 -10.00801,9.36 -2.44799,4.032 -3.6,8.496 -3.6,13.464 0,5.04 1.15201,9.504 3.6,13.464 2.448,4.032 5.76,7.128 10.00801,9.36 z m 21.312,-10.224 c -2.08801,1.224 -4.39201,1.8 -6.912,1.8 -2.592,0 -4.89601,-0.576 -6.91201,-1.8 -2.08799,-1.152 -3.744,-2.88 -4.89599,-5.04 -1.22401,-2.16 -1.80001,-4.68 -1.80001,-7.56 0,-2.808 0.576,-5.328 1.80001,-7.488 1.15199,-2.16 2.808,-3.888 4.89599,-5.112 2.016,-1.152 4.32001,-1.8 6.91201,-1.8 2.51999,0 4.82399,0.648 6.912,1.8 2.016,1.224 3.67199,2.952 4.89599,5.112 1.152,2.16 1.8,4.68 1.8,7.488 0,2.88 -0.648,5.4 -1.8,7.56 -1.224,2.16 -2.87999,3.888 -4.89599,5.04 z" transform="translate(0 316.41018181818185) translate(730.4103954545456 43.764363636363626) scale(0.9090909090909091) translate(-690.93237 -68.592)"></path> 
   <path id="path25157" style="font-style: normal; font-weight: 800; font-size: 72px; line-height: 1; font-family: &quot;Montserrat ExtraBold Alt1&quot;; font-variant-ligatures: none; text-align: center; text-anchor: middle; fill: rgb(160, 151, 169);" d="m 754.415,120 h 13.968 v -8.496 L 754.415,93.72 Z m 33.984,-50.4 v 9.144 l 13.968,16.848 V 69.6 Z m 0,26.856 L 766.151,69.6 h -11.736 v 6.696 L 768.383,93.144 790.631,120 h 11.736 v -5.832 L 788.399,96.384 Z" transform="translate(0 316.41018181818185) translate(801.7582409090909 44.68072727272727) scale(0.9090909090909091) translate(-754.415 -69.6)"></path> 
  </g> 
  <g id="tagline" style="font-style:normal;font-weight:500;font-size:32px;line-height:1;font-family:Montserrat;font-variant-ligatures:none;text-align:center;text-anchor:middle"></g> 
 </g> 
</svg>