<svg xmlns:dc="http://purl.org/dc/elements/1.1/" xmlns:cc="http://creativecommons.org/ns#" xmlns:rdf="http://www.w3.org/1999/02/22-rdf-syntax-ns#" xmlns:svg="http://www.w3.org/2000/svg" xmlns="http://www.w3.org/2000/svg" id="svg295451" viewbox="0 0 1024 768" height="768px" width="1024px" version="1.1"> <metadata id="metadata295457"> 
  <rdf:rdf> 
   <cc:work rdf:about=""> 
    <dc:format>
     image/svg+xml
    </dc:format> 
    <dc:type rdf:resource="http://purl.org/dc/dcmitype/StillImage"></dc:type> 
   </cc:work> 
  </rdf:rdf> 
 </metadata> <defs id="defs295455"></defs> <g id="logo-group"> 
  <g id="title" style="font-style:normal;font-weight:700;font-size:72px;line-height:1;font-family:'Comfortaa Bold Alt1';font-variant-ligatures:none;text-align:center;text-anchor:middle" aria-label="O7ABILITY"> 
   <path id="path295459" style="font-style: normal; font-weight: 700; font-size: 72px; line-height: 1; font-family: &quot;Comfortaa Bold Alt1&quot;; font-variant-ligatures: none; text-align: center; text-anchor: middle; fill: rgb(201, 148, 92);" d="m 349.79187,120.72 c 3.888,0 7.632,-0.72 11.232,-2.232 3.456,-1.44 6.48,-3.528 9.144,-6.192 2.66401,-2.664 4.752,-5.688 6.192,-9.144 1.512,-3.6 2.30401,-7.344 2.30401,-11.232 0,-3.888 -0.79201,-7.632 -2.30401,-11.232 -1.44,-3.456 -3.52799,-6.48 -6.192,-9.144 -2.664,-2.664 -5.688,-4.752 -9.144,-6.192 -3.6,-1.512 -7.344,-2.304 -11.232,-2.304 -3.88799,0 -7.632,0.792 -11.232,2.304 -3.45599,1.44 -6.47999,3.528 -9.14399,6.192 -2.66401,2.664 -4.752,5.688 -6.192,9.144 -1.512,3.6 -2.23201,7.344 -2.23201,11.232 0,3.888 0.72001,7.632 2.23201,11.232 1.44,3.456 3.52799,6.48 6.192,9.144 2.664,2.664 5.688,4.752 9.14399,6.192 3.6,1.512 7.34401,2.232 11.232,2.232 z m 0,-50.616 c 6.048,0 11.16,2.16 15.40801,6.408 4.24799,4.248 6.40799,9.36 6.40799,15.408 0,6.048 -2.16,11.16 -6.40799,15.408 -4.24801,4.248 -9.36001,6.336 -15.40801,6.336 -6.048,0 -11.16,-2.088 -15.408,-6.336 -4.248,-4.248 -6.336,-9.36 -6.336,-15.408 0,-6.048 2.088,-11.16 6.336,-15.408 4.248,-4.248 9.36,-6.408 15.408,-6.408 z" transform="translate(0 294.95466666666664) translate(230.89895555555557 57.00533333333334) scale(1.1111111111111112) translate(-320.99187 -63.048)"></path> 
   <path id="path295461" style="font-style: normal; font-weight: 700; font-size: 72px; line-height: 1; font-family: &quot;Comfortaa Bold Alt1&quot;; font-variant-ligatures: none; text-align: center; text-anchor: middle; fill: rgb(201, 148, 92);" d="m 382.84663,70.104 c 0.71999,0.72 1.584,1.008 2.66399,1.008 h 21.888 l -20.664,42.912 c -0.432,0.864 -0.64799,1.656 -0.64799,2.304 0,1.008 0.35999,1.872 1.07999,2.592 0.72,0.72 1.512,1.08 2.52,1.08 0.64801,0 1.296,-0.144 1.944,-0.504 0.576,-0.36 1.08,-0.864 1.44,-1.512 l 23.04001,-48.6 c 0.28799,-0.72 0.50399,-1.368 0.50399,-1.944 0,-1.008 -0.35999,-1.872 -1.08,-2.592 -0.72,-0.72 -1.584,-1.08 -2.59199,-1.08 h -27.43201 c -1.07999,0 -1.944,0.36 -2.66399,1.08 -0.72001,0.72 -1.00801,1.584 -1.00801,2.592 0,1.08 0.288,1.944 1.00801,2.664 z" transform="translate(0 294.95466666666664) translate(315.1731222222222 57.80533333333334) scale(1.1111111111111112) translate(-381.83862 -63.768)"></path> 
   <path id="path295463" style="font-style: normal; font-weight: 700; font-size: 72px; line-height: 1; font-family: &quot;Comfortaa Bold Alt1&quot;; font-variant-ligatures: none; text-align: center; text-anchor: middle; fill: rgb(222, 238, 204);" d="m 468.37362,116.328 c 0,-0.432 -0.144,-0.936 -0.36,-1.584 L 447.70963,66.288 c -0.64801,-1.656 -1.80001,-2.52 -3.52801,-2.52 -1.656,0 -2.808,0.864 -3.528,2.52 l -20.232,48.312 c -0.288,0.648 -0.36,1.224 -0.36,1.656 0,1.08 0.288,1.944 1.008,2.664 0.72,0.72 1.584,1.08 2.66401,1.08 0.71999,0 1.368,-0.144 2.01599,-0.576 0.576,-0.432 1.08001,-0.936 1.44,-1.728 l 3.528,-8.712 c 0.36,-0.864 1.008,-1.368 2.01601,-1.368 h 22.896 c 1.008,0 1.65599,0.504 2.01599,1.368 l 3.52801,8.712 c 0.216,0.72 0.71999,1.296 1.36799,1.728 0.648,0.432 1.296,0.576 2.08801,0.576 1.008,0 1.94399,-0.36 2.664,-1.08 0.71999,-0.72 1.07999,-1.584 1.07999,-2.592 z m -14.976,-17.856 c 0.28801,0.72 0.21601,1.44 -0.216,2.016 -0.432,0.648 -1.00799,0.936 -1.8,0.936 h -14.4 c -0.792,0 -1.36799,-0.288 -1.8,-0.936 -0.432,-0.648 -0.504,-1.296 -0.216,-2.016 l 7.344,-17.784 c 0.36,-0.864 1.00801,-1.296 1.944,-1.296 1.008,0 1.656,0.432 2.01601,1.368 z" transform="translate(0 294.95466666666664) translate(374.3097888888889 57.80533333333334) scale(1.1111111111111112) translate(-420.06162 -63.768)"></path> 
   <path id="path295465" style="font-style: normal; font-weight: 700; font-size: 72px; line-height: 1; font-family: &quot;Comfortaa Bold Alt1&quot;; font-variant-ligatures: none; text-align: center; text-anchor: middle; fill: rgb(222, 238, 204);" d="m 506.11063,65.712 c -2.52001,-1.296 -5.40001,-1.944 -8.56801,-1.944 h -17.20799 c -1.08001,0 -2.01601,0.36 -2.66401,1.08 -0.72,0.72 -1.08,1.584 -1.08,2.664 v 48.744 c 0,1.08 0.36,1.944 1.08,2.664 0.72,0.72 1.584,1.08 2.66401,1.08 h 18.71999 c 3.528,0 6.69601,-0.72 9.504,-2.16 2.808,-1.368 4.968,-3.384 6.55201,-6.048 1.58399,-2.52 2.37599,-5.472 2.37599,-8.784 0,-3.528 -0.936,-6.48 -2.808,-8.784 -1.872,-2.304 -4.464,-3.816 -7.704,-4.608 2.16001,-1.08 3.888,-2.592 5.18401,-4.536 1.29599,-1.8 1.94399,-3.96 1.94399,-6.336 0,-2.88 -0.72,-5.4 -2.15999,-7.704 -1.44,-2.304 -3.38401,-4.032 -5.832,-5.328 z m -1.8,19.08 c -1.72801,1.44 -3.96001,2.088 -6.76801,2.088 h -11.30399 c -0.64801,0 -1.152,-0.144 -1.58401,-0.576 -0.432,-0.432 -0.576,-0.936 -0.576,-1.584 V 72.912 c 0,-0.648 0.144,-1.152 0.576,-1.584 0.43201,-0.432 0.936,-0.648 1.58401,-0.648 h 11.30399 c 2.808,0 5.04,0.72 6.76801,2.088 1.728,1.368 2.59199,3.384 2.59199,5.976 0,2.664 -0.86399,4.68 -2.59199,6.048 z m 2.87999,25.704 c -2.088,1.728 -4.824,2.592 -8.136,2.592 h -12.81599 c -0.64801,0 -1.152,-0.144 -1.58401,-0.576 -0.432,-0.432 -0.576,-0.936 -0.576,-1.584 V 96.024 c 0,-0.648 0.144,-1.152 0.576,-1.584 0.43201,-0.432 0.936,-0.648 1.58401,-0.648 h 12.81599 c 3.384,0 6.12,0.792 8.136,2.376 2.01601,1.656 3.09601,3.888 3.09601,6.84 0,3.24 -1.08,5.76 -3.09601,7.488 z" transform="translate(0 294.95466666666664) translate(453.7864555555555 57.80533333333334) scale(1.1111111111111112) translate(-476.59062 -63.768)"></path> 
   <path id="path295467" style="font-style: normal; font-weight: 700; font-size: 72px; line-height: 1; font-family: &quot;Comfortaa Bold Alt1&quot;; font-variant-ligatures: none; text-align: center; text-anchor: middle; fill: rgb(222, 238, 204);" d="m 529.70187,64.848 c -0.72,0.72 -1.07999,1.584 -1.07999,2.664 v 48.744 c 0,1.08 0.35999,1.944 1.07999,2.664 0.72,0.72 1.58401,1.08 2.664,1.08 1.08,0 1.94401,-0.36 2.664,-1.08 0.72,-0.72 1.08,-1.584 1.08,-2.664 V 67.512 c 0,-1.08 -0.36,-1.944 -1.08,-2.664 -0.71999,-0.72 -1.584,-1.08 -2.664,-1.08 -1.07999,0 -1.944,0.36 -2.664,1.08 z" transform="translate(0 294.95466666666664) translate(528.2656333333333 57.80533333333334) scale(1.1111111111111112) translate(-528.62188 -63.768)"></path> 
   <path id="path295469" style="font-style: normal; font-weight: 700; font-size: 72px; line-height: 1; font-family: &quot;Comfortaa Bold Alt1&quot;; font-variant-ligatures: none; text-align: center; text-anchor: middle; fill: rgb(222, 238, 204);" d="m 586.70338,113.592 c -0.72,-0.72 -1.65601,-1.08 -2.664,-1.08 h -23.90401 c -0.64799,0 -1.15199,-0.144 -1.584,-0.576 -0.432,-0.432 -0.576,-0.936 -0.576,-1.584 v -42.84 c 0,-1.008 -0.36,-1.944 -1.08,-2.664 -0.71999,-0.72 -1.656,-1.08 -2.664,-1.08 -1.00799,0 -1.872,0.36 -2.592,1.08 -0.72,0.72 -1.07999,1.656 -1.07999,2.664 v 48.744 c 0,1.08 0.288,2.016 1.00799,2.664 0.72,0.72 1.58401,1.08 2.664,1.08 h 29.80801 c 1.00799,0 1.944,-0.36 2.664,-1.08 0.71999,-0.72 1.07999,-1.584 1.07999,-2.664 0,-1.008 -0.36,-1.944 -1.07999,-2.664 z" transform="translate(0 294.95466666666664) translate(569.3073 57.80533333333334) scale(1.1111111111111112) translate(-550.55938 -63.768)"></path> 
   <path id="path295471" style="font-style: normal; font-weight: 700; font-size: 72px; line-height: 1; font-family: &quot;Comfortaa Bold Alt1&quot;; font-variant-ligatures: none; text-align: center; text-anchor: middle; fill: rgb(222, 238, 204);" d="m 597.905,64.848 c -0.72,0.72 -1.08,1.584 -1.08,2.664 v 48.744 c 0,1.08 0.36,1.944 1.08,2.664 0.72,0.72 1.584,1.08 2.664,1.08 1.08,0 1.944,-0.36 2.664,-1.08 0.72,-0.72 1.08,-1.584 1.08,-2.664 V 67.512 c 0,-1.08 -0.36,-1.944 -1.08,-2.664 -0.72,-0.72 -1.584,-1.08 -2.664,-1.08 -1.08,0 -1.944,0.36 -2.664,1.08 z" transform="translate(0 294.95466666666664) translate(637.3802111111112 57.80533333333334) scale(1.1111111111111112) translate(-596.825 -63.768)"></path> 
   <path id="path295473" style="font-style: normal; font-weight: 700; font-size: 72px; line-height: 1; font-family: &quot;Comfortaa Bold Alt1&quot;; font-variant-ligatures: none; text-align: center; text-anchor: middle; fill: rgb(222, 238, 204);" d="m 657.0665,64.776 c -0.648,-0.648 -1.44,-1.008 -2.448,-1.008 h -38.52 c -1.008,0 -1.872,0.36 -2.52,1.008 -0.648,0.648 -0.936,1.44 -0.936,2.448 0,1.008 0.288,1.872 0.936,2.52 0.648,0.648 1.512,0.936 2.52,0.936 h 13.392 c 0.576,0 1.08,0.216 1.512,0.648 0.432,0.432 0.648,0.936 0.648,1.512 v 43.416 c 0,1.08 0.36,1.944 1.08,2.664 0.72,0.72 1.584,1.08 2.664,1.08 1.008,0 1.944,-0.36 2.664,-1.08 0.72,-0.72 1.08,-1.584 1.08,-2.664 V 72.84 c 0,-0.576 0.216,-1.08 0.648,-1.512 0.432,-0.432 0.936,-0.648 1.512,-0.648 h 13.32 c 1.008,0 1.8,-0.288 2.448,-0.936 0.648,-0.648 1.008,-1.512 1.008,-2.52 0,-1.008 -0.36,-1.8 -1.008,-2.448 z" transform="translate(0 294.95466666666664) translate(671.6218777777779 57.80533333333334) scale(1.1111111111111112) translate(-612.6425 -63.768)"></path> 
   <path id="path295475" style="font-style: normal; font-weight: 700; font-size: 72px; line-height: 1; font-family: &quot;Comfortaa Bold Alt1&quot;; font-variant-ligatures: none; text-align: center; text-anchor: middle; fill: rgb(222, 238, 204);" d="m 706.03775,64.776 c -0.576,-0.648 -1.368,-1.008 -2.232,-1.008 -1.44,0 -2.592,0.648 -3.312,1.8 l -15.336,24.192 c -0.432,0.648 -1.008,0.936 -1.8,0.936 -0.792,0 -1.44,-0.288 -1.872,-1.008 l -14.976,-23.832 c -0.504,-0.72 -1.008,-1.224 -1.44,-1.584 -0.504,-0.288 -1.152,-0.504 -1.872,-0.504 -1.008,0 -1.944,0.36 -2.664,1.008 -0.72,0.72 -1.08,1.512 -1.08,2.52 0,0.72 0.216,1.512 0.792,2.304 l 18.864,29.376 c 0.216,0.36 0.36,0.72 0.36,1.152 v 16.128 c 0,1.08 0.36,1.944 1.08,2.664 0.72,0.72 1.584,1.08 2.592,1.08 1.008,0 1.944,-0.36 2.664,-1.08 0.72,-0.72 1.08,-1.584 1.08,-2.664 v -16.128 c 0,-0.36 0.072,-0.792 0.288,-1.152 l 19.08,-29.376 c 0.432,-0.72 0.72,-1.512 0.72,-2.376 0,-0.936 -0.36,-1.728 -0.936,-2.448 z" transform="translate(0 294.95466666666664) translate(740.3010444444445 57.80533333333334) scale(1.1111111111111112) translate(-659.45375 -63.768)"></path> 
  </g> 
  <g id="tagline" style="font-style:normal;font-weight:500;font-size:32px;line-height:1;font-family:Raleway;font-variant-ligatures:none;text-align:center;text-anchor:middle"></g> 
 </g> 
</svg>