<svg xmlns:dc="http://purl.org/dc/elements/1.1/" xmlns:cc="http://creativecommons.org/ns#" xmlns:rdf="http://www.w3.org/1999/02/22-rdf-syntax-ns#" xmlns:svg="http://www.w3.org/2000/svg" xmlns="http://www.w3.org/2000/svg" id="svg37082" viewbox="0 0 1024 768" height="768px" width="1024px" version="1.1"> <metadata id="metadata37088"> 
  <rdf:rdf> 
   <cc:work rdf:about=""> 
    <dc:format>
     image/svg+xml
    </dc:format> 
    <dc:type rdf:resource="http://purl.org/dc/dcmitype/StillImage"></dc:type> 
   </cc:work> 
  </rdf:rdf> 
 </metadata> <defs id="defs37086"></defs> <g id="logo-group"> 
  <g id="title" style="font-style:normal;font-weight:500;font-size:72px;line-height:1;font-family:'Raleway Medium Alt1';font-variant-ligatures:none;text-align:center;text-anchor:middle" aria-label="o7Accented"> 
   <path id="path37090" style="font-style: normal; font-weight: 500; font-size: 72px; line-height: 1; font-family: &quot;Raleway Medium Alt1&quot;; font-variant-ligatures: none; text-align: center; text-anchor: middle; fill: rgb(0, 144, 217);" d="m 332.22331,120.72 c 2.808,0 5.4,-0.504 7.704,-1.584 2.304,-1.008 4.32,-2.448 6.048,-4.248 1.656,-1.728 2.952,-3.816 3.888,-6.192 0.864,-2.304 1.368,-4.824 1.368,-7.416 0,-2.592 -0.504,-5.112 -1.44,-7.488 -0.936,-2.304 -2.232,-4.392 -3.888,-6.192 -1.656,-1.728 -3.672,-3.168 -5.976,-4.248 -2.376,-1.008 -4.968,-1.584 -7.704,-1.584 -2.808,0 -5.4,0.576 -7.704,1.584 -2.304,1.08 -4.32,2.52 -5.976,4.248 -1.656,1.8 -2.952,3.888 -3.888,6.192 -0.936,2.376 -1.368,4.896 -1.368,7.488 0,2.592 0.432,5.112 1.368,7.416 0.864,2.376 2.16,4.464 3.816,6.192 1.656,1.8 3.672,3.24 5.976,4.248 2.304,1.08 4.896,1.584 7.776,1.584 z m -12.456,-19.368 c 0,-1.944 0.288,-3.744 0.936,-5.472 0.648,-1.728 1.512,-3.168 2.664,-4.464 1.152,-1.296 2.448,-2.304 3.96,-3.024 1.512,-0.72 3.168,-1.152 4.896,-1.152 1.728,0 3.312,0.36 4.824,1.08 1.512,0.72 2.88,1.728 4.032,3.024 1.152,1.296 2.016,2.736 2.664,4.464 0.648,1.728 1.008,3.528 1.008,5.4 0,2.016 -0.36,3.816 -1.008,5.544 -0.648,1.728 -1.512,3.168 -2.664,4.464 -1.152,1.296 -2.52,2.232 -4.032,2.952 -1.512,0.72 -3.096,1.08 -4.824,1.08 -1.728,0 -3.384,-0.36 -4.896,-1.08 -1.512,-0.72 -2.808,-1.656 -3.96,-2.952 -1.152,-1.224 -2.016,-2.664 -2.664,-4.392 -0.648,-1.656 -0.936,-3.456 -0.936,-5.472 z" transform="translate(0 285.68925503568386) translate(251.9999999999999 78.85173192367847) scale(1.177621220082165) translate(-313.28731 -81.768)"></path> 
   <path id="path37092" style="font-style: normal; font-weight: 500; font-size: 72px; line-height: 1; font-family: &quot;Raleway Medium Alt1&quot;; font-variant-ligatures: none; text-align: center; text-anchor: middle; fill: rgb(0, 144, 217);" d="m 382.09119,83.856 -22.896,45.288 h 7.2 l 25.704,-51.12 h -36.288 v 5.832 z" transform="translate(0 285.68925503568386) translate(307.9651295486383 74.44271807569083) scale(1.177621220082165) translate(-355.81119 -78.024)"></path> 
   <path id="path37094" style="font-style: normal; font-weight: 500; font-size: 72px; line-height: 1; font-family: &quot;Raleway Medium Alt1&quot;; font-variant-ligatures: none; text-align: center; text-anchor: middle; fill: rgb(208, 89, 97);" d="m 419.25669,75.864 -2.808,7.632 6.48,16.488 h -12.816 l -1.944,5.04 h 16.2 l 6.048,14.976 h 6.912 z m -2.808,-6.984 h -5.472 l -20.952,51.12 h 6.624 l 17.064,-43.632 z" transform="translate(0 285.68925503568386) translate(354.1437792623302 63.67454963925951) scale(1.177621220082165) translate(-390.02469 -68.88)"></path> 
   <path id="path37096" style="font-style: normal; font-weight: 500; font-size: 72px; line-height: 1; font-family: &quot;Raleway Medium Alt1&quot;; font-variant-ligatures: none; text-align: center; text-anchor: middle; fill: rgb(208, 89, 97);" d="m 439.56856,101.136 c 0,2.664 0.432,5.184 1.368,7.56 0.936,2.376 2.232,4.464 3.96,6.192 1.656,1.8 3.672,3.24 6.048,4.248 2.304,1.08 4.896,1.584 7.776,1.584 1.872,0 3.6,-0.216 5.328,-0.72 1.728,-0.432 3.24,-1.08 4.68,-1.944 1.368,-0.792 2.592,-1.8 3.6,-2.952 1.008,-1.152 1.872,-2.376 2.448,-3.816 l -6.192,-1.872 c -0.288,0.864 -0.792,1.584 -1.44,2.304 -0.72,0.72 -1.512,1.296 -2.376,1.8 -0.864,0.576 -1.872,1.008 -2.952,1.296 -1.08,0.288 -2.16,0.432 -3.24,0.432 -1.728,0 -3.384,-0.36 -4.896,-1.08 -1.512,-0.72 -2.808,-1.656 -3.96,-2.952 -1.152,-1.296 -2.016,-2.808 -2.664,-4.536 -0.72,-1.728 -1.008,-3.528 -1.008,-5.544 0,-2.016 0.288,-3.816 0.936,-5.544 0.648,-1.656 1.512,-3.096 2.664,-4.392 1.08,-1.224 2.376,-2.16 3.96,-2.88 1.512,-0.72 3.168,-1.08 4.896,-1.08 2.088,0 4.032,0.504 5.76,1.512 1.728,1.008 3.024,2.376 4.032,4.104 l 6.192,-1.944 c -1.44,-2.736 -3.456,-4.968 -6.192,-6.624 -2.736,-1.656 -5.904,-2.52 -9.648,-2.52 -2.88,0 -5.544,0.576 -7.848,1.584 -2.304,1.008 -4.32,2.448 -5.976,4.176 -1.728,1.728 -3.024,3.816 -3.888,6.12 -0.936,2.376 -1.368,4.896 -1.368,7.488 z" transform="translate(0 285.68925503568386) translate(418.37579799973315 78.85173192367847) scale(1.177621220082165) translate(-439.56856 -81.768)"></path> 
   <path id="path37098" style="font-style: normal; font-weight: 500; font-size: 72px; line-height: 1; font-family: &quot;Raleway Medium Alt1&quot;; font-variant-ligatures: none; text-align: center; text-anchor: middle; fill: rgb(208, 89, 97);" d="m 479.08419,101.136 c 0,2.664 0.432,5.184 1.368,7.56 0.936,2.376 2.232,4.464 3.96,6.192 1.656,1.8 3.672,3.24 6.048,4.248 2.304,1.08 4.896,1.584 7.776,1.584 1.872,0 3.6,-0.216 5.328,-0.72 1.728,-0.432 3.24,-1.08 4.68,-1.944 1.368,-0.792 2.592,-1.8 3.6,-2.952 1.008,-1.152 1.872,-2.376 2.448,-3.816 l -6.192,-1.872 c -0.288,0.864 -0.792,1.584 -1.44,2.304 -0.72,0.72 -1.512,1.296 -2.376,1.8 -0.864,0.576 -1.872,1.008 -2.952,1.296 -1.08,0.288 -2.16,0.432 -3.24,0.432 -1.728,0 -3.384,-0.36 -4.896,-1.08 -1.512,-0.72 -2.808,-1.656 -3.96,-2.952 -1.152,-1.296 -2.016,-2.808 -2.664,-4.536 -0.72,-1.728 -1.008,-3.528 -1.008,-5.544 0,-2.016 0.288,-3.816 0.936,-5.544 0.648,-1.656 1.512,-3.096 2.664,-4.392 1.08,-1.224 2.376,-2.16 3.96,-2.88 1.512,-0.72 3.168,-1.08 4.896,-1.08 2.088,0 4.032,0.504 5.76,1.512 1.728,1.008 3.024,2.376 4.032,4.104 l 6.192,-1.944 c -1.44,-2.736 -3.456,-4.968 -6.192,-6.624 -2.736,-1.656 -5.904,-2.52 -9.648,-2.52 -2.88,0 -5.544,0.576 -7.848,1.584 -2.304,1.008 -4.32,2.448 -5.976,4.176 -1.728,1.728 -3.024,3.816 -3.888,6.12 -0.936,2.376 -1.368,4.896 -1.368,7.488 z" transform="translate(0 285.68925503568386) translate(470.79834851305935 78.85173192367847) scale(1.177621220082165) translate(-479.08419 -81.768)"></path> 
   <path id="path37100" style="font-style: normal; font-weight: 500; font-size: 72px; line-height: 1; font-family: &quot;Raleway Medium Alt1&quot;; font-variant-ligatures: none; text-align: center; text-anchor: middle; fill: rgb(208, 89, 97);" d="m 537.75181,120.72 c 1.872,0 3.672,-0.216 5.4,-0.72 1.728,-0.432 3.24,-1.08 4.68,-1.944 1.44,-0.864 2.664,-1.872 3.744,-3.024 1.08,-1.152 1.944,-2.376 2.592,-3.816 l -5.472,-1.512 c -0.432,1.008 -1.008,1.872 -1.728,2.592 -0.72,0.792 -1.584,1.44 -2.52,1.944 -1.008,0.576 -2.016,1.008 -3.096,1.296 -1.152,0.288 -2.232,0.432 -3.384,0.432 -1.656,0 -3.24,-0.288 -4.68,-0.936 -1.44,-0.576 -2.736,-1.44 -3.888,-2.592 -1.152,-1.08 -2.088,-2.376 -2.808,-3.96 -0.72,-1.512 -1.152,-3.24 -1.296,-5.112 h 31.176 c 0,-0.216 0.072,-0.576 0.072,-1.008 0,-0.432 0.072,-0.864 0.072,-1.44 0,-2.448 -0.504,-4.896 -1.368,-7.2 -0.864,-2.304 -2.16,-4.392 -3.744,-6.12 -1.656,-1.728 -3.672,-3.168 -5.976,-4.248 -2.304,-1.008 -4.896,-1.584 -7.704,-1.584 -2.88,0 -5.472,0.576 -7.776,1.584 -2.376,1.008 -4.392,2.448 -6.12,4.176 -1.728,1.8 -3.024,3.888 -3.96,6.192 -0.936,2.376 -1.368,4.896 -1.368,7.488 0,2.664 0.432,5.184 1.368,7.56 0.936,2.376 2.232,4.464 3.96,6.192 1.656,1.8 3.672,3.24 6.048,4.248 2.304,1.008 4.896,1.512 7.776,1.512 z m 12.888,-22.032 h -25.488 c 0.144,-1.728 0.504,-3.384 1.224,-4.896 0.72,-1.44 1.584,-2.736 2.736,-3.816 1.152,-1.08 2.448,-1.944 3.96,-2.52 1.44,-0.576 3.024,-0.936 4.752,-0.936 1.656,0 3.24,0.36 4.752,0.936 1.44,0.576 2.736,1.44 3.888,2.448 1.152,1.08 2.088,2.376 2.808,3.888 0.72,1.512 1.224,3.168 1.368,4.896 z" transform="translate(0 285.68925503568386) translate(523.2208872501735 78.85173192367847) scale(1.177621220082165) translate(-518.59981 -81.768)"></path> 
   <path id="path37102" style="font-style: normal; font-weight: 500; font-size: 72px; line-height: 1; font-family: &quot;Raleway Medium Alt1&quot;; font-variant-ligatures: none; text-align: center; text-anchor: middle; fill: rgb(208, 89, 97);" d="M 596.34519,120 V 97.536 c 0,-2.232 -0.216,-4.32 -0.576,-6.264 -0.36,-1.872 -0.936,-3.528 -1.8,-4.968 -0.864,-1.44 -2.016,-2.52 -3.456,-3.312 -1.44,-0.792 -3.24,-1.224 -5.4,-1.224 -3.312,0 -6.408,0.792 -9.216,2.376 -2.808,1.584 -4.968,3.744 -6.408,6.336 v -8.064 h -5.76 V 120 h 6.336 V 97.32 c 0.432,-1.44 1.08,-2.736 1.944,-3.96 0.864,-1.152 1.872,-2.232 3.024,-3.096 1.152,-0.864 2.376,-1.512 3.672,-2.016 1.296,-0.504 2.592,-0.792 3.888,-0.792 2.448,0 4.32,0.936 5.544,2.736 1.224,1.872 1.872,4.752 1.872,8.784 V 120 Z" transform="translate(0 285.68925503568386) translate(582.254308887736 78.85173192367847) scale(1.177621220082165) translate(-563.72919 -81.768)"></path> 
   <path id="path37104" style="font-style: normal; font-weight: 500; font-size: 72px; line-height: 1; font-family: &quot;Raleway Medium Alt1&quot;; font-variant-ligatures: none; text-align: center; text-anchor: middle; fill: rgb(208, 89, 97);" d="m 625.21606,118.128 -1.512,-5.04 c -0.432,0.288 -1.152,0.576 -2.16,1.008 -1.008,0.432 -2.16,0.576 -3.384,0.576 -1.152,0 -2.088,-0.288 -2.88,-0.936 -0.864,-0.576 -1.296,-1.584 -1.368,-3.024 V 87.384 h 8.424 v -4.968 h -8.424 V 69.888 h -6.336 v 12.528 h -5.112 v 4.968 h 5.112 v 25.272 c 0,2.736 0.792,4.68 2.52,5.976 1.656,1.296 3.672,1.872 5.976,1.872 1.008,0 1.944,-0.072 2.88,-0.216 0.936,-0.144 1.8,-0.36 2.592,-0.648 0.792,-0.288 1.512,-0.504 2.16,-0.792 0.576,-0.288 1.08,-0.504 1.512,-0.72 z" transform="translate(0 285.68925503568386) translate(633.7574198572709 64.86159182910234) scale(1.177621220082165) translate(-602.46406 -69.888)"></path> 
   <path id="path37106" style="font-style: normal; font-weight: 500; font-size: 72px; line-height: 1; font-family: &quot;Raleway Medium Alt1&quot;; font-variant-ligatures: none; text-align: center; text-anchor: middle; fill: rgb(208, 89, 97);" d="m 647.15806,120.72 c 1.872,0 3.672,-0.216 5.4,-0.72 1.728,-0.432 3.24,-1.08 4.68,-1.944 1.44,-0.864 2.664,-1.872 3.744,-3.024 1.08,-1.152 1.944,-2.376 2.592,-3.816 l -5.472,-1.512 c -0.432,1.008 -1.008,1.872 -1.728,2.592 -0.72,0.792 -1.584,1.44 -2.52,1.944 -1.008,0.576 -2.016,1.008 -3.096,1.296 -1.152,0.288 -2.232,0.432 -3.384,0.432 -1.656,0 -3.24,-0.288 -4.68,-0.936 -1.44,-0.576 -2.736,-1.44 -3.888,-2.592 -1.152,-1.08 -2.088,-2.376 -2.808,-3.96 -0.72,-1.512 -1.152,-3.24 -1.296,-5.112 h 31.176 c 0,-0.216 0.072,-0.576 0.072,-1.008 0,-0.432 0.072,-0.864 0.072,-1.44 0,-2.448 -0.504,-4.896 -1.368,-7.2 -0.864,-2.304 -2.16,-4.392 -3.744,-6.12 -1.656,-1.728 -3.672,-3.168 -5.976,-4.248 -2.304,-1.008 -4.896,-1.584 -7.704,-1.584 -2.88,0 -5.472,0.576 -7.776,1.584 -2.376,1.008 -4.392,2.448 -6.12,4.176 -1.728,1.8 -3.024,3.888 -3.96,6.192 -0.936,2.376 -1.368,4.896 -1.368,7.488 0,2.664 0.432,5.184 1.368,7.56 0.936,2.376 2.232,4.464 3.96,6.192 1.656,1.8 3.672,3.24 6.048,4.248 2.304,1.008 4.896,1.512 7.776,1.512 z m 12.888,-22.032 h -25.488 c 0.144,-1.728 0.504,-3.384 1.224,-4.896 0.72,-1.44 1.584,-2.736 2.736,-3.816 1.152,-1.08 2.448,-1.944 3.96,-2.52 1.44,-0.576 3.024,-0.936 4.752,-0.936 1.656,0 3.24,0.36 4.752,0.936 1.44,0.576 2.736,1.44 3.888,2.448 1.152,1.08 2.088,2.376 2.808,3.888 0.72,1.512 1.224,3.168 1.368,4.896 z" transform="translate(0 285.68925503568386) translate(669.7243271610205 78.85173192367847) scale(1.177621220082165) translate(-628.00606 -81.768)"></path> 
   <path id="path37108" style="font-style: normal; font-weight: 500; font-size: 72px; line-height: 1; font-family: &quot;Raleway Medium Alt1&quot;; font-variant-ligatures: none; text-align: center; text-anchor: middle; fill: rgb(208, 89, 97);" d="m 688.61544,120.72 c 2.736,0 5.328,-0.648 7.776,-2.016 2.448,-1.368 4.464,-3.312 5.976,-5.76 v 3.168 c 0,1.152 0.432,2.088 1.368,2.952 0.936,0.864 2.016,1.224 3.312,1.224 0.36,0 0.72,0 1.152,-0.072 0.432,0 0.936,-0.072 1.656,-0.216 v -5.472 c -1.368,0 -2.016,-0.792 -2.016,-2.304 V 67.44 h -6.336 v 22.464 c -1.44,-2.232 -3.312,-4.176 -5.688,-5.76 -2.376,-1.584 -5.04,-2.376 -8.064,-2.376 -2.52,0 -4.824,0.576 -6.912,1.584 -2.088,1.008 -3.888,2.448 -5.4,4.176 -1.512,1.8 -2.664,3.888 -3.528,6.264 -0.864,2.376 -1.224,4.896 -1.224,7.488 0,2.592 0.432,5.112 1.296,7.416 0.864,2.376 2.16,4.464 3.744,6.192 1.584,1.8 3.456,3.24 5.688,4.248 2.16,1.08 4.608,1.584 7.2,1.584 z m 1.512,-5.472 c -1.872,0 -3.528,-0.36 -5.112,-1.08 -1.584,-0.72 -2.88,-1.728 -4.032,-3.024 -1.152,-1.224 -2.088,-2.664 -2.736,-4.392 -0.72,-1.728 -1.008,-3.528 -1.008,-5.4 0,-1.728 0.288,-3.456 0.864,-5.184 0.576,-1.728 1.368,-3.24 2.448,-4.536 1.08,-1.296 2.376,-2.376 3.888,-3.168 1.512,-0.792 3.24,-1.224 5.112,-1.224 1.152,0 2.376,0.288 3.6,0.72 1.224,0.432 2.376,1.08 3.456,1.872 1.08,0.792 2.088,1.728 2.952,2.808 0.864,1.08 1.512,2.232 1.944,3.384 v 10.8 c -0.288,1.152 -0.792,2.304 -1.584,3.312 -0.792,1.008 -1.728,1.944 -2.808,2.664 -1.08,0.792 -2.232,1.368 -3.456,1.8 -1.224,0.432 -2.376,0.648 -3.528,0.648 z" transform="translate(0 285.68925503568386) translate(725.8749320518219 61.9787750823412) scale(1.177621220082165) translate(-670.68744 -67.44)"></path> 
  </g> 
  <g id="tagline" style="font-style:oblique;font-weight:600;font-size:32px;line-height:1;font-family:Raleway;font-variant-ligatures:none;text-align:center;text-anchor:middle"></g> 
 </g> 
</svg>