<svg xmlns:dc="http://purl.org/dc/elements/1.1/" xmlns:cc="http://creativecommons.org/ns#" xmlns:rdf="http://www.w3.org/1999/02/22-rdf-syntax-ns#" xmlns:svg="http://www.w3.org/2000/svg" xmlns="http://www.w3.org/2000/svg" id="svg528197" viewbox="0 0 1024 768" height="768px" width="1024px" version="1.1"> <metadata id="metadata528203"> 
  <rdf:rdf> 
   <cc:work rdf:about=""> 
    <dc:format>
     image/svg+xml
    </dc:format> 
    <dc:type rdf:resource="http://purl.org/dc/dcmitype/StillImage"></dc:type> 
   </cc:work> 
  </rdf:rdf> 
 </metadata> <defs id="defs528201"></defs> <g id="logo-group"> 
  <g id="title" style="font-style:normal;font-weight:200;font-size:72px;line-height:1;font-family:Montserrat;font-variant-ligatures:none;text-align:center;text-anchor:middle" aria-label="o7App"> 
   <path id="path528205" style="font-style: normal; font-weight: 200; font-size: 72px; line-height: 1; font-family: Montserrat; font-variant-ligatures: none; text-align: center; text-anchor: middle; fill: rgb(255, 255, 255);" d="m 419.13631,82.776 q 5.112,0 9.216,2.376 4.176,2.376 6.48,6.624 2.376,4.248 2.376,9.576 0,5.328 -2.376,9.576 -2.304,4.248 -6.48,6.696 -4.104,2.376 -9.216,2.376 -5.112,0 -9.288,-2.376 -4.104,-2.448 -6.48,-6.696 -2.304,-4.248 -2.304,-9.576 0,-5.328 2.304,-9.576 2.376,-4.248 6.48,-6.624 4.176,-2.376 9.288,-2.376 z m 0,1.44 q -4.752,0 -8.568,2.232 -3.816,2.16 -5.976,6.048 -2.088,3.888 -2.088,8.856 0,4.968 2.088,8.928 2.16,3.888 5.976,6.12 3.816,2.16 8.568,2.16 4.752,0 8.568,-2.16 3.816,-2.232 5.904,-6.12 2.16,-3.96 2.16,-8.928 0,-4.968 -2.16,-8.856 -2.088,-3.888 -5.904,-6.048 -3.816,-2.232 -8.568,-2.232 z" transform="translate(0 191.7210782810593) translate(252 152.63648061487953) scale(2.081623666459838) translate(-401.06431 -82.776)"></path> 
   <path id="path528207" style="font-style: normal; font-weight: 200; font-size: 72px; line-height: 1; font-family: Montserrat; font-variant-ligatures: none; text-align: center; text-anchor: middle; fill: rgb(255, 255, 255);" d="m 443.50606,69.672 h 35.496 v 1.8 L 454.37806,120 h -1.584 l 24.912,-48.888 h -32.76 v 8.064 h -1.44 z" transform="translate(0 191.7210782810593) translate(354.9191169111907 125.35888408958982) scale(2.081623666459838) translate(-443.50606 -69.672)"></path> 
   <path id="path528209" style="font-style: normal; font-weight: 200; font-size: 72px; line-height: 1; font-family: Montserrat; font-variant-ligatures: none; text-align: center; text-anchor: middle; fill: rgb(153, 181, 227);" d="m 527.86756,120 -7.056,-15.336 h -30.528 l -6.984,15.336 h -1.728 l 23.04,-50.328 h 1.584 l 23.328,50.328 z m -36.936,-16.776 h 29.16 l -14.688,-31.896 z" transform="translate(0 191.7210782810593) translate(448.72852825203654 125.35888408958982) scale(2.081623666459838) translate(-481.57156 -69.672)"></path> 
   <path id="path528211" style="font-style: normal; font-weight: 200; font-size: 72px; line-height: 1; font-family: Montserrat; font-variant-ligatures: none; text-align: center; text-anchor: middle; fill: rgb(153, 181, 227);" d="m 556.56294,82.776 q 5.184,0 9.288,2.448 4.104,2.376 6.408,6.624 2.376,4.248 2.376,9.576 0,5.328 -2.376,9.576 -2.304,4.176 -6.408,6.624 -4.104,2.376 -9.288,2.376 -5.76,0 -10.224,-2.952 -4.392,-2.952 -6.408,-7.992 v 24.912 h -1.44 V 82.776 h 1.44 V 93.72 q 2.016,-5.04 6.408,-7.992 4.464,-2.952 10.224,-2.952 z m 0,35.784 q 4.752,0 8.496,-2.16 3.816,-2.232 5.976,-6.12 2.16,-3.96 2.16,-8.856 0,-4.896 -2.16,-8.784 -2.16,-3.96 -5.976,-6.192 -3.744,-2.232 -8.496,-2.232 -4.752,0 -8.568,2.232 -3.744,2.232 -5.904,6.192 -2.16,3.888 -2.16,8.784 0,4.896 2.16,8.856 2.16,3.888 5.904,6.12 3.816,2.16 8.568,2.16 z" transform="translate(0 191.7210782810593) translate(581.7846224054763 152.63648061487953) scale(2.081623666459838) translate(-538.49094 -82.776)"></path> 
   <path id="path528213" style="font-style: normal; font-weight: 200; font-size: 72px; line-height: 1; font-family: Montserrat; font-variant-ligatures: none; text-align: center; text-anchor: middle; fill: rgb(153, 181, 227);" d="m 604.79731,82.776 q 5.184,0 9.288,2.448 4.104,2.376 6.408,6.624 2.376,4.248 2.376,9.576 0,5.328 -2.376,9.576 -2.304,4.176 -6.408,6.624 -4.104,2.376 -9.288,2.376 -5.76,0 -10.224,-2.952 -4.392,-2.952 -6.408,-7.992 v 24.912 h -1.44 V 82.776 h 1.44 V 93.72 q 2.016,-5.04 6.408,-7.992 4.464,-2.952 10.224,-2.952 z m 0,35.784 q 4.752,0 8.496,-2.16 3.816,-2.232 5.976,-6.12 2.16,-3.96 2.16,-8.856 0,-4.896 -2.16,-8.784 -2.16,-3.96 -5.976,-6.192 -3.744,-2.232 -8.496,-2.232 -4.752,0 -8.568,2.232 -3.744,2.232 -5.904,6.192 -2.16,3.888 -2.16,8.784 0,4.896 2.16,8.856 2.16,3.888 5.904,6.12 3.816,2.16 8.568,2.16 z" transform="translate(0 191.7210782810593) translate(696.7617941994756 152.63648061487953) scale(2.081623666459838) translate(-586.72531 -82.776)"></path> 
  </g> 
  <g id="tagline" style="font-style:normal;font-weight:400;font-size:32px;line-height:1;font-family:Montserrat;font-variant-ligatures:none;text-align:center;text-anchor:middle"></g> 
 </g> 
</svg>