<svg xmlns:dc="http://purl.org/dc/elements/1.1/" xmlns:cc="http://creativecommons.org/ns#" xmlns:rdf="http://www.w3.org/1999/02/22-rdf-syntax-ns#" xmlns:svg="http://www.w3.org/2000/svg" xmlns="http://www.w3.org/2000/svg" id="svg6306" viewbox="0 0 1024 768" height="768px" width="1024px" version="1.1"> <metadata id="metadata6312"> 
  <rdf:rdf> 
   <cc:work rdf:about=""> 
    <dc:format>
     image/svg+xml
    </dc:format> 
    <dc:type rdf:resource="http://purl.org/dc/dcmitype/StillImage"></dc:type> 
   </cc:work> 
  </rdf:rdf> 
 </metadata> <defs id="defs6310"></defs> <g id="logo-group"> 
  <g id="title" style="font-style:normal;font-weight:300;font-size:72px;line-height:1;font-family:'Montserrat Light Alt1';font-variant-ligatures:none;text-align:center;text-anchor:middle" aria-label="O7ANALYZER"> 
   <path id="path6314" style="font-style: normal; font-weight: 300; font-size: 72px; line-height: 1; font-family: &quot;Montserrat Light Alt1&quot;; font-variant-ligatures: none; text-align: center; text-anchor: middle; fill: rgb(226, 133, 37);" d="m 285.84631,117.048 c 3.96,2.232 8.424,3.312 13.392,3.312 4.896,0 9.36,-1.08 13.392,-3.312 3.96,-2.16 7.056,-5.256 9.36,-9.144 2.304,-3.888 3.456,-8.208 3.456,-13.104 0,-4.824 -1.152,-9.216 -3.456,-13.104 -2.304,-3.888 -5.4,-6.912 -9.36,-9.144 -4.032,-2.16 -8.496,-3.312 -13.392,-3.312 -4.968,0 -9.432,1.152 -13.392,3.384 -4.032,2.232 -7.128,5.256 -9.432,9.144 -2.304,3.888 -3.384,8.28 -3.384,13.032 0,4.824 1.08,9.144 3.384,13.032 2.304,3.888 5.4,6.984 9.432,9.216 z m 24.84,-2.952 c -3.456,1.944 -7.272,2.88 -11.448,2.88 -4.248,0 -8.064,-0.936 -11.52,-2.88 -3.456,-1.872 -6.12,-4.536 -8.064,-7.92 -2.016,-3.384 -2.952,-7.2 -2.952,-11.376 0,-4.176 0.936,-7.92 2.952,-11.304 1.944,-3.384 4.608,-6.048 8.064,-7.992 3.456,-1.872 7.272,-2.88 11.52,-2.88 4.176,0 7.992,1.008 11.448,2.88 3.384,1.944 6.048,4.608 8.064,7.992 1.944,3.384 2.952,7.128 2.952,11.304 0,4.176 -1.008,7.992 -2.952,11.376 -2.016,3.384 -4.68,6.048 -8.064,7.92 z" transform="translate(0 305.61657085228904) translate(252 52.06217546611295) scale(1.0297830078872465) translate(-273.03031 -69.24)"></path> 
   <path id="path6316" style="font-style: normal; font-weight: 300; font-size: 72px; line-height: 1; font-family: &quot;Montserrat Light Alt1&quot;; font-variant-ligatures: none; text-align: center; text-anchor: middle; fill: rgb(226, 133, 37);" d="m 367.99044,69.6 h -36.144 v 12.96 h 3.6 v -9.648 h 28.296 L 342.28644,120 h 4.032 l 21.672,-47.808 z" transform="translate(0 305.61657085228904) translate(315.65720028734904 52.43289734895235) scale(1.0297830078872465) translate(-331.84644 -69.6)"></path> 
   <path id="path6318" style="font-style: normal; font-weight: 300; font-size: 72px; line-height: 1; font-family: &quot;Montserrat Light Alt1&quot;; font-variant-ligatures: none; text-align: center; text-anchor: middle; fill: rgb(238, 221, 165);" d="m 393.45819,69.6 h -3.672 l -23.184,50.4 h 3.96 l 21.024,-46.368 21.096,46.368 h 3.96 z" transform="translate(0 305.61657085228904) translate(354.537430087388 52.43289734895235) scale(1.0297830078872465) translate(-366.60219 -69.6)"></path> 
   <path id="path6320" style="font-style: normal; font-weight: 300; font-size: 72px; line-height: 1; font-family: &quot;Montserrat Light Alt1&quot;; font-variant-ligatures: none; text-align: center; text-anchor: middle; fill: rgb(238, 221, 165);" d="m 466.83181,69.6 h -3.672 v 43.776 L 428.88781,69.6 h -3.096 V 120 h 3.672 V 76.224 l 34.344,43.776 h 3.024 z" transform="translate(0 305.61657085228904) translate(418.5792440303528 52.43289734895235) scale(1.0297830078872465) translate(-425.79181 -69.6)"></path> 
   <path id="path6322" style="font-style: normal; font-weight: 300; font-size: 72px; line-height: 1; font-family: &quot;Montserrat Light Alt1&quot;; font-variant-ligatures: none; text-align: center; text-anchor: middle; fill: rgb(238, 221, 165);" d="m 502.86444,69.6 h -3.672 l -23.184,50.4 h 3.96 l 21.024,-46.368 21.096,46.368 h 3.96 z" transform="translate(0 305.61657085228904) translate(473.3808253413755 52.43289734895235) scale(1.0297830078872465) translate(-476.00844 -69.6)"></path> 
   <path id="path6324" style="font-style: normal; font-weight: 300; font-size: 72px; line-height: 1; font-family: &quot;Montserrat Light Alt1&quot;; font-variant-ligatures: none; text-align: center; text-anchor: middle; fill: rgb(238, 221, 165);" d="M 535.19806,69.6 V 120 h 32.688 v -3.312 h -29.016 V 69.6 Z" transform="translate(0 305.61657085228904) translate(537.4226392843403 52.43289734895235) scale(1.0297830078872465) translate(-535.19806 -69.6)"></path> 
   <path id="path6326" style="font-style: normal; font-weight: 300; font-size: 72px; line-height: 1; font-family: &quot;Montserrat Light Alt1&quot;; font-variant-ligatures: none; text-align: center; text-anchor: middle; fill: rgb(238, 221, 165);" d="m 587.59381,102.648 20.304,-33.048 h -3.816 l -18.216,29.664 -18.216,-29.664 h -4.032 l 20.304,33.048 V 120 h 3.672 z" transform="translate(0 305.61657085228904) translate(569.7781639464056 52.43289734895235) scale(1.0297830078872465) translate(-563.61781 -69.6)"></path> 
   <path id="path6328" style="font-style: normal; font-weight: 300; font-size: 72px; line-height: 1; font-family: &quot;Montserrat Light Alt1&quot;; font-variant-ligatures: none; text-align: center; text-anchor: middle; fill: rgb(238, 221, 165);" d="m 652.24981,116.688 h -35.496 l 34.704,-44.496 V 69.6 h -39.384 v 3.312 h 34.344 l -34.776,44.496 V 120 h 40.608 z" transform="translate(0 305.61657085228904) translate(622.3218121408445 52.43289734895235) scale(1.0297830078872465) translate(-611.64181 -69.6)"></path> 
   <path id="path6330" style="font-style: normal; font-weight: 300; font-size: 72px; line-height: 1; font-family: &quot;Montserrat Light Alt1&quot;; font-variant-ligatures: none; text-align: center; text-anchor: middle; fill: rgb(238, 221, 165);" d="m 696.20469,92.784 h -32.616 v 3.24 h 32.616 z m 0,-23.184 h -32.616 v 3.312 h 32.616 z m -32.616,47.088 V 120 h 32.616 v -3.312 z" transform="translate(0 305.61657085228904) translate(678.9051755012642 52.43289734895235) scale(1.0297830078872465) translate(-663.58869 -69.6)"></path> 
   <path id="path6332" style="font-style: normal; font-weight: 300; font-size: 72px; line-height: 1; font-family: &quot;Montserrat Light Alt1&quot;; font-variant-ligatures: none; text-align: center; text-anchor: middle; fill: rgb(238, 221, 165);" d="m 738.39106,102.36 c 3.744,-1.08 6.696,-2.952 8.712,-5.688 2.016,-2.736 3.096,-6.048 3.096,-10.08 0,-5.256 -1.8,-9.432 -5.4,-12.456 -3.6,-3.024 -8.568,-4.536 -14.904,-4.536 h -18.072 v 3.312 h 18.072 c 5.328,0 9.432,1.224 12.312,3.6 2.808,2.376 4.248,5.76 4.248,10.08 0,4.392 -1.44,7.776 -4.248,10.152 -2.88,2.376 -6.984,3.528 -12.312,3.528 h -18.072 V 120 h 3.672 v -16.488 h 14.4 c 1.44,0 3.096,-0.072 4.896,-0.36 l 12.024,16.848 h 4.176 z" transform="translate(0 305.61657085228904) translate(731.6654591470724 52.43289734895235) scale(1.0297830078872465) translate(-711.82306 -69.6)"></path> 
  </g> 
  <g id="tagline" style="font-style:normal;font-weight:400;font-size:32px;line-height:1;font-family:Montserrat;font-variant-ligatures:none;text-align:center;text-anchor:middle"></g> 
 </g> 
</svg>