<svg xmlns:dc="http://purl.org/dc/elements/1.1/" xmlns:cc="http://creativecommons.org/ns#" xmlns:rdf="http://www.w3.org/1999/02/22-rdf-syntax-ns#" xmlns:svg="http://www.w3.org/2000/svg" xmlns="http://www.w3.org/2000/svg" id="svg8809" viewbox="0 0 1024 768" height="768px" width="1024px" version="1.1"> <metadata id="metadata8815"> 
  <rdf:rdf> 
   <cc:work rdf:about=""> 
    <dc:format>
     image/svg+xml
    </dc:format> 
    <dc:type rdf:resource="http://purl.org/dc/dcmitype/StillImage"></dc:type> 
   </cc:work> 
  </rdf:rdf> 
 </metadata> <defs id="defs8813"></defs> <g id="logo-group"> 
  <g id="title" style="font-style:normal;font-weight:300;font-size:72px;line-height:1;font-family:'Uni Neue';font-variant-ligatures:none;text-align:center;text-anchor:middle" aria-label="o7Art"> 
   <path id="path8817" style="font-style: normal; font-weight: 300; font-size: 72px; line-height: 1; font-family: &quot;Uni Neue&quot;; font-variant-ligatures: none; text-align: center; text-anchor: middle; fill: rgb(70, 130, 182);" d="M 465.40925,107.184 V 95.808 c 0,-7.56 -5.184,-13.536 -14.976,-13.536 -9.72,0 -14.976,5.976 -14.976,13.536 v 11.376 c 0,7.632 5.256,13.536 14.976,13.536 9.792,0 14.976,-5.904 14.976,-13.536 z m -27.648,0 V 95.808 c 0,-6.336 4.248,-11.376 12.672,-11.376 8.496,0 12.672,5.04 12.672,11.376 v 11.376 c 0,6.408 -4.176,11.448 -12.672,11.448 -8.424,0 -12.672,-5.04 -12.672,-11.448 z" transform="translate(0 110.62263986926496) translate(251.99999999999994 235.28447698875328) scale(3.0849435651102834) translate(-435.45725 -82.272)"></path> 
   <path id="path8819" style="font-style: normal; font-weight: 300; font-size: 72px; line-height: 1; font-family: &quot;Uni Neue&quot;; font-variant-ligatures: none; text-align: center; text-anchor: middle; fill: rgb(70, 130, 182);" d="m 479.46725,120 c 0.216,0 0.504,-0.144 0.576,-0.36 l 23.832,-49.392 c 0.144,-0.144 0.144,-0.36 0.144,-0.504 v -0.792 c 0,-0.288 -0.216,-0.432 -0.504,-0.432 h -31.68 c -0.288,0 -0.504,0.144 -0.504,0.432 v 1.368 c 0,0.216 0.216,0.432 0.504,0.432 h 29.304 l -23.616,48.672 c -0.144,0.36 0.072,0.576 0.36,0.576 z" transform="translate(0 110.62263986926496) translate(371.92409615009717 192.86033308135666) scale(3.0849435651102834) translate(-471.33125 -68.52)"></path> 
   <path id="path8821" style="font-style: normal; font-weight: 300; font-size: 72px; line-height: 1; font-family: &quot;Uni Neue&quot;; font-variant-ligatures: none; text-align: center; text-anchor: middle; fill: rgb(243, 229, 240);" d="m 504.40175,120 c 0.216,0 0.36,-0.144 0.432,-0.36 l 5.904,-15.768 h 24.12 l 5.832,15.768 c 0.144,0.216 0.288,0.36 0.504,0.36 h 1.656 c 0.288,0 0.432,-0.216 0.36,-0.504 l -18.936,-50.616 c -0.072,-0.216 -0.288,-0.36 -0.504,-0.36 h -2.016 c -0.144,0 -0.36,0.144 -0.432,0.36 l -18.936,50.616 c -0.072,0.288 0.072,0.504 0.36,0.504 z m 18.288,-48.528 h 0.216 l 11.16,30.168 h -22.536 z" transform="translate(0 110.62263986926496) translate(476.92369807372546 192.86033308135666) scale(3.0849435651102834) translate(-502.3674 -68.52)"></path> 
   <path id="path8823" style="font-style: normal; font-weight: 300; font-size: 72px; line-height: 1; font-family: &quot;Uni Neue&quot;; font-variant-ligatures: none; text-align: center; text-anchor: middle; fill: rgb(243, 229, 240);" d="m 551.4065,120 c 0.288,0 0.432,-0.144 0.432,-0.432 V 86.304 c 3.096,-1.224 6.84,-1.872 10.296,-1.872 2.376,0 4.896,0.216 7.128,0.576 0.288,0.072 0.432,-0.072 0.432,-0.36 v -1.224 c 0,-0.288 -0.072,-0.432 -0.432,-0.504 -2.304,-0.36 -4.824,-0.648 -7.272,-0.648 -4.104,0 -8.64,0.864 -12.096,2.52 -0.216,0.072 -0.36,0.288 -0.36,0.504 v 34.272 c 0,0.288 0.216,0.432 0.432,0.432 z" transform="translate(0 110.62263986926496) translate(631.6863703989696 235.28447698875328) scale(3.0849435651102834) translate(-549.5345 -82.272)"></path> 
   <path id="path8825" style="font-style: normal; font-weight: 300; font-size: 72px; line-height: 1; font-family: &quot;Uni Neue&quot;; font-variant-ligatures: none; text-align: center; text-anchor: middle; fill: rgb(243, 229, 240);" d="M 578.48187,108.84 V 85.224 h 12.168 c 0.216,0 0.432,-0.216 0.432,-0.504 v -1.224 c 0,-0.216 -0.216,-0.432 -0.432,-0.432 h -12.168 v -8.928 c -0.072,-0.288 -0.21599,-0.432 -0.50399,-0.432 h -1.36801 c -0.288,0 -0.432,0.144 -0.432,0.432 v 34.776 c 0,7.416 4.17601,11.664 11.08801,11.664 1.00799,0 2.952,-0.072 4.31999,-0.216 0.288,-0.072 0.432,-0.216 0.432,-0.504 v -1.224 c 0,-0.288 -0.144,-0.432 -0.432,-0.432 -1.43999,0.144 -3.24,0.216 -4.31999,0.216 -5.76001,0 -8.78401,-3.528 -8.78401,-9.576 z" transform="translate(0 110.62263986926496) translate(723.134493928653 208.85268052288836) scale(3.0849435651102834) translate(-576.17787 -73.704)"></path> 
  </g> 
  <g id="tagline" style="font-style:oblique;font-weight:400;font-size:32px;line-height:1;font-family:Lato;font-variant-ligatures:none;text-align:center;text-anchor:middle"></g> 
 </g> 
</svg>