<svg xmlns:dc="http://purl.org/dc/elements/1.1/" xmlns:cc="http://creativecommons.org/ns#" xmlns:rdf="http://www.w3.org/1999/02/22-rdf-syntax-ns#" xmlns:svg="http://www.w3.org/2000/svg" xmlns="http://www.w3.org/2000/svg" id="svg19804" viewbox="0 0 1024 768" height="768px" width="1024px" version="1.1"> <metadata id="metadata19810"> 
  <rdf:rdf> 
   <cc:work rdf:about=""> 
    <dc:format>
     image/svg+xml
    </dc:format> 
    <dc:type rdf:resource="http://purl.org/dc/dcmitype/StillImage"></dc:type> 
   </cc:work> 
  </rdf:rdf> 
 </metadata> <defs id="defs19808"></defs> <g id="logo-group"> 
  <g id="title" style="font-style:normal;font-weight:800;font-size:72px;line-height:1;font-family:'Montserrat ExtraBold Alt1';font-variant-ligatures:none;text-align:center;text-anchor:middle" aria-label="o7Awesomeness"> 
   <path id="path19812" style="font-style: normal; font-weight: 800; font-size: 72px; line-height: 1; font-family: &quot;Montserrat ExtraBold Alt1&quot;; font-variant-ligatures: none; text-align: center; text-anchor: middle; fill: rgb(140, 198, 62);" d="m 204.047,118.056 c 3.312,1.728 7.128,2.592 11.304,2.592 4.176,0 7.992,-0.864 11.376,-2.592 3.312,-1.728 5.976,-4.104 7.848,-7.2 1.872,-3.024 2.808,-6.552 2.808,-10.44 0,-3.888 -0.936,-7.344 -2.808,-10.368 -1.872,-3.024 -4.536,-5.4 -7.848,-7.128 -3.384,-1.728 -7.2,-2.592 -11.376,-2.592 -4.248,0 -8.064,0.864 -11.376,2.592 -3.312,1.728 -5.976,4.104 -7.848,7.128 -1.872,3.096 -2.808,6.552 -2.808,10.368 0,3.888 0.936,7.416 2.808,10.44 1.872,3.096 4.536,5.472 7.92,7.2 z m 17.208,-10.728 c -1.584,1.656 -3.528,2.448 -5.904,2.448 -2.448,0 -4.392,-0.792 -5.904,-2.448 -1.584,-1.656 -2.304,-3.96 -2.304,-6.912 0,-2.88 0.72,-5.112 2.304,-6.768 1.512,-1.584 3.456,-2.448 5.904,-2.448 2.376,0 4.32,0.864 5.904,2.448 1.512,1.656 2.304,3.888 2.304,6.768 0,2.952 -0.792,5.256 -2.304,6.912 z" transform="translate(0 326.045520011665) translate(252.00000000000006 45.891319419946285) scale(0.8152987678013429) translate(-193.319 -80.328)"></path> 
   <path id="path19814" style="font-style: normal; font-weight: 800; font-size: 72px; line-height: 1; font-family: &quot;Montserrat ExtraBold Alt1&quot;; font-variant-ligatures: none; text-align: center; text-anchor: middle; fill: rgb(140, 198, 62);" d="m 281.19725,69.6 h -41.76 v 19.08 h 12.168 v -7.776 h 13.248 L 247.86125,120 h 15.552 l 17.784,-41.472 z" transform="translate(0 326.045520011665) translate(289.60015239815436 37.144794238973475) scale(0.8152987678013429) translate(-239.43725 -69.6)"></path> 
   <path id="path19816" style="font-style: normal; font-weight: 800; font-size: 72px; line-height: 1; font-family: &quot;Montserrat ExtraBold Alt1&quot;; font-variant-ligatures: none; text-align: center; text-anchor: middle; fill: rgb(64, 64, 64);" d="m 314.47362,69.6 h -14.04 L 278.18563,120 h 14.54399 l 3.96,-9.792 4.17601,-10.512 6.47999,-16.128 6.48,16.128 4.176,10.512 3.96001,9.792 h 14.832 z" transform="translate(0 326.045520011665) translate(321.1916588664526 37.144794238973475) scale(0.8152987678013429) translate(-278.18563 -69.6)"></path> 
   <path id="path19818" style="font-style: normal; font-weight: 800; font-size: 72px; line-height: 1; font-family: &quot;Montserrat ExtraBold Alt1&quot;; font-variant-ligatures: none; text-align: center; text-anchor: middle; fill: rgb(64, 64, 64);" d="m 402.7355,80.976 h -12.024 l -8.28,23.832 -8.064,-23.832 h -11.664 l -8.28,23.616 -7.992,-23.616 h -12.96 L 347.3675,120 h 13.248 l 7.632,-21.24 7.344,21.24 h 13.248 z" transform="translate(0 326.045520011665) translate(366.2661605542778 46.419633021481545) scale(0.8152987678013429) translate(-333.4715 -80.976)"></path> 
   <path id="path19820" style="font-style: normal; font-weight: 800; font-size: 72px; line-height: 1; font-family: &quot;Montserrat ExtraBold Alt1&quot;; font-variant-ligatures: none; text-align: center; text-anchor: middle; fill: rgb(64, 64, 64);" d="m 445.39213,103.944 c 0.14399,-2.16 0.21599,-3.24 0.21599,-3.384 0,-4.176 -0.936,-7.776 -2.808,-10.8 -1.87199,-3.024 -4.32,-5.4 -7.488,-6.984 -3.168,-1.584 -6.696,-2.448 -10.584,-2.448 -4.104,0 -7.77599,0.864 -11.01599,2.592 -3.31201,1.728 -5.832,4.176 -7.70401,7.2 -1.872,3.024 -2.73599,6.48 -2.73599,10.296 0,3.888 0.93599,7.416 2.80799,10.44 1.87201,3.096 4.60801,5.472 8.064,7.2 3.456,1.728 7.41601,2.592 12.02401,2.592 7.272,0 12.81599,-2.088 16.63199,-6.336 l -7.2,-7.488 c -1.44,1.224 -2.808,2.088 -4.176,2.592 -1.368,0.576 -2.952,0.792 -4.824,0.792 -2.52,0 -4.608,-0.504 -6.264,-1.584 -1.656,-1.08 -2.736,-2.664 -3.31199,-4.68 z M 419.47212,91.848 c 1.44,-1.152 3.168,-1.8 5.328,-1.8 2.088,0 3.816,0.648 5.256,1.8 1.44,1.224 2.304,2.88 2.736,4.896 h -15.98399 c 0.35999,-2.016 1.22399,-3.672 2.66399,-4.896 z" transform="translate(0 326.045520011665) translate(423.17452818503523 45.891319419946285) scale(0.8152987678013429) translate(-403.27213 -80.328)"></path> 
   <path id="path19822" style="font-style: normal; font-weight: 800; font-size: 72px; line-height: 1; font-family: &quot;Montserrat ExtraBold Alt1&quot;; font-variant-ligatures: none; text-align: center; text-anchor: middle; fill: rgb(64, 64, 64);" d="m 456.52175,119.568 c 3.168,0.72 6.336,1.08 9.648,1.08 4.032,0 7.56,-0.504 10.44,-1.656 2.88,-1.08 5.112,-2.592 6.624,-4.536 1.44,-1.944 2.232,-4.176 2.232,-6.624 0,-2.952 -0.792,-5.256 -2.376,-6.912 -1.584,-1.656 -3.384,-2.808 -5.472,-3.456 -2.16,-0.576 -4.824,-1.152 -7.992,-1.656 -2.592,-0.36 -4.392,-0.72 -5.472,-1.08 -1.152,-0.36 -1.656,-1.008 -1.656,-1.944 0,-0.792 0.504,-1.44 1.512,-1.944 1.008,-0.504 2.592,-0.792 4.752,-0.792 4.032,0 7.776,1.008 11.232,2.88 l 4.104,-9.288 c -1.872,-1.008 -4.248,-1.872 -6.984,-2.448 -2.808,-0.576 -5.616,-0.864 -8.424,-0.864 -4.032,0 -7.416,0.576 -10.296,1.728 -2.88,1.152 -5.04,2.664 -6.48,4.608 -1.512,1.944 -2.232,4.176 -2.232,6.624 0,3.024 0.792,5.4 2.376,7.056 1.584,1.728 3.456,2.88 5.616,3.456 2.16,0.648 4.824,1.152 7.992,1.512 2.448,0.36 4.176,0.72 5.328,1.08 1.152,0.36 1.728,0.936 1.728,1.8 0,0.864 -0.504,1.584 -1.44,2.016 -0.936,0.432 -2.52,0.648 -4.68,0.648 -2.448,0 -4.824,-0.288 -7.272,-0.936 -2.448,-0.648 -4.608,-1.512 -6.336,-2.664 l -4.104,9.36 c 1.872,1.224 4.464,2.232 7.632,2.952 z" transform="translate(0 326.045520011665) translate(460.36651756106517 45.891319419946285) scale(0.8152987678013429) translate(-448.88975 -80.328)"></path> 
   <path id="path19824" style="font-style: normal; font-weight: 800; font-size: 72px; line-height: 1; font-family: &quot;Montserrat ExtraBold Alt1&quot;; font-variant-ligatures: none; text-align: center; text-anchor: middle; fill: rgb(64, 64, 64);" d="m 499.64075,118.056 c 3.312,1.728 7.128,2.592 11.304,2.592 4.176,0 7.992,-0.864 11.376,-2.592 3.312,-1.728 5.976,-4.104 7.848,-7.2 1.872,-3.024 2.808,-6.552 2.808,-10.44 0,-3.888 -0.936,-7.344 -2.808,-10.368 -1.872,-3.024 -4.536,-5.4 -7.848,-7.128 -3.384,-1.728 -7.2,-2.592 -11.376,-2.592 -4.248,0 -8.064,0.864 -11.376,2.592 -3.312,1.728 -5.976,4.104 -7.848,7.128 -1.872,3.096 -2.808,6.552 -2.808,10.368 0,3.888 0.936,7.416 2.808,10.44 1.872,3.096 4.536,5.472 7.92,7.2 z m 17.208,-10.728 c -1.584,1.656 -3.528,2.448 -5.904,2.448 -2.448,0 -4.392,-0.792 -5.904,-2.448 -1.584,-1.656 -2.304,-3.96 -2.304,-6.912 0,-2.88 0.72,-5.112 2.304,-6.768 1.512,-1.584 3.456,-2.448 5.904,-2.448 2.376,0 4.32,0.864 5.904,2.448 1.512,1.656 2.304,3.888 2.304,6.768 0,2.952 -0.792,5.256 -2.304,6.912 z" transform="translate(0 326.045520011665) translate(492.9972201447783 45.891319419946285) scale(0.8152987678013429) translate(-488.91275 -80.328)"></path> 
   <path id="path19826" style="font-style: normal; font-weight: 800; font-size: 72px; line-height: 1; font-family: &quot;Montserrat ExtraBold Alt1&quot;; font-variant-ligatures: none; text-align: center; text-anchor: middle; fill: rgb(64, 64, 64);" d="m 601.59388,84.648 c -2.88,-2.88 -6.69601,-4.32 -11.448,-4.32 -2.80801,0 -5.40001,0.576 -7.70401,1.584 -2.376,1.08 -4.31999,2.592 -5.832,4.536 -1.36799,-2.016 -3.096,-3.6 -5.25599,-4.608 -2.16,-1.008 -4.60801,-1.512 -7.34401,-1.512 -2.376,0 -4.53599,0.432 -6.55199,1.224 -2.01601,0.792 -3.672,1.944 -5.11201,3.528 V 80.976 H 539.31388 V 120 h 13.67999 v -19.368 c 0,-2.88 0.57601,-5.112 1.872,-6.552 1.224,-1.44 2.88,-2.16 5.04001,-2.16 3.88799,0 5.904,2.664 5.904,7.992 V 120 h 13.67999 v -19.368 c 0,-2.88 0.576,-5.112 1.87201,-6.552 1.22399,-1.44 2.88,-2.16 4.968,-2.16 1.87199,0 3.312,0.648 4.31999,1.944 1.008,1.296 1.584,3.312 1.584,6.048 V 120 h 13.68 V 97.68 c 0,-5.76 -1.43999,-10.152 -4.31999,-13.032 z" transform="translate(0 326.045520011665) translate(534.0891993295735 45.891319419946285) scale(0.8152987678013429) translate(-539.31388 -80.328)"></path> 
   <path id="path19828" style="font-style: normal; font-weight: 800; font-size: 72px; line-height: 1; font-family: &quot;Montserrat ExtraBold Alt1&quot;; font-variant-ligatures: none; text-align: center; text-anchor: middle; fill: rgb(64, 64, 64);" d="m 654.78275,103.944 c 0.144,-2.16 0.216,-3.24 0.216,-3.384 0,-4.176 -0.936,-7.776 -2.808,-10.8 -1.872,-3.024 -4.32,-5.4 -7.488,-6.984 -3.168,-1.584 -6.696,-2.448 -10.584,-2.448 -4.104,0 -7.776,0.864 -11.016,2.592 -3.312,1.728 -5.832,4.176 -7.704,7.2 -1.872,3.024 -2.736,6.48 -2.736,10.296 0,3.888 0.936,7.416 2.808,10.44 1.872,3.096 4.608,5.472 8.064,7.2 3.456,1.728 7.416,2.592 12.024,2.592 7.272,0 12.816,-2.088 16.632,-6.336 l -7.2,-7.488 c -1.44,1.224 -2.808,2.088 -4.176,2.592 -1.368,0.576 -2.952,0.792 -4.824,0.792 -2.52,0 -4.608,-0.504 -6.264,-1.584 -1.656,-1.08 -2.736,-2.664 -3.312,-4.68 z m -25.92,-12.096 c 1.44,-1.152 3.168,-1.8 5.328,-1.8 2.088,0 3.816,0.648 5.256,1.8 1.44,1.224 2.304,2.88 2.736,4.896 h -15.984 c 0.36,-2.016 1.224,-3.672 2.664,-4.896 z" transform="translate(0 326.045520011665) translate(593.8904426601943 45.891319419946285) scale(0.8152987678013429) translate(-612.66275 -80.328)"></path> 
   <path id="path19830" style="font-style: normal; font-weight: 800; font-size: 72px; line-height: 1; font-family: &quot;Montserrat ExtraBold Alt1&quot;; font-variant-ligatures: none; text-align: center; text-anchor: middle; fill: rgb(64, 64, 64);" d="m 698.45637,84.648 c -2.952,-2.88 -6.84,-4.32 -11.664,-4.32 -2.52,0 -4.82399,0.432 -6.912,1.296 -2.16,0.864 -3.95999,2.016 -5.472,3.6 V 80.976 H 661.37638 V 120 h 13.67999 v -18.864 c 0,-3.024 0.64801,-5.328 2.088,-6.912 1.44001,-1.512 3.312,-2.304 5.688,-2.304 4.248,0 6.408,2.664 6.408,7.992 V 120 h 13.68001 V 97.68 c 0,-5.76 -1.51201,-10.152 -4.46401,-13.032 z" transform="translate(0 326.045520011665) translate(633.6066051743248 45.891319419946285) scale(0.8152987678013429) translate(-661.37638 -80.328)"></path> 
   <path id="path19832" style="font-style: normal; font-weight: 800; font-size: 72px; line-height: 1; font-family: &quot;Montserrat ExtraBold Alt1&quot;; font-variant-ligatures: none; text-align: center; text-anchor: middle; fill: rgb(64, 64, 64);" d="m 751.67337,103.944 c 0.144,-2.16 0.216,-3.24 0.216,-3.384 0,-4.176 -0.93599,-7.776 -2.808,-10.8 -1.87199,-3.024 -4.31999,-5.4 -7.48799,-6.984 -3.168,-1.584 -6.69601,-2.448 -10.58401,-2.448 -4.10399,0 -7.77599,0.864 -11.01599,2.592 -3.31201,1.728 -5.832,4.176 -7.70401,7.2 -1.872,3.024 -2.736,6.48 -2.736,10.296 0,3.888 0.936,7.416 2.808,10.44 1.87201,3.096 4.60801,5.472 8.06401,7.2 3.456,1.728 7.41599,2.592 12.024,2.592 7.27199,0 12.81599,-2.088 16.63199,-6.336 l -7.19999,-7.488 c -1.44001,1.224 -2.80801,2.088 -4.17601,2.592 -1.368,0.576 -2.952,0.792 -4.82399,0.792 -2.52001,0 -4.60801,-0.504 -6.264,-1.584 -1.65601,-1.08 -2.736,-2.664 -3.312,-4.68 z m -25.92,-12.096 c 1.44001,-1.152 3.168,-1.8 5.328,-1.8 2.088,0 3.816,0.648 5.256,1.8 1.44,1.224 2.30401,2.88 2.736,4.896 h -15.98399 c 0.36,-2.016 1.22399,-3.672 2.66399,-4.896 z" transform="translate(0 326.045520011665) translate(672.8852457577025 45.891319419946285) scale(0.8152987678013429) translate(-709.55337 -80.328)"></path> 
   <path id="path19834" style="font-style: normal; font-weight: 800; font-size: 72px; line-height: 1; font-family: &quot;Montserrat ExtraBold Alt1&quot;; font-variant-ligatures: none; text-align: center; text-anchor: middle; fill: rgb(64, 64, 64);" d="m 762.803,119.568 c 3.168,0.72 6.336,1.08 9.648,1.08 4.032,0 7.56,-0.504 10.44,-1.656 2.88,-1.08 5.112,-2.592 6.624,-4.536 1.44,-1.944 2.232,-4.176 2.232,-6.624 0,-2.952 -0.792,-5.256 -2.376,-6.912 -1.584,-1.656 -3.384,-2.808 -5.472,-3.456 -2.16,-0.576 -4.824,-1.152 -7.992,-1.656 -2.592,-0.36 -4.392,-0.72 -5.472,-1.08 -1.152,-0.36 -1.656,-1.008 -1.656,-1.944 0,-0.792 0.504,-1.44 1.512,-1.944 1.008,-0.504 2.592,-0.792 4.752,-0.792 4.032,0 7.776,1.008 11.232,2.88 l 4.104,-9.288 c -1.872,-1.008 -4.248,-1.872 -6.984,-2.448 -2.808,-0.576 -5.616,-0.864 -8.424,-0.864 -4.032,0 -7.416,0.576 -10.296,1.728 -2.88,1.152 -5.04,2.664 -6.48,4.608 -1.512,1.944 -2.232,4.176 -2.232,6.624 0,3.024 0.792,5.4 2.376,7.056 1.584,1.728 3.456,2.88 5.616,3.456 2.16,0.648 4.824,1.152 7.992,1.512 2.448,0.36 4.176,0.72 5.328,1.08 1.152,0.36 1.728,0.936 1.728,1.8 0,0.864 -0.504,1.584 -1.44,2.016 -0.936,0.432 -2.52,0.648 -4.68,0.648 -2.448,0 -4.824,-0.288 -7.272,-0.936 -2.448,-0.648 -4.608,-1.512 -6.336,-2.664 l -4.104,9.36 c 1.872,1.224 4.464,2.232 7.632,2.952 z" transform="translate(0 326.045520011665) translate(710.0772432867201 45.891319419946285) scale(0.8152987678013429) translate(-755.171 -80.328)"></path> 
   <path id="path19836" style="font-style: normal; font-weight: 800; font-size: 72px; line-height: 1; font-family: &quot;Montserrat ExtraBold Alt1&quot;; font-variant-ligatures: none; text-align: center; text-anchor: middle; fill: rgb(64, 64, 64);" d="m 802.178,119.568 c 3.168,0.72 6.336,1.08 9.648,1.08 4.032,0 7.56,-0.504 10.44,-1.656 2.88,-1.08 5.112,-2.592 6.624,-4.536 1.44,-1.944 2.232,-4.176 2.232,-6.624 0,-2.952 -0.792,-5.256 -2.376,-6.912 -1.584,-1.656 -3.384,-2.808 -5.472,-3.456 -2.16,-0.576 -4.824,-1.152 -7.992,-1.656 -2.592,-0.36 -4.392,-0.72 -5.472,-1.08 -1.152,-0.36 -1.656,-1.008 -1.656,-1.944 0,-0.792 0.504,-1.44 1.512,-1.944 1.008,-0.504 2.592,-0.792 4.752,-0.792 4.032,0 7.776,1.008 11.232,2.88 l 4.104,-9.288 c -1.872,-1.008 -4.248,-1.872 -6.984,-2.448 -2.808,-0.576 -5.616,-0.864 -8.424,-0.864 -4.032,0 -7.416,0.576 -10.296,1.728 -2.88,1.152 -5.04,2.664 -6.48,4.608 -1.512,1.944 -2.232,4.176 -2.232,6.624 0,3.024 0.792,5.4 2.376,7.056 1.584,1.728 3.456,2.88 5.616,3.456 2.16,0.648 4.824,1.152 7.992,1.512 2.448,0.36 4.176,0.72 5.328,1.08 1.152,0.36 1.728,0.936 1.728,1.8 0,0.864 -0.504,1.584 -1.44,2.016 -0.936,0.432 -2.52,0.648 -4.68,0.648 -2.448,0 -4.824,-0.288 -7.272,-0.936 -2.448,-0.648 -4.608,-1.512 -6.336,-2.664 l -4.104,9.36 c 1.872,1.224 4.464,2.232 7.632,2.952 z" transform="translate(0 326.045520011665) translate(742.1796322688979 45.891319419946285) scale(0.8152987678013429) translate(-794.546 -80.328)"></path> 
  </g> 
  <g id="tagline" style="font-style:normal;font-weight:500;font-size:32px;line-height:1;font-family:Montserrat;font-variant-ligatures:none;text-align:center;text-anchor:middle"></g> 
 </g> 
</svg>