<svg xmlns:dc="http://purl.org/dc/elements/1.1/" xmlns:cc="http://creativecommons.org/ns#" xmlns:rdf="http://www.w3.org/1999/02/22-rdf-syntax-ns#" xmlns:svg="http://www.w3.org/2000/svg" xmlns="http://www.w3.org/2000/svg" id="svg372995" viewbox="0 0 1024 768" height="768px" width="1024px" version="1.1"> <metadata id="metadata373001"> 
  <rdf:rdf> 
   <cc:work rdf:about=""> 
    <dc:format>
     image/svg+xml
    </dc:format> 
    <dc:type rdf:resource="http://purl.org/dc/dcmitype/StillImage"></dc:type> 
   </cc:work> 
  </rdf:rdf> 
 </metadata> <defs id="defs372999"></defs> <g id="logo-group"> 
  <g id="title" style="font-style:oblique;font-weight:700;font-size:72px;line-height:1;font-family:Averta;font-variant-ligatures:none;text-align:center;text-anchor:middle" aria-label="o7Artiste"> 
   <path id="path373003" style="font-style: oblique; font-weight: 700; font-size: 72px; line-height: 1; font-family: Averta; font-variant-ligatures: none; text-align: center; text-anchor: middle; fill: rgb(218, 215, 200);" d="m 396.24031,120.648 c 13.464,0 19.584,-10.008 19.584,-21.456 0,-9.576 -5.976,-15.048 -15.048,-15.048 -12.384,0 -19.44,10.08 -19.44,21.384 0,9.648 5.976,15.12 14.904,15.12 z m 0.792,-9.648 c -2.304,0 -4.752,-1.872 -4.752,-6.048 0,-5.4 2.88,-11.16 7.632,-11.16 1.944,0 4.968,1.08 4.968,6.12 0,5.76 -3.096,11.088 -7.848,11.088 z" transform="translate(0 273.2944846427331) translate(252 96.7034878888381) scale(1.3599482778194294) translate(-381.33631 -84.144)"></path> 
   <path id="path373005" style="font-style: oblique; font-weight: 700; font-size: 72px; line-height: 1; font-family: Averta; font-variant-ligatures: none; text-align: center; text-anchor: middle; fill: rgb(218, 215, 200);" d="m 449.42131,70.536 h -27.864 l -1.224,10.08 h 15.48 l -17.568,38.52 11.088,2.016 19.224,-43.344 z" transform="translate(0 273.2944846427331) translate(322.59355515332874 78.19731172427127) scale(1.3599482778194294) translate(-418.24531 -70.536)"></path> 
   <path id="path373007" style="font-style: oblique; font-weight: 700; font-size: 72px; line-height: 1; font-family: Averta; font-variant-ligatures: none; text-align: center; text-anchor: middle; fill: rgb(0, 0, 0);" d="m 464.26681,68.88 -23.04,51.12 h 12.096 l 3.672,-9.432 h 15.336 l 1.584,9.432 h 11.952 l -10.512,-51.12 z m 6.552,31.968 h -10.152 l 6.984,-17.928 h 0.144 z" transform="translate(0 273.2944846427331) translate(374.2464306673274 75.94523737620229) scale(1.3599482778194294) translate(-441.22681 -68.88)"></path> 
   <path id="path373009" style="font-style: oblique; font-weight: 700; font-size: 72px; line-height: 1; font-family: Averta; font-variant-ligatures: none; text-align: center; text-anchor: middle; fill: rgb(0, 0, 0);" d="m 494.77794,84.792 -4.32,35.208 h 10.8 l 1.584,-13.536 c 1.296,-8.352 5.616,-12.24 10.8,-10.368 l 1.512,-11.952 c -3.888,0 -7.344,1.872 -10.08,5.472 h -0.144 l 0.648,-4.824 z" transform="translate(0 273.2944846427331) translate(461.59744529322336 96.7034878888381) scale(1.3599482778194294) translate(-490.45794 -84.144)"></path> 
   <path id="path373011" style="font-style: oblique; font-weight: 700; font-size: 72px; line-height: 1; font-family: Averta; font-variant-ligatures: none; text-align: center; text-anchor: middle; fill: rgb(0, 0, 0);" d="m 526.27906,120.648 c 3.24,0 6.408,-0.792 9.432,-2.448 l -1.728,-8.424 c -1.368,0.72 -2.592,1.152 -3.528,1.152 -1.152,0 -1.872,-0.936 -1.584,-2.952 l 1.728,-14.472 h 7.272 l 1.08,-8.712 h -7.272 l 1.512,-12.456 -11.016,2.16 -1.368,10.296 h -3.456 l -1.08,8.712 h 3.456 l -1.872,15.912 c -1.008,8.136 2.952,11.232 8.424,11.232 z" transform="translate(0 273.2944846427331) translate(517.1011775496611 80.64521862434624) scale(1.3599482778194294) translate(-516.27106 -72.336)"></path> 
   <path id="path373013" style="font-style: oblique; font-weight: 700; font-size: 72px; line-height: 1; font-family: Averta; font-variant-ligatures: none; text-align: center; text-anchor: middle; fill: rgb(0, 0, 0);" d="m 551.18994,80.256 c 3.96,0 6.696,-2.736 6.696,-6.408 0,-3.528 -2.592,-6.12 -6.48,-6.12 -3.96,0 -6.696,2.664 -6.696,6.336 0,3.528 2.664,6.192 6.48,6.192 z m -6.696,4.536 -4.32,35.208 h 10.8 l 4.32,-35.208 z" transform="translate(0 273.2944846427331) translate(570.007082207877 74.37857696015432) scale(1.3599482778194294) translate(-540.17394 -67.728)"></path> 
   <path id="path373015" style="font-style: oblique; font-weight: 700; font-size: 72px; line-height: 1; font-family: Averta; font-variant-ligatures: none; text-align: center; text-anchor: middle; fill: rgb(0, 0, 0);" d="m 570.88756,120.648 c 8.568,0 13.968,-4.536 13.968,-11.448 0,-5.544 -3.744,-8.064 -9.216,-10.8 -3.24,-1.584 -4.968,-2.736 -4.968,-3.888 0,-1.368 1.368,-2.16 2.808,-2.16 1.656,0.072 4.104,0.936 6.048,3.6 l 6.552,-6.192 c -3.168,-3.816 -7.92,-5.616 -12.672,-5.616 -7.272,0 -13.032,4.68 -13.032,11.736 0,5.184 3.24,8.064 8.568,10.728 4.032,2.088 5.472,2.664 5.472,3.96 0,1.224 -1.368,1.944 -3.24,1.944 -2.736,0 -5.904,-1.656 -7.992,-4.176 l -6.048,6.264 c 3.096,3.888 8.712,6.048 13.752,6.048 z" transform="translate(0 273.2944846427331) translate(613.4732322831962 96.7034878888381) scale(1.3599482778194294) translate(-557.13556 -84.144)"></path> 
   <path id="path373017" style="font-style: oblique; font-weight: 700; font-size: 72px; line-height: 1; font-family: Averta; font-variant-ligatures: none; text-align: center; text-anchor: middle; fill: rgb(0, 0, 0);" d="m 599.82594,120.648 c 3.24,0 6.408,-0.792 9.432,-2.448 l -1.728,-8.424 c -1.368,0.72 -2.592,1.152 -3.528,1.152 -1.152,0 -1.872,-0.936 -1.584,-2.952 l 1.728,-14.472 h 7.272 l 1.08,-8.712 h -7.272 l 1.512,-12.456 -11.016,2.16 -1.368,10.296 h -3.456 l -1.08,8.712 h 3.456 l -1.872,15.912 c -1.008,8.136 2.952,11.232 8.424,11.232 z" transform="translate(0 273.2944846427331) translate(678.3188028465279 80.64521862434624) scale(1.3599482778194294) translate(-589.81794 -72.336)"></path> 
   <path id="path373019" style="font-style: oblique; font-weight: 700; font-size: 72px; line-height: 1; font-family: Averta; font-variant-ligatures: none; text-align: center; text-anchor: middle; fill: rgb(0, 0, 0);" d="m 643.70319,93.864 c 0.072,-6.624 -6.336,-9.72 -12.024,-9.72 -11.88,0 -19.296,9.792 -19.296,21.744 -0.072,9.144 5.832,14.76 14.688,14.76 6.912,0 11.592,-2.592 15.336,-7.704 l -8.064,-4.752 c -1.944,2.592 -4.032,3.528 -6.408,3.528 -2.088,0 -4.392,-1.296 -5.04,-4.464 10.368,-1.08 20.664,-4.464 20.808,-13.392 z m -10.368,1.512 c -0.072,3.456 -4.824,4.824 -10.08,5.4 1.224,-4.896 4.392,-7.632 7.488,-7.632 1.656,0 2.664,0.792 2.592,2.232 z" transform="translate(0 273.2944846427331) translate(729.4047159235035 96.7034878888381) scale(1.3599482778194294) translate(-612.38254 -84.144)"></path> 
  </g> 
  <g id="tagline" style="font-style:normal;font-weight:500;font-size:32px;line-height:1;font-family:Raleway;font-variant-ligatures:none;text-align:center;text-anchor:middle"></g> 
 </g> 
</svg>