<svg xmlns:dc="http://purl.org/dc/elements/1.1/" xmlns:cc="http://creativecommons.org/ns#" xmlns:rdf="http://www.w3.org/1999/02/22-rdf-syntax-ns#" xmlns:svg="http://www.w3.org/2000/svg" xmlns="http://www.w3.org/2000/svg" id="svg78826" viewbox="0 0 1024 768" height="768px" width="1024px" version="1.1"> <metadata id="metadata78832"> 
  <rdf:rdf> 
   <cc:work rdf:about=""> 
    <dc:format>
     image/svg+xml
    </dc:format> 
    <dc:type rdf:resource="http://purl.org/dc/dcmitype/StillImage"></dc:type> 
   </cc:work> 
  </rdf:rdf> 
 </metadata> <defs id="defs78830"></defs> <g id="logo-group"> 
  <g id="title" style="font-style:normal;font-weight:200;font-size:72px;line-height:1;font-family:Montserrat;font-variant-ligatures:none;text-align:center;text-anchor:middle" aria-label="O7ANALYSIS"> 
   <path id="path78834" style="font-style: normal; font-weight: 200; font-size: 72px; line-height: 1; font-family: Montserrat; font-variant-ligatures: none; text-align: center; text-anchor: middle; fill: rgb(231, 231, 227);" d="m 321.79175,69.384 q 6.984,0 12.888,3.456 5.976,3.384 9.432,9.216 3.528,5.832 3.528,12.672 0,6.84 -3.528,12.744 -3.456,5.832 -9.432,9.288 -5.904,3.456 -12.888,3.456 -6.984,0 -12.96,-3.456 -5.904,-3.456 -9.432,-9.288 -3.456,-5.904 -3.456,-12.744 0,-6.84 3.456,-12.672 3.528,-5.832 9.432,-9.216 5.976,-3.456 12.96,-3.456 z m 0,1.44 q -6.552,0 -12.168,3.24 -5.616,3.24 -8.928,8.784 -3.312,5.472 -3.312,11.88 0,6.48 3.312,12.024 3.312,5.544 8.928,8.784 5.616,3.24 12.168,3.24 6.552,0 12.168,-3.24 5.616,-3.24 8.928,-8.784 3.312,-5.544 3.312,-12.024 0,-6.408 -3.312,-11.88 -3.312,-5.544 -8.928,-8.784 -5.616,-3.24 -12.168,-3.24 z" transform="translate(0 288.7918405528765) translate(252.0000000000001 64.48585644598332) scale(1.2087780532396994) translate(-295.94375 -69.384)"></path> 
   <path id="path78836" style="font-style: normal; font-weight: 200; font-size: 72px; line-height: 1; font-family: Montserrat; font-variant-ligatures: none; text-align: center; text-anchor: middle; fill: rgb(231, 231, 227);" d="m 353.85762,69.672 h 35.49601 v 1.8 L 364.72962,120 h -1.584 l 24.91201,-48.888 h -32.76001 v 8.064 h -1.44 z" transform="translate(0 288.7918405528765) translate(322.0050150341771 64.83398452531635) scale(1.2087780532396994) translate(-353.85762 -69.672)"></path> 
   <path id="path78838" style="font-style: normal; font-weight: 200; font-size: 72px; line-height: 1; font-family: Montserrat; font-variant-ligatures: none; text-align: center; text-anchor: middle; fill: rgb(71, 70, 69);" d="m 438.21913,120 -7.05601,-15.336 H 400.63513 L 393.65112,120 h -1.72799 l 23.03999,-50.328 h 1.584 L 439.87513,120 Z m -36.93601,-16.776 h 29.16 L 415.75513,71.328 Z" transform="translate(0 288.7918405528765) translate(368.0177681075534 64.83398452531635) scale(1.2087780532396994) translate(-391.92313 -69.672)"></path> 
   <path id="path78840" style="font-style: normal; font-weight: 200; font-size: 72px; line-height: 1; font-family: Montserrat; font-variant-ligatures: none; text-align: center; text-anchor: middle; fill: rgb(71, 70, 69);" d="m 487.4345,69.672 h 1.44 V 120 h -2.16 L 451.2185,71.112 V 120 h -1.44 V 69.672 h 2.16 l 35.496,48.888 z" transform="translate(0 288.7918405528765) translate(437.9520696256159 64.83398452531635) scale(1.2087780532396994) translate(-449.7785 -69.672)"></path> 
   <path id="path78842" style="font-style: normal; font-weight: 200; font-size: 72px; line-height: 1; font-family: Montserrat; font-variant-ligatures: none; text-align: center; text-anchor: middle; fill: rgb(71, 70, 69);" d="m 545.09412,120 -7.05599,-15.336 h -30.528 L 500.52612,120 h -1.72799 l 23.03999,-50.328 h 1.58401 l 23.328,50.328 z m -36.936,-16.776 h 29.16 L 522.63013,71.328 Z" transform="translate(0 288.7918405528765) translate(497.2059225475462 64.83398452531635) scale(1.2087780532396994) translate(-498.79813 -69.672)"></path> 
   <path id="path78844" style="font-style: normal; font-weight: 200; font-size: 72px; line-height: 1; font-family: Montserrat; font-variant-ligatures: none; text-align: center; text-anchor: middle; fill: rgb(71, 70, 69);" d="m 556.6535,69.672 h 1.44 v 48.888 h 22.536 V 120 h -23.976 z" transform="translate(0 288.7918405528765) translate(567.1402240656087 64.83398452531635) scale(1.2087780532396994) translate(-556.6535 -69.672)"></path> 
   <path id="path78846" style="font-style: normal; font-weight: 200; font-size: 72px; line-height: 1; font-family: Montserrat; font-variant-ligatures: none; text-align: center; text-anchor: middle; fill: rgb(71, 70, 69);" d="m 625.64638,69.672 -20.23201,30.96 V 120 h -1.44 v -19.368 l -20.51999,-30.96 h 1.72799 l 19.51201,29.52 19.22399,-29.52 z" transform="translate(0 288.7918405528765) translate(599.5365396171194 64.83398452531635) scale(1.2087780532396994) translate(-583.45438 -69.672)"></path> 
   <path id="path78848" style="font-style: normal; font-weight: 200; font-size: 72px; line-height: 1; font-family: Montserrat; font-variant-ligatures: none; text-align: center; text-anchor: middle; fill: rgb(71, 70, 69);" d="m 660.74413,74.208 q -2.44801,-1.584 -5.90401,-2.448 -3.38399,-0.936 -6.76799,-0.936 -6.62401,0 -10.65601,2.736 -3.95999,2.664 -3.95999,7.128 0,3.888 1.94399,6.264 1.944,2.376 4.752,3.672 2.88,1.224 7.77601,2.736 5.18399,1.584 8.27999,3.024 3.096,1.368 5.184,4.104 2.16001,2.736 2.16001,7.2 0,3.744 -2.08801,6.624 -2.088,2.808 -5.976,4.392 -3.81599,1.512 -9,1.512 -4.75199,0 -9.432,-1.944 -4.608,-1.944 -7.776,-5.184 l 1.00801,-1.008 q 2.88,3.096 7.27199,4.896 4.39201,1.8 8.928,1.8 7.128,0 11.37601,-3.024 4.24799,-3.024 4.24799,-8.064 0,-3.96 -2.01599,-6.336 -1.94401,-2.448 -4.82401,-3.744 -2.88,-1.368 -7.848,-2.88 -5.11199,-1.584 -8.20799,-2.952 -3.024,-1.44 -5.11201,-4.104 -2.088,-2.664 -2.088,-7.056 0,-5.112 4.39201,-8.136 4.39199,-3.096 11.664,-3.096 3.528,0 7.12799,1.008 3.672,1.008 6.264,2.664 z" transform="translate(0 288.7918405528765) translate(654.929688402588 64.48585644598332) scale(1.2087780532396994) translate(-629.28012 -69.384)"></path> 
   <path id="path78850" style="font-style: normal; font-weight: 200; font-size: 72px; line-height: 1; font-family: Montserrat; font-variant-ligatures: none; text-align: center; text-anchor: middle; fill: rgb(71, 70, 69);" d="m 678.29412,69.672 h 1.44 V 120 h -1.44 z" transform="translate(0 288.7918405528765) translate(714.1767359040786 64.83398452531635) scale(1.2087780532396994) translate(-678.29412 -69.672)"></path> 
   <path id="path78852" style="font-style: normal; font-weight: 200; font-size: 72px; line-height: 1; font-family: Montserrat; font-variant-ligatures: none; text-align: center; text-anchor: middle; fill: rgb(71, 70, 69);" d="m 723.32225,74.208 q -2.448,-1.584 -5.904,-2.448 -3.384,-0.936 -6.768,-0.936 -6.624,0 -10.656,2.736 -3.96,2.664 -3.96,7.128 0,3.888 1.944,6.264 1.944,2.376 4.752,3.672 2.88,1.224 7.776,2.736 5.184,1.584 8.28,3.024 3.096,1.368 5.184,4.104 2.16,2.736 2.16,7.2 0,3.744 -2.088,6.624 -2.088,2.808 -5.976,4.392 -3.816,1.512 -9,1.512 -4.752,0 -9.432,-1.944 -4.608,-1.944 -7.776,-5.184 l 1.008,-1.008 q 2.88,3.096 7.272,4.896 4.392,1.8 8.928,1.8 7.128,0 11.376,-3.024 4.248,-3.024 4.248,-8.064 0,-3.96 -2.016,-6.336 -1.944,-2.448 -4.824,-3.744 -2.88,-1.368 -7.848,-2.88 -5.112,-1.584 -8.208,-2.952 -3.024,-1.44 -5.112,-4.104 -2.088,-2.664 -2.088,-7.056 0,-5.112 4.392,-8.136 4.392,-3.096 11.664,-3.096 3.528,0 7.128,1.008 3.672,1.008 6.264,2.664 z" transform="translate(0 288.7918405528765) translate(730.5727585593687 64.48585644598332) scale(1.2087780532396994) translate(-691.85825 -69.384)"></path> 
  </g> 
  <g id="tagline" style="font-style:normal;font-weight:400;font-size:32px;line-height:1;font-family:Montserrat;font-variant-ligatures:none;text-align:center;text-anchor:middle"></g> 
 </g> 
</svg>