<svg xmlns:dc="http://purl.org/dc/elements/1.1/" xmlns:cc="http://creativecommons.org/ns#" xmlns:rdf="http://www.w3.org/1999/02/22-rdf-syntax-ns#" xmlns:svg="http://www.w3.org/2000/svg" xmlns="http://www.w3.org/2000/svg" id="svg114907" viewbox="0 0 1024 768" height="768px" width="1024px" version="1.1"> <metadata id="metadata114913"> 
  <rdf:rdf> 
   <cc:work rdf:about=""> 
    <dc:format>
     image/svg+xml
    </dc:format> 
    <dc:type rdf:resource="http://purl.org/dc/dcmitype/StillImage"></dc:type> 
   </cc:work> 
  </rdf:rdf> 
 </metadata> <defs id="defs114911"></defs> <g id="logo-group"> 
  <g id="title" style="font-style:normal;font-weight:200;font-size:72px;line-height:1;font-family:Montserrat;font-variant-ligatures:none;text-align:center;text-anchor:middle" aria-label="O7Advancing"> 
   <path id="path114915" style="font-style: normal; font-weight: 200; font-size: 72px; line-height: 1; font-family: Montserrat; font-variant-ligatures: none; text-align: center; text-anchor: middle; fill: rgb(225, 225, 225);" d="m 310.04956,69.384 q 6.984,0 12.888,3.456 5.976,3.384 9.432,9.216 3.528,5.832 3.528,12.672 0,6.84 -3.528,12.744 -3.456,5.832 -9.432,9.288 -5.904,3.456 -12.888,3.456 -6.984,0 -12.96,-3.456 -5.904,-3.456 -9.432,-9.288 -3.456,-5.904 -3.456,-12.744 0,-6.84 3.456,-12.672 3.528,-5.832 9.432,-9.216 5.976,-3.456 12.96,-3.456 z m 0,1.44 q -6.552,0 -12.168,3.24 -5.616,3.24 -8.928,8.784 -3.312,5.472 -3.312,11.88 0,6.48 3.312,12.024 3.312,5.544 8.928,8.784 5.616,3.24 12.168,3.24 6.552,0 12.168,-3.24 5.616,-3.24 8.928,-8.784 3.312,-5.544 3.312,-12.024 0,-6.408 -3.312,-11.88 -3.312,-5.544 -8.928,-8.784 -5.616,-3.24 -12.168,-3.24 z" transform="translate(0 285.3124197653675) translate(252.00000000000006 63.181541995768924) scale(1.1495091374923458) translate(-284.20156 -69.384)"></path> 
   <path id="path114917" style="font-style: normal; font-weight: 200; font-size: 72px; line-height: 1; font-family: Montserrat; font-variant-ligatures: none; text-align: center; text-anchor: middle; fill: rgb(225, 225, 225);" d="m 342.11544,69.672 h 35.496 v 1.8 L 352.98744,120 h -1.584 l 24.912,-48.888 h -32.76 v 8.064 h -1.44 z" transform="translate(0 285.3124197653675) translate(318.57253424763525 63.51260062736671) scale(1.1495091374923458) translate(-342.11544 -69.672)"></path> 
   <path id="path114919" style="font-style: normal; font-weight: 200; font-size: 72px; line-height: 1; font-family: Montserrat; font-variant-ligatures: none; text-align: center; text-anchor: middle; fill: rgb(242, 167, 160);" d="m 426.47694,120 -7.056,-15.336 h -30.528 l -6.984,15.336 h -1.728 l 23.04,-50.328 h 1.584 l 23.328,50.328 z m -36.936,-16.776 h 29.16 l -14.688,-31.896 z" transform="translate(0 285.3124197653675) translate(362.3291743208502 63.51260062736671) scale(1.1495091374923458) translate(-380.18094 -69.672)"></path> 
   <path id="path114921" style="font-style: normal; font-weight: 200; font-size: 72px; line-height: 1; font-family: Montserrat; font-variant-ligatures: none; text-align: center; text-anchor: middle; fill: rgb(242, 167, 160);" d="M 466.88694,66.576 V 120 h -1.44 v -10.944 q -2.088,5.112 -6.552,8.136 -4.392,2.952 -10.224,2.952 -5.184,0 -9.36,-2.376 -4.176,-2.448 -6.552,-6.696 -2.304,-4.32 -2.304,-9.648 0,-5.328 2.304,-9.648 2.376,-4.32 6.552,-6.696 4.176,-2.448 9.36,-2.448 5.832,0 10.224,3.024 4.464,2.952 6.552,8.064 V 66.576 Z m -18.216,52.128 q 4.824,0 8.64,-2.232 3.816,-2.232 5.976,-6.12 2.16,-3.96 2.16,-8.928 0,-4.968 -2.16,-8.928 -2.16,-3.96 -5.976,-6.192 -3.816,-2.232 -8.64,-2.232 -4.824,0 -8.64,2.232 -3.816,2.232 -5.976,6.192 -2.16,3.96 -2.16,8.928 0,4.968 2.16,8.928 2.16,3.888 5.976,6.12 3.816,2.232 8.64,2.232 z" transform="translate(0 285.3124197653675) translate(420.1195966991404 59.95372033769041) scale(1.1495091374923458) translate(-430.45494 -66.576)"></path> 
   <path id="path114923" style="font-style: normal; font-weight: 200; font-size: 72px; line-height: 1; font-family: Montserrat; font-variant-ligatures: none; text-align: center; text-anchor: middle; fill: rgb(242, 167, 160);" d="m 475.94656,82.776 h 1.656 l 14.4,35.568 14.328,-35.568 h 1.728 L 492.79456,120 h -1.584 z" transform="translate(0 285.3124197653675) translate(472.41262956846987 78.57576836506641) scale(1.1495091374923458) translate(-475.94656 -82.776)"></path> 
   <path id="path114925" style="font-style: normal; font-weight: 200; font-size: 72px; line-height: 1; font-family: Montserrat; font-variant-ligatures: none; text-align: center; text-anchor: middle; fill: rgb(242, 167, 160);" d="m 539.61706,120 -0.072,-8.424 q -2.448,4.248 -6.48,6.336 -3.96,2.088 -9.144,2.088 -5.328,0 -8.712,-3.024 -3.384,-3.024 -3.384,-7.704 0,-4.536 3.672,-7.056 3.744,-2.52 10.152,-2.52 h 13.824 V 95.16 q -0.072,-5.256 -3.096,-8.064 -2.952,-2.88 -8.712,-2.88 -3.528,0 -6.696,1.368 -3.096,1.296 -6.336,3.816 l -0.864,-1.152 q 6.912,-5.472 13.896,-5.472 6.336,0 9.72,3.312 3.456,3.312 3.528,9.072 l 0.144,24.84 z m -15.624,-1.44 q 5.616,0 9.504,-2.448 3.888,-2.448 6.048,-7.776 l -0.072,-7.2 h -13.824 q -5.904,0 -9.144,2.16 -3.24,2.088 -3.24,5.976 0,4.176 2.88,6.768 2.952,2.52 7.848,2.52 z" transform="translate(0 285.3124197653675) translate(513.655293157989 78.57576836506641) scale(1.1495091374923458) translate(-511.82506 -82.776)"></path> 
   <path id="path114927" style="font-style: normal; font-weight: 200; font-size: 72px; line-height: 1; font-family: Montserrat; font-variant-ligatures: none; text-align: center; text-anchor: middle; fill: rgb(242, 167, 160);" d="m 572.84506,82.776 q 6.912,0 10.728,3.888 3.888,3.888 3.888,10.8 V 120 h -1.44 V 97.464 q 0,-6.264 -3.528,-9.72 -3.456,-3.528 -9.648,-3.528 -6.912,0.144 -11.016,4.248 -4.104,4.104 -4.68,11.304 V 120 h -1.44 V 82.776 h 1.44 v 10.512 q 1.8,-4.968 5.832,-7.704 4.032,-2.736 9.864,-2.808 z" transform="translate(0 285.3124197653675) translate(564.1003521477031 78.57576836506641) scale(1.1495091374923458) translate(-555.70906 -82.776)"></path> 
   <path id="path114929" style="font-style: normal; font-weight: 200; font-size: 72px; line-height: 1; font-family: Montserrat; font-variant-ligatures: none; text-align: center; text-anchor: middle; fill: rgb(242, 167, 160);" d="m 627.74731,88.752 q -4.968,-4.536 -11.736,-4.536 -4.752,0 -8.568,2.232 -3.816,2.16 -5.976,6.048 -2.16,3.888 -2.16,8.856 0,4.968 2.16,8.928 2.16,3.888 5.976,6.12 3.816,2.16 8.568,2.16 3.816,0 6.984,-1.368 3.24,-1.44 5.544,-4.032 l 0.936,1.008 q -2.448,2.808 -5.976,4.32 -3.456,1.512 -7.488,1.512 -5.112,0 -9.288,-2.376 -4.104,-2.448 -6.48,-6.696 -2.304,-4.248 -2.304,-9.576 0,-5.328 2.304,-9.576 2.376,-4.248 6.48,-6.624 4.176,-2.376 9.288,-2.376 3.672,0 6.912,1.296 3.312,1.296 5.76,3.672 z" transform="translate(0 285.3124197653675) translate(612.6444104012893 78.57576836506641) scale(1.1495091374923458) translate(-597.93931 -82.776)"></path> 
   <path id="path114931" style="font-style: normal; font-weight: 200; font-size: 72px; line-height: 1; font-family: Montserrat; font-variant-ligatures: none; text-align: center; text-anchor: middle; fill: rgb(242, 167, 160);" d="m 642.19344,82.776 h 1.44 V 120 h -1.44 z m 0.72,-12.6 q 0.72,0 1.296,0.576 0.576,0.504 0.576,1.296 0,0.72 -0.576,1.296 -0.576,0.576 -1.296,0.576 -0.792,0 -1.368,-0.576 -0.504,-0.576 -0.504,-1.296 0,-0.792 0.504,-1.296 0.576,-0.576 1.368,-0.576 z" transform="translate(0 285.3124197653675) translate(662.1907026816722 64.09195323266286) scale(1.1495091374923458) translate(-641.04144 -70.176)"></path> 
   <path id="path114933" style="font-style: normal; font-weight: 200; font-size: 72px; line-height: 1; font-family: Montserrat; font-variant-ligatures: none; text-align: center; text-anchor: middle; fill: rgb(242, 167, 160);" d="m 676.62631,82.776 q 6.912,0 10.728,3.888 3.888,3.888 3.888,10.8 V 120 h -1.44 V 97.464 q 0,-6.264 -3.528,-9.72 -3.456,-3.528 -9.648,-3.528 -6.912,0.144 -11.016,4.248 -4.104,4.104 -4.68,11.304 V 120 h -1.44 V 82.776 h 1.44 v 10.512 q 1.8,-4.968 5.832,-7.704 4.032,-2.736 9.864,-2.808 z" transform="translate(0 285.3124197653675) translate(683.3978473230806 78.57576836506641) scale(1.1495091374923458) translate(-659.49031 -82.776)"></path> 
   <path id="path114935" style="font-style: normal; font-weight: 200; font-size: 72px; line-height: 1; font-family: Montserrat; font-variant-ligatures: none; text-align: center; text-anchor: middle; fill: rgb(242, 167, 160);" d="m 736.56856,82.776 v 33.048 q 0,5.472 -2.232,9.576 -2.16,4.104 -6.192,6.336 -3.96,2.232 -9.288,2.232 -4.392,0 -8.064,-1.656 -3.6,-1.584 -6.912,-4.824 l 1.008,-1.008 q 3.024,3.024 6.408,4.536 3.456,1.512 7.56,1.512 4.896,0 8.568,-2.088 3.672,-2.016 5.688,-5.832 2.016,-3.744 2.016,-8.784 v -7.776 q -1.944,4.896 -6.264,7.776 -4.248,2.808 -9.792,2.808 -4.968,0 -8.928,-2.304 -3.96,-2.304 -6.192,-6.336 -2.232,-4.104 -2.232,-9.216 0,-5.184 2.232,-9.288 2.232,-4.104 6.192,-6.408 3.96,-2.304 8.928,-2.304 5.544,0 9.792,2.88 4.32,2.88 6.264,7.776 V 82.776 Z m -17.496,34.488 q 4.608,0 8.208,-2.088 3.672,-2.16 5.76,-5.904 2.088,-3.816 2.088,-8.496 0,-4.752 -2.088,-8.496 -2.088,-3.816 -5.76,-5.976 -3.6,-2.16 -8.208,-2.16 -4.608,0 -8.28,2.16 -3.6,2.16 -5.688,5.976 -2.016,3.744 -2.016,8.496 0,4.68 2.016,8.496 2.088,3.744 5.688,5.904 3.672,2.088 8.28,2.088 z" transform="translate(0 285.3124197653675) translate(731.9419055766667 78.57576836506641) scale(1.1495091374923458) translate(-701.72056 -82.776)"></path> 
  </g> 
  <g id="tagline" style="font-style:normal;font-weight:400;font-size:32px;line-height:1;font-family:Montserrat;font-variant-ligatures:none;text-align:center;text-anchor:middle"></g> 
 </g> 
</svg>