<svg xmlns:dc="http://purl.org/dc/elements/1.1/" xmlns:cc="http://creativecommons.org/ns#" xmlns:rdf="http://www.w3.org/1999/02/22-rdf-syntax-ns#" xmlns:svg="http://www.w3.org/2000/svg" xmlns="http://www.w3.org/2000/svg" id="svg648527" viewbox="0 0 1024 768" height="768px" width="1024px" version="1.1"> <metadata id="metadata648533"> 
  <rdf:rdf> 
   <cc:work rdf:about=""> 
    <dc:format>
     image/svg+xml
    </dc:format> 
    <dc:type rdf:resource="http://purl.org/dc/dcmitype/StillImage"></dc:type> 
   </cc:work> 
  </rdf:rdf> 
 </metadata> <defs id="defs648531"></defs> <g id="logo-group"> 
  <g id="title" style="font-style:normal;font-weight:700;font-size:72px;line-height:1;font-family:Phenomena;font-variant-ligatures:none;text-align:center;text-anchor:middle" aria-label="o7Apps"> 
   <path id="path648535" style="font-style: normal; font-weight: 700; font-size: 72px; line-height: 1; font-family: Phenomena; font-variant-ligatures: none; text-align: center; text-anchor: middle; fill: rgb(252, 254, 252);" d="m 440.47644,120.792 c 6.984,0 11.52,-4.896 11.52,-11.736 V 94.944 c 0,-6.84 -4.536,-11.736 -11.52,-11.736 -6.912,0 -11.52,4.896 -11.52,11.736 v 14.112 c 0,6.84 4.608,11.736 11.52,11.736 z m 0,-5.832 c -3.312,0 -5.256,-2.304 -5.256,-5.688 V 94.728 c 0,-3.384 1.944,-5.688 5.256,-5.688 3.312,0 5.328,2.304 5.328,5.688 v 14.544 c 0,3.384 -2.016,5.688 -5.328,5.688 z" transform="translate(0 111.74315183312586) translate(252 219.46036661028393) scale(2.864392445561532) translate(-428.95644 -83.208)"></path> 
   <path id="path648537" style="font-style: normal; font-weight: 700; font-size: 72px; line-height: 1; font-family: Phenomena; font-variant-ligatures: none; text-align: center; text-anchor: middle; fill: rgb(252, 254, 252);" d="m 455.77194,70.536 v 4.104 c 0,0.648 0.36,1.008 0.936,1.008 h 13.752 l -10.44,43.272 c -0.144,0.648 0.144,1.08 0.864,1.08 h 4.536 c 0.576,0 0.936,-0.288 1.08,-0.864 L 477.01194,75 c 0.288,-1.224 0.36,-2.088 0.36,-3.384 0,-1.368 -0.792,-2.016 -2.16,-2.016 h -18.504 c -0.576,0 -0.936,0.36 -0.936,0.936 z" transform="translate(0 111.74315183312586) translate(337.40329296063976 180.48171421108262) scale(2.864392445561532) translate(-455.77194 -69.6)"></path> 
   <path id="path648539" style="font-style: normal; font-weight: 700; font-size: 72px; line-height: 1; font-family: Phenomena; font-variant-ligatures: none; text-align: center; text-anchor: middle; fill: rgb(252, 206, 100);" d="m 484.12869,120 h 4.608 c 0.576,0 0.936,-0.36 0.936,-1.008 v -15.984 h 11.664 v 15.984 c 0,0.648 0.432,1.008 1.008,1.008 h 4.536 c 0.648,0 1.008,-0.36 1.008,-1.008 V 82.128 c 0,-7.92 -4.968,-13.248 -12.384,-13.248 -7.416,0 -12.312,5.328 -12.312,13.248 v 36.864 c 0,0.648 0.36,1.008 0.936,1.008 z m 5.544,-22.968 V 81.84 c 0,-4.32 2.16,-6.84 5.832,-6.84 3.744,0 5.832,2.52 5.832,6.84 v 15.192 z" transform="translate(0 111.74315183312586) translate(424.5402594489558 178.41935165027832) scale(2.864392445561532) translate(-483.19269 -68.88)"></path> 
   <path id="path648541" style="font-style: normal; font-weight: 700; font-size: 72px; line-height: 1; font-family: Phenomena; font-variant-ligatures: none; text-align: center; text-anchor: middle; fill: rgb(252, 206, 100);" d="m 526.69306,83.208 c -6.912,0 -11.52,4.896 -11.52,11.736 v 38.52 c 0,0.576 0.36,0.936 1.008,0.936 h 4.248 c 0.576,0 0.936,-0.36 0.936,-0.936 v -15.12 c 1.656,1.512 3.744,2.448 6.336,2.448 5.832,0 10.44,-4.896 10.44,-11.736 V 94.944 c 0,-6.84 -4.608,-11.736 -11.448,-11.736 z m 5.256,26.064 c 0,3.384 -1.944,5.616 -5.256,5.616 -3.312,0 -5.328,-2.232 -5.328,-5.616 V 94.728 c 0,-3.384 2.016,-5.616 5.328,-5.616 3.312,0 5.256,2.232 5.256,5.616 z" transform="translate(0 111.74315183312586) translate(524.7377670199028 219.46036661028393) scale(2.864392445561532) translate(-515.17306 -83.208)"></path> 
   <path id="path648543" style="font-style: normal; font-weight: 700; font-size: 72px; line-height: 1; font-family: Phenomena; font-variant-ligatures: none; text-align: center; text-anchor: middle; fill: rgb(252, 206, 100);" d="m 555.80244,83.208 c -6.912,0 -11.52,4.896 -11.52,11.736 v 38.52 c 0,0.576 0.36,0.936 1.008,0.936 h 4.248 c 0.576,0 0.936,-0.36 0.936,-0.936 v -15.12 c 1.656,1.512 3.744,2.448 6.336,2.448 5.832,0 10.44,-4.896 10.44,-11.736 V 94.944 c 0,-6.84 -4.608,-11.736 -11.448,-11.736 z m 5.256,26.064 c 0,3.384 -1.944,5.616 -5.256,5.616 -3.312,0 -5.328,-2.232 -5.328,-5.616 V 94.728 c 0,-3.384 2.016,-5.616 5.328,-5.616 3.312,0 5.256,2.232 5.256,5.616 z" transform="translate(0 111.74315183312586) translate(616.7116325235675 219.46036661028393) scale(2.864392445561532) translate(-544.28244 -83.208)"></path> 
   <path id="path648545" style="font-style: normal; font-weight: 700; font-size: 72px; line-height: 1; font-family: Phenomena; font-variant-ligatures: none; text-align: center; text-anchor: middle; fill: rgb(252, 206, 100);" d="m 584.33581,120.792 c 6.696,0 11.16,-4.464 11.16,-10.296 0,-12.096 -16.632,-10.152 -16.632,-17.064 0,-2.592 1.944,-4.392 4.896,-4.392 3.096,0 4.752,2.016 4.968,4.824 0.072,0.576 0.432,0.936 1.008,0.936 h 4.248 c 0.72,0 0.936,-0.504 0.936,-1.008 -0.216,-5.616 -3.6,-10.584 -11.304,-10.584 -6.48,0 -10.872,4.32 -10.872,10.08 0,11.808 16.56,9.864 16.56,17.136 0,2.592 -1.728,4.464 -5.04,4.464 -3.744,0 -5.472,-2.016 -5.76,-5.688 -0.072,-0.72 -0.504,-0.936 -1.008,-0.936 h -4.176 c -0.792,0 -1.008,0.504 -1.008,1.08 0.216,6.336 4.536,11.448 12.024,11.448 z" transform="translate(0 111.74315183312586) translate(705.5919255421015 219.46036661028393) scale(2.864392445561532) translate(-572.31181 -83.208)"></path> 
  </g> 
  <g id="tagline" style="font-style:oblique;font-weight:normal;font-size:32px;line-height:1;font-family:'Fira Sans Condensed';font-variant-ligatures:none;text-align:center;text-anchor:middle"></g> 
 </g> 
</svg>