<svg xmlns:dc="http://purl.org/dc/elements/1.1/" xmlns:cc="http://creativecommons.org/ns#" xmlns:rdf="http://www.w3.org/1999/02/22-rdf-syntax-ns#" xmlns:svg="http://www.w3.org/2000/svg" xmlns="http://www.w3.org/2000/svg" id="svg381598" viewbox="0 0 1024 768" height="768px" width="1024px" version="1.1"> <metadata id="metadata381604"> 
  <rdf:rdf> 
   <cc:work rdf:about=""> 
    <dc:format>
     image/svg+xml
    </dc:format> 
    <dc:type rdf:resource="http://purl.org/dc/dcmitype/StillImage"></dc:type> 
   </cc:work> 
  </rdf:rdf> 
 </metadata> <defs id="defs381602"></defs> <g id="logo-group"> 
  <g id="title" style="font-style:oblique;font-weight:700;font-size:72px;line-height:1;font-family:'Uni Neue';font-variant-ligatures:none;text-align:center;text-anchor:middle" aria-label="o7Bank"> 
   <path id="path381606" style="font-style: oblique; font-weight: 700; font-size: 72px; line-height: 1; font-family: &quot;Uni Neue&quot;; font-variant-ligatures: none; text-align: center; text-anchor: middle; fill: rgb(44, 44, 46);" d="m 430.2665,106.68 1.656,-9.072 c 1.512,-8.784 -4.248,-16.056 -14.112,-16.056 -10.008,0 -17.064,5.4 -18.648,14.112 l -1.512,8.928 c -1.656,9.144 4.176,16.344 13.824,16.344 10.584,0 17.136,-5.184 18.792,-14.256 z m -21.816,-1.008 1.656,-9.288 c 0.576,-3.24 3.024,-5.4 6.48,-5.4 3.456,0 4.968,2.664 4.392,5.904 l -1.656,9.216 c -0.576,3.384 -2.88,5.4 -6.624,5.4 -3.384,0 -4.896,-2.304 -4.248,-5.832 z" transform="translate(0 191.35740636845054) translate(252.0000000000001 163.2713587940221) scale(2.2291465420102767) translate(-397.37065 -81.552)"></path> 
   <path id="path381608" style="font-style: oblique; font-weight: 700; font-size: 72px; line-height: 1; font-family: &quot;Uni Neue&quot;; font-variant-ligatures: none; text-align: center; text-anchor: middle; fill: rgb(44, 44, 46);" d="m 447.48575,120 c 0.72,0 1.152,-0.288 1.512,-0.864 l 24.84,-41.688 c 0.288,-0.504 0.432,-0.936 0.504,-1.44 l 1.008,-6.12 c 0.144,-0.792 -0.288,-1.368 -1.08,-1.368 h -31.896 c -0.792,0 -1.224,0.36 -1.296,1.152 l -1.368,7.776 c -0.144,0.792 0.288,1.368 1.152,1.368 h 19.872 l -23.688,39.672 c -0.504,0.864 -0.072,1.512 0.864,1.512 z" transform="translate(0 191.35740636845054) translate(339.9670935445143 134.22112105854416) scale(2.2291465420102767) translate(-436.83288 -68.52)"></path> 
   <path id="path381610" style="font-style: oblique; font-weight: 700; font-size: 72px; line-height: 1; font-family: &quot;Uni Neue&quot;; font-variant-ligatures: none; text-align: center; text-anchor: middle; fill: rgb(44, 44, 46);" d="m 492.67137,120 c 12.16801,0 18.792,-5.544 20.448,-15.48 0.93601,-5.544 -0.936,-9.648 -4.96799,-11.736 3.52799,-1.8 5.832,-5.184 6.552,-9.36 1.43999,-8.424 -3.6,-14.904 -13.68001,-14.904 h -17.712 c -0.72,0 -1.152,0.432 -1.296,1.152 l -8.63999,48.96 c -0.144,0.792 0.28799,1.368 1.15199,1.368 z m -4.31999,-22.104 h 7.848 c 4.46399,0 5.97599,2.16 5.47199,5.544 -0.72,4.32 -3.744,6.408 -7.776,6.408 h -7.632 z m 3.52799,-19.512 h 6.624 c 4.032,0 5.328,1.872 4.75201,4.896 -0.57601,3.384 -2.88,5.328 -6.55201,5.328 h -6.62399 z" transform="translate(0 191.35740636845054) translate(421.3648476467934 134.22112105854416) scale(2.2291465420102767) translate(-473.34809 -68.52)"></path> 
   <path id="path381612" style="font-style: oblique; font-weight: 700; font-size: 72px; line-height: 1; font-family: &quot;Uni Neue&quot;; font-variant-ligatures: none; text-align: center; text-anchor: middle; fill: rgb(44, 44, 46);" d="m 545.45075,118.416 c 0.648,-0.216 0.936,-0.72 1.08,-1.368 l 3.24,-18.216 c 1.944,-10.8 -3.096,-17.28 -12.888,-17.28 -5.832,0 -11.232,1.296 -14.688,3.384 -0.432,0.288 -0.432,0.792 -0.216,1.44 l 2.232,5.904 c 0.288,0.792 0.864,0.936 1.656,0.576 2.16,-1.008 5.4,-1.656 8.568,-1.656 4.536,0 5.544,1.944 4.896,5.472 l -0.144,1.152 c -1.8,-0.36 -3.96,-0.576 -6.12,-0.576 -9.216,0 -15.12,3.096 -16.344,10.08 -1.44,7.848 3.672,13.608 13.752,13.608 5.544,0 10.872,-1.08 14.976,-2.52 z m -18,-10.512 c 0.36,-2.16 2.232,-3.312 5.76,-3.312 1.584,0 3.24,0.216 4.608,0.504 l -1.008,6.264 c -1.296,0.288 -3.312,0.576 -4.968,0.576 -3.168,0 -4.896,-1.296 -4.392,-4.032 z" transform="translate(0 191.35740636845054) translate(517.5194181083881 163.2713587940221) scale(2.2291465420102767) translate(-516.48324 -81.552)"></path> 
   <path id="path381614" style="font-style: oblique; font-weight: 700; font-size: 72px; line-height: 1; font-family: &quot;Uni Neue&quot;; font-variant-ligatures: none; text-align: center; text-anchor: middle; fill: rgb(44, 44, 46);" d="m 562.86463,120 c 0.79199,0 1.22399,-0.36 1.36799,-1.152 l 4.75201,-27 c 1.07999,-0.504 2.88,-0.864 4.60799,-0.864 3.81601,0 5.4,2.088 4.53601,6.624 l -3.6,21.024 c -0.072,0.792 0.36,1.368 1.15199,1.368 h 8.28001 c 0.79199,0 1.22399,-0.432 1.36799,-1.152 l 3.6,-20.16 c 1.8,-10.224 -3.096,-17.136 -13.96799,-17.136 -4.68001,0 -10.08001,1.152 -14.61601,2.88 -0.64799,0.288 -0.93599,0.72 -1.07999,1.296 l -5.904,32.904 c -0.144,0.792 0.288,1.368 1.15199,1.368 z" transform="translate(0 191.35740636845054) translate(599.663691096121 163.2713587940221) scale(2.2291465420102767) translate(-553.33334 -81.552)"></path> 
   <path id="path381616" style="font-style: oblique; font-weight: 700; font-size: 72px; line-height: 1; font-family: &quot;Uni Neue&quot;; font-variant-ligatures: none; text-align: center; text-anchor: middle; fill: rgb(44, 44, 46);" d="m 619.73563,82.56 c -0.64801,0 -1.15201,0.144 -1.51201,0.648 l -10.22399,11.16 4.31999,-24.48 c 0.144,-0.792 -0.288,-1.368 -1.15199,-1.368 h -8.35201 c -0.71999,0 -1.15199,0.432 -1.29599,1.152 l -8.712,48.96 c -0.072,0.792 0.36,1.368 1.15199,1.368 h 8.35201 c 0.71999,0 1.22399,-0.432 1.29599,-1.152 l 1.72801,-9.576 3.168,-3.024 5.4,12.744 c 0.216,0.72 0.71999,1.008 1.43999,1.008 h 9.144 c 0.93601,0 1.29601,-0.576 0.93601,-1.44 l -9.28801,-20.016 14.112,-14.472 c 0.72,-0.792 0.432,-1.512 -0.64799,-1.512 z" transform="translate(0 191.35740636845054) translate(687.6403476793002 134.22112105854416) scale(2.2291465420102767) translate(-592.79986 -68.52)"></path> 
  </g> 
  <g id="tagline" style="font-style:oblique;font-weight:400;font-size:32px;line-height:1;font-family:Lato;font-variant-ligatures:none;text-align:center;text-anchor:middle"></g> 
 </g> 
</svg>