<svg xmlns:dc="http://purl.org/dc/elements/1.1/" xmlns:cc="http://creativecommons.org/ns#" xmlns:rdf="http://www.w3.org/1999/02/22-rdf-syntax-ns#" xmlns:svg="http://www.w3.org/2000/svg" xmlns="http://www.w3.org/2000/svg" id="svg287883" viewbox="0 0 1024 768" height="768px" width="1024px" version="1.1"> <metadata id="metadata287889"> 
  <rdf:rdf> 
   <cc:work rdf:about=""> 
    <dc:format>
     image/svg+xml
    </dc:format> 
    <dc:type rdf:resource="http://purl.org/dc/dcmitype/StillImage"></dc:type> 
   </cc:work> 
  </rdf:rdf> 
 </metadata> <defs id="defs287887"></defs> <g id="logo-group"> 
  <g id="title" style="font-style:normal;font-weight:400;font-size:72px;line-height:1;font-family:'Abril Fatface';font-variant-ligatures:none;text-align:center;text-anchor:middle" aria-label="o7Balance"> 
   <path id="path287891" style="font-style: normal; font-weight: 400; font-size: 72px; line-height: 1; font-family: &quot;Abril Fatface&quot;; font-variant-ligatures: none; text-align: center; text-anchor: middle; fill: rgb(248, 250, 250);" d="m 365.39787,105.816 v -6.12 q 0,-6.984 -0.79199,-10.152 -0.72001,-3.24 -3.45601,-3.24 -1.584,0 -2.59199,0.936 -0.93601,0.864 -1.368,2.952 -0.64801,3.24 -0.64801,9.864 v 5.616 q 0,7.848 0.43201,9.432 0.50399,1.584 1.00799,2.592 0.792,1.728 3.096,1.728 2.808,0 3.672,-3.24 0.648,-2.304 0.648,-10.368 z m -4.464,14.904 q -9,0 -13.608,-4.608 -4.608,-4.608 -4.608,-13.176 0,-8.64 4.896,-13.248 4.96801,-4.68 13.89601,-4.68 8.928,0 13.32,4.32 4.39199,4.248 4.39199,13.032 0,18.36 -18.288,18.36 z" transform="translate(0 294.0109946127365) translate(252.0000000000001 80.50721261740034) scale(1.1352721228284437) translate(-342.71787 -85.008)"></path> 
   <path id="path287893" style="font-style: normal; font-weight: 400; font-size: 72px; line-height: 1; font-family: &quot;Abril Fatface&quot;; font-variant-ligatures: none; text-align: center; text-anchor: middle; fill: rgb(248, 250, 250);" d="m 397.43563,120.72 q -3.88801,0 -6.12001,-2.088 -2.232,-2.16 -2.232,-5.256 0,-3.168 2.088,-6.912 2.16,-3.816 9.28801,-12.096 l 11.87999,-13.752 h -18.432 q -5.112,0 -6.76799,1.296 -1.584,1.224 -2.52001,5.976 h -1.152 L 384.25963,69.6 h 32.25599 v 7.776 l -7.992,13.968 q -5.328,9.432 -6.84,13.536 -1.44,4.032 -1.44,7.704 0,3.672 2.16,6.768 l -0.50399,0.864 q -2.01601,0.504 -4.464,0.504 z" transform="translate(0 294.0109946127365) translate(315.2911370296551 63.01493974885966) scale(1.1352721228284437) translate(-383.46762 -69.6)"></path> 
   <path id="path287895" style="font-style: normal; font-weight: 400; font-size: 72px; line-height: 1; font-family: &quot;Abril Fatface&quot;; font-variant-ligatures: none; text-align: center; text-anchor: middle; fill: rgb(232, 230, 238);" d="m 418.73075,69.6 h 21.528 q 10.008,0 14.976,2.736 5.04,2.664 5.04,9.072 0,9.864 -11.88,11.808 v 0.144 q 14.4,1.8 14.4,12.528 0,7.848 -5.904,11.016 -5.904,3.096 -16.992,3.096 h -21.168 v -1.368 h 4.68 V 70.968 h -4.68 z m 18.72,24.912 v 24.12 h 3.384 q 3.96,0 5.544,-2.736 1.584,-2.736 1.584,-8.064 v -3.816 q 0,-4.752 -1.944,-7.128 -1.944,-2.376 -6.912,-2.376 z m 0,-23.544 v 22.176 h 1.872 q 3.744,0 5.184,-2.232 1.512,-2.304 1.512,-6.984 v -3.384 q 0,-5.328 -1.296,-7.416 -1.296,-2.16 -4.968,-2.16 z" transform="translate(0 294.0109946127365) translate(372.3534673247571 63.01493974885966) scale(1.1352721228284437) translate(-418.73075 -69.6)"></path> 
   <path id="path287897" style="font-style: normal; font-weight: 400; font-size: 72px; line-height: 1; font-family: &quot;Abril Fatface&quot;; font-variant-ligatures: none; text-align: center; text-anchor: middle; fill: rgb(232, 230, 238);" d="m 482.60937,103.08 h 2.08801 v -5.544 q 0,-6.84 -0.79201,-9.144 -0.71999,-2.376 -2.88,-2.376 -1.296,0 -2.37599,0.72 -1.00801,0.648 -1.00801,1.872 0,1.152 0.432,2.376 h 1.8 q 0.576,1.512 0.576,3.672 0,2.088 -1.79999,3.672 -1.80001,1.512 -4.536,1.512 -6.19201,0 -6.19201,-5.976 0,-8.856 15.04801,-8.856 8.56799,0 11.80799,2.952 3.31201,2.88 3.31201,10.656 v 14.616 q 0,3.744 2.08799,3.744 2.44801,0 2.88,-7.416 l 1.08001,0.072 q -0.28801,6.336 -2.37601,8.712 -2.08799,2.376 -6.84,2.376 -8.63999,0 -9.936,-5.328 -0.936,2.736 -2.808,4.032 -1.87199,1.296 -5.472,1.296 -10.656,0 -10.656,-8.712 0,-5.112 4.032,-6.984 4.10401,-1.944 12.528,-1.944 z m -2.88,8.856 q 0,3.744 0.36001,4.824 0.43199,1.08 1.512,1.08 1.15199,0 2.08799,-1.8 1.00801,-1.872 1.00801,-5.112 v -6.696 h -0.50401 q -4.464,0 -4.464,6.552 z" transform="translate(0 294.0109946127365) translate(443.1020593438962 80.50721261740034) scale(1.1352721228284437) translate(-466.04937 -85.008)"></path> 
   <path id="path287899" style="font-style: normal; font-weight: 400; font-size: 72px; line-height: 1; font-family: &quot;Abril Fatface&quot;; font-variant-ligatures: none; text-align: center; text-anchor: middle; fill: rgb(232, 230, 238);" d="m 504.557,66 h 17.64 v 52.704 h 4.032 V 120 h -21.384 v -1.296 h 3.96 V 67.296 h -4.248 z" transform="translate(0 294.0109946127365) translate(503.8477800415151 58.92796010667729) scale(1.1352721228284437) translate(-504.557 -66)"></path> 
   <path id="path287901" style="font-style: normal; font-weight: 400; font-size: 72px; line-height: 1; font-family: &quot;Abril Fatface&quot;; font-variant-ligatures: none; text-align: center; text-anchor: middle; fill: rgb(232, 230, 238);" d="m 544.90625,103.08 h 2.088 v -5.544 q 0,-6.84 -0.792,-9.144 -0.72,-2.376 -2.88,-2.376 -1.296,0 -2.376,0.72 -1.008,0.648 -1.008,1.872 0,1.152 0.432,2.376 h 1.8 q 0.576,1.512 0.576,3.672 0,2.088 -1.8,3.672 -1.8,1.512 -4.536,1.512 -6.192,0 -6.192,-5.976 0,-8.856 15.048,-8.856 8.568,0 11.808,2.952 3.312,2.88 3.312,10.656 v 14.616 q 0,3.744 2.088,3.744 2.448,0 2.88,-7.416 l 1.08,0.072 q -0.288,6.336 -2.376,8.712 -2.088,2.376 -6.84,2.376 -8.64,0 -9.936,-5.328 -0.936,2.736 -2.808,4.032 -1.872,1.296 -5.472,1.296 -10.656,0 -10.656,-8.712 0,-5.112 4.032,-6.984 4.104,-1.944 12.528,-1.944 z m -2.88,8.856 q 0,3.744 0.36,4.824 0.432,1.08 1.512,1.08 1.152,0 2.088,-1.8 1.008,-1.872 1.008,-5.112 v -6.696 h -0.504 q -4.464,0 -4.464,6.552 z" transform="translate(0 294.0109946127365) translate(547.8841342319383 80.50721261740034) scale(1.1352721228284437) translate(-528.34625 -85.008)"></path> 
   <path id="path287903" style="font-style: normal; font-weight: 400; font-size: 72px; line-height: 1; font-family: &quot;Abril Fatface&quot;; font-variant-ligatures: none; text-align: center; text-anchor: middle; fill: rgb(232, 230, 238);" d="m 567.28588,85.728 h 17.35199 v 6.624 q 1.15201,-3.312 3.52801,-5.328 2.37599,-2.016 7.19999,-2.016 11.16001,0 11.16001,12.024 v 21.672 h 4.03199 V 120 h -20.376 v -1.296 h 2.952 v -23.4 q 0,-4.32 -0.576,-5.544 -0.576,-1.296 -2.088,-1.296 -2.30399,0 -4.104,3.024 -1.728,3.024 -1.728,7.344 v 19.872 h 3.096 V 120 h -20.44799 v -1.296 h 3.95999 v -31.68 h -3.95999 z" transform="translate(0 294.0109946127365) translate(609.1202924866191 80.50721261740034) scale(1.1352721228284437) translate(-567.28588 -85.008)"></path> 
   <path id="path287905" style="font-style: normal; font-weight: 400; font-size: 72px; line-height: 1; font-family: &quot;Abril Fatface&quot;; font-variant-ligatures: none; text-align: center; text-anchor: middle; fill: rgb(232, 230, 238);" d="m 631.59875,86.304 q -3.168,0 -4.536,3.456 -1.368,3.456 -1.368,11.448 v 3.744 q 0,7.128 1.584,10.224 1.584,3.096 5.832,3.096 4.248,0 6.768,-2.88 2.52,-2.88 3.24,-6.552 l 1.296,0.144 q -1.368,6.192 -5.04,8.928 -3.744,2.808 -10.296,2.808 -8.352,0 -12.816,-4.464 -4.464,-4.536 -4.464,-13.176 0,-8.712 5.04,-13.392 5.112,-4.68 14.184,-4.68 6.408,0 9.792,2.52 3.384,2.448 3.384,6.192 0,3.744 -1.656,5.472 -1.584,1.728 -4.464,1.728 -2.808,0 -4.536,-1.512 -1.728,-1.512 -1.728,-4.464 0,-1.296 0.36,-2.592 h 2.376 q 0.504,-1.44 0.504,-2.592 0,-3.456 -3.456,-3.456 z" transform="translate(0 294.0109946127365) translate(676.6835947471324 80.50721261740034) scale(1.1352721228284437) translate(-611.79875 -85.008)"></path> 
   <path id="path287907" style="font-style: normal; font-weight: 400; font-size: 72px; line-height: 1; font-family: &quot;Abril Fatface&quot;; font-variant-ligatures: none; text-align: center; text-anchor: middle; fill: rgb(232, 230, 238);" d="m 665.10912,120.72 q -9.28799,0 -13.968,-4.752 -4.60799,-4.824 -4.60799,-13.32 0,-8.568 5.18399,-13.104 5.256,-4.536 13.32001,-4.536 16.34399,0 15.69599,16.416 h -20.304 v 2.808 q 0,7.056 1.8,10.656 1.80001,3.6 6.264,3.6 8.35201,0 10.94401,-8.928 l 1.29599,0.216 q -1.36799,5.184 -4.968,8.064 -3.528,2.88 -10.656,2.88 z m -4.608,-20.736 h 7.416 v -3.528 q 0,-5.832 -0.71999,-7.92 -0.64801,-2.16 -2.736,-2.16 -2.01601,0 -3.024,2.304 -0.93601,2.232 -0.93601,7.776 z" transform="translate(0 294.0109946127365) translate(733.1456499072889 80.50721261740034) scale(1.1352721228284437) translate(-646.53313 -85.008)"></path> 
  </g> 
  <g id="tagline" style="font-style:oblique;font-weight:normal;font-size:32px;line-height:1;font-family:'Droid Serif';font-variant-ligatures:none;text-align:center;text-anchor:middle"></g> 
 </g> 
</svg>