<svg xmlns:dc="http://purl.org/dc/elements/1.1/" xmlns:cc="http://creativecommons.org/ns#" xmlns:rdf="http://www.w3.org/1999/02/22-rdf-syntax-ns#" xmlns:svg="http://www.w3.org/2000/svg" xmlns="http://www.w3.org/2000/svg" id="svg405684" viewbox="0 0 1024 768" height="768px" width="1024px" version="1.1"> <metadata id="metadata405690"> 
  <rdf:rdf> 
   <cc:work rdf:about=""> 
    <dc:format>
     image/svg+xml
    </dc:format> 
    <dc:type rdf:resource="http://purl.org/dc/dcmitype/StillImage"></dc:type> 
   </cc:work> 
  </rdf:rdf> 
 </metadata> <defs id="defs405688"></defs> <g id="logo-group"> 
  <g id="title" style="font-style:normal;font-weight:200;font-size:72px;line-height:1;font-family:Phenomena;font-variant-ligatures:none;text-align:center;text-anchor:middle" aria-label="o7Bright"> 
   <path id="path405692" style="font-style: normal; font-weight: 200; font-size: 72px; line-height: 1; font-family: Phenomena; font-variant-ligatures: none; text-align: center; text-anchor: middle; fill: rgb(218, 185, 138);" d="m 428.73594,120.504 c 6.408,0 10.224,-4.752 10.224,-10.944 V 94.44 c 0,-6.192 -3.816,-10.944 -10.224,-10.944 -6.408,0 -10.224,4.752 -10.224,10.944 v 15.12 c 0,6.192 3.816,10.944 10.224,10.944 z m 0,-1.296 c -5.544,0 -8.856,-4.248 -8.856,-9.648 V 94.44 c 0,-5.4 3.312,-9.648 8.856,-9.648 5.544,0 8.856,4.248 8.856,9.648 v 15.12 c 0,5.4 -3.312,9.648 -8.856,9.648 z" transform="translate(0 222.64113111827027) translate(251.99999999999994 128.46599056047424) scale(1.7672941285866899) translate(-418.51194 -83.496)"></path> 
   <path id="path405694" style="font-style: normal; font-weight: 200; font-size: 72px; line-height: 1; font-family: Phenomena; font-variant-ligatures: none; text-align: center; text-anchor: middle; fill: rgb(218, 185, 138);" d="m 445.32406,69.96 v 0.648 c 0,0.216 0.144,0.36 0.36,0.36 h 18 l -12.168,48.6 c -0.072,0.288 0.144,0.432 0.36,0.432 h 0.72 c 0.216,0 0.288,-0.072 0.36,-0.288 l 12.24,-48.816 c 0.072,-0.36 0.072,-0.576 0.072,-0.864 0,-0.288 -0.216,-0.432 -0.432,-0.432 h -19.152 c -0.216,0 -0.36,0.144 -0.36,0.36 z" transform="translate(0 222.64113111827027) translate(325.8943141797621 103.9076713496336) scale(1.7672941285866899) translate(-445.32406 -69.6)"></path> 
   <path id="path405696" style="font-style: normal; font-weight: 200; font-size: 72px; line-height: 1; font-family: Phenomena; font-variant-ligatures: none; text-align: center; text-anchor: middle; fill: rgb(169, 144, 110);" d="m 488.49931,93.936 c 3.528,-1.584 5.76,-5.328 5.76,-10.44 v -2.88 c 0,-6.912 -4.176,-11.52 -10.44,-11.52 -6.264,0 -10.44,4.608 -10.44,11.52 v 38.808 c 0,0.432 0.288,0.72 0.72,0.72 h 10.44 c 6.624,0 11.016,-4.464 11.016,-11.16 v -4.608 c 0,-5.184 -2.664,-9 -7.056,-10.44 z m -13.68,-13.32 c 0,-6.12 3.6,-10.152 9,-10.152 5.4,0 9,4.032 9,10.152 v 2.88 c 0,5.904 -3.312,9.864 -8.28,9.864 h -9.72 z m 19.296,28.368 c 0,5.904 -3.816,9.792 -9.576,9.792 h -9.72 V 94.728 h 9.72 c 5.76,0 9.576,3.888 9.576,9.648 z" transform="translate(0 222.64113111827027) translate(401.98560470959416 103.01695510882593) scale(1.7672941285866899) translate(-473.37931 -69.096)"></path> 
   <path id="path405698" style="font-style: normal; font-weight: 200; font-size: 72px; line-height: 1; font-family: Phenomena; font-variant-ligatures: none; text-align: center; text-anchor: middle; fill: rgb(169, 144, 110);" d="m 504.17281,120 h 0.648 c 0.216,0 0.36,-0.144 0.36,-0.36 V 95.16 c 0,-5.976 3.96,-10.008 9.432,-10.008 h 2.16 c 0.216,0 0.36,-0.144 0.36,-0.36 v -0.576 c 0,-0.216 -0.144,-0.36 -0.36,-0.36 h -2.16 c -6.192,0 -10.8,4.608 -10.8,11.304 v 24.48 c 0,0.216 0.144,0.36 0.36,0.36 z" transform="translate(0 222.64113111827027) translate(482.2799625007376 129.10221644676545) scale(1.7672941285866899) translate(-503.81281 -83.856)"></path> 
   <path id="path405700" style="font-style: normal; font-weight: 200; font-size: 72px; line-height: 1; font-family: Phenomena; font-variant-ligatures: none; text-align: center; text-anchor: middle; fill: rgb(169, 144, 110);" d="m 524.58706,77.88 c 0.936,0 1.584,-0.648 1.584,-1.584 0,-0.936 -0.648,-1.584 -1.584,-1.584 -0.936,0 -1.584,0.648 -1.584,1.584 0,0.936 0.648,1.584 1.584,1.584 z m -0.36,42.12 h 0.648 c 0.216,0 0.36,-0.144 0.36,-0.36 V 84.36 c 0,-0.216 -0.144,-0.36 -0.36,-0.36 h -0.648 c -0.216,0 -0.36,0.144 -0.36,0.36 v 35.28 c 0,0.216 0.144,0.36 0.36,0.36 z" transform="translate(0 222.64113111827027) translate(542.7041905806486 112.94207893496878) scale(1.7672941285866899) translate(-523.00306 -74.712)"></path> 
   <path id="path405702" style="font-style: normal; font-weight: 200; font-size: 72px; line-height: 1; font-family: Phenomena; font-variant-ligatures: none; text-align: center; text-anchor: middle; fill: rgb(169, 144, 110);" d="m 545.03281,83.496 c -6.048,0 -10.224,4.824 -10.224,11.088 v 13.968 c 0,6.624 4.176,11.448 10.224,11.448 3.888,0 7.272,-2.16 8.856,-5.832 v 10.152 c 0,5.256 -3.312,9.504 -8.928,9.504 -5.472,0 -8.64,-3.96 -8.784,-8.928 0,-0.216 -0.144,-0.36 -0.36,-0.36 h -0.648 c -0.216,0 -0.36,0.144 -0.36,0.36 0.144,5.688 3.96,10.224 10.152,10.224 6.408,0 10.296,-4.824 10.296,-10.8 V 94.584 c 0,-6.264 -4.176,-11.088 -10.224,-11.088 z m 0,35.208 c -5.256,0 -8.856,-4.248 -8.856,-10.152 V 94.584 c 0,-5.544 3.6,-9.792 8.856,-9.792 5.256,0 8.856,4.248 8.856,9.792 v 13.968 c 0,5.904 -3.6,10.152 -8.856,10.152 z" transform="translate(0 222.64113111827027) translate(590.0778351680112 128.46599056047424) scale(1.7672941285866899) translate(-534.80881 -83.496)"></path> 
   <path id="path405704" style="font-style: normal; font-weight: 200; font-size: 72px; line-height: 1; font-family: Phenomena; font-variant-ligatures: none; text-align: center; text-anchor: middle; fill: rgb(169, 144, 110);" d="m 565.57081,120 h 0.648 c 0.216,0 0.36,-0.144 0.36,-0.36 V 94.296 c 0,-5.328 3.6,-9.504 8.928,-9.504 5.328,0 8.928,4.176 8.928,9.504 v 25.344 c 0,0.216 0.144,0.36 0.36,0.36 h 0.648 c 0.216,0 0.36,-0.144 0.36,-0.36 V 94.296 c 0,-6.048 -4.248,-10.8 -10.296,-10.8 -4.032,0 -7.2,2.088 -8.928,5.256 V 69.96 c 0,-0.216 -0.144,-0.36 -0.36,-0.36 h -0.648 c -0.216,0 -0.36,0.144 -0.36,0.36 v 49.68 c 0,0.216 0.144,0.36 0.36,0.36 z" transform="translate(0 222.64113111827027) translate(670.3165231941042 103.9076713496336) scale(1.7672941285866899) translate(-565.21081 -69.6)"></path> 
   <path id="path405706" style="font-style: normal; font-weight: 200; font-size: 72px; line-height: 1; font-family: Phenomena; font-variant-ligatures: none; text-align: center; text-anchor: middle; fill: rgb(169, 144, 110);" d="m 607.38706,118.848 h -1.008 c -5.04,0 -7.704,-3.24 -7.704,-9.36 V 85.296 h 8.064 c 0.216,0 0.36,-0.144 0.36,-0.36 V 84.36 c 0,-0.216 -0.144,-0.36 -0.36,-0.36 h -8.064 v -9.72 c 0,-0.216 -0.144,-0.36 -0.36,-0.36 h -0.648 c -0.216,0 -0.36,0.144 -0.36,0.36 V 84 h -5.04 c -0.216,0 -0.36,0.144 -0.36,0.36 v 0.576 c 0,0.216 0.144,0.36 0.36,0.36 h 5.04 v 24.192 c 0,6.984 3.096,10.656 9.072,10.656 h 1.008 c 0.216,0 0.36,-0.144 0.36,-0.36 v -0.576 c 0,-0.216 -0.144,-0.36 -0.36,-0.36 z" transform="translate(0 222.64113111827027) translate(744.0060610031869 111.54238198512812) scale(1.7672941285866899) translate(-591.90706 -73.92)"></path> 
  </g> 
  <g id="tagline" style="font-style:oblique;font-weight:300;font-size:32px;line-height:1;font-family:'Fira Sans Condensed';font-variant-ligatures:none;text-align:center;text-anchor:middle"></g> 
 </g> 
</svg>