<svg xmlns:dc="http://purl.org/dc/elements/1.1/" xmlns:cc="http://creativecommons.org/ns#" xmlns:rdf="http://www.w3.org/1999/02/22-rdf-syntax-ns#" xmlns:svg="http://www.w3.org/2000/svg" xmlns="http://www.w3.org/2000/svg" id="svg372288" viewbox="0 0 1024 768" height="768px" width="1024px" version="1.1"> <metadata id="metadata372294"> 
  <rdf:rdf> 
   <cc:work rdf:about=""> 
    <dc:format>
     image/svg+xml
    </dc:format> 
    <dc:type rdf:resource="http://purl.org/dc/dcmitype/StillImage"></dc:type> 
   </cc:work> 
  </rdf:rdf> 
 </metadata> <defs id="defs372292"></defs> <g id="logo-group"> 
  <g id="title" style="font-style:normal;font-weight:700;font-size:72px;line-height:1;font-family:'Comfortaa Bold Alt1';font-variant-ligatures:none;text-align:center;text-anchor:middle" aria-label="o7buzzing"> 
   <path id="path372296" style="font-style: normal; font-weight: 700; font-size: 72px; line-height: 1; font-family: &quot;Comfortaa Bold Alt1&quot;; font-variant-ligatures: none; text-align: center; text-anchor: middle; fill: rgb(244, 127, 94);" d="m 356.22237,82.92 c -3.024,-1.728 -6.408,-2.592 -10.15199,-2.592 -3.88801,0 -7.272,0.864 -10.296,2.592 -3.024,1.728 -5.40001,4.032 -7.05601,7.056 -1.728,3.024 -2.52,6.48 -2.52,10.368 0,3.888 0.792,7.272 2.52,10.296 1.656,3.024 4.03201,5.4 7.05601,7.128 3.024,1.728 6.40799,2.52 10.296,2.52 3.81599,0 7.19999,-0.792 10.22399,-2.52 3.024,-1.728 5.32801,-4.104 7.056,-7.128 1.656,-3.024 2.52,-6.408 2.52,-10.296 0,-3.888 -0.864,-7.344 -2.592,-10.368 -1.72799,-3.024 -4.032,-5.328 -7.056,-7.056 z m -16.776,5.616 c 1.944,-1.152 4.176,-1.728 6.62401,-1.728 2.44799,0 4.608,0.576 6.55199,1.728 1.944,1.152 3.456,2.808 4.536,4.824 1.08001,2.088 1.656,4.392 1.656,6.984 0,2.592 -0.57599,4.968 -1.656,6.984 -1.08,2.016 -2.592,3.6 -4.536,4.752 -1.94399,1.152 -4.104,1.728 -6.55199,1.728 -2.44801,0 -4.68001,-0.576 -6.62401,-1.728 -1.94399,-1.152 -3.456,-2.736 -4.536,-4.752 -1.152,-2.016 -1.656,-4.392 -1.656,-6.984 0,-2.592 0.504,-4.896 1.656,-6.984 1.08,-2.016 2.59201,-3.672 4.536,-4.824 z" transform="translate(0 266.2308628203475) translate(252 91.83401442559293) scale(1.31463517609791) translate(-326.19837 -80.328)"></path> 
   <path id="path372298" style="font-style: normal; font-weight: 700; font-size: 72px; line-height: 1; font-family: &quot;Comfortaa Bold Alt1&quot;; font-variant-ligatures: none; text-align: center; text-anchor: middle; fill: rgb(244, 127, 94);" d="m 369.48725,70.104 c 0.72,0.72 1.584,1.008 2.664,1.008 h 21.888 l -20.664,42.912 c -0.432,0.864 -0.648,1.656 -0.648,2.304 0,1.008 0.36,1.872 1.08,2.592 0.72,0.72 1.512,1.08 2.52,1.08 0.648,0 1.296,-0.144 1.944,-0.504 0.576,-0.36 1.08,-0.864 1.44,-1.512 l 23.04,-48.6 c 0.288,-0.72 0.504,-1.368 0.504,-1.944 0,-1.008 -0.36,-1.872 -1.08,-2.592 -0.72,-0.72 -1.584,-1.08 -2.592,-1.08 h -27.432 c -1.08,0 -1.944,0.36 -2.664,1.08 -0.72,0.72 -1.008,1.584 -1.008,2.592 0,1.08 0.288,1.944 1.008,2.664 z" transform="translate(0 266.2308628203475) translate(311.5278376526683 70.06365590941152) scale(1.31463517609791) translate(-368.47925 -63.768)"></path> 
   <path id="path372300" style="font-style: normal; font-weight: 700; font-size: 72px; line-height: 1; font-family: &quot;Comfortaa Bold Alt1&quot;; font-variant-ligatures: none; text-align: center; text-anchor: middle; fill: rgb(246, 233, 215);" d="m 449.11025,90.12 c -1.584,-3.024 -3.816,-5.4 -6.624,-7.2 -2.808,-1.728 -5.904,-2.592 -9.36,-2.592 -2.808,0 -5.4,0.576 -7.776,1.728 -2.448,1.152 -4.464,2.808 -6.12,4.824 V 67.44 c 0,-1.08 -0.36,-1.944 -1.08,-2.664 -0.72,-0.648 -1.584,-1.008 -2.592,-1.008 -1.152,0 -2.016,0.36 -2.664,1.008 -0.72,0.72 -1.008,1.584 -1.008,2.664 v 32.832 1.296 15.336 c 0,0.936 0.288,1.728 1.008,2.376 0.648,0.72 1.44,1.008 2.448,1.008 h 15.912 0.144 0.288 c 3.672,0 7.056,-0.864 10.08,-2.592 3.024,-1.728 5.4,-4.176 7.2,-7.2 1.728,-3.024 2.592,-6.408 2.592,-10.224 0,-3.672 -0.864,-7.128 -2.448,-10.152 z m -6.336,17.064 c -1.152,2.088 -2.664,3.744 -4.608,4.896 -1.944,1.152 -4.104,1.728 -6.48,1.728 -2.448,0 -4.608,-0.576 -6.552,-1.728 -1.944,-1.152 -3.456,-2.808 -4.536,-4.896 -1.152,-2.016 -1.656,-4.32 -1.656,-6.912 0,-2.52 0.504,-4.824 1.656,-6.84 1.08,-2.016 2.592,-3.672 4.536,-4.824 1.944,-1.152 4.104,-1.8 6.552,-1.8 2.376,0 4.536,0.648 6.48,1.8 1.944,1.152 3.456,2.808 4.608,4.824 1.152,2.016 1.728,4.32 1.728,6.84 0,2.592 -0.576,4.896 -1.728,6.912 z" transform="translate(0 266.2308628203475) translate(372.5361122698441 70.06365590941152) scale(1.31463517609791) translate(-411.88625 -63.768)"></path> 
   <path id="path372302" style="font-style: normal; font-weight: 700; font-size: 72px; line-height: 1; font-family: &quot;Comfortaa Bold Alt1&quot;; font-variant-ligatures: none; text-align: center; text-anchor: middle; fill: rgb(246, 233, 215);" d="M 498.65525,116.328 V 84.216 c 0,-1.08 -0.36,-1.944 -1.008,-2.664 -0.72,-0.648 -1.584,-1.008 -2.664,-1.008 -1.08,0 -1.944,0.36 -2.664,1.008 -0.72,0.72 -1.008,1.584 -1.008,2.664 v 20.304 c 0,1.8 -0.504,3.312 -1.44,4.68 -0.936,1.44 -2.232,2.52 -3.888,3.312 -1.656,0.864 -3.528,1.224 -5.472,1.224 -3.528,0 -6.264,-0.936 -8.352,-2.952 -2.088,-2.016 -3.096,-4.968 -3.096,-8.856 V 84.216 c 0,-1.008 -0.36,-1.872 -1.08,-2.592 -0.72,-0.72 -1.584,-1.08 -2.592,-1.08 -1.08,0 -1.944,0.36 -2.664,1.08 -0.72,0.72 -1.008,1.584 -1.008,2.592 v 17.712 c 0,3.96 0.72,7.272 2.232,10.008 1.44,2.736 3.528,4.896 6.192,6.264 2.52,1.44 5.256,2.16 8.28,2.232 0.144,0 5.688,0 16.848,0 0.936,0 1.728,-0.36 2.376,-1.008 0.648,-0.648 1.008,-1.44 1.008,-2.448 z" transform="translate(0 266.2308628203475) translate(441.9922325286249 92.11797562363006) scale(1.31463517609791) translate(-461.71925 -80.544)"></path> 
   <path id="path372304" style="font-style: normal; font-weight: 700; font-size: 72px; line-height: 1; font-family: &quot;Comfortaa Bold Alt1&quot;; font-variant-ligatures: none; text-align: center; text-anchor: middle; fill: rgb(246, 233, 215);" d="m 541.10937,116.616 c 0,-2.232 -1.152,-3.384 -3.384,-3.384 h -18.288 l 20.304,-26.928 c 0.432,-0.576 0.648,-1.296 0.648,-2.304 0,-2.232 -1.15199,-3.384 -3.384,-3.384 h -24.55199 c -2.304,0 -3.38401,1.152 -3.38401,3.384 0,2.304 1.08001,3.384 3.38401,3.384 h 18.35999 l -20.376,26.928 c -0.43199,0.576 -0.648,1.368 -0.648,2.304 0,2.304 1.08,3.384 3.384,3.384 h 24.552 c 2.232,0 3.384,-1.08 3.384,-3.384 z" transform="translate(0 266.2308628203475) translate(508.18427140137584 92.21262935630912) scale(1.31463517609791) translate(-509.06937 -80.616)"></path> 
   <path id="path372306" style="font-style: normal; font-weight: 700; font-size: 72px; line-height: 1; font-family: &quot;Comfortaa Bold Alt1&quot;; font-variant-ligatures: none; text-align: center; text-anchor: middle; fill: rgb(246, 233, 215);" d="m 579.92187,116.616 c 0,-2.232 -1.152,-3.384 -3.384,-3.384 h -18.288 l 20.304,-26.928 c 0.432,-0.576 0.648,-1.296 0.648,-2.304 0,-2.232 -1.15199,-3.384 -3.384,-3.384 h -24.55199 c -2.30401,0 -3.384,1.152 -3.384,3.384 0,2.304 1.07999,3.384 3.384,3.384 h 18.35999 l -20.376,26.928 c -0.432,0.576 -0.648,1.368 -0.648,2.304 0,2.304 1.08,3.384 3.384,3.384 h 24.552 c 2.232,0 3.384,-1.08 3.384,-3.384 z" transform="translate(0 266.2308628203475) translate(563.1524678483215 92.21262935630912) scale(1.31463517609791) translate(-547.88188 -80.616)"></path> 
   <path id="path372308" style="font-style: normal; font-weight: 700; font-size: 72px; line-height: 1; font-family: &quot;Comfortaa Bold Alt1&quot;; font-variant-ligatures: none; text-align: center; text-anchor: middle; fill: rgb(246, 233, 215);" d="m 590.94237,81.624 c -0.71999,0.72 -1.00799,1.584 -1.00799,2.664 v 32.04 c 0,1.08 0.288,1.944 1.00799,2.664 0.72,0.72 1.58401,1.008 2.664,1.008 1.08,0 1.94401,-0.288 2.664,-1.008 0.648,-0.72 1.008,-1.584 1.008,-2.664 v -32.04 c 0,-1.08 -0.36,-1.944 -1.008,-2.664 -0.71999,-0.648 -1.584,-1.008 -2.664,-1.008 -1.07999,0 -1.944,0.36 -2.664,1.008 z" transform="translate(0 266.2308628203475) translate(622.3800691194726 92.21262935630912) scale(1.31463517609791) translate(-589.93438 -80.616)"></path> 
   <path id="path372310" style="font-style: normal; font-weight: 700; font-size: 72px; line-height: 1; font-family: &quot;Comfortaa Bold Alt1&quot;; font-variant-ligatures: none; text-align: center; text-anchor: middle; fill: rgb(246, 233, 215);" d="m 645.71525,88.752 c -1.512,-2.736 -3.6,-4.896 -6.192,-6.336 -2.52,-1.296 -5.256,-2.016 -8.28,-2.088 -0.072,0 -0.216,-0.072 -0.216,-0.072 h -16.56 c -1.008,0 -1.8,0.36 -2.448,1.008 -0.72,0.72 -1.008,1.512 -1.008,2.448 0,0.072 0,0.216 0,0.288 0,0.144 0,0.216 0,0.288 V 116.4 c 0,1.08 0.288,1.944 1.008,2.664 0.72,0.72 1.584,1.008 2.664,1.008 1.08,0 1.944,-0.288 2.664,-1.008 0.648,-0.72 1.008,-1.584 1.008,-2.664 V 96.096 c 0,-1.728 0.432,-3.24 1.368,-4.68 0.936,-1.368 2.232,-2.448 3.888,-3.312 1.656,-0.792 3.528,-1.224 5.544,-1.224 3.456,0 6.192,1.008 8.28,3.024 2.088,2.016 3.168,4.968 3.168,8.784 V 116.4 c 0,1.08 0.288,1.944 1.008,2.664 0.72,0.72 1.584,1.008 2.664,1.008 1.008,0 1.872,-0.288 2.592,-1.008 0.72,-0.72 1.08,-1.584 1.08,-2.664 V 98.688 c 0,-3.888 -0.792,-7.2 -2.232,-9.936 z" transform="translate(0 266.2308628203475) translate(654.0323693518092 91.73936069291386) scale(1.31463517609791) translate(-611.01125 -80.256)"></path> 
   <path id="path372312" style="font-style: normal; font-weight: 700; font-size: 72px; line-height: 1; font-family: &quot;Comfortaa Bold Alt1&quot;; font-variant-ligatures: none; text-align: center; text-anchor: middle; fill: rgb(246, 233, 215);" d="m 688.09738,82.92 c -3.02401,-1.728 -6.408,-2.592 -10.152,-2.592 -3.88801,0 -7.27201,0.864 -10.29601,2.592 -3.024,1.728 -5.4,4.032 -7.05599,7.056 -1.72801,3.024 -2.52,6.48 -2.52,10.368 0,3.888 0.71999,7.272 2.304,10.296 1.58399,3.024 3.74399,5.4 6.552,7.128 2.808,1.728 5.976,2.52 9.57599,2.52 3.024,0 5.832,-0.72 8.28001,-2.232 2.448,-1.44 4.39199,-3.528 5.904,-6.192 v 3.528 c 0,3.024 -0.576,5.688 -1.72801,7.848 -1.15199,2.16 -2.736,3.816 -4.60799,4.968 -1.94401,1.152 -4.10401,1.656 -6.408,1.656 -2.52,0 -4.752,-0.432 -6.69601,-1.296 -2.01599,-0.864 -3.6,-2.16 -4.89599,-3.888 -0.79201,-1.008 -1.80001,-1.512 -2.952,-1.512 -0.72001,0 -1.36801,0.216 -2.01601,0.648 -1.00799,0.72 -1.512,1.584 -1.512,2.592 0,0.72 0.21601,1.368 0.79201,2.016 2.01599,2.592 4.46399,4.536 7.48799,5.904 2.952,1.368 6.192,2.016 9.648,2.016 3.81601,0 7.272,-0.864 10.29601,-2.664 3.02399,-1.8 5.4,-4.248 7.12799,-7.416 1.65601,-3.096 2.52,-6.552 2.52,-10.368 v -15.552 c 0,-3.888 -0.86399,-7.344 -2.592,-10.368 -1.72799,-3.024 -4.032,-5.328 -7.05599,-7.056 z m -3.6,29.16 c -1.94401,1.152 -4.10401,1.728 -6.552,1.728 -2.448,0 -4.68001,-0.576 -6.62401,-1.728 -1.94399,-1.152 -3.456,-2.736 -4.53599,-4.752 -1.15201,-2.016 -1.65601,-4.392 -1.65601,-6.984 0,-2.592 0.504,-4.896 1.65601,-6.984 1.07999,-2.016 2.592,-3.672 4.53599,-4.824 1.944,-1.152 4.17601,-1.728 6.62401,-1.728 2.44799,0 4.60799,0.576 6.552,1.728 1.94399,1.152 3.456,2.808 4.53599,4.824 1.08001,2.088 1.65601,4.392 1.65601,6.984 0,2.592 -0.576,4.968 -1.65601,6.984 -1.07999,2.016 -2.592,3.6 -4.53599,4.752 z" transform="translate(0 266.2308628203475) translate(719.8458064401956 91.83401442559293) scale(1.31463517609791) translate(-658.07338 -80.328)"></path> 
  </g> 
  <g id="tagline" style="font-style:normal;font-weight:500;font-size:32px;line-height:1;font-family:Raleway;font-variant-ligatures:none;text-align:center;text-anchor:middle"></g> 
 </g> 
</svg>