<svg xmlns:dc="http://purl.org/dc/elements/1.1/" xmlns:cc="http://creativecommons.org/ns#" xmlns:rdf="http://www.w3.org/1999/02/22-rdf-syntax-ns#" xmlns:svg="http://www.w3.org/2000/svg" xmlns="http://www.w3.org/2000/svg" id="svg270454" viewbox="0 0 1024 768" height="768px" width="1024px" version="1.1"> <metadata id="metadata270460"> 
  <rdf:rdf> 
   <cc:work rdf:about=""> 
    <dc:format>
     image/svg+xml
    </dc:format> 
    <dc:type rdf:resource="http://purl.org/dc/dcmitype/StillImage"></dc:type> 
   </cc:work> 
  </rdf:rdf> 
 </metadata> <defs id="defs270458"></defs> <g id="logo-group"> 
  <g id="title" style="font-style:normal;font-weight:500;font-size:72px;line-height:1;font-family:'Raleway Medium Alt1';font-variant-ligatures:none;text-align:center;text-anchor:middle" aria-label="O7BIN"> 
   <path id="path270462" style="font-style: normal; font-weight: 500; font-size: 72px; line-height: 1; font-family: &quot;Raleway Medium Alt1&quot;; font-variant-ligatures: none; text-align: center; text-anchor: middle; fill: rgb(48, 45, 40);" d="m 448.7705,97.248 c -0.216,1.512 -0.504,3.024 -1.008,4.464 -0.792,2.448 -1.944,4.608 -3.456,6.48 -1.512,1.872 -3.384,3.456 -5.472,4.608 -2.232,1.152 -4.68,1.728 -7.344,1.728 -2.664,0 -5.04,-0.504 -7.2,-1.656 -2.16,-1.08 -4.032,-2.592 -5.544,-4.464 -1.584,-1.872 -2.736,-3.96 -3.6,-6.408 -0.504,-1.512 -0.864,-3.096 -1.08,-4.752 h -6.552 c 0.216,2.304 0.72,4.608 1.584,6.768 1.08,3.168 2.736,5.904 4.896,8.352 2.088,2.448 4.608,4.392 7.56,5.832 2.952,1.44 6.264,2.16 9.864,2.16 3.456,0 6.624,-0.648 9.576,-2.088 2.952,-1.44 5.472,-3.312 7.632,-5.688 2.16,-2.376 3.816,-5.112 5.04,-8.28 0.864,-2.232 1.44,-4.608 1.728,-7.056 z m -33.624,-10.152 c 0.792,-2.376 1.944,-4.464 3.456,-6.408 1.512,-1.872 3.384,-3.384 5.544,-4.536 2.16,-1.152 4.608,-1.728 7.344,-1.728 2.52,0 4.896,0.576 7.056,1.656 2.16,1.152 3.96,2.592 5.544,4.464 1.584,1.872 2.736,3.96 3.6,6.408 0.432,1.296 0.792,2.664 1.008,3.96 h 6.552 c -0.288,-1.944 -0.792,-3.96 -1.44,-5.832 -1.152,-3.096 -2.808,-5.832 -4.896,-8.352 -2.16,-2.448 -4.68,-4.392 -7.56,-5.904 -2.952,-1.512 -6.264,-2.304 -9.792,-2.304 -3.528,0 -6.696,0.72 -9.648,2.16 -2.952,1.44 -5.472,3.312 -7.632,5.688 -2.16,2.448 -3.888,5.184 -5.112,8.28 -0.792,2.088 -1.368,4.176 -1.584,6.264 h 6.552 c 0.216,-1.224 0.576,-2.52 1.008,-3.816 z" transform="translate(0 182.74000391298637) translate(252 133.85296960379407) scale(2.223773636949709) translate(-407.5145 -68.52)"></path> 
   <path id="path270464" style="font-style: normal; font-weight: 500; font-size: 72px; line-height: 1; font-family: &quot;Raleway Medium Alt1&quot;; font-variant-ligatures: none; text-align: center; text-anchor: middle; fill: rgb(48, 45, 40);" d="m 486.64587,83.856 -22.896,45.288 h 7.20001 l 25.70399,-51.12 h -36.28799 v 5.832 z" transform="translate(0 182.74000391298637) translate(385.0959209790591 154.9877142493641) scale(2.223773636949709) translate(-460.36588 -78.024)"></path> 
   <path id="path270466" style="font-style: normal; font-weight: 500; font-size: 72px; line-height: 1; font-family: &quot;Raleway Medium Alt1&quot;; font-variant-ligatures: none; text-align: center; text-anchor: middle; fill: rgb(208, 201, 185);" d="m 539.72113,98.616 c -1.72801,-2.304 -4.03201,-3.96 -6.91201,-4.824 2.304,-1.008 4.10401,-2.664 5.4,-4.824 1.29601,-2.088 1.94401,-4.464 1.94401,-7.056 0,-1.584 -0.288,-3.096 -0.864,-4.68 -0.57601,-1.584 -1.36801,-2.952 -2.304,-4.176 -1.00801,-1.224 -2.23201,-2.232 -3.672,-3.024 -1.44001,-0.72 -3.09601,-1.152 -4.824,-1.152 h -25.41601 v 39.6 h 6.48001 V 74.496 h 16.70399 c 1.008,0 2.01601,0.216 2.952,0.648 0.936,0.504 1.72801,1.08 2.376,1.8 0.648,0.792 1.152,1.728 1.584,2.736 0.36001,1.08 0.57601,2.232 0.57601,3.384 0,1.224 -0.216,2.304 -0.64801,3.312 -0.432,1.008 -0.936,1.944 -1.65599,2.664 -0.72,0.792 -1.51201,1.44 -2.44801,1.872 -1.00799,0.432 -2.088,0.648 -3.168,0.648 h -9.79199 v 5.256 h 11.808 c 1.15199,0 2.15999,0.288 3.168,0.72 0.93599,0.504 1.72799,1.152 2.448,1.944 0.72,0.864 1.22399,1.8 1.65599,2.88 0.432,1.08 0.648,2.16 0.648,3.312 0,1.152 -0.216,2.304 -0.648,3.312 -0.504,1.08 -1.07999,2.016 -1.79999,2.808 -0.79201,0.792 -1.72801,1.44 -2.664,1.872 -1.00801,0.504 -2.16,0.72 -3.312,0.72 H 503.07312 V 120 h 24.26401 c 2.01599,0 3.96,-0.288 5.75999,-0.936 1.8,-0.576 3.38401,-1.512 4.752,-2.664 1.368,-1.152 2.44801,-2.52 3.24,-4.176 0.792,-1.584 1.22401,-3.384 1.22401,-5.4 0,-3.168 -0.86401,-5.904 -2.592,-8.208 z" transform="translate(0 182.74000391298637) translate(495.63357085659123 134.65352811309594) scale(2.223773636949709) translate(-503.07312 -68.88)"></path> 
   <path id="path270468" style="font-style: normal; font-weight: 500; font-size: 72px; line-height: 1; font-family: &quot;Raleway Medium Alt1&quot;; font-variant-ligatures: none; text-align: center; text-anchor: middle; fill: rgb(208, 201, 185);" d="m 551.44812,120 h 6.48001 V 68.88 h -6.48001 z" transform="translate(0 182.74000391298637) translate(618.7750360026814 134.65352811309594) scale(2.223773636949709) translate(-551.44812 -68.88)"></path> 
   <path id="path270470" style="font-style: normal; font-weight: 500; font-size: 72px; line-height: 1; font-family: &quot;Raleway Medium Alt1&quot;; font-variant-ligatures: none; text-align: center; text-anchor: middle; fill: rgb(208, 201, 185);" d="m 570.15125,120 h 6.48 V 91.272 l -6.48,-8.424 z m 36.72,-51.048 v 39.744 l -31.68,-39.816 h -5.04 v 3.888 l 6.48,8.208 31.248,39.024 h 5.472 V 68.952 Z" transform="translate(0 182.74000391298637) translate(675.9329788837725 134.65352811309594) scale(2.223773636949709) translate(-570.15125 -68.88)"></path> 
  </g> 
  <g id="tagline" style="font-style:oblique;font-weight:600;font-size:32px;line-height:1;font-family:Raleway;font-variant-ligatures:none;text-align:center;text-anchor:middle"></g> 
 </g> 
</svg>