<svg xmlns:dc="http://purl.org/dc/elements/1.1/" xmlns:cc="http://creativecommons.org/ns#" xmlns:rdf="http://www.w3.org/1999/02/22-rdf-syntax-ns#" xmlns:svg="http://www.w3.org/2000/svg" xmlns="http://www.w3.org/2000/svg" id="svg528249" viewbox="0 0 1024 768" height="768px" width="1024px" version="1.1"> <metadata id="metadata528255"> 
  <rdf:rdf> 
   <cc:work rdf:about=""> 
    <dc:format>
     image/svg+xml
    </dc:format> 
    <dc:type rdf:resource="http://purl.org/dc/dcmitype/StillImage"></dc:type> 
   </cc:work> 
  </rdf:rdf> 
 </metadata> <defs id="defs528253"></defs> <g id="logo-group"> 
  <g id="title" style="font-style:normal;font-weight:700;font-size:72px;line-height:1;font-family:'Brandmark1 Bold';font-variant-ligatures:none;text-align:center;text-anchor:middle" aria-label="o7biotechnology"> 
   <path id="path528257" style="font-style: normal; font-weight: 700; font-size: 72px; line-height: 1; font-family: &quot;Brandmark1 Bold&quot;; font-variant-ligatures: none; text-align: center; text-anchor: middle; fill: rgb(255, 255, 255);" d="m 258.46044,123.024 c 2.736,0 5.472,-0.576 7.992,-1.584 2.448,-1.08 4.68,-2.52 6.552,-4.392 1.872,-1.944 3.312,-4.104 4.392,-6.552 1.08,-2.52 1.584,-5.256 1.584,-7.992 0,-2.808 -0.504,-5.472 -1.584,-7.992 -1.08,-2.448 -2.52,-4.68 -4.392,-6.552 -1.944,-1.872 -4.104,-3.312 -6.552,-4.392 -2.52,-1.08 -5.256,-1.584 -7.992,-1.584 -2.736,0 -5.472,0.504 -7.992,1.584 -2.448,1.08 -4.608,2.52 -6.552,4.392 -1.872,1.944 -3.312,4.104 -4.392,6.552 -1.008,2.52 -1.584,5.184 -1.584,7.992 0,2.736 0.576,5.472 1.584,7.992 1.08,2.448 2.52,4.608 4.392,6.552 1.944,1.872 4.104,3.312 6.552,4.392 2.52,1.008 5.256,1.584 7.992,1.584 z m 0,-30.24 c 5.328,0 9.72,4.392 9.72,9.72 0,5.328 -4.392,9.72 -9.72,9.72 -5.328,0 -9.72,-4.392 -9.72,-9.72 0,-5.328 4.392,-9.72 9.72,-9.72 z" transform="translate(0 302.6864141848142) translate(252 63.47365508378126) scale(0.9439116789102906) translate(-237.94044 -81.984)"></path> 
   <path id="path528259" style="font-style: normal; font-weight: 700; font-size: 72px; line-height: 1; font-family: &quot;Brandmark1 Bold&quot;; font-variant-ligatures: none; text-align: center; text-anchor: middle; fill: rgb(255, 255, 255);" d="m 281.31031,121.512 11.16,2.232 20.592,-48.384 v -7.344 h -35.712 V 78.6 h 22.536 z" transform="translate(0 302.6864141848142) translate(289.1994365573363 50.289096752762326) scale(0.9439116789102906) translate(-277.35031 -68.016)"></path> 
   <path id="path528261" style="font-style: normal; font-weight: 700; font-size: 72px; line-height: 1; font-family: &quot;Brandmark1 Bold&quot;; font-variant-ligatures: none; text-align: center; text-anchor: middle; fill: rgb(239, 66, 90);" d="m 357.14319,102.504 c 0,-2.808 -0.576,-5.472 -1.656,-7.992 -1.008,-2.448 -2.52,-4.68 -4.392,-6.552 -1.872,-1.872 -4.032,-3.384 -6.48,-4.392 -2.592,-1.08 -5.256,-1.584 -7.992,-1.584 -2.808,0 -5.472,0.504 -7.992,1.584 -0.648,0.288 -1.224,0.504 -1.728,0.864 v -20.52 l -10.8,3.6 v 34.992 c 0,2.736 0.504,5.472 1.584,7.992 1.008,2.448 2.52,4.608 4.392,6.48 1.872,1.944 4.104,3.384 6.552,4.392 2.52,1.08 5.184,1.656 7.992,1.656 2.736,0 5.4,-0.576 7.992,-1.656 2.376,-1.008 4.608,-2.52 6.48,-4.392 1.872,-1.872 3.384,-4.032 4.392,-6.48 1.08,-2.592 1.656,-5.256 1.656,-7.992 z m -10.8,0 c 0,5.328 -4.392,9.72 -9.72,9.72 -5.4,0 -9.72,-4.392 -9.72,-9.72 0,-5.4 4.32,-9.72 9.72,-9.72 5.328,0 9.72,4.32 9.72,9.72 z" transform="translate(0 302.6864141848142) translate(325.7787325807454 46.415283222514496) scale(0.9439116789102906) translate(-316.10319 -63.912)"></path> 
   <path id="path528263" style="font-style: normal; font-weight: 700; font-size: 72px; line-height: 1; font-family: &quot;Brandmark1 Bold&quot;; font-variant-ligatures: none; text-align: center; text-anchor: middle; fill: rgb(239, 66, 90);" d="m 360.90744,122.52 h 10.872 V 80.976 l -10.872,3.6 z" transform="translate(0 302.6864141848142) translate(368.0699874205618 62.522192111439686) scale(0.9439116789102906) translate(-360.90744 -80.976)"></path> 
   <path id="path528265" style="font-style: normal; font-weight: 700; font-size: 72px; line-height: 1; font-family: &quot;Brandmark1 Bold&quot;; font-variant-ligatures: none; text-align: center; text-anchor: middle; fill: rgb(239, 66, 90);" d="m 396.41356,123.024 c 2.736,0 5.472,-0.576 7.992,-1.584 2.448,-1.08 4.68,-2.52 6.552,-4.392 1.872,-1.944 3.312,-4.104 4.392,-6.552 1.08,-2.52 1.584,-5.256 1.584,-7.992 0,-2.808 -0.504,-5.472 -1.584,-7.992 -1.08,-2.448 -2.52,-4.68 -4.392,-6.552 -1.944,-1.872 -4.104,-3.312 -6.552,-4.392 -2.52,-1.08 -5.256,-1.584 -7.992,-1.584 -2.736,0 -5.472,0.504 -7.992,1.584 -2.448,1.08 -4.608,2.52 -6.552,4.392 -1.872,1.944 -3.312,4.104 -4.392,6.552 -1.008,2.52 -1.584,5.184 -1.584,7.992 0,2.736 0.576,5.472 1.584,7.992 1.08,2.448 2.52,4.608 4.392,6.552 1.944,1.872 4.104,3.312 6.552,4.392 2.52,1.008 5.256,1.584 7.992,1.584 z m 0,-30.24 c 5.328,0 9.72,4.392 9.72,9.72 0,5.328 -4.392,9.72 -9.72,9.72 -5.328,0 -9.72,-4.392 -9.72,-9.72 0,-5.328 4.392,-9.72 9.72,-9.72 z" transform="translate(0 302.6864141848142) translate(382.21556111011284 63.47365508378126) scale(0.9439116789102906) translate(-375.89356 -81.984)"></path> 
   <path id="path528267" style="font-style: normal; font-weight: 700; font-size: 72px; line-height: 1; font-family: &quot;Brandmark1 Bold&quot;; font-variant-ligatures: none; text-align: center; text-anchor: middle; fill: rgb(239, 66, 90);" d="m 443.84356,92.496 v -10.08 h -11.448 V 69.528 l -10.8,3.6 v 27.936 c 0,3.024 0.576,5.904 1.728,8.64 1.08,2.664 2.736,5.04 4.752,7.056 2.016,2.088 4.392,3.672 7.056,4.824 2.736,1.152 5.688,1.728 8.712,1.728 v -10.8 c -6.336,0 -11.448,-5.112 -11.448,-11.448 v -8.568 z" transform="translate(0 302.6864141848142) translate(425.3542126596709 51.71629121127469) scale(0.9439116789102906) translate(-421.59556 -69.528)"></path> 
   <path id="path528269" style="font-style: normal; font-weight: 700; font-size: 72px; line-height: 1; font-family: &quot;Brandmark1 Bold&quot;; font-variant-ligatures: none; text-align: center; text-anchor: middle; fill: rgb(239, 66, 90);" d="m 462.19569,122.808 c 2.808,0 5.544,-0.576 8.136,-1.728 2.52,-1.08 4.752,-2.664 6.624,-4.608 l -7.632,-7.2 c -1.872,2.016 -4.392,3.096 -7.128,3.096 -3.528,0 -6.624,-1.872 -8.352,-4.608 h 28.584 v -5.256 c 0,-5.4 -2.088,-10.512 -5.904,-14.328 -3.816,-3.816 -8.928,-5.976 -14.328,-5.976 -5.472,0 -10.512,2.16 -14.4,5.976 -3.816,3.816 -5.904,8.928 -5.904,14.328 0,5.4 2.088,10.512 5.904,14.328 3.888,3.816 8.928,5.976 14.4,5.976 z m -8.352,-25.488 c 1.728,-2.808 4.824,-4.68 8.352,-4.68 3.456,0 6.552,1.872 8.352,4.68 z" transform="translate(0 302.6864141848142) translate(444.51196680335244 63.67754000642589) scale(0.9439116789102906) translate(-441.89169 -82.2)"></path> 
   <path id="path528271" style="font-style: normal; font-weight: 700; font-size: 72px; line-height: 1; font-family: &quot;Brandmark1 Bold&quot;; font-variant-ligatures: none; text-align: center; text-anchor: middle; fill: rgb(239, 66, 90);" d="m 503.28856,123.096 c 6.696,0 13.032,-3.312 16.92,-8.928 l -8.928,-6.12 c -1.8,2.664 -4.824,4.248 -7.992,4.248 -5.4,0 -9.72,-4.392 -9.72,-9.72 0,-5.4 4.32,-9.72 9.72,-9.72 3.096,0 6.12,1.512 7.92,4.104 l 8.856,-6.192 c -1.872,-2.664 -4.392,-4.824 -7.2,-6.336 -2.952,-1.584 -6.264,-2.376 -9.576,-2.376 -2.808,0 -5.472,0.504 -7.992,1.584 -2.448,1.08 -4.68,2.52 -6.552,4.392 -1.872,1.944 -3.384,4.104 -4.392,6.552 -1.08,2.52 -1.584,5.256 -1.584,7.992 0,2.736 0.504,5.472 1.584,7.992 1.008,2.448 2.52,4.608 4.392,6.552 1.872,1.872 4.104,3.312 6.552,4.392 2.52,1.008 5.184,1.584 7.992,1.584 z" transform="translate(0 302.6864141848142) translate(483.0961217936501 63.54161672466281) scale(0.9439116789102906) translate(-482.76856 -82.056)"></path> 
   <path id="path528273" style="font-style: normal; font-weight: 700; font-size: 72px; line-height: 1; font-family: &quot;Brandmark1 Bold&quot;; font-variant-ligatures: none; text-align: center; text-anchor: middle; fill: rgb(239, 66, 90);" d="m 553.57944,88.032 c -3.456,-3.456 -7.992,-5.328 -12.888,-5.328 -2.592,0 -5.112,0.504 -7.416,1.584 v -19.8 l -10.8,3.6 v 31.248 c -0.072,0.576 -0.072,1.08 -0.072,1.656 h 0.072 v 21.528 h 10.8 V 99.912 c 0.504,-3.6 3.6,-6.408 7.416,-6.408 4.104,0 7.488,3.312 7.488,7.488 v 21.528 h 10.8 v -21.528 c 0,-4.896 -1.944,-9.504 -5.4,-12.96 z" transform="translate(0 302.6864141848142) translate(520.5079479178581 46.95897634956682) scale(0.9439116789102906) translate(-522.40344 -64.488)"></path> 
   <path id="path528275" style="font-style: normal; font-weight: 700; font-size: 72px; line-height: 1; font-family: &quot;Brandmark1 Bold&quot;; font-variant-ligatures: none; text-align: center; text-anchor: middle; fill: rgb(239, 66, 90);" d="m 595.20106,88.392 c -3.456,-3.384 -7.992,-5.256 -12.816,-5.256 -2.592,0 -5.04,0.504 -7.272,1.512 v -2.664 h -10.8 v 17.64 c -0.072,0.576 -0.072,1.08 -0.072,1.656 h 0.072 v 21.24 h 10.8 V 100.2 c 0.504,-3.528 3.528,-6.264 7.272,-6.264 4.032,0 7.344,3.312 7.344,7.344 v 21.24 h 10.8 v -21.24 c 0,-4.896 -1.944,-9.432 -5.328,-12.888 z" transform="translate(0 302.6864141848142) translate(559.9989660536687 63.47365508378126) scale(0.9439116789102906) translate(-564.24106 -81.984)"></path> 
   <path id="path528277" style="font-style: normal; font-weight: 700; font-size: 72px; line-height: 1; font-family: &quot;Brandmark1 Bold&quot;; font-variant-ligatures: none; text-align: center; text-anchor: middle; fill: rgb(239, 66, 90);" d="m 624.08544,123.024 c 2.736,0 5.472,-0.576 7.992,-1.584 2.448,-1.08 4.68,-2.52 6.552,-4.392 1.872,-1.944 3.312,-4.104 4.392,-6.552 1.08,-2.52 1.584,-5.256 1.584,-7.992 0,-2.808 -0.504,-5.472 -1.584,-7.992 -1.08,-2.448 -2.52,-4.68 -4.392,-6.552 -1.944,-1.872 -4.104,-3.312 -6.552,-4.392 -2.52,-1.08 -5.256,-1.584 -7.992,-1.584 -2.736,0 -5.472,0.504 -7.992,1.584 -2.448,1.08 -4.608,2.52 -6.552,4.392 -1.872,1.944 -3.312,4.104 -4.392,6.552 -1.008,2.52 -1.584,5.184 -1.584,7.992 0,2.736 0.576,5.472 1.584,7.992 1.08,2.448 2.52,4.608 4.392,6.552 1.944,1.872 4.104,3.312 6.552,4.392 2.52,1.008 5.256,1.584 7.992,1.584 z m 0,-30.24 c 5.328,0 9.72,4.392 9.72,9.72 0,5.328 -4.392,9.72 -9.72,9.72 -5.328,0 -9.72,-4.392 -9.72,-9.72 0,-5.328 4.392,-9.72 9.72,-9.72 z" transform="translate(0 302.6864141848142) translate(597.117707601575 63.47365508378126) scale(0.9439116789102906) translate(-603.56544 -81.984)"></path> 
   <path id="path528279" style="font-style: normal; font-weight: 700; font-size: 72px; line-height: 1; font-family: &quot;Brandmark1 Bold&quot;; font-variant-ligatures: none; text-align: center; text-anchor: middle; fill: rgb(239, 66, 90);" d="m 648.90744,122.52 h 10.872 V 64.488 l -10.872,3.6 z" transform="translate(0 302.6864141848142) translate(639.9165509467255 46.95897634956682) scale(0.9439116789102906) translate(-648.90744 -64.488)"></path> 
   <path id="path528281" style="font-style: normal; font-weight: 700; font-size: 72px; line-height: 1; font-family: &quot;Brandmark1 Bold&quot;; font-variant-ligatures: none; text-align: center; text-anchor: middle; fill: rgb(239, 66, 90);" d="m 684.41356,123.024 c 2.736,0 5.472,-0.576 7.992,-1.584 2.448,-1.08 4.68,-2.52 6.552,-4.392 1.872,-1.944 3.312,-4.104 4.392,-6.552 1.08,-2.52 1.584,-5.256 1.584,-7.992 0,-2.808 -0.504,-5.472 -1.584,-7.992 -1.08,-2.448 -2.52,-4.68 -4.392,-6.552 -1.944,-1.872 -4.104,-3.312 -6.552,-4.392 -2.52,-1.08 -5.256,-1.584 -7.992,-1.584 -2.736,0 -5.472,0.504 -7.992,1.584 -2.448,1.08 -4.608,2.52 -6.552,4.392 -1.872,1.944 -3.312,4.104 -4.392,6.552 -1.008,2.52 -1.584,5.184 -1.584,7.992 0,2.736 0.576,5.472 1.584,7.992 1.08,2.448 2.52,4.608 4.392,6.552 1.944,1.872 4.104,3.312 6.552,4.392 2.52,1.008 5.256,1.584 7.992,1.584 z m 0,-30.24 c 5.328,0 9.72,4.392 9.72,9.72 0,5.328 -4.392,9.72 -9.72,9.72 -5.328,0 -9.72,-4.392 -9.72,-9.72 0,-5.328 4.392,-9.72 9.72,-9.72 z" transform="translate(0 302.6864141848142) translate(654.0621246362766 63.47365508378126) scale(0.9439116789102906) translate(-663.89356 -81.984)"></path> 
   <path id="path528283" style="font-style: normal; font-weight: 700; font-size: 72px; line-height: 1; font-family: &quot;Brandmark1 Bold&quot;; font-variant-ligatures: none; text-align: center; text-anchor: middle; fill: rgb(239, 66, 90);" d="m 740.77156,87.888 c -3.816,-3.816 -8.928,-5.904 -14.256,-5.904 -5.4,0 -10.512,2.088 -14.328,5.904 -3.816,3.816 -5.904,8.856 -5.904,14.256 0,5.4 2.088,10.44 5.904,14.256 3.816,3.816 8.928,5.904 14.328,5.904 3.168,0 6.264,-0.72 9,-2.088 -1.08,3.96 -4.752,6.84 -9,6.84 -2.448,0 -4.752,-0.936 -6.48,-2.592 l -7.488,7.848 c 3.816,3.6 8.712,5.544 13.896,5.544 5.4,0 10.512,-2.088 14.328,-5.904 3.816,-3.816 5.904,-8.856 5.904,-14.256 v -15.552 c 0,-5.4 -2.088,-10.44 -5.904,-14.256 z m -14.256,23.616 c -5.184,0 -9.432,-4.176 -9.432,-9.36 0,-5.184 4.248,-9.432 9.432,-9.432 5.184,0 9.36,4.248 9.36,9.432 0,5.184 -4.248,9.36 -9.36,9.36 z" transform="translate(0 302.6864141848142) translate(694.0745407052839 63.47365508378126) scale(0.9439116789102906) translate(-706.28356 -81.984)"></path> 
   <path id="path528285" style="font-style: normal; font-weight: 700; font-size: 72px; line-height: 1; font-family: &quot;Brandmark1 Bold&quot;; font-variant-ligatures: none; text-align: center; text-anchor: middle; fill: rgb(239, 66, 90);" d="m 755.50344,136.776 h 11.448 l 21.888,-54.36 h -11.52 l -9.072,22.752 -9.648,-22.752 h -11.88 l 16.056,36.288 z" transform="translate(0 302.6864141848142) translate(732.2424400842989 63.88142492907051) scale(0.9439116789102906) translate(-746.71944 -82.416)"></path> 
  </g> 
  <g id="tagline" style="font-style:normal;font-weight:400;font-size:32px;line-height:1;font-family:Montserrat;font-variant-ligatures:none;text-align:center;text-anchor:middle"></g> 
 </g> 
</svg>