<svg xmlns:dc="http://purl.org/dc/elements/1.1/" xmlns:cc="http://creativecommons.org/ns#" xmlns:rdf="http://www.w3.org/1999/02/22-rdf-syntax-ns#" xmlns:svg="http://www.w3.org/2000/svg" xmlns="http://www.w3.org/2000/svg" id="svg96289" viewbox="0 0 1024 768" height="768px" width="1024px" version="1.1"> <metadata id="metadata96295"> 
  <rdf:rdf> 
   <cc:work rdf:about=""> 
    <dc:format>
     image/svg+xml
    </dc:format> 
    <dc:type rdf:resource="http://purl.org/dc/dcmitype/StillImage"></dc:type> 
   </cc:work> 
  </rdf:rdf> 
 </metadata> <defs id="defs96293"></defs> <g id="logo-group"> 
  <g id="title" style="font-style:normal;font-weight:700;font-size:72px;line-height:1;font-family:Phenomena;font-variant-ligatures:none;text-align:center;text-anchor:middle" aria-label="o7Blue"> 
   <path id="path96297" style="font-style: normal; font-weight: 700; font-size: 72px; line-height: 1; font-family: Phenomena; font-variant-ligatures: none; text-align: center; text-anchor: middle; fill: rgb(255, 255, 255);" d="m 448.703,120.792 c 6.984,0 11.52,-4.896 11.52,-11.736 V 94.944 c 0,-6.84 -4.536,-11.736 -11.52,-11.736 -6.912,0 -11.52,4.896 -11.52,11.736 v 14.112 c 0,6.84 4.608,11.736 11.52,11.736 z m 0,-5.832 c -3.312,0 -5.256,-2.304 -5.256,-5.688 V 94.728 c 0,-3.384 1.944,-5.688 5.256,-5.688 3.312,0 5.328,2.304 5.328,5.688 v 14.544 c 0,3.384 -2.016,5.688 -5.328,5.688 z" transform="translate(0 121.23127617894497) translate(252 228.23530443821278) scale(2.969850308121969) translate(-437.183 -83.208)"></path> 
   <path id="path96299" style="font-style: normal; font-weight: 700; font-size: 72px; line-height: 1; font-family: Phenomena; font-variant-ligatures: none; text-align: center; text-anchor: middle; fill: rgb(255, 255, 255);" d="m 463.9985,70.536 v 4.104 c 0,0.648 0.36,1.008 0.936,1.008 h 13.752 l -10.44,43.272 c -0.144,0.648 0.144,1.08 0.864,1.08 h 4.536 c 0.576,0 0.936,-0.288 1.08,-0.864 L 485.2385,75 c 0.288,-1.224 0.36,-2.088 0.36,-3.384 0,-1.368 -0.792,-2.016 -2.16,-2.016 h -18.504 c -0.576,0 -0.936,0.36 -0.936,0.936 z" transform="translate(0 121.23127617894497) translate(346.4872724780544 187.82158144528898) scale(2.969850308121969) translate(-463.9985 -69.6)"></path> 
   <path id="path96301" style="font-style: normal; font-weight: 700; font-size: 72px; line-height: 1; font-family: Phenomena; font-variant-ligatures: none; text-align: center; text-anchor: middle; fill: rgb(25, 25, 25);" d="m 510.28325,94.08 c 2.952,-1.656 4.752,-5.112 4.752,-9.36 v -3.168 c 0,-7.632 -4.752,-12.672 -11.952,-12.672 -6.984,0 -11.664,5.04 -11.664,12.672 v 35.712 c 0,1.728 1.224,2.952 2.88,2.952 h 9.576 c 7.272,0 12.24,-5.04 12.24,-12.816 v -3.312 c 0,-4.536 -2.232,-8.208 -5.832,-10.008 z m -12.384,-12.888 c 0,-3.888 1.944,-6.264 5.184,-6.264 3.456,0 5.472,2.376 5.472,6.264 v 4.032 c 0,3.96 -2.088,6.336 -5.472,6.336 h -5.184 z m 11.592,26.568 c 0,4.032 -2.088,6.48 -5.76,6.48 h -5.832 V 97.464 h 5.832 c 3.672,0 5.76,2.448 5.76,6.552 z" transform="translate(0 121.23127617894497) translate(442.7720468550997 185.68328922344122) scale(2.969850308121969) translate(-491.41925 -68.88)"></path> 
   <path id="path96303" style="font-style: normal; font-weight: 700; font-size: 72px; line-height: 1; font-family: Phenomena; font-variant-ligatures: none; text-align: center; text-anchor: middle; fill: rgb(25, 25, 25);" d="m 523.29612,120 h 4.176 c 0.64801,0 1.00801,-0.36 1.00801,-1.008 V 70.536 c 0,-0.576 -0.36,-0.936 -1.00801,-0.936 h -4.176 c -0.64799,0 -1.00799,0.36 -1.00799,0.936 v 48.456 c 0,0.648 0.36,1.008 1.00799,1.008 z" transform="translate(0 121.23127617894497) translate(549.2972511750899 187.82158144528898) scale(2.969850308121969) translate(-522.28813 -69.6)"></path> 
   <path id="path96305" style="font-style: normal; font-weight: 700; font-size: 72px; line-height: 1; font-family: Phenomena; font-variant-ligatures: none; text-align: center; text-anchor: middle; fill: rgb(25, 25, 25);" d="m 536.92325,84 c -0.648,0 -1.008,0.36 -1.008,1.008 v 24.048 c 0,6.84 4.536,11.736 11.232,11.736 6.696,0 11.232,-4.896 11.232,-11.736 V 85.008 c 0,-0.648 -0.36,-1.008 -1.008,-1.008 h -4.176 c -0.648,0 -1.008,0.36 -1.008,1.008 v 24.264 c 0,3.384 -1.872,5.688 -5.04,5.688 -3.168,0 -5.04,-2.304 -5.04,-5.688 V 85.008 c 0,-0.648 -0.36,-1.008 -1.008,-1.008 z" transform="translate(0 121.23127617894497) translate(604.6170092465147 230.58742588224538) scale(2.969850308121969) translate(-535.91525 -84)"></path> 
   <path id="path96307" style="font-style: normal; font-weight: 700; font-size: 72px; line-height: 1; font-family: Phenomena; font-variant-ligatures: none; text-align: center; text-anchor: middle; fill: rgb(25, 25, 25);" d="m 575.684,120.72 c 6.48,0 11.016,-4.464 11.376,-11.16 0,-0.576 -0.36,-0.936 -0.936,-0.936 h -4.248 c -0.576,0 -0.936,0.288 -1.008,0.936 -0.216,3.168 -2.16,5.328 -5.112,5.328 -3.312,0 -5.256,-2.304 -5.256,-5.616 v -3.744 h 5.328 c 6.84,0 11.448,-4.536 11.448,-10.872 0,-6.624 -4.752,-11.448 -11.52,-11.376 -6.912,0 -11.376,4.752 -11.448,11.592 v 14.112 c 0,7.056 4.608,11.736 11.376,11.736 z M 570.5,99.912 V 94.8 c 0,-3.456 1.872,-5.688 5.256,-5.688 3.312,0 5.328,2.232 5.328,5.688 0,3.024 -1.944,5.112 -5.256,5.112 z" transform="translate(0 121.23127617894497) translate(703.7884781230548 228.44677262940263) scale(2.969850308121969) translate(-564.308 -83.279205)"></path> 
  </g> 
  <g id="tagline" style="font-style:oblique;font-weight:normal;font-size:32px;line-height:1;font-family:'Fira Sans Condensed';font-variant-ligatures:none;text-align:center;text-anchor:middle"></g> 
 </g> 
</svg>