<svg xmlns:dc="http://purl.org/dc/elements/1.1/" xmlns:cc="http://creativecommons.org/ns#" xmlns:rdf="http://www.w3.org/1999/02/22-rdf-syntax-ns#" xmlns:svg="http://www.w3.org/2000/svg" xmlns="http://www.w3.org/2000/svg" id="svg410860" viewbox="0 0 1024 768" height="768px" width="1024px" version="1.1"> <metadata id="metadata410866"> 
  <rdf:rdf> 
   <cc:work rdf:about=""> 
    <dc:format>
     image/svg+xml
    </dc:format> 
    <dc:type rdf:resource="http://purl.org/dc/dcmitype/StillImage"></dc:type> 
   </cc:work> 
  </rdf:rdf> 
 </metadata> <defs id="defs410864"></defs> <g id="logo-group"> 
  <g id="title" style="font-style:normal;font-weight:300;font-size:72px;line-height:1;font-family:'Montserrat Light Alt1';font-variant-ligatures:none;text-align:center;text-anchor:middle" aria-label="o7Brand"> 
   <path id="path410868" style="font-style: normal; font-weight: 300; font-size: 72px; line-height: 1; font-family: &quot;Montserrat Light Alt1&quot;; font-variant-ligatures: none; text-align: center; text-anchor: middle; fill: rgb(0, 97, 122);" d="m 371.95325,117.84 c 2.88,1.656 6.048,2.448 9.648,2.448 3.528,0 6.696,-0.792 9.576,-2.448 2.88,-1.584 5.112,-3.888 6.768,-6.768 1.584,-2.88 2.448,-6.192 2.448,-9.864 0,-3.6 -0.864,-6.912 -2.448,-9.792 -1.656,-2.88 -3.888,-5.184 -6.768,-6.84 -2.88,-1.584 -6.048,-2.448 -9.576,-2.448 -3.6,0 -6.768,0.864 -9.648,2.448 -2.88,1.656 -5.112,3.96 -6.696,6.84 -1.656,2.88 -2.448,6.192 -2.448,9.792 0,3.672 0.792,6.984 2.448,9.864 1.584,2.88 3.816,5.184 6.696,6.768 z m 17.352,-2.808 c -2.304,1.368 -4.824,2.016 -7.704,2.016 -2.88,0 -5.472,-0.648 -7.776,-2.016 -2.304,-1.296 -4.104,-3.168 -5.4,-5.616 -1.296,-2.376 -1.944,-5.112 -1.944,-8.208 0,-3.024 0.648,-5.76 1.944,-8.208 1.296,-2.376 3.096,-4.248 5.4,-5.616 2.304,-1.296 4.896,-2.016 7.776,-2.016 2.88,0 5.4,0.72 7.704,2.016 2.304,1.368 4.104,3.24 5.4,5.616 1.296,2.448 2.016,5.184 2.016,8.208 0,3.096 -0.72,5.832 -2.016,8.208 -1.296,2.448 -3.096,4.32 -5.4,5.616 z" transform="translate(0 267.1017142857143) translate(237.50482142857152 100.7497142857143) scale(1.4285714285714286) translate(-362.80925 -82.128)"></path> 
   <path id="path410870" style="font-style: normal; font-weight: 300; font-size: 72px; line-height: 1; font-family: &quot;Montserrat Light Alt1&quot;; font-variant-ligatures: none; text-align: center; text-anchor: middle; fill: rgb(0, 97, 122);" d="m 440.342,69.6 h -36.144 v 12.96 h 3.6 v -9.648 h 28.296 L 414.638,120 h 4.032 l 21.672,-47.808 z" transform="translate(0 267.1017142857143) translate(318.0601785714286 82.85257142857142) scale(1.4285714285714286) translate(-404.198 -69.6)"></path> 
   <path id="path410872" style="font-style: normal; font-weight: 300; font-size: 72px; line-height: 1; font-family: &quot;Montserrat Light Alt1&quot;; font-variant-ligatures: none; text-align: center; text-anchor: middle; fill: rgb(97, 140, 159);" d="m 490.45963,98.256 c -1.87201,-2.16 -4.608,-3.528 -8.20801,-4.248 2.52001,-0.792 4.608,-2.232 6.12,-4.248 1.512,-1.944 2.30401,-4.32 2.30401,-7.272 0,-4.104 -1.584,-7.272 -4.608,-9.504 -3.024,-2.232 -7.27201,-3.384 -12.74401,-3.384 h -21.024 v 3.168 h 20.88 c 4.392,0 7.776,0.864 10.15201,2.592 2.37599,1.728 3.59999,4.176 3.59999,7.416 0,3.312 -1.224,5.832 -3.59999,7.56 -2.37601,1.728 -5.76001,2.52 -10.15201,2.52 h -20.88 v 3.168 h 22.464 c 4.824,0 8.56801,0.864 11.08801,2.52 2.51999,1.728 3.81599,4.32 3.81599,7.848 0,3.6 -1.296,6.192 -3.81599,7.92 -2.52,1.728 -6.19201,2.52 -11.08801,2.52 h -22.464 V 120 h 22.464 c 6.12,0 10.728,-1.152 13.896,-3.456 3.096,-2.304 4.68,-5.544 4.68,-9.864 0,-3.384 -1.00799,-6.192 -2.87999,-8.424 z" transform="translate(0 267.1017142857143) translate(408.20535 82.85257142857142) scale(1.4285714285714286) translate(-452.29962 -69.6)"></path> 
   <path id="path410874" style="font-style: normal; font-weight: 300; font-size: 72px; line-height: 1; font-family: &quot;Montserrat Light Alt1&quot;; font-variant-ligatures: none; text-align: center; text-anchor: middle; fill: rgb(97, 140, 159);" d="m 514.14425,84.36 c -2.448,1.44 -4.248,3.528 -5.4,6.264 v -8.208 h -3.456 V 120 h 3.6 v -19.584 c 0,-4.608 1.152,-8.28 3.528,-10.872 2.304,-2.592 5.616,-3.96 9.792,-3.96 l 0.864,0.072 v -3.528 c -3.528,0 -6.48,0.792 -8.928,2.232 z" transform="translate(0 267.1017142857143) translate(505.33196428571426 100.7497142857143) scale(1.4285714285714286) translate(-505.28825 -82.128)"></path> 
   <path id="path410876" style="font-style: normal; font-weight: 300; font-size: 72px; line-height: 1; font-family: &quot;Montserrat Light Alt1&quot;; font-variant-ligatures: none; text-align: center; text-anchor: middle; fill: rgb(97, 140, 159);" d="m 556.39138,85.728 c -2.52001,-2.376 -6.12,-3.6 -10.72801,-3.6 -2.88,0 -5.688,0.504 -8.28,1.44 -2.66399,0.936 -4.89599,2.232 -6.768,3.888 l 1.80001,2.592 c 1.58399,-1.44 3.45599,-2.592 5.76,-3.456 2.30399,-0.864 4.67999,-1.296 7.19999,-1.296 3.6,0 6.408,0.936 8.28001,2.736 1.87199,1.872 2.88,4.536 2.88,7.992 v 3.024 h -12.88801 c -4.89599,0 -8.49599,1.008 -10.728,2.952 -2.232,1.944 -3.31199,4.464 -3.31199,7.56 0,3.24 1.15199,5.832 3.59999,7.776 2.44801,2.016 5.76,2.952 9.936,2.952 3.168,0 5.976,-0.576 8.28,-1.8 2.30401,-1.224 4.032,-2.952 5.25601,-5.184 V 120 h 3.45599 V 96.168 c 0,-4.608 -1.29599,-8.064 -3.74399,-10.44 z m -4.82401,29.448 c -2.16,1.44 -4.82399,2.16 -7.92,2.16 -3.312,0 -5.90399,-0.648 -7.704,-2.088 -1.872,-1.44 -2.736,-3.384 -2.736,-5.832 0,-2.304 0.792,-4.176 2.44801,-5.544 1.65599,-1.296 4.31999,-2.016 8.064,-2.016 h 12.816 v 7.056 c -1.15201,2.736 -2.808,4.824 -4.96801,6.264 z" transform="translate(0 267.1017142857143) translate(561.5021499999999 100.7497142857143) scale(1.4285714285714286) translate(-529.60738 -82.128)"></path> 
   <path id="path410878" style="font-style: normal; font-weight: 300; font-size: 72px; line-height: 1; font-family: &quot;Montserrat Light Alt1&quot;; font-variant-ligatures: none; text-align: center; text-anchor: middle; fill: rgb(97, 140, 159);" d="m 604.55825,86.232 c -2.736,-2.736 -6.48,-4.104 -11.16,-4.104 -3.528,0 -6.552,0.792 -9.144,2.232 -2.592,1.512 -4.464,3.6 -5.76,6.192 v -8.136 h -3.456 V 120 h 3.6 V 99.984 c 0,-4.464 1.224,-7.992 3.816,-10.656 2.52,-2.592 5.976,-3.96 10.44,-3.96 3.816,0 6.768,1.152 8.928,3.312 2.16,2.232 3.24,5.472 3.24,9.648 V 120 h 3.6 V 98.04 c 0,-5.112 -1.368,-9.072 -4.104,-11.808 z" transform="translate(0 267.1017142857143) translate(647.8319642857141 100.7497142857143) scale(1.4285714285714286) translate(-575.03825 -82.128)"></path> 
   <path id="path410880" style="font-style: normal; font-weight: 300; font-size: 72px; line-height: 1; font-family: &quot;Montserrat Light Alt1&quot;; font-variant-ligatures: none; text-align: center; text-anchor: middle; fill: rgb(97, 140, 159);" d="m 657.1025,66.576 h -3.6 v 24.552 c -1.584,-2.808 -3.672,-5.04 -6.336,-6.624 -2.664,-1.584 -5.688,-2.376 -9,-2.376 -3.528,0 -6.696,0.864 -9.504,2.448 -2.88,1.584 -5.112,3.888 -6.696,6.768 -1.584,2.88 -2.376,6.192 -2.376,9.864 0,3.744 0.792,6.984 2.376,9.864 1.584,2.88 3.816,5.184 6.696,6.768 2.808,1.656 5.976,2.448 9.504,2.448 3.384,0 6.408,-0.792 9.144,-2.376 2.664,-1.584 4.752,-3.816 6.264,-6.768 V 120 h 3.528 z m -11.016,48.456 c -2.304,1.368 -4.824,2.016 -7.704,2.016 -2.88,0 -5.472,-0.648 -7.776,-2.016 -2.304,-1.296 -4.104,-3.168 -5.4,-5.616 -1.296,-2.376 -1.944,-5.112 -1.944,-8.208 0,-3.024 0.648,-5.76 1.944,-8.208 1.296,-2.376 3.096,-4.248 5.4,-5.616 2.304,-1.296 4.896,-2.016 7.776,-2.016 2.88,0 5.4,0.72 7.704,2.016 2.304,1.368 4.104,3.24 5.4,5.616 1.296,2.448 2.016,5.184 2.016,8.208 0,3.096 -0.72,5.832 -2.016,8.208 -1.296,2.448 -3.096,4.32 -5.4,5.616 z" transform="translate(0 267.1017142857143) translate(732.9066071428571 78.53257142857143) scale(1.4285714285714286) translate(-619.5905 -66.576)"></path> 
  </g> 
  <g id="tagline" style="font-style:normal;font-weight:400;font-size:32px;line-height:1;font-family:Montserrat;font-variant-ligatures:none;text-align:center;text-anchor:middle"></g> 
 </g> 
</svg>