<svg xmlns:dc="http://purl.org/dc/elements/1.1/" xmlns:cc="http://creativecommons.org/ns#" xmlns:rdf="http://www.w3.org/1999/02/22-rdf-syntax-ns#" xmlns:svg="http://www.w3.org/2000/svg" xmlns="http://www.w3.org/2000/svg" id="svg29551" viewbox="0 0 1024 768" height="768px" width="1024px" version="1.1"> <metadata id="metadata29557"> 
  <rdf:rdf> 
   <cc:work rdf:about=""> 
    <dc:format>
     image/svg+xml
    </dc:format> 
    <dc:type rdf:resource="http://purl.org/dc/dcmitype/StillImage"></dc:type> 
   </cc:work> 
  </rdf:rdf> 
 </metadata> <defs id="defs29555"></defs> <g id="logo-group"> 
  <g id="title" style="font-style:normal;font-weight:200;font-size:72px;line-height:1;font-family:Phenomena;font-variant-ligatures:none;text-align:center;text-anchor:middle" aria-label="o7Bold"> 
   <path id="path29559" style="font-style: normal; font-weight: 200; font-size: 72px; line-height: 1; font-family: Phenomena; font-variant-ligatures: none; text-align: center; text-anchor: middle; fill: rgb(50, 74, 84);" d="m 449.26719,120.504 c 6.408,0 10.224,-4.752 10.224,-10.944 V 94.44 c 0,-6.192 -3.816,-10.944 -10.224,-10.944 -6.408,0 -10.224,4.752 -10.224,10.944 v 15.12 c 0,6.192 3.816,10.944 10.224,10.944 z m 0,-1.296 c -5.544,0 -8.856,-4.248 -8.856,-9.648 V 94.44 c 0,-5.4 3.312,-9.648 8.856,-9.648 5.544,0 8.856,4.248 8.856,9.648 v 15.12 c 0,5.4 -3.312,9.648 -8.856,9.648 z" transform="translate(0 64.2071424286018) translate(252.00000000000006 279.3835786052897) scale(3.574776978601247) translate(-439.04319 -83.496)"></path> 
   <path id="path29561" style="font-style: normal; font-weight: 200; font-size: 72px; line-height: 1; font-family: Phenomena; font-variant-ligatures: none; text-align: center; text-anchor: middle; fill: rgb(50, 74, 84);" d="m 465.85531,69.96 v 0.648 c 0,0.216 0.144,0.36 0.36,0.36 h 18 l -12.168,48.6 c -0.072,0.288 0.144,0.432 0.36,0.432 h 0.72 c 0.216,0 0.288,-0.072 0.36,-0.288 l 12.24,-48.816 c 0.072,-0.36 0.072,-0.576 0.072,-0.864 0,-0.288 -0.216,-0.432 -0.432,-0.432 h -19.152 c -0.216,0 -0.36,0.144 -0.36,0.36 z" transform="translate(0 64.2071424286018) translate(347.84734932349414 229.70847771064678) scale(3.574776978601247) translate(-465.85531 -69.6)"></path> 
   <path id="path29563" style="font-style: normal; font-weight: 200; font-size: 72px; line-height: 1; font-family: Phenomena; font-variant-ligatures: none; text-align: center; text-anchor: middle; fill: rgb(50, 74, 84);" d="m 509.03056,93.936 c 3.528,-1.584 5.76,-5.328 5.76,-10.44 v -2.88 c 0,-6.912 -4.176,-11.52 -10.44,-11.52 -6.264,0 -10.44,4.608 -10.44,11.52 v 38.808 c 0,0.432 0.288,0.72 0.72,0.72 h 10.44 c 6.624,0 11.016,-4.464 11.016,-11.16 v -4.608 c 0,-5.184 -2.664,-9 -7.056,-10.44 z m -13.68,-13.32 c 0,-6.12 3.6,-10.152 9,-10.152 5.4,0 9,4.032 9,10.152 v 2.88 c 0,5.904 -3.312,9.864 -8.28,9.864 h -9.72 z m 19.296,28.368 c 0,5.904 -3.816,9.792 -9.576,9.792 h -9.72 V 94.728 h 9.72 c 5.76,0 9.576,3.888 9.576,9.648 z" transform="translate(0 64.2071424286018) translate(448.1386111523967 227.90679011343178) scale(3.574776978601247) translate(-493.91056 -69.096)"></path> 
   <path id="path29565" style="font-style: normal; font-weight: 200; font-size: 72px; line-height: 1; font-family: Phenomena; font-variant-ligatures: none; text-align: center; text-anchor: middle; fill: rgb(50, 74, 84);" d="m 533.36094,120.504 c 6.408,0 10.224,-4.752 10.224,-10.944 V 94.44 c 0,-6.192 -3.816,-10.944 -10.224,-10.944 -6.408,0 -10.224,4.752 -10.224,10.944 v 15.12 c 0,6.192 3.816,10.944 10.224,10.944 z m 0,-1.296 c -5.544,0 -8.856,-4.248 -8.856,-9.648 V 94.44 c 0,-5.4 3.312,-9.648 8.856,-9.648 5.544,0 8.856,4.248 8.856,9.648 v 15.12 c 0,5.4 -3.312,9.648 -8.856,9.648 z" transform="translate(0 64.2071424286018) translate(552.6164015442488 279.3835786052897) scale(3.574776978601247) translate(-523.13694 -83.496)"></path> 
   <path id="path29567" style="font-style: normal; font-weight: 200; font-size: 72px; line-height: 1; font-family: Phenomena; font-variant-ligatures: none; text-align: center; text-anchor: middle; fill: rgb(50, 74, 84);" d="m 553.47706,120 h 0.648 c 0.216,0 0.36,-0.144 0.36,-0.36 V 69.96 c 0,-0.216 -0.144,-0.36 -0.36,-0.36 h -0.648 c -0.216,0 -0.36,0.144 -0.36,0.36 v 49.68 c 0,0.216 0.144,0.36 0.36,0.36 z" transform="translate(0 64.2071424286018) translate(659.788644335952 229.70847771064678) scale(3.574776978601247) translate(-553.11706 -69.6)"></path> 
   <path id="path29569" style="font-style: normal; font-weight: 200; font-size: 72px; line-height: 1; font-family: Phenomena; font-variant-ligatures: none; text-align: center; text-anchor: middle; fill: rgb(50, 74, 84);" d="m 584.14681,69.6 h -0.648 c -0.216,0 -0.36,0.144 -0.36,0.36 v 19.512 c -1.512,-3.6 -5.112,-5.976 -8.856,-5.976 -5.688,0 -10.224,4.824 -10.224,10.8 v 15.408 c 0,5.976 4.536,10.8 10.224,10.8 5.688,0 10.224,-4.824 10.224,-10.8 V 69.96 c 0,-0.216 -0.144,-0.36 -0.36,-0.36 z m -1.008,40.104 c 0,5.256 -3.96,9.504 -8.856,9.504 -4.896,0 -8.856,-4.248 -8.856,-9.504 V 94.296 c 0,-5.256 3.96,-9.504 8.856,-9.504 4.896,0 8.856,4.248 8.856,9.504 z" transform="translate(0 64.2071424286018) translate(698.9029603415618 229.70847771064678) scale(3.574776978601247) translate(-564.05881 -69.6)"></path> 
  </g> 
  <g id="tagline" style="font-style:oblique;font-weight:300;font-size:32px;line-height:1;font-family:'Fira Sans Condensed';font-variant-ligatures:none;text-align:center;text-anchor:middle"></g> 
 </g> 
</svg>