<svg xmlns:dc="http://purl.org/dc/elements/1.1/" xmlns:cc="http://creativecommons.org/ns#" xmlns:rdf="http://www.w3.org/1999/02/22-rdf-syntax-ns#" xmlns:svg="http://www.w3.org/2000/svg" xmlns="http://www.w3.org/2000/svg" id="svg387328" viewbox="0 0 1024 768" height="768px" width="1024px" version="1.1"> <metadata id="metadata387334"> 
  <rdf:rdf> 
   <cc:work rdf:about=""> 
    <dc:format>
     image/svg+xml
    </dc:format> 
    <dc:type rdf:resource="http://purl.org/dc/dcmitype/StillImage"></dc:type> 
   </cc:work> 
  </rdf:rdf> 
 </metadata> <defs id="defs387332"></defs> <g id="logo-group"> 
  <g id="title" style="font-style:normal;font-weight:700;font-size:72px;line-height:1;font-family:'Comfortaa Bold Alt2';font-variant-ligatures:none;text-align:center;text-anchor:middle" aria-label="O7Championship"> 
   <path id="path387336" style="font-style: normal; font-weight: 700; font-size: 72px; line-height: 1; font-family: &quot;Comfortaa Bold Alt2&quot;; font-variant-ligatures: none; text-align: center; text-anchor: middle; fill: rgb(49, 54, 63);" d="m 220.20762,120.864 c 3.888,0 7.632,-0.792 11.232,-2.304 3.456,-1.44 6.552,-3.528 9.216,-6.192 2.664,-2.664 4.752,-5.688 6.192,-9.216 1.512,-3.528 2.304,-7.272 2.304,-11.232 0,-3.96 -0.792,-7.704 -2.304,-11.304 -1.44,-3.456 -3.528,-6.48 -6.192,-9.144 -2.664,-2.664 -5.76,-4.752 -9.216,-6.192 -3.6,-1.512 -7.344,-2.304 -11.232,-2.304 -3.96,0 -7.704,0.792 -11.304,2.304 -3.45599,1.44 -6.55199,3.528 -9.216,6.192 -2.664,2.664 -4.752,5.688 -6.192,9.144 -1.512,3.6 -2.232,7.344 -2.232,11.304 0,3.96 0.72,7.704 2.232,11.232 1.44,3.528 3.528,6.552 6.192,9.216 2.66401,2.664 5.76001,4.752 9.216,6.192 3.6,1.512 7.344,2.304 11.304,2.304 z m 0,-50.688 c 5.976,0 11.088,2.088 15.33601,6.336 4.24799,4.248 6.40799,9.432 6.40799,15.408 0,5.976 -2.16,11.088 -6.40799,15.336 -4.24801,4.248 -9.36001,6.408 -15.33601,6.408 -6.048,0 -11.16,-2.16 -15.408,-6.408 -4.248,-4.176 -6.336,-9.36 -6.336,-15.336 0,-5.976 2.088,-11.16 6.336,-15.408 4.248,-4.248 9.36,-6.336 15.408,-6.336 z" transform="translate(0 321.96999999999997) translate(247.04908999999998 34.327999999999996) scale(0.75) translate(-191.26362 -62.976)"></path> 
   <path id="path387338" style="font-style: normal; font-weight: 700; font-size: 72px; line-height: 1; font-family: &quot;Comfortaa Bold Alt2&quot;; font-variant-ligatures: none; text-align: center; text-anchor: middle; fill: rgb(49, 54, 63);" d="m 253.19037,70.104 c 0.72,0.72 1.584,1.008 2.664,1.008 h 21.888 l -20.664,42.912 c -0.432,0.864 -0.64799,1.656 -0.64799,2.304 0,1.008 0.35999,1.872 1.07999,2.592 0.72,0.72 1.512,1.08 2.52,1.08 0.64801,0 1.296,-0.144 1.944,-0.504 0.576,-0.36 1.08,-0.864 1.44,-1.512 l 23.04001,-48.6 c 0.28799,-0.72 0.50399,-1.368 0.50399,-1.944 0,-1.008 -0.35999,-1.872 -1.08,-2.592 -0.72,-0.72 -1.584,-1.08 -2.59199,-1.08 h -27.43201 c -1.08,0 -1.944,0.36 -2.664,1.08 -0.72,0.72 -1.008,1.584 -1.008,2.592 0,1.08 0.288,1.944 1.008,2.664 z" transform="translate(0 321.96999999999997) translate(296.48815249999996 34.92199999999999) scale(0.75) translate(-252.18237 -63.768)"></path> 
   <path id="path387340" style="font-style: normal; font-weight: 700; font-size: 72px; line-height: 1; font-family: &quot;Comfortaa Bold Alt2&quot;; font-variant-ligatures: none; text-align: center; text-anchor: middle; fill: rgb(124, 188, 209);" d="m 317.582,120.792 c 3.24,0 6.408,-0.504 9.432,-1.584 2.952,-1.008 5.688,-2.52 8.136,-4.392 0.792,-0.576 1.224,-1.368 1.368,-2.376 0.144,-1.008 -0.072,-1.872 -0.72,-2.664 -0.576,-0.792 -1.368,-1.224 -2.376,-1.368 -1.008,-0.144 -1.872,0.072 -2.664,0.72 -3.888,2.952 -8.28,4.464 -13.176,4.464 -6.048,0 -11.16,-2.16 -15.408,-6.408 -4.248,-4.248 -6.336,-9.36 -6.336,-15.336 0,-5.976 2.088,-11.16 6.336,-15.408 4.248,-4.248 9.36,-6.336 15.408,-6.336 4.968,0 9.432,1.512 13.32,4.608 0.792,0.648 1.728,0.864 2.664,0.72 1.008,-0.072 1.8,-0.576 2.448,-1.368 0.576,-0.72 0.864,-1.656 0.72,-2.664 -0.144,-0.936 -0.576,-1.728 -1.368,-2.376 -2.448,-1.944 -5.256,-3.456 -8.208,-4.464 -3.096,-1.08 -6.336,-1.656 -9.576,-1.656 -3.96,0 -7.704,0.792 -11.304,2.304 -3.456,1.44 -6.552,3.528 -9.216,6.192 -2.664,2.664 -4.752,5.688 -6.192,9.144 -1.512,3.6 -2.232,7.344 -2.232,11.304 0,3.96 0.72,7.704 2.232,11.232 1.44,3.528 3.528,6.552 6.192,9.216 2.664,2.664 5.76,4.752 9.216,6.192 3.6,1.512 7.344,2.304 11.304,2.304 z" transform="translate(0 321.96999999999997) translate(327.5798749999999 34.273999999999994) scale(0.75) translate(-288.638 -62.904)"></path> 
   <path id="path387342" style="font-style: normal; font-weight: 700; font-size: 72px; line-height: 1; font-family: &quot;Comfortaa Bold Alt2&quot;; font-variant-ligatures: none; text-align: center; text-anchor: middle; fill: rgb(124, 188, 209);" d="m 375.71075,82.416 c -2.664,-1.44 -5.616,-2.16 -8.928,-2.16 -2.448,0 -4.68,0.432 -6.768,1.296 -2.16,0.864 -3.96,2.016 -5.472,3.528 V 67.44 c 0,-1.08 -0.36,-1.944 -1.008,-2.664 -0.72,-0.648 -1.584,-1.008 -2.664,-1.008 -1.08,0 -1.944,0.36 -2.664,1.008 -0.72,0.72 -1.008,1.584 -1.008,2.664 v 48.96 c 0,1.08 0.288,1.944 1.008,2.664 0.72,0.72 1.584,1.008 2.664,1.008 1.08,0 1.944,-0.288 2.664,-1.008 0.648,-0.72 1.008,-1.584 1.008,-2.664 V 96.096 c 0,-1.728 0.432,-3.24 1.368,-4.68 0.936,-1.368 2.232,-2.448 3.888,-3.312 1.656,-0.792 3.528,-1.224 5.544,-1.224 3.456,0 6.192,1.008 8.28,3.024 2.088,2.016 3.168,4.896 3.168,8.784 V 116.4 c 0,1.08 0.288,1.944 1.008,2.664 0.72,0.72 1.584,1.008 2.664,1.008 1.008,0 1.872,-0.288 2.592,-1.008 0.72,-0.72 1.08,-1.584 1.08,-2.664 V 98.688 c 0,-3.888 -0.792,-7.2 -2.232,-9.936 -1.512,-2.736 -3.6,-4.896 -6.192,-6.336 z" transform="translate(0 321.96999999999997) translate(375.2504374999999 34.92199999999999) scale(0.75) translate(-347.19875 -63.768)"></path> 
   <path id="path387344" style="font-style: normal; font-weight: 700; font-size: 72px; line-height: 1; font-family: &quot;Comfortaa Bold Alt2&quot;; font-variant-ligatures: none; text-align: center; text-anchor: middle; fill: rgb(124, 188, 209);" d="m 428.2415,86.232 c -3.888,-3.888 -8.568,-5.904 -14.112,-5.904 -5.472,0 -10.224,2.016 -14.112,5.904 -3.888,3.888 -5.832,8.568 -5.832,14.112 0,5.544 1.944,10.224 5.832,14.112 3.888,3.888 8.64,5.832 14.112,5.832 4.968,0 9.36,-1.584 13.104,-4.824 v 1.368 c 0,1.008 0.288,1.8 1.008,2.448 0.648,0.72 1.44,1.008 2.448,1.008 0.936,0 1.728,-0.288 2.448,-1.008 0.648,-0.648 1.008,-1.44 1.008,-2.448 v -16.488 c 0,-5.544 -1.944,-10.224 -5.904,-14.112 z m -14.112,27.144 c -3.6,0 -6.696,-1.224 -9.216,-3.816 -2.592,-2.52 -3.816,-5.616 -3.816,-9.216 0,-3.6 1.224,-6.696 3.816,-9.216 2.52,-2.592 5.616,-3.888 9.216,-3.888 3.6,0 6.696,1.296 9.216,3.888 2.592,2.52 3.888,5.616 3.888,9.216 0,3.6 -1.296,6.696 -3.888,9.216 -2.52,2.592 -5.616,3.816 -9.216,3.816 z" transform="translate(0 321.96999999999997) translate(414.2404999999999 47.342000000000006) scale(0.75) translate(-394.1855 -80.328)"></path> 
   <path id="path387346" style="font-style: normal; font-weight: 700; font-size: 72px; line-height: 1; font-family: &quot;Comfortaa Bold Alt2&quot;; font-variant-ligatures: none; text-align: center; text-anchor: middle; fill: rgb(124, 188, 209);" d="m 495.76175,83.856 c -3.024,-3.024 -6.696,-4.536 -11.016,-4.536 -4.32,0 -7.992,1.512 -11.016,4.536 -0.36,0.36 -0.648,0.72 -1.008,1.08 -0.288,-0.36 -0.648,-0.72 -0.936,-1.08 -3.096,-3.024 -6.768,-4.536 -11.088,-4.536 -4.32,0 -7.992,1.512 -11.016,4.536 -3.024,3.096 -4.536,6.768 -4.536,11.088 v 21.6 c 0,1.008 0.288,1.8 1.008,2.52 0.72,0.72 1.584,1.08 2.592,1.08 0.936,0 1.8,-0.36 2.52,-1.08 0.72,-0.72 1.08,-1.512 1.08,-2.52 v -21.6 c 0,-2.304 0.792,-4.32 2.448,-5.976 1.656,-1.656 3.6,-2.448 5.904,-2.448 2.376,0 4.32,0.792 5.976,2.448 1.656,1.656 2.448,3.672 2.448,5.976 v 21.6 c 0,1.008 0.36,1.8 1.08,2.52 0.72,0.72 1.512,1.08 2.52,1.08 1.008,0 1.872,-0.36 2.52,-1.08 0.72,-0.72 1.08,-1.512 1.08,-2.52 v -21.6 c 0,-1.512 0.36,-2.952 1.152,-4.248 0.72,-1.296 1.728,-2.304 3.024,-3.024 1.296,-0.792 2.736,-1.152 4.248,-1.152 2.304,0 4.32,0.792 5.904,2.448 1.656,1.656 2.52,3.672 2.52,5.976 v 21.6 c 0,1.008 0.288,1.8 1.008,2.52 0.72,0.72 1.584,1.08 2.592,1.08 0.936,0 1.8,-0.36 2.52,-1.08 0.72,-0.72 1.08,-1.512 1.08,-2.52 v -21.6 c 0,-4.32 -1.584,-7.992 -4.608,-11.088 z" transform="translate(0 321.96999999999997) translate(456.21068749999995 46.58599999999999) scale(0.75) translate(-445.14575 -79.32)"></path> 
   <path id="path387348" style="font-style: normal; font-weight: 700; font-size: 72px; line-height: 1; font-family: &quot;Comfortaa Bold Alt2&quot;; font-variant-ligatures: none; text-align: center; text-anchor: middle; fill: rgb(124, 188, 209);" d="m 546.62975,86.232 c -3.888,-3.888 -8.568,-5.832 -14.112,-5.832 -5.544,0 -10.224,1.944 -14.112,5.832 -3.888,3.888 -5.832,8.64 -5.832,14.112 v 33.12 c 0,1.008 0.288,1.8 1.008,2.448 0.648,0.72 1.44,1.008 2.448,1.008 0.936,0 1.728,-0.288 2.376,-1.008 0.72,-0.648 1.08,-1.44 1.08,-2.448 v -18 c 3.672,3.24 8.064,4.896 13.032,4.896 5.544,0 10.224,-1.944 14.112,-5.832 3.888,-3.96 5.904,-8.64 5.904,-14.184 0,-5.472 -2.016,-10.224 -5.904,-14.112 z m -14.112,27.216 c -3.6,0 -6.696,-1.296 -9.216,-3.816 -2.592,-2.592 -3.816,-5.688 -3.816,-9.288 0,-2.304 0.576,-4.536 1.728,-6.552 1.152,-2.016 2.736,-3.6 4.752,-4.752 2.016,-1.152 4.176,-1.728 6.552,-1.728 3.6,0 6.696,1.296 9.216,3.816 2.592,2.592 3.888,5.616 3.888,9.216 0,3.6 -1.296,6.696 -3.888,9.288 -2.52,2.52 -5.616,3.816 -9.216,3.816 z" transform="translate(0 321.96999999999997) translate(510.5316875 47.39600000000001) scale(0.75) translate(-512.57375 -80.4)"></path> 
   <path id="path387350" style="font-style: normal; font-weight: 700; font-size: 72px; line-height: 1; font-family: &quot;Comfortaa Bold Alt2&quot;; font-variant-ligatures: none; text-align: center; text-anchor: middle; fill: rgb(124, 188, 209);" d="m 564.92675,81.624 c -0.72,0.72 -1.008,1.584 -1.008,2.664 v 32.04 c 0,1.08 0.288,1.944 1.008,2.664 0.72,0.72 1.584,1.008 2.664,1.008 1.08,0 1.944,-0.288 2.664,-1.008 0.648,-0.72 1.008,-1.584 1.008,-2.664 v -32.04 c 0,-1.08 -0.36,-1.944 -1.008,-2.664 -0.72,-0.648 -1.584,-1.008 -2.664,-1.008 -1.08,0 -1.944,0.36 -2.664,1.008 z m 5.976,-15.48 c -0.936,-0.936 -2.016,-1.44 -3.312,-1.44 -1.296,0 -2.448,0.504 -3.384,1.44 -0.936,0.936 -1.368,2.016 -1.368,3.312 0,1.296 0.432,2.448 1.368,3.384 0.936,0.936 2.088,1.368 3.384,1.368 1.296,0 2.376,-0.432 3.312,-1.368 0.936,-0.936 1.44,-2.088 1.44,-3.384 0,-1.296 -0.504,-2.376 -1.44,-3.312 z" transform="translate(0 321.96999999999997) translate(551.9804375 35.62399999999999) scale(0.75) translate(-562.83875 -64.704)"></path> 
   <path id="path387352" style="font-style: normal; font-weight: 700; font-size: 72px; line-height: 1; font-family: &quot;Comfortaa Bold Alt2&quot;; font-variant-ligatures: none; text-align: center; text-anchor: middle; fill: rgb(124, 188, 209);" d="m 602.77962,120.288 c 5.544,0 10.22401,-1.944 14.112,-5.832 3.888,-3.888 5.904,-8.568 5.904,-14.112 0,-5.544 -2.016,-10.224 -5.904,-14.112 -3.88799,-3.888 -8.568,-5.904 -14.112,-5.904 -5.54399,0 -10.224,2.016 -14.11199,5.904 -3.88801,3.888 -5.832,8.568 -5.832,14.112 0,5.544 1.94399,10.224 5.832,14.112 3.88799,3.888 8.568,5.832 14.11199,5.832 z m 0,-33.048 c 3.60001,0 6.69601,1.296 9.28801,3.816 2.51999,2.592 3.816,5.688 3.816,9.288 0,3.6 -1.29601,6.696 -3.816,9.216 -2.592,2.592 -5.688,3.816 -9.28801,3.816 -3.6,0 -6.696,-1.224 -9.216,-3.816 -2.59199,-2.52 -3.816,-5.616 -3.816,-9.216 0,-3.6 1.22401,-6.696 3.816,-9.288 2.52,-2.52 5.616,-3.816 9.216,-3.816 z" transform="translate(0 321.96999999999997) translate(570.7280975000001 47.342000000000006) scale(0.75) translate(-582.83563 -80.328)"></path> 
   <path id="path387354" style="font-style: normal; font-weight: 700; font-size: 72px; line-height: 1; font-family: &quot;Comfortaa Bold Alt2&quot;; font-variant-ligatures: none; text-align: center; text-anchor: middle; fill: rgb(124, 188, 209);" d="m 666.84388,120.216 c 1.008,0 1.87199,-0.36 2.59199,-1.08 0.72001,-0.72 1.00801,-1.584 1.00801,-2.592 V 98.04 c 0,-5.04 -1.80001,-9.36 -5.32801,-12.96 -3.59999,-3.6 -7.992,-5.4 -13.03199,-5.4 -5.11201,0 -9.432,1.8 -13.03201,5.4 -3.6,3.6 -5.39999,7.92 -5.39999,12.96 v 18.504 c 0,1.008 0.36,1.872 1.07999,2.592 0.72,0.72 1.584,1.008 2.52001,1.008 1.00799,0 1.87199,-0.288 2.592,-1.008 0.72,-0.72 1.00799,-1.584 1.00799,-2.592 V 98.04 c 0,-3.024 1.152,-5.688 3.312,-7.848 2.16001,-2.232 4.82401,-3.312 7.92001,-3.312 3.096,0 5.688,1.08 7.91999,3.312 2.16,2.16 3.24,4.824 3.24,7.848 v 18.576 c 0,0.936 0.36001,1.8 1.08001,2.52 0.71999,0.72 1.58399,1.08 2.52,1.08 z" transform="translate(0 321.96999999999997) translate(612.5902850000001 46.856) scale(0.75) translate(-633.65188 -79.68)"></path> 
   <path id="path387356" style="font-style: normal; font-weight: 700; font-size: 72px; line-height: 1; font-family: &quot;Comfortaa Bold Alt2&quot;; font-variant-ligatures: none; text-align: center; text-anchor: middle; fill: rgb(124, 188, 209);" d="m 704.906,81.84 c -2.448,-1.008 -5.256,-1.512 -8.352,-1.512 -2.592,0 -4.968,0.432 -7.2,1.224 -2.304,0.864 -4.104,2.088 -5.472,3.672 -1.44,1.656 -2.088,3.672 -2.088,5.976 0,5.832 4.608,9.648 13.824,11.376 3.528,0.72 6.048,1.512 7.56,2.52 1.44,1.008 2.232,2.232 2.232,3.672 0,1.584 -0.792,2.808 -2.304,3.672 -1.512,0.936 -3.6,1.368 -6.336,1.368 -2.088,0 -4.032,-0.36 -5.832,-1.08 -1.872,-0.72 -3.24,-1.656 -4.104,-2.664 -0.864,-0.864 -1.8,-1.296 -2.736,-1.296 -0.792,0 -1.656,0.36 -2.52,1.008 -1.008,0.72 -1.44,1.656 -1.44,2.808 0,0.864 0.288,1.656 0.936,2.232 1.584,1.656 3.888,2.952 6.768,3.96 2.88,1.008 5.904,1.512 9.216,1.512 3.24,0 6.048,-0.504 8.352,-1.512 2.304,-1.008 4.104,-2.448 5.328,-4.248 1.152,-1.8 1.8,-3.816 1.8,-6.048 0,-2.952 -1.152,-5.4 -3.312,-7.272 -2.16,-1.872 -5.904,-3.312 -11.088,-4.392 -2.592,-0.504 -4.536,-1.008 -5.832,-1.584 -1.368,-0.576 -2.304,-1.152 -2.736,-1.8 -0.504,-0.648 -0.72,-1.44 -0.72,-2.448 0,-1.296 0.648,-2.376 2.088,-3.096 1.44,-0.72 3.24,-1.152 5.472,-1.152 1.872,0 3.528,0.288 4.896,0.72 1.296,0.432 2.592,1.224 3.816,2.304 1.008,0.936 2.088,1.368 3.384,1.368 0.792,0 1.44,-0.144 2.016,-0.576 0.792,-0.648 1.224,-1.368 1.224,-2.232 0,-0.72 -0.36,-1.512 -0.936,-2.304 -1.44,-1.728 -3.456,-3.168 -5.904,-4.176 z" transform="translate(0 321.96999999999997) translate(651.2048750000001 47.342000000000006) scale(0.75) translate(-680.138 -80.328)"></path> 
   <path id="path387358" style="font-style: normal; font-weight: 700; font-size: 72px; line-height: 1; font-family: &quot;Comfortaa Bold Alt2&quot;; font-variant-ligatures: none; text-align: center; text-anchor: middle; fill: rgb(124, 188, 209);" d="m 750.33575,82.416 c -2.664,-1.44 -5.616,-2.16 -8.928,-2.16 -2.448,0 -4.68,0.432 -6.768,1.296 -2.16,0.864 -3.96,2.016 -5.472,3.528 V 67.44 c 0,-1.08 -0.36,-1.944 -1.008,-2.664 -0.72,-0.648 -1.584,-1.008 -2.664,-1.008 -1.08,0 -1.944,0.36 -2.664,1.008 -0.72,0.72 -1.008,1.584 -1.008,2.664 v 48.96 c 0,1.08 0.288,1.944 1.008,2.664 0.72,0.72 1.584,1.008 2.664,1.008 1.08,0 1.944,-0.288 2.664,-1.008 0.648,-0.72 1.008,-1.584 1.008,-2.664 V 96.096 c 0,-1.728 0.432,-3.24 1.368,-4.68 0.936,-1.368 2.232,-2.448 3.888,-3.312 1.656,-0.792 3.528,-1.224 5.544,-1.224 3.456,0 6.192,1.008 8.28,3.024 2.088,2.016 3.168,4.896 3.168,8.784 V 116.4 c 0,1.08 0.288,1.944 1.008,2.664 0.72,0.72 1.584,1.008 2.664,1.008 1.008,0 1.872,-0.288 2.592,-1.008 0.72,-0.72 1.08,-1.584 1.08,-2.664 V 98.688 c 0,-3.888 -0.792,-7.2 -2.232,-9.936 -1.512,-2.736 -3.6,-4.896 -6.192,-6.336 z" transform="translate(0 321.96999999999997) translate(686.2191875000001 34.92199999999999) scale(0.75) translate(-721.82375 -63.768)"></path> 
   <path id="path387360" style="font-style: normal; font-weight: 700; font-size: 72px; line-height: 1; font-family: &quot;Comfortaa Bold Alt2&quot;; font-variant-ligatures: none; text-align: center; text-anchor: middle; fill: rgb(124, 188, 209);" d="m 772.7705,81.624 c -0.72,0.72 -1.008,1.584 -1.008,2.664 v 32.04 c 0,1.08 0.288,1.944 1.008,2.664 0.72,0.72 1.584,1.008 2.664,1.008 1.08,0 1.944,-0.288 2.664,-1.008 0.648,-0.72 1.008,-1.584 1.008,-2.664 v -32.04 c 0,-1.08 -0.36,-1.944 -1.008,-2.664 -0.72,-0.648 -1.584,-1.008 -2.664,-1.008 -1.08,0 -1.944,0.36 -2.664,1.008 z m 5.976,-15.48 c -0.936,-0.936 -2.016,-1.44 -3.312,-1.44 -1.296,0 -2.448,0.504 -3.384,1.44 -0.936,0.936 -1.368,2.016 -1.368,3.312 0,1.296 0.432,2.448 1.368,3.384 0.936,0.936 2.088,1.368 3.384,1.368 1.296,0 2.376,-0.432 3.312,-1.368 0.936,-0.936 1.44,-2.088 1.44,-3.384 0,-1.296 -0.504,-2.376 -1.44,-3.312 z" transform="translate(0 321.96999999999997) translate(726.6132500000001 35.62399999999999) scale(0.75) translate(-770.6825 -64.704)"></path> 
   <path id="path387362" style="font-style: normal; font-weight: 700; font-size: 72px; line-height: 1; font-family: &quot;Comfortaa Bold Alt2&quot;; font-variant-ligatures: none; text-align: center; text-anchor: middle; fill: rgb(124, 188, 209);" d="m 826.89538,86.232 c -3.888,-3.888 -8.56801,-5.832 -14.11201,-5.832 -5.544,0 -10.22399,1.944 -14.112,5.832 -3.888,3.888 -5.83199,8.64 -5.83199,14.112 v 33.12 c 0,1.008 0.288,1.8 1.008,2.448 0.64799,0.72 1.43999,1.008 2.448,1.008 0.93599,0 1.72799,-0.288 2.37599,-1.008 0.72001,-0.648 1.08001,-1.44 1.08001,-2.448 v -18 c 3.67199,3.24 8.064,4.896 13.03199,4.896 5.544,0 10.22401,-1.944 14.11201,-5.832 3.88799,-3.96 5.904,-8.64 5.904,-14.184 0,-5.472 -2.01601,-10.224 -5.904,-14.112 z m -14.11201,27.216 c -3.6,0 -6.696,-1.296 -9.216,-3.816 -2.592,-2.592 -3.81599,-5.688 -3.81599,-9.288 0,-2.304 0.57599,-4.536 1.72799,-6.552 1.15201,-2.016 2.736,-3.6 4.752,-4.752 2.01601,-1.152 4.176,-1.728 6.552,-1.728 3.6,0 6.696,1.296 9.216,3.816 2.592,2.592 3.88801,5.616 3.88801,9.216 0,3.6 -1.29601,6.696 -3.88801,9.288 -2.52,2.52 -5.616,3.816 -9.216,3.816 z" transform="translate(0 321.96999999999997) translate(746.9809100000001 47.39600000000001) scale(0.75) translate(-792.83938 -80.4)"></path> 
  </g> 
  <g id="tagline" style="font-style:normal;font-weight:500;font-size:32px;line-height:1;font-family:Raleway;font-variant-ligatures:none;text-align:center;text-anchor:middle"></g> 
 </g> 
</svg>