<svg xmlns:dc="http://purl.org/dc/elements/1.1/" xmlns:cc="http://creativecommons.org/ns#" xmlns:rdf="http://www.w3.org/1999/02/22-rdf-syntax-ns#" xmlns:svg="http://www.w3.org/2000/svg" xmlns="http://www.w3.org/2000/svg" id="svg406362" viewbox="0 0 1024 768" height="768px" width="1024px" version="1.1"> <metadata id="metadata406368"> 
  <rdf:rdf> 
   <cc:work rdf:about=""> 
    <dc:format>
     image/svg+xml
    </dc:format> 
    <dc:type rdf:resource="http://purl.org/dc/dcmitype/StillImage"></dc:type> 
   </cc:work> 
  </rdf:rdf> 
 </metadata> <defs id="defs406366"></defs> <g id="logo-group"> 
  <g id="title" style="font-style:normal;font-weight:700;font-size:72px;line-height:1;font-family:'Comfortaa Bold Alt2';font-variant-ligatures:none;text-align:center;text-anchor:middle" aria-label="o7Clips"> 
   <path id="path406370" style="font-style: normal; font-weight: 700; font-size: 72px; line-height: 1; font-family: &quot;Comfortaa Bold Alt2&quot;; font-variant-ligatures: none; text-align: center; text-anchor: middle; fill: rgb(0, 97, 122);" d="m 402.03744,120.288 c 5.544,0 10.224,-1.944 14.112,-5.832 3.888,-3.888 5.904,-8.568 5.904,-14.112 0,-5.544 -2.016,-10.224 -5.904,-14.112 -3.888,-3.888 -8.568,-5.904 -14.112,-5.904 -5.544,0 -10.224,2.016 -14.112,5.904 -3.888,3.888 -5.832,8.568 -5.832,14.112 0,5.544 1.944,10.224 5.832,14.112 3.888,3.888 8.568,5.832 14.112,5.832 z m 0,-33.048 c 3.6,0 6.696,1.296 9.288,3.816 2.52,2.592 3.816,5.688 3.816,9.288 0,3.6 -1.296,6.696 -3.816,9.216 -2.592,2.592 -5.688,3.816 -9.288,3.816 -3.6,0 -6.696,-1.224 -9.216,-3.816 -2.592,-2.52 -3.816,-5.616 -3.816,-9.216 0,-3.6 1.224,-6.696 3.816,-9.288 2.52,-2.52 5.616,-3.816 9.216,-3.816 z" transform="translate(0 210.90632995427538) translate(251.99999999999994 136.63580342134046) scale(1.8616149215882436) translate(-382.09344 -80.328)"></path> 
   <path id="path406372" style="font-style: normal; font-weight: 700; font-size: 72px; line-height: 1; font-family: &quot;Comfortaa Bold Alt2&quot;; font-variant-ligatures: none; text-align: center; text-anchor: middle; fill: rgb(0, 97, 122);" d="m 425.52631,70.104 c 0.72,0.72 1.584,1.008 2.664,1.008 h 21.888 l -20.664,42.912 c -0.432,0.864 -0.648,1.656 -0.648,2.304 0,1.008 0.36,1.872 1.08,2.592 0.72,0.72 1.512,1.08 2.52,1.08 0.648,0 1.296,-0.144 1.944,-0.504 0.576,-0.36 1.08,-0.864 1.44,-1.512 l 23.04,-48.6 c 0.288,-0.72 0.504,-1.368 0.504,-1.944 0,-1.008 -0.36,-1.872 -1.08,-2.592 -0.72,-0.72 -1.584,-1.08 -2.592,-1.08 h -27.432 c -1.08,0 -1.944,0.36 -2.664,1.08 -0.72,0.72 -1.008,1.584 -1.008,2.592 0,1.08 0.288,1.944 1.008,2.664 z" transform="translate(0 210.90632995427538) translate(336.5636158032062 105.80746031983912) scale(1.8616149215882436) translate(-424.51831 -63.768)"></path> 
   <path id="path406374" style="font-style: normal; font-weight: 700; font-size: 72px; line-height: 1; font-family: &quot;Comfortaa Bold Alt2&quot;; font-variant-ligatures: none; text-align: center; text-anchor: middle; fill: rgb(184, 223, 202);" d="m 489.91794,120.792 c 3.24,0 6.408,-0.504 9.432,-1.584 2.952,-1.008 5.688,-2.52 8.136,-4.392 0.792,-0.576 1.224,-1.368 1.368,-2.376 0.144,-1.008 -0.072,-1.872 -0.72,-2.664 -0.576,-0.792 -1.368,-1.224 -2.376,-1.368 -1.008,-0.144 -1.872,0.072 -2.664,0.72 -3.888,2.952 -8.28,4.464 -13.176,4.464 -6.048,0 -11.16,-2.16 -15.408,-6.408 -4.248,-4.248 -6.336,-9.36 -6.336,-15.336 0,-5.976 2.088,-11.16 6.336,-15.408 4.248,-4.248 9.36,-6.336 15.408,-6.336 4.968,0 9.432,1.512 13.32,4.608 0.792,0.648 1.728,0.864 2.664,0.72 1.008,-0.072 1.8,-0.576 2.448,-1.368 0.576,-0.72 0.864,-1.656 0.72,-2.664 -0.144,-0.936 -0.576,-1.728 -1.368,-2.376 -2.448,-1.944 -5.256,-3.456 -8.208,-4.464 -3.096,-1.08 -6.336,-1.656 -9.576,-1.656 -3.96,0 -7.704,0.792 -11.304,2.304 -3.456,1.44 -6.552,3.528 -9.216,6.192 -2.664,2.664 -4.752,5.688 -6.192,9.144 -1.512,3.6 -2.232,7.344 -2.232,11.304 0,3.96 0.72,7.704 2.232,11.232 1.44,3.528 3.528,6.552 6.192,9.216 2.664,2.664 5.76,4.752 9.216,6.192 3.6,1.512 7.344,2.304 11.304,2.304 z" transform="translate(0 210.90632995427538) translate(410.014805351871 104.19902502758688) scale(1.8616149215882436) translate(-460.97394 -62.904)"></path> 
   <path id="path406376" style="font-style: normal; font-weight: 700; font-size: 72px; line-height: 1; font-family: &quot;Comfortaa Bold Alt2&quot;; font-variant-ligatures: none; text-align: center; text-anchor: middle; fill: rgb(184, 223, 202);" d="m 519.10269,64.776 c -0.72,0.72 -1.008,1.584 -1.008,2.592 v 39.312 c 0,2.592 0.432,4.896 1.368,6.912 0.864,2.016 2.16,3.6 3.816,4.752 1.656,1.152 3.528,1.656 5.616,1.656 h 0.144 c 1.44,0 2.592,-0.288 3.528,-1.008 0.864,-0.648 1.368,-1.512 1.368,-2.592 0,-1.008 -0.36,-1.872 -0.936,-2.592 -0.576,-0.648 -1.368,-1.008 -2.304,-1.008 h -1.8 c -1.08,0 -1.944,-0.576 -2.592,-1.728 -0.72,-1.152 -1.008,-2.592 -1.008,-4.392 V 67.368 c 0,-1.008 -0.36,-1.872 -1.008,-2.592 -0.72,-0.648 -1.584,-1.008 -2.592,-1.008 -1.08,0 -1.944,0.36 -2.592,1.008 z" transform="translate(0 210.90632995427538) translate(521.9364906489474 105.80746031983912) scale(1.8616149215882436) translate(-518.09469 -63.768)"></path> 
   <path id="path406378" style="font-style: normal; font-weight: 700; font-size: 72px; line-height: 1; font-family: &quot;Comfortaa Bold Alt2&quot;; font-variant-ligatures: none; text-align: center; text-anchor: middle; fill: rgb(184, 223, 202);" d="m 542.91894,81.624 c -0.72,0.72 -1.008,1.584 -1.008,2.664 v 32.04 c 0,1.08 0.288,1.944 1.008,2.664 0.72,0.72 1.584,1.008 2.664,1.008 1.08,0 1.944,-0.288 2.664,-1.008 0.648,-0.72 1.008,-1.584 1.008,-2.664 v -32.04 c 0,-1.08 -0.36,-1.944 -1.008,-2.664 -0.72,-0.648 -1.584,-1.008 -2.664,-1.008 -1.08,0 -1.944,0.36 -2.664,1.008 z m 5.976,-15.48 c -0.936,-0.936 -2.016,-1.44 -3.312,-1.44 -1.296,0 -2.448,0.504 -3.384,1.44 -0.936,0.936 -1.368,2.016 -1.368,3.312 0,1.296 0.432,2.448 1.368,3.384 0.936,0.936 2.088,1.368 3.384,1.368 1.296,0 2.376,-0.432 3.312,-1.368 0.936,-0.936 1.44,-2.088 1.44,-3.384 0,-1.296 -0.504,-2.376 -1.44,-3.312 z" transform="translate(0 210.90632995427538) translate(569.8474776746729 107.5499318864457) scale(1.8616149215882436) translate(-540.83094 -64.704)"></path> 
   <path id="path406380" style="font-style: normal; font-weight: 700; font-size: 72px; line-height: 1; font-family: &quot;Comfortaa Bold Alt2&quot;; font-variant-ligatures: none; text-align: center; text-anchor: middle; fill: rgb(184, 223, 202);" d="m 597.04381,86.232 c -3.888,-3.888 -8.568,-5.832 -14.112,-5.832 -5.544,0 -10.224,1.944 -14.112,5.832 -3.888,3.888 -5.832,8.64 -5.832,14.112 v 33.12 c 0,1.008 0.288,1.8 1.008,2.448 0.648,0.72 1.44,1.008 2.448,1.008 0.936,0 1.728,-0.288 2.376,-1.008 0.72,-0.648 1.08,-1.44 1.08,-2.448 v -18 c 3.672,3.24 8.064,4.896 13.032,4.896 5.544,0 10.224,-1.944 14.112,-5.832 3.888,-3.96 5.904,-8.64 5.904,-14.184 0,-5.472 -2.016,-10.224 -5.904,-14.112 z m -14.112,27.216 c -3.6,0 -6.696,-1.296 -9.216,-3.816 -2.592,-2.592 -3.816,-5.688 -3.816,-9.288 0,-2.304 0.576,-4.536 1.728,-6.552 1.152,-2.016 2.736,-3.6 4.752,-4.752 2.016,-1.152 4.176,-1.728 6.552,-1.728 3.6,0 6.696,1.296 9.216,3.816 2.592,2.592 3.888,5.616 3.888,9.216 0,3.6 -1.296,6.696 -3.888,9.288 -2.52,2.52 -5.616,3.816 -9.216,3.816 z" transform="translate(0 210.90632995427538) translate(616.6798822471283 136.7698396956948) scale(1.8616149215882436) translate(-562.98781 -80.4)"></path> 
   <path id="path406382" style="font-style: normal; font-weight: 700; font-size: 72px; line-height: 1; font-family: &quot;Comfortaa Bold Alt2&quot;; font-variant-ligatures: none; text-align: center; text-anchor: middle; fill: rgb(184, 223, 202);" d="m 635.78881,81.84 c -2.448,-1.008 -5.256,-1.512 -8.352,-1.512 -2.592,0 -4.968,0.432 -7.2,1.224 -2.304,0.864 -4.104,2.088 -5.472,3.672 -1.44,1.656 -2.088,3.672 -2.088,5.976 0,5.832 4.608,9.648 13.824,11.376 3.528,0.72 6.048,1.512 7.56,2.52 1.44,1.008 2.232,2.232 2.232,3.672 0,1.584 -0.792,2.808 -2.304,3.672 -1.512,0.936 -3.6,1.368 -6.336,1.368 -2.088,0 -4.032,-0.36 -5.832,-1.08 -1.872,-0.72 -3.24,-1.656 -4.104,-2.664 -0.864,-0.864 -1.8,-1.296 -2.736,-1.296 -0.792,0 -1.656,0.36 -2.52,1.008 -1.008,0.72 -1.44,1.656 -1.44,2.808 0,0.864 0.288,1.656 0.936,2.232 1.584,1.656 3.888,2.952 6.768,3.96 2.88,1.008 5.904,1.512 9.216,1.512 3.24,0 6.048,-0.504 8.352,-1.512 2.304,-1.008 4.104,-2.448 5.328,-4.248 1.152,-1.8 1.8,-3.816 1.8,-6.048 0,-2.952 -1.152,-5.4 -3.312,-7.272 -2.16,-1.872 -5.904,-3.312 -11.088,-4.392 -2.592,-0.504 -4.536,-1.008 -5.832,-1.584 -1.368,-0.576 -2.304,-1.152 -2.736,-1.8 -0.504,-0.648 -0.72,-1.44 -0.72,-2.448 0,-1.296 0.648,-2.376 2.088,-3.096 1.44,-0.72 3.24,-1.152 5.472,-1.152 1.872,0 3.528,0.288 4.896,0.72 1.296,0.432 2.592,1.224 3.816,2.304 1.008,0.936 2.088,1.368 3.384,1.368 0.792,0 1.44,-0.144 2.016,-0.576 0.792,-0.648 1.224,-1.368 1.224,-2.232 0,-0.72 -0.36,-1.512 -0.936,-2.304 -1.44,-1.728 -3.456,-3.168 -5.904,-4.176 z" transform="translate(0 210.90632995427538) translate(711.6836765405411 136.63580342134046) scale(1.8616149215882436) translate(-611.02081 -80.328)"></path> 
  </g> 
  <g id="tagline" style="font-style:normal;font-weight:500;font-size:32px;line-height:1;font-family:Raleway;font-variant-ligatures:none;text-align:center;text-anchor:middle"></g> 
 </g> 
</svg>