<svg xmlns:dc="http://purl.org/dc/elements/1.1/" xmlns:cc="http://creativecommons.org/ns#" xmlns:rdf="http://www.w3.org/1999/02/22-rdf-syntax-ns#" xmlns:svg="http://www.w3.org/2000/svg" xmlns="http://www.w3.org/2000/svg" id="svg29255" viewbox="0 0 1024 768" height="768px" width="1024px" version="1.1"> <metadata id="metadata29261"> 
  <rdf:rdf> 
   <cc:work rdf:about=""> 
    <dc:format>
     image/svg+xml
    </dc:format> 
    <dc:type rdf:resource="http://purl.org/dc/dcmitype/StillImage"></dc:type> 
   </cc:work> 
  </rdf:rdf> 
 </metadata> <defs id="defs29259"></defs> <g id="logo-group"> 
  <g id="title" style="font-style:normal;font-weight:400;font-size:72px;line-height:1;font-family:Teko;font-variant-ligatures:none;text-align:center;text-anchor:middle" aria-label="O7COWBOY"> 
   <path id="path29263" style="font-style: normal; font-weight: 400; font-size: 72px; line-height: 1; font-family: Teko; font-variant-ligatures: none; text-align: center; text-anchor: middle; fill: rgb(255, 245, 220);" d="m 406.06606,74.928 h 7.992 q 6.696,0 6.696,6.336 v 32.4 q 0,6.336 -6.696,6.336 h -7.992 q -6.768,0 -6.768,-6.336 v -32.4 q 0,-6.336 6.768,-6.336 z m 8.208,37.728 V 82.272 q 0,-1.296 -0.432,-1.656 -0.432,-0.432 -1.728,-0.432 h -4.176 q -1.296,0 -1.728,0.432 -0.36,0.36 -0.36,1.656 v 30.384 q 0,1.296 0.36,1.728 0.432,0.36 1.728,0.36 h 4.176 q 1.296,0 1.728,-0.36 0.432,-0.432 0.432,-1.728 z" transform="translate(0 205.70224203706758) translate(252.0000000000001 131.2494317194523) scale(2.0843667483377684) translate(-399.29806 -74.928)"></path> 
   <path id="path29265" style="font-style: normal; font-weight: 400; font-size: 72px; line-height: 1; font-family: Teko; font-variant-ligatures: none; text-align: center; text-anchor: middle; fill: rgb(255, 245, 220);" d="m 444.77169,74.928 v 4.032 l -12.096,41.04 h -6.624 l 11.736,-39.672 h -13.176 v -5.4 z" transform="translate(0 205.70224203706758) translate(311.01598889673875 131.2494317194523) scale(2.0843667483377684) translate(-424.61169 -74.928)"></path> 
   <path id="path29267" style="font-style: normal; font-weight: 400; font-size: 72px; line-height: 1; font-family: Teko; font-variant-ligatures: none; text-align: center; text-anchor: middle; fill: rgb(233, 124, 31);" d="m 469.61281,89.04 h -6.624 v -6.912 q 0,-1.296 -0.432,-1.656 -0.36,-0.432 -1.656,-0.432 h -3.672 q -1.296,0 -1.728,0.432 -0.432,0.36 -0.432,1.656 v 30.744 q 0,1.296 0.432,1.728 0.432,0.36 1.728,0.36 h 3.672 q 1.296,0 1.656,-0.36 0.432,-0.432 0.432,-1.728 v -6.84 h 6.624 v 7.632 q 0,6.408 -6.768,6.408 h -7.632 q -6.696,0 -6.696,-6.408 v -32.4 q 0,-6.336 6.696,-6.336 h 7.632 q 6.768,0 6.768,6.336 z" transform="translate(0 205.70224203706758) translate(367.09612638477614 131.2494317194523) scale(2.0843667483377684) translate(-448.51681 -74.928)"></path> 
   <path id="path29269" style="font-style: normal; font-weight: 400; font-size: 72px; line-height: 1; font-family: Teko; font-variant-ligatures: none; text-align: center; text-anchor: middle; fill: rgb(233, 124, 31);" d="m 482.42544,74.928 h 7.992 q 6.696,0 6.696,6.336 v 32.4 q 0,6.336 -6.696,6.336 h -7.992 q -6.768,0 -6.768,-6.336 v -32.4 q 0,-6.336 6.768,-6.336 z m 8.208,37.728 V 82.272 q 0,-1.296 -0.432,-1.656 -0.432,-0.432 -1.728,-0.432 h -4.176 q -1.296,0 -1.728,0.432 -0.36,0.36 -0.36,1.656 v 30.384 q 0,1.296 0.36,1.728 0.432,0.36 1.728,0.36 h 4.176 q 1.296,0 1.728,-0.36 0.432,-0.432 0.432,-1.728 z" transform="translate(0 205.70224203706758) translate(429.92025333072786 131.2494317194523) scale(2.0843667483377684) translate(-475.65744 -74.928)"></path> 
   <path id="path29271" style="font-style: normal; font-weight: 400; font-size: 72px; line-height: 1; font-family: Teko; font-variant-ligatures: none; text-align: center; text-anchor: middle; fill: rgb(233, 124, 31);" d="m 537.11506,74.928 h 6.552 l -7.2,45.072 h -9 l -5.04,-33.84 -4.968,33.84 h -9 l -7.2,-45.072 h 6.696 l 5.04,39.168 5.832,-39.168 h 7.2 l 5.832,39.168 z" transform="translate(0 205.70224203706758) translate(489.53651900732024 131.2494317194523) scale(2.0843667483377684) translate(-501.25906 -74.928)"></path> 
   <path id="path29273" style="font-style: normal; font-weight: 400; font-size: 72px; line-height: 1; font-family: Teko; font-variant-ligatures: none; text-align: center; text-anchor: middle; fill: rgb(233, 124, 31);" d="M 563.99806,92.424 V 82.128 q 0,-1.296 -0.432,-1.656 -0.432,-0.432 -1.728,-0.432 h -7.2 v 14.472 h 7.2 q 1.296,0 1.728,-0.36 0.432,-0.432 0.432,-1.728 z m 0,20.376 v -11.088 q 0,-1.296 -0.432,-1.656 -0.432,-0.432 -1.728,-0.432 h -7.2 v 15.264 h 7.2 q 1.296,0 1.728,-0.36 0.432,-0.432 0.432,-1.728 z m -15.84,-37.872 h 15.624 q 6.768,0 6.768,6.336 v 11.448 q 0,3.816 -2.88,4.464 2.88,0.72 2.88,4.176 v 12.312 q 0,6.336 -6.768,6.336 h -15.624 z" transform="translate(0 205.70224203706758) translate(593.5443353826265 131.2494317194523) scale(2.0843667483377684) translate(-548.15806 -74.928)"></path> 
   <path id="path29275" style="font-style: normal; font-weight: 400; font-size: 72px; line-height: 1; font-family: Teko; font-variant-ligatures: none; text-align: center; text-anchor: middle; fill: rgb(233, 124, 31);" d="m 583.95669,74.928 h 7.992 q 6.696,0 6.696,6.336 v 32.4 q 0,6.336 -6.696,6.336 h -7.992 q -6.768,0 -6.768,-6.336 v -32.4 q 0,-6.336 6.768,-6.336 z m 8.208,37.728 V 82.272 q 0,-1.296 -0.432,-1.656 -0.432,-0.432 -1.728,-0.432 h -4.176 q -1.296,0 -1.728,0.432 -0.36,0.36 -0.36,1.656 v 30.384 q 0,1.296 0.36,1.728 0.432,0.36 1.728,0.36 h 4.176 q 1.296,0 1.728,-0.36 0.432,-0.432 0.432,-1.728 z" transform="translate(0 205.70224203706758) translate(660.3079154829366 131.2494317194523) scale(2.0843667483377684) translate(-577.18869 -74.928)"></path> 
   <path id="path29277" style="font-style: normal; font-weight: 400; font-size: 72px; line-height: 1; font-family: Teko; font-variant-ligatures: none; text-align: center; text-anchor: middle; fill: rgb(233, 124, 31);" d="m 618.55831,120 h -6.552 v -14.256 l -9.648,-30.816 h 6.624 l 6.264,24.84 5.904,-24.84 h 6.624 l -9.216,30.816 z" transform="translate(0 205.70224203706758) translate(719.0237347242471 131.2494317194523) scale(2.0843667483377684) translate(-602.35831 -74.928)"></path> 
  </g> 
  <g id="tagline" style="font-style:oblique;font-weight:normal;font-size:32px;line-height:1;font-family:'Fira Sans Condensed';font-variant-ligatures:none;text-align:center;text-anchor:middle"></g> 
 </g> 
</svg>