<svg xmlns:dc="http://purl.org/dc/elements/1.1/" xmlns:cc="http://creativecommons.org/ns#" xmlns:rdf="http://www.w3.org/1999/02/22-rdf-syntax-ns#" xmlns:svg="http://www.w3.org/2000/svg" xmlns="http://www.w3.org/2000/svg" id="svg22186" viewbox="0 0 1024 768" height="768px" width="1024px" version="1.1"> <metadata id="metadata22192"> 
  <rdf:rdf> 
   <cc:work rdf:about=""> 
    <dc:format>
     image/svg+xml
    </dc:format> 
    <dc:type rdf:resource="http://purl.org/dc/dcmitype/StillImage"></dc:type> 
   </cc:work> 
  </rdf:rdf> 
 </metadata> <defs id="defs22190"></defs> <g id="logo-group"> 
  <g id="title" style="font-style:oblique;font-weight:700;font-size:72px;line-height:1;font-family:'Uni Neue';font-variant-ligatures:none;text-align:center;text-anchor:middle" aria-label="O7COLUMNIST"> 
   <path id="path22194" style="font-style: oblique; font-weight: 700; font-size: 72px; line-height: 1; font-family: &quot;Uni Neue&quot;; font-variant-ligatures: none; text-align: center; text-anchor: middle; fill: rgb(255, 255, 255);" d="m 321.00087,101.64 2.232,-12.744 c 2.16,-12.96 -4.32,-21.312 -16.632,-21.312 -12.6,0 -21.16799,7.056 -23.256,18.864 l -2.232,12.744 c -2.232,12.816 4.03201,21.744 16.34401,21.744 12.95999,0 21.45599,-6.984 23.54399,-19.296 z m -28.44,-1.152 2.376,-13.032 c 1.08001,-5.904 4.464,-9.36 10.15201,-9.36 5.47199,0 7.63199,3.96 6.62399,9.72 l -2.30399,13.176 c -1.00801,5.832 -4.608,9.432 -10.29601,9.432 -5.328,0 -7.56,-4.032 -6.552,-9.936 z" transform="translate(0 307.43897045322694) translate(252.00000000000006 49.9175666973171) scale(0.9987802837552838) translate(-280.66738 -67.584)"></path> 
   <path id="path22196" style="font-style: oblique; font-weight: 700; font-size: 72px; line-height: 1; font-family: &quot;Uni Neue&quot;; font-variant-ligatures: none; text-align: center; text-anchor: middle; fill: rgb(255, 255, 255);" d="m 337.23575,120 c 0.72,0 1.152,-0.288 1.512,-0.864 l 24.84,-41.688 c 0.288,-0.504 0.432,-0.936 0.504,-1.44 l 1.008,-6.12 c 0.144,-0.792 -0.288,-1.368 -1.08,-1.368 h -31.896 c -0.792,0 -1.224,0.36 -1.296,1.152 l -1.368,7.776 c -0.144,0.792 0.288,1.368 1.152,1.368 h 19.872 l -23.688,39.672 c -0.504,0.864 -0.072,1.512 0.864,1.512 z" transform="translate(0 307.43897045322694) translate(302.8533975375422 50.852425042912046) scale(0.9987802837552838) translate(-326.58288 -68.52)"></path> 
   <path id="path22198" style="font-style: oblique; font-weight: 700; font-size: 72px; line-height: 1; font-family: &quot;Uni Neue&quot;; font-variant-ligatures: none; text-align: center; text-anchor: middle; fill: rgb(206, 206, 206);" d="m 398.69337,116.328 c 0.50401,-0.288 0.57601,-0.72 0.216,-1.512 l -3.384,-7.056 c -0.432,-0.792 -1.00799,-0.936 -1.728,-0.504 -3.024,2.016 -6.83999,3.168 -10.152,3.168 -5.61599,0 -8.208,-3.168 -7.272,-9 l 2.52,-14.544 c 0.86401,-5.328 4.32,-8.856 10.08,-8.856 3.096,0 6.048,1.008 8.352,2.592 0.72,0.432 1.296,0.36 1.72801,-0.216 l 5.25599,-6.192 c 0.504,-0.648 0.504,-1.296 -0.144,-1.728 -3.52799,-2.952 -8.568,-4.896 -14.18399,-4.896 -11.664,0 -20.52001,6.12 -22.60801,18.144 l -2.51999,14.616 c -2.23201,12.96 4.82399,20.592 16.70399,20.592 7.12801,0 12.672,-1.944 17.136,-4.608 z" transform="translate(0 307.43897045322694) translate(345.66124035292773 49.9175666973171) scale(0.9987802837552838) translate(-364.443 -67.584)"></path> 
   <path id="path22200" style="font-style: oblique; font-weight: 700; font-size: 72px; line-height: 1; font-family: &quot;Uni Neue&quot;; font-variant-ligatures: none; text-align: center; text-anchor: middle; fill: rgb(206, 206, 206);" d="m 445.17275,101.64 2.232,-12.744 c 2.16,-12.96 -4.32,-21.312 -16.632,-21.312 -12.6,0 -21.168,7.056 -23.256,18.864 l -2.232,12.744 c -2.232,12.816 4.032,21.744 16.344,21.744 12.96,0 21.456,-6.984 23.544,-19.296 z m -28.44,-1.152 2.376,-13.032 c 1.08,-5.904 4.464,-9.36 10.152,-9.36 5.472,0 7.632,3.96 6.624,9.72 l -2.304,13.176 c -1.008,5.832 -4.608,9.432 -10.296,9.432 -5.328,0 -7.56,-4.032 -6.552,-9.936 z" transform="translate(0 307.43897045322694) translate(391.0021297971564 49.9175666973171) scale(0.9987802837552838) translate(-404.83926 -67.584)"></path> 
   <path id="path22202" style="font-style: oblique; font-weight: 700; font-size: 72px; line-height: 1; font-family: &quot;Uni Neue&quot;; font-variant-ligatures: none; text-align: center; text-anchor: middle; fill: rgb(206, 206, 206);" d="m 470.75075,69.888 c 0.072,-0.792 -0.288,-1.368 -1.152,-1.368 h -8.928 c -0.72,0 -1.224,0.432 -1.296,1.152 l -8.64,48.96 c -0.144,0.792 0.288,1.368 1.08,1.368 h 28.656 c 0.792,0 1.224,-0.432 1.368,-1.152 l 1.368,-7.92 c 0.144,-0.792 -0.288,-1.368 -1.152,-1.368 h -18.288 z" transform="translate(0 307.43897045322694) translate(441.80813521023435 50.852425042912046) scale(0.9987802837552838) translate(-450.70731 -68.52)"></path> 
   <path id="path22204" style="font-style: oblique; font-weight: 700; font-size: 72px; line-height: 1; font-family: &quot;Uni Neue&quot;; font-variant-ligatures: none; text-align: center; text-anchor: middle; fill: rgb(206, 206, 206);" d="m 527.28088,102.216 5.616,-32.328 c 0.072,-0.792 -0.36001,-1.368 -1.15201,-1.368 h -9.072 c -0.72,0 -1.15199,0.432 -1.29599,1.152 l -5.47201,31.68 c -1.07999,5.976 -4.464,8.928 -9.288,8.928 -4.68,0 -7.2,-3.168 -6.12,-9.432 l 5.54401,-30.96 c 0.14399,-0.792 -0.288,-1.368 -1.15201,-1.368 h -9.072 c -0.72,0 -1.152,0.432 -1.296,1.152 l -5.32799,29.88 c -2.23201,13.32 4.03199,21.312 15.76799,21.312 12.88801,0 20.304,-6.912 22.32001,-18.648 z" transform="translate(0 307.43897045322694) translate(484.79432023308726 50.852425042912046) scale(0.9987802837552838) translate(-488.74599 -68.52)"></path> 
   <path id="path22206" style="font-style: oblique; font-weight: 700; font-size: 72px; line-height: 1; font-family: &quot;Uni Neue&quot;; font-variant-ligatures: none; text-align: center; text-anchor: middle; fill: rgb(206, 206, 206);" d="m 544.06137,120 c 0.79201,0 1.29601,-0.36 1.36801,-1.152 l 1.65599,-9.576 c 1.00801,-6.264 2.376,-14.76 3.312,-22.32 h 0.36001 c 0.648,3.24 2.30399,9.432 3.456,13.896 l 2.15999,7.344 c 0.21601,0.72 0.72001,1.08 1.44,1.08 h 6.552 c 0.648,0 1.08001,-0.216 1.44001,-0.864 l 4.60799,-7.2 c 2.88,-4.68 6.768,-11.304 8.496,-14.616 l 0.36,0.072 c -1.58399,7.416 -3.6,17.208 -4.53599,22.824 l -1.58401,9.144 c -0.072,0.792 0.36,1.368 1.152,1.368 h 8.784 c 0.79201,0 1.22401,-0.432 1.36801,-1.152 l 8.568,-48.96 c 0.144,-0.792 -0.288,-1.368 -1.15201,-1.368 h -10.51199 c -0.72,0 -1.15201,0.216 -1.51201,0.792 l -8.06399,12.456 c -2.952,4.608 -7.12801,11.952 -8.784,14.904 h -0.216 c -0.64801,-3.024 -2.448,-10.296 -3.60001,-14.76 l -3.6,-12.312 c -0.216,-0.792 -0.72,-1.08 -1.43999,-1.08 h -10.15201 c -0.72,0 -1.152,0.432 -1.296,1.152 l -8.568,48.96 c -0.144,0.792 0.288,1.368 1.152,1.368 z" transform="translate(0 307.43897045322694) translate(535.0849949709589 50.852425042912046) scale(0.9987802837552838) translate(-534.09808 -68.52)"></path> 
   <path id="path22208" style="font-style: oblique; font-weight: 700; font-size: 72px; line-height: 1; font-family: &quot;Uni Neue&quot;; font-variant-ligatures: none; text-align: center; text-anchor: middle; fill: rgb(206, 206, 206);" d="m 604.67075,120 c 0.72,0 1.152,-0.432 1.296,-1.152 l 1.872,-10.8 c 1.224,-6.624 2.088,-14.472 2.736,-21.312 l 0.288,-0.144 c 0.864,4.176 2.952,11.88 4.968,17.136 l 5.688,15.264 c 0.288,0.72 0.792,1.008 1.44,1.008 h 9.432 c 0.792,0 1.224,-0.432 1.368,-1.152 l 8.64,-48.96 c 0.144,-0.792 -0.288,-1.368 -1.152,-1.368 h -8.784 c -0.72,0 -1.152,0.432 -1.296,1.152 l -2.16,12.384 c -1.08,6.264 -2.16,13.536 -2.88,19.944 l -0.36,0.072 c -0.864,-3.312 -2.808,-10.224 -4.464,-15.48 l -5.688,-17.064 c -0.144,-0.72 -0.72,-1.008 -1.44,-1.008 h -9.504 c -0.72,0 -1.224,0.432 -1.296,1.152 l -8.64,48.96 c -0.144,0.792 0.288,1.368 1.08,1.368 z" transform="translate(0 307.43897045322694) translate(600.6142003273245 50.852425042912046) scale(0.9987802837552838) translate(-594.70731 -68.52)"></path> 
   <path id="path22210" style="font-style: oblique; font-weight: 700; font-size: 72px; line-height: 1; font-family: &quot;Uni Neue&quot;; font-variant-ligatures: none; text-align: center; text-anchor: middle; fill: rgb(206, 206, 206);" d="m 664.11013,69.888 c 0.144,-0.792 -0.288,-1.368 -1.15201,-1.368 h -8.856 c -0.792,0 -1.224,0.432 -1.368,1.152 l -8.64,48.96 c -0.072,0.792 0.36,1.368 1.152,1.368 h 8.928 c 0.72001,0 1.15201,-0.432 1.29601,-1.152 z" transform="translate(0 307.43897045322694) translate(654.9269133288645 50.852425042912046) scale(0.9987802837552838) translate(-644.08635 -68.52)"></path> 
   <path id="path22212" style="font-style: oblique; font-weight: 700; font-size: 72px; line-height: 1; font-family: &quot;Uni Neue&quot;; font-variant-ligatures: none; text-align: center; text-anchor: middle; fill: rgb(206, 206, 206);" d="m 703.83838,106.608 c 2.376,-12.168 -8.06401,-15.84 -14.616,-17.856 -4.60801,-1.368 -7.63201,-2.592 -7.056,-6.048 0.576,-2.88 3.024,-4.752 6.912,-4.752 4.10399,0 8.352,1.44 11.592,3.528 0.648,0.432 1.22399,0.36 1.72799,-0.216 l 5.04,-6.48 c 0.504,-0.648 0.432,-1.296 -0.21599,-1.728 -4.96801,-3.672 -10.008,-5.472 -16.84801,-5.472 -9.72,0 -17.712,3.888 -19.43999,13.968 -1.72801,10.224 5.256,14.976 12.95999,17.208 5.32801,1.512 9,2.952 8.42401,6.552 -0.576,3.384 -4.248,5.04 -8.42401,5.04 -4.46399,0 -8.28,-1.656 -12.24,-4.752 -0.64799,-0.504 -1.29599,-0.504 -1.8,0.144 l -5.18399,6.408 c -0.504,0.648 -0.432,1.296 0.144,1.8 4.89599,4.32 10.29599,6.984 17.856,6.984 9.36,0 18.86399,-3.096 21.168,-14.328 z" transform="translate(0 307.43897045322694) translate(680.1431091650313 49.9175666973171) scale(0.9987802837552838) translate(-664.33334 -67.584)"></path> 
   <path id="path22214" style="font-style: oblique; font-weight: 700; font-size: 72px; line-height: 1; font-family: &quot;Uni Neue&quot;; font-variant-ligatures: none; text-align: center; text-anchor: middle; fill: rgb(206, 206, 206);" d="m 713.97912,68.52 c -0.71999,0 -1.15199,0.432 -1.29599,1.152 l -1.44001,7.92 c -0.072,0.792 0.288,1.368 1.152,1.368 h 12.31201 l -7.05601,39.672 c -0.144,0.792 0.288,1.368 1.08001,1.368 h 9 c 0.72,0 1.15199,-0.432 1.29599,-1.152 l 7.056,-39.888 h 12.45601 c 0.792,0 1.22399,-0.432 1.29599,-1.152 l 1.44,-7.92 c 0.144,-0.864 -0.288,-1.368 -1.152,-1.368 z" transform="translate(0 307.43897045322694) translate(731.9806248917632 50.852425042912046) scale(0.9987802837552838) translate(-711.23416 -68.52)"></path> 
  </g> 
  <g id="tagline" style="font-style:oblique;font-weight:400;font-size:32px;line-height:1;font-family:Lato;font-variant-ligatures:none;text-align:center;text-anchor:middle"></g> 
 </g> 
</svg>