<svg xmlns:dc="http://purl.org/dc/elements/1.1/" xmlns:cc="http://creativecommons.org/ns#" xmlns:rdf="http://www.w3.org/1999/02/22-rdf-syntax-ns#" xmlns:svg="http://www.w3.org/2000/svg" xmlns="http://www.w3.org/2000/svg" id="svg5692" viewbox="0 0 1024 768" height="768px" width="1024px" version="1.1"> <metadata id="metadata5698"> 
  <rdf:rdf> 
   <cc:work rdf:about=""> 
    <dc:format>
     image/svg+xml
    </dc:format> 
    <dc:type rdf:resource="http://purl.org/dc/dcmitype/StillImage"></dc:type> 
   </cc:work> 
  </rdf:rdf> 
 </metadata> <defs id="defs5696"></defs> <g id="logo-group"> 
  <g id="title" style="font-style:normal;font-weight:300;font-size:72px;line-height:1;font-family:'Montserrat Light Alt1';font-variant-ligatures:none;text-align:center;text-anchor:middle" aria-label="o7Chasing"> 
   <path id="path5700" style="font-style: normal; font-weight: 300; font-size: 72px; line-height: 1; font-family: &quot;Montserrat Light Alt1&quot;; font-variant-ligatures: none; text-align: center; text-anchor: middle; fill: rgb(167, 167, 167);" d="m 336.65638,117.84 c 2.88,1.656 6.048,2.448 9.64799,2.448 3.52801,0 6.69601,-0.792 9.57601,-2.448 2.87999,-1.584 5.11199,-3.888 6.76799,-6.768 1.584,-2.88 2.44801,-6.192 2.44801,-9.864 0,-3.6 -0.86401,-6.912 -2.44801,-9.792 -1.656,-2.88 -3.888,-5.184 -6.76799,-6.84 -2.88,-1.584 -6.048,-2.448 -9.57601,-2.448 -3.59999,0 -6.76799,0.864 -9.64799,2.448 -2.88,1.656 -5.11201,3.96 -6.69601,6.84 -1.656,2.88 -2.44799,6.192 -2.44799,9.792 0,3.672 0.79199,6.984 2.44799,9.864 1.584,2.88 3.81601,5.184 6.69601,6.768 z m 17.35199,-2.808 c -2.30399,1.368 -4.824,2.016 -7.704,2.016 -2.88,0 -5.47199,-0.648 -7.776,-2.016 -2.304,-1.296 -4.104,-3.168 -5.4,-5.616 -1.29599,-2.376 -1.944,-5.112 -1.944,-8.208 0,-3.024 0.64801,-5.76 1.944,-8.208 1.296,-2.376 3.096,-4.248 5.4,-5.616 2.30401,-1.296 4.896,-2.016 7.776,-2.016 2.88,0 5.40001,0.72 7.704,2.016 2.304,1.368 4.104,3.24 5.4,5.616 1.29601,2.448 2.016,5.184 2.016,8.208 0,3.096 -0.71999,5.832 -2.016,8.208 -1.296,2.448 -3.096,4.32 -5.4,5.616 z" transform="translate(0 257.4772547975166) translate(251.99999999999983 100.46126244811146) scale(1.425059205729002) translate(-327.51238 -82.128)"></path> 
   <path id="path5702" style="font-style: normal; font-weight: 300; font-size: 72px; line-height: 1; font-family: &quot;Montserrat Light Alt1&quot;; font-variant-ligatures: none; text-align: center; text-anchor: middle; fill: rgb(167, 167, 167);" d="m 405.04512,69.6 h -36.144 v 12.96 h 3.6 v -9.648 h 28.296 L 379.34112,120 h 4.03201 l 21.67199,-47.808 z" transform="translate(0 257.4772547975166) translate(310.981404950524 82.60812071873855) scale(1.425059205729002) translate(-368.90112 -69.6)"></path> 
   <path id="path5704" style="font-style: normal; font-weight: 300; font-size: 72px; line-height: 1; font-family: &quot;Montserrat Light Alt1&quot;; font-variant-ligatures: none; text-align: center; text-anchor: middle; fill: rgb(0, 0, 0);" d="m 423.5165,117.048 c 3.96,2.232 8.424,3.312 13.392,3.312 3.6,0 6.912,-0.576 10.008,-1.8 3.096,-1.152 5.76,-2.952 7.92,-5.256 l -2.304,-2.376 c -4.104,4.032 -9.288,6.048 -15.48,6.048 -4.248,0 -8.064,-0.936 -11.52,-2.88 -3.456,-1.872 -6.192,-4.536 -8.136,-7.92 -2.016,-3.384 -2.952,-7.2 -2.952,-11.376 0,-4.176 0.936,-7.92 2.952,-11.304 1.944,-3.384 4.68,-6.048 8.136,-7.992 3.456,-1.872 7.272,-2.88 11.52,-2.88 6.264,0 11.448,2.016 15.48,5.976 l 2.304,-2.376 c -2.16,-2.304 -4.824,-4.032 -7.848,-5.184 -3.096,-1.152 -6.48,-1.8 -10.08,-1.8 -4.968,0 -9.432,1.152 -13.392,3.312 -3.96,2.232 -7.056,5.256 -9.36,9.144 -2.304,3.888 -3.384,8.28 -3.384,13.104 0,4.896 1.08,9.216 3.384,13.104 2.304,3.888 5.4,6.984 9.36,9.144 z" transform="translate(0 257.4772547975166) translate(370.65060047610115 82.09509940467609) scale(1.425059205729002) translate(-410.7725 -69.24)"></path> 
   <path id="path5706" style="font-style: normal; font-weight: 300; font-size: 72px; line-height: 1; font-family: &quot;Montserrat Light Alt1&quot;; font-variant-ligatures: none; text-align: center; text-anchor: middle; fill: rgb(0, 0, 0);" d="m 495.57387,86.232 c -2.736,-2.736 -6.47999,-4.104 -11.15999,-4.104 -3.45601,0 -6.48001,0.72 -9,2.16 -2.59201,1.44 -4.464,3.384 -5.76001,5.976 V 66.576 h -3.6 V 120 h 3.6 V 99.984 c 0,-4.464 1.22401,-7.992 3.816,-10.656 2.52,-2.592 5.976,-3.96 10.44,-3.96 3.816,0 6.768,1.152 8.928,3.312 2.16001,2.232 3.24,5.472 3.24,9.648 V 120 h 3.60001 V 98.04 c 0,-5.112 -1.368,-9.072 -4.10401,-11.808 z" transform="translate(0 257.4772547975166) translate(449.42982569991227 78.29874168061403) scale(1.425059205729002) translate(-466.05387 -66.576)"></path> 
   <path id="path5708" style="font-style: normal; font-weight: 300; font-size: 72px; line-height: 1; font-family: &quot;Montserrat Light Alt1&quot;; font-variant-ligatures: none; text-align: center; text-anchor: middle; fill: rgb(0, 0, 0);" d="m 537.9695,85.728 c -2.52,-2.376 -6.12,-3.6 -10.728,-3.6 -2.88,0 -5.688,0.504 -8.28,1.44 -2.664,0.936 -4.896,2.232 -6.768,3.888 l 1.8,2.592 c 1.584,-1.44 3.456,-2.592 5.76,-3.456 2.304,-0.864 4.68,-1.296 7.2,-1.296 3.6,0 6.408,0.936 8.28,2.736 1.872,1.872 2.88,4.536 2.88,7.992 v 3.024 h -12.888 c -4.896,0 -8.496,1.008 -10.728,2.952 -2.232,1.944 -3.312,4.464 -3.312,7.56 0,3.24 1.152,5.832 3.6,7.776 2.448,2.016 5.76,2.952 9.936,2.952 3.168,0 5.976,-0.576 8.28,-1.8 2.304,-1.224 4.032,-2.952 5.256,-5.184 V 120 h 3.456 V 96.168 c 0,-4.608 -1.296,-8.064 -3.744,-10.44 z m -4.824,29.448 c -2.16,1.44 -4.824,2.16 -7.92,2.16 -3.312,0 -5.904,-0.648 -7.704,-2.088 -1.872,-1.44 -2.736,-3.384 -2.736,-5.832 0,-2.304 0.792,-4.176 2.448,-5.544 1.656,-1.296 4.32,-2.016 8.064,-2.016 h 12.816 v 7.056 c -1.152,2.736 -2.808,4.824 -4.968,6.264 z" transform="translate(0 257.4772547975166) translate(513.7450705009675 100.46126244811146) scale(1.425059205729002) translate(-511.1855 -82.128)"></path> 
   <path id="path5710" style="font-style: normal; font-weight: 300; font-size: 72px; line-height: 1; font-family: &quot;Montserrat Light Alt1&quot;; font-variant-ligatures: none; text-align: center; text-anchor: middle; fill: rgb(0, 0, 0);" d="m 557.48037,118.92 c 2.736,0.936 5.616,1.368 8.64,1.368 4.68001,0 8.35201,-0.936 10.94401,-2.808 2.592,-1.872 3.88799,-4.32 3.88799,-7.488 0,-2.304 -0.64799,-4.176 -1.872,-5.544 -1.296,-1.296 -2.808,-2.304 -4.60799,-2.88 -1.80001,-0.576 -4.17601,-1.152 -7.056,-1.728 -2.664,-0.504 -4.75201,-1.008 -6.19201,-1.44 -1.44,-0.432 -2.66399,-1.152 -3.672,-2.088 -1.008,-0.936 -1.51199,-2.232 -1.51199,-3.96 0,-2.088 0.86399,-3.816 2.664,-5.112 1.72799,-1.296 4.39199,-1.944 7.91999,-1.944 2.016,0 4.03201,0.288 6.048,0.864 1.944,0.576 3.67201,1.44 5.256,2.52 l 1.65601,-2.88 c -1.51201,-1.08 -3.45601,-1.944 -5.76,-2.664 -2.37601,-0.648 -4.75201,-1.008 -7.12801,-1.008 -4.60799,0 -8.13599,1.008 -10.58399,2.952 -2.44801,1.944 -3.672,4.392 -3.672,7.344 0,2.448 0.648,4.392 1.94399,5.76 1.29601,1.44 2.808,2.448 4.68001,3.024 1.79999,0.648 4.17599,1.224 7.19999,1.728 2.52,0.504 4.53601,0.936 5.976,1.368 1.44001,0.432 2.592,1.152 3.6,2.016 1.00801,0.936 1.51201,2.16 1.51201,3.744 0,2.232 -0.936,3.96 -2.73601,5.184 -1.8,1.296 -4.608,1.872 -8.352,1.872 -2.664,0 -5.184,-0.432 -7.63199,-1.296 -2.448,-0.864 -4.39201,-1.944 -5.904,-3.24 l -1.65601,2.88 c 1.51201,1.44 3.672,2.592 6.408,3.456 z" transform="translate(0 257.4772547975166) translate(570.5862217821834 100.46126244811146) scale(1.425059205729002) translate(-551.07237 -82.128)"></path> 
   <path id="path5712" style="font-style: normal; font-weight: 300; font-size: 72px; line-height: 1; font-family: &quot;Montserrat Light Alt1&quot;; font-variant-ligatures: none; text-align: center; text-anchor: middle; fill: rgb(0, 0, 0);" d="M 591.0695,82.416 V 120 h 3.6 V 82.416 Z m -0.288,-9.936 c 0.576,0.576 1.224,0.792 2.088,0.792 0.792,0 1.512,-0.288 2.088,-0.864 0.576,-0.576 0.864,-1.224 0.864,-2.088 0,-0.792 -0.288,-1.44 -0.864,-2.016 -0.576,-0.576 -1.296,-0.864 -2.088,-0.864 -0.864,0 -1.512,0.288 -2.088,0.864 -0.576,0.576 -0.864,1.296 -0.864,2.088 0,0.864 0.288,1.512 0.864,2.088 z" transform="translate(0 257.4772547975166) translate(625.9428318864233 79.5299928343639) scale(1.425059205729002) translate(-589.9175 -67.44)"></path> 
   <path id="path5714" style="font-style: normal; font-weight: 300; font-size: 72px; line-height: 1; font-family: &quot;Montserrat Light Alt1&quot;; font-variant-ligatures: none; text-align: center; text-anchor: middle; fill: rgb(0, 0, 0);" d="m 639.43325,86.232 c -2.736,-2.736 -6.48,-4.104 -11.16,-4.104 -3.528,0 -6.552,0.792 -9.144,2.232 -2.592,1.512 -4.464,3.6 -5.76,6.192 v -8.136 h -3.456 V 120 h 3.6 V 99.984 c 0,-4.464 1.224,-7.992 3.816,-10.656 2.52,-2.592 5.976,-3.96 10.44,-3.96 3.816,0 6.768,1.152 8.928,3.312 2.16,2.232 3.24,5.472 3.24,9.648 V 120 h 3.6 V 98.04 c 0,-5.112 -1.368,-9.072 -4.104,-11.808 z" transform="translate(0 257.4772547975166) translate(654.4379594993788 100.46126244811146) scale(1.425059205729002) translate(-609.91325 -82.128)"></path> 
   <path id="path5716" style="font-style: normal; font-weight: 300; font-size: 72px; line-height: 1; font-family: &quot;Montserrat Light Alt1&quot;; font-variant-ligatures: none; text-align: center; text-anchor: middle; fill: rgb(0, 0, 0);" d="m 692.4095,82.416 h -3.456 v 8.496 c -1.512,-2.736 -3.672,-4.896 -6.408,-6.48 -2.808,-1.512 -5.904,-2.304 -9.36,-2.304 -3.528,0 -6.696,0.792 -9.576,2.304 -2.88,1.584 -5.112,3.744 -6.696,6.48 -1.656,2.808 -2.448,5.976 -2.448,9.432 0,3.528 0.792,6.696 2.448,9.432 1.584,2.808 3.816,4.968 6.696,6.552 2.88,1.584 6.048,2.304 9.576,2.304 3.384,0 6.48,-0.72 9.216,-2.232 2.736,-1.44 4.824,-3.6 6.408,-6.336 v 6.336 c 0,5.04 -1.224,8.712 -3.6,11.088 -2.448,2.376 -6.12,3.528 -11.088,3.528 -3.024,0 -5.832,-0.432 -8.424,-1.44 -2.664,-0.936 -4.896,-2.304 -6.768,-4.032 l -1.944,2.736 c 1.872,1.872 4.32,3.384 7.416,4.392 3.024,1.08 6.336,1.584 9.792,1.584 6.048,0 10.656,-1.44 13.68,-4.464 3.024,-2.952 4.536,-7.56 4.536,-13.824 z m -11.016,31.104 c -2.376,1.296 -5.04,1.872 -7.92,1.872 -2.952,0 -5.616,-0.576 -7.92,-1.872 -2.304,-1.296 -4.176,-3.024 -5.472,-5.328 -1.296,-2.304 -1.944,-4.896 -1.944,-7.848 0,-2.88 0.648,-5.472 1.944,-7.776 1.296,-2.232 3.168,-3.96 5.472,-5.256 2.304,-1.296 4.968,-1.944 7.92,-1.944 2.88,0 5.544,0.648 7.92,1.944 2.304,1.296 4.176,3.024 5.472,5.256 1.296,2.304 2.016,4.896 2.016,7.776 0,2.952 -0.72,5.544 -2.016,7.848 -1.296,2.304 -3.168,4.032 -5.472,5.328 z" transform="translate(0 257.4772547975166) translate(717.9275534978187 100.46126244811146) scale(1.425059205729002) translate(-654.4655 -82.128)"></path> 
  </g> 
  <g id="tagline" style="font-style:normal;font-weight:400;font-size:32px;line-height:1;font-family:Montserrat;font-variant-ligatures:none;text-align:center;text-anchor:middle"></g> 
 </g> 
</svg>