<svg xmlns:dc="http://purl.org/dc/elements/1.1/" xmlns:cc="http://creativecommons.org/ns#" xmlns:rdf="http://www.w3.org/1999/02/22-rdf-syntax-ns#" xmlns:svg="http://www.w3.org/2000/svg" xmlns="http://www.w3.org/2000/svg" id="svg371837" viewbox="0 0 1024 768" height="768px" width="1024px" version="1.1"> <metadata id="metadata371843"> 
  <rdf:rdf> 
   <cc:work rdf:about=""> 
    <dc:format>
     image/svg+xml
    </dc:format> 
    <dc:type rdf:resource="http://purl.org/dc/dcmitype/StillImage"></dc:type> 
   </cc:work> 
  </rdf:rdf> 
 </metadata> <defs id="defs371841"></defs> <g id="logo-group"> 
  <g id="title" style="font-style:normal;font-weight:300;font-size:72px;line-height:1;font-family:'Montserrat Light Alt1';font-variant-ligatures:none;text-align:center;text-anchor:middle" aria-label="o7Collective"> 
   <path id="path371845" style="font-style: normal; font-weight: 300; font-size: 72px; line-height: 1; font-family: &quot;Montserrat Light Alt1&quot;; font-variant-ligatures: none; text-align: center; text-anchor: middle; fill: rgb(201, 55, 110);" d="m 311.76575,117.84 c 2.88,1.656 6.048,2.448 9.648,2.448 3.528,0 6.696,-0.792 9.576,-2.448 2.88,-1.584 5.112,-3.888 6.768,-6.768 1.584,-2.88 2.448,-6.192 2.448,-9.864 0,-3.6 -0.864,-6.912 -2.448,-9.792 -1.656,-2.88 -3.888,-5.184 -6.768,-6.84 -2.88,-1.584 -6.048,-2.448 -9.576,-2.448 -3.6,0 -6.768,0.864 -9.648,2.448 -2.88,1.656 -5.112,3.96 -6.696,6.84 -1.656,2.88 -2.448,6.192 -2.448,9.792 0,3.672 0.792,6.984 2.448,9.864 1.584,2.88 3.816,5.184 6.696,6.768 z m 17.352,-2.808 c -2.304,1.368 -4.824,2.016 -7.704,2.016 -2.88,0 -5.472,-0.648 -7.776,-2.016 -2.304,-1.296 -4.104,-3.168 -5.4,-5.616 -1.296,-2.376 -1.944,-5.112 -1.944,-8.208 0,-3.024 0.648,-5.76 1.944,-8.208 1.296,-2.376 3.096,-4.248 5.4,-5.616 2.304,-1.296 4.896,-2.016 7.776,-2.016 2.88,0 5.4,0.72 7.704,2.016 2.304,1.368 4.104,3.24 5.4,5.616 1.296,2.448 2.016,5.184 2.016,8.208 0,3.096 -0.72,5.832 -2.016,8.208 -1.296,2.448 -3.096,4.32 -5.4,5.616 z" transform="translate(0 297.9743303049286) translate(252.0000000000001 73.57752771768756) scale(1.0977197510920462) translate(-302.62175 -82.128)"></path> 
   <path id="path371847" style="font-style: normal; font-weight: 300; font-size: 72px; line-height: 1; font-family: &quot;Montserrat Light Alt1&quot;; font-variant-ligatures: none; text-align: center; text-anchor: middle; fill: rgb(201, 55, 110);" d="m 380.1545,69.6 h -36.144 v 12.96 h 3.6 v -9.648 h 28.296 L 354.4505,120 h 4.032 l 21.672,-47.808 z" transform="translate(0 297.9743303049286) translate(302.92184710347124 59.82529467600642) scale(1.0977197510920462) translate(-344.0105 -69.6)"></path> 
   <path id="path371849" style="font-style: normal; font-weight: 300; font-size: 72px; line-height: 1; font-family: &quot;Montserrat Light Alt1&quot;; font-variant-ligatures: none; text-align: center; text-anchor: middle; fill: rgb(192, 48, 41);" d="m 398.62587,117.048 c 3.96,2.232 8.424,3.312 13.392,3.312 3.60001,0 6.912,-0.576 10.008,-1.8 3.096,-1.152 5.76001,-2.952 7.92,-5.256 l -2.30399,-2.376 c -4.10401,4.032 -9.288,6.048 -15.48001,6.048 -4.24799,0 -8.064,-0.936 -11.51999,-2.88 -3.45601,-1.872 -6.192,-4.536 -8.13601,-7.92 -2.016,-3.384 -2.952,-7.2 -2.952,-11.376 0,-4.176 0.936,-7.92 2.952,-11.304 1.94401,-3.384 4.68,-6.048 8.13601,-7.992 3.45599,-1.872 7.272,-2.88 11.51999,-2.88 6.26401,0 11.448,2.016 15.48001,5.976 l 2.30399,-2.376 c -2.15999,-2.304 -4.824,-4.032 -7.848,-5.184 -3.096,-1.152 -6.47999,-1.8 -10.08,-1.8 -4.968,0 -9.432,1.152 -13.392,3.312 -3.95999,2.232 -7.05599,5.256 -9.36,9.144 -2.30399,3.888 -3.384,8.28 -3.384,13.104 0,4.896 1.08001,9.216 3.384,13.104 2.30401,3.888 5.40001,6.984 9.36,9.144 z" transform="translate(0 297.9743303049286) translate(354.3734757132145 59.43011556561328) scale(1.0977197510920462) translate(-385.88187 -69.24)"></path> 
   <path id="path371851" style="font-style: normal; font-weight: 300; font-size: 72px; line-height: 1; font-family: &quot;Montserrat Light Alt1&quot;; font-variant-ligatures: none; text-align: center; text-anchor: middle; fill: rgb(192, 48, 41);" d="m 444.51575,117.84 c 2.88,1.656 6.048,2.448 9.648,2.448 3.528,0 6.696,-0.792 9.576,-2.448 2.88,-1.584 5.112,-3.888 6.768,-6.768 1.584,-2.88 2.448,-6.192 2.448,-9.864 0,-3.6 -0.864,-6.912 -2.448,-9.792 -1.656,-2.88 -3.888,-5.184 -6.768,-6.84 -2.88,-1.584 -6.048,-2.448 -9.576,-2.448 -3.6,0 -6.768,0.864 -9.648,2.448 -2.88,1.656 -5.112,3.96 -6.696,6.84 -1.656,2.88 -2.448,6.192 -2.448,9.792 0,3.672 0.792,6.984 2.448,9.864 1.584,2.88 3.816,5.184 6.696,6.768 z m 17.352,-2.808 c -2.304,1.368 -4.824,2.016 -7.704,2.016 -2.88,0 -5.472,-0.648 -7.776,-2.016 -2.304,-1.296 -4.104,-3.168 -5.4,-5.616 -1.296,-2.376 -1.944,-5.112 -1.944,-8.208 0,-3.024 0.648,-5.76 1.944,-8.208 1.296,-2.376 3.096,-4.248 5.4,-5.616 2.304,-1.296 4.896,-2.016 7.776,-2.016 2.88,0 5.4,0.72 7.704,2.016 2.304,1.368 4.104,3.24 5.4,5.616 1.296,2.448 2.016,5.184 2.016,8.208 0,3.096 -0.72,5.832 -2.016,8.208 -1.296,2.448 -3.096,4.32 -5.4,5.616 z" transform="translate(0 297.9743303049286) translate(414.18809322384993 73.57752771768756) scale(1.0977197510920462) translate(-435.37175 -82.128)"></path> 
   <path id="path371853" style="font-style: normal; font-weight: 300; font-size: 72px; line-height: 1; font-family: &quot;Montserrat Light Alt1&quot;; font-variant-ligatures: none; text-align: center; text-anchor: middle; fill: rgb(192, 48, 41);" d="M 484.05387,66.576 V 120 h 3.6 V 66.576 Z" transform="translate(0 297.9743303049286) translate(473.1160166283433 56.505790148704065) scale(1.0977197510920462) translate(-484.05387 -66.576)"></path> 
   <path id="path371855" style="font-style: normal; font-weight: 300; font-size: 72px; line-height: 1; font-family: &quot;Montserrat Light Alt1&quot;; font-variant-ligatures: none; text-align: center; text-anchor: middle; fill: rgb(192, 48, 41);" d="M 502.89762,66.576 V 120 h 3.6 V 66.576 Z" transform="translate(0 297.9743303049286) translate(499.28977194344424 56.505790148704065) scale(1.0977197510920462) translate(-502.89762 -66.576)"></path> 
   <path id="path371857" style="font-style: normal; font-weight: 300; font-size: 72px; line-height: 1; font-family: &quot;Montserrat Light Alt1&quot;; font-variant-ligatures: none; text-align: center; text-anchor: middle; fill: rgb(192, 48, 41);" d="m 543.91737,115.752 c -2.08799,0.864 -4.392,1.296 -6.768,1.296 -3.88799,0 -7.12799,-1.008 -9.86399,-3.024 -2.736,-2.016 -4.60801,-4.752 -5.47201,-8.208 l 31.75201,-6.192 c -0.21601,-3.312 -1.00801,-6.264 -2.592,-8.928 -1.58401,-2.664 -3.67201,-4.752 -6.264,-6.264 -2.592,-1.512 -5.544,-2.304 -8.784,-2.304 -3.52801,0 -6.69601,0.864 -9.432,2.448 -2.808,1.656 -4.968,3.888 -6.55201,6.768 -1.58399,2.88 -2.30399,6.192 -2.30399,9.864 0,3.744 0.792,6.984 2.44799,9.864 1.656,2.88 3.96001,5.184 6.91201,6.768 2.952,1.656 6.264,2.448 10.07999,2.448 2.88,0 5.544,-0.504 8.06401,-1.512 2.376,-1.008 4.46399,-2.52 6.12,-4.608 l -2.08801,-2.376 c -1.43999,1.8 -3.168,3.096 -5.256,3.96 z m -15.624,-28.44 c 2.23201,-1.296 4.75201,-2.016 7.63201,-2.016 2.44799,0 4.75199,0.576 6.768,1.656 2.016,1.08 3.59999,2.592 4.896,4.392 1.22399,1.872 2.01599,3.96 2.37599,6.192 l -28.65599,5.616 c -0.144,-0.936 -0.144,-1.656 -0.144,-2.232 0,-2.952 0.57599,-5.688 1.87199,-8.064 1.22401,-2.376 2.952,-4.248 5.256,-5.544 z" transform="translate(0 297.9743303049286) translate(520.958496377261 73.57752771768756) scale(1.0977197510920462) translate(-517.63738 -82.128)"></path> 
   <path id="path371859" style="font-style: normal; font-weight: 300; font-size: 72px; line-height: 1; font-family: &quot;Montserrat Light Alt1&quot;; font-variant-ligatures: none; text-align: center; text-anchor: middle; fill: rgb(192, 48, 41);" d="m 569.88463,117.84 c 2.88,1.656 6.12,2.448 9.792,2.448 3.02399,0 5.76,-0.576 8.208,-1.728 2.44799,-1.152 4.46399,-2.88 6.048,-5.184 l -2.664,-1.944 c -1.36801,1.872 -3.024,3.312 -5.04001,4.248 -2.016,0.936 -4.17599,1.368 -6.55199,1.368 -2.952,0 -5.61601,-0.648 -7.92001,-1.944 -2.304,-1.296 -4.17599,-3.168 -5.472,-5.616 -1.296,-2.376 -1.94399,-5.112 -1.94399,-8.28 0,-3.096 0.64799,-5.832 1.94399,-8.28 1.29601,-2.376 3.168,-4.248 5.472,-5.544 2.304,-1.296 4.96801,-2.016 7.92001,-2.016 2.376,0 4.53599,0.504 6.55199,1.44 2.01601,0.936 3.672,2.304 5.04001,4.176 l 2.664,-1.944 c -1.58401,-2.232 -3.60001,-3.96 -6.048,-5.112 -2.448,-1.152 -5.18401,-1.8 -8.208,-1.8 -3.672,0 -6.912,0.864 -9.792,2.448 -2.88,1.584 -5.18401,3.888 -6.76801,6.768 -1.65599,2.88 -2.44799,6.192 -2.44799,9.864 0,3.672 0.792,6.984 2.44799,9.864 1.584,2.88 3.88801,5.184 6.76801,6.768 z" transform="translate(0 297.9743303049286) translate(573.6833481719008 73.57752771768756) scale(1.0977197510920462) translate(-560.66863 -82.128)"></path> 
   <path id="path371861" style="font-style: normal; font-weight: 300; font-size: 72px; line-height: 1; font-family: &quot;Montserrat Light Alt1&quot;; font-variant-ligatures: none; text-align: center; text-anchor: middle; fill: rgb(192, 48, 41);" d="m 623.78,117.624 -1.512,-2.52 c -1.584,1.44 -3.528,2.088 -5.832,2.088 -2.304,0 -4.104,-0.576 -5.256,-1.872 -1.152,-1.296 -1.728,-3.168 -1.728,-5.616 V 85.512 h 11.952 v -3.096 h -11.952 v -8.208 h -3.6 v 8.208 h -6.912 v 3.096 h 6.912 v 24.552 c 0,3.24 0.864,5.76 2.664,7.56 1.728,1.8 4.248,2.664 7.56,2.664 1.44,0 2.88,-0.216 4.248,-0.648 1.368,-0.432 2.52,-1.152 3.456,-2.016 z" transform="translate(0 297.9743303049286) translate(621.1831856777127 64.88358728903856) scale(1.0977197510920462) translate(-598.94 -74.208)"></path> 
   <path id="path371863" style="font-style: normal; font-weight: 300; font-size: 72px; line-height: 1; font-family: &quot;Montserrat Light Alt1&quot;; font-variant-ligatures: none; text-align: center; text-anchor: middle; fill: rgb(192, 48, 41);" d="M 633.8195,82.416 V 120 h 3.6 V 82.416 Z m -0.288,-9.936 c 0.576,0.576 1.224,0.792 2.088,0.792 0.792,0 1.512,-0.288 2.088,-0.864 0.576,-0.576 0.864,-1.224 0.864,-2.088 0,-0.792 -0.288,-1.44 -0.864,-2.016 -0.576,-0.576 -1.296,-0.864 -2.088,-0.864 -0.864,0 -1.512,0.288 -2.088,0.864 -0.576,0.576 -0.864,1.296 -0.864,2.088 0,0.864 0.288,1.512 0.864,2.088 z" transform="translate(0 297.9743303049286) translate(663.6951273381299 57.4542200136476) scale(1.0977197510920462) translate(-632.6675 -67.44)"></path> 
   <path id="path371865" style="font-style: normal; font-weight: 300; font-size: 72px; line-height: 1; font-family: &quot;Montserrat Light Alt1&quot;; font-variant-ligatures: none; text-align: center; text-anchor: middle; fill: rgb(192, 48, 41);" d="m 682.83125,82.416 h -3.672 l -15.12,33.624 -14.976,-33.624 h -3.816 l 16.92,37.584 h 3.672 z" transform="translate(0 297.9743303049286) translate(682.9927661323903 73.89367100600208) scale(1.0977197510920462) translate(-645.24725 -82.416)"></path> 
   <path id="path371867" style="font-style: normal; font-weight: 300; font-size: 72px; line-height: 1; font-family: &quot;Montserrat Light Alt1&quot;; font-variant-ligatures: none; text-align: center; text-anchor: middle; fill: rgb(192, 48, 41);" d="m 711.683,115.752 c -2.088,0.864 -4.392,1.296 -6.768,1.296 -3.888,0 -7.128,-1.008 -9.864,-3.024 -2.736,-2.016 -4.608,-4.752 -5.472,-8.208 l 31.752,-6.192 c -0.216,-3.312 -1.008,-6.264 -2.592,-8.928 -1.584,-2.664 -3.672,-4.752 -6.264,-6.264 -2.592,-1.512 -5.544,-2.304 -8.784,-2.304 -3.528,0 -6.696,0.864 -9.432,2.448 -2.808,1.656 -4.968,3.888 -6.552,6.768 -1.584,2.88 -2.304,6.192 -2.304,9.864 0,3.744 0.792,6.984 2.448,9.864 1.656,2.88 3.96,5.184 6.912,6.768 2.952,1.656 6.264,2.448 10.08,2.448 2.88,0 5.544,-0.504 8.064,-1.512 2.376,-1.008 4.464,-2.52 6.12,-4.608 l -2.088,-2.376 c -1.44,1.8 -3.168,3.096 -5.256,3.96 z m -15.624,-28.44 c 2.232,-1.296 4.752,-2.016 7.632,-2.016 2.448,0 4.752,0.576 6.768,1.656 2.016,1.08 3.6,2.592 4.896,4.392 1.224,1.872 2.016,3.96 2.376,6.192 l -28.656,5.616 c -0.144,-0.936 -0.144,-1.656 -0.144,-2.232 0,-2.952 0.576,-5.688 1.872,-8.064 1.224,-2.376 2.952,-4.248 5.256,-5.544 z" transform="translate(0 297.9743303049286) translate(732.5611247827651 73.57752771768756) scale(1.0977197510920462) translate(-685.403 -82.128)"></path> 
  </g> 
  <g id="tagline" style="font-style:normal;font-weight:400;font-size:32px;line-height:1;font-family:Montserrat;font-variant-ligatures:none;text-align:center;text-anchor:middle"></g> 
 </g> 
</svg>