<svg xmlns:dc="http://purl.org/dc/elements/1.1/" xmlns:cc="http://creativecommons.org/ns#" xmlns:rdf="http://www.w3.org/1999/02/22-rdf-syntax-ns#" xmlns:svg="http://www.w3.org/2000/svg" xmlns="http://www.w3.org/2000/svg" id="svg648643" viewbox="0 0 1024 768" height="768px" width="1024px" version="1.1"> <metadata id="metadata648649"> 
  <rdf:rdf> 
   <cc:work rdf:about=""> 
    <dc:format>
     image/svg+xml
    </dc:format> 
    <dc:type rdf:resource="http://purl.org/dc/dcmitype/StillImage"></dc:type> 
   </cc:work> 
  </rdf:rdf> 
 </metadata> <defs id="defs648647"></defs> <g id="logo-group"> 
  <g id="title" style="font-style:normal;font-weight:400;font-size:72px;line-height:1;font-family:Teko;font-variant-ligatures:none;text-align:center;text-anchor:middle" aria-label="O7Calling"> 
   <path id="path648651" style="font-style: normal; font-weight: 400; font-size: 72px; line-height: 1; font-family: Teko; font-variant-ligatures: none; text-align: center; text-anchor: middle; fill: rgb(183, 180, 175);" d="m 425.75356,74.928 h 7.992 q 6.696,0 6.696,6.336 v 32.4 q 0,6.336 -6.696,6.336 h -7.992 q -6.768,0 -6.768,-6.336 v -32.4 q 0,-6.336 6.768,-6.336 z m 8.208,37.728 V 82.272 q 0,-1.296 -0.432,-1.656 -0.432,-0.432 -1.728,-0.432 h -4.176 q -1.296,0 -1.728,0.432 -0.36,0.36 -0.36,1.656 v 30.384 q 0,1.296 0.36,1.728 0.432,0.36 1.728,0.36 h 4.176 q 1.296,0 1.728,-0.36 0.432,-0.432 0.432,-1.728 z" transform="translate(0 174.0175995002516) translate(252 150.4198606283233) scale(2.297937495039549) translate(-418.98556 -74.928)"></path> 
   <path id="path648653" style="font-style: normal; font-weight: 400; font-size: 72px; line-height: 1; font-family: Teko; font-variant-ligatures: none; text-align: center; text-anchor: middle; fill: rgb(183, 180, 175);" d="m 464.45919,74.928 v 4.032 l -12.096,41.04 h -6.624 l 11.736,-39.672 h -13.176 v -5.4 z" transform="translate(0 174.0175995002516) translate(321.6588269877557 150.4198606283233) scale(2.297937495039549) translate(-444.29919 -74.928)"></path> 
   <path id="path648655" style="font-style: normal; font-weight: 400; font-size: 72px; line-height: 1; font-family: Teko; font-variant-ligatures: none; text-align: center; text-anchor: middle; fill: rgb(159, 158, 154);" d="m 489.30031,89.04 h -6.624 v -6.912 q 0,-1.296 -0.432,-1.656 -0.36,-0.432 -1.656,-0.432 h -3.672 q -1.296,0 -1.728,0.432 -0.432,0.36 -0.432,1.656 v 30.744 q 0,1.296 0.432,1.728 0.432,0.36 1.728,0.36 h 3.672 q 1.296,0 1.656,-0.36 0.432,-0.432 0.432,-1.728 v -6.84 h 6.624 v 7.632 q 0,6.408 -6.768,6.408 h -7.632 q -6.696,0 -6.696,-6.408 v -32.4 q 0,-6.336 6.696,-6.336 h 7.632 q 6.768,0 6.768,6.336 z" transform="translate(0 174.0175995002516) translate(388.0809860343732 150.4198606283233) scale(2.297937495039549) translate(-468.20431 -74.928)"></path> 
   <path id="path648657" style="font-style: normal; font-weight: 400; font-size: 72px; line-height: 1; font-family: Teko; font-variant-ligatures: none; text-align: center; text-anchor: middle; fill: rgb(159, 158, 154);" d="m 508.23294,84.864 h 6.48 V 120 h -6.48 v -2.808 q -0.936,2.808 -4.464,2.808 h -2.592 q -6.48,0 -6.48,-6.336 V 91.272 q 0,-6.408 6.48,-6.408 h 2.592 q 3.528,0 4.464,2.808 z m -4.896,29.88 h 2.52 q 1.296,0 1.8,-0.576 0.576,-0.576 0.576,-1.944 V 92.64 q 0,-1.368 -0.576,-1.944 -0.504,-0.576 -1.8,-0.576 h -2.52 q -1.296,0 -1.728,0.432 -0.432,0.36 -0.432,1.656 v 20.448 q 0,1.296 0.432,1.728 0.432,0.36 1.728,0.36 z" transform="translate(0 174.0175995002516) translate(460.44908132878044 173.25216757903627) scale(2.297937495039549) translate(-494.69694 -84.864)"></path> 
   <path id="path648659" style="font-style: normal; font-weight: 400; font-size: 72px; line-height: 1; font-family: Teko; font-variant-ligatures: none; text-align: center; text-anchor: middle; fill: rgb(159, 158, 154);" d="m 527.48394,120 h -6.48 V 71.832 h 6.48 z" transform="translate(0 174.0175995002516) translate(532.3906104859834 143.30544614368085) scale(2.297937495039549) translate(-521.00394 -71.832)"></path> 
   <path id="path648661" style="font-style: normal; font-weight: 400; font-size: 72px; line-height: 1; font-family: Teko; font-variant-ligatures: none; text-align: center; text-anchor: middle; fill: rgb(159, 158, 154);" d="m 540.28081,120 h -6.48 V 71.832 h 6.48 z" transform="translate(0 174.0175995002516) translate(573.2867053533279 143.30544614368085) scale(2.297937495039549) translate(-533.80081 -71.832)"></path> 
   <path id="path648663" style="font-style: normal; font-weight: 400; font-size: 72px; line-height: 1; font-family: Teko; font-variant-ligatures: none; text-align: center; text-anchor: middle; fill: rgb(159, 158, 154);" d="M 546.45369,78.168 V 71.76 h 6.768 v 6.408 z m 6.624,41.832 h -6.48 V 84.864 h 6.48 z" transform="translate(0 174.0175995002516) translate(613.8519202007618 143.13999464403804) scale(2.297937495039549) translate(-546.45369 -71.76)"></path> 
   <path id="path648665" style="font-style: normal; font-weight: 400; font-size: 72px; line-height: 1; font-family: Teko; font-variant-ligatures: none; text-align: center; text-anchor: middle; fill: rgb(159, 158, 154);" d="m 570.33856,84.864 h 2.52 q 6.552,0 6.552,6.408 V 120 h -6.48 V 92.208 q 0,-1.296 -0.432,-1.656 -0.432,-0.432 -1.728,-0.432 h -2.52 q -1.296,0 -1.872,0.576 -0.504,0.576 -0.504,1.944 V 120 h -6.48 V 84.864 h 6.48 v 2.808 q 0.936,-2.808 4.464,-2.808 z" transform="translate(0 174.0175995002516) translate(655.0789180673917 173.25216757903627) scale(2.297937495039549) translate(-559.39456 -84.864)"></path> 
   <path id="path648667" style="font-style: normal; font-weight: 400; font-size: 72px; line-height: 1; font-family: Teko; font-variant-ligatures: none; text-align: center; text-anchor: middle; fill: rgb(159, 158, 154);" d="m 598.79544,84.864 h 6.48 V 123.6 q 0,6.336 -6.768,6.336 h -12.024 v -5.112 h 10.152 q 1.296,0 1.728,-0.432 0.432,-0.432 0.432,-1.656 v -5.976 q -0.936,2.808 -4.464,2.808 h -2.592 q -6.48,0 -6.48,-6.408 V 91.272 q 0,-6.408 6.48,-6.408 h 2.592 q 3.528,0 4.464,2.808 z m -4.896,29.448 h 2.52 q 1.296,0 1.8,-0.576 0.576,-0.576 0.576,-1.944 V 92.64 q 0,-1.368 -0.576,-1.944 -0.504,-0.576 -1.8,-0.576 h -2.52 q -1.296,0 -1.728,0.432 -0.432,0.36 -0.432,1.656 v 20.016 q 0,1.224 0.432,1.656 0.432,0.432 1.728,0.432 z" transform="translate(0 174.0175995002516) translate(726.0044830992882 173.25216757903627) scale(2.297937495039549) translate(-585.25944 -84.864)"></path> 
  </g> 
  <g id="tagline" style="font-style:oblique;font-weight:normal;font-size:32px;line-height:1;font-family:'Fira Sans Condensed';font-variant-ligatures:none;text-align:center;text-anchor:middle"></g> 
 </g> 
</svg>