<svg xmlns:dc="http://purl.org/dc/elements/1.1/" xmlns:cc="http://creativecommons.org/ns#" xmlns:rdf="http://www.w3.org/1999/02/22-rdf-syntax-ns#" xmlns:svg="http://www.w3.org/2000/svg" xmlns="http://www.w3.org/2000/svg" id="svg35893" viewbox="0 0 1024 768" height="768px" width="1024px" version="1.1"> <metadata id="metadata35899"> 
  <rdf:rdf> 
   <cc:work rdf:about=""> 
    <dc:format>
     image/svg+xml
    </dc:format> 
    <dc:type rdf:resource="http://purl.org/dc/dcmitype/StillImage"></dc:type> 
   </cc:work> 
  </rdf:rdf> 
 </metadata> <defs id="defs35897"></defs> <g id="logo-group"> 
  <g id="title" style="font-style:normal;font-weight:700;font-size:72px;line-height:1;font-family:'Comfortaa Bold Alt1';font-variant-ligatures:none;text-align:center;text-anchor:middle" aria-label="o7component"> 
   <path id="path35901" style="font-style: normal; font-weight: 700; font-size: 72px; line-height: 1; font-family: &quot;Comfortaa Bold Alt1&quot;; font-variant-ligatures: none; text-align: center; text-anchor: middle; fill: rgb(154, 215, 216);" d="m 293.363,82.92 c -3.024,-1.728 -6.408,-2.592 -10.152,-2.592 -3.888,0 -7.272,0.864 -10.296,2.592 -3.024,1.728 -5.4,4.032 -7.056,7.056 -1.728,3.024 -2.52,6.48 -2.52,10.368 0,3.888 0.792,7.272 2.52,10.296 1.656,3.024 4.032,5.4 7.056,7.128 3.024,1.728 6.408,2.52 10.296,2.52 3.816,0 7.2,-0.792 10.224,-2.52 3.024,-1.728 5.328,-4.104 7.056,-7.128 1.656,-3.024 2.52,-6.408 2.52,-10.296 0,-3.888 -0.864,-7.344 -2.592,-10.368 -1.728,-3.024 -4.032,-5.328 -7.056,-7.056 z m -16.776,5.616 c 1.944,-1.152 4.176,-1.728 6.624,-1.728 2.448,0 4.608,0.576 6.552,1.728 1.944,1.152 3.456,2.808 4.536,4.824 1.08,2.088 1.656,4.392 1.656,6.984 0,2.592 -0.576,4.968 -1.656,6.984 -1.08,2.016 -2.592,3.6 -4.536,4.752 -1.944,1.152 -4.104,1.728 -6.552,1.728 -2.448,0 -4.68,-0.576 -6.624,-1.728 -1.944,-1.152 -3.456,-2.736 -4.536,-4.752 -1.152,-2.016 -1.656,-4.392 -1.656,-6.984 0,-2.592 0.504,-4.896 1.656,-6.984 1.08,-2.016 2.592,-3.672 4.536,-4.824 z" transform="translate(0 306.57890909090906) translate(216.85915000000006 59.25745454545455) scale(0.9090909090909091) translate(-263.339 -80.328)"></path> 
   <path id="path35903" style="font-style: normal; font-weight: 700; font-size: 72px; line-height: 1; font-family: &quot;Comfortaa Bold Alt1&quot;; font-variant-ligatures: none; text-align: center; text-anchor: middle; fill: rgb(154, 215, 216);" d="m 306.62788,70.104 c 0.71999,0.72 1.584,1.008 2.66399,1.008 h 21.888 l -20.664,42.912 c -0.432,0.864 -0.64799,1.656 -0.64799,2.304 0,1.008 0.35999,1.872 1.07999,2.592 0.72,0.72 1.512,1.08 2.52,1.08 0.64801,0 1.296,-0.144 1.944,-0.504 0.576,-0.36 1.08,-0.864 1.44,-1.512 l 23.04001,-48.6 c 0.28799,-0.72 0.50399,-1.368 0.50399,-1.944 0,-1.008 -0.35999,-1.872 -1.08,-2.592 -0.72,-0.72 -1.584,-1.08 -2.59199,-1.08 h -27.43201 c -1.07999,0 -1.944,0.36 -2.66399,1.08 -0.72001,0.72 -1.00801,1.584 -1.00801,2.592 0,1.08 0.288,1.944 1.00801,2.664 z" transform="translate(0 306.57890909090906) translate(268.93266818181826 44.20290909090909) scale(0.9090909090909091) translate(-305.61987 -63.768)"></path> 
   <path id="path35905" style="font-style: normal; font-weight: 700; font-size: 72px; line-height: 1; font-family: &quot;Comfortaa Bold Alt1&quot;; font-variant-ligatures: none; text-align: center; text-anchor: middle; fill: rgb(236, 170, 121);" d="m 372.75988,86.808 c -3.74401,-4.32 -8.49601,-6.48 -14.11201,-6.48 -3.74399,0 -7.12799,0.864 -10.07999,2.592 -3.024,1.728 -5.32801,4.104 -6.98401,7.128 -1.656,3.024 -2.448,6.48 -2.448,10.296 0,3.744 0.792,7.2 2.52,10.224 1.728,3.024 4.10401,5.4 7.12801,7.128 3.024,1.728 6.40799,2.592 10.224,2.592 5.18399,0 9.504,-1.584 12.95999,-4.824 0.57601,-0.576 0.86401,-1.224 0.86401,-1.944 0,-0.936 -0.50401,-1.8 -1.368,-2.592 -0.57601,-0.432 -1.22401,-0.648 -1.872,-0.648 -0.86401,0 -1.80001,0.36 -2.66401,1.008 -2.016,1.728 -4.67999,2.52 -7.91999,2.52 -2.52001,0 -4.75201,-0.576 -6.69601,-1.728 -1.94399,-1.152 -3.45599,-2.736 -4.536,-4.752 -1.08,-2.016 -1.584,-4.392 -1.584,-6.984 0,-4.032 1.15201,-7.344 3.456,-9.792 2.304,-2.448 5.25601,-3.744 9,-3.744 1.8,0 3.38401,0.36 4.824,0.936 1.44,0.576 2.736,1.512 3.96,2.808 0.72001,0.864 1.656,1.296 2.808,1.296 0.576,0 1.15201,-0.144 1.656,-0.504 1.008,-0.72 1.584,-1.584 1.584,-2.664 0,-0.72 -0.288,-1.296 -0.71999,-1.872 z" transform="translate(0 306.57890909090906) translate(313.0381227272728 59.25745454545455) scale(0.9090909090909091) translate(-339.13587 -80.328)"></path> 
   <path id="path35907" style="font-style: normal; font-weight: 700; font-size: 72px; line-height: 1; font-family: &quot;Comfortaa Bold Alt1&quot;; font-variant-ligatures: none; text-align: center; text-anchor: middle; fill: rgb(236, 170, 121);" d="m 412.47237,82.92 c -3.024,-1.728 -6.408,-2.592 -10.15199,-2.592 -3.88801,0 -7.272,0.864 -10.296,2.592 -3.024,1.728 -5.40001,4.032 -7.05601,7.056 -1.728,3.024 -2.52,6.48 -2.52,10.368 0,3.888 0.792,7.272 2.52,10.296 1.656,3.024 4.03201,5.4 7.05601,7.128 3.024,1.728 6.40799,2.52 10.296,2.52 3.81599,0 7.19999,-0.792 10.22399,-2.52 3.024,-1.728 5.32801,-4.104 7.056,-7.128 1.656,-3.024 2.52,-6.408 2.52,-10.296 0,-3.888 -0.864,-7.344 -2.592,-10.368 -1.72799,-3.024 -4.032,-5.328 -7.056,-7.056 z m -16.776,5.616 c 1.944,-1.152 4.176,-1.728 6.62401,-1.728 2.44799,0 4.608,0.576 6.55199,1.728 1.944,1.152 3.456,2.808 4.536,4.824 1.08001,2.088 1.656,4.392 1.656,6.984 0,2.592 -0.57599,4.968 -1.656,6.984 -1.08,2.016 -2.592,3.6 -4.536,4.752 -1.94399,1.152 -4.104,1.728 -6.55199,1.728 -2.44801,0 -4.68001,-0.576 -6.62401,-1.728 -1.94399,-1.152 -3.456,-2.736 -4.536,-4.752 -1.152,-2.016 -1.656,-4.392 -1.656,-6.984 0,-2.592 0.504,-4.896 1.656,-6.984 1.08,-2.016 2.59201,-3.672 4.536,-4.824 z" transform="translate(0 306.57890909090906) translate(366.0494863636365 59.25745454545455) scale(0.9090909090909091) translate(-382.44837 -80.328)"></path> 
   <path id="path35909" style="font-style: normal; font-weight: 700; font-size: 72px; line-height: 1; font-family: &quot;Comfortaa Bold Alt1&quot;; font-variant-ligatures: none; text-align: center; text-anchor: middle; fill: rgb(236, 170, 121);" d="m 484.60062,84.36 c -2.592,-2.736 -5.976,-4.104 -10.08,-4.104 -14.904,0 -22.68,0 -23.39999,0 h -0.57601 -13.968 c -0.936,0 -1.79999,0.36 -2.448,1.008 -0.72,0.72 -1.00799,1.512 -1.00799,2.448 0,0.072 0,0.216 0,0.36 0,0.144 0,0.216 0,0.288 v 32.04 c 0,1.08 0.28799,1.944 1.00799,2.664 0.72001,0.72 1.584,1.008 2.664,1.008 1.08,0 1.944,-0.288 2.664,-1.008 0.648,-0.72 1.008,-1.584 1.008,-2.664 V 96.096 c 0,-2.664 0.792,-4.824 2.376,-6.624 1.584,-1.728 3.67201,-2.592 6.264,-2.592 2.448,0 4.392,0.792 5.832,2.304 1.44,1.512 2.23201,3.744 2.23201,6.624 V 116.4 c 0,1.08 0.28799,1.944 1.00799,2.664 0.72,0.72 1.584,1.008 2.664,1.008 1.08,0 1.944,-0.288 2.66401,-1.008 0.64799,-0.72 1.008,-1.584 1.008,-2.664 V 96.096 c 0,-2.664 0.79199,-4.824 2.37599,-6.624 1.584,-1.728 3.67201,-2.592 6.192,-2.592 2.44801,0 4.392,0.792 5.832,2.304 1.44,1.512 2.23201,3.744 2.23201,6.624 V 116.4 c 0,1.08 0.288,1.944 1.00799,2.664 0.72,0.72 1.584,1.008 2.664,1.008 1.08001,0 1.944,-0.288 2.664,-1.008 0.648,-0.72 1.00801,-1.584 1.00801,-2.664 V 95.808 c 0,-4.896 -1.296,-8.712 -3.88801,-11.448 z" transform="translate(0 306.57890909090906) translate(425.7515409090911 59.19199999999999) scale(0.9090909090909091) translate(-433.12063 -80.256)"></path> 
   <path id="path35911" style="font-style: normal; font-weight: 700; font-size: 72px; line-height: 1; font-family: &quot;Comfortaa Bold Alt1&quot;; font-variant-ligatures: none; text-align: center; text-anchor: middle; fill: rgb(236, 170, 121);" d="m 540.29263,100.344 c 0,-3.744 -0.86401,-7.128 -2.59201,-10.152 -1.728,-3.024 -4.17599,-5.472 -7.19999,-7.2 -3.024,-1.728 -6.40801,-2.664 -10.08001,-2.664 h -0.288 -0.144 -15.912 c -1.008,0 -1.79999,0.36 -2.448,1.008 -0.72,0.72 -1.00799,1.512 -1.00799,2.448 v 15.336 1.224 32.832 c 0,1.152 0.28799,2.016 1.00799,2.664 0.64801,0.72 1.512,1.008 2.664,1.008 1.00801,0 1.872,-0.288 2.59201,-1.008 0.71999,-0.648 1.07999,-1.512 1.07999,-2.664 v -19.44 c 1.65601,2.088 3.672,3.672 6.12,4.824 2.37601,1.152 4.96801,1.728 7.77601,1.728 3.456,0 6.552,-0.864 9.36,-2.592 2.808,-1.728 5.03999,-4.104 6.62399,-7.128 1.584,-3.024 2.44801,-6.48 2.44801,-10.224 z m -7.05601,0 c 0,2.592 -0.576,4.896 -1.72799,6.912 -1.15201,2.016 -2.66401,3.672 -4.60801,4.824 -1.94399,1.152 -4.104,1.728 -6.48,1.728 -2.448,0 -4.60799,-0.576 -6.552,-1.728 -1.944,-1.152 -3.456,-2.808 -4.536,-4.824 -1.15199,-2.016 -1.656,-4.32 -1.656,-6.912 0,-2.52 0.50401,-4.824 1.656,-6.912 1.08,-2.016 2.592,-3.672 4.536,-4.824 1.94401,-1.152 4.104,-1.8 6.552,-1.8 2.376,0 4.53601,0.648 6.48,1.8 1.944,1.152 3.456,2.808 4.60801,4.824 1.15199,2.088 1.72799,4.392 1.72799,6.912 z" transform="translate(0 306.57890909090906) translate(500.7515409090911 59.25745454545455) scale(0.9090909090909091) translate(-500.62063 -80.328)"></path> 
   <path id="path35913" style="font-style: normal; font-weight: 700; font-size: 72px; line-height: 1; font-family: &quot;Comfortaa Bold Alt1&quot;; font-variant-ligatures: none; text-align: center; text-anchor: middle; fill: rgb(236, 170, 121);" d="m 579.25363,82.92 c -3.02401,-1.728 -6.408,-2.592 -10.152,-2.592 -3.88801,0 -7.27201,0.864 -10.29601,2.592 -3.024,1.728 -5.4,4.032 -7.05599,7.056 -1.72801,3.024 -2.52,6.48 -2.52,10.368 0,3.888 0.79199,7.272 2.52,10.296 1.65599,3.024 4.03199,5.4 7.05599,7.128 3.024,1.728 6.408,2.52 10.29601,2.52 3.816,0 7.2,-0.792 10.22399,-2.52 3.02401,-1.728 5.32801,-4.104 7.056,-7.128 1.65601,-3.024 2.52,-6.408 2.52,-10.296 0,-3.888 -0.86399,-7.344 -2.592,-10.368 -1.72799,-3.024 -4.032,-5.328 -7.05599,-7.056 z m -16.77601,5.616 c 1.944,-1.152 4.17601,-1.728 6.62401,-1.728 2.44799,0 4.60799,0.576 6.552,1.728 1.94399,1.152 3.456,2.808 4.53599,4.824 1.08001,2.088 1.65601,4.392 1.65601,6.984 0,2.592 -0.576,4.968 -1.65601,6.984 -1.07999,2.016 -2.592,3.6 -4.53599,4.752 -1.94401,1.152 -4.10401,1.728 -6.552,1.728 -2.448,0 -4.68001,-0.576 -6.62401,-1.728 -1.94399,-1.152 -3.456,-2.736 -4.53599,-4.752 -1.15201,-2.016 -1.65601,-4.392 -1.65601,-6.984 0,-2.592 0.504,-4.896 1.65601,-6.984 1.07999,-2.016 2.592,-3.672 4.53599,-4.824 z" transform="translate(0 306.57890909090906) translate(558.5779045454547 59.25745454545455) scale(0.9090909090909091) translate(-549.22963 -80.328)"></path> 
   <path id="path35915" style="font-style: normal; font-weight: 700; font-size: 72px; line-height: 1; font-family: &quot;Comfortaa Bold Alt1&quot;; font-variant-ligatures: none; text-align: center; text-anchor: middle; fill: rgb(236, 170, 121);" d="m 634.60587,88.752 c -1.51199,-2.736 -3.59999,-4.896 -6.192,-6.336 -2.52,-1.296 -5.256,-2.016 -8.28,-2.088 -0.072,0 -0.216,-0.072 -0.216,-0.072 h -16.55999 c -1.00801,0 -1.80001,0.36 -2.448,1.008 -0.72,0.72 -1.008,1.512 -1.008,2.448 0,0.072 0,0.216 0,0.288 0,0.144 0,0.216 0,0.288 V 116.4 c 0,1.08 0.288,1.944 1.008,2.664 0.71999,0.72 1.58399,1.008 2.664,1.008 1.07999,0 1.94399,-0.288 2.664,-1.008 0.648,-0.72 1.00799,-1.584 1.00799,-2.664 V 96.096 c 0,-1.728 0.432,-3.24 1.368,-4.68 0.93601,-1.368 2.232,-2.448 3.88801,-3.312 1.65599,-0.792 3.52799,-1.224 5.544,-1.224 3.456,0 6.192,1.008 8.27999,3.024 2.088,2.016 3.168,4.968 3.168,8.784 V 116.4 c 0,1.08 0.28801,1.944 1.00801,2.664 0.71999,0.72 1.58399,1.008 2.664,1.008 1.00799,0 1.87199,-0.288 2.592,-1.008 0.72,-0.72 1.07999,-1.584 1.07999,-2.664 V 98.688 c 0,-3.888 -0.79199,-7.2 -2.232,-9.936 z" transform="translate(0 306.57890909090906) translate(618.27995 59.19199999999999) scale(0.9090909090909091) translate(-599.90188 -80.256)"></path> 
   <path id="path35917" style="font-style: normal; font-weight: 700; font-size: 72px; line-height: 1; font-family: &quot;Comfortaa Bold Alt1&quot;; font-variant-ligatures: none; text-align: center; text-anchor: middle; fill: rgb(236, 170, 121);" d="m 683.396,102 c 0.576,-0.576 0.936,-1.368 0.936,-2.304 0,-3.744 -0.72,-7.128 -2.16,-10.08 -1.44,-2.88 -3.528,-5.184 -6.192,-6.84 -2.736,-1.584 -5.904,-2.448 -9.576,-2.448 -3.744,0 -7.128,0.864 -10.08,2.592 -2.952,1.728 -5.256,4.104 -6.912,7.128 -1.656,3.024 -2.448,6.48 -2.448,10.296 0,3.888 0.864,7.272 2.592,10.296 1.728,3.024 4.176,5.4 7.344,7.128 3.096,1.728 6.624,2.52 10.584,2.52 2.16,0 4.464,-0.36 6.912,-1.224 2.448,-0.792 4.464,-1.872 6.12,-3.168 0.72,-0.576 1.152,-1.296 1.152,-2.16 0,-0.864 -0.432,-1.728 -1.296,-2.448 -0.576,-0.432 -1.296,-0.72 -2.16,-0.72 -0.936,0 -1.728,0.288 -2.376,0.792 -1.008,0.792 -2.304,1.44 -3.888,1.944 -1.584,0.576 -3.024,0.792 -4.464,0.792 -3.672,0 -6.768,-1.008 -9.288,-3.096 -2.52,-2.016 -4.032,-4.752 -4.536,-8.136 h 27.36 c 0.936,0 1.728,-0.288 2.376,-0.864 z m -25.56,-12.6 c 2.16,-1.872 5.04,-2.88 8.568,-2.88 3.168,0 5.688,1.008 7.704,2.88 1.944,1.944 3.168,4.536 3.6,7.704 h -23.976 c 0.576,-3.168 1.944,-5.76 4.104,-7.704 z" transform="translate(0 306.57890909090906) translate(674.7000590909092 59.25745454545455) scale(0.9090909090909091) translate(-646.964 -80.328)"></path> 
   <path id="path35919" style="font-style: normal; font-weight: 700; font-size: 72px; line-height: 1; font-family: &quot;Comfortaa Bold Alt1&quot;; font-variant-ligatures: none; text-align: center; text-anchor: middle; fill: rgb(236, 170, 121);" d="m 728.40275,88.752 c -1.512,-2.736 -3.6,-4.896 -6.192,-6.336 -2.52,-1.296 -5.256,-2.016 -8.28,-2.088 -0.072,0 -0.216,-0.072 -0.216,-0.072 h -16.56 c -1.008,0 -1.8,0.36 -2.448,1.008 -0.72,0.72 -1.008,1.512 -1.008,2.448 0,0.072 0,0.216 0,0.288 0,0.144 0,0.216 0,0.288 V 116.4 c 0,1.08 0.288,1.944 1.008,2.664 0.72,0.72 1.584,1.008 2.664,1.008 1.08,0 1.944,-0.288 2.664,-1.008 0.648,-0.72 1.008,-1.584 1.008,-2.664 V 96.096 c 0,-1.728 0.432,-3.24 1.368,-4.68 0.936,-1.368 2.232,-2.448 3.888,-3.312 1.656,-0.792 3.528,-1.224 5.544,-1.224 3.456,0 6.192,1.008 8.28,3.024 2.088,2.016 3.168,4.968 3.168,8.784 V 116.4 c 0,1.08 0.288,1.944 1.008,2.664 0.72,0.72 1.584,1.008 2.664,1.008 1.008,0 1.872,-0.288 2.592,-1.008 0.72,-0.72 1.08,-1.584 1.08,-2.664 V 98.688 c 0,-3.888 -0.792,-7.2 -2.232,-9.936 z" transform="translate(0 306.57890909090906) translate(730.8225590909092 59.19199999999999) scale(0.9090909090909091) translate(-693.69875 -80.256)"></path> 
   <path id="path35921" style="font-style: normal; font-weight: 700; font-size: 72px; line-height: 1; font-family: &quot;Comfortaa Bold Alt1&quot;; font-variant-ligatures: none; text-align: center; text-anchor: middle; fill: rgb(236, 170, 121);" d="m 744.43287,82.056 v 6.192 17.784 c 0,2.664 0.504,5.04 1.65601,7.128 1.07999,2.16 2.592,3.816 4.53599,5.04 1.94401,1.224 4.10401,1.8 6.48,1.8 h 1.29601 c 1.22399,0 2.232,-0.288 3.024,-1.008 0.79199,-0.648 1.22399,-1.512 1.22399,-2.592 0,-1.008 -0.36,-1.872 -0.936,-2.592 -0.57599,-0.648 -1.296,-1.008 -2.16,-1.008 h -2.448 c -1.58399,0 -2.88,-0.648 -3.888,-1.944 -1.07999,-1.296 -1.58399,-2.88 -1.58399,-4.824 V 88.248 h 6.12 c 1.00799,0 1.79999,-0.288 2.44799,-0.864 0.57601,-0.576 0.93601,-1.296 0.93601,-2.16 0,-0.936 -0.36,-1.728 -0.93601,-2.304 -0.648,-0.576 -1.44,-0.864 -2.44799,-0.864 h -6.12 V 71.688 c 0,-1.008 -0.36001,-1.872 -1.00801,-2.592 -0.72,-0.648 -1.58399,-1.008 -2.592,-1.008 -1.08,0 -1.94399,0.36 -2.592,1.008 -0.72,0.72 -1.008,1.584 -1.008,2.592 z" transform="translate(0 306.57890909090906) translate(790.58085 48.13018181818181) scale(0.9090909090909091) translate(-744.43287 -68.088)"></path> 
  </g> 
  <g id="tagline" style="font-style:normal;font-weight:500;font-size:32px;line-height:1;font-family:Raleway;font-variant-ligatures:none;text-align:center;text-anchor:middle"></g> 
 </g> 
</svg>