<svg xmlns:dc="http://purl.org/dc/elements/1.1/" xmlns:cc="http://creativecommons.org/ns#" xmlns:rdf="http://www.w3.org/1999/02/22-rdf-syntax-ns#" xmlns:svg="http://www.w3.org/2000/svg" xmlns="http://www.w3.org/2000/svg" id="svg94076" viewbox="0 0 1024 768" height="768px" width="1024px" version="1.1"> <metadata id="metadata94082"> 
  <rdf:rdf> 
   <cc:work rdf:about=""> 
    <dc:format>
     image/svg+xml
    </dc:format> 
    <dc:type rdf:resource="http://purl.org/dc/dcmitype/StillImage"></dc:type> 
   </cc:work> 
  </rdf:rdf> 
 </metadata> <defs id="defs94080"></defs> <g id="logo-group"> 
  <g id="title" style="font-style:normal;font-weight:200;font-size:72px;line-height:1;font-family:Phenomena;font-variant-ligatures:none;text-align:center;text-anchor:middle" aria-label="o7Cougar"> 
   <path id="path94084" style="font-style: normal; font-weight: 200; font-size: 72px; line-height: 1; font-family: Phenomena; font-variant-ligatures: none; text-align: center; text-anchor: middle; fill: rgb(52, 39, 46);" d="m 418.04844,120.504 c 6.408,0 10.224,-4.752 10.224,-10.944 V 94.44 c 0,-6.192 -3.816,-10.944 -10.224,-10.944 -6.408,0 -10.224,4.752 -10.224,10.944 v 15.12 c 0,6.192 3.816,10.944 10.224,10.944 z m 0,-1.296 c -5.544,0 -8.856,-4.248 -8.856,-9.648 V 94.44 c 0,-5.4 3.312,-9.648 8.856,-9.648 5.544,0 8.856,4.248 8.856,9.648 v 15.12 c 0,5.4 -3.312,9.648 -8.856,9.648 z" transform="translate(0 174.35241481526424) translate(252 167.9527561071091) scale(2.2402121791116834) translate(-407.82444 -83.496)"></path> 
   <path id="path94086" style="font-style: normal; font-weight: 200; font-size: 72px; line-height: 1; font-family: Phenomena; font-variant-ligatures: none; text-align: center; text-anchor: middle; fill: rgb(52, 39, 46);" d="m 434.63656,69.96 v 0.648 c 0,0.216 0.144,0.36 0.36,0.36 h 18 l -12.168,48.6 c -0.072,0.288 0.144,0.432 0.36,0.432 h 0.72 c 0.216,0 0.288,-0.072 0.36,-0.288 l 12.24,-48.816 c 0.072,-0.36 0.072,-0.576 0.072,-0.864 0,-0.288 -0.216,-0.432 -0.432,-0.432 h -19.152 c -0.216,0 -0.36,0.144 -0.36,0.36 z" transform="translate(0 174.35241481526424) translate(318.78547430913903 136.82276766617315) scale(2.2402121791116834) translate(-434.63656 -69.6)"></path> 
   <path id="path94088" style="font-style: normal; font-weight: 200; font-size: 72px; line-height: 1; font-family: Phenomena; font-variant-ligatures: none; text-align: center; text-anchor: middle; fill: rgb(209, 190, 150);" d="m 473.34781,120.504 c 6.624,0 11.16,-4.968 11.376,-11.448 0,-0.288 -0.144,-0.432 -0.36,-0.432 h -0.72 c -0.216,0 -0.36,0.144 -0.36,0.36 -0.144,5.832 -3.96,10.152 -9.936,10.152 -5.688,0 -9.936,-4.464 -9.936,-10.512 V 80.976 c 0,-5.976 4.248,-10.512 9.936,-10.512 5.76,0 9.432,4.392 9.576,10.152 0,0.216 0.144,0.36 0.36,0.36 h 0.72 c 0.216,0 0.36,-0.144 0.36,-0.36 -0.144,-6.408 -4.608,-11.52 -11.016,-11.52 -6.552,0 -11.376,5.256 -11.376,11.88 v 27.648 c 0,6.696 4.824,11.88 11.376,11.88 z" transform="translate(0 174.35241481526424) translate(386.7428708155368 135.69370072790088) scale(2.2402121791116834) translate(-461.97181 -69.096)"></path> 
   <path id="path94090" style="font-style: normal; font-weight: 200; font-size: 72px; line-height: 1; font-family: Phenomena; font-variant-ligatures: none; text-align: center; text-anchor: middle; fill: rgb(209, 190, 150);" d="m 500.59531,120.504 c 6.408,0 10.224,-4.752 10.224,-10.944 V 94.44 c 0,-6.192 -3.816,-10.944 -10.224,-10.944 -6.408,0 -10.224,4.752 -10.224,10.944 v 15.12 c 0,6.192 3.816,10.944 10.224,10.944 z m 0,-1.296 c -5.544,0 -8.856,-4.248 -8.856,-9.648 V 94.44 c 0,-5.4 3.312,-9.648 8.856,-9.648 5.544,0 8.856,4.248 8.856,9.648 v 15.12 c 0,5.4 -3.312,9.648 -8.856,9.648 z" transform="translate(0 174.35241481526424) translate(457.084413133554 167.9527561071091) scale(2.2402121791116834) translate(-490.37131 -83.496)"></path> 
   <path id="path94092" style="font-style: normal; font-weight: 200; font-size: 72px; line-height: 1; font-family: Phenomena; font-variant-ligatures: none; text-align: center; text-anchor: middle; fill: rgb(209, 190, 150);" d="m 519.50094,84 c -0.216,0 -0.36,0.144 -0.36,0.36 v 24.624 c 0,6.768 3.312,11.52 9.792,11.52 6.48,0 9.792,-4.752 9.792,-11.52 V 84.36 c 0,-0.216 -0.144,-0.36 -0.36,-0.36 h -0.648 c -0.216,0 -0.36,0.144 -0.36,0.36 v 24.624 c 0,6.048 -2.664,10.224 -8.424,10.224 -5.76,0 -8.424,-4.176 -8.424,-10.224 V 84.36 c 0,-0.216 -0.144,-0.36 -0.36,-0.36 z" transform="translate(0 174.35241481526424) translate(528.255125185426 169.08182304538138) scale(2.2402121791116834) translate(-519.14094 -84)"></path> 
   <path id="path94094" style="font-style: normal; font-weight: 200; font-size: 72px; line-height: 1; font-family: Phenomena; font-variant-ligatures: none; text-align: center; text-anchor: middle; fill: rgb(209, 190, 150);" d="m 557.82969,83.496 c -6.048,0 -10.224,4.824 -10.224,11.088 v 13.968 c 0,6.624 4.176,11.448 10.224,11.448 3.888,0 7.272,-2.16 8.856,-5.832 v 10.152 c 0,5.256 -3.312,9.504 -8.928,9.504 -5.472,0 -8.64,-3.96 -8.784,-8.928 0,-0.216 -0.144,-0.36 -0.36,-0.36 h -0.648 c -0.216,0 -0.36,0.144 -0.36,0.36 0.144,5.688 3.96,10.224 10.152,10.224 6.408,0 10.296,-4.824 10.296,-10.8 V 94.584 c 0,-6.264 -4.176,-11.088 -10.224,-11.088 z m 0,35.208 c -5.256,0 -8.856,-4.248 -8.856,-10.152 V 94.584 c 0,-5.544 3.6,-9.792 8.856,-9.792 5.256,0 8.856,4.248 8.856,9.792 v 13.968 c 0,5.904 -3.6,10.152 -8.856,10.152 z" transform="translate(0 174.35241481526424) translate(598.7428413481304 167.9527561071091) scale(2.2402121791116834) translate(-547.60569 -83.496)"></path> 
   <path id="path94096" style="font-style: normal; font-weight: 200; font-size: 72px; line-height: 1; font-family: Phenomena; font-variant-ligatures: none; text-align: center; text-anchor: middle; fill: rgb(209, 190, 150);" d="m 587.07969,120.504 c 6.192,0 9.648,-4.32 9.648,-11.16 V 94.368 c 0,-6.84 -3.672,-10.872 -9.648,-10.872 -6.264,0 -9.864,3.888 -10.152,9.144 0,0.216 0.144,0.36 0.36,0.36 h 0.648 c 0.216,0 0.36,-0.144 0.36,-0.36 0.288,-4.464 3.384,-7.848 8.784,-7.848 5.112,0 8.28,3.528 8.28,9.576 v 4.896 h -7.632 c -7.488,0 -11.376,3.816 -11.376,10.08 0,7.128 3.888,11.16 10.728,11.16 z m 0,-1.296 c -5.976,0 -9.36,-3.6 -9.36,-9.864 0,-5.472 3.384,-8.784 10.008,-8.784 h 7.632 v 8.784 c 0,6.048 -2.952,9.864 -8.28,9.864 z" transform="translate(0 174.35241481526424) translate(669.8606171862099 167.9527561071091) scale(2.2402121791116834) translate(-576.35169 -83.496)"></path> 
   <path id="path94098" style="font-style: normal; font-weight: 200; font-size: 72px; line-height: 1; font-family: Phenomena; font-variant-ligatures: none; text-align: center; text-anchor: middle; fill: rgb(209, 190, 150);" d="m 605.98531,120 h 0.648 c 0.216,0 0.36,-0.144 0.36,-0.36 V 95.16 c 0,-5.976 3.96,-10.008 9.432,-10.008 h 2.16 c 0.216,0 0.36,-0.144 0.36,-0.36 v -0.576 c 0,-0.216 -0.144,-0.36 -0.36,-0.36 h -2.16 c -6.192,0 -10.8,4.608 -10.8,11.304 v 24.48 c 0,0.216 0.144,0.36 0.36,0.36 z" transform="translate(0 174.35241481526424) translate(742.1603737742324 168.7592324915893) scale(2.2402121791116834) translate(-605.62531 -83.856)"></path> 
  </g> 
  <g id="tagline" style="font-style:oblique;font-weight:300;font-size:32px;line-height:1;font-family:'Fira Sans Condensed';font-variant-ligatures:none;text-align:center;text-anchor:middle"></g> 
 </g> 
</svg>