<svg xmlns:dc="http://purl.org/dc/elements/1.1/" xmlns:cc="http://creativecommons.org/ns#" xmlns:rdf="http://www.w3.org/1999/02/22-rdf-syntax-ns#" xmlns:svg="http://www.w3.org/2000/svg" xmlns="http://www.w3.org/2000/svg" id="svg952296" viewbox="0 0 1024 768" height="768px" width="1024px" version="1.1"> <metadata id="metadata952302"> 
  <rdf:rdf> 
   <cc:work rdf:about=""> 
    <dc:format>
     image/svg+xml
    </dc:format> 
    <dc:type rdf:resource="http://purl.org/dc/dcmitype/StillImage"></dc:type> 
   </cc:work> 
  </rdf:rdf> 
 </metadata> <defs id="defs952300"></defs> <g id="logo-group"> 
  <g id="title" style="font-style:normal;font-weight:700;font-size:72px;line-height:1;font-family:'Comfortaa Bold Alt1';font-variant-ligatures:none;text-align:center;text-anchor:middle" aria-label="o7century"> 
   <path id="path952304" style="font-style: normal; font-weight: 700; font-size: 72px; line-height: 1; font-family: &quot;Comfortaa Bold Alt1&quot;; font-variant-ligatures: none; text-align: center; text-anchor: middle; fill: rgb(255, 255, 255);" d="m 364.16769,82.92 c -3.024,-1.728 -6.408,-2.592 -10.152,-2.592 -3.888,0 -7.272,0.864 -10.296,2.592 -3.024,1.728 -5.4,4.032 -7.056,7.056 -1.728,3.024 -2.52,6.48 -2.52,10.368 0,3.888 0.792,7.272 2.52,10.296 1.656,3.024 4.032,5.4 7.056,7.128 3.024,1.728 6.408,2.52 10.296,2.52 3.816,0 7.2,-0.792 10.224,-2.52 3.024,-1.728 5.328,-4.104 7.056,-7.128 1.656,-3.024 2.52,-6.408 2.52,-10.296 0,-3.888 -0.864,-7.344 -2.592,-10.368 -1.728,-3.024 -4.032,-5.328 -7.056,-7.056 z m -16.776,5.616 c 1.944,-1.152 4.176,-1.728 6.624,-1.728 2.448,0 4.608,0.576 6.552,1.728 1.944,1.152 3.456,2.808 4.536,4.824 1.08,2.088 1.656,4.392 1.656,6.984 0,2.592 -0.576,4.968 -1.656,6.984 -1.08,2.016 -2.592,3.6 -4.536,4.752 -1.944,1.152 -4.104,1.728 -6.552,1.728 -2.448,0 -4.68,-0.576 -6.624,-1.728 -1.944,-1.152 -3.456,-2.736 -4.536,-4.752 -1.152,-2.016 -1.656,-4.392 -1.656,-6.984 0,-2.592 0.504,-4.896 1.656,-6.984 1.08,-2.016 2.592,-3.672 4.536,-4.824 z" transform="translate(0 261.7027384188108) translate(252.0000000000001 94.96076459645224) scale(1.3535599616130394) translate(-334.14369 -80.328)"></path> 
   <path id="path952306" style="font-style: normal; font-weight: 700; font-size: 72px; line-height: 1; font-family: &quot;Comfortaa Bold Alt1&quot;; font-variant-ligatures: none; text-align: center; text-anchor: middle; fill: rgb(255, 255, 255);" d="m 377.43256,70.104 c 0.72,0.72 1.584,1.008 2.664,1.008 h 21.888 l -20.664,42.912 c -0.432,0.864 -0.648,1.656 -0.648,2.304 0,1.008 0.36,1.872 1.08,2.592 0.72,0.72 1.512,1.08 2.52,1.08 0.648,0 1.296,-0.144 1.944,-0.504 0.576,-0.36 1.08,-0.864 1.44,-1.512 l 23.04,-48.6 c 0.288,-0.72 0.504,-1.368 0.504,-1.944 0,-1.008 -0.36,-1.872 -1.08,-2.592 -0.72,-0.72 -1.584,-1.08 -2.592,-1.08 h -27.432 c -1.08,0 -1.944,0.36 -2.664,1.08 -0.72,0.72 -1.008,1.584 -1.008,2.592 0,1.08 0.288,1.944 1.008,2.664 z" transform="translate(0 261.7027384188108) translate(313.29037265900513 72.5458116321403) scale(1.3535599616130394) translate(-376.42456 -63.768)"></path> 
   <path id="path952308" style="font-style: normal; font-weight: 700; font-size: 72px; line-height: 1; font-family: &quot;Comfortaa Bold Alt1&quot;; font-variant-ligatures: none; text-align: center; text-anchor: middle; fill: rgb(255, 255, 255);" d="m 443.56456,86.808 c -3.744,-4.32 -8.496,-6.48 -14.112,-6.48 -3.744,0 -7.128,0.864 -10.08,2.592 -3.024,1.728 -5.328,4.104 -6.984,7.128 -1.656,3.024 -2.448,6.48 -2.448,10.296 0,3.744 0.792,7.2 2.52,10.224 1.728,3.024 4.104,5.4 7.128,7.128 3.024,1.728 6.408,2.592 10.224,2.592 5.184,0 9.504,-1.584 12.96,-4.824 0.576,-0.576 0.864,-1.224 0.864,-1.944 0,-0.936 -0.504,-1.8 -1.368,-2.592 -0.576,-0.432 -1.224,-0.648 -1.872,-0.648 -0.864,0 -1.8,0.36 -2.664,1.008 -2.016,1.728 -4.68,2.52 -7.92,2.52 -2.52,0 -4.752,-0.576 -6.696,-1.728 -1.944,-1.152 -3.456,-2.736 -4.536,-4.752 -1.08,-2.016 -1.584,-4.392 -1.584,-6.984 0,-4.032 1.152,-7.344 3.456,-9.792 2.304,-2.448 5.256,-3.744 9,-3.744 1.8,0 3.384,0.36 4.824,0.936 1.44,0.576 2.736,1.512 3.96,2.808 0.72,0.864 1.656,1.296 2.808,1.296 0.576,0 1.152,-0.144 1.656,-0.504 1.008,-0.72 1.584,-1.584 1.584,-2.664 0,-0.72 -0.288,-1.296 -0.72,-1.872 z" transform="translate(0 261.7027384188108) translate(362.7169682172669 94.96076459645224) scale(1.3535599616130394) translate(-409.94056 -80.328)"></path> 
   <path id="path952310" style="font-style: normal; font-weight: 700; font-size: 72px; line-height: 1; font-family: &quot;Comfortaa Bold Alt1&quot;; font-variant-ligatures: none; text-align: center; text-anchor: middle; fill: rgb(255, 255, 255);" d="m 489.68506,102 c 0.576,-0.576 0.936,-1.368 0.936,-2.304 0,-3.744 -0.72,-7.128 -2.16,-10.08 -1.44,-2.88 -3.528,-5.184 -6.192,-6.84 -2.736,-1.584 -5.904,-2.448 -9.576,-2.448 -3.744,0 -7.128,0.864 -10.08,2.592 -2.952,1.728 -5.256,4.104 -6.912,7.128 -1.656,3.024 -2.448,6.48 -2.448,10.296 0,3.888 0.864,7.272 2.592,10.296 1.728,3.024 4.176,5.4 7.344,7.128 3.096,1.728 6.624,2.52 10.584,2.52 2.16,0 4.464,-0.36 6.912,-1.224 2.448,-0.792 4.464,-1.872 6.12,-3.168 0.72,-0.576 1.152,-1.296 1.152,-2.16 0,-0.864 -0.432,-1.728 -1.296,-2.448 -0.576,-0.432 -1.296,-0.72 -2.16,-0.72 -0.936,0 -1.728,0.288 -2.376,0.792 -1.008,0.792 -2.304,1.44 -3.888,1.944 -1.584,0.576 -3.024,0.792 -4.464,0.792 -3.672,0 -6.768,-1.008 -9.288,-3.096 -2.52,-2.016 -4.032,-4.752 -4.536,-8.136 h 27.36 c 0.936,0 1.728,-0.288 2.376,-0.864 z m -25.56,-12.6 c 2.16,-1.872 5.04,-2.88 8.568,-2.88 3.168,0 5.688,1.008 7.704,2.88 1.944,1.944 3.168,4.536 3.6,7.704 h -23.976 c 0.576,-3.168 1.944,-5.76 4.104,-7.704 z" transform="translate(0 261.7027384188108) translate(425.40371393947083 94.96076459645224) scale(1.3535599616130394) translate(-453.25306 -80.328)"></path> 
   <path id="path952312" style="font-style: normal; font-weight: 700; font-size: 72px; line-height: 1; font-family: &quot;Comfortaa Bold Alt1&quot;; font-variant-ligatures: none; text-align: center; text-anchor: middle; fill: rgb(255, 255, 255);" d="m 534.69181,88.752 c -1.512,-2.736 -3.6,-4.896 -6.192,-6.336 -2.52,-1.296 -5.256,-2.016 -8.28,-2.088 -0.072,0 -0.216,-0.072 -0.216,-0.072 h -16.56 c -1.008,0 -1.8,0.36 -2.448,1.008 -0.72,0.72 -1.008,1.512 -1.008,2.448 0,0.072 0,0.216 0,0.288 0,0.144 0,0.216 0,0.288 V 116.4 c 0,1.08 0.288,1.944 1.008,2.664 0.72,0.72 1.584,1.008 2.664,1.008 1.08,0 1.944,-0.288 2.664,-1.008 0.648,-0.72 1.008,-1.584 1.008,-2.664 V 96.096 c 0,-1.728 0.432,-3.24 1.368,-4.68 0.936,-1.368 2.232,-2.448 3.888,-3.312 1.656,-0.792 3.528,-1.224 5.544,-1.224 3.456,0 6.192,1.008 8.28,3.024 2.088,2.016 3.168,4.968 3.168,8.784 V 116.4 c 0,1.08 0.288,1.944 1.008,2.664 0.72,0.72 1.584,1.008 2.664,1.008 1.008,0 1.872,-0.288 2.592,-1.008 0.72,-0.72 1.08,-1.584 1.08,-2.664 V 98.688 c 0,-3.888 -0.792,-7.2 -2.232,-9.936 z" transform="translate(0 261.7027384188108) translate(492.722680240305 94.86330827921608) scale(1.3535599616130394) translate(-499.98781 -80.256)"></path> 
   <path id="path952314" style="font-style: normal; font-weight: 700; font-size: 72px; line-height: 1; font-family: &quot;Comfortaa Bold Alt1&quot;; font-variant-ligatures: none; text-align: center; text-anchor: middle; fill: rgb(255, 255, 255);" d="m 550.72194,82.056 v 6.192 17.784 c 0,2.664 0.504,5.04 1.656,7.128 1.08,2.16 2.592,3.816 4.536,5.04 1.944,1.224 4.104,1.8 6.48,1.8 h 1.296 c 1.224,0 2.232,-0.288 3.024,-1.008 0.792,-0.648 1.224,-1.512 1.224,-2.592 0,-1.008 -0.36,-1.872 -0.936,-2.592 -0.576,-0.648 -1.296,-1.008 -2.16,-1.008 h -2.448 c -1.584,0 -2.88,-0.648 -3.888,-1.944 -1.08,-1.296 -1.584,-2.88 -1.584,-4.824 V 88.248 h 6.12 c 1.008,0 1.8,-0.288 2.448,-0.864 0.576,-0.576 0.936,-1.296 0.936,-2.16 0,-0.936 -0.36,-1.728 -0.936,-2.304 -0.648,-0.576 -1.44,-0.864 -2.448,-0.864 h -6.12 V 71.688 c 0,-1.008 -0.36,-1.872 -1.008,-2.592 -0.72,-0.648 -1.584,-1.008 -2.592,-1.008 -1.08,0 -1.944,0.36 -2.592,1.008 -0.72,0.72 -1.008,1.584 -1.008,2.592 z" transform="translate(0 261.7027384188108) translate(565.4550471804151 78.39319066630861) scale(1.3535599616130394) translate(-550.72194 -68.088)"></path> 
   <path id="path952316" style="font-style: normal; font-weight: 700; font-size: 72px; line-height: 1; font-family: &quot;Comfortaa Bold Alt1&quot;; font-variant-ligatures: none; text-align: center; text-anchor: middle; fill: rgb(255, 255, 255);" d="M 614.03806,116.328 V 84.216 c 0,-1.08 -0.36,-1.944 -1.008,-2.664 -0.72,-0.648 -1.584,-1.008 -2.664,-1.008 -1.08,0 -1.944,0.36 -2.664,1.008 -0.72,0.72 -1.008,1.584 -1.008,2.664 v 20.304 c 0,1.8 -0.504,3.312 -1.44,4.68 -0.936,1.44 -2.232,2.52 -3.888,3.312 -1.656,0.864 -3.528,1.224 -5.472,1.224 -3.528,0 -6.264,-0.936 -8.352,-2.952 -2.088,-2.016 -3.096,-4.968 -3.096,-8.856 V 84.216 c 0,-1.008 -0.36,-1.872 -1.08,-2.592 -0.72,-0.72 -1.584,-1.08 -2.592,-1.08 -1.08,0 -1.944,0.36 -2.664,1.08 -0.72,0.72 -1.008,1.584 -1.008,2.592 v 17.712 c 0,3.96 0.72,7.272 2.232,10.008 1.44,2.736 3.528,4.896 6.192,6.264 2.52,1.44 5.256,2.16 8.28,2.232 0.144,0 5.688,0 16.848,0 0.936,0 1.728,-0.36 2.376,-1.008 0.648,-0.648 1.008,-1.44 1.008,-2.448 z" transform="translate(0 261.7027384188108) translate(605.2228012798016 95.25313354816063) scale(1.3535599616130394) translate(-577.10206 -80.544)"></path> 
   <path id="path952318" style="font-style: normal; font-weight: 700; font-size: 72px; line-height: 1; font-family: &quot;Comfortaa Bold Alt1&quot;; font-variant-ligatures: none; text-align: center; text-anchor: middle; fill: rgb(255, 255, 255);" d="m 652.24419,81.336 c -1.44,-0.72 -3.456,-1.152 -5.976,-1.152 -2.448,0 -4.68,0.504 -6.768,1.44 -2.16,1.008 -3.888,2.304 -5.328,3.96 v -1.368 c 0,-2.376 -1.224,-3.6 -3.6,-3.6 -1.152,0 -2.088,0.36 -2.664,0.936 -0.648,0.648 -0.936,1.512 -0.936,2.664 V 116.4 c 0,1.224 0.288,2.16 0.936,2.736 0.576,0.576 1.512,0.864 2.664,0.864 1.152,0 2.088,-0.288 2.664,-0.936 0.576,-0.576 0.936,-1.512 0.936,-2.664 V 95.376 c 0,-2.664 1.008,-4.824 3.168,-6.408 2.088,-1.584 4.896,-2.376 8.352,-2.376 1.152,0 2.736,0.216 4.68,0.504 0.432,0.144 0.792,0.144 1.08,0.144 1.44,0 2.448,-0.72 2.88,-2.304 0,-0.144 0.072,-0.36 0.072,-0.72 0,-1.152 -0.72,-2.088 -2.16,-2.88 z" transform="translate(0 261.7027384188108) translate(676.7856924130779 94.76585196197996) scale(1.3535599616130394) translate(-626.97219 -80.184)"></path> 
   <path id="path952320" style="font-style: normal; font-weight: 700; font-size: 72px; line-height: 1; font-family: &quot;Comfortaa Bold Alt1&quot;; font-variant-ligatures: none; text-align: center; text-anchor: middle; fill: rgb(255, 255, 255);" d="m 694.31581,83.784 c 0,-1.296 -0.792,-2.232 -2.232,-2.808 -0.576,-0.216 -1.152,-0.36 -1.728,-0.36 -1.296,0 -2.232,0.72 -2.808,2.088 l -11.592,26.136 -13.176,-26.208 c -0.72,-1.296 -1.728,-2.016 -3.024,-2.016 -0.576,0 -1.008,0.144 -1.44,0.288 -0.648,0.288 -1.152,0.72 -1.512,1.224 -0.432,0.576 -0.576,1.152 -0.576,1.728 0,0.576 0.072,1.08 0.36,1.512 l 16.2,30.744 -7.2,16.2 c -0.288,0.576 -0.432,1.152 -0.432,1.728 0,1.296 0.72,2.232 2.16,2.808 0.648,0.288 1.224,0.432 1.728,0.432 1.296,0 2.232,-0.72 2.808,-2.232 l 22.032,-49.536 c 0.288,-0.648 0.432,-1.224 0.432,-1.728 z" transform="translate(0 261.7027384188108) translate(720.4456081820827 95.35058986539678) scale(1.3535599616130394) translate(-656.22781 -80.616)"></path> 
  </g> 
  <g id="tagline" style="font-style:normal;font-weight:500;font-size:32px;line-height:1;font-family:Raleway;font-variant-ligatures:none;text-align:center;text-anchor:middle"></g> 
 </g> 
</svg>