<svg xmlns:dc="http://purl.org/dc/elements/1.1/" xmlns:cc="http://creativecommons.org/ns#" xmlns:rdf="http://www.w3.org/1999/02/22-rdf-syntax-ns#" xmlns:svg="http://www.w3.org/2000/svg" xmlns="http://www.w3.org/2000/svg" id="svg608618" viewbox="0 0 1024 768" height="768px" width="1024px" version="1.1"> <metadata id="metadata608624"> 
  <rdf:rdf> 
   <cc:work rdf:about=""> 
    <dc:format>
     image/svg+xml
    </dc:format> 
    <dc:type rdf:resource="http://purl.org/dc/dcmitype/StillImage"></dc:type> 
   </cc:work> 
  </rdf:rdf> 
 </metadata> <defs id="defs608622"></defs> <g id="logo-group"> 
  <g id="title" style="font-style:normal;font-weight:800;font-size:72px;line-height:1;font-family:'Montserrat ExtraBold Alt1';font-variant-ligatures:none;text-align:center;text-anchor:middle" aria-label="o7Cleverly"> 
   <path id="path608626" style="font-style: normal; font-weight: 800; font-size: 72px; line-height: 1; font-family: &quot;Montserrat ExtraBold Alt1&quot;; font-variant-ligatures: none; text-align: center; text-anchor: middle; fill: rgb(0, 0, 0);" d="m 324.35169,118.056 c 3.312,1.728 7.128,2.592 11.304,2.592 4.176,0 7.992,-0.864 11.376,-2.592 3.312,-1.728 5.976,-4.104 7.848,-7.2 1.872,-3.024 2.808,-6.552 2.808,-10.44 0,-3.888 -0.936,-7.344 -2.808,-10.368 -1.872,-3.024 -4.536,-5.4 -7.848,-7.128 -3.384,-1.728 -7.2,-2.592 -11.376,-2.592 -4.248,0 -8.064,0.864 -11.376,2.592 -3.312,1.728 -5.976,4.104 -7.848,7.128 -1.872,3.096 -2.808,6.552 -2.808,10.368 0,3.888 0.936,7.416 2.808,10.44 1.872,3.096 4.536,5.472 7.92,7.2 z m 17.208,-10.728 c -1.584,1.656 -3.528,2.448 -5.904,2.448 -2.448,0 -4.392,-0.792 -5.904,-2.448 -1.584,-1.656 -2.304,-3.96 -2.304,-6.912 0,-2.88 0.72,-5.112 2.304,-6.768 1.512,-1.584 3.456,-2.448 5.904,-2.448 2.376,0 4.32,0.864 5.904,2.448 1.512,1.656 2.304,3.888 2.304,6.768 0,2.952 -0.792,5.256 -2.304,6.912 z" transform="translate(0 269.6776646960569) translate(252 87.94904551170168) scale(1.301228033957047) translate(-313.62369 -80.328)"></path> 
   <path id="path608628" style="font-style: normal; font-weight: 800; font-size: 72px; line-height: 1; font-family: &quot;Montserrat ExtraBold Alt1&quot;; font-variant-ligatures: none; text-align: center; text-anchor: middle; fill: rgb(0, 0, 0);" d="m 401.50194,69.6 h -41.76 v 19.08 h 12.168 v -7.776 h 13.248 L 368.16594,120 h 15.552 l 17.784,-41.472 z" transform="translate(0 269.6776646960569) translate(312.0103597770396 73.98947116341046) scale(1.301228033957047) translate(-359.74194 -69.6)"></path> 
   <path id="path608630" style="font-style: normal; font-weight: 800; font-size: 72px; line-height: 1; font-family: &quot;Montserrat ExtraBold Alt1&quot;; font-variant-ligatures: none; text-align: center; text-anchor: middle; fill: rgb(67, 67, 67);" d="m 418.43544,117.696 c 4.176,2.232 8.928,3.312 14.256,3.312 4.608,0 8.712,-0.792 12.456,-2.448 3.672,-1.584 6.768,-3.96 9.216,-7.056 l -9.072,-8.208 c -3.312,3.96 -7.272,5.904 -11.88,5.904 -2.736,0 -5.184,-0.576 -7.344,-1.8 -2.16,-1.152 -3.816,-2.88 -4.968,-5.04 -1.152,-2.16 -1.728,-4.68 -1.728,-7.56 0,-2.808 0.576,-5.328 1.728,-7.488 1.152,-2.16 2.808,-3.888 4.968,-5.112 2.16,-1.152 4.608,-1.8 7.344,-1.8 4.608,0 8.568,2.016 11.88,5.904 l 9.072,-8.208 c -2.448,-3.024 -5.544,-5.4 -9.216,-7.056 -3.744,-1.584 -7.848,-2.448 -12.456,-2.448 -5.328,0 -10.08,1.152 -14.256,3.384 -4.176,2.232 -7.488,5.328 -9.864,9.288 -2.448,4.032 -3.6,8.496 -3.6,13.536 0,5.04 1.152,9.576 3.6,13.536 2.376,4.032 5.688,7.128 9.864,9.36 z" transform="translate(0 269.6776646960569) translate(370.8642531388998 72.67783330518179) scale(1.301228033957047) translate(-404.97144 -68.592)"></path> 
   <path id="path608632" style="font-style: normal; font-weight: 800; font-size: 72px; line-height: 1; font-family: &quot;Montserrat ExtraBold Alt1&quot;; font-variant-ligatures: none; text-align: center; text-anchor: middle; fill: rgb(67, 67, 67);" d="M 460.07169,66.576 V 120 h 13.68 V 66.576 Z" transform="translate(0 269.6776646960569) translate(442.56224311694166 70.05455758872435) scale(1.301228033957047) translate(-460.07169 -66.576)"></path> 
   <path id="path608634" style="font-style: normal; font-weight: 800; font-size: 72px; line-height: 1; font-family: &quot;Montserrat ExtraBold Alt1&quot;; font-variant-ligatures: none; text-align: center; text-anchor: middle; fill: rgb(67, 67, 67);" d="m 522.24369,103.944 c 0.144,-2.16 0.216,-3.24 0.216,-3.384 0,-4.176 -0.936,-7.776 -2.808,-10.8 -1.872,-3.024 -4.32,-5.4 -7.488,-6.984 -3.168,-1.584 -6.696,-2.448 -10.584,-2.448 -4.104,0 -7.776,0.864 -11.016,2.592 -3.312,1.728 -5.832,4.176 -7.704,7.2 -1.872,3.024 -2.736,6.48 -2.736,10.296 0,3.888 0.936,7.416 2.808,10.44 1.872,3.096 4.608,5.472 8.064,7.2 3.456,1.728 7.416,2.592 12.024,2.592 7.272,0 12.816,-2.088 16.632,-6.336 l -7.2,-7.488 c -1.44,1.224 -2.808,2.088 -4.176,2.592 -1.368,0.576 -2.952,0.792 -4.824,0.792 -2.52,0 -4.608,-0.504 -6.264,-1.584 -1.656,-1.08 -2.736,-2.664 -3.312,-4.68 z m -25.92,-12.096 c 1.44,-1.152 3.168,-1.8 5.328,-1.8 2.088,0 3.816,0.648 5.256,1.8 1.44,1.224 2.304,2.88 2.736,4.896 h -15.984 c 0.36,-2.016 1.224,-3.672 2.664,-4.896 z" transform="translate(0 269.6776646960569) translate(468.65446765384837 87.94904551170168) scale(1.301228033957047) translate(-480.12369 -80.328)"></path> 
   <path id="path608636" style="font-style: normal; font-weight: 800; font-size: 72px; line-height: 1; font-family: &quot;Montserrat ExtraBold Alt1&quot;; font-variant-ligatures: none; text-align: center; text-anchor: middle; fill: rgb(67, 67, 67);" d="m 569.24619,80.976 h -13.032 l -9.864,23.832 -9.36,-23.832 h -14.04 l 16.056,39.024 h 14.112 z" transform="translate(0 269.6776646960569) translate(524.3815100501098 88.79224127770584) scale(1.301228033957047) translate(-522.95019 -80.976)"></path> 
   <path id="path608638" style="font-style: normal; font-weight: 800; font-size: 72px; line-height: 1; font-family: &quot;Montserrat ExtraBold Alt1&quot;; font-variant-ligatures: none; text-align: center; text-anchor: middle; fill: rgb(67, 67, 67);" d="m 611.25931,103.944 c 0.144,-2.16 0.216,-3.24 0.216,-3.384 0,-4.176 -0.936,-7.776 -2.808,-10.8 -1.872,-3.024 -4.32,-5.4 -7.488,-6.984 -3.168,-1.584 -6.696,-2.448 -10.584,-2.448 -4.104,0 -7.776,0.864 -11.016,2.592 -3.312,1.728 -5.832,4.176 -7.704,7.2 -1.872,3.024 -2.736,6.48 -2.736,10.296 0,3.888 0.936,7.416 2.808,10.44 1.872,3.096 4.608,5.472 8.064,7.2 3.456,1.728 7.416,2.592 12.024,2.592 7.272,0 12.816,-2.088 16.632,-6.336 l -7.2,-7.488 c -1.44,1.224 -2.808,2.088 -4.176,2.592 -1.368,0.576 -2.952,0.792 -4.824,0.792 -2.52,0 -4.608,-0.504 -6.264,-1.584 -1.656,-1.08 -2.736,-2.664 -3.312,-4.68 z m -25.92,-12.096 c 1.44,-1.152 3.168,-1.8 5.328,-1.8 2.088,0 3.816,0.648 5.256,1.8 1.44,1.224 2.304,2.88 2.736,4.896 h -15.984 c 0.36,-2.016 1.224,-3.672 2.664,-4.896 z" transform="translate(0 269.6776646960569) translate(584.4840878579158 87.94904551170168) scale(1.301228033957047) translate(-569.13931 -80.328)"></path> 
   <path id="path608640" style="font-style: normal; font-weight: 800; font-size: 72px; line-height: 1; font-family: &quot;Montserrat ExtraBold Alt1&quot;; font-variant-ligatures: none; text-align: center; text-anchor: middle; fill: rgb(67, 67, 67);" d="m 636.28494,81.696 c -2.232,0.864 -4.032,2.232 -5.4,3.96 v -4.68 h -13.032 V 120 h 13.68 v -17.928 c 0,-3.24 0.792,-5.688 2.448,-7.272 1.656,-1.584 3.96,-2.376 6.912,-2.376 0.792,0 1.8,0.072 3.096,0.216 V 80.328 c -2.88,0 -5.472,0.504 -7.704,1.368 z" transform="translate(0 269.6776646960569) translate(647.8716288497268 87.94904551170168) scale(1.301228033957047) translate(-617.85294 -80.328)"></path> 
   <path id="path608642" style="font-style: normal; font-weight: 800; font-size: 72px; line-height: 1; font-family: &quot;Montserrat ExtraBold Alt1&quot;; font-variant-ligatures: none; text-align: center; text-anchor: middle; fill: rgb(67, 67, 67);" d="M 649.63419,66.576 V 120 h 13.68 V 66.576 Z" transform="translate(0 269.6776646960569) translate(689.2262823039242 70.05455758872435) scale(1.301228033957047) translate(-649.63419 -66.576)"></path> 
   <path id="path608644" style="font-style: normal; font-weight: 800; font-size: 72px; line-height: 1; font-family: &quot;Montserrat ExtraBold Alt1&quot;; font-variant-ligatures: none; text-align: center; text-anchor: middle; fill: rgb(67, 67, 67);" d="m 713.24619,80.976 h -13.032 l -9.648,23.832 -9.576,-23.832 h -14.04 l 16.704,39.528 c -0.576,1.152 -1.296,2.016 -2.16,2.52 -0.864,0.576 -1.872,0.792 -3.168,0.792 -1.152,0 -2.232,-0.144 -3.312,-0.576 -1.08,-0.432 -2.016,-1.008 -2.736,-1.728 l -4.752,9.576 c 1.296,1.08 2.952,1.944 5.04,2.592 2.088,0.648 4.176,0.936 6.264,0.936 4.032,0 7.488,-0.936 10.368,-2.88 2.808,-1.944 5.184,-5.328 7.2,-10.152 z" transform="translate(0 269.6776646960569) translate(711.7583469399245 88.79224127770584) scale(1.301228033957047) translate(-666.95019 -80.976)"></path> 
  </g> 
  <g id="tagline" style="font-style:normal;font-weight:500;font-size:32px;line-height:1;font-family:Montserrat;font-variant-ligatures:none;text-align:center;text-anchor:middle"></g> 
 </g> 
</svg>