<svg xmlns:dc="http://purl.org/dc/elements/1.1/" xmlns:cc="http://creativecommons.org/ns#" xmlns:rdf="http://www.w3.org/1999/02/22-rdf-syntax-ns#" xmlns:svg="http://www.w3.org/2000/svg" xmlns="http://www.w3.org/2000/svg" id="svg402445" viewbox="0 0 1024 768" height="768px" width="1024px" version="1.1"> <metadata id="metadata402451"> 
  <rdf:rdf> 
   <cc:work rdf:about=""> 
    <dc:format>
     image/svg+xml
    </dc:format> 
    <dc:type rdf:resource="http://purl.org/dc/dcmitype/StillImage"></dc:type> 
   </cc:work> 
  </rdf:rdf> 
 </metadata> <defs id="defs402449"></defs> <g id="logo-group"> 
  <g id="title" style="font-style:normal;font-weight:700;font-size:72px;line-height:1;font-family:'Brandmark1 Bold';font-variant-ligatures:none;text-align:center;text-anchor:middle" aria-label="o7cycle"> 
   <path id="path402453" style="font-style: normal; font-weight: 700; font-size: 72px; line-height: 1; font-family: &quot;Brandmark1 Bold&quot;; font-variant-ligatures: none; text-align: center; text-anchor: middle; fill: rgb(240, 239, 234);" d="m 412.44481,123.024 c 2.736,0 5.472,-0.576 7.992,-1.584 2.448,-1.08 4.68,-2.52 6.552,-4.392 1.872,-1.944 3.312,-4.104 4.392,-6.552 1.08,-2.52 1.584,-5.256 1.584,-7.992 0,-2.808 -0.504,-5.472 -1.584,-7.992 -1.08,-2.448 -2.52,-4.68 -4.392,-6.552 -1.944,-1.872 -4.104,-3.312 -6.552,-4.392 -2.52,-1.08 -5.256,-1.584 -7.992,-1.584 -2.736,0 -5.472,0.504 -7.992,1.584 -2.448,1.08 -4.608,2.52 -6.552,4.392 -1.872,1.944 -3.312,4.104 -4.392,6.552 -1.008,2.52 -1.584,5.184 -1.584,7.992 0,2.736 0.576,5.472 1.584,7.992 1.08,2.448 2.52,4.608 4.392,6.552 1.944,1.872 4.104,3.312 6.552,4.392 2.52,1.008 5.256,1.584 7.992,1.584 z m 0,-30.24 c 5.328,0 9.72,4.392 9.72,9.72 0,5.328 -4.392,9.72 -9.72,9.72 -5.328,0 -9.72,-4.392 -9.72,-9.72 0,-5.328 4.392,-9.72 9.72,-9.72 z" transform="translate(0 181.71066341057238) translate(251.99999999999994 162.1185780561614) scale(2.1541590805054818) translate(-391.92481 -81.984)"></path> 
   <path id="path402455" style="font-style: normal; font-weight: 700; font-size: 72px; line-height: 1; font-family: &quot;Brandmark1 Bold&quot;; font-variant-ligatures: none; text-align: center; text-anchor: middle; fill: rgb(240, 239, 234);" d="m 435.29469,121.512 11.16,2.232 20.592,-48.384 v -7.344 h -35.712 V 78.6 h 22.536 z" transform="translate(0 181.71066341057238) translate(336.8951508636314 132.02928401966085) scale(2.1541590805054818) translate(-431.33469 -68.016)"></path> 
   <path id="path402457" style="font-style: normal; font-weight: 700; font-size: 72px; line-height: 1; font-family: &quot;Brandmark1 Bold&quot;; font-variant-ligatures: none; text-align: center; text-anchor: middle; fill: rgb(223, 186, 144);" d="m 485.71044,123.096 c 6.696,0 13.032,-3.312 16.92,-8.928 l -8.928,-6.12 c -1.8,2.664 -4.824,4.248 -7.992,4.248 -5.4,0 -9.72,-4.392 -9.72,-9.72 0,-5.4 4.32,-9.72 9.72,-9.72 3.096,0 6.12,1.512 7.92,4.104 l 8.856,-6.192 c -1.872,-2.664 -4.392,-4.824 -7.2,-6.336 -2.952,-1.584 -6.264,-2.376 -9.576,-2.376 -2.808,0 -5.472,0.504 -7.992,1.584 -2.448,1.08 -4.68,2.52 -6.552,4.392 -1.872,1.944 -3.384,4.104 -4.392,6.552 -1.08,2.52 -1.584,5.256 -1.584,7.992 0,2.736 0.504,5.472 1.584,7.992 1.008,2.448 2.52,4.608 4.392,6.552 1.872,1.872 4.104,3.312 6.552,4.392 2.52,1.008 5.184,1.584 7.992,1.584 z" transform="translate(0 181.71066341057238) translate(409.82582215345485 162.27367750995782) scale(2.1541590805054818) translate(-465.19044 -82.056)"></path> 
   <path id="path402459" style="font-style: normal; font-weight: 700; font-size: 72px; line-height: 1; font-family: &quot;Brandmark1 Bold&quot;; font-variant-ligatures: none; text-align: center; text-anchor: middle; fill: rgb(223, 186, 144);" d="m 508.42531,136.776 h 11.448 l 21.888,-54.36 h -11.52 l -9.072,22.752 -9.648,-22.752 h -11.88 l 16.056,36.288 z" transform="translate(0 181.71066341057238) translate(484.03847659526866 163.04917477893977) scale(2.1541590805054818) translate(-499.64131 -82.416)"></path> 
   <path id="path402461" style="font-style: normal; font-weight: 700; font-size: 72px; line-height: 1; font-family: &quot;Brandmark1 Bold&quot;; font-variant-ligatures: none; text-align: center; text-anchor: middle; fill: rgb(223, 186, 144);" d="m 559.25731,123.096 c 6.696,0 13.032,-3.312 16.92,-8.928 l -8.928,-6.12 c -1.8,2.664 -4.824,4.248 -7.992,4.248 -5.4,0 -9.72,-4.392 -9.72,-9.72 0,-5.4 4.32,-9.72 9.72,-9.72 3.096,0 6.12,1.512 7.92,4.104 l 8.856,-6.192 c -1.872,-2.664 -4.392,-4.824 -7.2,-6.336 -2.952,-1.584 -6.264,-2.376 -9.576,-2.376 -2.808,0 -5.472,0.504 -7.992,1.584 -2.448,1.08 -4.68,2.52 -6.552,4.392 -1.872,1.944 -3.384,4.104 -4.392,6.552 -1.08,2.52 -1.584,5.256 -1.584,7.992 0,2.736 0.504,5.472 1.584,7.992 1.008,2.448 2.52,4.608 4.392,6.552 1.872,1.872 4.104,3.312 6.552,4.392 2.52,1.008 5.184,1.584 7.992,1.584 z" transform="translate(0 181.71066341057238) translate(568.257480006711 162.27367750995782) scale(2.1541590805054818) translate(-538.73731 -82.056)"></path> 
   <path id="path402463" style="font-style: normal; font-weight: 700; font-size: 72px; line-height: 1; font-family: &quot;Brandmark1 Bold&quot;; font-variant-ligatures: none; text-align: center; text-anchor: middle; fill: rgb(223, 186, 144);" d="m 578.87619,122.52 h 10.872 V 64.488 l -10.872,3.6 z" transform="translate(0 181.71066341057238) translate(654.7230128400308 124.42941078363751) scale(2.1541590805054818) translate(-578.87619 -64.488)"></path> 
   <path id="path402465" style="font-style: normal; font-weight: 700; font-size: 72px; line-height: 1; font-family: &quot;Brandmark1 Bold&quot;; font-variant-ligatures: none; text-align: center; text-anchor: middle; fill: rgb(223, 186, 144);" d="m 613.08631,122.808 c 2.808,0 5.544,-0.576 8.136,-1.728 2.52,-1.08 4.752,-2.664 6.624,-4.608 l -7.632,-7.2 c -1.872,2.016 -4.392,3.096 -7.128,3.096 -3.528,0 -6.624,-1.872 -8.352,-4.608 h 28.584 v -5.256 c 0,-5.4 -2.088,-10.512 -5.904,-14.328 -3.816,-3.816 -8.928,-5.976 -14.328,-5.976 -5.472,0 -10.512,2.16 -14.4,5.976 -3.816,3.816 -5.904,8.928 -5.904,14.328 0,5.4 2.088,10.512 5.904,14.328 3.888,3.816 8.928,5.976 14.4,5.976 z m -8.352,-25.488 c 1.728,-2.808 4.824,-4.68 8.352,-4.68 3.456,0 6.552,1.872 8.352,4.68 z" transform="translate(0 181.71066341057238) translate(684.67900751263 162.5838764175506) scale(2.1541590805054818) translate(-592.78231 -82.2)"></path> 
  </g> 
  <g id="tagline" style="font-style:normal;font-weight:400;font-size:32px;line-height:1;font-family:Montserrat;font-variant-ligatures:none;text-align:center;text-anchor:middle"></g> 
 </g> 
</svg>