<svg xmlns:dc="http://purl.org/dc/elements/1.1/" xmlns:cc="http://creativecommons.org/ns#" xmlns:rdf="http://www.w3.org/1999/02/22-rdf-syntax-ns#" xmlns:svg="http://www.w3.org/2000/svg" xmlns="http://www.w3.org/2000/svg" id="svg34667" viewbox="0 0 1024 768" height="768px" width="1024px" version="1.1"> <metadata id="metadata34673"> 
  <rdf:rdf> 
   <cc:work rdf:about=""> 
    <dc:format>
     image/svg+xml
    </dc:format> 
    <dc:type rdf:resource="http://purl.org/dc/dcmitype/StillImage"></dc:type> 
   </cc:work> 
  </rdf:rdf> 
 </metadata> <defs id="defs34671"></defs> <g id="logo-group"> 
  <g id="title" style="font-style:normal;font-weight:500;font-size:72px;line-height:1;font-family:'Raleway Medium Alt1';font-variant-ligatures:none;text-align:center;text-anchor:middle" aria-label="O7CURE"> 
   <path id="path34675" style="font-style: normal; font-weight: 500; font-size: 72px; line-height: 1; font-family: &quot;Raleway Medium Alt1&quot;; font-variant-ligatures: none; text-align: center; text-anchor: middle; fill: rgb(71, 61, 50);" d="m 412.84081,97.248 c -0.216,1.512 -0.504,3.024 -1.008,4.464 -0.792,2.448 -1.944,4.608 -3.456,6.48 -1.512,1.872 -3.384,3.456 -5.472,4.608 -2.232,1.152 -4.68,1.728 -7.344,1.728 -2.664,0 -5.04,-0.504 -7.2,-1.656 -2.16,-1.08 -4.032,-2.592 -5.544,-4.464 -1.584,-1.872 -2.736,-3.96 -3.6,-6.408 -0.504,-1.512 -0.864,-3.096 -1.08,-4.752 h -6.552 c 0.216,2.304 0.72,4.608 1.584,6.768 1.08,3.168 2.736,5.904 4.896,8.352 2.088,2.448 4.608,4.392 7.56,5.832 2.952,1.44 6.264,2.16 9.864,2.16 3.456,0 6.624,-0.648 9.576,-2.088 2.952,-1.44 5.472,-3.312 7.632,-5.688 2.16,-2.376 3.816,-5.112 5.04,-8.28 0.864,-2.232 1.44,-4.608 1.728,-7.056 z m -33.624,-10.152 c 0.792,-2.376 1.944,-4.464 3.456,-6.408 1.512,-1.872 3.384,-3.384 5.544,-4.536 2.16,-1.152 4.608,-1.728 7.344,-1.728 2.52,0 4.896,0.576 7.056,1.656 2.16,1.152 3.96,2.592 5.544,4.464 1.584,1.872 2.736,3.96 3.6,6.408 0.432,1.296 0.792,2.664 1.008,3.96 h 6.552 c -0.288,-1.944 -0.792,-3.96 -1.44,-5.832 -1.152,-3.096 -2.808,-5.832 -4.896,-8.352 -2.16,-2.448 -4.68,-4.392 -7.56,-5.904 -2.952,-1.512 -6.264,-2.304 -9.792,-2.304 -3.528,0 -6.696,0.72 -9.648,2.16 -2.952,1.44 -5.472,3.312 -7.632,5.688 -2.16,2.448 -3.888,5.184 -5.112,8.28 -0.792,2.088 -1.368,4.176 -1.584,6.264 h 6.552 c 0.216,-1.224 0.576,-2.52 1.008,-3.816 z" transform="translate(0 219.6362627103273) translate(252 108.27287760126653) scale(1.8504506363290505) translate(-371.58481 -68.52)"></path> 
   <path id="path34677" style="font-style: normal; font-weight: 500; font-size: 72px; line-height: 1; font-family: &quot;Raleway Medium Alt1&quot;; font-variant-ligatures: none; text-align: center; text-anchor: middle; fill: rgb(71, 61, 50);" d="m 450.71619,83.856 -22.896,45.288 h 7.2 l 25.704,-51.12 h -36.288 v 5.832 z" transform="translate(0 219.6362627103273) translate(349.79886975186844 125.85956044893784) scale(1.8504506363290505) translate(-424.43619 -78.024)"></path> 
   <path id="path34679" style="font-style: normal; font-weight: 500; font-size: 72px; line-height: 1; font-family: &quot;Raleway Medium Alt1&quot;; font-variant-ligatures: none; text-align: center; text-anchor: middle; fill: rgb(126, 187, 66);" d="m 471.46344,87.24 c 0.72,-2.376 1.872,-4.536 3.384,-6.408 1.44,-1.872 3.312,-3.456 5.472,-4.608 2.16,-1.152 4.68,-1.8 7.56,-1.8 1.296,0 2.592,0.144 3.96,0.432 1.296,0.288 2.592,0.792 3.888,1.44 1.224,0.72 2.448,1.584 3.528,2.664 1.08,1.152 2.016,2.52 2.808,4.104 l 5.112,-3.312 c -1.584,-3.312 -4.032,-5.976 -7.272,-8.064 -3.312,-2.016 -7.2,-3.096 -11.736,-3.096 -3.888,0 -7.272,0.792 -10.296,2.232 -3.096,1.512 -5.616,3.456 -7.704,5.904 -2.088,2.448 -3.672,5.184 -4.752,8.208 -0.792,2.16 -1.224,4.32 -1.44,6.408 h 6.552 c 0.216,-1.368 0.504,-2.736 0.936,-4.104 z m 31.248,18.36 c -0.72,1.584 -1.656,2.952 -2.808,4.104 -1.152,1.152 -2.376,2.088 -3.6,2.808 -1.368,0.72 -2.664,1.296 -4.104,1.584 -1.44,0.36 -2.808,0.504 -4.104,0.504 -2.592,0 -4.896,-0.504 -7.056,-1.656 -2.16,-1.08 -4.032,-2.592 -5.616,-4.464 -1.656,-1.872 -2.88,-3.96 -3.744,-6.408 -0.576,-1.512 -0.936,-3.024 -1.152,-4.68 h -6.552 c 0.288,2.16 0.792,4.248 1.584,6.336 1.152,3.168 2.808,5.976 4.968,8.424 2.16,2.448 4.68,4.464 7.632,5.976 2.88,1.584 6.12,2.304 9.648,2.304 1.944,0 3.96,-0.216 6.048,-0.792 2.016,-0.504 3.96,-1.224 5.832,-2.304 1.872,-0.936 3.528,-2.232 4.968,-3.672 1.44,-1.44 2.592,-3.168 3.456,-5.112 z" transform="translate(0 219.6362627103273) translate(422.9643000743418 108.40611004708224) scale(1.8504506363290505) translate(-463.97544 -68.592)"></path> 
   <path id="path34681" style="font-style: normal; font-weight: 500; font-size: 72px; line-height: 1; font-family: &quot;Raleway Medium Alt1&quot;; font-variant-ligatures: none; text-align: center; text-anchor: middle; fill: rgb(126, 187, 66);" d="m 525.22156,108.408 c -1.152,-1.8 -2.016,-3.888 -2.52,-6.264 -0.504,-2.376 -0.72,-4.824 -0.72,-7.416 V 68.88 h -6.48 v 25.848 c 0,3.312 0.36,6.48 1.08,9.576 0.72,3.096 1.944,5.832 3.672,8.208 1.728,2.376 3.96,4.32 6.768,5.688 1.944,1.08 4.32,1.728 6.984,2.016 v -5.904 c -1.584,-0.288 -2.952,-0.792 -4.104,-1.44 -1.944,-1.152 -3.528,-2.592 -4.68,-4.464 z m 27.36,-39.528 v 25.848 c 0,2.52 -0.288,4.896 -0.72,7.272 -0.504,2.376 -1.368,4.464 -2.52,6.336 -1.152,1.872 -2.736,3.312 -4.68,4.464 -1.152,0.72 -2.52,1.152 -4.032,1.44 v 5.976 c 2.52,-0.288 4.752,-0.936 6.696,-1.872 2.736,-1.368 5.04,-3.24 6.768,-5.616 1.728,-2.304 2.952,-5.04 3.744,-8.136 0.792,-3.096 1.224,-6.408 1.224,-9.864 V 68.88 Z" transform="translate(0 219.6362627103273) translate(518.3108416159089 108.93903983034498) scale(1.8504506363290505) translate(-515.50156 -68.88)"></path> 
   <path id="path34683" style="font-style: normal; font-weight: 500; font-size: 72px; line-height: 1; font-family: &quot;Raleway Medium Alt1&quot;; font-variant-ligatures: none; text-align: center; text-anchor: middle; fill: rgb(126, 187, 66);" d="m 597.28344,100.416 c 1.584,-0.36 3.096,-1.08 4.392,-2.088 1.296,-0.936 2.448,-2.088 3.384,-3.456 0.936,-1.296 1.656,-2.808 2.16,-4.464 0.504,-1.656 0.792,-3.384 0.792,-5.184 0,-2.016 -0.432,-3.96 -1.152,-5.904 -0.792,-1.944 -1.872,-3.672 -3.24,-5.256 -1.368,-1.584 -3.024,-2.808 -4.896,-3.744 -1.872,-0.936 -3.96,-1.44 -6.192,-1.44 h -21.888 V 120 h 6.48 v -18.36 h 6.48 l -3.6,-5.76 h -2.88 V 74.64 h 15.048 c 1.224,0 2.376,0.288 3.528,0.864 1.152,0.576 2.088,1.296 2.952,2.304 0.864,1.008 1.512,2.088 2.016,3.384 0.504,1.296 0.792,2.664 0.792,4.032 0,1.44 -0.216,2.736 -0.648,4.032 -0.504,1.368 -1.08,2.448 -1.8,3.456 -0.792,1.008 -1.728,1.8 -2.808,2.304 -1.08,0.576 -2.304,0.864 -3.6,0.864 h -5.688 l 3.744,5.76 11.664,18.36 h 7.344 z" transform="translate(0 219.6362627103273) translate(620.348168550289 108.93903983034498) scale(1.8504506363290505) translate(-570.64344 -68.88)"></path> 
   <path id="path34685" style="font-style: normal; font-weight: 500; font-size: 72px; line-height: 1; font-family: &quot;Raleway Medium Alt1&quot;; font-variant-ligatures: none; text-align: center; text-anchor: middle; fill: rgb(126, 187, 66);" d="m 624.37344,74.64 h 27.576 v -5.76 h -34.056 v 15.84 h 6.48 z m -6.48,39.6 V 120 h 34.704 v -5.76 z m 6.48,-17.64 h 23.976 v -5.4 h -30.456 v 16.56 h 6.48 z" transform="translate(0 219.6362627103273) translate(707.7819611168366 108.93903983034498) scale(1.8504506363290505) translate(-617.89344 -68.88)"></path> 
  </g> 
  <g id="tagline" style="font-style:oblique;font-weight:600;font-size:32px;line-height:1;font-family:Raleway;font-variant-ligatures:none;text-align:center;text-anchor:middle"></g> 
 </g> 
</svg>