<svg xmlns:dc="http://purl.org/dc/elements/1.1/" xmlns:cc="http://creativecommons.org/ns#" xmlns:rdf="http://www.w3.org/1999/02/22-rdf-syntax-ns#" xmlns:svg="http://www.w3.org/2000/svg" xmlns="http://www.w3.org/2000/svg" id="svg61004" viewbox="0 0 1024 768" height="768px" width="1024px" version="1.1"> <metadata id="metadata61010"> 
  <rdf:rdf> 
   <cc:work rdf:about=""> 
    <dc:format>
     image/svg+xml
    </dc:format> 
    <dc:type rdf:resource="http://purl.org/dc/dcmitype/StillImage"></dc:type> 
   </cc:work> 
  </rdf:rdf> 
 </metadata> <defs id="defs61008"></defs> <g id="logo-group"> 
  <g id="title" style="font-style:normal;font-weight:700;font-size:72px;line-height:1;font-family:'Comfortaa Bold Alt2';font-variant-ligatures:none;text-align:center;text-anchor:middle" aria-label="O7COMPLETED"> 
   <path id="path61012" style="font-style: normal; font-weight: 700; font-size: 72px; line-height: 1; font-family: &quot;Comfortaa Bold Alt2&quot;; font-variant-ligatures: none; text-align: center; text-anchor: middle; fill: rgb(233, 59, 35);" d="m 251.91856,120.864 c 3.888,0 7.632,-0.792 11.232,-2.304 3.456,-1.44 6.552,-3.528 9.216,-6.192 2.664,-2.664 4.752,-5.688 6.192,-9.216 1.512,-3.528 2.304,-7.272 2.304,-11.232 0,-3.96 -0.792,-7.704 -2.304,-11.304 -1.44,-3.456 -3.528,-6.48 -6.192,-9.144 -2.664,-2.664 -5.76,-4.752 -9.216,-6.192 -3.6,-1.512 -7.344,-2.304 -11.232,-2.304 -3.96,0 -7.704,0.792 -11.304,2.304 -3.456,1.44 -6.552,3.528 -9.216,6.192 -2.664,2.664 -4.752,5.688 -6.192,9.144 -1.512,3.6 -2.232,7.344 -2.232,11.304 0,3.96 0.72,7.704 2.232,11.232 1.44,3.528 3.528,6.552 6.192,9.216 2.664,2.664 5.76,4.752 9.216,6.192 3.6,1.512 7.344,2.304 11.304,2.304 z m 0,-50.688 c 5.976,0 11.088,2.088 15.336,6.336 4.248,4.248 6.408,9.432 6.408,15.408 0,5.976 -2.16,11.088 -6.408,15.336 -4.248,4.248 -9.36,6.408 -15.336,6.408 -6.048,0 -11.16,-2.16 -15.408,-6.408 -4.248,-4.176 -6.336,-9.36 -6.336,-15.336 0,-5.976 2.088,-11.16 6.336,-15.408 4.248,-4.248 9.36,-6.336 15.408,-6.336 z" transform="translate(0 313.3730909090909) translate(217.5689772727273 44.34690909090909) scale(0.9090909090909091) translate(-222.97456 -62.976)"></path> 
   <path id="path61014" style="font-style: normal; font-weight: 700; font-size: 72px; line-height: 1; font-family: &quot;Comfortaa Bold Alt2&quot;; font-variant-ligatures: none; text-align: center; text-anchor: middle; fill: rgb(233, 59, 35);" d="m 284.90131,70.104 c 0.72,0.72 1.584,1.008 2.664,1.008 h 21.888 l -20.664,42.912 c -0.432,0.864 -0.648,1.656 -0.648,2.304 0,1.008 0.36,1.872 1.08,2.592 0.72,0.72 1.512,1.08 2.52,1.08 0.648,0 1.296,-0.144 1.944,-0.504 0.576,-0.36 1.08,-0.864 1.44,-1.512 l 23.04,-48.6 c 0.288,-0.72 0.504,-1.368 0.504,-1.944 0,-1.008 -0.36,-1.872 -1.08,-2.592 -0.72,-0.72 -1.584,-1.08 -2.592,-1.08 h -27.432 c -1.08,0 -1.944,0.36 -2.664,1.08 -0.72,0.72 -1.008,1.584 -1.008,2.592 0,1.08 0.288,1.944 1.008,2.664 z" transform="translate(0 313.3730909090909) translate(279.3132954545455 45.066909090909085) scale(0.9090909090909091) translate(-283.89331 -63.768)"></path> 
   <path id="path61016" style="font-style: normal; font-weight: 700; font-size: 72px; line-height: 1; font-family: &quot;Comfortaa Bold Alt2&quot;; font-variant-ligatures: none; text-align: center; text-anchor: middle; fill: rgb(233, 240, 233);" d="m 349.29294,120.792 c 3.24,0 6.408,-0.504 9.432,-1.584 2.952,-1.008 5.688,-2.52 8.136,-4.392 0.792,-0.576 1.224,-1.368 1.368,-2.376 0.144,-1.008 -0.072,-1.872 -0.72,-2.664 -0.576,-0.792 -1.368,-1.224 -2.376,-1.368 -1.008,-0.144 -1.872,0.072 -2.664,0.72 -3.888,2.952 -8.28,4.464 -13.176,4.464 -6.048,0 -11.16,-2.16 -15.408,-6.408 -4.248,-4.248 -6.336,-9.36 -6.336,-15.336 0,-5.976 2.088,-11.16 6.336,-15.408 4.248,-4.248 9.36,-6.336 15.408,-6.336 4.968,0 9.432,1.512 13.32,4.608 0.792,0.648 1.728,0.864 2.664,0.72 1.008,-0.072 1.8,-0.576 2.448,-1.368 0.576,-0.72 0.864,-1.656 0.72,-2.664 -0.144,-0.936 -0.576,-1.728 -1.368,-2.376 -2.448,-1.944 -5.256,-3.456 -8.208,-4.464 -3.096,-1.08 -6.336,-1.656 -9.576,-1.656 -3.96,0 -7.704,0.792 -11.304,2.304 -3.456,1.44 -6.552,3.528 -9.216,6.192 -2.664,2.664 -4.752,5.688 -6.192,9.144 -1.512,3.6 -2.232,7.344 -2.232,11.304 0,3.96 0.72,7.704 2.232,11.232 1.44,3.528 3.528,6.552 6.192,9.216 2.664,2.664 5.76,4.752 9.216,6.192 3.6,1.512 7.344,2.304 11.304,2.304 z" transform="translate(0 313.3730909090909) translate(318.8184136363637 44.281454545454544) scale(0.9090909090909091) translate(-320.34894 -62.904)"></path> 
   <path id="path61018" style="font-style: normal; font-weight: 700; font-size: 72px; line-height: 1; font-family: &quot;Comfortaa Bold Alt2&quot;; font-variant-ligatures: none; text-align: center; text-anchor: middle; fill: rgb(233, 240, 233);" d="m 405.62169,120.864 c 3.888,0 7.632,-0.792 11.232,-2.304 3.456,-1.44 6.552,-3.528 9.216,-6.192 2.664,-2.664 4.752,-5.688 6.192,-9.216 1.512,-3.528 2.304,-7.272 2.304,-11.232 0,-3.96 -0.792,-7.704 -2.304,-11.304 -1.44,-3.456 -3.528,-6.48 -6.192,-9.144 -2.664,-2.664 -5.76,-4.752 -9.216,-6.192 -3.6,-1.512 -7.344,-2.304 -11.232,-2.304 -3.96,0 -7.704,0.792 -11.304,2.304 -3.456,1.44 -6.552,3.528 -9.216,6.192 -2.664,2.664 -4.752,5.688 -6.192,9.144 -1.512,3.6 -2.232,7.344 -2.232,11.304 0,3.96 0.72,7.704 2.232,11.232 1.44,3.528 3.528,6.552 6.192,9.216 2.664,2.664 5.76,4.752 9.216,6.192 3.6,1.512 7.344,2.304 11.304,2.304 z m 0,-50.688 c 5.976,0 11.088,2.088 15.336,6.336 4.248,4.248 6.408,9.432 6.408,15.408 0,5.976 -2.16,11.088 -6.408,15.336 -4.248,4.248 -9.36,6.408 -15.336,6.408 -6.048,0 -11.16,-2.16 -15.408,-6.408 -4.248,-4.176 -6.336,-9.36 -6.336,-15.336 0,-5.976 2.088,-11.16 6.336,-15.408 4.248,-4.248 9.36,-6.336 15.408,-6.336 z" transform="translate(0 313.3730909090909) translate(376.39000454545453 44.34690909090909) scale(0.9090909090909091) translate(-376.67769 -62.976)"></path> 
   <path id="path61020" style="font-style: normal; font-weight: 700; font-size: 72px; line-height: 1; font-family: &quot;Comfortaa Bold Alt2&quot;; font-variant-ligatures: none; text-align: center; text-anchor: middle; fill: rgb(233, 240, 233);" d="m 501.22869,64.848 c -0.72,-0.72 -1.656,-1.08 -2.664,-1.08 -1.44,0 -2.592,0.72 -3.312,2.016 l -20.808,42.84 -21.384,-42.84 c -0.792,-1.296 -1.872,-2.016 -3.312,-2.016 -1.08,0 -1.944,0.36 -2.664,1.08 -0.72,0.72 -1.08,1.656 -1.08,2.664 v 48.744 c 0,1.08 0.36,1.944 1.08,2.664 0.72,0.72 1.584,1.08 2.664,1.08 1.008,0 1.944,-0.36 2.664,-1.08 0.72,-0.72 1.08,-1.584 1.08,-2.664 V 81.12 l 17.208,34.488 c 0.72,1.512 1.872,2.232 3.456,2.232 1.296,0 2.376,-0.576 3.24,-1.872 l 17.424,-35.496 v 35.784 c 0,1.08 0.36,1.944 1.08,2.664 0.72,0.72 1.584,1.08 2.664,1.08 1.008,0 1.872,-0.36 2.592,-1.08 0.72,-0.72 1.152,-1.584 1.152,-2.664 V 67.512 c 0,-1.008 -0.36,-1.944 -1.08,-2.664 z" transform="translate(0 313.3730909090909) translate(445.7781863636364 45.066909090909085) scale(0.9090909090909091) translate(-446.00469 -63.768)"></path> 
   <path id="path61022" style="font-style: normal; font-weight: 700; font-size: 72px; line-height: 1; font-family: &quot;Comfortaa Bold Alt2&quot;; font-variant-ligatures: none; text-align: center; text-anchor: middle; fill: rgb(233, 240, 233);" d="m 523.14706,118.92 c 0.72,-0.72 1.08,-1.584 1.08,-2.664 v -15.768 h 10.656 c 3.528,0 6.696,-0.72 9.504,-2.304 2.808,-1.512 4.968,-3.672 6.552,-6.408 1.584,-2.736 2.376,-5.832 2.376,-9.36 0,-3.6 -0.792,-6.768 -2.376,-9.648 -1.584,-2.808 -3.744,-5.04 -6.552,-6.624 -2.808,-1.584 -5.976,-2.376 -9.504,-2.376 h -14.4 c -1.08,0 -1.944,0.36 -2.664,1.08 -0.72,0.72 -1.08,1.584 -1.08,2.664 v 48.744 c 0,1.08 0.36,1.944 1.08,2.664 0.72,0.72 1.584,1.08 2.664,1.08 1.08,0 1.944,-0.36 2.664,-1.08 z m 19.8,-28.44 c -2.16,2.088 -4.824,3.096 -8.064,3.096 h -10.656 V 70.68 h 10.656 c 3.24,0 5.904,1.152 8.064,3.312 2.088,2.232 3.168,5.04 3.168,8.424 0,3.312 -1.08,5.976 -3.168,8.064 z" transform="translate(0 313.3730909090909) translate(516.4457954545455 45.066909090909085) scale(0.9090909090909091) translate(-516.73906 -63.768)"></path> 
   <path id="path61024" style="font-style: normal; font-weight: 700; font-size: 72px; line-height: 1; font-family: &quot;Comfortaa Bold Alt2&quot;; font-variant-ligatures: none; text-align: center; text-anchor: middle; fill: rgb(233, 240, 233);" d="m 597.74244,113.592 c -0.72,-0.72 -1.656,-1.08 -2.664,-1.08 h -26.064 v -45 c 0,-1.008 -0.36,-1.944 -1.08,-2.664 -0.72,-0.72 -1.656,-1.08 -2.664,-1.08 -1.008,0 -1.872,0.36 -2.592,1.08 -0.72,0.72 -1.08,1.656 -1.08,2.664 v 48.744 c 0,1.08 0.288,1.944 1.008,2.664 0.72,0.72 1.584,1.08 2.664,1.08 h 29.808 c 1.008,0 1.944,-0.36 2.664,-1.08 0.72,-0.72 1.08,-1.584 1.08,-2.664 0,-1.008 -0.36,-1.944 -1.08,-2.664 z" transform="translate(0 313.3730909090909) translate(563.5906863636365 45.066909090909085) scale(0.9090909090909091) translate(-561.59844 -63.768)"></path> 
   <path id="path61026" style="font-style: normal; font-weight: 700; font-size: 72px; line-height: 1; font-family: &quot;Comfortaa Bold Alt2&quot;; font-variant-ligatures: none; text-align: center; text-anchor: middle; fill: rgb(233, 240, 233);" d="m 646.81606,114.024 c -0.72,-0.576 -1.584,-0.936 -2.664,-0.936 h -28.8 v -18 h 20.664 c 1.008,0 1.872,-0.288 2.592,-0.936 0.72,-0.648 1.08,-1.512 1.08,-2.52 0,-1.008 -0.36,-1.8 -1.08,-2.448 -0.72,-0.648 -1.584,-1.008 -2.592,-1.008 h -20.664 V 70.68 h 28.8 c 1.08,0 1.944,-0.288 2.664,-0.936 0.648,-0.576 1.008,-1.44 1.008,-2.448 0,-1.008 -0.36,-1.872 -1.008,-2.52 -0.72,-0.648 -1.584,-1.008 -2.664,-1.008 h -32.544 c -1.08,0 -1.944,0.36 -2.664,1.08 -0.72,0.72 -1.08,1.584 -1.08,2.664 v 48.744 c 0,1.08 0.36,1.944 1.08,2.664 0.72,0.72 1.584,1.08 2.664,1.08 h 32.544 c 1.08,0 1.944,-0.288 2.664,-0.936 0.648,-0.648 1.008,-1.512 1.008,-2.592 0,-1.008 -0.36,-1.8 -1.008,-2.448 z" transform="translate(0 313.3730909090909) translate(612.0139772727274 45.066909090909085) scale(0.9090909090909091) translate(-607.86406 -63.768)"></path> 
   <path id="path61028" style="font-style: normal; font-weight: 700; font-size: 72px; line-height: 1; font-family: &quot;Comfortaa Bold Alt2&quot;; font-variant-ligatures: none; text-align: center; text-anchor: middle; fill: rgb(233, 240, 233);" d="m 696.51181,64.776 c -0.648,-0.648 -1.44,-1.008 -2.448,-1.008 h -38.52 c -1.008,0 -1.872,0.36 -2.52,1.008 -0.648,0.648 -0.936,1.44 -0.936,2.448 0,1.008 0.288,1.872 0.936,2.52 0.648,0.648 1.512,0.936 2.52,0.936 h 15.552 v 45.576 c 0,1.08 0.36,1.944 1.08,2.664 0.72,0.72 1.584,1.08 2.664,1.08 1.008,0 1.944,-0.36 2.664,-1.08 0.72,-0.72 1.08,-1.584 1.08,-2.664 V 70.68 h 15.48 c 1.008,0 1.8,-0.288 2.448,-0.936 0.648,-0.648 1.008,-1.512 1.008,-2.52 0,-1.008 -0.36,-1.8 -1.008,-2.448 z" transform="translate(0 313.3730909090909) translate(658.5810227272729 45.066909090909085) scale(0.9090909090909091) translate(-652.08781 -63.768)"></path> 
   <path id="path61030" style="font-style: normal; font-weight: 700; font-size: 72px; line-height: 1; font-family: &quot;Comfortaa Bold Alt2&quot;; font-variant-ligatures: none; text-align: center; text-anchor: middle; fill: rgb(233, 240, 233);" d="m 744.69106,114.024 c -0.72,-0.576 -1.584,-0.936 -2.664,-0.936 h -28.8 v -18 h 20.664 c 1.008,0 1.872,-0.288 2.592,-0.936 0.72,-0.648 1.08,-1.512 1.08,-2.52 0,-1.008 -0.36,-1.8 -1.08,-2.448 -0.72,-0.648 -1.584,-1.008 -2.592,-1.008 h -20.664 V 70.68 h 28.8 c 1.08,0 1.944,-0.288 2.664,-0.936 0.648,-0.576 1.008,-1.44 1.008,-2.448 0,-1.008 -0.36,-1.872 -1.008,-2.52 -0.72,-0.648 -1.584,-1.008 -2.664,-1.008 h -32.544 c -1.08,0 -1.944,0.36 -2.664,1.08 -0.72,0.72 -1.08,1.584 -1.08,2.664 v 48.744 c 0,1.08 0.36,1.944 1.08,2.664 0.72,0.72 1.584,1.08 2.664,1.08 h 32.544 c 1.08,0 1.944,-0.288 2.664,-0.936 0.648,-0.648 1.008,-1.512 1.008,-2.592 0,-1.008 -0.36,-1.8 -1.008,-2.448 z" transform="translate(0 313.3730909090909) translate(713.7185227272728 45.066909090909085) scale(0.9090909090909091) translate(-705.73906 -63.768)"></path> 
   <path id="path61032" style="font-style: normal; font-weight: 700; font-size: 72px; line-height: 1; font-family: &quot;Comfortaa Bold Alt2&quot;; font-variant-ligatures: none; text-align: center; text-anchor: middle; fill: rgb(233, 240, 233);" d="m 787.33081,67.368 c -4.248,-2.376 -9.072,-3.6 -14.472,-3.6 h -13.032 c -1.08,0 -1.944,0.36 -2.664,1.08 -0.72,0.72 -1.08,1.584 -1.08,2.664 v 48.744 c 0,1.08 0.36,1.944 1.08,2.664 0.72,0.72 1.584,1.08 2.664,1.08 h 13.032 c 5.4,0 10.224,-1.152 14.472,-3.6 4.176,-2.376 7.488,-5.688 9.864,-10.008 2.304,-4.248 3.528,-9.072 3.528,-14.544 0,-5.4 -1.224,-10.224 -3.528,-14.472 -2.376,-4.248 -5.688,-7.56 -9.864,-10.008 z m -3.816,43.272 c -3.168,1.872 -6.696,2.736 -10.656,2.736 h -9.288 V 70.392 h 9.288 c 3.96,0 7.488,0.936 10.656,2.736 3.168,1.872 5.616,4.392 7.344,7.632 1.728,3.312 2.664,6.984 2.664,11.088 0,4.176 -0.936,7.848 -2.664,11.16 -1.728,3.312 -4.176,5.832 -7.344,7.632 z" transform="translate(0 313.3730909090909) translate(765.8492045454547 45.066909090909085) scale(0.9090909090909091) translate(-756.08281 -63.768)"></path> 
  </g> 
  <g id="tagline" style="font-style:normal;font-weight:500;font-size:32px;line-height:1;font-family:Raleway;font-variant-ligatures:none;text-align:center;text-anchor:middle"></g> 
 </g> 
</svg>