<svg xmlns:dc="http://purl.org/dc/elements/1.1/" xmlns:cc="http://creativecommons.org/ns#" xmlns:rdf="http://www.w3.org/1999/02/22-rdf-syntax-ns#" xmlns:svg="http://www.w3.org/2000/svg" xmlns="http://www.w3.org/2000/svg" id="svg267345" viewbox="0 0 1024 768" height="768px" width="1024px" version="1.1"> <metadata id="metadata267351"> 
  <rdf:rdf> 
   <cc:work rdf:about=""> 
    <dc:format>
     image/svg+xml
    </dc:format> 
    <dc:type rdf:resource="http://purl.org/dc/dcmitype/StillImage"></dc:type> 
   </cc:work> 
  </rdf:rdf> 
 </metadata> <defs id="defs267349"></defs> <g id="logo-group"> 
  <g id="title" style="font-style:normal;font-weight:200;font-size:72px;line-height:1;font-family:Phenomena;font-variant-ligatures:none;text-align:center;text-anchor:middle" aria-label="o7Commercial"> 
   <path id="path267353" style="font-style: normal; font-weight: 200; font-size: 72px; line-height: 1; font-family: Phenomena; font-variant-ligatures: none; text-align: center; text-anchor: middle; fill: rgb(81, 69, 78);" d="m 362.7125,120.504 c 6.408,0 10.224,-4.752 10.224,-10.944 V 94.44 c 0,-6.192 -3.816,-10.944 -10.224,-10.944 -6.408,0 -10.224,4.752 -10.224,10.944 v 15.12 c 0,6.192 3.816,10.944 10.224,10.944 z m 0,-1.296 c -5.544,0 -8.856,-4.248 -8.856,-9.648 V 94.44 c 0,-5.4 3.312,-9.648 8.856,-9.648 5.544,0 8.856,4.248 8.856,9.648 v 15.12 c 0,5.4 -3.312,9.648 -8.856,9.648 z" transform="translate(0 278.2331734511986) translate(252.00000000000006 90.87811988943798) scale(1.3171184235105635) translate(-352.4885 -83.496)"></path> 
   <path id="path267355" style="font-style: normal; font-weight: 200; font-size: 72px; line-height: 1; font-family: Phenomena; font-variant-ligatures: none; text-align: center; text-anchor: middle; fill: rgb(81, 69, 78);" d="m 379.30063,69.96 v 0.648 c 0,0.216 0.14399,0.36 0.35999,0.36 h 18 l -12.168,48.6 c -0.072,0.288 0.144,0.432 0.36,0.432 h 0.72001 c 0.216,0 0.288,-0.072 0.36,-0.288 l 12.23999,-48.816 c 0.072,-0.36 0.072,-0.576 0.072,-0.864 0,-0.288 -0.216,-0.432 -0.43199,-0.432 h -19.15201 c -0.216,0 -0.35999,0.144 -0.35999,0.36 z" transform="translate(0 278.2331734511986) translate(296.5345793611343 72.5754422763352) scale(1.3171184235105635) translate(-379.30063 -69.6)"></path> 
   <path id="path267357" style="font-style: normal; font-weight: 200; font-size: 72px; line-height: 1; font-family: Phenomena; font-variant-ligatures: none; text-align: center; text-anchor: middle; fill: rgb(32, 43, 18);" d="m 418.01187,120.504 c 6.624,0 11.16,-4.968 11.376,-11.448 0,-0.288 -0.144,-0.432 -0.36,-0.432 h -0.71999 c -0.216,0 -0.36001,0.144 -0.36001,0.36 -0.144,5.832 -3.96,10.152 -9.936,10.152 -5.688,0 -9.936,-4.464 -9.936,-10.512 V 80.976 c 0,-5.976 4.248,-10.512 9.936,-10.512 5.76001,0 9.432,4.392 9.576,10.152 0,0.216 0.144,0.36 0.36,0.36 h 0.72 c 0.216,0 0.36,-0.144 0.36,-0.36 -0.144,-6.408 -4.608,-11.52 -11.016,-11.52 -6.552,0 -11.376,5.256 -11.376,11.88 v 27.648 c 0,6.696 4.824,11.88 11.376,11.88 z" transform="translate(0 278.2331734511986) translate(341.75815654079116 71.9116145908859) scale(1.3171184235105635) translate(-406.63587 -69.096)"></path> 
   <path id="path267359" style="font-style: normal; font-weight: 200; font-size: 72px; line-height: 1; font-family: Phenomena; font-variant-ligatures: none; text-align: center; text-anchor: middle; fill: rgb(32, 43, 18);" d="m 445.25937,120.504 c 6.408,0 10.22401,-4.752 10.22401,-10.944 V 94.44 c 0,-6.192 -3.81601,-10.944 -10.22401,-10.944 -6.40799,0 -10.224,4.752 -10.224,10.944 v 15.12 c 0,6.192 3.81601,10.944 10.224,10.944 z m 0,-1.296 c -5.544,0 -8.856,-4.248 -8.856,-9.648 V 94.44 c 0,-5.4 3.312,-9.648 8.856,-9.648 5.54401,0 8.856,4.248 8.856,9.648 v 15.12 c 0,5.4 -3.31199,9.648 -8.856,9.648 z" transform="translate(0 278.2331734511986) translate(388.3834901738533 90.87811988943798) scale(1.3171184235105635) translate(-435.03537 -83.496)"></path> 
   <path id="path267361" style="font-style: normal; font-weight: 200; font-size: 72px; line-height: 1; font-family: Phenomena; font-variant-ligatures: none; text-align: center; text-anchor: middle; fill: rgb(32, 43, 18);" d="m 491.1515,83.496 c -4.176,0 -7.344,2.664 -8.64,6.48 -1.368,-3.816 -4.464,-6.48 -8.64,-6.48 -6.12,0 -9.504,4.752 -9.504,10.728 v 25.416 c 0,0.216 0.144,0.36 0.36,0.36 h 0.648 c 0.216,0 0.36,-0.144 0.36,-0.36 V 94.224 c 0,-5.256 2.736,-9.432 8.136,-9.432 4.68,0 7.92,4.176 7.92,9.288 v 25.56 c 0,0.216 0.144,0.36 0.36,0.36 h 0.648 c 0.216,0 0.36,-0.144 0.36,-0.36 V 94.08 c 0,-5.112 3.24,-9.288 7.992,-9.288 5.328,0 8.064,4.176 8.064,9.432 v 25.416 c 0,0.216 0.144,0.36 0.36,0.36 h 0.648 c 0.216,0 0.36,-0.144 0.36,-0.36 V 94.224 c 0,-5.976 -3.384,-10.728 -9.432,-10.728 z" transform="translate(0 278.2331734511986) translate(436.23720796223415 90.87811988943798) scale(1.3171184235105635) translate(-464.3675 -83.496)"></path> 
   <path id="path267363" style="font-style: normal; font-weight: 200; font-size: 72px; line-height: 1; font-family: Phenomena; font-variant-ligatures: none; text-align: center; text-anchor: middle; fill: rgb(32, 43, 18);" d="m 536.714,83.496 c -4.176,0 -7.344,2.664 -8.64,6.48 -1.368,-3.816 -4.464,-6.48 -8.64,-6.48 -6.12,0 -9.504,4.752 -9.504,10.728 v 25.416 c 0,0.216 0.144,0.36 0.36,0.36 h 0.648 c 0.216,0 0.36,-0.144 0.36,-0.36 V 94.224 c 0,-5.256 2.736,-9.432 8.136,-9.432 4.68,0 7.92,4.176 7.92,9.288 v 25.56 c 0,0.216 0.144,0.36 0.36,0.36 h 0.648 c 0.216,0 0.36,-0.144 0.36,-0.36 V 94.08 c 0,-5.112 3.24,-9.288 7.992,-9.288 5.328,0 8.064,4.176 8.064,9.432 v 25.416 c 0,0.216 0.144,0.36 0.36,0.36 h 0.648 c 0.216,0 0.36,-0.144 0.36,-0.36 V 94.224 c 0,-5.976 -3.384,-10.728 -9.432,-10.728 z" transform="translate(0 278.2331734511986) translate(505.46824509800814 90.87811988943798) scale(1.3171184235105635) translate(-509.93 -83.496)"></path> 
   <path id="path267365" style="font-style: normal; font-weight: 200; font-size: 72px; line-height: 1; font-family: Phenomena; font-variant-ligatures: none; text-align: center; text-anchor: middle; fill: rgb(32, 43, 18);" d="m 564.7805,120.504 c 6.624,0 9.936,-4.608 10.08,-10.296 0,-0.144 -0.144,-0.288 -0.36,-0.288 h -0.648 c -0.216,0 -0.36,0.144 -0.36,0.36 -0.144,4.968 -2.88,8.928 -8.712,8.928 -5.76,0 -8.424,-4.176 -8.424,-9.504 v -5.472 h 7.2 c 7.848,0 11.592,-4.32 11.592,-10.152 0,-5.832 -4.176,-10.584 -10.08,-10.584 -6.12,0 -10.08,4.608 -10.08,10.872 v 15.336 c 0,6.048 3.168,10.8 9.792,10.8 z m -8.424,-17.568 v -8.568 c 0,-5.544 3.312,-9.576 8.712,-9.576 5.184,0 8.712,4.176 8.712,9.288 0,5.112 -3.024,8.856 -10.224,8.856 z" transform="translate(0 278.2331734511986) translate(574.035454548333 90.87811988943798) scale(1.3171184235105635) translate(-554.9885 -83.496)"></path> 
   <path id="path267367" style="font-style: normal; font-weight: 200; font-size: 72px; line-height: 1; font-family: Phenomena; font-variant-ligatures: none; text-align: center; text-anchor: middle; fill: rgb(32, 43, 18);" d="m 583.83687,120 h 0.648 c 0.216,0 0.36,-0.144 0.36,-0.36 V 95.16 c 0,-5.976 3.96001,-10.008 9.43201,-10.008 h 2.15999 c 0.216,0 0.36,-0.144 0.36,-0.36 v -0.576 c 0,-0.216 -0.144,-0.36 -0.36,-0.36 h -2.15999 c -6.19201,0 -10.80001,4.608 -10.80001,11.304 v 24.48 c 0,0.216 0.144,0.36 0.36,0.36 z" transform="translate(0 278.2331734511986) translate(620.7778404956924 91.3522825219018) scale(1.3171184235105635) translate(-583.47687 -83.856)"></path> 
   <path id="path267369" style="font-style: normal; font-weight: 200; font-size: 72px; line-height: 1; font-family: Phenomena; font-variant-ligatures: none; text-align: center; text-anchor: middle; fill: rgb(32, 43, 18);" d="m 610.98762,120.504 c 5.832,0 9.93601,-4.104 10.15201,-10.224 0,-0.216 -0.144,-0.36 -0.36001,-0.36 h -0.648 c -0.216,0 -0.36,0.144 -0.36,0.36 -0.216,5.328 -3.744,8.928 -8.784,8.928 -5.328,0 -8.928,-3.888 -8.928,-9.648 V 94.944 c 0,-6.12 3.456,-10.152 8.712,-10.152 4.96801,0 8.424,3.168 8.64,7.848 0,0.216 0.144,0.36 0.36,0.36 h 0.648 c 0.216,0 0.36,-0.144 0.36,-0.36 -0.216,-5.472 -4.248,-9.144 -10.008,-9.144 -6.048,0 -10.07999,4.608 -10.07999,11.448 v 14.616 c 0,6.552 4.10399,10.944 10.29599,10.944 z" transform="translate(0 278.2331734511986) translate(652.671547012579 90.87811988943798) scale(1.3171184235105635) translate(-600.69163 -83.496)"></path> 
   <path id="path267371" style="font-style: normal; font-weight: 200; font-size: 72px; line-height: 1; font-family: Phenomena; font-variant-ligatures: none; text-align: center; text-anchor: middle; fill: rgb(32, 43, 18);" d="m 629.28237,77.88 c 0.93601,0 1.584,-0.648 1.584,-1.584 0,-0.936 -0.64799,-1.584 -1.584,-1.584 -0.936,0 -1.58399,0.648 -1.58399,1.584 0,0.936 0.64799,1.584 1.58399,1.584 z m -0.36,42.12 h 0.64801 c 0.216,0 0.36,-0.144 0.36,-0.36 V 84.36 c 0,-0.216 -0.144,-0.36 -0.36,-0.36 h -0.64801 c -0.216,0 -0.36,0.144 -0.36,0.36 v 35.28 c 0,0.216 0.144,0.36 0.36,0.36 z" transform="translate(0 278.2331734511986) translate(697.462463961297 79.30855165732123) scale(1.3171184235105635) translate(-627.69838 -74.712)"></path> 
   <path id="path267373" style="font-style: normal; font-weight: 200; font-size: 72px; line-height: 1; font-family: Phenomena; font-variant-ligatures: none; text-align: center; text-anchor: middle; fill: rgb(32, 43, 18);" d="m 649.72812,120.504 c 6.192,0 9.648,-4.32 9.648,-11.16 V 94.368 c 0,-6.84 -3.672,-10.872 -9.648,-10.872 -6.264,0 -9.864,3.888 -10.15199,9.144 0,0.216 0.144,0.36 0.35999,0.36 h 0.648 c 0.216,0 0.36,-0.144 0.36,-0.36 0.288,-4.464 3.384,-7.848 8.784,-7.848 5.112,0 8.28,3.528 8.28,9.576 v 4.896 h -7.632 c -7.488,0 -11.37599,3.816 -11.37599,10.08 0,7.128 3.88799,11.16 10.72799,11.16 z m 0,-1.296 c -5.976,0 -9.36,-3.6 -9.36,-9.864 0,-5.472 3.384,-8.784 10.008,-8.784 h 7.632 v 8.784 c 0,6.048 -2.952,9.864 -8.28,9.864 z" transform="translate(0 278.2331734511986) translate(721.5680360687813 90.87811988943798) scale(1.3171184235105635) translate(-639.00013 -83.496)"></path> 
   <path id="path267375" style="font-style: normal; font-weight: 200; font-size: 72px; line-height: 1; font-family: Phenomena; font-variant-ligatures: none; text-align: center; text-anchor: middle; fill: rgb(32, 43, 18);" d="m 669.28175,120 h 0.648 c 0.216,0 0.36,-0.144 0.36,-0.36 V 69.96 c 0,-0.216 -0.144,-0.36 -0.36,-0.36 h -0.648 c -0.216,0 -0.36,0.144 -0.36,0.36 v 49.68 c 0,0.216 0.144,0.36 0.36,0.36 z" transform="translate(0 278.2331734511986) translate(770.1981819966375 72.5754422763352) scale(1.3171184235105635) translate(-668.92175 -69.6)"></path> 
  </g> 
  <g id="tagline" style="font-style:oblique;font-weight:300;font-size:32px;line-height:1;font-family:'Fira Sans Condensed';font-variant-ligatures:none;text-align:center;text-anchor:middle"></g> 
 </g> 
</svg>