<svg xmlns:dc="http://purl.org/dc/elements/1.1/" xmlns:cc="http://creativecommons.org/ns#" xmlns:rdf="http://www.w3.org/1999/02/22-rdf-syntax-ns#" xmlns:svg="http://www.w3.org/2000/svg" xmlns="http://www.w3.org/2000/svg" id="svg50275" viewbox="0 0 1024 768" height="768px" width="1024px" version="1.1"> <metadata id="metadata50281"> 
  <rdf:rdf> 
   <cc:work rdf:about=""> 
    <dc:format>
     image/svg+xml
    </dc:format> 
    <dc:type rdf:resource="http://purl.org/dc/dcmitype/StillImage"></dc:type> 
   </cc:work> 
  </rdf:rdf> 
 </metadata> <defs id="defs50279"></defs> <g id="logo-group"> 
  <g id="title" style="font-style:oblique;font-weight:700;font-size:72px;line-height:1;font-family:'Uni Neue';font-variant-ligatures:none;text-align:center;text-anchor:middle" aria-label="O7CHECKER"> 
   <path id="path50283" style="font-style: oblique; font-weight: 700; font-size: 72px; line-height: 1; font-family: &quot;Uni Neue&quot;; font-variant-ligatures: none; text-align: center; text-anchor: middle; fill: rgb(6, 5, 20);" d="m 363.11806,101.64 2.232,-12.744 c 2.16,-12.96 -4.32,-21.312 -16.632,-21.312 -12.6,0 -21.168,7.056 -23.256,18.864 l -2.232,12.744 c -2.232,12.816 4.032,21.744 16.344,21.744 12.96,0 21.456,-6.984 23.544,-19.296 z m -28.44,-1.152 2.376,-13.032 c 1.08,-5.904 4.464,-9.36 10.152,-9.36 5.472,0 7.632,3.96 6.624,9.72 l -2.304,13.176 c -1.008,5.832 -4.608,9.432 -10.296,9.432 -5.328,0 -7.56,-4.032 -6.552,-9.936 z" transform="translate(0 280.7986453203604) translate(251.9999999999999 69.0185611146697) scale(1.2814062664931003) translate(-322.78457 -67.584)"></path> 
   <path id="path50285" style="font-style: oblique; font-weight: 700; font-size: 72px; line-height: 1; font-family: &quot;Uni Neue&quot;; font-variant-ligatures: none; text-align: center; text-anchor: middle; fill: rgb(6, 5, 20);" d="m 379.35294,120 c 0.72,0 1.152,-0.288 1.512,-0.864 l 24.84,-41.688 c 0.288,-0.504 0.432,-0.936 0.504,-1.44 l 1.008,-6.12 c 0.144,-0.792 -0.288,-1.368 -1.08,-1.368 h -31.896 c -0.792,0 -1.224,0.36 -1.296,1.152 l -1.368,7.776 c -0.144,0.792 0.288,1.368 1.152,1.368 h 19.872 l -23.688,39.672 c -0.504,0.864 -0.072,1.512 0.864,1.512 z" transform="translate(0 280.7986453203604) translate(314.6806282286431 70.21795738010724) scale(1.2814062664931003) translate(-368.70007 -68.52)"></path> 
   <path id="path50287" style="font-style: oblique; font-weight: 700; font-size: 72px; line-height: 1; font-family: &quot;Uni Neue&quot;; font-variant-ligatures: none; text-align: center; text-anchor: middle; fill: rgb(246, 242, 242);" d="m 440.81056,116.328 c 0.504,-0.288 0.576,-0.72 0.216,-1.512 l -3.384,-7.056 c -0.432,-0.792 -1.008,-0.936 -1.728,-0.504 -3.024,2.016 -6.84,3.168 -10.152,3.168 -5.616,0 -8.208,-3.168 -7.272,-9 l 2.52,-14.544 c 0.864,-5.328 4.32,-8.856 10.08,-8.856 3.096,0 6.048,1.008 8.352,2.592 0.72,0.432 1.296,0.36 1.728,-0.216 l 5.256,-6.192 c 0.504,-0.648 0.504,-1.296 -0.144,-1.728 -3.528,-2.952 -8.568,-4.896 -14.184,-4.896 -11.664,0 -20.52,6.12 -22.608,18.144 l -2.52,14.616 c -2.232,12.96 4.824,20.592 16.704,20.592 7.128,0 12.672,-1.944 17.136,-4.608 z" transform="translate(0 280.7986453203604) translate(367.0390292322405 69.0185611146697) scale(1.2814062664931003) translate(-406.56018 -67.584)"></path> 
   <path id="path50289" style="font-style: oblique; font-weight: 700; font-size: 72px; line-height: 1; font-family: &quot;Uni Neue&quot;; font-variant-ligatures: none; text-align: center; text-anchor: middle; fill: rgb(246, 242, 242);" d="m 477.84106,88.752 h -14.832 l 3.312,-18.864 c 0.072,-0.792 -0.288,-1.368 -1.152,-1.368 h -8.928 c -0.72,0 -1.152,0.432 -1.296,1.152 l -8.64,48.96 c -0.144,0.792 0.288,1.368 1.152,1.368 h 8.856 c 0.792,0 1.224,-0.432 1.368,-1.152 l 3.456,-19.656 h 14.904 l -3.456,19.44 c -0.144,0.792 0.288,1.368 1.08,1.368 h 8.928 c 0.792,0 1.224,-0.432 1.296,-1.152 l 8.712,-48.96 c 0.072,-0.792 -0.36,-1.368 -1.152,-1.368 h -8.928 c -0.72,0 -1.224,0.432 -1.296,1.152 z" transform="translate(0 280.7986453203604) translate(421.77761674772347 70.21795738010724) scale(1.2814062664931003) translate(-446.27777 -68.52)"></path> 
   <path id="path50291" style="font-style: oblique; font-weight: 700; font-size: 72px; line-height: 1; font-family: &quot;Uni Neue&quot;; font-variant-ligatures: none; text-align: center; text-anchor: middle; fill: rgb(246, 242, 242);" d="m 534.86956,69.888 c 0.144,-0.792 -0.288,-1.368 -1.152,-1.368 h -29.592 c -0.72,0 -1.152,0.432 -1.296,1.152 l -8.712,48.96 c -0.072,0.792 0.288,1.368 1.152,1.368 h 30.744 c 0.792,0 1.224,-0.36 1.368,-1.152 l 1.296,-7.848 c 0.072,-0.792 -0.36,-1.368 -1.152,-1.368 h -20.376 l 1.872,-10.728 h 17.352 c 0.72,0 1.152,-0.432 1.296,-1.152 l 1.368,-7.56 c 0.144,-0.864 -0.288,-1.368 -1.08,-1.368 h -17.136 l 1.8,-10.008 h 19.584 c 0.72,0 1.152,-0.432 1.296,-1.152 z" transform="translate(0 280.7986453203604) translate(486.912560840769 70.21795738010724) scale(1.2814062664931003) translate(-494.1086 -68.52)"></path> 
   <path id="path50293" style="font-style: oblique; font-weight: 700; font-size: 72px; line-height: 1; font-family: &quot;Uni Neue&quot;; font-variant-ligatures: none; text-align: center; text-anchor: middle; fill: rgb(246, 242, 242);" d="m 570.32619,116.328 c 0.504,-0.288 0.576,-0.72 0.216,-1.512 l -3.384,-7.056 c -0.432,-0.792 -1.008,-0.936 -1.728,-0.504 -3.024,2.016 -6.84,3.168 -10.152,3.168 -5.616,0 -8.208,-3.168 -7.272,-9 l 2.52,-14.544 c 0.864,-5.328 4.32,-8.856 10.08,-8.856 3.096,0 6.048,1.008 8.352,2.592 0.72,0.432 1.296,0.36 1.728,-0.216 l 5.256,-6.192 c 0.504,-0.648 0.504,-1.296 -0.144,-1.728 -3.528,-2.952 -8.568,-4.896 -14.184,-4.896 -11.664,0 -20.52,6.12 -22.608,18.144 l -2.52,14.616 c -2.232,12.96 4.824,20.592 16.704,20.592 7.128,0 12.672,-1.944 17.136,-4.608 z" transform="translate(0 280.7986453203604) translate(544.5338255214804 69.0185611146697) scale(1.2814062664931003) translate(-536.07581 -67.584)"></path> 
   <path id="path50295" style="font-style: oblique; font-weight: 700; font-size: 72px; line-height: 1; font-family: &quot;Uni Neue&quot;; font-variant-ligatures: none; text-align: center; text-anchor: middle; fill: rgb(246, 242, 242);" d="m 610.45269,68.52 c -0.576,0 -1.152,0.288 -1.512,0.72 l -16.272,18.504 3.168,-17.856 c 0.144,-0.864 -0.288,-1.368 -1.152,-1.368 h -8.856 c -0.792,0 -1.224,0.432 -1.368,1.152 l -8.64,48.96 c -0.144,0.792 0.288,1.368 1.152,1.368 h 8.856 c 0.792,0 1.224,-0.432 1.368,-1.152 l 2.664,-15.048 4.32,-4.176 9.432,19.44 c 0.216,0.648 0.792,0.936 1.44,0.936 h 10.152 c 0.936,0 1.368,-0.648 0.936,-1.512 l -13.752,-26.784 20.376,-21.6 c 0.72,-0.864 0.36,-1.584 -0.72,-1.584 z" transform="translate(0 280.7986453203604) translate(599.2724130369633 70.21795738010724) scale(1.2814062664931003) translate(-575.7934 -68.52)"></path> 
   <path id="path50297" style="font-style: oblique; font-weight: 700; font-size: 72px; line-height: 1; font-family: &quot;Uni Neue&quot;; font-variant-ligatures: none; text-align: center; text-anchor: middle; fill: rgb(246, 242, 242);" d="m 661.71331,69.888 c 0.144,-0.792 -0.288,-1.368 -1.152,-1.368 h -29.592 c -0.72,0 -1.152,0.432 -1.296,1.152 l -8.712,48.96 c -0.072,0.792 0.288,1.368 1.152,1.368 h 30.744 c 0.792,0 1.224,-0.36 1.368,-1.152 l 1.296,-7.848 c 0.072,-0.792 -0.36,-1.368 -1.152,-1.368 h -20.376 l 1.872,-10.728 h 17.352 c 0.72,0 1.152,-0.432 1.296,-1.152 l 1.368,-7.56 c 0.144,-0.864 -0.288,-1.368 -1.08,-1.368 h -17.136 l 1.8,-10.008 h 19.584 c 0.72,0 1.152,-0.432 1.296,-1.152 z" transform="translate(0 280.7986453203604) translate(660.9835933546912 70.21795738010724) scale(1.2814062664931003) translate(-620.95235 -68.52)"></path> 
   <path id="path50299" style="font-style: oblique; font-weight: 700; font-size: 72px; line-height: 1; font-family: &quot;Uni Neue&quot;; font-variant-ligatures: none; text-align: center; text-anchor: middle; fill: rgb(246, 242, 242);" d="m 672.24444,120 c 0.792,0 1.224,-0.432 1.368,-1.152 l 2.736,-15.984 h 4.752 l 6.624,16.2 c 0.216,0.648 0.72,0.936 1.44,0.936 h 9.792 c 0.936,0 1.296,-0.576 0.864,-1.44 l -8.064,-17.064 c 7.056,-2.16 11.304,-6.984 12.528,-14.472 1.728,-10.44 -3.96,-18.504 -15.624,-18.504 h -16.56 c -0.792,0 -1.224,0.432 -1.368,1.152 l -8.568,48.96 c -0.144,0.792 0.288,1.368 1.152,1.368 z m 8.28,-41.112 h 6.408 c 4.752,0 6.48,2.52 5.76,7.272 -0.72,4.392 -3.384,6.48 -8.208,6.48 h -6.336 z" transform="translate(0 280.7986453203604) translate(717.6022729584355 70.21795738010724) scale(1.2814062664931003) translate(-662.13715 -68.52)"></path> 
  </g> 
  <g id="tagline" style="font-style:oblique;font-weight:400;font-size:32px;line-height:1;font-family:Lato;font-variant-ligatures:none;text-align:center;text-anchor:middle"></g> 
 </g> 
</svg>