<svg xmlns:dc="http://purl.org/dc/elements/1.1/" xmlns:cc="http://creativecommons.org/ns#" xmlns:rdf="http://www.w3.org/1999/02/22-rdf-syntax-ns#" xmlns:svg="http://www.w3.org/2000/svg" xmlns="http://www.w3.org/2000/svg" id="svg11771" viewbox="0 0 1024 768" height="768px" width="1024px" version="1.1"> <metadata id="metadata11777"> 
  <rdf:rdf> 
   <cc:work rdf:about=""> 
    <dc:format>
     image/svg+xml
    </dc:format> 
    <dc:type rdf:resource="http://purl.org/dc/dcmitype/StillImage"></dc:type> 
   </cc:work> 
  </rdf:rdf> 
 </metadata> <defs id="defs11775"></defs> <g id="logo-group"> 
  <g id="title" style="font-style:normal;font-weight:200;font-size:72px;line-height:1;font-family:Phenomena;font-variant-ligatures:none;text-align:center;text-anchor:middle" aria-label="O7CON"> 
   <path id="path11779" style="font-style: normal; font-weight: 200; font-size: 72px; line-height: 1; font-family: Phenomena; font-variant-ligatures: none; text-align: center; text-anchor: middle; fill: rgb(129, 129, 129);" d="m 452.1185,120.504 c 7.056,0 11.592,-4.896 11.592,-13.248 v -24.84 c 0,-8.424 -4.536,-13.32 -11.592,-13.32 -7.056,0 -11.592,4.896 -11.592,13.32 v 24.84 c 0,8.352 4.536,13.248 11.592,13.248 z m 0,-1.368 c -6.192,0 -10.152,-4.32 -10.152,-11.88 v -24.84 c 0,-7.632 3.96,-11.952 10.152,-11.952 6.192,0 10.152,4.32 10.152,11.952 v 24.84 c 0,7.56 -3.96,11.88 -10.152,11.88 z" transform="translate(0 113.60762384269395) translate(252 191.9007177106036) scale(3.053674853980022) translate(-440.5265 -69.096)"></path> 
   <path id="path11781" style="font-style: normal; font-weight: 200; font-size: 72px; line-height: 1; font-family: Phenomena; font-variant-ligatures: none; text-align: center; text-anchor: middle; fill: rgb(129, 129, 129);" d="m 470.285,69.96 v 0.648 c 0,0.216 0.144,0.36 0.36,0.36 h 18 l -12.168,48.6 c -0.072,0.288 0.144,0.432 0.36,0.432 h 0.72 c 0.216,0 0.288,-0.072 0.36,-0.288 l 12.24,-48.816 c 0.072,-0.36 0.072,-0.576 0.072,-0.864 0,-0.288 -0.216,-0.432 -0.432,-0.432 h -19.152 c -0.216,0 -0.36,0.144 -0.36,0.36 z" transform="translate(0 113.60762384269395) translate(364.24850712002467 193.43976983700952) scale(3.053674853980022) translate(-470.285 -69.6)"></path> 
   <path id="path11783" style="font-style: normal; font-weight: 200; font-size: 72px; line-height: 1; font-family: Phenomena; font-variant-ligatures: none; text-align: center; text-anchor: middle; fill: rgb(224, 224, 224);" d="m 508.99625,120.504 c 6.624,0 11.16,-4.968 11.376,-11.448 0,-0.288 -0.144,-0.432 -0.36,-0.432 h -0.72 c -0.216,0 -0.36,0.144 -0.36,0.36 -0.144,5.832 -3.96,10.152 -9.936,10.152 -5.688,0 -9.936,-4.464 -9.936,-10.512 V 80.976 c 0,-5.976 4.248,-10.512 9.936,-10.512 5.76,0 9.432,4.392 9.576,10.152 0,0.216 0.144,0.36 0.36,0.36 h 0.72 c 0.216,0 0.36,-0.144 0.36,-0.36 -0.144,-6.408 -4.608,-11.52 -11.016,-11.52 -6.552,0 -11.376,5.256 -11.376,11.88 v 27.648 c 0,6.696 4.824,11.88 11.376,11.88 z" transform="translate(0 113.60762384269395) translate(469.09719665014205 191.9007177106036) scale(3.053674853980022) translate(-497.62025 -69.096)"></path> 
   <path id="path11785" style="font-style: normal; font-weight: 200; font-size: 72px; line-height: 1; font-family: Phenomena; font-variant-ligatures: none; text-align: center; text-anchor: middle; fill: rgb(224, 224, 224);" d="m 539.44663,120.504 c 7.05599,0 11.592,-4.896 11.592,-13.248 v -24.84 c 0,-8.424 -4.53601,-13.32 -11.592,-13.32 -7.05601,0 -11.592,4.896 -11.592,13.32 v 24.84 c 0,8.352 4.53599,13.248 11.592,13.248 z m 0,-1.368 c -6.192,0 -10.15201,-4.32 -10.15201,-11.88 v -24.84 c 0,-7.632 3.96001,-11.952 10.15201,-11.952 6.192,0 10.15199,4.32 10.15199,11.952 v 24.84 c 0,7.56 -3.95999,11.88 -10.15199,11.88 z" transform="translate(0 113.60762384269395) translate(582.7988865596789 191.9007177106036) scale(3.053674853980022) translate(-527.85463 -69.096)"></path> 
   <path id="path11787" style="font-style: normal; font-weight: 200; font-size: 72px; line-height: 1; font-family: Phenomena; font-variant-ligatures: none; text-align: center; text-anchor: middle; fill: rgb(224, 224, 224);" d="m 560.99712,120 h 0.72 c 0.21601,0 0.36001,-0.144 0.36001,-0.36 V 81.696 c 0,-6.984 3.88799,-11.232 9.648,-11.232 5.832,0 9.64799,4.248 9.64799,11.232 v 37.944 c 0,0.216 0.144,0.36 0.36,0.36 h 0.72 c 0.216,0 0.36001,-0.144 0.36001,-0.36 V 81.696 c 0,-7.632 -4.53601,-12.6 -11.088,-12.6 -6.624,0 -11.08801,4.968 -11.08801,12.6 v 37.944 c 0,0.216 0.144,0.36 0.36,0.36 z" transform="translate(0 113.60762384269395) translate(704.2816759013904 191.9007177106036) scale(3.053674853980022) translate(-560.63712 -69.096)"></path> 
  </g> 
  <g id="tagline" style="font-style:oblique;font-weight:300;font-size:32px;line-height:1;font-family:'Fira Sans Condensed';font-variant-ligatures:none;text-align:center;text-anchor:middle"></g> 
 </g> 
</svg>