<svg xmlns:dc="http://purl.org/dc/elements/1.1/" xmlns:cc="http://creativecommons.org/ns#" xmlns:rdf="http://www.w3.org/1999/02/22-rdf-syntax-ns#" xmlns:svg="http://www.w3.org/2000/svg" xmlns="http://www.w3.org/2000/svg" id="svg361033" viewbox="0 0 1024 768" height="768px" width="1024px" version="1.1"> <metadata id="metadata361039"> 
  <rdf:rdf> 
   <cc:work rdf:about=""> 
    <dc:format>
     image/svg+xml
    </dc:format> 
    <dc:type rdf:resource="http://purl.org/dc/dcmitype/StillImage"></dc:type> 
   </cc:work> 
  </rdf:rdf> 
 </metadata> <defs id="defs361037"></defs> <g id="logo-group"> 
  <g id="title" style="font-style:normal;font-weight:700;font-size:72px;line-height:1;font-family:'Brandmark1 Bold';font-variant-ligatures:none;text-align:center;text-anchor:middle" aria-label="o7crossing"> 
   <path id="path361041" style="font-style: normal; font-weight: 700; font-size: 72px; line-height: 1; font-family: &quot;Brandmark1 Bold&quot;; font-variant-ligatures: none; text-align: center; text-anchor: middle; fill: rgb(0, 0, 0);" d="m 361.7495,123.024 c 2.736,0 5.472,-0.576 7.992,-1.584 2.448,-1.08 4.68,-2.52 6.552,-4.392 1.872,-1.944 3.312,-4.104 4.392,-6.552 1.08,-2.52 1.584,-5.256 1.584,-7.992 0,-2.808 -0.504,-5.472 -1.584,-7.992 -1.08,-2.448 -2.52,-4.68 -4.392,-6.552 -1.944,-1.872 -4.104,-3.312 -6.552,-4.392 -2.52,-1.08 -5.256,-1.584 -7.992,-1.584 -2.736,0 -5.472,0.504 -7.992,1.584 -2.448,1.08 -4.608,2.52 -6.552,4.392 -1.872,1.944 -3.312,4.104 -4.392,6.552 -1.008,2.52 -1.584,5.184 -1.584,7.992 0,2.736 0.576,5.472 1.584,7.992 1.08,2.448 2.52,4.608 4.392,6.552 1.944,1.872 4.104,3.312 6.552,4.392 2.52,1.008 5.256,1.584 7.992,1.584 z m 0,-30.24 c 5.328,0 9.72,4.392 9.72,9.72 0,5.328 -4.392,9.72 -9.72,9.72 -5.328,0 -9.72,-4.392 -9.72,-9.72 0,-5.328 4.392,-9.72 9.72,-9.72 z" transform="translate(0 259.65206815078216) translate(251.99999999999994 95.37061487454609) scale(1.3830334562176292) translate(-341.2295 -81.984)"></path> 
   <path id="path361043" style="font-style: normal; font-weight: 700; font-size: 72px; line-height: 1; font-family: &quot;Brandmark1 Bold&quot;; font-variant-ligatures: none; text-align: center; text-anchor: middle; fill: rgb(0, 0, 0);" d="m 384.59937,121.512 11.16,2.232 20.59201,-48.384 V 68.016 H 380.63937 V 78.6 h 22.536 z" transform="translate(0 259.65206815078216) translate(312.0373025400579 76.05240355809828) scale(1.3830334562176292) translate(-380.63937 -68.016)"></path> 
   <path id="path361045" style="font-style: normal; font-weight: 700; font-size: 72px; line-height: 1; font-family: &quot;Brandmark1 Bold&quot;; font-variant-ligatures: none; text-align: center; text-anchor: middle; fill: rgb(255, 202, 8);" d="m 435.01512,123.096 c 6.696,0 13.032,-3.312 16.92,-8.928 l -8.928,-6.12 c -1.79999,2.664 -4.82399,4.248 -7.992,4.248 -5.4,0 -9.72,-4.392 -9.72,-9.72 0,-5.4 4.32,-9.72 9.72,-9.72 3.09601,0 6.12001,1.512 7.92001,4.104 l 8.856,-6.192 c -1.87201,-2.664 -4.392,-4.824 -7.20001,-6.336 -2.952,-1.584 -6.26399,-2.376 -9.576,-2.376 -2.80799,0 -5.472,0.504 -7.992,1.584 -2.44799,1.08 -4.68,2.52 -6.552,4.392 -1.87199,1.944 -3.38399,4.104 -4.392,6.552 -1.08,2.52 -1.584,5.256 -1.584,7.992 0,2.736 0.504,5.472 1.584,7.992 1.00801,2.448 2.52001,4.608 4.392,6.552 1.872,1.872 4.10401,3.312 6.552,4.392 2.52,1.008 5.18401,1.584 7.992,1.584 z" transform="translate(0 259.65206815078216) translate(364.39307130026845 95.47019328339378) scale(1.3830334562176292) translate(-414.49512 -82.056)"></path> 
   <path id="path361047" style="font-style: normal; font-weight: 700; font-size: 72px; line-height: 1; font-family: &quot;Brandmark1 Bold&quot;; font-variant-ligatures: none; text-align: center; text-anchor: middle; fill: rgb(255, 202, 8);" d="m 465.002,122.52 v 0 -17.712 c 0,-6.912 5.616,-12.6 12.6,-12.6 v -10.8 c -3.168,0 -6.264,0.648 -9.144,1.872 -2.736,1.152 -5.256,2.88 -7.416,5.04 -2.16,2.088 -3.816,4.608 -5.04,7.416 -1.224,2.88 -1.8,5.904 -1.8,9.072 v 17.712 z" transform="translate(0 259.65206815078216) translate(424.84114860715766 94.57398760376476) scale(1.3830334562176292) translate(-454.202 -81.408)"></path> 
   <path id="path361049" style="font-style: normal; font-weight: 700; font-size: 72px; line-height: 1; font-family: &quot;Brandmark1 Bold&quot;; font-variant-ligatures: none; text-align: center; text-anchor: middle; fill: rgb(255, 202, 8);" d="m 496.89012,123.024 c 2.736,0 5.472,-0.576 7.992,-1.584 2.448,-1.08 4.68,-2.52 6.552,-4.392 1.872,-1.944 3.312,-4.104 4.39201,-6.552 1.07999,-2.52 1.58399,-5.256 1.58399,-7.992 0,-2.808 -0.504,-5.472 -1.58399,-7.992 -1.08001,-2.448 -2.52001,-4.68 -4.39201,-6.552 -1.944,-1.872 -4.104,-3.312 -6.552,-4.392 -2.52,-1.08 -5.256,-1.584 -7.992,-1.584 -2.73599,0 -5.472,0.504 -7.992,1.584 -2.44799,1.08 -4.608,2.52 -6.552,4.392 -1.87199,1.944 -3.31199,4.104 -4.392,6.552 -1.008,2.52 -1.584,5.184 -1.584,7.992 0,2.736 0.576,5.472 1.584,7.992 1.08001,2.448 2.52001,4.608 4.392,6.552 1.944,1.872 4.10401,3.312 6.552,4.392 2.52,1.008 5.25601,1.584 7.992,1.584 z m 0,-30.24 c 5.328,0 9.72,4.392 9.72,9.72 0,5.328 -4.392,9.72 -9.72,9.72 -5.328,0 -9.72,-4.392 -9.72,-9.72 0,-5.328 4.392,-9.72 9.72,-9.72 z" transform="translate(0 259.65206815078216) translate(461.03253405347533 95.37061487454609) scale(1.3830334562176292) translate(-476.37012 -81.984)"></path> 
   <path id="path361051" style="font-style: normal; font-weight: 700; font-size: 72px; line-height: 1; font-family: &quot;Brandmark1 Bold&quot;; font-variant-ligatures: none; text-align: center; text-anchor: middle; fill: rgb(255, 202, 8);" d="m 536.25612,122.952 c 7.27201,0 13.17601,-5.904 13.17601,-13.176 0,-7.272 -5.904,-13.176 -13.17601,-13.176 h -3.024 c -1.08,0 -1.87199,-0.864 -1.87199,-1.872 0,-1.08 0.79199,-1.944 1.87199,-1.944 h 15.048 V 81.48 h -15.048 c -7.272,0 -13.176,5.976 -13.176,13.248 0,7.272 5.904,13.176 13.176,13.176 h 3.024 c 1.00801,0 1.872,0.864 1.872,1.872 0,1.08 -0.86399,1.872 -1.872,1.872 h -16.84799 v 11.304 z" transform="translate(0 259.65206815078216) translate(526.0876755973748 94.67356601261243) scale(1.3830334562176292) translate(-519.40813 -81.48)"></path> 
   <path id="path361053" style="font-style: normal; font-weight: 700; font-size: 72px; line-height: 1; font-family: &quot;Brandmark1 Bold&quot;; font-variant-ligatures: none; text-align: center; text-anchor: middle; fill: rgb(255, 202, 8);" d="m 567.75612,122.952 c 7.27201,0 13.17601,-5.904 13.17601,-13.176 0,-7.272 -5.904,-13.176 -13.17601,-13.176 h -3.024 c -1.08,0 -1.87199,-0.864 -1.87199,-1.872 0,-1.08 0.79199,-1.944 1.87199,-1.944 h 15.048 V 81.48 h -15.048 c -7.272,0 -13.176,5.976 -13.176,13.248 0,7.272 5.904,13.176 13.176,13.176 h 3.024 c 1.00801,0 1.872,0.864 1.872,1.872 0,1.08 -0.86399,1.872 -1.872,1.872 h -16.84799 v 11.304 z" transform="translate(0 259.65206815078216) translate(575.1853632931005 94.67356601261243) scale(1.3830334562176292) translate(-550.90813 -81.48)"></path> 
   <path id="path361055" style="font-style: normal; font-weight: 700; font-size: 72px; line-height: 1; font-family: &quot;Brandmark1 Bold&quot;; font-variant-ligatures: none; text-align: center; text-anchor: middle; fill: rgb(255, 202, 8);" d="m 584.71213,122.52 h 10.87199 V 80.976 l -10.87199,3.6 z" transform="translate(0 259.65206815078216) translate(627.4695600719517 93.97651715067873) scale(1.3830334562176292) translate(-584.71213 -80.976)"></path> 
   <path id="path361057" style="font-style: normal; font-weight: 700; font-size: 72px; line-height: 1; font-family: &quot;Brandmark1 Bold&quot;; font-variant-ligatures: none; text-align: center; text-anchor: middle; fill: rgb(255, 202, 8);" d="m 632.81825,88.392 c -3.456,-3.384 -7.992,-5.256 -12.816,-5.256 -2.592,0 -5.04,0.504 -7.272,1.512 v -2.664 h -10.8 v 17.64 c -0.072,0.576 -0.072,1.08 -0.072,1.656 h 0.072 v 21.24 h 10.8 V 100.2 c 0.504,-3.528 3.528,-6.264 7.272,-6.264 4.032,0 7.344,3.312 7.344,7.344 v 21.24 h 10.8 v -21.24 c 0,-4.896 -1.944,-9.432 -5.328,-12.888 z" transform="translate(0 259.65206815078216) translate(656.7153515011445 95.37061487454609) scale(1.3830334562176292) translate(-601.85825 -81.984)"></path> 
   <path id="path361059" style="font-style: normal; font-weight: 700; font-size: 72px; line-height: 1; font-family: &quot;Brandmark1 Bold&quot;; font-variant-ligatures: none; text-align: center; text-anchor: middle; fill: rgb(255, 202, 8);" d="m 675.31062,87.888 c -3.81599,-3.816 -8.928,-5.904 -14.256,-5.904 -5.4,0 -10.51199,2.088 -14.32799,5.904 -3.81601,3.816 -5.904,8.856 -5.904,14.256 0,5.4 2.08799,10.44 5.904,14.256 3.816,3.816 8.92799,5.904 14.32799,5.904 3.168,0 6.264,-0.72 9,-2.088 -1.07999,3.96 -4.75199,6.84 -9,6.84 -2.448,0 -4.75199,-0.936 -6.48,-2.592 l -7.48799,7.848 c 3.81599,3.6 8.712,5.544 13.89599,5.544 5.4,0 10.51201,-2.088 14.328,-5.904 3.816,-3.816 5.904,-8.856 5.904,-14.256 v -15.552 c 0,-5.4 -2.088,-10.44 -5.904,-14.256 z m -14.256,23.616 c -5.18399,0 -9.432,-4.176 -9.432,-9.36 0,-5.184 4.24801,-9.432 9.432,-9.432 5.184,0 9.36,4.248 9.36,9.432 0,5.184 -4.248,9.36 -9.36,9.36 z" transform="translate(0 259.65206815078216) translate(716.136526466792 95.37061487454609) scale(1.3830334562176292) translate(-640.82263 -81.984)"></path> 
  </g> 
  <g id="tagline" style="font-style:normal;font-weight:400;font-size:32px;line-height:1;font-family:Montserrat;font-variant-ligatures:none;text-align:center;text-anchor:middle"></g> 
 </g> 
</svg>