<svg xmlns:dc="http://purl.org/dc/elements/1.1/" xmlns:cc="http://creativecommons.org/ns#" xmlns:rdf="http://www.w3.org/1999/02/22-rdf-syntax-ns#" xmlns:svg="http://www.w3.org/2000/svg" xmlns="http://www.w3.org/2000/svg" id="svg80915" viewbox="0 0 1024 768" height="768px" width="1024px" version="1.1"> <metadata id="metadata80921"> 
  <rdf:rdf> 
   <cc:work rdf:about=""> 
    <dc:format>
     image/svg+xml
    </dc:format> 
    <dc:type rdf:resource="http://purl.org/dc/dcmitype/StillImage"></dc:type> 
   </cc:work> 
  </rdf:rdf> 
 </metadata> <defs id="defs80919"></defs> <g id="logo-group"> 
  <g id="title" style="font-style:normal;font-weight:400;font-size:72px;line-height:1;font-family:'Abril Fatface';font-variant-ligatures:none;text-align:center;text-anchor:middle" aria-label="O7CAM"> 
   <path id="path80923" style="font-style: normal; font-weight: 400; font-size: 72px; line-height: 1; font-family: &quot;Abril Fatface&quot;; font-variant-ligatures: none; text-align: center; text-anchor: middle; fill: rgb(163, 148, 106);" d="m 423.47825,97.752 v -5.328 q 0,-13.176 -1.296,-16.632 -1.44,-3.96 -4.104,-4.896 -1.512,-0.576 -3.672,-0.576 -2.16,0 -3.744,0.576 -1.512,0.576 -2.52,2.016 -1.008,1.44 -1.656,3.024 -0.576,1.584 -0.936,4.464 -0.432,4.176 -0.432,12.312 v 5.184 q 0,8.784 0.648,12.528 0.72,3.672 1.728,5.256 2.232,3.528 6.912,3.528 5.688,0 7.344,-4.752 1.728,-4.824 1.728,-16.704 z m -9.216,22.968 q -12.024,0 -18,-6.48 -5.904,-6.552 -5.904,-18.864 0,-12.384 6.336,-19.44 6.408,-7.128 18.072,-7.128 11.664,0 17.568,6.768 5.976,6.696 5.976,19.08 0,12.384 -6.048,19.224 -5.976,6.84 -18,6.84 z" transform="translate(0 201.22102860438918) translate(251.99999999999994 127.5640012640791) scale(2.1272526634123805) translate(-390.35825 -68.808)"></path> 
   <path id="path80925" style="font-style: normal; font-weight: 400; font-size: 72px; line-height: 1; font-family: &quot;Abril Fatface&quot;; font-variant-ligatures: none; text-align: center; text-anchor: middle; fill: rgb(163, 148, 106);" d="m 458.18563,120.72 q -3.88801,0 -6.12001,-2.088 -2.232,-2.16 -2.232,-5.256 0,-3.168 2.088,-6.912 2.16,-3.816 9.28801,-12.096 l 11.87999,-13.752 h -18.432 q -5.112,0 -6.76799,1.296 -1.584,1.224 -2.52001,5.976 h -1.152 L 445.00963,69.6 h 32.25599 v 7.776 l -7.992,13.968 q -5.328,9.432 -6.84,13.536 -1.44,4.032 -1.44,7.704 0,3.672 2.16,6.768 l -0.50399,0.864 q -2.01601,0.504 -4.464,0.504 z" transform="translate(0 201.22102860438918) translate(366.5724882822128 129.24878537350168) scale(2.1272526634123805) translate(-444.21762 -69.6)"></path> 
   <path id="path80927" style="font-style: normal; font-weight: 400; font-size: 72px; line-height: 1; font-family: &quot;Abril Fatface&quot;; font-variant-ligatures: none; text-align: center; text-anchor: middle; fill: rgb(163, 148, 106);" d="m 506.76875,70.248 q -11.16,0 -11.16,21.528 v 5.688 q 0,10.224 2.952,16.056 2.952,5.76 8.712,5.76 7.92,0 14.544,-15.408 h 1.296 l -0.504,16.056 h -0.792 q -0.432,-0.792 -0.792,-1.08 -0.36,-0.36 -1.08,-0.36 -0.648,0 -5.184,1.152 -4.536,1.08 -9.216,1.08 -11.736,0 -18.216,-6.336 -6.408,-6.336 -6.408,-19.008 0,-12.744 6.696,-19.656 6.768,-6.912 18.144,-6.912 4.392,0 8.568,1.152 4.248,1.08 4.968,1.08 0.72,0 1.08,-0.288 0.36,-0.36 0.792,-1.152 h 0.792 l 0.576,15.624 h -1.296 q -3.24,-7.272 -6.696,-11.088 -3.384,-3.888 -7.776,-3.888 z" transform="translate(0 201.22102860438918) translate(444.6493193302837 127.5640012640791) scale(2.1272526634123805) translate(-480.92075 -68.808)"></path> 
   <path id="path80929" style="font-style: normal; font-weight: 400; font-size: 72px; line-height: 1; font-family: &quot;Abril Fatface&quot;; font-variant-ligatures: none; text-align: center; text-anchor: middle; fill: rgb(163, 148, 106);" d="m 557.30713,118.632 -5.25601,-15.552 h -14.256 l -5.544,15.552 h 5.4 V 120 h -11.01599 v -1.368 h 3.384 l 18.36,-49.464 h 5.904 l 18.144,49.464 h 3.312 V 120 h -23.54401 v -1.368 z m -12.096,-36 -6.76801,18.864 h 13.03201 z" transform="translate(0 201.22102860438918) translate(541.8953559415294 128.32981222290755) scale(2.1272526634123805) translate(-526.63513 -69.168)"></path> 
   <path id="path80931" style="font-style: normal; font-weight: 400; font-size: 72px; line-height: 1; font-family: &quot;Abril Fatface&quot;; font-variant-ligatures: none; text-align: center; text-anchor: middle; fill: rgb(163, 148, 106);" d="m 615.581,69.6 h 19.224 v 1.368 h -3.96 v 47.664 h 3.96 V 120 h -21.96 v -1.368 h 3.96 v -45 h -0.288 L 605.717,120 h -9 L 584.045,73.416 h -0.288 v 45.216 h 3.96 V 120 h -9.792 v -1.368 h 3.96 V 70.968 h -3.96 V 69.6 h 19.44 l 9.576,37.08 z" transform="translate(0 201.22102860438918) translate(651.001868505104 129.24878537350168) scale(2.1272526634123805) translate(-577.925 -69.6)"></path> 
  </g> 
  <g id="tagline" style="font-style:oblique;font-weight:normal;font-size:32px;line-height:1;font-family:'Droid Serif';font-variant-ligatures:none;text-align:center;text-anchor:middle"></g> 
 </g> 
</svg>