<svg xmlns:dc="http://purl.org/dc/elements/1.1/" xmlns:cc="http://creativecommons.org/ns#" xmlns:rdf="http://www.w3.org/1999/02/22-rdf-syntax-ns#" xmlns:svg="http://www.w3.org/2000/svg" xmlns="http://www.w3.org/2000/svg" id="svg387445" viewbox="0 0 1024 768" height="768px" width="1024px" version="1.1"> <metadata id="metadata387451"> 
  <rdf:rdf> 
   <cc:work rdf:about=""> 
    <dc:format>
     image/svg+xml
    </dc:format> 
    <dc:type rdf:resource="http://purl.org/dc/dcmitype/StillImage"></dc:type> 
   </cc:work> 
  </rdf:rdf> 
 </metadata> <defs id="defs387449"></defs> <g id="logo-group"> 
  <g id="title" style="font-style:normal;font-weight:700;font-size:72px;line-height:1;font-family:'Comfortaa Bold Alt1';font-variant-ligatures:none;text-align:center;text-anchor:middle" aria-label="o7Cowgirl"> 
   <path id="path387453" style="font-style: normal; font-weight: 700; font-size: 72px; line-height: 1; font-family: &quot;Comfortaa Bold Alt1&quot;; font-variant-ligatures: none; text-align: center; text-anchor: middle; fill: rgb(187, 158, 91);" d="m 367.89425,82.92 c -3.024,-1.728 -6.408,-2.592 -10.152,-2.592 -3.888,0 -7.272,0.864 -10.296,2.592 -3.024,1.728 -5.4,4.032 -7.056,7.056 -1.728,3.024 -2.52,6.48 -2.52,10.368 0,3.888 0.792,7.272 2.52,10.296 1.656,3.024 4.032,5.4 7.056,7.128 3.024,1.728 6.408,2.52 10.296,2.52 3.816,0 7.2,-0.792 10.224,-2.52 3.024,-1.728 5.328,-4.104 7.056,-7.128 1.656,-3.024 2.52,-6.408 2.52,-10.296 0,-3.888 -0.864,-7.344 -2.592,-10.368 -1.728,-3.024 -4.032,-5.328 -7.056,-7.056 z m -16.776,5.616 c 1.944,-1.152 4.176,-1.728 6.624,-1.728 2.448,0 4.608,0.576 6.552,1.728 1.944,1.152 3.456,2.808 4.536,4.824 1.08,2.088 1.656,4.392 1.656,6.984 0,2.592 -0.576,4.968 -1.656,6.984 -1.08,2.016 -2.592,3.6 -4.536,4.752 -1.944,1.152 -4.104,1.728 -6.552,1.728 -2.448,0 -4.68,-0.576 -6.624,-1.728 -1.944,-1.152 -3.456,-2.736 -4.536,-4.752 -1.152,-2.016 -1.656,-4.392 -1.656,-6.984 0,-2.592 0.504,-4.896 1.656,-6.984 1.08,-2.016 2.592,-3.672 4.536,-4.824 z" transform="translate(0 249.7477440667599) translate(251.9999999999999 105.63614940022978) scale(1.4774941415226297) translate(-337.87025 -80.328)"></path> 
   <path id="path387455" style="font-style: normal; font-weight: 700; font-size: 72px; line-height: 1; font-family: &quot;Comfortaa Bold Alt1&quot;; font-variant-ligatures: none; text-align: center; text-anchor: middle; fill: rgb(187, 158, 91);" d="m 381.15913,70.104 c 0.71999,0.72 1.584,1.008 2.66399,1.008 h 21.888 l -20.664,42.912 c -0.432,0.864 -0.64799,1.656 -0.64799,2.304 0,1.008 0.35999,1.872 1.07999,2.592 0.72,0.72 1.512,1.08 2.52,1.08 0.64801,0 1.296,-0.144 1.944,-0.504 0.576,-0.36 1.08,-0.864 1.44,-1.512 l 23.04001,-48.6 c 0.28799,-0.72 0.50399,-1.368 0.50399,-1.944 0,-1.008 -0.35999,-1.872 -1.08,-2.592 -0.72,-0.72 -1.584,-1.08 -2.59199,-1.08 h -27.43201 c -1.07999,0 -1.944,0.36 -2.66399,1.08 -0.72001,0.72 -1.00801,1.584 -1.00801,2.592 0,1.08 0.288,1.944 1.00801,2.664 z" transform="translate(0 249.7477440667599) translate(314.4697377234798 81.16884641661505) scale(1.4774941415226297) translate(-380.15112 -63.768)"></path> 
   <path id="path387457" style="font-style: normal; font-weight: 700; font-size: 72px; line-height: 1; font-family: &quot;Comfortaa Bold Alt1&quot;; font-variant-ligatures: none; text-align: center; text-anchor: middle; fill: rgb(249, 246, 246);" d="m 454.55075,64.488 c -2.664,-0.936 -5.832,-1.44 -9.432,-1.44 -5.184,0 -9.864,1.296 -14.112,3.888 -4.248,2.592 -7.56,6.048 -10.008,10.44 -2.448,4.392 -3.672,9.216 -3.672,14.472 0,5.328 1.224,10.224 3.672,14.616 2.448,4.464 5.76,7.92 10.008,10.44 4.248,2.592 8.928,3.816 14.112,3.816 6.552,0 12.456,-2.088 17.64,-6.264 0.72,-0.72 1.152,-1.656 1.152,-2.664 0,-1.008 -0.36,-1.872 -0.936,-2.52 -0.576,-0.648 -1.368,-1.008 -2.232,-1.008 -0.792,0 -1.584,0.288 -2.376,0.864 -4.248,3.168 -8.64,4.752 -13.248,4.752 -3.744,0 -7.2,-0.936 -10.368,-2.952 -3.168,-1.944 -5.616,-4.608 -7.488,-7.992 -1.872,-3.312 -2.736,-7.056 -2.736,-11.088 0,-3.96 0.864,-7.632 2.736,-11.016 1.872,-3.384 4.32,-6.048 7.488,-8.064 3.168,-1.944 6.624,-2.952 10.368,-2.952 2.952,0 5.4,0.432 7.272,1.152 1.872,0.72 3.744,1.944 5.76,3.6 0.72,0.648 1.584,0.936 2.52,0.936 0.864,0 1.656,-0.288 2.376,-0.936 0.72,-0.576 1.08,-1.368 1.08,-2.376 0,-0.576 -0.144,-1.152 -0.288,-1.584 -0.216,-0.432 -0.576,-0.936 -1.152,-1.368 -2.736,-2.16 -5.472,-3.744 -8.136,-4.752 z" transform="translate(0 249.7477440667599) translate(369.3965132558927 80.10505063471876) scale(1.4774941415226297) translate(-417.32675 -63.048)"></path> 
   <path id="path387459" style="font-style: normal; font-weight: 700; font-size: 72px; line-height: 1; font-family: &quot;Comfortaa Bold Alt1&quot;; font-variant-ligatures: none; text-align: center; text-anchor: middle; fill: rgb(249, 246, 246);" d="m 500.363,82.92 c -3.024,-1.728 -6.408,-2.592 -10.152,-2.592 -3.888,0 -7.272,0.864 -10.296,2.592 -3.024,1.728 -5.4,4.032 -7.056,7.056 -1.728,3.024 -2.52,6.48 -2.52,10.368 0,3.888 0.792,7.272 2.52,10.296 1.656,3.024 4.032,5.4 7.056,7.128 3.024,1.728 6.408,2.52 10.296,2.52 3.816,0 7.2,-0.792 10.224,-2.52 3.024,-1.728 5.328,-4.104 7.056,-7.128 1.656,-3.024 2.52,-6.408 2.52,-10.296 0,-3.888 -0.864,-7.344 -2.592,-10.368 -1.728,-3.024 -4.032,-5.328 -7.056,-7.056 z m -16.776,5.616 c 1.944,-1.152 4.176,-1.728 6.624,-1.728 2.448,0 4.608,0.576 6.552,1.728 1.944,1.152 3.456,2.808 4.536,4.824 1.08,2.088 1.656,4.392 1.656,6.984 0,2.592 -0.576,4.968 -1.656,6.984 -1.08,2.016 -2.592,3.6 -4.536,4.752 -1.944,1.152 -4.104,1.728 -6.552,1.728 -2.448,0 -4.68,-0.576 -6.624,-1.728 -1.944,-1.152 -3.456,-2.736 -4.536,-4.752 -1.152,-2.016 -1.656,-4.392 -1.656,-6.984 0,-2.592 0.504,-4.896 1.656,-6.984 1.08,-2.016 2.592,-3.672 4.536,-4.824 z" transform="translate(0 249.7477440667599) translate(447.72180205982573 105.63614940022978) scale(1.4774941415226297) translate(-470.339 -80.328)"></path> 
   <path id="path387461" style="font-style: normal; font-weight: 700; font-size: 72px; line-height: 1; font-family: &quot;Comfortaa Bold Alt1&quot;; font-variant-ligatures: none; text-align: center; text-anchor: middle; fill: rgb(249, 246, 246);" d="m 562.96587,81.408 c -0.504,-0.504 -1.22399,-0.792 -2.232,-0.792 -1.87199,0 -3.096,1.152 -3.744,3.312 l -7.91999,24.768 -6.48001,-25.344 c -0.288,-0.792 -0.72,-1.44 -1.296,-1.944 -0.57599,-0.504 -1.36799,-0.792 -2.232,-0.792 -1.008,0 -1.79999,0.288 -2.376,0.792 -0.576,0.504 -1.008,1.152 -1.224,1.944 l -7.34399,24.84 -7.77601,-24.264 c -0.43199,-1.152 -0.93599,-1.944 -1.51199,-2.52 -0.57601,-0.504 -1.36801,-0.792 -2.232,-0.792 -2.01601,0 -3.024,1.008 -3.024,3.024 0,0.72 0.072,1.44 0.288,2.016 l 10.65599,31.968 c 0.216,0.72 0.64801,1.296 1.29601,1.728 0.64799,0.432 1.36799,0.648 2.16,0.648 0.72,0 1.43999,-0.216 2.08799,-0.648 0.648,-0.432 1.08001,-1.008 1.36801,-1.728 l 7.41599,-26.136 7.05601,26.136 c 0.144,0.72 0.576,1.296 1.22399,1.728 0.648,0.432 1.368,0.648 2.23201,0.648 0.71999,0 1.43999,-0.216 2.08799,-0.648 0.57601,-0.432 1.00801,-1.008 1.29601,-1.728 l 10.65599,-31.968 c 0.216,-0.576 0.36001,-1.296 0.36001,-2.088 0,-0.864 -0.28801,-1.584 -0.79201,-2.16 z" transform="translate(0 249.7477440667599) translate(511.6010839692597 106.06166771298831) scale(1.4774941415226297) translate(-513.57388 -80.616)"></path> 
   <path id="path387463" style="font-style: normal; font-weight: 700; font-size: 72px; line-height: 1; font-family: &quot;Comfortaa Bold Alt1&quot;; font-variant-ligatures: none; text-align: center; text-anchor: middle; fill: rgb(249, 246, 246);" d="m 597.95675,82.92 c -3.024,-1.728 -6.408,-2.592 -10.152,-2.592 -3.888,0 -7.272,0.864 -10.296,2.592 -3.024,1.728 -5.4,4.032 -7.056,7.056 -1.728,3.024 -2.52,6.48 -2.52,10.368 0,3.888 0.72,7.272 2.304,10.296 1.584,3.024 3.744,5.4 6.552,7.128 2.808,1.728 5.976,2.52 9.576,2.52 3.024,0 5.832,-0.72 8.28,-2.232 2.448,-1.44 4.392,-3.528 5.904,-6.192 v 3.528 c 0,3.024 -0.576,5.688 -1.728,7.848 -1.152,2.16 -2.736,3.816 -4.608,4.968 -1.944,1.152 -4.104,1.656 -6.408,1.656 -2.52,0 -4.752,-0.432 -6.696,-1.296 -2.016,-0.864 -3.6,-2.16 -4.896,-3.888 -0.792,-1.008 -1.8,-1.512 -2.952,-1.512 -0.72,0 -1.368,0.216 -2.016,0.648 -1.008,0.72 -1.512,1.584 -1.512,2.592 0,0.72 0.216,1.368 0.792,2.016 2.016,2.592 4.464,4.536 7.488,5.904 2.952,1.368 6.192,2.016 9.648,2.016 3.816,0 7.272,-0.864 10.296,-2.664 3.024,-1.8 5.4,-4.248 7.128,-7.416 1.656,-3.096 2.52,-6.552 2.52,-10.368 v -15.552 c 0,-3.888 -0.864,-7.344 -2.592,-10.368 -1.728,-3.024 -4.032,-5.328 -7.056,-7.056 z m -3.6,29.16 c -1.944,1.152 -4.104,1.728 -6.552,1.728 -2.448,0 -4.68,-0.576 -6.624,-1.728 -1.944,-1.152 -3.456,-2.736 -4.536,-4.752 -1.152,-2.016 -1.656,-4.392 -1.656,-6.984 0,-2.592 0.504,-4.896 1.656,-6.984 1.08,-2.016 2.592,-3.672 4.536,-4.824 1.944,-1.152 4.176,-1.728 6.624,-1.728 2.448,0 4.608,0.576 6.552,1.728 1.944,1.152 3.456,2.808 4.536,4.824 1.08,2.088 1.656,4.392 1.656,6.984 0,2.592 -0.576,4.968 -1.656,6.984 -1.08,2.016 -2.592,3.6 -4.536,4.752 z" transform="translate(0 249.7477440667599) translate(591.91599593405 105.63614940022978) scale(1.4774941415226297) translate(-567.93275 -80.328)"></path> 
   <path id="path387465" style="font-style: normal; font-weight: 700; font-size: 72px; line-height: 1; font-family: &quot;Comfortaa Bold Alt1&quot;; font-variant-ligatures: none; text-align: center; text-anchor: middle; fill: rgb(249, 246, 246);" d="m 620.333,81.624 c -0.72,0.72 -1.008,1.584 -1.008,2.664 v 32.04 c 0,1.08 0.288,1.944 1.008,2.664 0.72,0.72 1.584,1.008 2.664,1.008 1.08,0 1.944,-0.288 2.664,-1.008 0.648,-0.72 1.008,-1.584 1.008,-2.664 v -32.04 c 0,-1.08 -0.36,-1.944 -1.008,-2.664 -0.72,-0.648 -1.584,-1.008 -2.664,-1.008 -1.08,0 -1.944,0.36 -2.664,1.008 z" transform="translate(0 249.7477440667599) translate(667.8477442287162 106.06166771298831) scale(1.4774941415226297) translate(-619.325 -80.616)"></path> 
   <path id="path387467" style="font-style: normal; font-weight: 700; font-size: 72px; line-height: 1; font-family: &quot;Comfortaa Bold Alt1&quot;; font-variant-ligatures: none; text-align: center; text-anchor: middle; fill: rgb(249, 246, 246);" d="m 665.67387,81.336 c -1.44,-0.72 -3.45599,-1.152 -5.976,-1.152 -2.448,0 -4.68,0.504 -6.76799,1.44 -2.16001,1.008 -3.88801,2.304 -5.32801,3.96 v -1.368 c 0,-2.376 -1.22399,-3.6 -3.59999,-3.6 -1.15201,0 -2.08801,0.36 -2.664,0.936 -0.648,0.648 -0.936,1.512 -0.936,2.664 V 116.4 c 0,1.224 0.288,2.16 0.936,2.736 0.57599,0.576 1.51199,0.864 2.664,0.864 1.15199,0 2.08799,-0.288 2.664,-0.936 0.576,-0.576 0.93599,-1.512 0.93599,-2.664 V 95.376 c 0,-2.664 1.008,-4.824 3.168,-6.408 2.08801,-1.584 4.89601,-2.376 8.35201,-2.376 1.15199,0 2.736,0.216 4.67999,0.504 0.432,0.144 0.79201,0.144 1.08001,0.144 1.43999,0 2.448,-0.72 2.88,-2.304 0,-0.144 0.072,-0.36 0.072,-0.72 0,-1.152 -0.72001,-2.088 -2.16001,-2.88 z" transform="translate(0 249.7477440667599) translate(698.9887109502915 105.42339024385052) scale(1.4774941415226297) translate(-640.40188 -80.184)"></path> 
   <path id="path387469" style="font-style: normal; font-weight: 700; font-size: 72px; line-height: 1; font-family: &quot;Comfortaa Bold Alt1&quot;; font-variant-ligatures: none; text-align: center; text-anchor: middle; fill: rgb(249, 246, 246);" d="m 674.9855,64.776 c -0.72,0.72 -1.008,1.584 -1.008,2.592 v 39.312 c 0,2.592 0.432,4.896 1.368,6.912 0.864,2.016 2.16,3.6 3.816,4.752 1.656,1.152 3.528,1.656 5.616,1.656 h 0.144 c 1.44,0 2.592,-0.288 3.528,-1.008 0.864,-0.648 1.368,-1.512 1.368,-2.592 0,-1.008 -0.36,-1.872 -0.936,-2.592 -0.576,-0.648 -1.368,-1.008 -2.304,-1.008 h -1.8 c -1.08,0 -1.944,-0.576 -2.592,-1.728 -0.72,-1.152 -1.008,-2.592 -1.008,-4.392 V 67.368 c 0,-1.008 -0.36,-1.872 -1.008,-2.592 -0.72,-0.648 -1.584,-1.008 -2.592,-1.008 -1.08,0 -1.944,0.36 -2.592,1.008 z" transform="translate(0 249.7477440667599) translate(748.5964927982815 81.16884641661505) scale(1.4774941415226297) translate(-673.9775 -63.768)"></path> 
  </g> 
  <g id="tagline" style="font-style:normal;font-weight:500;font-size:32px;line-height:1;font-family:Raleway;font-variant-ligatures:none;text-align:center;text-anchor:middle"></g> 
 </g> 
</svg>