<svg xmlns:dc="http://purl.org/dc/elements/1.1/" xmlns:cc="http://creativecommons.org/ns#" xmlns:rdf="http://www.w3.org/1999/02/22-rdf-syntax-ns#" xmlns:svg="http://www.w3.org/2000/svg" xmlns="http://www.w3.org/2000/svg" id="svg475577" viewbox="0 0 1024 768" height="768px" width="1024px" version="1.1"> <metadata id="metadata475583"> 
  <rdf:rdf> 
   <cc:work rdf:about=""> 
    <dc:format>
     image/svg+xml
    </dc:format> 
    <dc:type rdf:resource="http://purl.org/dc/dcmitype/StillImage"></dc:type> 
   </cc:work> 
  </rdf:rdf> 
 </metadata> <defs id="defs475581"></defs> <g id="logo-group"> 
  <g id="title" style="font-style:normal;font-weight:700;font-size:72px;line-height:1;font-family:Phenomena;font-variant-ligatures:none;text-align:center;text-anchor:middle" aria-label="O7CASTED"> 
   <path id="path475585" style="font-style: normal; font-weight: 700; font-size: 72px; line-height: 1; font-family: Phenomena; font-variant-ligatures: none; text-align: center; text-anchor: middle; fill: rgb(1, 91, 125);" d="m 413.37125,120.72 c 7.488,0 12.672,-5.472 12.672,-13.032 V 81.912 c 0,-7.56 -5.184,-13.032 -12.672,-13.032 -7.488,0 -12.744,5.472 -12.744,13.536 v 24.768 c 0,8.064 5.256,13.536 12.744,13.536 z m 0,-6.048 c -3.672,0 -6.192,-2.736 -6.192,-7.2 V 82.128 c 0,-4.464 2.52,-7.2 6.192,-7.2 3.672,0 6.12,2.736 6.12,6.696 v 26.352 c 0,3.96 -2.448,6.696 -6.12,6.696 z" transform="translate(0 252.35523165807524) translate(252.00000000000006 90.50831522565166) scale(1.587054518374734) translate(-400.62725 -68.88)"></path> 
   <path id="path475587" style="font-style: normal; font-weight: 700; font-size: 72px; line-height: 1; font-family: Phenomena; font-variant-ligatures: none; text-align: center; text-anchor: middle; fill: rgb(1, 91, 125);" d="m 430.10787,70.536 v 4.104 c 0,0.648 0.36,1.008 0.93601,1.008 h 13.752 l -10.44,43.272 c -0.144,0.648 0.14399,1.08 0.86399,1.08 h 4.536 c 0.57601,0 0.936,-0.288 1.08,-0.864 L 451.34787,75 c 0.288,-1.224 0.36,-2.088 0.36,-3.384 0,-1.368 -0.79199,-2.016 -2.16,-2.016 h -18.50399 c -0.57601,0 -0.93601,0.36 -0.93601,0.936 z" transform="translate(0 252.35523165807524) translate(322.59316895110965 91.65099447888149) scale(1.587054518374734) translate(-430.10787 -69.6)"></path> 
   <path id="path475589" style="font-style: normal; font-weight: 700; font-size: 72px; line-height: 1; font-family: Phenomena; font-variant-ligatures: none; text-align: center; text-anchor: middle; fill: rgb(68, 192, 216);" d="m 469.04863,120.792 c 7.34399,0 12.168,-5.544 12.45599,-14.256 0,-0.648 -0.35999,-1.008 -0.936,-1.008 h -4.608 c -0.57599,0 -0.93599,0.288 -0.93599,0.936 -0.14401,5.256 -2.37601,8.208 -6.048,8.208 -3.60001,0 -5.688,-2.448 -5.688,-6.48 V 81.408 c 0,-4.032 2.08799,-6.48 5.688,-6.48 3.312,0 5.54399,2.664 5.68799,7.704 0,0.648 0.36001,0.936 0.936,0.936 h 4.608 c 0.648,0 0.93601,-0.36 0.93601,-0.936 -0.21601,-8.424 -5.04001,-13.824 -12.096,-13.824 -7.344,0 -12.31201,5.184 -12.31201,12.96 v 26.064 c 0,7.776 4.96801,12.96 12.31201,12.96 z" transform="translate(0 252.35523165807524) translate(388.66026473290185 90.3940473003287) scale(1.587054518374734) translate(-456.73662 -68.808)"></path> 
   <path id="path475591" style="font-style: normal; font-weight: 700; font-size: 72px; line-height: 1; font-family: Phenomena; font-variant-ligatures: none; text-align: center; text-anchor: middle; fill: rgb(68, 192, 216);" d="m 487.85525,120 h 4.608 c 0.576,0 0.936,-0.36 0.936,-1.008 v -15.984 h 11.664 v 15.984 c 0,0.648 0.432,1.008 1.008,1.008 h 4.536 c 0.648,0 1.008,-0.36 1.008,-1.008 V 82.128 c 0,-7.92 -4.968,-13.248 -12.384,-13.248 -7.416,0 -12.312,5.328 -12.312,13.248 v 36.864 c 0,0.648 0.36,1.008 0.936,1.008 z m 5.544,-22.968 V 81.84 c 0,-4.32 2.16,-6.84 5.832,-6.84 3.744,0 5.832,2.52 5.832,6.84 v 15.192 z" transform="translate(0 252.35523165807524) translate(460.3675618264556 90.50831522565166) scale(1.587054518374734) translate(-486.91925 -68.88)"></path> 
   <path id="path475593" style="font-style: normal; font-weight: 700; font-size: 72px; line-height: 1; font-family: Phenomena; font-variant-ligatures: none; text-align: center; text-anchor: middle; fill: rgb(68, 192, 216);" d="m 529.71312,120.792 c 7.48801,0 12.456,-4.68 12.456,-12.096 0,-14.688 -18.144,-18.072 -18.144,-28.368 0,-3.6 1.944,-5.472 5.472,-5.472 3.384,0 5.328,2.448 5.544,7.776 0,0.576 0.36,0.936 0.936,0.936 h 4.536 c 0.648,0 0.936,-0.36 0.936,-0.936 -0.288,-8.424 -4.96799,-13.824 -12.024,-13.824 -7.12799,0 -11.88,4.464 -11.88,11.52 0,13.824 18.072,17.208 18.072,28.368 0,3.888 -2.01599,5.976 -5.832,5.976 -3.888,0 -5.976,-2.736 -6.12,-8.208 -0.072,-0.576 -0.432,-0.936 -1.008,-0.936 h -4.536 c -0.648,0 -1.008,0.36 -1.008,1.008 0.288,8.712 5.11201,14.256 12.6,14.256 z" transform="translate(0 252.35523165807524) translate(532.0926974127958 90.3940473003287) scale(1.587054518374734) translate(-517.11312 -68.808)"></path> 
   <path id="path475595" style="font-style: normal; font-weight: 700; font-size: 72px; line-height: 1; font-family: Phenomena; font-variant-ligatures: none; text-align: center; text-anchor: middle; fill: rgb(68, 192, 216);" d="m 568.0385,69.6 h -22.104 c -0.576,0 -0.936,0.36 -0.936,0.936 v 4.104 c 0,0.648 0.36,1.008 0.936,1.008 h 7.848 v 43.344 c 0,0.648 0.36,1.008 0.936,1.008 h 4.536 c 0.648,0 1.008,-0.36 1.008,-1.008 V 75.648 h 7.776 c 0.648,0 1.008,-0.36 1.008,-1.008 v -4.104 c 0,-0.576 -0.36,-0.936 -1.008,-0.936 z" transform="translate(0 252.35523165807524) translate(600.1541335140132 91.65099447888149) scale(1.587054518374734) translate(-544.9985 -69.6)"></path> 
   <path id="path475597" style="font-style: normal; font-weight: 700; font-size: 72px; line-height: 1; font-family: Phenomena; font-variant-ligatures: none; text-align: center; text-anchor: middle; fill: rgb(68, 192, 216);" d="m 583.79863,120.216 h 7.55999 c 0.576,0 0.936,-0.36 0.936,-0.936 v -4.104 c 0,-0.648 -0.36,-1.008 -0.936,-1.008 h -7.05599 c -3.74401,0 -6.264,-2.88 -6.264,-6.984 v -9.72 h 11.51999 c 0.64801,0 1.00801,-0.36 1.00801,-1.008 v -3.888 c 0,-0.648 -0.36,-1.008 -1.00801,-1.008 h -11.51999 v -9.144 c 0,-4.104 2.51999,-6.984 6.264,-6.984 h 7.05599 c 0.576,0 0.936,-0.36 0.936,-1.008 V 70.32 c 0,-0.576 -0.36,-0.936 -0.936,-0.936 h -7.55999 c -7.27201,0 -12.31201,5.472 -12.31201,12.888 v 25.056 c 0,7.416 5.04,12.888 12.31201,12.888 z" transform="translate(0 252.35523165807524) translate(665.9980418188863 91.30819070291254) scale(1.587054518374734) translate(-571.48662 -69.384)"></path> 
   <path id="path475599" style="font-style: normal; font-weight: 700; font-size: 72px; line-height: 1; font-family: Phenomena; font-variant-ligatures: none; text-align: center; text-anchor: middle; fill: rgb(68, 192, 216);" d="m 601.67825,120.216 h 9.288 c 7.488,0 12.312,-5.472 12.312,-13.032 V 82.416 c 0,-7.56 -4.752,-13.032 -12.312,-13.032 h -9.288 c -1.872,0 -2.952,1.008 -2.952,2.88 v 45.072 c 0,1.872 1.08,2.88 2.952,2.88 z m 3.6,-6.048 V 75.432 h 5.472 c 3.816,0 5.976,2.736 5.976,6.84 v 25.056 c 0,4.104 -2.232,6.84 -5.976,6.84 z" transform="translate(0 252.35523165807524) translate(733.0346374648634 91.30819070291254) scale(1.587054518374734) translate(-598.72625 -69.384)"></path> 
  </g> 
  <g id="tagline" style="font-style:oblique;font-weight:normal;font-size:32px;line-height:1;font-family:'Fira Sans Condensed';font-variant-ligatures:none;text-align:center;text-anchor:middle"></g> 
 </g> 
</svg>