<svg xmlns:dc="http://purl.org/dc/elements/1.1/" xmlns:cc="http://creativecommons.org/ns#" xmlns:rdf="http://www.w3.org/1999/02/22-rdf-syntax-ns#" xmlns:svg="http://www.w3.org/2000/svg" xmlns="http://www.w3.org/2000/svg" id="svg634655" viewbox="0 0 1024 768" height="768px" width="1024px" version="1.1"> <metadata id="metadata634661"> 
  <rdf:rdf> 
   <cc:work rdf:about=""> 
    <dc:format>
     image/svg+xml
    </dc:format> 
    <dc:type rdf:resource="http://purl.org/dc/dcmitype/StillImage"></dc:type> 
   </cc:work> 
  </rdf:rdf> 
 </metadata> <defs id="defs634659"></defs> <g id="logo-group"> 
  <g id="title" style="font-style:normal;font-weight:700;font-size:72px;line-height:1;font-family:'Comfortaa Bold Alt2';font-variant-ligatures:none;text-align:center;text-anchor:middle" aria-label="o7Discover"> 
   <path id="path634663" style="font-style: normal; font-weight: 700; font-size: 72px; line-height: 1; font-family: &quot;Comfortaa Bold Alt2&quot;; font-variant-ligatures: none; text-align: center; text-anchor: middle; fill: rgb(241, 214, 173);" d="m 331.93587,120.288 c 5.544,0 10.224,-1.944 14.112,-5.832 3.888,-3.888 5.904,-8.568 5.904,-14.112 0,-5.544 -2.016,-10.224 -5.904,-14.112 -3.888,-3.888 -8.568,-5.904 -14.112,-5.904 -5.54399,0 -10.22399,2.016 -14.112,5.904 -3.888,3.888 -5.832,8.568 -5.832,14.112 0,5.544 1.944,10.224 5.832,14.112 3.88801,3.888 8.56801,5.832 14.112,5.832 z m 0,-33.048 c 3.6,0 6.696,1.296 9.28801,3.816 2.51999,2.592 3.81599,5.688 3.81599,9.288 0,3.6 -1.296,6.696 -3.81599,9.216 -2.59201,2.592 -5.68801,3.816 -9.28801,3.816 -3.6,0 -6.696,-1.224 -9.216,-3.816 -2.59199,-2.52 -3.816,-5.616 -3.816,-9.216 0,-3.6 1.22401,-6.696 3.816,-9.288 2.52,-2.52 5.616,-3.816 9.216,-3.816 z" transform="translate(0 294.6813010163811) translate(252.00000000000006 76.2127488585663) scale(1.1201666773549235) translate(-311.99187 -80.328)"></path> 
   <path id="path634665" style="font-style: normal; font-weight: 700; font-size: 72px; line-height: 1; font-family: &quot;Comfortaa Bold Alt2&quot;; font-variant-ligatures: none; text-align: center; text-anchor: middle; fill: rgb(241, 214, 173);" d="m 355.42475,70.104 c 0.72,0.72 1.584,1.008 2.664,1.008 h 21.888 l -20.664,42.912 c -0.432,0.864 -0.648,1.656 -0.648,2.304 0,1.008 0.36,1.872 1.08,2.592 0.72,0.72 1.512,1.08 2.52,1.08 0.648,0 1.296,-0.144 1.944,-0.504 0.576,-0.36 1.08,-0.864 1.44,-1.512 l 23.04,-48.6 c 0.288,-0.72 0.504,-1.368 0.504,-1.944 0,-1.008 -0.36,-1.872 -1.08,-2.592 -0.72,-0.72 -1.584,-1.08 -2.592,-1.08 h -27.432 c -1.08,0 -1.944,0.36 -2.664,1.08 -0.72,0.72 -1.008,1.584 -1.008,2.592 0,1.08 0.288,1.944 1.008,2.664 z" transform="translate(0 294.6813010163811) translate(307.36410360826585 57.662788681568756) scale(1.1201666773549235) translate(-354.41675 -63.768)"></path> 
   <path id="path634667" style="font-style: normal; font-weight: 700; font-size: 72px; line-height: 1; font-family: &quot;Comfortaa Bold Alt2&quot;; font-variant-ligatures: none; text-align: center; text-anchor: middle; fill: rgb(241, 214, 173);" d="m 429.79175,67.368 c -4.248,-2.376 -9.072,-3.6 -14.472,-3.6 h -13.032 c -1.08,0 -1.944,0.36 -2.664,1.08 -0.72,0.72 -1.08,1.584 -1.08,2.664 v 48.744 c 0,1.08 0.36,1.944 1.08,2.664 0.72,0.72 1.584,1.08 2.664,1.08 h 13.032 c 5.4,0 10.224,-1.152 14.472,-3.6 4.176,-2.376 7.488,-5.688 9.864,-10.008 2.304,-4.248 3.528,-9.072 3.528,-14.544 0,-5.4 -1.224,-10.224 -3.528,-14.472 -2.376,-4.248 -5.688,-7.56 -9.864,-10.008 z m -3.816,43.272 c -3.168,1.872 -6.696,2.736 -10.656,2.736 h -9.288 V 70.392 h 9.288 c 3.96,0 7.488,0.936 10.656,2.736 3.168,1.872 5.616,4.392 7.344,7.632 1.728,3.312 2.664,6.984 2.664,11.088 0,4.176 -0.936,7.848 -2.664,11.16 -1.728,3.312 -4.176,5.832 -7.344,7.632 z" transform="translate(0 294.6813010163811) translate(364.63486532139103 57.662788681568756) scale(1.1201666773549235) translate(-398.54375 -63.768)"></path> 
   <path id="path634669" style="font-style: normal; font-weight: 700; font-size: 72px; line-height: 1; font-family: &quot;Comfortaa Bold Alt2&quot;; font-variant-ligatures: none; text-align: center; text-anchor: middle; fill: rgb(241, 214, 173);" d="m 455.94238,81.624 c -0.72001,0.72 -1.00801,1.584 -1.00801,2.664 v 32.04 c 0,1.08 0.288,1.944 1.00801,2.664 0.71999,0.72 1.584,1.008 2.664,1.008 1.07999,0 1.94399,-0.288 2.66399,-1.008 0.64801,-0.72 1.008,-1.584 1.008,-2.664 v -32.04 c 0,-1.08 -0.35999,-1.944 -1.008,-2.664 -0.72,-0.648 -1.584,-1.008 -2.66399,-1.008 -1.08,0 -1.94401,0.36 -2.664,1.008 z m 5.976,-15.48 c -0.93601,-0.936 -2.01601,-1.44 -3.312,-1.44 -1.296,0 -2.44801,0.504 -3.38401,1.44 -0.93599,0.936 -1.368,2.016 -1.368,3.312 0,1.296 0.43201,2.448 1.368,3.384 0.936,0.936 2.08801,1.368 3.38401,1.368 1.29599,0 2.37599,-0.432 3.312,-1.368 0.93599,-0.936 1.44,-2.088 1.44,-3.384 0,-1.296 -0.50401,-2.376 -1.44,-3.312 z" transform="translate(0 294.6813010163811) translate(434.43314549071636 58.711264691572964) scale(1.1201666773549235) translate(-453.85437 -64.704)"></path> 
   <path id="path634671" style="font-style: normal; font-weight: 700; font-size: 72px; line-height: 1; font-family: &quot;Comfortaa Bold Alt2&quot;; font-variant-ligatures: none; text-align: center; text-anchor: middle; fill: rgb(241, 214, 173);" d="m 498.18725,81.84 c -2.448,-1.008 -5.256,-1.512 -8.352,-1.512 -2.592,0 -4.968,0.432 -7.2,1.224 -2.304,0.864 -4.104,2.088 -5.472,3.672 -1.44,1.656 -2.088,3.672 -2.088,5.976 0,5.832 4.608,9.648 13.824,11.376 3.528,0.72 6.048,1.512 7.56,2.52 1.44,1.008 2.232,2.232 2.232,3.672 0,1.584 -0.792,2.808 -2.304,3.672 -1.512,0.936 -3.6,1.368 -6.336,1.368 -2.088,0 -4.032,-0.36 -5.832,-1.08 -1.872,-0.72 -3.24,-1.656 -4.104,-2.664 -0.864,-0.864 -1.8,-1.296 -2.736,-1.296 -0.792,0 -1.656,0.36 -2.52,1.008 -1.008,0.72 -1.44,1.656 -1.44,2.808 0,0.864 0.288,1.656 0.936,2.232 1.584,1.656 3.888,2.952 6.768,3.96 2.88,1.008 5.904,1.512 9.216,1.512 3.24,0 6.048,-0.504 8.352,-1.512 2.304,-1.008 4.104,-2.448 5.328,-4.248 1.152,-1.8 1.8,-3.816 1.8,-6.048 0,-2.952 -1.152,-5.4 -3.312,-7.272 -2.16,-1.872 -5.904,-3.312 -11.088,-4.392 -2.592,-0.504 -4.536,-1.008 -5.832,-1.584 -1.368,-0.576 -2.304,-1.152 -2.736,-1.8 -0.504,-0.648 -0.72,-1.44 -0.72,-2.448 0,-1.296 0.648,-2.376 2.088,-3.096 1.44,-0.72 3.24,-1.152 5.472,-1.152 1.872,0 3.528,0.288 4.896,0.72 1.296,0.432 2.592,1.224 3.816,2.304 1.008,0.936 2.088,1.368 3.384,1.368 0.792,0 1.44,-0.144 2.016,-0.576 0.792,-0.648 1.224,-1.368 1.224,-2.232 0,-0.72 -0.36,-1.512 -0.936,-2.304 -1.44,-1.728 -3.456,-3.168 -5.904,-4.176 z" transform="translate(0 294.6813010163811) translate(464.1902388546486 76.2127488585663) scale(1.1201666773549235) translate(-473.41925 -80.328)"></path> 
   <path id="path634673" style="font-style: normal; font-weight: 700; font-size: 72px; line-height: 1; font-family: &quot;Comfortaa Bold Alt2&quot;; font-variant-ligatures: none; text-align: center; text-anchor: middle; fill: rgb(241, 214, 173);" d="m 546.713,86.808 c -3.744,-4.32 -8.496,-6.48 -14.112,-6.48 -3.744,0 -7.128,0.864 -10.08,2.592 -3.024,1.728 -5.328,4.104 -6.984,7.128 -1.656,3.024 -2.448,6.48 -2.448,10.296 0,3.744 0.792,7.2 2.52,10.224 1.728,3.024 4.104,5.4 7.128,7.128 3.024,1.728 6.408,2.592 10.224,2.592 5.184,0 9.504,-1.584 12.96,-4.824 0.576,-0.576 0.864,-1.224 0.864,-1.944 0,-0.936 -0.504,-1.8 -1.368,-2.592 -0.576,-0.432 -1.224,-0.648 -1.872,-0.648 -0.864,0 -1.8,0.36 -2.664,1.008 -2.016,1.728 -4.68,2.52 -7.92,2.52 -2.52,0 -4.752,-0.576 -6.696,-1.728 -1.944,-1.152 -3.456,-2.736 -4.536,-4.752 -1.08,-2.016 -1.584,-4.392 -1.584,-6.984 0,-4.032 1.152,-7.344 3.456,-9.792 2.304,-2.448 5.256,-3.744 9,-3.744 1.8,0 3.384,0.36 4.824,0.936 1.44,0.576 2.736,1.512 3.96,2.808 0.72,0.864 1.656,1.296 2.808,1.296 0.576,0 1.152,-0.144 1.656,-0.504 1.008,-0.72 1.584,-1.584 1.584,-2.664 0,-0.72 -0.288,-1.296 -0.72,-1.872 z" transform="translate(0 294.6813010163811) translate(516.4681376451337 76.2127488585663) scale(1.1201666773549235) translate(-513.089 -80.328)"></path> 
   <path id="path634675" style="font-style: normal; font-weight: 700; font-size: 72px; line-height: 1; font-family: &quot;Comfortaa Bold Alt2&quot;; font-variant-ligatures: none; text-align: center; text-anchor: middle; fill: rgb(241, 214, 173);" d="m 576.2015,120.288 c 5.544,0 10.224,-1.944 14.112,-5.832 3.888,-3.888 5.904,-8.568 5.904,-14.112 0,-5.544 -2.016,-10.224 -5.904,-14.112 -3.888,-3.888 -8.568,-5.904 -14.112,-5.904 -5.544,0 -10.224,2.016 -14.112,5.904 -3.888,3.888 -5.832,8.568 -5.832,14.112 0,5.544 1.944,10.224 5.832,14.112 3.888,3.888 8.568,5.832 14.112,5.832 z m 0,-33.048 c 3.6,0 6.696,1.296 9.288,3.816 2.52,2.592 3.816,5.688 3.816,9.288 0,3.6 -1.296,6.696 -3.816,9.216 -2.592,2.592 -5.688,3.816 -9.288,3.816 -3.6,0 -6.696,-1.224 -9.216,-3.816 -2.592,-2.52 -3.816,-5.616 -3.816,-9.216 0,-3.6 1.224,-6.696 3.816,-9.288 2.52,-2.52 5.616,-3.816 9.216,-3.816 z" transform="translate(0 294.6813010163811) translate(572.6652195980141 76.2127488585663) scale(1.1201666773549235) translate(-556.2575 -80.328)"></path> 
   <path id="path634677" style="font-style: normal; font-weight: 700; font-size: 72px; line-height: 1; font-family: &quot;Comfortaa Bold Alt2&quot;; font-variant-ligatures: none; text-align: center; text-anchor: middle; fill: rgb(241, 214, 173);" d="m 636.71637,82.344 c -0.36,-0.504 -0.86399,-0.936 -1.43999,-1.224 -0.50401,-0.216 -1.08001,-0.36 -1.65601,-0.36 -0.64799,0 -1.22399,0.216 -1.79999,0.504 -0.57601,0.288 -0.93601,0.72 -1.22401,1.296 l -12.384,27 -12.52799,-27 c -0.288,-0.576 -0.72,-1.008 -1.22401,-1.296 -0.576,-0.288 -1.08,-0.504 -1.65599,-0.504 -0.576,0 -1.08001,0.144 -1.51201,0.36 -1.36799,0.72 -2.01599,1.656 -2.01599,2.952 0,0.504 0.072,0.936 0.288,1.296 l 15.264,32.184 c 0.43199,0.864 0.86399,1.512 1.43999,1.872 0.504,0.36 1.15201,0.504 2.016,0.504 1.44,0 2.59201,-0.792 3.312,-2.376 l 15.264,-32.184 c 0.216,-0.432 0.36,-0.936 0.36,-1.368 0,-0.576 -0.216,-1.152 -0.504,-1.656 z" transform="translate(0 294.6813010163811) translate(628.6947022126287 76.69666086318361) scale(1.1201666773549235) translate(-599.27638 -80.76)"></path> 
   <path id="path634679" style="font-style: normal; font-weight: 700; font-size: 72px; line-height: 1; font-family: &quot;Comfortaa Bold Alt2&quot;; font-variant-ligatures: none; text-align: center; text-anchor: middle; fill: rgb(241, 214, 173);" d="m 659.99375,120.288 c 4.752,0 8.928,-1.44 12.6,-4.464 0.792,-0.576 1.152,-1.368 1.296,-2.304 0.072,-1.008 -0.144,-1.8 -0.792,-2.592 -0.576,-0.72 -1.368,-1.152 -2.304,-1.224 -0.936,-0.072 -1.8,0.144 -2.52,0.792 -2.448,1.944 -5.184,2.88 -8.28,2.88 -3.6,0 -6.696,-1.224 -9.216,-3.816 -2.592,-2.52 -3.816,-5.616 -3.816,-9.216 0,-3.6 1.224,-6.696 3.816,-9.288 2.52,-2.52 5.616,-3.816 9.216,-3.816 2.952,0 5.616,0.936 7.992,2.736 2.304,1.8 3.816,4.104 4.608,6.912 h -12.6 c -0.936,0 -1.8,0.36 -2.448,1.008 -0.648,0.648 -1.008,1.512 -1.008,2.448 0,0.936 0.36,1.8 1.008,2.448 0.648,0.648 1.512,1.008 2.448,1.008 h 16.56 c 0.936,0 1.728,-0.36 2.376,-1.008 0.72,-0.648 1.08,-1.512 1.08,-2.448 0,-5.544 -2.016,-10.224 -5.904,-14.112 -3.888,-3.888 -8.568,-5.904 -14.112,-5.904 -5.544,0 -10.224,2.016 -14.112,5.904 -3.888,3.888 -5.832,8.568 -5.832,14.112 0,5.544 1.944,10.224 5.832,14.112 3.888,3.888 8.568,5.832 14.112,5.832 z" transform="translate(0 294.6813010163811) translate(682.2088393515761 76.2127488585663) scale(1.1201666773549235) translate(-640.04975 -80.328)"></path> 
   <path id="path634681" style="font-style: normal; font-weight: 700; font-size: 72px; line-height: 1; font-family: &quot;Comfortaa Bold Alt2&quot;; font-variant-ligatures: none; text-align: center; text-anchor: middle; fill: rgb(241, 214, 173);" d="m 709.7525,79.536 c -6.048,0 -11.16,2.16 -15.48,6.408 -4.248,4.248 -6.336,9.36 -6.336,15.408 v 15.192 c 0,1.008 0.288,1.8 1.008,2.448 0.648,0.72 1.44,1.008 2.448,1.008 0.936,0 1.728,-0.288 2.376,-1.008 0.72,-0.648 1.08,-1.44 1.08,-2.448 v -15.192 c 0,-4.104 1.44,-7.632 4.32,-10.512 2.952,-2.952 6.48,-4.392 10.584,-4.392 0.936,0 1.728,-0.36 2.448,-1.008 0.648,-0.72 1.008,-1.512 1.008,-2.448 0,-0.936 -0.36,-1.8 -1.008,-2.448 -0.72,-0.648 -1.512,-1.008 -2.448,-1.008 z" transform="translate(0 294.6813010163811) translate(743.6911477298864 75.32557685010121) scale(1.1201666773549235) translate(-687.9365 -79.536)"></path> 
  </g> 
  <g id="tagline" style="font-style:normal;font-weight:500;font-size:32px;line-height:1;font-family:Raleway;font-variant-ligatures:none;text-align:center;text-anchor:middle"></g> 
 </g> 
</svg>