<svg xmlns:dc="http://purl.org/dc/elements/1.1/" xmlns:cc="http://creativecommons.org/ns#" xmlns:rdf="http://www.w3.org/1999/02/22-rdf-syntax-ns#" xmlns:svg="http://www.w3.org/2000/svg" xmlns="http://www.w3.org/2000/svg" id="svg528386" viewbox="0 0 1024 768" height="768px" width="1024px" version="1.1"> <metadata id="metadata528392"> 
  <rdf:rdf> 
   <cc:work rdf:about=""> 
    <dc:format>
     image/svg+xml
    </dc:format> 
    <dc:type rdf:resource="http://purl.org/dc/dcmitype/StillImage"></dc:type> 
   </cc:work> 
  </rdf:rdf> 
 </metadata> <defs id="defs528390"></defs> <g id="logo-group"> 
  <g id="title" style="font-style:normal;font-weight:300;font-size:72px;line-height:1;font-family:'Uni Neue';font-variant-ligatures:none;text-align:center;text-anchor:middle" aria-label="O7Dude"> 
   <path id="path528394" style="font-style: normal; font-weight: 300; font-size: 72px; line-height: 1; font-family: &quot;Uni Neue&quot;; font-variant-ligatures: none; text-align: center; text-anchor: middle; fill: rgb(105, 105, 109);" d="M 432.98506,103.872 V 85.224 c 0,-10.368 -7.416,-17.424 -18.72,-17.424 -11.376,0 -18.792,7.056 -18.792,17.424 v 18.648 c 0,9.72 7.488,16.848 18.792,16.848 11.232,0 18.72,-7.128 18.72,-16.848 z m -35.136,0 V 85.224 c 0,-9.072 6.336,-15.192 16.416,-15.192 10.008,0 16.344,6.12 16.344,15.192 v 18.648 c 0,8.424 -6.408,14.544 -16.344,14.544 -10.008,0 -16.416,-6.12 -16.416,-14.544 z" transform="translate(0 192.78653526383692) translate(252.00000000000006 132.5406843741975) scale(2.2174142238082224) translate(-395.47306 -67.8)"></path> 
   <path id="path528396" style="font-style: normal; font-weight: 300; font-size: 72px; line-height: 1; font-family: &quot;Uni Neue&quot;; font-variant-ligatures: none; text-align: center; text-anchor: middle; fill: rgb(105, 105, 109);" d="m 446.63131,120 c 0.216,0 0.504,-0.144 0.576,-0.36 l 23.832,-49.392 c 0.144,-0.144 0.144,-0.36 0.144,-0.504 v -0.792 c 0,-0.288 -0.216,-0.432 -0.504,-0.432 h -31.68 c -0.288,0 -0.504,0.144 -0.504,0.432 v 1.368 c 0,0.216 0.216,0.432 0.504,0.432 h 29.304 l -23.616,48.672 c -0.144,0.36 0.072,0.576 0.36,0.576 z" transform="translate(0 192.78653526383692) translate(347.39814909023346 134.1372226153394) scale(2.2174142238082224) translate(-438.49531 -68.52)"></path> 
   <path id="path528398" style="font-style: normal; font-weight: 300; font-size: 72px; line-height: 1; font-family: &quot;Uni Neue&quot;; font-variant-ligatures: none; text-align: center; text-anchor: middle; fill: rgb(235, 85, 52);" d="m 497.24731,120 c 10.728,0 17.64,-6.48 17.64,-17.712 v -15.84 c 0,-11.16 -6.84,-17.928 -17.64,-17.928 h -17.064 c -0.288,0 -0.504,0.144 -0.504,0.432 v 50.616 c 0,0.288 0.216,0.432 0.504,0.432 z m -15.12,-49.248 h 15.048 c 9.504,0 15.264,5.76 15.264,15.696 v 15.84 c 0,9.936 -5.76,15.408 -15.264,15.408 h -15.048 z" transform="translate(0 192.78653526383692) translate(438.72013648355124 134.1372226153394) scale(2.2174142238082224) translate(-479.67931 -68.52)"></path> 
   <path id="path528400" style="font-style: normal; font-weight: 300; font-size: 72px; line-height: 1; font-family: &quot;Uni Neue&quot;; font-variant-ligatures: none; text-align: center; text-anchor: middle; fill: rgb(235, 85, 52);" d="m 551.69394,82.992 c -0.288,0 -0.504,0.216 -0.504,0.504 v 32.976 c -3.168,1.224 -6.912,2.16 -10.872,2.16 -8.064,0 -12.672,-4.104 -12.672,-12.456 v -22.68 c 0,-0.288 -0.144,-0.504 -0.432,-0.504 h -1.44 c -0.288,0 -0.432,0.216 -0.432,0.504 v 22.68 c 0,9.648 5.688,14.544 14.976,14.544 4.608,0 9.072,-1.008 12.816,-2.736 0.288,-0.072 0.36,-0.36 0.36,-0.576 V 83.496 c 0,-0.288 -0.144,-0.504 -0.432,-0.504 z" transform="translate(0 192.78653526383692) translate(539.9731017420435 166.22764126229202) scale(2.2174142238082224) translate(-525.34194 -82.992)"></path> 
   <path id="path528402" style="font-style: normal; font-weight: 300; font-size: 72px; line-height: 1; font-family: &quot;Uni Neue&quot;; font-variant-ligatures: none; text-align: center; text-anchor: middle; fill: rgb(235, 85, 52);" d="m 589.42644,85.584 c -3.096,-2.016 -7.056,-3.312 -11.232,-3.312 -9.432,0 -15.192,4.968 -15.192,15.408 v 7.704 c 0,10.584 5.832,15.336 15.264,15.336 4.608,0 9.216,-0.936 13.104,-2.52 0.216,-0.072 0.36,-0.288 0.36,-0.504 V 68.952 c 0,-0.288 -0.216,-0.432 -0.504,-0.432 h -1.368 c -0.288,0 -0.432,0.144 -0.432,0.432 z m -24.12,19.8 V 97.68 c 0,-9.288 4.68,-13.248 12.96,-13.248 4.032,0 7.992,1.296 11.16,3.456 v 28.8 c -3.24,1.152 -7.128,1.944 -11.16,1.944 -8.208,0 -12.96,-3.888 -12.96,-13.248 z" transform="translate(0 192.78653526383692) translate(623.4820301177729 134.1372226153394) scale(2.2174142238082224) translate(-563.00244 -68.52)"></path> 
   <path id="path528404" style="font-style: normal; font-weight: 300; font-size: 72px; line-height: 1; font-family: &quot;Uni Neue&quot;; font-variant-ligatures: none; text-align: center; text-anchor: middle; fill: rgb(235, 85, 52);" d="m 629.98044,95.952 c 0,-8.712 -5.904,-13.68 -14.328,-13.68 -8.424,0 -14.328,4.968 -14.328,13.68 v 11.664 c 0,8.28 6.768,13.104 14.328,13.104 6.12,0 10.584,-2.736 13.608,-5.544 0.288,-0.144 0.288,-0.36 0.072,-0.576 l -0.792,-0.936 c -0.144,-0.216 -0.36,-0.216 -0.576,-0.072 -2.736,2.448 -6.624,5.04 -12.24,5.04 -6.552,0 -12.096,-4.032 -12.096,-11.016 v -4.752 h 25.92 c 0.216,0 0.432,-0.144 0.432,-0.432 z m -2.304,0 v 4.896 h -24.048 v -4.896 c 0,-7.416 4.752,-11.52 12.024,-11.52 7.2,0 12.024,4.176 12.024,11.52 z" transform="translate(0 192.78653526383692) translate(708.4577780025517 164.63110302115007) scale(2.2174142238082224) translate(-601.32444 -82.272)"></path> 
  </g> 
  <g id="tagline" style="font-style:oblique;font-weight:400;font-size:32px;line-height:1;font-family:Lato;font-variant-ligatures:none;text-align:center;text-anchor:middle"></g> 
 </g> 
</svg>