<svg xmlns:dc="http://purl.org/dc/elements/1.1/" xmlns:cc="http://creativecommons.org/ns#" xmlns:rdf="http://www.w3.org/1999/02/22-rdf-syntax-ns#" xmlns:svg="http://www.w3.org/2000/svg" xmlns="http://www.w3.org/2000/svg" id="svg417143" viewbox="0 0 1024 768" height="768px" width="1024px" version="1.1"> <metadata id="metadata417149"> 
  <rdf:rdf> 
   <cc:work rdf:about=""> 
    <dc:format>
     image/svg+xml
    </dc:format> 
    <dc:type rdf:resource="http://purl.org/dc/dcmitype/StillImage"></dc:type> 
   </cc:work> 
  </rdf:rdf> 
 </metadata> <defs id="defs417147"></defs> <g id="logo-group"> 
  <g id="title" style="font-style:normal;font-weight:300;font-size:72px;line-height:1;font-family:'Uni Neue';font-variant-ligatures:none;text-align:center;text-anchor:middle" aria-label="O7DISK"> 
   <path id="path417151" style="font-style: normal; font-weight: 300; font-size: 72px; line-height: 1; font-family: &quot;Uni Neue&quot;; font-variant-ligatures: none; text-align: center; text-anchor: middle; fill: rgb(66, 59, 74);" d="M 438.46944,103.872 V 85.224 c 0,-10.368 -7.416,-17.424 -18.72,-17.424 -11.376,0 -18.792,7.056 -18.792,17.424 v 18.648 c 0,9.72 7.488,16.848 18.792,16.848 11.232,0 18.72,-7.128 18.72,-16.848 z m -35.136,0 V 85.224 c 0,-9.072 6.336,-15.192 16.416,-15.192 10.008,0 16.344,6.12 16.344,15.192 v 18.648 c 0,8.424 -6.408,14.544 -16.344,14.544 -10.008,0 -16.416,-6.12 -16.416,-14.544 z" transform="translate(0 198.779207069255) translate(252 128.23023298010304) scale(2.1538382445442923) translate(-400.95744 -67.8)"></path> 
   <path id="path417153" style="font-style: normal; font-weight: 300; font-size: 72px; line-height: 1; font-family: &quot;Uni Neue&quot;; font-variant-ligatures: none; text-align: center; text-anchor: middle; fill: rgb(66, 59, 74);" d="m 452.11569,120 c 0.216,0 0.504,-0.144 0.576,-0.36 l 23.832,-49.392 c 0.144,-0.144 0.144,-0.36 0.144,-0.504 v -0.792 c 0,-0.288 -0.216,-0.432 -0.504,-0.432 h -31.68 c -0.288,0 -0.504,0.144 -0.504,0.432 v 1.368 c 0,0.216 0.216,0.432 0.504,0.432 h 29.304 l -23.616,48.672 c -0.144,0.36 0.072,0.576 0.36,0.576 z" transform="translate(0 198.779207069255) translate(351.1244821499786 129.78099651617492) scale(2.1538382445442923) translate(-443.97969 -68.52)"></path> 
   <path id="path417155" style="font-style: normal; font-weight: 300; font-size: 72px; line-height: 1; font-family: &quot;Uni Neue&quot;; font-variant-ligatures: none; text-align: center; text-anchor: middle; fill: rgb(213, 134, 58);" d="m 502.73169,120 c 10.728,0 17.64,-6.48 17.64,-17.712 v -15.84 c 0,-11.16 -6.84,-17.928 -17.64,-17.928 h -17.064 c -0.288,0 -0.504,0.144 -0.504,0.432 v 50.616 c 0,0.288 0.216,0.432 0.504,0.432 z m -15.12,-49.248 h 15.048 c 9.504,0 15.264,5.76 15.264,15.696 v 15.84 c 0,9.936 -5.76,15.408 -15.264,15.408 h -15.048 z" transform="translate(0 198.779207069255) translate(446.2896711469236 129.78099651617492) scale(2.1538382445442923) translate(-485.16369 -68.52)"></path> 
   <path id="path417157" style="font-style: normal; font-weight: 300; font-size: 72px; line-height: 1; font-family: &quot;Uni Neue&quot;; font-variant-ligatures: none; text-align: center; text-anchor: middle; fill: rgb(213, 134, 58);" d="m 535.00231,68.952 c 0,-0.288 -0.216,-0.432 -0.432,-0.432 h -1.512 c -0.288,0 -0.504,0.144 -0.504,0.432 v 50.616 c 0,0.288 0.216,0.432 0.504,0.432 h 1.512 c 0.216,0 0.432,-0.144 0.432,-0.432 z" transform="translate(0 198.779207069255) translate(554.8229156692222 129.78099651617492) scale(2.1538382445442923) translate(-532.55431 -68.52)"></path> 
   <path id="path417159" style="font-style: normal; font-weight: 300; font-size: 72px; line-height: 1; font-family: &quot;Uni Neue&quot;; font-variant-ligatures: none; text-align: center; text-anchor: middle; fill: rgb(213, 134, 58);" d="m 581.33544,107.112 c 0,-7.704 -4.896,-11.52 -17.64,-14.544 -10.008,-2.376 -15.12,-5.616 -15.12,-12.168 0,-7.128 6.624,-10.368 14.184,-10.368 6.048,0.072 11.304,1.8 15.768,5.4 0.216,0.144 0.432,0.144 0.648,-0.144 l 0.72,-1.152 c 0.144,-0.144 0.216,-0.432 -0.072,-0.576 -4.824,-3.816 -10.008,-5.76 -16.776,-5.76 -9.144,0 -16.92,3.888 -16.92,12.456 0,7.848 6.048,12.096 17.064,14.616 11.592,2.664 15.696,5.688 15.696,12.24 0,7.56 -6.264,11.304 -15.192,11.304 -6.336,0 -11.088,-2.016 -16.272,-6.336 -0.216,-0.144 -0.432,-0.072 -0.648,0.144 l -0.864,1.08 c -0.144,0.216 -0.144,0.432 0.072,0.648 5.544,4.68 10.512,6.768 17.712,6.768 10.512,0 17.64,-4.824 17.64,-13.608 z" transform="translate(0 198.779207069255) translate(589.8373686279824 128.23023298010304) scale(2.1538382445442923) translate(-545.81108 -67.8)"></path> 
   <path id="path417161" style="font-style: normal; font-weight: 300; font-size: 72px; line-height: 1; font-family: &quot;Uni Neue&quot;; font-variant-ligatures: none; text-align: center; text-anchor: middle; fill: rgb(213, 134, 58);" d="m 593.77344,120 c 0.216,0 0.432,-0.144 0.432,-0.432 v -19.152 l 7.128,-6.984 23.04,26.28 c 0.144,0.216 0.36,0.288 0.576,0.288 h 2.016 c 0.36,0 0.576,-0.216 0.288,-0.576 l -24.264,-27.648 22.896,-22.68 c 0.288,-0.288 0.072,-0.576 -0.288,-0.576 h -2.016 c -0.216,0 -0.432,0.072 -0.648,0.288 l -28.728,28.44 V 68.952 c 0,-0.288 -0.216,-0.432 -0.432,-0.432 h -1.512 c -0.288,0 -0.504,0.144 -0.504,0.432 v 50.616 c 0,0.288 0.216,0.432 0.504,0.432 z" transform="translate(0 198.779207069255) translate(695.2599107272155 129.78099651617492) scale(2.1538382445442923) translate(-591.75744 -68.52)"></path> 
  </g> 
  <g id="tagline" style="font-style:oblique;font-weight:400;font-size:32px;line-height:1;font-family:Lato;font-variant-ligatures:none;text-align:center;text-anchor:middle"></g> 
 </g> 
</svg>