<svg xmlns:dc="http://purl.org/dc/elements/1.1/" xmlns:cc="http://creativecommons.org/ns#" xmlns:rdf="http://www.w3.org/1999/02/22-rdf-syntax-ns#" xmlns:svg="http://www.w3.org/2000/svg" xmlns="http://www.w3.org/2000/svg" id="svg480426" viewbox="0 0 1024 768" height="768px" width="1024px" version="1.1"> <metadata id="metadata480432"> 
  <rdf:rdf> 
   <cc:work rdf:about=""> 
    <dc:format>
     image/svg+xml
    </dc:format> 
    <dc:type rdf:resource="http://purl.org/dc/dcmitype/StillImage"></dc:type> 
   </cc:work> 
  </rdf:rdf> 
 </metadata> <defs id="defs480430"></defs> <g id="logo-group"> 
  <g id="title" style="font-style:normal;font-weight:300;font-size:72px;line-height:1;font-family:'Montserrat Light Alt1';font-variant-ligatures:none;text-align:center;text-anchor:middle" aria-label="o7Drew"> 
   <path id="path480434" style="font-style: normal; font-weight: 300; font-size: 72px; line-height: 1; font-family: &quot;Montserrat Light Alt1&quot;; font-variant-ligatures: none; text-align: center; text-anchor: middle; fill: rgb(207, 205, 200);" d="m 386.92981,117.84 c 2.88,1.656 6.048,2.448 9.648,2.448 3.528,0 6.696,-0.792 9.576,-2.448 2.88,-1.584 5.112,-3.888 6.768,-6.768 1.584,-2.88 2.448,-6.192 2.448,-9.864 0,-3.6 -0.864,-6.912 -2.448,-9.792 -1.656,-2.88 -3.888,-5.184 -6.768,-6.84 -2.88,-1.584 -6.048,-2.448 -9.576,-2.448 -3.6,0 -6.768,0.864 -9.648,2.448 -2.88,1.656 -5.112,3.96 -6.696,6.84 -1.656,2.88 -2.448,6.192 -2.448,9.792 0,3.672 0.792,6.984 2.448,9.864 1.584,2.88 3.816,5.184 6.696,6.768 z m 17.352,-2.808 c -2.304,1.368 -4.824,2.016 -7.704,2.016 -2.88,0 -5.472,-0.648 -7.776,-2.016 -2.304,-1.296 -4.104,-3.168 -5.4,-5.616 -1.296,-2.376 -1.944,-5.112 -1.944,-8.208 0,-3.024 0.648,-5.76 1.944,-8.208 1.296,-2.376 3.096,-4.248 5.4,-5.616 2.304,-1.296 4.896,-2.016 7.776,-2.016 2.88,0 5.4,0.72 7.704,2.016 2.304,1.368 4.104,3.24 5.4,5.616 1.296,2.448 2.016,5.184 2.016,8.208 0,3.096 -0.72,5.832 -2.016,8.208 -1.296,2.448 -3.096,4.32 -5.4,5.616 z" transform="translate(0 231.14624547762324) translate(252 129.57511323952815) scale(1.8163733834931832) translate(-377.78581 -82.128)"></path> 
   <path id="path480436" style="font-style: normal; font-weight: 300; font-size: 72px; line-height: 1; font-family: &quot;Montserrat Light Alt1&quot;; font-variant-ligatures: none; text-align: center; text-anchor: middle; fill: rgb(207, 205, 200);" d="m 455.31856,69.6 h -36.144 v 12.96 h 3.6 v -9.648 h 28.296 L 429.61456,120 h 4.032 l 21.672,-47.808 z" transform="translate(0 231.14624547762324) translate(332.626544026533 106.81958749112553) scale(1.8163733834931832) translate(-419.17456 -69.6)"></path> 
   <path id="path480438" style="font-style: normal; font-weight: 300; font-size: 72px; line-height: 1; font-family: &quot;Montserrat Light Alt1&quot;; font-variant-ligatures: none; text-align: center; text-anchor: middle; fill: rgb(198, 219, 220);" d="m 510.62019,81.84 c -2.304,-3.816 -5.472,-6.768 -9.504,-9 -4.032,-2.16 -8.712,-3.24 -13.896,-3.24 h -19.944 v 3.312 h 19.656 c 4.608,0 8.712,0.936 12.312,2.808 3.528,1.872 6.264,4.464 8.208,7.704 1.872,3.312 2.88,7.128 2.88,11.376 0,4.32 -1.008,8.064 -2.88,11.376 -1.944,3.312 -4.68,5.904 -8.208,7.776 -3.6,1.872 -7.704,2.736 -12.312,2.736 h -15.984 V 94.8 h -3.672 V 120 h 19.944 c 5.184,0 9.864,-1.08 13.896,-3.24 4.032,-2.16 7.2,-5.112 9.504,-8.928 2.232,-3.816 3.384,-8.136 3.384,-13.032 0,-4.824 -1.152,-9.144 -3.384,-12.96 z" transform="translate(0 231.14624547762324) translate(425.44618461164976 106.81958749112553) scale(1.8163733834931832) translate(-467.27619 -69.6)"></path> 
   <path id="path480440" style="font-style: normal; font-weight: 300; font-size: 72px; line-height: 1; font-family: &quot;Montserrat Light Alt1&quot;; font-variant-ligatures: none; text-align: center; text-anchor: middle; fill: rgb(198, 219, 220);" d="m 534.46456,84.36 c -2.448,1.44 -4.248,3.528 -5.4,6.264 v -8.208 h -3.456 V 120 h 3.6 v -19.584 c 0,-4.608 1.152,-8.28 3.528,-10.872 2.304,-2.592 5.616,-3.96 9.792,-3.96 l 0.864,0.072 v -3.528 c -3.528,0 -6.48,0.792 -8.928,2.232 z" transform="translate(0 231.14624547762324) translate(536.8486690262056 129.57511323952815) scale(1.8163733834931832) translate(-525.60856 -82.128)"></path> 
   <path id="path480442" style="font-style: normal; font-weight: 300; font-size: 72px; line-height: 1; font-family: &quot;Montserrat Light Alt1&quot;; font-variant-ligatures: none; text-align: center; text-anchor: middle; fill: rgb(198, 219, 220);" d="m 575.20644,115.752 c -2.088,0.864 -4.392,1.296 -6.768,1.296 -3.888,0 -7.128,-1.008 -9.864,-3.024 -2.736,-2.016 -4.608,-4.752 -5.472,-8.208 l 31.752,-6.192 c -0.216,-3.312 -1.008,-6.264 -2.592,-8.928 -1.584,-2.664 -3.672,-4.752 -6.264,-6.264 -2.592,-1.512 -5.544,-2.304 -8.784,-2.304 -3.528,0 -6.696,0.864 -9.432,2.448 -2.808,1.656 -4.968,3.888 -6.552,6.768 -1.584,2.88 -2.304,6.192 -2.304,9.864 0,3.744 0.792,6.984 2.448,9.864 1.656,2.88 3.96,5.184 6.912,6.768 2.952,1.656 6.264,2.448 10.08,2.448 2.88,0 5.544,-0.504 8.064,-1.512 2.376,-1.008 4.464,-2.52 6.12,-4.608 l -2.088,-2.376 c -1.44,1.8 -3.168,3.096 -5.256,3.96 z m -15.624,-28.44 c 2.232,-1.296 4.752,-2.016 7.632,-2.016 2.448,0 4.752,0.576 6.768,1.656 2.016,1.08 3.6,2.592 4.896,4.392 1.224,1.872 2.016,3.96 2.376,6.192 l -28.656,5.616 c -0.144,-0.936 -0.144,-1.656 -0.144,-2.232 0,-2.952 0.576,-5.688 1.872,-8.064 1.224,-2.376 2.952,-4.248 5.256,-5.544 z" transform="translate(0 231.14624547762324) translate(584.651765768173 129.57511323952815) scale(1.8163733834931832) translate(-548.92644 -82.128)"></path> 
   <path id="path480444" style="font-style: normal; font-weight: 300; font-size: 72px; line-height: 1; font-family: &quot;Montserrat Light Alt1&quot;; font-variant-ligatures: none; text-align: center; text-anchor: middle; fill: rgb(198, 219, 220);" d="m 649.07056,82.416 h -3.312 l -12.672,33.48 -12.744,-33.48 h -3.096 l -12.816,33.552 -12.528,-33.552 h -3.456 l 14.256,37.584 h 3.312 l 12.744,-32.616 12.672,32.616 h 3.384 z" transform="translate(0 231.14624547762324) translate(661.8841799991093 130.0982287739742) scale(1.8163733834931832) translate(-588.44656 -82.416)"></path> 
  </g> 
  <g id="tagline" style="font-style:normal;font-weight:400;font-size:32px;line-height:1;font-family:Montserrat;font-variant-ligatures:none;text-align:center;text-anchor:middle"></g> 
 </g> 
</svg>