<svg xmlns:dc="http://purl.org/dc/elements/1.1/" xmlns:cc="http://creativecommons.org/ns#" xmlns:rdf="http://www.w3.org/1999/02/22-rdf-syntax-ns#" xmlns:svg="http://www.w3.org/2000/svg" xmlns="http://www.w3.org/2000/svg" id="svg416194" viewbox="0 0 1024 768" height="768px" width="1024px" version="1.1"> <metadata id="metadata416200"> 
  <rdf:rdf> 
   <cc:work rdf:about=""> 
    <dc:format>
     image/svg+xml
    </dc:format> 
    <dc:type rdf:resource="http://purl.org/dc/dcmitype/StillImage"></dc:type> 
   </cc:work> 
  </rdf:rdf> 
 </metadata> <defs id="defs416198"></defs> <g id="logo-group"> 
  <g id="title" style="font-style:normal;font-weight:700;font-size:72px;line-height:1;font-family:'Brandmark1 Bold';font-variant-ligatures:none;text-align:center;text-anchor:middle" aria-label="o7Duck"> 
   <path id="path416202" style="font-style: normal; font-weight: 700; font-size: 72px; line-height: 1; font-family: &quot;Brandmark1 Bold&quot;; font-variant-ligatures: none; text-align: center; text-anchor: middle; fill: rgb(55, 54, 54);" d="m 411.39012,123.024 c 2.736,0 5.472,-0.576 7.992,-1.584 2.448,-1.08 4.68,-2.52 6.552,-4.392 1.872,-1.944 3.312,-4.104 4.392,-6.552 1.08,-2.52 1.584,-5.256 1.584,-7.992 0,-2.808 -0.504,-5.472 -1.584,-7.992 -1.08,-2.448 -2.52,-4.68 -4.392,-6.552 -1.944,-1.872 -4.104,-3.312 -6.552,-4.392 -2.52,-1.08 -5.256,-1.584 -7.992,-1.584 -2.73599,0 -5.472,0.504 -7.992,1.584 -2.44799,1.08 -4.608,2.52 -6.552,4.392 -1.87199,1.944 -3.31199,4.104 -4.392,6.552 -1.008,2.52 -1.584,5.184 -1.584,7.992 0,2.736 0.576,5.472 1.584,7.992 1.08001,2.448 2.52001,4.608 4.392,6.552 1.944,1.872 4.10401,3.312 6.552,4.392 2.52,1.008 5.25601,1.584 7.992,1.584 z m 0,-30.24 c 5.328,0 9.72,4.392 9.72,9.72 0,5.328 -4.392,9.72 -9.72,9.72 -5.328,0 -9.72,-4.392 -9.72,-9.72 0,-5.328 4.392,-9.72 9.72,-9.72 z" transform="translate(0 221.83501223961864) translate(252.0000000000001 139.39357750591932) scale(1.8769708419437858) translate(-390.87012 -81.984)"></path> 
   <path id="path416204" style="font-style: normal; font-weight: 700; font-size: 72px; line-height: 1; font-family: &quot;Brandmark1 Bold&quot;; font-variant-ligatures: none; text-align: center; text-anchor: middle; fill: rgb(55, 54, 54);" d="m 434.24,121.512 11.16,2.232 20.592,-48.384 V 68.016 H 430.28 V 78.6 h 22.536 z" transform="translate(0 221.83501223961864) translate(337.23302069616636 113.17604878564856) scale(1.8769708419437858) translate(-430.28 -68.016)"></path> 
   <path id="path416206" style="font-style: normal; font-weight: 700; font-size: 72px; line-height: 1; font-family: &quot;Brandmark1 Bold&quot;; font-variant-ligatures: none; text-align: center; text-anchor: middle; fill: rgb(148, 145, 144);" d="m 488.54487,122.592 c 3.81601,0 7.488,-0.72 10.944,-2.16 3.38401,-1.368 6.48001,-3.384 9.072,-5.976 2.592,-2.592 4.68,-5.616 6.048,-8.928 1.512,-3.528 2.304,-7.2 2.304,-11.088 0,-3.816 -0.792,-7.488 -2.304,-11.016 -1.368,-3.312 -3.456,-6.336 -6.048,-8.928 -2.59199,-2.52 -5.68799,-4.536 -9.072,-5.904 -3.456,-1.44 -7.12799,-2.232 -10.944,-2.232 h -18.432 v 56.232 z m -7.128,-11.304 V 77.664 h 7.128 c 4.536,0 8.856,1.8 12.096,4.896 3.168,3.168 4.968,7.416 4.968,11.88 0,4.536 -1.8,8.784 -4.968,11.952 -3.24,3.168 -7.56,4.896 -12.096,4.896 z" transform="translate(0 221.83501223961864) translate(423.2599812887665 110.06778507138961) scale(1.8769708419437858) translate(-470.11287 -66.36)"></path> 
   <path id="path416208" style="font-style: normal; font-weight: 700; font-size: 72px; line-height: 1; font-family: &quot;Brandmark1 Bold&quot;; font-variant-ligatures: none; text-align: center; text-anchor: middle; fill: rgb(148, 145, 144);" d="m 538.62537,123.024 c 4.82401,0 9.36,-1.872 12.744,-5.256 3.384,-3.384 5.256,-7.92 5.256,-12.744 V 82.416 h -10.8 v 22.608 c 0,3.96 -3.24,7.2 -7.2,7.2 -3.95999,0 -7.19999,-3.24 -7.19999,-7.2 V 82.416 h -10.80001 v 22.608 c 0,4.824 1.87201,9.36 5.25601,12.744 3.38399,3.384 7.91999,5.256 12.74399,5.256 z" transform="translate(0 221.83501223961864) translate(529.3322959941146 140.20442890963903) scale(1.8769708419437858) translate(-520.62537 -82.416)"></path> 
   <path id="path416210" style="font-style: normal; font-weight: 700; font-size: 72px; line-height: 1; font-family: &quot;Brandmark1 Bold&quot;; font-variant-ligatures: none; text-align: center; text-anchor: middle; fill: rgb(148, 145, 144);" d="m 580.42137,123.096 c 6.69601,0 13.03201,-3.312 16.92,-8.928 l -8.928,-6.12 c -1.79999,2.664 -4.82399,4.248 -7.992,4.248 -5.39999,0 -9.72,-4.392 -9.72,-9.72 0,-5.4 4.32001,-9.72 9.72,-9.72 3.09601,0 6.12001,1.512 7.92,4.104 l 8.856,-6.192 c -1.872,-2.664 -4.39199,-4.824 -7.19999,-6.336 -2.952,-1.584 -6.264,-2.376 -9.57601,-2.376 -2.80799,0 -5.47199,0.504 -7.99199,1.584 -2.44801,1.08 -4.68001,2.52 -6.552,4.392 -1.87201,1.944 -3.384,4.104 -4.39201,6.552 -1.07999,2.52 -1.58399,5.256 -1.58399,7.992 0,2.736 0.504,5.472 1.58399,7.992 1.00801,2.448 2.52,4.608 4.39201,6.552 1.87199,1.872 4.10399,3.312 6.552,4.392 2.52,1.008 5.184,1.584 7.99199,1.584 z" transform="translate(0 221.83501223961864) translate(614.3140466036699 139.5287194065393) scale(1.8769708419437858) translate(-559.90138 -82.056)"></path> 
   <path id="path416212" style="font-style: normal; font-weight: 700; font-size: 72px; line-height: 1; font-family: &quot;Brandmark1 Bold&quot;; font-variant-ligatures: none; text-align: center; text-anchor: middle; fill: rgb(148, 145, 144);" d="m 624.30425,122.52 h 12.744 l -14.76,-22.824 15.624,-17.28 h -13.824 l -13.608,15.264 V 64.488 h -10.872 v 58.032 h 10.872 v -10.224 l 4.32,-4.68 z" transform="translate(0 221.83501223961864) translate(700.1045088701851 106.55409565527086) scale(1.8769708419437858) translate(-599.60825 -64.488)"></path> 
  </g> 
  <g id="tagline" style="font-style:normal;font-weight:400;font-size:32px;line-height:1;font-family:Montserrat;font-variant-ligatures:none;text-align:center;text-anchor:middle"></g> 
 </g> 
</svg>