<svg xmlns:dc="http://purl.org/dc/elements/1.1/" xmlns:cc="http://creativecommons.org/ns#" xmlns:rdf="http://www.w3.org/1999/02/22-rdf-syntax-ns#" xmlns:svg="http://www.w3.org/2000/svg" xmlns="http://www.w3.org/2000/svg" id="svg38271" viewbox="0 0 1024 768" height="768px" width="1024px" version="1.1"> <metadata id="metadata38277"> 
  <rdf:rdf> 
   <cc:work rdf:about=""> 
    <dc:format>
     image/svg+xml
    </dc:format> 
    <dc:type rdf:resource="http://purl.org/dc/dcmitype/StillImage"></dc:type> 
   </cc:work> 
  </rdf:rdf> 
 </metadata> <defs id="defs38275"></defs> <g id="logo-group"> 
  <g id="title" style="font-style:normal;font-weight:700;font-size:72px;line-height:1;font-family:'Brandmark1 Bold';font-variant-ligatures:none;text-align:center;text-anchor:middle" aria-label="o7data"> 
   <path id="path38279" style="font-style: normal; font-weight: 700; font-size: 72px; line-height: 1; font-family: &quot;Brandmark1 Bold&quot;; font-variant-ligatures: none; text-align: center; text-anchor: middle; fill: rgb(130, 148, 234);" d="m 418.84325,123.024 c 2.736,0 5.472,-0.576 7.992,-1.584 2.448,-1.08 4.68,-2.52 6.552,-4.392 1.872,-1.944 3.312,-4.104 4.392,-6.552 1.08,-2.52 1.584,-5.256 1.584,-7.992 0,-2.808 -0.504,-5.472 -1.584,-7.992 -1.08,-2.448 -2.52,-4.68 -4.392,-6.552 -1.944,-1.872 -4.104,-3.312 -6.552,-4.392 -2.52,-1.08 -5.256,-1.584 -7.992,-1.584 -2.736,0 -5.472,0.504 -7.992,1.584 -2.448,1.08 -4.608,2.52 -6.552,4.392 -1.872,1.944 -3.312,4.104 -4.392,6.552 -1.008,2.52 -1.584,5.184 -1.584,7.992 0,2.736 0.576,5.472 1.584,7.992 1.08,2.448 2.52,4.608 4.392,6.552 1.944,1.872 4.104,3.312 6.552,4.392 2.52,1.008 5.256,1.584 7.992,1.584 z m 0,-30.24 c 5.328,0 9.72,4.392 9.72,9.72 0,5.328 -4.392,9.72 -9.72,9.72 -5.328,0 -9.72,-4.392 -9.72,-9.72 0,-5.328 4.392,-9.72 9.72,-9.72 z" transform="translate(0 221.0133450390217) translate(251.99999999999994 140.58817012188746) scale(1.885394346724818) translate(-398.32325 -81.984)"></path> 
   <path id="path38281" style="font-style: normal; font-weight: 700; font-size: 72px; line-height: 1; font-family: &quot;Brandmark1 Bold&quot;; font-variant-ligatures: none; text-align: center; text-anchor: middle; fill: rgb(130, 148, 234);" d="m 441.69312,121.512 11.16,2.232 20.59201,-48.384 V 68.016 H 437.73312 V 78.6 h 22.536 z" transform="translate(0 221.0133450390217) translate(345.1570895704081 114.25298188683522) scale(1.885394346724818) translate(-437.73312 -68.016)"></path> 
   <path id="path38283" style="font-style: normal; font-weight: 700; font-size: 72px; line-height: 1; font-family: &quot;Brandmark1 Bold&quot;; font-variant-ligatures: none; text-align: center; text-anchor: middle; fill: rgb(32, 45, 176);" d="m 473.1695,110.496 c 1.08,2.448 2.52,4.68 4.392,6.552 1.944,1.872 4.104,3.384 6.552,4.392 2.52,1.08 5.256,1.584 7.992,1.584 2.736,0 5.472,-0.504 7.992,-1.584 2.448,-1.008 4.608,-2.52 6.552,-4.392 1.872,-1.872 3.312,-4.104 4.392,-6.552 1.08,-2.52 1.584,-5.184 1.584,-7.992 v -34.92 l -10.8,-3.6 v 20.448 c -0.576,-0.288 -1.152,-0.576 -1.728,-0.792 -2.52,-1.08 -5.184,-1.584 -7.992,-1.584 -2.736,0 -5.472,0.504 -7.992,1.584 -2.448,1.008 -4.608,2.52 -6.552,4.392 -1.872,1.872 -3.312,4.104 -4.392,6.552 -1.008,2.52 -1.584,5.184 -1.584,7.92 0,2.808 0.576,5.472 1.584,7.992 z m 18.936,-17.712 c 5.328,0 9.72,4.392 9.72,9.72 0,5.4 -4.392,9.72 -9.72,9.72 -5.328,0 -9.72,-4.32 -9.72,-9.72 0,-5.328 4.392,-9.72 9.72,-9.72 z" transform="translate(0 221.0133450390217) translate(427.83611891283664 106.65107188084076) scale(1.885394346724818) translate(-471.5855 -63.984)"></path> 
   <path id="path38285" style="font-style: normal; font-weight: 700; font-size: 72px; line-height: 1; font-family: &quot;Brandmark1 Bold&quot;; font-variant-ligatures: none; text-align: center; text-anchor: middle; fill: rgb(32, 45, 176);" d="m 545.40575,81.984 0.072,2.304 c -2.88,-1.44 -6.048,-2.232 -9.288,-2.232 -2.736,0 -5.472,0.504 -7.992,1.584 -2.448,1.08 -4.608,2.52 -6.552,4.392 -1.872,1.872 -3.312,4.104 -4.392,6.552 -1.008,2.52 -1.584,5.256 -1.584,7.992 0,2.736 0.576,5.472 1.584,7.992 1.08,2.448 2.52,4.608 4.392,6.552 1.944,1.872 4.104,3.312 6.552,4.392 2.52,1.008 5.256,1.584 7.992,1.584 3.24,0 6.408,-0.792 9.288,-2.232 l -0.072,1.656 h 10.8 V 81.984 Z m -4.32,28.944 c -1.44,0.864 -3.168,1.368 -4.896,1.368 -5.328,0 -9.72,-4.392 -9.72,-9.72 0,-5.328 4.392,-9.72 9.72,-9.72 1.872,0 3.744,0.504 5.256,1.584 1.584,0.936 2.808,2.376 3.528,4.032 0.648,1.296 0.936,2.664 0.936,4.104 0,1.728 -0.432,3.384 -1.296,4.896 -0.864,1.44 -2.016,2.664 -3.528,3.456 z" transform="translate(0 221.0133450390217) translate(529.8062581096884 140.58817012188746) scale(1.885394346724818) translate(-515.66975 -81.984)"></path> 
   <path id="path38287" style="font-style: normal; font-weight: 700; font-size: 72px; line-height: 1; font-family: &quot;Brandmark1 Bold&quot;; font-variant-ligatures: none; text-align: center; text-anchor: middle; fill: rgb(32, 45, 176);" d="m 584.53887,92.496 v -10.08 h -11.448 V 69.528 l -10.79999,3.6 v 27.936 c 0,3.024 0.576,5.904 1.72799,8.64 1.08001,2.664 2.736,5.04 4.75201,7.056 2.01599,2.088 4.39199,3.672 7.05599,4.824 2.736,1.152 5.688,1.728 8.712,1.728 v -10.8 c -6.336,0 -11.448,-5.112 -11.448,-11.448 v -8.568 z" transform="translate(0 221.0133450390217) translate(636.5594165168593 117.10369813908315) scale(1.885394346724818) translate(-562.29088 -69.528)"></path> 
   <path id="path38289" style="font-style: normal; font-weight: 700; font-size: 72px; line-height: 1; font-family: &quot;Brandmark1 Bold&quot;; font-variant-ligatures: none; text-align: center; text-anchor: middle; fill: rgb(32, 45, 176);" d="m 613.32762,81.984 0.072,2.304 c -2.88,-1.44 -6.048,-2.232 -9.28801,-2.232 -2.73599,0 -5.47199,0.504 -7.99199,1.584 -2.44801,1.08 -4.60801,2.52 -6.552,4.392 -1.87201,1.872 -3.31201,4.104 -4.39201,6.552 -1.00799,2.52 -1.58399,5.256 -1.58399,7.992 0,2.736 0.576,5.472 1.58399,7.992 1.08,2.448 2.52,4.608 4.39201,6.552 1.94399,1.872 4.10399,3.312 6.552,4.392 2.52,1.008 5.256,1.584 7.99199,1.584 3.24001,0 6.40801,-0.792 9.28801,-2.232 l -0.072,1.656 h 10.8 V 81.984 Z m -4.32,28.944 c -1.43999,0.864 -3.168,1.368 -4.896,1.368 -5.32799,0 -9.72,-4.392 -9.72,-9.72 0,-5.328 4.39201,-9.72 9.72,-9.72 1.872,0 3.74401,0.504 5.256,1.584 1.58401,0.936 2.808,2.376 3.528,4.032 0.64801,1.296 0.93601,2.664 0.93601,4.104 0,1.728 -0.432,3.384 -1.29601,4.896 -0.864,1.44 -2.01599,2.664 -3.528,3.456 z" transform="translate(0 221.0133450390217) translate(695.5736547611629 140.58817012188746) scale(1.885394346724818) translate(-583.59162 -81.984)"></path> 
  </g> 
  <g id="tagline" style="font-style:normal;font-weight:400;font-size:32px;line-height:1;font-family:Montserrat;font-variant-ligatures:none;text-align:center;text-anchor:middle"></g> 
 </g> 
</svg>