<svg xmlns:dc="http://purl.org/dc/elements/1.1/" xmlns:cc="http://creativecommons.org/ns#" xmlns:rdf="http://www.w3.org/1999/02/22-rdf-syntax-ns#" xmlns:svg="http://www.w3.org/2000/svg" xmlns="http://www.w3.org/2000/svg" id="svg47938" viewbox="0 0 1024 768" height="768px" width="1024px" version="1.1"> <metadata id="metadata47944"> 
  <rdf:rdf> 
   <cc:work rdf:about=""> 
    <dc:format>
     image/svg+xml
    </dc:format> 
    <dc:type rdf:resource="http://purl.org/dc/dcmitype/StillImage"></dc:type> 
   </cc:work> 
  </rdf:rdf> 
 </metadata> <defs id="defs47942"></defs> <g id="logo-group"> 
  <g id="title" style="font-style:normal;font-weight:700;font-size:72px;line-height:1;font-family:Phenomena;font-variant-ligatures:none;text-align:center;text-anchor:middle" aria-label="o7Divinity"> 
   <path id="path47946" style="font-style: normal; font-weight: 700; font-size: 72px; line-height: 1; font-family: Phenomena; font-variant-ligatures: none; text-align: center; text-anchor: middle; fill: rgb(244, 244, 244);" d="m 409.328,120.792 c 6.984,0 11.52,-4.896 11.52,-11.736 V 94.944 c 0,-6.84 -4.536,-11.736 -11.52,-11.736 -6.912,0 -11.52,4.896 -11.52,11.736 v 14.112 c 0,6.84 4.608,11.736 11.52,11.736 z m 0,-5.832 c -3.312,0 -5.256,-2.304 -5.256,-5.688 V 94.728 c 0,-3.384 1.944,-5.688 5.256,-5.688 3.312,0 5.328,2.304 5.328,5.688 v 14.544 c 0,3.384 -2.016,5.688 -5.328,5.688 z" transform="translate(0 256.54598012750034) translate(251.99999999999994 100.0640091266908) scale(1.4355351543924961) translate(-397.808 -83.208)"></path> 
   <path id="path47948" style="font-style: normal; font-weight: 700; font-size: 72px; line-height: 1; font-family: Phenomena; font-variant-ligatures: none; text-align: center; text-anchor: middle; fill: rgb(244, 244, 244);" d="m 424.6235,70.536 v 4.104 c 0,0.648 0.36,1.008 0.936,1.008 h 13.752 l -10.44,43.272 c -0.144,0.648 0.144,1.08 0.864,1.08 h 4.536 c 0.576,0 0.936,-0.288 1.08,-0.864 L 445.8635,75 c 0.288,-1.224 0.36,-2.088 0.36,-3.384 0,-1.368 -0.792,-2.016 -2.16,-2.016 h -18.504 c -0.576,0 -0.936,0.36 -0.936,0.936 z" transform="translate(0 256.54598012750034) translate(312.0276202484993 80.52924674571774) scale(1.4355351543924961) translate(-424.6235 -69.6)"></path> 
   <path id="path47950" style="font-style: normal; font-weight: 700; font-size: 72px; line-height: 1; font-family: Phenomena; font-variant-ligatures: none; text-align: center; text-anchor: middle; fill: rgb(244, 244, 244);" d="m 455.42825,120.216 h 9.288 c 7.488,0 12.312,-5.472 12.312,-13.032 V 82.416 c 0,-7.56 -4.752,-13.032 -12.312,-13.032 h -9.288 c -1.872,0 -2.952,1.008 -2.952,2.88 v 45.072 c 0,1.872 1.08,2.88 2.952,2.88 z m 3.6,-6.048 V 75.432 h 5.472 c 3.816,0 5.976,2.736 5.976,6.84 v 25.056 c 0,4.104 -2.232,6.84 -5.976,6.84 z" transform="translate(0 256.54598012750034) translate(373.54424933589235 80.21917115236896) scale(1.4355351543924961) translate(-452.47625 -69.384)"></path> 
   <path id="path47952" style="font-style: normal; font-weight: 700; font-size: 72px; line-height: 1; font-family: Phenomena; font-variant-ligatures: none; text-align: center; text-anchor: middle; fill: rgb(244, 244, 244);" d="m 486.9935,79.464 c 2.088,0 3.744,-1.728 3.744,-3.672 0,-2.16 -1.656,-3.744 -3.744,-3.744 -2.16,0 -3.672,1.584 -3.672,3.744 0,2.088 1.512,3.672 3.672,3.672 z M 484.9055,120 h 4.176 c 0.648,0 1.008,-0.36 1.008,-1.008 V 84.936 c 0,-0.576 -0.36,-0.936 -1.008,-0.936 h -4.176 c -0.648,0 -1.008,0.36 -1.008,0.936 v 34.056 c 0,0.648 0.36,1.008 1.008,1.008 z" transform="translate(0 256.54598012750034) translate(439.3567173728049 84.04343680367056) scale(1.4355351543924961) translate(-483.3215 -72.048)"></path> 
   <path id="path47954" style="font-style: normal; font-weight: 700; font-size: 72px; line-height: 1; font-family: Phenomena; font-variant-ligatures: none; text-align: center; text-anchor: middle; fill: rgb(244, 244, 244);" d="m 514.088,84.864 -6.552,29.592 -6.48,-29.592 C 500.984,84.288 500.552,84 499.976,84 h -4.464 c -0.648,0 -0.936,0.432 -0.792,1.08 l 8.136,32.616 c 0.36,1.728 1.44,2.592 3.24,2.592 h 2.952 c 1.728,0 2.88,-0.864 3.24,-2.592 L 520.424,85.08 C 520.568,84.432 520.28,84 519.56,84 h -4.392 c -0.576,0 -1.008,0.288 -1.08,0.864 z" transform="translate(0 256.54598012750034) translate(477.20052479852455 101.20095296896967) scale(1.4355351543924961) translate(-494.68366 -84)"></path> 
   <path id="path47956" style="font-style: normal; font-weight: 700; font-size: 72px; line-height: 1; font-family: Phenomena; font-variant-ligatures: none; text-align: center; text-anchor: middle; fill: rgb(244, 244, 244);" d="m 528.19663,79.464 c 2.08799,0 3.74399,-1.728 3.74399,-3.672 0,-2.16 -1.656,-3.744 -3.74399,-3.744 -2.16001,0 -3.672,1.584 -3.672,3.744 0,2.088 1.51199,3.672 3.672,3.672 z M 526.10862,120 h 4.176 c 0.64801,0 1.00801,-0.36 1.00801,-1.008 V 84.936 c 0,-0.576 -0.36,-0.936 -1.00801,-0.936 h -4.176 c -0.64799,0 -1.00799,0.36 -1.00799,0.936 v 34.056 c 0,0.648 0.36,1.008 1.00799,1.008 z" transform="translate(0 256.54598012750034) translate(541.571313590584 84.04343680367056) scale(1.4355351543924961) translate(-524.52463 -72.048)"></path> 
   <path id="path47958" style="font-style: normal; font-weight: 700; font-size: 72px; line-height: 1; font-family: Phenomena; font-variant-ligatures: none; text-align: center; text-anchor: middle; fill: rgb(244, 244, 244);" d="m 539.31388,120 h 4.17599 c 0.648,0 1.00801,-0.36 1.00801,-1.008 V 94.728 c 0,-3.384 1.87199,-5.688 5.03999,-5.688 3.168,0 5.04,2.304 5.04,5.688 v 24.264 c 0,0.648 0.36,1.008 1.008,1.008 h 4.17601 c 0.648,0 1.00799,-0.36 1.00799,-1.008 V 94.944 c 0,-6.84 -4.536,-11.736 -11.232,-11.736 -6.696,0 -11.23199,4.896 -11.23199,11.736 v 24.048 c 0,0.648 0.36,1.008 1.008,1.008 z" transform="translate(0 256.54598012750034) translate(582.8878097529432 100.0640091266908) scale(1.4355351543924961) translate(-538.30588 -83.208)"></path> 
   <path id="path47960" style="font-style: normal; font-weight: 700; font-size: 72px; line-height: 1; font-family: Phenomena; font-variant-ligatures: none; text-align: center; text-anchor: middle; fill: rgb(244, 244, 244);" d="m 571.08725,79.464 c 2.088,0 3.744,-1.728 3.744,-3.672 0,-2.16 -1.656,-3.744 -3.744,-3.744 -2.16,0 -3.672,1.584 -3.672,3.744 0,2.088 1.512,3.672 3.672,3.672 z m -2.088,40.536 h 4.176 c 0.648,0 1.008,-0.36 1.008,-1.008 V 84.936 c 0,-0.576 -0.36,-0.936 -1.008,-0.936 h -4.176 c -0.648,0 -1.008,0.36 -1.008,0.936 v 34.056 c 0,0.648 0.36,1.008 1.008,1.008 z" transform="translate(0 256.54598012750034) translate(646.2083610260489 84.04343680367056) scale(1.4355351543924961) translate(-567.41525 -72.048)"></path> 
   <path id="path47962" style="font-style: normal; font-weight: 700; font-size: 72px; line-height: 1; font-family: Phenomena; font-variant-ligatures: none; text-align: center; text-anchor: middle; fill: rgb(244, 244, 244);" d="m 596.45375,114.384 h -0.792 c -3.672,0 -5.544,-2.304 -5.544,-6.84 V 89.616 h 5.544 c 0.576,0 0.936,-0.36 0.936,-0.936 v -3.744 c 0,-0.576 -0.36,-0.936 -0.936,-0.936 h -5.544 v -9.288 c 0,-0.648 -0.36,-1.008 -0.936,-1.008 h -4.176 c -0.648,0 -1.008,0.36 -1.008,1.008 V 84 h -4.032 c -0.576,0 -0.936,0.36 -0.936,0.936 v 3.744 c 0,0.576 0.36,0.936 0.936,0.936 h 4.032 v 17.856 c 0,7.92 4.248,12.744 11.376,12.744 h 1.08 c 0.648,0 1.008,-0.36 1.008,-0.936 v -3.96 c 0,-0.576 -0.36,-0.936 -1.008,-0.936 z" transform="translate(0 256.54598012750034) translate(684.4144113926279 86.42068301934451) scale(1.4355351543924961) translate(-579.02975 -73.704)"></path> 
   <path id="path47964" style="font-style: normal; font-weight: 700; font-size: 72px; line-height: 1; font-family: Phenomena; font-variant-ligatures: none; text-align: center; text-anchor: middle; fill: rgb(244, 244, 244);" d="m 624.03425,84 h -4.176 c -0.648,0 -1.008,0.36 -1.008,0.936 v 22.608 c 0,3.312 -1.944,5.616 -5.184,5.616 -3.24,0 -5.184,-2.304 -5.184,-5.616 V 84.936 c 0,-0.576 -0.36,-0.936 -1.008,-0.936 h -4.176 c -0.648,0 -1.008,0.36 -1.008,0.936 v 22.392 c 0,6.84 4.536,11.664 10.872,11.664 2.304,0 4.32,-1.008 5.688,-2.592 v 7.272 c 0,3.528 -1.872,5.616 -5.184,5.616 -3.096,0 -4.968,-2.088 -5.184,-5.688 -0.072,-0.72 -0.36,-1.008 -0.936,-1.008 h -4.248 c -0.648,0 -1.008,0.36 -0.936,1.008 0.36,7.056 4.752,11.592 11.304,11.592 6.912,0 11.376,-4.608 11.376,-11.736 v -38.52 c 0,-0.576 -0.432,-0.936 -1.008,-0.936 z" transform="translate(0 256.54598012750034) translate(739.338704167262 101.20095296896967) scale(1.4355351543924961) translate(-602.29025 -84)"></path> 
  </g> 
  <g id="tagline" style="font-style:oblique;font-weight:normal;font-size:32px;line-height:1;font-family:'Fira Sans Condensed';font-variant-ligatures:none;text-align:center;text-anchor:middle"></g> 
 </g> 
</svg>