<svg xmlns:dc="http://purl.org/dc/elements/1.1/" xmlns:cc="http://creativecommons.org/ns#" xmlns:rdf="http://www.w3.org/1999/02/22-rdf-syntax-ns#" xmlns:svg="http://www.w3.org/2000/svg" xmlns="http://www.w3.org/2000/svg" id="svg970955" viewbox="0 0 1024 768" height="768px" width="1024px" version="1.1"> <metadata id="metadata970961"> 
  <rdf:rdf> 
   <cc:work rdf:about=""> 
    <dc:format>
     image/svg+xml
    </dc:format> 
    <dc:type rdf:resource="http://purl.org/dc/dcmitype/StillImage"></dc:type> 
   </cc:work> 
  </rdf:rdf> 
 </metadata> <defs id="defs970959"></defs> <g id="logo-group"> 
  <g id="title" style="font-style:normal;font-weight:700;font-size:72px;line-height:1;font-family:Phenomena;font-variant-ligatures:none;text-align:center;text-anchor:middle" aria-label="o7Distribution"> 
   <path id="path970963" style="font-style: normal; font-weight: 700; font-size: 72px; line-height: 1; font-family: Phenomena; font-variant-ligatures: none; text-align: center; text-anchor: middle; fill: rgb(72, 148, 255);" d="m 360.88269,120.792 c 6.984,0 11.52,-4.896 11.52,-11.736 V 94.944 c 0,-6.84 -4.536,-11.736 -11.52,-11.736 -6.912,0 -11.52,4.896 -11.52,11.736 v 14.112 c 0,6.84 4.608,11.736 11.52,11.736 z m 0,-5.832 c -3.312,0 -5.256,-2.304 -5.256,-5.688 V 94.728 c 0,-3.384 1.944,-5.688 5.256,-5.688 3.312,0 5.328,2.304 5.328,5.688 v 14.544 c 0,3.384 -2.016,5.688 -5.328,5.688 z" transform="translate(0 308.23756178954676) translate(252 63.87513712156523) scale(1.0006145697717193) translate(-349.36269 -83.208)"></path> 
   <path id="path970965" style="font-style: normal; font-weight: 700; font-size: 72px; line-height: 1; font-family: Phenomena; font-variant-ligatures: none; text-align: center; text-anchor: middle; fill: rgb(72, 148, 255);" d="m 376.17819,70.536 v 4.104 c 0,0.648 0.36,1.008 0.936,1.008 h 13.752 l -10.44,43.272 c -0.144,0.648 0.144,1.08 0.864,1.08 h 4.536 c 0.576,0 0.936,-0.288 1.08,-0.864 L 397.41819,75 c 0.288,-1.224 0.36,-2.088 0.36,-3.384 0,-1.368 -0.792,-2.016 -2.16,-2.016 h -18.504 c -0.576,0 -0.936,0.36 -0.936,0.936 z" transform="translate(0 308.23756178954676) translate(293.84119854228925 50.25877405611165) scale(1.0006145697717193) translate(-376.17819 -69.6)"></path> 
   <path id="path970967" style="font-style: normal; font-weight: 700; font-size: 72px; line-height: 1; font-family: Phenomena; font-variant-ligatures: none; text-align: center; text-anchor: middle; fill: rgb(179, 212, 255);" d="m 406.98294,120.216 h 9.288 c 7.488,0 12.312,-5.472 12.312,-13.032 V 82.416 c 0,-7.56 -4.752,-13.032 -12.312,-13.032 h -9.288 c -1.872,0 -2.952,1.008 -2.952,2.88 v 45.072 c 0,1.872 1.08,2.88 2.952,2.88 z m 3.6,-6.048 V 75.432 h 5.472 c 3.816,0 5.976,2.736 5.976,6.84 v 25.056 c 0,4.104 -2.232,6.84 -5.976,6.84 z" transform="translate(0 308.23756178954676) translate(336.7202845470743 50.042641309040974) scale(1.0006145697717193) translate(-404.03094 -69.384)"></path> 
   <path id="path970969" style="font-style: normal; font-weight: 700; font-size: 72px; line-height: 1; font-family: Phenomena; font-variant-ligatures: none; text-align: center; text-anchor: middle; fill: rgb(179, 212, 255);" d="m 438.54819,79.464 c 2.088,0 3.744,-1.728 3.744,-3.672 0,-2.16 -1.656,-3.744 -3.744,-3.744 -2.16,0 -3.672,1.584 -3.672,3.744 0,2.088 1.512,3.672 3.672,3.672 z m -2.088,40.536 h 4.176 c 0.648,0 1.008,-0.36 1.008,-1.008 V 84.936 c 0,-0.576 -0.36,-0.936 -1.008,-0.936 h -4.176 c -0.648,0 -1.008,0.36 -1.008,0.936 v 34.056 c 0,0.648 0.36,1.008 1.008,1.008 z" transform="translate(0 308.23756178954676) translate(382.59370965190124 52.708278522912835) scale(1.0006145697717193) translate(-434.87619 -72.048)"></path> 
   <path id="path970971" style="font-style: normal; font-weight: 700; font-size: 72px; line-height: 1; font-family: Phenomena; font-variant-ligatures: none; text-align: center; text-anchor: middle; fill: rgb(179, 212, 255);" d="m 459.74206,120.792 c 6.696,0 11.16,-4.464 11.16,-10.296 0,-12.096 -16.632,-10.152 -16.632,-17.064 0,-2.592 1.944,-4.392 4.896,-4.392 3.096,0 4.752,2.016 4.968,4.824 0.072,0.576 0.432,0.936 1.008,0.936 h 4.248 c 0.72,0 0.936,-0.504 0.936,-1.008 -0.216,-5.616 -3.6,-10.584 -11.304,-10.584 -6.48,0 -10.872,4.32 -10.872,10.08 0,11.808 16.56,9.864 16.56,17.136 0,2.592 -1.728,4.464 -5.04,4.464 -3.744,0 -5.472,-2.016 -5.76,-5.688 -0.072,-0.72 -0.504,-0.936 -1.008,-0.936 h -4.176 c -0.792,0 -1.008,0.504 -1.008,1.08 0.216,6.336 4.536,11.448 12.024,11.448 z" transform="translate(0 308.23756178954676) translate(410.4526904235913 63.87513712156523) scale(1.0006145697717193) translate(-447.71806 -83.208)"></path> 
   <path id="path970973" style="font-style: normal; font-weight: 700; font-size: 72px; line-height: 1; font-family: Phenomena; font-variant-ligatures: none; text-align: center; text-anchor: middle; fill: rgb(179, 212, 255);" d="m 491.33656,114.384 h -0.792 c -3.672,0 -5.544,-2.304 -5.544,-6.84 V 89.616 h 5.544 c 0.576,0 0.936,-0.36 0.936,-0.936 v -3.744 c 0,-0.576 -0.36,-0.936 -0.936,-0.936 h -5.544 v -9.288 c 0,-0.648 -0.36,-1.008 -0.936,-1.008 h -4.176 c -0.648,0 -1.008,0.36 -1.008,1.008 V 84 h -4.032 c -0.576,0 -0.936,0.36 -0.936,0.936 v 3.744 c 0,0.576 0.36,0.936 0.936,0.936 h 4.032 v 17.856 c 0,7.92 4.248,12.744 11.376,12.744 h 1.08 c 0.648,0 1.008,-0.36 1.008,-0.936 v -3.96 c 0,-0.576 -0.36,-0.936 -1.008,-0.936 z" transform="translate(0 308.23756178954676) translate(451.6725073180524 54.36529625045479) scale(1.0006145697717193) translate(-473.91256 -73.704)"></path> 
   <path id="path970975" style="font-style: normal; font-weight: 700; font-size: 72px; line-height: 1; font-family: Phenomena; font-variant-ligatures: none; text-align: center; text-anchor: middle; fill: rgb(179, 212, 255);" d="m 498.18106,120 h 4.176 c 0.648,0 1.008,-0.36 1.008,-1.008 v -23.04 c 0,-3.888 2.448,-6.264 6.192,-6.264 h 2.592 c 0.576,0 0.936,-0.36 0.936,-0.936 v -3.888 c 0,-0.648 -0.36,-1.008 -0.936,-1.008 h -2.664 c -7.272,0 -12.312,4.824 -12.312,12.6 v 22.536 c 0,0.648 0.36,1.008 1.008,1.008 z" transform="translate(0 308.23756178954676) translate(489.95652106480327 64.52353536277728) scale(1.0006145697717193) translate(-497.17306 -83.856)"></path> 
   <path id="path970977" style="font-style: normal; font-weight: 700; font-size: 72px; line-height: 1; font-family: Phenomena; font-variant-ligatures: none; text-align: center; text-anchor: middle; fill: rgb(179, 212, 255);" d="m 520.81381,79.464 c 2.088,0 3.744,-1.728 3.744,-3.672 0,-2.16 -1.656,-3.744 -3.744,-3.744 -2.16,0 -3.672,1.584 -3.672,3.744 0,2.088 1.512,3.672 3.672,3.672 z m -2.088,40.536 h 4.176 c 0.648,0 1.008,-0.36 1.008,-1.008 V 84.936 c 0,-0.576 -0.36,-0.936 -1.008,-0.936 h -4.176 c -0.648,0 -1.008,0.36 -1.008,0.936 v 34.056 c 0,0.648 0.36,1.008 1.008,1.008 z" transform="translate(0 308.23756178954676) translate(524.946761801508 52.708278522912835) scale(1.0006145697717193) translate(-517.14181 -72.048)"></path> 
   <path id="path970979" style="font-style: normal; font-weight: 700; font-size: 72px; line-height: 1; font-family: Phenomena; font-variant-ligatures: none; text-align: center; text-anchor: middle; fill: rgb(179, 212, 255);" d="m 543.51294,83.208 c -2.52,0 -4.536,1.008 -5.976,2.664 V 70.536 c 0,-0.576 -0.36,-0.936 -1.008,-0.936 h -4.176 c -0.648,0 -1.008,0.36 -1.008,0.936 v 38.52 c 0,6.84 4.608,11.736 11.448,11.736 6.912,0 11.448,-4.896 11.448,-11.736 V 94.944 c 0,-6.84 -4.248,-11.736 -10.728,-11.736 z m 4.608,26.064 c 0,3.384 -2.016,5.616 -5.328,5.616 -3.312,0 -5.256,-2.232 -5.256,-5.616 V 94.728 c 0,-3.384 1.944,-5.616 5.256,-5.616 3.312,0 5.328,2.232 5.328,5.616 z" transform="translate(0 308.23756178954676) translate(554.1678391624456 50.25877405611165) scale(1.0006145697717193) translate(-531.34494 -69.6)"></path> 
   <path id="path970981" style="font-style: normal; font-weight: 700; font-size: 72px; line-height: 1; font-family: Phenomena; font-variant-ligatures: none; text-align: center; text-anchor: middle; fill: rgb(179, 212, 255);" d="m 560.61856,84 c -0.648,0 -1.008,0.36 -1.008,1.008 v 24.048 c 0,6.84 4.536,11.736 11.232,11.736 6.696,0 11.232,-4.896 11.232,-11.736 V 85.008 c 0,-0.648 -0.36,-1.008 -1.008,-1.008 h -4.176 c -0.648,0 -1.008,0.36 -1.008,1.008 v 24.264 c 0,3.384 -1.872,5.688 -5.04,5.688 -3.168,0 -5.04,-2.304 -5.04,-5.688 V 85.008 c 0,-0.648 -0.36,-1.008 -1.008,-1.008 z" transform="translate(0 308.23756178954676) translate(597.4600489046524 64.6676238608244) scale(1.0006145697717193) translate(-559.61056 -84)"></path> 
   <path id="path970983" style="font-style: normal; font-weight: 700; font-size: 72px; line-height: 1; font-family: Phenomena; font-variant-ligatures: none; text-align: center; text-anchor: middle; fill: rgb(179, 212, 255);" d="m 603.83656,114.384 h -0.792 c -3.672,0 -5.544,-2.304 -5.544,-6.84 V 89.616 h 5.544 c 0.576,0 0.936,-0.36 0.936,-0.936 v -3.744 c 0,-0.576 -0.36,-0.936 -0.936,-0.936 h -5.544 v -9.288 c 0,-0.648 -0.36,-1.008 -0.936,-1.008 h -4.176 c -0.648,0 -1.008,0.36 -1.008,1.008 V 84 h -4.032 c -0.576,0 -0.936,0.36 -0.936,0.936 v 3.744 c 0,0.576 0.36,0.936 0.936,0.936 h 4.032 v 17.856 c 0,7.92 4.248,12.744 11.376,12.744 h 1.08 c 0.648,0 1.008,-0.36 1.008,-0.936 v -3.96 c 0,-0.576 -0.36,-0.936 -1.008,-0.936 z" transform="translate(0 308.23756178954676) translate(639.2877391502498 54.36529625045479) scale(1.0006145697717193) translate(-586.41256 -73.704)"></path> 
   <path id="path970985" style="font-style: normal; font-weight: 700; font-size: 72px; line-height: 1; font-family: Phenomena; font-variant-ligatures: none; text-align: center; text-anchor: middle; fill: rgb(179, 212, 255);" d="m 613.34506,79.464 c 2.088,0 3.744,-1.728 3.744,-3.672 0,-2.16 -1.656,-3.744 -3.744,-3.744 -2.16,0 -3.672,1.584 -3.672,3.744 0,2.088 1.512,3.672 3.672,3.672 z m -2.088,40.536 h 4.176 c 0.648,0 1.008,-0.36 1.008,-1.008 V 84.936 c 0,-0.576 -0.36,-0.936 -1.008,-0.936 h -4.176 c -0.648,0 -1.008,0.36 -1.008,0.936 v 34.056 c 0,0.648 0.36,1.008 1.008,1.008 z" transform="translate(0 308.23756178954676) translate(677.5717528970007 52.708278522912835) scale(1.0006145697717193) translate(-609.67306 -72.048)"></path> 
   <path id="path970987" style="font-style: normal; font-weight: 700; font-size: 72px; line-height: 1; font-family: Phenomena; font-variant-ligatures: none; text-align: center; text-anchor: middle; fill: rgb(179, 212, 255);" d="m 633.83581,120.792 c 6.984,0 11.52,-4.896 11.52,-11.736 V 94.944 c 0,-6.84 -4.536,-11.736 -11.52,-11.736 -6.912,0 -11.52,4.896 -11.52,11.736 v 14.112 c 0,6.84 4.608,11.736 11.52,11.736 z m 0,-5.832 c -3.312,0 -5.256,-2.304 -5.256,-5.688 V 94.728 c 0,-3.384 1.944,-5.688 5.256,-5.688 3.312,0 5.328,2.304 5.328,5.688 v 14.544 c 0,3.384 -2.016,5.688 -5.328,5.688 z" transform="translate(0 308.23756178954676) translate(705.2314912955579 63.87513712156523) scale(1.0006145697717193) translate(-622.31581 -83.208)"></path> 
   <path id="path970989" style="font-style: normal; font-weight: 700; font-size: 72px; line-height: 1; font-family: Phenomena; font-variant-ligatures: none; text-align: center; text-anchor: middle; fill: rgb(179, 212, 255);" d="m 652.58731,120 h 4.176 c 0.648,0 1.008,-0.36 1.008,-1.008 V 94.728 c 0,-3.384 1.872,-5.688 5.04,-5.688 3.168,0 5.04,2.304 5.04,5.688 v 24.264 c 0,0.648 0.36,1.008 1.008,1.008 h 4.176 c 0.648,0 1.008,-0.36 1.008,-1.008 V 94.944 c 0,-6.84 -4.536,-11.736 -11.232,-11.736 -6.696,0 -11.232,4.896 -11.232,11.736 v 24.048 c 0,0.648 0.36,1.008 1.008,1.008 z" transform="translate(0 308.23756178954676) translate(749.5221943046483 63.87513712156523) scale(1.0006145697717193) translate(-651.57931 -83.208)"></path> 
  </g> 
  <g id="tagline" style="font-style:oblique;font-weight:normal;font-size:32px;line-height:1;font-family:'Fira Sans Condensed';font-variant-ligatures:none;text-align:center;text-anchor:middle"></g> 
 </g> 
</svg>