<svg xmlns:dc="http://purl.org/dc/elements/1.1/" xmlns:cc="http://creativecommons.org/ns#" xmlns:rdf="http://www.w3.org/1999/02/22-rdf-syntax-ns#" xmlns:svg="http://www.w3.org/2000/svg" xmlns="http://www.w3.org/2000/svg" id="svg4458" viewbox="0 0 1024 768" height="768px" width="1024px" version="1.1"> <metadata id="metadata4464"> 
  <rdf:rdf> 
   <cc:work rdf:about=""> 
    <dc:format>
     image/svg+xml
    </dc:format> 
    <dc:type rdf:resource="http://purl.org/dc/dcmitype/StillImage"></dc:type> 
   </cc:work> 
  </rdf:rdf> 
 </metadata> <defs id="defs4462"></defs> <g id="logo-group"> 
  <g id="title" style="font-style:normal;font-weight:800;font-size:72px;line-height:1;font-family:'Montserrat ExtraBold Alt1';font-variant-ligatures:none;text-align:center;text-anchor:middle" aria-label="o7Doggie"> 
   <path id="path4466" style="font-style: normal; font-weight: 800; font-size: 72px; line-height: 1; font-family: &quot;Montserrat ExtraBold Alt1&quot;; font-variant-ligatures: none; text-align: center; text-anchor: middle; fill: rgb(217, 217, 217);" d="m 339.82044,118.056 c 3.312,1.728 7.128,2.592 11.304,2.592 4.176,0 7.992,-0.864 11.376,-2.592 3.312,-1.728 5.976,-4.104 7.848,-7.2 1.872,-3.024 2.808,-6.552 2.808,-10.44 0,-3.888 -0.936,-7.344 -2.808,-10.368 -1.872,-3.024 -4.536,-5.4 -7.848,-7.128 -3.384,-1.728 -7.2,-2.592 -11.376,-2.592 -4.248,0 -8.064,0.864 -11.376,2.592 -3.312,1.728 -5.976,4.104 -7.848,7.128 -1.872,3.096 -2.808,6.552 -2.808,10.368 0,3.888 0.936,7.416 2.808,10.44 1.872,3.096 4.536,5.472 7.92,7.2 z m 17.208,-10.728 c -1.584,1.656 -3.528,2.448 -5.904,2.448 -2.448,0 -4.392,-0.792 -5.904,-2.448 -1.584,-1.656 -2.304,-3.96 -2.304,-6.912 0,-2.88 0.72,-5.112 2.304,-6.768 1.512,-1.584 3.456,-2.448 5.904,-2.448 2.376,0 4.32,0.864 5.904,2.448 1.512,1.656 2.304,3.888 2.304,6.768 0,2.952 -0.792,5.256 -2.304,6.912 z" transform="translate(0 273.15700000000004) translate(217.76656249999996 88.298) scale(1.25) translate(-329.09244 -80.328)"></path> 
   <path id="path4468" style="font-style: normal; font-weight: 800; font-size: 72px; line-height: 1; font-family: &quot;Montserrat ExtraBold Alt1&quot;; font-variant-ligatures: none; text-align: center; text-anchor: middle; fill: rgb(217, 217, 217);" d="m 416.97069,69.6 h -41.76 v 19.08 h 12.168 v -7.776 h 13.248 L 383.63469,120 h 15.552 l 17.784,-41.472 z" transform="translate(0 273.15700000000004) translate(294.1643749999999 74.888) scale(1.25) translate(-375.21069 -69.6)"></path> 
   <path id="path4470" style="font-style: normal; font-weight: 800; font-size: 72px; line-height: 1; font-family: &quot;Montserrat ExtraBold Alt1&quot;; font-variant-ligatures: none; text-align: center; text-anchor: middle; fill: rgb(235, 235, 235);" d="m 472.61319,81.48 c -2.376,-3.744 -5.688,-6.696 -9.936,-8.784 -4.32,-2.016 -9.216,-3.096 -14.688,-3.096 h -23.832 v 11.376 h 23.256 c 4.32,0 7.776,1.224 10.368,3.672 2.592,2.52 3.96,5.904 3.96,10.152 0,4.32 -1.368,7.704 -3.96,10.152 -2.592,2.448 -6.048,3.672 -10.368,3.672 h -9 V 95.232 h -14.256 V 120 h 23.832 c 5.472,0 10.368,-1.008 14.688,-3.096 4.248,-2.016 7.56,-4.968 9.936,-8.784 2.304,-3.744 3.528,-8.208 3.528,-13.32 0,-5.04 -1.224,-9.504 -3.528,-13.32 z" transform="translate(0 273.15700000000004) translate(374.0974999999999 74.888) scale(1.25) translate(-424.15719 -69.6)"></path> 
   <path id="path4472" style="font-style: normal; font-weight: 800; font-size: 72px; line-height: 1; font-family: &quot;Montserrat ExtraBold Alt1&quot;; font-variant-ligatures: none; text-align: center; text-anchor: middle; fill: rgb(235, 235, 235);" d="m 491.27356,118.056 c 3.312,1.728 7.128,2.592 11.304,2.592 4.176,0 7.992,-0.864 11.376,-2.592 3.312,-1.728 5.976,-4.104 7.848,-7.2 1.872,-3.024 2.808,-6.552 2.808,-10.44 0,-3.888 -0.936,-7.344 -2.808,-10.368 -1.872,-3.024 -4.536,-5.4 -7.848,-7.128 -3.384,-1.728 -7.2,-2.592 -11.376,-2.592 -4.248,0 -8.064,0.864 -11.376,2.592 -3.312,1.728 -5.976,4.104 -7.848,7.128 -1.872,3.096 -2.808,6.552 -2.808,10.368 0,3.888 0.936,7.416 2.808,10.44 1.872,3.096 4.536,5.472 7.92,7.2 z m 17.208,-10.728 c -1.584,1.656 -3.528,2.448 -5.904,2.448 -2.448,0 -4.392,-0.792 -5.904,-2.448 -1.584,-1.656 -2.304,-3.96 -2.304,-6.912 0,-2.88 0.72,-5.112 2.304,-6.768 1.512,-1.584 3.456,-2.448 5.904,-2.448 2.376,0 4.32,0.864 5.904,2.448 1.512,1.656 2.304,3.888 2.304,6.768 0,2.952 -0.792,5.256 -2.304,6.912 z" transform="translate(0 273.15700000000004) translate(463.33296249999995 88.298) scale(1.25) translate(-480.54556 -80.328)"></path> 
   <path id="path4474" style="font-style: normal; font-weight: 800; font-size: 72px; line-height: 1; font-family: &quot;Montserrat ExtraBold Alt1&quot;; font-variant-ligatures: none; text-align: center; text-anchor: middle; fill: rgb(235, 235, 235);" d="m 572.92269,80.976 h -13.032 v 4.752 c -2.592,-3.6 -6.696,-5.4 -12.24,-5.4 -3.456,0 -6.696,0.792 -9.576,2.376 -2.952,1.584 -5.256,3.744 -6.984,6.624 -1.728,2.88 -2.592,6.12 -2.592,9.792 0,3.744 0.864,7.056 2.592,9.936 1.728,2.88 4.032,5.04 6.984,6.624 2.88,1.584 6.12,2.304 9.576,2.304 5.04,0 8.928,-1.512 11.592,-4.608 v 1.296 c 0,3.168 -0.864,5.472 -2.52,7.056 -1.728,1.584 -4.32,2.376 -7.92,2.376 -2.376,0 -4.752,-0.36 -7.2,-1.08 -2.448,-0.72 -4.392,-1.8 -5.976,-3.096 l -4.968,9.576 c 2.304,1.728 5.184,2.952 8.568,3.816 3.312,0.864 6.912,1.296 10.8,1.296 7.344,0 13.032,-1.8 16.992,-5.4 3.888,-3.6 5.904,-9.072 5.904,-16.344 z m -15.984,23.904 c -1.584,1.512 -3.6,2.232 -6.048,2.232 -2.448,0 -4.536,-0.72 -6.12,-2.232 -1.656,-1.44 -2.448,-3.384 -2.448,-5.76 0,-2.304 0.792,-4.248 2.376,-5.688 1.584,-1.44 3.672,-2.232 6.192,-2.232 2.448,0 4.536,0.792 6.12,2.232 1.584,1.44 2.376,3.384 2.376,5.688 0,2.376 -0.864,4.32 -2.448,5.76 z" transform="translate(0 273.15700000000004) translate(542.024375 88.298) scale(1.25) translate(-528.49869 -80.328)"></path> 
   <path id="path4476" style="font-style: normal; font-weight: 800; font-size: 72px; line-height: 1; font-family: &quot;Montserrat ExtraBold Alt1&quot;; font-variant-ligatures: none; text-align: center; text-anchor: middle; fill: rgb(235, 235, 235);" d="m 623.68831,80.976 h -13.032 v 4.752 c -2.592,-3.6 -6.696,-5.4 -12.24,-5.4 -3.456,0 -6.696,0.792 -9.576,2.376 -2.952,1.584 -5.256,3.744 -6.984,6.624 -1.728,2.88 -2.592,6.12 -2.592,9.792 0,3.744 0.864,7.056 2.592,9.936 1.728,2.88 4.032,5.04 6.984,6.624 2.88,1.584 6.12,2.304 9.576,2.304 5.04,0 8.928,-1.512 11.592,-4.608 v 1.296 c 0,3.168 -0.864,5.472 -2.52,7.056 -1.728,1.584 -4.32,2.376 -7.92,2.376 -2.376,0 -4.752,-0.36 -7.2,-1.08 -2.448,-0.72 -4.392,-1.8 -5.976,-3.096 l -4.968,9.576 c 2.304,1.728 5.184,2.952 8.568,3.816 3.312,0.864 6.912,1.296 10.8,1.296 7.344,0 13.032,-1.8 16.992,-5.4 3.888,-3.6 5.904,-9.072 5.904,-16.344 z m -15.984,23.904 c -1.584,1.512 -3.6,2.232 -6.048,2.232 -2.448,0 -4.536,-0.72 -6.12,-2.232 -1.656,-1.44 -2.448,-3.384 -2.448,-5.76 0,-2.304 0.792,-4.248 2.376,-5.688 1.584,-1.44 3.672,-2.232 6.192,-2.232 2.448,0 4.536,0.792 6.12,2.232 1.584,1.44 2.376,3.384 2.376,5.688 0,2.376 -0.864,4.32 -2.448,5.76 z" transform="translate(0 273.15700000000004) translate(624.2314 88.298) scale(1.25) translate(-579.26431 -80.328)"></path> 
   <path id="path4478" style="font-style: normal; font-weight: 800; font-size: 72px; line-height: 1; font-family: &quot;Montserrat ExtraBold Alt1&quot;; font-variant-ligatures: none; text-align: center; text-anchor: middle; fill: rgb(235, 235, 235);" d="M 632.47794,80.976 V 120 h 13.68 V 80.976 Z m 0.792,-6.408 c 1.512,1.44 3.528,2.088 6.048,2.088 2.448,0 4.464,-0.648 6.048,-2.088 1.512,-1.44 2.304,-3.24 2.304,-5.4 0,-2.016 -0.792,-3.744 -2.304,-5.04 -1.584,-1.296 -3.6,-2.016 -6.048,-2.016 -2.52,0 -4.536,0.72 -6.048,2.088 -1.584,1.44 -2.304,3.168 -2.304,5.184 0,2.088 0.72,3.816 2.304,5.184 z" transform="translate(0 273.15700000000004) translate(707.6084375 65.52799999999999) scale(1.25) translate(-630.96594 -62.112)"></path> 
   <path id="path4480" style="font-style: normal; font-weight: 800; font-size: 72px; line-height: 1; font-family: &quot;Montserrat ExtraBold Alt1&quot;; font-variant-ligatures: none; text-align: center; text-anchor: middle; fill: rgb(235, 235, 235);" d="m 694.64994,103.944 c 0.144,-2.16 0.216,-3.24 0.216,-3.384 0,-4.176 -0.936,-7.776 -2.808,-10.8 -1.872,-3.024 -4.32,-5.4 -7.488,-6.984 -3.168,-1.584 -6.696,-2.448 -10.584,-2.448 -4.104,0 -7.776,0.864 -11.016,2.592 -3.312,1.728 -5.832,4.176 -7.704,7.2 -1.872,3.024 -2.736,6.48 -2.736,10.296 0,3.888 0.936,7.416 2.808,10.44 1.872,3.096 4.608,5.472 8.064,7.2 3.456,1.728 7.416,2.592 12.024,2.592 7.272,0 12.816,-2.088 16.632,-6.336 l -7.2,-7.488 c -1.44,1.224 -2.808,2.088 -4.176,2.592 -1.368,0.576 -2.952,0.792 -4.824,0.792 -2.52,0 -4.608,-0.504 -6.264,-1.584 -1.656,-1.08 -2.736,-2.664 -3.312,-4.68 z m -25.92,-12.096 c 1.44,-1.152 3.168,-1.8 5.328,-1.8 2.088,0 3.816,0.648 5.256,1.8 1.44,1.224 2.304,2.88 2.736,4.896 h -15.984 c 0.36,-2.016 1.224,-3.672 2.664,-4.896 z" transform="translate(0 273.15700000000004) translate(753.3134375000001 88.298) scale(1.25) translate(-652.52994 -80.328)"></path> 
  </g> 
  <g id="tagline" style="font-style:normal;font-weight:500;font-size:32px;line-height:1;font-family:Montserrat;font-variant-ligatures:none;text-align:center;text-anchor:middle"></g> 
 </g> 
</svg>