<svg xmlns:dc="http://purl.org/dc/elements/1.1/" xmlns:cc="http://creativecommons.org/ns#" xmlns:rdf="http://www.w3.org/1999/02/22-rdf-syntax-ns#" xmlns:svg="http://www.w3.org/2000/svg" xmlns="http://www.w3.org/2000/svg" id="svg373462" viewbox="0 0 1024 768" height="768px" width="1024px" version="1.1"> <metadata id="metadata373468"> 
  <rdf:rdf> 
   <cc:work rdf:about=""> 
    <dc:format>
     image/svg+xml
    </dc:format> 
    <dc:type rdf:resource="http://purl.org/dc/dcmitype/StillImage"></dc:type> 
   </cc:work> 
  </rdf:rdf> 
 </metadata> <defs id="defs373466"></defs> <g id="logo-group"> 
  <g id="title" style="font-style:normal;font-weight:400;font-size:72px;line-height:1;font-family:Teko;font-variant-ligatures:none;text-align:center;text-anchor:middle" aria-label="O7EXPLORE"> 
   <path id="path373470" style="font-style: normal; font-weight: 400; font-size: 72px; line-height: 1; font-family: Teko; font-variant-ligatures: none; text-align: center; text-anchor: middle; fill: rgb(255, 255, 255);" d="m 406.48794,74.928 h 7.992 q 6.696,0 6.696,6.336 v 32.4 q 0,6.336 -6.696,6.336 h -7.992 q -6.768,0 -6.768,-6.336 v -32.4 q 0,-6.336 6.768,-6.336 z m 8.208,37.728 V 82.272 q 0,-1.296 -0.432,-1.656 -0.432,-0.432 -1.728,-0.432 h -4.176 q -1.296,0 -1.728,0.432 -0.36,0.36 -0.36,1.656 v 30.384 q 0,1.296 0.36,1.728 0.432,0.36 1.728,0.36 h 4.176 q 1.296,0 1.728,-0.36 0.432,-0.432 0.432,-1.728 z" transform="translate(0 262.67101646313364) translate(251.99999999999994 87.51088268950917) scale(1.5006257032018628) translate(-399.71994 -74.928)"></path> 
   <path id="path373472" style="font-style: normal; font-weight: 400; font-size: 72px; line-height: 1; font-family: Teko; font-variant-ligatures: none; text-align: center; text-anchor: middle; fill: rgb(255, 255, 255);" d="m 445.19356,74.928 v 4.032 l -12.096,41.04 h -6.624 l 11.736,-39.672 h -13.176 v -5.4 z" transform="translate(0 262.67101646313364) translate(312.4956543611126 87.51088268950917) scale(1.5006257032018628) translate(-425.03356 -74.928)"></path> 
   <path id="path373474" style="font-style: normal; font-weight: 400; font-size: 72px; line-height: 1; font-family: Teko; font-variant-ligatures: none; text-align: center; text-anchor: middle; fill: rgb(255, 255, 255);" d="m 455.85069,114.744 h 13.032 V 120 h -19.584 V 74.928 h 19.08 v 5.256 h -12.528 V 94.08 h 10.368 v 5.256 h -10.368 z" transform="translate(0 262.67101646313364) translate(371.41791767867517 87.51088268950917) scale(1.5006257032018628) translate(-449.29869 -74.928)"></path> 
   <path id="path373476" style="font-style: normal; font-weight: 400; font-size: 72px; line-height: 1; font-family: Teko; font-variant-ligatures: none; text-align: center; text-anchor: middle; fill: rgb(255, 255, 255);" d="m 487.22469,96.96 9.648,23.04 h -7.2 l -6.048,-17.136 -6.048,17.136 h -6.984 l 9.504,-23.04 -8.856,-22.032 h 7.2 l 5.184,16.2 5.256,-16.2 h 7.056 z" transform="translate(0 262.67101646313364) translate(425.88162695068354 87.51088268950917) scale(1.5006257032018628) translate(-470.59269 -74.928)"></path> 
   <path id="path373478" style="font-style: normal; font-weight: 400; font-size: 72px; line-height: 1; font-family: Teko; font-variant-ligatures: none; text-align: center; text-anchor: middle; fill: rgb(255, 255, 255);" d="m 500.90806,74.928 h 14.76 q 6.696,0 6.696,6.336 V 96.24 q 0,6.336 -6.696,6.336 h -8.28 V 120 h -6.48 z m 14.976,20.304 v -12.96 q 0,-1.296 -0.432,-1.656 -0.432,-0.432 -1.728,-0.432 h -6.336 v 17.208 h 6.336 q 1.296,0 1.728,-0.432 0.432,-0.432 0.432,-1.728 z" transform="translate(0 262.67101646313364) translate(493.883035922786 87.51088268950917) scale(1.5006257032018628) translate(-500.90806 -74.928)"></path> 
   <path id="path373480" style="font-style: normal; font-weight: 400; font-size: 72px; line-height: 1; font-family: Teko; font-variant-ligatures: none; text-align: center; text-anchor: middle; fill: rgb(255, 255, 255);" d="m 534.66931,114.744 h 11.16 V 120 h -17.64 V 74.928 h 6.48 z" transform="translate(0 262.67101646313364) translate(557.3313664362897 87.51088268950917) scale(1.5006257032018628) translate(-528.18931 -74.928)"></path> 
   <path id="path373482" style="font-style: normal; font-weight: 400; font-size: 72px; line-height: 1; font-family: Teko; font-variant-ligatures: none; text-align: center; text-anchor: middle; fill: rgb(255, 255, 255);" d="m 556.25356,74.928 h 7.992 q 6.696,0 6.696,6.336 v 32.4 q 0,6.336 -6.696,6.336 h -7.992 q -6.768,0 -6.768,-6.336 v -32.4 q 0,-6.336 6.768,-6.336 z m 8.208,37.728 V 82.272 q 0,-1.296 -0.432,-1.656 -0.432,-0.432 -1.728,-0.432 h -4.176 q -1.296,0 -1.728,0.432 -0.36,0.36 -0.36,1.656 v 30.384 q 0,1.296 0.36,1.728 0.432,0.36 1.728,0.36 h 4.176 q 1.296,0 1.728,-0.36 0.432,-0.432 0.432,-1.728 z" transform="translate(0 262.67101646313364) translate(611.7984521161303 87.51088268950917) scale(1.5006257032018628) translate(-549.48556 -74.928)"></path> 
   <path id="path373484" style="font-style: normal; font-weight: 400; font-size: 72px; line-height: 1; font-family: Teko; font-variant-ligatures: none; text-align: center; text-anchor: middle; fill: rgb(255, 255, 255);" d="M 584.59119,101.784 V 120 h -6.48 V 74.928 h 14.76 q 6.696,0 6.696,6.336 v 14.112 q 0,5.472 -4.824,6.264 l 7.128,18.36 h -6.984 l -6.768,-18.216 z m 0,-21.6 V 96.6 h 6.336 q 1.296,0 1.728,-0.36 0.432,-0.432 0.432,-1.728 v -12.24 q 0,-1.296 -0.432,-1.656 -0.432,-0.432 -1.728,-0.432 z" transform="translate(0 262.67101646313364) translate(677.2641938125046 87.51088268950917) scale(1.5006257032018628) translate(-578.11119 -74.928)"></path> 
   <path id="path373486" style="font-style: normal; font-weight: 400; font-size: 72px; line-height: 1; font-family: Teko; font-variant-ligatures: none; text-align: center; text-anchor: middle; fill: rgb(255, 255, 255);" d="m 613.21006,114.744 h 13.032 V 120 h -19.584 V 74.928 h 19.08 v 5.256 h -12.528 V 94.08 h 10.368 v 5.256 h -10.368 z" transform="translate(0 262.67101646313364) translate(742.6117462284947 87.51088268950917) scale(1.5006257032018628) translate(-606.65806 -74.928)"></path> 
  </g> 
  <g id="tagline" style="font-style:oblique;font-weight:normal;font-size:32px;line-height:1;font-family:'Fira Sans Condensed';font-variant-ligatures:none;text-align:center;text-anchor:middle"></g> 
 </g> 
</svg>