<svg xmlns:dc="http://purl.org/dc/elements/1.1/" xmlns:cc="http://creativecommons.org/ns#" xmlns:rdf="http://www.w3.org/1999/02/22-rdf-syntax-ns#" xmlns:svg="http://www.w3.org/2000/svg" xmlns="http://www.w3.org/2000/svg" id="svg111065" viewbox="0 0 1024 768" height="768px" width="1024px" version="1.1"> <metadata id="metadata111071"> 
  <rdf:rdf> 
   <cc:work rdf:about=""> 
    <dc:format>
     image/svg+xml
    </dc:format> 
    <dc:type rdf:resource="http://purl.org/dc/dcmitype/StillImage"></dc:type> 
   </cc:work> 
  </rdf:rdf> 
 </metadata> <defs id="defs111069"></defs> <g id="logo-group"> 
  <g id="title" style="font-style:oblique;font-weight:700;font-size:72px;line-height:1;font-family:'Uni Neue';font-variant-ligatures:none;text-align:center;text-anchor:middle" aria-label="O7EARTH"> 
   <path id="path111073" style="font-style: oblique; font-weight: 700; font-size: 72px; line-height: 1; font-family: &quot;Uni Neue&quot;; font-variant-ligatures: none; text-align: center; text-anchor: middle; fill: rgb(194, 194, 194);" d="m 404.53212,101.64 2.232,-12.744 c 2.16,-12.96 -4.32,-21.312 -16.632,-21.312 -12.6,0 -21.16799,7.056 -23.256,18.864 l -2.232,12.744 c -2.232,12.816 4.03201,21.744 16.34401,21.744 12.95999,0 21.45599,-6.984 23.54399,-19.296 z m -28.44,-1.152 2.376,-13.032 c 1.08001,-5.904 4.464,-9.36 10.15201,-9.36 5.47199,0 7.63199,3.96 6.62399,9.72 l -2.30399,13.176 c -1.00801,5.832 -4.608,9.432 -10.29601,9.432 -5.328,0 -7.56,-4.032 -6.552,-9.936 z" transform="translate(0 247.19593813896716) translate(252 93.11155243810782) scale(1.6378958398157528) translate(-364.19863 -67.584)"></path> 
   <path id="path111075" style="font-style: oblique; font-weight: 700; font-size: 72px; line-height: 1; font-family: &quot;Uni Neue&quot;; font-variant-ligatures: none; text-align: center; text-anchor: middle; fill: rgb(194, 194, 194);" d="m 420.767,120 c 0.72,0 1.152,-0.288 1.512,-0.864 l 24.84,-41.688 c 0.288,-0.504 0.432,-0.936 0.504,-1.44 l 1.008,-6.12 c 0.144,-0.792 -0.288,-1.368 -1.08,-1.368 h -31.896 c -0.792,0 -1.224,0.36 -1.296,1.152 l -1.368,7.776 c -0.144,0.792 0.288,1.368 1.152,1.368 h 19.872 l -23.688,39.672 c -0.504,0.864 -0.072,1.512 0.864,1.512 z" transform="translate(0 247.19593813896716) translate(332.11849395250744 94.64462294417535) scale(1.6378958398157528) translate(-410.11413 -68.52)"></path> 
   <path id="path111077" style="font-style: oblique; font-weight: 700; font-size: 72px; line-height: 1; font-family: &quot;Uni Neue&quot;; font-variant-ligatures: none; text-align: center; text-anchor: middle; fill: rgb(226, 226, 226);" d="m 487.40863,69.888 c 0.14399,-0.792 -0.288,-1.368 -1.15201,-1.368 h -29.592 c -0.72,0 -1.15199,0.432 -1.296,1.152 l -8.71199,48.96 c -0.072,0.792 0.28799,1.368 1.15199,1.368 h 30.744 c 0.792,0 1.224,-0.36 1.368,-1.152 L 481.21663,111 c 0.072,-0.792 -0.36001,-1.368 -1.15201,-1.368 h -20.376 l 1.87201,-10.728 h 17.35199 c 0.72001,0 1.152,-0.432 1.296,-1.152 l 1.368,-7.56 c 0.144,-0.864 -0.28799,-1.368 -1.08,-1.368 h -17.13599 l 1.79999,-10.008 h 19.584 c 0.72,0 1.15201,-0.432 1.296,-1.152 z" transform="translate(0 247.19593813896716) translate(396.87031465169713 94.64462294417535) scale(1.6378958398157528) translate(-446.64767 -68.52)"></path> 
   <path id="path111079" style="font-style: oblique; font-weight: 700; font-size: 72px; line-height: 1; font-family: &quot;Uni Neue&quot;; font-variant-ligatures: none; text-align: center; text-anchor: middle; fill: rgb(226, 226, 226);" d="m 526.81175,120 c 0.864,0 1.296,-0.504 1.152,-1.296 l -7.416,-49.032 c -0.144,-0.792 -0.648,-1.152 -1.368,-1.152 h -10.512 c -0.648,0 -1.152,0.288 -1.44,0.936 l -23.976,49.032 c -0.432,0.936 -0.072,1.512 0.864,1.512 h 9.864 c 0.648,0 1.224,-0.288 1.44,-0.936 l 3.888,-8.64 h 16.2 l 1.008,8.424 c 0.072,0.792 0.576,1.152 1.296,1.152 z m -14.4,-38.952 c 0.432,4.608 1.224,12.024 1.944,19.152 h -10.512 c 3.168,-6.912 6.264,-14.4 8.28,-19.152 z" transform="translate(0 247.19593813896716) translate(461.4406073549599 94.64462294417535) scale(1.6378958398157528) translate(-483.07038 -68.52)"></path> 
   <path id="path111081" style="font-style: oblique; font-weight: 700; font-size: 72px; line-height: 1; font-family: &quot;Uni Neue&quot;; font-variant-ligatures: none; text-align: center; text-anchor: middle; fill: rgb(226, 226, 226);" d="m 543.36162,120 c 0.79201,0 1.22401,-0.432 1.36801,-1.152 l 2.736,-15.984 h 4.75199 l 6.62401,16.2 c 0.216,0.648 0.72,0.936 1.43999,0.936 h 9.792 c 0.93601,0 1.29601,-0.576 0.86401,-1.44 l -8.06401,-17.064 c 7.056,-2.16 11.30401,-6.984 12.528,-14.472 1.72801,-10.44 -3.95999,-18.504 -15.624,-18.504 h -16.56 c -0.792,0 -1.224,0.432 -1.368,1.152 l -8.568,48.96 c -0.144,0.792 0.288,1.368 1.152,1.368 z m 8.28,-41.112 h 6.408 c 4.75201,0 6.48,2.52 5.76,7.272 -0.72,4.392 -3.384,6.48 -8.20799,6.48 h -6.33601 z" transform="translate(0 247.19593813896716) translate(548.5503778049289 94.64462294417535) scale(1.6378958398157528) translate(-533.25433 -68.52)"></path> 
   <path id="path111083" style="font-style: oblique; font-weight: 700; font-size: 72px; line-height: 1; font-family: &quot;Uni Neue&quot;; font-variant-ligatures: none; text-align: center; text-anchor: middle; fill: rgb(226, 226, 226);" d="m 582.63537,68.52 c -0.71999,0 -1.15199,0.432 -1.29599,1.152 l -1.44001,7.92 c -0.072,0.792 0.288,1.368 1.152,1.368 h 12.31201 l -7.05601,39.672 c -0.144,0.792 0.288,1.368 1.08001,1.368 h 9 c 0.72,0 1.15199,-0.432 1.29599,-1.152 l 7.056,-39.888 h 12.45601 c 0.792,0 1.22399,-0.432 1.29599,-1.152 l 1.44,-7.92 c 0.144,-0.864 -0.288,-1.368 -1.152,-1.368 z" transform="translate(0 247.19593813896716) translate(629.8491067416907 94.64462294417535) scale(1.6378958398157528) translate(-579.89041 -68.52)"></path> 
   <path id="path111085" style="font-style: oblique; font-weight: 700; font-size: 72px; line-height: 1; font-family: &quot;Uni Neue&quot;; font-variant-ligatures: none; text-align: center; text-anchor: middle; fill: rgb(226, 226, 226);" d="m 648.91138,88.752 h -14.832 l 3.312,-18.864 c 0.072,-0.792 -0.288,-1.368 -1.15201,-1.368 h -8.928 c -0.72,0 -1.152,0.432 -1.296,1.152 l -8.64,48.96 c -0.144,0.792 0.288,1.368 1.152,1.368 h 8.856 c 0.79201,0 1.22401,-0.432 1.36801,-1.152 l 3.45599,-19.656 h 14.904 l -3.45599,19.44 c -0.144,0.792 0.288,1.368 1.07999,1.368 h 8.928 c 0.792,0 1.22401,-0.432 1.29601,-1.152 l 8.71199,-48.96 c 0.072,-0.792 -0.36,-1.368 -1.152,-1.368 h -8.928 c -0.72,0 -1.22399,0.432 -1.29599,1.152 z" transform="translate(0 247.19593813896716) translate(696.1145561233292 94.64462294417535) scale(1.6378958398157528) translate(-617.34808 -68.52)"></path> 
  </g> 
  <g id="tagline" style="font-style:oblique;font-weight:400;font-size:32px;line-height:1;font-family:Lato;font-variant-ligatures:none;text-align:center;text-anchor:middle"></g> 
 </g> 
</svg>