<svg xmlns:dc="http://purl.org/dc/elements/1.1/" xmlns:cc="http://creativecommons.org/ns#" xmlns:rdf="http://www.w3.org/1999/02/22-rdf-syntax-ns#" xmlns:svg="http://www.w3.org/2000/svg" xmlns="http://www.w3.org/2000/svg" id="svg275399" viewbox="0 0 1024 768" height="768px" width="1024px" version="1.1"> <metadata id="metadata275405"> 
  <rdf:rdf> 
   <cc:work rdf:about=""> 
    <dc:format>
     image/svg+xml
    </dc:format> 
    <dc:type rdf:resource="http://purl.org/dc/dcmitype/StillImage"></dc:type> 
   </cc:work> 
  </rdf:rdf> 
 </metadata> <defs id="defs275403"></defs> <g id="logo-group"> 
  <g id="title" style="font-style:normal;font-weight:700;font-size:72px;line-height:1;font-family:'Comfortaa Bold Alt1';font-variant-ligatures:none;text-align:center;text-anchor:middle" aria-label="O7Echo"> 
   <path id="path275407" style="font-style: normal; font-weight: 700; font-size: 72px; line-height: 1; font-family: &quot;Comfortaa Bold Alt1&quot;; font-variant-ligatures: none; text-align: center; text-anchor: middle; fill: rgb(129, 129, 129);" d="m 398.3075,120.72 c 3.888,0 7.632,-0.72 11.232,-2.232 3.456,-1.44 6.48,-3.528 9.144,-6.192 2.664,-2.664 4.752,-5.688 6.192,-9.144 1.512,-3.6 2.304,-7.344 2.304,-11.232 0,-3.888 -0.792,-7.632 -2.304,-11.232 -1.44,-3.456 -3.528,-6.48 -6.192,-9.144 -2.664,-2.664 -5.688,-4.752 -9.144,-6.192 -3.6,-1.512 -7.344,-2.304 -11.232,-2.304 -3.888,0 -7.632,0.792 -11.232,2.304 -3.456,1.44 -6.48,3.528 -9.144,6.192 -2.664,2.664 -4.752,5.688 -6.192,9.144 -1.512,3.6 -2.232,7.344 -2.232,11.232 0,3.888 0.72,7.632 2.232,11.232 1.44,3.456 3.528,6.48 6.192,9.144 2.664,2.664 5.688,4.752 9.144,6.192 3.6,1.512 7.344,2.232 11.232,2.232 z m 0,-50.616 c 6.048,0 11.16,2.16 15.408,6.408 4.248,4.248 6.408,9.36 6.408,15.408 0,6.048 -2.16,11.16 -6.408,15.408 -4.248,4.248 -9.36,6.336 -15.408,6.336 -6.048,0 -11.16,-2.088 -15.408,-6.336 -4.248,-4.248 -6.336,-9.36 -6.336,-15.408 0,-6.048 2.088,-11.16 6.336,-15.408 4.248,-4.248 9.36,-6.408 15.408,-6.408 z" transform="translate(0 237.668044882203) translate(252.00000000000006 96.31366699606968) scale(1.7345778929715403) translate(-369.5075 -63.048)"></path> 
   <path id="path275409" style="font-style: normal; font-weight: 700; font-size: 72px; line-height: 1; font-family: &quot;Comfortaa Bold Alt1&quot;; font-variant-ligatures: none; text-align: center; text-anchor: middle; fill: rgb(129, 129, 129);" d="m 431.36225,70.104 c 0.72,0.72 1.584,1.008 2.664,1.008 h 21.888 l -20.664,42.912 c -0.432,0.864 -0.648,1.656 -0.648,2.304 0,1.008 0.36,1.872 1.08,2.592 0.72,0.72 1.512,1.08 2.52,1.08 0.648,0 1.296,-0.144 1.944,-0.504 0.576,-0.36 1.08,-0.864 1.44,-1.512 l 23.04,-48.6 c 0.288,-0.72 0.504,-1.368 0.504,-1.944 0,-1.008 -0.36,-1.872 -1.08,-2.592 -0.72,-0.72 -1.584,-1.08 -2.592,-1.08 h -27.432 c -1.08,0 -1.944,0.36 -2.664,1.08 -0.72,0.72 -1.008,1.584 -1.008,2.592 0,1.08 0.288,1.944 1.008,2.664 z" transform="translate(0 237.668044882203) translate(362.74716108808076 97.56256307900918) scale(1.7345778929715403) translate(-430.35425 -63.768)"></path> 
   <path id="path275411" style="font-style: normal; font-weight: 700; font-size: 72px; line-height: 1; font-family: &quot;Comfortaa Bold Alt1&quot;; font-variant-ligatures: none; text-align: center; text-anchor: middle; fill: rgb(138, 138, 138);" d="m 513.43325,114.024 c -0.72,-0.576 -1.584,-0.936 -2.664,-0.936 h -26.64 c -0.648,0 -1.152,-0.144 -1.584,-0.576 -0.432,-0.432 -0.576,-0.936 -0.576,-1.584 V 97.32 c 0,-0.648 0.144,-1.152 0.576,-1.584 0.432,-0.432 0.936,-0.648 1.584,-0.648 h 18.504 c 1.008,0 1.872,-0.288 2.592,-0.936 0.72,-0.648 1.08,-1.44 1.08,-2.52 0,-1.008 -0.36,-1.8 -1.08,-2.448 -0.72,-0.648 -1.584,-1.008 -2.592,-1.008 h -18.504 c -0.648,0 -1.152,-0.144 -1.584,-0.576 -0.432,-0.432 -0.576,-0.936 -0.576,-1.584 V 72.912 c 0,-0.648 0.144,-1.152 0.576,-1.584 0.432,-0.432 0.936,-0.648 1.584,-0.648 h 26.64 c 1.08,0 1.944,-0.288 2.664,-0.936 0.648,-0.576 1.008,-1.44 1.008,-2.448 0,-1.008 -0.36,-1.872 -1.008,-2.52 -0.72,-0.648 -1.584,-1.008 -2.664,-1.008 h -32.544 c -1.08,0 -2.016,0.36 -2.664,1.08 -0.72,0.72 -1.08,1.584 -1.08,2.664 v 48.744 c 0,1.08 0.36,1.944 1.08,2.664 0.72,0.72 1.584,1.08 2.664,1.08 h 32.544 c 1.08,0 1.944,-0.288 2.664,-0.936 0.648,-0.648 1.008,-1.512 1.008,-2.592 0,-1.008 -0.36,-1.8 -1.008,-2.448 z" transform="translate(0 237.668044882203) translate(444.49261345015054 97.56256307900918) scale(1.7345778929715403) translate(-474.48125 -63.768)"></path> 
   <path id="path275413" style="font-style: normal; font-weight: 700; font-size: 72px; line-height: 1; font-family: &quot;Comfortaa Bold Alt1&quot;; font-variant-ligatures: none; text-align: center; text-anchor: middle; fill: rgb(138, 138, 138);" d="m 555.713,86.808 c -3.744,-4.32 -8.496,-6.48 -14.112,-6.48 -3.744,0 -7.128,0.864 -10.08,2.592 -3.024,1.728 -5.328,4.104 -6.984,7.128 -1.656,3.024 -2.448,6.48 -2.448,10.296 0,3.744 0.792,7.2 2.52,10.224 1.728,3.024 4.104,5.4 7.128,7.128 3.024,1.728 6.408,2.592 10.224,2.592 5.184,0 9.504,-1.584 12.96,-4.824 0.576,-0.576 0.864,-1.224 0.864,-1.944 0,-0.936 -0.504,-1.8 -1.368,-2.592 -0.576,-0.432 -1.224,-0.648 -1.872,-0.648 -0.864,0 -1.8,0.36 -2.664,1.008 -2.016,1.728 -4.68,2.52 -7.92,2.52 -2.52,0 -4.752,-0.576 -6.696,-1.728 -1.944,-1.152 -3.456,-2.736 -4.536,-4.752 -1.08,-2.016 -1.584,-4.392 -1.584,-6.984 0,-4.032 1.152,-7.344 3.456,-9.792 2.304,-2.448 5.256,-3.744 9,-3.744 1.8,0 3.384,0.36 4.824,0.936 1.44,0.576 2.736,1.512 3.96,2.808 0.72,0.864 1.656,1.296 2.808,1.296 0.576,0 1.152,-0.144 1.656,-0.504 1.008,-0.72 1.584,-1.584 1.584,-2.664 0,-0.72 -0.288,-1.296 -0.72,-1.872 z" transform="translate(0 237.668044882203) translate(532.2756978131812 126.28717298661789) scale(1.7345778929715403) translate(-522.089 -80.328)"></path> 
   <path id="path275415" style="font-style: normal; font-weight: 700; font-size: 72px; line-height: 1; font-family: &quot;Comfortaa Bold Alt1&quot;; font-variant-ligatures: none; text-align: center; text-anchor: middle; fill: rgb(138, 138, 138);" d="m 595.9295,82.416 c -2.664,-1.44 -5.616,-2.16 -8.928,-2.16 -2.448,0 -4.68,0.432 -6.768,1.296 -2.16,0.864 -3.96,2.016 -5.472,3.528 V 67.44 c 0,-1.08 -0.36,-1.944 -1.008,-2.664 -0.72,-0.648 -1.584,-1.008 -2.664,-1.008 -1.08,0 -1.944,0.36 -2.664,1.008 -0.72,0.72 -1.008,1.584 -1.008,2.664 v 48.96 c 0,1.08 0.288,1.944 1.008,2.664 0.72,0.72 1.584,1.008 2.664,1.008 1.08,0 1.944,-0.288 2.664,-1.008 0.648,-0.72 1.008,-1.584 1.008,-2.664 V 96.096 c 0,-1.728 0.432,-3.24 1.368,-4.68 0.936,-1.368 2.232,-2.448 3.888,-3.312 1.656,-0.792 3.528,-1.224 5.544,-1.224 3.456,0 6.192,1.008 8.28,3.024 2.088,2.016 3.168,4.896 3.168,8.784 V 116.4 c 0,1.08 0.288,1.944 1.008,2.664 0.72,0.72 1.584,1.008 2.664,1.008 1.008,0 1.872,-0.288 2.592,-1.008 0.72,-0.72 1.08,-1.584 1.08,-2.664 V 98.688 c 0,-3.888 -0.792,-7.2 -2.232,-9.936 -1.512,-2.736 -3.6,-4.896 -6.192,-6.336 z" transform="translate(0 237.668044882203) translate(616.1052455136562 97.56256307900918) scale(1.7345778929715403) translate(-567.4175 -63.768)"></path> 
   <path id="path275417" style="font-style: normal; font-weight: 700; font-size: 72px; line-height: 1; font-family: &quot;Comfortaa Bold Alt1&quot;; font-variant-ligatures: none; text-align: center; text-anchor: middle; fill: rgb(138, 138, 138);" d="m 644.64425,82.92 c -3.024,-1.728 -6.408,-2.592 -10.152,-2.592 -3.888,0 -7.272,0.864 -10.296,2.592 -3.024,1.728 -5.4,4.032 -7.056,7.056 -1.728,3.024 -2.52,6.48 -2.52,10.368 0,3.888 0.792,7.272 2.52,10.296 1.656,3.024 4.032,5.4 7.056,7.128 3.024,1.728 6.408,2.52 10.296,2.52 3.816,0 7.2,-0.792 10.224,-2.52 3.024,-1.728 5.328,-4.104 7.056,-7.128 1.656,-3.024 2.52,-6.408 2.52,-10.296 0,-3.888 -0.864,-7.344 -2.592,-10.368 -1.728,-3.024 -4.032,-5.328 -7.056,-7.056 z m -16.776,5.616 c 1.944,-1.152 4.176,-1.728 6.624,-1.728 2.448,0 4.608,0.576 6.552,1.728 1.944,1.152 3.456,2.808 4.536,4.824 1.08,2.088 1.656,4.392 1.656,6.984 0,2.592 -0.576,4.968 -1.656,6.984 -1.08,2.016 -2.592,3.6 -4.536,4.752 -1.944,1.152 -4.104,1.728 -6.552,1.728 -2.448,0 -4.68,-0.576 -6.624,-1.728 -1.944,-1.152 -3.456,-2.736 -4.536,-4.752 -1.152,-2.016 -1.656,-4.392 -1.656,-6.984 0,-2.592 0.504,-4.896 1.656,-6.984 1.08,-2.016 2.592,-3.672 4.536,-4.824 z" transform="translate(0 237.668044882203) translate(703.1858258300332 126.28717298661789) scale(1.7345778929715403) translate(-614.62025 -80.328)"></path> 
  </g> 
  <g id="tagline" style="font-style:normal;font-weight:500;font-size:32px;line-height:1;font-family:Raleway;font-variant-ligatures:none;text-align:center;text-anchor:middle"></g> 
 </g> 
</svg>