<svg xmlns:dc="http://purl.org/dc/elements/1.1/" xmlns:cc="http://creativecommons.org/ns#" xmlns:rdf="http://www.w3.org/1999/02/22-rdf-syntax-ns#" xmlns:svg="http://www.w3.org/2000/svg" xmlns="http://www.w3.org/2000/svg" id="svg267100" viewbox="0 0 1024 768" height="768px" width="1024px" version="1.1"> <metadata id="metadata267106"> 
  <rdf:rdf> 
   <cc:work rdf:about=""> 
    <dc:format>
     image/svg+xml
    </dc:format> 
    <dc:type rdf:resource="http://purl.org/dc/dcmitype/StillImage"></dc:type> 
   </cc:work> 
  </rdf:rdf> 
 </metadata> <defs id="defs267104"></defs> <g id="logo-group"> 
  <g id="title" style="font-style:normal;font-weight:500;font-size:72px;line-height:1;font-family:'Raleway Medium Alt1';font-variant-ligatures:none;text-align:center;text-anchor:middle" aria-label="O7EASIER"> 
   <path id="path267108" style="font-style: normal; font-weight: 500; font-size: 72px; line-height: 1; font-family: &quot;Raleway Medium Alt1&quot;; font-variant-ligatures: none; text-align: center; text-anchor: middle; fill: rgb(26, 183, 234);" d="m 387.458,97.248 c -0.216,1.512 -0.504,3.024 -1.008,4.464 -0.792,2.448 -1.944,4.608 -3.456,6.48 -1.512,1.872 -3.384,3.456 -5.472,4.608 -2.232,1.152 -4.68,1.728 -7.344,1.728 -2.664,0 -5.04,-0.504 -7.2,-1.656 -2.16,-1.08 -4.032,-2.592 -5.544,-4.464 -1.584,-1.872 -2.736,-3.96 -3.6,-6.408 -0.504,-1.512 -0.864,-3.096 -1.08,-4.752 h -6.552 c 0.216,2.304 0.72,4.608 1.584,6.768 1.08,3.168 2.736,5.904 4.896,8.352 2.088,2.448 4.608,4.392 7.56,5.832 2.952,1.44 6.264,2.16 9.864,2.16 3.456,0 6.624,-0.648 9.576,-2.088 2.952,-1.44 5.472,-3.312 7.632,-5.688 2.16,-2.376 3.816,-5.112 5.04,-8.28 0.864,-2.232 1.44,-4.608 1.728,-7.056 z M 353.834,87.096 c 0.792,-2.376 1.944,-4.464 3.456,-6.408 1.512,-1.872 3.384,-3.384 5.544,-4.536 2.16,-1.152 4.608,-1.728 7.344,-1.728 2.52,0 4.896,0.576 7.056,1.656 2.16,1.152 3.96,2.592 5.544,4.464 1.584,1.872 2.736,3.96 3.6,6.408 0.432,1.296 0.792,2.664 1.008,3.96 h 6.552 c -0.288,-1.944 -0.792,-3.96 -1.44,-5.832 -1.152,-3.096 -2.808,-5.832 -4.896,-8.352 -2.16,-2.448 -4.68,-4.392 -7.56,-5.904 -2.952,-1.512 -6.264,-2.304 -9.792,-2.304 -3.528,0 -6.696,0.72 -9.648,2.16 -2.952,1.44 -5.472,3.312 -7.632,5.688 -2.16,2.448 -3.888,5.184 -5.112,8.28 -0.792,2.088 -1.368,4.176 -1.584,6.264 h 6.552 c 0.216,-1.224 0.576,-2.52 1.008,-3.816 z" transform="translate(0 247.92870287147838) translate(252.00000000000006 88.65779341960398) scale(1.5641826243374777) translate(-346.202 -68.52)"></path> 
   <path id="path267110" style="font-style: normal; font-weight: 500; font-size: 72px; line-height: 1; font-family: &quot;Raleway Medium Alt1&quot;; font-variant-ligatures: none; text-align: center; text-anchor: middle; fill: rgb(26, 183, 234);" d="m 425.33337,83.856 -22.896,45.288 h 7.20001 l 25.70399,-51.12 h -36.28799 v 5.832 z" transform="translate(0 247.92870287147838) translate(334.6692102682574 103.52378508130737) scale(1.5641826243374777) translate(-399.05338 -78.024)"></path> 
   <path id="path267112" style="font-style: normal; font-weight: 500; font-size: 72px; line-height: 1; font-family: &quot;Raleway Medium Alt1&quot;; font-variant-ligatures: none; text-align: center; text-anchor: middle; fill: rgb(177, 138, 120);" d="m 448.24063,74.64 h 27.57599 v -5.76 h -34.056 v 15.84 h 6.48001 z m -6.48001,39.6 V 120 h 34.704 v -5.76 z m 6.48001,-17.64 h 23.976 v -5.4 h -30.45601 v 16.56 h 6.48001 z" transform="translate(0 247.92870287147838) translate(401.47113300966794 89.22089916436546) scale(1.5641826243374777) translate(-441.76062 -68.88)"></path> 
   <path id="path267114" style="font-style: normal; font-weight: 500; font-size: 72px; line-height: 1; font-family: &quot;Raleway Medium Alt1&quot;; font-variant-ligatures: none; text-align: center; text-anchor: middle; fill: rgb(177, 138, 120);" d="m 509.18637,75.864 -2.808,7.632 6.48001,16.488 h -12.81601 l -1.944,5.04 h 16.2 l 6.048,14.976 h 6.912 z m -2.808,-6.984 h -5.47199 l -20.952,51.12 h 6.62399 l 17.06401,-43.632 z" transform="translate(0 247.92870287147838) translate(461.21314875978373 89.22089916436546) scale(1.5641826243374777) translate(-479.95438 -68.88)"></path> 
   <path id="path267116" style="font-style: normal; font-weight: 500; font-size: 72px; line-height: 1; font-family: &quot;Raleway Medium Alt1&quot;; font-variant-ligatures: none; text-align: center; text-anchor: middle; fill: rgb(177, 138, 120);" d="m 563.47212,79.608 3.024,-5.256 c -2.15999,-1.728 -4.67999,-3.168 -7.416,-4.248 -2.808,-1.008 -5.904,-1.584 -9.35999,-1.584 -2.66401,0 -5.11201,0.36 -7.34401,1.008 -2.30399,0.648 -4.248,1.584 -5.832,2.88 -1.656,1.296 -2.952,2.88 -3.816,4.752 -0.93599,1.872 -1.36799,4.032 -1.36799,6.48 0,2.016 0.288,3.744 1.00799,5.184 0.648,1.44 1.65601,2.664 2.952,3.672 1.296,1.008 2.952,1.872 4.96801,2.592 1.94399,0.72 4.24799,1.44 6.83999,2.016 2.30401,0.576 4.392,1.152 6.264,1.728 1.87201,0.576 3.384,1.152 4.68001,1.872 1.22399,0.72 2.15999,1.584 2.808,2.592 0.648,1.008 1.00799,2.16 1.00799,3.6 0,2.592 -1.00799,4.536 -3.02399,5.832 -2.01601,1.296 -4.89601,1.944 -8.49601,1.944 -2.016,0 -3.88799,-0.144 -5.688,-0.576 -1.79999,-0.432 -3.456,-0.936 -5.04,-1.584 -1.584,-0.648 -2.95199,-1.368 -4.176,-2.232 -1.22399,-0.792 -2.232,-1.584 -2.952,-2.448 l -3.096,5.472 c 2.88,2.376 6.048,4.176 9.576,5.4 3.528,1.224 7.27201,1.8 11.232,1.8 2.59201,0 5.04001,-0.216 7.344,-0.792 2.232,-0.576 4.17601,-1.44 5.832,-2.592 1.656,-1.152 2.952,-2.664 3.96001,-4.464 0.93599,-1.8 1.43999,-3.96 1.43999,-6.408 0,-2.304 -0.432,-4.248 -1.22399,-5.832 -0.792,-1.584 -1.94401,-2.88 -3.456,-4.032 -1.51201,-1.08 -3.312,-2.016 -5.472,-2.736 -2.16001,-0.72 -4.53601,-1.44 -7.12801,-2.016 -2.30399,-0.504 -4.32,-1.008 -5.976,-1.512 -1.72799,-0.432 -3.096,-1.008 -4.248,-1.656 -1.15199,-0.648 -1.944,-1.44 -2.448,-2.376 -0.576,-0.864 -0.792,-2.016 -0.792,-3.456 0,-2.592 0.864,-4.608 2.73601,-6.12 1.872,-1.44 4.75199,-2.232 8.784,-2.232 1.51199,0 2.952,0.216 4.39199,0.504 1.44001,0.288 2.736,0.72 3.96001,1.224 1.15199,0.504 2.23199,1.08 3.24,1.656 0.93599,0.648 1.72799,1.296 2.30399,1.944 z" transform="translate(0 247.92870287147838) translate(538.5803430372818 88.65779341960398) scale(1.5641826243374777) translate(-529.41612 -68.52)"></path> 
   <path id="path267118" style="font-style: normal; font-weight: 500; font-size: 72px; line-height: 1; font-family: &quot;Raleway Medium Alt1&quot;; font-variant-ligatures: none; text-align: center; text-anchor: middle; fill: rgb(177, 138, 120);" d="m 577.32312,120 h 6.48001 V 68.88 h -6.48001 z" transform="translate(0 247.92870287147838) translate(613.5156400214173 89.22089916436546) scale(1.5641826243374777) translate(-577.32312 -68.88)"></path> 
   <path id="path267120" style="font-style: normal; font-weight: 500; font-size: 72px; line-height: 1; font-family: &quot;Raleway Medium Alt1&quot;; font-variant-ligatures: none; text-align: center; text-anchor: middle; fill: rgb(177, 138, 120);" d="m 602.50625,74.64 h 27.576 v -5.76 h -34.056 v 15.84 h 6.48 z m -6.48,39.6 V 120 h 34.704 v -5.76 z m 6.48,-17.64 h 23.976 v -5.4 h -30.456 v 16.56 h 6.48 z" transform="translate(0 247.92870287147838) translate(642.7707509881423 89.22089916436546) scale(1.5641826243374777) translate(-596.02625 -68.88)"></path> 
   <path id="path267122" style="font-style: normal; font-weight: 500; font-size: 72px; line-height: 1; font-family: &quot;Raleway Medium Alt1&quot;; font-variant-ligatures: none; text-align: center; text-anchor: middle; fill: rgb(177, 138, 120);" d="m 666.26,100.416 c 1.584,-0.36 3.096,-1.08 4.392,-2.088 1.296,-0.936 2.448,-2.088 3.384,-3.456 0.936,-1.296 1.656,-2.808 2.16,-4.464 0.504,-1.656 0.792,-3.384 0.792,-5.184 0,-2.016 -0.432,-3.96 -1.152,-5.904 -0.792,-1.944 -1.872,-3.672 -3.24,-5.256 -1.368,-1.584 -3.024,-2.808 -4.896,-3.744 -1.872,-0.936 -3.96,-1.44 -6.192,-1.44 H 639.62 V 120 h 6.48 v -18.36 h 6.48 l -3.6,-5.76 H 646.1 V 74.64 h 15.048 c 1.224,0 2.376,0.288 3.528,0.864 1.152,0.576 2.088,1.296 2.952,2.304 0.864,1.008 1.512,2.088 2.016,3.384 0.504,1.296 0.792,2.664 0.792,4.032 0,1.44 -0.216,2.736 -0.648,4.032 -0.504,1.368 -1.08,2.448 -1.8,3.456 -0.792,1.008 -1.728,1.8 -2.808,2.304 -1.08,0.576 -2.304,0.864 -3.6,0.864 h -5.688 l 3.744,5.76 L 671.3,120 h 7.344 z" transform="translate(0 247.92870287147838) translate(710.9593372678542 89.22089916436546) scale(1.5641826243374777) translate(-639.62 -68.88)"></path> 
  </g> 
  <g id="tagline" style="font-style:oblique;font-weight:600;font-size:32px;line-height:1;font-family:Raleway;font-variant-ligatures:none;text-align:center;text-anchor:middle"></g> 
 </g> 
</svg>