<svg xmlns:dc="http://purl.org/dc/elements/1.1/" xmlns:cc="http://creativecommons.org/ns#" xmlns:rdf="http://www.w3.org/1999/02/22-rdf-syntax-ns#" xmlns:svg="http://www.w3.org/2000/svg" xmlns="http://www.w3.org/2000/svg" id="svg34821" viewbox="0 0 1024 768" height="768px" width="1024px" version="1.1"> <metadata id="metadata34827"> 
  <rdf:rdf> 
   <cc:work rdf:about=""> 
    <dc:format>
     image/svg+xml
    </dc:format> 
    <dc:type rdf:resource="http://purl.org/dc/dcmitype/StillImage"></dc:type> 
   </cc:work> 
  </rdf:rdf> 
 </metadata> <defs id="defs34825"></defs> <g id="logo-group"> 
  <g id="title" style="font-style:normal;font-weight:700;font-size:72px;line-height:1;font-family:'Brandmark1 Bold';font-variant-ligatures:none;text-align:center;text-anchor:middle" aria-label="o7equipment"> 
   <path id="path34829" style="font-style: normal; font-weight: 700; font-size: 72px; line-height: 1; font-family: &quot;Brandmark1 Bold&quot;; font-variant-ligatures: none; text-align: center; text-anchor: middle; fill: rgb(199, 197, 182);" d="m 318.15575,123.024 c 2.736,0 5.472,-0.576 7.992,-1.584 2.448,-1.08 4.68,-2.52 6.552,-4.392 1.872,-1.944 3.312,-4.104 4.392,-6.552 1.08,-2.52 1.584,-5.256 1.584,-7.992 0,-2.808 -0.504,-5.472 -1.584,-7.992 -1.08,-2.448 -2.52,-4.68 -4.392,-6.552 -1.944,-1.872 -4.104,-3.312 -6.552,-4.392 -2.52,-1.08 -5.256,-1.584 -7.992,-1.584 -2.736,0 -5.472,0.504 -7.992,1.584 -2.448,1.08 -4.608,2.52 -6.552,4.392 -1.872,1.944 -3.312,4.104 -4.392,6.552 -1.008,2.52 -1.584,5.184 -1.584,7.992 0,2.736 0.576,5.472 1.584,7.992 1.08,2.448 2.52,4.608 4.392,6.552 1.944,1.872 4.104,3.312 6.552,4.392 2.52,1.008 5.256,1.584 7.992,1.584 z m 0,-30.24 c 5.328,0 9.72,4.392 9.72,9.72 0,5.328 -4.392,9.72 -9.72,9.72 -5.328,0 -9.72,-4.392 -9.72,-9.72 0,-5.328 4.392,-9.72 9.72,-9.72 z" transform="translate(0 288.6054036737667) translate(251.99999999999994 72.78690567219333) scale(1.107568619147557) translate(-297.63575 -81.984)"></path> 
   <path id="path34831" style="font-style: normal; font-weight: 700; font-size: 72px; line-height: 1; font-family: &quot;Brandmark1 Bold&quot;; font-variant-ligatures: none; text-align: center; text-anchor: middle; fill: rgb(199, 197, 182);" d="m 341.00562,121.512 11.16,2.232 20.59201,-48.384 V 68.016 H 337.04562 V 78.6 h 22.536 z" transform="translate(0 288.6054036737667) translate(300.0794097732749 57.31638719994025) scale(1.107568619147557) translate(-337.04562 -68.016)"></path> 
   <path id="path34833" style="font-style: normal; font-weight: 700; font-size: 72px; line-height: 1; font-family: &quot;Brandmark1 Bold&quot;; font-variant-ligatures: none; text-align: center; text-anchor: middle; fill: rgb(211, 203, 184);" d="m 390.12538,122.808 c 2.80799,0 5.54399,-0.576 8.13599,-1.728 2.52001,-1.08 4.752,-2.664 6.624,-4.608 l -7.632,-7.2 c -1.872,2.016 -4.392,3.096 -7.12799,3.096 -3.52801,0 -6.62401,-1.872 -8.35201,-4.608 h 28.584 v -5.256 c 0,-5.4 -2.08799,-10.512 -5.904,-14.328 -3.81599,-3.816 -8.928,-5.976 -14.32799,-5.976 -5.47201,0 -10.512,2.16 -14.40001,5.976 -3.816,3.816 -5.904,8.928 -5.904,14.328 0,5.4 2.088,10.512 5.904,14.328 3.88801,3.816 8.928,5.976 14.40001,5.976 z M 381.77337,97.32 c 1.728,-2.808 4.824,-4.68 8.35201,-4.68 3.45599,0 6.55199,1.872 8.35199,4.68 z" transform="translate(0 288.6054036737667) translate(340.81107641889065 73.02614049392919) scale(1.107568619147557) translate(-369.82137 -82.2)"></path> 
   <path id="path34835" style="font-style: normal; font-weight: 700; font-size: 72px; line-height: 1; font-family: &quot;Brandmark1 Bold&quot;; font-variant-ligatures: none; text-align: center; text-anchor: middle; fill: rgb(211, 203, 184);" d="m 410.41025,102.576 c 0,2.736 0.576,5.4 1.584,7.992 1.08,2.448 2.52,4.608 4.392,6.48 1.944,1.872 4.104,3.384 6.552,4.392 2.52,1.08 5.256,1.656 7.992,1.656 2.736,0 5.472,-0.576 7.992,-1.656 0.576,-0.216 1.152,-0.504 1.728,-0.792 v 16.128 l 10.8,-3.6 v -30.6 c 0,-2.808 -0.504,-5.472 -1.584,-7.992 -1.08,-2.448 -2.52,-4.68 -4.392,-6.552 -1.872,-1.872 -4.104,-3.384 -6.552,-4.392 -2.52,-1.08 -5.184,-1.584 -7.992,-1.584 -2.736,0 -5.472,0.504 -7.992,1.584 -2.448,1.008 -4.608,2.52 -6.552,4.392 -1.872,1.872 -3.312,4.104 -4.392,6.552 -1.008,2.52 -1.584,5.184 -1.584,7.992 z m 10.8,0 c 0,-5.4 4.392,-9.72 9.72,-9.72 5.328,0 9.72,4.32 9.72,9.72 0,5.328 -4.392,9.72 -9.72,9.72 -5.328,0 -9.72,-4.392 -9.72,-9.72 z" transform="translate(0 288.6054036737667) translate(390.19632066982683 72.86665061277195) scale(1.107568619147557) translate(-410.41025 -82.056)"></path> 
   <path id="path34837" style="font-style: normal; font-weight: 700; font-size: 72px; line-height: 1; font-family: &quot;Brandmark1 Bold&quot;; font-variant-ligatures: none; text-align: center; text-anchor: middle; fill: rgb(211, 203, 184);" d="m 473.93788,123.024 c 4.824,0 9.35999,-1.872 12.74399,-5.256 3.384,-3.384 5.25601,-7.92 5.25601,-12.744 V 82.416 h -10.80001 v 22.608 c 0,3.96 -3.24,7.2 -7.19999,7.2 -3.96001,0 -7.20001,-3.24 -7.20001,-7.2 V 82.416 h -10.79999 v 22.608 c 0,4.824 1.87199,9.36 5.25599,12.744 3.384,3.384 7.92,5.256 12.74401,5.256 z" transform="translate(0 288.6054036737667) translate(445.0515694385779 73.26537531566505) scale(1.107568619147557) translate(-455.93788 -82.416)"></path> 
   <path id="path34839" style="font-style: normal; font-weight: 700; font-size: 72px; line-height: 1; font-family: &quot;Brandmark1 Bold&quot;; font-variant-ligatures: none; text-align: center; text-anchor: middle; fill: rgb(211, 203, 184);" d="m 497.80588,122.52 h 10.87199 V 80.976 l -10.87199,3.6 z" transform="translate(0 288.6054036737667) translate(495.85352686163804 71.67047650409258) scale(1.107568619147557) translate(-497.80588 -80.976)"></path> 
   <path id="path34841" style="font-style: normal; font-weight: 700; font-size: 72px; line-height: 1; font-family: &quot;Brandmark1 Bold&quot;; font-variant-ligatures: none; text-align: center; text-anchor: middle; fill: rgb(211, 203, 184);" d="m 554.12,94.584 c -1.08,-2.448 -2.52,-4.608 -4.392,-6.552 -1.944,-1.872 -4.104,-3.312 -6.552,-4.392 -2.52,-1.08 -5.184,-1.584 -7.992,-1.584 -2.736,0 -5.472,0.504 -7.992,1.584 -2.448,1.08 -4.608,2.52 -6.552,4.392 -1.872,1.872 -3.312,4.104 -4.392,6.552 -1.008,2.52 -1.584,5.184 -1.584,7.992 v 30.6 l 10.8,3.6 v -16.128 c 0.576,0.288 1.152,0.576 1.728,0.792 2.52,1.08 5.256,1.656 7.992,1.656 2.736,0 5.472,-0.576 7.992,-1.656 2.448,-1.008 4.608,-2.448 6.552,-4.392 1.872,-1.872 3.312,-4.032 4.392,-6.48 1.08,-2.52 1.584,-5.256 1.584,-7.992 0,-2.808 -0.504,-5.472 -1.584,-7.992 z m -18.936,17.712 c -5.328,0 -9.72,-4.392 -9.72,-9.72 0,-5.328 4.392,-9.72 9.72,-9.72 5.328,0 9.72,4.392 9.72,9.72 0,5.328 -4.392,9.72 -9.72,9.72 z" transform="translate(0 288.6054036737667) translate(518.9553260280521 72.86665061277195) scale(1.107568619147557) translate(-514.664 -82.056)"></path> 
   <path id="path34843" style="font-style: normal; font-weight: 700; font-size: 72px; line-height: 1; font-family: &quot;Brandmark1 Bold&quot;; font-variant-ligatures: none; text-align: center; text-anchor: middle; fill: rgb(211, 203, 184);" d="m 612.53225,87.672 c -3.24,-3.24 -7.632,-5.04 -12.24,-5.04 -4.464,0 -8.712,1.656 -11.88,4.752 -3.24,-3.096 -7.488,-4.752 -11.952,-4.752 -2.232,0 -4.464,0.432 -6.48,1.296 v -1.944 h -10.8 v 40.536 h 10.8 V 99.912 c 0,-3.528 2.88,-6.48 6.48,-6.48 3.6,0 6.552,2.952 6.552,6.48 v 22.608 h 10.8 V 99.912 c 0,-3.528 2.88,-6.48 6.48,-6.48 3.6,0 6.552,2.952 6.552,6.48 v 22.608 h 10.8 V 99.912 c 0,-4.608 -1.8,-8.928 -5.112,-12.24 z" transform="translate(0 288.6054036737667) translate(572.6904020467698 72.78690567219333) scale(1.107568619147557) translate(-559.18025 -81.984)"></path> 
   <path id="path34845" style="font-style: normal; font-weight: 700; font-size: 72px; line-height: 1; font-family: &quot;Brandmark1 Bold&quot;; font-variant-ligatures: none; text-align: center; text-anchor: middle; fill: rgb(211, 203, 184);" d="m 639.87537,122.808 c 2.808,0 5.544,-0.576 8.13601,-1.728 2.52,-1.08 4.75199,-2.664 6.62399,-4.608 l -7.632,-7.2 c -1.87199,2.016 -4.392,3.096 -7.128,3.096 -3.52799,0 -6.62399,-1.872 -8.352,-4.608 h 28.58401 v -5.256 c 0,-5.4 -2.08801,-10.512 -5.904,-14.328 -3.816,-3.816 -8.92801,-5.976 -14.32801,-5.976 -5.472,0 -10.51199,2.16 -14.4,5.976 -3.816,3.816 -5.904,8.928 -5.904,14.328 0,5.4 2.088,10.512 5.904,14.328 3.88801,3.816 8.928,5.976 14.4,5.976 z m -8.352,-25.488 c 1.72801,-2.808 4.82401,-4.68 8.352,-4.68 3.456,0 6.552,1.872 8.35201,4.68 z" transform="translate(0 288.6054036737667) translate(644.0079859105344 73.02614049392919) scale(1.107568619147557) translate(-619.57137 -82.2)"></path> 
   <path id="path34847" style="font-style: normal; font-weight: 700; font-size: 72px; line-height: 1; font-family: &quot;Brandmark1 Bold&quot;; font-variant-ligatures: none; text-align: center; text-anchor: middle; fill: rgb(211, 203, 184);" d="m 693.56825,88.392 c -3.456,-3.384 -7.992,-5.256 -12.816,-5.256 -2.592,0 -5.04,0.504 -7.272,1.512 v -2.664 h -10.8 v 17.64 c -0.072,0.576 -0.072,1.08 -0.072,1.656 h 0.072 v 21.24 h 10.8 V 100.2 c 0.504,-3.528 3.528,-6.264 7.272,-6.264 4.032,0 7.344,3.312 7.344,7.344 v 21.24 h 10.8 v -21.24 c 0,-4.896 -1.944,-9.432 -5.328,-12.888 z" transform="translate(0 288.6054036737667) translate(696.1045581411437 72.78690567219333) scale(1.107568619147557) translate(-662.60825 -81.984)"></path> 
   <path id="path34849" style="font-style: normal; font-weight: 700; font-size: 72px; line-height: 1; font-family: &quot;Brandmark1 Bold&quot;; font-variant-ligatures: none; text-align: center; text-anchor: middle; fill: rgb(211, 203, 184);" d="m 727.13262,92.496 v -10.08 h -11.448 V 69.528 l -10.79999,3.6 v 27.936 c 0,3.024 0.576,5.904 1.72799,8.64 1.08001,2.664 2.736,5.04 4.75201,7.056 2.01599,2.088 4.39199,3.672 7.05599,4.824 2.736,1.152 5.688,1.728 8.712,1.728 v -10.8 c -6.336,0 -11.448,-5.112 -11.448,-11.448 v -8.568 z" transform="translate(0 288.6054036737667) translate(747.3588244368914 58.99103095209135) scale(1.107568619147557) translate(-704.88463 -69.528)"></path> 
  </g> 
  <g id="tagline" style="font-style:normal;font-weight:400;font-size:32px;line-height:1;font-family:Montserrat;font-variant-ligatures:none;text-align:center;text-anchor:middle"></g> 
 </g> 
</svg>