<svg xmlns:dc="http://purl.org/dc/elements/1.1/" xmlns:cc="http://creativecommons.org/ns#" xmlns:rdf="http://www.w3.org/1999/02/22-rdf-syntax-ns#" xmlns:svg="http://www.w3.org/2000/svg" xmlns="http://www.w3.org/2000/svg" id="svg72689" viewbox="0 0 1024 768" height="768px" width="1024px" version="1.1"> <metadata id="metadata72695"> 
  <rdf:rdf> 
   <cc:work rdf:about=""> 
    <dc:format>
     image/svg+xml
    </dc:format> 
    <dc:type rdf:resource="http://purl.org/dc/dcmitype/StillImage"></dc:type> 
   </cc:work> 
  </rdf:rdf> 
 </metadata> <defs id="defs72693"></defs> <g id="logo-group"> 
  <g id="title" style="font-style:normal;font-weight:400;font-size:72px;line-height:1;font-family:'Abril Fatface';font-variant-ligatures:none;text-align:center;text-anchor:middle" aria-label="o7Formula"> 
   <path id="path72697" style="font-style: normal; font-weight: 400; font-size: 72px; line-height: 1; font-family: &quot;Abril Fatface&quot;; font-variant-ligatures: none; text-align: center; text-anchor: middle; fill: rgb(197, 201, 206);" d="m 357.03069,105.816 v -6.12 q 0,-6.984 -0.792,-10.152 -0.72,-3.24 -3.456,-3.24 -1.584,0 -2.592,0.936 -0.936,0.864 -1.368,2.952 -0.648,3.24 -0.648,9.864 v 5.616 q 0,7.848 0.432,9.432 0.504,1.584 1.008,2.592 0.792,1.728 3.096,1.728 2.808,0 3.672,-3.24 0.648,-2.304 0.648,-10.368 z m -4.464,14.904 q -9,0 -13.608,-4.608 -4.608,-4.608 -4.608,-13.176 0,-8.64 4.896,-13.248 4.968,-4.68 13.896,-4.68 8.928,0 13.32,4.32 4.392,4.248 4.392,13.032 0,18.36 -18.288,18.36 z" transform="translate(0 263.8635809168076) translate(252.00000000000006 107.95763403410476) scale(1.458187865072755) translate(-334.35069 -85.008)"></path> 
   <path id="path72699" style="font-style: normal; font-weight: 400; font-size: 72px; line-height: 1; font-family: &quot;Abril Fatface&quot;; font-variant-ligatures: none; text-align: center; text-anchor: middle; fill: rgb(197, 201, 206);" d="m 389.06844,120.72 q -3.888,0 -6.12,-2.088 -2.232,-2.16 -2.232,-5.256 0,-3.168 2.088,-6.912 2.16,-3.816 9.288,-12.096 l 11.88,-13.752 h -18.432 q -5.112,0 -6.768,1.296 -1.584,1.224 -2.52,5.976 h -1.152 l 0.792,-18.288 h 32.256 v 7.776 l -7.992,13.968 q -5.328,9.432 -6.84,13.536 -1.44,4.032 -1.44,7.704 0,3.672 2.16,6.768 l -0.504,0.864 q -2.016,0.504 -4.464,0.504 z" transform="translate(0 263.8635809168076) translate(311.42079095474855 85.48987540906376) scale(1.458187865072755) translate(-375.10044 -69.6)"></path> 
   <path id="path72701" style="font-style: normal; font-weight: 400; font-size: 72px; line-height: 1; font-family: &quot;Abril Fatface&quot;; font-variant-ligatures: none; text-align: center; text-anchor: middle; fill: rgb(26, 194, 169);" d="m 410.36356,69.6 h 37.44 l 0.72,14.976 h -1.296 q -2.664,-7.776 -6.192,-10.584 -3.456,-2.808 -10.368,-2.808 h -2.016 v 23.4 h 3.24 q 3.456,0 5.76,-2.52 2.304,-2.52 3.168,-6.912 h 1.08 v 21.312 h -1.224 q -1.152,-5.4 -3.24,-7.704 -2.016,-2.304 -5.544,-2.304 h -3.24 v 21.96 h 8.928 V 120 h -27.216 v -1.584 h 4.248 V 71.184 h -4.248 z" transform="translate(0 263.8635809168076) translate(362.84104462335296 85.48987540906376) scale(1.458187865072755) translate(-410.36356 -69.6)"></path> 
   <path id="path72703" style="font-style: normal; font-weight: 400; font-size: 72px; line-height: 1; font-family: &quot;Abril Fatface&quot;; font-variant-ligatures: none; text-align: center; text-anchor: middle; fill: rgb(26, 194, 169);" d="m 471.78069,105.816 v -6.12 q 0,-6.984 -0.792,-10.152 -0.72,-3.24 -3.456,-3.24 -1.584,0 -2.592,0.936 -0.936,0.864 -1.368,2.952 -0.648,3.24 -0.648,9.864 v 5.616 q 0,7.848 0.432,9.432 0.504,1.584 1.008,2.592 0.792,1.728 3.096,1.728 2.808,0 3.672,-3.24 0.648,-2.304 0.648,-10.368 z m -4.464,14.904 q -9,0 -13.608,-4.608 -4.608,-4.608 -4.608,-13.176 0,-8.64 4.896,-13.248 4.968,-4.68 13.896,-4.68 8.928,0 13.32,4.32 4.392,4.248 4.392,13.032 0,18.36 -18.288,18.36 z" transform="translate(0 263.8635809168076) translate(419.32705751709875 107.95763403410476) scale(1.458187865072755) translate(-449.10069 -85.008)"></path> 
   <path id="path72705" style="font-style: normal; font-weight: 400; font-size: 72px; line-height: 1; font-family: &quot;Abril Fatface&quot;; font-variant-ligatures: none; text-align: center; text-anchor: middle; fill: rgb(26, 194, 169);" d="m 511.66644,87.744 q -2.664,0 -4.68,3.456 -2.016,3.456 -2.016,8.208 v 19.296 h 5.112 V 120 h -22.464 v -1.296 h 3.96 v -31.68 h -3.96 v -1.296 h 17.352 v 6.912 q 0.936,-3.672 3.6,-5.616 2.664,-2.016 6.048,-2.016 3.384,0 5.472,1.944 2.16,1.872 2.16,5.4 0,3.456 -1.584,5.328 -1.584,1.872 -4.896,1.872 -3.24,0 -4.824,-2.16 -1.512,-2.16 -0.36,-5.976 h 2.592 q 1.8,-3.672 -1.512,-3.672 z" transform="translate(0 263.8635809168076) translate(475.4931731570049 107.95763403410476) scale(1.458187865072755) translate(-487.61844 -85.008)"></path> 
   <path id="path72707" style="font-style: normal; font-weight: 400; font-size: 72px; line-height: 1; font-family: &quot;Abril Fatface&quot;; font-variant-ligatures: none; text-align: center; text-anchor: middle; fill: rgb(26, 194, 169);" d="m 523.19656,85.728 h 17.352 v 6.624 q 2.376,-7.344 10.44,-7.344 8.136,0 9.864,7.776 2.52,-7.776 10.584,-7.776 10.584,0 10.584,12.024 v 21.672 h 4.032 V 120 h -19.944 v -1.296 h 2.52 v -23.4 q 0,-5.472 -0.936,-6.408 -0.432,-0.432 -1.152,-0.432 -2.088,0 -3.672,2.808 -1.584,2.808 -1.584,7.128 v 20.304 h 2.592 V 120 h -18.504 v -1.296 h 2.52 v -23.4 q 0,-5.472 -0.936,-6.408 -0.432,-0.432 -1.152,-0.432 -2.016,0 -3.672,3.096 -1.584,3.024 -1.584,7.272 v 19.872 h 2.592 V 120 h -19.944 v -1.296 h 3.96 v -31.68 h -3.96 z" transform="translate(0 263.8635809168076) translate(527.3727560031072 107.95763403410476) scale(1.458187865072755) translate(-523.19656 -85.008)"></path> 
   <path id="path72709" style="font-style: normal; font-weight: 400; font-size: 72px; line-height: 1; font-family: &quot;Abril Fatface&quot;; font-variant-ligatures: none; text-align: center; text-anchor: middle; fill: rgb(26, 194, 169);" d="m 627.89469,120 h -16.416 l -0.792,-5.256 q -1.152,2.88 -3.456,4.464 -2.232,1.512 -6.696,1.512 -11.16,0 -11.16,-12.024 V 87.024 h -4.032 v -1.296 h 17.424 v 24.696 q 0,4.32 0.576,5.688 0.648,1.368 2.448,1.368 1.872,0 3.312,-2.232 1.44,-2.232 1.44,-6.192 V 87.024 h -3.312 v -1.296 h 16.704 v 32.976 h 3.96 z" transform="translate(0 263.8635809168076) translate(617.9934886303411 109.00752929695716) scale(1.458187865072755) translate(-585.34269 -85.728)"></path> 
   <path id="path72711" style="font-style: normal; font-weight: 400; font-size: 72px; line-height: 1; font-family: &quot;Abril Fatface&quot;; font-variant-ligatures: none; text-align: center; text-anchor: middle; fill: rgb(26, 194, 169);" d="m 629.08044,66 h 17.64 v 52.704 h 4.032 V 120 h -21.384 v -1.296 h 3.96 V 67.296 h -4.248 z" transform="translate(0 263.8635809168076) translate(681.771344925927 80.24039909480183) scale(1.458187865072755) translate(-629.08044 -66)"></path> 
   <path id="path72713" style="font-style: normal; font-weight: 400; font-size: 72px; line-height: 1; font-family: &quot;Abril Fatface&quot;; font-variant-ligatures: none; text-align: center; text-anchor: middle; fill: rgb(26, 194, 169);" d="m 669.42969,103.08 h 2.088 v -5.544 q 0,-6.84 -0.792,-9.144 -0.72,-2.376 -2.88,-2.376 -1.296,0 -2.376,0.72 -1.008,0.648 -1.008,1.872 0,1.152 0.432,2.376 h 1.8 q 0.576,1.512 0.576,3.672 0,2.088 -1.8,3.672 -1.8,1.512 -4.536,1.512 -6.192,0 -6.192,-5.976 0,-8.856 15.048,-8.856 8.568,0 11.808,2.952 3.312,2.88 3.312,10.656 v 14.616 q 0,3.744 2.088,3.744 2.448,0 2.88,-7.416 l 1.08,0.072 q -0.288,6.336 -2.376,8.712 -2.088,2.376 -6.84,2.376 -8.64,0 -9.936,-5.328 -0.936,2.736 -2.808,4.032 -1.872,1.296 -5.472,1.296 -10.656,0 -10.656,-8.712 0,-5.112 4.032,-6.984 4.104,-1.944 12.528,-1.944 z m -2.88,8.856 q 0,3.744 0.36,4.824 0.432,1.08 1.512,1.08 1.152,0 2.088,-1.8 1.008,-1.872 1.008,-5.112 v -6.696 h -0.504 q -4.464,0 -4.464,6.552 z" transform="translate(0 263.8635809168076) translate(716.460540595109 107.95763403410476) scale(1.458187865072755) translate(-652.86969 -85.008)"></path> 
  </g> 
  <g id="tagline" style="font-style:oblique;font-weight:normal;font-size:32px;line-height:1;font-family:'Droid Serif';font-variant-ligatures:none;text-align:center;text-anchor:middle"></g> 
 </g> 
</svg>