<svg xmlns:dc="http://purl.org/dc/elements/1.1/" xmlns:cc="http://creativecommons.org/ns#" xmlns:rdf="http://www.w3.org/1999/02/22-rdf-syntax-ns#" xmlns:svg="http://www.w3.org/2000/svg" xmlns="http://www.w3.org/2000/svg" id="svg51523" viewbox="0 0 1024 768" height="768px" width="1024px" version="1.1"> <metadata id="metadata51529"> 
  <rdf:rdf> 
   <cc:work rdf:about=""> 
    <dc:format>
     image/svg+xml
    </dc:format> 
    <dc:type rdf:resource="http://purl.org/dc/dcmitype/StillImage"></dc:type> 
   </cc:work> 
  </rdf:rdf> 
 </metadata> <defs id="defs51527"></defs> <g id="logo-group"> 
  <g id="title" style="font-style:normal;font-weight:200;font-size:72px;line-height:1;font-family:Phenomena;font-variant-ligatures:none;text-align:center;text-anchor:middle" aria-label="o7Find"> 
   <path id="path51531" style="font-style: normal; font-weight: 200; font-size: 72px; line-height: 1; font-family: Phenomena; font-variant-ligatures: none; text-align: center; text-anchor: middle; fill: rgb(60, 58, 80);" d="m 452.92344,120.504 c 6.408,0 10.224,-4.752 10.224,-10.944 V 94.44 c 0,-6.192 -3.816,-10.944 -10.224,-10.944 -6.408,0 -10.224,4.752 -10.224,10.944 v 15.12 c 0,6.192 3.816,10.944 10.224,10.944 z m 0,-1.296 c -5.544,0 -8.856,-4.248 -8.856,-9.648 V 94.44 c 0,-5.4 3.312,-9.648 8.856,-9.648 5.544,0 8.856,4.248 8.856,9.648 v 15.12 c 0,5.4 -3.312,9.648 -8.856,9.648 z" transform="translate(0 80.86621914354922) translate(251.99999999999994 263.8972411563167) scale(3.3953391917734583) translate(-442.69944 -83.496)"></path> 
   <path id="path51533" style="font-style: normal; font-weight: 200; font-size: 72px; line-height: 1; font-family: Phenomena; font-variant-ligatures: none; text-align: center; text-anchor: middle; fill: rgb(60, 58, 80);" d="m 469.51156,69.96 v 0.648 c 0,0.216 0.144,0.36 0.36,0.36 h 18 l -12.168,48.6 c -0.072,0.288 0.144,0.432 0.36,0.432 h 0.72 c 0.216,0 0.288,-0.072 0.36,-0.288 l 12.24,-48.816 c 0.072,-0.36 0.072,-0.576 0.072,-0.864 0,-0.288 -0.216,-0.432 -0.432,-0.432 h -19.152 c -0.216,0 -0.36,0.144 -0.36,0.36 z" transform="translate(0 80.86621914354922) translate(353.2222594258534 216.7156077474327) scale(3.3953391917734583) translate(-469.51156 -69.6)"></path> 
   <path id="path51535" style="font-style: normal; font-weight: 200; font-size: 72px; line-height: 1; font-family: Phenomena; font-variant-ligatures: none; text-align: center; text-anchor: middle; fill: rgb(178, 140, 77);" d="m 497.92681,120 h 0.72 c 0.216,0 0.36,-0.144 0.36,-0.36 V 95.52 h 14.04 c 0.216,0 0.36,-0.144 0.36,-0.36 v -0.648 c 0,-0.216 -0.144,-0.36 -0.36,-0.36 h -14.04 V 80.76 c 0,-5.472 3.672,-9.792 9.936,-9.792 h 5.544 c 0.216,0 0.36,-0.144 0.36,-0.36 V 69.96 c 0,-0.216 -0.144,-0.36 -0.36,-0.36 h -5.544 c -7.128,0 -11.376,5.04 -11.376,11.16 v 38.88 c 0,0.216 0.144,0.36 0.36,0.36 z" transform="translate(0 80.86621914354922) translate(458.665366861176 216.7156077474327) scale(3.3953391917734583) translate(-497.56681 -69.6)"></path> 
   <path id="path51537" style="font-style: normal; font-weight: 200; font-size: 72px; line-height: 1; font-family: Phenomena; font-variant-ligatures: none; text-align: center; text-anchor: middle; fill: rgb(178, 140, 77);" d="m 521.35269,77.88 c 0.936,0 1.584,-0.648 1.584,-1.584 0,-0.936 -0.648,-1.584 -1.584,-1.584 -0.936,0 -1.584,0.648 -1.584,1.584 0,0.936 0.648,1.584 1.584,1.584 z m -0.36,42.12 h 0.648 c 0.216,0 0.36,-0.144 0.36,-0.36 V 84.36 c 0,-0.216 -0.144,-0.36 -0.36,-0.36 h -0.648 c -0.216,0 -0.36,0.144 -0.36,0.36 v 35.28 c 0,0.216 0.144,0.36 0.36,0.36 z" transform="translate(0 80.86621914354922) translate(544.2342977315476 234.0725816957786) scale(3.3953391917734583) translate(-519.76869 -74.712)"></path> 
   <path id="path51539" style="font-style: normal; font-weight: 200; font-size: 72px; line-height: 1; font-family: Phenomena; font-variant-ligatures: none; text-align: center; text-anchor: middle; fill: rgb(178, 140, 77);" d="m 532.29781,120 h 0.648 c 0.216,0 0.36,-0.144 0.36,-0.36 V 95.016 c 0,-6.048 2.664,-10.224 8.424,-10.224 5.76,0 8.424,4.176 8.424,10.224 v 24.624 c 0,0.216 0.144,0.36 0.36,0.36 h 0.648 c 0.216,0 0.36,-0.144 0.36,-0.36 V 95.016 c 0,-6.768 -3.312,-11.52 -9.792,-11.52 -6.48,0 -9.792,4.752 -9.792,11.52 v 24.624 c 0,0.216 0.144,0.36 0.36,0.36 z" transform="translate(0 80.86621914354922) translate(595.7386053722622 263.8972411563167) scale(3.3953391917734583) translate(-531.93781 -83.496)"></path> 
   <path id="path51541" style="font-style: normal; font-weight: 200; font-size: 72px; line-height: 1; font-family: Phenomena; font-variant-ligatures: none; text-align: center; text-anchor: middle; fill: rgb(178, 140, 77);" d="m 580.49056,69.6 h -0.648 c -0.216,0 -0.36,0.144 -0.36,0.36 v 19.512 c -1.512,-3.6 -5.112,-5.976 -8.856,-5.976 -5.688,0 -10.224,4.824 -10.224,10.8 v 15.408 c 0,5.976 4.536,10.8 10.224,10.8 5.688,0 10.224,-4.824 10.224,-10.8 V 69.96 c 0,-0.216 -0.144,-0.36 -0.36,-0.36 z m -1.008,40.104 c 0,5.256 -3.96,9.504 -8.856,9.504 -4.896,0 -8.856,-4.248 -8.856,-9.504 V 94.296 c 0,-5.256 3.96,-9.504 8.856,-9.504 4.896,0 8.856,4.248 8.856,9.504 z" transform="translate(0 80.86621914354922) translate(702.5721042066164 216.7156077474327) scale(3.3953391917734583) translate(-560.40256 -69.6)"></path> 
  </g> 
  <g id="tagline" style="font-style:oblique;font-weight:300;font-size:32px;line-height:1;font-family:'Fira Sans Condensed';font-variant-ligatures:none;text-align:center;text-anchor:middle"></g> 
 </g> 
</svg>