<svg xmlns:dc="http://purl.org/dc/elements/1.1/" xmlns:cc="http://creativecommons.org/ns#" xmlns:rdf="http://www.w3.org/1999/02/22-rdf-syntax-ns#" xmlns:svg="http://www.w3.org/2000/svg" xmlns="http://www.w3.org/2000/svg" id="svg38579" viewbox="0 0 1024 768" height="768px" width="1024px" version="1.1"> <metadata id="metadata38585"> 
  <rdf:rdf> 
   <cc:work rdf:about=""> 
    <dc:format>
     image/svg+xml
    </dc:format> 
    <dc:type rdf:resource="http://purl.org/dc/dcmitype/StillImage"></dc:type> 
   </cc:work> 
  </rdf:rdf> 
 </metadata> <defs id="defs38583"></defs> <g id="logo-group"> 
  <g id="title" style="font-style:normal;font-weight:300;font-size:72px;line-height:1;font-family:'Montserrat Light Alt1';font-variant-ligatures:none;text-align:center;text-anchor:middle" aria-label="o7Finite"> 
   <path id="path38587" style="font-style: normal; font-weight: 300; font-size: 72px; line-height: 1; font-family: &quot;Montserrat Light Alt1&quot;; font-variant-ligatures: none; text-align: center; text-anchor: middle; fill: rgb(88, 113, 122);" d="m 381.93763,117.84 c 2.88,1.656 6.048,2.448 9.64799,2.448 3.52801,0 6.69601,-0.792 9.57601,-2.448 2.87999,-1.584 5.11199,-3.888 6.76799,-6.768 1.584,-2.88 2.44801,-6.192 2.44801,-9.864 0,-3.6 -0.86401,-6.912 -2.44801,-9.792 -1.656,-2.88 -3.888,-5.184 -6.76799,-6.84 -2.88,-1.584 -6.048,-2.448 -9.57601,-2.448 -3.59999,0 -6.76799,0.864 -9.64799,2.448 -2.88,1.656 -5.11201,3.96 -6.69601,6.84 -1.656,2.88 -2.44799,6.192 -2.44799,9.792 0,3.672 0.79199,6.984 2.44799,9.864 1.584,2.88 3.81601,5.184 6.69601,6.768 z m 17.35199,-2.808 c -2.30399,1.368 -4.824,2.016 -7.704,2.016 -2.88,0 -5.47199,-0.648 -7.776,-2.016 -2.304,-1.296 -4.104,-3.168 -5.4,-5.616 -1.29599,-2.376 -1.944,-5.112 -1.944,-8.208 0,-3.024 0.64801,-5.76 1.944,-8.208 1.296,-2.376 3.096,-4.248 5.4,-5.616 2.30401,-1.296 4.896,-2.016 7.776,-2.016 2.88,0 5.40001,0.72 7.704,2.016 2.304,1.368 4.104,3.24 5.4,5.616 1.29601,2.448 2.016,5.184 2.016,8.208 0,3.096 -0.71999,5.832 -2.016,8.208 -1.296,2.448 -3.096,4.32 -5.4,5.616 z" transform="translate(0 245.68169220925722) translate(252 118.84354110455686) scale(1.6594041143648557) translate(-372.79363 -82.128)"></path> 
   <path id="path38589" style="font-style: normal; font-weight: 300; font-size: 72px; line-height: 1; font-family: &quot;Montserrat Light Alt1&quot;; font-variant-ligatures: none; text-align: center; text-anchor: middle; fill: rgb(88, 113, 122);" d="m 450.32637,69.6 h -36.144 v 12.96 h 3.6 v -9.648 h 28.296 L 424.62237,120 h 4.03201 l 21.67199,-47.808 z" transform="translate(0 245.68169220925722) translate(328.97766601620157 98.05452635979395) scale(1.6594041143648557) translate(-414.18237 -69.6)"></path> 
   <path id="path38591" style="font-style: normal; font-weight: 300; font-size: 72px; line-height: 1; font-family: &quot;Montserrat Light Alt1&quot;; font-variant-ligatures: none; text-align: center; text-anchor: middle; fill: rgb(181, 211, 217);" d="m 462.284,69.6 v 3.312 H 494.54 V 69.6 Z m 0,50.4 h 3.672 V 97.752 H 494.54 V 94.44 h -32.256 z" transform="translate(0 245.68169220925722) translate(417.0947293176818 98.05452635979395) scale(1.6594041143648557) translate(-462.284 -69.6)"></path> 
   <path id="path38593" style="font-style: normal; font-weight: 300; font-size: 72px; line-height: 1; font-family: &quot;Montserrat Light Alt1&quot;; font-variant-ligatures: none; text-align: center; text-anchor: middle; fill: rgb(181, 211, 217);" d="M 505.85075,82.416 V 120 h 3.6 V 82.416 Z m -0.288,-9.936 c 0.576,0.576 1.224,0.792 2.088,0.792 0.792,0 1.512,-0.288 2.088,-0.864 0.576,-0.576 0.864,-1.224 0.864,-2.088 0,-0.792 -0.288,-1.44 -0.864,-2.016 -0.576,-0.576 -1.296,-0.864 -2.088,-0.864 -0.864,0 -1.512,0.288 -2.088,0.864 -0.576,0.576 -0.864,1.296 -0.864,2.088 0,0.864 0.288,1.512 0.864,2.088 z" transform="translate(0 245.68169220925722) translate(495.77496054926297 94.47021347276586) scale(1.6594041143648557) translate(-504.69875 -67.44)"></path> 
   <path id="path38595" style="font-style: normal; font-weight: 300; font-size: 72px; line-height: 1; font-family: &quot;Montserrat Light Alt1&quot;; font-variant-ligatures: none; text-align: center; text-anchor: middle; fill: rgb(181, 211, 217);" d="m 554.2145,86.232 c -2.736,-2.736 -6.48,-4.104 -11.16,-4.104 -3.528,0 -6.552,0.792 -9.144,2.232 -2.592,1.512 -4.464,3.6 -5.76,6.192 v -8.136 h -3.456 V 120 h 3.6 V 99.984 c 0,-4.464 1.224,-7.992 3.816,-10.656 2.52,-2.592 5.976,-3.96 10.44,-3.96 3.816,0 6.768,1.152 8.928,3.312 2.16,2.232 3.24,5.472 3.24,9.648 V 120 h 3.6 V 98.04 c 0,-5.112 -1.368,-9.072 -4.104,-11.808 z" transform="translate(0 245.68169220925722) translate(537.2530109408982 118.84354110455686) scale(1.6594041143648557) translate(-524.6945 -82.128)"></path> 
   <path id="path38597" style="font-style: normal; font-weight: 300; font-size: 72px; line-height: 1; font-family: &quot;Montserrat Light Alt1&quot;; font-variant-ligatures: none; text-align: center; text-anchor: middle; fill: rgb(181, 211, 217);" d="M 573.21012,82.416 V 120 h 3.6 V 82.416 Z m -0.28799,-9.936 c 0.57599,0.576 1.22399,0.792 2.088,0.792 0.792,0 1.51199,-0.288 2.08799,-0.864 0.576,-0.576 0.86401,-1.224 0.86401,-2.088 0,-0.792 -0.28801,-1.44 -0.86401,-2.016 -0.576,-0.576 -1.29599,-0.864 -2.08799,-0.864 -0.86401,0 -1.51201,0.288 -2.088,0.864 -0.576,0.576 -0.864,1.296 -0.864,2.088 0,0.864 0.288,1.512 0.864,2.088 z" transform="translate(0 245.68169220925722) translate(624.1454340059773 94.47021347276586) scale(1.6594041143648557) translate(-572.05813 -67.44)"></path> 
   <path id="path38599" style="font-style: normal; font-weight: 300; font-size: 72px; line-height: 1; font-family: &quot;Montserrat Light Alt1&quot;; font-variant-ligatures: none; text-align: center; text-anchor: middle; fill: rgb(181, 211, 217);" d="m 610.70187,117.624 -1.51199,-2.52 c -1.58401,1.44 -3.52801,2.088 -5.832,2.088 -2.30401,0 -4.10401,-0.576 -5.25601,-1.872 -1.15199,-1.296 -1.728,-3.168 -1.728,-5.616 V 85.512 h 11.952 v -3.096 h -11.952 v -8.208 h -3.6 v 8.208 h -6.91199 v 3.096 h 6.91199 v 24.552 c 0,3.24 0.864,5.76 2.664,7.56 1.72801,1.8 4.248,2.664 7.56001,2.664 1.43999,0 2.88,-0.216 4.24799,-0.648 1.368,-0.432 2.52001,-1.152 3.456,-2.016 z" transform="translate(0 245.68169220925722) translate(655.3484541214655 105.70106051878722) scale(1.6594041143648557) translate(-585.86188 -74.208)"></path> 
   <path id="path38601" style="font-style: normal; font-weight: 300; font-size: 72px; line-height: 1; font-family: &quot;Montserrat Light Alt1&quot;; font-variant-ligatures: none; text-align: center; text-anchor: middle; fill: rgb(181, 211, 217);" d="m 641.51112,115.752 c -2.08799,0.864 -4.392,1.296 -6.768,1.296 -3.88799,0 -7.12799,-1.008 -9.86399,-3.024 -2.736,-2.016 -4.60801,-4.752 -5.47201,-8.208 l 31.75201,-6.192 c -0.21601,-3.312 -1.00801,-6.264 -2.592,-8.928 -1.58401,-2.664 -3.67201,-4.752 -6.264,-6.264 -2.592,-1.512 -5.544,-2.304 -8.784,-2.304 -3.52801,0 -6.69601,0.864 -9.432,2.448 -2.808,1.656 -4.968,3.888 -6.55201,6.768 -1.58399,2.88 -2.30399,6.192 -2.30399,9.864 0,3.744 0.792,6.984 2.44799,9.864 1.656,2.88 3.96001,5.184 6.91201,6.768 2.952,1.656 6.264,2.448 10.07999,2.448 2.88,0 5.544,-0.504 8.06401,-1.512 2.376,-1.008 4.46399,-2.52 6.12,-4.608 l -2.08801,-2.376 c -1.43999,1.8 -3.168,3.096 -5.256,3.96 z m -15.624,-28.44 c 2.23201,-1.296 4.75201,-2.016 7.63201,-2.016 2.44799,0 4.75199,0.576 6.768,1.656 2.016,1.08 3.59999,2.592 4.896,4.392 1.22399,1.872 2.01599,3.96 2.37599,6.192 l -28.65599,5.616 c -0.144,-0.936 -0.144,-1.656 -0.144,-2.232 0,-2.952 0.57599,-5.688 1.87199,-8.064 1.22401,-2.376 2.952,-4.248 5.256,-5.544 z" transform="translate(0 245.68169220925722) translate(712.3809289790996 118.84354110455686) scale(1.6594041143648557) translate(-615.23113 -82.128)"></path> 
  </g> 
  <g id="tagline" style="font-style:normal;font-weight:400;font-size:32px;line-height:1;font-family:Montserrat;font-variant-ligatures:none;text-align:center;text-anchor:middle"></g> 
 </g> 
</svg>