<svg xmlns:dc="http://purl.org/dc/elements/1.1/" xmlns:cc="http://creativecommons.org/ns#" xmlns:rdf="http://www.w3.org/1999/02/22-rdf-syntax-ns#" xmlns:svg="http://www.w3.org/2000/svg" xmlns="http://www.w3.org/2000/svg" id="svg48501" viewbox="0 0 1024 768" height="768px" width="1024px" version="1.1"> <metadata id="metadata48507"> 
  <rdf:rdf> 
   <cc:work rdf:about=""> 
    <dc:format>
     image/svg+xml
    </dc:format> 
    <dc:type rdf:resource="http://purl.org/dc/dcmitype/StillImage"></dc:type> 
   </cc:work> 
  </rdf:rdf> 
 </metadata> <defs id="defs48505"></defs> <g id="logo-group"> 
  <g id="title" style="font-style:normal;font-weight:300;font-size:72px;line-height:1;font-family:'Montserrat Light Alt1';font-variant-ligatures:none;text-align:center;text-anchor:middle" aria-label="O7FEED"> 
   <path id="path48509" style="font-style: normal; font-weight: 300; font-size: 72px; line-height: 1; font-family: &quot;Montserrat Light Alt1&quot;; font-variant-ligatures: none; text-align: center; text-anchor: middle; fill: rgb(38, 34, 97);" d="m 377.04162,117.048 c 3.96,2.232 8.424,3.312 13.392,3.312 4.89601,0 9.36001,-1.08 13.392,-3.312 3.96,-2.16 7.056,-5.256 9.36001,-9.144 2.30399,-3.888 3.45599,-8.208 3.45599,-13.104 0,-4.824 -1.152,-9.216 -3.45599,-13.104 -2.30401,-3.888 -5.40001,-6.912 -9.36001,-9.144 -4.03199,-2.16 -8.49599,-3.312 -13.392,-3.312 -4.968,0 -9.432,1.152 -13.392,3.384 -4.03199,2.232 -7.12799,5.256 -9.432,9.144 -2.30399,3.888 -3.384,8.28 -3.384,13.032 0,4.824 1.08001,9.144 3.384,13.032 2.30401,3.888 5.40001,6.984 9.432,9.216 z m 24.84,-2.952 c -3.45599,1.944 -7.272,2.88 -11.448,2.88 -4.24799,0 -8.064,-0.936 -11.51999,-2.88 -3.45601,-1.872 -6.12,-4.536 -8.06401,-7.92 -2.016,-3.384 -2.952,-7.2 -2.952,-11.376 0,-4.176 0.936,-7.92 2.952,-11.304 1.94401,-3.384 4.608,-6.048 8.06401,-7.992 3.45599,-1.872 7.272,-2.88 11.51999,-2.88 4.176,0 7.99201,1.008 11.448,2.88 3.384,1.944 6.048,4.608 8.064,7.992 1.94401,3.384 2.952,7.128 2.952,11.304 0,4.176 -1.00799,7.992 -2.952,11.376 -2.016,3.384 -4.68,6.048 -8.064,7.92 z" transform="translate(0 236.43820050580575) translate(252 102.58865608626591) scale(1.7595126528923444) translate(-364.22562 -69.24)"></path> 
   <path id="path48511" style="font-style: normal; font-weight: 300; font-size: 72px; line-height: 1; font-family: &quot;Montserrat Light Alt1&quot;; font-variant-ligatures: none; text-align: center; text-anchor: middle; fill: rgb(38, 34, 97);" d="m 459.18575,69.6 h -36.144 v 12.96 h 3.6 v -9.648 h 28.296 L 433.48175,120 h 4.032 l 21.672,-47.808 z" transform="translate(0 236.43820050580575) translate(355.48772492916095 103.22208064130716) scale(1.7595126528923444) translate(-423.04175 -69.6)"></path> 
   <path id="path48513" style="font-style: normal; font-weight: 300; font-size: 72px; line-height: 1; font-family: &quot;Montserrat Light Alt1&quot;; font-variant-ligatures: none; text-align: center; text-anchor: middle; fill: rgb(38, 34, 97);" d="m 471.14337,69.6 v 3.312 h 32.25601 V 69.6 Z m 0,50.4 h 3.67201 V 97.752 h 28.584 V 94.44 h -32.25601 z" transform="translate(0 236.43820050580575) translate(440.12313394378043 103.22208064130716) scale(1.7595126528923444) translate(-471.14337 -69.6)"></path> 
   <path id="path48515" style="font-style: normal; font-weight: 300; font-size: 72px; line-height: 1; font-family: &quot;Montserrat Light Alt1&quot;; font-variant-ligatures: none; text-align: center; text-anchor: middle; fill: rgb(38, 34, 97);" d="m 549.18125,92.784 h -32.616 v 3.24 h 32.616 z m 0,-23.184 h -32.616 v 3.312 h 32.616 z m -32.616,47.088 V 120 h 32.616 v -3.312 z" transform="translate(0 236.43820050580575) translate(520.0435065219382 103.22208064130716) scale(1.7595126528923444) translate(-516.56525 -69.6)"></path> 
   <path id="path48517" style="font-style: normal; font-weight: 300; font-size: 72px; line-height: 1; font-family: &quot;Montserrat Light Alt1&quot;; font-variant-ligatures: none; text-align: center; text-anchor: middle; fill: rgb(38, 34, 97);" d="m 597.41562,92.784 h -32.616 v 3.24 h 32.616 z m 0,-23.184 h -32.616 v 3.312 h 32.616 z m -32.616,47.088 V 120 h 32.616 v -3.312 z" transform="translate(0 236.43820050580575) translate(604.9124908412292 103.22208064130716) scale(1.7595126528923444) translate(-564.79962 -69.6)"></path> 
   <path id="path48519" style="font-style: normal; font-weight: 300; font-size: 72px; line-height: 1; font-family: &quot;Montserrat Light Alt1&quot;; font-variant-ligatures: none; text-align: center; text-anchor: middle; fill: rgb(38, 34, 97);" d="m 656.378,81.84 c -2.304,-3.816 -5.472,-6.768 -9.504,-9 -4.032,-2.16 -8.712,-3.24 -13.896,-3.24 h -19.944 v 3.312 h 19.656 c 4.608,0 8.712,0.936 12.312,2.808 3.528,1.872 6.264,4.464 8.208,7.704 1.872,3.312 2.88,7.128 2.88,11.376 0,4.32 -1.008,8.064 -2.88,11.376 -1.944,3.312 -4.68,5.904 -8.208,7.776 -3.6,1.872 -7.704,2.736 -12.312,2.736 H 616.706 V 94.8 h -3.672 V 120 h 19.944 c 5.184,0 9.864,-1.08 13.896,-3.24 4.032,-2.16 7.2,-5.112 9.504,-8.928 2.232,-3.816 3.384,-8.136 3.384,-13.032 0,-4.824 -1.152,-9.144 -3.384,-12.96 z" transform="translate(0 236.43820050580575) translate(689.7814927556467 103.22208064130716) scale(1.7595126528923444) translate(-613.034 -69.6)"></path> 
  </g> 
  <g id="tagline" style="font-style:normal;font-weight:400;font-size:32px;line-height:1;font-family:Montserrat;font-variant-ligatures:none;text-align:center;text-anchor:middle"></g> 
 </g> 
</svg>