<svg xmlns:dc="http://purl.org/dc/elements/1.1/" xmlns:cc="http://creativecommons.org/ns#" xmlns:rdf="http://www.w3.org/1999/02/22-rdf-syntax-ns#" xmlns:svg="http://www.w3.org/2000/svg" xmlns="http://www.w3.org/2000/svg" id="svg634142" viewbox="0 0 1024 768" height="768px" width="1024px" version="1.1"> <metadata id="metadata634148"> 
  <rdf:rdf> 
   <cc:work rdf:about=""> 
    <dc:format>
     image/svg+xml
    </dc:format> 
    <dc:type rdf:resource="http://purl.org/dc/dcmitype/StillImage"></dc:type> 
   </cc:work> 
  </rdf:rdf> 
 </metadata> <defs id="defs634146"></defs> <g id="logo-group"> 
  <g id="title" style="font-style:normal;font-weight:500;font-size:72px;line-height:1;font-family:'Raleway Medium Alt1';font-variant-ligatures:none;text-align:center;text-anchor:middle" aria-label="O7FIGHT"> 
   <path id="path634150" style="font-style: normal; font-weight: 500; font-size: 72px; line-height: 1; font-family: &quot;Raleway Medium Alt1&quot;; font-variant-ligatures: none; text-align: center; text-anchor: middle; fill: rgb(44, 43, 46);" d="m 405.17675,97.248 c -0.216,1.512 -0.504,3.024 -1.008,4.464 -0.792,2.448 -1.944,4.608 -3.456,6.48 -1.512,1.872 -3.384,3.456 -5.472,4.608 -2.232,1.152 -4.68,1.728 -7.344,1.728 -2.664,0 -5.04,-0.504 -7.2,-1.656 -2.16,-1.08 -4.032,-2.592 -5.544,-4.464 -1.584,-1.872 -2.736,-3.96 -3.6,-6.408 -0.504,-1.512 -0.864,-3.096 -1.08,-4.752 h -6.552 c 0.216,2.304 0.72,4.608 1.584,6.768 1.08,3.168 2.736,5.904 4.896,8.352 2.088,2.448 4.608,4.392 7.56,5.832 2.952,1.44 6.264,2.16 9.864,2.16 3.456,0 6.624,-0.648 9.576,-2.088 2.952,-1.44 5.472,-3.312 7.632,-5.688 2.16,-2.376 3.816,-5.112 5.04,-8.28 0.864,-2.232 1.44,-4.608 1.728,-7.056 z m -33.624,-10.152 c 0.792,-2.376 1.944,-4.464 3.456,-6.408 1.512,-1.872 3.384,-3.384 5.544,-4.536 2.16,-1.152 4.608,-1.728 7.344,-1.728 2.52,0 4.896,0.576 7.056,1.656 2.16,1.152 3.96,2.592 5.544,4.464 1.584,1.872 2.736,3.96 3.6,6.408 0.432,1.296 0.792,2.664 1.008,3.96 h 6.552 c -0.288,-1.944 -0.792,-3.96 -1.44,-5.832 -1.152,-3.096 -2.808,-5.832 -4.896,-8.352 -2.16,-2.448 -4.68,-4.392 -7.56,-5.904 -2.952,-1.512 -6.264,-2.304 -9.792,-2.304 -3.528,0 -6.696,0.72 -9.648,2.16 -2.952,1.44 -5.472,3.312 -7.632,5.688 -2.16,2.448 -3.888,5.184 -5.112,8.28 -0.792,2.088 -1.368,4.176 -1.584,6.264 h 6.552 c 0.216,-1.224 0.576,-2.52 1.008,-3.816 z" transform="translate(0 245.80561855776205) translate(252 90.12972292802071) scale(1.5856643743143712) translate(-363.92075 -68.52)"></path> 
   <path id="path634152" style="font-style: normal; font-weight: 500; font-size: 72px; line-height: 1; font-family: &quot;Raleway Medium Alt1&quot;; font-variant-ligatures: none; text-align: center; text-anchor: middle; fill: rgb(44, 43, 46);" d="m 443.05212,83.856 -22.896,45.288 h 7.20001 l 25.70399,-51.12 h -36.28799 v 5.832 z" transform="translate(0 245.80561855776205) translate(343.73287227092294 105.1998771415045) scale(1.5856643743143712) translate(-416.77213 -78.024)"></path> 
   <path id="path634154" style="font-style: normal; font-weight: 500; font-size: 72px; line-height: 1; font-family: &quot;Raleway Medium Alt1&quot;; font-variant-ligatures: none; text-align: center; text-anchor: middle; fill: rgb(228, 228, 228);" d="m 459.47937,120 h 6.48001 V 97.104 h 22.96799 v -5.4 h -29.448 z m 0,-51.12 v 16.344 h 6.48001 V 74.64 h 27.288 v -5.76 z" transform="translate(0 245.80561855776205) translate(419.3805431357885 90.7005621027739) scale(1.5856643743143712) translate(-459.47937 -68.88)"></path> 
   <path id="path634156" style="font-style: normal; font-weight: 500; font-size: 72px; line-height: 1; font-family: &quot;Raleway Medium Alt1&quot;; font-variant-ligatures: none; text-align: center; text-anchor: middle; fill: rgb(228, 228, 228);" d="m 501.52625,120 h 6.48 V 68.88 h -6.48 z" transform="translate(0 245.80561855776205) translate(493.9811046744318 90.7005621027739) scale(1.5856643743143712) translate(-501.52625 -68.88)"></path> 
   <path id="path634158" style="font-style: normal; font-weight: 500; font-size: 72px; line-height: 1; font-family: &quot;Raleway Medium Alt1&quot;; font-variant-ligatures: none; text-align: center; text-anchor: middle; fill: rgb(228, 228, 228);" d="m 534.19737,112.944 c -2.232,-1.008 -4.10399,-2.448 -5.616,-4.32 -1.58399,-1.872 -2.88,-3.96 -3.744,-6.408 -0.93599,-2.448 -1.36799,-4.968 -1.36799,-7.776 0,-2.52 0.36,-5.04 1.22399,-7.488 0.792,-2.448 1.94401,-4.536 3.456,-6.408 1.44001,-1.872 3.24,-3.312 5.40001,-4.464 2.088,-1.152 4.39199,-1.728 7.05599,-1.728 3.168,0 5.976,0.72 8.568,2.16 2.52001,1.44 4.53601,3.672 6.12,6.624 l 4.96801,-3.456 c -1.72801,-3.24 -4.17601,-5.976 -7.34401,-8.064 -3.168,-2.016 -7.27199,-3.096 -12.168,-3.096 -3.456,0 -6.624,0.72 -9.504,2.088 -2.952,1.44 -5.472,3.312 -7.55999,5.688 -2.16,2.376 -3.81601,5.112 -4.96801,8.208 -1.22399,3.096 -1.8,6.336 -1.8,9.792 0,3.384 0.57601,6.552 1.8,9.648 1.224,3.168 2.88001,5.904 5.04001,8.352 2.08799,2.448 4.53599,4.392 7.48799,5.832 2.88,1.512 6.048,2.232 9.504,2.232 3.6,0 6.91201,-0.864 10.00801,-2.736 v -6.048 c -3.024,2.016 -6.192,2.952 -9.50401,2.952 -2.59199,0 -4.89599,-0.504 -7.056,-1.584 z m 11.08801,-18.432 v 4.896 h 11.01599 V 120 h 5.472 V 94.512 Z" transform="translate(0 245.80561855776205) translate(526.314577210801 90.12972292802071) scale(1.5856643743143712) translate(-516.91737 -68.52)"></path> 
   <path id="path634160" style="font-style: normal; font-weight: 500; font-size: 72px; line-height: 1; font-family: &quot;Raleway Medium Alt1&quot;; font-variant-ligatures: none; text-align: center; text-anchor: middle; fill: rgb(228, 228, 228);" d="m 571.69812,120 h 6.48001 V 68.88 h -6.48001 z m 34.632,-51.12 v 22.104 h -22.39199 v 5.76 h 22.39199 V 120 h 6.48 V 68.88 Z" transform="translate(0 245.80561855776205) translate(621.1067827555948 90.7005621027739) scale(1.5856643743143712) translate(-571.69812 -68.88)"></path> 
   <path id="path634162" style="font-style: normal; font-weight: 500; font-size: 72px; line-height: 1; font-family: &quot;Raleway Medium Alt1&quot;; font-variant-ligatures: none; text-align: center; text-anchor: middle; fill: rgb(228, 228, 228);" d="m 637.739,120 h 6.48 V 81.12 h -6.48 z m -17.64,-51.12 v 5.76 h 41.76 v -5.76 z" transform="translate(0 245.80561855776205) translate(705.7826557286318 90.7005621027739) scale(1.5856643743143712) translate(-620.099 -68.88)"></path> 
  </g> 
  <g id="tagline" style="font-style:oblique;font-weight:600;font-size:32px;line-height:1;font-family:Raleway;font-variant-ligatures:none;text-align:center;text-anchor:middle"></g> 
 </g> 
</svg>