<svg xmlns:dc="http://purl.org/dc/elements/1.1/" xmlns:cc="http://creativecommons.org/ns#" xmlns:rdf="http://www.w3.org/1999/02/22-rdf-syntax-ns#" xmlns:svg="http://www.w3.org/2000/svg" xmlns="http://www.w3.org/2000/svg" id="svg3362" viewbox="0 0 1024 768" height="768px" width="1024px" version="1.1"> <metadata id="metadata3368"> 
  <rdf:rdf> 
   <cc:work rdf:about=""> 
    <dc:format>
     image/svg+xml
    </dc:format> 
    <dc:type rdf:resource="http://purl.org/dc/dcmitype/StillImage"></dc:type> 
   </cc:work> 
  </rdf:rdf> 
 </metadata> <defs id="defs3366"></defs> <g id="logo-group"> 
  <g id="title" style="font-style:normal;font-weight:700;font-size:72px;line-height:1;font-family:'Brandmark1 Bold';font-variant-ligatures:none;text-align:center;text-anchor:middle" aria-label="o7field"> 
   <path id="path3370" style="font-style: normal; font-weight: 700; font-size: 72px; line-height: 1; font-family: &quot;Brandmark1 Bold&quot;; font-variant-ligatures: none; text-align: center; text-anchor: middle; fill: rgb(0, 0, 0);" d="m 424.04637,123.024 c 2.736,0 5.472,-0.576 7.992,-1.584 2.448,-1.08 4.68,-2.52 6.552,-4.392 1.872,-1.944 3.312,-4.104 4.392,-6.552 1.08,-2.52 1.584,-5.256 1.584,-7.992 0,-2.808 -0.504,-5.472 -1.584,-7.992 -1.08,-2.448 -2.52,-4.68 -4.392,-6.552 -1.944,-1.872 -4.104,-3.312 -6.552,-4.392 -2.52,-1.08 -5.256,-1.584 -7.992,-1.584 -2.73599,0 -5.472,0.504 -7.992,1.584 -2.44799,1.08 -4.608,2.52 -6.552,4.392 -1.87199,1.944 -3.31199,4.104 -4.392,6.552 -1.008,2.52 -1.584,5.184 -1.584,7.992 0,2.736 0.576,5.472 1.584,7.992 1.08001,2.448 2.52001,4.608 4.392,6.552 1.944,1.872 4.10401,3.312 6.552,4.392 2.52,1.008 5.25601,1.584 7.992,1.584 z m 0,-30.24 c 5.328,0 9.72,4.392 9.72,9.72 0,5.328 -4.392,9.72 -9.72,9.72 -5.328,0 -9.72,-4.392 -9.72,-9.72 0,-5.328 4.392,-9.72 9.72,-9.72 z" transform="translate(0 203.86450899626305) translate(252 159.42414747424087) scale(2.0694787699336565) translate(-403.52637 -81.984)"></path> 
   <path id="path3372" style="font-style: normal; font-weight: 700; font-size: 72px; line-height: 1; font-family: &quot;Brandmark1 Bold&quot;; font-variant-ligatures: none; text-align: center; text-anchor: middle; fill: rgb(0, 0, 0);" d="m 446.89625,121.512 11.16,2.232 20.592,-48.384 v -7.344 h -35.712 V 78.6 h 22.536 z" transform="translate(0 203.86450899626305) translate(345.97478260523485 130.51766801580757) scale(2.0694787699336565) translate(-442.93625 -68.016)"></path> 
   <path id="path3374" style="font-style: normal; font-weight: 700; font-size: 72px; line-height: 1; font-family: &quot;Brandmark1 Bold&quot;; font-variant-ligatures: none; text-align: center; text-anchor: middle; fill: rgb(39, 44, 47);" d="m 492.722,82.56 v -0.072 c 0,-6.264 5.112,-11.448 11.448,-11.448 v -10.8 c -3.024,0 -5.976,0.648 -8.712,1.8 -2.664,1.08 -5.04,2.664 -7.056,4.752 -2.016,2.016 -3.672,4.392 -4.752,7.056 -1.152,2.736 -1.728,5.688 -1.728,8.64 v 40.032 h 10.8 V 92.64 H 504.17 V 82.56 Z" transform="translate(0 203.86450899626305) translate(439.071837179778 114.42540110080347) scale(2.0694787699336565) translate(-481.922 -60.24)"></path> 
   <path id="path3376" style="font-style: normal; font-weight: 700; font-size: 72px; line-height: 1; font-family: &quot;Brandmark1 Bold&quot;; font-variant-ligatures: none; text-align: center; text-anchor: middle; fill: rgb(39, 44, 47);" d="m 505.54025,122.52 h 10.872 V 80.976 l -10.872,3.6 z" transform="translate(0 203.86450899626305) translate(500.36617675736557 157.33811287414775) scale(2.0694787699336565) translate(-505.54025 -80.976)"></path> 
   <path id="path3378" style="font-style: normal; font-weight: 700; font-size: 72px; line-height: 1; font-family: &quot;Brandmark1 Bold&quot;; font-variant-ligatures: none; text-align: center; text-anchor: middle; fill: rgb(39, 44, 47);" d="m 539.75037,122.808 c 2.808,0 5.544,-0.576 8.13601,-1.728 2.52,-1.08 4.75199,-2.664 6.62399,-4.608 l -7.632,-7.2 c -1.87199,2.016 -4.392,3.096 -7.128,3.096 -3.52799,0 -6.62399,-1.872 -8.352,-4.608 h 28.58401 v -5.256 c 0,-5.4 -2.08801,-10.512 -5.904,-14.328 -3.816,-3.816 -8.92801,-5.976 -14.32801,-5.976 -5.472,0 -10.51199,2.16 -14.4,5.976 -3.816,3.816 -5.904,8.928 -5.904,14.328 0,5.4 2.088,10.512 5.904,14.328 3.88801,3.816 8.928,5.976 14.4,5.976 z m -8.352,-25.488 c 1.72801,-2.808 4.82401,-4.68 8.352,-4.68 3.456,0 6.552,1.872 8.35201,4.68 z" transform="translate(0 203.86450899626305) translate(541.5614694891174 159.87115488854656) scale(2.0694787699336565) translate(-519.44637 -82.2)"></path> 
   <path id="path3380" style="font-style: normal; font-weight: 700; font-size: 72px; line-height: 1; font-family: &quot;Brandmark1 Bold&quot;; font-variant-ligatures: none; text-align: center; text-anchor: middle; fill: rgb(39, 44, 47);" d="m 562.91525,122.52 h 10.872 V 64.488 l -10.872,3.6 z" transform="translate(0 203.86450899626305) translate(643.936266421513 123.21654691548164) scale(2.0694787699336565) translate(-562.91525 -64.488)"></path> 
   <path id="path3382" style="font-style: normal; font-weight: 700; font-size: 72px; line-height: 1; font-family: &quot;Brandmark1 Bold&quot;; font-variant-ligatures: none; text-align: center; text-anchor: middle; fill: rgb(39, 44, 47);" d="m 579.34137,110.496 c 1.08,2.448 2.52,4.68 4.39201,6.552 1.94399,1.872 4.10399,3.384 6.552,4.392 2.52,1.08 5.256,1.584 7.99199,1.584 2.736,0 5.472,-0.504 7.992,-1.584 2.448,-1.008 4.60801,-2.52 6.552,-4.392 1.87201,-1.872 3.312,-4.104 4.39201,-6.552 1.07999,-2.52 1.58399,-5.184 1.58399,-7.992 v -34.92 l -10.79999,-3.6 v 20.448 c -0.57601,-0.288 -1.15201,-0.576 -1.72801,-0.792 -2.52,-1.08 -5.184,-1.584 -7.992,-1.584 -2.73599,0 -5.47199,0.504 -7.99199,1.584 -2.44801,1.008 -4.60801,2.52 -6.552,4.392 -1.87201,1.872 -3.31201,4.104 -4.39201,6.552 -1.00799,2.52 -1.58399,5.184 -1.58399,7.92 0,2.808 0.576,5.472 1.58399,7.992 z m 18.936,-17.712 c 5.328,0 9.72001,4.392 9.72001,9.72 0,5.4 -4.39201,9.72 -9.72001,9.72 -5.32799,0 -9.72,-4.32 -9.72,-9.72 0,-5.328 4.39201,-9.72 9.72,-9.72 z" transform="translate(0 203.86450899626305) translate(687.0686119767104 122.17352961543509) scale(2.0694787699336565) translate(-577.75738 -63.984)"></path> 
  </g> 
  <g id="tagline" style="font-style:normal;font-weight:400;font-size:32px;line-height:1;font-family:Montserrat;font-variant-ligatures:none;text-align:center;text-anchor:middle"></g> 
 </g> 
</svg>