<svg xmlns:dc="http://purl.org/dc/elements/1.1/" xmlns:cc="http://creativecommons.org/ns#" xmlns:rdf="http://www.w3.org/1999/02/22-rdf-syntax-ns#" xmlns:svg="http://www.w3.org/2000/svg" xmlns="http://www.w3.org/2000/svg" id="svg373431" viewbox="0 0 1024 768" height="768px" width="1024px" version="1.1"> <metadata id="metadata373437"> 
  <rdf:rdf> 
   <cc:work rdf:about=""> 
    <dc:format>
     image/svg+xml
    </dc:format> 
    <dc:type rdf:resource="http://purl.org/dc/dcmitype/StillImage"></dc:type> 
   </cc:work> 
  </rdf:rdf> 
 </metadata> <defs id="defs373435"></defs> <g id="logo-group"> 
  <g id="title" style="font-style:normal;font-weight:200;font-size:72px;line-height:1;font-family:Phenomena;font-variant-ligatures:none;text-align:center;text-anchor:middle" aria-label="O7Falsity"> 
   <path id="path373439" style="font-style: normal; font-weight: 200; font-size: 72px; line-height: 1; font-family: Phenomena; font-variant-ligatures: none; text-align: center; text-anchor: middle; fill: rgb(222, 132, 181);" d="m 424.62631,120.504 c 7.056,0 11.592,-4.896 11.592,-13.248 v -24.84 c 0,-8.424 -4.536,-13.32 -11.592,-13.32 -7.056,0 -11.592,4.896 -11.592,13.32 v 24.84 c 0,8.352 4.536,13.248 11.592,13.248 z m 0,-1.368 c -6.192,0 -10.152,-4.32 -10.152,-11.88 v -24.84 c 0,-7.632 3.96,-11.952 10.152,-11.952 6.192,0 10.152,4.32 10.152,11.952 v 24.84 c 0,7.56 -3.96,11.88 -10.152,11.88 z" transform="translate(0 235.6679008275929) translate(252 94.20180174341525) scale(1.6397157830180509) translate(-413.03431 -69.096)"></path> 
   <path id="path373441" style="font-style: normal; font-weight: 200; font-size: 72px; line-height: 1; font-family: Phenomena; font-variant-ligatures: none; text-align: center; text-anchor: middle; fill: rgb(222, 132, 181);" d="m 442.79281,69.96 v 0.648 c 0,0.216 0.144,0.36 0.36,0.36 h 18 l -12.168,48.6 c -0.072,0.288 0.144,0.432 0.36,0.432 h 0.72 c 0.216,0 0.288,-0.072 0.36,-0.288 l 12.24,-48.816 c 0.072,-0.36 0.072,-0.576 0.072,-0.864 0,-0.288 -0.216,-0.432 -0.432,-0.432 h -19.152 c -0.216,0 -0.36,0.144 -0.36,0.36 z" transform="translate(0 235.6679008275929) translate(325.39121887421334 95.02821849805633) scale(1.6397157830180509) translate(-442.79281 -69.6)"></path> 
   <path id="path373443" style="font-style: normal; font-weight: 200; font-size: 72px; line-height: 1; font-family: Phenomena; font-variant-ligatures: none; text-align: center; text-anchor: middle; fill: rgb(126, 164, 159);" d="m 471.20806,120 h 0.72 c 0.216,0 0.36,-0.144 0.36,-0.36 V 95.52 h 14.04 c 0.216,0 0.36,-0.144 0.36,-0.36 v -0.648 c 0,-0.216 -0.144,-0.36 -0.36,-0.36 h -14.04 V 80.76 c 0,-5.472 3.672,-9.792 9.936,-9.792 h 5.544 c 0.216,0 0.36,-0.144 0.36,-0.36 V 69.96 c 0,-0.216 -0.144,-0.36 -0.36,-0.36 h -5.544 c -7.128,0 -11.376,5.04 -11.376,11.16 v 38.88 c 0,0.216 0.144,0.36 0.36,0.36 z" transform="translate(0 235.6679008275929) translate(395.98959184100124 95.02821849805633) scale(1.6397157830180509) translate(-470.84806 -69.6)"></path> 
   <path id="path373445" style="font-style: normal; font-weight: 200; font-size: 72px; line-height: 1; font-family: Phenomena; font-variant-ligatures: none; text-align: center; text-anchor: middle; fill: rgb(126, 164, 159);" d="m 501.43906,120.504 c 6.192,0 9.648,-4.32 9.648,-11.16 V 94.368 c 0,-6.84 -3.672,-10.872 -9.648,-10.872 -6.264,0 -9.864,3.888 -10.152,9.144 0,0.216 0.144,0.36 0.36,0.36 h 0.648 c 0.216,0 0.36,-0.144 0.36,-0.36 0.288,-4.464 3.384,-7.848 8.784,-7.848 5.112,0 8.28,3.528 8.28,9.576 v 4.896 h -7.632 c -7.488,0 -11.376,3.816 -11.376,10.08 0,7.128 3.888,11.16 10.728,11.16 z m 0,-1.296 c -5.976,0 -9.36,-3.6 -9.36,-9.864 0,-5.472 3.384,-8.784 10.008,-8.784 h 7.632 v 8.784 c 0,6.048 -2.952,9.864 -8.28,9.864 z" transform="translate(0 235.6679008275929) translate(453.1550031843595 117.81370901887516) scale(1.6397157830180509) translate(-490.71106 -83.496)"></path> 
   <path id="path373447" style="font-style: normal; font-weight: 200; font-size: 72px; line-height: 1; font-family: Phenomena; font-variant-ligatures: none; text-align: center; text-anchor: middle; fill: rgb(126, 164, 159);" d="m 520.99269,120 h 0.648 c 0.216,0 0.36,-0.144 0.36,-0.36 V 69.96 c 0,-0.216 -0.144,-0.36 -0.36,-0.36 h -0.648 c -0.216,0 -0.36,0.144 -0.36,0.36 v 49.68 c 0,0.216 0.144,0.36 0.36,0.36 z" transform="translate(0 235.6679008275929) translate(526.8137088942568 95.02821849805633) scale(1.6397157830180509) translate(-520.63269 -69.6)"></path> 
   <path id="path373449" style="font-style: normal; font-weight: 200; font-size: 72px; line-height: 1; font-family: Phenomena; font-variant-ligatures: none; text-align: center; text-anchor: middle; fill: rgb(126, 164, 159);" d="m 541.43844,120.504 c 5.184,0 9.648,-3.672 9.648,-9 0,-12.168 -18.576,-7.992 -18.576,-19.152 0,-4.608 3.672,-7.56 8.28,-7.56 4.968,0 8.136,2.808 8.28,7.848 0,0.216 0.144,0.36 0.36,0.36 h 0.648 c 0.216,0 0.36,-0.144 0.36,-0.36 -0.144,-5.616 -3.96,-9.144 -9.648,-9.144 -5.472,0 -9.648,3.672 -9.648,8.856 0,12.384 18.576,8.208 18.576,19.152 0,4.752 -3.816,7.704 -8.28,7.704 -5.472,0 -8.856,-2.808 -9,-8.928 0,-0.216 -0.144,-0.36 -0.36,-0.36 h -0.648 c -0.216,0 -0.36,0.144 -0.36,0.36 0.144,6.696 4.176,10.224 10.368,10.224 z" transform="translate(0 235.6679008275929) translate(568.524389053724 117.81370901887516) scale(1.6397157830180509) translate(-531.07044 -83.496)"></path> 
   <path id="path373451" style="font-style: normal; font-weight: 200; font-size: 72px; line-height: 1; font-family: Phenomena; font-variant-ligatures: none; text-align: center; text-anchor: middle; fill: rgb(126, 164, 159);" d="m 560.86831,77.88 c 0.936,0 1.584,-0.648 1.584,-1.584 0,-0.936 -0.648,-1.584 -1.584,-1.584 -0.936,0 -1.584,0.648 -1.584,1.584 0,0.936 0.648,1.584 1.584,1.584 z m -0.36,42.12 h 0.648 c 0.216,0 0.36,-0.144 0.36,-0.36 V 84.36 c 0,-0.216 -0.144,-0.36 -0.36,-0.36 h -0.648 c -0.216,0 -0.36,0.144 -0.36,0.36 v 35.28 c 0,0.216 0.144,0.36 0.36,0.36 z" transform="translate(0 235.6679008275929) translate(639.3828537380144 103.41044558084462) scale(1.6397157830180509) translate(-559.28431 -74.712)"></path> 
   <path id="path373453" style="font-style: normal; font-weight: 200; font-size: 72px; line-height: 1; font-family: Phenomena; font-variant-ligatures: none; text-align: center; text-anchor: middle; fill: rgb(126, 164, 159);" d="m 583.62144,118.848 h -1.008 c -5.04,0 -7.704,-3.24 -7.704,-9.36 V 85.296 h 8.064 c 0.216,0 0.36,-0.144 0.36,-0.36 V 84.36 c 0,-0.216 -0.144,-0.36 -0.36,-0.36 h -8.064 v -9.72 c 0,-0.216 -0.144,-0.36 -0.36,-0.36 h -0.648 c -0.216,0 -0.36,0.144 -0.36,0.36 V 84 h -5.04 c -0.216,0 -0.36,0.144 -0.36,0.36 v 0.576 c 0,0.216 0.144,0.36 0.36,0.36 h 5.04 v 24.192 c 0,6.984 3.096,10.656 9.072,10.656 h 1.008 c 0.216,0 0.36,-0.144 0.36,-0.36 v -0.576 c 0,-0.216 -0.144,-0.36 -0.36,-0.36 z" transform="translate(0 235.6679008275929) translate(678.5017663365278 102.11179068069433) scale(1.6397157830180509) translate(-568.14144 -73.92)"></path> 
   <path id="path373455" style="font-style: normal; font-weight: 200; font-size: 72px; line-height: 1; font-family: Phenomena; font-variant-ligatures: none; text-align: center; text-anchor: middle; fill: rgb(126, 164, 159);" d="m 609.80244,84 h -0.648 c -0.216,0 -0.36,0.144 -0.36,0.36 v 24.48 c 0,5.688 -3.096,9.864 -8.352,9.864 -5.328,0 -8.496,-4.176 -8.496,-9.864 V 84.36 c 0,-0.216 -0.144,-0.36 -0.36,-0.36 h -0.648 c -0.216,0 -0.36,0.144 -0.36,0.36 v 24.48 c 0,6.408 3.744,11.16 9.864,11.16 3.816,0 6.912,-2.16 8.352,-5.544 v 9.864 c 0,5.256 -3.096,9.504 -8.424,9.504 -5.184,0 -8.28,-3.96 -8.424,-8.928 0,-0.216 -0.144,-0.36 -0.36,-0.36 h -0.648 c -0.216,0 -0.36,0.144 -0.36,0.36 0.144,5.688 3.888,10.224 9.792,10.224 6.048,0 9.792,-4.824 9.792,-10.8 V 84.36 c 0,-0.216 -0.144,-0.36 -0.36,-0.36 z" transform="translate(0 235.6679008275929) translate(739.8878061053746 118.64012577351627) scale(1.6397157830180509) translate(-590.57844 -84)"></path> 
  </g> 
  <g id="tagline" style="font-style:oblique;font-weight:300;font-size:32px;line-height:1;font-family:'Fira Sans Condensed';font-variant-ligatures:none;text-align:center;text-anchor:middle"></g> 
 </g> 
</svg>