<svg xmlns:dc="http://purl.org/dc/elements/1.1/" xmlns:cc="http://creativecommons.org/ns#" xmlns:rdf="http://www.w3.org/1999/02/22-rdf-syntax-ns#" xmlns:svg="http://www.w3.org/2000/svg" xmlns="http://www.w3.org/2000/svg" id="svg118785" viewbox="0 0 1024 768" height="768px" width="1024px" version="1.1"> <metadata id="metadata118791"> 
  <rdf:rdf> 
   <cc:work rdf:about=""> 
    <dc:format>
     image/svg+xml
    </dc:format> 
    <dc:type rdf:resource="http://purl.org/dc/dcmitype/StillImage"></dc:type> 
   </cc:work> 
  </rdf:rdf> 
 </metadata> <defs id="defs118789"></defs> <g id="logo-group"> 
  <g id="title" style="font-style:normal;font-weight:700;font-size:72px;line-height:1;font-family:Phenomena;font-variant-ligatures:none;text-align:center;text-anchor:middle" aria-label="O7Gateway"> 
   <path id="path118793" style="font-style: normal; font-weight: 700; font-size: 72px; line-height: 1; font-family: Phenomena; font-variant-ligatures: none; text-align: center; text-anchor: middle; fill: rgb(73, 62, 68);" d="m 395.58219,120.72 c 7.488,0 12.672,-5.472 12.672,-13.032 V 81.912 c 0,-7.56 -5.184,-13.032 -12.672,-13.032 -7.488,0 -12.744,5.472 -12.744,13.536 v 24.768 c 0,8.064 5.256,13.536 12.744,13.536 z m 0,-6.048 c -3.672,0 -6.192,-2.736 -6.192,-7.2 V 82.128 c 0,-4.464 2.52,-7.2 6.192,-7.2 3.672,0 6.12,2.736 6.12,6.696 v 26.352 c 0,3.96 -2.448,6.696 -6.12,6.696 z" transform="translate(0 262.2904955431922) translate(252.00000000000006 76.08264418612667) scale(1.3776225927138022) translate(-382.83819 -68.88)"></path> 
   <path id="path118795" style="font-style: normal; font-weight: 700; font-size: 72px; line-height: 1; font-family: Phenomena; font-variant-ligatures: none; text-align: center; text-anchor: middle; fill: rgb(73, 62, 68);" d="m 412.31881,70.536 v 4.104 c 0,0.648 0.36,1.008 0.936,1.008 h 13.752 l -10.44,43.272 c -0.144,0.648 0.144,1.08 0.864,1.08 h 4.536 c 0.576,0 0.936,-0.288 1.08,-0.864 L 433.55881,75 c 0.288,-1.224 0.36,-2.088 0.36,-3.384 0,-1.368 -0.792,-2.016 -2.16,-2.016 h -18.504 c -0.576,0 -0.936,0.36 -0.936,0.936 z" transform="translate(0 262.2904955431922) translate(313.2775070499174 77.07453245288063) scale(1.3776225927138022) translate(-412.31881 -69.6)"></path> 
   <path id="path118797" style="font-style: normal; font-weight: 700; font-size: 72px; line-height: 1; font-family: Phenomena; font-variant-ligatures: none; text-align: center; text-anchor: middle; fill: rgb(238, 230, 184);" d="m 451.61956,120.792 c 7.488,0 12.672,-5.472 12.672,-12.888 v -12.24 c 0,-1.872 -1.08,-2.952 -2.952,-2.952 h -8.496 c -0.648,0 -1.008,0.36 -1.008,1.008 v 3.816 c 0,0.576 0.36,0.936 1.008,0.936 h 4.968 v 9.792 c 0,3.744 -2.52,6.408 -6.12,6.408 -3.672,0 -6.192,-2.664 -6.192,-6.912 V 81.84 c 0,-4.248 2.232,-6.912 5.904,-6.912 3.456,0 5.616,2.592 5.832,6.984 0.072,0.648 0.432,1.008 1.008,1.008 h 4.608 c 0.576,0 0.936,-0.36 0.936,-1.008 -0.216,-7.704 -5.184,-13.104 -12.384,-13.104 -7.488,0 -12.456,5.4 -12.456,13.248 v 25.416 c 0,7.848 5.184,13.32 12.672,13.32 z" transform="translate(0 262.2904955431922) translate(370.6262135563521 75.9834553594513) scale(1.3776225927138022) translate(-438.94756 -68.808)"></path> 
   <path id="path118799" style="font-style: normal; font-weight: 700; font-size: 72px; line-height: 1; font-family: Phenomena; font-variant-ligatures: none; text-align: center; text-anchor: middle; fill: rgb(238, 230, 184);" d="m 480.61644,120.72 c 6.912,0 11.232,-4.752 11.232,-11.376 V 94.872 c 0,-6.768 -4.392,-11.664 -11.232,-11.664 -6.408,0 -10.656,4.464 -11.088,10.728 0,0.576 0.36,1.008 0.936,1.008 h 4.176 c 0.648,0 0.936,-0.216 1.008,-0.864 0.216,-2.952 1.872,-4.968 4.896,-4.968 3.24,0 5.184,2.232 5.184,5.472 v 3.96 h -5.4 c -6.768,0 -11.376,4.608 -11.376,10.584 0,6.768 4.68,11.592 11.664,11.592 z m -0.072,-5.904 c -3.384,0 -5.4,-2.232 -5.4,-5.688 0,-2.808 2.016,-5.04 5.4,-5.04 h 5.184 v 5.256 c 0,3.312 -1.872,5.472 -5.184,5.472 z" transform="translate(0 262.2904955431922) translate(432.6259530267257 95.82122069453003) scale(1.3776225927138022) translate(-468.95244 -83.208)"></path> 
   <path id="path118801" style="font-style: normal; font-weight: 700; font-size: 72px; line-height: 1; font-family: Phenomena; font-variant-ligatures: none; text-align: center; text-anchor: middle; fill: rgb(238, 230, 184);" d="m 512.85219,114.384 h -0.792 c -3.672,0 -5.544,-2.304 -5.544,-6.84 V 89.616 h 5.544 c 0.576,0 0.936,-0.36 0.936,-0.936 v -3.744 c 0,-0.576 -0.36,-0.936 -0.936,-0.936 h -5.544 v -9.288 c 0,-0.648 -0.36,-1.008 -0.936,-1.008 h -4.176 c -0.648,0 -1.008,0.36 -1.008,1.008 V 84 h -4.032 c -0.576,0 -0.936,0.36 -0.936,0.936 v 3.744 c 0,0.576 0.36,0.936 0.936,0.936 h 4.032 v 17.856 c 0,7.92 4.248,12.744 11.376,12.744 h 1.08 c 0.648,0 1.008,-0.36 1.008,-0.936 v -3.96 c 0,-0.576 -0.36,-0.936 -1.008,-0.936 z" transform="translate(0 262.2904955431922) translate(489.7638832764751 82.72829557337808) scale(1.3776225927138022) translate(-495.42819 -73.704)"></path> 
   <path id="path118803" style="font-style: normal; font-weight: 700; font-size: 72px; line-height: 1; font-family: Phenomena; font-variant-ligatures: none; text-align: center; text-anchor: middle; fill: rgb(238, 230, 184);" d="m 529.06681,120.72 c 6.48,0 11.016,-4.464 11.376,-11.16 0,-0.576 -0.36,-0.936 -0.936,-0.936 h -4.248 c -0.576,0 -0.936,0.288 -1.008,0.936 -0.216,3.168 -2.16,5.328 -5.112,5.328 -3.312,0 -5.256,-2.304 -5.256,-5.616 v -3.744 h 5.328 c 6.84,0 11.448,-4.536 11.448,-10.872 0,-6.624 -4.752,-11.448 -11.52,-11.376 -6.912,0 -11.376,4.752 -11.448,11.592 v 14.112 c 0,7.056 4.608,11.736 11.376,11.736 z m -5.184,-20.808 V 94.8 c 0,-3.456 1.872,-5.688 5.256,-5.688 3.312,0 5.328,2.232 5.328,5.688 0,3.024 -1.944,5.112 -5.256,5.112 z" transform="translate(0 262.2904955431922) translate(541.0977104521844 95.91931431124424) scale(1.3776225927138022) translate(-517.69081 -83.279205)"></path> 
   <path id="path118805" style="font-style: normal; font-weight: 700; font-size: 72px; line-height: 1; font-family: Phenomena; font-variant-ligatures: none; text-align: center; text-anchor: middle; fill: rgb(238, 230, 184);" d="m 572.81581,120.792 c 6.552,0 10.8,-4.896 10.8,-11.736 V 85.008 c 0,-0.648 -0.36,-1.008 -0.936,-1.008 h -4.176 c -0.648,0 -1.008,0.36 -1.008,1.008 v 24.264 c 0,3.384 -1.656,5.616 -4.68,5.616 -3.024,0 -4.752,-2.232 -4.752,-5.616 V 85.008 c 0,-0.648 -0.36,-1.008 -0.936,-1.008 h -4.176 c -0.648,0 -1.008,0.36 -1.008,1.008 v 24.264 c 0,3.384 -1.656,5.616 -4.68,5.616 -3.024,0 -4.752,-2.232 -4.752,-5.616 V 85.008 c 0,-0.648 -0.36,-1.008 -1.008,-1.008 h -4.104 c -0.648,0 -1.008,0.36 -1.008,1.008 v 24.048 c 0,6.84 4.32,11.736 10.872,11.736 3.312,0 6.12,-1.8 7.776,-4.392 1.656,2.592 4.392,4.392 7.776,4.392 z" transform="translate(0 262.2904955431922) translate(601.3011953763702 96.91229778795939) scale(1.3776225927138022) translate(-546.39181 -84)"></path> 
   <path id="path118807" style="font-style: normal; font-weight: 700; font-size: 72px; line-height: 1; font-family: Phenomena; font-variant-ligatures: none; text-align: center; text-anchor: middle; fill: rgb(238, 230, 184);" d="m 600.99144,120.72 c 6.912,0 11.232,-4.752 11.232,-11.376 V 94.872 c 0,-6.768 -4.392,-11.664 -11.232,-11.664 -6.408,0 -10.656,4.464 -11.088,10.728 0,0.576 0.36,1.008 0.936,1.008 h 4.176 c 0.648,0 0.936,-0.216 1.008,-0.864 0.216,-2.952 1.872,-4.968 4.896,-4.968 3.24,0 5.184,2.232 5.184,5.472 v 3.96 h -5.4 c -6.768,0 -11.376,4.608 -11.376,10.584 0,6.768 4.68,11.592 11.664,11.592 z m -0.072,-5.904 c -3.384,0 -5.4,-2.232 -5.4,-5.688 0,-2.808 2.016,-5.04 5.4,-5.04 h 5.184 v 5.256 c 0,3.312 -1.872,5.472 -5.184,5.472 z" transform="translate(0 262.2904955431922) translate(681.1146281874777 95.82122069453003) scale(1.3776225927138022) translate(-589.32744 -83.208)"></path> 
   <path id="path118809" style="font-style: normal; font-weight: 700; font-size: 72px; line-height: 1; font-family: Phenomena; font-variant-ligatures: none; text-align: center; text-anchor: middle; fill: rgb(238, 230, 184);" d="m 639.29206,84 h -4.176 c -0.648,0 -1.008,0.36 -1.008,0.936 v 22.608 c 0,3.312 -1.944,5.616 -5.184,5.616 -3.24,0 -5.184,-2.304 -5.184,-5.616 V 84.936 c 0,-0.576 -0.36,-0.936 -1.008,-0.936 h -4.176 c -0.648,0 -1.008,0.36 -1.008,0.936 v 22.392 c 0,6.84 4.536,11.664 10.872,11.664 2.304,0 4.32,-1.008 5.688,-2.592 v 7.272 c 0,3.528 -1.872,5.616 -5.184,5.616 -3.096,0 -4.968,-2.088 -5.184,-5.688 -0.072,-0.72 -0.36,-1.008 -0.936,-1.008 h -4.248 c -0.648,0 -1.008,0.36 -0.936,1.008 0.36,7.056 4.752,11.592 11.304,11.592 6.912,0 11.376,-4.608 11.376,-11.736 v -38.52 c 0,-0.576 -0.432,-0.936 -1.008,-0.936 z" transform="translate(0 262.2904955431922) translate(740.6563307705758 96.91229778795939) scale(1.3776225927138022) translate(-617.54806 -84)"></path> 
  </g> 
  <g id="tagline" style="font-style:oblique;font-weight:normal;font-size:32px;line-height:1;font-family:'Fira Sans Condensed';font-variant-ligatures:none;text-align:center;text-anchor:middle"></g> 
 </g> 
</svg>