<svg xmlns:dc="http://purl.org/dc/elements/1.1/" xmlns:cc="http://creativecommons.org/ns#" xmlns:rdf="http://www.w3.org/1999/02/22-rdf-syntax-ns#" xmlns:svg="http://www.w3.org/2000/svg" xmlns="http://www.w3.org/2000/svg" id="svg971656" viewbox="0 0 1024 768" height="768px" width="1024px" version="1.1"> <metadata id="metadata971662"> 
  <rdf:rdf> 
   <cc:work rdf:about=""> 
    <dc:format>
     image/svg+xml
    </dc:format> 
    <dc:type rdf:resource="http://purl.org/dc/dcmitype/StillImage"></dc:type> 
   </cc:work> 
  </rdf:rdf> 
 </metadata> <defs id="defs971660"></defs> <g id="logo-group"> 
  <g id="title" style="font-style:normal;font-weight:500;font-size:72px;line-height:1;font-family:'Raleway Medium Alt1';font-variant-ligatures:none;text-align:center;text-anchor:middle" aria-label="o7Gladness"> 
   <path id="path971664" style="font-style: normal; font-weight: 500; font-size: 72px; line-height: 1; font-family: &quot;Raleway Medium Alt1&quot;; font-variant-ligatures: none; text-align: center; text-anchor: middle; fill: rgb(178, 189, 185);" d="m 335.94988,120.72 c 2.808,0 5.39999,-0.504 7.704,-1.584 2.30399,-1.008 4.32,-2.448 6.04799,-4.248 1.656,-1.728 2.952,-3.816 3.888,-6.192 0.864,-2.304 1.368,-4.824 1.368,-7.416 0,-2.592 -0.504,-5.112 -1.44,-7.488 -0.93599,-2.304 -2.23199,-4.392 -3.888,-6.192 -1.65599,-1.728 -3.672,-3.168 -5.97599,-4.248 -2.37601,-1.008 -4.96801,-1.584 -7.704,-1.584 -2.808,0 -5.40001,0.576 -7.70401,1.584 -2.304,1.08 -4.31999,2.52 -5.97599,4.248 -1.65601,1.8 -2.952,3.888 -3.88801,6.192 -0.936,2.376 -1.368,4.896 -1.368,7.488 0,2.592 0.432,5.112 1.368,7.416 0.864,2.376 2.16,4.464 3.816,6.192 1.65601,1.8 3.672,3.24 5.976,4.248 2.304,1.08 4.89601,1.584 7.77601,1.584 z m -12.45601,-19.368 c 0,-1.944 0.28801,-3.744 0.936,-5.472 0.648,-1.728 1.512,-3.168 2.66401,-4.464 1.15199,-1.296 2.44799,-2.304 3.95999,-3.024 1.512,-0.72 3.168,-1.152 4.89601,-1.152 1.72799,0 3.312,0.36 4.82399,1.08 1.512,0.72 2.88001,1.728 4.03201,3.024 1.15199,1.296 2.01599,2.736 2.66399,4.464 0.64801,1.728 1.008,3.528 1.008,5.4 0,2.016 -0.35999,3.816 -1.008,5.544 -0.648,1.728 -1.512,3.168 -2.66399,4.464 -1.152,1.296 -2.52001,2.232 -4.03201,2.952 -1.51199,0.72 -3.096,1.08 -4.82399,1.08 -1.72801,0 -3.38401,-0.36 -4.89601,-1.08 -1.512,-0.72 -2.808,-1.656 -3.95999,-2.952 -1.15201,-1.224 -2.01601,-2.664 -2.66401,-4.392 -0.64799,-1.656 -0.936,-3.456 -0.936,-5.472 z" transform="translate(0 278.9219763442537) translate(252.0000000000001 84.48135431452266) scale(1.2464699431870983) translate(-317.01387 -81.768)"></path> 
   <path id="path971666" style="font-style: normal; font-weight: 500; font-size: 72px; line-height: 1; font-family: &quot;Raleway Medium Alt1&quot;; font-variant-ligatures: none; text-align: center; text-anchor: middle; fill: rgb(178, 189, 185);" d="m 385.81775,83.856 -22.896,45.288 h 7.2 l 25.704,-51.12 h -36.288 v 5.832 z" transform="translate(0 278.9219763442537) translate(308.7441481172564 79.81457084723016) scale(1.2464699431870983) translate(-359.53775 -78.024)"></path> 
   <path id="path971668" style="font-style: normal; font-weight: 500; font-size: 72px; line-height: 1; font-family: &quot;Raleway Medium Alt1&quot;; font-variant-ligatures: none; text-align: center; text-anchor: middle; fill: rgb(119, 119, 119);" d="m 416.213,112.944 c -2.232,-1.008 -4.104,-2.448 -5.616,-4.32 -1.584,-1.872 -2.88,-3.96 -3.744,-6.408 -0.936,-2.448 -1.368,-4.968 -1.368,-7.776 0,-2.52 0.36,-5.04 1.224,-7.488 0.792,-2.448 1.944,-4.536 3.456,-6.408 1.44,-1.872 3.24,-3.312 5.4,-4.464 2.088,-1.152 4.392,-1.728 7.056,-1.728 3.168,0 5.976,0.72 8.568,2.16 2.52,1.44 4.536,3.672 6.12,6.624 l 4.968,-3.456 c -1.728,-3.24 -4.176,-5.976 -7.344,-8.064 -3.168,-2.016 -7.272,-3.096 -12.168,-3.096 -3.456,0 -6.624,0.72 -9.504,2.088 -2.952,1.44 -5.472,3.312 -7.56,5.688 -2.16,2.376 -3.816,5.112 -4.968,8.208 -1.224,3.096 -1.8,6.336 -1.8,9.792 0,3.384 0.576,6.552 1.8,9.648 1.224,3.168 2.88,5.904 5.04,8.352 2.088,2.448 4.536,4.392 7.488,5.832 2.88,1.512 6.048,2.232 9.504,2.232 3.6,0 6.912,-0.864 10.008,-2.736 v -6.048 c -3.024,2.016 -6.192,2.952 -9.504,2.952 -2.592,0 -4.896,-0.504 -7.056,-1.584 z m 11.088,-18.432 v 4.896 h 11.016 V 120 h 5.472 V 94.512 Z" transform="translate(0 278.9219763442537) translate(361.5885529761592 67.96812050717998) scale(1.2464699431870983) translate(-398.933 -68.52)"></path> 
   <path id="path971670" style="font-style: normal; font-weight: 500; font-size: 72px; line-height: 1; font-family: &quot;Raleway Medium Alt1&quot;; font-variant-ligatures: none; text-align: center; text-anchor: middle; fill: rgb(119, 119, 119);" d="m 452.84975,67.44 v 45.144 c 0,2.52 0.648,4.464 2.088,5.832 1.44,1.44 3.384,2.088 5.832,2.088 1.08,0 2.376,-0.144 3.816,-0.432 1.44,-0.288 2.664,-0.648 3.744,-1.08 l -1.008,-5.112 c -0.648,0.288 -1.296,0.504 -2.016,0.648 -0.72,0.144 -1.368,0.216 -1.872,0.216 -1.368,0 -2.448,-0.36 -3.168,-1.152 -0.72,-0.792 -1.08,-1.872 -1.08,-3.312 V 67.44 Z" transform="translate(0 278.9219763442537) translate(432.5335711150534 66.62193296853792) scale(1.2464699431870983) translate(-452.84975 -67.44)"></path> 
   <path id="path971672" style="font-style: normal; font-weight: 500; font-size: 72px; line-height: 1; font-family: &quot;Raleway Medium Alt1&quot;; font-variant-ligatures: none; text-align: center; text-anchor: middle; fill: rgb(119, 119, 119);" d="m 482.885,120.72 c 2.88,0 5.616,-0.576 8.208,-1.728 2.592,-1.152 4.68,-2.88 6.408,-5.184 l 0.144,2.664 c 0.144,1.08 0.576,2.016 1.296,2.736 0.72,0.72 1.728,1.08 3.024,1.08 0.432,0 0.936,0 1.368,-0.072 0.432,0 0.936,-0.072 1.656,-0.216 v -5.472 c -1.368,0 -2.016,-0.792 -2.016,-2.304 V 96.888 c 0,-4.752 -1.44,-8.496 -4.176,-11.16 -2.736,-2.592 -6.624,-3.96 -11.52,-3.96 -4.896,0 -9.792,1.656 -14.616,4.896 l 2.088,4.104 c 4.176,-2.88 8.136,-4.392 11.952,-4.392 3.168,0 5.616,0.936 7.344,2.664 1.728,1.728 2.592,4.176 2.592,7.2 v 3.024 c -1.44,-0.576 -3.096,-1.008 -4.968,-1.368 -1.872,-0.288 -3.744,-0.504 -5.544,-0.504 -2.304,0 -4.464,0.288 -6.408,0.864 -1.944,0.576 -3.6,1.368 -5.04,2.376 -1.44,1.008 -2.52,2.232 -3.24,3.672 -0.792,1.44 -1.152,2.952 -1.152,4.68 0,1.728 0.288,3.24 0.936,4.68 0.648,1.44 1.512,2.664 2.664,3.672 1.152,1.08 2.448,1.944 4.032,2.52 1.512,0.576 3.168,0.864 4.968,0.864 z m 1.656,-4.752 c -1.152,0 -2.232,-0.144 -3.24,-0.576 -1.008,-0.36 -1.944,-0.864 -2.664,-1.584 -0.72,-0.648 -1.296,-1.44 -1.728,-2.376 -0.432,-0.864 -0.576,-1.872 -0.576,-2.952 0,-2.16 0.936,-3.888 2.952,-5.256 2.016,-1.296 4.608,-2.016 7.776,-2.016 3.312,0 6.48,0.648 9.576,1.8 v 5.544 c 0,1.008 -0.504,1.944 -1.368,2.808 -1.008,1.44 -2.52,2.52 -4.464,3.384 -1.944,0.864 -4.032,1.224 -6.264,1.224 z" transform="translate(0 278.9219763442537) translate(458.00549602156764 84.48135431452266) scale(1.2464699431870983) translate(-470.285 -81.768)"></path> 
   <path id="path971674" style="font-style: normal; font-weight: 500; font-size: 72px; line-height: 1; font-family: &quot;Raleway Medium Alt1&quot;; font-variant-ligatures: none; text-align: center; text-anchor: middle; fill: rgb(119, 119, 119);" d="m 528.6545,120.72 c 2.736,0 5.328,-0.648 7.776,-2.016 2.448,-1.368 4.464,-3.312 5.976,-5.76 v 3.168 c 0,1.152 0.432,2.088 1.368,2.952 0.936,0.864 2.016,1.224 3.312,1.224 0.36,0 0.72,0 1.152,-0.072 0.432,0 0.936,-0.072 1.656,-0.216 v -5.472 c -1.368,0 -2.016,-0.792 -2.016,-2.304 V 67.44 h -6.336 v 22.464 c -1.44,-2.232 -3.312,-4.176 -5.688,-5.76 -2.376,-1.584 -5.04,-2.376 -8.064,-2.376 -2.52,0 -4.824,0.576 -6.912,1.584 -2.088,1.008 -3.888,2.448 -5.4,4.176 -1.512,1.8 -2.664,3.888 -3.528,6.264 -0.864,2.376 -1.224,4.896 -1.224,7.488 0,2.592 0.432,5.112 1.296,7.416 0.864,2.376 2.16,4.464 3.744,6.192 1.584,1.8 3.456,3.24 5.688,4.248 2.16,1.08 4.608,1.584 7.2,1.584 z m 1.512,-5.472 c -1.872,0 -3.528,-0.36 -5.112,-1.08 -1.584,-0.72 -2.88,-1.728 -4.032,-3.024 -1.152,-1.224 -2.088,-2.664 -2.736,-4.392 -0.72,-1.728 -1.008,-3.528 -1.008,-5.4 0,-1.728 0.288,-3.456 0.864,-5.184 0.576,-1.728 1.368,-3.24 2.448,-4.536 1.08,-1.296 2.376,-2.376 3.888,-3.168 1.512,-0.792 3.24,-1.224 5.112,-1.224 1.152,0 2.376,0.288 3.6,0.72 1.224,0.432 2.376,1.08 3.456,1.872 1.08,0.792 2.088,1.728 2.952,2.808 0.864,1.08 1.512,2.232 1.944,3.384 v 10.8 c -0.288,1.152 -0.792,2.304 -1.584,3.312 -0.792,1.008 -1.728,1.944 -2.808,2.664 -1.08,0.792 -2.232,1.368 -3.456,1.8 -1.224,0.432 -2.376,0.648 -3.528,0.648 z" transform="translate(0 278.9219763442537) translate(512.1540200585299 66.62193296853792) scale(1.2464699431870983) translate(-510.7265 -67.44)"></path> 
   <path id="path971676" style="font-style: normal; font-weight: 500; font-size: 72px; line-height: 1; font-family: &quot;Raleway Medium Alt1&quot;; font-variant-ligatures: none; text-align: center; text-anchor: middle; fill: rgb(119, 119, 119);" d="M 591.07175,120 V 97.536 c 0,-2.232 -0.216,-4.32 -0.576,-6.264 -0.36,-1.872 -0.936,-3.528 -1.8,-4.968 -0.864,-1.44 -2.016,-2.52 -3.456,-3.312 -1.44,-0.792 -3.24,-1.224 -5.4,-1.224 -3.312,0 -6.408,0.792 -9.216,2.376 -2.808,1.584 -4.968,3.744 -6.408,6.336 v -8.064 h -5.76 V 120 h 6.336 V 97.32 c 0.432,-1.44 1.08,-2.736 1.944,-3.96 0.864,-1.152 1.872,-2.232 3.024,-3.096 1.152,-0.864 2.376,-1.512 3.672,-2.016 1.296,-0.504 2.592,-0.792 3.888,-0.792 2.448,0 4.32,0.936 5.544,2.736 1.224,1.872 1.872,4.752 1.872,8.784 V 120 Z" transform="translate(0 278.9219763442537) translate(575.386505423954 84.48135431452266) scale(1.2464699431870983) translate(-558.45575 -81.768)"></path> 
   <path id="path971678" style="font-style: normal; font-weight: 500; font-size: 72px; line-height: 1; font-family: &quot;Raleway Medium Alt1&quot;; font-variant-ligatures: none; text-align: center; text-anchor: middle; fill: rgb(119, 119, 119);" d="m 617.5565,120.72 c 1.872,0 3.672,-0.216 5.4,-0.72 1.728,-0.432 3.24,-1.08 4.68,-1.944 1.44,-0.864 2.664,-1.872 3.744,-3.024 1.08,-1.152 1.944,-2.376 2.592,-3.816 l -5.472,-1.512 c -0.432,1.008 -1.008,1.872 -1.728,2.592 -0.72,0.792 -1.584,1.44 -2.52,1.944 -1.008,0.576 -2.016,1.008 -3.096,1.296 -1.152,0.288 -2.232,0.432 -3.384,0.432 -1.656,0 -3.24,-0.288 -4.68,-0.936 -1.44,-0.576 -2.736,-1.44 -3.888,-2.592 -1.152,-1.08 -2.088,-2.376 -2.808,-3.96 -0.72,-1.512 -1.152,-3.24 -1.296,-5.112 h 31.176 c 0,-0.216 0.072,-0.576 0.072,-1.008 0,-0.432 0.072,-0.864 0.072,-1.44 0,-2.448 -0.504,-4.896 -1.368,-7.2 -0.864,-2.304 -2.16,-4.392 -3.744,-6.12 -1.656,-1.728 -3.672,-3.168 -5.976,-4.248 -2.304,-1.008 -4.896,-1.584 -7.704,-1.584 -2.88,0 -5.472,0.576 -7.776,1.584 -2.376,1.008 -4.392,2.448 -6.12,4.176 -1.728,1.8 -3.024,3.888 -3.96,6.192 -0.936,2.376 -1.368,4.896 -1.368,7.488 0,2.664 0.432,5.184 1.368,7.56 0.936,2.376 2.232,4.464 3.96,6.192 1.656,1.8 3.672,3.24 6.048,4.248 2.304,1.008 4.896,1.512 7.776,1.512 z m 12.888,-22.032 h -25.488 c 0.144,-1.728 0.504,-3.384 1.224,-4.896 0.72,-1.44 1.584,-2.736 2.736,-3.816 1.152,-1.08 2.448,-1.944 3.96,-2.52 1.44,-0.576 3.024,-0.936 4.752,-0.936 1.656,0 3.24,0.36 4.752,0.936 1.44,0.576 2.736,1.44 3.888,2.448 1.152,1.08 2.088,2.376 2.808,3.888 0.72,1.512 1.224,3.168 1.368,4.896 z" transform="translate(0 278.9219763442537) translate(628.9208313964109 84.48135431452266) scale(1.2464699431870983) translate(-598.4045 -81.768)"></path> 
   <path id="path971680" style="font-style: normal; font-weight: 500; font-size: 72px; line-height: 1; font-family: &quot;Raleway Medium Alt1&quot;; font-variant-ligatures: none; text-align: center; text-anchor: middle; fill: rgb(119, 119, 119);" d="m 656.70987,120.72 c 4.536,0 8.136,-1.008 10.872,-3.096 2.664,-2.016 4.032,-4.824 4.032,-8.352 0,-1.584 -0.36,-2.88 -0.936,-4.032 -0.576,-1.08 -1.51199,-2.016 -2.736,-2.88 -1.22399,-0.792 -2.736,-1.512 -4.60799,-2.088 -1.87201,-0.576 -4.03201,-1.224 -6.48,-1.8 -1.58401,-0.36 -2.952,-0.72 -4.10401,-1.08 -1.15199,-0.288 -2.016,-0.72 -2.736,-1.152 -0.72,-0.432 -1.29599,-0.936 -1.58399,-1.512 -0.288,-0.576 -0.432,-1.296 -0.432,-2.16 0,-2.16 0.792,-3.672 2.37599,-4.68 1.584,-1.008 3.60001,-1.512 5.904,-1.512 2.016,0 4.03201,0.36 6.048,1.08 1.944,0.72 3.74401,1.728 5.328,3.096 l 2.88,-3.816 c -1.72799,-1.44 -3.74399,-2.664 -6.192,-3.6 -2.448,-0.864 -5.112,-1.368 -7.92,-1.368 -2.01599,0 -3.96,0.288 -5.688,0.792 -1.728,0.504 -3.24,1.224 -4.536,2.232 -1.29599,1.008 -2.376,2.232 -3.096,3.672 -0.71999,1.44 -1.07999,3.096 -1.07999,4.968 0,1.512 0.216,2.736 0.72,3.744 0.43199,1.008 1.22399,1.872 2.304,2.592 1.00799,0.72 2.37599,1.368 4.03199,1.872 1.584,0.576 3.528,1.08 5.83201,1.656 1.72799,0.432 3.31199,0.864 4.67999,1.224 1.296,0.432 2.448,0.864 3.31201,1.296 0.864,0.504 1.51199,1.08 1.94399,1.728 0.432,0.648 0.648,1.44 0.648,2.304 0,2.016 -0.864,3.528 -2.44799,4.608 -1.58401,1.08 -3.74401,1.584 -6.48001,1.584 -2.44799,0 -4.82399,-0.36 -6.984,-1.224 -2.232,-0.864 -4.46399,-2.088 -6.624,-3.816 l -2.736,4.248 c 2.08801,1.8 4.60801,3.168 7.56001,4.104 2.87999,0.936 5.90399,1.368 8.92799,1.368 z" transform="translate(0 278.9219763442537) translate(684.7843360341061 84.48135431452266) scale(1.2464699431870983) translate(-640.22187 -81.768)"></path> 
   <path id="path971682" style="font-style: normal; font-weight: 500; font-size: 72px; line-height: 1; font-family: &quot;Raleway Medium Alt1&quot;; font-variant-ligatures: none; text-align: center; text-anchor: middle; fill: rgb(119, 119, 119);" d="m 692.288,120.72 c 4.536,0 8.136,-1.008 10.872,-3.096 2.664,-2.016 4.032,-4.824 4.032,-8.352 0,-1.584 -0.36,-2.88 -0.936,-4.032 -0.576,-1.08 -1.512,-2.016 -2.736,-2.88 -1.224,-0.792 -2.736,-1.512 -4.608,-2.088 -1.872,-0.576 -4.032,-1.224 -6.48,-1.8 -1.584,-0.36 -2.952,-0.72 -4.104,-1.08 -1.152,-0.288 -2.016,-0.72 -2.736,-1.152 -0.72,-0.432 -1.296,-0.936 -1.584,-1.512 -0.288,-0.576 -0.432,-1.296 -0.432,-2.16 0,-2.16 0.792,-3.672 2.376,-4.68 1.584,-1.008 3.6,-1.512 5.904,-1.512 2.016,0 4.032,0.36 6.048,1.08 1.944,0.72 3.744,1.728 5.328,3.096 l 2.88,-3.816 c -1.728,-1.44 -3.744,-2.664 -6.192,-3.6 -2.448,-0.864 -5.112,-1.368 -7.92,-1.368 -2.016,0 -3.96,0.288 -5.688,0.792 -1.728,0.504 -3.24,1.224 -4.536,2.232 -1.296,1.008 -2.376,2.232 -3.096,3.672 -0.72,1.44 -1.08,3.096 -1.08,4.968 0,1.512 0.216,2.736 0.72,3.744 0.432,1.008 1.224,1.872 2.304,2.592 1.008,0.72 2.376,1.368 4.032,1.872 1.584,0.576 3.528,1.08 5.832,1.656 1.728,0.432 3.312,0.864 4.68,1.224 1.296,0.432 2.448,0.864 3.312,1.296 0.864,0.504 1.512,1.08 1.944,1.728 0.432,0.648 0.648,1.44 0.648,2.304 0,2.016 -0.864,3.528 -2.448,4.608 -1.584,1.08 -3.744,1.584 -6.48,1.584 -2.448,0 -4.824,-0.36 -6.984,-1.224 -2.232,-0.864 -4.464,-2.088 -6.624,-3.816 l -2.736,4.248 c 2.088,1.8 4.608,3.168 7.56,4.104 2.88,0.936 5.904,1.368 8.928,1.368 z" transform="translate(0 278.9219763442537) translate(732.8708155434705 84.48135431452266) scale(1.2464699431870983) translate(-675.8 -81.768)"></path> 
  </g> 
  <g id="tagline" style="font-style:oblique;font-weight:600;font-size:32px;line-height:1;font-family:Raleway;font-variant-ligatures:none;text-align:center;text-anchor:middle"></g> 
 </g> 
</svg>