<svg xmlns:dc="http://purl.org/dc/elements/1.1/" xmlns:cc="http://creativecommons.org/ns#" xmlns:rdf="http://www.w3.org/1999/02/22-rdf-syntax-ns#" xmlns:svg="http://www.w3.org/2000/svg" xmlns="http://www.w3.org/2000/svg" id="svg78748" viewbox="0 0 1024 768" height="768px" width="1024px" version="1.1"> <metadata id="metadata78754"> 
  <rdf:rdf> 
   <cc:work rdf:about=""> 
    <dc:format>
     image/svg+xml
    </dc:format> 
    <dc:type rdf:resource="http://purl.org/dc/dcmitype/StillImage"></dc:type> 
   </cc:work> 
  </rdf:rdf> 
 </metadata> <defs id="defs78752"></defs> <g id="logo-group"> 
  <g id="title" style="font-style:normal;font-weight:700;font-size:72px;line-height:1;font-family:'Brandmark1 Bold';font-variant-ligatures:none;text-align:center;text-anchor:middle" aria-label="o7grey"> 
   <path id="path78756" style="font-style: normal; font-weight: 700; font-size: 72px; line-height: 1; font-family: &quot;Brandmark1 Bold&quot;; font-variant-ligatures: none; text-align: center; text-anchor: middle; fill: rgb(255, 255, 255);" d="m 424.89012,123.024 c 2.736,0 5.472,-0.576 7.992,-1.584 2.448,-1.08 4.68,-2.52 6.552,-4.392 1.872,-1.944 3.312,-4.104 4.392,-6.552 1.08,-2.52 1.584,-5.256 1.584,-7.992 0,-2.808 -0.504,-5.472 -1.584,-7.992 -1.08,-2.448 -2.52,-4.68 -4.392,-6.552 -1.944,-1.872 -4.104,-3.312 -6.552,-4.392 -2.52,-1.08 -5.256,-1.584 -7.992,-1.584 -2.73599,0 -5.472,0.504 -7.992,1.584 -2.44799,1.08 -4.608,2.52 -6.552,4.392 -1.87199,1.944 -3.31199,4.104 -4.392,6.552 -1.008,2.52 -1.584,5.184 -1.584,7.992 0,2.736 0.576,5.472 1.584,7.992 1.08001,2.448 2.52001,4.608 4.392,6.552 1.944,1.872 4.10401,3.312 6.552,4.392 2.52,1.008 5.25601,1.584 7.992,1.584 z m 0,-30.24 c 5.328,0 9.72,4.392 9.72,9.72 0,5.328 -4.392,9.72 -9.72,9.72 -5.328,0 -9.72,-4.392 -9.72,-9.72 0,-5.328 4.392,-9.72 9.72,-9.72 z" transform="translate(0 156.52521467808407) translate(252.00000000000006 177.50662127760893) scale(2.384887554615644) translate(-404.37012 -81.984)"></path> 
   <path id="path78758" style="font-style: normal; font-weight: 700; font-size: 72px; line-height: 1; font-family: &quot;Brandmark1 Bold&quot;; font-variant-ligatures: none; text-align: center; text-anchor: middle; fill: rgb(255, 255, 255);" d="m 447.74,121.512 11.16,2.232 20.592,-48.384 V 68.016 H 443.78 V 78.6 h 22.536 z" transform="translate(0 156.52521467808407) translate(345.98813234089596 144.19451191473763) scale(2.384887554615644) translate(-443.78 -68.016)"></path> 
   <path id="path78760" style="font-style: normal; font-weight: 700; font-size: 72px; line-height: 1; font-family: &quot;Brandmark1 Bold&quot;; font-variant-ligatures: none; text-align: center; text-anchor: middle; fill: rgb(115, 78, 63);" d="m 511.90438,87.888 c -3.81601,-3.816 -8.928,-5.904 -14.25601,-5.904 -5.4,0 -10.512,2.088 -14.32799,5.904 -3.81601,3.816 -5.904,8.856 -5.904,14.256 0,5.4 2.08799,10.44 5.904,14.256 3.81599,3.816 8.92799,5.904 14.32799,5.904 3.168,0 6.264,-0.72 9,-2.088 -1.08,3.96 -4.752,6.84 -9,6.84 -2.448,0 -4.752,-0.936 -6.47999,-2.592 l -7.488,7.848 c 3.81599,3.6 8.712,5.544 13.89599,5.544 5.40001,0 10.512,-2.088 14.32801,-5.904 3.81599,-3.816 5.90399,-8.856 5.90399,-14.256 v -15.552 c 0,-5.4 -2.088,-10.44 -5.90399,-14.256 z m -14.25601,23.616 c -5.18399,0 -9.432,-4.176 -9.432,-9.36 0,-5.184 4.24801,-9.432 9.432,-9.432 5.18401,0 9.36,4.248 9.36,9.432 0,5.184 -4.248,9.36 -9.36,9.36 z" transform="translate(0 156.52521467808407) translate(426.2071163852186 177.50662127760893) scale(2.384887554615644) translate(-477.41638 -81.984)"></path> 
   <path id="path78762" style="font-style: normal; font-weight: 700; font-size: 72px; line-height: 1; font-family: &quot;Brandmark1 Bold&quot;; font-variant-ligatures: none; text-align: center; text-anchor: middle; fill: rgb(115, 78, 63);" d="m 533.90825,122.52 v 0 -17.712 c 0,-6.912 5.616,-12.6 12.6,-12.6 v -10.8 c -3.168,0 -6.264,0.648 -9.144,1.872 -2.736,1.152 -5.256,2.88 -7.416,5.04 -2.16,2.088 -3.816,4.608 -5.04,7.416 -1.224,2.88 -1.8,5.904 -1.8,9.072 v 17.712 z" transform="translate(0 156.52521467808407) translate(535.1770884953346 176.13292604615037) scale(2.384887554615644) translate(-523.10825 -81.408)"></path> 
   <path id="path78764" style="font-style: normal; font-weight: 700; font-size: 72px; line-height: 1; font-family: &quot;Brandmark1 Bold&quot;; font-variant-ligatures: none; text-align: center; text-anchor: middle; fill: rgb(115, 78, 63);" d="m 564.50037,122.808 c 2.808,0 5.544,-0.576 8.13601,-1.728 2.52,-1.08 4.75199,-2.664 6.62399,-4.608 l -7.632,-7.2 c -1.87199,2.016 -4.392,3.096 -7.128,3.096 -3.52799,0 -6.62399,-1.872 -8.352,-4.608 h 28.58401 v -5.256 c 0,-5.4 -2.08801,-10.512 -5.904,-14.328 -3.816,-3.816 -8.92801,-5.976 -14.32801,-5.976 -5.472,0 -10.51199,2.16 -14.4,5.976 -3.816,3.816 -5.904,8.928 -5.904,14.328 0,5.4 2.088,10.512 5.904,14.328 3.88801,3.816 8.928,5.976 14.4,5.976 z m -8.352,-25.488 c 1.72801,-2.808 4.82401,-4.68 8.352,-4.68 3.456,0 6.552,1.872 8.35201,4.68 z" transform="translate(0 156.52521467808407) translate(585.469883433576 178.02175698940596) scale(2.384887554615644) translate(-544.19637 -82.2)"></path> 
   <path id="path78766" style="font-style: normal; font-weight: 700; font-size: 72px; line-height: 1; font-family: &quot;Brandmark1 Bold&quot;; font-variant-ligatures: none; text-align: center; text-anchor: middle; fill: rgb(115, 78, 63);" d="m 589.07375,136.776 h 11.448 l 21.888,-54.36 h -11.52 l -9.072,22.752 -9.648,-22.752 h -11.88 l 16.056,36.288 z" transform="translate(0 156.52521467808407) translate(671.5485361995892 178.53689270120293) scale(2.384887554615644) translate(-580.28975 -82.416)"></path> 
  </g> 
  <g id="tagline" style="font-style:normal;font-weight:400;font-size:32px;line-height:1;font-family:Montserrat;font-variant-ligatures:none;text-align:center;text-anchor:middle"></g> 
 </g> 
</svg>