<svg xmlns:dc="http://purl.org/dc/elements/1.1/" xmlns:cc="http://creativecommons.org/ns#" xmlns:rdf="http://www.w3.org/1999/02/22-rdf-syntax-ns#" xmlns:svg="http://www.w3.org/2000/svg" xmlns="http://www.w3.org/2000/svg" id="svg65761" viewbox="0 0 1024 768" height="768px" width="1024px" version="1.1"> <metadata id="metadata65767"> 
  <rdf:rdf> 
   <cc:work rdf:about=""> 
    <dc:format>
     image/svg+xml
    </dc:format> 
    <dc:type rdf:resource="http://purl.org/dc/dcmitype/StillImage"></dc:type> 
   </cc:work> 
  </rdf:rdf> 
 </metadata> <defs id="defs65765"></defs> <g id="logo-group"> 
  <g id="title" style="font-style:oblique;font-weight:700;font-size:72px;line-height:1;font-family:Averta;font-variant-ligatures:none;text-align:center;text-anchor:middle" aria-label="O7GIANT"> 
   <path id="path65769" style="font-style: oblique; font-weight: 700; font-size: 72px; line-height: 1; font-family: Averta; font-variant-ligatures: none; text-align: center; text-anchor: middle; fill: rgb(39, 43, 60);" d="m 392.75956,120.648 c 17.208,0 27.144,-14.04 27.144,-30.888 0,-13.608 -8.424,-21.528 -20.88,-21.528 -16.488,0 -27.072,14.472 -27.072,30.744 0,13.752 8.28,21.672 20.808,21.672 z m 0.864,-10.8 c -5.544,0 -9.648,-3.672 -9.648,-11.592 0,-9.936 5.904,-19.296 13.968,-19.296 5.76,0 9.936,3.528 9.936,11.448 0,10.728 -5.832,19.44 -14.256,19.44 z" transform="translate(0 246.4434329816858) translate(252.00000000000006 94.02421493678045) scale(1.6452136085235731) translate(-371.95156 -68.232)"></path> 
   <path id="path65771" style="font-style: oblique; font-weight: 700; font-size: 72px; line-height: 1; font-family: Averta; font-variant-ligatures: none; text-align: center; text-anchor: middle; fill: rgb(39, 43, 60);" d="m 453.78069,70.536 h -27.864 l -1.224,10.08 h 15.48 l -17.568,38.52 11.088,2.016 19.224,-43.344 z" transform="translate(0 246.4434329816858) translate(343.5612868329316 97.81478709081875) scale(1.6452136085235731) translate(-422.60469 -70.536)"></path> 
   <path id="path65773" style="font-style: oblique; font-weight: 700; font-size: 72px; line-height: 1; font-family: Averta; font-variant-ligatures: none; text-align: center; text-anchor: middle; fill: rgb(33, 117, 185);" d="m 475.30981,120.648 c 7.272,0 14.616,-2.592 19.224,-6.192 l 2.664,-22.896 h -19.512 l -1.224,9.648 h 8.496 l -0.936,6.336 c -2.808,1.8 -5.256,2.448 -7.92,2.448 -5.976,0 -9.648,-3.888 -9.648,-11.376 0,-10.08 5.688,-19.584 14.184,-19.584 4.176,0 7.344,2.304 9.216,5.184 l 8.928,-6.768 c -3.672,-6.12 -10.368,-9.216 -17.496,-9.216 -16.128,0 -26.928,13.896 -26.928,31.032 0,14.472 9.216,21.384 20.952,21.384 z" transform="translate(0 246.4434329816858) translate(404.0280200126315 94.02421493678045) scale(1.6452136085235731) translate(-454.35781 -68.232)"></path> 
   <path id="path65775" style="font-style: oblique; font-weight: 700; font-size: 72px; line-height: 1; font-family: Averta; font-variant-ligatures: none; text-align: center; text-anchor: middle; fill: rgb(33, 117, 185);" d="m 509.05531,68.88 -6.264,51.12 h 11.664 l 6.264,-51.12 z" transform="translate(0 246.4434329816858) translate(491.9375413636759 95.09031335510369) scale(1.6452136085235731) translate(-502.79131 -68.88)"></path> 
   <path id="path65777" style="font-style: oblique; font-weight: 700; font-size: 72px; line-height: 1; font-family: Averta; font-variant-ligatures: none; text-align: center; text-anchor: middle; fill: rgb(33, 117, 185);" d="m 543.15744,68.88 -23.04,51.12 h 12.096 l 3.672,-9.432 h 15.336 l 1.584,9.432 h 11.952 l -10.512,-51.12 z m 6.552,31.968 h -10.152 l 6.984,-17.928 h 0.144 z" transform="translate(0 246.4434329816858) translate(528.6687942653422 95.09031335510369) scale(1.6452136085235731) translate(-520.11744 -68.88)"></path> 
   <path id="path65779" style="font-style: oblique; font-weight: 700; font-size: 72px; line-height: 1; font-family: Averta; font-variant-ligatures: none; text-align: center; text-anchor: middle; fill: rgb(33, 117, 185);" d="m 576.47656,68.88 -6.264,51.12 h 11.16 l 3.888,-30.888 h 0.216 l 13.176,30.888 h 11.16 l 6.336,-51.12 h -11.232 l -3.888,31.608 -0.216,0.072 -13.536,-31.68 z" transform="translate(0 246.4434329816858) translate(619.3120354525817 95.09031335510369) scale(1.6452136085235731) translate(-570.21256 -68.88)"></path> 
   <path id="path65781" style="font-style: oblique; font-weight: 700; font-size: 72px; line-height: 1; font-family: Averta; font-variant-ligatures: none; text-align: center; text-anchor: middle; fill: rgb(33, 117, 185);" d="m 633.32394,79.176 -5.04,40.824 h 11.52 l 5.04,-40.824 h 11.88 l 1.296,-10.296 h -35.352 l -1.296,10.296 z" transform="translate(0 246.4434329816858) translate(711.7062116748282 95.09031335510369) scale(1.6452136085235731) translate(-621.37194 -68.88)"></path> 
  </g> 
  <g id="tagline" style="font-style:normal;font-weight:500;font-size:32px;line-height:1;font-family:Raleway;font-variant-ligatures:none;text-align:center;text-anchor:middle"></g> 
 </g> 
</svg>