<svg xmlns:dc="http://purl.org/dc/elements/1.1/" xmlns:cc="http://creativecommons.org/ns#" xmlns:rdf="http://www.w3.org/1999/02/22-rdf-syntax-ns#" xmlns:svg="http://www.w3.org/2000/svg" xmlns="http://www.w3.org/2000/svg" id="svg508530" viewbox="0 0 1024 768" height="768px" width="1024px" version="1.1"> <metadata id="metadata508536"> 
  <rdf:rdf> 
   <cc:work rdf:about=""> 
    <dc:format>
     image/svg+xml
    </dc:format> 
    <dc:type rdf:resource="http://purl.org/dc/dcmitype/StillImage"></dc:type> 
   </cc:work> 
  </rdf:rdf> 
 </metadata> <defs id="defs508534"></defs> <g id="logo-group"> 
  <g id="title" style="font-style:oblique;font-weight:700;font-size:72px;line-height:1;font-family:Averta;font-variant-ligatures:none;text-align:center;text-anchor:middle" aria-label="o7Glad"> 
   <path id="path508538" style="font-style: oblique; font-weight: 700; font-size: 72px; line-height: 1; font-family: Averta; font-variant-ligatures: none; text-align: center; text-anchor: middle; fill: rgb(145, 248, 225);" d="m 421.62313,120.648 c 13.464,0 19.584,-10.008 19.584,-21.456 0,-9.576 -5.976,-15.048 -15.048,-15.048 -12.38401,0 -19.44,10.08 -19.44,21.384 0,9.648 5.976,15.12 14.904,15.12 z M 422.41512,111 c -2.30399,0 -4.752,-1.872 -4.752,-6.048 0,-5.4 2.88,-11.16 7.632,-11.16 1.944,0 4.968,1.08 4.968,6.12 0,5.76 -3.096,11.088 -7.848,11.088 z" transform="translate(0 195.97034086002026) translate(252 166.37517166958395) scale(2.179396887117132) translate(-406.71913 -84.144)"></path> 
   <path id="path508540" style="font-style: oblique; font-weight: 700; font-size: 72px; line-height: 1; font-family: Averta; font-variant-ligatures: none; text-align: center; text-anchor: middle; fill: rgb(145, 248, 225);" d="m 474.80412,70.536 h -27.86399 l -1.22401,10.08 h 15.48 l -17.568,38.52 11.088,2.016 19.22401,-43.344 z" transform="translate(0 195.97034086002026) translate(343.336322348223 136.71793882969405) scale(2.179396887117132) translate(-443.62812 -70.536)"></path> 
   <path id="path508542" style="font-style: oblique; font-weight: 700; font-size: 72px; line-height: 1; font-family: Averta; font-variant-ligatures: none; text-align: center; text-anchor: middle; fill: rgb(255, 255, 255);" d="m 496.33325,120.648 c 7.272,0 14.616,-2.592 19.224,-6.192 l 2.664,-22.896 h -19.512 l -1.224,9.648 h 8.496 l -0.936,6.336 c -2.808,1.8 -5.256,2.448 -7.92,2.448 -5.976,0 -9.648,-3.888 -9.648,-11.376 0,-10.08 5.688,-19.584 14.184,-19.584 4.176,0 7.344,2.304 9.216,5.184 l 8.928,-6.768 c -3.672,-6.12 -10.368,-9.216 -17.496,-9.216 -16.128,0 -26.928,13.896 -26.928,31.032 0,14.472 9.216,21.384 20.952,21.384 z" transform="translate(0 195.97034086002026) translate(423.4359794620343 131.69660840177613) scale(2.179396887117132) translate(-475.38125 -68.232)"></path> 
   <path id="path508544" style="font-style: oblique; font-weight: 700; font-size: 72px; line-height: 1; font-family: Averta; font-variant-ligatures: none; text-align: center; text-anchor: middle; fill: rgb(255, 255, 255);" d="m 529.35875,67.008 -6.48,52.992 h 10.8 l 6.552,-52.992 z" transform="translate(0 195.97034086002026) translate(537.8488675434659 129.02902661194474) scale(2.179396887117132) translate(-522.87875 -67.008)"></path> 
   <path id="path508546" style="font-style: oblique; font-weight: 700; font-size: 72px; line-height: 1; font-family: Averta; font-variant-ligatures: none; text-align: center; text-anchor: middle; fill: rgb(255, 255, 255);" d="m 553.37638,120.648 c 3.95999,0 7.48799,-2.16 10.07999,-5.904 l 0.216,0.072 -0.648,5.184 h 10.87201 l 4.31999,-35.208 h -10.87199 l -0.28801,2.448 h -0.216 c -1.87199,-1.944 -4.60799,-3.096 -8.27999,-3.096 -9.216,0 -16.63201,9.576 -16.63201,22.104 0,8.136 3.888,14.4 11.44801,14.4 z m 3.45599,-9.576 c -2.448,0 -4.03199,-2.232 -4.03199,-5.616 0,-5.256 2.88,-11.664 7.63199,-11.664 2.232,0 4.24801,0.864 5.832,2.52 l -0.144,1.008 c -1.22399,8.856 -5.544,13.752 -9.288,13.752 z" transform="translate(0 195.97034086002026) translate(590.2625345078159 166.37517166958395) scale(2.179396887117132) translate(-541.92837 -84.144)"></path> 
   <path id="path508548" style="font-style: oblique; font-weight: 700; font-size: 72px; line-height: 1; font-family: Averta; font-variant-ligatures: none; text-align: center; text-anchor: middle; fill: rgb(255, 255, 255);" d="m 593.24525,120.648 c 4.032,0 7.488,-2.16 10.152,-5.904 l 0.216,0.072 -0.648,5.184 h 10.8 l 6.552,-52.992 h -10.872 l -2.448,20.232 h -0.216 c -2.088,-2.016 -4.968,-3.096 -8.424,-3.096 -9.216,0 -16.632,9.576 -16.632,22.104 0,8.136 3.888,14.4 11.52,14.4 z m 3.384,-9.576 c -2.448,0 -4.032,-2.232 -4.032,-5.616 0,-5.256 2.88,-11.664 7.632,-11.664 2.376,0 4.392,0.792 5.976,2.52 l -0.144,1.008 c -1.296,8.856 -5.616,13.752 -9.432,13.752 z" transform="translate(0 195.97034086002026) translate(687.8927153323755 129.02902661194474) scale(2.179396887117132) translate(-581.72525 -67.008)"></path> 
  </g> 
  <g id="tagline" style="font-style:normal;font-weight:500;font-size:32px;line-height:1;font-family:Raleway;font-variant-ligatures:none;text-align:center;text-anchor:middle"></g> 
 </g> 
</svg>