<svg xmlns:dc="http://purl.org/dc/elements/1.1/" xmlns:cc="http://creativecommons.org/ns#" xmlns:rdf="http://www.w3.org/1999/02/22-rdf-syntax-ns#" xmlns:svg="http://www.w3.org/2000/svg" xmlns="http://www.w3.org/2000/svg" id="svg43108" viewbox="0 0 1024 768" height="768px" width="1024px" version="1.1"> <metadata id="metadata43114"> 
  <rdf:rdf> 
   <cc:work rdf:about=""> 
    <dc:format>
     image/svg+xml
    </dc:format> 
    <dc:type rdf:resource="http://purl.org/dc/dcmitype/StillImage"></dc:type> 
   </cc:work> 
  </rdf:rdf> 
 </metadata> <defs id="defs43112"></defs> <g id="logo-group"> 
  <g id="title" style="font-style:normal;font-weight:700;font-size:72px;line-height:1;font-family:'Comfortaa Bold Alt2';font-variant-ligatures:none;text-align:center;text-anchor:middle" aria-label="o7Gadget"> 
   <path id="path43116" style="font-style: normal; font-weight: 700; font-size: 72px; line-height: 1; font-family: &quot;Comfortaa Bold Alt2&quot;; font-variant-ligatures: none; text-align: center; text-anchor: middle; fill: rgb(138, 234, 248);" d="m 359.28744,120.288 c 5.544,0 10.224,-1.944 14.112,-5.832 3.888,-3.888 5.904,-8.568 5.904,-14.112 0,-5.544 -2.016,-10.224 -5.904,-14.112 -3.888,-3.888 -8.568,-5.904 -14.112,-5.904 -5.544,0 -10.224,2.016 -14.112,5.904 -3.888,3.888 -5.832,8.568 -5.832,14.112 0,5.544 1.944,10.224 5.832,14.112 3.888,3.888 8.568,5.832 14.112,5.832 z m 0,-33.048 c 3.6,0 6.696,1.296 9.288,3.816 2.52,2.592 3.816,5.688 3.816,9.288 0,3.6 -1.296,6.696 -3.816,9.216 -2.592,2.592 -5.688,3.816 -9.288,3.816 -3.6,0 -6.696,-1.224 -9.216,-3.816 -2.592,-2.52 -3.816,-5.616 -3.816,-9.216 0,-3.6 1.224,-6.696 3.816,-9.288 2.52,-2.52 5.616,-3.816 9.216,-3.816 z" transform="translate(0 247.43563011911863) translate(252.0000000000001 107.29592550554128) scale(1.4972603015827766) translate(-339.34344 -80.328)"></path> 
   <path id="path43118" style="font-style: normal; font-weight: 700; font-size: 72px; line-height: 1; font-family: &quot;Comfortaa Bold Alt2&quot;; font-variant-ligatures: none; text-align: center; text-anchor: middle; fill: rgb(138, 234, 248);" d="m 382.77631,70.104 c 0.72,0.72 1.584,1.008 2.664,1.008 h 21.888 l -20.664,42.912 c -0.432,0.864 -0.648,1.656 -0.648,2.304 0,1.008 0.36,1.872 1.08,2.592 0.72,0.72 1.512,1.08 2.52,1.08 0.648,0 1.296,-0.144 1.944,-0.504 0.576,-0.36 1.08,-0.864 1.44,-1.512 l 23.04,-48.6 c 0.288,-0.72 0.504,-1.368 0.504,-1.944 0,-1.008 -0.36,-1.872 -1.08,-2.592 -0.72,-0.72 -1.584,-1.08 -2.592,-1.08 h -27.432 c -1.08,0 -1.944,0.36 -2.664,1.08 -0.72,0.72 -1.008,1.584 -1.008,2.592 0,1.08 0.288,1.944 1.008,2.664 z" transform="translate(0 247.43563011911863) translate(315.52107365081025 82.50129491133049) scale(1.4972603015827766) translate(-381.76831 -63.768)"></path> 
   <path id="path43120" style="font-style: normal; font-weight: 700; font-size: 72px; line-height: 1; font-family: &quot;Comfortaa Bold Alt2&quot;; font-variant-ligatures: none; text-align: center; text-anchor: middle; fill: rgb(138, 234, 248);" d="m 447.38394,120.864 c 5.904,0 11.304,-1.656 16.2,-4.968 1.008,-0.72 1.584,-1.656 1.584,-2.952 v -20.16 c 0,-1.008 -0.36,-1.8 -1.08,-2.52 -0.72,-0.72 -1.584,-1.08 -2.52,-1.08 h -13.752 c -0.936,0 -1.8,0.36 -2.52,1.08 -0.72,0.72 -1.08,1.512 -1.08,2.52 0,1.008 0.36,1.872 1.08,2.592 0.72,0.648 1.584,1.008 2.52,1.008 h 10.152 v 14.544 c -3.312,1.8 -6.84,2.736 -10.584,2.736 -6.048,0 -11.16,-2.16 -15.408,-6.408 -4.248,-4.176 -6.336,-9.36 -6.336,-15.336 0,-5.976 2.088,-11.16 6.336,-15.408 4.248,-4.248 9.36,-6.336 15.408,-6.336 4.752,0 9.072,1.44 12.96,4.248 0.792,0.648 1.656,0.864 2.664,0.72 1.008,-0.144 1.8,-0.648 2.376,-1.44 0.576,-0.792 0.792,-1.656 0.648,-2.664 -0.144,-1.008 -0.576,-1.8 -1.368,-2.376 -5.184,-3.816 -10.872,-5.688 -17.28,-5.688 -3.96,0 -7.704,0.792 -11.304,2.304 -3.456,1.44 -6.48,3.528 -9.144,6.192 -2.736,2.664 -4.752,5.688 -6.264,9.144 -1.512,3.6 -2.232,7.344 -2.232,11.304 0,3.96 0.72,7.704 2.232,11.232 1.512,3.528 3.528,6.552 6.264,9.216 2.664,2.664 5.688,4.752 9.144,6.192 3.6,1.512 7.344,2.304 11.304,2.304 z" transform="translate(0 247.43563011911863) translate(370.42804944414223 81.31546475247694) scale(1.4972603015827766) translate(-418.43994 -62.976)"></path> 
   <path id="path43122" style="font-style: normal; font-weight: 700; font-size: 72px; line-height: 1; font-family: &quot;Comfortaa Bold Alt2&quot;; font-variant-ligatures: none; text-align: center; text-anchor: middle; fill: rgb(138, 234, 248);" d="m 505.79619,86.232 c -3.888,-3.888 -8.568,-5.904 -14.112,-5.904 -5.472,0 -10.224,2.016 -14.112,5.904 -3.888,3.888 -5.832,8.568 -5.832,14.112 0,5.544 1.944,10.224 5.832,14.112 3.888,3.888 8.64,5.832 14.112,5.832 4.968,0 9.36,-1.584 13.104,-4.824 v 1.368 c 0,1.008 0.288,1.8 1.008,2.448 0.648,0.72 1.44,1.008 2.448,1.008 0.936,0 1.728,-0.288 2.448,-1.008 0.648,-0.648 1.008,-1.44 1.008,-2.448 v -16.488 c 0,-5.544 -1.944,-10.224 -5.904,-14.112 z m -14.112,27.144 c -3.6,0 -6.696,-1.224 -9.216,-3.816 -2.592,-2.52 -3.816,-5.616 -3.816,-9.216 0,-3.6 1.224,-6.696 3.816,-9.216 2.52,-2.592 5.616,-3.888 9.216,-3.888 3.6,0 6.696,1.296 9.216,3.888 2.592,2.52 3.888,5.616 3.888,9.216 0,3.6 -1.296,6.696 -3.888,9.216 -2.52,2.592 -5.616,3.816 -9.216,3.816 z" transform="translate(0 247.43563011911863) translate(450.2323978335796 107.29592550554128) scale(1.4972603015827766) translate(-471.74019 -80.328)"></path> 
   <path id="path43124" style="font-style: normal; font-weight: 700; font-size: 72px; line-height: 1; font-family: &quot;Comfortaa Bold Alt2&quot;; font-variant-ligatures: none; text-align: center; text-anchor: middle; fill: rgb(138, 234, 248);" d="m 526.15644,114.456 c 3.888,3.96 8.568,5.904 14.112,5.904 5.544,0 10.224,-1.944 14.112,-5.904 3.888,-3.888 5.904,-8.568 5.904,-14.112 v -33.12 c 0,-0.936 -0.36,-1.728 -1.08,-2.448 -0.648,-0.648 -1.44,-1.008 -2.376,-1.008 -1.008,0 -1.8,0.36 -2.448,1.008 -0.72,0.72 -1.008,1.512 -1.008,2.448 v 18 c -3.744,-3.24 -8.136,-4.824 -13.104,-4.824 -5.544,0 -10.224,1.944 -14.112,5.832 -3.888,3.888 -5.832,8.64 -5.832,14.112 0,5.544 1.944,10.224 5.832,14.112 z m 14.112,-27.144 c 3.6,0 6.696,1.296 9.216,3.816 2.592,2.52 3.888,5.616 3.888,9.216 0,3.6 -1.296,6.696 -3.888,9.288 -2.52,2.52 -5.616,3.816 -9.216,3.816 -3.6,0 -6.696,-1.296 -9.216,-3.816 -2.592,-2.592 -3.816,-5.688 -3.816,-9.288 0,-3.6 1.224,-6.696 3.816,-9.216 2.52,-2.52 5.616,-3.816 9.216,-3.816 z" transform="translate(0 247.43563011911863) translate(522.9756666407527 82.50129491133049) scale(1.4972603015827766) translate(-520.32444 -63.768)"></path> 
   <path id="path43126" style="font-style: normal; font-weight: 700; font-size: 72px; line-height: 1; font-family: &quot;Comfortaa Bold Alt2&quot;; font-variant-ligatures: none; text-align: center; text-anchor: middle; fill: rgb(138, 234, 248);" d="m 611.05344,100.272 c 0,-5.544 -2.016,-10.224 -5.904,-14.184 -3.96,-3.888 -8.64,-5.904 -14.184,-5.904 -5.544,0 -10.224,2.016 -14.184,5.904 -3.888,3.96 -5.832,8.64 -5.832,14.184 0,5.544 1.944,10.224 5.832,14.184 3.96,3.888 8.64,5.832 14.184,5.832 4.968,0 9.288,-1.584 13.104,-4.824 v 1.368 c 0,3.6 -1.296,6.696 -3.816,9.216 -2.592,2.592 -5.688,3.816 -9.288,3.816 -2.232,0 -4.32,-0.504 -6.264,-1.584 -1.944,-1.008 -3.528,-2.52 -4.68,-4.392 -0.576,-0.792 -1.296,-1.296 -2.232,-1.44 -0.936,-0.216 -1.8,-0.072 -2.592,0.432 -0.792,0.504 -1.296,1.224 -1.512,2.16 -0.216,0.936 0,1.8 0.504,2.592 1.224,1.944 2.736,3.6 4.464,4.968 1.728,1.368 3.672,2.376 5.76,3.096 2.088,0.72 4.32,1.08 6.552,1.08 5.544,0 10.224,-1.944 14.112,-5.832 3.888,-3.888 5.904,-8.568 5.904,-14.112 V 102 c 0,-0.576 0.072,-1.152 0.072,-1.728 z m -20.088,12.96 c -3.6,0 -6.624,-1.224 -9.144,-3.816 -2.592,-2.52 -3.816,-5.544 -3.816,-9.144 0,-3.6 1.224,-6.624 3.816,-9.216 2.52,-2.52 5.544,-3.816 9.144,-3.816 3.6,0 6.624,1.296 9.216,3.816 2.52,2.592 3.816,5.616 3.816,9.216 0,3.6 -1.296,6.624 -3.816,9.144 -2.592,2.592 -5.616,3.816 -9.216,3.816 z" transform="translate(0 247.43563011911863) translate(598.7744694083807 107.08032002211337) scale(1.4972603015827766) translate(-570.94944 -80.184)"></path> 
   <path id="path43128" style="font-style: normal; font-weight: 700; font-size: 72px; line-height: 1; font-family: &quot;Comfortaa Bold Alt2&quot;; font-variant-ligatures: none; text-align: center; text-anchor: middle; fill: rgb(138, 234, 248);" d="m 638.82969,120.288 c 4.752,0 8.928,-1.44 12.6,-4.464 0.792,-0.576 1.152,-1.368 1.296,-2.304 0.072,-1.008 -0.144,-1.8 -0.792,-2.592 -0.576,-0.72 -1.368,-1.152 -2.304,-1.224 -0.936,-0.072 -1.8,0.144 -2.52,0.792 -2.448,1.944 -5.184,2.88 -8.28,2.88 -3.6,0 -6.696,-1.224 -9.216,-3.816 -2.592,-2.52 -3.816,-5.616 -3.816,-9.216 0,-3.6 1.224,-6.696 3.816,-9.288 2.52,-2.52 5.616,-3.816 9.216,-3.816 2.952,0 5.616,0.936 7.992,2.736 2.304,1.8 3.816,4.104 4.608,6.912 h -12.6 c -0.936,0 -1.8,0.36 -2.448,1.008 -0.648,0.648 -1.008,1.512 -1.008,2.448 0,0.936 0.36,1.8 1.008,2.448 0.648,0.648 1.512,1.008 2.448,1.008 h 16.56 c 0.936,0 1.728,-0.36 2.376,-1.008 0.72,-0.648 1.08,-1.512 1.08,-2.448 0,-5.544 -2.016,-10.224 -5.904,-14.112 -3.888,-3.888 -8.568,-5.904 -14.112,-5.904 -5.544,0 -10.224,2.016 -14.112,5.904 -3.888,3.888 -5.832,8.568 -5.832,14.112 0,5.544 1.944,10.224 5.832,14.112 3.888,3.888 8.568,5.832 14.112,5.832 z" transform="translate(0 247.43563011911863) translate(670.547513540128 107.29592550554128) scale(1.4972603015827766) translate(-618.88569 -80.328)"></path> 
   <path id="path43130" style="font-style: normal; font-weight: 700; font-size: 72px; line-height: 1; font-family: &quot;Comfortaa Bold Alt2&quot;; font-variant-ligatures: none; text-align: center; text-anchor: middle; fill: rgb(138, 234, 248);" d="m 683.04444,112.8 c -2.088,0 -3.888,-0.72 -5.328,-2.232 -1.512,-1.44 -2.232,-3.24 -2.232,-5.328 V 88.32 h 6.408 c 0.864,0 1.656,-0.288 2.304,-0.936 0.576,-0.576 0.936,-1.368 0.936,-2.304 0,-0.864 -0.36,-1.656 -0.936,-2.304 -0.648,-0.576 -1.44,-0.936 -2.304,-0.936 h -6.408 V 71.688 c 0,-1.008 -0.36,-1.8 -1.08,-2.52 -0.72,-0.72 -1.512,-1.08 -2.52,-1.08 -1.008,0 -1.872,0.36 -2.592,1.08 -0.72,0.72 -1.008,1.512 -1.008,2.52 v 33.552 c 0,4.104 1.44,7.56 4.32,10.44 2.88,2.88 6.336,4.32 10.44,4.32 1.008,0 1.8,-0.288 2.52,-1.008 0.72,-0.72 1.08,-1.584 1.08,-2.592 0,-1.008 -0.36,-1.8 -1.08,-2.52 -0.72,-0.72 -1.512,-1.08 -2.52,-1.08 z" transform="translate(0 247.43563011911863) translate(744.5103008629402 88.96945941416809) scale(1.4972603015827766) translate(-668.28444 -68.088)"></path> 
  </g> 
  <g id="tagline" style="font-style:normal;font-weight:500;font-size:32px;line-height:1;font-family:Raleway;font-variant-ligatures:none;text-align:center;text-anchor:middle"></g> 
 </g> 
</svg>