<svg xmlns:dc="http://purl.org/dc/elements/1.1/" xmlns:cc="http://creativecommons.org/ns#" xmlns:rdf="http://www.w3.org/1999/02/22-rdf-syntax-ns#" xmlns:svg="http://www.w3.org/2000/svg" xmlns="http://www.w3.org/2000/svg" id="svg648552" viewbox="0 0 1024 768" height="768px" width="1024px" version="1.1"> <metadata id="metadata648558"> 
  <rdf:rdf> 
   <cc:work rdf:about=""> 
    <dc:format>
     image/svg+xml
    </dc:format> 
    <dc:type rdf:resource="http://purl.org/dc/dcmitype/StillImage"></dc:type> 
   </cc:work> 
  </rdf:rdf> 
 </metadata> <defs id="defs648556"></defs> <g id="logo-group"> 
  <g id="title" style="font-style:normal;font-weight:200;font-size:72px;line-height:1;font-family:Montserrat;font-variant-ligatures:none;text-align:center;text-anchor:middle" aria-label="O7GORGEOUS"> 
   <path id="path648560" style="font-style: normal; font-weight: 200; font-size: 72px; line-height: 1; font-family: Montserrat; font-variant-ligatures: none; text-align: center; text-anchor: middle; fill: rgb(52, 52, 52);" d="m 279.95581,69.384 q 6.984,0 12.888,3.456 5.976,3.384 9.432,9.216 3.528,5.832 3.528,12.672 0,6.84 -3.528,12.744 -3.456,5.832 -9.432,9.288 -5.904,3.456 -12.888,3.456 -6.984,0 -12.96,-3.456 -5.904,-3.456 -9.432,-9.288 -3.456,-5.904 -3.456,-12.744 0,-6.84 3.456,-12.672 3.528,-5.832 9.432,-9.216 5.976,-3.456 12.96,-3.456 z m 0,1.44 q -6.552,0 -12.168,3.24 -5.616,3.24 -8.928,8.784 -3.312,5.472 -3.312,11.88 0,6.48 3.312,12.024 3.312,5.544 8.928,8.784 5.616,3.24 12.168,3.24 6.552,0 12.168,-3.24 5.616,-3.24 8.928,-8.784 3.312,-5.544 3.312,-12.024 0,-6.408 -3.312,-11.88 -3.312,-5.544 -8.928,-8.784 -5.616,-3.24 -12.168,-3.24 z" transform="translate(0 308.584) translate(241.57081000000005 50) scale(1) translate(-254.10781 -69.384)"></path> 
   <path id="path648562" style="font-style: normal; font-weight: 200; font-size: 72px; line-height: 1; font-family: Montserrat; font-variant-ligatures: none; text-align: center; text-anchor: middle; fill: rgb(52, 52, 52);" d="m 312.02169,69.672 h 35.496 v 1.8 L 322.89369,120 h -1.584 l 24.912,-48.888 h -32.76 v 8.064 h -1.44 z" transform="translate(0 308.584) translate(302.48469000000006 50.288) scale(1) translate(-312.02169 -69.672)"></path> 
   <path id="path648564" style="font-style: normal; font-weight: 200; font-size: 72px; line-height: 1; font-family: Montserrat; font-variant-ligatures: none; text-align: center; text-anchor: middle; fill: rgb(128, 128, 128);" d="m 396.16719,95.304 v 18.288 q -3.528,3.168 -7.992,4.896 -4.464,1.728 -9.36,1.728 -6.984,0 -12.96,-3.456 -5.904,-3.456 -9.432,-9.288 -3.456,-5.904 -3.456,-12.744 0,-6.84 3.456,-12.672 3.528,-5.832 9.432,-9.216 5.976,-3.456 12.96,-3.456 4.896,0 9.288,1.728 4.464,1.728 7.992,4.824 l -0.936,0.936 q -3.24,-2.952 -7.488,-4.536 -4.176,-1.584 -8.856,-1.584 -6.624,0 -12.24,3.24 -5.616,3.24 -8.928,8.784 -3.312,5.472 -3.312,11.952 0,6.48 3.312,12.024 3.312,5.544 8.928,8.856 5.616,3.24 12.24,3.24 4.464,0 8.568,-1.512 4.104,-1.512 7.344,-4.32 V 95.304 Z" transform="translate(0 308.584) translate(346.4301900000001 50) scale(1) translate(-352.96719 -69.384)"></path> 
   <path id="path648566" style="font-style: normal; font-weight: 200; font-size: 72px; line-height: 1; font-family: Montserrat; font-variant-ligatures: none; text-align: center; text-anchor: middle; fill: rgb(128, 128, 128);" d="m 433.51831,69.384 q 6.984,0 12.888,3.456 5.976,3.384 9.432,9.216 3.528,5.832 3.528,12.672 0,6.84 -3.528,12.744 -3.456,5.832 -9.432,9.288 -5.904,3.456 -12.888,3.456 -6.984,0 -12.96,-3.456 -5.904,-3.456 -9.432,-9.288 -3.456,-5.904 -3.456,-12.744 0,-6.84 3.456,-12.672 3.528,-5.832 9.432,-9.216 5.976,-3.456 12.96,-3.456 z m 0,1.44 q -6.552,0 -12.168,3.24 -5.616,3.24 -8.928,8.784 -3.312,5.472 -3.312,11.88 0,6.48 3.312,12.024 3.312,5.544 8.928,8.784 5.616,3.24 12.168,3.24 6.552,0 12.168,-3.24 5.616,-3.24 8.928,-8.784 3.312,-5.544 3.312,-12.024 0,-6.408 -3.312,-11.88 -3.312,-5.544 -8.928,-8.784 -5.616,-3.24 -12.168,-3.24 z" transform="translate(0 308.584) translate(404.13331000000005 50) scale(1) translate(-407.67031 -69.384)"></path> 
   <path id="path648568" style="font-style: normal; font-weight: 200; font-size: 72px; line-height: 1; font-family: Montserrat; font-variant-ligatures: none; text-align: center; text-anchor: middle; fill: rgb(128, 128, 128);" d="m 508.49619,86.016 q 0,6.48 -3.384,10.656 -3.384,4.104 -9.648,5.472 l 13.032,17.856 h -1.8 l -12.816,-17.568 q -2.88,0.288 -4.608,0.288 h -15.624 V 120 h -1.44 V 69.672 h 17.064 q 9.144,0 14.184,4.32 5.04,4.248 5.04,12.024 z m -19.224,15.264 q 8.496,0 13.104,-3.96 4.68,-4.032 4.68,-11.304 0,-7.128 -4.68,-11.016 -4.608,-3.888 -13.104,-3.888 h -15.624 v 30.168 z" transform="translate(0 308.584) translate(471.6711900000001 50.288) scale(1) translate(-472.20819 -69.672)"></path> 
   <path id="path648570" style="font-style: normal; font-weight: 200; font-size: 72px; line-height: 1; font-family: Montserrat; font-variant-ligatures: none; text-align: center; text-anchor: middle; fill: rgb(128, 128, 128);" d="m 561.82344,95.304 v 18.288 q -3.528,3.168 -7.992,4.896 -4.464,1.728 -9.36,1.728 -6.984,0 -12.96,-3.456 -5.904,-3.456 -9.432,-9.288 -3.456,-5.904 -3.456,-12.744 0,-6.84 3.456,-12.672 3.528,-5.832 9.432,-9.216 5.976,-3.456 12.96,-3.456 4.896,0 9.288,1.728 4.464,1.728 7.992,4.824 l -0.936,0.936 q -3.24,-2.952 -7.488,-4.536 -4.176,-1.584 -8.856,-1.584 -6.624,0 -12.24,3.24 -5.616,3.24 -8.928,8.784 -3.312,5.472 -3.312,11.952 0,6.48 3.312,12.024 3.312,5.544 8.928,8.856 5.616,3.24 12.24,3.24 4.464,0 8.568,-1.512 4.104,-1.512 7.344,-4.32 V 95.304 Z" transform="translate(0 308.584) translate(521.08644 50) scale(1) translate(-518.62344 -69.384)"></path> 
   <path id="path648572" style="font-style: normal; font-weight: 200; font-size: 72px; line-height: 1; font-family: Montserrat; font-variant-ligatures: none; text-align: center; text-anchor: middle; fill: rgb(128, 128, 128);" d="m 578.94256,69.672 h 31.464 v 1.44 h -30.024 V 93.36 h 26.712 v 1.44 h -26.712 v 23.76 h 31.032 V 120 h -32.472 z" transform="translate(0 308.584) translate(584.40556 50.288) scale(1) translate(-578.94256 -69.672)"></path> 
   <path id="path648574" style="font-style: normal; font-weight: 200; font-size: 72px; line-height: 1; font-family: Montserrat; font-variant-ligatures: none; text-align: center; text-anchor: middle; fill: rgb(128, 128, 128);" d="m 645.58081,69.384 q 6.984,0 12.888,3.456 5.976,3.384 9.432,9.216 3.528,5.832 3.528,12.672 0,6.84 -3.528,12.744 -3.456,5.832 -9.432,9.288 -5.904,3.456 -12.888,3.456 -6.984,0 -12.96,-3.456 -5.904,-3.456 -9.432,-9.288 -3.456,-5.904 -3.456,-12.744 0,-6.84 3.456,-12.672 3.528,-5.832 9.432,-9.216 5.976,-3.456 12.96,-3.456 z m 0,1.44 q -6.552,0 -12.168,3.24 -5.616,3.24 -8.928,8.784 -3.312,5.472 -3.312,11.88 0,6.48 3.312,12.024 3.312,5.544 8.928,8.784 5.616,3.24 12.168,3.24 6.552,0 12.168,-3.24 5.616,-3.24 8.928,-8.784 3.312,-5.544 3.312,-12.024 0,-6.408 -3.312,-11.88 -3.312,-5.544 -8.928,-8.784 -5.616,-3.24 -12.168,-3.24 z" transform="translate(0 308.584) translate(628.19581 50) scale(1) translate(-619.73281 -69.384)"></path> 
   <path id="path648576" style="font-style: normal; font-weight: 200; font-size: 72px; line-height: 1; font-family: Montserrat; font-variant-ligatures: none; text-align: center; text-anchor: middle; fill: rgb(128, 128, 128);" d="m 684.41469,99.768 q 0,9.072 4.824,14.04 4.896,4.968 13.68,4.968 8.784,0 13.608,-4.968 4.896,-4.968 4.896,-14.04 V 69.672 h 1.44 v 30.096 q 0,9.792 -5.256,15.12 -5.184,5.328 -14.688,5.328 -9.504,0 -14.76,-5.328 -5.184,-5.328 -5.184,-15.12 V 69.672 h 1.44 z" transform="translate(0 308.584) translate(694.4376900000001 50.288) scale(1) translate(-682.97469 -69.672)"></path> 
   <path id="path648578" style="font-style: normal; font-weight: 200; font-size: 72px; line-height: 1; font-family: Montserrat; font-variant-ligatures: none; text-align: center; text-anchor: middle; fill: rgb(128, 128, 128);" d="m 765.15819,74.208 q -2.448,-1.584 -5.904,-2.448 -3.384,-0.936 -6.768,-0.936 -6.624,0 -10.656,2.736 -3.96,2.664 -3.96,7.128 0,3.888 1.944,6.264 1.944,2.376 4.752,3.672 2.88,1.224 7.776,2.736 5.184,1.584 8.28,3.024 3.096,1.368 5.184,4.104 2.16,2.736 2.16,7.2 0,3.744 -2.088,6.624 -2.088,2.808 -5.976,4.392 -3.816,1.512 -9,1.512 -4.752,0 -9.432,-1.944 -4.608,-1.944 -7.776,-5.184 l 1.008,-1.008 q 2.88,3.096 7.272,4.896 4.392,1.8 8.928,1.8 7.128,0 11.376,-3.024 4.248,-3.024 4.248,-8.064 0,-3.96 -2.016,-6.336 -1.944,-2.448 -4.824,-3.744 -2.88,-1.368 -7.848,-2.88 -5.112,-1.584 -8.208,-2.952 -3.024,-1.44 -5.112,-4.104 -2.088,-2.664 -2.088,-7.056 0,-5.112 4.392,-8.136 4.392,-3.096 11.664,-3.096 3.528,0 7.128,1.008 3.672,1.008 6.264,2.664 z" transform="translate(0 308.584) translate(748.1571900000001 50) scale(1) translate(-733.69419 -69.384)"></path> 
  </g> 
  <g id="tagline" style="font-style:normal;font-weight:400;font-size:32px;line-height:1;font-family:Montserrat;font-variant-ligatures:none;text-align:center;text-anchor:middle"></g> 
 </g> 
</svg>