<svg xmlns:dc="http://purl.org/dc/elements/1.1/" xmlns:cc="http://creativecommons.org/ns#" xmlns:rdf="http://www.w3.org/1999/02/22-rdf-syntax-ns#" xmlns:svg="http://www.w3.org/2000/svg" xmlns="http://www.w3.org/2000/svg" id="svg8298" viewbox="0 0 1024 768" height="768px" width="1024px" version="1.1"> <metadata id="metadata8304"> 
  <rdf:rdf> 
   <cc:work rdf:about=""> 
    <dc:format>
     image/svg+xml
    </dc:format> 
    <dc:type rdf:resource="http://purl.org/dc/dcmitype/StillImage"></dc:type> 
   </cc:work> 
  </rdf:rdf> 
 </metadata> <defs id="defs8302"></defs> <g id="logo-group"> 
  <g id="title" style="font-style:normal;font-weight:700;font-size:72px;line-height:1;font-family:'Brandmark1 Bold';font-variant-ligatures:none;text-align:center;text-anchor:middle" aria-label="O7GIFTING"> 
   <path id="path8306" style="font-style: normal; font-weight: 700; font-size: 72px; line-height: 1; font-family: &quot;Brandmark1 Bold&quot;; font-variant-ligatures: none; text-align: center; text-anchor: middle; fill: rgb(187, 174, 163);" d="m 353.2265,122.808 c 3.816,0 7.56,-0.72 11.088,-2.232 3.384,-1.368 6.408,-3.456 9,-6.048 2.592,-2.592 4.68,-5.616 6.12,-9 1.44,-3.528 2.232,-7.272 2.232,-11.088 0,-3.816 -0.792,-7.56 -2.232,-11.088 -1.44,-3.384 -3.528,-6.408 -6.12,-9 -2.592,-2.592 -5.616,-4.68 -9,-6.12 -3.528,-1.44 -7.272,-2.232 -11.088,-2.232 -3.816,0 -7.56,0.792 -11.088,2.232 -3.384,1.44 -6.408,3.528 -9,6.12 -2.592,2.592 -4.68,5.616 -6.048,9 -1.512,3.528 -2.232,7.272 -2.232,11.088 0,3.816 0.72,7.56 2.232,11.088 1.368,3.384 3.456,6.408 6.048,9 2.592,2.592 5.616,4.68 9,6.048 3.528,1.512 7.272,2.232 11.088,2.232 z m 0,-45.504 c 4.536,0 8.856,1.8 12.096,5.04 3.24,3.24 5.04,7.56 5.04,12.096 0,4.608 -1.8,8.856 -5.04,12.096 -3.24,3.24 -7.488,5.04 -12.096,5.04 -4.536,0 -8.856,-1.8 -12.096,-5.04 -3.24,-3.24 -5.04,-7.488 -5.04,-12.096 0,-4.536 1.8,-8.856 5.04,-12.096 3.24,-3.24 7.56,-5.04 12.096,-5.04 z" transform="translate(0 279.77185686864004) translate(251.99999999999983 67.63961386573231) scale(1.2672668767535202) translate(-324.8585 -66)"></path> 
   <path id="path8308" style="font-style: normal; font-weight: 700; font-size: 72px; line-height: 1; font-family: &quot;Brandmark1 Bold&quot;; font-variant-ligatures: none; text-align: center; text-anchor: middle; fill: rgb(187, 174, 163);" d="m 384.74,121.512 11.16,2.232 20.592,-48.384 V 68.016 H 380.78 V 78.6 h 22.536 z" transform="translate(0 279.77185686864004) translate(327.93653215538586 70.19442388926745) scale(1.2672668767535202) translate(-380.78 -68.016)"></path> 
   <path id="path8310" style="font-style: normal; font-weight: 700; font-size: 72px; line-height: 1; font-family: &quot;Brandmark1 Bold&quot;; font-variant-ligatures: none; text-align: center; text-anchor: middle; fill: rgb(136, 113, 97);" d="m 443.7035,122.952 c 3.816,0 7.56,-0.792 11.088,-2.232 3.384,-1.44 6.408,-3.456 9.072,-6.12 2.592,-2.592 4.608,-5.616 6.048,-9.072 1.512,-3.456 2.232,-7.2 2.232,-11.088 v -5.616 h -28.44 v 11.304 h 16.2 c -0.792,2.376 -2.232,4.608 -4.104,6.48 -3.24,3.24 -7.56,5.04 -12.096,5.04 -4.608,0 -8.928,-1.8 -12.168,-5.04 -3.24,-3.24 -5.04,-7.56 -5.04,-12.168 0,-4.536 1.8,-8.856 5.04,-12.096 3.24,-3.312 7.56,-5.04 12.168,-5.04 2.736,0 5.4,0.648 7.92,1.872 2.304,1.224 4.392,3.024 5.976,5.184 l 9.072,-6.696 c -2.52,-3.528 -5.976,-6.48 -9.864,-8.496 -4.032,-2.088 -8.568,-3.168 -13.104,-3.168 -3.888,0 -7.56,0.72 -11.088,2.232 -3.384,1.44 -6.48,3.456 -9.072,6.048 -2.592,2.664 -4.68,5.688 -6.12,9.072 -1.44,3.528 -2.232,7.272 -2.232,11.088 0,3.888 0.792,7.56 2.232,11.088 1.44,3.384 3.528,6.48 6.12,9.072 2.592,2.592 5.688,4.68 9.072,6.12 3.528,1.44 7.2,2.232 11.088,2.232 z" transform="translate(0 279.77185686864004) translate(376.6141537918038 67.63961386573231) scale(1.2672668767535202) translate(-415.1915 -66)"></path> 
   <path id="path8312" style="font-style: normal; font-weight: 700; font-size: 72px; line-height: 1; font-family: &quot;Brandmark1 Bold&quot;; font-variant-ligatures: none; text-align: center; text-anchor: middle; fill: rgb(136, 113, 97);" d="m 473.56662,122.52 h 11.30401 V 66.36 l -11.30401,3.6 z" transform="translate(0 279.77185686864004) translate(455.6600773013298 68.0958299413636) scale(1.2672668767535202) translate(-473.56662 -66.36)"></path> 
   <path id="path8314" style="font-style: normal; font-weight: 700; font-size: 72px; line-height: 1; font-family: &quot;Brandmark1 Bold&quot;; font-variant-ligatures: none; text-align: center; text-anchor: middle; fill: rgb(136, 113, 97);" d="m 492.89412,122.52 h 11.304 v -21.744 h 25.632 V 90.048 h -25.632 v -12.96 h 25.632 V 66.36 h -36.936 z" transform="translate(0 279.77185686864004) translate(485.22224536879753 68.0958299413636) scale(1.2672668767535202) translate(-492.89412 -66.36)"></path> 
   <path id="path8316" style="font-style: normal; font-weight: 700; font-size: 72px; line-height: 1; font-family: &quot;Brandmark1 Bold&quot;; font-variant-ligatures: none; text-align: center; text-anchor: middle; fill: rgb(136, 113, 97);" d="m 545.60712,122.52 h 11.304 V 77.088 h 15.48 V 66.36 h -42.048 v 10.728 h 15.264 z" transform="translate(0 279.77185686864004) translate(537.7491901433542 68.0958299413636) scale(1.2672668767535202) translate(-530.34312 -66.36)"></path> 
   <path id="path8318" style="font-style: normal; font-weight: 700; font-size: 72px; line-height: 1; font-family: &quot;Brandmark1 Bold&quot;; font-variant-ligatures: none; text-align: center; text-anchor: middle; fill: rgb(136, 113, 97);" d="m 576.08225,122.52 h 11.304 V 66.36 l -11.304,3.6 z" transform="translate(0 279.77185686864004) translate(600.7819420708915 68.0958299413636) scale(1.2672668767535202) translate(-576.08225 -66.36)"></path> 
   <path id="path8320" style="font-style: normal; font-weight: 700; font-size: 72px; line-height: 1; font-family: &quot;Brandmark1 Bold&quot;; font-variant-ligatures: none; text-align: center; text-anchor: middle; fill: rgb(136, 113, 97);" d="m 631.55375,122.52 h 10.296 V 66.36 h -11.304 v 35.424 l -25.128,-35.424 h -10.008 v 56.16 h 11.304 V 87.456 Z" transform="translate(0 279.77185686864004) translate(630.3441101383593 68.0958299413636) scale(1.2672668767535202) translate(-595.40975 -66.36)"></path> 
   <path id="path8322" style="font-style: normal; font-weight: 700; font-size: 72px; line-height: 1; font-family: &quot;Brandmark1 Bold&quot;; font-variant-ligatures: none; text-align: center; text-anchor: middle; fill: rgb(136, 113, 97);" d="m 674.75037,122.952 c 3.816,0 7.56001,-0.792 11.08801,-2.232 3.384,-1.44 6.40799,-3.456 9.072,-6.12 2.592,-2.592 4.60799,-5.616 6.048,-9.072 1.51199,-3.456 2.232,-7.2 2.232,-11.088 v -5.616 h -28.44001 v 11.304 h 16.2 c -0.792,2.376 -2.23199,4.608 -4.104,6.48 -3.24,3.24 -7.55999,5.04 -12.096,5.04 -4.60799,0 -8.928,-1.8 -12.168,-5.04 -3.24,-3.24 -5.04,-7.56 -5.04,-12.168 0,-4.536 1.8,-8.856 5.04,-12.096 3.24,-3.312 7.56001,-5.04 12.168,-5.04 2.736,0 5.40001,0.648 7.92001,1.872 2.30399,1.224 4.39199,3.024 5.976,5.184 l 9.072,-6.696 c -2.52,-3.528 -5.976,-6.48 -9.86401,-8.496 -4.032,-2.088 -8.56799,-3.168 -13.104,-3.168 -3.88799,0 -7.55999,0.72 -11.088,2.232 -3.384,1.44 -6.48,3.456 -9.072,6.048 -2.592,2.664 -4.67999,5.688 -6.12,9.072 -1.43999,3.528 -2.23199,7.272 -2.23199,11.088 0,3.888 0.792,7.56 2.23199,11.088 1.44001,3.384 3.528,6.48 6.12,9.072 2.592,2.592 5.688,4.68 9.072,6.12 3.52801,1.44 7.20001,2.232 11.088,2.232 z" transform="translate(0 279.77185686864004) translate(699.8266168351336 67.63961386573231) scale(1.2672668767535202) translate(-646.23838 -66)"></path> 
  </g> 
  <g id="tagline" style="font-style:normal;font-weight:400;font-size:32px;line-height:1;font-family:Montserrat;font-variant-ligatures:none;text-align:center;text-anchor:middle"></g> 
 </g> 
</svg>