<svg xmlns:dc="http://purl.org/dc/elements/1.1/" xmlns:cc="http://creativecommons.org/ns#" xmlns:rdf="http://www.w3.org/1999/02/22-rdf-syntax-ns#" xmlns:svg="http://www.w3.org/2000/svg" xmlns="http://www.w3.org/2000/svg" id="svg295527" viewbox="0 0 1024 768" height="768px" width="1024px" version="1.1"> <metadata id="metadata295533"> 
  <rdf:rdf> 
   <cc:work rdf:about=""> 
    <dc:format>
     image/svg+xml
    </dc:format> 
    <dc:type rdf:resource="http://purl.org/dc/dcmitype/StillImage"></dc:type> 
   </cc:work> 
  </rdf:rdf> 
 </metadata> <defs id="defs295531"></defs> <g id="logo-group"> 
  <g id="title" style="font-style:normal;font-weight:300;font-size:72px;line-height:1;font-family:'Montserrat Light Alt1';font-variant-ligatures:none;text-align:center;text-anchor:middle" aria-label="o7Hunter"> 
   <path id="path295535" style="font-style: normal; font-weight: 300; font-size: 72px; line-height: 1; font-family: &quot;Montserrat Light Alt1&quot;; font-variant-ligatures: none; text-align: center; text-anchor: middle; fill: rgb(25, 25, 25);" d="m 355.50013,117.84 c 2.88,1.656 6.048,2.448 9.64799,2.448 3.52801,0 6.69601,-0.792 9.57601,-2.448 2.87999,-1.584 5.11199,-3.888 6.76799,-6.768 1.584,-2.88 2.44801,-6.192 2.44801,-9.864 0,-3.6 -0.86401,-6.912 -2.44801,-9.792 -1.656,-2.88 -3.888,-5.184 -6.76799,-6.84 -2.88,-1.584 -6.048,-2.448 -9.57601,-2.448 -3.59999,0 -6.76799,0.864 -9.64799,2.448 -2.88,1.656 -5.11201,3.96 -6.69601,6.84 -1.656,2.88 -2.44799,6.192 -2.44799,9.792 0,3.672 0.79199,6.984 2.44799,9.864 1.584,2.88 3.81601,5.184 6.69601,6.768 z m 17.35199,-2.808 c -2.30399,1.368 -4.824,2.016 -7.704,2.016 -2.88,0 -5.47199,-0.648 -7.776,-2.016 -2.304,-1.296 -4.104,-3.168 -5.4,-5.616 -1.29599,-2.376 -1.944,-5.112 -1.944,-8.208 0,-3.024 0.64801,-5.76 1.944,-8.208 1.296,-2.376 3.096,-4.248 5.4,-5.616 2.30401,-1.296 4.896,-2.016 7.776,-2.016 2.88,0 5.40001,0.72 7.704,2.016 2.304,1.368 4.104,3.24 5.4,5.616 1.29601,2.448 2.016,5.184 2.016,8.208 0,3.096 -0.71999,5.832 -2.016,8.208 -1.296,2.448 -3.096,4.32 -5.4,5.616 z" transform="translate(0 254.8143235289127) translate(252 109.10186675532375) scale(1.5670887730776806) translate(-346.35613 -82.128)"></path> 
   <path id="path295537" style="font-style: normal; font-weight: 300; font-size: 72px; line-height: 1; font-family: &quot;Montserrat Light Alt1&quot;; font-variant-ligatures: none; text-align: center; text-anchor: middle; fill: rgb(25, 25, 25);" d="m 423.88887,69.6 h -36.144 v 12.96 h 3.6 v -9.648 h 28.296 L 398.18487,120 h 4.03201 l 21.67199,-47.808 z" transform="translate(0 254.8143235289127) translate(316.85982978583115 89.46937860620656) scale(1.5670887730776806) translate(-387.74487 -69.6)"></path> 
   <path id="path295539" style="font-style: normal; font-weight: 300; font-size: 72px; line-height: 1; font-family: &quot;Montserrat Light Alt1&quot;; font-variant-ligatures: none; text-align: center; text-anchor: middle; fill: rgb(116, 163, 207);" d="m 476.8865,69.6 h -3.672 v 23.184 h -33.696 V 69.6 h -3.672 V 120 h 3.672 V 96.024 h 33.696 V 120 h 3.672 z" transform="translate(0 254.8143235289127) translate(392.2393541255677 89.46937860620656) scale(1.5670887730776806) translate(-435.8465 -69.6)"></path> 
   <path id="path295541" style="font-style: normal; font-weight: 300; font-size: 72px; line-height: 1; font-family: &quot;Montserrat Light Alt1&quot;; font-variant-ligatures: none; text-align: center; text-anchor: middle; fill: rgb(116, 163, 207);" d="m 526.23913,82.416 h -3.6 v 20.016 c 0,4.464 -1.29601,8.064 -3.74401,10.656 -2.44799,2.664 -5.83199,3.96 -10.00799,3.96 -3.96001,0 -6.98401,-1.08 -9.144,-3.312 -2.16001,-2.16 -3.24001,-5.4 -3.24001,-9.648 V 82.416 h -3.6 v 21.96 c 0,5.184 1.368,9.072 4.176,11.808 2.73601,2.736 6.624,4.104 11.52001,4.104 3.31199,0 6.19199,-0.72 8.64,-2.16 2.448,-1.44 4.24799,-3.528 5.544,-6.192 V 120 h 3.456 z" transform="translate(0 254.8143235289127) translate(481.6521427573271 109.55318832197011) scale(1.5670887730776806) translate(-492.90312 -82.416)"></path> 
   <path id="path295543" style="font-style: normal; font-weight: 300; font-size: 72px; line-height: 1; font-family: &quot;Montserrat Light Alt1&quot;; font-variant-ligatures: none; text-align: center; text-anchor: middle; fill: rgb(116, 163, 207);" d="m 571.0895,86.232 c -2.736,-2.736 -6.48,-4.104 -11.16,-4.104 -3.528,0 -6.552,0.792 -9.144,2.232 -2.592,1.512 -4.464,3.6 -5.76,6.192 v -8.136 h -3.456 V 120 h 3.6 V 99.984 c 0,-4.464 1.224,-7.992 3.816,-10.656 2.52,-2.592 5.976,-3.96 10.44,-3.96 3.816,0 6.768,1.152 8.928,3.312 2.16,2.232 3.24,5.472 3.24,9.648 V 120 h 3.6 V 98.04 c 0,-5.112 -1.368,-9.072 -4.104,-11.808 z" transform="translate(0 254.8143235289127) translate(557.9166804816591 109.10186675532375) scale(1.5670887730776806) translate(-541.5695 -82.128)"></path> 
   <path id="path295545" style="font-style: normal; font-weight: 300; font-size: 72px; line-height: 1; font-family: &quot;Montserrat Light Alt1&quot;; font-variant-ligatures: none; text-align: center; text-anchor: middle; fill: rgb(116, 163, 207);" d="m 608.73312,117.624 -1.51199,-2.52 c -1.58401,1.44 -3.52801,2.088 -5.832,2.088 -2.30401,0 -4.10401,-0.576 -5.25601,-1.872 -1.15199,-1.296 -1.728,-3.168 -1.728,-5.616 V 85.512 h 11.952 v -3.096 h -11.952 v -8.208 h -3.6 v 8.208 h -6.91199 v 3.096 h 6.91199 v 24.552 c 0,3.24 0.864,5.76 2.664,7.56 1.72801,1.8 4.248,2.664 7.56001,2.664 1.43999,0 2.88,-0.216 4.24799,-0.648 1.368,-0.432 2.52001,-1.152 3.456,-2.016 z" transform="translate(0 254.8143235289127) translate(624.2415658905529 96.69052367254852) scale(1.5670887730776806) translate(-583.89313 -74.208)"></path> 
   <path id="path295547" style="font-style: normal; font-weight: 300; font-size: 72px; line-height: 1; font-family: &quot;Montserrat Light Alt1&quot;; font-variant-ligatures: none; text-align: center; text-anchor: middle; fill: rgb(116, 163, 207);" d="m 639.54237,115.752 c -2.08799,0.864 -4.392,1.296 -6.768,1.296 -3.88799,0 -7.12799,-1.008 -9.86399,-3.024 -2.736,-2.016 -4.60801,-4.752 -5.47201,-8.208 l 31.75201,-6.192 c -0.21601,-3.312 -1.00801,-6.264 -2.592,-8.928 -1.58401,-2.664 -3.67201,-4.752 -6.264,-6.264 -2.592,-1.512 -5.544,-2.304 -8.784,-2.304 -3.52801,0 -6.69601,0.864 -9.432,2.448 -2.808,1.656 -4.968,3.888 -6.55201,6.768 -1.58399,2.88 -2.30399,6.192 -2.30399,9.864 0,3.744 0.792,6.984 2.44799,9.864 1.656,2.88 3.96001,5.184 6.91201,6.768 2.952,1.656 6.264,2.448 10.07999,2.448 2.88,0 5.544,-0.504 8.06401,-1.512 2.376,-1.008 4.46399,-2.52 6.12,-4.608 l -2.08801,-2.376 c -1.43999,1.8 -3.168,3.096 -5.256,3.96 z m -15.624,-28.44 c 2.23201,-1.296 4.75201,-2.016 7.63201,-2.016 2.44799,0 4.75199,0.576 6.768,1.656 2.016,1.08 3.59999,2.592 4.896,4.392 1.22399,1.872 2.01599,3.96 2.37599,6.192 l -28.65599,5.616 c -0.144,-0.936 -0.144,-1.656 -0.144,-2.232 0,-2.952 0.57599,-5.688 1.87199,-8.064 1.22401,-2.376 2.952,-4.248 5.256,-5.544 z" transform="translate(0 254.8143235289127) translate(670.2657878392645 109.10186675532375) scale(1.5670887730776806) translate(-613.26238 -82.128)"></path> 
   <path id="path295549" style="font-style: normal; font-weight: 300; font-size: 72px; line-height: 1; font-family: &quot;Montserrat Light Alt1&quot;; font-variant-ligatures: none; text-align: center; text-anchor: middle; fill: rgb(116, 163, 207);" d="m 669.25363,84.36 c -2.44801,1.44 -4.24801,3.528 -5.40001,6.264 v -8.208 h -3.456 V 120 h 3.6 v -19.584 c 0,-4.608 1.15201,-8.28 3.528,-10.872 2.304,-2.592 5.616,-3.96 9.79201,-3.96 l 0.86399,0.072 v -3.528 c -3.52799,0 -6.47999,0.792 -8.92799,2.232 z" transform="translate(0 254.8143235289127) translate(744.1308932595864 109.10186675532375) scale(1.5670887730776806) translate(-660.39762 -82.128)"></path> 
  </g> 
  <g id="tagline" style="font-style:normal;font-weight:400;font-size:32px;line-height:1;font-family:Montserrat;font-variant-ligatures:none;text-align:center;text-anchor:middle"></g> 
 </g> 
</svg>