<svg xmlns:dc="http://purl.org/dc/elements/1.1/" xmlns:cc="http://creativecommons.org/ns#" xmlns:rdf="http://www.w3.org/1999/02/22-rdf-syntax-ns#" xmlns:svg="http://www.w3.org/2000/svg" xmlns="http://www.w3.org/2000/svg" id="svg8068" viewbox="0 0 1024 768" height="768px" width="1024px" version="1.1"> <metadata id="metadata8074"> 
  <rdf:rdf> 
   <cc:work rdf:about=""> 
    <dc:format>
     image/svg+xml
    </dc:format> 
    <dc:type rdf:resource="http://purl.org/dc/dcmitype/StillImage"></dc:type> 
   </cc:work> 
  </rdf:rdf> 
 </metadata> <defs id="defs8072"></defs> <g id="logo-group"> 
  <g id="title" style="font-style:normal;font-weight:400;font-size:72px;line-height:1;font-family:Teko;font-variant-ligatures:none;text-align:center;text-anchor:middle" aria-label="O7HARBOUR"> 
   <path id="path8076" style="font-style: normal; font-weight: 400; font-size: 72px; line-height: 1; font-family: Teko; font-variant-ligatures: none; text-align: center; text-anchor: middle; fill: rgb(245, 245, 245);" d="m 396.99575,74.928 h 7.992 q 6.696,0 6.696,6.336 v 32.4 q 0,6.336 -6.696,6.336 h -7.992 q -6.768,0 -6.768,-6.336 v -32.4 q 0,-6.336 6.768,-6.336 z m 8.208,37.728 V 82.272 q 0,-1.296 -0.432,-1.656 -0.432,-0.432 -1.728,-0.432 h -4.176 q -1.296,0 -1.728,0.432 -0.36,0.36 -0.36,1.656 v 30.384 q 0,1.296 0.36,1.728 0.432,0.36 1.728,0.36 h 4.176 q 1.296,0 1.728,-0.36 0.432,-0.432 0.432,-1.728 z" transform="translate(0 231.64983460217982) translate(252.00000000000006 111.35922786801146) scale(1.8189091910635737) translate(-390.22775 -74.928)"></path> 
   <path id="path8078" style="font-style: normal; font-weight: 400; font-size: 72px; line-height: 1; font-family: Teko; font-variant-ligatures: none; text-align: center; text-anchor: middle; fill: rgb(245, 245, 245);" d="m 435.70137,74.928 v 4.032 l -12.096,41.04 h -6.62399 l 11.73599,-39.672 h -13.17599 v -5.4 z" transform="translate(0 231.64983460217982) translate(307.1377402215005 111.35922786801146) scale(1.8189091910635737) translate(-415.54138 -74.928)"></path> 
   <path id="path8080" style="font-style: normal; font-weight: 400; font-size: 72px; line-height: 1; font-family: Teko; font-variant-ligatures: none; text-align: center; text-anchor: middle; fill: rgb(245, 245, 245);" d="m 455.8625,74.928 h 6.48 V 120 h -6.48 v -19.8 h -9.576 V 120 h -6.48 V 74.928 h 6.48 v 20.016 h 9.576 z" transform="translate(0 231.64983460217982) translate(360.36833596707896 111.35922786801146) scale(1.8189091910635737) translate(-439.8065 -74.928)"></path> 
   <path id="path8082" style="font-style: normal; font-weight: 400; font-size: 72px; line-height: 1; font-family: Teko; font-variant-ligatures: none; text-align: center; text-anchor: middle; fill: rgb(245, 245, 245);" d="m 486.46025,120 -1.8,-10.44 h -9.504 l -1.656,10.44 h -6.48 l 7.992,-45.072 h 9.432 l 8.568,45.072 z m -10.512,-15.696 h 7.848 l -4.104,-23.76 z" transform="translate(0 231.64983460217982) translate(418.9622219207031 111.35922786801146) scale(1.8189091910635737) translate(-467.02025 -74.928)"></path> 
   <path id="path8084" style="font-style: normal; font-weight: 400; font-size: 72px; line-height: 1; font-family: Teko; font-variant-ligatures: none; text-align: center; text-anchor: middle; fill: rgb(245, 245, 245);" d="M 504.08337,101.784 V 120 h -6.47999 V 74.928 h 14.76 q 6.696,0 6.696,6.336 v 14.112 q 0,5.472 -4.82401,6.264 l 7.12801,18.36 h -6.98401 l -6.768,-18.216 z m 0,-21.6 V 96.6 h 6.336 q 1.296,0 1.728,-0.36 0.43201,-0.432 0.43201,-1.728 v -12.24 q 0,-1.296 -0.43201,-1.656 -0.432,-0.432 -1.728,-0.432 z" transform="translate(0 231.64983460217982) translate(483.68470412451313 111.35922786801146) scale(1.8189091910635737) translate(-497.60338 -74.928)"></path> 
   <path id="path8086" style="font-style: normal; font-weight: 400; font-size: 72px; line-height: 1; font-family: Teko; font-variant-ligatures: none; text-align: center; text-anchor: middle; fill: rgb(245, 245, 245);" d="M 541.99025,92.424 V 82.128 q 0,-1.296 -0.432,-1.656 -0.432,-0.432 -1.728,-0.432 h -7.2 v 14.472 h 7.2 q 1.296,0 1.728,-0.36 0.432,-0.432 0.432,-1.728 z m 0,20.376 v -11.088 q 0,-1.296 -0.432,-1.656 -0.432,-0.432 -1.728,-0.432 h -7.2 v 15.264 h 7.2 q 1.296,0 1.728,-0.36 0.432,-0.432 0.432,-1.728 z m -15.84,-37.872 h 15.624 q 6.768,0 6.768,6.336 v 11.448 q 0,3.816 -2.88,4.464 2.88,0.72 2.88,4.176 v 12.312 q 0,6.336 -6.768,6.336 h -15.624 z" transform="translate(0 231.64983460217982) translate(544.7034142989281 111.35922786801146) scale(1.8189091910635737) translate(-526.15025 -74.928)"></path> 
   <path id="path8088" style="font-style: normal; font-weight: 400; font-size: 72px; line-height: 1; font-family: Teko; font-variant-ligatures: none; text-align: center; text-anchor: middle; fill: rgb(245, 245, 245);" d="m 561.94888,74.928 h 7.99199 q 6.69601,0 6.69601,6.336 v 32.4 q 0,6.336 -6.69601,6.336 h -7.99199 q -6.768,0 -6.768,-6.336 v -32.4 q 0,-6.336 6.768,-6.336 z m 8.208,37.728 V 82.272 q 0,-1.296 -0.43201,-1.656 -0.432,-0.432 -1.72799,-0.432 h -4.17601 q -1.296,0 -1.72799,0.432 -0.36,0.36 -0.36,1.656 v 30.384 q 0,1.296 0.36,1.728 0.43199,0.36 1.72799,0.36 h 4.17601 q 1.29599,0 1.72799,-0.36 0.43201,-0.432 0.43201,-1.728 z" transform="translate(0 231.64983460217982) translate(606.6020399836118 111.35922786801146) scale(1.8189091910635737) translate(-555.18088 -74.928)"></path> 
   <path id="path8090" style="font-style: normal; font-weight: 400; font-size: 72px; line-height: 1; font-family: Teko; font-variant-ligatures: none; text-align: center; text-anchor: middle; fill: rgb(245, 245, 245);" d="m 598.5665,74.928 h 6.552 v 38.736 q 0,6.336 -6.768,6.336 h -7.992 q -6.768,0 -6.768,-6.336 V 74.928 h 6.552 v 37.728 q 0,1.296 0.432,1.728 0.432,0.36 1.728,0.36 h 4.104 q 1.368,0 1.728,-0.36 0.432,-0.432 0.432,-1.728 z" transform="translate(0 231.64983460217982) translate(667.3711048715531 111.35922786801146) scale(1.8189091910635737) translate(-583.5905 -74.928)"></path> 
   <path id="path8092" style="font-style: normal; font-weight: 400; font-size: 72px; line-height: 1; font-family: Teko; font-variant-ligatures: none; text-align: center; text-anchor: middle; fill: rgb(245, 245, 245);" d="M 618.83338,101.784 V 120 h -6.48 V 74.928 h 14.76 q 6.696,0 6.696,6.336 v 14.112 q 0,5.472 -4.82401,6.264 l 7.12801,18.36 h -6.98401 l -6.768,-18.216 z m 0,-21.6 V 96.6 h 6.33599 q 1.296,0 1.728,-0.36 0.43201,-0.432 0.43201,-1.728 v -12.24 q 0,-1.296 -0.43201,-1.656 -0.432,-0.432 -1.728,-0.432 z" transform="translate(0 231.64983460217982) translate(728.7827176203297 111.35922786801146) scale(1.8189091910635737) translate(-612.35338 -74.928)"></path> 
  </g> 
  <g id="tagline" style="font-style:oblique;font-weight:normal;font-size:32px;line-height:1;font-family:'Fira Sans Condensed';font-variant-ligatures:none;text-align:center;text-anchor:middle"></g> 
 </g> 
</svg>