<svg xmlns:dc="http://purl.org/dc/elements/1.1/" xmlns:cc="http://creativecommons.org/ns#" xmlns:rdf="http://www.w3.org/1999/02/22-rdf-syntax-ns#" xmlns:svg="http://www.w3.org/2000/svg" xmlns="http://www.w3.org/2000/svg" id="svg51437" viewbox="0 0 1024 768" height="768px" width="1024px" version="1.1"> <metadata id="metadata51443"> 
  <rdf:rdf> 
   <cc:work rdf:about=""> 
    <dc:format>
     image/svg+xml
    </dc:format> 
    <dc:type rdf:resource="http://purl.org/dc/dcmitype/StillImage"></dc:type> 
   </cc:work> 
  </rdf:rdf> 
 </metadata> <defs id="defs51441"></defs> <g id="logo-group"> 
  <g id="title" style="font-style:normal;font-weight:400;font-size:72px;line-height:1;font-family:'Abril Fatface';font-variant-ligatures:none;text-align:center;text-anchor:middle" aria-label="o7Homepage"> 
   <path id="path51445" style="font-style: normal; font-weight: 400; font-size: 72px; line-height: 1; font-family: &quot;Abril Fatface&quot;; font-variant-ligatures: none; text-align: center; text-anchor: middle; fill: rgb(199, 197, 182);" d="m 324.05412,105.816 v -6.12 q 0,-6.984 -0.79199,-10.152 -0.72001,-3.24 -3.45601,-3.24 -1.584,0 -2.59199,0.936 -0.93601,0.864 -1.368,2.952 -0.64801,3.24 -0.64801,9.864 v 5.616 q 0,7.848 0.43201,9.432 0.50399,1.584 1.00799,2.592 0.792,1.728 3.096,1.728 2.808,0 3.672,-3.24 0.648,-2.304 0.648,-10.368 z m -4.464,14.904 q -9,0 -13.608,-4.608 -4.608,-4.608 -4.608,-13.176 0,-8.64 4.896,-13.248 4.96801,-4.68 13.89601,-4.68 8.928,0 13.32,4.32 4.39199,4.248 4.39199,13.032 0,18.36 -18.288,18.36 z" transform="translate(0 287.70389250355186) translate(252 75.3142226017155) scale(1.1165328275187687) translate(-301.37412 -85.008)"></path> 
   <path id="path51447" style="font-style: normal; font-weight: 400; font-size: 72px; line-height: 1; font-family: &quot;Abril Fatface&quot;; font-variant-ligatures: none; text-align: center; text-anchor: middle; fill: rgb(199, 197, 182);" d="m 356.09188,120.72 q -3.88801,0 -6.12001,-2.088 -2.232,-2.16 -2.232,-5.256 0,-3.168 2.088,-6.912 2.16,-3.816 9.28801,-12.096 l 11.87999,-13.752 h -18.432 q -5.112,0 -6.76799,1.296 -1.584,1.224 -2.52001,5.976 h -1.152 L 342.91588,69.6 h 32.25599 v 7.776 l -7.992,13.968 q -5.328,9.432 -6.84,13.536 -1.44,4.032 -1.44,7.704 0,3.672 2.16,6.768 l -0.50399,0.864 q -2.01601,0.504 -4.464,0.504 z" transform="translate(0 287.70389250355186) translate(303.0810977257768 58.1106847953063) scale(1.1165328275187687) translate(-342.12387 -69.6)"></path> 
   <path id="path51449" style="font-style: normal; font-weight: 400; font-size: 72px; line-height: 1; font-family: &quot;Abril Fatface&quot;; font-variant-ligatures: none; text-align: center; text-anchor: middle; fill: rgb(170, 181, 185);" d="m 377.387,69.6 h 22.464 v 1.368 h -4.176 v 22.32 h 14.328 v -22.32 h -4.248 V 69.6 h 22.536 v 1.368 h -4.248 v 47.664 h 4.248 V 120 h -22.536 v -1.368 h 4.248 V 95.16 h -14.328 v 23.472 h 4.176 V 120 h -22.464 v -1.368 h 4.248 V 70.968 h -4.248 z" transform="translate(0 287.70389250355186) translate(348.0362041094325 58.1106847953063) scale(1.1165328275187687) translate(-377.387 -69.6)"></path> 
   <path id="path51451" style="font-style: normal; font-weight: 400; font-size: 72px; line-height: 1; font-family: &quot;Abril Fatface&quot;; font-variant-ligatures: none; text-align: center; text-anchor: middle; fill: rgb(170, 181, 185);" d="m 453.71037,105.816 v -6.12 q 0,-6.984 -0.79199,-10.152 -0.72001,-3.24 -3.45601,-3.24 -1.584,0 -2.59199,0.936 -0.93601,0.864 -1.368,2.952 -0.64801,3.24 -0.64801,9.864 v 5.616 q 0,7.848 0.43201,9.432 0.50399,1.584 1.00799,2.592 0.792,1.728 3.096,1.728 2.808,0 3.672,-3.24 0.648,-2.304 0.648,-10.368 z m -4.464,14.904 q -9,0 -13.608,-4.608 -4.608,-4.608 -4.608,-13.176 0,-8.64 4.896,-13.248 4.96801,-4.68 13.89601,-4.68 8.928,0 13.32,4.32 4.39199,4.248 4.39199,13.032 0,18.36 -18.288,18.36 z" transform="translate(0 287.70389250355186) translate(413.5134518307619 75.3142226017155) scale(1.1165328275187687) translate(-431.03037 -85.008)"></path> 
   <path id="path51453" style="font-style: normal; font-weight: 400; font-size: 72px; line-height: 1; font-family: &quot;Abril Fatface&quot;; font-variant-ligatures: none; text-align: center; text-anchor: middle; fill: rgb(170, 181, 185);" d="m 469.54813,85.728 h 17.35199 v 6.624 q 2.376,-7.344 10.44,-7.344 8.13601,0 9.864,7.776 2.52001,-7.776 10.58401,-7.776 10.58399,0 10.58399,12.024 v 21.672 h 4.03201 V 120 h -19.94401 v -1.296 h 2.52001 v -23.4 q 0,-5.472 -0.93601,-6.408 -0.432,-0.432 -1.152,-0.432 -2.088,0 -3.672,2.808 -1.584,2.808 -1.584,7.128 v 20.304 h 2.592 V 120 h -18.50399 v -1.296 h 2.51999 v -23.4 q 0,-5.472 -0.93599,-6.408 -0.43201,-0.432 -1.15201,-0.432 -2.016,0 -3.672,3.096 -1.584,3.024 -1.584,7.272 v 19.872 h 2.592 V 120 h -19.94399 v -1.296 h 3.95999 v -31.68 h -3.95999 z" transform="translate(0 287.70389250355186) translate(462.102459450845 75.3142226017155) scale(1.1165328275187687) translate(-469.54813 -85.008)"></path> 
   <path id="path51455" style="font-style: normal; font-weight: 400; font-size: 72px; line-height: 1; font-family: &quot;Abril Fatface&quot;; font-variant-ligatures: none; text-align: center; text-anchor: middle; fill: rgb(170, 181, 185);" d="m 552.4685,120.72 q -9.288,0 -13.968,-4.752 -4.608,-4.824 -4.608,-13.32 0,-8.568 5.184,-13.104 5.256,-4.536 13.32,-4.536 16.344,0 15.696,16.416 h -20.304 v 2.808 q 0,7.056 1.8,10.656 1.8,3.6 6.264,3.6 8.352,0 10.944,-8.928 l 1.296,0.216 q -1.368,5.184 -4.968,8.064 -3.528,2.88 -10.656,2.88 z m -4.608,-20.736 h 7.416 v -3.528 q 0,-5.832 -0.72,-7.92 -0.648,-2.16 -2.736,-2.16 -2.016,0 -3.024,2.304 -0.936,2.232 -0.936,7.776 z" transform="translate(0 287.70389250355186) translate(539.5277249594527 75.3142226017155) scale(1.1165328275187687) translate(-533.8925 -85.008)"></path> 
   <path id="path51457" style="font-style: normal; font-weight: 400; font-size: 72px; line-height: 1; font-family: &quot;Abril Fatface&quot;; font-variant-ligatures: none; text-align: center; text-anchor: middle; fill: rgb(170, 181, 185);" d="m 596.9375,100.632 q 0,-7.416 -0.72,-9.936 -0.72,-2.592 -2.808,-2.592 -2.088,0 -3.744,2.736 -1.656,2.664 -1.656,7.2 v 13.176 q 0,3.096 1.224,5.256 1.224,2.16 3.6,2.16 2.376,0 3.24,-3.168 0.864,-3.168 0.864,-11.088 z m -9.072,-14.904 v 5.688 q 2.808,-6.408 9.936,-6.408 6.192,0 9.576,4.464 3.456,4.464 3.456,13.536 0,9.072 -3.744,13.392 -3.672,4.32 -11.088,4.32 -3.456,0 -5.184,-0.864 -1.728,-0.864 -2.808,-2.664 v 18.648 h 9.288 v 1.296 h -26.64 v -1.296 h 3.96 V 87.024 h -3.816 v -1.296 z" transform="translate(0 287.70389250355186) translate(586.1597185007741 75.3142226017155) scale(1.1165328275187687) translate(-570.6575 -85.008)"></path> 
   <path id="path51459" style="font-style: normal; font-weight: 400; font-size: 72px; line-height: 1; font-family: &quot;Abril Fatface&quot;; font-variant-ligatures: none; text-align: center; text-anchor: middle; fill: rgb(170, 181, 185);" d="m 630.26562,103.08 h 2.088 v -5.544 q 0,-6.84 -0.79199,-9.144 -0.72,-2.376 -2.88,-2.376 -1.29601,0 -2.37601,0.72 -1.00799,0.648 -1.00799,1.872 0,1.152 0.432,2.376 h 1.79999 q 0.57601,1.512 0.57601,3.672 0,2.088 -1.80001,3.672 -1.8,1.512 -4.53599,1.512 -6.19201,0 -6.19201,-5.976 0,-8.856 15.04801,-8.856 8.56799,0 11.80799,2.952 3.31201,2.88 3.31201,10.656 v 14.616 q 0,3.744 2.08799,3.744 2.448,0 2.88,-7.416 l 1.08001,0.072 q -0.28801,6.336 -2.376,8.712 -2.08801,2.376 -6.84001,2.376 -8.63999,0 -9.936,-5.328 -0.93599,2.736 -2.808,4.032 -1.87199,1.296 -5.472,1.296 -10.65599,0 -10.65599,-8.712 0,-5.112 4.03199,-6.984 4.10401,-1.944 12.528,-1.944 z m -2.88,8.856 q 0,3.744 0.36001,4.824 0.432,1.08 1.51199,1.08 1.152,0 2.08801,-1.8 1.00799,-1.872 1.00799,-5.112 v -6.696 h -0.50399 q -4.46401,0 -4.46401,6.552 z" transform="translate(0 287.70389250355186) translate(639.8070329466634 75.3142226017155) scale(1.1165328275187687) translate(-613.70563 -85.008)"></path> 
   <path id="path51461" style="font-style: normal; font-weight: 400; font-size: 72px; line-height: 1; font-family: &quot;Abril Fatface&quot;; font-variant-ligatures: none; text-align: center; text-anchor: middle; fill: rgb(170, 181, 185);" d="m 680.95137,81.984 2.016,-1.224 q 0.432,-2.232 -1.728,-2.232 -3.096,0 -3.096,4.752 0,1.872 0.504,4.32 5.472,3.672 5.472,9.432 0,5.688 -3.96,8.856 -3.95999,3.168 -10.728,3.168 -2.808,0 -5.832,-0.576 -3.168,2.016 -3.168,3.024 0,1.008 4.608,1.008 h 7.344 q 16.34401,0 16.34401,11.736 0,6.336 -4.96801,10.008 -4.89599,3.744 -15.336,3.744 -17.784,0 -17.784,-7.704 0,-4.176 5.544,-5.76 l 4.32,1.944 q -0.576,2.088 -0.576,3.96 0,6.192 9.216,6.192 5.616,0 8.64,-2.088 3.024,-2.088 3.024,-5.184 0,-3.096 -1.87199,-4.176 -1.80001,-1.008 -7.27201,-1.008 h -6.98399 q -5.832,0 -8.35201,-1.944 -2.52,-1.944 -2.52,-4.752 0,-2.88 1.80001,-4.752 1.79999,-1.944 6.40799,-4.752 -8.352,-2.376 -8.352,-10.944 0,-5.4 3.888,-8.712 3.88801,-3.312 11.664,-3.312 4.68001,0 7.992,1.8 -0.432,-1.944 -0.432,-3.528 0,-4.032 2.16001,-5.832 2.15999,-1.8 4.82399,-1.8 2.664,0 4.24801,1.44 1.65599,1.368 1.65599,3.816 0,2.448 -1.29599,3.672 -1.29601,1.152 -3.168,1.152 -1.80001,0 -3.024,-0.936 -1.15201,-1.008 -1.22401,-2.808 z m -15.264,13.464 v 3.888 q 0,4.824 0.792,6.552 0.86401,1.728 2.52,1.728 1.72801,0 2.448,-1.656 0.792,-1.728 0.792,-6.984 v -3.528 q 0,-5.616 -0.72,-7.344 -0.71999,-1.8 -2.448,-1.8 -1.65599,0 -2.52,1.872 -0.864,1.8 -0.864,7.272 z" transform="translate(0 287.70389250355186) translate(686.6274302373002 64.86347533613983) scale(1.1165328275187687) translate(-650.63937 -75.648)"></path> 
   <path id="path51463" style="font-style: normal; font-weight: 400; font-size: 72px; line-height: 1; font-family: &quot;Abril Fatface&quot;; font-variant-ligatures: none; text-align: center; text-anchor: middle; fill: rgb(170, 181, 185);" d="m 706.45287,120.72 q -9.28799,0 -13.968,-4.752 -4.60799,-4.824 -4.60799,-13.32 0,-8.568 5.18399,-13.104 5.256,-4.536 13.32001,-4.536 16.34399,0 15.69599,16.416 h -20.304 v 2.808 q 0,7.056 1.8,10.656 1.80001,3.6 6.264,3.6 8.35201,0 10.94401,-8.928 l 1.29599,0.216 q -1.36799,5.184 -4.968,8.064 -3.528,2.88 -10.656,2.88 z m -4.608,-20.736 h 7.416 v -3.528 q 0,-5.832 -0.71999,-7.92 -0.64801,-2.16 -2.736,-2.16 -2.01601,0 -3.024,2.304 -0.93601,2.232 -0.93601,7.776 z" transform="translate(0 287.70389250355186) translate(733.7869967049526 75.3142226017155) scale(1.1165328275187687) translate(-687.87688 -85.008)"></path> 
  </g> 
  <g id="tagline" style="font-style:oblique;font-weight:normal;font-size:32px;line-height:1;font-family:'Droid Serif';font-variant-ligatures:none;text-align:center;text-anchor:middle"></g> 
 </g> 
</svg>