<svg xmlns:dc="http://purl.org/dc/elements/1.1/" xmlns:cc="http://creativecommons.org/ns#" xmlns:rdf="http://www.w3.org/1999/02/22-rdf-syntax-ns#" xmlns:svg="http://www.w3.org/2000/svg" xmlns="http://www.w3.org/2000/svg" id="svg258629" viewbox="0 0 1024 768" height="768px" width="1024px" version="1.1"> <metadata id="metadata258635"> 
  <rdf:rdf> 
   <cc:work rdf:about=""> 
    <dc:format>
     image/svg+xml
    </dc:format> 
    <dc:type rdf:resource="http://purl.org/dc/dcmitype/StillImage"></dc:type> 
   </cc:work> 
  </rdf:rdf> 
 </metadata> <defs id="defs258633"></defs> <g id="logo-group"> 
  <g id="title" style="font-style:normal;font-weight:500;font-size:72px;line-height:1;font-family:'Raleway Medium Alt1';font-variant-ligatures:none;text-align:center;text-anchor:middle" aria-label="O7INTELLIGENT"> 
   <path id="path258637" style="font-style: normal; font-weight: 500; font-size: 72px; line-height: 1; font-family: &quot;Raleway Medium Alt1&quot;; font-variant-ligatures: none; text-align: center; text-anchor: middle; fill: rgb(163, 108, 85);" d="m 280.37206,97.248 c -0.216,1.512 -0.504,3.024 -1.008,4.464 -0.792,2.448 -1.944,4.608 -3.456,6.48 -1.512,1.872 -3.384,3.456 -5.472,4.608 -2.232,1.152 -4.68,1.728 -7.344,1.728 -2.664,0 -5.04,-0.504 -7.2,-1.656 -2.16,-1.08 -4.032,-2.592 -5.544,-4.464 -1.584,-1.872 -2.736,-3.96 -3.6,-6.408 -0.504,-1.512 -0.864,-3.096 -1.08,-4.752 h -6.552 c 0.216,2.304 0.72,4.608 1.584,6.768 1.08,3.168 2.736,5.904 4.896,8.352 2.088,2.448 4.608,4.392 7.56,5.832 2.952,1.44 6.264,2.16 9.864,2.16 3.456,0 6.624,-0.648 9.576,-2.088 2.952,-1.44 5.472,-3.312 7.632,-5.688 2.16,-2.376 3.816,-5.112 5.04,-8.28 0.864,-2.232 1.44,-4.608 1.728,-7.056 z m -33.624,-10.152 c 0.792,-2.376 1.944,-4.464 3.456,-6.408 1.512,-1.872 3.384,-3.384 5.544,-4.536 2.16,-1.152 4.608,-1.728 7.344,-1.728 2.52,0 4.896,0.576 7.056,1.656 2.16,1.152 3.96,2.592 5.544,4.464 1.584,1.872 2.736,3.96 3.6,6.408 0.432,1.296 0.792,2.664 1.008,3.96 h 6.552 c -0.288,-1.944 -0.792,-3.96 -1.44,-5.832 -1.152,-3.096 -2.808,-5.832 -4.896,-8.352 -2.16,-2.448 -4.68,-4.392 -7.56,-5.904 -2.952,-1.512 -6.264,-2.304 -9.792,-2.304 -3.528,0 -6.696,0.72 -9.648,2.16 -2.952,1.44 -5.472,3.312 -7.632,5.688 -2.16,2.448 -3.888,5.184 -5.112,8.28 -0.792,2.088 -1.368,4.176 -1.584,6.264 h 6.552 c 0.216,-1.224 0.576,-2.52 1.008,-3.816 z" transform="translate(0 326.4953846153846) translate(232.1739884615385 34.1876923076923) scale(0.7692307692307693) translate(-239.11606 -68.52)"></path> 
   <path id="path258639" style="font-style: normal; font-weight: 500; font-size: 72px; line-height: 1; font-family: &quot;Raleway Medium Alt1&quot;; font-variant-ligatures: none; text-align: center; text-anchor: middle; fill: rgb(163, 108, 85);" d="m 318.24744,83.856 -22.896,45.288 h 7.2 l 25.704,-51.12 h -36.288 v 5.832 z" transform="translate(0 326.4953846153846) translate(284.36735769230773 41.49846153846154) scale(0.7692307692307693) translate(-291.96744 -78.024)"></path> 
   <path id="path258641" style="font-style: normal; font-weight: 500; font-size: 72px; line-height: 1; font-family: &quot;Raleway Medium Alt1&quot;; font-variant-ligatures: none; text-align: center; text-anchor: middle; fill: rgb(49, 44, 44);" d="m 334.67469,120 h 6.48 V 68.88 h -6.48 z" transform="translate(0 326.4953846153846) translate(328.75755 34.464615384615385) scale(0.7692307692307693) translate(-334.67469 -68.88)"></path> 
   <path id="path258643" style="font-style: normal; font-weight: 500; font-size: 72px; line-height: 1; font-family: &quot;Raleway Medium Alt1&quot;; font-variant-ligatures: none; text-align: center; text-anchor: middle; fill: rgb(49, 44, 44);" d="m 353.37781,120 h 6.48 V 91.272 l -6.48,-8.424 z m 36.72,-51.048 v 39.744 l -31.68,-39.816 h -5.04 v 3.888 l 6.48,8.208 31.248,39.024 h 5.472 V 68.952 Z" transform="translate(0 326.4953846153846) translate(354.6830269230769 34.464615384615385) scale(0.7692307692307693) translate(-353.37781 -68.88)"></path> 
   <path id="path258645" style="font-style: normal; font-weight: 500; font-size: 72px; line-height: 1; font-family: &quot;Raleway Medium Alt1&quot;; font-variant-ligatures: none; text-align: center; text-anchor: middle; fill: rgb(49, 44, 44);" d="m 421.52806,120 h 6.48 V 81.12 h -6.48 z m -17.64,-51.12 v 5.76 h 41.76 v -5.76 z" transform="translate(0 326.4953846153846) translate(405.0755269230769 34.464615384615385) scale(0.7692307692307693) translate(-403.88806 -68.88)"></path> 
   <path id="path258647" style="font-style: normal; font-weight: 500; font-size: 72px; line-height: 1; font-family: &quot;Raleway Medium Alt1&quot;; font-variant-ligatures: none; text-align: center; text-anchor: middle; fill: rgb(49, 44, 44);" d="m 459.42031,74.64 h 27.576 v -5.76 h -34.056 v 15.84 h 6.48 z m -6.48,39.6 V 120 h 34.704 v -5.76 z m 6.48,-17.64 h 23.976 v -5.4 h -30.456 v 16.56 h 6.48 z" transform="translate(0 326.4953846153846) translate(454.3464884615384 34.464615384615385) scale(0.7692307692307693) translate(-452.94031 -68.88)"></path> 
   <path id="path258649" style="font-style: normal; font-weight: 500; font-size: 72px; line-height: 1; font-family: &quot;Raleway Medium Alt1&quot;; font-variant-ligatures: none; text-align: center; text-anchor: middle; fill: rgb(49, 44, 44);" d="M 496.53406,114.24 V 120 h 34.992 v -5.76 z m 6.48,-45.36 h -6.48 v 38.88 h 6.48 z" transform="translate(0 326.4953846153846) translate(499.4186038461538 34.464615384615385) scale(0.7692307692307693) translate(-496.53406 -68.88)"></path> 
   <path id="path258651" style="font-style: normal; font-weight: 500; font-size: 72px; line-height: 1; font-family: &quot;Raleway Medium Alt1&quot;; font-variant-ligatures: none; text-align: center; text-anchor: middle; fill: rgb(49, 44, 44);" d="M 538.58094,114.24 V 120 h 34.992 v -5.76 z m 6.48,-45.36 h -6.48 v 38.88 h 6.48 z" transform="translate(0 326.4953846153846) translate(543.3008192307693 34.464615384615385) scale(0.7692307692307693) translate(-538.58094 -68.88)"></path> 
   <path id="path258653" style="font-style: normal; font-weight: 500; font-size: 72px; line-height: 1; font-family: &quot;Raleway Medium Alt1&quot;; font-variant-ligatures: none; text-align: center; text-anchor: middle; fill: rgb(49, 44, 44);" d="m 580.62781,120 h 6.48 V 68.88 h -6.48 z" transform="translate(0 326.4953846153846) translate(587.183026923077 34.464615384615385) scale(0.7692307692307693) translate(-580.62781 -68.88)"></path> 
   <path id="path258655" style="font-style: normal; font-weight: 500; font-size: 72px; line-height: 1; font-family: &quot;Raleway Medium Alt1&quot;; font-variant-ligatures: none; text-align: center; text-anchor: middle; fill: rgb(49, 44, 44);" d="m 613.29894,112.944 c -2.232,-1.008 -4.104,-2.448 -5.616,-4.32 -1.584,-1.872 -2.88,-3.96 -3.744,-6.408 -0.936,-2.448 -1.368,-4.968 -1.368,-7.776 0,-2.52 0.36,-5.04 1.224,-7.488 0.792,-2.448 1.944,-4.536 3.456,-6.408 1.44,-1.872 3.24,-3.312 5.4,-4.464 2.088,-1.152 4.392,-1.728 7.056,-1.728 3.168,0 5.976,0.72 8.568,2.16 2.52,1.44 4.536,3.672 6.12,6.624 l 4.968,-3.456 c -1.728,-3.24 -4.176,-5.976 -7.344,-8.064 -3.168,-2.016 -7.272,-3.096 -12.168,-3.096 -3.456,0 -6.624,0.72 -9.504,2.088 -2.952,1.44 -5.472,3.312 -7.56,5.688 -2.16,2.376 -3.816,5.112 -4.968,8.208 -1.224,3.096 -1.8,6.336 -1.8,9.792 0,3.384 0.576,6.552 1.8,9.648 1.224,3.168 2.88,5.904 5.04,8.352 2.088,2.448 4.536,4.392 7.488,5.832 2.88,1.512 6.048,2.232 9.504,2.232 3.6,0 6.912,-0.864 10.008,-2.736 v -6.048 c -3.024,2.016 -6.192,2.952 -9.504,2.952 -2.592,0 -4.896,-0.504 -7.056,-1.584 z m 11.088,-18.432 v 4.896 h 11.016 V 120 h 5.472 V 94.512 Z" transform="translate(0 326.4953846153846) translate(610.5608192307694 34.1876923076923) scale(0.7692307692307693) translate(-596.01894 -68.52)"></path> 
   <path id="path258657" style="font-style: normal; font-weight: 500; font-size: 72px; line-height: 1; font-family: &quot;Raleway Medium Alt1&quot;; font-variant-ligatures: none; text-align: center; text-anchor: middle; fill: rgb(49, 44, 44);" d="m 657.27969,74.64 h 27.576 v -5.76 h -34.056 v 15.84 h 6.48 z m -6.48,39.6 V 120 h 34.704 v -5.76 z m 6.48,-17.64 h 23.976 v -5.4 h -30.456 v 16.56 h 6.48 z" transform="translate(0 326.4953846153846) translate(664.2383192307694 34.464615384615385) scale(0.7692307692307693) translate(-650.79969 -68.88)"></path> 
   <path id="path258659" style="font-style: normal; font-weight: 500; font-size: 72px; line-height: 1; font-family: &quot;Raleway Medium Alt1&quot;; font-variant-ligatures: none; text-align: center; text-anchor: middle; fill: rgb(49, 44, 44);" d="m 694.39344,120 h 6.48 V 91.272 l -6.48,-8.424 z m 36.72,-51.048 v 39.744 l -31.68,-39.816 h -5.04 v 3.888 l 6.48,8.208 31.248,39.024 h 5.472 V 68.952 Z" transform="translate(0 326.4953846153846) translate(709.3104346153848 34.464615384615385) scale(0.7692307692307693) translate(-694.39344 -68.88)"></path> 
   <path id="path258661" style="font-style: normal; font-weight: 500; font-size: 72px; line-height: 1; font-family: &quot;Raleway Medium Alt1&quot;; font-variant-ligatures: none; text-align: center; text-anchor: middle; fill: rgb(49, 44, 44);" d="m 762.54369,120 h 6.48 V 81.12 h -6.48 z m -17.64,-51.12 v 5.76 h 41.76 v -5.76 z" transform="translate(0 326.4953846153846) translate(759.7029346153847 34.464615384615385) scale(0.7692307692307693) translate(-744.90369 -68.88)"></path> 
  </g> 
  <g id="tagline" style="font-style:oblique;font-weight:600;font-size:32px;line-height:1;font-family:Raleway;font-variant-ligatures:none;text-align:center;text-anchor:middle"></g> 
 </g> 
</svg>