<svg xmlns:dc="http://purl.org/dc/elements/1.1/" xmlns:cc="http://creativecommons.org/ns#" xmlns:rdf="http://www.w3.org/1999/02/22-rdf-syntax-ns#" xmlns:svg="http://www.w3.org/2000/svg" xmlns="http://www.w3.org/2000/svg" id="svg7753" viewbox="0 0 1024 768" height="768px" width="1024px" version="1.1"> <metadata id="metadata7759"> 
  <rdf:rdf> 
   <cc:work rdf:about=""> 
    <dc:format>
     image/svg+xml
    </dc:format> 
    <dc:type rdf:resource="http://purl.org/dc/dcmitype/StillImage"></dc:type> 
   </cc:work> 
  </rdf:rdf> 
 </metadata> <defs id="defs7757"></defs> <g id="logo-group"> 
  <g id="title" style="font-style:normal;font-weight:400;font-size:72px;line-height:1;font-family:Teko;font-variant-ligatures:none;text-align:center;text-anchor:middle" aria-label="o7Internet"> 
   <path id="path7761" style="font-style: normal; font-weight: 400; font-size: 72px; line-height: 1; font-family: Teko; font-variant-ligatures: none; text-align: center; text-anchor: middle; fill: rgb(225, 202, 106);" d="m 413.57263,84.864 h 7.704 q 6.69599,0 6.69599,6.408 v 22.392 q 0,6.336 -6.69599,6.336 h -7.704 q -6.62401,0 -6.62401,-6.336 V 91.272 q 0,-6.408 6.62401,-6.408 z m 7.99199,27.864 V 92.136 q 0,-1.296 -0.43199,-1.728 -0.43201,-0.432 -1.72801,-0.432 h -3.96 q -1.296,0 -1.72799,0.432 -0.36001,0.432 -0.36001,1.728 v 20.592 q 0,1.296 0.36001,1.728 0.43199,0.432 1.72799,0.432 h 3.96 q 1.296,0 1.72801,-0.432 0.43199,-0.432 0.43199,-1.728 z" transform="translate(0 262.96025005130195) translate(251.99999999999994 102.16925777360166) scale(1.4976581091346346) translate(-406.94862 -84.864)"></path> 
   <path id="path7763" style="font-style: normal; font-weight: 400; font-size: 72px; line-height: 1; font-family: Teko; font-variant-ligatures: none; text-align: center; text-anchor: middle; fill: rgb(225, 202, 106);" d="m 451.31075,74.928 v 4.032 l -12.096,41.04 h -6.624 l 11.736,-39.672 h -13.176 v -5.4 z" transform="translate(0 262.96025005130195) translate(310.7113878898501 87.2885268012399) scale(1.4976581091346346) translate(-431.15075 -74.928)"></path> 
   <path id="path7765" style="font-style: normal; font-weight: 400; font-size: 72px; line-height: 1; font-family: Teko; font-variant-ligatures: none; text-align: center; text-anchor: middle; fill: rgb(89, 146, 109);" d="m 455.99187,74.928 h 6.48 V 120 h -6.48 z" transform="translate(0 262.96025005130195) translate(370.3797643348561 87.2885268012399) scale(1.4976581091346346) translate(-455.99187 -74.928)"></path> 
   <path id="path7767" style="font-style: normal; font-weight: 400; font-size: 72px; line-height: 1; font-family: Teko; font-variant-ligatures: none; text-align: center; text-anchor: middle; fill: rgb(89, 146, 109);" d="m 480.97138,84.864 h 2.51999 q 6.55201,0 6.55201,6.408 V 120 h -6.48001 V 92.208 q 0,-1.296 -0.432,-1.656 -0.432,-0.432 -1.728,-0.432 h -2.52 q -1.296,0 -1.872,0.576 -0.50399,0.576 -0.50399,1.944 V 120 h -6.48001 V 84.864 h 6.48001 v 2.808 q 0.93599,-2.808 4.464,-2.808 z" transform="translate(0 262.96025005130195) translate(413.8650163626348 102.16925777360166) scale(1.4976581091346346) translate(-470.02737 -84.864)"></path> 
   <path id="path7769" style="font-style: normal; font-weight: 400; font-size: 72px; line-height: 1; font-family: Teko; font-variant-ligatures: none; text-align: center; text-anchor: middle; fill: rgb(89, 146, 109);" d="m 508.20425,90.12 h -4.824 v 22.248 q 0,1.296 0.36,1.728 0.432,0.36 1.728,0.36 h 2.736 V 120 h -4.608 q -6.768,0 -6.768,-6.336 V 90.12 h -3.312 v -5.256 h 3.312 v -5.976 h 6.552 v 5.976 h 4.824 z" transform="translate(0 262.96025005130195) translate(471.5081996061447 93.21925291341307) scale(1.4976581091346346) translate(-493.51625 -78.888)"></path> 
   <path id="path7771" style="font-style: normal; font-weight: 400; font-size: 72px; line-height: 1; font-family: Teko; font-variant-ligatures: none; text-align: center; text-anchor: middle; fill: rgb(89, 146, 109);" d="m 518.62625,84.864 h 7.056 q 6.768,0 6.768,6.408 v 13.176 h -14.184 v 8.352 q 0,1.224 0.432,1.656 0.432,0.432 1.728,0.432 h 3.312 q 1.296,0 1.728,-0.432 0.432,-0.432 0.432,-1.728 v -2.88 h 6.336 v 3.816 q 0,6.336 -6.696,6.336 h -6.912 q -6.696,0 -6.696,-6.336 V 91.272 q 0,-6.408 6.696,-6.408 z m -0.36,14.832 h 7.776 v -7.632 q 0,-1.224 -0.432,-1.656 -0.36,-0.432 -1.656,-0.432 h -3.528 q -1.296,0 -1.728,0.432 -0.432,0.432 -0.432,1.656 z" transform="translate(0 262.96025005130195) translate(521.5509476647693 102.16925777360166) scale(1.4976581091346346) translate(-511.93025 -84.864)"></path> 
   <path id="path7773" style="font-style: normal; font-weight: 400; font-size: 72px; line-height: 1; font-family: Teko; font-variant-ligatures: none; text-align: center; text-anchor: middle; fill: rgb(89, 146, 109);" d="m 550.11725,84.792 h 1.44 v 5.616 h -2.592 q -4.536,0 -4.536,5.328 V 120 h -6.48 V 84.864 h 6.48 v 4.32 q 0.576,-1.872 2.016,-3.096 1.512,-1.296 3.672,-1.296 z" transform="translate(0 262.96025005130195) translate(582.9833856433629 102.06142638974393) scale(1.4976581091346346) translate(-537.94925 -84.792)"></path> 
   <path id="path7775" style="font-style: normal; font-weight: 400; font-size: 72px; line-height: 1; font-family: Teko; font-variant-ligatures: none; text-align: center; text-anchor: middle; fill: rgb(89, 146, 109);" d="m 566.0495,84.864 h 2.52 q 6.552,0 6.552,6.408 V 120 h -6.48 V 92.208 q 0,-1.296 -0.432,-1.656 -0.432,-0.432 -1.728,-0.432 h -2.52 q -1.296,0 -1.872,0.576 -0.504,0.576 -0.504,1.944 V 120 h -6.48 V 84.864 h 6.48 v 2.808 q 0.936,-2.808 4.464,-2.808 z" transform="translate(0 262.96025005130195) translate(631.1424542152236 102.16925777360166) scale(1.4976581091346346) translate(-555.1055 -84.864)"></path> 
   <path id="path7777" style="font-style: normal; font-weight: 400; font-size: 72px; line-height: 1; font-family: Teko; font-variant-ligatures: none; text-align: center; text-anchor: middle; fill: rgb(89, 146, 109);" d="m 587.95438,84.864 h 7.05599 q 6.768,0 6.768,6.408 v 13.176 h -14.18399 v 8.352 q 0,1.224 0.432,1.656 0.432,0.432 1.72799,0.432 h 3.312 q 1.29601,0 1.728,-0.432 0.432,-0.432 0.432,-1.728 v -2.88 h 6.336 v 3.816 q 0,6.336 -6.696,6.336 h -6.91199 q -6.69601,0 -6.69601,-6.336 V 91.272 q 0,-6.408 6.69601,-6.408 z m -0.36,14.832 h 7.77599 v -7.632 q 0,-1.224 -0.432,-1.656 -0.35999,-0.432 -1.656,-0.432 h -3.528 q -1.29599,0 -1.72799,0.432 -0.432,0.432 -0.432,1.656 z" transform="translate(0 262.96025005130195) translate(692.7753836848871 102.16925777360166) scale(1.4976581091346346) translate(-581.25837 -84.864)"></path> 
   <path id="path7779" style="font-style: normal; font-weight: 400; font-size: 72px; line-height: 1; font-family: Teko; font-variant-ligatures: none; text-align: center; text-anchor: middle; fill: rgb(89, 146, 109);" d="m 619.15737,90.12 h -4.82399 v 22.248 q 0,1.296 0.35999,1.728 0.432,0.36 1.728,0.36 h 2.736 V 120 h -4.60799 q -6.768,0 -6.768,-6.336 V 90.12 h -3.312 v -5.256 h 3.312 v -5.976 h 6.552 v 5.976 h 4.82399 z" transform="translate(0 262.96025005130195) translate(750.0024126696117 93.21925291341307) scale(1.4976581091346346) translate(-604.46938 -78.888)"></path> 
  </g> 
  <g id="tagline" style="font-style:oblique;font-weight:normal;font-size:32px;line-height:1;font-family:'Fira Sans Condensed';font-variant-ligatures:none;text-align:center;text-anchor:middle"></g> 
 </g> 
</svg>