<svg xmlns:dc="http://purl.org/dc/elements/1.1/" xmlns:cc="http://creativecommons.org/ns#" xmlns:rdf="http://www.w3.org/1999/02/22-rdf-syntax-ns#" xmlns:svg="http://www.w3.org/2000/svg" xmlns="http://www.w3.org/2000/svg" id="svg295943" viewbox="0 0 1024 768" height="768px" width="1024px" version="1.1"> <metadata id="metadata295949"> 
  <rdf:rdf> 
   <cc:work rdf:about=""> 
    <dc:format>
     image/svg+xml
    </dc:format> 
    <dc:type rdf:resource="http://purl.org/dc/dcmitype/StillImage"></dc:type> 
   </cc:work> 
  </rdf:rdf> 
 </metadata> <defs id="defs295947"></defs> <g id="logo-group"> 
  <g id="title" style="font-style:normal;font-weight:700;font-size:72px;line-height:1;font-family:Jura;font-variant-ligatures:none;text-align:center;text-anchor:middle" aria-label="o7Insight"> 
   <path id="path295951" style="font-style: normal; font-weight: 700; font-size: 72px; line-height: 1; font-family: Jura; font-variant-ligatures: none; text-align: center; text-anchor: middle; fill: rgb(48, 86, 115);" d="m 360.45013,120 q -7.2,0 -10.65601,-3.456 -3.456,-3.456 -3.456,-10.584 v -8.352 q 0,-7.2 3.456,-10.656 3.45601,-3.456 10.65601,-3.456 h 5.90399 q 7.2,0 10.65601,3.456 3.456,3.456 3.456,10.656 v 8.28 q 0,7.2 -3.456,10.656 Q 373.55412,120 366.35412,120 Z m 5.90399,-6.048 q 3.16801,0 4.89601,-0.72 1.72799,-0.72 2.44799,-2.448 0.72001,-1.728 0.72001,-4.896 v -8.28 q 0,-3.168 -0.72001,-4.896 -0.72,-1.728 -2.44799,-2.448 -1.728,-0.72 -4.89601,-0.72 h -5.90399 q -3.24001,0 -4.96801,0.72 -1.656,0.72 -2.37599,2.448 -0.72001,1.656 -0.72001,4.896 v 8.352 q 0,3.168 0.72001,4.896 0.71999,1.656 2.44799,2.376 1.728,0.72 4.89601,0.72 z" transform="translate(0 286.16691431151423) translate(252 77.1387091620948) scale(1.147392799201097) translate(-346.33812 -83.496)"></path> 
   <path id="path295953" style="font-style: normal; font-weight: 700; font-size: 72px; line-height: 1; font-family: Jura; font-variant-ligatures: none; text-align: center; text-anchor: middle; fill: rgb(48, 86, 115);" d="m 400.39325,120 q -1.44,0 -2.232,-0.792 -0.792,-0.792 -0.72,-2.376 0.144,-7.416 1.224,-11.952 1.08,-4.536 3.312,-7.56 2.232,-3.024 6.336,-5.904 3.312,-2.592 4.968,-5.904 1.656,-3.384 1.944,-8.28 h -22.752 q -1.44,0 -2.232,-0.792 -0.792,-0.792 -0.792,-2.232 0,-1.44 0.792,-2.232 0.792,-0.792 2.232,-0.792 h 25.848 q 1.44,0 2.232,0.792 0.792,0.792 0.792,2.232 0,7.704 -2.304,13.032 -2.232,5.328 -7.2,9.072 -3.312,2.304 -5.04,4.68 -1.656,2.376 -2.448,6.048 -0.72,3.6 -0.864,9.792 -0.144,3.168 -3.096,3.168 z" transform="translate(0 286.16691431151423) translate(318.67629211543886 63.012009018330886) scale(1.147392799201097) translate(-389.44925 -71.184)"></path> 
   <path id="path295955" style="font-style: normal; font-weight: 700; font-size: 72px; line-height: 1; font-family: Jura; font-variant-ligatures: none; text-align: center; text-anchor: middle; fill: rgb(218, 188, 104);" d="m 435.04325,120 q -1.584,0 -2.304,-0.72 -0.72,-0.72 -0.72,-2.304 V 74.28 q 0,-1.584 0.72,-2.304 0.72,-0.72 2.304,-0.72 1.584,0 2.304,0.72 0.72,0.72 0.72,2.304 v 42.696 q 0,1.584 -0.72,2.304 -0.72,0.72 -2.304,0.72 z" transform="translate(0 286.16691431151423) translate(384.731695565446 63.09462129987337) scale(1.147392799201097) translate(-432.01925 -71.256)"></path> 
   <path id="path295957" style="font-style: normal; font-weight: 700; font-size: 72px; line-height: 1; font-family: Jura; font-variant-ligatures: none; text-align: center; text-anchor: middle; fill: rgb(218, 188, 104);" d="m 472.409,83.496 q 7.2,0 10.656,3.456 3.456,3.456 3.456,10.656 v 19.368 q 0,1.44 -0.792,2.232 -0.792,0.792 -2.232,0.792 -1.44,0 -2.232,-0.792 -0.792,-0.792 -0.792,-2.232 V 97.608 q 0,-3.168 -0.72,-4.896 -0.72,-1.728 -2.448,-2.448 -1.728,-0.72 -4.896,-0.72 h -2.016 q -4.536,0 -7.704,1.08 -3.096,1.008 -3.528,3.024 v 23.328 q 0,1.44 -0.792,2.232 -0.792,0.792 -2.232,0.792 -1.44,0 -2.232,-0.792 -0.792,-0.792 -0.792,-2.232 V 86.52 q 0,-3.024 3.024,-3.024 3.024,0 3.024,3.024 v 1.224 q 3.816,-4.248 11.232,-4.248 z" transform="translate(0 286.16691431151423) translate(426.14540441161057 77.1387091620948) scale(1.147392799201097) translate(-453.113 -83.496)"></path> 
   <path id="path295959" style="font-style: normal; font-weight: 700; font-size: 72px; line-height: 1; font-family: Jura; font-variant-ligatures: none; text-align: center; text-anchor: middle; fill: rgb(218, 188, 104);" d="m 509.35287,120 q -9.144,0 -10.656,-7.56 -0.072,-0.216 -0.072,-0.648 0,-1.224 0.792,-1.872 0.864,-0.72 2.232,-0.72 1.36801,0 2.088,0.72 0.72001,0.648 1.152,2.232 0.432,1.08 1.368,1.44 1.00801,0.36 3.096,0.36 h 11.80801 q 2.808,0 3.74399,-0.936 1.008,-0.936 1.008,-3.816 0,-2.88 -1.008,-3.816 -0.93599,-0.936 -3.74399,-0.936 h -11.59201 q -10.44,0 -10.44,-10.44 0,-5.328 2.592,-7.92 2.59201,-2.592 7.848,-2.592 h 11.23201 q 8.49599,0 10.00799,7.128 0.072,0.216 0.072,0.648 0,1.152 -0.864,1.872 -0.79201,0.648 -2.16001,0.648 -1.368,0 -2.088,-0.648 -0.648,-0.72 -1.07999,-2.16 -0.432,-0.864 -1.29601,-1.152 -0.864,-0.288 -2.59199,-0.288 h -11.23201 q -1.872,0 -2.808,0.36 -0.93599,0.288 -1.296,1.224 -0.288,0.936 -0.288,2.88 0,2.592 0.86401,3.528 0.86399,0.864 3.52799,0.864 h 11.59201 q 10.79999,0 10.79999,10.8 0,10.8 -10.79999,10.8 z" transform="translate(0 286.16691431151423) translate(495.5762883158035 77.1387091620948) scale(1.147392799201097) translate(-498.62487 -83.496)"></path> 
   <path id="path295961" style="font-style: normal; font-weight: 700; font-size: 72px; line-height: 1; font-family: Jura; font-variant-ligatures: none; text-align: center; text-anchor: middle; fill: rgb(218, 188, 104);" d="m 547.8245,120 q -1.44,0 -2.232,-0.792 -0.792,-0.792 -0.792,-2.232 V 86.52 q 0,-1.44 0.792,-2.232 0.792,-0.792 2.232,-0.792 1.44,0 2.232,0.792 0.792,0.792 0.792,2.232 v 30.456 q 0,1.44 -0.792,2.232 -0.792,0.792 -2.232,0.792 z m -1.008,-42.408 q -1.656,0 -2.592,-0.936 -0.864,-0.936 -0.864,-2.52 v -2.16 q 0,-1.656 0.864,-2.448 0.936,-0.864 2.592,-0.864 h 2.088 q 3.24,0 3.24,3.312 v 2.16 q 0,1.656 -0.864,2.592 -0.792,0.864 -2.376,0.864 z" transform="translate(0 286.16691431151423) translate(564.1165200335445 60.12057916434411) scale(1.147392799201097) translate(-543.3605 -68.664)"></path> 
   <path id="path295963" style="font-style: normal; font-weight: 700; font-size: 72px; line-height: 1; font-family: Jura; font-variant-ligatures: none; text-align: center; text-anchor: middle; fill: rgb(218, 188, 104);" d="m 595.27025,83.496 q 3.024,0 3.024,3.024 v 37.512 q 0,5.328 -2.52,7.848 -2.52,2.52 -7.848,2.52 h -13.392 q -8.712,0 -10.08,-7.128 -0.072,-0.216 -0.072,-0.72 0,-1.152 0.792,-1.872 0.792,-0.648 2.232,-0.648 1.296,0 1.944,0.648 0.648,0.72 1.152,2.304 0.432,0.792 1.296,1.08 0.936,0.288 2.736,0.288 h 13.392 q 2.664,0 3.456,-0.864 0.864,-0.792 0.864,-3.456 v -8.352 q -1.944,2.088 -4.824,3.24 -2.88,1.08 -6.408,1.08 h -2.736 q -7.2,0 -10.656,-3.456 -3.456,-3.456 -3.456,-10.584 v -8.352 q 0,-7.272 3.456,-10.728 3.456,-3.456 10.656,-3.384 h 5.904 q 5.184,0 8.064,3.024 0,-3.024 3.024,-3.024 z m -14.256,30.456 q 5.04,0 8.136,-1.224 3.096,-1.296 3.096,-3.744 v -14.4 q 0,-2.808 -2.016,-3.888 -2.016,-1.152 -6.048,-1.152 h -5.904 q -3.168,-0.072 -4.896,0.648 -1.728,0.72 -2.448,2.448 -0.72,1.728 -0.72,4.968 v 8.352 q 0,3.168 0.72,4.896 0.72,1.656 2.448,2.376 1.728,0.72 4.896,0.72 z" transform="translate(0 286.16691431151423) translate(605.1997797535391 77.13702364207278) scale(1.147392799201097) translate(-564.16625 -83.494531)"></path> 
   <path id="path295965" style="font-style: normal; font-weight: 700; font-size: 72px; line-height: 1; font-family: Jura; font-variant-ligatures: none; text-align: center; text-anchor: middle; fill: rgb(218, 188, 104);" d="m 632.23775,83.496 q 7.2,0 10.656,3.456 3.456,3.456 3.456,10.656 v 19.368 q 0,1.44 -0.792,2.232 -0.792,0.792 -2.232,0.792 -1.44,0 -2.232,-0.792 -0.792,-0.792 -0.792,-2.232 V 97.608 q 0,-3.168 -0.72,-4.896 -0.72,-1.728 -2.448,-2.448 -1.728,-0.72 -4.896,-0.72 h -2.016 q -4.752,0 -7.416,1.224 -2.664,1.224 -3.456,3.744 -0.072,0.36 -0.36,1.08 v 21.384 q 0,1.44 -0.792,2.232 -0.792,0.792 -2.232,0.792 -1.44,0 -2.232,-0.792 -0.792,-0.792 -0.792,-2.232 v -20.88 q -0.36,-0.576 -0.36,-1.224 0,-0.432 0.072,-0.648 0.144,-0.72 0.288,-1.152 V 72.336 q 0,-1.44 0.792,-2.232 0.792,-0.792 2.232,-0.792 1.44,0 2.232,0.792 0.792,0.792 0.792,2.232 V 85.8 q 4.392,-2.304 11.232,-2.304 z" transform="translate(0 286.16691431151423) translate(677.9622678112764 60.86408969822644) scale(1.147392799201097) translate(-612.58175 -69.312)"></path> 
   <path id="path295967" style="font-style: normal; font-weight: 700; font-size: 72px; line-height: 1; font-family: Jura; font-variant-ligatures: none; text-align: center; text-anchor: middle; fill: rgb(218, 188, 104);" d="m 676.0835,113.952 q 3.024,0 3.024,3.024 0,1.44 -0.792,2.232 -0.792,0.792 -2.232,0.792 -7.128,0 -10.512,-3.384 -3.384,-3.384 -3.384,-10.44 V 89.544 h -3.528 q -1.44,0 -2.232,-0.792 -0.792,-0.792 -0.792,-2.232 0,-3.024 3.024,-3.024 h 3.528 V 78.24 q 0,-1.44 0.792,-2.232 0.792,-0.792 2.232,-0.792 1.44,0 2.232,0.792 0.792,0.792 0.792,2.232 v 5.256 h 8.28 q 3.024,0 3.024,3.024 0,1.44 -0.792,2.232 -0.792,0.792 -2.232,0.792 h -8.28 v 16.632 q 0,3.096 0.72,4.752 0.72,1.656 2.376,2.376 1.656,0.648 4.752,0.648 z" transform="translate(0 286.16691431151423) translate(744.572722527897 67.63829678470971) scale(1.147392799201097) translate(-655.6355 -75.216)"></path> 
  </g> 
  <g id="tagline" style="font-style:normal;font-weight:500;font-size:32px;line-height:1;font-family:Roboto;font-variant-ligatures:none;text-align:center;text-anchor:middle"></g> 
 </g> 
</svg>