<svg xmlns:dc="http://purl.org/dc/elements/1.1/" xmlns:cc="http://creativecommons.org/ns#" xmlns:rdf="http://www.w3.org/1999/02/22-rdf-syntax-ns#" xmlns:svg="http://www.w3.org/2000/svg" xmlns="http://www.w3.org/2000/svg" id="svg12038" viewbox="0 0 1024 768" height="768px" width="1024px" version="1.1"> <metadata id="metadata12044"> 
  <rdf:rdf> 
   <cc:work rdf:about=""> 
    <dc:format>
     image/svg+xml
    </dc:format> 
    <dc:type rdf:resource="http://purl.org/dc/dcmitype/StillImage"></dc:type> 
   </cc:work> 
  </rdf:rdf> 
 </metadata> <defs id="defs12042"></defs> <g id="logo-group"> 
  <g id="title" style="font-style:oblique;font-weight:700;font-size:72px;line-height:1;font-family:'Uni Neue';font-variant-ligatures:none;text-align:center;text-anchor:middle" aria-label="o7Island"> 
   <path id="path12046" style="font-style: oblique; font-weight: 700; font-size: 72px; line-height: 1; font-family: &quot;Uni Neue&quot;; font-variant-ligatures: none; text-align: center; text-anchor: middle; fill: rgb(131, 115, 92);" d="m 412.54775,106.68 1.656,-9.072 c 1.512,-8.784 -4.248,-16.056 -14.112,-16.056 -10.008,0 -17.064,5.4 -18.648,14.112 l -1.512,8.928 c -1.656,9.144 4.176,16.344 13.824,16.344 10.584,0 17.136,-5.184 18.792,-14.256 z m -21.816,-1.008 1.656,-9.288 c 0.576,-3.24 3.024,-5.4 6.48,-5.4 3.456,0 4.968,2.664 4.392,5.904 l -1.656,9.216 c -0.576,3.384 -2.88,5.4 -6.624,5.4 -3.384,0 -4.896,-2.304 -4.248,-5.832 z" transform="translate(0 270.49885441849545) translate(252.00000000000006 95.13793075397835) scale(1.3936866141109763) translate(-379.6519 -81.552)"></path> 
   <path id="path12048" style="font-style: oblique; font-weight: 700; font-size: 72px; line-height: 1; font-family: &quot;Uni Neue&quot;; font-variant-ligatures: none; text-align: center; text-anchor: middle; fill: rgb(131, 115, 92);" d="m 429.767,120 c 0.72,0 1.152,-0.288 1.512,-0.864 l 24.84,-41.688 c 0.288,-0.504 0.432,-0.936 0.504,-1.44 l 1.008,-6.12 c 0.144,-0.792 -0.288,-1.368 -1.08,-1.368 h -31.896 c -0.792,0 -1.224,0.36 -1.296,1.152 l -1.368,7.776 c -0.144,0.792 0.288,1.368 1.152,1.368 h 19.872 l -23.688,39.672 c -0.504,0.864 -0.072,1.512 0.864,1.512 z" transform="translate(0 270.49885441849545) translate(327.9032809256333 76.9754067988841) scale(1.3936866141109763) translate(-419.11413 -68.52)"></path> 
   <path id="path12050" style="font-style: oblique; font-weight: 700; font-size: 72px; line-height: 1; font-family: &quot;Uni Neue&quot;; font-variant-ligatures: none; text-align: center; text-anchor: middle; fill: rgb(118, 200, 177);" d="m 475.67262,69.888 c 0.144,-0.792 -0.28799,-1.368 -1.152,-1.368 h -8.856 c -0.792,0 -1.224,0.432 -1.368,1.152 l -8.63999,48.96 c -0.072,0.792 0.35999,1.368 1.15199,1.368 h 8.928 c 0.72,0 1.152,-0.432 1.296,-1.152 z" transform="translate(0 270.49885441849545) translate(399.72654428845664 76.9754067988841) scale(1.3936866141109763) translate(-455.64886 -68.52)"></path> 
   <path id="path12052" style="font-style: oblique; font-weight: 700; font-size: 72px; line-height: 1; font-family: &quot;Uni Neue&quot;; font-variant-ligatures: none; text-align: center; text-anchor: middle; fill: rgb(118, 200, 177);" d="m 506.76087,109.776 c 1.512,-8.424 -5.39999,-11.88 -10.944,-13.104 -3.45599,-0.792 -5.76,-1.44 -5.328,-3.6 0.28801,-1.8 1.94401,-2.376 4.608,-2.376 3.024,0 5.76,0.648 7.99201,1.944 0.71999,0.36 1.296,0.288 1.72799,-0.36 l 4.24801,-5.688 c 0.50399,-0.648 0.43199,-1.296 -0.288,-1.728 -3.88801,-2.232 -7.70401,-3.312 -12.67201,-3.312 -8.712,0 -14.76,3.096 -16.272,10.368 -1.584,7.776 4.032,12.024 11.08801,13.464 2.88,0.648 5.39999,1.224 4.89599,3.456 -0.35999,1.656 -2.08799,2.736 -5.544,2.736 -3.384,0 -6.552,-1.008 -9.36,-3.096 -0.64799,-0.432 -1.224,-0.36 -1.728,0.288 l -4.104,5.616 c -0.432,0.576 -0.432,1.224 0.216,1.728 3.96,3.24 8.64,4.824 14.616,4.824 9,0 15.408,-3.528 16.848,-11.16 z" transform="translate(0 270.49885441849545) translate(447.2943645566154 95.13793075397835) scale(1.3936866141109763) translate(-474.77979 -81.552)"></path> 
   <path id="path12054" style="font-style: oblique; font-weight: 700; font-size: 72px; line-height: 1; font-family: &quot;Uni Neue&quot;; font-variant-ligatures: none; text-align: center; text-anchor: middle; fill: rgb(118, 200, 177);" d="m 526.87925,120.576 c 0.504,-0.072 0.792,-0.432 0.936,-1.152 l 1.152,-6.84 c 0.144,-0.864 -0.288,-1.224 -1.152,-1.152 -0.432,0 -0.936,0 -1.44,0 -2.592,0 -3.456,-1.944 -2.808,-5.4 l 6.336,-36.144 c 0.144,-0.792 -0.288,-1.368 -1.08,-1.368 h -8.352 c -0.72,0 -1.152,0.432 -1.296,1.152 l -6.336,35.784 c -1.584,9.36 2.448,15.48 10.224,15.48 1.512,0 2.808,-0.144 3.816,-0.36 z" transform="translate(0 270.49885441849545) translate(520.7680455447352 76.9754067988841) scale(1.3936866141109763) translate(-512.49873 -68.52)"></path> 
   <path id="path12056" style="font-style: oblique; font-weight: 700; font-size: 72px; line-height: 1; font-family: &quot;Uni Neue&quot;; font-variant-ligatures: none; text-align: center; text-anchor: middle; fill: rgb(118, 200, 177);" d="m 560.77887,118.416 c 0.648,-0.216 0.936,-0.72 1.08,-1.368 l 3.24001,-18.216 c 1.94399,-10.8 -3.096,-17.28 -12.88801,-17.28 -5.832,0 -11.23199,1.296 -14.688,3.384 -0.432,0.288 -0.432,0.792 -0.216,1.44 l 2.232,5.904 c 0.288,0.792 0.864,0.936 1.65601,0.576 2.15999,-1.008 5.39999,-1.656 8.56799,-1.656 4.536,0 5.544,1.944 4.896,5.472 l -0.144,1.152 c -1.8,-0.36 -3.95999,-0.576 -6.12,-0.576 -9.216,0 -15.12,3.096 -16.34399,10.08 -1.44001,7.848 3.672,13.608 13.75199,13.608 5.544,0 10.87201,-1.08 14.976,-2.52 z m -18,-10.512 c 0.36,-2.16 2.23201,-3.312 5.76,-3.312 1.58401,0 3.24,0.216 4.60801,0.504 l -1.00801,6.264 c -1.29599,0.288 -3.312,0.576 -4.96799,0.576 -3.168,0 -4.89601,-1.296 -4.39201,-4.032 z" transform="translate(0 270.49885441849545) translate(568.5891126075439 95.13793075397835) scale(1.3936866141109763) translate(-531.81137 -81.552)"></path> 
   <path id="path12058" style="font-style: oblique; font-weight: 700; font-size: 72px; line-height: 1; font-family: &quot;Uni Neue&quot;; font-variant-ligatures: none; text-align: center; text-anchor: middle; fill: rgb(118, 200, 177);" d="m 578.19275,120 c 0.792,0 1.224,-0.36 1.368,-1.152 l 4.752,-27 c 1.08,-0.504 2.88,-0.864 4.608,-0.864 3.816,0 5.4,2.088 4.536,6.624 l -3.6,21.024 c -0.072,0.792 0.36,1.368 1.152,1.368 h 8.28 c 0.792,0 1.224,-0.432 1.368,-1.152 l 3.6,-20.16 c 1.8,-10.224 -3.096,-17.136 -13.968,-17.136 -4.68,0 -10.08,1.152 -14.616,2.88 -0.648,0.288 -0.936,0.72 -1.08,1.296 l -5.904,32.904 c -0.144,0.792 0.288,1.368 1.152,1.368 z" transform="translate(0 270.49885441849545) translate(640.8518889809934 95.13793075397835) scale(1.3936866141109763) translate(-568.66146 -81.552)"></path> 
   <path id="path12060" style="font-style: oblique; font-weight: 700; font-size: 72px; line-height: 1; font-family: &quot;Uni Neue&quot;; font-variant-ligatures: none; text-align: center; text-anchor: middle; fill: rgb(118, 200, 177);" d="m 638.37575,118.272 c 0.648,-0.216 1.008,-0.648 1.08,-1.296 l 8.28,-47.088 c 0.144,-0.792 -0.288,-1.368 -1.152,-1.368 h -8.352 c -0.72,0 -1.152,0.432 -1.296,1.152 l -2.376,13.392 c -1.8,-0.936 -4.32,-1.512 -6.984,-1.512 -8.568,0 -15.12,5.832 -16.632,14.4 l -1.512,8.28 c -1.656,9.576 4.104,16.704 14.544,16.704 4.752,0 10.296,-1.008 14.4,-2.664 z m -18,-13.248 1.368,-7.704 c 0.792,-4.392 3.024,-6.552 6.48,-6.552 1.8,0 3.6,0.432 4.752,1.224 l -3.24,18.576 c -1.152,0.504 -3.024,0.792 -4.752,0.792 -3.888,0 -5.472,-1.8 -4.608,-6.336 z" transform="translate(0 270.49885441849545) translate(718.1861933851296 76.9754067988841) scale(1.3936866141109763) translate(-609.15048 -68.52)"></path> 
  </g> 
  <g id="tagline" style="font-style:oblique;font-weight:400;font-size:32px;line-height:1;font-family:Lato;font-variant-ligatures:none;text-align:center;text-anchor:middle"></g> 
 </g> 
</svg>