<svg xmlns:dc="http://purl.org/dc/elements/1.1/" xmlns:cc="http://creativecommons.org/ns#" xmlns:rdf="http://www.w3.org/1999/02/22-rdf-syntax-ns#" xmlns:svg="http://www.w3.org/2000/svg" xmlns="http://www.w3.org/2000/svg" id="svg971418" viewbox="0 0 1024 768" height="768px" width="1024px" version="1.1"> <metadata id="metadata971424"> 
  <rdf:rdf> 
   <cc:work rdf:about=""> 
    <dc:format>
     image/svg+xml
    </dc:format> 
    <dc:type rdf:resource="http://purl.org/dc/dcmitype/StillImage"></dc:type> 
   </cc:work> 
  </rdf:rdf> 
 </metadata> <defs id="defs971422"></defs> <g id="logo-group"> 
  <g id="title" style="font-style:normal;font-weight:700;font-size:72px;line-height:1;font-family:Jura;font-variant-ligatures:none;text-align:center;text-anchor:middle" aria-label="O7Idea"> 
   <path id="path971426" style="font-style: normal; font-weight: 700; font-size: 72px; line-height: 1; font-family: Jura; font-variant-ligatures: none; text-align: center; text-anchor: middle; fill: rgb(168, 162, 162);" d="m 410.138,120 q -8.28,0 -12.24,-3.888 -3.888,-3.96 -3.888,-12.24 V 87.24 q 0,-8.28 3.96,-12.168 3.96,-3.96 12.168,-3.888 h 8.64 q 8.28,0 12.168,3.96 3.96,3.888 3.96,12.168 v 16.56 q 0,8.28 -3.96,12.24 Q 427.058,120 418.778,120 Z m 8.64,-6.048 q 3.96,0 6.048,-0.936 2.16,-0.936 3.096,-3.024 0.936,-2.16 0.936,-6.12 v -16.56 q 0,-3.888 -0.936,-6.048 -0.936,-2.16 -3.096,-3.096 -2.16,-0.936 -6.048,-0.936 h -8.64 q -3.888,-0.072 -6.048,0.864 -2.16,0.936 -3.096,3.096 -0.936,2.16 -0.936,6.048 v 16.632 q 0,3.96 0.936,6.12 0.936,2.088 3.024,3.024 2.16,0.936 6.12,0.936 z" transform="translate(0 244.49679512917555) translate(252 100.11938635872322) scale(1.677814453080887) translate(-394.01 -71.182714)"></path> 
   <path id="path971428" style="font-style: normal; font-weight: 700; font-size: 72px; line-height: 1; font-family: Jura; font-variant-ligatures: none; text-align: center; text-anchor: middle; fill: rgb(168, 162, 162);" d="m 452.00263,120 q -1.44,0 -2.23201,-0.792 -0.79199,-0.792 -0.71999,-2.376 0.14399,-7.416 1.224,-11.952 1.07999,-4.536 3.312,-7.56 2.23199,-3.024 6.33599,-5.904 3.312,-2.592 4.968,-5.904 1.656,-3.384 1.94401,-8.28 h -22.75201 q -1.44,0 -2.232,-0.792 -0.792,-0.792 -0.792,-2.232 0,-1.44 0.792,-2.232 0.792,-0.792 2.232,-0.792 h 25.84801 q 1.44,0 2.23199,0.792 0.79201,0.792 0.79201,2.232 0,7.704 -2.30401,13.032 -2.23199,5.328 -7.2,9.072 -3.312,2.304 -5.04,4.68 -1.656,2.376 -2.448,6.048 -0.72,3.6 -0.86399,9.792 -0.144,3.168 -3.096,3.168 z" transform="translate(0 244.49679512917555) translate(356.10607142972384 100.12154402810985) scale(1.677814453080887) translate(-441.05862 -71.184)"></path> 
   <path id="path971430" style="font-style: normal; font-weight: 700; font-size: 72px; line-height: 1; font-family: Jura; font-variant-ligatures: none; text-align: center; text-anchor: middle; fill: rgb(143, 137, 137);" d="m 486.65262,120 q -1.584,0 -2.30399,-0.72 -0.72001,-0.72 -0.72001,-2.304 V 74.28 q 0,-1.584 0.72001,-2.304 0.71999,-0.72 2.30399,-0.72 1.584,0 2.304,0.72 0.72,0.72 0.72,2.304 v 42.696 q 0,1.584 -0.72,2.304 -0.72,0.72 -2.304,0.72 z" transform="translate(0 244.49679512917555) translate(452.6978494935905 100.24234666873168) scale(1.677814453080887) translate(-483.62862 -71.256)"></path> 
   <path id="path971432" style="font-style: normal; font-weight: 700; font-size: 72px; line-height: 1; font-family: Jura; font-variant-ligatures: none; text-align: center; text-anchor: middle; fill: rgb(143, 137, 137);" d="m 534.09838,69.312 q 1.43999,0 2.23199,0.792 0.79201,0.792 0.79201,2.232 v 44.64 q 0,1.44 -0.79201,2.232 -0.792,0.792 -2.23199,0.792 -1.44001,0 -2.23201,-0.792 -0.79199,-0.792 -0.79199,-2.232 v -0.504 q -1.80001,1.8 -4.53601,2.664 -2.664,0.864 -6.696,0.864 h -2.736 q -7.19999,0 -10.656,-3.456 -3.456,-3.456 -3.456,-10.656 v -8.28 q 0,-7.2 3.456,-10.656 3.45601,-3.456 10.656,-3.456 h 13.96801 v -11.16 q 0,-1.44 0.79199,-2.232 0.792,-0.792 2.23201,-0.792 z m -14.25601,44.64 q 4.96801,0 8.06401,-1.224 3.168,-1.296 3.168,-3.744 v -19.44 h -13.96801 q -3.168,0 -4.896,0.72 -1.728,0.72 -2.44799,2.448 -0.72001,1.728 -0.72001,4.896 v 8.28 q 0,3.168 0.72001,4.896 0.71999,1.728 2.44799,2.448 1.728,0.72 4.896,0.72 z" transform="translate(0 244.49679512917555) translate(510.35720153455503 96.98067537194244) scale(1.677814453080887) translate(-502.99437 -69.312)"></path> 
   <path id="path971434" style="font-style: normal; font-weight: 700; font-size: 72px; line-height: 1; font-family: Jura; font-variant-ligatures: none; text-align: center; text-anchor: middle; fill: rgb(143, 137, 137);" d="m 555.72987,104.232 v 1.728 q 0,3.168 0.72001,4.896 0.72,1.656 2.44799,2.376 1.728,0.72 4.896,0.72 h 5.904 q 3.672,0 5.40001,-0.648 1.79999,-0.72 2.376,-2.448 0.432,-1.44 1.15199,-2.088 0.72,-0.72 2.08801,-0.72 1.36799,0 2.08799,0.648 0.79201,0.576 0.79201,1.728 0,0.504 -0.072,0.72 Q 581.93787,120 569.69787,120 h -5.904 q -7.19999,0 -10.656,-3.456 -3.456,-3.456 -3.456,-10.584 v -8.352 q 0,-7.272 3.456,-10.728 3.45601,-3.456 10.656,-3.384 h 5.904 q 7.2,0 10.65601,3.456 3.456,3.456 3.456,10.656 v 3.6 q 0,1.44 -0.79201,2.232 -0.792,0.792 -2.23199,0.792 z m 0,-6.048 h 22.03201 v -0.576 q 0,-3.168 -0.72001,-4.896 -0.72,-1.728 -2.44799,-2.448 -1.72801,-0.72 -4.89601,-0.72 h -5.904 q -3.168,-0.072 -4.896,0.648 -1.72799,0.72 -2.44799,2.448 -0.72001,1.728 -0.72001,4.968 z" transform="translate(0 244.49679512917555) translate(613.8573806089822 120.77633086501017) scale(1.677814453080887) translate(-549.68187 -83.494531)"></path> 
   <path id="path971436" style="font-style: normal; font-weight: 700; font-size: 72px; line-height: 1; font-family: Jura; font-variant-ligatures: none; text-align: center; text-anchor: middle; fill: rgb(143, 137, 137);" d="m 614.825,83.496 q 7.2,0 10.656,3.456 3.456,3.456 3.456,10.656 v 19.368 q 0,1.44 -0.792,2.232 -0.792,0.792 -2.232,0.792 -1.44,0 -2.232,-0.792 -0.792,-0.792 -0.792,-2.232 V 115.32 Q 619.073,120 611.657,120 h -4.032 q -6.048,0 -9,-2.952 -2.952,-2.952 -2.952,-9 0,-6.048 2.88,-9 2.952,-2.952 9.072,-2.952 h 15.192 q -0.216,-3.744 -1.944,-5.112 -1.728,-1.44 -6.048,-1.44 h -4.176 q -3.6,0 -5.4,0.504 -1.728,0.504 -2.448,1.728 -0.648,1.512 -1.368,2.088 -0.72,0.576 -2.016,0.576 -1.296,0 -2.16,-0.648 -0.792,-0.648 -0.792,-1.728 0,-0.432 0.072,-0.72 1.08,-4.032 4.464,-5.904 3.456,-1.944 9.648,-1.944 z m 7.704,25.488 q 0.072,-0.216 0.144,-0.432 0.072,-0.288 0.216,-0.576 v -5.832 h -15.264 q -2.448,0 -3.672,0.504 -1.224,0.504 -1.728,1.728 -0.504,1.224 -0.504,3.672 0,2.448 0.504,3.672 0.504,1.224 1.728,1.728 1.224,0.504 3.672,0.504 h 4.032 q 9.144,0 10.872,-4.968 z" transform="translate(0 244.49679512917555) translate(716.1891800327176 120.77879557444173) scale(1.677814453080887) translate(-595.673 -83.496)"></path> 
  </g> 
  <g id="tagline" style="font-style:normal;font-weight:500;font-size:32px;line-height:1;font-family:Roboto;font-variant-ligatures:none;text-align:center;text-anchor:middle"></g> 
 </g> 
</svg>