<svg xmlns:dc="http://purl.org/dc/elements/1.1/" xmlns:cc="http://creativecommons.org/ns#" xmlns:rdf="http://www.w3.org/1999/02/22-rdf-syntax-ns#" xmlns:svg="http://www.w3.org/2000/svg" xmlns="http://www.w3.org/2000/svg" id="svg78227" viewbox="0 0 1024 768" height="768px" width="1024px" version="1.1"> <metadata id="metadata78233"> 
  <rdf:rdf> 
   <cc:work rdf:about=""> 
    <dc:format>
     image/svg+xml
    </dc:format> 
    <dc:type rdf:resource="http://purl.org/dc/dcmitype/StillImage"></dc:type> 
   </cc:work> 
  </rdf:rdf> 
 </metadata> <defs id="defs78231"></defs> <g id="logo-group"> 
  <g id="title" style="font-style:normal;font-weight:700;font-size:72px;line-height:1;font-family:'Comfortaa Bold Alt2';font-variant-ligatures:none;text-align:center;text-anchor:middle" aria-label="O7Jet"> 
   <path id="path78235" style="font-style: normal; font-weight: 700; font-size: 72px; line-height: 1; font-family: &quot;Comfortaa Bold Alt2&quot;; font-variant-ligatures: none; text-align: center; text-anchor: middle; fill: rgb(12, 11, 11);" d="m 434.80137,120.864 c 3.888,0 7.632,-0.792 11.232,-2.304 3.456,-1.44 6.552,-3.528 9.216,-6.192 2.664,-2.664 4.752,-5.688 6.192,-9.216 1.512,-3.528 2.304,-7.272 2.304,-11.232 0,-3.96 -0.792,-7.704 -2.304,-11.304 -1.44,-3.456 -3.528,-6.48 -6.192,-9.144 -2.664,-2.664 -5.76,-4.752 -9.216,-6.192 -3.6,-1.512 -7.344,-2.304 -11.232,-2.304 -3.95999,0 -7.704,0.792 -11.304,2.304 -3.45599,1.44 -6.55199,3.528 -9.21599,6.192 -2.66401,2.664 -4.752,5.688 -6.192,9.144 -1.512,3.6 -2.23201,7.344 -2.23201,11.304 0,3.96 0.72001,7.704 2.23201,11.232 1.44,3.528 3.52799,6.552 6.192,9.216 2.664,2.664 5.76,4.752 9.21599,6.192 3.6,1.512 7.34401,2.304 11.304,2.304 z m 0,-50.688 c 5.976,0 11.088,2.088 15.33601,6.336 4.24799,4.248 6.40799,9.432 6.40799,15.408 0,5.976 -2.16,11.088 -6.40799,15.336 -4.24801,4.248 -9.36001,6.408 -15.33601,6.408 -6.048,0 -11.16,-2.16 -15.408,-6.408 -4.248,-4.176 -6.336,-9.36 -6.336,-15.336 0,-5.976 2.088,-11.16 6.336,-15.408 4.248,-4.248 9.36,-6.336 15.408,-6.336 z" transform="translate(0 173.82871781712822) translate(252.00000000000006 139.9061066443487) scale(2.427624914957265) translate(-405.85737 -62.976)"></path> 
   <path id="path78237" style="font-style: normal; font-weight: 700; font-size: 72px; line-height: 1; font-family: &quot;Comfortaa Bold Alt2&quot;; font-variant-ligatures: none; text-align: center; text-anchor: middle; fill: rgb(12, 11, 11);" d="m 467.78413,70.104 c 0.71999,0.72 1.584,1.008 2.66399,1.008 h 21.888 l -20.664,42.912 c -0.432,0.864 -0.64799,1.656 -0.64799,2.304 0,1.008 0.35999,1.872 1.07999,2.592 0.72,0.72 1.512,1.08 2.52,1.08 0.64801,0 1.296,-0.144 1.944,-0.504 0.576,-0.36 1.08,-0.864 1.44,-1.512 l 23.04001,-48.6 c 0.28799,-0.72 0.50399,-1.368 0.50399,-1.944 0,-1.008 -0.35999,-1.872 -1.08,-2.592 -0.72,-0.72 -1.584,-1.08 -2.59199,-1.08 h -27.43201 c -1.07999,0 -1.944,0.36 -2.66399,1.08 -0.72001,0.72 -1.00801,1.584 -1.00801,2.592 0,1.08 0.288,1.944 1.00801,2.664 z" transform="translate(0 173.82871781712822) translate(399.88787528805295 141.82878557699487) scale(2.427624914957265) translate(-466.77612 -63.768)"></path> 
   <path id="path78239" style="font-style: normal; font-weight: 700; font-size: 72px; line-height: 1; font-family: &quot;Comfortaa Bold Alt2&quot;; font-variant-ligatures: none; text-align: center; text-anchor: middle; fill: rgb(246, 207, 11);" d="m 539.34312,112.44 c 1.44001,-2.592 2.232,-5.616 2.232,-9 V 67.512 c 0,-1.08 -0.36,-1.944 -1.07999,-2.664 -0.72001,-0.72 -1.65601,-1.08 -2.736,-1.08 -1.08001,0 -1.94401,0.36 -2.664,1.08 -0.72,0.72 -1.008,1.584 -1.008,2.664 v 35.928 c 0,3.096 -0.93601,5.616 -2.808,7.56 -1.87201,2.016 -4.17601,2.952 -7.05601,2.952 -2.88,0 -5.256,-0.936 -7.05599,-2.952 -1.87201,-1.944 -2.73601,-4.464 -2.73601,-7.56 0,-1.08 -0.35999,-1.944 -1.07999,-2.664 -0.72001,-0.72 -1.584,-1.08 -2.66401,-1.08 -1.08,0 -1.94399,0.36 -2.664,1.08 -0.71999,0.72 -1.08,1.584 -1.08,2.664 0,3.384 0.72,6.408 2.16,9 1.44,2.592 3.528,4.68 6.12,6.12 2.592,1.44 5.616,2.16 9,2.16 3.312,0 6.336,-0.72 8.928,-2.16 2.592,-1.44 4.68001,-3.528 6.192,-6.12 z" transform="translate(0 173.82871781712822) translate(497.3982852471415 141.82878557699487) scale(2.427624914957265) translate(-506.94312 -63.768)"></path> 
   <path id="path78241" style="font-style: normal; font-weight: 700; font-size: 72px; line-height: 1; font-family: &quot;Comfortaa Bold Alt2&quot;; font-variant-ligatures: none; text-align: center; text-anchor: middle; fill: rgb(246, 207, 11);" d="m 572.24375,120.288 c 4.752,0 8.928,-1.44 12.6,-4.464 0.792,-0.576 1.152,-1.368 1.296,-2.304 0.072,-1.008 -0.144,-1.8 -0.792,-2.592 -0.576,-0.72 -1.368,-1.152 -2.304,-1.224 -0.936,-0.072 -1.8,0.144 -2.52,0.792 -2.448,1.944 -5.184,2.88 -8.28,2.88 -3.6,0 -6.696,-1.224 -9.216,-3.816 -2.592,-2.52 -3.816,-5.616 -3.816,-9.216 0,-3.6 1.224,-6.696 3.816,-9.288 2.52,-2.52 5.616,-3.816 9.216,-3.816 2.952,0 5.616,0.936 7.992,2.736 2.304,1.8 3.816,4.104 4.608,6.912 h -12.6 c -0.936,0 -1.8,0.36 -2.448,1.008 -0.648,0.648 -1.008,1.512 -1.008,2.448 0,0.936 0.36,1.8 1.008,2.448 0.648,0.648 1.512,1.008 2.448,1.008 h 16.56 c 0.936,0 1.728,-0.36 2.376,-1.008 0.72,-0.648 1.08,-1.512 1.08,-2.448 0,-5.544 -2.016,-10.224 -5.904,-14.112 -3.888,-3.888 -8.568,-5.904 -14.112,-5.904 -5.544,0 -10.224,2.016 -14.112,5.904 -3.888,3.888 -5.832,8.568 -5.832,14.112 0,5.544 1.944,10.224 5.832,14.112 3.888,3.888 8.568,5.832 14.112,5.832 z" transform="translate(0 173.82871781712822) translate(607.5071702936398 182.03025416868718) scale(2.427624914957265) translate(-552.29975 -80.328)"></path> 
   <path id="path78243" style="font-style: normal; font-weight: 700; font-size: 72px; line-height: 1; font-family: &quot;Comfortaa Bold Alt2&quot;; font-variant-ligatures: none; text-align: center; text-anchor: middle; fill: rgb(246, 207, 11);" d="m 616.4585,112.8 c -2.088,0 -3.888,-0.72 -5.328,-2.232 -1.512,-1.44 -2.232,-3.24 -2.232,-5.328 V 88.32 h 6.408 c 0.864,0 1.656,-0.288 2.304,-0.936 0.576,-0.576 0.936,-1.368 0.936,-2.304 0,-0.864 -0.36,-1.656 -0.936,-2.304 -0.648,-0.576 -1.44,-0.936 -2.304,-0.936 h -6.408 V 71.688 c 0,-1.008 -0.36,-1.8 -1.08,-2.52 -0.72,-0.72 -1.512,-1.08 -2.52,-1.08 -1.008,0 -1.872,0.36 -2.592,1.08 -0.72,0.72 -1.008,1.512 -1.008,2.52 v 33.552 c 0,4.104 1.44,7.56 4.32,10.44 2.88,2.88 6.336,4.32 10.44,4.32 1.008,0 1.8,-0.288 2.52,-1.008 0.72,-0.72 1.08,-1.584 1.08,-2.592 0,-1.008 -0.36,-1.8 -1.08,-2.52 -0.72,-0.72 -1.512,-1.08 -2.52,-1.08 z" transform="translate(0 173.82871781712822) translate(727.4288065613848 152.31612520961025) scale(2.427624914957265) translate(-601.6985 -68.088)"></path> 
  </g> 
  <g id="tagline" style="font-style:normal;font-weight:500;font-size:32px;line-height:1;font-family:Raleway;font-variant-ligatures:none;text-align:center;text-anchor:middle"></g> 
 </g> 
</svg>