<svg xmlns:dc="http://purl.org/dc/elements/1.1/" xmlns:cc="http://creativecommons.org/ns#" xmlns:rdf="http://www.w3.org/1999/02/22-rdf-syntax-ns#" xmlns:svg="http://www.w3.org/2000/svg" xmlns="http://www.w3.org/2000/svg" id="svg75421" viewbox="0 0 1024 768" height="768px" width="1024px" version="1.1"> <metadata id="metadata75427"> 
  <rdf:rdf> 
   <cc:work rdf:about=""> 
    <dc:format>
     image/svg+xml
    </dc:format> 
    <dc:type rdf:resource="http://purl.org/dc/dcmitype/StillImage"></dc:type> 
   </cc:work> 
  </rdf:rdf> 
 </metadata> <defs id="defs75425"></defs> <g id="logo-group"> 
  <g id="title" style="font-style:normal;font-weight:300;font-size:72px;line-height:1;font-family:'Montserrat Light Alt1';font-variant-ligatures:none;text-align:center;text-anchor:middle" aria-label="O7LINK"> 
   <path id="path75429" style="font-style: normal; font-weight: 300; font-size: 72px; line-height: 1; font-family: &quot;Montserrat Light Alt1&quot;; font-variant-ligatures: none; text-align: center; text-anchor: middle; fill: rgb(44, 43, 46);" d="m 391.38537,117.048 c 3.96,2.232 8.424,3.312 13.392,3.312 4.89601,0 9.36001,-1.08 13.392,-3.312 3.96,-2.16 7.056,-5.256 9.36001,-9.144 2.30399,-3.888 3.45599,-8.208 3.45599,-13.104 0,-4.824 -1.152,-9.216 -3.45599,-13.104 -2.30401,-3.888 -5.40001,-6.912 -9.36001,-9.144 -4.03199,-2.16 -8.49599,-3.312 -13.392,-3.312 -4.968,0 -9.432,1.152 -13.392,3.384 -4.03199,2.232 -7.12799,5.256 -9.432,9.144 -2.30399,3.888 -3.384,8.28 -3.384,13.032 0,4.824 1.08001,9.144 3.384,13.032 2.30401,3.888 5.40001,6.984 9.432,9.216 z m 24.84,-2.952 c -3.45599,1.944 -7.272,2.88 -11.448,2.88 -4.24799,0 -8.064,-0.936 -11.51999,-2.88 -3.45601,-1.872 -6.12,-4.536 -8.06401,-7.92 -2.016,-3.384 -2.952,-7.2 -2.952,-11.376 0,-4.176 0.936,-7.92 2.952,-11.304 1.94401,-3.384 4.608,-6.048 8.06401,-7.992 3.45599,-1.872 7.272,-2.88 11.51999,-2.88 4.176,0 7.99201,1.008 11.448,2.88 3.384,1.944 6.048,4.608 8.064,7.992 1.94401,3.384 2.952,7.128 2.952,11.304 0,4.176 -1.00799,7.992 -2.952,11.376 -2.016,3.384 -4.68,6.048 -8.064,7.92 z" transform="translate(0 245.24) translate(224.4231249999999 96.15999999999998) scale(1.6666666666666667) translate(-378.56937 -69.24)"></path> 
   <path id="path75431" style="font-style: normal; font-weight: 300; font-size: 72px; line-height: 1; font-family: &quot;Montserrat Light Alt1&quot;; font-variant-ligatures: none; text-align: center; text-anchor: middle; fill: rgb(44, 43, 46);" d="m 473.5295,69.6 h -36.144 v 12.96 h 3.6 v -9.648 h 28.296 L 447.8255,120 h 4.032 l 21.672,-47.808 z" transform="translate(0 245.24) translate(347.45000833333324 96.76) scale(1.6666666666666667) translate(-437.3855 -69.6)"></path> 
   <path id="path75433" style="font-style: normal; font-weight: 300; font-size: 72px; line-height: 1; font-family: &quot;Montserrat Light Alt1&quot;; font-variant-ligatures: none; text-align: center; text-anchor: middle; fill: rgb(33, 121, 255);" d="M 485.48712,69.6 V 120 h 32.688 v -3.312 H 489.15913 V 69.6 Z" transform="translate(0 245.24) translate(452.61937499999993 96.76) scale(1.6666666666666667) translate(-485.48712 -69.6)"></path> 
   <path id="path75435" style="font-style: normal; font-weight: 300; font-size: 72px; line-height: 1; font-family: &quot;Montserrat Light Alt1&quot;; font-variant-ligatures: none; text-align: center; text-anchor: middle; fill: rgb(33, 121, 255);" d="M 527.67462,69.6 V 120 h 3.67201 V 69.6 Z" transform="translate(0 245.24) translate(547.931875 96.76) scale(1.6666666666666667) translate(-527.67462 -69.6)"></path> 
   <path id="path75437" style="font-style: normal; font-weight: 300; font-size: 72px; line-height: 1; font-family: &quot;Montserrat Light Alt1&quot;; font-variant-ligatures: none; text-align: center; text-anchor: middle; fill: rgb(33, 121, 255);" d="m 589.949,69.6 h -3.672 v 43.776 L 552.005,69.6 h -3.096 V 120 h 3.672 V 76.224 L 586.925,120 h 3.024 z" transform="translate(0 245.24) translate(608.3225083333333 96.76) scale(1.6666666666666667) translate(-548.909 -69.6)"></path> 
   <path id="path75439" style="font-style: normal; font-weight: 300; font-size: 72px; line-height: 1; font-family: &quot;Montserrat Light Alt1&quot;; font-variant-ligatures: none; text-align: center; text-anchor: middle; fill: rgb(33, 121, 255);" d="M 622.52562,95.16 644.19763,120 h 4.46399 L 624.97362,92.496 647.14963,69.6 h -4.46401 L 611.22163,102 V 69.6 h -3.67201 V 120 h 3.67201 v -13.248 z" transform="translate(0 245.24) translate(731.056875 96.76) scale(1.6666666666666667) translate(-607.54962 -69.6)"></path> 
  </g> 
  <g id="tagline" style="font-style:normal;font-weight:400;font-size:32px;line-height:1;font-family:Montserrat;font-variant-ligatures:none;text-align:center;text-anchor:middle"></g> 
 </g> 
</svg>