<svg xmlns:dc="http://purl.org/dc/elements/1.1/" xmlns:cc="http://creativecommons.org/ns#" xmlns:rdf="http://www.w3.org/1999/02/22-rdf-syntax-ns#" xmlns:svg="http://www.w3.org/2000/svg" xmlns="http://www.w3.org/2000/svg" id="svg268228" viewbox="0 0 1024 768" height="768px" width="1024px" version="1.1"> <metadata id="metadata268234"> 
  <rdf:rdf> 
   <cc:work rdf:about=""> 
    <dc:format>
     image/svg+xml
    </dc:format> 
    <dc:type rdf:resource="http://purl.org/dc/dcmitype/StillImage"></dc:type> 
   </cc:work> 
  </rdf:rdf> 
 </metadata> <defs id="defs268232"></defs> <g id="logo-group"> 
  <g id="title" style="font-style:normal;font-weight:500;font-size:72px;line-height:1;font-family:'Raleway Medium Alt1';font-variant-ligatures:none;text-align:center;text-anchor:middle" aria-label="O7LIFETIME"> 
   <path id="path268236" style="font-style: normal; font-weight: 500; font-size: 72px; line-height: 1; font-family: &quot;Raleway Medium Alt1&quot;; font-variant-ligatures: none; text-align: center; text-anchor: middle; fill: rgb(168, 162, 162);" d="m 352.16112,97.248 c -0.21599,1.512 -0.504,3.024 -1.008,4.464 -0.79199,2.448 -1.94399,4.608 -3.45599,6.48 -1.51201,1.872 -3.384,3.456 -5.47201,4.608 -2.23199,1.152 -4.68,1.728 -7.344,1.728 -2.664,0 -5.04,-0.504 -7.2,-1.656 -2.16,-1.08 -4.03199,-2.592 -5.54399,-4.464 -1.584,-1.872 -2.73601,-3.96 -3.60001,-6.408 -0.504,-1.512 -0.86399,-3.096 -1.07999,-4.752 h -6.55201 c 0.216,2.304 0.72001,4.608 1.584,6.768 1.08,3.168 2.736,5.904 4.89601,8.352 2.08799,2.448 4.608,4.392 7.56,5.832 2.952,1.44 6.26399,2.16 9.86399,2.16 3.456,0 6.62401,-0.648 9.57601,-2.088 2.952,-1.44 5.47199,-3.312 7.632,-5.688 2.15999,-2.376 3.81599,-5.112 5.03999,-8.28 0.86401,-2.232 1.44,-4.608 1.728,-7.056 z m -33.624,-10.152 c 0.792,-2.376 1.94401,-4.464 3.45601,-6.408 1.512,-1.872 3.38399,-3.384 5.54399,-4.536 2.16001,-1.152 4.608,-1.728 7.344,-1.728 2.52,0 4.896,0.576 7.056,1.656 2.16,1.152 3.96001,2.592 5.54401,4.464 1.584,1.872 2.73599,3.96 3.59999,6.408 0.432,1.296 0.79201,2.664 1.008,3.96 h 6.552 c -0.288,-1.944 -0.79199,-3.96 -1.44,-5.832 -1.152,-3.096 -2.808,-5.832 -4.896,-8.352 -2.16,-2.448 -4.67999,-4.392 -7.55999,-5.904 -2.952,-1.512 -6.264,-2.304 -9.79201,-2.304 -3.528,0 -6.696,0.72 -9.648,2.16 -2.952,1.44 -5.472,3.312 -7.63199,5.688 -2.16001,2.448 -3.88801,5.184 -5.11201,8.28 -0.792,2.088 -1.368,4.176 -1.584,6.264 h 6.55201 c 0.216,-1.224 0.57599,-2.52 1.00799,-3.816 z" transform="translate(0 287.643253131622) translate(251.99999999999994 61.123786379120745) scale(1.1623436424273312) translate(-310.90512 -68.52)"></path> 
   <path id="path268238" style="font-style: normal; font-weight: 500; font-size: 72px; line-height: 1; font-family: &quot;Raleway Medium Alt1&quot;; font-variant-ligatures: none; text-align: center; text-anchor: middle; fill: rgb(168, 162, 162);" d="m 390.0365,83.856 -22.896,45.288 h 7.2 l 25.704,-51.12 h -36.288 v 5.832 z" transform="translate(0 287.643253131622) translate(319.2431837486476 72.17070035675009) scale(1.1623436424273312) translate(-363.7565 -78.024)"></path> 
   <path id="path268240" style="font-style: normal; font-weight: 500; font-size: 72px; line-height: 1; font-family: &quot;Raleway Medium Alt1&quot;; font-variant-ligatures: none; text-align: center; text-anchor: middle; fill: rgb(143, 137, 137);" d="M 406.46375,114.24 V 120 h 34.992 v -5.76 z m 6.48,-45.36 h -6.48 v 38.88 h 6.48 z" transform="translate(0 287.643253131622) translate(374.69540248383885 61.54223009039457) scale(1.1623436424273312) translate(-406.46375 -68.88)"></path> 
   <path id="path268242" style="font-style: normal; font-weight: 500; font-size: 72px; line-height: 1; font-family: &quot;Raleway Medium Alt1&quot;; font-variant-ligatures: none; text-align: center; text-anchor: middle; fill: rgb(143, 137, 137);" d="m 448.51062,120 h 6.48001 V 68.88 h -6.48001 z" transform="translate(0 287.643253131622) translate(429.38003272444394 61.54223009039457) scale(1.1623436424273312) translate(-448.51062 -68.88)"></path> 
   <path id="path268244" style="font-style: normal; font-weight: 500; font-size: 72px; line-height: 1; font-family: &quot;Raleway Medium Alt1&quot;; font-variant-ligatures: none; text-align: center; text-anchor: middle; fill: rgb(143, 137, 137);" d="m 467.21375,120 h 6.48 V 97.104 h 22.968 v -5.4 h -29.448 z m 0,-51.12 v 16.344 h 6.48 V 74.64 h 27.288 v -5.76 z" transform="translate(0 287.643253131622) translate(456.93121518557246 61.54223009039457) scale(1.1623436424273312) translate(-467.21375 -68.88)"></path> 
   <path id="path268246" style="font-style: normal; font-weight: 500; font-size: 72px; line-height: 1; font-family: &quot;Raleway Medium Alt1&quot;; font-variant-ligatures: none; text-align: center; text-anchor: middle; fill: rgb(143, 137, 137);" d="m 515.74063,74.64 h 27.576 v -5.76 h -34.05601 v 15.84 h 6.48001 z m -6.48001,39.6 V 120 h 34.704 v -5.76 z m 6.48001,-17.64 h 23.976 v -5.4 h -30.45601 v 16.56 h 6.48001 z" transform="translate(0 287.643253131622) translate(511.6158454261776 61.54223009039457) scale(1.1623436424273312) translate(-509.26062 -68.88)"></path> 
   <path id="path268248" style="font-style: normal; font-weight: 500; font-size: 72px; line-height: 1; font-family: &quot;Raleway Medium Alt1&quot;; font-variant-ligatures: none; text-align: center; text-anchor: middle; fill: rgb(143, 137, 137);" d="m 565.59838,120 h 6.48 V 81.12 h -6.48 z m -17.64,-51.12 v 5.76 h 41.76 v -5.76 z" transform="translate(0 287.643253131622) translate(562.4076589504931 61.54223009039457) scale(1.1623436424273312) translate(-547.95838 -68.88)"></path> 
   <path id="path268250" style="font-style: normal; font-weight: 500; font-size: 72px; line-height: 1; font-family: &quot;Raleway Medium Alt1&quot;; font-variant-ligatures: none; text-align: center; text-anchor: middle; fill: rgb(143, 137, 137);" d="m 597.01062,120 h 6.48001 V 68.88 h -6.48001 z" transform="translate(0 287.643253131622) translate(625.2349364734494 61.54223009039457) scale(1.1623436424273312) translate(-597.01062 -68.88)"></path> 
   <path id="path268252" style="font-style: normal; font-weight: 500; font-size: 72px; line-height: 1; font-family: &quot;Raleway Medium Alt1&quot;; font-variant-ligatures: none; text-align: center; text-anchor: middle; fill: rgb(143, 137, 137);" d="M 615.71375,68.88 V 120 h 6.48 V 80.472 l 11.448,20.448 3.456,-5.904 -14.544,-26.136 z m 43.92,0 -18.576,33.192 -3.384,5.904 1.584,2.808 h 3.672 l 16.992,-30.312 V 120 h 6.48 V 68.88 Z" transform="translate(0 287.643253131622) translate(652.7861189345779 61.54223009039457) scale(1.1623436424273312) translate(-615.71375 -68.88)"></path> 
   <path id="path268254" style="font-style: normal; font-weight: 500; font-size: 72px; line-height: 1; font-family: &quot;Raleway Medium Alt1&quot;; font-variant-ligatures: none; text-align: center; text-anchor: middle; fill: rgb(143, 137, 137);" d="m 685.05313,74.64 h 27.576 v -5.76 h -34.05601 v 15.84 h 6.48001 z m -6.48001,39.6 V 120 h 34.704 v -5.76 z m 6.48001,-17.64 h 23.976 v -5.4 h -30.45601 v 16.56 h 6.48001 z" transform="translate(0 287.643253131622) translate(731.6620262332018 61.54223009039457) scale(1.1623436424273312) translate(-678.57312 -68.88)"></path> 
  </g> 
  <g id="tagline" style="font-style:oblique;font-weight:600;font-size:32px;line-height:1;font-family:Raleway;font-variant-ligatures:none;text-align:center;text-anchor:middle"></g> 
 </g> 
</svg>