<svg xmlns:dc="http://purl.org/dc/elements/1.1/" xmlns:cc="http://creativecommons.org/ns#" xmlns:rdf="http://www.w3.org/1999/02/22-rdf-syntax-ns#" xmlns:svg="http://www.w3.org/2000/svg" xmlns="http://www.w3.org/2000/svg" id="svg39632" viewbox="0 0 1024 768" height="768px" width="1024px" version="1.1"> <metadata id="metadata39638"> 
  <rdf:rdf> 
   <cc:work rdf:about=""> 
    <dc:format>
     image/svg+xml
    </dc:format> 
    <dc:type rdf:resource="http://purl.org/dc/dcmitype/StillImage"></dc:type> 
   </cc:work> 
  </rdf:rdf> 
 </metadata> <defs id="defs39636"></defs> <g id="logo-group"> 
  <g id="title" style="font-style:oblique;font-weight:700;font-size:72px;line-height:1;font-family:Averta;font-variant-ligatures:none;text-align:center;text-anchor:middle" aria-label="O7LIMITLESS"> 
   <path id="path39640" style="font-style: oblique; font-weight: 700; font-size: 72px; line-height: 1; font-family: Averta; font-variant-ligatures: none; text-align: center; text-anchor: middle; fill: rgb(247, 231, 186);" d="m 327.7205,120.648 c 17.208,0 27.144,-14.04 27.144,-30.888 0,-13.608 -8.424,-21.528 -20.88,-21.528 -16.488,0 -27.072,14.472 -27.072,30.744 0,13.752 8.28,21.672 20.808,21.672 z m 0.864,-10.8 c -5.544,0 -9.648,-3.672 -9.648,-11.592 0,-9.936 5.904,-19.296 13.968,-19.296 5.76,0 9.936,3.528 9.936,11.448 0,10.728 -5.832,19.44 -14.256,19.44 z" transform="translate(0 300.25335519289825) translate(252.00000000000006 55.25052114727923) scale(1.0769510075518705) translate(-306.9125 -68.232)"></path> 
   <path id="path39642" style="font-style: oblique; font-weight: 700; font-size: 72px; line-height: 1; font-family: Averta; font-variant-ligatures: none; text-align: center; text-anchor: middle; fill: rgb(247, 231, 186);" d="m 388.74162,70.536 h -27.86399 l -1.22401,10.08 h 15.48 l -17.568,38.52 11.088,2.016 19.22401,-43.344 z" transform="translate(0 300.25335519289825) translate(314.0895856725089 57.73181626867874) scale(1.0769510075518705) translate(-357.56562 -70.536)"></path> 
   <path id="path39644" style="font-style: oblique; font-weight: 700; font-size: 72px; line-height: 1; font-family: Averta; font-variant-ligatures: none; text-align: center; text-anchor: middle; fill: rgb(82, 165, 136);" d="m 395.98437,68.88 -6.264,51.12 h 30.456 l 1.224,-10.296 h -18.86399 l 5.03999,-40.824 z" transform="translate(0 300.25335519289825) translate(356.2573331354505 55.94838540017284) scale(1.0769510075518705) translate(-389.72037 -68.88)"></path> 
   <path id="path39646" style="font-style: oblique; font-weight: 700; font-size: 72px; line-height: 1; font-family: Averta; font-variant-ligatures: none; text-align: center; text-anchor: middle; fill: rgb(82, 165, 136);" d="m 433.89125,68.88 -6.264,51.12 h 11.664 l 6.264,-51.12 z" transform="translate(0 300.25335519289825) translate(404.61984279746144 55.94838540017284) scale(1.0769510075518705) translate(-427.62725 -68.88)"></path> 
   <path id="path39648" style="font-style: oblique; font-weight: 700; font-size: 72px; line-height: 1; font-family: Averta; font-variant-ligatures: none; text-align: center; text-anchor: middle; fill: rgb(82, 165, 136);" d="M 455.75,68.88 449.486,120 h 11.304 l 3.528,-28.584 0.144,-0.072 6.84,19.152 h 6.984 l 10.8,-18.504 0.144,0.072 -3.384,27.936 h 11.304 l 6.264,-51.12 H 492.11 l -15.408,27.792 h -0.216 L 467.054,68.88 Z" transform="translate(0 300.25335519289825) translate(435.699302686649 55.94838540017284) scale(1.0769510075518705) translate(-449.486 -68.88)"></path> 
   <path id="path39650" style="font-style: oblique; font-weight: 700; font-size: 72px; line-height: 1; font-family: Averta; font-variant-ligatures: none; text-align: center; text-anchor: middle; fill: rgb(82, 165, 136);" d="M 513.62563,68.88 507.36162,120 h 11.664 l 6.264,-51.12 z" transform="translate(0 300.25335519289825) translate(505.5671670112013 55.94838540017284) scale(1.0769510075518705) translate(-507.36162 -68.88)"></path> 
   <path id="path39652" style="font-style: oblique; font-weight: 700; font-size: 72px; line-height: 1; font-family: Averta; font-variant-ligatures: none; text-align: center; text-anchor: middle; fill: rgb(82, 165, 136);" d="M 542.97238,79.176 537.93237,120 h 11.52 l 5.04001,-40.824 h 11.88 l 1.29599,-10.296 h -35.352 l -1.296,10.296 z" transform="translate(0 300.25335519289825) translate(538.5851387139822 55.94838540017284) scale(1.0769510075518705) translate(-531.02037 -68.88)"></path> 
   <path id="path39654" style="font-style: oblique; font-weight: 700; font-size: 72px; line-height: 1; font-family: Averta; font-variant-ligatures: none; text-align: center; text-anchor: middle; fill: rgb(82, 165, 136);" d="m 574.29687,68.88 -6.264,51.12 h 30.456 l 1.22401,-10.296 h -18.864 l 5.03999,-40.824 z" transform="translate(0 300.25335519289825) translate(585.984444933859 55.94838540017284) scale(1.0769510075518705) translate(-568.03287 -68.88)"></path> 
   <path id="path39656" style="font-style: oblique; font-weight: 700; font-size: 72px; line-height: 1; font-family: Averta; font-variant-ligatures: none; text-align: center; text-anchor: middle; fill: rgb(82, 165, 136);" d="m 611.77175,68.88 -6.264,51.12 h 31.68 l 1.296,-10.296 h -20.448 l 1.296,-10.152 h 15.048 l 1.152,-9.936 h -15.048 l 1.296,-10.44 h 19.08 l 1.296,-10.296 z" transform="translate(0 300.25335519289825) translate(633.8817117606075 55.94838540017284) scale(1.0769510075518705) translate(-605.50775 -68.88)"></path> 
   <path id="path39658" style="font-style: oblique; font-weight: 700; font-size: 72px; line-height: 1; font-family: Averta; font-variant-ligatures: none; text-align: center; text-anchor: middle; fill: rgb(82, 165, 136);" d="m 660.43475,120.648 c 10.728,0 18.504,-6.048 18.504,-16.848 0,-8.208 -6.624,-10.656 -14.04,-15.048 -4.176,-2.448 -5.472,-3.96 -5.544,-5.976 -0.072,-2.448 2.016,-4.392 5.04,-4.392 2.304,0 5.112,0.792 7.92,4.536 l 8.208,-6.84 c -3.528,-5.256 -9.72,-7.848 -15.696,-7.848 -9.72,0 -17.496,6.12 -17.496,15.84 0,8.352 6.624,11.736 12.6,15.192 4.824,2.808 6.912,3.816 6.912,6.264 0,2.592 -2.304,4.824 -6.408,4.824 -3.312,0 -7.2,-2.016 -9.576,-6.048 l -8.208,7.2 c 4.104,6.408 11.16,9.144 17.784,9.144 z" transform="translate(0 300.25335519289825) translate(681.4215600869697 55.25052114727923) scale(1.0769510075518705) translate(-642.65075 -68.232)"></path> 
   <path id="path39660" style="font-style: oblique; font-weight: 700; font-size: 72px; line-height: 1; font-family: Averta; font-variant-ligatures: none; text-align: center; text-anchor: middle; fill: rgb(82, 165, 136);" d="m 699.66912,120.648 c 10.728,0 18.50401,-6.048 18.50401,-16.848 0,-8.208 -6.62401,-10.656 -14.04001,-15.048 -4.17599,-2.448 -5.472,-3.96 -5.544,-5.976 -0.072,-2.448 2.01601,-4.392 5.04001,-4.392 2.304,0 5.11199,0.792 7.91999,4.536 l 8.208,-6.84 c -3.528,-5.256 -9.71999,-7.848 -15.696,-7.848 -9.71999,0 -17.496,6.12 -17.496,15.84 0,8.352 6.624,11.736 12.6,15.192 4.82401,2.808 6.91201,3.816 6.91201,6.264 0,2.592 -2.304,4.824 -6.40801,4.824 -3.312,0 -7.2,-2.016 -9.576,-6.048 l -8.20799,7.2 c 4.10399,6.408 11.15999,9.144 17.78399,9.144 z" transform="translate(0 300.25335519289825) translate(731.2137222115058 55.25052114727923) scale(1.0769510075518705) translate(-681.88513 -68.232)"></path> 
  </g> 
  <g id="tagline" style="font-style:normal;font-weight:500;font-size:32px;line-height:1;font-family:Raleway;font-variant-ligatures:none;text-align:center;text-anchor:middle"></g> 
 </g> 
</svg>