<svg xmlns:dc="http://purl.org/dc/elements/1.1/" xmlns:cc="http://creativecommons.org/ns#" xmlns:rdf="http://www.w3.org/1999/02/22-rdf-syntax-ns#" xmlns:svg="http://www.w3.org/2000/svg" xmlns="http://www.w3.org/2000/svg" id="svg398702" viewbox="0 0 1024 768" height="768px" width="1024px" version="1.1"> <metadata id="metadata398708"> 
  <rdf:rdf> 
   <cc:work rdf:about=""> 
    <dc:format>
     image/svg+xml
    </dc:format> 
    <dc:type rdf:resource="http://purl.org/dc/dcmitype/StillImage"></dc:type> 
   </cc:work> 
  </rdf:rdf> 
 </metadata> <defs id="defs398706"></defs> <g id="logo-group"> 
  <g id="title" style="font-style:normal;font-weight:700;font-size:72px;line-height:1;font-family:Phenomena;font-variant-ligatures:none;text-align:center;text-anchor:middle" aria-label="O7MICROCHIP"> 
   <path id="path398710" style="font-style: normal; font-weight: 700; font-size: 72px; line-height: 1; font-family: Phenomena; font-variant-ligatures: none; text-align: center; text-anchor: middle; fill: rgb(55, 53, 58);" d="m 368.16031,120.72 c 7.488,0 12.672,-5.472 12.672,-13.032 V 81.912 c 0,-7.56 -5.184,-13.032 -12.672,-13.032 -7.488,0 -12.744,5.472 -12.744,13.536 v 24.768 c 0,8.064 5.256,13.536 12.744,13.536 z m 0,-6.048 c -3.672,0 -6.192,-2.736 -6.192,-7.2 V 82.128 c 0,-4.464 2.52,-7.2 6.192,-7.2 3.672,0 6.12,2.736 6.12,6.696 v 26.352 c 0,3.96 -2.448,6.696 -6.12,6.696 z" transform="translate(0 267.52697408595566) translate(252 79.48479604387525) scale(1.4270150412873877) translate(-355.41631 -68.88)"></path> 
   <path id="path398712" style="font-style: normal; font-weight: 700; font-size: 72px; line-height: 1; font-family: Phenomena; font-variant-ligatures: none; text-align: center; text-anchor: middle; fill: rgb(55, 53, 58);" d="m 384.89694,70.536 v 4.104 c 0,0.648 0.36,1.008 0.936,1.008 h 13.752 l -10.44,43.272 c -0.144,0.648 0.144,1.08 0.864,1.08 h 4.536 c 0.576,0 0.936,-0.288 1.08,-0.864 L 406.13694,75 c 0.288,-1.224 0.36,-2.088 0.36,-3.384 0,-1.368 -0.792,-2.016 -2.16,-2.016 h -18.504 c -0.576,0 -0.936,0.36 -0.936,0.936 z" transform="translate(0 267.52697408595566) translate(301.2043776430651 80.51224687360217) scale(1.4270150412873877) translate(-384.89694 -69.6)"></path> 
   <path id="path398714" style="font-style: normal; font-weight: 700; font-size: 72px; line-height: 1; font-family: Phenomena; font-variant-ligatures: none; text-align: center; text-anchor: middle; fill: rgb(213, 62, 41);" d="m 441.04569,68.808 c -3.96,0 -6.552,1.872 -8.496,4.536 -1.944,-2.664 -4.464,-4.536 -8.496,-4.536 -7.272,0 -11.736,5.256 -11.736,13.392 v 36.792 c 0,0.648 0.36,1.008 0.936,1.008 h 4.536 c 0.576,0 0.936,-0.36 0.936,-1.008 v -37.08 c 0,-4.464 1.8,-6.984 5.328,-6.984 3.096,0 5.256,2.52 5.256,6.984 v 37.08 c 0,0.648 0.36,1.008 0.936,1.008 h 4.536 c 0.576,0 0.936,-0.36 0.936,-1.008 v -37.08 c 0,-4.464 2.088,-6.984 5.328,-6.984 3.384,0 5.256,2.52 5.256,6.984 v 37.08 c 0,0.648 0.36,1.008 0.936,1.008 h 4.536 c 0.648,0 1.008,-0.36 1.008,-1.008 V 82.2 c 0,-8.136 -4.536,-13.392 -11.736,-13.392 z" transform="translate(0 267.52697408595566) translate(347.46927554288317 79.38205096090256) scale(1.4270150412873877) translate(-412.31769 -68.808)"></path> 
   <path id="path398716" style="font-style: normal; font-weight: 700; font-size: 72px; line-height: 1; font-family: Phenomena; font-variant-ligatures: none; text-align: center; text-anchor: middle; fill: rgb(213, 62, 41);" d="m 460.98406,70.536 v 48.456 c 0,0.648 0.36,1.008 1.008,1.008 h 4.536 c 0.576,0 0.936,-0.36 0.936,-1.008 V 70.536 c 0,-0.576 -0.36,-0.936 -0.936,-0.936 h -4.536 c -0.648,0 -1.008,0.36 -1.008,0.936 z" transform="translate(0 267.52697408595566) translate(424.05199274417737 80.51224687360217) scale(1.4270150412873877) translate(-460.98406 -69.6)"></path> 
   <path id="path398718" style="font-style: normal; font-weight: 700; font-size: 72px; line-height: 1; font-family: Phenomena; font-variant-ligatures: none; text-align: center; text-anchor: middle; fill: rgb(213, 62, 41);" d="m 487.25956,120.792 c 7.344,0 12.168,-5.544 12.456,-14.256 0,-0.648 -0.36,-1.008 -0.936,-1.008 h -4.608 c -0.576,0 -0.936,0.288 -0.936,0.936 -0.144,5.256 -2.376,8.208 -6.048,8.208 -3.6,0 -5.688,-2.448 -5.688,-6.48 V 81.408 c 0,-4.032 2.088,-6.48 5.688,-6.48 3.312,0 5.544,2.664 5.688,7.704 0,0.648 0.36,0.936 0.936,0.936 h 4.608 c 0.648,0 0.936,-0.36 0.936,-0.936 -0.216,-8.424 -5.04,-13.824 -12.096,-13.824 -7.344,0 -12.312,5.184 -12.312,12.96 v 26.064 c 0,7.776 4.968,12.96 12.312,12.96 z" transform="translate(0 267.52697408595566) translate(451.11319247963075 79.38205096090256) scale(1.4270150412873877) translate(-474.94756 -68.808)"></path> 
   <path id="path398720" style="font-style: normal; font-weight: 700; font-size: 72px; line-height: 1; font-family: Phenomena; font-variant-ligatures: none; text-align: center; text-anchor: middle; fill: rgb(213, 62, 41);" d="m 506.06619,120 h 4.608 c 0.576,0 0.936,-0.36 0.936,-1.008 v -18 h 5.832 l 6.84,18.144 c 0.144,0.576 0.432,0.864 1.008,0.864 h 4.896 c 0.648,0 1.152,-0.432 0.936,-1.08 l -7.704,-19.44 c 3.744,-2.016 6.408,-6.048 6.408,-11.592 v -5.76 c 0,-7.848 -5.04,-13.32 -12.456,-13.32 -7.272,0 -12.24,5.472 -12.24,13.32 v 36.864 c 0,0.648 0.36,1.008 0.936,1.008 z m 5.544,-24.984 V 81.84 c 0,-4.176 2.376,-6.912 5.832,-6.912 3.456,0 5.832,2.736 5.832,6.912 v 6.192 c 0,4.248 -2.376,6.984 -6.12,6.984 z" transform="translate(0 267.52697408595566) translate(501.3193346816797 79.38205096090256) scale(1.4270150412873877) translate(-505.13019 -68.808)"></path> 
   <path id="path398722" style="font-style: normal; font-weight: 700; font-size: 72px; line-height: 1; font-family: Phenomena; font-variant-ligatures: none; text-align: center; text-anchor: middle; fill: rgb(213, 62, 41);" d="m 548.58219,120.72 c 7.488,0 12.672,-5.472 12.672,-13.032 V 81.912 c 0,-7.56 -5.184,-13.032 -12.672,-13.032 -7.488,0 -12.744,5.472 -12.744,13.536 v 24.768 c 0,8.064 5.256,13.536 12.744,13.536 z m 0,-6.048 c -3.672,0 -6.192,-2.736 -6.192,-7.2 V 82.128 c 0,-4.464 2.52,-7.2 6.192,-7.2 3.672,0 6.12,2.736 6.12,6.696 v 26.352 c 0,3.96 -2.448,6.696 -6.12,6.696 z" transform="translate(0 267.52697408595566) translate(552.2751877759698 79.48479604387525) scale(1.4270150412873877) translate(-535.83819 -68.88)"></path> 
   <path id="path398724" style="font-style: normal; font-weight: 700; font-size: 72px; line-height: 1; font-family: Phenomena; font-variant-ligatures: none; text-align: center; text-anchor: middle; fill: rgb(213, 62, 41);" d="m 579.79081,120.792 c 7.344,0 12.168,-5.544 12.456,-14.256 0,-0.648 -0.36,-1.008 -0.936,-1.008 h -4.608 c -0.576,0 -0.936,0.288 -0.936,0.936 -0.144,5.256 -2.376,8.208 -6.048,8.208 -3.6,0 -5.688,-2.448 -5.688,-6.48 V 81.408 c 0,-4.032 2.088,-6.48 5.688,-6.48 3.312,0 5.544,2.664 5.688,7.704 0,0.648 0.36,0.936 0.936,0.936 h 4.608 c 0.648,0 0.936,-0.36 0.936,-0.936 -0.216,-8.424 -5.04,-13.824 -12.096,-13.824 -7.344,0 -12.312,5.184 -12.312,12.96 v 26.064 c 0,7.776 4.968,12.96 12.312,12.96 z" transform="translate(0 267.52697408595566) translate(604.5619036380651 79.38205096090256) scale(1.4270150412873877) translate(-567.47881 -68.808)"></path> 
   <path id="path398726" style="font-style: normal; font-weight: 700; font-size: 72px; line-height: 1; font-family: Phenomena; font-variant-ligatures: none; text-align: center; text-anchor: middle; fill: rgb(213, 62, 41);" d="m 615.52081,70.536 v 20.952 h -11.088 V 70.536 c 0,-0.576 -0.36,-0.936 -0.936,-0.936 h -4.536 c -0.648,0 -1.008,0.36 -1.008,0.936 v 48.456 c 0,0.648 0.36,1.008 1.008,1.008 h 4.536 c 0.576,0 0.936,-0.36 0.936,-1.008 V 97.464 h 11.088 v 21.528 c 0,0.648 0.36,1.008 1.008,1.008 h 4.536 c 0.576,0 0.936,-0.36 0.936,-1.008 V 70.536 c 0,-0.576 -0.36,-0.936 -0.936,-0.936 h -4.536 c -0.648,0 -1.008,0.36 -1.008,0.936 z" transform="translate(0 267.52697408595566) translate(655.1838352126939 80.51224687360217) scale(1.4270150412873877) translate(-597.95281 -69.6)"></path> 
   <path id="path398728" style="font-style: normal; font-weight: 700; font-size: 72px; line-height: 1; font-family: Phenomena; font-variant-ligatures: none; text-align: center; text-anchor: middle; fill: rgb(213, 62, 41);" d="m 630.57781,70.536 v 48.456 c 0,0.648 0.36,1.008 1.008,1.008 h 4.536 c 0.576,0 0.936,-0.36 0.936,-1.008 V 70.536 c 0,-0.576 -0.36,-0.936 -0.936,-0.936 h -4.536 c -0.648,0 -1.008,0.36 -1.008,0.936 z" transform="translate(0 267.52697408595566) translate(708.875276141132 80.51224687360217) scale(1.4270150412873877) translate(-630.57781 -69.6)"></path> 
   <path id="path398730" style="font-style: normal; font-weight: 700; font-size: 72px; line-height: 1; font-family: Phenomena; font-variant-ligatures: none; text-align: center; text-anchor: middle; fill: rgb(213, 62, 41);" d="m 646.26931,120 h 4.608 c 0.576,0 0.936,-0.36 0.936,-1.008 v -17.136 h 5.688 c 7.488,0 12.312,-5.04 12.312,-12.384 v -7.344 c 0,-7.848 -4.896,-13.32 -12.384,-13.32 -7.416,0 -12.096,5.472 -12.096,13.32 v 36.864 c 0,0.648 0.36,1.008 0.936,1.008 z m 5.544,-24.192 V 81.84 c 0,-4.176 2.16,-6.912 5.688,-6.912 3.528,0 5.76,2.736 5.76,6.912 v 7.776 c 0,3.888 -2.232,6.192 -5.976,6.192 z" transform="translate(0 267.52697408595566) translate(737.0666717892849 79.38205096090256) scale(1.4270150412873877) translate(-645.33331 -68.808)"></path> 
  </g> 
  <g id="tagline" style="font-style:oblique;font-weight:normal;font-size:32px;line-height:1;font-family:'Fira Sans Condensed';font-variant-ligatures:none;text-align:center;text-anchor:middle"></g> 
 </g> 
</svg>