<svg xmlns:dc="http://purl.org/dc/elements/1.1/" xmlns:cc="http://creativecommons.org/ns#" xmlns:rdf="http://www.w3.org/1999/02/22-rdf-syntax-ns#" xmlns:svg="http://www.w3.org/2000/svg" xmlns="http://www.w3.org/2000/svg" id="svg941305" viewbox="0 0 1024 768" height="768px" width="1024px" version="1.1"> <metadata id="metadata941311"> 
  <rdf:rdf> 
   <cc:work rdf:about=""> 
    <dc:format>
     image/svg+xml
    </dc:format> 
    <dc:type rdf:resource="http://purl.org/dc/dcmitype/StillImage"></dc:type> 
   </cc:work> 
  </rdf:rdf> 
 </metadata> <defs id="defs941309"></defs> <g id="logo-group"> 
  <g id="title" style="font-style:normal;font-weight:700;font-size:72px;line-height:1;font-family:Jura;font-variant-ligatures:none;text-align:center;text-anchor:middle" aria-label="O7MINIBUS"> 
   <path id="path941313" style="font-style: normal; font-weight: 700; font-size: 72px; line-height: 1; font-family: Jura; font-variant-ligatures: none; text-align: center; text-anchor: middle; fill: rgb(126, 90, 17);" d="m 335.04425,120 q -8.28,0 -12.24,-3.888 -3.888,-3.96 -3.888,-12.24 V 87.24 q 0,-8.28 3.96,-12.168 3.96,-3.96 12.168,-3.888 h 8.64 q 8.28,0 12.168,3.96 3.96,3.888 3.96,12.168 v 16.56 q 0,8.28 -3.96,12.24 -3.888,3.888 -12.168,3.888 z m 8.64,-6.048 q 3.96,0 6.048,-0.936 2.16,-0.936 3.096,-3.024 0.936,-2.16 0.936,-6.12 v -16.56 q 0,-3.888 -0.936,-6.048 -0.936,-2.16 -3.096,-3.096 -2.16,-0.936 -6.048,-0.936 h -8.64 q -3.888,-0.072 -6.048,0.864 -2.16,0.936 -3.096,3.096 -0.936,2.16 -0.936,6.048 v 16.632 q 0,3.96 0.936,6.12 0.936,2.088 3.024,3.024 2.16,0.936 6.12,0.936 z" transform="translate(0 298.9700951111111) translate(230.7720811111111 57.90919044444445) scale(1.1111111111111112) translate(-318.91625 -71.182714)"></path> 
   <path id="path941315" style="font-style: normal; font-weight: 700; font-size: 72px; line-height: 1; font-family: Jura; font-variant-ligatures: none; text-align: center; text-anchor: middle; fill: rgb(126, 90, 17);" d="m 376.90888,120 q -1.44,0 -2.23201,-0.792 -0.79199,-0.792 -0.71999,-2.376 0.14399,-7.416 1.224,-11.952 1.07999,-4.536 3.312,-7.56 2.23199,-3.024 6.33599,-5.904 3.312,-2.592 4.968,-5.904 1.656,-3.384 1.94401,-8.28 h -22.75201 q -1.44,0 -2.232,-0.792 -0.792,-0.792 -0.792,-2.232 0,-1.44 0.792,-2.232 0.792,-0.792 2.232,-0.792 h 25.84801 q 1.44,0 2.23199,0.792 0.79201,0.792 0.79201,2.232 0,7.704 -2.30401,13.032 -2.23199,5.328 -7.2,9.072 -3.312,2.304 -5.04,4.68 -1.656,2.376 -2.448,6.048 -0.72,3.6 -0.86399,9.792 -0.144,3.168 -3.096,3.168 z" transform="translate(0 298.9700951111111) translate(299.71499222222224 57.91061933333333) scale(1.1111111111111112) translate(-365.96487 -71.184)"></path> 
   <path id="path941317" style="font-style: normal; font-weight: 700; font-size: 72px; line-height: 1; font-family: Jura; font-variant-ligatures: none; text-align: center; text-anchor: middle; fill: rgb(126, 90, 17);" d="m 451.37487,71.184 q 2.448,0 2.448,3.024 v 42.768 q 0,1.44 -0.792,2.232 -0.792,0.792 -2.232,0.792 -1.44,0 -2.232,-0.792 -0.792,-0.792 -0.792,-2.232 V 83.64 l -13.24799,19.512 q -0.72001,1.008 -1.584,1.512 -0.86401,0.432 -2.08801,0.432 -0.86399,0 -1.584,-0.432 -0.64799,-0.504 -1.368,-1.512 l -13.32,-19.584 v 33.408 q 0,1.44 -0.79199,2.232 -0.79201,0.792 -2.23201,0.792 -1.44,0 -2.232,-0.792 -0.792,-0.792 -0.792,-2.232 V 74.208 q 0,-1.44 0.792,-2.232 0.792,-0.792 2.232,-0.792 2.01601,0 3.312,1.944 l 16.416,24.696 16.416,-24.696 q 1.224,-1.944 3.672,-1.944 z" transform="translate(0 298.9700951111111) translate(363.68165888888893 57.91061933333333) scale(1.1111111111111112) translate(-408.53487 -71.184)"></path> 
   <path id="path941319" style="font-style: normal; font-weight: 700; font-size: 72px; line-height: 1; font-family: Jura; font-variant-ligatures: none; text-align: center; text-anchor: middle; fill: rgb(126, 90, 17);" d="m 471.887,120 q -1.584,0 -2.304,-0.72 -0.72,-0.72 -0.72,-2.304 V 74.28 q 0,-1.584 0.72,-2.304 0.72,-0.72 2.304,-0.72 1.584,0 2.304,0.72 0.72,0.72 0.72,2.304 v 42.696 q 0,1.584 -0.72,2.304 -0.72,0.72 -2.304,0.72 z" transform="translate(0 298.9700951111111) translate(447.3795811111111 57.99061933333334) scale(1.1111111111111112) translate(-468.863 -71.256)"></path> 
   <path id="path941321" style="font-style: normal; font-weight: 700; font-size: 72px; line-height: 1; font-family: Jura; font-variant-ligatures: none; text-align: center; text-anchor: middle; fill: rgb(126, 90, 17);" d="m 526.46075,71.184 q 1.44,0 2.232,0.792 0.792,0.792 0.792,2.232 v 42.768 q 0,1.44 -0.792,2.232 -0.792,0.792 -2.232,0.792 -0.864,0 -1.584,-0.432 -0.72,-0.432 -1.44,-1.368 l -27.432,-35.352 v 34.128 q 0,1.44 -0.792,2.232 -0.792,0.792 -2.232,0.792 -1.44,0 -2.232,-0.792 -0.792,-0.792 -0.792,-2.232 V 74.208 q 0,-1.44 0.792,-2.232 0.792,-0.792 2.232,-0.792 0.864,0 1.512,0.432 0.72,0.432 1.512,1.368 l 27.432,35.352 V 74.208 q 0,-1.44 0.792,-2.232 0.792,-0.792 2.232,-0.792 z" transform="translate(0 298.9700951111111) translate(487.4837477777778 57.91061933333333) scale(1.1111111111111112) translate(-489.95675 -71.184)"></path> 
   <path id="path941323" style="font-style: normal; font-weight: 700; font-size: 72px; line-height: 1; font-family: Jura; font-variant-ligatures: none; text-align: center; text-anchor: middle; fill: rgb(126, 90, 17);" d="m 547.54325,120 q -1.584,0 -2.304,-0.72 -0.72,-0.72 -0.72,-2.304 V 74.28 q 0,-1.584 0.72,-2.304 0.72,-0.72 2.304,-0.72 1.584,0 2.304,0.72 0.72,0.72 0.72,2.304 v 42.696 q 0,1.584 -0.72,2.304 -0.72,0.72 -2.304,0.72 z" transform="translate(0 298.9700951111111) translate(564.7754144444446 57.99061933333334) scale(1.1111111111111112) translate(-544.51925 -71.256)"></path> 
   <path id="path941325" style="font-style: normal; font-weight: 700; font-size: 72px; line-height: 1; font-family: Jura; font-variant-ligatures: none; text-align: center; text-anchor: middle; fill: rgb(126, 90, 17);" d="m 596.285,92.28 q 5.688,3.312 5.688,11.736 v 2.448 q 0,6.624 -3.528,10.08 -3.456,3.456 -10.08,3.456 h -19.728 q -1.44,0 -2.232,-0.792 -0.792,-0.792 -0.792,-2.232 V 74.208 q 0,-1.44 0.792,-2.232 0.792,-0.792 2.232,-0.792 h 18.792 q 5.688,0 8.784,3.024 3.096,3.024 3.096,8.64 v 1.944 q 0,2.304 -0.792,4.248 -0.792,1.944 -2.232,3.24 z m -24.624,-1.728 h 16.704 1.296 q 1.872,-0.216 2.736,-1.728 0.864,-1.584 0.864,-4.032 v -1.944 q 0,-3.096 -1.296,-4.32 -1.296,-1.296 -4.536,-1.296 h -15.768 z m 24.264,13.464 q 0,-4.032 -1.728,-5.688 -1.728,-1.728 -5.832,-1.728 h -16.704 v 17.352 h 16.704 q 4.032,0 5.76,-1.728 1.8,-1.728 1.8,-5.76 z" transform="translate(0 298.9700951111111) translate(604.8795811111113 57.91061933333333) scale(1.1111111111111112) translate(-565.613 -71.184)"></path> 
   <path id="path941327" style="font-style: normal; font-weight: 700; font-size: 72px; line-height: 1; font-family: Jura; font-variant-ligatures: none; text-align: center; text-anchor: middle; fill: rgb(126, 90, 17);" d="m 629.53662,120 q -8.28,0 -12.24,-3.888 -3.88799,-3.96 -3.88799,-12.24 V 74.208 q 0,-3.024 3.024,-3.024 3.024,0 3.024,3.024 v 29.664 q 0,3.96 0.93599,6.12 0.936,2.088 3.024,3.024 2.16001,0.936 6.12,0.936 h 8.64001 q 3.95999,0 6.048,-0.936 2.16,-0.936 3.096,-3.024 0.93599,-2.16 0.93599,-6.12 V 74.208 q 0,-3.024 3.024,-3.024 3.024,0 3.024,3.024 v 29.664 q 0,8.28 -3.96,12.24 Q 646.45663,120 638.17663,120 Z" transform="translate(0 298.9700951111111) translate(674.6525033333335 57.91061933333333) scale(1.1111111111111112) translate(-613.40863 -71.184)"></path> 
   <path id="path941329" style="font-style: normal; font-weight: 700; font-size: 72px; line-height: 1; font-family: Jura; font-variant-ligatures: none; text-align: center; text-anchor: middle; fill: rgb(126, 90, 17);" d="m 680.7185,120 q -6.192,0 -9.648,-2.448 -3.384,-2.52 -4.248,-7.704 -0.144,-1.512 0.648,-2.304 0.792,-0.864 2.304,-0.864 1.44,0 2.16,0.72 0.72,0.648 1.008,2.232 0.504,2.448 2.232,3.384 1.8,0.936 5.544,0.936 h 10.368 q 3.168,0 4.824,-0.72 1.728,-0.72 2.448,-2.376 0.72,-1.728 0.72,-4.824 0,-4.608 -1.728,-6.336 -1.728,-1.728 -6.264,-1.728 h -8.928 q -6.768,0 -10.08,-3.312 -3.312,-3.312 -3.312,-10.152 0,-6.768 3.24,-10.008 3.312,-3.312 10.08,-3.312 h 8.568 q 11.376,0 13.104,9.504 0.216,1.512 -0.576,2.376 -0.792,0.792 -2.376,0.792 -1.44,0 -2.16,-0.72 -0.72,-0.72 -0.936,-2.232 -0.576,-2.088 -2.16,-2.88 -1.584,-0.792 -4.896,-0.792 h -8.568 q -2.952,0 -4.536,0.648 -1.512,0.648 -2.16,2.232 -0.576,1.512 -0.576,4.392 0,2.952 0.648,4.536 0.648,1.512 2.16,2.232 1.584,0.648 4.536,0.648 h 8.928 q 7.128,0 10.584,3.456 3.456,3.456 3.456,10.656 0,7.128 -3.456,10.584 -3.456,3.384 -10.584,3.384 z" transform="translate(0 298.9700951111111) translate(750.6433033333335 57.91061933333333) scale(1.1111111111111112) translate(-666.80035 -71.184)"></path> 
  </g> 
  <g id="tagline" style="font-style:normal;font-weight:500;font-size:32px;line-height:1;font-family:Roboto;font-variant-ligatures:none;text-align:center;text-anchor:middle"></g> 
 </g> 
</svg>