<svg xmlns:dc="http://purl.org/dc/elements/1.1/" xmlns:cc="http://creativecommons.org/ns#" xmlns:rdf="http://www.w3.org/1999/02/22-rdf-syntax-ns#" xmlns:svg="http://www.w3.org/2000/svg" xmlns="http://www.w3.org/2000/svg" id="svg53383" viewbox="0 0 1024 768" height="768px" width="1024px" version="1.1"> <metadata id="metadata53389"> 
  <rdf:rdf> 
   <cc:work rdf:about=""> 
    <dc:format>
     image/svg+xml
    </dc:format> 
    <dc:type rdf:resource="http://purl.org/dc/dcmitype/StillImage"></dc:type> 
   </cc:work> 
  </rdf:rdf> 
 </metadata> <defs id="defs53387"></defs> <g id="logo-group"> 
  <g id="title" style="font-style:normal;font-weight:400;font-size:72px;line-height:1;font-family:'Abril Fatface';font-variant-ligatures:none;text-align:center;text-anchor:middle" aria-label="o7Matters"> 
   <path id="path53391" style="font-style: normal; font-weight: 400; font-size: 72px; line-height: 1; font-family: &quot;Abril Fatface&quot;; font-variant-ligatures: none; text-align: center; text-anchor: middle; fill: rgb(164, 125, 78);" d="m 368.70256,105.816 v -6.12 q 0,-6.984 -0.792,-10.152 -0.72,-3.24 -3.456,-3.24 -1.584,0 -2.592,0.936 -0.936,0.864 -1.368,2.952 -0.648,3.24 -0.648,9.864 v 5.616 q 0,7.848 0.432,9.432 0.504,1.584 1.008,2.592 0.792,1.728 3.096,1.728 2.808,0 3.672,-3.24 0.648,-2.304 0.648,-10.368 z m -4.464,14.904 q -9,0 -13.608,-4.608 -4.608,-4.608 -4.608,-13.176 0,-8.64 4.896,-13.248 4.968,-4.68 13.896,-4.68 8.928,0 13.32,4.32 4.392,4.248 4.392,13.032 0,18.36 -18.288,18.36 z" transform="translate(0 294.0851589875384) translate(252.00000000000006 78.23141661188879) scale(1.1508495272431865) translate(-346.02256 -85.008)"></path> 
   <path id="path53393" style="font-style: normal; font-weight: 400; font-size: 72px; line-height: 1; font-family: &quot;Abril Fatface&quot;; font-variant-ligatures: none; text-align: center; text-anchor: middle; fill: rgb(164, 125, 78);" d="m 400.74031,120.72 q -3.888,0 -6.12,-2.088 -2.232,-2.16 -2.232,-5.256 0,-3.168 2.088,-6.912 2.16,-3.816 9.288,-12.096 l 11.88,-13.752 h -18.432 q -5.112,0 -6.768,1.296 -1.584,1.224 -2.52,5.976 h -1.152 l 0.792,-18.288 h 32.256 v 7.776 l -7.992,13.968 q -5.328,9.432 -6.84,13.536 -1.44,4.032 -1.44,7.704 0,3.672 2.16,6.768 l -0.504,0.864 q -2.016,0.504 -4.464,0.504 z" transform="translate(0 294.0851589875384) translate(316.1595734314259 60.49912709612576) scale(1.1508495272431865) translate(-386.77231 -69.6)"></path> 
   <path id="path53395" style="font-style: normal; font-weight: 400; font-size: 72px; line-height: 1; font-family: &quot;Abril Fatface&quot;; font-variant-ligatures: none; text-align: center; text-anchor: middle; fill: rgb(230, 188, 134);" d="m 459.97944,69.6 h 19.224 v 1.368 h -3.96 v 47.664 h 3.96 V 120 h -21.96 v -1.368 h 3.96 v -45 h -0.288 l -10.8,46.368 h -9 l -12.672,-46.584 h -0.288 v 45.216 h 3.96 V 120 h -9.792 v -1.368 h 3.96 V 70.968 h -3.96 V 69.6 h 19.44 l 9.576,37.08 z" transform="translate(0 294.0851589875384) translate(374.33631749353475 60.49912709612576) scale(1.1508495272431865) translate(-422.32344 -69.6)"></path> 
   <path id="path53397" style="font-style: normal; font-weight: 400; font-size: 72px; line-height: 1; font-family: &quot;Abril Fatface&quot;; font-variant-ligatures: none; text-align: center; text-anchor: middle; fill: rgb(230, 188, 134);" d="m 498.99219,103.08 h 2.088 v -5.544 q 0,-6.84 -0.792,-9.144 -0.72,-2.376 -2.88,-2.376 -1.296,0 -2.376,0.72 -1.008,0.648 -1.008,1.872 0,1.152 0.432,2.376 h 1.8 q 0.576,1.512 0.576,3.672 0,2.088 -1.8,3.672 -1.8,1.512 -4.536,1.512 -6.192,0 -6.192,-5.976 0,-8.856 15.048,-8.856 8.568,0 11.808,2.952 3.312,2.88 3.312,10.656 v 14.616 q 0,3.744 2.088,3.744 2.448,0 2.88,-7.416 l 1.08,0.072 q -0.288,6.336 -2.376,8.712 -2.088,2.376 -6.84,2.376 -8.64,0 -9.936,-5.328 -0.936,2.736 -2.808,4.032 -1.872,1.296 -5.472,1.296 -10.656,0 -10.656,-8.712 0,-5.112 4.032,-6.984 4.104,-1.944 12.528,-1.944 z m -2.88,8.856 q 0,3.744 0.36,4.824 0.432,1.08 1.512,1.08 1.152,0 2.088,-1.8 1.008,-1.872 1.008,-5.112 v -6.696 h -0.504 q -4.464,0 -4.464,6.552 z" transform="translate(0 294.0851589875384) translate(460.7751869228614 78.23141661188879) scale(1.1508495272431865) translate(-482.43219 -85.008)"></path> 
   <path id="path53399" style="font-style: normal; font-weight: 400; font-size: 72px; line-height: 1; font-family: &quot;Abril Fatface&quot;; font-variant-ligatures: none; text-align: center; text-anchor: middle; fill: rgb(230, 188, 134);" d="m 523.70281,109.704 v -22.68 h -3.96 v -1.296 h 3.96 V 76.44 l 13.392,-3.312 v 12.6 h 9.36 v 1.296 h -9.36 v 24.264 q 0,3.384 0.648,4.968 0.72,1.584 2.88,1.584 2.16,0 3.744,-2.16 1.656,-2.16 2.16,-5.904 l 1.224,0.144 q -0.576,4.968 -3.168,7.92 -2.592,2.88 -8.568,2.88 -5.976,0 -9.144,-2.376 -3.168,-2.376 -3.168,-8.64 z" transform="translate(0 294.0851589875384) translate(520.9768392196594 64.55932422823975) scale(1.1508495272431865) translate(-519.74281 -73.128)"></path> 
   <path id="path53401" style="font-style: normal; font-weight: 400; font-size: 72px; line-height: 1; font-family: &quot;Abril Fatface&quot;; font-variant-ligatures: none; text-align: center; text-anchor: middle; fill: rgb(230, 188, 134);" d="m 552.10906,109.704 v -22.68 h -3.96 v -1.296 h 3.96 V 76.44 l 13.392,-3.312 v 12.6 h 9.36 v 1.296 h -9.36 v 24.264 q 0,3.384 0.648,4.968 0.72,1.584 2.88,1.584 2.16,0 3.744,-2.16 1.656,-2.16 2.16,-5.904 l 1.224,0.144 q -0.576,4.968 -3.168,7.92 -2.592,2.88 -8.568,2.88 -5.976,0 -9.144,-2.376 -3.168,-2.376 -3.168,-8.64 z" transform="translate(0 294.0851589875384) translate(570.9309015115589 64.55932422823975) scale(1.1508495272431865) translate(-548.14906 -73.128)"></path> 
   <path id="path53403" style="font-style: normal; font-weight: 400; font-size: 72px; line-height: 1; font-family: &quot;Abril Fatface&quot;; font-variant-ligatures: none; text-align: center; text-anchor: middle; fill: rgb(230, 188, 134);" d="m 595.85131,120.72 q -9.288,0 -13.968,-4.752 -4.608,-4.824 -4.608,-13.32 0,-8.568 5.184,-13.104 5.256,-4.536 13.32,-4.536 16.344,0 15.696,16.416 h -20.304 v 2.808 q 0,7.056 1.8,10.656 1.8,3.6 6.264,3.6 8.352,0 10.944,-8.928 l 1.296,0.216 q -1.368,5.184 -4.968,8.064 -3.528,2.88 -10.656,2.88 z m -4.608,-20.736 h 7.416 v -3.528 q 0,-5.832 -0.72,-7.92 -0.648,-2.16 -2.736,-2.16 -2.016,0 -3.024,2.304 -0.936,2.232 -0.936,7.776 z" transform="translate(0 294.0851589875384) translate(621.7135754630735 78.23141661188879) scale(1.1508495272431865) translate(-577.27531 -85.008)"></path> 
   <path id="path53405" style="font-style: normal; font-weight: 400; font-size: 72px; line-height: 1; font-family: &quot;Abril Fatface&quot;; font-variant-ligatures: none; text-align: center; text-anchor: middle; fill: rgb(230, 188, 134);" d="m 638.08831,87.744 q -2.664,0 -4.68,3.456 -2.016,3.456 -2.016,8.208 v 19.296 h 5.112 V 120 h -22.464 v -1.296 h 3.96 v -31.68 h -3.96 v -1.296 h 17.352 v 6.912 q 0.936,-3.672 3.6,-5.616 2.664,-2.016 6.048,-2.016 3.384,0 5.472,1.944 2.16,1.872 2.16,5.4 0,3.456 -1.584,5.328 -1.584,1.872 -4.896,1.872 -3.24,0 -4.824,-2.16 -1.512,-2.16 -0.36,-5.976 h 2.592 q 1.8,-3.672 -1.512,-3.672 z" transform="translate(0 294.0851589875384) translate(681.2873012408171 78.23141661188879) scale(1.1508495272431865) translate(-614.04031 -85.008)"></path> 
   <path id="path53407" style="font-style: normal; font-weight: 400; font-size: 72px; line-height: 1; font-family: &quot;Abril Fatface&quot;; font-variant-ligatures: none; text-align: center; text-anchor: middle; fill: rgb(230, 188, 134);" d="m 650.43069,120.72 v -12.888 h 0.864 q 1.872,6.264 5.04,8.784 3.168,2.52 7.92,2.52 7.344,0 7.344,-4.68 0,-2.016 -1.8,-3.024 -2.808,-1.584 -7.2,-2.448 -4.896,-1.296 -8.208,-3.456 -3.96,-2.592 -3.96,-8.208 0,-5.616 3.456,-8.928 3.456,-3.384 9.216,-3.384 3.528,0 7.272,1.656 1.368,0.576 2.088,0.576 0.72,0 1.224,-0.504 0.504,-0.504 1.224,-1.872 h 0.792 V 95.88 h -0.864 q -3.672,-9.36 -11.376,-9.36 -3.384,0 -5.04,1.224 -1.656,1.152 -1.656,2.952 0,1.08 0.504,1.728 0.504,0.576 0.792,0.864 0.288,0.288 0.936,0.648 0.648,0.288 1.08,0.504 0.432,0.144 1.296,0.432 0.936,0.288 1.368,0.36 4.896,1.224 7.056,2.16 2.16,0.864 4.104,2.16 3.96,2.736 3.96,8.856 0,6.048 -3.6,9.216 -3.6,3.096 -9.864,3.096 -4.464,0 -8.64,-2.088 -0.864,-0.576 -1.368,-0.576 -1.584,0 -3.096,2.664 z" transform="translate(0 294.0851589875384) translate(740.4298957686649 78.06569427996578) scale(1.1508495272431865) translate(-650.43069 -84.864)"></path> 
  </g> 
  <g id="tagline" style="font-style:oblique;font-weight:normal;font-size:32px;line-height:1;font-family:'Droid Serif';font-variant-ligatures:none;text-align:center;text-anchor:middle"></g> 
 </g> 
</svg>