<svg xmlns:dc="http://purl.org/dc/elements/1.1/" xmlns:cc="http://creativecommons.org/ns#" xmlns:rdf="http://www.w3.org/1999/02/22-rdf-syntax-ns#" xmlns:svg="http://www.w3.org/2000/svg" xmlns="http://www.w3.org/2000/svg" id="svg269178" viewbox="0 0 1024 768" height="768px" width="1024px" version="1.1"> <metadata id="metadata269184"> 
  <rdf:rdf> 
   <cc:work rdf:about=""> 
    <dc:format>
     image/svg+xml
    </dc:format> 
    <dc:type rdf:resource="http://purl.org/dc/dcmitype/StillImage"></dc:type> 
   </cc:work> 
  </rdf:rdf> 
 </metadata> <defs id="defs269182"></defs> <g id="logo-group"> 
  <g id="title" style="font-style:normal;font-weight:300;font-size:72px;line-height:1;font-family:'Montserrat Light Alt1';font-variant-ligatures:none;text-align:center;text-anchor:middle" aria-label="o7Mixer"> 
   <path id="path269186" style="font-style: normal; font-weight: 300; font-size: 72px; line-height: 1; font-family: &quot;Montserrat Light Alt1&quot;; font-variant-ligatures: none; text-align: center; text-anchor: middle; fill: rgb(55, 78, 92);" d="m 385.03138,117.84 c 2.88,1.656 6.048,2.448 9.64799,2.448 3.52801,0 6.69601,-0.792 9.57601,-2.448 2.87999,-1.584 5.11199,-3.888 6.76799,-6.768 1.584,-2.88 2.44801,-6.192 2.44801,-9.864 0,-3.6 -0.86401,-6.912 -2.44801,-9.792 -1.656,-2.88 -3.888,-5.184 -6.76799,-6.84 -2.88,-1.584 -6.048,-2.448 -9.57601,-2.448 -3.59999,0 -6.76799,0.864 -9.64799,2.448 -2.88,1.656 -5.11201,3.96 -6.69601,6.84 -1.656,2.88 -2.44799,6.192 -2.44799,9.792 0,3.672 0.79199,6.984 2.44799,9.864 1.584,2.88 3.81601,5.184 6.69601,6.768 z m 17.35199,-2.808 c -2.30399,1.368 -4.824,2.016 -7.704,2.016 -2.88,0 -5.47199,-0.648 -7.776,-2.016 -2.304,-1.296 -4.104,-3.168 -5.4,-5.616 -1.29599,-2.376 -1.944,-5.112 -1.944,-8.208 0,-3.024 0.64801,-5.76 1.944,-8.208 1.296,-2.376 3.096,-4.248 5.4,-5.616 2.30401,-1.296 4.896,-2.016 7.776,-2.016 2.88,0 5.40001,0.72 7.704,2.016 2.304,1.368 4.104,3.24 5.4,5.616 1.29601,2.448 2.016,5.184 2.016,8.208 0,3.096 -0.71999,5.832 -2.016,8.208 -1.296,2.448 -3.096,4.32 -5.4,5.616 z" transform="translate(0 233.57379391923286) translate(251.99999999999994 129.43756512615317) scale(1.7883981726835325) translate(-375.88738 -82.128)"></path> 
   <path id="path269188" style="font-style: normal; font-weight: 300; font-size: 72px; line-height: 1; font-family: &quot;Montserrat Light Alt1&quot;; font-variant-ligatures: none; text-align: center; text-anchor: middle; fill: rgb(55, 78, 92);" d="m 453.42012,69.6 h -36.144 v 12.96 h 3.6 v -9.648 h 28.296 L 427.71612,120 h 4.03201 l 21.67199,-47.808 z" transform="translate(0 233.57379391923286) translate(331.38474150372434 107.03251281877385) scale(1.7883981726835325) translate(-417.27612 -69.6)"></path> 
   <path id="path269190" style="font-style: normal; font-weight: 300; font-size: 72px; line-height: 1; font-family: &quot;Montserrat Light Alt1&quot;; font-variant-ligatures: none; text-align: center; text-anchor: middle; fill: rgb(238, 236, 232);" d="m 513.04175,120 h 3.6 l -0.072,-50.4 h -3.024 l -22.536,38.952 -22.536,-38.952 h -3.096 V 120 h 3.6 V 77.016 l 21.096,36.288 h 1.8 l 21.096,-36.432 z" transform="translate(0 233.57379391923286) translate(422.7748032168743 107.03251281877385) scale(1.7883981726835325) translate(-465.37775 -69.6)"></path> 
   <path id="path269192" style="font-style: normal; font-weight: 300; font-size: 72px; line-height: 1; font-family: &quot;Montserrat Light Alt1&quot;; font-variant-ligatures: none; text-align: center; text-anchor: middle; fill: rgb(238, 236, 232);" d="M 532.99137,82.416 V 120 h 3.6 V 82.416 Z m -0.28799,-9.936 c 0.57599,0.576 1.22399,0.792 2.088,0.792 0.792,0 1.51199,-0.288 2.08799,-0.864 0.576,-0.576 0.86401,-1.224 0.86401,-2.088 0,-0.792 -0.28801,-1.44 -0.86401,-2.016 -0.576,-0.576 -1.29599,-0.864 -2.08799,-0.864 -0.86401,0 -1.51201,0.288 -2.088,0.864 -0.576,0.576 -0.864,1.296 -0.864,2.088 0,0.864 0.288,1.512 0.864,2.088 z" transform="translate(0 233.57379391923286) translate(546.999855380494 103.16957276577745) scale(1.7883981726835325) translate(-531.83938 -67.44)"></path> 
   <path id="path269194" style="font-style: normal; font-weight: 300; font-size: 72px; line-height: 1; font-family: &quot;Montserrat Light Alt1&quot;; font-variant-ligatures: none; text-align: center; text-anchor: middle; fill: rgb(238, 236, 232);" d="m 575.73913,120 h 4.24799 l -15.12,-19.368 14.112,-18.216 h -4.03199 l -12.096,15.624 -12.096,-15.624 h -4.10401 l 14.112,18.216 -14.904,19.368 h 4.104 l 12.88801,-16.776 z" transform="translate(0 233.57379391923286) translate(577.4379272960427 129.952623799886) scale(1.7883981726835325) translate(-545.85912 -82.416)"></path> 
   <path id="path269196" style="font-style: normal; font-weight: 300; font-size: 72px; line-height: 1; font-family: &quot;Montserrat Light Alt1&quot;; font-variant-ligatures: none; text-align: center; text-anchor: middle; fill: rgb(238, 236, 232);" d="m 610.01112,115.752 c -2.08799,0.864 -4.392,1.296 -6.768,1.296 -3.88799,0 -7.12799,-1.008 -9.86399,-3.024 -2.736,-2.016 -4.60801,-4.752 -5.47201,-8.208 l 31.75201,-6.192 c -0.21601,-3.312 -1.00801,-6.264 -2.592,-8.928 -1.58401,-2.664 -3.67201,-4.752 -6.264,-6.264 -2.592,-1.512 -5.544,-2.304 -8.784,-2.304 -3.52801,0 -6.69601,0.864 -9.432,2.448 -2.808,1.656 -4.968,3.888 -6.55201,6.768 -1.58399,2.88 -2.30399,6.192 -2.30399,9.864 0,3.744 0.792,6.984 2.44799,9.864 1.656,2.88 3.96001,5.184 6.91201,6.768 2.952,1.656 6.264,2.448 10.07999,2.448 2.88,0 5.544,-0.504 8.06401,-1.512 2.376,-1.008 4.46399,-2.52 6.12,-4.608 l -2.08801,-2.376 c -1.43999,1.8 -3.168,3.096 -5.256,3.96 z m -15.624,-28.44 c 2.23201,-1.296 4.75201,-2.016 7.63201,-2.016 2.44799,0 4.75199,0.576 6.768,1.656 2.016,1.08 3.59999,2.592 4.896,4.392 1.22399,1.872 2.01599,3.96 2.37599,6.192 l -28.65599,5.616 c -0.144,-0.936 -0.144,-1.656 -0.144,-2.232 0,-2.952 0.57599,-5.688 1.87199,-8.064 1.22401,-2.376 2.952,-4.248 5.256,-5.544 z" transform="translate(0 233.57379391923286) translate(650.5333552939458 129.43756512615317) scale(1.7883981726835325) translate(-583.73113 -82.128)"></path> 
   <path id="path269198" style="font-style: normal; font-weight: 300; font-size: 72px; line-height: 1; font-family: &quot;Montserrat Light Alt1&quot;; font-variant-ligatures: none; text-align: center; text-anchor: middle; fill: rgb(238, 236, 232);" d="m 639.72238,84.36 c -2.44801,1.44 -4.24801,3.528 -5.40001,6.264 v -8.208 h -3.456 V 120 h 3.6 v -19.584 c 0,-4.608 1.15201,-8.28 3.528,-10.872 2.304,-2.592 5.616,-3.96 9.79201,-3.96 l 0.86399,0.072 v -3.528 c -3.52799,0 -6.47999,0.792 -8.92799,2.232 z" transform="translate(0 233.57379391923286) translate(740.195126896996 129.43756512615317) scale(1.7883981726835325) translate(-630.86637 -82.128)"></path> 
  </g> 
  <g id="tagline" style="font-style:normal;font-weight:400;font-size:32px;line-height:1;font-family:Montserrat;font-variant-ligatures:none;text-align:center;text-anchor:middle"></g> 
 </g> 
</svg>