<svg xmlns:dc="http://purl.org/dc/elements/1.1/" xmlns:cc="http://creativecommons.org/ns#" xmlns:rdf="http://www.w3.org/1999/02/22-rdf-syntax-ns#" xmlns:svg="http://www.w3.org/2000/svg" xmlns="http://www.w3.org/2000/svg" id="svg70869" viewbox="0 0 1024 768" height="768px" width="1024px" version="1.1"> <metadata id="metadata70875"> 
  <rdf:rdf> 
   <cc:work rdf:about=""> 
    <dc:format>
     image/svg+xml
    </dc:format> 
    <dc:type rdf:resource="http://purl.org/dc/dcmitype/StillImage"></dc:type> 
   </cc:work> 
  </rdf:rdf> 
 </metadata> <defs id="defs70873"></defs> <g id="logo-group"> 
  <g id="title" style="font-style:oblique;font-weight:700;font-size:72px;line-height:1;font-family:'Uni Neue';font-variant-ligatures:none;text-align:center;text-anchor:middle" aria-label="O7MOMMY"> 
   <path id="path70877" style="font-style: oblique; font-weight: 700; font-size: 72px; line-height: 1; font-family: &quot;Uni Neue&quot;; font-variant-ligatures: none; text-align: center; text-anchor: middle; fill: rgb(129, 129, 129);" d="m 378.30556,101.64 2.232,-12.744 c 2.16,-12.96 -4.32,-21.312 -16.632,-21.312 -12.6,0 -21.168,7.056 -23.256,18.864 l -2.232,12.744 c -2.232,12.816 4.032,21.744 16.344,21.744 12.96,0 21.456,-6.984 23.544,-19.296 z m -28.44,-1.152 2.376,-13.032 c 1.08,-5.904 4.464,-9.36 10.152,-9.36 5.472,0 7.632,3.96 6.624,9.72 l -2.304,13.176 c -1.008,5.832 -4.608,9.432 -10.296,9.432 -5.328,0 -7.56,-4.032 -6.552,-9.936 z" transform="translate(0 266.92685714285716) translate(192.8311792857142 78.96457142857145) scale(1.4285714285714286) translate(-337.97207 -67.584)"></path> 
   <path id="path70879" style="font-style: oblique; font-weight: 700; font-size: 72px; line-height: 1; font-family: &quot;Uni Neue&quot;; font-variant-ligatures: none; text-align: center; text-anchor: middle; fill: rgb(129, 129, 129);" d="m 394.54044,120 c 0.72,0 1.152,-0.288 1.512,-0.864 l 24.84,-41.688 c 0.288,-0.504 0.432,-0.936 0.504,-1.44 l 1.008,-6.12 c 0.144,-0.792 -0.288,-1.368 -1.08,-1.368 h -31.896 c -0.792,0 -1.224,0.36 -1.296,1.152 l -1.368,7.776 c -0.144,0.792 0.288,1.368 1.152,1.368 h 19.872 l -23.688,39.672 c -0.504,0.864 -0.072,1.512 0.864,1.512 z" transform="translate(0 266.92685714285716) translate(279.85332214285705 80.3017142857143) scale(1.4285714285714286) translate(-383.88757 -68.52)"></path> 
   <path id="path70881" style="font-style: oblique; font-weight: 700; font-size: 72px; line-height: 1; font-family: &quot;Uni Neue&quot;; font-variant-ligatures: none; text-align: center; text-anchor: middle; fill: rgb(138, 138, 138);" d="m 430.36606,120 c 0.792,0 1.296,-0.36 1.368,-1.152 l 1.656,-9.576 c 1.008,-6.264 2.376,-14.76 3.312,-22.32 h 0.36 c 0.648,3.24 2.304,9.432 3.456,13.896 l 2.16,7.344 c 0.216,0.72 0.72,1.08 1.44,1.08 h 6.552 c 0.648,0 1.08,-0.216 1.44,-0.864 l 4.608,-7.2 c 2.88,-4.68 6.768,-11.304 8.496,-14.616 l 0.36,0.072 c -1.584,7.416 -3.6,17.208 -4.536,22.824 l -1.584,9.144 c -0.072,0.792 0.36,1.368 1.152,1.368 h 8.784 c 0.792,0 1.224,-0.432 1.368,-1.152 l 8.568,-48.96 c 0.144,-0.792 -0.288,-1.368 -1.152,-1.368 h -10.512 c -0.72,0 -1.152,0.216 -1.512,0.792 l -8.064,12.456 c -2.952,4.608 -7.128,11.952 -8.784,14.904 h -0.216 c -0.648,-3.024 -2.448,-10.296 -3.6,-14.76 l -3.6,-12.312 c -0.216,-0.792 -0.72,-1.08 -1.44,-1.08 h -10.152 c -0.72,0 -1.152,0.432 -1.296,1.152 l -8.568,48.96 c -0.144,0.792 0.288,1.368 1.152,1.368 z" transform="translate(0 266.92685714285716) translate(353.44646499999993 80.3017142857143) scale(1.4285714285714286) translate(-420.40277 -68.52)"></path> 
   <path id="path70883" style="font-style: oblique; font-weight: 700; font-size: 72px; line-height: 1; font-family: &quot;Uni Neue&quot;; font-variant-ligatures: none; text-align: center; text-anchor: middle; fill: rgb(138, 138, 138);" d="m 522.72744,101.64 2.232,-12.744 c 2.16,-12.96 -4.32,-21.312 -16.632,-21.312 -12.6,0 -21.168,7.056 -23.256,18.864 l -2.232,12.744 c -2.232,12.816 4.032,21.744 16.344,21.744 12.96,0 21.456,-6.984 23.544,-19.296 z m -28.44,-1.152 2.376,-13.032 c 1.08,-5.904 4.464,-9.36 10.152,-9.36 5.472,0 7.632,3.96 6.624,9.72 l -2.304,13.176 c -1.008,5.832 -4.608,9.432 -10.296,9.432 -5.328,0 -7.56,-4.032 -6.552,-9.936 z" transform="translate(0 266.92685714285716) translate(463.43386499999997 78.96457142857145) scale(1.4285714285714286) translate(-482.39395 -67.584)"></path> 
   <path id="path70885" style="font-style: oblique; font-weight: 700; font-size: 72px; line-height: 1; font-family: &quot;Uni Neue&quot;; font-variant-ligatures: none; text-align: center; text-anchor: middle; fill: rgb(138, 138, 138);" d="m 538.22544,120 c 0.792,0 1.296,-0.36 1.368,-1.152 l 1.656,-9.576 c 1.008,-6.264 2.376,-14.76 3.312,-22.32 h 0.36 c 0.648,3.24 2.304,9.432 3.456,13.896 l 2.16,7.344 c 0.216,0.72 0.72,1.08 1.44,1.08 h 6.552 c 0.648,0 1.08,-0.216 1.44,-0.864 l 4.608,-7.2 c 2.88,-4.68 6.768,-11.304 8.496,-14.616 l 0.36,0.072 c -1.584,7.416 -3.6,17.208 -4.536,22.824 l -1.584,9.144 c -0.072,0.792 0.36,1.368 1.152,1.368 h 8.784 c 0.792,0 1.224,-0.432 1.368,-1.152 l 8.568,-48.96 c 0.144,-0.792 -0.288,-1.368 -1.152,-1.368 h -10.512 c -0.72,0 -1.152,0.216 -1.512,0.792 l -8.064,12.456 c -2.952,4.608 -7.128,11.952 -8.784,14.904 h -0.216 c -0.648,-3.024 -2.448,-10.296 -3.6,-14.76 l -3.6,-12.312 c -0.216,-0.792 -0.72,-1.08 -1.44,-1.08 h -10.152 c -0.72,0 -1.152,0.432 -1.296,1.152 l -8.568,48.96 c -0.144,0.792 0.288,1.368 1.152,1.368 z" transform="translate(0 266.92685714285716) translate(550.3884364285715 80.3017142857143) scale(1.4285714285714286) translate(-528.26215 -68.52)"></path> 
   <path id="path70887" style="font-style: oblique; font-weight: 700; font-size: 72px; line-height: 1; font-family: &quot;Uni Neue&quot;; font-variant-ligatures: none; text-align: center; text-anchor: middle; fill: rgb(138, 138, 138);" d="m 598.83481,120 c 0.792,0 1.296,-0.36 1.368,-1.152 l 1.656,-9.576 c 1.008,-6.264 2.376,-14.76 3.312,-22.32 h 0.36 c 0.648,3.24 2.304,9.432 3.456,13.896 l 2.16,7.344 c 0.216,0.72 0.72,1.08 1.44,1.08 h 6.552 c 0.648,0 1.08,-0.216 1.44,-0.864 l 4.608,-7.2 c 2.88,-4.68 6.768,-11.304 8.496,-14.616 l 0.36,0.072 c -1.584,7.416 -3.6,17.208 -4.536,22.824 l -1.584,9.144 c -0.072,0.792 0.36,1.368 1.152,1.368 h 8.784 c 0.792,0 1.224,-0.432 1.368,-1.152 l 8.568,-48.96 c 0.144,-0.792 -0.288,-1.368 -1.152,-1.368 h -10.512 c -0.72,0 -1.152,0.216 -1.512,0.792 l -8.064,12.456 c -2.952,4.608 -7.128,11.952 -8.784,14.904 h -0.216 c -0.648,-3.024 -2.448,-10.296 -3.6,-14.76 l -3.6,-12.312 c -0.216,-0.792 -0.72,-1.08 -1.44,-1.08 h -10.152 c -0.72,0 -1.152,0.432 -1.296,1.152 l -8.568,48.96 c -0.144,0.792 0.288,1.368 1.152,1.368 z" transform="translate(0 266.92685714285716) translate(658.4018221428573 80.3017142857143) scale(1.4285714285714286) translate(-588.87152 -68.52)"></path> 
   <path id="path70889" style="font-style: oblique; font-weight: 700; font-size: 72px; line-height: 1; font-family: &quot;Uni Neue&quot;; font-variant-ligatures: none; text-align: center; text-anchor: middle; fill: rgb(138, 138, 138);" d="m 669.66819,120 c 0.72,0 1.152,-0.36 1.296,-1.152 l 3.24,-17.136 20.376,-31.68 c 0.504,-0.864 0.144,-1.512 -0.792,-1.512 h -9.936 c -0.648,0 -1.08,0.288 -1.44,0.864 l -12.24,21.456 h -0.144 l -5.256,-21.24 c -0.144,-0.72 -0.576,-1.08 -1.296,-1.08 h -9.36 c -0.864,0 -1.296,0.576 -1.008,1.368 l 9.576,31.608 -3.168,17.136 c -0.144,0.864 0.288,1.368 1.152,1.368 z" transform="translate(0 266.92685714285716) translate(771.4701364285717 80.3017142857143) scale(1.4285714285714286) translate(-653.01934 -68.52)"></path> 
  </g> 
  <g id="tagline" style="font-style:oblique;font-weight:400;font-size:32px;line-height:1;font-family:Lato;font-variant-ligatures:none;text-align:center;text-anchor:middle"></g> 
 </g> 
</svg>