<svg xmlns:dc="http://purl.org/dc/elements/1.1/" xmlns:cc="http://creativecommons.org/ns#" xmlns:rdf="http://www.w3.org/1999/02/22-rdf-syntax-ns#" xmlns:svg="http://www.w3.org/2000/svg" xmlns="http://www.w3.org/2000/svg" id="svg8615" viewbox="0 0 1024 768" height="768px" width="1024px" version="1.1"> <metadata id="metadata8621"> 
  <rdf:rdf> 
   <cc:work rdf:about=""> 
    <dc:format>
     image/svg+xml
    </dc:format> 
    <dc:type rdf:resource="http://purl.org/dc/dcmitype/StillImage"></dc:type> 
   </cc:work> 
  </rdf:rdf> 
 </metadata> <defs id="defs8619"></defs> <g id="logo-group"> 
  <g id="title" style="font-style:normal;font-weight:700;font-size:72px;line-height:1;font-family:'Brandmark1 Bold';font-variant-ligatures:none;text-align:center;text-anchor:middle" aria-label="o7must"> 
   <path id="path8623" style="font-style: normal; font-weight: 700; font-size: 72px; line-height: 1; font-family: &quot;Brandmark1 Bold&quot;; font-variant-ligatures: none; text-align: center; text-anchor: middle; fill: rgb(40, 40, 40);" d="m 415.39794,123.024 c 2.736,0 5.472,-0.576 7.992,-1.584 2.448,-1.08 4.68,-2.52 6.552,-4.392 1.872,-1.944 3.312,-4.104 4.392,-6.552 1.08,-2.52 1.584,-5.256 1.584,-7.992 0,-2.808 -0.504,-5.472 -1.584,-7.992 -1.08,-2.448 -2.52,-4.68 -4.392,-6.552 -1.944,-1.872 -4.104,-3.312 -6.552,-4.392 -2.52,-1.08 -5.256,-1.584 -7.992,-1.584 -2.736,0 -5.472,0.504 -7.992,1.584 -2.448,1.08 -4.608,2.52 -6.552,4.392 -1.872,1.944 -3.312,4.104 -4.392,6.552 -1.008,2.52 -1.584,5.184 -1.584,7.992 0,2.736 0.576,5.472 1.584,7.992 1.08,2.448 2.52,4.608 4.392,6.552 1.944,1.872 4.104,3.312 6.552,4.392 2.52,1.008 5.256,1.584 7.992,1.584 z m 0,-30.24 c 5.328,0 9.72,4.392 9.72,9.72 0,5.328 -4.392,9.72 -9.72,9.72 -5.328,0 -9.72,-4.392 -9.72,-9.72 0,-5.328 4.392,-9.72 9.72,-9.72 z" transform="translate(0 227.0847250559185) translate(251.99999999999994 131.56228165431344) scale(1.8244813823955097) translate(-394.87794 -81.984)"></path> 
   <path id="path8625" style="font-style: normal; font-weight: 700; font-size: 72px; line-height: 1; font-family: &quot;Brandmark1 Bold&quot;; font-variant-ligatures: none; text-align: center; text-anchor: middle; fill: rgb(40, 40, 40);" d="m 438.24781,121.512 11.16,2.232 20.592,-48.384 v -7.344 h -35.712 V 78.6 h 22.536 z" transform="translate(0 227.0847250559185) translate(342.14738792158226 106.07792570501299) scale(1.8244813823955097) translate(-434.28781 -68.016)"></path> 
   <path id="path8627" style="font-style: normal; font-weight: 700; font-size: 72px; line-height: 1; font-family: &quot;Brandmark1 Bold&quot;; font-variant-ligatures: none; text-align: center; text-anchor: middle; fill: rgb(94, 94, 94);" d="m 524.57131,87.672 c -3.24,-3.24 -7.632,-5.04 -12.24,-5.04 -4.464,0 -8.712,1.656 -11.88,4.752 -3.24,-3.096 -7.488,-4.752 -11.952,-4.752 -2.232,0 -4.464,0.432 -6.48,1.296 v -1.944 h -10.8 v 40.536 h 10.8 V 99.912 c 0,-3.528 2.88,-6.48 6.48,-6.48 3.6,0 6.552,2.952 6.552,6.48 v 22.608 h 10.8 V 99.912 c 0,-3.528 2.88,-6.48 6.48,-6.48 3.6,0 6.552,2.952 6.552,6.48 v 22.608 h 10.8 V 99.912 c 0,-4.608 -1.8,-8.928 -5.112,-12.24 z" transform="translate(0 227.0847250559185) translate(427.7730359194772 131.56228165431344) scale(1.8244813823955097) translate(-471.21931 -81.984)"></path> 
   <path id="path8629" style="font-style: normal; font-weight: 700; font-size: 72px; line-height: 1; font-family: &quot;Brandmark1 Bold&quot;; font-variant-ligatures: none; text-align: center; text-anchor: middle; fill: rgb(94, 94, 94);" d="m 551.91444,123.024 c 4.824,0 9.36,-1.872 12.744,-5.256 3.384,-3.384 5.256,-7.92 5.256,-12.744 V 82.416 h -10.8 v 22.608 c 0,3.96 -3.24,7.2 -7.2,7.2 -3.96,0 -7.2,-3.24 -7.2,-7.2 V 82.416 h -10.8 v 22.608 c 0,4.824 1.872,9.36 5.256,12.744 3.384,3.384 7.92,5.256 12.744,5.256 z" transform="translate(0 227.0847250559185) translate(560.4039471952985 132.35045761150832) scale(1.8244813823955097) translate(-533.91444 -82.416)"></path> 
   <path id="path8631" style="font-style: normal; font-weight: 700; font-size: 72px; line-height: 1; font-family: &quot;Brandmark1 Bold&quot;; font-variant-ligatures: none; text-align: center; text-anchor: middle; fill: rgb(94, 94, 94);" d="m 590.32644,122.952 c 7.272,0 13.176,-5.904 13.176,-13.176 0,-7.272 -5.904,-13.176 -13.176,-13.176 h -3.024 c -1.08,0 -1.872,-0.864 -1.872,-1.872 0,-1.08 0.792,-1.944 1.872,-1.944 h 15.048 V 81.48 h -15.048 c -7.272,0 -13.176,5.976 -13.176,13.248 0,7.272 5.904,13.176 13.176,13.176 h 3.024 c 1.008,0 1.872,0.864 1.872,1.872 0,1.08 -0.864,1.872 -1.872,1.872 h -16.848 v 11.304 z" transform="translate(0 227.0847250559185) translate(650.8325424323496 130.64274303758611) scale(1.8244813823955097) translate(-573.47844 -81.48)"></path> 
   <path id="path8633" style="font-style: normal; font-weight: 700; font-size: 72px; line-height: 1; font-family: &quot;Brandmark1 Bold&quot;; font-variant-ligatures: none; text-align: center; text-anchor: middle; fill: rgb(94, 94, 94);" d="m 629.89044,92.496 v -10.08 h -11.448 V 69.528 l -10.8,3.6 v 27.936 c 0,3.024 0.576,5.904 1.728,8.64 1.08,2.664 2.736,5.04 4.752,7.056 2.016,2.088 4.392,3.672 7.056,4.824 2.736,1.152 5.688,1.728 8.712,1.728 v -10.8 c -6.336,0 -11.448,-5.112 -11.448,-11.448 v -8.568 z" transform="translate(0 227.0847250559185) translate(731.4089382044649 108.83654155519501) scale(1.8244813823955097) translate(-607.64244 -69.528)"></path> 
  </g> 
  <g id="tagline" style="font-style:normal;font-weight:400;font-size:32px;line-height:1;font-family:Montserrat;font-variant-ligatures:none;text-align:center;text-anchor:middle"></g> 
 </g> 
</svg>