<svg xmlns:dc="http://purl.org/dc/elements/1.1/" xmlns:cc="http://creativecommons.org/ns#" xmlns:rdf="http://www.w3.org/1999/02/22-rdf-syntax-ns#" xmlns:svg="http://www.w3.org/2000/svg" xmlns="http://www.w3.org/2000/svg" id="svg39416" viewbox="0 0 1024 768" height="768px" width="1024px" version="1.1"> <metadata id="metadata39422"> 
  <rdf:rdf> 
   <cc:work rdf:about=""> 
    <dc:format>
     image/svg+xml
    </dc:format> 
    <dc:type rdf:resource="http://purl.org/dc/dcmitype/StillImage"></dc:type> 
   </cc:work> 
  </rdf:rdf> 
 </metadata> <defs id="defs39420"></defs> <g id="logo-group"> 
  <g id="title" style="font-style:normal;font-weight:500;font-size:72px;line-height:1;font-family:'Raleway Medium Alt1';font-variant-ligatures:none;text-align:center;text-anchor:middle" aria-label="O7MAIN"> 
   <path id="path39424" style="font-style: normal; font-weight: 500; font-size: 72px; line-height: 1; font-family: &quot;Raleway Medium Alt1&quot;; font-variant-ligatures: none; text-align: center; text-anchor: middle; fill: rgb(255, 255, 255);" d="m 417.12987,97.248 c -0.21599,1.512 -0.504,3.024 -1.008,4.464 -0.79199,2.448 -1.94399,4.608 -3.45599,6.48 -1.51201,1.872 -3.384,3.456 -5.47201,4.608 -2.23199,1.152 -4.68,1.728 -7.344,1.728 -2.664,0 -5.04,-0.504 -7.2,-1.656 -2.16,-1.08 -4.03199,-2.592 -5.54399,-4.464 -1.584,-1.872 -2.73601,-3.96 -3.60001,-6.408 -0.504,-1.512 -0.86399,-3.096 -1.07999,-4.752 h -6.55201 c 0.216,2.304 0.72001,4.608 1.584,6.768 1.08,3.168 2.736,5.904 4.89601,8.352 2.08799,2.448 4.608,4.392 7.56,5.832 2.952,1.44 6.26399,2.16 9.86399,2.16 3.456,0 6.62401,-0.648 9.57601,-2.088 2.952,-1.44 5.47199,-3.312 7.632,-5.688 2.15999,-2.376 3.81599,-5.112 5.03999,-8.28 0.86401,-2.232 1.44,-4.608 1.728,-7.056 z m -33.624,-10.152 c 0.792,-2.376 1.94401,-4.464 3.45601,-6.408 1.512,-1.872 3.38399,-3.384 5.54399,-4.536 2.16001,-1.152 4.608,-1.728 7.344,-1.728 2.52,0 4.896,0.576 7.056,1.656 2.16,1.152 3.96001,2.592 5.54401,4.464 1.584,1.872 2.73599,3.96 3.59999,6.408 0.432,1.296 0.79201,2.664 1.008,3.96 h 6.552 c -0.288,-1.944 -0.79199,-3.96 -1.44,-5.832 -1.152,-3.096 -2.808,-5.832 -4.896,-8.352 -2.16,-2.448 -4.67999,-4.392 -7.55999,-5.904 -2.952,-1.512 -6.264,-2.304 -9.79201,-2.304 -3.528,0 -6.696,0.72 -9.648,2.16 -2.952,1.44 -5.472,3.312 -7.63199,5.688 -2.16001,2.448 -3.88801,5.184 -5.11201,8.28 -0.792,2.088 -1.368,4.176 -1.584,6.264 h 6.55201 c 0.216,-1.224 0.57599,-2.52 1.00799,-3.816 z" transform="translate(0 227.78523962269423) translate(251.9999999999999 102.62321050927828) scale(1.767997818290693) translate(-375.87387 -68.52)"></path> 
   <path id="path39426" style="font-style: normal; font-weight: 500; font-size: 72px; line-height: 1; font-family: &quot;Raleway Medium Alt1&quot;; font-variant-ligatures: none; text-align: center; text-anchor: middle; fill: rgb(255, 255, 255);" d="m 455.00525,83.856 -22.896,45.288 h 7.2 l 25.704,-51.12 h -36.288 v 5.832 z" transform="translate(0 227.78523962269423) translate(354.2811136251058 119.42626177431303) scale(1.767997818290693) translate(-428.72525 -78.024)"></path> 
   <path id="path39428" style="font-style: normal; font-weight: 500; font-size: 72px; line-height: 1; font-family: &quot;Raleway Medium Alt1&quot;; font-variant-ligatures: none; text-align: center; text-anchor: middle; fill: rgb(181, 198, 177);" d="M 471.4325,68.88 V 120 h 6.48 V 80.472 l 11.448,20.448 3.456,-5.904 -14.544,-26.136 z m 43.92,0 -18.576,33.192 -3.384,5.904 1.584,2.808 h 3.672 l 16.992,-30.312 V 120 h 6.48 V 68.88 Z" transform="translate(0 227.78523962269423) translate(438.6274275417544 103.25968972386293) scale(1.767997818290693) translate(-471.4325 -68.88)"></path> 
   <path id="path39430" style="font-style: normal; font-weight: 500; font-size: 72px; line-height: 1; font-family: &quot;Raleway Medium Alt1&quot;; font-variant-ligatures: none; text-align: center; text-anchor: middle; fill: rgb(181, 198, 177);" d="m 558.12387,75.864 -2.808,7.632 6.48001,16.488 h -12.81601 l -1.94399,5.04 h 16.19999 l 6.048,14.976 h 6.912 z m -2.808,-6.984 h -5.47199 l -20.952,51.12 h 6.624 l 17.064,-43.632 z" transform="translate(0 227.78523962269423) translate(549.0554751135438 103.25968972386293) scale(1.767997818290693) translate(-528.89188 -68.88)"></path> 
   <path id="path39432" style="font-style: normal; font-weight: 500; font-size: 72px; line-height: 1; font-family: &quot;Raleway Medium Alt1&quot;; font-variant-ligatures: none; text-align: center; text-anchor: middle; fill: rgb(181, 198, 177);" d="m 583.08875,120 h 6.48 V 68.88 h -6.48 z" transform="translate(0 227.78523962269423) translate(653.7154121231815 103.25968972386293) scale(1.767997818290693) translate(-583.08875 -68.88)"></path> 
   <path id="path39434" style="font-style: normal; font-weight: 500; font-size: 72px; line-height: 1; font-family: &quot;Raleway Medium Alt1&quot;; font-variant-ligatures: none; text-align: center; text-anchor: middle; fill: rgb(181, 198, 177);" d="m 601.79187,120 h 6.48001 V 91.272 l -6.48001,-8.424 z m 36.72001,-51.048 v 39.744 L 606.83187,68.88 h -5.04 v 3.888 l 6.48001,8.208 31.24799,39.024 h 5.47201 V 68.952 Z" transform="translate(0 227.78523962269423) translate(695.6224765698639 103.25968972386293) scale(1.767997818290693) translate(-601.79187 -68.88)"></path> 
  </g> 
  <g id="tagline" style="font-style:oblique;font-weight:600;font-size:32px;line-height:1;font-family:Raleway;font-variant-ligatures:none;text-align:center;text-anchor:middle"></g> 
 </g> 
</svg>