<svg xmlns:dc="http://purl.org/dc/elements/1.1/" xmlns:cc="http://creativecommons.org/ns#" xmlns:rdf="http://www.w3.org/1999/02/22-rdf-syntax-ns#" xmlns:svg="http://www.w3.org/2000/svg" xmlns="http://www.w3.org/2000/svg" id="svg258840" viewbox="0 0 1024 768" height="768px" width="1024px" version="1.1"> <metadata id="metadata258846"> 
  <rdf:rdf> 
   <cc:work rdf:about=""> 
    <dc:format>
     image/svg+xml
    </dc:format> 
    <dc:type rdf:resource="http://purl.org/dc/dcmitype/StillImage"></dc:type> 
   </cc:work> 
  </rdf:rdf> 
 </metadata> <defs id="defs258844"></defs> <g id="logo-group"> 
  <g id="title" style="font-style:normal;font-weight:700;font-size:72px;line-height:1;font-family:Phenomena;font-variant-ligatures:none;text-align:center;text-anchor:middle" aria-label="O7MANAGEMENT"> 
   <path id="path258848" style="font-style: normal; font-weight: 700; font-size: 72px; line-height: 1; font-family: Phenomena; font-variant-ligatures: none; text-align: center; text-anchor: middle; fill: rgb(2, 233, 1);" d="m 333.07437,120.72 c 7.488,0 12.672,-5.472 12.672,-13.032 V 81.912 c 0,-7.56 -5.184,-13.032 -12.672,-13.032 -7.488,0 -12.744,5.472 -12.744,13.536 v 24.768 c 0,8.064 5.256,13.536 12.744,13.536 z m 0,-6.048 c -3.672,0 -6.19199,-2.736 -6.19199,-7.2 V 82.128 c 0,-4.464 2.51999,-7.2 6.19199,-7.2 3.672,0 6.12,2.736 6.12,6.696 v 26.352 c 0,3.96 -2.448,6.696 -6.12,6.696 z" transform="translate(0 313.2675150987497) translate(251.9999999999999 46.250529535845146) scale(0.9445198829245812) translate(-320.33037 -68.88)"></path> 
   <path id="path258850" style="font-style: normal; font-weight: 700; font-size: 72px; line-height: 1; font-family: Phenomena; font-variant-ligatures: none; text-align: center; text-anchor: middle; fill: rgb(2, 233, 1);" d="m 349.811,70.536 v 4.104 c 0,0.648 0.36,1.008 0.936,1.008 h 13.752 l -10.44,43.272 c -0.144,0.648 0.144,1.08 0.864,1.08 h 4.536 c 0.576,0 0.936,-0.288 1.08,-0.864 L 371.051,75 c 0.288,-1.224 0.36,-2.088 0.36,-3.384 0,-1.368 -0.792,-2.016 -2.16,-2.016 h -18.504 c -0.576,0 -0.936,0.36 -0.936,0.936 z" transform="translate(0 313.2675150987497) translate(294.0128394400115 46.930583851550836) scale(0.9445198829245812) translate(-349.811 -69.6)"></path> 
   <path id="path258852" style="font-style: normal; font-weight: 700; font-size: 72px; line-height: 1; font-family: Phenomena; font-variant-ligatures: none; text-align: center; text-anchor: middle; fill: rgb(250, 249, 246);" d="m 405.95975,68.808 c -3.96,0 -6.552,1.872 -8.496,4.536 -1.944,-2.664 -4.464,-4.536 -8.496,-4.536 -7.272,0 -11.736,5.256 -11.736,13.392 v 36.792 c 0,0.648 0.36,1.008 0.936,1.008 h 4.536 c 0.576,0 0.936,-0.36 0.936,-1.008 v -37.08 c 0,-4.464 1.8,-6.984 5.328,-6.984 3.096,0 5.256,2.52 5.256,6.984 v 37.08 c 0,0.648 0.36,1.008 0.936,1.008 h 4.536 c 0.576,0 0.936,-0.36 0.936,-1.008 v -37.08 c 0,-4.464 2.088,-6.984 5.328,-6.984 3.384,0 5.256,2.52 5.256,6.984 v 37.08 c 0,0.648 0.36,1.008 0.936,1.008 h 4.536 c 0.648,0 1.008,-0.36 1.008,-1.008 V 82.2 c 0,-8.136 -4.536,-13.392 -11.736,-13.392 z" transform="translate(0 313.2675150987497) translate(334.08008126358436 46.18252410427458) scale(0.9445198829245812) translate(-377.23175 -68.808)"></path> 
   <path id="path258854" style="font-style: normal; font-weight: 700; font-size: 72px; line-height: 1; font-family: Phenomena; font-variant-ligatures: none; text-align: center; text-anchor: middle; fill: rgb(250, 249, 246);" d="m 426.40212,120 h 4.60801 c 0.57599,0 0.93599,-0.36 0.93599,-1.008 v -15.984 h 11.664 v 15.984 c 0,0.648 0.432,1.008 1.00801,1.008 h 4.536 c 0.64799,0 1.00799,-0.36 1.00799,-1.008 V 82.128 c 0,-7.92 -4.968,-13.248 -12.384,-13.248 -7.416,0 -12.312,5.328 -12.312,13.248 v 36.864 c 0,0.648 0.36,1.008 0.936,1.008 z m 5.544,-22.968 V 81.84 c 0,-4.32 2.16001,-6.84 5.832,-6.84 3.74401,0 5.832,2.52 5.832,6.84 v 15.192 z" transform="translate(0 313.2675150987497) translate(393.8062010127941 46.250529535845146) scale(0.9445198829245812) translate(-425.46612 -68.88)"></path> 
   <path id="path258856" style="font-style: normal; font-weight: 700; font-size: 72px; line-height: 1; font-family: Phenomena; font-variant-ligatures: none; text-align: center; text-anchor: middle; fill: rgb(250, 249, 246);" d="m 458.8865,120 h 4.608 c 0.576,0 0.936,-0.36 0.936,-1.008 V 81.768 c 0,-4.104 2.232,-6.84 5.832,-6.84 3.6,0 5.832,2.736 5.832,6.84 v 37.224 c 0,0.648 0.432,1.008 1.008,1.008 h 4.536 c 0.648,0 1.008,-0.36 1.008,-1.008 V 82.056 c 0,-7.776 -4.896,-13.248 -12.384,-13.248 -7.488,0 -12.312,5.472 -12.312,13.248 v 36.936 c 0,0.648 0.36,1.008 0.936,1.008 z" transform="translate(0 313.2675150987497) translate(438.65614205114036 46.18252410427458) scale(0.9445198829245812) translate(-457.9505 -68.808)"></path> 
   <path id="path258858" style="font-style: normal; font-weight: 700; font-size: 72px; line-height: 1; font-family: Phenomena; font-variant-ligatures: none; text-align: center; text-anchor: middle; fill: rgb(250, 249, 246);" d="m 491.37087,120 h 4.60801 c 0.57599,0 0.93599,-0.36 0.93599,-1.008 v -15.984 h 11.664 v 15.984 c 0,0.648 0.432,1.008 1.00801,1.008 h 4.536 c 0.648,0 1.008,-0.36 1.008,-1.008 V 82.128 c 0,-7.92 -4.96801,-13.248 -12.38401,-13.248 -7.416,0 -12.312,5.328 -12.312,13.248 v 36.864 c 0,0.648 0.36,1.008 0.936,1.008 z m 5.544,-22.968 V 81.84 c 0,-4.32 2.16001,-6.84 5.832,-6.84 3.74401,0 5.832,2.52 5.832,6.84 v 15.192 z" transform="translate(0 313.2675150987497) translate(483.5060736442878 46.250529535845146) scale(0.9445198829245812) translate(-490.43487 -68.88)"></path> 
   <path id="path258860" style="font-style: normal; font-weight: 700; font-size: 72px; line-height: 1; font-family: Phenomena; font-variant-ligatures: none; text-align: center; text-anchor: middle; fill: rgb(250, 249, 246);" d="m 534.79925,120.792 c 7.488,0 12.672,-5.472 12.672,-12.888 v -12.24 c 0,-1.872 -1.08,-2.952 -2.952,-2.952 h -8.496 c -0.648,0 -1.008,0.36 -1.008,1.008 v 3.816 c 0,0.576 0.36,0.936 1.008,0.936 h 4.968 v 9.792 c 0,3.744 -2.52,6.408 -6.12,6.408 -3.672,0 -6.192,-2.664 -6.192,-6.912 V 81.84 c 0,-4.248 2.232,-6.912 5.904,-6.912 3.456,0 5.616,2.592 5.832,6.984 0.072,0.648 0.432,1.008 1.008,1.008 h 4.608 c 0.576,0 0.936,-0.36 0.936,-1.008 -0.216,-7.704 -5.184,-13.104 -12.384,-13.104 -7.488,0 -12.456,5.4 -12.456,13.248 v 25.416 c 0,7.848 5.184,13.32 12.672,13.32 z" transform="translate(0 313.2675150987497) translate(527.607954935358 46.18252410427458) scale(0.9445198829245812) translate(-522.12725 -68.808)"></path> 
   <path id="path258862" style="font-style: normal; font-weight: 700; font-size: 72px; line-height: 1; font-family: Phenomena; font-variant-ligatures: none; text-align: center; text-anchor: middle; fill: rgb(250, 249, 246);" d="m 565.23613,120.216 h 7.55999 c 0.576,0 0.936,-0.36 0.936,-0.936 v -4.104 c 0,-0.648 -0.36,-1.008 -0.936,-1.008 h -7.05599 c -3.74401,0 -6.264,-2.88 -6.264,-6.984 v -9.72 h 11.51999 c 0.64801,0 1.00801,-0.36 1.00801,-1.008 v -3.888 c 0,-0.648 -0.36,-1.008 -1.00801,-1.008 h -11.51999 v -9.144 c 0,-4.104 2.51999,-6.984 6.264,-6.984 h 7.05599 c 0.576,0 0.936,-0.36 0.936,-1.008 V 70.32 c 0,-0.576 -0.36,-0.936 -0.936,-0.936 h -7.55999 c -7.27201,0 -12.31201,5.472 -12.31201,12.888 v 25.056 c 0,7.416 5.04,12.888 12.31201,12.888 z" transform="translate(0 313.2675150987497) translate(570.8640092260702 46.72656755683914) scale(0.9445198829245812) translate(-552.92412 -69.384)"></path> 
   <path id="path258864" style="font-style: normal; font-weight: 700; font-size: 72px; line-height: 1; font-family: Phenomena; font-variant-ligatures: none; text-align: center; text-anchor: middle; fill: rgb(250, 249, 246);" d="m 608.45975,68.808 c -3.96,0 -6.552,1.872 -8.496,4.536 -1.944,-2.664 -4.464,-4.536 -8.496,-4.536 -7.272,0 -11.736,5.256 -11.736,13.392 v 36.792 c 0,0.648 0.36,1.008 0.936,1.008 h 4.536 c 0.576,0 0.936,-0.36 0.936,-1.008 v -37.08 c 0,-4.464 1.8,-6.984 5.328,-6.984 3.096,0 5.256,2.52 5.256,6.984 v 37.08 c 0,0.648 0.36,1.008 0.936,1.008 h 4.536 c 0.576,0 0.936,-0.36 0.936,-1.008 v -37.08 c 0,-4.464 2.088,-6.984 5.328,-6.984 3.384,0 5.256,2.52 5.256,6.984 v 37.08 c 0,0.648 0.36,1.008 0.936,1.008 h 4.536 c 0.648,0 1.008,-0.36 1.008,-1.008 V 82.2 c 0,-8.136 -4.536,-13.392 -11.736,-13.392 z" transform="translate(0 313.2675150987497) translate(610.3521470190243 46.18252410427458) scale(0.9445198829245812) translate(-579.73175 -68.808)"></path> 
   <path id="path258866" style="font-style: normal; font-weight: 700; font-size: 72px; line-height: 1; font-family: Phenomena; font-variant-ligatures: none; text-align: center; text-anchor: middle; fill: rgb(250, 249, 246);" d="m 639.48613,120.216 h 7.55999 c 0.576,0 0.936,-0.36 0.936,-0.936 v -4.104 c 0,-0.648 -0.36,-1.008 -0.936,-1.008 h -7.05599 c -3.74401,0 -6.264,-2.88 -6.264,-6.984 v -9.72 h 11.51999 c 0.64801,0 1.00801,-0.36 1.00801,-1.008 v -3.888 c 0,-0.648 -0.36,-1.008 -1.00801,-1.008 h -11.51999 v -9.144 c 0,-4.104 2.51999,-6.984 6.264,-6.984 h 7.05599 c 0.576,0 0.936,-0.36 0.936,-1.008 V 70.32 c 0,-0.576 -0.36,-0.936 -0.936,-0.936 h -7.55999 c -7.27201,0 -12.31201,5.472 -12.31201,12.888 v 25.056 c 0,7.416 5.04,12.888 12.31201,12.888 z" transform="translate(0 313.2675150987497) translate(669.3302070209577 46.72656755683914) scale(0.9445198829245812) translate(-627.17412 -69.384)"></path> 
   <path id="path258868" style="font-style: normal; font-weight: 700; font-size: 72px; line-height: 1; font-family: Phenomena; font-variant-ligatures: none; text-align: center; text-anchor: middle; fill: rgb(250, 249, 246);" d="m 654.91775,120 h 4.608 c 0.576,0 0.936,-0.36 0.936,-1.008 V 81.768 c 0,-4.104 2.232,-6.84 5.832,-6.84 3.6,0 5.832,2.736 5.832,6.84 v 37.224 c 0,0.648 0.432,1.008 1.008,1.008 h 4.536 c 0.648,0 1.008,-0.36 1.008,-1.008 V 82.056 c 0,-7.776 -4.896,-13.248 -12.384,-13.248 -7.488,0 -12.312,5.472 -12.312,13.248 v 36.936 c 0,0.648 0.36,1.008 0.936,1.008 z" transform="translate(0 313.2675150987497) translate(708.8183448139118 46.18252410427458) scale(0.9445198829245812) translate(-653.98175 -68.808)"></path> 
   <path id="path258870" style="font-style: normal; font-weight: 700; font-size: 72px; line-height: 1; font-family: Phenomena; font-variant-ligatures: none; text-align: center; text-anchor: middle; fill: rgb(250, 249, 246);" d="m 704.86662,69.6 h -22.104 c -0.57599,0 -0.93599,0.36 -0.93599,0.936 v 4.104 c 0,0.648 0.36,1.008 0.93599,1.008 h 7.84801 v 43.344 c 0,0.648 0.36,1.008 0.93599,1.008 h 4.536 c 0.64801,0 1.00801,-0.36 1.00801,-1.008 V 75.648 h 7.77599 c 0.64801,0 1.00801,-0.36 1.00801,-1.008 v -4.104 c 0,-0.576 -0.36,-0.936 -1.00801,-0.936 z" transform="translate(0 313.2675150987497) translate(749.2861858554296 46.930583851550836) scale(0.9445198829245812) translate(-681.82663 -69.6)"></path> 
  </g> 
  <g id="tagline" style="font-style:oblique;font-weight:normal;font-size:32px;line-height:1;font-family:'Fira Sans Condensed';font-variant-ligatures:none;text-align:center;text-anchor:middle"></g> 
 </g> 
</svg>