<svg xmlns:dc="http://purl.org/dc/elements/1.1/" xmlns:cc="http://creativecommons.org/ns#" xmlns:rdf="http://www.w3.org/1999/02/22-rdf-syntax-ns#" xmlns:svg="http://www.w3.org/2000/svg" xmlns="http://www.w3.org/2000/svg" id="svg8757" viewbox="0 0 1024 768" height="768px" width="1024px" version="1.1"> <metadata id="metadata8763"> 
  <rdf:rdf> 
   <cc:work rdf:about=""> 
    <dc:format>
     image/svg+xml
    </dc:format> 
    <dc:type rdf:resource="http://purl.org/dc/dcmitype/StillImage"></dc:type> 
   </cc:work> 
  </rdf:rdf> 
 </metadata> <defs id="defs8761"></defs> <g id="logo-group"> 
  <g id="title" style="font-style:normal;font-weight:200;font-size:72px;line-height:1;font-family:Phenomena;font-variant-ligatures:none;text-align:center;text-anchor:middle" aria-label="O7MASTER"> 
   <path id="path8765" style="font-style: normal; font-weight: 200; font-size: 72px; line-height: 1; font-family: Phenomena; font-variant-ligatures: none; text-align: center; text-anchor: middle; fill: rgb(59, 76, 84);" d="m 403.39194,120.504 c 7.056,0 11.592,-4.896 11.592,-13.248 v -24.84 c 0,-8.424 -4.536,-13.32 -11.592,-13.32 -7.056,0 -11.592,4.896 -11.592,13.32 v 24.84 c 0,8.352 4.536,13.248 11.592,13.248 z m 0,-1.368 c -6.192,0 -10.152,-4.32 -10.152,-11.88 v -24.84 c 0,-7.632 3.96,-11.952 10.152,-11.952 6.192,0 10.152,4.32 10.152,11.952 v 24.84 c 0,7.56 -3.96,11.88 -10.152,11.88 z" transform="translate(0 198.93466299438558) translate(252.00000000000017 129.7091871491554) scale(2.1536006013250466) translate(-391.79994 -69.096)"></path> 
   <path id="path8767" style="font-style: normal; font-weight: 200; font-size: 72px; line-height: 1; font-family: Phenomena; font-variant-ligatures: none; text-align: center; text-anchor: middle; fill: rgb(59, 76, 84);" d="m 421.55844,69.96 v 0.648 c 0,0.216 0.144,0.36 0.36,0.36 h 18 l -12.168,48.6 c -0.072,0.288 0.144,0.432 0.36,0.432 h 0.72 c 0.216,0 0.288,-0.072 0.36,-0.288 l 12.24,-48.816 c 0.072,-0.36 0.072,-0.576 0.072,-0.864 0,-0.288 -0.216,-0.432 -0.432,-0.432 h -19.152 c -0.216,0 -0.36,0.144 -0.36,0.36 z" transform="translate(0 198.93466299438558) translate(316.08792349453154 130.79460185222322) scale(2.1536006013250466) translate(-421.55844 -69.6)"></path> 
   <path id="path8769" style="font-style: normal; font-weight: 200; font-size: 72px; line-height: 1; font-family: Phenomena; font-variant-ligatures: none; text-align: center; text-anchor: middle; fill: rgb(59, 76, 84);" d="m 478.34169,69.096 c -4.392,0 -7.848,3.096 -9.288,7.344 -1.44,-4.248 -4.968,-7.344 -9.288,-7.344 -6.336,0 -10.152,5.184 -10.152,11.88 v 38.664 c 0,0.216 0.144,0.36 0.36,0.36 h 0.72 c 0.216,0 0.36,-0.144 0.36,-0.36 V 80.976 c 0,-6.048 3.24,-10.512 8.712,-10.512 5.04,0 8.568,4.68 8.568,10.512 v 38.664 c 0,0.216 0.144,0.36 0.36,0.36 h 0.72 c 0.216,0 0.36,-0.144 0.36,-0.36 V 80.976 c 0,-5.832 3.6,-10.512 8.568,-10.512 5.544,0 8.712,4.464 8.712,10.512 v 38.664 c 0,0.216 0.144,0.36 0.36,0.36 h 0.72 c 0.216,0 0.36,-0.144 0.36,-0.36 V 80.976 c 0,-6.696 -3.888,-11.88 -10.152,-11.88 z" transform="translate(0 198.93466299438558) translate(376.50772676485605 129.7091871491554) scale(2.1536006013250466) translate(-449.61369 -69.096)"></path> 
   <path id="path8771" style="font-style: normal; font-weight: 200; font-size: 72px; line-height: 1; font-family: Phenomena; font-variant-ligatures: none; text-align: center; text-anchor: middle; fill: rgb(59, 76, 84);" d="m 499.19244,120 h 0.72 c 0.216,0 0.36,-0.144 0.36,-0.36 v -19.584 h 19.368 v 19.584 c 0.072,0.216 0.216,0.36 0.432,0.36 h 0.72 c 0.216,0 0.36,-0.144 0.288,-0.36 V 81.696 c -0.072,-7.56 -4.536,-12.6 -11.16,-12.6 -6.624,0 -11.088,5.04 -11.088,12.6 v 37.944 c 0,0.216 0.144,0.36 0.36,0.36 z m 1.08,-21.312 V 81.696 c 0,-6.84 3.888,-11.232 9.648,-11.232 5.976,0 9.72,4.392 9.72,11.232 v 16.992 z" transform="translate(0 198.93466299438558) translate(482.5052563613232 129.7091871491554) scale(2.1536006013250466) translate(-498.83244 -69.096)"></path> 
   <path id="path8773" style="font-style: normal; font-weight: 200; font-size: 72px; line-height: 1; font-family: Phenomena; font-variant-ligatures: none; text-align: center; text-anchor: middle; fill: rgb(59, 76, 84);" d="m 541.03344,120.504 c 6.84,0 11.16,-4.968 11.16,-11.232 0,-14.76 -20.592,-16.056 -20.592,-28.944 0,-6.12 4.032,-9.864 9.432,-9.864 5.328,0 9.216,3.744 9.36,10.152 0,0.216 0.144,0.36 0.36,0.36 h 0.72 c 0.216,0 0.36,-0.144 0.36,-0.36 0,-7.056 -4.752,-11.52 -10.8,-11.52 -6.264,0 -10.872,4.464 -10.872,11.232 0,13.968 20.592,14.904 20.592,28.944 0,5.544 -3.6,9.864 -9.72,9.864 -5.976,0 -9.648,-4.32 -9.792,-10.152 0,-0.216 -0.144,-0.36 -0.36,-0.36 h -0.72 c -0.216,0 -0.36,0.144 -0.36,0.36 0,6.624 4.392,11.52 11.232,11.52 z" transform="translate(0 198.93466299438558) translate(549.2001133837583 129.7091871491554) scale(2.1536006013250466) translate(-529.80144 -69.096)"></path> 
   <path id="path8775" style="font-style: normal; font-weight: 200; font-size: 72px; line-height: 1; font-family: Phenomena; font-variant-ligatures: none; text-align: center; text-anchor: middle; fill: rgb(59, 76, 84);" d="m 579.06406,69.6 h -20.88 c -0.216,0 -0.36,0.144 -0.36,0.36 v 0.648 c 0,0.216 0.144,0.36 0.36,0.36 h 9.72 v 48.672 c 0,0.216 0.144,0.36 0.36,0.36 h 0.72 c 0.216,0 0.36,-0.144 0.36,-0.36 V 70.968 h 9.72 c 0.216,0 0.36,-0.144 0.36,-0.36 V 69.96 c 0,-0.216 -0.144,-0.36 -0.36,-0.36 z" transform="translate(0 198.93466299438558) translate(609.5496446664616 130.79460185222322) scale(2.1536006013250466) translate(-557.82406 -69.6)"></path> 
   <path id="path8777" style="font-style: normal; font-weight: 200; font-size: 72px; line-height: 1; font-family: Phenomena; font-variant-ligatures: none; text-align: center; text-anchor: middle; fill: rgb(59, 76, 84);" d="m 595.19431,120.144 h 6.48 c 0.216,0 0.36,-0.144 0.36,-0.36 v -0.648 c 0,-0.216 -0.144,-0.36 -0.36,-0.36 h -6.48 c -6.048,0 -9.72,-4.32 -9.72,-10.512 V 95.016 h 14.76 c 0.216,0 0.36,-0.144 0.36,-0.36 v -0.648 c 0,-0.216 -0.144,-0.36 -0.36,-0.36 h -14.76 V 81.336 c 0,-6.192 3.672,-10.512 9.72,-10.512 h 6.48 c 0.216,0 0.36,-0.144 0.36,-0.36 v -0.648 c 0,-0.216 -0.144,-0.36 -0.36,-0.36 h -6.48 c -6.912,0 -11.16,5.04 -11.16,11.88 v 26.928 c 0,6.84 4.248,11.88 11.16,11.88 z" transform="translate(0 198.93466299438558) translate(665.9960548273414 130.48448336563243) scale(2.1536006013250466) translate(-584.03431 -69.456)"></path> 
   <path id="path8779" style="font-style: normal; font-weight: 200; font-size: 72px; line-height: 1; font-family: Phenomena; font-variant-ligatures: none; text-align: center; text-anchor: middle; fill: rgb(59, 76, 84);" d="m 610.98931,120 h 0.72 c 0.216,0 0.36,-0.144 0.36,-0.36 V 97.968 h 9.288 l 10.368,21.744 c 0.072,0.144 0.288,0.288 0.432,0.288 h 0.792 c 0.216,0 0.36,-0.216 0.288,-0.432 l -10.368,-21.6 c 5.04,-0.288 9.648,-5.256 9.648,-11.88 v -5.112 c 0,-6.84 -4.608,-11.88 -10.944,-11.88 -6.408,0 -10.944,5.04 -10.944,11.88 v 38.664 c 0,0.216 0.144,0.36 0.36,0.36 z m 1.08,-23.4 V 80.976 c 0,-6.192 3.96,-10.512 9.504,-10.512 5.616,0 9.504,4.32 9.504,10.512 v 5.112 c 0,6.192 -3.888,10.512 -9.504,10.512 z" transform="translate(0 198.93466299438558) translate(723.2710628195811 129.7091871491554) scale(2.1536006013250466) translate(-610.62931 -69.096)"></path> 
  </g> 
  <g id="tagline" style="font-style:oblique;font-weight:300;font-size:32px;line-height:1;font-family:'Fira Sans Condensed';font-variant-ligatures:none;text-align:center;text-anchor:middle"></g> 
 </g> 
</svg>