<svg xmlns:dc="http://purl.org/dc/elements/1.1/" xmlns:cc="http://creativecommons.org/ns#" xmlns:rdf="http://www.w3.org/1999/02/22-rdf-syntax-ns#" xmlns:svg="http://www.w3.org/2000/svg" xmlns="http://www.w3.org/2000/svg" id="svg51817" viewbox="0 0 1024 768" height="768px" width="1024px" version="1.1"> <metadata id="metadata51823"> 
  <rdf:rdf> 
   <cc:work rdf:about=""> 
    <dc:format>
     image/svg+xml
    </dc:format> 
    <dc:type rdf:resource="http://purl.org/dc/dcmitype/StillImage"></dc:type> 
   </cc:work> 
  </rdf:rdf> 
 </metadata> <defs id="defs51821"></defs> <g id="logo-group"> 
  <g id="title" style="font-style:normal;font-weight:700;font-size:72px;line-height:1;font-family:'Comfortaa Bold Alt2';font-variant-ligatures:none;text-align:center;text-anchor:middle" aria-label="O7METHOD"> 
   <path id="path51825" style="font-style: normal; font-weight: 700; font-size: 72px; line-height: 1; font-family: &quot;Comfortaa Bold Alt2&quot;; font-variant-ligatures: none; text-align: center; text-anchor: middle; fill: rgb(0, 202, 233);" d="m 317.09825,120.864 c 3.888,0 7.632,-0.792 11.232,-2.304 3.456,-1.44 6.552,-3.528 9.216,-6.192 2.664,-2.664 4.752,-5.688 6.192,-9.216 1.512,-3.528 2.304,-7.272 2.304,-11.232 0,-3.96 -0.792,-7.704 -2.304,-11.304 -1.44,-3.456 -3.528,-6.48 -6.192,-9.144 -2.664,-2.664 -5.76,-4.752 -9.216,-6.192 -3.6,-1.512 -7.344,-2.304 -11.232,-2.304 -3.96,0 -7.704,0.792 -11.304,2.304 -3.456,1.44 -6.552,3.528 -9.216,6.192 -2.664,2.664 -4.752,5.688 -6.192,9.144 -1.512,3.6 -2.232,7.344 -2.232,11.304 0,3.96 0.72,7.704 2.232,11.232 1.44,3.528 3.528,6.552 6.192,9.216 2.664,2.664 5.76,4.752 9.216,6.192 3.6,1.512 7.344,2.304 11.304,2.304 z m 0,-50.688 c 5.976,0 11.088,2.088 15.336,6.336 4.248,4.248 6.408,9.432 6.408,15.408 0,5.976 -2.16,11.088 -6.408,15.336 -4.248,4.248 -9.36,6.408 -15.336,6.408 -6.048,0 -11.16,-2.16 -15.408,-6.408 -4.248,-4.176 -6.336,-9.36 -6.336,-15.336 0,-5.976 2.088,-11.16 6.336,-15.408 4.248,-4.248 9.36,-6.336 15.408,-6.336 z" transform="translate(0 282.076) translate(219.25695000000002 65.744) scale(1.25) translate(-288.15425 -62.976)"></path> 
   <path id="path51827" style="font-style: normal; font-weight: 700; font-size: 72px; line-height: 1; font-family: &quot;Comfortaa Bold Alt2&quot;; font-variant-ligatures: none; text-align: center; text-anchor: middle; fill: rgb(0, 202, 233);" d="m 350.081,70.104 c 0.72,0.72 1.584,1.008 2.664,1.008 h 21.888 l -20.664,42.912 c -0.432,0.864 -0.648,1.656 -0.648,2.304 0,1.008 0.36,1.872 1.08,2.592 0.72,0.72 1.512,1.08 2.52,1.08 0.648,0 1.296,-0.144 1.944,-0.504 0.576,-0.36 1.08,-0.864 1.44,-1.512 l 23.04,-48.6 c 0.288,-0.72 0.504,-1.368 0.504,-1.944 0,-1.008 -0.36,-1.872 -1.08,-2.592 -0.72,-0.72 -1.584,-1.08 -2.592,-1.08 h -27.432 c -1.08,0 -1.944,0.36 -2.664,1.08 -0.72,0.72 -1.008,1.584 -1.008,2.592 0,1.08 0.288,1.944 1.008,2.664 z" transform="translate(0 282.076) translate(299.1553875000001 66.73400000000001) scale(1.25) translate(-349.073 -63.768)"></path> 
   <path id="path51829" style="font-style: normal; font-weight: 700; font-size: 72px; line-height: 1; font-family: &quot;Comfortaa Bold Alt2&quot;; font-variant-ligatures: none; text-align: center; text-anchor: middle; fill: rgb(116, 95, 93);" d="m 448.424,64.848 c -0.72,-0.72 -1.656,-1.08 -2.664,-1.08 -1.44,0 -2.592,0.72 -3.312,2.016 l -20.808,42.84 -21.384,-42.84 c -0.792,-1.296 -1.872,-2.016 -3.312,-2.016 -1.08,0 -1.944,0.36 -2.664,1.08 -0.72,0.72 -1.08,1.656 -1.08,2.664 v 48.744 c 0,1.08 0.36,1.944 1.08,2.664 0.72,0.72 1.584,1.08 2.664,1.08 1.008,0 1.944,-0.36 2.664,-1.08 0.72,-0.72 1.08,-1.584 1.08,-2.664 V 81.12 l 17.208,34.488 c 0.72,1.512 1.872,2.232 3.456,2.232 1.296,0 2.376,-0.576 3.24,-1.872 l 17.424,-35.496 v 35.784 c 0,1.08 0.36,1.944 1.08,2.664 0.72,0.72 1.584,1.08 2.664,1.08 1.008,0 1.872,-0.36 2.592,-1.08 0.72,-0.72 1.152,-1.584 1.152,-2.664 V 67.512 c 0,-1.008 -0.36,-1.944 -1.08,-2.664 z" transform="translate(0 282.076) translate(358.06413750000013 66.73400000000001) scale(1.25) translate(-393.2 -63.768)"></path> 
   <path id="path51831" style="font-style: normal; font-weight: 700; font-size: 72px; line-height: 1; font-family: &quot;Comfortaa Bold Alt2&quot;; font-variant-ligatures: none; text-align: center; text-anchor: middle; fill: rgb(116, 95, 93);" d="m 502.88637,114.024 c -0.71999,-0.576 -1.584,-0.936 -2.664,-0.936 h -28.8 v -18 h 20.664 c 1.00801,0 1.872,-0.288 2.59201,-0.936 0.71999,-0.648 1.07999,-1.512 1.07999,-2.52 0,-1.008 -0.36,-1.8 -1.07999,-2.448 -0.72001,-0.648 -1.584,-1.008 -2.59201,-1.008 h -20.664 V 70.68 h 28.8 c 1.08,0 1.94401,-0.288 2.664,-0.936 0.648,-0.576 1.00801,-1.44 1.00801,-2.448 0,-1.008 -0.36001,-1.872 -1.00801,-2.52 -0.71999,-0.648 -1.584,-1.008 -2.664,-1.008 h -32.54399 c -1.08001,0 -1.94401,0.36 -2.66401,1.08 -0.72,0.72 -1.08,1.584 -1.08,2.664 v 48.744 c 0,1.08 0.36,1.944 1.08,2.664 0.72,0.72 1.584,1.08 2.66401,1.08 h 32.54399 c 1.08,0 1.94401,-0.288 2.664,-0.936 0.648,-0.648 1.00801,-1.512 1.00801,-2.592 0,-1.008 -0.36001,-1.8 -1.00801,-2.448 z" transform="translate(0 282.076) translate(450.2321000000001 66.73400000000001) scale(1.25) translate(-463.93437 -63.768)"></path> 
   <path id="path51833" style="font-style: normal; font-weight: 700; font-size: 72px; line-height: 1; font-family: &quot;Comfortaa Bold Alt2&quot;; font-variant-ligatures: none; text-align: center; text-anchor: middle; fill: rgb(116, 95, 93);" d="m 552.58213,64.776 c -0.64801,-0.648 -1.44001,-1.008 -2.448,-1.008 h -38.52001 c -1.00799,0 -1.872,0.36 -2.51999,1.008 -0.64801,0.648 -0.93601,1.44 -0.93601,2.448 0,1.008 0.288,1.872 0.93601,2.52 0.64799,0.648 1.512,0.936 2.51999,0.936 h 15.552 v 45.576 c 0,1.08 0.36,1.944 1.08,2.664 0.72001,0.72 1.584,1.08 2.664,1.08 1.00801,0 1.944,-0.36 2.664,-1.08 0.72,-0.72 1.08001,-1.584 1.08001,-2.664 V 70.68 h 15.48 c 1.00799,0 1.79999,-0.288 2.448,-0.936 0.648,-0.648 1.00799,-1.512 1.00799,-2.52 0,-1.008 -0.35999,-1.8 -1.00799,-2.448 z" transform="translate(0 282.076) translate(509.2617875000001 66.73400000000001) scale(1.25) translate(-508.15812 -63.768)"></path> 
   <path id="path51835" style="font-style: normal; font-weight: 700; font-size: 72px; line-height: 1; font-family: &quot;Comfortaa Bold Alt2&quot;; font-variant-ligatures: none; text-align: center; text-anchor: middle; fill: rgb(116, 95, 93);" d="m 603.78538,64.848 c -0.72,0.72 -1.08001,1.584 -1.08001,2.664 v 20.664 h -33.408 V 67.512 c 0,-1.08 -0.36,-1.944 -1.08,-2.664 -0.71999,-0.72 -1.584,-1.08 -2.664,-1.08 -1.07999,0 -1.944,0.36 -2.664,1.08 -0.72,0.72 -1.07999,1.584 -1.07999,2.664 v 48.744 c 0,1.08 0.35999,1.944 1.07999,2.664 0.72,0.72 1.58401,1.08 2.664,1.08 1.08,0 1.94401,-0.36 2.664,-1.08 0.72,-0.72 1.08,-1.584 1.08,-2.664 V 94.8 h 33.408 v 21.456 c 0,1.08 0.36001,1.944 1.08001,2.664 0.71999,0.72 1.58399,1.08 2.664,1.08 1.00799,0 1.87199,-0.288 2.592,-1.008 0.72,-0.72 1.07999,-1.584 1.07999,-2.736 V 67.512 c 0,-1.08 -0.35999,-1.944 -1.07999,-2.664 -0.72001,-0.72 -1.58401,-1.08 -2.592,-1.08 -1.08001,0 -1.94401,0.36 -2.664,1.08 z" transform="translate(0 282.076) translate(580.0758625000001 66.73400000000001) scale(1.25) translate(-561.80938 -63.768)"></path> 
   <path id="path51837" style="font-style: normal; font-weight: 700; font-size: 72px; line-height: 1; font-family: &quot;Comfortaa Bold Alt2&quot;; font-variant-ligatures: none; text-align: center; text-anchor: middle; fill: rgb(116, 95, 93);" d="m 650.52012,120.864 c 3.88801,0 7.632,-0.792 11.232,-2.304 3.456,-1.44 6.552,-3.528 9.216,-6.192 2.664,-2.664 4.75201,-5.688 6.192,-9.216 1.51201,-3.528 2.304,-7.272 2.304,-11.232 0,-3.96 -0.79199,-7.704 -2.304,-11.304 -1.43999,-3.456 -3.528,-6.48 -6.192,-9.144 -2.664,-2.664 -5.76,-4.752 -9.216,-6.192 -3.6,-1.512 -7.34399,-2.304 -11.232,-2.304 -3.96,0 -7.70399,0.792 -11.30399,2.304 -3.456,1.44 -6.552,3.528 -9.216,6.192 -2.664,2.664 -4.75201,5.688 -6.192,9.144 -1.51201,3.6 -2.232,7.344 -2.232,11.304 0,3.96 0.71999,7.704 2.232,11.232 1.43999,3.528 3.528,6.552 6.192,9.216 2.664,2.664 5.76,4.752 9.216,6.192 3.6,1.512 7.34399,2.304 11.30399,2.304 z m 0,-50.688 c 5.976,0 11.088,2.088 15.33601,6.336 4.24799,4.248 6.408,9.432 6.408,15.408 0,5.976 -2.16001,11.088 -6.408,15.336 -4.24801,4.248 -9.36001,6.408 -15.33601,6.408 -6.048,0 -11.15999,-2.16 -15.408,-6.408 -4.248,-4.176 -6.336,-9.36 -6.336,-15.336 0,-5.976 2.088,-11.16 6.336,-15.408 4.24801,-4.248 9.36,-6.336 15.408,-6.336 z" transform="translate(0 282.076) translate(658.5343 65.744) scale(1.25) translate(-621.57613 -62.976)"></path> 
   <path id="path51839" style="font-style: normal; font-weight: 700; font-size: 72px; line-height: 1; font-family: &quot;Comfortaa Bold Alt2&quot;; font-variant-ligatures: none; text-align: center; text-anchor: middle; fill: rgb(116, 95, 93);" d="m 722.15112,67.368 c -4.24799,-2.376 -9.072,-3.6 -14.472,-3.6 h -13.032 c -1.07999,0 -1.944,0.36 -2.664,1.08 -0.72,0.72 -1.07999,1.584 -1.07999,2.664 v 48.744 c 0,1.08 0.35999,1.944 1.07999,2.664 0.72,0.72 1.58401,1.08 2.664,1.08 h 13.032 c 5.4,0 10.22401,-1.152 14.472,-3.6 4.17601,-2.376 7.48801,-5.688 9.864,-10.008 2.304,-4.248 3.52801,-9.072 3.52801,-14.544 0,-5.4 -1.22401,-10.224 -3.52801,-14.472 -2.37599,-4.248 -5.68799,-7.56 -9.864,-10.008 z m -3.816,43.272 c -3.168,1.872 -6.69599,2.736 -10.656,2.736 h -9.288 V 70.392 h 9.288 c 3.96001,0 7.488,0.936 10.656,2.736 3.168,1.872 5.61601,4.392 7.344,7.632 1.728,3.312 2.664,6.984 2.664,11.088 0,4.176 -0.936,7.848 -2.664,11.16 -1.72799,3.312 -4.176,5.832 -7.344,7.632 z" transform="translate(0 282.076) translate(748.94305 66.73400000000001) scale(1.25) translate(-690.90313 -63.768)"></path> 
  </g> 
  <g id="tagline" style="font-style:normal;font-weight:500;font-size:32px;line-height:1;font-family:Raleway;font-variant-ligatures:none;text-align:center;text-anchor:middle"></g> 
 </g> 
</svg>