<svg xmlns:dc="http://purl.org/dc/elements/1.1/" xmlns:cc="http://creativecommons.org/ns#" xmlns:rdf="http://www.w3.org/1999/02/22-rdf-syntax-ns#" xmlns:svg="http://www.w3.org/2000/svg" xmlns="http://www.w3.org/2000/svg" id="svg481308" viewbox="0 0 1024 768" height="768px" width="1024px" version="1.1"> <metadata id="metadata481314"> 
  <rdf:rdf> 
   <cc:work rdf:about=""> 
    <dc:format>
     image/svg+xml
    </dc:format> 
    <dc:type rdf:resource="http://purl.org/dc/dcmitype/StillImage"></dc:type> 
   </cc:work> 
  </rdf:rdf> 
 </metadata> <defs id="defs481312"></defs> <g id="logo-group"> 
  <g id="title" style="font-style:normal;font-weight:700;font-size:72px;line-height:1;font-family:'Comfortaa Bold Alt2';font-variant-ligatures:none;text-align:center;text-anchor:middle" aria-label="O7MONITOR"> 
   <path id="path481316" style="font-style: normal; font-weight: 700; font-size: 72px; line-height: 1; font-family: &quot;Comfortaa Bold Alt2&quot;; font-variant-ligatures: none; text-align: center; text-anchor: middle; fill: rgb(199, 17, 64);" d="m 306.83262,120.864 c 3.888,0 7.632,-0.792 11.232,-2.304 3.456,-1.44 6.552,-3.528 9.216,-6.192 2.664,-2.664 4.752,-5.688 6.192,-9.216 1.512,-3.528 2.304,-7.272 2.304,-11.232 0,-3.96 -0.792,-7.704 -2.304,-11.304 -1.44,-3.456 -3.528,-6.48 -6.192,-9.144 -2.664,-2.664 -5.76,-4.752 -9.216,-6.192 -3.6,-1.512 -7.344,-2.304 -11.232,-2.304 -3.95999,0 -7.704,0.792 -11.304,2.304 -3.45599,1.44 -6.55199,3.528 -9.21599,6.192 -2.66401,2.664 -4.752,5.688 -6.192,9.144 -1.512,3.6 -2.23201,7.344 -2.23201,11.304 0,3.96 0.72001,7.704 2.23201,11.232 1.44,3.528 3.52799,6.552 6.192,9.216 2.664,2.664 5.76,4.752 9.21599,6.192 3.6,1.512 7.34401,2.304 11.304,2.304 z m 0,-50.688 c 5.976,0 11.088,2.088 15.33601,6.336 4.24799,4.248 6.40799,9.432 6.40799,15.408 0,5.976 -2.16,11.088 -6.40799,15.336 -4.24801,4.248 -9.36001,6.408 -15.33601,6.408 -6.048,0 -11.16,-2.16 -15.408,-6.408 -4.248,-4.176 -6.336,-9.36 -6.336,-15.336 0,-5.976 2.088,-11.16 6.336,-15.408 4.248,-4.248 9.36,-6.336 15.408,-6.336 z" transform="translate(0 294.8426666666667) translate(183.49322888888884 56.99733333333333) scale(1.1111111111111112) translate(-277.88862 -62.976)"></path> 
   <path id="path481318" style="font-style: normal; font-weight: 700; font-size: 72px; line-height: 1; font-family: &quot;Comfortaa Bold Alt2&quot;; font-variant-ligatures: none; text-align: center; text-anchor: middle; fill: rgb(199, 17, 64);" d="m 339.81538,70.104 c 0.71999,0.72 1.584,1.008 2.66399,1.008 h 21.888 l -20.664,42.912 c -0.432,0.864 -0.64799,1.656 -0.64799,2.304 0,1.008 0.35999,1.872 1.07999,2.592 0.72,0.72 1.512,1.08 2.52,1.08 0.64801,0 1.296,-0.144 1.944,-0.504 0.576,-0.36 1.08,-0.864 1.44,-1.512 l 23.04001,-48.6 c 0.28799,-0.72 0.50399,-1.368 0.50399,-1.944 0,-1.008 -0.35999,-1.872 -1.08,-2.592 -0.72,-0.72 -1.584,-1.08 -2.59199,-1.08 h -27.43201 c -1.07999,0 -1.944,0.36 -2.66399,1.08 -0.72001,0.72 -1.00801,1.584 -1.00801,2.592 0,1.08 0.288,1.944 1.00801,2.664 z" transform="translate(0 294.8426666666667) translate(267.8473955555555 57.87733333333334) scale(1.1111111111111112) translate(-338.80737 -63.768)"></path> 
   <path id="path481320" style="font-style: normal; font-weight: 700; font-size: 72px; line-height: 1; font-family: &quot;Comfortaa Bold Alt2&quot;; font-variant-ligatures: none; text-align: center; text-anchor: middle; fill: rgb(145, 70, 59);" d="m 438.15837,64.848 c -0.72,-0.72 -1.65599,-1.08 -2.664,-1.08 -1.44,0 -2.592,0.72 -3.312,2.016 l -20.808,42.84 -21.384,-42.84 c -0.792,-1.296 -1.87199,-2.016 -3.31199,-2.016 -1.08001,0 -1.94401,0.36 -2.66401,1.08 -0.72,0.72 -1.08,1.656 -1.08,2.664 v 48.744 c 0,1.08 0.36,1.944 1.08,2.664 0.72,0.72 1.584,1.08 2.66401,1.08 1.00799,0 1.94399,-0.36 2.66399,-1.08 0.72,-0.72 1.08,-1.584 1.08,-2.664 V 81.12 l 17.20801,34.488 c 0.71999,1.512 1.872,2.232 3.45599,2.232 1.29601,0 2.376,-0.576 3.24,-1.872 l 17.42401,-35.496 v 35.784 c 0,1.08 0.35999,1.944 1.07999,2.664 0.72001,0.72 1.584,1.08 2.664,1.08 1.00801,0 1.872,-0.36 2.592,-1.08 0.72,-0.72 1.15201,-1.584 1.15201,-2.664 V 67.512 c 0,-1.008 -0.36001,-1.944 -1.08001,-2.664 z" transform="translate(0 294.8426666666667) translate(333.5440622222222 57.87733333333334) scale(1.1111111111111112) translate(-382.93437 -63.768)"></path> 
   <path id="path481322" style="font-style: normal; font-weight: 700; font-size: 72px; line-height: 1; font-family: &quot;Comfortaa Bold Alt2&quot;; font-variant-ligatures: none; text-align: center; text-anchor: middle; fill: rgb(145, 70, 59);" d="m 479.66075,120.864 c 3.888,0 7.632,-0.792 11.232,-2.304 3.456,-1.44 6.552,-3.528 9.216,-6.192 2.664,-2.664 4.752,-5.688 6.192,-9.216 1.512,-3.528 2.304,-7.272 2.304,-11.232 0,-3.96 -0.792,-7.704 -2.304,-11.304 -1.44,-3.456 -3.528,-6.48 -6.192,-9.144 -2.664,-2.664 -5.76,-4.752 -9.216,-6.192 -3.6,-1.512 -7.344,-2.304 -11.232,-2.304 -3.96,0 -7.704,0.792 -11.304,2.304 -3.456,1.44 -6.552,3.528 -9.216,6.192 -2.664,2.664 -4.752,5.688 -6.192,9.144 -1.512,3.6 -2.232,7.344 -2.232,11.304 0,3.96 0.72,7.704 2.232,11.232 1.44,3.528 3.528,6.552 6.192,9.216 2.664,2.664 5.76,4.752 9.216,6.192 3.6,1.512 7.344,2.304 11.304,2.304 z m 0,-50.688 c 5.976,0 11.088,2.088 15.336,6.336 4.248,4.248 6.408,9.432 6.408,15.408 0,5.976 -2.16,11.088 -6.408,15.336 -4.248,4.248 -9.36,6.408 -15.336,6.408 -6.048,0 -11.16,-2.16 -15.408,-6.408 -4.248,-4.176 -6.336,-9.36 -6.336,-15.336 0,-5.976 2.088,-11.16 6.336,-15.408 4.248,-4.248 9.36,-6.336 15.408,-6.336 z" transform="translate(0 294.8426666666667) translate(425.5244844444444 56.99733333333333) scale(1.1111111111111112) translate(-450.71675 -62.976)"></path> 
   <path id="path481324" style="font-style: normal; font-weight: 700; font-size: 72px; line-height: 1; font-family: &quot;Comfortaa Bold Alt2&quot;; font-variant-ligatures: none; text-align: center; text-anchor: middle; fill: rgb(145, 70, 59);" d="m 559.06775,64.848 c -0.72,0.72 -1.08,1.584 -1.08,2.664 v 39.384 l -31.392,-41.76 c -0.36,-0.36 -0.792,-0.648 -1.296,-0.936 -0.576,-0.288 -1.08,-0.432 -1.584,-0.432 -1.08,0 -1.944,0.36 -2.664,1.08 -0.72,0.72 -1.008,1.584 -1.008,2.664 v 48.744 c 0,1.152 0.288,2.016 1.008,2.736 0.72,0.72 1.584,1.008 2.664,1.008 1.08,0 1.944,-0.36 2.664,-1.08 0.72,-0.72 1.08,-1.584 1.08,-2.664 V 76.944 l 31.392,41.76 c 0.288,0.432 0.648,0.792 1.224,1.008 0.576,0.216 1.08,0.288 1.656,0.288 1.008,0 1.872,-0.288 2.592,-1.008 0.72,-0.72 1.08,-1.584 1.08,-2.736 V 67.512 c 0,-1.08 -0.36,-1.944 -1.08,-2.664 -0.72,-0.72 -1.584,-1.08 -2.592,-1.08 -1.08,0 -1.944,0.36 -2.664,1.08 z" transform="translate(0 294.8426666666667) translate(519.2211511111111 57.87733333333334) scale(1.1111111111111112) translate(-520.04375 -63.768)"></path> 
   <path id="path481326" style="font-style: normal; font-weight: 700; font-size: 72px; line-height: 1; font-family: &quot;Comfortaa Bold Alt2&quot;; font-variant-ligatures: none; text-align: center; text-anchor: middle; fill: rgb(145, 70, 59);" d="m 580.88937,64.848 c -0.72,0.72 -1.07999,1.584 -1.07999,2.664 v 48.744 c 0,1.08 0.35999,1.944 1.07999,2.664 0.72,0.72 1.58401,1.08 2.664,1.08 1.08,0 1.94401,-0.36 2.664,-1.08 0.72,-0.72 1.08,-1.584 1.08,-2.664 V 67.512 c 0,-1.08 -0.36,-1.944 -1.08,-2.664 -0.71999,-0.72 -1.584,-1.08 -2.664,-1.08 -1.07999,0 -1.944,0.36 -2.664,1.08 z" transform="translate(0 294.8426666666667) translate(602.2940733333332 57.87733333333334) scale(1.1111111111111112) translate(-579.80938 -63.768)"></path> 
   <path id="path481328" style="font-style: normal; font-weight: 700; font-size: 72px; line-height: 1; font-family: &quot;Comfortaa Bold Alt2&quot;; font-variant-ligatures: none; text-align: center; text-anchor: middle; fill: rgb(145, 70, 59);" d="m 640.05088,64.776 c -0.64801,-0.648 -1.44001,-1.008 -2.448,-1.008 h -38.52001 c -1.00799,0 -1.872,0.36 -2.52,1.008 -0.64799,0.648 -0.93599,1.44 -0.93599,2.448 0,1.008 0.288,1.872 0.93599,2.52 0.648,0.648 1.51201,0.936 2.52,0.936 h 15.552 v 45.576 c 0,1.08 0.36,1.944 1.08,2.664 0.72001,0.72 1.584,1.08 2.664,1.08 1.00801,0 1.944,-0.36 2.664,-1.08 0.72,-0.72 1.08001,-1.584 1.08001,-2.664 V 70.68 h 15.48 c 1.00799,0 1.79999,-0.288 2.448,-0.936 0.648,-0.648 1.00799,-1.512 1.00799,-2.52 0,-1.008 -0.35999,-1.8 -1.00799,-2.448 z" transform="translate(0 294.8426666666667) translate(636.53574 57.87733333333334) scale(1.1111111111111112) translate(-595.62688 -63.768)"></path> 
   <path id="path481330" style="font-style: normal; font-weight: 700; font-size: 72px; line-height: 1; font-family: &quot;Comfortaa Bold Alt2&quot;; font-variant-ligatures: none; text-align: center; text-anchor: middle; fill: rgb(145, 70, 59);" d="m 671.61387,120.864 c 3.88801,0 7.632,-0.792 11.232,-2.304 3.456,-1.44 6.552,-3.528 9.216,-6.192 2.664,-2.664 4.75201,-5.688 6.192,-9.216 1.51201,-3.528 2.304,-7.272 2.304,-11.232 0,-3.96 -0.79199,-7.704 -2.304,-11.304 -1.43999,-3.456 -3.528,-6.48 -6.192,-9.144 -2.664,-2.664 -5.76,-4.752 -9.216,-6.192 -3.6,-1.512 -7.34399,-2.304 -11.232,-2.304 -3.96,0 -7.70399,0.792 -11.30399,2.304 -3.456,1.44 -6.552,3.528 -9.216,6.192 -2.664,2.664 -4.75201,5.688 -6.192,9.144 -1.51201,3.6 -2.232,7.344 -2.232,11.304 0,3.96 0.71999,7.704 2.232,11.232 1.43999,3.528 3.528,6.552 6.192,9.216 2.664,2.664 5.76,4.752 9.216,6.192 3.6,1.512 7.34399,2.304 11.30399,2.304 z m 0,-50.688 c 5.976,0 11.088,2.088 15.33601,6.336 4.24799,4.248 6.408,9.432 6.408,15.408 0,5.976 -2.16001,11.088 -6.408,15.336 -4.24801,4.248 -9.36001,6.408 -15.33601,6.408 -6.048,0 -11.15999,-2.16 -15.408,-6.408 -4.248,-4.176 -6.336,-9.36 -6.336,-15.336 0,-5.976 2.088,-11.16 6.336,-15.408 4.24801,-4.248 9.36,-6.336 15.408,-6.336 z" transform="translate(0 294.8426666666667) translate(705.4724066666666 56.99733333333333) scale(1.1111111111111112) translate(-642.66988 -62.976)"></path> 
   <path id="path481332" style="font-style: normal; font-weight: 700; font-size: 72px; line-height: 1; font-family: &quot;Comfortaa Bold Alt2&quot;; font-variant-ligatures: none; text-align: center; text-anchor: middle; fill: rgb(145, 70, 59);" d="m 745.62087,120.144 c 0.72,0 1.368,-0.216 2.01601,-0.648 0.79199,-0.576 1.29599,-1.368 1.51199,-2.376 0.144,-0.936 0,-1.872 -0.576,-2.664 l -11.88,-17.136 c 2.52001,-1.08 4.60801,-2.664 6.408,-4.752 2.808,-3.24 4.17601,-7.056 4.17601,-11.304 0,-4.824 -1.72801,-8.928 -5.112,-12.384 -3.456,-3.384 -7.56001,-5.112 -12.384,-5.112 h -14.04001 c -1.00799,0 -1.8,0.36 -2.52,1.08 -0.72,0.72 -1.07999,1.512 -1.07999,2.52 v 49.104 c 0,1.008 0.35999,1.872 1.07999,2.52 0.72,0.72 1.51201,1.08 2.52,1.08 1.008,0 1.87201,-0.36 2.52001,-1.08 0.71999,-0.648 1.07999,-1.512 1.07999,-2.52 V 70.968 h 10.44001 c 2.808,0 5.25599,1.008 7.27199,3.024 2.01601,2.016 3.024,4.392 3.024,7.272 0,2.52 -0.86399,4.752 -2.448,6.624 -1.58399,1.872 -3.6,3.024 -5.976,3.456 l -1.296,0.144 c -1.368,0.144 -2.376,0.864 -2.88,2.088 -0.64799,1.224 -0.50399,2.448 0.288,3.528 l 14.904,21.456 c 0.648,1.008 1.65601,1.584 2.952,1.584 z" transform="translate(0 294.8426666666667) translate(799.3290733333333 57.87733333333334) scale(1.1111111111111112) translate(-712.14088 -63.768)"></path> 
  </g> 
  <g id="tagline" style="font-style:normal;font-weight:500;font-size:32px;line-height:1;font-family:Raleway;font-variant-ligatures:none;text-align:center;text-anchor:middle"></g> 
 </g> 
</svg>