<svg xmlns:dc="http://purl.org/dc/elements/1.1/" xmlns:cc="http://creativecommons.org/ns#" xmlns:rdf="http://www.w3.org/1999/02/22-rdf-syntax-ns#" xmlns:svg="http://www.w3.org/2000/svg" xmlns="http://www.w3.org/2000/svg" id="svg385924" viewbox="0 0 1024 768" height="768px" width="1024px" version="1.1"> <metadata id="metadata385930"> 
  <rdf:rdf> 
   <cc:work rdf:about=""> 
    <dc:format>
     image/svg+xml
    </dc:format> 
    <dc:type rdf:resource="http://purl.org/dc/dcmitype/StillImage"></dc:type> 
   </cc:work> 
  </rdf:rdf> 
 </metadata> <defs id="defs385928"></defs> <g id="logo-group"> 
  <g id="title" style="font-style:normal;font-weight:300;font-size:72px;line-height:1;font-family:'Uni Neue';font-variant-ligatures:none;text-align:center;text-anchor:middle" aria-label="o7National"> 
   <path id="path385932" style="font-style: normal; font-weight: 300; font-size: 72px; line-height: 1; font-family: &quot;Uni Neue&quot;; font-variant-ligatures: none; text-align: center; text-anchor: middle; fill: rgb(229, 218, 212);" d="M 381.73737,107.184 V 95.808 c 0,-7.56 -5.18399,-13.536 -14.976,-13.536 -9.71999,0 -14.976,5.976 -14.976,13.536 v 11.376 c 0,7.632 5.25601,13.536 14.976,13.536 9.79201,0 14.976,-5.904 14.976,-13.536 z m -27.64799,0 V 95.808 c 0,-6.336 4.24799,-11.376 12.67199,-11.376 8.49601,0 12.672,5.04 12.672,11.376 v 11.376 c 0,6.408 -4.17599,11.448 -12.672,11.448 -8.424,0 -12.67199,-5.04 -12.67199,-11.448 z" transform="translate(0 250.75770466900144) translate(252.00000000000006 113.4371714380883) scale(1.6039134995878097) translate(-351.78537 -82.272)"></path> 
   <path id="path385934" style="font-style: normal; font-weight: 300; font-size: 72px; line-height: 1; font-family: &quot;Uni Neue&quot;; font-variant-ligatures: none; text-align: center; text-anchor: middle; fill: rgb(229, 218, 212);" d="m 395.79537,120 c 0.216,0 0.504,-0.144 0.576,-0.36 l 23.832,-49.392 c 0.144,-0.144 0.144,-0.36 0.144,-0.504 v -0.792 c 0,-0.288 -0.216,-0.432 -0.504,-0.432 h -31.68 c -0.28799,0 -0.504,0.144 -0.504,0.432 v 1.368 c 0,0.216 0.21601,0.432 0.504,0.432 h 29.304 l -23.61599,48.672 c -0.144,0.36 0.072,0.576 0.35999,0.576 z" transform="translate(0 250.75770466900144) translate(309.5387928842132 91.38015299175673) scale(1.6039134995878097) translate(-387.65937 -68.52)"></path> 
   <path id="path385936" style="font-style: normal; font-weight: 300; font-size: 72px; line-height: 1; font-family: &quot;Uni Neue&quot;; font-variant-ligatures: none; text-align: center; text-anchor: middle; fill: rgb(105, 204, 223);" d="m 430.85937,120 c 0.216,0 0.43201,-0.144 0.43201,-0.432 l -0.072,-47.16 31.17599,47.304 c 0.072,0.216 0.36001,0.288 0.57601,0.288 h 1.72799 c 0.288,0 0.504,-0.144 0.504,-0.432 V 68.952 c 0,-0.288 -0.216,-0.432 -0.504,-0.432 h -1.44 c -0.28799,0 -0.50399,0.144 -0.50399,0.432 l 0.072,47.304 -31.176,-47.448 c -0.072,-0.216 -0.36,-0.288 -0.50401,-0.288 h -1.8 c -0.288,0 -0.504,0.144 -0.504,0.432 v 50.616 c 0,0.288 0.216,0.432 0.504,0.432 z" transform="translate(0 250.75770466900144) translate(375.59436645123753 91.38015299175673) scale(1.6039134995878097) translate(-428.84337 -68.52)"></path> 
   <path id="path385938" style="font-style: normal; font-weight: 300; font-size: 72px; line-height: 1; font-family: &quot;Uni Neue&quot;; font-variant-ligatures: none; text-align: center; text-anchor: middle; fill: rgb(105, 204, 223);" d="m 476.95512,85.944 c -0.144,0.144 -0.072,0.36 0,0.576 l 0.648,1.008 c 0.144,0.144 0.36,0.216 0.648,0.072 2.736,-1.728 6.984,-3.168 11.52,-3.168 7.992,0 11.088,4.32 11.088,11.16 v 3.744 c -2.88,-0.648 -6.84,-1.368 -11.088,-1.368 -9.288,0 -14.76,4.032 -14.76,11.232 0,7.272 6.336,11.52 14.76,11.52 5.32801,0 10.00801,-1.224 13.03201,-2.52 0.28799,-0.072 0.35999,-0.36 0.35999,-0.504 V 95.52 c 0,-8.064 -4.248,-13.248 -13.32,-13.248 -5.18399,0 -9.79199,1.512 -12.888,3.672 z m 0.36001,23.256 c 0,-5.832 4.32,-9.144 12.45599,-9.144 4.10401,0 8.28001,0.648 11.088,1.296 v 15.264 c -2.66399,1.008 -6.408,2.016 -11.088,2.016 -7.272,0 -12.45599,-3.672 -12.45599,-9.432 z" transform="translate(0 250.75770466900144) translate(449.6434439218326 113.4371714380883) scale(1.6039134995878097) translate(-475.01112 -82.272)"></path> 
   <path id="path385940" style="font-style: normal; font-weight: 300; font-size: 72px; line-height: 1; font-family: &quot;Uni Neue&quot;; font-variant-ligatures: none; text-align: center; text-anchor: middle; fill: rgb(105, 204, 223);" d="M 515.76312,108.84 V 85.224 h 12.168 c 0.216,0 0.432,-0.216 0.432,-0.504 v -1.224 c 0,-0.216 -0.216,-0.432 -0.432,-0.432 h -12.168 v -8.928 c -0.072,-0.288 -0.21599,-0.432 -0.50399,-0.432 h -1.36801 c -0.288,0 -0.432,0.144 -0.432,0.432 v 34.776 c 0,7.416 4.17601,11.664 11.08801,11.664 1.00799,0 2.952,-0.072 4.31999,-0.216 0.288,-0.072 0.432,-0.216 0.432,-0.504 v -1.224 c 0,-0.288 -0.144,-0.432 -0.432,-0.432 -1.43999,0.144 -3.24,0.216 -4.31999,0.216 -5.76001,0 -8.78401,-3.528 -8.78401,-9.576 z" transform="translate(0 250.75770466900144) translate(511.3107101539847 99.69484057361991) scale(1.6039134995878097) translate(-513.45912 -73.704)"></path> 
   <path id="path385942" style="font-style: normal; font-weight: 300; font-size: 72px; line-height: 1; font-family: &quot;Uni Neue&quot;; font-variant-ligatures: none; text-align: center; text-anchor: middle; fill: rgb(105, 204, 223);" d="m 537.416,120 c 0.288,0 0.432,-0.144 0.432,-0.432 V 83.496 c 0,-0.288 -0.144,-0.504 -0.432,-0.504 h -1.44 c -0.288,0 -0.432,0.216 -0.432,0.504 v 36.072 c 0,0.288 0.144,0.432 0.432,0.432 z m 1.152,-46.944 c 0,-1.152 -0.792,-1.872 -1.872,-1.872 -1.08,0 -1.872,0.72 -1.872,1.872 0,1.08 0.792,1.8 1.872,1.8 1.08,0 1.872,-0.72 1.872,-1.8 z" transform="translate(0 250.75770466900144) translate(545.5781296030582 95.65297855465865) scale(1.6039134995878097) translate(-534.824 -71.184)"></path> 
   <path id="path385944" style="font-style: normal; font-weight: 300; font-size: 72px; line-height: 1; font-family: &quot;Uni Neue&quot;; font-variant-ligatures: none; text-align: center; text-anchor: middle; fill: rgb(105, 204, 223);" d="M 577.48738,107.184 V 95.808 c 0,-7.56 -5.18401,-13.536 -14.976,-13.536 -9.72,0 -14.976,5.976 -14.976,13.536 v 11.376 c 0,7.632 5.256,13.536 14.976,13.536 9.79199,0 14.976,-5.904 14.976,-13.536 z m -27.648,0 V 95.808 c 0,-6.336 4.24799,-11.376 12.672,-11.376 8.496,0 12.67199,5.04 12.67199,11.376 v 11.376 c 0,6.408 -4.17599,11.448 -12.67199,11.448 -8.42401,0 -12.672,-5.04 -12.672,-11.448 z" transform="translate(0 250.75770466900144) translate(565.9660835834487 113.4371714380883) scale(1.6039134995878097) translate(-547.53538 -82.272)"></path> 
   <path id="path385946" style="font-style: normal; font-weight: 300; font-size: 72px; line-height: 1; font-family: &quot;Uni Neue&quot;; font-variant-ligatures: none; text-align: center; text-anchor: middle; fill: rgb(105, 204, 223);" d="m 588.95338,120 c 0.28799,0 0.43199,-0.144 0.43199,-0.432 V 86.52 c 3.168,-1.224 7.2,-2.088 11.16001,-2.088 8.27999,0 12.95999,4.104 12.95999,12.456 v 22.68 c 0,0.288 0.216,0.432 0.504,0.432 h 1.36801 c 0.288,0 0.432,-0.144 0.432,-0.432 V 96.816 c 0,-9.72 -5.68801,-14.544 -15.264,-14.544 -4.68001,0 -9.216,1.008 -13.10401,2.736 -0.216,0.144 -0.36,0.36 -0.36,0.576 v 33.984 c 0,0.288 0.216,0.432 0.432,0.432 z" transform="translate(0 250.75770466900144) translate(629.3944307990132 113.4371714380883) scale(1.6039134995878097) translate(-587.08137 -82.272)"></path> 
   <path id="path385948" style="font-style: normal; font-weight: 300; font-size: 72px; line-height: 1; font-family: &quot;Uni Neue&quot;; font-variant-ligatures: none; text-align: center; text-anchor: middle; fill: rgb(105, 204, 223);" d="m 625.73637,85.944 c -0.144,0.144 -0.072,0.36 0,0.576 l 0.648,1.008 c 0.144,0.144 0.36,0.216 0.648,0.072 2.736,-1.728 6.98401,-3.168 11.52,-3.168 7.992,0 11.088,4.32 11.088,11.16 v 3.744 c -2.88,-0.648 -6.83999,-1.368 -11.088,-1.368 -9.288,0 -14.76,4.032 -14.76,11.232 0,7.272 6.336,11.52 14.76,11.52 5.328,0 10.00801,-1.224 13.03201,-2.52 0.288,-0.072 0.36,-0.36 0.36,-0.504 V 95.52 c 0,-8.064 -4.24801,-13.248 -13.32001,-13.248 -5.18399,0 -9.792,1.512 -12.888,3.672 z m 0.36,23.256 c 0,-5.832 4.32001,-9.144 12.456,-9.144 4.10401,0 8.28,0.648 11.088,1.296 v 15.264 c -2.664,1.008 -6.40799,2.016 -11.088,2.016 -7.27199,0 -12.456,-3.672 -12.456,-9.432 z" transform="translate(0 250.75770466900144) translate(688.2756992823812 113.4371714380883) scale(1.6039134995878097) translate(-623.79237 -82.272)"></path> 
   <path id="path385950" style="font-style: normal; font-weight: 300; font-size: 72px; line-height: 1; font-family: &quot;Uni Neue&quot;; font-variant-ligatures: none; text-align: center; text-anchor: middle; fill: rgb(105, 204, 223);" d="m 675.56038,120.432 c 0.288,-0.072 0.432,-0.288 0.432,-0.576 v -1.224 c 0,-0.288 -0.144,-0.36 -0.432,-0.36 -1.44001,0.216 -3.096,0.288 -4.10401,0.288 -4.24799,0 -6.912,-2.664 -6.912,-9.504 V 68.952 c 0,-0.288 -0.14399,-0.432 -0.43199,-0.432 h -1.44001 c -0.288,0 -0.432,0.144 -0.432,0.432 v 39.888 c 0,8.424 3.6,11.88 9.144,11.88 1.15201,0 2.952,-0.144 4.17601,-0.288 z" transform="translate(0 250.75770466900144) translate(749.9429655145333 91.38015299175673) scale(1.6039134995878097) translate(-662.24037 -68.52)"></path> 
  </g> 
  <g id="tagline" style="font-style:oblique;font-weight:400;font-size:32px;line-height:1;font-family:Lato;font-variant-ligatures:none;text-align:center;text-anchor:middle"></g> 
 </g> 
</svg>