<svg xmlns:dc="http://purl.org/dc/elements/1.1/" xmlns:cc="http://creativecommons.org/ns#" xmlns:rdf="http://www.w3.org/1999/02/22-rdf-syntax-ns#" xmlns:svg="http://www.w3.org/2000/svg" xmlns="http://www.w3.org/2000/svg" id="svg257906" viewbox="0 0 1024 768" height="768px" width="1024px" version="1.1"> <metadata id="metadata257912"> 
  <rdf:rdf> 
   <cc:work rdf:about=""> 
    <dc:format>
     image/svg+xml
    </dc:format> 
    <dc:type rdf:resource="http://purl.org/dc/dcmitype/StillImage"></dc:type> 
   </cc:work> 
  </rdf:rdf> 
 </metadata> <defs id="defs257910"></defs> <g id="logo-group"> 
  <g id="title" style="font-style:oblique;font-weight:700;font-size:72px;line-height:1;font-family:Averta;font-variant-ligatures:none;text-align:center;text-anchor:middle" aria-label="O7Nearuniversal"> 
   <path id="path257914" style="font-style: oblique; font-weight: 700; font-size: 72px; line-height: 1; font-family: Averta; font-variant-ligatures: none; text-align: center; text-anchor: middle; fill: rgb(255, 255, 255);" d="m 278.99394,120.648 c 17.208,0 27.144,-14.04 27.144,-30.888 0,-13.608 -8.424,-21.528 -20.88,-21.528 -16.488,0 -27.072,14.472 -27.072,30.744 0,13.752 8.28,21.672 20.808,21.672 z m 0.864,-10.8 c -5.544,0 -9.648,-3.672 -9.648,-11.592 0,-9.936 5.904,-19.296 13.968,-19.296 5.76,0 9.936,3.528 9.936,11.448 0,10.728 -5.832,19.44 -14.256,19.44 z" transform="translate(0 305.3598298566204) translate(252.00000000000006 52.3613233973541) scale(1.0166684751634731) translate(-258.18594 -68.232)"></path> 
   <path id="path257916" style="font-style: oblique; font-weight: 700; font-size: 72px; line-height: 1; font-family: Averta; font-variant-ligatures: none; text-align: center; text-anchor: middle; fill: rgb(255, 255, 255);" d="m 340.01506,70.536 h -27.864 l -1.224,10.08 h 15.48 l -17.568,38.52 11.088,2.016 19.224,-43.344 z" transform="translate(0 305.3598298566204) translate(303.4974302726725 54.703727564130745) scale(1.0166684751634731) translate(-308.83906 -70.536)"></path> 
   <path id="path257918" style="font-style: oblique; font-weight: 700; font-size: 72px; line-height: 1; font-family: Averta; font-variant-ligatures: none; text-align: center; text-anchor: middle; fill: rgb(27, 28, 33);" d="m 347.25781,68.88 -6.264,51.12 h 11.16 l 3.888,-30.888 h 0.216 l 13.176,30.888 h 11.16 l 6.336,-51.12 h -11.232 l -3.888,31.608 -0.216,0.072 -13.536,-31.68 z" transform="translate(0 305.3598298566204) translate(336.18815092443515 53.020124569260034) scale(1.0166684751634731) translate(-340.99381 -68.88)"></path> 
   <path id="path257920" style="font-style: oblique; font-weight: 700; font-size: 72px; line-height: 1; font-family: Averta; font-variant-ligatures: none; text-align: center; text-anchor: middle; fill: rgb(27, 28, 33);" d="m 420.95319,93.864 c 0.072,-6.624 -6.336,-9.72 -12.024,-9.72 -11.88,0 -19.296,9.792 -19.296,21.744 -0.072,9.144 5.832,14.76 14.688,14.76 6.912,0 11.592,-2.592 15.336,-7.704 l -8.064,-4.752 c -1.944,2.592 -4.032,3.528 -6.408,3.528 -2.088,0 -4.392,-1.296 -5.04,-4.464 10.368,-1.08 20.664,-4.464 20.808,-13.392 z m -10.368,1.512 c -0.072,3.456 -4.824,4.824 -10.08,5.4 1.224,-4.896 4.392,-7.632 7.488,-7.632 1.656,0 2.664,0.792 2.592,2.232 z" transform="translate(0 305.3598298566204) translate(385.63761438742307 68.5385521741553) scale(1.0166684751634731) translate(-389.63254 -84.144)"></path> 
   <path id="path257922" style="font-style: oblique; font-weight: 700; font-size: 72px; line-height: 1; font-family: Averta; font-variant-ligatures: none; text-align: center; text-anchor: middle; fill: rgb(27, 28, 33);" d="m 435.32169,120.648 c 3.96,0 7.488,-2.16 10.08,-5.904 l 0.216,0.072 -0.648,5.184 h 10.872 l 4.32,-35.208 h -10.872 l -0.288,2.448 h -0.216 c -1.872,-1.944 -4.608,-3.096 -8.28,-3.096 -9.216,0 -16.632,9.576 -16.632,22.104 0,8.136 3.888,14.4 11.448,14.4 z m 3.456,-9.576 c -2.448,0 -4.032,-2.232 -4.032,-5.616 0,-5.256 2.88,-11.664 7.632,-11.664 2.232,0 4.248,0.864 5.832,2.52 l -0.144,1.008 c -1.224,8.856 -5.544,13.752 -9.288,13.752 z" transform="translate(0 305.3598298566204) translate(420.4495121457668 68.5385521741553) scale(1.0166684751634731) translate(-423.87369 -84.144)"></path> 
   <path id="path257924" style="font-style: oblique; font-weight: 700; font-size: 72px; line-height: 1; font-family: Averta; font-variant-ligatures: none; text-align: center; text-anchor: middle; fill: rgb(27, 28, 33);" d="m 467.91856,84.792 -4.32,35.208 h 10.8 l 1.584,-13.536 c 1.296,-8.352 5.616,-12.24 10.8,-10.368 l 1.512,-11.952 c -3.888,0 -7.344,1.872 -10.08,5.472 h -0.144 l 0.648,-4.824 z" transform="translate(0 305.3598298566204) translate(460.83653515473395 68.5385521741553) scale(1.0166684751634731) translate(-463.59856 -84.144)"></path> 
   <path id="path257926" style="font-style: oblique; font-weight: 700; font-size: 72px; line-height: 1; font-family: Averta; font-variant-ligatures: none; text-align: center; text-anchor: middle; fill: rgb(112, 102, 88);" d="m 499.20369,120.648 c 4.392,0 7.848,-2.304 10.44,-5.832 h 0.144 l -0.432,5.184 h 10.584 l 4.32,-35.208 h -10.8 l -1.944,16.128 c -0.648,5.184 -4.896,10.08 -7.92,10.08 -2.52,0 -3.096,-1.872 -2.304,-7.56 l 2.664,-18.648 h -10.728 l -3.024,21.888 c -1.512,10.44 2.448,13.968 9,13.968 z" transform="translate(0 305.3598298566204) translate(487.55839518881186 69.1973533460612) scale(1.0166684751634731) translate(-489.88231 -84.792)"></path> 
   <path id="path257928" style="font-style: oblique; font-weight: 700; font-size: 72px; line-height: 1; font-family: Averta; font-variant-ligatures: none; text-align: center; text-anchor: middle; fill: rgb(112, 102, 88);" d="m 532.18419,84.792 -4.392,35.208 h 10.8 l 1.584,-13.032 c 1.152,-8.784 5.76,-13.176 9,-13.176 2.304,0 2.736,2.232 2.088,7.128 l -2.52,19.08 h 10.728 l 2.808,-21.528 c 1.296,-9.864 -1.44,-14.328 -8.136,-14.328 -4.608,0 -8.496,1.944 -11.664,5.616 l -0.144,-0.072 0.576,-4.896 z" transform="translate(0 305.3598298566204) translate(526.1001750820421 68.5385521741553) scale(1.0166684751634731) translate(-527.79219 -84.144)"></path> 
   <path id="path257930" style="font-style: oblique; font-weight: 700; font-size: 72px; line-height: 1; font-family: Averta; font-variant-ligatures: none; text-align: center; text-anchor: middle; fill: rgb(112, 102, 88);" d="m 578.47119,80.256 c 3.96,0 6.696,-2.736 6.696,-6.408 0,-3.528 -2.592,-6.12 -6.48,-6.12 -3.96,0 -6.696,2.664 -6.696,6.336 0,3.528 2.664,6.192 6.48,6.192 z m -6.696,4.536 -4.32,35.208 h 10.8 l 4.32,-35.208 z" transform="translate(0 305.3598298566204) translate(566.4242968124508 51.84892248587171) scale(1.0166684751634731) translate(-567.45519 -67.728)"></path> 
   <path id="path257932" style="font-style: oblique; font-weight: 700; font-size: 72px; line-height: 1; font-family: Averta; font-variant-ligatures: none; text-align: center; text-anchor: middle; fill: rgb(112, 102, 88);" d="m 598.38481,120.648 c 9.504,0 18.648,-5.4 20.952,-21.384 0.72,-4.896 0.72,-9.936 -0.072,-14.472 h -10.8 c 0.648,4.608 0.72,8.136 0.072,12.312 -1.512,10.872 -5.832,13.896 -8.28,13.896 -2.376,0 -2.592,-2.88 -1.944,-7.992 l 2.232,-18.216 h -10.656 l -2.592,20.448 c -1.08,9.144 1.944,15.408 11.088,15.408 z" transform="translate(0 305.3598298566204) translate(586.384396485064 69.1973533460612) scale(1.0166684751634731) translate(-587.08804 -84.792)"></path> 
   <path id="path257934" style="font-style: oblique; font-weight: 700; font-size: 72px; line-height: 1; font-family: Averta; font-variant-ligatures: none; text-align: center; text-anchor: middle; fill: rgb(112, 102, 88);" d="m 654.25006,93.864 c 0.072,-6.624 -6.336,-9.72 -12.024,-9.72 -11.88,0 -19.296,9.792 -19.296,21.744 -0.072,9.144 5.832,14.76 14.688,14.76 6.912,0 11.592,-2.592 15.336,-7.704 l -8.064,-4.752 c -1.944,2.592 -4.032,3.528 -6.408,3.528 -2.088,0 -4.392,-1.296 -5.04,-4.464 10.368,-1.08 20.664,-4.464 20.808,-13.392 z m -10.368,1.512 c -0.072,3.456 -4.824,4.824 -10.08,5.4 1.224,-4.896 4.392,-7.632 7.488,-7.632 1.656,0 2.664,0.792 2.592,2.232 z" transform="translate(0 305.3598298566204) translate(622.823187470734 68.5385521741553) scale(1.0166684751634731) translate(-622.92941 -84.144)"></path> 
   <path id="path257936" style="font-style: oblique; font-weight: 700; font-size: 72px; line-height: 1; font-family: Averta; font-variant-ligatures: none; text-align: center; text-anchor: middle; fill: rgb(112, 102, 88);" d="m 661.41856,84.792 -4.32,35.208 h 10.8 l 1.584,-13.536 c 1.296,-8.352 5.616,-12.24 10.8,-10.368 l 1.512,-11.952 c -3.888,0 -7.344,1.872 -10.08,5.472 h -0.144 l 0.648,-4.824 z" transform="translate(0 305.3598298566204) translate(657.561885098866 68.5385521741553) scale(1.0166684751634731) translate(-657.09856 -84.144)"></path> 
   <path id="path257938" style="font-style: oblique; font-weight: 700; font-size: 72px; line-height: 1; font-family: Averta; font-variant-ligatures: none; text-align: center; text-anchor: middle; fill: rgb(112, 102, 88);" d="m 694.21569,120.648 c 8.568,0 13.968,-4.536 13.968,-11.448 0,-5.544 -3.744,-8.064 -9.216,-10.8 -3.24,-1.584 -4.968,-2.736 -4.968,-3.888 0,-1.368 1.368,-2.16 2.808,-2.16 1.656,0.072 4.104,0.936 6.048,3.6 l 6.552,-6.192 c -3.168,-3.816 -7.92,-5.616 -12.672,-5.616 -7.272,0 -13.032,4.68 -13.032,11.736 0,5.184 3.24,8.064 8.568,10.728 4.032,2.088 5.472,2.664 5.472,3.96 0,1.224 -1.368,1.944 -3.24,1.944 -2.736,0 -5.904,-1.656 -7.992,-4.176 l -6.048,6.264 c 3.096,3.888 8.712,6.048 13.752,6.048 z" transform="translate(0 305.3598298566204) translate(681.3164761879623 68.5385521741553) scale(1.0166684751634731) translate(-680.46369 -84.144)"></path> 
   <path id="path257940" style="font-style: oblique; font-weight: 700; font-size: 72px; line-height: 1; font-family: Averta; font-variant-ligatures: none; text-align: center; text-anchor: middle; fill: rgb(112, 102, 88);" d="m 723.74356,120.648 c 3.96,0 7.488,-2.16 10.08,-5.904 l 0.216,0.072 -0.648,5.184 h 10.872 l 4.32,-35.208 h -10.872 l -0.288,2.448 h -0.216 c -1.872,-1.944 -4.608,-3.096 -8.28,-3.096 -9.216,0 -16.632,9.576 -16.632,22.104 0,8.136 3.888,14.4 11.448,14.4 z m 3.456,-9.576 c -2.448,0 -4.032,-2.232 -4.032,-5.616 0,-5.256 2.88,-11.664 7.632,-11.664 2.232,0 4.248,0.864 5.832,2.52 l -0.144,1.008 c -1.224,8.856 -5.544,13.752 -9.288,13.752 z" transform="translate(0 305.3598298566204) translate(713.6789349224642 68.5385521741553) scale(1.0166684751634731) translate(-712.29556 -84.144)"></path> 
   <path id="path257942" style="font-style: oblique; font-weight: 700; font-size: 72px; line-height: 1; font-family: Averta; font-variant-ligatures: none; text-align: center; text-anchor: middle; fill: rgb(112, 102, 88);" d="m 758.78844,67.008 -6.48,52.992 h 10.8 l 6.552,-52.992 z" transform="translate(0 305.3598298566204) translate(754.3587686189633 51.116921183754) scale(1.0166684751634731) translate(-752.30844 -67.008)"></path> 
  </g> 
  <g id="tagline" style="font-style:normal;font-weight:500;font-size:32px;line-height:1;font-family:Raleway;font-variant-ligatures:none;text-align:center;text-anchor:middle"></g> 
 </g> 
</svg>