<svg xmlns:dc="http://purl.org/dc/elements/1.1/" xmlns:cc="http://creativecommons.org/ns#" xmlns:rdf="http://www.w3.org/1999/02/22-rdf-syntax-ns#" xmlns:svg="http://www.w3.org/2000/svg" xmlns="http://www.w3.org/2000/svg" id="svg406112" viewbox="0 0 1024 768" height="768px" width="1024px" version="1.1"> <metadata id="metadata406118"> 
  <rdf:rdf> 
   <cc:work rdf:about=""> 
    <dc:format>
     image/svg+xml
    </dc:format> 
    <dc:type rdf:resource="http://purl.org/dc/dcmitype/StillImage"></dc:type> 
   </cc:work> 
  </rdf:rdf> 
 </metadata> <defs id="defs406116"></defs> <g id="logo-group"> 
  <g id="title" style="font-style:normal;font-weight:700;font-size:72px;line-height:1;font-family:Jura;font-variant-ligatures:none;text-align:center;text-anchor:middle" aria-label="o7Novelist"> 
   <path id="path406120" style="font-style: normal; font-weight: 700; font-size: 72px; line-height: 1; font-family: Jura; font-variant-ligatures: none; text-align: center; text-anchor: middle; fill: rgb(206, 137, 0);" d="m 339.35638,120 q -7.2,0 -10.65601,-3.456 -3.456,-3.456 -3.456,-10.584 v -8.352 q 0,-7.2 3.456,-10.656 3.45601,-3.456 10.65601,-3.456 h 5.90399 q 7.2,0 10.65601,3.456 3.456,3.456 3.456,10.656 v 8.28 q 0,7.2 -3.456,10.656 Q 352.46037,120 345.26037,120 Z m 5.90399,-6.048 q 3.16801,0 4.89601,-0.72 1.72799,-0.72 2.44799,-2.448 0.72001,-1.728 0.72001,-4.896 v -8.28 q 0,-3.168 -0.72001,-4.896 -0.72,-1.728 -2.44799,-2.448 -1.728,-0.72 -4.89601,-0.72 h -5.90399 q -3.24001,0 -4.96801,0.72 -1.656,0.72 -2.37599,2.448 -0.72001,1.656 -0.72001,4.896 v 8.352 q 0,3.168 0.72001,4.896 0.71999,1.656 2.44799,2.376 1.728,0.72 4.89601,0.72 z" transform="translate(0 280.76043248590764) translate(252.0000000000001 89.23639724755814) scale(1.2922822320537288) translate(-325.24437 -83.496)"></path> 
   <path id="path406122" style="font-style: normal; font-weight: 700; font-size: 72px; line-height: 1; font-family: Jura; font-variant-ligatures: none; text-align: center; text-anchor: middle; fill: rgb(206, 137, 0);" d="m 379.2995,120 q -1.44,0 -2.232,-0.792 -0.792,-0.792 -0.72,-2.376 0.144,-7.416 1.224,-11.952 1.08,-4.536 3.312,-7.56 2.232,-3.024 6.336,-5.904 3.312,-2.592 4.968,-5.904 1.656,-3.384 1.944,-8.28 h -22.752 q -1.44,0 -2.232,-0.792 -0.792,-0.792 -0.792,-2.232 0,-1.44 0.792,-2.232 0.792,-0.792 2.232,-0.792 h 25.848 q 1.44,0 2.232,0.792 0.792,0.792 0.792,2.232 0,7.704 -2.304,13.032 -2.232,5.328 -7.2,9.072 -3.312,2.304 -5.04,4.68 -1.656,2.376 -2.448,6.048 -0.72,3.6 -0.864,9.792 -0.144,3.168 -3.096,3.168 z" transform="translate(0 280.76043248590764) translate(311.58859399891975 73.32581840651262) scale(1.2922822320537288) translate(-368.3555 -71.184)"></path> 
   <path id="path406124" style="font-style: normal; font-weight: 700; font-size: 72px; line-height: 1; font-family: Jura; font-variant-ligatures: none; text-align: center; text-anchor: middle; fill: rgb(0, 105, 214);" d="m 447.4295,71.184 q 1.44,0 2.232,0.792 0.792,0.792 0.792,2.232 v 42.768 q 0,1.44 -0.792,2.232 -0.792,0.792 -2.232,0.792 -0.864,0 -1.584,-0.432 -0.72,-0.432 -1.44,-1.368 l -27.432,-35.352 v 34.128 q 0,1.44 -0.792,2.232 -0.792,0.792 -2.232,0.792 -1.44,0 -2.232,-0.792 -0.792,-0.792 -0.792,-2.232 V 74.208 q 0,-1.44 0.792,-2.232 0.792,-0.792 2.232,-0.792 0.864,0 1.512,0.432 0.72,0.432 1.512,1.368 l 27.432,35.352 V 74.208 q 0,-1.44 0.792,-2.232 0.792,-0.792 2.232,-0.792 z" transform="translate(0 280.76043248590764) translate(370.47789531360814 73.32581840651262) scale(1.2922822320537288) translate(-410.9255 -71.184)"></path> 
   <path id="path406126" style="font-style: normal; font-weight: 700; font-size: 72px; line-height: 1; font-family: Jura; font-variant-ligatures: none; text-align: center; text-anchor: middle; fill: rgb(0, 105, 214);" d="m 477.872,120 q -7.2,0 -10.656,-3.456 -3.456,-3.456 -3.456,-10.584 v -8.352 q 0,-7.2 3.456,-10.656 3.456,-3.456 10.656,-3.456 h 5.904 q 7.2,0 10.656,3.456 3.456,3.456 3.456,10.656 v 8.28 q 0,7.2 -3.456,10.656 Q 490.976,120 483.776,120 Z m 5.904,-6.048 q 3.168,0 4.896,-0.72 1.728,-0.72 2.448,-2.448 0.72,-1.728 0.72,-4.896 v -8.28 q 0,-3.168 -0.72,-4.896 -0.72,-1.728 -2.448,-2.448 -1.728,-0.72 -4.896,-0.72 h -5.904 q -3.24,0 -4.968,0.72 -1.656,0.72 -2.376,2.448 -0.72,1.656 -0.72,4.896 v 8.352 q 0,3.168 0.72,4.896 0.72,1.656 2.448,2.376 1.728,0.72 4.896,0.72 z" transform="translate(0 280.76043248590764) translate(442.63182759921204 89.23639724755814) scale(1.2922822320537288) translate(-463.76 -83.496)"></path> 
   <path id="path406128" style="font-style: normal; font-weight: 700; font-size: 72px; line-height: 1; font-family: Jura; font-variant-ligatures: none; text-align: center; text-anchor: middle; fill: rgb(0, 105, 214);" d="m 535.84888,83.856 q 1.79999,0.864 1.79999,2.448 0,0.648 -0.36,1.584 l -13.24799,29.88 q -0.93601,2.232 -3.45601,2.232 -2.23199,0 -3.24,-2.376 l -12.24,-29.808 q -0.36,-0.936 -0.36,-1.512 0,-1.728 1.944,-2.448 0.864,-0.36 1.44,-0.36 1.656,0 2.52,1.944 l 10.08001,24.624 11.08799,-24.768 q 0.93601,-1.8 2.592,-1.8 0.576,0 1.44001,0.36 z" transform="translate(0 280.76043248590764) translate(499.4726935794052 89.23639724755814) scale(1.2922822320537288) translate(-504.74487 -83.496)"></path> 
   <path id="path406130" style="font-style: normal; font-weight: 700; font-size: 72px; line-height: 1; font-family: Jura; font-variant-ligatures: none; text-align: center; text-anchor: middle; fill: rgb(0, 105, 214);" d="m 550.52675,104.232 v 1.728 q 0,3.168 0.72,4.896 0.72,1.656 2.448,2.376 1.728,0.72 4.896,0.72 h 5.904 q 3.672,0 5.4,-0.648 1.8,-0.72 2.376,-2.448 0.432,-1.44 1.152,-2.088 0.72,-0.72 2.088,-0.72 1.368,0 2.088,0.648 0.792,0.576 0.792,1.728 0,0.504 -0.072,0.72 -1.584,8.856 -13.824,8.856 h -5.904 q -7.2,0 -10.656,-3.456 -3.456,-3.456 -3.456,-10.584 v -8.352 q 0,-7.272 3.456,-10.728 3.456,-3.456 10.656,-3.384 h 5.904 q 7.2,0 10.656,3.456 3.456,3.456 3.456,10.656 v 3.6 q 0,1.44 -0.792,2.232 -0.792,0.792 -2.232,0.792 z m 0,-6.048 h 22.032 v -0.576 q 0,-3.168 -0.72,-4.896 -0.72,-1.728 -2.448,-2.448 -1.728,-0.72 -4.896,-0.72 h -5.904 q -3.168,-0.072 -4.896,0.648 -1.728,0.72 -2.448,2.448 -0.72,1.728 -0.72,4.968 z" transform="translate(0 280.76043248590764) translate(554.6969274101214 89.23449888495925) scale(1.2922822320537288) translate(-544.47875 -83.494531)"></path> 
   <path id="path406132" style="font-style: normal; font-weight: 700; font-size: 72px; line-height: 1; font-family: Jura; font-variant-ligatures: none; text-align: center; text-anchor: middle; fill: rgb(0, 105, 214);" d="m 602.78188,120 q -5.472,0 -8.208,-2.664 -2.664,-2.736 -2.664,-8.28 v -36.72 q 0,-1.44 0.79199,-2.232 0.792,-0.792 2.232,-0.792 1.44,0 2.23201,0.792 0.79199,0.792 0.79199,2.232 v 36.72 q 0,2.952 0.936,3.96 1.00801,0.936 3.88801,0.936 3.096,0 3.096,3.024 0.072,1.44 -0.72001,2.232 -0.792,0.792 -2.37599,0.792 z" transform="translate(0 280.76043248590764) translate(619.8681806515132 70.90666606810804) scale(1.2922822320537288) translate(-591.90988 -69.312)"></path> 
   <path id="path406134" style="font-style: normal; font-weight: 700; font-size: 72px; line-height: 1; font-family: Jura; font-variant-ligatures: none; text-align: center; text-anchor: middle; fill: rgb(0, 105, 214);" d="m 619.68387,120 q -1.44,0 -2.232,-0.792 -0.79199,-0.792 -0.79199,-2.232 V 86.52 q 0,-1.44 0.79199,-2.232 0.792,-0.792 2.232,-0.792 1.44,0 2.23201,0.792 0.79199,0.792 0.79199,2.232 v 30.456 q 0,1.44 -0.79199,2.232 -0.79201,0.792 -2.23201,0.792 z m -1.00799,-42.408 q -1.65601,0 -2.592,-0.936 -0.86401,-0.936 -0.86401,-2.52 v -2.16 q 0,-1.656 0.86401,-2.448 0.93599,-0.864 2.592,-0.864 h 2.08799 q 3.24,0 3.24,3.312 v 2.16 q 0,1.656 -0.864,2.592 -0.79199,0.864 -2.376,0.864 z" transform="translate(0 280.76043248590764) translate(653.8681132540244 70.06926718173723) scale(1.2922822320537288) translate(-615.21987 -68.664)"></path> 
   <path id="path406136" style="font-style: normal; font-weight: 700; font-size: 72px; line-height: 1; font-family: Jura; font-variant-ligatures: none; text-align: center; text-anchor: middle; fill: rgb(0, 105, 214);" d="m 646.32163,120 q -9.144,0 -10.65601,-7.56 -0.072,-0.216 -0.072,-0.648 0,-1.224 0.792,-1.872 0.86401,-0.72 2.232,-0.72 1.36801,0 2.08801,0.72 0.71999,0.648 1.15199,2.232 0.432,1.08 1.36801,1.44 1.00799,0.36 3.096,0.36 h 11.808 q 2.808,0 3.74399,-0.936 1.008,-0.936 1.008,-3.816 0,-2.88 -1.008,-3.816 -0.93599,-0.936 -3.74399,-0.936 h -11.592 q -10.44001,0 -10.44001,-10.44 0,-5.328 2.592,-7.92 2.592,-2.592 7.84801,-2.592 h 11.232 q 8.49599,0 10.00799,7.128 0.072,0.216 0.072,0.648 0,1.152 -0.864,1.872 -0.79201,0.648 -2.16001,0.648 -1.368,0 -2.088,-0.648 -0.648,-0.72 -1.07999,-2.16 -0.432,-0.864 -1.29601,-1.152 -0.864,-0.288 -2.59199,-0.288 h -11.232 q -1.87201,0 -2.808,0.36 -0.936,0.288 -1.29601,1.224 -0.288,0.936 -0.288,2.88 0,2.592 0.86401,3.528 0.86399,0.864 3.528,0.864 h 11.592 q 10.79999,0 10.79999,10.8 0,10.8 -10.79999,10.8 z" transform="translate(0 280.76043248590764) translate(684.0735950754902 89.23639724755814) scale(1.2922822320537288) translate(-635.59362 -83.496)"></path> 
   <path id="path406138" style="font-style: normal; font-weight: 700; font-size: 72px; line-height: 1; font-family: Jura; font-variant-ligatures: none; text-align: center; text-anchor: middle; fill: rgb(0, 105, 214);" d="m 697.17725,113.952 q 3.024,0 3.024,3.024 0,1.44 -0.792,2.232 -0.792,0.792 -2.232,0.792 -7.128,0 -10.512,-3.384 -3.384,-3.384 -3.384,-10.44 V 89.544 h -3.528 q -1.44,0 -2.232,-0.792 -0.792,-0.792 -0.792,-2.232 0,-3.024 3.024,-3.024 h 3.528 V 78.24 q 0,-1.44 0.792,-2.232 0.792,-0.792 2.232,-0.792 1.44,0 2.232,0.792 0.792,0.792 0.792,2.232 v 5.256 h 8.28 q 3.024,0 3.024,3.024 0,1.44 -0.792,2.232 -0.792,0.792 -2.232,0.792 h -8.28 v 16.632 q 0,3.096 0.72,4.752 0.72,1.656 2.376,2.376 1.656,0.648 4.752,0.648 z" transform="translate(0 280.76043248590764) translate(741.1092855249876 78.53630036615327) scale(1.2922822320537288) translate(-676.72925 -75.216)"></path> 
  </g> 
  <g id="tagline" style="font-style:normal;font-weight:500;font-size:32px;line-height:1;font-family:Roboto;font-variant-ligatures:none;text-align:center;text-anchor:middle"></g> 
 </g> 
</svg>