<svg xmlns:dc="http://purl.org/dc/elements/1.1/" xmlns:cc="http://creativecommons.org/ns#" xmlns:rdf="http://www.w3.org/1999/02/22-rdf-syntax-ns#" xmlns:svg="http://www.w3.org/2000/svg" xmlns="http://www.w3.org/2000/svg" id="svg608131" viewbox="0 0 1024 768" height="768px" width="1024px" version="1.1"> <metadata id="metadata608137"> 
  <rdf:rdf> 
   <cc:work rdf:about=""> 
    <dc:format>
     image/svg+xml
    </dc:format> 
    <dc:type rdf:resource="http://purl.org/dc/dcmitype/StillImage"></dc:type> 
   </cc:work> 
  </rdf:rdf> 
 </metadata> <defs id="defs608135"></defs> <g id="logo-group"> 
  <g id="title" style="font-style:oblique;font-weight:700;font-size:72px;line-height:1;font-family:Averta;font-variant-ligatures:none;text-align:center;text-anchor:middle" aria-label="o7Nonmetric"> 
   <path id="path608139" style="font-style: oblique; font-weight: 700; font-size: 72px; line-height: 1; font-family: Averta; font-variant-ligatures: none; text-align: center; text-anchor: middle; fill: rgb(255, 255, 255);" d="m 332.81844,120.648 c 13.464,0 19.584,-10.008 19.584,-21.456 0,-9.576 -5.976,-15.048 -15.048,-15.048 -12.384,0 -19.44,10.08 -19.44,21.384 0,9.648 5.976,15.12 14.904,15.12 z m 0.792,-9.648 c -2.304,0 -4.752,-1.872 -4.752,-6.048 0,-5.4 2.88,-11.16 7.632,-11.16 1.944,0 4.968,1.08 4.968,6.12 0,5.76 -3.096,11.088 -7.848,11.088 z" transform="translate(0 290.08293005507585) translate(252.00000000000023 81.74534567392739) scale(1.1821799020004677) translate(-317.91444 -84.144)"></path> 
   <path id="path608141" style="font-style: oblique; font-weight: 700; font-size: 72px; line-height: 1; font-family: Averta; font-variant-ligatures: none; text-align: center; text-anchor: middle; fill: rgb(255, 255, 255);" d="m 385.99944,70.536 h -27.864 l -1.224,10.08 h 15.48 l -17.568,38.52 11.088,2.016 19.224,-43.344 z" transform="translate(0 290.08293005507585) translate(301.54397751293783 65.65824156750502) scale(1.1821799020004677) translate(-354.82344 -70.536)"></path> 
   <path id="path608143" style="font-style: oblique; font-weight: 700; font-size: 72px; line-height: 1; font-family: Averta; font-variant-ligatures: none; text-align: center; text-anchor: middle; fill: rgb(227, 230, 221);" d="m 393.24219,68.88 -6.264,51.12 h 11.16 l 3.888,-30.888 h 0.216 l 13.176,30.888 h 11.16 l 6.336,-51.12 h -11.232 l -3.888,31.608 -0.216,0.072 -13.536,-31.68 z" transform="translate(0 290.08293005507585) translate(345.4675762267897 63.70055164979222) scale(1.1821799020004677) translate(-386.97819 -68.88)"></path> 
   <path id="path608145" style="font-style: oblique; font-weight: 700; font-size: 72px; line-height: 1; font-family: Averta; font-variant-ligatures: none; text-align: center; text-anchor: middle; fill: rgb(227, 230, 221);" d="m 450.52156,120.648 c 13.464,0 19.584,-10.008 19.584,-21.456 0,-9.576 -5.976,-15.048 -15.048,-15.048 -12.384,0 -19.44,10.08 -19.44,21.384 0,9.648 5.976,15.12 14.904,15.12 z m 0.792,-9.648 c -2.304,0 -4.752,-1.872 -4.752,-6.048 0,-5.4 2.88,-11.16 7.632,-11.16 1.944,0 4.968,1.08 4.968,6.12 0,5.76 -3.096,11.088 -7.848,11.088 z" transform="translate(0 290.08293005507585) translate(408.8789613967566 81.74534567392739) scale(1.1821799020004677) translate(-435.61756 -84.144)"></path> 
   <path id="path608147" style="font-style: oblique; font-weight: 700; font-size: 72px; line-height: 1; font-family: Averta; font-variant-ligatures: none; text-align: center; text-anchor: middle; fill: rgb(227, 230, 221);" d="m 478.32481,84.792 -4.392,35.208 h 10.8 l 1.584,-13.032 c 1.152,-8.784 5.76,-13.176 9,-13.176 2.304,0 2.736,2.232 2.088,7.128 l -2.52,19.08 h 10.728 l 2.808,-21.528 c 1.296,-9.864 -1.44,-14.328 -8.136,-14.328 -4.608,0 -8.496,1.944 -11.664,5.616 l -0.144,-0.072 0.576,-4.896 z" transform="translate(0 290.08293005507585) translate(460.08537939688233 81.74534567392739) scale(1.1821799020004677) translate(-473.93281 -84.144)"></path> 
   <path id="path608149" style="font-style: oblique; font-weight: 700; font-size: 72px; line-height: 1; font-family: Averta; font-variant-ligatures: none; text-align: center; text-anchor: middle; fill: rgb(204, 208, 193);" d="m 517.69981,84.792 -4.32,35.208 h 10.8 l 1.656,-13.752 c 1.008,-8.208 5.688,-12.456 8.064,-12.456 2.448,0 2.592,2.232 1.944,7.128 l -2.52,19.08 h 10.728 l 1.728,-12.96 c 1.152,-8.928 5.76,-13.248 8.208,-13.248 2.232,0 2.592,2.232 1.944,7.128 l -2.52,19.08 h 10.728 l 2.808,-21.096 c 1.296,-10.152 -1.224,-14.76 -8.208,-14.76 -4.896,0 -8.784,1.8 -11.808,5.328 h -0.36 c -1.008,-3.672 -3.6,-5.328 -7.632,-5.328 -4.104,0 -7.776,1.8 -10.728,5.112 l -0.288,-0.072 0.576,-4.392 z" transform="translate(0 290.08293005507585) translate(512.6297295010971 81.74534567392739) scale(1.1821799020004677) translate(-513.37981 -84.144)"></path> 
   <path id="path608151" style="font-style: oblique; font-weight: 700; font-size: 72px; line-height: 1; font-family: Averta; font-variant-ligatures: none; text-align: center; text-anchor: middle; fill: rgb(204, 208, 193);" d="m 603.34381,93.864 c 0.072,-6.624 -6.336,-9.72 -12.024,-9.72 -11.88,0 -19.296,9.792 -19.296,21.744 -0.072,9.144 5.832,14.76 14.688,14.76 6.912,0 11.592,-2.592 15.336,-7.704 l -8.064,-4.752 c -1.944,2.592 -4.032,3.528 -6.408,3.528 -2.088,0 -4.392,-1.296 -5.04,-4.464 10.368,-1.08 20.664,-4.464 20.808,-13.392 z m -10.368,1.512 c -0.072,3.456 -4.824,4.824 -10.08,5.4 1.224,-4.896 4.392,-7.632 7.488,-7.632 1.656,0 2.664,0.792 2.592,2.232 z" transform="translate(0 290.08293005507585) translate(587.8676187670786 81.74534567392739) scale(1.1821799020004677) translate(-572.02316 -84.144)"></path> 
   <path id="path608153" style="font-style: oblique; font-weight: 700; font-size: 72px; line-height: 1; font-family: Averta; font-variant-ligatures: none; text-align: center; text-anchor: middle; fill: rgb(204, 208, 193);" d="m 616.56031,120.648 c 3.24,0 6.408,-0.792 9.432,-2.448 l -1.728,-8.424 c -1.368,0.72 -2.592,1.152 -3.528,1.152 -1.152,0 -1.872,-0.936 -1.584,-2.952 l 1.728,-14.472 h 7.272 l 1.08,-8.712 h -7.272 l 1.512,-12.456 -11.016,2.16 -1.368,10.296 h -3.456 l -1.08,8.712 h 3.456 l -1.872,15.912 c -1.008,8.136 2.952,11.232 8.424,11.232 z" transform="translate(0 290.08293005507585) translate(634.5981854402405 67.78616539110585) scale(1.1821799020004677) translate(-606.55231 -72.336)"></path> 
   <path id="path608155" style="font-style: oblique; font-weight: 700; font-size: 72px; line-height: 1; font-family: Averta; font-variant-ligatures: none; text-align: center; text-anchor: middle; fill: rgb(204, 208, 193);" d="m 634.98106,84.792 -4.32,35.208 h 10.8 l 1.584,-13.536 c 1.296,-8.352 5.616,-12.24 10.8,-10.368 l 1.512,-11.952 c -3.888,0 -7.344,1.872 -10.08,5.472 h -0.144 l 0.648,-4.824 z" transform="translate(0 290.08293005507585) translate(669.0099646625968 81.74534567392739) scale(1.1821799020004677) translate(-630.66106 -84.144)"></path> 
   <path id="path608157" style="font-style: oblique; font-weight: 700; font-size: 72px; line-height: 1; font-family: Averta; font-variant-ligatures: none; text-align: center; text-anchor: middle; fill: rgb(204, 208, 193);" d="m 667.34619,80.256 c 3.96,0 6.696,-2.736 6.696,-6.408 0,-3.528 -2.592,-6.12 -6.48,-6.12 -3.96,0 -6.696,2.664 -6.696,6.336 0,3.528 2.664,6.192 6.48,6.192 z m -6.696,4.536 -4.32,35.208 h 10.8 l 4.32,-35.208 z" transform="translate(0 290.08293005507585) translate(705.2663937604364 62.33868040268767) scale(1.1821799020004677) translate(-656.33019 -67.728)"></path> 
   <path id="path608159" style="font-style: oblique; font-weight: 700; font-size: 72px; line-height: 1; font-family: Averta; font-variant-ligatures: none; text-align: center; text-anchor: middle; fill: rgb(204, 208, 193);" d="m 690.42781,120.648 c 6.768,0 11.592,-2.664 15.264,-7.704 l -8.352,-5.328 c -2.088,2.52 -4.104,3.384 -6.12,3.384 -2.952,0 -4.824,-2.304 -4.824,-6.12 0,-5.904 3.312,-11.16 8.136,-11.16 2.016,0 3.816,0.864 4.968,3.096 l 8.28,-6.192 c -2.88,-4.176 -7.272,-6.48 -13.536,-6.48 -12.168,0 -18.72,10.368 -18.72,21.168 0,10.008 5.76,15.336 14.904,15.336 z" transform="translate(0 290.08293005507585) translate(733.867605081073 81.74534567392739) scale(1.1821799020004677) translate(-675.52381 -84.144)"></path> 
  </g> 
  <g id="tagline" style="font-style:normal;font-weight:500;font-size:32px;line-height:1;font-family:Raleway;font-variant-ligatures:none;text-align:center;text-anchor:middle"></g> 
 </g> 
</svg>