<svg xmlns:dc="http://purl.org/dc/elements/1.1/" xmlns:cc="http://creativecommons.org/ns#" xmlns:rdf="http://www.w3.org/1999/02/22-rdf-syntax-ns#" xmlns:svg="http://www.w3.org/2000/svg" xmlns="http://www.w3.org/2000/svg" id="svg59581" viewbox="0 0 1024 768" height="768px" width="1024px" version="1.1"> <metadata id="metadata59587"> 
  <rdf:rdf> 
   <cc:work rdf:about=""> 
    <dc:format>
     image/svg+xml
    </dc:format> 
    <dc:type rdf:resource="http://purl.org/dc/dcmitype/StillImage"></dc:type> 
   </cc:work> 
  </rdf:rdf> 
 </metadata> <defs id="defs59585"></defs> <g id="logo-group"> 
  <g id="title" style="font-style:normal;font-weight:200;font-size:72px;line-height:1;font-family:Montserrat;font-variant-ligatures:none;text-align:center;text-anchor:middle" aria-label="O7News"> 
   <path id="path59589" style="font-style: normal; font-weight: 200; font-size: 72px; line-height: 1; font-family: Montserrat; font-variant-ligatures: none; text-align: center; text-anchor: middle; fill: rgb(66, 178, 223);" d="m 397.65894,69.384 q 6.984,0 12.888,3.456 5.976,3.384 9.432,9.216 3.528,5.832 3.528,12.672 0,6.84 -3.528,12.744 -3.456,5.832 -9.432,9.288 -5.904,3.456 -12.888,3.456 -6.984,0 -12.96,-3.456 -5.904,-3.456 -9.432,-9.288 -3.456,-5.904 -3.456,-12.744 0,-6.84 3.456,-12.672 3.528,-5.832 9.432,-9.216 5.976,-3.456 12.96,-3.456 z m 0,1.44 q -6.552,0 -12.168,3.24 -5.616,3.24 -8.928,8.784 -3.312,5.472 -3.312,11.88 0,6.48 3.312,12.024 3.312,5.544 8.928,8.784 5.616,3.24 12.168,3.24 6.552,0 12.168,-3.24 5.616,-3.24 8.928,-8.784 3.312,-5.544 3.312,-12.024 0,-6.408 -3.312,-11.88 -3.312,-5.544 -8.928,-8.784 -5.616,-3.24 -12.168,-3.24 z" transform="translate(0 245.38400000000001) translate(248.50895833333323 96.25599999999999) scale(1.6666666666666667) translate(-371.81094 -69.384)"></path> 
   <path id="path59591" style="font-style: normal; font-weight: 200; font-size: 72px; line-height: 1; font-family: Montserrat; font-variant-ligatures: none; text-align: center; text-anchor: middle; fill: rgb(66, 178, 223);" d="m 429.72481,69.672 h 35.496 v 1.8 L 440.59681,120 h -1.584 l 24.912,-48.888 h -32.76 v 8.064 h -1.44 z" transform="translate(0 245.38400000000001) translate(356.69874166666654 96.736) scale(1.6666666666666667) translate(-429.72481 -69.672)"></path> 
   <path id="path59593" style="font-style: normal; font-weight: 200; font-size: 72px; line-height: 1; font-family: Montserrat; font-variant-ligatures: none; text-align: center; text-anchor: middle; fill: rgb(36, 70, 117);" d="m 513.94231,69.672 h 1.44 V 120 h -2.16 l -35.496,-48.888 V 120 h -1.44 V 69.672 h 2.16 l 35.496,48.888 z" transform="translate(0 245.38400000000001) translate(445.9679083333333 96.736) scale(1.6666666666666667) translate(-476.28631 -69.672)"></path> 
   <path id="path59595" style="font-style: normal; font-weight: 200; font-size: 72px; line-height: 1; font-family: Montserrat; font-variant-ligatures: none; text-align: center; text-anchor: middle; fill: rgb(36, 70, 117);" d="m 546.25794,118.56 q 4.032,0 7.416,-1.368 3.456,-1.44 5.76,-4.032 l 1.008,1.008 q -2.592,2.808 -6.264,4.32 -3.672,1.512 -7.92,1.512 -5.112,0 -9.216,-2.376 -4.032,-2.448 -6.408,-6.696 -2.304,-4.248 -2.304,-9.576 0,-5.328 2.304,-9.576 2.376,-4.248 6.408,-6.624 4.104,-2.376 9.216,-2.376 5.112,0 9,2.376 3.96,2.376 6.12,6.624 2.16,4.248 2.16,9.576 h -33.768 q 0,4.968 2.088,8.928 2.16,3.888 5.904,6.12 3.744,2.16 8.496,2.16 z m 0,-34.344 q -4.536,0 -8.208,2.016 -3.6,1.944 -5.76,5.544 -2.16,3.528 -2.448,8.136 h 32.256 q -0.504,-7.056 -4.752,-11.376 -4.248,-4.32 -11.088,-4.32 z" transform="translate(0 245.38400000000001) translate(544.3739583333332 118.57600000000001) scale(1.6666666666666667) translate(-528.32994 -82.776)"></path> 
   <path id="path59597" style="font-style: normal; font-weight: 200; font-size: 72px; line-height: 1; font-family: Montserrat; font-variant-ligatures: none; text-align: center; text-anchor: middle; fill: rgb(36, 70, 117);" d="m 566.79031,82.776 h 1.728 l 13.32,35.568 13.176,-35.568 h 1.728 l 13.32,35.568 13.248,-35.568 h 1.656 L 610.78231,120 h -1.584 l -13.248,-35.208 -13.392,35.208 h -1.584 z" transform="translate(0 245.38400000000001) translate(620.1412416666666 118.57600000000001) scale(1.6666666666666667) translate(-566.79031 -82.776)"></path> 
   <path id="path59599" style="font-style: normal; font-weight: 200; font-size: 72px; line-height: 1; font-family: Montserrat; font-variant-ligatures: none; text-align: center; text-anchor: middle; fill: rgb(36, 70, 117);" d="m 650.19219,86.664 q -3.816,-2.448 -9.144,-2.448 -4.608,0 -7.56,1.872 -2.88,1.872 -2.88,5.472 0,2.52 1.368,4.104 1.44,1.584 3.456,2.448 2.088,0.864 5.76,2.016 3.888,1.152 6.192,2.232 2.376,1.008 3.96,2.952 1.656,1.944 1.656,5.04 0,4.752 -3.672,7.2 -3.6,2.448 -8.856,2.448 -3.888,0 -7.416,-1.368 -3.456,-1.368 -5.904,-3.816 l 0.936,-1.08 q 2.376,2.304 5.544,3.6 3.168,1.224 6.84,1.224 4.752,0 7.92,-2.088 3.168,-2.088 3.168,-6.048 0,-2.52 -1.44,-4.104 -1.44,-1.656 -3.6,-2.592 -2.088,-0.936 -5.688,-2.016 -3.816,-1.224 -6.192,-2.232 -2.304,-1.08 -3.888,-2.952 -1.584,-1.872 -1.584,-4.824 0,-4.392 3.312,-6.624 3.384,-2.304 8.496,-2.304 5.328,0 9.936,2.664 z" transform="translate(0 245.38400000000001) translate(732.4110416666666 118.57600000000001) scale(1.6666666666666667) translate(-627.15219 -82.776)"></path> 
  </g> 
  <g id="tagline" style="font-style:normal;font-weight:400;font-size:32px;line-height:1;font-family:Montserrat;font-variant-ligatures:none;text-align:center;text-anchor:middle"></g> 
 </g> 
</svg>