<svg xmlns:dc="http://purl.org/dc/elements/1.1/" xmlns:cc="http://creativecommons.org/ns#" xmlns:rdf="http://www.w3.org/1999/02/22-rdf-syntax-ns#" xmlns:svg="http://www.w3.org/2000/svg" xmlns="http://www.w3.org/2000/svg" id="svg475351" viewbox="0 0 1024 768" height="768px" width="1024px" version="1.1"> <metadata id="metadata475357"> 
  <rdf:rdf> 
   <cc:work rdf:about=""> 
    <dc:format>
     image/svg+xml
    </dc:format> 
    <dc:type rdf:resource="http://purl.org/dc/dcmitype/StillImage"></dc:type> 
   </cc:work> 
  </rdf:rdf> 
 </metadata> <defs id="defs475355"></defs> <g id="logo-group"> 
  <g id="title" style="font-style:normal;font-weight:300;font-size:72px;line-height:1;font-family:'Montserrat Light Alt1';font-variant-ligatures:none;text-align:center;text-anchor:middle" aria-label="O7NORTHWEST"> 
   <path id="path475359" style="font-style: normal; font-weight: 300; font-size: 72px; line-height: 1; font-family: &quot;Montserrat Light Alt1&quot;; font-variant-ligatures: none; text-align: center; text-anchor: middle; fill: rgb(178, 189, 185);" d="m 238.526,117.048 c 3.96,2.232 8.424,3.312 13.392,3.312 4.896,0 9.36,-1.08 13.392,-3.312 3.96,-2.16 7.056,-5.256 9.36,-9.144 2.304,-3.888 3.456,-8.208 3.456,-13.104 0,-4.824 -1.152,-9.216 -3.456,-13.104 -2.304,-3.888 -5.4,-6.912 -9.36,-9.144 -4.032,-2.16 -8.496,-3.312 -13.392,-3.312 -4.968,0 -9.432,1.152 -13.392,3.384 -4.032,2.232 -7.128,5.256 -9.432,9.144 -2.304,3.888 -3.384,8.28 -3.384,13.032 0,4.824 1.08,9.144 3.384,13.032 2.304,3.888 5.4,6.984 9.432,9.216 z m 24.84,-2.952 c -3.456,1.944 -7.272,2.88 -11.448,2.88 -4.248,0 -8.064,-0.936 -11.52,-2.88 -3.456,-1.872 -6.12,-4.536 -8.064,-7.92 -2.016,-3.384 -2.952,-7.2 -2.952,-11.376 0,-4.176 0.936,-7.92 2.952,-11.304 1.944,-3.384 4.608,-6.048 8.064,-7.992 3.456,-1.872 7.272,-2.88 11.52,-2.88 4.176,0 7.992,1.008 11.448,2.88 3.384,1.944 6.048,4.608 8.064,7.992 1.944,3.384 2.952,7.128 2.952,11.304 0,4.176 -1.008,7.992 -2.952,11.376 -2.016,3.384 -4.68,6.048 -8.064,7.92 z" transform="translate(0 317.0581818181818) translate(250.0509090909091 43.70545454545454) scale(0.9090909090909091) translate(-225.71 -69.24)"></path> 
   <path id="path475361" style="font-style: normal; font-weight: 300; font-size: 72px; line-height: 1; font-family: &quot;Montserrat Light Alt1&quot;; font-variant-ligatures: none; text-align: center; text-anchor: middle; fill: rgb(178, 189, 185);" d="m 320.67012,69.6 h -36.144 v 12.96 h 3.6 v -9.648 h 28.296 L 294.96612,120 h 4.03201 l 21.67199,-47.808 z" transform="translate(0 317.0581818181818) translate(303.5201090909091 44.03272727272727) scale(0.9090909090909091) translate(-284.52612 -69.6)"></path> 
   <path id="path475363" style="font-style: normal; font-weight: 300; font-size: 72px; line-height: 1; font-family: &quot;Montserrat Light Alt1&quot;; font-variant-ligatures: none; text-align: center; text-anchor: middle; fill: rgb(119, 119, 119);" d="m 373.66775,69.6 h -3.672 v 43.776 L 335.72375,69.6 h -3.096 V 120 h 3.672 V 76.224 l 34.344,43.776 h 3.024 z" transform="translate(0 317.0581818181818) translate(347.24886363636364 44.03272727272727) scale(0.9090909090909091) translate(-332.62775 -69.6)"></path> 
   <path id="path475365" style="font-style: normal; font-weight: 300; font-size: 72px; line-height: 1; font-family: &quot;Montserrat Light Alt1&quot;; font-variant-ligatures: none; text-align: center; text-anchor: middle; fill: rgb(119, 119, 119);" d="m 399.26037,117.048 c 3.96,2.232 8.424,3.312 13.392,3.312 4.89601,0 9.36001,-1.08 13.392,-3.312 3.96,-2.16 7.056,-5.256 9.36001,-9.144 2.30399,-3.888 3.45599,-8.208 3.45599,-13.104 0,-4.824 -1.152,-9.216 -3.45599,-13.104 -2.30401,-3.888 -5.40001,-6.912 -9.36001,-9.144 -4.03199,-2.16 -8.49599,-3.312 -13.392,-3.312 -4.968,0 -9.432,1.152 -13.392,3.384 -4.03199,2.232 -7.12799,5.256 -9.432,9.144 -2.30399,3.888 -3.384,8.28 -3.384,13.032 0,4.824 1.08001,9.144 3.384,13.032 2.30401,3.888 5.40001,6.984 9.432,9.216 z m 24.84,-2.952 c -3.45599,1.944 -7.272,2.88 -11.448,2.88 -4.24799,0 -8.064,-0.936 -11.51999,-2.88 -3.45601,-1.872 -6.12,-4.536 -8.06401,-7.92 -2.016,-3.384 -2.952,-7.2 -2.952,-11.376 0,-4.176 0.936,-7.92 2.952,-11.304 1.94401,-3.384 4.608,-6.048 8.06401,-7.992 3.45599,-1.872 7.272,-2.88 11.51999,-2.88 4.176,0 7.99201,1.008 11.448,2.88 3.384,1.944 6.048,4.608 8.064,7.992 1.94401,3.384 2.952,7.128 2.952,11.304 0,4.176 -1.00799,7.992 -2.952,11.376 -2.016,3.384 -4.68,6.048 -8.064,7.92 z" transform="translate(0 317.0581818181818) translate(396.1730636363636 43.70545454545454) scale(0.9090909090909091) translate(-386.44437 -69.24)"></path> 
   <path id="path475367" style="font-style: normal; font-weight: 300; font-size: 72px; line-height: 1; font-family: &quot;Montserrat Light Alt1&quot;; font-variant-ligatures: none; text-align: center; text-anchor: middle; fill: rgb(119, 119, 119);" d="m 478.1645,102.36 c 3.744,-1.08 6.696,-2.952 8.712,-5.688 2.016,-2.736 3.096,-6.048 3.096,-10.08 0,-5.256 -1.8,-9.432 -5.4,-12.456 -3.6,-3.024 -8.568,-4.536 -14.904,-4.536 h -18.072 v 3.312 h 18.072 c 5.328,0 9.432,1.224 12.312,3.6 2.808,2.376 4.248,5.76 4.248,10.08 0,4.392 -1.44,7.776 -4.248,10.152 -2.88,2.376 -6.984,3.528 -12.312,3.528 h -18.072 V 120 h 3.672 v -16.488 h 14.4 c 1.44,0 3.096,-0.072 4.896,-0.36 L 486.5885,120 h 4.176 z" transform="translate(0 317.0581818181818) translate(455.4022727272727 44.03272727272727) scale(0.9090909090909091) translate(-451.5965 -69.6)"></path> 
   <path id="path475369" style="font-style: normal; font-weight: 300; font-size: 72px; line-height: 1; font-family: &quot;Montserrat Light Alt1&quot;; font-variant-ligatures: none; text-align: center; text-anchor: middle; fill: rgb(119, 119, 119);" d="M 512.432,72.912 V 120 h 3.672 V 72.912 h 18.144 V 69.6 h -39.96 v 3.312 z" transform="translate(0 317.0581818181818) translate(494.21272727272725 44.03272727272727) scale(0.9090909090909091) translate(-494.288 -69.6)"></path> 
   <path id="path475371" style="font-style: normal; font-weight: 300; font-size: 72px; line-height: 1; font-family: &quot;Montserrat Light Alt1&quot;; font-variant-ligatures: none; text-align: center; text-anchor: middle; fill: rgb(119, 119, 119);" d="m 584.324,69.6 h -3.672 V 92.784 H 546.956 V 69.6 h -3.672 V 120 h 3.672 V 96.024 h 33.696 V 120 h 3.672 z" transform="translate(0 317.0581818181818) translate(538.7545454545453 44.03272727272727) scale(0.9090909090909091) translate(-543.284 -69.6)"></path> 
   <path id="path475373" style="font-style: normal; font-weight: 300; font-size: 72px; line-height: 1; font-family: &quot;Montserrat Light Alt1&quot;; font-variant-ligatures: none; text-align: center; text-anchor: middle; fill: rgb(119, 119, 119);" d="m 668.6135,69.6 h -3.6 l -15.48,45.432 -15.696,-45.432 h -3.528 l -15.768,45.36 -15.336,-45.36 h -3.888 l 17.136,50.4 h 3.888 l 15.696,-45.216 15.624,45.216 h 3.888 z" transform="translate(0 317.0581818181818) translate(586.0577272727271 44.03272727272727) scale(0.9090909090909091) translate(-595.3175 -69.6)"></path> 
   <path id="path475375" style="font-style: normal; font-weight: 300; font-size: 72px; line-height: 1; font-family: &quot;Montserrat Light Alt1&quot;; font-variant-ligatures: none; text-align: center; text-anchor: middle; fill: rgb(119, 119, 119);" d="m 711.74375,92.784 h -32.616 v 3.24 h 32.616 z m 0,-23.184 h -32.616 v 3.312 h 32.616 z m -32.616,47.088 V 120 h 32.616 v -3.312 z" transform="translate(0 317.0581818181818) translate(662.2488636363635 44.03272727272727) scale(0.9090909090909091) translate(-679.12775 -69.6)"></path> 
   <path id="path475377" style="font-style: normal; font-weight: 300; font-size: 72px; line-height: 1; font-family: &quot;Montserrat Light Alt1&quot;; font-variant-ligatures: none; text-align: center; text-anchor: middle; fill: rgb(119, 119, 119);" d="m 730.02612,118.488 c 3.312,1.296 6.84,1.872 10.58401,1.872 3.95999,0 7.34399,-0.576 10.07999,-1.8 2.736,-1.152 4.75201,-2.808 6.048,-4.824 1.29601,-2.016 2.01601,-4.248 2.01601,-6.696 0,-2.952 -0.792,-5.328 -2.37601,-7.056 -1.584,-1.728 -3.45599,-3.096 -5.616,-3.96 -2.232,-0.864 -5.184,-1.728 -8.856,-2.664 -3.312,-0.792 -5.976,-1.584 -7.84799,-2.304 -1.94401,-0.72 -3.52801,-1.728 -4.82401,-3.096 -1.29599,-1.296 -1.944,-3.096 -1.944,-5.4 0,-2.952 1.15201,-5.4 3.6,-7.272 2.376,-1.872 5.904,-2.808 10.584,-2.808 2.30401,0 4.68001,0.36 7.128,1.08 2.448,0.72 4.68,1.8 6.69601,3.168 l 1.36799,-2.952 c -2.016,-1.368 -4.31999,-2.448 -6.98399,-3.312 -2.736,-0.792 -5.47201,-1.224 -8.20801,-1.224 -4.03199,0 -7.34399,0.648 -10.00799,1.8 -2.664,1.224 -4.60801,2.88 -5.904,4.896 -1.29601,2.016 -1.94401,4.248 -1.94401,6.696 0,3.024 0.72,5.472 2.30401,7.272 1.58399,1.8 3.45599,3.096 5.688,3.96 2.23199,0.864 5.18399,1.8 8.928,2.664 3.24,0.792 5.832,1.512 7.77599,2.232 1.872,0.72 3.528,1.8 4.824,3.096 1.296,1.368 1.94401,3.168 1.94401,5.4 0,2.952 -1.22401,5.328 -3.67201,7.128 -2.44799,1.872 -6.12,2.736 -10.87199,2.736 -3.312,0 -6.48,-0.576 -9.504,-1.728 -3.024,-1.152 -5.4,-2.736 -7.12801,-4.608 l -1.65599,2.736 c 1.87199,2.016 4.46399,3.672 7.77599,4.968 z" transform="translate(0 317.0581818181818) translate(701.4510272727271 43.70545454545454) scale(0.9090909090909091) translate(-722.25013 -69.24)"></path> 
   <path id="path475379" style="font-style: normal; font-weight: 300; font-size: 72px; line-height: 1; font-family: &quot;Montserrat Light Alt1&quot;; font-variant-ligatures: none; text-align: center; text-anchor: middle; fill: rgb(119, 119, 119);" d="M 780.182,72.912 V 120 h 3.672 V 72.912 h 18.144 V 69.6 h -39.96 v 3.312 z" transform="translate(0 317.0581818181818) translate(737.6218181818178 44.03272727272727) scale(0.9090909090909091) translate(-762.038 -69.6)"></path> 
  </g> 
  <g id="tagline" style="font-style:normal;font-weight:400;font-size:32px;line-height:1;font-family:Montserrat;font-variant-ligatures:none;text-align:center;text-anchor:middle"></g> 
 </g> 
</svg>