<svg xmlns:dc="http://purl.org/dc/elements/1.1/" xmlns:cc="http://creativecommons.org/ns#" xmlns:rdf="http://www.w3.org/1999/02/22-rdf-syntax-ns#" xmlns:svg="http://www.w3.org/2000/svg" xmlns="http://www.w3.org/2000/svg" id="svg72635" viewbox="0 0 1024 768" height="768px" width="1024px" version="1.1"> <metadata id="metadata72641"> 
  <rdf:rdf> 
   <cc:work rdf:about=""> 
    <dc:format>
     image/svg+xml
    </dc:format> 
    <dc:type rdf:resource="http://purl.org/dc/dcmitype/StillImage"></dc:type> 
   </cc:work> 
  </rdf:rdf> 
 </metadata> <defs id="defs72639"></defs> <g id="logo-group"> 
  <g id="title" style="font-style:normal;font-weight:700;font-size:72px;line-height:1;font-family:Phenomena;font-variant-ligatures:none;text-align:center;text-anchor:middle" aria-label="o7Name"> 
   <path id="path72643" style="font-style: normal; font-weight: 700; font-size: 72px; line-height: 1; font-family: Phenomena; font-variant-ligatures: none; text-align: center; text-anchor: middle; fill: rgb(241, 196, 15);" d="m 433.72644,120.792 c 6.984,0 11.52,-4.896 11.52,-11.736 V 94.944 c 0,-6.84 -4.536,-11.736 -11.52,-11.736 -6.912,0 -11.52,4.896 -11.52,11.736 v 14.112 c 0,6.84 4.608,11.736 11.52,11.736 z m 0,-5.832 c -3.312,0 -5.256,-2.304 -5.256,-5.688 V 94.728 c 0,-3.384 1.944,-5.688 5.256,-5.688 3.312,0 5.328,2.304 5.328,5.688 v 14.544 c 0,3.384 -2.016,5.688 -5.328,5.688 z" transform="translate(0 173.57345254571425) translate(251.99999999999983 182.3960951959516) scale(2.4180859436106097) translate(-422.20644 -83.208)"></path> 
   <path id="path72645" style="font-style: normal; font-weight: 700; font-size: 72px; line-height: 1; font-family: Phenomena; font-variant-ligatures: none; text-align: center; text-anchor: middle; fill: rgb(241, 196, 15);" d="m 449.02194,70.536 v 4.104 c 0,0.648 0.36,1.008 0.936,1.008 h 13.752 l -10.44,43.272 c -0.144,0.648 0.144,1.08 0.864,1.08 h 4.536 c 0.576,0 0.936,-0.288 1.08,-0.864 L 470.26194,75 c 0.288,-1.224 0.36,-2.088 0.36,-3.384 0,-1.368 -0.792,-2.016 -2.16,-2.016 h -18.504 c -0.576,0 -0.936,0.36 -0.936,0.936 z" transform="translate(0 173.57345254571425) translate(333.7687852261643 149.49078167529842) scale(2.4180859436106097) translate(-449.02194 -69.6)"></path> 
   <path id="path72647" style="font-style: normal; font-weight: 700; font-size: 72px; line-height: 1; font-family: Phenomena; font-variant-ligatures: none; text-align: center; text-anchor: middle; fill: rgb(222, 134, 12);" d="m 477.37869,120 h 4.608 c 0.576,0 0.936,-0.36 0.936,-1.008 V 81.768 c 0,-4.104 2.232,-6.84 5.832,-6.84 3.6,0 5.832,2.736 5.832,6.84 v 37.224 c 0,0.648 0.432,1.008 1.008,1.008 h 4.536 c 0.648,0 1.008,-0.36 1.008,-1.008 V 82.056 c 0,-7.776 -4.896,-13.248 -12.384,-13.248 -7.488,0 -12.312,5.472 -12.312,13.248 v 36.936 c 0,0.648 0.36,1.008 0.936,1.008 z" transform="translate(0 173.57345254571425) translate(417.00111696969924 147.57565760795882) scale(2.4180859436106097) translate(-476.44269 -68.808)"></path> 
   <path id="path72649" style="font-style: normal; font-weight: 700; font-size: 72px; line-height: 1; font-family: Phenomena; font-variant-ligatures: none; text-align: center; text-anchor: middle; fill: rgb(222, 134, 12);" d="m 518.44456,120.72 c 6.912,0 11.232,-4.752 11.232,-11.376 V 94.872 c 0,-6.768 -4.392,-11.664 -11.232,-11.664 -6.408,0 -10.656,4.464 -11.088,10.728 0,0.576 0.36,1.008 0.936,1.008 h 4.176 c 0.648,0 0.936,-0.216 1.008,-0.864 0.216,-2.952 1.872,-4.968 4.896,-4.968 3.24,0 5.184,2.232 5.184,5.472 v 3.96 h -5.4 c -6.768,0 -11.376,4.608 -11.376,10.584 0,6.768 4.68,11.592 11.664,11.592 z m -0.072,-5.904 c -3.384,0 -5.4,-2.232 -5.4,-5.688 0,-2.808 2.016,-5.04 5.4,-5.04 h 5.184 v 5.256 c 0,3.312 -1.872,5.472 -5.184,5.472 z" transform="translate(0 173.57345254571425) translate(507.28729558105937 182.3960951959516) scale(2.4180859436106097) translate(-506.78056 -83.208)"></path> 
   <path id="path72651" style="font-style: normal; font-weight: 700; font-size: 72px; line-height: 1; font-family: Phenomena; font-variant-ligatures: none; text-align: center; text-anchor: middle; fill: rgb(222, 134, 12);" d="m 562.26894,83.208 c -3.384,0 -6.12,1.8 -7.776,4.392 -1.656,-2.592 -4.464,-4.392 -7.776,-4.392 -6.552,0 -10.872,4.896 -10.872,11.736 v 24.048 c 0,0.648 0.36,1.008 1.008,1.008 h 4.104 c 0.648,0 1.008,-0.36 1.008,-1.008 V 94.728 c 0,-3.384 1.728,-5.616 4.752,-5.616 3.024,0 4.68,2.232 4.68,5.616 v 24.264 c 0,0.648 0.36,1.008 1.008,1.008 h 4.176 c 0.576,0 0.936,-0.36 0.936,-1.008 V 94.728 c 0,-3.384 1.728,-5.616 4.752,-5.616 3.024,0 4.68,2.232 4.68,5.616 v 24.264 c 0,0.648 0.36,1.008 1.008,1.008 h 4.176 c 0.576,0 0.936,-0.36 0.936,-1.008 V 94.944 c 0,-6.84 -4.248,-11.736 -10.8,-11.736 z" transform="translate(0 173.57345254571425) translate(594.4940659240909 182.3960951959516) scale(2.4180859436106097) translate(-535.84494 -83.208)"></path> 
   <path id="path72653" style="font-style: normal; font-weight: 700; font-size: 72px; line-height: 1; font-family: Phenomena; font-variant-ligatures: none; text-align: center; text-anchor: middle; fill: rgb(222, 134, 12);" d="m 590.66056,120.72 c 6.48,0 11.016,-4.464 11.376,-11.16 0,-0.576 -0.36,-0.936 -0.936,-0.936 h -4.248 c -0.576,0 -0.936,0.288 -1.008,0.936 -0.216,3.168 -2.16,5.328 -5.112,5.328 -3.312,0 -5.256,-2.304 -5.256,-5.616 v -3.744 h 5.328 c 6.84,0 11.448,-4.536 11.448,-10.872 0,-6.624 -4.752,-11.448 -11.52,-11.376 -6.912,0 -11.376,4.752 -11.448,11.592 v 14.112 c 0,7.056 4.608,11.736 11.376,11.736 z m -5.184,-20.808 V 94.8 c 0,-3.456 1.872,-5.688 5.256,-5.688 3.312,0 5.328,2.232 5.328,5.688 0,3.024 -1.944,5.112 -5.256,5.112 z" transform="translate(0 173.57345254571425) translate(716.4614020471516 182.56827500556642) scale(2.4180859436106097) translate(-579.28456 -83.279205)"></path> 
  </g> 
  <g id="tagline" style="font-style:oblique;font-weight:normal;font-size:32px;line-height:1;font-family:'Fira Sans Condensed';font-variant-ligatures:none;text-align:center;text-anchor:middle"></g> 
 </g> 
</svg>