<svg xmlns:dc="http://purl.org/dc/elements/1.1/" xmlns:cc="http://creativecommons.org/ns#" xmlns:rdf="http://www.w3.org/1999/02/22-rdf-syntax-ns#" xmlns:svg="http://www.w3.org/2000/svg" xmlns="http://www.w3.org/2000/svg" id="svg257779" viewbox="0 0 1024 768" height="768px" width="1024px" version="1.1"> <metadata id="metadata257785"> 
  <rdf:rdf> 
   <cc:work rdf:about=""> 
    <dc:format>
     image/svg+xml
    </dc:format> 
    <dc:type rdf:resource="http://purl.org/dc/dcmitype/StillImage"></dc:type> 
   </cc:work> 
  </rdf:rdf> 
 </metadata> <defs id="defs257783"></defs> <g id="logo-group"> 
  <g id="title" style="font-style:normal;font-weight:700;font-size:72px;line-height:1;font-family:Phenomena;font-variant-ligatures:none;text-align:center;text-anchor:middle" aria-label="O7NATIONALLEVEL"> 
   <path id="path257787" style="font-style: normal; font-weight: 700; font-size: 72px; line-height: 1; font-family: Phenomena; font-variant-ligatures: none; text-align: center; text-anchor: middle; fill: rgb(20, 16, 17);" d="m 323.79312,120.72 c 7.488,0 12.672,-5.472 12.672,-13.032 V 81.912 c 0,-7.56 -5.184,-13.032 -12.672,-13.032 -7.488,0 -12.744,5.472 -12.744,13.536 v 24.768 c 0,8.064 5.256,13.536 12.744,13.536 z m 0,-6.048 c -3.672,0 -6.19199,-2.736 -6.19199,-7.2 V 82.128 c 0,-4.464 2.51999,-7.2 6.19199,-7.2 3.672,0 6.12,2.736 6.12,6.696 v 26.352 c 0,3.96 -2.448,6.696 -6.12,6.696 z" transform="translate(0 322.5721156233605) translate(251.9999999999999 39.512118566786214) scale(0.8466916168232612) translate(-311.04912 -68.88)"></path> 
   <path id="path257789" style="font-style: normal; font-weight: 700; font-size: 72px; line-height: 1; font-family: Phenomena; font-variant-ligatures: none; text-align: center; text-anchor: middle; fill: rgb(20, 16, 17);" d="m 340.52975,70.536 v 4.104 c 0,0.648 0.36,1.008 0.936,1.008 h 13.752 l -10.44,43.272 c -0.144,0.648 0.144,1.08 0.864,1.08 h 4.536 c 0.576,0 0.936,-0.288 1.08,-0.864 L 361.76975,75 c 0.288,-1.224 0.36,-2.088 0.36,-3.384 0,-1.368 -0.792,-2.016 -2.16,-2.016 h -18.504 c -0.576,0 -0.936,0.36 -0.936,0.936 z" transform="translate(0 322.5721156233605) translate(289.66137653201713 40.12173653089897) scale(0.8466916168232612) translate(-340.52975 -69.6)"></path> 
   <path id="path257791" style="font-style: normal; font-weight: 700; font-size: 72px; line-height: 1; font-family: Phenomena; font-variant-ligatures: none; text-align: center; text-anchor: middle; fill: rgb(72, 65, 63);" d="m 368.8865,120 h 4.608 c 0.576,0 0.936,-0.36 0.936,-1.008 V 81.768 c 0,-4.104 2.232,-6.84 5.832,-6.84 3.6,0 5.832,2.736 5.832,6.84 v 37.224 c 0,0.648 0.432,1.008 1.008,1.008 h 4.536 c 0.648,0 1.008,-0.36 1.008,-1.008 V 82.056 c 0,-7.776 -4.896,-13.248 -12.384,-13.248 -7.488,0 -12.312,5.472 -12.312,13.248 v 36.936 c 0,0.648 0.36,1.008 0.936,1.008 z" transform="translate(0 322.5721156233605) translate(325.5786699363724 39.451156770374965) scale(0.8466916168232612) translate(-367.9505 -68.808)"></path> 
   <path id="path257793" style="font-style: normal; font-weight: 700; font-size: 72px; line-height: 1; font-family: Phenomena; font-variant-ligatures: none; text-align: center; text-anchor: middle; fill: rgb(72, 65, 63);" d="m 401.37087,120 h 4.60801 c 0.57599,0 0.93599,-0.36 0.93599,-1.008 v -15.984 h 11.664 v 15.984 c 0,0.648 0.432,1.008 1.00801,1.008 h 4.536 c 0.64799,0 1.00799,-0.36 1.00799,-1.008 V 82.128 c 0,-7.92 -4.968,-13.248 -12.384,-13.248 -7.416,0 -12.312,5.328 -12.312,13.248 v 36.864 c 0,0.648 0.36,1.008 0.936,1.008 z m 5.544,-22.968 V 81.84 c 0,-4.32 2.16001,-6.84 5.832,-6.84 3.74401,0 5.832,2.52 5.832,6.84 v 15.192 z" transform="translate(0 322.5721156233605) translate(365.7832879455064 39.512118566786214) scale(0.8466916168232612) translate(-400.43487 -68.88)"></path> 
   <path id="path257795" style="font-style: normal; font-weight: 700; font-size: 72px; line-height: 1; font-family: Phenomena; font-variant-ligatures: none; text-align: center; text-anchor: middle; fill: rgb(72, 65, 63);" d="m 451.31975,69.6 h -22.104 c -0.576,0 -0.936,0.36 -0.936,0.936 v 4.104 c 0,0.648 0.36,1.008 0.936,1.008 h 7.848 v 43.344 c 0,0.648 0.36,1.008 0.936,1.008 h 4.536 c 0.648,0 1.008,-0.36 1.008,-1.008 V 75.648 h 7.776 c 0.648,0 1.008,-0.36 1.008,-1.008 v -4.104 c 0,-0.576 -0.36,-0.936 -1.008,-0.936 z" transform="translate(0 322.5721156233605) translate(402.059688665305 40.12173653089897) scale(0.8466916168232612) translate(-428.27975 -69.6)"></path> 
   <path id="path257797" style="font-style: normal; font-weight: 700; font-size: 72px; line-height: 1; font-family: Phenomena; font-variant-ligatures: none; text-align: center; text-anchor: middle; fill: rgb(72, 65, 63);" d="m 457.2575,70.536 v 48.456 c 0,0.648 0.36,1.008 1.008,1.008 h 4.536 c 0.576,0 0.936,-0.36 0.936,-1.008 V 70.536 c 0,-0.576 -0.36,-0.936 -0.936,-0.936 h -4.536 c -0.648,0 -1.008,0.36 -1.008,0.936 z" transform="translate(0 322.5721156233605) translate(439.2952809170542 40.12173653089897) scale(0.8466916168232612) translate(-457.2575 -69.6)"></path> 
   <path id="path257799" style="font-style: normal; font-weight: 700; font-size: 72px; line-height: 1; font-family: Phenomena; font-variant-ligatures: none; text-align: center; text-anchor: middle; fill: rgb(72, 65, 63);" d="m 483.965,120.72 c 7.488,0 12.672,-5.472 12.672,-13.032 V 81.912 c 0,-7.56 -5.184,-13.032 -12.672,-13.032 -7.488,0 -12.744,5.472 -12.744,13.536 v 24.768 c 0,8.064 5.256,13.536 12.744,13.536 z m 0,-6.048 c -3.672,0 -6.192,-2.736 -6.192,-7.2 V 82.128 c 0,-4.464 2.52,-7.2 6.192,-7.2 3.672,0 6.12,2.736 6.12,6.696 v 26.352 c 0,3.96 -2.448,6.696 -6.12,6.696 z" transform="translate(0 322.5721156233605) translate(463.8184335609147 39.512118566786214) scale(0.8466916168232612) translate(-471.221 -68.88)"></path> 
   <path id="path257801" style="font-style: normal; font-weight: 700; font-size: 72px; line-height: 1; font-family: Phenomena; font-variant-ligatures: none; text-align: center; text-anchor: middle; fill: rgb(72, 65, 63);" d="m 504.58962,120 h 4.60801 c 0.57599,0 0.93599,-0.36 0.93599,-1.008 V 81.768 c 0,-4.104 2.23201,-6.84 5.83201,-6.84 3.59999,0 5.832,2.736 5.832,6.84 v 37.224 c 0,0.648 0.43199,1.008 1.00799,1.008 h 4.53601 c 0.648,0 1.008,-0.36 1.008,-1.008 V 82.056 c 0,-7.776 -4.89601,-13.248 -12.384,-13.248 -7.48801,0 -12.31201,5.472 -12.31201,13.248 v 36.936 c 0,0.648 0.36,1.008 0.936,1.008 z" transform="translate(0 322.5721156233605) translate(503.97923527887804 39.451156770374965) scale(0.8466916168232612) translate(-503.65362 -68.808)"></path> 
   <path id="path257803" style="font-style: normal; font-weight: 700; font-size: 72px; line-height: 1; font-family: Phenomena; font-variant-ligatures: none; text-align: center; text-anchor: middle; fill: rgb(72, 65, 63);" d="m 537.074,120 h 4.608 c 0.576,0 0.936,-0.36 0.936,-1.008 v -15.984 h 11.664 v 15.984 c 0,0.648 0.432,1.008 1.008,1.008 h 4.536 c 0.648,0 1.008,-0.36 1.008,-1.008 V 82.128 c 0,-7.92 -4.968,-13.248 -12.384,-13.248 -7.416,0 -12.312,5.328 -12.312,13.248 v 36.864 c 0,0.648 0.36,1.008 0.936,1.008 z m 5.544,-22.968 V 81.84 c 0,-4.32 2.16,-6.84 5.832,-6.84 3.744,0 5.832,2.52 5.832,6.84 v 15.192 z" transform="translate(0 322.5721156233605) translate(544.1838617549283 39.512118566786214) scale(0.8466916168232612) translate(-536.138 -68.88)"></path> 
   <path id="path257805" style="font-style: normal; font-weight: 700; font-size: 72px; line-height: 1; font-family: Phenomena; font-variant-ligatures: none; text-align: center; text-anchor: middle; fill: rgb(72, 65, 63);" d="m 580.86238,114.168 c -3.312,0 -5.688,-2.736 -5.688,-6.84 V 70.536 c 0,-0.576 -0.36,-0.936 -1.008,-0.936 h -4.60801 c -0.57599,0 -0.93599,0.36 -0.93599,0.936 v 37.008 c 0,7.2 4.53599,12.672 11.88,12.672 h 7.27199 c 0.648,0 1.008,-0.36 1.008,-0.936 v -4.104 c 0,-0.648 -0.36,-1.008 -1.008,-1.008 z" transform="translate(0 322.5721156233605) translate(584.3884882309784 40.12173653089897) scale(0.8466916168232612) translate(-568.62238 -69.6)"></path> 
   <path id="path257807" style="font-style: normal; font-weight: 700; font-size: 72px; line-height: 1; font-family: Phenomena; font-variant-ligatures: none; text-align: center; text-anchor: middle; fill: rgb(116, 106, 102);" d="m 603.92488,114.168 c -3.312,0 -5.688,-2.736 -5.688,-6.84 V 70.536 c 0,-0.576 -0.36,-0.936 -1.008,-0.936 h -4.60801 c -0.57599,0 -0.93599,0.36 -0.93599,0.936 v 37.008 c 0,7.2 4.53599,12.672 11.88,12.672 h 7.27199 c 0.648,0 1.008,-0.36 1.008,-0.936 v -4.104 c 0,-0.648 -0.36,-1.008 -1.008,-1.008 z" transform="translate(0 322.5721156233605) translate(616.6156878963138 40.12173653089897) scale(0.8466916168232612) translate(-591.68488 -69.6)"></path> 
   <path id="path257809" style="font-style: normal; font-weight: 700; font-size: 72px; line-height: 1; font-family: Phenomena; font-variant-ligatures: none; text-align: center; text-anchor: middle; fill: rgb(116, 106, 102);" d="m 626.26738,120.216 h 7.55999 c 0.576,0 0.936,-0.36 0.936,-0.936 v -4.104 c 0,-0.648 -0.36,-1.008 -0.936,-1.008 h -7.05599 c -3.74401,0 -6.264,-2.88 -6.264,-6.984 v -9.72 h 11.51999 c 0.64801,0 1.00801,-0.36 1.00801,-1.008 v -3.888 c 0,-0.648 -0.36,-1.008 -1.00801,-1.008 h -11.51999 v -9.144 c 0,-4.104 2.51999,-6.984 6.264,-6.984 h 7.05599 c 0.576,0 0.936,-0.36 0.936,-1.008 V 70.32 c 0,-0.576 -0.36,-0.936 -0.936,-0.936 h -7.55999 c -7.27201,0 -12.31201,5.472 -12.31201,12.888 v 25.056 c 0,7.416 5.04,12.888 12.31201,12.888 z" transform="translate(0 322.5721156233605) translate(648.172299334209 39.938851141665154) scale(0.8466916168232612) translate(-613.95537 -69.384)"></path> 
   <path id="path257811" style="font-style: normal; font-weight: 700; font-size: 72px; line-height: 1; font-family: Phenomena; font-variant-ligatures: none; text-align: center; text-anchor: middle; fill: rgb(116, 106, 102);" d="m 663.947,69.6 h -4.68 c -0.576,0 -0.936,0.288 -1.008,0.864 l -7.056,42.192 -7.056,-42.192 c -0.072,-0.576 -0.504,-0.864 -1.08,-0.864 h -4.68 c -0.648,0 -0.936,0.432 -0.864,1.008 l 8.568,47.016 c 0.288,1.728 1.368,2.664 3.096,2.664 h 3.96 c 1.728,0 2.808,-0.936 3.096,-2.664 l 8.568,-47.016 c 0.144,-0.576 -0.216,-1.008 -0.864,-1.008 z" transform="translate(0 322.5721156233605) translate(680.8180440664886 40.12173653089897) scale(0.8466916168232612) translate(-637.5122 -69.6)"></path> 
   <path id="path257813" style="font-style: normal; font-weight: 700; font-size: 72px; line-height: 1; font-family: Phenomena; font-variant-ligatures: none; text-align: center; text-anchor: middle; fill: rgb(116, 106, 102);" d="m 680.68925,120.216 h 7.56 c 0.576,0 0.936,-0.36 0.936,-0.936 v -4.104 c 0,-0.648 -0.36,-1.008 -0.936,-1.008 h -7.056 c -3.744,0 -6.264,-2.88 -6.264,-6.984 v -9.72 h 11.52 c 0.648,0 1.008,-0.36 1.008,-1.008 v -3.888 c 0,-0.648 -0.36,-1.008 -1.008,-1.008 h -11.52 v -9.144 c 0,-4.104 2.52,-6.984 6.264,-6.984 h 7.056 c 0.576,0 0.936,-0.36 0.936,-1.008 V 70.32 c 0,-0.576 -0.36,-0.936 -0.936,-0.936 h -7.56 c -7.272,0 -12.312,5.472 -12.312,12.888 v 25.056 c 0,7.416 5.04,12.888 12.312,12.888 z" transform="translate(0 322.5721156233605) translate(719.6515974066683 39.938851141665154) scale(0.8466916168232612) translate(-668.37725 -69.384)"></path> 
   <path id="path257815" style="font-style: normal; font-weight: 700; font-size: 72px; line-height: 1; font-family: Phenomena; font-variant-ligatures: none; text-align: center; text-anchor: middle; fill: rgb(116, 106, 102);" d="m 707.28425,114.168 c -3.312,0 -5.688,-2.736 -5.688,-6.84 V 70.536 c 0,-0.576 -0.36,-0.936 -1.008,-0.936 h -4.608 c -0.576,0 -0.936,0.36 -0.936,0.936 v 37.008 c 0,7.2 4.536,12.672 11.88,12.672 h 7.272 c 0.648,0 1.008,-0.36 1.008,-0.936 v -4.104 c 0,-0.648 -0.36,-1.008 -1.008,-1.008 z" transform="translate(0 322.5721156233605) translate(754.9306970048431 40.12173653089897) scale(0.8466916168232612) translate(-695.04425 -69.6)"></path> 
  </g> 
  <g id="tagline" style="font-style:oblique;font-weight:normal;font-size:32px;line-height:1;font-family:'Fira Sans Condensed';font-variant-ligatures:none;text-align:center;text-anchor:middle"></g> 
 </g> 
</svg>