<svg xmlns:dc="http://purl.org/dc/elements/1.1/" xmlns:cc="http://creativecommons.org/ns#" xmlns:rdf="http://www.w3.org/1999/02/22-rdf-syntax-ns#" xmlns:svg="http://www.w3.org/2000/svg" xmlns="http://www.w3.org/2000/svg" id="svg376736" viewbox="0 0 1024 768" height="768px" width="1024px" version="1.1"> <metadata id="metadata376742"> 
  <rdf:rdf> 
   <cc:work rdf:about=""> 
    <dc:format>
     image/svg+xml
    </dc:format> 
    <dc:type rdf:resource="http://purl.org/dc/dcmitype/StillImage"></dc:type> 
   </cc:work> 
  </rdf:rdf> 
 </metadata> <defs id="defs376740"></defs> <g id="logo-group"> 
  <g id="title" style="font-style:normal;font-weight:700;font-size:72px;line-height:1;font-family:Phenomena;font-variant-ligatures:none;text-align:center;text-anchor:middle" aria-label="O7ORACLE"> 
   <path id="path376744" style="font-style: normal; font-weight: 700; font-size: 72px; line-height: 1; font-family: Phenomena; font-variant-ligatures: none; text-align: center; text-anchor: middle; fill: rgb(22, 22, 22);" d="m 412.59781,120.72 c 7.488,0 12.672,-5.472 12.672,-13.032 V 81.912 c 0,-7.56 -5.184,-13.032 -12.672,-13.032 -7.488,0 -12.744,5.472 -12.744,13.536 v 24.768 c 0,8.064 5.256,13.536 12.744,13.536 z m 0,-6.048 c -3.672,0 -6.192,-2.736 -6.192,-7.2 V 82.128 c 0,-4.464 2.52,-7.2 6.192,-7.2 3.672,0 6.12,2.736 6.12,6.696 v 26.352 c 0,3.96 -2.448,6.696 -6.12,6.696 z" transform="translate(0 223.0771259831539) translate(252.0000000000001 111.78126795654386) scale(1.8958952955363513) translate(-399.85381 -68.88)"></path> 
   <path id="path376746" style="font-style: normal; font-weight: 700; font-size: 72px; line-height: 1; font-family: Phenomena; font-variant-ligatures: none; text-align: center; text-anchor: middle; fill: rgb(22, 22, 22);" d="m 429.33444,70.536 v 4.104 c 0,0.648 0.36,1.008 0.936,1.008 h 13.752 l -10.44,43.272 c -0.144,0.648 0.144,1.08 0.864,1.08 h 4.536 c 0.576,0 0.936,-0.288 1.08,-0.864 L 450.57444,75 c 0.288,-1.224 0.36,-2.088 0.36,-3.384 0,-1.368 -0.792,-2.016 -2.16,-2.016 h -18.504 c -0.576,0 -0.936,0.36 -0.936,0.936 z" transform="translate(0 223.0771259831539) translate(321.1634547952023 113.14631256933002) scale(1.8958952955363513) translate(-429.33444 -69.6)"></path> 
   <path id="path376748" style="font-style: normal; font-weight: 700; font-size: 72px; line-height: 1; font-family: Phenomena; font-variant-ligatures: none; text-align: center; text-anchor: middle; fill: rgb(200, 199, 204);" d="m 468.70719,120.72 c 7.488,0 12.672,-5.472 12.672,-13.032 V 81.912 c 0,-7.56 -5.184,-13.032 -12.672,-13.032 -7.488,0 -12.744,5.472 -12.744,13.536 v 24.768 c 0,8.064 5.256,13.536 12.744,13.536 z m 0,-6.048 c -3.672,0 -6.192,-2.736 -6.192,-7.2 V 82.128 c 0,-4.464 2.52,-7.2 6.192,-7.2 3.672,0 6.12,2.736 6.12,6.696 v 26.352 c 0,3.96 -2.448,6.696 -6.12,6.696 z" transform="translate(0 223.0771259831539) translate(384.9200437149704 111.78126795654386) scale(1.8958952955363513) translate(-455.96319 -68.88)"></path> 
   <path id="path376750" style="font-style: normal; font-weight: 700; font-size: 72px; line-height: 1; font-family: Phenomena; font-variant-ligatures: none; text-align: center; text-anchor: middle; fill: rgb(200, 199, 204);" d="m 489.33181,120 h 4.608 c 0.576,0 0.936,-0.36 0.936,-1.008 v -18 h 5.832 l 6.84,18.144 c 0.144,0.576 0.432,0.864 1.008,0.864 h 4.896 c 0.648,0 1.152,-0.432 0.936,-1.08 l -7.704,-19.44 c 3.744,-2.016 6.408,-6.048 6.408,-11.592 v -5.76 c 0,-7.848 -5.04,-13.32 -12.456,-13.32 -7.272,0 -12.24,5.472 -12.24,13.32 v 36.864 c 0,0.648 0.36,1.008 0.936,1.008 z m 5.544,-24.984 V 81.84 c 0,-4.176 2.376,-6.912 5.832,-6.912 3.456,0 5.832,2.736 5.832,6.912 v 6.192 c 0,4.248 -2.376,6.984 -6.12,6.984 z" transform="translate(0 223.0771259831539) translate(459.680162463643 111.64476349526525) scale(1.8958952955363513) translate(-488.39581 -68.808)"></path> 
   <path id="path376752" style="font-style: normal; font-weight: 700; font-size: 72px; line-height: 1; font-family: Phenomena; font-variant-ligatures: none; text-align: center; text-anchor: middle; fill: rgb(200, 199, 204);" d="m 521.11306,120 h 4.608 c 0.576,0 0.936,-0.36 0.936,-1.008 v -15.984 h 11.664 v 15.984 c 0,0.648 0.432,1.008 1.008,1.008 h 4.536 c 0.648,0 1.008,-0.36 1.008,-1.008 V 82.128 c 0,-7.92 -4.968,-13.248 -12.384,-13.248 -7.416,0 -12.312,5.328 -12.312,13.248 v 36.864 c 0,0.648 0.36,1.008 0.936,1.008 z m 5.544,-22.968 V 81.84 c 0,-4.32 2.16,-6.84 5.832,-6.84 3.744,0 5.832,2.52 5.832,6.84 v 15.192 z" transform="translate(0 223.0771259831539) translate(533.2053518936622 111.78126795654386) scale(1.8958952955363513) translate(-520.17706 -68.88)"></path> 
   <path id="path376754" style="font-style: normal; font-weight: 700; font-size: 72px; line-height: 1; font-family: Phenomena; font-variant-ligatures: none; text-align: center; text-anchor: middle; fill: rgb(200, 199, 204);" d="m 564.18144,120.792 c 7.344,0 12.168,-5.544 12.456,-14.256 0,-0.648 -0.36,-1.008 -0.936,-1.008 h -4.608 c -0.576,0 -0.936,0.288 -0.936,0.936 -0.144,5.256 -2.376,8.208 -6.048,8.208 -3.6,0 -5.688,-2.448 -5.688,-6.48 V 81.408 c 0,-4.032 2.088,-6.48 5.688,-6.48 3.312,0 5.544,2.664 5.688,7.704 0,0.648 0.36,0.936 0.936,0.936 h 4.608 c 0.648,0 0.936,-0.36 0.936,-0.936 -0.216,-8.424 -5.04,-13.824 -12.096,-13.824 -7.344,0 -12.312,5.184 -12.312,12.96 v 26.064 c 0,7.776 4.968,12.96 12.312,12.96 z" transform="translate(0 223.0771259831539) translate(606.562053108767 111.64476349526525) scale(1.8958952955363513) translate(-551.86944 -68.808)"></path> 
   <path id="path376756" style="font-style: normal; font-weight: 700; font-size: 72px; line-height: 1; font-family: Phenomena; font-variant-ligatures: none; text-align: center; text-anchor: middle; fill: rgb(200, 199, 204);" d="m 594.29206,114.168 c -3.312,0 -5.688,-2.736 -5.688,-6.84 V 70.536 c 0,-0.576 -0.36,-0.936 -1.008,-0.936 h -4.608 c -0.576,0 -0.936,0.36 -0.936,0.936 v 37.008 c 0,7.2 4.536,12.672 11.88,12.672 h 7.272 c 0.648,0 1.008,-0.36 1.008,-0.936 v -4.104 c 0,-0.648 -0.36,-1.008 -1.008,-1.008 z" transform="translate(0 223.0771259831539) translate(677.0564074424827 113.14631256933002) scale(1.8958952955363513) translate(-582.05206 -69.6)"></path> 
   <path id="path376758" style="font-style: normal; font-weight: 700; font-size: 72px; line-height: 1; font-family: Phenomena; font-variant-ligatures: none; text-align: center; text-anchor: middle; fill: rgb(200, 199, 204);" d="m 616.63456,120.216 h 7.56 c 0.576,0 0.936,-0.36 0.936,-0.936 v -4.104 c 0,-0.648 -0.36,-1.008 -0.936,-1.008 h -7.056 c -3.744,0 -6.264,-2.88 -6.264,-6.984 v -9.72 h 11.52 c 0.648,0 1.008,-0.36 1.008,-1.008 v -3.888 c 0,-0.648 -0.36,-1.008 -1.008,-1.008 h -11.52 v -9.144 c 0,-4.104 2.52,-6.984 6.264,-6.984 h 7.056 c 0.576,0 0.936,-0.36 0.936,-1.008 V 70.32 c 0,-0.576 -0.36,-0.936 -0.936,-0.936 h -7.56 c -7.272,0 -12.312,5.472 -12.312,12.888 v 25.056 c 0,7.416 5.04,12.888 12.312,12.888 z" transform="translate(0 223.0771259831539) translate(732.5502106904795 112.73679918549418) scale(1.8958952955363513) translate(-604.32256 -69.384)"></path> 
  </g> 
  <g id="tagline" style="font-style:oblique;font-weight:normal;font-size:32px;line-height:1;font-family:'Fira Sans Condensed';font-variant-ligatures:none;text-align:center;text-anchor:middle"></g> 
 </g> 
</svg>