<svg xmlns:dc="http://purl.org/dc/elements/1.1/" xmlns:cc="http://creativecommons.org/ns#" xmlns:rdf="http://www.w3.org/1999/02/22-rdf-syntax-ns#" xmlns:svg="http://www.w3.org/2000/svg" xmlns="http://www.w3.org/2000/svg" id="svg121431" viewbox="0 0 1024 768" height="768px" width="1024px" version="1.1"> <metadata id="metadata121437"> 
  <rdf:rdf> 
   <cc:work rdf:about=""> 
    <dc:format>
     image/svg+xml
    </dc:format> 
    <dc:type rdf:resource="http://purl.org/dc/dcmitype/StillImage"></dc:type> 
   </cc:work> 
  </rdf:rdf> 
 </metadata> <defs id="defs121435"></defs> <g id="logo-group"> 
  <g id="title" style="font-style:normal;font-weight:700;font-size:72px;line-height:1;font-family:Phenomena;font-variant-ligatures:none;text-align:center;text-anchor:middle" aria-label="O7OPEDIA"> 
   <path id="path121439" style="font-style: normal; font-weight: 700; font-size: 72px; line-height: 1; font-family: Phenomena; font-variant-ligatures: none; text-align: center; text-anchor: middle; fill: rgb(127, 127, 127);" d="m 415.97281,120.72 c 7.488,0 12.672,-5.472 12.672,-13.032 V 81.912 c 0,-7.56 -5.184,-13.032 -12.672,-13.032 -7.488,0 -12.744,5.472 -12.744,13.536 v 24.768 c 0,8.064 5.256,13.536 12.744,13.536 z m 0,-6.048 c -3.672,0 -6.192,-2.736 -6.192,-7.2 V 82.128 c 0,-4.464 2.52,-7.2 6.192,-7.2 3.672,0 6.12,2.736 6.12,6.696 v 26.352 c 0,3.96 -2.448,6.696 -6.12,6.696 z" transform="translate(0 175.44925349500312) translate(252 146.44959211582653) scale(2.3992101062111866) translate(-403.22881 -68.88)"></path> 
   <path id="path121441" style="font-style: normal; font-weight: 700; font-size: 72px; line-height: 1; font-family: Phenomena; font-variant-ligatures: none; text-align: center; text-anchor: middle; fill: rgb(127, 127, 127);" d="m 432.70944,70.536 v 4.104 c 0,0.648 0.36,1.008 0.936,1.008 h 13.752 l -10.44,43.272 c -0.144,0.648 0.144,1.08 0.864,1.08 h 4.536 c 0.576,0 0.936,-0.288 1.08,-0.864 L 453.94944,75 c 0.288,-1.224 0.36,-2.088 0.36,-3.384 0,-1.368 -0.792,-2.016 -2.16,-2.016 h -18.504 c -0.576,0 -0.936,0.36 -0.936,0.936 z" transform="translate(0 175.44925349500312) translate(322.7302254334726 148.17702339229857) scale(2.3992101062111866) translate(-432.70944 -69.6)"></path> 
   <path id="path121443" style="font-style: normal; font-weight: 700; font-size: 72px; line-height: 1; font-family: Phenomena; font-variant-ligatures: none; text-align: center; text-anchor: middle; fill: rgb(189, 222, 206);" d="m 472.08219,120.72 c 7.488,0 12.672,-5.472 12.672,-13.032 V 81.912 c 0,-7.56 -5.184,-13.032 -12.672,-13.032 -7.488,0 -12.744,5.472 -12.744,13.536 v 24.768 c 0,8.064 5.256,13.536 12.744,13.536 z m 0,-6.048 c -3.672,0 -6.192,-2.736 -6.192,-7.2 V 82.128 c 0,-4.464 2.52,-7.2 6.192,-7.2 3.672,0 6.12,2.736 6.12,6.696 v 26.352 c 0,3.96 -2.448,6.696 -6.12,6.696 z" transform="translate(0 175.44925349500312) translate(386.61819154924376 146.44959211582653) scale(2.3992101062111866) translate(-459.33819 -68.88)"></path> 
   <path id="path121445" style="font-style: normal; font-weight: 700; font-size: 72px; line-height: 1; font-family: Phenomena; font-variant-ligatures: none; text-align: center; text-anchor: middle; fill: rgb(189, 222, 206);" d="m 492.70681,120 h 4.608 c 0.576,0 0.936,-0.36 0.936,-1.008 v -17.136 h 5.688 c 7.488,0 12.312,-5.04 12.312,-12.384 v -7.344 c 0,-7.848 -4.896,-13.32 -12.384,-13.32 -7.416,0 -12.096,5.472 -12.096,13.32 v 36.864 c 0,0.648 0.36,1.008 0.936,1.008 z m 5.544,-24.192 V 81.84 c 0,-4.176 2.16,-6.912 5.688,-6.912 3.528,0 5.76,2.736 5.76,6.912 v 7.776 c 0,3.888 -2.232,6.192 -5.976,6.192 z" transform="translate(0 175.44925349500312) translate(464.43086122415076 146.27684898817932) scale(2.3992101062111866) translate(-491.77081 -68.808)"></path> 
   <path id="path121447" style="font-style: normal; font-weight: 700; font-size: 72px; line-height: 1; font-family: Phenomena; font-variant-ligatures: none; text-align: center; text-anchor: middle; fill: rgb(189, 222, 206);" d="m 533.52519,120.216 h 7.56 c 0.576,0 0.936,-0.36 0.936,-0.936 v -4.104 c 0,-0.648 -0.36,-1.008 -0.936,-1.008 h -7.056 c -3.744,0 -6.264,-2.88 -6.264,-6.984 v -9.72 h 11.52 c 0.648,0 1.008,-0.36 1.008,-1.008 v -3.888 c 0,-0.648 -0.36,-1.008 -1.008,-1.008 h -11.52 v -9.144 c 0,-4.104 2.52,-6.984 6.264,-6.984 h 7.056 c 0.576,0 0.936,-0.36 0.936,-1.008 V 70.32 c 0,-0.576 -0.36,-0.936 -0.936,-0.936 h -7.56 c -7.272,0 -12.312,5.472 -12.312,12.888 v 25.056 c 0,7.416 5.04,12.888 12.312,12.888 z" transform="translate(0 175.44925349500312) translate(535.069316871061 147.65879400935694) scale(2.3992101062111866) translate(-521.21319 -69.384)"></path> 
   <path id="path121449" style="font-style: normal; font-weight: 700; font-size: 72px; line-height: 1; font-family: Phenomena; font-variant-ligatures: none; text-align: center; text-anchor: middle; fill: rgb(189, 222, 206);" d="m 551.40481,120.216 h 9.288 c 7.488,0 12.312,-5.472 12.312,-13.032 V 82.416 c 0,-7.56 -4.752,-13.032 -12.312,-13.032 h -9.288 c -1.872,0 -2.952,1.008 -2.952,2.88 v 45.072 c 0,1.872 1.08,2.88 2.952,2.88 z m 3.6,-6.048 V 75.432 h 5.472 c 3.816,0 5.976,2.736 5.976,6.84 v 25.056 c 0,4.104 -2.232,6.84 -5.976,6.84 z" transform="translate(0 175.44925349500312) translate(600.4228884644132 147.65879400935694) scale(2.3992101062111866) translate(-548.45281 -69.384)"></path> 
   <path id="path121451" style="font-style: normal; font-weight: 700; font-size: 72px; line-height: 1; font-family: Phenomena; font-variant-ligatures: none; text-align: center; text-anchor: middle; fill: rgb(189, 222, 206);" d="m 580.51531,70.536 v 48.456 c 0,0.648 0.36,1.008 1.008,1.008 h 4.536 c 0.576,0 0.936,-0.36 0.936,-1.008 V 70.536 c 0,-0.576 -0.36,-0.936 -0.936,-0.936 h -4.536 c -0.648,0 -1.008,0.36 -1.008,0.936 z" transform="translate(0 175.44925349500312) translate(677.3475624948094 148.17702339229857) scale(2.3992101062111866) translate(-580.51531 -69.6)"></path> 
   <path id="path121453" style="font-style: normal; font-weight: 700; font-size: 72px; line-height: 1; font-family: Phenomena; font-variant-ligatures: none; text-align: center; text-anchor: middle; fill: rgb(189, 222, 206);" d="m 596.20681,120 h 4.608 c 0.576,0 0.936,-0.36 0.936,-1.008 v -15.984 h 11.664 v 15.984 c 0,0.648 0.432,1.008 1.008,1.008 h 4.536 c 0.648,0 1.008,-0.36 1.008,-1.008 V 82.128 c 0,-7.92 -4.968,-13.248 -12.384,-13.248 -7.416,0 -12.312,5.328 -12.312,13.248 v 36.864 c 0,0.648 0.36,1.008 0.936,1.008 z m 5.544,-22.968 V 81.84 c 0,-4.32 2.16,-6.84 5.832,-6.84 3.744,0 5.832,2.52 5.832,6.84 v 15.192 z" transform="translate(0 175.44925349500312) translate(712.7491072170085 146.44959211582653) scale(2.3992101062111866) translate(-595.27081 -68.88)"></path> 
  </g> 
  <g id="tagline" style="font-style:oblique;font-weight:normal;font-size:32px;line-height:1;font-family:'Fira Sans Condensed';font-variant-ligatures:none;text-align:center;text-anchor:middle"></g> 
 </g> 
</svg>