<svg xmlns:dc="http://purl.org/dc/elements/1.1/" xmlns:cc="http://creativecommons.org/ns#" xmlns:rdf="http://www.w3.org/1999/02/22-rdf-syntax-ns#" xmlns:svg="http://www.w3.org/2000/svg" xmlns="http://www.w3.org/2000/svg" id="svg61268" viewbox="0 0 1024 768" height="768px" width="1024px" version="1.1"> <metadata id="metadata61274"> 
  <rdf:rdf> 
   <cc:work rdf:about=""> 
    <dc:format>
     image/svg+xml
    </dc:format> 
    <dc:type rdf:resource="http://purl.org/dc/dcmitype/StillImage"></dc:type> 
   </cc:work> 
  </rdf:rdf> 
 </metadata> <defs id="defs61272"></defs> <g id="logo-group"> 
  <g id="title" style="font-style:normal;font-weight:500;font-size:72px;line-height:1;font-family:'Raleway Medium Alt1';font-variant-ligatures:none;text-align:center;text-anchor:middle" aria-label="O7ONDEMAND"> 
   <path id="path61276" style="font-style: normal; font-weight: 500; font-size: 72px; line-height: 1; font-family: &quot;Raleway Medium Alt1&quot;; font-variant-ligatures: none; text-align: center; text-anchor: middle; fill: rgb(101, 210, 174);" d="m 298.44237,97.248 c -0.21599,1.512 -0.504,3.024 -1.008,4.464 -0.79199,2.448 -1.94399,4.608 -3.45599,6.48 -1.51201,1.872 -3.384,3.456 -5.47201,4.608 -2.23199,1.152 -4.68,1.728 -7.344,1.728 -2.664,0 -5.04,-0.504 -7.2,-1.656 -2.16,-1.08 -4.03199,-2.592 -5.54399,-4.464 -1.584,-1.872 -2.73601,-3.96 -3.60001,-6.408 -0.504,-1.512 -0.86399,-3.096 -1.07999,-4.752 h -6.55201 c 0.216,2.304 0.72001,4.608 1.584,6.768 1.08,3.168 2.736,5.904 4.89601,8.352 2.08799,2.448 4.608,4.392 7.56,5.832 2.952,1.44 6.26399,2.16 9.86399,2.16 3.456,0 6.62401,-0.648 9.57601,-2.088 2.952,-1.44 5.47199,-3.312 7.632,-5.688 2.15999,-2.376 3.81599,-5.112 5.03999,-8.28 0.86401,-2.232 1.44,-4.608 1.728,-7.056 z m -33.624,-10.152 c 0.792,-2.376 1.94401,-4.464 3.45601,-6.408 1.512,-1.872 3.38399,-3.384 5.54399,-4.536 2.16001,-1.152 4.608,-1.728 7.344,-1.728 2.52,0 4.896,0.576 7.056,1.656 2.16,1.152 3.96001,2.592 5.54401,4.464 1.584,1.872 2.73599,3.96 3.59999,6.408 0.432,1.296 0.79201,2.664 1.008,3.96 h 6.552 c -0.288,-1.944 -0.79199,-3.96 -1.44,-5.832 -1.152,-3.096 -2.808,-5.832 -4.896,-8.352 -2.16,-2.448 -4.67999,-4.392 -7.55999,-5.904 -2.952,-1.512 -6.264,-2.304 -9.79201,-2.304 -3.528,0 -6.696,0.72 -9.648,2.16 -2.952,1.44 -5.472,3.312 -7.63199,5.688 -2.16001,2.448 -3.88801,5.184 -5.11201,8.28 -0.792,2.088 -1.368,4.176 -1.584,6.264 h 6.55201 c 0.216,-1.224 0.57599,-2.52 1.00799,-3.816 z" transform="translate(0 303.688) translate(243.75106 50) scale(1) translate(-257.18637 -68.52)"></path> 
   <path id="path61278" style="font-style: normal; font-weight: 500; font-size: 72px; line-height: 1; font-family: &quot;Raleway Medium Alt1&quot;; font-variant-ligatures: none; text-align: center; text-anchor: middle; fill: rgb(101, 210, 174);" d="m 336.31775,83.856 -22.896,45.288 h 7.2 l 25.704,-51.12 h -36.288 v 5.832 z" transform="translate(0 303.688) translate(299.60244 59.504000000000005) scale(1) translate(-310.03775 -78.024)"></path> 
   <path id="path61280" style="font-style: normal; font-weight: 500; font-size: 72px; line-height: 1; font-family: &quot;Raleway Medium Alt1&quot;; font-variant-ligatures: none; text-align: center; text-anchor: middle; fill: rgb(228, 244, 244);" d="m 390.833,97.248 c -0.216,1.512 -0.504,3.024 -1.008,4.464 -0.792,2.448 -1.944,4.608 -3.456,6.48 -1.512,1.872 -3.384,3.456 -5.472,4.608 -2.232,1.152 -4.68,1.728 -7.344,1.728 -2.664,0 -5.04,-0.504 -7.2,-1.656 -2.16,-1.08 -4.032,-2.592 -5.544,-4.464 -1.584,-1.872 -2.736,-3.96 -3.6,-6.408 -0.504,-1.512 -0.864,-3.096 -1.08,-4.752 h -6.552 c 0.216,2.304 0.72,4.608 1.584,6.768 1.08,3.168 2.736,5.904 4.896,8.352 2.088,2.448 4.608,4.392 7.56,5.832 2.952,1.44 6.264,2.16 9.864,2.16 3.456,0 6.624,-0.648 9.576,-2.088 2.952,-1.44 5.472,-3.312 7.632,-5.688 2.16,-2.376 3.816,-5.112 5.04,-8.28 0.864,-2.232 1.44,-4.608 1.728,-7.056 z M 357.209,87.096 c 0.792,-2.376 1.944,-4.464 3.456,-6.408 1.512,-1.872 3.384,-3.384 5.544,-4.536 2.16,-1.152 4.608,-1.728 7.344,-1.728 2.52,0 4.896,0.576 7.056,1.656 2.16,1.152 3.96,2.592 5.544,4.464 1.584,1.872 2.736,3.96 3.6,6.408 0.432,1.296 0.792,2.664 1.008,3.96 h 6.552 c -0.288,-1.944 -0.792,-3.96 -1.44,-5.832 -1.152,-3.096 -2.808,-5.832 -4.896,-8.352 -2.16,-2.448 -4.68,-4.392 -7.56,-5.904 -2.952,-1.512 -6.264,-2.304 -9.792,-2.304 -3.528,0 -6.696,0.72 -9.648,2.16 -2.952,1.44 -5.472,3.312 -7.632,5.688 -2.16,2.448 -3.888,5.184 -5.112,8.28 -0.792,2.088 -1.368,4.176 -1.584,6.264 h 6.552 c 0.216,-1.224 0.576,-2.52 1.008,-3.816 z" transform="translate(0 303.688) translate(342.14169 50) scale(1) translate(-349.577 -68.52)"></path> 
   <path id="path61282" style="font-style: normal; font-weight: 500; font-size: 72px; line-height: 1; font-family: &quot;Raleway Medium Alt1&quot;; font-variant-ligatures: none; text-align: center; text-anchor: middle; fill: rgb(228, 244, 244);" d="m 406.60437,120 h 6.48001 V 91.272 l -6.48001,-8.424 z m 36.72,-51.048 v 39.744 L 411.64438,68.88 h -5.04001 v 3.888 l 6.48001,8.208 31.248,39.024 h 5.47199 V 68.952 Z" transform="translate(0 303.688) translate(402.16906 50.36) scale(1) translate(-406.60437 -68.88)"></path> 
   <path id="path61284" style="font-style: normal; font-weight: 500; font-size: 72px; line-height: 1; font-family: &quot;Raleway Medium Alt1&quot;; font-variant-ligatures: none; text-align: center; text-anchor: middle; fill: rgb(228, 244, 244);" d="m 502.83463,84.504 c -1.00801,-3.096 -2.59201,-5.832 -4.608,-8.136 -2.08801,-2.232 -4.68001,-4.104 -7.77601,-5.472 -3.096,-1.296 -6.696,-2.016 -10.728,-2.016 h -17.712 v 5.76 h 17.712 c 2.88,0 5.40001,0.504 7.704,1.512 2.23201,1.008 4.104,2.376 5.688,4.032 1.584,1.728 2.736,3.816 3.528,6.264 0.792,2.448 1.224,5.112 1.224,7.92 0,2.88 -0.432,5.472 -1.224,7.92 -0.792,2.448 -1.944,4.536 -3.456,6.264 -1.512,1.8 -3.384,3.24 -5.688,4.176 -2.304,1.008 -4.896,1.512 -7.776,1.512 H 468.49063 V 81.48 h -6.48001 V 120 h 17.712 c 3.74401,0 7.128,-0.576 10.152,-1.8 3.024,-1.224 5.68801,-2.952 7.848,-5.184 2.16001,-2.232 3.81601,-4.896 4.968,-8.064 1.152,-3.168 1.72801,-6.696 1.72801,-10.584 0,-3.456 -0.57601,-6.768 -1.584,-9.864 z" transform="translate(0 303.688) translate(460.57531 50.36) scale(1) translate(-462.01062 -68.88)"></path> 
   <path id="path61286" style="font-style: normal; font-weight: 500; font-size: 72px; line-height: 1; font-family: &quot;Raleway Medium Alt1&quot;; font-variant-ligatures: none; text-align: center; text-anchor: middle; fill: rgb(228, 244, 244);" d="m 520.1,74.64 h 27.576 V 68.88 H 513.62 v 15.84 h 6.48 z m -6.48,39.6 V 120 h 34.704 v -5.76 z M 520.1,96.6 h 23.976 V 91.2 H 513.62 v 16.56 h 6.48 z" transform="translate(0 303.688) translate(515.18469 50.36) scale(1) translate(-513.62 -68.88)"></path> 
   <path id="path61288" style="font-style: normal; font-weight: 500; font-size: 72px; line-height: 1; font-family: &quot;Raleway Medium Alt1&quot;; font-variant-ligatures: none; text-align: center; text-anchor: middle; fill: rgb(228, 244, 244);" d="M 557.21375,68.88 V 120 h 6.48 V 80.472 l 11.448,20.448 3.456,-5.904 -14.544,-26.136 z m 43.92,0 -18.576,33.192 -3.384,5.904 1.584,2.808 h 3.672 l 16.992,-30.312 V 120 h 6.48 V 68.88 Z" transform="translate(0 303.688) translate(561.77844 50.36) scale(1) translate(-557.21375 -68.88)"></path> 
   <path id="path61290" style="font-style: normal; font-weight: 500; font-size: 72px; line-height: 1; font-family: &quot;Raleway Medium Alt1&quot;; font-variant-ligatures: none; text-align: center; text-anchor: middle; fill: rgb(228, 244, 244);" d="m 643.90512,75.864 -2.808,7.632 6.48001,16.488 h -12.81601 l -1.94399,5.04 h 16.19999 l 6.048,14.976 h 6.912 z m -2.808,-6.984 h -5.47199 l -20.952,51.12 h 6.624 l 17.064,-43.632 z" transform="translate(0 303.688) translate(622.23782 50.36) scale(1) translate(-614.67313 -68.88)"></path> 
   <path id="path61292" style="font-style: normal; font-weight: 500; font-size: 72px; line-height: 1; font-family: &quot;Raleway Medium Alt1&quot;; font-variant-ligatures: none; text-align: center; text-anchor: middle; fill: rgb(228, 244, 244);" d="m 668.87,120 h 6.48 V 91.272 l -6.48,-8.424 z m 36.72,-51.048 v 39.744 L 673.91,68.88 h -5.04 v 3.888 l 6.48,8.208 31.248,39.024 h 5.472 V 68.952 Z" transform="translate(0 303.688) translate(679.43469 50.36) scale(1) translate(-668.87 -68.88)"></path> 
   <path id="path61294" style="font-style: normal; font-weight: 500; font-size: 72px; line-height: 1; font-family: &quot;Raleway Medium Alt1&quot;; font-variant-ligatures: none; text-align: center; text-anchor: middle; fill: rgb(228, 244, 244);" d="m 765.10025,84.504 c -1.008,-3.096 -2.592,-5.832 -4.608,-8.136 -2.088,-2.232 -4.68,-4.104 -7.776,-5.472 -3.096,-1.296 -6.696,-2.016 -10.728,-2.016 h -17.712 v 5.76 h 17.712 c 2.88,0 5.4,0.504 7.704,1.512 2.232,1.008 4.104,2.376 5.688,4.032 1.584,1.728 2.736,3.816 3.528,6.264 0.792,2.448 1.224,5.112 1.224,7.92 0,2.88 -0.432,5.472 -1.224,7.92 -0.792,2.448 -1.944,4.536 -3.456,6.264 -1.512,1.8 -3.384,3.24 -5.688,4.176 -2.304,1.008 -4.896,1.512 -7.776,1.512 h -11.232 V 81.48 h -6.48 V 120 h 17.712 c 3.744,0 7.128,-0.576 10.152,-1.8 3.024,-1.224 5.688,-2.952 7.848,-5.184 2.16,-2.232 3.816,-4.896 4.968,-8.064 1.152,-3.168 1.728,-6.696 1.728,-10.584 0,-3.456 -0.576,-6.768 -1.584,-9.864 z" transform="translate(0 303.688) translate(737.84094 50.36) scale(1) translate(-724.27625 -68.88)"></path> 
  </g> 
  <g id="tagline" style="font-style:oblique;font-weight:600;font-size:32px;line-height:1;font-family:Raleway;font-variant-ligatures:none;text-align:center;text-anchor:middle"></g> 
 </g> 
</svg>