<svg xmlns:dc="http://purl.org/dc/elements/1.1/" xmlns:cc="http://creativecommons.org/ns#" xmlns:rdf="http://www.w3.org/1999/02/22-rdf-syntax-ns#" xmlns:svg="http://www.w3.org/2000/svg" xmlns="http://www.w3.org/2000/svg" id="svg258486" viewbox="0 0 1024 768" height="768px" width="1024px" version="1.1"> <metadata id="metadata258492"> 
  <rdf:rdf> 
   <cc:work rdf:about=""> 
    <dc:format>
     image/svg+xml
    </dc:format> 
    <dc:type rdf:resource="http://purl.org/dc/dcmitype/StillImage"></dc:type> 
   </cc:work> 
  </rdf:rdf> 
 </metadata> <defs id="defs258490"></defs> <g id="logo-group"> 
  <g id="title" style="font-style:normal;font-weight:700;font-size:72px;line-height:1;font-family:'Comfortaa Bold Alt1';font-variant-ligatures:none;text-align:center;text-anchor:middle" aria-label="o7optimum"> 
   <path id="path258494" style="font-style: normal; font-weight: 700; font-size: 72px; line-height: 1; font-family: &quot;Comfortaa Bold Alt1&quot;; font-variant-ligatures: none; text-align: center; text-anchor: middle; fill: rgb(95, 27, 138);" d="m 341.59737,82.92 c -3.024,-1.728 -6.408,-2.592 -10.15199,-2.592 -3.88801,0 -7.272,0.864 -10.296,2.592 -3.024,1.728 -5.40001,4.032 -7.05601,7.056 -1.728,3.024 -2.52,6.48 -2.52,10.368 0,3.888 0.792,7.272 2.52,10.296 1.656,3.024 4.03201,5.4 7.05601,7.128 3.024,1.728 6.40799,2.52 10.296,2.52 3.81599,0 7.19999,-0.792 10.22399,-2.52 3.024,-1.728 5.32801,-4.104 7.056,-7.128 1.656,-3.024 2.52,-6.408 2.52,-10.296 0,-3.888 -0.864,-7.344 -2.592,-10.368 -1.72799,-3.024 -4.032,-5.328 -7.056,-7.056 z m -16.776,5.616 c 1.944,-1.152 4.176,-1.728 6.62401,-1.728 2.44799,0 4.608,0.576 6.55199,1.728 1.944,1.152 3.456,2.808 4.536,4.824 1.08001,2.088 1.656,4.392 1.656,6.984 0,2.592 -0.57599,4.968 -1.656,6.984 -1.08,2.016 -2.592,3.6 -4.536,4.752 -1.94399,1.152 -4.104,1.728 -6.55199,1.728 -2.44801,0 -4.68001,-0.576 -6.62401,-1.728 -1.94399,-1.152 -3.456,-2.736 -4.536,-4.752 -1.152,-2.016 -1.656,-4.392 -1.656,-6.984 0,-2.592 0.504,-4.896 1.656,-6.984 1.08,-2.016 2.59201,-3.672 4.536,-4.824 z" transform="translate(0 279.1319240308393) translate(251.9999999999999 81.23737056317285) scale(1.1827179882876808) translate(-311.57337 -80.328)"></path> 
   <path id="path258496" style="font-style: normal; font-weight: 700; font-size: 72px; line-height: 1; font-family: &quot;Comfortaa Bold Alt1&quot;; font-variant-ligatures: none; text-align: center; text-anchor: middle; fill: rgb(95, 27, 138);" d="m 354.86225,70.104 c 0.72,0.72 1.584,1.008 2.664,1.008 h 21.888 l -20.664,42.912 c -0.432,0.864 -0.648,1.656 -0.648,2.304 0,1.008 0.36,1.872 1.08,2.592 0.72,0.72 1.512,1.08 2.52,1.08 0.648,0 1.296,-0.144 1.944,-0.504 0.576,-0.36 1.08,-0.864 1.44,-1.512 l 23.04,-48.6 c 0.288,-0.72 0.504,-1.368 0.504,-1.944 0,-1.008 -0.36,-1.872 -1.08,-2.592 -0.72,-0.72 -1.584,-1.08 -2.592,-1.08 h -27.432 c -1.08,0 -1.944,0.36 -2.664,1.08 -0.72,0.72 -1.008,1.584 -1.008,2.592 0,1.08 0.288,1.944 1.008,2.664 z" transform="translate(0 279.1319240308393) translate(307.9199472780711 61.65156067712883) scale(1.1827179882876808) translate(-353.85425 -63.768)"></path> 
   <path id="path258498" style="font-style: normal; font-weight: 700; font-size: 72px; line-height: 1; font-family: &quot;Comfortaa Bold Alt1&quot;; font-variant-ligatures: none; text-align: center; text-anchor: middle; fill: rgb(123, 168, 0);" d="m 417.39425,82.92 c -3.024,-1.728 -6.408,-2.592 -10.152,-2.592 -3.888,0 -7.272,0.864 -10.296,2.592 -3.024,1.728 -5.4,4.032 -7.056,7.056 -1.728,3.024 -2.52,6.48 -2.52,10.368 0,3.888 0.792,7.272 2.52,10.296 1.656,3.024 4.032,5.4 7.056,7.128 3.024,1.728 6.408,2.52 10.296,2.52 3.816,0 7.2,-0.792 10.224,-2.52 3.024,-1.728 5.328,-4.104 7.056,-7.128 1.656,-3.024 2.52,-6.408 2.52,-10.296 0,-3.888 -0.864,-7.344 -2.592,-10.368 -1.728,-3.024 -4.032,-5.328 -7.056,-7.056 z m -16.776,5.616 c 1.944,-1.152 4.176,-1.728 6.624,-1.728 2.448,0 4.608,0.576 6.552,1.728 1.944,1.152 3.456,2.808 4.536,4.824 1.08,2.088 1.656,4.392 1.656,6.984 0,2.592 -0.576,4.968 -1.656,6.984 -1.08,2.016 -2.592,3.6 -4.536,4.752 -1.944,1.152 -4.104,1.728 -6.552,1.728 -2.448,0 -4.68,-0.576 -6.624,-1.728 -1.944,-1.152 -3.456,-2.736 -4.536,-4.752 -1.152,-2.016 -1.656,-4.392 -1.656,-6.984 0,-2.592 0.504,-4.896 1.656,-6.984 1.08,-2.016 2.592,-3.672 4.536,-4.824 z" transform="translate(0 279.1319240308393) translate(353.4735133149594 81.23737056317285) scale(1.1827179882876808) translate(-387.37025 -80.328)"></path> 
   <path id="path258500" style="font-style: normal; font-weight: 700; font-size: 72px; line-height: 1; font-family: &quot;Comfortaa Bold Alt1&quot;; font-variant-ligatures: none; text-align: center; text-anchor: middle; fill: rgb(123, 168, 0);" d="m 477.7145,100.344 c 0,-3.744 -0.864,-7.128 -2.592,-10.152 -1.728,-3.024 -4.176,-5.472 -7.2,-7.2 -3.024,-1.728 -6.408,-2.664 -10.08,-2.664 h -0.288 -0.144 -15.912 c -1.008,0 -1.8,0.36 -2.448,1.008 -0.72,0.72 -1.008,1.512 -1.008,2.448 v 15.336 1.224 32.832 c 0,1.152 0.288,2.016 1.008,2.664 0.648,0.72 1.512,1.008 2.664,1.008 1.008,0 1.872,-0.288 2.592,-1.008 0.72,-0.648 1.08,-1.512 1.08,-2.664 v -19.44 c 1.656,2.088 3.672,3.672 6.12,4.824 2.376,1.152 4.968,1.728 7.776,1.728 3.456,0 6.552,-0.864 9.36,-2.592 2.808,-1.728 5.04,-4.104 6.624,-7.128 1.584,-3.024 2.448,-6.48 2.448,-10.224 z m -7.056,0 c 0,2.592 -0.576,4.896 -1.728,6.912 -1.152,2.016 -2.664,3.672 -4.608,4.824 -1.944,1.152 -4.104,1.728 -6.48,1.728 -2.448,0 -4.608,-0.576 -6.552,-1.728 -1.944,-1.152 -3.456,-2.808 -4.536,-4.824 -1.152,-2.016 -1.656,-4.32 -1.656,-6.912 0,-2.52 0.504,-4.824 1.656,-6.912 1.08,-2.016 2.592,-3.672 4.536,-4.824 1.944,-1.152 4.104,-1.8 6.552,-1.8 2.376,0 4.536,0.648 6.48,1.8 1.944,1.152 3.456,2.808 4.608,4.824 1.152,2.088 1.728,4.392 1.728,6.912 z" transform="translate(0 279.1319240308393) translate(419.3180848384083 81.23737056317285) scale(1.1827179882876808) translate(-438.0425 -80.328)"></path> 
   <path id="path258502" style="font-style: normal; font-weight: 700; font-size: 72px; line-height: 1; font-family: &quot;Comfortaa Bold Alt1&quot;; font-variant-ligatures: none; text-align: center; text-anchor: middle; fill: rgb(123, 168, 0);" d="m 490.3235,82.056 v 6.192 17.784 c 0,2.664 0.504,5.04 1.656,7.128 1.08,2.16 2.592,3.816 4.536,5.04 1.944,1.224 4.104,1.8 6.48,1.8 h 1.296 c 1.224,0 2.232,-0.288 3.024,-1.008 0.792,-0.648 1.224,-1.512 1.224,-2.592 0,-1.008 -0.36,-1.872 -0.936,-2.592 -0.576,-0.648 -1.296,-1.008 -2.16,-1.008 h -2.448 c -1.584,0 -2.88,-0.648 -3.888,-1.944 -1.08,-1.296 -1.584,-2.88 -1.584,-4.824 V 88.248 h 6.12 c 1.008,0 1.8,-0.288 2.448,-0.864 0.576,-0.576 0.936,-1.296 0.936,-2.16 0,-0.936 -0.36,-1.728 -0.936,-2.304 -0.648,-0.576 -1.44,-0.864 -2.448,-0.864 h -6.12 V 71.688 c 0,-1.008 -0.36,-1.872 -1.008,-2.592 -0.72,-0.648 -1.584,-1.008 -2.592,-1.008 -1.08,0 -1.944,0.36 -2.592,1.008 -0.72,0.72 -1.008,1.584 -1.008,2.592 z" transform="translate(0 279.1319240308393) translate(487.06535392551496 66.7609023865316) scale(1.1827179882876808) translate(-490.3235 -68.088)"></path> 
   <path id="path258504" style="font-style: normal; font-weight: 700; font-size: 72px; line-height: 1; font-family: &quot;Comfortaa Bold Alt1&quot;; font-variant-ligatures: none; text-align: center; text-anchor: middle; fill: rgb(123, 168, 0);" d="m 519.22362,81.624 c -0.71999,0.72 -1.00799,1.584 -1.00799,2.664 v 32.04 c 0,1.08 0.288,1.944 1.00799,2.664 0.72,0.72 1.58401,1.008 2.664,1.008 1.08,0 1.94401,-0.288 2.664,-1.008 0.648,-0.72 1.008,-1.584 1.008,-2.664 v -32.04 c 0,-1.08 -0.36,-1.944 -1.008,-2.664 -0.71999,-0.648 -1.584,-1.008 -2.664,-1.008 -1.07999,0 -1.944,0.36 -2.664,1.008 z" transform="translate(0 279.1319240308393) translate(525.9674677496118 81.57799334379968) scale(1.1827179882876808) translate(-518.21563 -80.616)"></path> 
   <path id="path258506" style="font-style: normal; font-weight: 700; font-size: 72px; line-height: 1; font-family: &quot;Comfortaa Bold Alt1&quot;; font-variant-ligatures: none; text-align: center; text-anchor: middle; fill: rgb(123, 168, 0);" d="m 590.7725,84.36 c -2.592,-2.736 -5.976,-4.104 -10.08,-4.104 -14.904,0 -22.68,0 -23.4,0 h -0.576 -13.968 c -0.936,0 -1.8,0.36 -2.448,1.008 -0.72,0.72 -1.008,1.512 -1.008,2.448 0,0.072 0,0.216 0,0.36 0,0.144 0,0.216 0,0.288 v 32.04 c 0,1.08 0.288,1.944 1.008,2.664 0.72,0.72 1.584,1.008 2.664,1.008 1.08,0 1.944,-0.288 2.664,-1.008 0.648,-0.72 1.008,-1.584 1.008,-2.664 V 96.096 c 0,-2.664 0.792,-4.824 2.376,-6.624 1.584,-1.728 3.672,-2.592 6.264,-2.592 2.448,0 4.392,0.792 5.832,2.304 1.44,1.512 2.232,3.744 2.232,6.624 V 116.4 c 0,1.08 0.288,1.944 1.008,2.664 0.72,0.72 1.584,1.008 2.664,1.008 1.08,0 1.944,-0.288 2.664,-1.008 0.648,-0.72 1.008,-1.584 1.008,-2.664 V 96.096 c 0,-2.664 0.792,-4.824 2.376,-6.624 1.584,-1.728 3.672,-2.592 6.192,-2.592 2.448,0 4.392,0.792 5.832,2.304 1.44,1.512 2.232,3.744 2.232,6.624 V 116.4 c 0,1.08 0.288,1.944 1.008,2.664 0.72,0.72 1.584,1.008 2.664,1.008 1.08,0 1.944,-0.288 2.664,-1.008 0.648,-0.72 1.008,-1.584 1.008,-2.664 V 95.808 c 0,-4.896 -1.296,-8.712 -3.888,-11.448 z" transform="translate(0 279.1319240308393) translate(556.8090509768513 81.1522148680161) scale(1.1827179882876808) translate(-539.2925 -80.256)"></path> 
   <path id="path258508" style="font-style: normal; font-weight: 700; font-size: 72px; line-height: 1; font-family: &quot;Comfortaa Bold Alt1&quot;; font-variant-ligatures: none; text-align: center; text-anchor: middle; fill: rgb(123, 168, 0);" d="M 642.9365,116.328 V 84.216 c 0,-1.08 -0.36,-1.944 -1.008,-2.664 -0.72,-0.648 -1.584,-1.008 -2.664,-1.008 -1.08,0 -1.944,0.36 -2.664,1.008 -0.72,0.72 -1.008,1.584 -1.008,2.664 v 20.304 c 0,1.8 -0.504,3.312 -1.44,4.68 -0.936,1.44 -2.232,2.52 -3.888,3.312 -1.656,0.864 -3.528,1.224 -5.472,1.224 -3.528,0 -6.264,-0.936 -8.352,-2.952 -2.088,-2.016 -3.096,-4.968 -3.096,-8.856 V 84.216 c 0,-1.008 -0.36,-1.872 -1.08,-2.592 -0.72,-0.72 -1.584,-1.08 -2.592,-1.08 -1.08,0 -1.944,0.36 -2.664,1.08 -0.72,0.72 -1.008,1.584 -1.008,2.592 v 17.712 c 0,3.96 0.72,7.272 2.232,10.008 1.44,2.736 3.528,4.896 6.192,6.264 2.52,1.44 5.256,2.16 8.28,2.232 0.144,0 5.688,0 16.848,0 0.936,0 1.728,-0.36 2.376,-1.008 0.648,-0.648 1.008,-1.44 1.008,-2.448 z" transform="translate(0 279.1319240308393) translate(641.6193924809842 81.49283764864296) scale(1.1827179882876808) translate(-606.0005 -80.544)"></path> 
   <path id="path258510" style="font-style: normal; font-weight: 700; font-size: 72px; line-height: 1; font-family: &quot;Comfortaa Bold Alt1&quot;; font-variant-ligatures: none; text-align: center; text-anchor: middle; fill: rgb(123, 168, 0);" d="m 707.35063,84.36 c -2.592,-2.736 -5.976,-4.104 -10.08001,-4.104 -14.904,0 -22.67999,0 -23.39999,0 h -0.57601 -13.96799 c -0.93601,0 -1.80001,0.36 -2.448,1.008 -0.72,0.72 -1.008,1.512 -1.008,2.448 0,0.072 0,0.216 0,0.36 0,0.144 0,0.216 0,0.288 v 32.04 c 0,1.08 0.288,1.944 1.008,2.664 0.71999,0.72 1.58399,1.008 2.664,1.008 1.07999,0 1.94399,-0.288 2.664,-1.008 0.648,-0.72 1.00799,-1.584 1.00799,-2.664 V 96.096 c 0,-2.664 0.792,-4.824 2.37601,-6.624 1.58399,-1.728 3.67199,-2.592 6.26399,-2.592 2.44801,0 4.392,0.792 5.83201,2.304 1.43999,1.512 2.232,3.744 2.232,6.624 V 116.4 c 0,1.08 0.288,1.944 1.008,2.664 0.71999,0.72 1.58399,1.008 2.664,1.008 1.07999,0 1.94399,-0.288 2.664,-1.008 0.64799,-0.72 1.00799,-1.584 1.00799,-2.664 V 96.096 c 0,-2.664 0.792,-4.824 2.37601,-6.624 1.58399,-1.728 3.67199,-2.592 6.192,-2.592 2.448,0 4.39199,0.792 5.832,2.304 1.43999,1.512 2.232,3.744 2.232,6.624 V 116.4 c 0,1.08 0.288,1.944 1.00799,2.664 0.72,0.72 1.584,1.008 2.66401,1.008 1.07999,0 1.94399,-0.288 2.664,-1.008 0.648,-0.72 1.00799,-1.584 1.00799,-2.664 V 95.808 c 0,-4.896 -1.29599,-8.712 -3.88799,-11.448 z" transform="translate(0 279.1319240308393) translate(706.5152822516677 81.1522148680161) scale(1.1827179882876808) translate(-655.87063 -80.256)"></path> 
  </g> 
  <g id="tagline" style="font-style:normal;font-weight:500;font-size:32px;line-height:1;font-family:Raleway;font-variant-ligatures:none;text-align:center;text-anchor:middle"></g> 
 </g> 
</svg>