<svg xmlns:dc="http://purl.org/dc/elements/1.1/" xmlns:cc="http://creativecommons.org/ns#" xmlns:rdf="http://www.w3.org/1999/02/22-rdf-syntax-ns#" xmlns:svg="http://www.w3.org/2000/svg" xmlns="http://www.w3.org/2000/svg" id="svg96480" viewbox="0 0 1024 768" height="768px" width="1024px" version="1.1"> <metadata id="metadata96486"> 
  <rdf:rdf> 
   <cc:work rdf:about=""> 
    <dc:format>
     image/svg+xml
    </dc:format> 
    <dc:type rdf:resource="http://purl.org/dc/dcmitype/StillImage"></dc:type> 
   </cc:work> 
  </rdf:rdf> 
 </metadata> <defs id="defs96484"></defs> <g id="logo-group"> 
  <g id="title" style="font-style:normal;font-weight:300;font-size:72px;line-height:1;font-family:'Uni Neue';font-variant-ligatures:none;text-align:center;text-anchor:middle" aria-label="o7Path"> 
   <path id="path96488" style="font-style: normal; font-weight: 300; font-size: 72px; line-height: 1; font-family: &quot;Uni Neue&quot;; font-variant-ligatures: none; text-align: center; text-anchor: middle; fill: rgb(50, 65, 255);" d="M 438.33894,107.184 V 95.808 c 0,-7.56 -5.184,-13.536 -14.976,-13.536 -9.72,0 -14.976,5.976 -14.976,13.536 v 11.376 c 0,7.632 5.256,13.536 14.976,13.536 9.792,0 14.976,-5.904 14.976,-13.536 z m -27.648,0 V 95.808 c 0,-6.336 4.248,-11.376 12.672,-11.376 8.496,0 12.672,5.04 12.672,11.376 v 11.376 c 0,6.408 -4.176,11.448 -12.672,11.448 -8.424,0 -12.672,-5.04 -12.672,-11.448 z" transform="translate(0 163.85702951854995) translate(252 188.99722582382014) scale(2.52233111901765) translate(-408.38694 -82.272)"></path> 
   <path id="path96490" style="font-style: normal; font-weight: 300; font-size: 72px; line-height: 1; font-family: &quot;Uni Neue&quot;; font-variant-ligatures: none; text-align: center; text-anchor: middle; fill: rgb(50, 65, 255);" d="m 452.39694,120 c 0.216,0 0.504,-0.144 0.576,-0.36 l 23.832,-49.392 c 0.144,-0.144 0.144,-0.36 0.144,-0.504 v -0.792 c 0,-0.288 -0.216,-0.432 -0.504,-0.432 h -31.68 c -0.288,0 -0.504,0.144 -0.504,0.432 v 1.368 c 0,0.216 0.216,0.432 0.504,0.432 h 29.304 l -23.616,48.672 c -0.144,0.36 0.072,0.576 0.36,0.576 z" transform="translate(0 163.85702951854995) translate(342.4861065636393 154.31012827508937) scale(2.52233111901765) translate(-444.26094 -68.52)"></path> 
   <path id="path96492" style="font-style: normal; font-weight: 300; font-size: 72px; line-height: 1; font-family: &quot;Uni Neue&quot;; font-variant-ligatures: none; text-align: center; text-anchor: middle; fill: rgb(86, 86, 86);" d="m 485.87694,68.52 c -0.288,0 -0.432,0.144 -0.432,0.432 v 50.616 c 0,0.288 0.144,0.432 0.432,0.432 h 1.512 c 0.288,0 0.432,-0.144 0.432,-0.432 V 99.984 h 14.04 c 11.232,0 17.568,-5.76 17.568,-15.696 0,-9.792 -6.264,-15.768 -17.568,-15.768 z m 1.944,29.16 V 70.752 h 13.824 c 10.152,0 15.408,4.896 15.408,13.536 0,8.64 -5.256,13.392 -15.408,13.392 z" transform="translate(0 163.85702951854995) translate(446.3657913692621 154.31012827508937) scale(2.52233111901765) translate(-485.44494 -68.52)"></path> 
   <path id="path96494" style="font-style: normal; font-weight: 300; font-size: 72px; line-height: 1; font-family: &quot;Uni Neue&quot;; font-variant-ligatures: none; text-align: center; text-anchor: middle; fill: rgb(86, 86, 86);" d="m 527.22856,85.944 c -0.144,0.144 -0.072,0.36 0,0.576 l 0.648,1.008 c 0.144,0.144 0.36,0.216 0.648,0.072 2.736,-1.728 6.984,-3.168 11.52,-3.168 7.992,0 11.088,4.32 11.088,11.16 v 3.744 c -2.88,-0.648 -6.84,-1.368 -11.088,-1.368 -9.288,0 -14.76,4.032 -14.76,11.232 0,7.272 6.336,11.52 14.76,11.52 5.328,0 10.008,-1.224 13.032,-2.52 0.288,-0.072 0.36,-0.36 0.36,-0.504 V 95.52 c 0,-8.064 -4.248,-13.248 -13.32,-13.248 -5.184,0 -9.792,1.512 -12.888,3.672 z m 0.36,23.256 c 0,-5.832 4.32,-9.144 12.456,-9.144 4.104,0 8.28,0.648 11.088,1.296 v 15.264 c -2.664,1.008 -6.408,2.016 -11.088,2.016 -7.272,0 -12.456,-3.672 -12.456,-9.432 z" transform="translate(0 163.85702951854995) translate(546.8545046651002 188.99722582382014) scale(2.52233111901765) translate(-525.28456 -82.272)"></path> 
   <path id="path96496" style="font-style: normal; font-weight: 300; font-size: 72px; line-height: 1; font-family: &quot;Uni Neue&quot;; font-variant-ligatures: none; text-align: center; text-anchor: middle; fill: rgb(86, 86, 86);" d="M 566.03656,108.84 V 85.224 h 12.168 c 0.216,0 0.432,-0.216 0.432,-0.504 v -1.224 c 0,-0.216 -0.216,-0.432 -0.432,-0.432 h -12.168 v -8.928 c -0.072,-0.288 -0.216,-0.432 -0.504,-0.432 h -1.368 c -0.288,0 -0.432,0.144 -0.432,0.432 v 34.776 c 0,7.416 4.176,11.664 11.088,11.664 1.008,0 2.952,-0.072 4.32,-0.216 0.288,-0.072 0.432,-0.216 0.432,-0.504 v -1.224 c 0,-0.288 -0.144,-0.432 -0.432,-0.432 -1.44,0.144 -3.24,0.216 -4.32,0.216 -5.76,0 -8.784,-3.528 -8.784,-9.576 z" transform="translate(0 163.85702951854995) translate(643.8330915290907 167.38589279607686) scale(2.52233111901765) translate(-563.73256 -73.704)"></path> 
   <path id="path96498" style="font-style: normal; font-weight: 300; font-size: 72px; line-height: 1; font-family: &quot;Uni Neue&quot;; font-variant-ligatures: none; text-align: center; text-anchor: middle; fill: rgb(86, 86, 86);" d="M 588.12144,85.008 V 68.952 c 0,-0.288 -0.144,-0.432 -0.432,-0.432 h -1.44 c -0.216,0 -0.432,0.144 -0.432,0.432 v 50.616 c 0,0.288 0.216,0.432 0.432,0.432 h 1.44 c 0.288,0 0.432,-0.144 0.432,-0.432 V 87.24 c 3.24,-1.728 7.2,-2.808 11.232,-2.808 8.28,0 12.888,3.888 12.888,12.456 v 22.68 c 0,0.288 0.216,0.432 0.504,0.432 h 1.368 c 0.288,0 0.432,-0.144 0.432,-0.432 v -22.68 c 0,-9.936 -5.76,-14.616 -15.12,-14.616 -4.032,0 -7.92,1.08 -11.304,2.736 z" transform="translate(0 163.85702951854995) translate(699.5384716128611 154.31012827508937) scale(2.52233111901765) translate(-585.81744 -68.52)"></path> 
  </g> 
  <g id="tagline" style="font-style:oblique;font-weight:400;font-size:32px;line-height:1;font-family:Lato;font-variant-ligatures:none;text-align:center;text-anchor:middle"></g> 
 </g> 
</svg>