<svg xmlns:dc="http://purl.org/dc/elements/1.1/" xmlns:cc="http://creativecommons.org/ns#" xmlns:rdf="http://www.w3.org/1999/02/22-rdf-syntax-ns#" xmlns:svg="http://www.w3.org/2000/svg" xmlns="http://www.w3.org/2000/svg" id="svg20373" viewbox="0 0 1024 768" height="768px" width="1024px" version="1.1"> <metadata id="metadata20379"> 
  <rdf:rdf> 
   <cc:work rdf:about=""> 
    <dc:format>
     image/svg+xml
    </dc:format> 
    <dc:type rdf:resource="http://purl.org/dc/dcmitype/StillImage"></dc:type> 
   </cc:work> 
  </rdf:rdf> 
 </metadata> <defs id="defs20377"></defs> <g id="logo-group"> 
  <g id="title" style="font-style:normal;font-weight:800;font-size:72px;line-height:1;font-family:'Montserrat ExtraBold Alt1';font-variant-ligatures:none;text-align:center;text-anchor:middle" aria-label="o7Property"> 
   <path id="path20381" style="font-style: normal; font-weight: 800; font-size: 72px; line-height: 1; font-family: &quot;Montserrat ExtraBold Alt1&quot;; font-variant-ligatures: none; text-align: center; text-anchor: middle; fill: rgb(141, 197, 62);" d="m 310.00794,118.056 c 3.312,1.728 7.128,2.592 11.304,2.592 4.176,0 7.992,-0.864 11.376,-2.592 3.312,-1.728 5.976,-4.104 7.848,-7.2 1.872,-3.024 2.808,-6.552 2.808,-10.44 0,-3.888 -0.936,-7.344 -2.808,-10.368 -1.872,-3.024 -4.536,-5.4 -7.848,-7.128 -3.384,-1.728 -7.2,-2.592 -11.376,-2.592 -4.248,0 -8.064,0.864 -11.376,2.592 -3.312,1.728 -5.976,4.104 -7.848,7.128 -1.872,3.096 -2.808,6.552 -2.808,10.368 0,3.888 0.936,7.416 2.808,10.44 1.872,3.096 4.536,5.472 7.92,7.2 z m 17.208,-10.728 c -1.584,1.656 -3.528,2.448 -5.904,2.448 -2.448,0 -4.392,-0.792 -5.904,-2.448 -1.584,-1.656 -2.304,-3.96 -2.304,-6.912 0,-2.88 0.72,-5.112 2.304,-6.768 1.512,-1.584 3.456,-2.448 5.904,-2.448 2.376,0 4.32,0.864 5.904,2.448 1.512,1.656 2.304,3.888 2.304,6.768 0,2.952 -0.792,5.256 -2.304,6.912 z" transform="translate(0 279.633340337606) translate(252.00000000000006 77.92412971912867) scale(1.2140739184235716) translate(-299.27994 -80.328)"></path> 
   <path id="path20383" style="font-style: normal; font-weight: 800; font-size: 72px; line-height: 1; font-family: &quot;Montserrat ExtraBold Alt1&quot;; font-variant-ligatures: none; text-align: center; text-anchor: middle; fill: rgb(141, 197, 62);" d="m 387.15819,69.6 h -41.76 v 19.08 h 12.168 v -7.776 h 13.248 L 353.82219,120 h 15.552 l 17.784,-41.472 z" transform="translate(0 279.633340337606) translate(307.9909644883379 64.89954472228058) scale(1.2140739184235716) translate(-345.39819 -69.6)"></path> 
   <path id="path20385" style="font-style: normal; font-weight: 800; font-size: 72px; line-height: 1; font-family: &quot;Montserrat ExtraBold Alt1&quot;; font-variant-ligatures: none; text-align: center; text-anchor: middle; fill: rgb(254, 253, 206);" d="m 437.04069,78.384 c -1.872,-2.808 -4.464,-4.968 -7.776,-6.48 -3.384,-1.512 -7.344,-2.304 -11.88,-2.304 h -23.04 v 11.232 h 22.176 c 2.88,0 5.112,0.648 6.624,1.944 1.44,1.296 2.232,3.168 2.232,5.472 0,2.376 -0.792,4.176 -2.232,5.472 -1.512,1.296 -3.744,1.872 -6.624,1.872 h -22.176 V 120 h 14.256 v -13.176 h 8.784 c 4.536,0 8.496,-0.72 11.88,-2.232 3.312,-1.512 5.904,-3.672 7.776,-6.48 1.8,-2.736 2.736,-6.048 2.736,-9.864 0,-3.744 -0.936,-7.056 -2.736,-9.864 z" transform="translate(0 279.633340337606) translate(367.4156335364573 64.89954472228058) scale(1.2140739184235716) translate(-394.34469 -69.6)"></path> 
   <path id="path20387" style="font-style: normal; font-weight: 800; font-size: 72px; line-height: 1; font-family: &quot;Montserrat ExtraBold Alt1&quot;; font-variant-ligatures: none; text-align: center; text-anchor: middle; fill: rgb(254, 253, 206);" d="m 464.72244,81.696 c -2.232,0.864 -4.032,2.232 -5.4,3.96 v -4.68 h -13.032 V 120 h 13.68 v -17.928 c 0,-3.24 0.792,-5.688 2.448,-7.272 1.656,-1.584 3.96,-2.376 6.912,-2.376 0.792,0 1.8,0.072 3.096,0.216 V 80.328 c -2.88,0 -5.472,0.504 -7.704,1.368 z" transform="translate(0 279.633340337606) translate(430.48161378440847 77.92412971912867) scale(1.2140739184235716) translate(-446.29044 -80.328)"></path> 
   <path id="path20389" style="font-style: normal; font-weight: 800; font-size: 72px; line-height: 1; font-family: &quot;Montserrat ExtraBold Alt1&quot;; font-variant-ligatures: none; text-align: center; text-anchor: middle; fill: rgb(254, 253, 206);" d="m 485.92981,118.056 c 3.312,1.728 7.128,2.592 11.304,2.592 4.176,0 7.992,-0.864 11.376,-2.592 3.312,-1.728 5.976,-4.104 7.848,-7.2 1.872,-3.024 2.808,-6.552 2.808,-10.44 0,-3.888 -0.936,-7.344 -2.808,-10.368 -1.872,-3.024 -4.536,-5.4 -7.848,-7.128 -3.384,-1.728 -7.2,-2.592 -11.376,-2.592 -4.248,0 -8.064,0.864 -11.376,2.592 -3.312,1.728 -5.976,4.104 -7.848,7.128 -1.872,3.096 -2.808,6.552 -2.808,10.368 0,3.888 0.936,7.416 2.808,10.44 1.872,3.096 4.536,5.472 7.92,7.2 z m 17.208,-10.728 c -1.584,1.656 -3.528,2.448 -5.904,2.448 -2.448,0 -4.392,-0.792 -5.904,-2.448 -1.584,-1.656 -2.304,-3.96 -2.304,-6.912 0,-2.88 0.72,-5.112 2.304,-6.768 1.512,-1.584 3.456,-2.448 5.904,-2.448 2.376,0 4.32,0.864 5.904,2.448 1.512,1.656 2.304,3.888 2.304,6.768 0,2.952 -0.792,5.256 -2.304,6.912 z" transform="translate(0 279.633340337606) translate(465.5821540473022 77.92412971912867) scale(1.2140739184235716) translate(-475.20181 -80.328)"></path> 
   <path id="path20391" style="font-style: normal; font-weight: 800; font-size: 72px; line-height: 1; font-family: &quot;Montserrat ExtraBold Alt1&quot;; font-variant-ligatures: none; text-align: center; text-anchor: middle; fill: rgb(254, 253, 206);" d="m 559.80294,82.848 c -2.88,-1.656 -6.12,-2.52 -9.648,-2.52 -5.184,0 -9,1.512 -11.52,4.536 v -3.888 h -13.032 v 52.992 h 13.68 v -17.424 c 2.664,2.736 6.264,4.104 10.872,4.104 3.528,0 6.768,-0.792 9.648,-2.448 2.88,-1.656 5.184,-4.032 6.912,-7.056 1.728,-3.024 2.592,-6.624 2.592,-10.656 0,-4.032 -0.864,-7.56 -2.592,-10.584 -1.728,-3.024 -4.032,-5.4 -6.912,-7.056 z m -6.624,24.48 c -1.584,1.656 -3.528,2.448 -5.904,2.448 -2.448,0 -4.392,-0.792 -5.904,-2.448 -1.584,-1.656 -2.304,-3.96 -2.304,-6.84 0,-2.88 0.72,-5.112 2.304,-6.768 1.512,-1.656 3.456,-2.52 5.904,-2.52 2.376,0 4.32,0.864 5.904,2.52 1.512,1.656 2.304,3.888 2.304,6.768 0,2.88 -0.792,5.184 -2.304,6.84 z" transform="translate(0 279.633340337606) translate(526.7728514393781 77.92412971912867) scale(1.2140739184235716) translate(-525.60294 -80.328)"></path> 
   <path id="path20393" style="font-style: normal; font-weight: 800; font-size: 72px; line-height: 1; font-family: &quot;Montserrat ExtraBold Alt1&quot;; font-variant-ligatures: none; text-align: center; text-anchor: middle; fill: rgb(254, 253, 206);" d="m 615.33744,103.944 c 0.144,-2.16 0.216,-3.24 0.216,-3.384 0,-4.176 -0.936,-7.776 -2.808,-10.8 -1.872,-3.024 -4.32,-5.4 -7.488,-6.984 -3.168,-1.584 -6.696,-2.448 -10.584,-2.448 -4.104,0 -7.776,0.864 -11.016,2.592 -3.312,1.728 -5.832,4.176 -7.704,7.2 -1.872,3.024 -2.736,6.48 -2.736,10.296 0,3.888 0.936,7.416 2.808,10.44 1.872,3.096 4.608,5.472 8.064,7.2 3.456,1.728 7.416,2.592 12.024,2.592 7.272,0 12.816,-2.088 16.632,-6.336 l -7.2,-7.488 c -1.44,1.224 -2.808,2.088 -4.176,2.592 -1.368,0.576 -2.952,0.792 -4.824,0.792 -2.52,0 -4.608,-0.504 -6.264,-1.584 -1.656,-1.08 -2.736,-2.664 -3.312,-4.68 z m -25.92,-12.096 c 1.44,-1.152 3.168,-1.8 5.328,-1.8 2.088,0 3.816,0.648 5.256,1.8 1.44,1.224 2.304,2.88 2.736,4.896 h -15.984 c 0.36,-2.016 1.224,-3.672 2.664,-4.896 z" transform="translate(0 279.633340337606) translate(584.5803740281573 77.92412971912867) scale(1.2140739184235716) translate(-573.21744 -80.328)"></path> 
   <path id="path20395" style="font-style: normal; font-weight: 800; font-size: 72px; line-height: 1; font-family: &quot;Montserrat ExtraBold Alt1&quot;; font-variant-ligatures: none; text-align: center; text-anchor: middle; fill: rgb(254, 253, 206);" d="m 640.36306,81.696 c -2.232,0.864 -4.032,2.232 -5.4,3.96 v -4.68 h -13.032 V 120 h 13.68 v -17.928 c 0,-3.24 0.792,-5.688 2.448,-7.272 1.656,-1.584 3.96,-2.376 6.912,-2.376 0.792,0 1.8,0.072 3.096,0.216 V 80.328 c -2.88,0 -5.472,0.504 -7.704,1.368 z" transform="translate(0 279.633340337606) translate(643.7223095421541 77.92412971912867) scale(1.2140739184235716) translate(-621.93106 -80.328)"></path> 
   <path id="path20397" style="font-style: normal; font-weight: 800; font-size: 72px; line-height: 1; font-family: &quot;Montserrat ExtraBold Alt1&quot;; font-variant-ligatures: none; text-align: center; text-anchor: middle; fill: rgb(254, 253, 206);" d="m 681.90594,118.416 -3.384,-9.576 c -1.224,0.864 -2.592,1.224 -4.176,1.224 -1.296,0 -2.304,-0.36 -3.024,-1.152 -0.72,-0.792 -1.08,-1.872 -1.08,-3.312 V 92.64 h 8.928 V 82.416 h -8.928 V 72.264 h -13.68 v 10.152 h -5.688 V 92.64 h 5.688 v 13.104 c 0,4.968 1.368,8.712 4.104,11.16 2.736,2.52 6.624,3.744 11.736,3.744 1.872,0 3.6,-0.144 5.256,-0.576 1.656,-0.36 3.096,-0.936 4.248,-1.656 z" transform="translate(0 279.633340337606) translate(678.8611052742173 68.13383764096099) scale(1.2140739184235716) translate(-650.87394 -72.264)"></path> 
   <path id="path20399" style="font-style: normal; font-weight: 800; font-size: 72px; line-height: 1; font-family: &quot;Montserrat ExtraBold Alt1&quot;; font-variant-ligatures: none; text-align: center; text-anchor: middle; fill: rgb(254, 253, 206);" d="m 727.58994,80.976 h -13.032 l -9.648,23.832 -9.576,-23.832 h -14.04 l 16.704,39.528 c -0.576,1.152 -1.296,2.016 -2.16,2.52 -0.864,0.576 -1.872,0.792 -3.168,0.792 -1.152,0 -2.232,-0.144 -3.312,-0.576 -1.08,-0.432 -2.016,-1.008 -2.736,-1.728 l -4.752,9.576 c 1.296,1.08 2.952,1.944 5.04,2.592 2.088,0.648 4.176,0.936 6.264,0.936 4.032,0 7.488,-0.936 10.368,-2.88 2.808,-1.944 5.184,-5.328 7.2,-10.152 z" transform="translate(0 279.633340337606) translate(715.7932338726624 78.71084961826713) scale(1.2140739184235716) translate(-681.29394 -80.976)"></path> 
  </g> 
  <g id="tagline" style="font-style:normal;font-weight:500;font-size:32px;line-height:1;font-family:Montserrat;font-variant-ligatures:none;text-align:center;text-anchor:middle"></g> 
 </g> 
</svg>