<svg xmlns:dc="http://purl.org/dc/elements/1.1/" xmlns:cc="http://creativecommons.org/ns#" xmlns:rdf="http://www.w3.org/1999/02/22-rdf-syntax-ns#" xmlns:svg="http://www.w3.org/2000/svg" xmlns="http://www.w3.org/2000/svg" id="svg302175" viewbox="0 0 1024 768" height="768px" width="1024px" version="1.1"> <metadata id="metadata302181"> 
  <rdf:rdf> 
   <cc:work rdf:about=""> 
    <dc:format>
     image/svg+xml
    </dc:format> 
    <dc:type rdf:resource="http://purl.org/dc/dcmitype/StillImage"></dc:type> 
   </cc:work> 
  </rdf:rdf> 
 </metadata> <defs id="defs302179"></defs> <g id="logo-group"> 
  <g id="title" style="font-style:normal;font-weight:800;font-size:72px;line-height:1;font-family:'Montserrat ExtraBold Alt1';font-variant-ligatures:none;text-align:center;text-anchor:middle" aria-label="o7Puppy"> 
   <path id="path302183" style="font-style: normal; font-weight: 800; font-size: 72px; line-height: 1; font-family: &quot;Montserrat ExtraBold Alt1&quot;; font-variant-ligatures: none; text-align: center; text-anchor: middle; fill: rgb(110, 133, 139);" d="m 355.50013,118.056 c 3.31199,1.728 7.12799,2.592 11.30399,2.592 4.176,0 7.99201,-0.864 11.376,-2.592 3.312,-1.728 5.976,-4.104 7.848,-7.2 1.872,-3.024 2.808,-6.552 2.808,-10.44 0,-3.888 -0.936,-7.344 -2.808,-10.368 -1.872,-3.024 -4.536,-5.4 -7.848,-7.128 -3.38399,-1.728 -7.2,-2.592 -11.376,-2.592 -4.248,0 -8.064,0.864 -11.37599,2.592 -3.31201,1.728 -5.976,4.104 -7.84801,7.128 -1.872,3.096 -2.80799,6.552 -2.80799,10.368 0,3.888 0.93599,7.416 2.80799,10.44 1.87201,3.096 4.536,5.472 7.92001,7.2 z m 17.20799,-10.728 c -1.584,1.656 -3.528,2.448 -5.904,2.448 -2.44799,0 -4.392,-0.792 -5.904,-2.448 -1.584,-1.656 -2.30399,-3.96 -2.30399,-6.912 0,-2.88 0.71999,-5.112 2.30399,-6.768 1.512,-1.584 3.45601,-2.448 5.904,-2.448 2.376,0 4.32,0.864 5.904,2.448 1.512,1.656 2.304,3.888 2.304,6.768 0,2.952 -0.792,5.256 -2.304,6.912 z" transform="translate(0 254.17041482119973) translate(251.9999999999999 97.95572255105051) scale(1.4634464016414017) translate(-344.77213 -80.328)"></path> 
   <path id="path302185" style="font-style: normal; font-weight: 800; font-size: 72px; line-height: 1; font-family: &quot;Montserrat ExtraBold Alt1&quot;; font-variant-ligatures: none; text-align: center; text-anchor: middle; fill: rgb(110, 133, 139);" d="m 432.65037,69.6 h -41.76 v 19.08 h 12.168 v -7.776 h 13.248 L 399.31437,120 h 15.552 l 17.784,-41.472 z" transform="translate(0 254.17041482119973) translate(323.8819115829587 82.25586955424157) scale(1.4634464016414017) translate(-390.89037 -69.6)"></path> 
   <path id="path302187" style="font-style: normal; font-weight: 800; font-size: 72px; line-height: 1; font-family: &quot;Montserrat ExtraBold Alt1&quot;; font-variant-ligatures: none; text-align: center; text-anchor: middle; fill: rgb(176, 171, 89);" d="m 482.53287,78.384 c -1.87199,-2.808 -4.464,-4.968 -7.776,-6.48 -3.38399,-1.512 -7.344,-2.304 -11.88,-2.304 h -23.03999 v 11.232 h 22.17599 c 2.88,0 5.112,0.648 6.62401,1.944 1.43999,1.296 2.23199,3.168 2.23199,5.472 0,2.376 -0.792,4.176 -2.23199,5.472 -1.51201,1.296 -3.74401,1.872 -6.62401,1.872 H 439.83688 V 120 h 14.25599 v -13.176 h 8.784 c 4.536,0 8.49601,-0.72 11.88,-2.232 3.312,-1.512 5.90401,-3.672 7.776,-6.48 1.8,-2.736 2.736,-6.048 2.736,-9.864 0,-3.744 -0.936,-7.056 -2.736,-9.864 z" transform="translate(0 254.17041482119973) translate(399.9028447202878 82.25586955424157) scale(1.4634464016414017) translate(-439.83688 -69.6)"></path> 
   <path id="path302189" style="font-style: normal; font-weight: 800; font-size: 72px; line-height: 1; font-family: &quot;Montserrat ExtraBold Alt1&quot;; font-variant-ligatures: none; text-align: center; text-anchor: middle; fill: rgb(176, 171, 89);" d="m 533.2445,80.976 h -13.68 v 18.792 c 0,3.168 -0.72,5.472 -2.088,6.984 -1.368,1.512 -3.096,2.232 -5.256,2.232 -2.16,0 -3.744,-0.648 -4.824,-2.016 -1.152,-1.296 -1.656,-3.456 -1.656,-6.408 V 80.976 h -13.68 v 21.816 c 0,5.976 1.44,10.44 4.464,13.392 3.024,3.024 7.056,4.464 12.096,4.464 2.232,0 4.392,-0.36 6.408,-1.224 2.016,-0.792 3.744,-2.016 5.184,-3.6 V 120 h 13.032 z" transform="translate(0 254.17041482119973) translate(480.71965269489993 98.90403581931415) scale(1.4634464016414017) translate(-492.0605 -80.976)"></path> 
   <path id="path302191" style="font-style: normal; font-weight: 800; font-size: 72px; line-height: 1; font-family: &quot;Montserrat ExtraBold Alt1&quot;; font-variant-ligatures: none; text-align: center; text-anchor: middle; fill: rgb(176, 171, 89);" d="m 576.18575,82.848 c -2.88,-1.656 -6.12,-2.52 -9.648,-2.52 -5.184,0 -9,1.512 -11.52,4.536 v -3.888 h -13.032 v 52.992 h 13.68 v -17.424 c 2.664,2.736 6.264,4.104 10.872,4.104 3.528,0 6.768,-0.792 9.648,-2.448 2.88,-1.656 5.184,-4.032 6.912,-7.056 1.728,-3.024 2.592,-6.624 2.592,-10.656 0,-4.032 -0.864,-7.56 -2.592,-10.584 -1.728,-3.024 -4.032,-5.4 -6.912,-7.056 z m -6.624,24.48 c -1.584,1.656 -3.528,2.448 -5.904,2.448 -2.448,0 -4.392,-0.792 -5.904,-2.448 -1.584,-1.656 -2.304,-3.96 -2.304,-6.84 0,-2.88 0.72,-5.112 2.304,-6.768 1.512,-1.656 3.456,-2.52 5.904,-2.52 2.376,0 4.32,0.864 5.904,2.52 1.512,1.656 2.304,3.888 2.304,6.768 0,2.88 -0.792,5.184 -2.304,6.84 z" transform="translate(0 254.17041482119973) translate(558.1729193633715 97.95572255105051) scale(1.4634464016414017) translate(-541.98575 -80.328)"></path> 
   <path id="path302193" style="font-style: normal; font-weight: 800; font-size: 72px; line-height: 1; font-family: &quot;Montserrat ExtraBold Alt1&quot;; font-variant-ligatures: none; text-align: center; text-anchor: middle; fill: rgb(176, 171, 89);" d="m 626.24825,82.848 c -2.88,-1.656 -6.12,-2.52 -9.648,-2.52 -5.184,0 -9,1.512 -11.52,4.536 v -3.888 h -13.032 v 52.992 h 13.68 v -17.424 c 2.664,2.736 6.264,4.104 10.872,4.104 3.528,0 6.768,-0.792 9.648,-2.448 2.88,-1.656 5.184,-4.032 6.912,-7.056 1.728,-3.024 2.592,-6.624 2.592,-10.656 0,-4.032 -0.864,-7.56 -2.592,-10.584 -1.728,-3.024 -4.032,-5.4 -6.912,-7.056 z m -6.624,24.48 c -1.584,1.656 -3.528,2.448 -5.904,2.448 -2.448,0 -4.392,-0.792 -5.904,-2.448 -1.584,-1.656 -2.304,-3.96 -2.304,-6.84 0,-2.88 0.72,-5.112 2.304,-6.768 1.512,-1.656 3.456,-2.52 5.904,-2.52 2.376,0 4.32,0.864 5.904,2.52 1.512,1.656 2.304,3.888 2.304,6.768 0,2.88 -0.792,5.184 -2.304,6.84 z" transform="translate(0 254.17041482119973) translate(635.8270440504684 97.95572255105051) scale(1.4634464016414017) translate(-592.04825 -80.328)"></path> 
   <path id="path302195" style="font-style: normal; font-weight: 800; font-size: 72px; line-height: 1; font-family: &quot;Montserrat ExtraBold Alt1&quot;; font-variant-ligatures: none; text-align: center; text-anchor: middle; fill: rgb(176, 171, 89);" d="m 682.09775,80.976 h -13.032 l -9.648,23.832 -9.576,-23.832 h -14.04 l 16.704,39.528 c -0.576,1.152 -1.296,2.016 -2.16,2.52 -0.864,0.576 -1.872,0.792 -3.168,0.792 -1.152,0 -2.232,-0.144 -3.312,-0.576 -1.08,-0.432 -2.016,-1.008 -2.736,-1.728 l -4.752,9.576 c 1.296,1.08 2.952,1.944 5.04,2.592 2.088,0.648 4.176,0.936 6.264,0.936 4.032,0 7.488,-0.936 10.368,-2.88 2.808,-1.944 5.184,-5.328 7.2,-10.152 z" transform="translate(0 254.17041482119973) translate(704.2482853896096 98.90403581931415) scale(1.4634464016414017) translate(-635.80175 -80.976)"></path> 
  </g> 
  <g id="tagline" style="font-style:normal;font-weight:500;font-size:32px;line-height:1;font-family:Montserrat;font-variant-ligatures:none;text-align:center;text-anchor:middle"></g> 
 </g> 
</svg>