<svg xmlns:dc="http://purl.org/dc/elements/1.1/" xmlns:cc="http://creativecommons.org/ns#" xmlns:rdf="http://www.w3.org/1999/02/22-rdf-syntax-ns#" xmlns:svg="http://www.w3.org/2000/svg" xmlns="http://www.w3.org/2000/svg" id="svg257609" viewbox="0 0 1024 768" height="768px" width="1024px" version="1.1"> <metadata id="metadata257615"> 
  <rdf:rdf> 
   <cc:work rdf:about=""> 
    <dc:format>
     image/svg+xml
    </dc:format> 
    <dc:type rdf:resource="http://purl.org/dc/dcmitype/StillImage"></dc:type> 
   </cc:work> 
  </rdf:rdf> 
 </metadata> <defs id="defs257613"></defs> <g id="logo-group"> 
  <g id="title" style="font-style:normal;font-weight:700;font-size:72px;line-height:1;font-family:'Brandmark1 Bold';font-variant-ligatures:none;text-align:center;text-anchor:middle" aria-label="o7primary"> 
   <path id="path257617" style="font-style: normal; font-weight: 700; font-size: 72px; line-height: 1; font-family: &quot;Brandmark1 Bold&quot;; font-variant-ligatures: none; text-align: center; text-anchor: middle; fill: rgb(215, 215, 215);" d="m 367.44481,123.024 c 2.736,0 5.472,-0.576 7.992,-1.584 2.448,-1.08 4.68,-2.52 6.552,-4.392 1.872,-1.944 3.312,-4.104 4.392,-6.552 1.08,-2.52 1.584,-5.256 1.584,-7.992 0,-2.808 -0.504,-5.472 -1.584,-7.992 -1.08,-2.448 -2.52,-4.68 -4.392,-6.552 -1.944,-1.872 -4.104,-3.312 -6.552,-4.392 -2.52,-1.08 -5.256,-1.584 -7.992,-1.584 -2.736,0 -5.472,0.504 -7.992,1.584 -2.448,1.08 -4.608,2.52 -6.552,4.392 -1.872,1.944 -3.312,4.104 -4.392,6.552 -1.008,2.52 -1.584,5.184 -1.584,7.992 0,2.736 0.576,5.472 1.584,7.992 1.08,2.448 2.52,4.608 4.392,6.552 1.944,1.872 4.104,3.312 6.552,4.392 2.52,1.008 5.256,1.584 7.992,1.584 z m 0,-30.24 c 5.328,0 9.72,4.392 9.72,9.72 0,5.328 -4.392,9.72 -9.72,9.72 -5.328,0 -9.72,-4.392 -9.72,-9.72 0,-5.328 4.392,-9.72 9.72,-9.72 z" transform="translate(0 288.24266666666665) translate(238.14986111111108 73.07733333333333) scale(1.1111111111111112) translate(-346.92481 -81.984)"></path> 
   <path id="path257619" style="font-style: normal; font-weight: 700; font-size: 72px; line-height: 1; font-family: &quot;Brandmark1 Bold&quot;; font-variant-ligatures: none; text-align: center; text-anchor: middle; fill: rgb(215, 215, 215);" d="m 390.29469,121.512 11.16,2.232 20.592,-48.384 v -7.344 h -35.712 V 78.6 h 22.536 z" transform="translate(0 288.24266666666665) translate(304.1608388888889 57.55733333333333) scale(1.1111111111111112) translate(-386.33469 -68.016)"></path> 
   <path id="path257621" style="font-style: normal; font-weight: 700; font-size: 72px; line-height: 1; font-family: &quot;Brandmark1 Bold&quot;; font-variant-ligatures: none; text-align: center; text-anchor: middle; fill: rgb(251, 251, 251);" d="m 462.36219,94.584 c -1.08,-2.448 -2.52,-4.608 -4.392,-6.552 -1.944,-1.872 -4.104,-3.312 -6.552,-4.392 -2.52,-1.08 -5.184,-1.584 -7.992,-1.584 -2.736,0 -5.472,0.504 -7.992,1.584 -2.448,1.08 -4.608,2.52 -6.552,4.392 -1.872,1.872 -3.312,4.104 -4.392,6.552 -1.008,2.52 -1.584,5.184 -1.584,7.992 v 30.6 l 10.8,3.6 v -16.128 c 0.576,0.288 1.152,0.576 1.728,0.792 2.52,1.08 5.256,1.656 7.992,1.656 2.736,0 5.472,-0.576 7.992,-1.656 2.448,-1.008 4.608,-2.448 6.552,-4.392 1.872,-1.872 3.312,-4.032 4.392,-6.48 1.08,-2.52 1.584,-5.256 1.584,-7.992 0,-2.808 -0.504,-5.472 -1.584,-7.992 z m -18.936,17.712 c -5.328,0 -9.72,-4.392 -9.72,-9.72 0,-5.328 4.392,-9.72 9.72,-9.72 5.328,0 9.72,4.392 9.72,9.72 0,5.328 -4.392,9.72 -9.72,9.72 z" transform="translate(0 288.24266666666665) translate(367.01806111111114 73.15733333333334) scale(1.1111111111111112) translate(-422.90619 -82.056)"></path> 
   <path id="path257623" style="font-style: normal; font-weight: 700; font-size: 72px; line-height: 1; font-family: &quot;Brandmark1 Bold&quot;; font-variant-ligatures: none; text-align: center; text-anchor: middle; fill: rgb(251, 251, 251);" d="m 478.15044,122.52 v 0 -17.712 c 0,-6.912 5.616,-12.6 12.6,-12.6 v -10.8 c -3.168,0 -6.264,0.648 -9.144,1.872 -2.736,1.152 -5.256,2.88 -7.416,5.04 -2.16,2.088 -3.816,4.608 -5.04,7.416 -1.224,2.88 -1.8,5.904 -1.8,9.072 v 17.712 z" transform="translate(0 288.24266666666665) translate(438.62278333333336 72.43733333333331) scale(1.1111111111111112) translate(-467.35044 -81.408)"></path> 
   <path id="path257625" style="font-style: normal; font-weight: 700; font-size: 72px; line-height: 1; font-family: &quot;Brandmark1 Bold&quot;; font-variant-ligatures: none; text-align: center; text-anchor: middle; fill: rgb(251, 251, 251);" d="m 493.23556,122.52 h 10.872 V 80.976 l -10.872,3.6 z" transform="translate(0 288.24266666666665) translate(489.6062500000001 71.95733333333335) scale(1.1111111111111112) translate(-493.23556 -80.976)"></path> 
   <path id="path257627" style="font-style: normal; font-weight: 700; font-size: 72px; line-height: 1; font-family: &quot;Brandmark1 Bold&quot;; font-variant-ligatures: none; text-align: center; text-anchor: middle; fill: rgb(251, 251, 251);" d="m 563.80569,87.672 c -3.24,-3.24 -7.632,-5.04 -12.24,-5.04 -4.464,0 -8.712,1.656 -11.88,4.752 -3.24,-3.096 -7.488,-4.752 -11.952,-4.752 -2.232,0 -4.464,0.432 -6.48,1.296 v -1.944 h -10.8 v 40.536 h 10.8 V 99.912 c 0,-3.528 2.88,-6.48 6.48,-6.48 3.6,0 6.552,2.952 6.552,6.48 v 22.608 h 10.8 V 99.912 c 0,-3.528 2.88,-6.48 6.48,-6.48 3.6,0 6.552,2.952 6.552,6.48 v 22.608 h 10.8 V 99.912 c 0,-4.608 -1.8,-8.928 -5.112,-12.24 z" transform="translate(0 288.24266666666665) translate(530.9597277777779 73.07733333333333) scale(1.1111111111111112) translate(-510.45369 -81.984)"></path> 
   <path id="path257629" style="font-style: normal; font-weight: 700; font-size: 72px; line-height: 1; font-family: &quot;Brandmark1 Bold&quot;; font-variant-ligatures: none; text-align: center; text-anchor: middle; fill: rgb(251, 251, 251);" d="m 601.44481,81.984 0.072,2.304 c -2.88,-1.44 -6.048,-2.232 -9.288,-2.232 -2.736,0 -5.472,0.504 -7.992,1.584 -2.448,1.08 -4.608,2.52 -6.552,4.392 -1.872,1.872 -3.312,4.104 -4.392,6.552 -1.008,2.52 -1.584,5.256 -1.584,7.992 0,2.736 0.576,5.472 1.584,7.992 1.08,2.448 2.52,4.608 4.392,6.552 1.944,1.872 4.104,3.312 6.552,4.392 2.52,1.008 5.256,1.584 7.992,1.584 3.24,0 6.408,-0.792 9.288,-2.232 l -0.072,1.656 h 10.8 V 81.984 Z m -4.32,28.944 c -1.44,0.864 -3.168,1.368 -4.896,1.368 -5.328,0 -9.72,-4.392 -9.72,-9.72 0,-5.328 4.392,-9.72 9.72,-9.72 1.872,0 3.744,0.504 5.256,1.584 1.584,0.936 2.808,2.376 3.528,4.032 0.648,1.296 0.936,2.664 0.936,4.104 0,1.728 -0.432,3.384 -1.296,4.896 -0.864,1.44 -2.016,2.664 -3.528,3.456 z" transform="translate(0 288.24266666666665) translate(621.2431944444445 73.07733333333333) scale(1.1111111111111112) translate(-571.70881 -81.984)"></path> 
   <path id="path257631" style="font-style: normal; font-weight: 700; font-size: 72px; line-height: 1; font-family: &quot;Brandmark1 Bold&quot;; font-variant-ligatures: none; text-align: center; text-anchor: middle; fill: rgb(251, 251, 251);" d="m 628.33794,122.52 v 0 -17.712 c 0,-6.912 5.616,-12.6 12.6,-12.6 v -10.8 c -3.168,0 -6.264,0.648 -9.144,1.872 -2.736,1.152 -5.256,2.88 -7.416,5.04 -2.16,2.088 -3.816,4.608 -5.04,7.416 -1.224,2.88 -1.8,5.904 -1.8,9.072 v 17.712 z" transform="translate(0 288.24266666666665) translate(694.3866722222224 72.43733333333331) scale(1.1111111111111112) translate(-617.53794 -81.408)"></path> 
   <path id="path257633" style="font-style: normal; font-weight: 700; font-size: 72px; line-height: 1; font-family: &quot;Brandmark1 Bold&quot;; font-variant-ligatures: none; text-align: center; text-anchor: middle; fill: rgb(251, 251, 251);" d="m 646.51906,136.776 h 11.448 l 21.888,-54.36 h -11.52 l -9.072,22.752 -9.648,-22.752 h -11.88 l 16.056,36.288 z" transform="translate(0 288.24266666666665) translate(739.050138888889 73.55733333333332) scale(1.1111111111111112) translate(-637.73506 -82.416)"></path> 
  </g> 
  <g id="tagline" style="font-style:normal;font-weight:400;font-size:32px;line-height:1;font-family:Montserrat;font-variant-ligatures:none;text-align:center;text-anchor:middle"></g> 
 </g> 
</svg>