<svg xmlns:dc="http://purl.org/dc/elements/1.1/" xmlns:cc="http://creativecommons.org/ns#" xmlns:rdf="http://www.w3.org/1999/02/22-rdf-syntax-ns#" xmlns:svg="http://www.w3.org/2000/svg" xmlns="http://www.w3.org/2000/svg" id="svg53453" viewbox="0 0 1024 768" height="768px" width="1024px" version="1.1"> <metadata id="metadata53459"> 
  <rdf:rdf> 
   <cc:work rdf:about=""> 
    <dc:format>
     image/svg+xml
    </dc:format> 
    <dc:type rdf:resource="http://purl.org/dc/dcmitype/StillImage"></dc:type> 
   </cc:work> 
  </rdf:rdf> 
 </metadata> <defs id="defs53457"></defs> <g id="logo-group"> 
  <g id="title" style="font-style:normal;font-weight:500;font-size:72px;line-height:1;font-family:'Raleway Medium Alt1';font-variant-ligatures:none;text-align:center;text-anchor:middle" aria-label="O7PRINCESS"> 
   <path id="path53461" style="font-style: normal; font-weight: 500; font-size: 72px; line-height: 1; font-family: &quot;Raleway Medium Alt1&quot;; font-variant-ligatures: none; text-align: center; text-anchor: middle; fill: rgb(116, 116, 118);" d="m 336.69237,97.248 c -0.21599,1.512 -0.504,3.024 -1.008,4.464 -0.79199,2.448 -1.94399,4.608 -3.45599,6.48 -1.51201,1.872 -3.384,3.456 -5.47201,4.608 -2.23199,1.152 -4.68,1.728 -7.344,1.728 -2.664,0 -5.04,-0.504 -7.2,-1.656 -2.16,-1.08 -4.03199,-2.592 -5.54399,-4.464 -1.584,-1.872 -2.73601,-3.96 -3.60001,-6.408 -0.504,-1.512 -0.86399,-3.096 -1.07999,-4.752 h -6.55201 c 0.216,2.304 0.72001,4.608 1.584,6.768 1.08,3.168 2.736,5.904 4.89601,8.352 2.08799,2.448 4.608,4.392 7.56,5.832 2.952,1.44 6.26399,2.16 9.86399,2.16 3.456,0 6.62401,-0.648 9.57601,-2.088 2.952,-1.44 5.47199,-3.312 7.632,-5.688 2.15999,-2.376 3.81599,-5.112 5.03999,-8.28 0.86401,-2.232 1.44,-4.608 1.728,-7.056 z m -33.624,-10.152 c 0.792,-2.376 1.94401,-4.464 3.45601,-6.408 1.512,-1.872 3.38399,-3.384 5.54399,-4.536 2.16001,-1.152 4.608,-1.728 7.344,-1.728 2.52,0 4.896,0.576 7.056,1.656 2.16,1.152 3.96001,2.592 5.54401,4.464 1.584,1.872 2.73599,3.96 3.59999,6.408 0.432,1.296 0.79201,2.664 1.008,3.96 h 6.552 c -0.288,-1.944 -0.79199,-3.96 -1.44,-5.832 -1.152,-3.096 -2.808,-5.832 -4.896,-8.352 -2.16,-2.448 -4.67999,-4.392 -7.55999,-5.904 -2.952,-1.512 -6.264,-2.304 -9.79201,-2.304 -3.528,0 -6.696,0.72 -9.648,2.16 -2.952,1.44 -5.472,3.312 -7.63199,5.688 -2.16001,2.448 -3.88801,5.184 -5.11201,8.28 -0.792,2.088 -1.368,4.176 -1.584,6.264 h 6.55201 c 0.216,-1.224 0.57599,-2.52 1.00799,-3.816 z" transform="translate(0 303.688) translate(227.661875 50) scale(1) translate(-295.43637 -68.52)"></path> 
   <path id="path53463" style="font-style: normal; font-weight: 500; font-size: 72px; line-height: 1; font-family: &quot;Raleway Medium Alt1&quot;; font-variant-ligatures: none; text-align: center; text-anchor: middle; fill: rgb(116, 116, 118);" d="m 374.56775,83.856 -22.896,45.288 h 7.2 l 25.704,-51.12 h -36.288 v 5.832 z" transform="translate(0 303.688) translate(295.513255 59.504000000000005) scale(1) translate(-348.28775 -78.024)"></path> 
   <path id="path53465" style="font-style: normal; font-weight: 500; font-size: 72px; line-height: 1; font-family: &quot;Raleway Medium Alt1&quot;; font-variant-ligatures: none; text-align: center; text-anchor: middle; fill: rgb(205, 205, 208);" d="m 426.635,79.32 c -0.792,-1.944 -1.872,-3.672 -3.24,-5.256 -1.368,-1.584 -3.024,-2.808 -4.896,-3.744 -1.872,-0.936 -3.96,-1.44 -6.192,-1.44 h -21.312 v 20.448 h 6.48 V 74.64 h 14.472 c 1.224,0 2.376,0.288 3.528,0.792 1.08,0.576 2.088,1.296 2.952,2.232 0.864,1.008 1.512,2.088 2.016,3.384 0.504,1.296 0.792,2.736 0.792,4.176 0,1.44 -0.216,2.808 -0.648,4.104 -0.504,1.368 -1.08,2.448 -1.8,3.456 -0.792,1.008 -1.728,1.728 -2.808,2.304 -1.08,0.576 -2.304,0.792 -3.6,0.792 H 390.995 V 120 h 6.48 v -18.36 h 15.264 c 2.232,0 4.248,-0.432 6.12,-1.368 1.872,-0.864 3.456,-2.088 4.752,-3.672 1.296,-1.512 2.304,-3.24 3.096,-5.256 0.72,-1.944 1.08,-3.96 1.08,-6.12 0,-2.016 -0.432,-3.96 -1.152,-5.904 z" transform="translate(0 303.688) translate(353.220505 50.36) scale(1) translate(-390.995 -68.88)"></path> 
   <path id="path53467" style="font-style: normal; font-weight: 500; font-size: 72px; line-height: 1; font-family: &quot;Raleway Medium Alt1&quot;; font-variant-ligatures: none; text-align: center; text-anchor: middle; fill: rgb(205, 205, 208);" d="m 462.49437,100.416 c 1.584,-0.36 3.096,-1.08 4.392,-2.088 1.296,-0.936 2.44801,-2.088 3.384,-3.456 0.936,-1.296 1.656,-2.808 2.16001,-4.464 0.50399,-1.656 0.79199,-3.384 0.79199,-5.184 0,-2.016 -0.432,-3.96 -1.15199,-5.904 -0.79201,-1.944 -1.87201,-3.672 -3.24001,-5.256 -1.368,-1.584 -3.024,-2.808 -4.896,-3.744 -1.872,-0.936 -3.96,-1.44 -6.192,-1.44 h -21.888 V 120 h 6.48001 v -18.36 h 6.47999 l -3.59999,-5.76 h -2.88 V 74.64 h 15.048 c 1.224,0 2.37599,0.288 3.52799,0.864 1.152,0.576 2.088,1.296 2.952,2.304 0.86401,1.008 1.512,2.088 2.016,3.384 0.50401,1.296 0.792,2.664 0.792,4.032 0,1.44 -0.21599,2.736 -0.648,4.032 -0.504,1.368 -1.08,2.448 -1.8,3.456 -0.79199,1.008 -1.728,1.8 -2.808,2.304 -1.07999,0.576 -2.304,0.864 -3.6,0.864 h -5.688 l 3.74401,5.76 11.66399,18.36 h 7.344 z" transform="translate(0 303.688) translate(413.079875 50.36) scale(1) translate(-435.85437 -68.88)"></path> 
   <path id="path53469" style="font-style: normal; font-weight: 500; font-size: 72px; line-height: 1; font-family: &quot;Raleway Medium Alt1&quot;; font-variant-ligatures: none; text-align: center; text-anchor: middle; fill: rgb(205, 205, 208);" d="m 483.10437,120 h 6.48001 V 68.88 h -6.48001 z" transform="translate(0 303.688) translate(475.329875 50.36) scale(1) translate(-483.10437 -68.88)"></path> 
   <path id="path53471" style="font-style: normal; font-weight: 500; font-size: 72px; line-height: 1; font-family: &quot;Raleway Medium Alt1&quot;; font-variant-ligatures: none; text-align: center; text-anchor: middle; fill: rgb(205, 205, 208);" d="m 501.8075,120 h 6.48 V 91.272 l -6.48,-8.424 z m 36.72,-51.048 v 39.744 l -31.68,-39.816 h -5.04 v 3.888 l 6.48,8.208 31.248,39.024 h 5.472 V 68.952 Z" transform="translate(0 303.688) translate(509.033005 50.36) scale(1) translate(-501.8075 -68.88)"></path> 
   <path id="path53473" style="font-style: normal; font-weight: 500; font-size: 72px; line-height: 1; font-family: &quot;Raleway Medium Alt1&quot;; font-variant-ligatures: none; text-align: center; text-anchor: middle; fill: rgb(205, 205, 208);" d="m 561.53375,87.24 c 0.72,-2.376 1.872,-4.536 3.384,-6.408 1.44,-1.872 3.312,-3.456 5.472,-4.608 2.16,-1.152 4.68,-1.8 7.56,-1.8 1.296,0 2.592,0.144 3.96,0.432 1.296,0.288 2.592,0.792 3.888,1.44 1.224,0.72 2.448,1.584 3.528,2.664 1.08,1.152 2.016,2.52 2.808,4.104 l 5.112,-3.312 c -1.584,-3.312 -4.032,-5.976 -7.272,-8.064 -3.312,-2.016 -7.2,-3.096 -11.736,-3.096 -3.888,0 -7.272,0.792 -10.296,2.232 -3.096,1.512 -5.616,3.456 -7.704,5.904 -2.088,2.448 -3.672,5.184 -4.752,8.208 -0.792,2.16 -1.224,4.32 -1.44,6.408 h 6.552 c 0.216,-1.368 0.504,-2.736 0.936,-4.104 z m 31.248,18.36 c -0.72,1.584 -1.656,2.952 -2.808,4.104 -1.152,1.152 -2.376,2.088 -3.6,2.808 -1.368,0.72 -2.664,1.296 -4.104,1.584 -1.44,0.36 -2.808,0.504 -4.104,0.504 -2.592,0 -4.896,-0.504 -7.056,-1.656 -2.16,-1.08 -4.032,-2.592 -5.616,-4.464 -1.656,-1.872 -2.88,-3.96 -3.744,-6.408 -0.576,-1.512 -0.936,-3.024 -1.152,-4.68 h -6.552 c 0.288,2.16 0.792,4.248 1.584,6.336 1.152,3.168 2.808,5.976 4.968,8.424 2.16,2.448 4.68,4.464 7.632,5.976 2.88,1.584 6.12,2.304 9.648,2.304 1.944,0 3.96,-0.216 6.048,-0.792 2.016,-0.504 3.96,-1.224 5.832,-2.304 1.872,-0.936 3.528,-2.232 4.968,-3.672 1.44,-1.44 2.592,-3.168 3.456,-5.112 z" transform="translate(0 303.688) translate(576.271255 50.072) scale(1) translate(-554.04575 -68.592)"></path> 
   <path id="path53475" style="font-style: normal; font-weight: 500; font-size: 72px; line-height: 1; font-family: &quot;Raleway Medium Alt1&quot;; font-variant-ligatures: none; text-align: center; text-anchor: middle; fill: rgb(205, 205, 208);" d="m 612.77188,74.64 h 27.576 v -5.76 h -34.05601 v 15.84 h 6.48001 z m -6.48001,39.6 V 120 h 34.704 v -5.76 z m 6.48001,-17.64 h 23.976 v -5.4 h -30.45601 v 16.56 h 6.48001 z" transform="translate(0 303.688) translate(643.517375 50.36) scale(1) translate(-606.29187 -68.88)"></path> 
   <path id="path53477" style="font-style: normal; font-weight: 500; font-size: 72px; line-height: 1; font-family: &quot;Raleway Medium Alt1&quot;; font-variant-ligatures: none; text-align: center; text-anchor: middle; fill: rgb(205, 205, 208);" d="m 679.90962,79.608 3.024,-5.256 c -2.15999,-1.728 -4.67999,-3.168 -7.416,-4.248 -2.808,-1.008 -5.904,-1.584 -9.35999,-1.584 -2.66401,0 -5.11201,0.36 -7.34401,1.008 -2.30399,0.648 -4.248,1.584 -5.832,2.88 -1.656,1.296 -2.952,2.88 -3.816,4.752 -0.93599,1.872 -1.36799,4.032 -1.36799,6.48 0,2.016 0.288,3.744 1.00799,5.184 0.648,1.44 1.65601,2.664 2.952,3.672 1.296,1.008 2.952,1.872 4.96801,2.592 1.94399,0.72 4.24799,1.44 6.83999,2.016 2.30401,0.576 4.392,1.152 6.264,1.728 1.87201,0.576 3.384,1.152 4.68001,1.872 1.22399,0.72 2.15999,1.584 2.808,2.592 0.648,1.008 1.00799,2.16 1.00799,3.6 0,2.592 -1.00799,4.536 -3.02399,5.832 -2.01601,1.296 -4.89601,1.944 -8.49601,1.944 -2.016,0 -3.88799,-0.144 -5.688,-0.576 -1.79999,-0.432 -3.456,-0.936 -5.04,-1.584 -1.584,-0.648 -2.95199,-1.368 -4.176,-2.232 -1.22399,-0.792 -2.232,-1.584 -2.952,-2.448 l -3.096,5.472 c 2.88,2.376 6.048,4.176 9.576,5.4 3.528,1.224 7.27201,1.8 11.232,1.8 2.59201,0 5.04001,-0.216 7.344,-0.792 2.232,-0.576 4.17601,-1.44 5.832,-2.592 1.656,-1.152 2.952,-2.664 3.96001,-4.464 0.93599,-1.8 1.43999,-3.96 1.43999,-6.408 0,-2.304 -0.432,-4.248 -1.22399,-5.832 -0.792,-1.584 -1.94401,-2.88 -3.456,-4.032 -1.51201,-1.08 -3.312,-2.016 -5.472,-2.736 -2.16001,-0.72 -4.53601,-1.44 -7.12801,-2.016 -2.30399,-0.504 -4.32,-1.008 -5.976,-1.512 -1.72799,-0.432 -3.096,-1.008 -4.248,-1.656 -1.15199,-0.648 -1.944,-1.44 -2.448,-2.376 -0.576,-0.864 -0.792,-2.016 -0.792,-3.456 0,-2.592 0.864,-4.608 2.73601,-6.12 1.872,-1.44 4.75199,-2.232 8.784,-2.232 1.51199,0 2.952,0.216 4.39199,0.504 1.44001,0.288 2.736,0.72 3.96001,1.224 1.15199,0.504 2.23199,1.08 3.24,1.656 0.93599,0.648 1.72799,1.296 2.30399,1.944 z" transform="translate(0 303.688) translate(698.079125 50) scale(1) translate(-645.85362 -68.52)"></path> 
   <path id="path53479" style="font-style: normal; font-weight: 500; font-size: 72px; line-height: 1; font-family: &quot;Raleway Medium Alt1&quot;; font-variant-ligatures: none; text-align: center; text-anchor: middle; fill: rgb(205, 205, 208);" d="m 723.78462,79.608 3.024,-5.256 c -2.15999,-1.728 -4.67999,-3.168 -7.416,-4.248 -2.808,-1.008 -5.904,-1.584 -9.35999,-1.584 -2.66401,0 -5.11201,0.36 -7.34401,1.008 -2.30399,0.648 -4.248,1.584 -5.832,2.88 -1.656,1.296 -2.952,2.88 -3.816,4.752 -0.93599,1.872 -1.36799,4.032 -1.36799,6.48 0,2.016 0.288,3.744 1.00799,5.184 0.648,1.44 1.65601,2.664 2.952,3.672 1.296,1.008 2.952,1.872 4.96801,2.592 1.94399,0.72 4.24799,1.44 6.83999,2.016 2.30401,0.576 4.392,1.152 6.264,1.728 1.87201,0.576 3.384,1.152 4.68001,1.872 1.22399,0.72 2.15999,1.584 2.808,2.592 0.648,1.008 1.00799,2.16 1.00799,3.6 0,2.592 -1.00799,4.536 -3.02399,5.832 -2.01601,1.296 -4.89601,1.944 -8.49601,1.944 -2.016,0 -3.88799,-0.144 -5.688,-0.576 -1.79999,-0.432 -3.456,-0.936 -5.04,-1.584 -1.584,-0.648 -2.95199,-1.368 -4.176,-2.232 -1.22399,-0.792 -2.232,-1.584 -2.952,-2.448 l -3.096,5.472 c 2.88,2.376 6.048,4.176 9.576,5.4 3.528,1.224 7.27201,1.8 11.232,1.8 2.59201,0 5.04001,-0.216 7.344,-0.792 2.232,-0.576 4.17601,-1.44 5.832,-2.592 1.656,-1.152 2.952,-2.664 3.96001,-4.464 0.93599,-1.8 1.43999,-3.96 1.43999,-6.408 0,-2.304 -0.432,-4.248 -1.22399,-5.832 -0.792,-1.584 -1.94401,-2.88 -3.456,-4.032 -1.51201,-1.08 -3.312,-2.016 -5.472,-2.736 -2.16001,-0.72 -4.53601,-1.44 -7.12801,-2.016 -2.30399,-0.504 -4.32,-1.008 -5.976,-1.512 -1.72799,-0.432 -3.096,-1.008 -4.248,-1.656 -1.15199,-0.648 -1.944,-1.44 -2.448,-2.376 -0.576,-0.864 -0.792,-2.016 -0.792,-3.456 0,-2.592 0.864,-4.608 2.73601,-6.12 1.872,-1.44 4.75199,-2.232 8.784,-2.232 1.51199,0 2.952,0.216 4.39199,0.504 1.44001,0.288 2.736,0.72 3.96001,1.224 1.15199,0.504 2.23199,1.08 3.24,1.656 0.93599,0.648 1.72799,1.296 2.30399,1.944 z" transform="translate(0 303.688) translate(756.954125 50) scale(1) translate(-689.72862 -68.52)"></path> 
  </g> 
  <g id="tagline" style="font-style:oblique;font-weight:600;font-size:32px;line-height:1;font-family:Raleway;font-variant-ligatures:none;text-align:center;text-anchor:middle"></g> 
 </g> 
</svg>