<svg xmlns:dc="http://purl.org/dc/elements/1.1/" xmlns:cc="http://creativecommons.org/ns#" xmlns:rdf="http://www.w3.org/1999/02/22-rdf-syntax-ns#" xmlns:svg="http://www.w3.org/2000/svg" xmlns="http://www.w3.org/2000/svg" id="svg528411" viewbox="0 0 1024 768" height="768px" width="1024px" version="1.1"> <metadata id="metadata528417"> 
  <rdf:rdf> 
   <cc:work rdf:about=""> 
    <dc:format>
     image/svg+xml
    </dc:format> 
    <dc:type rdf:resource="http://purl.org/dc/dcmitype/StillImage"></dc:type> 
   </cc:work> 
  </rdf:rdf> 
 </metadata> <defs id="defs528415"></defs> <g id="logo-group"> 
  <g id="title" style="font-style:normal;font-weight:500;font-size:72px;line-height:1;font-family:'Raleway Medium Alt1';font-variant-ligatures:none;text-align:center;text-anchor:middle" aria-label="o7Principle"> 
   <path id="path528419" style="font-style: normal; font-weight: 500; font-size: 72px; line-height: 1; font-family: &quot;Raleway Medium Alt1&quot;; font-variant-ligatures: none; text-align: center; text-anchor: middle; fill: rgb(203, 225, 213);" d="m 345.37175,120.72 c 2.808,0 5.4,-0.504 7.704,-1.584 2.304,-1.008 4.32,-2.448 6.048,-4.248 1.656,-1.728 2.952,-3.816 3.888,-6.192 0.864,-2.304 1.368,-4.824 1.368,-7.416 0,-2.592 -0.504,-5.112 -1.44,-7.488 -0.936,-2.304 -2.232,-4.392 -3.888,-6.192 -1.656,-1.728 -3.672,-3.168 -5.976,-4.248 -2.376,-1.008 -4.968,-1.584 -7.704,-1.584 -2.808,0 -5.4,0.576 -7.704,1.584 -2.304,1.08 -4.32,2.52 -5.976,4.248 -1.656,1.8 -2.952,3.888 -3.888,6.192 -0.936,2.376 -1.368,4.896 -1.368,7.488 0,2.592 0.432,5.112 1.368,7.416 0.864,2.376 2.16,4.464 3.816,6.192 1.656,1.8 3.672,3.24 5.976,4.248 2.304,1.08 4.896,1.584 7.776,1.584 z m -12.456,-19.368 c 0,-1.944 0.288,-3.744 0.936,-5.472 0.648,-1.728 1.512,-3.168 2.664,-4.464 1.152,-1.296 2.448,-2.304 3.96,-3.024 1.512,-0.72 3.168,-1.152 4.896,-1.152 1.728,0 3.312,0.36 4.824,1.08 1.512,0.72 2.88,1.728 4.032,3.024 1.152,1.296 2.016,2.736 2.664,4.464 0.648,1.728 1.008,3.528 1.008,5.4 0,2.016 -0.36,3.816 -1.008,5.544 -0.648,1.728 -1.512,3.168 -2.664,4.464 -1.152,1.296 -2.52,2.232 -4.032,2.952 -1.512,0.72 -3.096,1.08 -4.824,1.08 -1.728,0 -3.384,-0.36 -4.896,-1.08 -1.512,-0.72 -2.808,-1.656 -3.96,-2.952 -1.152,-1.224 -2.016,-2.664 -2.664,-4.392 -0.648,-1.656 -0.936,-3.456 -0.936,-5.472 z" transform="translate(0 259.60775154940234) translate(252.00000000000006 96.94571913153897) scale(1.3989056737542676) translate(-326.43575 -81.768)"></path> 
   <path id="path528421" style="font-style: normal; font-weight: 500; font-size: 72px; line-height: 1; font-family: &quot;Raleway Medium Alt1&quot;; font-variant-ligatures: none; text-align: center; text-anchor: middle; fill: rgb(203, 225, 213);" d="m 395.23962,83.856 -22.896,45.288 h 7.20001 l 25.70399,-51.12 h -36.28799 v 5.832 z" transform="translate(0 259.60775154940234) translate(311.4868970020457 91.70821628900296) scale(1.3989056737542676) translate(-368.95963 -78.024)"></path> 
   <path id="path528423" style="font-style: normal; font-weight: 500; font-size: 72px; line-height: 1; font-family: &quot;Raleway Medium Alt1&quot;; font-variant-ligatures: none; text-align: center; text-anchor: middle; fill: rgb(203, 225, 213);" d="m 447.30687,79.32 c -0.79199,-1.944 -1.87199,-3.672 -3.24,-5.256 -1.368,-1.584 -3.024,-2.808 -4.89599,-3.744 -1.87201,-0.936 -3.96001,-1.44 -6.192,-1.44 h -21.31201 v 20.448 h 6.48001 V 74.64 h 14.47199 c 1.224,0 2.376,0.288 3.52801,0.792 1.07999,0.576 2.08799,1.296 2.952,2.232 0.86399,1.008 1.512,2.088 2.01599,3.384 0.504,1.296 0.79201,2.736 0.79201,4.176 0,1.44 -0.21601,2.808 -0.64801,4.104 -0.504,1.368 -1.08,2.448 -1.8,3.456 -0.792,1.008 -1.728,1.728 -2.808,2.304 -1.08,0.576 -2.304,0.792 -3.59999,0.792 H 411.66687 V 120 h 6.48001 v -18.36 h 15.26399 c 2.232,0 4.24801,-0.432 6.12,-1.368 1.872,-0.864 3.456,-2.088 4.752,-3.672 1.296,-1.512 2.30401,-3.24 3.096,-5.256 0.72001,-1.944 1.08,-3.96 1.08,-6.12 0,-2.016 -0.43199,-3.96 -1.152,-5.904 z" transform="translate(0 259.60775154940234) translate(371.23029734843095 78.91662280819395) scale(1.3989056737542676) translate(-411.66687 -68.88)"></path> 
   <path id="path528425" style="font-style: normal; font-weight: 500; font-size: 72px; line-height: 1; font-family: &quot;Raleway Medium Alt1&quot;; font-variant-ligatures: none; text-align: center; text-anchor: middle; fill: rgb(203, 225, 213);" d="M 475.39025,87.96 V 82.2 c -0.288,0 -0.576,-0.072 -0.864,-0.072 h -1.224 c -2.448,0.216 -4.68,1.152 -6.768,2.736 -2.16,1.584 -3.816,3.672 -5.112,6.264 v -8.712 h -5.904 V 120 h 6.336 V 96.816 c 1.008,-2.736 2.664,-4.824 5.112,-6.408 2.448,-1.512 5.256,-2.304 8.424,-2.448 z" transform="translate(0 259.60775154940234) translate(432.57424163238534 97.44932517409049) scale(1.3989056737542676) translate(-455.51825 -82.128)"></path> 
   <path id="path528427" style="font-style: normal; font-weight: 500; font-size: 72px; line-height: 1; font-family: &quot;Raleway Medium Alt1&quot;; font-variant-ligatures: none; text-align: center; text-anchor: middle; fill: rgb(203, 225, 213);" d="m 481.6745,120 h 6.336 V 82.416 h -6.336 z m 0,-44.64 h 6.336 v -7.92 h -6.336 z" transform="translate(0 259.60775154940234) translate(469.1643681615204 76.9021986379878) scale(1.3989056737542676) translate(-481.6745 -67.44)"></path> 
   <path id="path528429" style="font-style: normal; font-weight: 500; font-size: 72px; line-height: 1; font-family: &quot;Raleway Medium Alt1&quot;; font-variant-ligatures: none; text-align: center; text-anchor: middle; fill: rgb(203, 225, 213);" d="M 530.88425,120 V 97.536 c 0,-2.232 -0.216,-4.32 -0.576,-6.264 -0.36,-1.872 -0.936,-3.528 -1.8,-4.968 -0.864,-1.44 -2.016,-2.52 -3.456,-3.312 -1.44,-0.792 -3.24,-1.224 -5.4,-1.224 -3.312,0 -6.408,0.792 -9.216,2.376 -2.808,1.584 -4.968,3.744 -6.408,6.336 v -8.064 h -5.76 V 120 h 6.336 V 97.32 c 0.432,-1.44 1.08,-2.736 1.944,-3.96 0.864,-1.152 1.872,-2.232 3.024,-3.096 1.152,-0.864 2.376,-1.512 3.672,-2.016 1.296,-0.504 2.592,-0.792 3.888,-0.792 2.448,0 4.32,0.936 5.544,2.736 1.224,1.872 1.872,4.752 1.872,8.784 V 120 Z" transform="translate(0 259.60775154940234) translate(492.3774591853802 96.94571913153897) scale(1.3989056737542676) translate(-498.26825 -81.768)"></path> 
   <path id="path528431" style="font-style: normal; font-weight: 500; font-size: 72px; line-height: 1; font-family: &quot;Raleway Medium Alt1&quot;; font-variant-ligatures: none; text-align: center; text-anchor: middle; fill: rgb(203, 225, 213);" d="m 538.217,101.136 c 0,2.664 0.432,5.184 1.368,7.56 0.936,2.376 2.232,4.464 3.96,6.192 1.656,1.8 3.672,3.24 6.048,4.248 2.304,1.08 4.896,1.584 7.776,1.584 1.872,0 3.6,-0.216 5.328,-0.72 1.728,-0.432 3.24,-1.08 4.68,-1.944 1.368,-0.792 2.592,-1.8 3.6,-2.952 1.008,-1.152 1.872,-2.376 2.448,-3.816 l -6.192,-1.872 c -0.288,0.864 -0.792,1.584 -1.44,2.304 -0.72,0.72 -1.512,1.296 -2.376,1.8 -0.864,0.576 -1.872,1.008 -2.952,1.296 -1.08,0.288 -2.16,0.432 -3.24,0.432 -1.728,0 -3.384,-0.36 -4.896,-1.08 -1.512,-0.72 -2.808,-1.656 -3.96,-2.952 -1.152,-1.296 -2.016,-2.808 -2.664,-4.536 -0.72,-1.728 -1.008,-3.528 -1.008,-5.544 0,-2.016 0.288,-3.816 0.936,-5.544 0.648,-1.656 1.512,-3.096 2.664,-4.392 1.08,-1.224 2.376,-2.16 3.96,-2.88 1.512,-0.72 3.168,-1.08 4.896,-1.08 2.088,0 4.032,0.504 5.76,1.512 1.728,1.008 3.024,2.376 4.032,4.104 l 6.192,-1.944 c -1.44,-2.736 -3.456,-4.968 -6.192,-6.624 -2.736,-1.656 -5.904,-2.52 -9.648,-2.52 -2.88,0 -5.544,0.576 -7.848,1.584 -2.304,1.008 -4.32,2.448 -5.976,4.176 -1.728,1.728 -3.024,3.816 -3.888,6.12 -0.936,2.376 -1.368,4.896 -1.368,7.488 z" transform="translate(0 259.60775154940234) translate(548.2619922197708 96.94571913153897) scale(1.3989056737542676) translate(-538.217 -81.768)"></path> 
   <path id="path528433" style="font-style: normal; font-weight: 500; font-size: 72px; line-height: 1; font-family: &quot;Raleway Medium Alt1&quot;; font-variant-ligatures: none; text-align: center; text-anchor: middle; fill: rgb(203, 225, 213);" d="m 580.6745,120 h 6.336 V 82.416 h -6.336 z m 0,-44.64 h 6.336 v -7.92 h -6.336 z" transform="translate(0 259.60775154940234) translate(607.6560298631927 76.9021986379878) scale(1.3989056737542676) translate(-580.6745 -67.44)"></path> 
   <path id="path528435" style="font-style: normal; font-weight: 500; font-size: 72px; line-height: 1; font-family: &quot;Raleway Medium Alt1&quot;; font-variant-ligatures: none; text-align: center; text-anchor: middle; fill: rgb(203, 225, 213);" d="m 617.50025,120.72 c 2.448,0 4.752,-0.504 6.84,-1.512 2.016,-1.008 3.816,-2.448 5.328,-4.176 1.44,-1.728 2.592,-3.816 3.456,-6.192 0.792,-2.376 1.224,-4.896 1.224,-7.632 0,-2.52 -0.504,-4.968 -1.368,-7.344 -0.864,-2.304 -2.088,-4.392 -3.672,-6.192 -1.584,-1.8 -3.456,-3.24 -5.616,-4.32 -2.16,-1.008 -4.536,-1.584 -7.128,-1.584 -2.88,0 -5.544,0.72 -7.92,2.16 -2.376,1.44 -4.32,3.24 -5.76,5.544 v -7.056 h -5.616 v 52.92 h 6.336 v -22.752 c 1.368,2.376 3.24,4.32 5.616,5.832 2.376,1.584 5.112,2.304 8.28,2.304 z m -1.944,-5.472 c -1.296,0 -2.592,-0.216 -3.744,-0.648 -1.224,-0.432 -2.376,-1.08 -3.384,-1.872 -1.08,-0.792 -2.016,-1.728 -2.808,-2.808 -0.864,-1.08 -1.512,-2.232 -2.016,-3.528 V 95.664 c 0.216,-1.152 0.72,-2.232 1.512,-3.24 0.792,-1.008 1.728,-1.944 2.808,-2.664 1.08,-0.72 2.232,-1.368 3.456,-1.8 1.224,-0.432 2.448,-0.72 3.6,-0.72 1.8,0 3.456,0.432 5.04,1.152 1.584,0.72 2.952,1.728 4.104,3.024 1.152,1.296 2.016,2.736 2.736,4.464 0.648,1.728 1.008,3.456 1.008,5.328 0,1.8 -0.288,3.528 -0.864,5.184 -0.576,1.728 -1.44,3.24 -2.52,4.536 -1.08,1.296 -2.376,2.376 -3.888,3.168 -1.512,0.792 -3.168,1.152 -5.04,1.152 z" transform="translate(0 259.60775154940234) translate(630.8691208870525 96.94571913153897) scale(1.3989056737542676) translate(-597.26825 -81.768)"></path> 
   <path id="path528437" style="font-style: normal; font-weight: 500; font-size: 72px; line-height: 1; font-family: &quot;Raleway Medium Alt1&quot;; font-variant-ligatures: none; text-align: center; text-anchor: middle; fill: rgb(203, 225, 213);" d="m 642.27162,67.44 v 45.144 c 0,2.52 0.648,4.464 2.08801,5.832 1.43999,1.44 3.38399,2.088 5.832,2.088 1.07999,0 2.376,-0.144 3.81599,-0.432 1.44001,-0.288 2.664,-0.648 3.744,-1.08 l -1.008,-5.112 c -0.64799,0.288 -1.29599,0.504 -2.016,0.648 -0.72,0.144 -1.36799,0.216 -1.87199,0.216 -1.36801,0 -2.448,-0.36 -3.168,-1.152 -0.72001,-0.792 -1.08001,-1.872 -1.08001,-3.312 V 67.44 Z" transform="translate(0 259.60775154940234) translate(693.8245905181151 76.9021986379878) scale(1.3989056737542676) translate(-642.27162 -67.44)"></path> 
   <path id="path528439" style="font-style: normal; font-weight: 500; font-size: 72px; line-height: 1; font-family: &quot;Raleway Medium Alt1&quot;; font-variant-ligatures: none; text-align: center; text-anchor: middle; fill: rgb(203, 225, 213);" d="m 679.29088,120.72 c 1.87199,0 3.67199,-0.216 5.39999,-0.72 1.728,-0.432 3.24001,-1.08 4.68,-1.944 1.44,-0.864 2.66401,-1.872 3.744,-3.024 1.08001,-1.152 1.944,-2.376 2.592,-3.816 l -5.472,-1.512 c -0.432,1.008 -1.008,1.872 -1.72799,2.592 -0.72001,0.792 -1.58401,1.44 -2.52,1.944 -1.008,0.576 -2.01601,1.008 -3.096,1.296 -1.15201,0.288 -2.23201,0.432 -3.384,0.432 -1.65601,0 -3.24,-0.288 -4.68001,-0.936 -1.43999,-0.576 -2.736,-1.44 -3.88799,-2.592 -1.15201,-1.08 -2.08801,-2.376 -2.80801,-3.96 -0.71999,-1.512 -1.15199,-3.24 -1.296,-5.112 h 31.17601 c 0,-0.216 0.072,-0.576 0.072,-1.008 0,-0.432 0.072,-0.864 0.072,-1.44 0,-2.448 -0.50399,-4.896 -1.368,-7.2 -0.864,-2.304 -2.15999,-4.392 -3.744,-6.12 -1.65599,-1.728 -3.672,-3.168 -5.976,-4.248 -2.304,-1.008 -4.89599,-1.584 -7.70399,-1.584 -2.88,0 -5.472,0.576 -7.77601,1.584 -2.376,1.008 -4.39199,2.448 -6.12,4.176 -1.728,1.8 -3.024,3.888 -3.95999,6.192 -0.93601,2.376 -1.36801,4.896 -1.36801,7.488 0,2.664 0.432,5.184 1.36801,7.56 0.93599,2.376 2.23199,4.464 3.95999,6.192 1.65601,1.8 3.672,3.24 6.048,4.248 2.30401,1.008 4.89601,1.512 7.77601,1.512 z m 12.88799,-22.032 h -25.488 c 0.144,-1.728 0.50401,-3.384 1.22401,-4.896 0.71999,-1.44 1.58399,-2.736 2.736,-3.816 1.15199,-1.08 2.448,-1.944 3.95999,-2.52 1.44001,-0.576 3.024,-0.936 4.75201,-0.936 1.65599,0 3.24,0.36 4.75199,0.936 1.44001,0.576 2.736,1.44 3.88801,2.448 1.15199,1.08 2.08799,2.376 2.80799,3.888 0.72001,1.512 1.22401,3.168 1.368,4.896 z" transform="translate(0 259.60775154940234) translate(718.8192019065577 96.94571913153897) scale(1.3989056737542676) translate(-660.13888 -81.768)"></path> 
  </g> 
  <g id="tagline" style="font-style:oblique;font-weight:600;font-size:32px;line-height:1;font-family:Raleway;font-variant-ligatures:none;text-align:center;text-anchor:middle"></g> 
 </g> 
</svg>