<svg xmlns:dc="http://purl.org/dc/elements/1.1/" xmlns:cc="http://creativecommons.org/ns#" xmlns:rdf="http://www.w3.org/1999/02/22-rdf-syntax-ns#" xmlns:svg="http://www.w3.org/2000/svg" xmlns="http://www.w3.org/2000/svg" id="svg261492" viewbox="0 0 1024 768" height="768px" width="1024px" version="1.1"> <metadata id="metadata261498"> 
  <rdf:rdf> 
   <cc:work rdf:about=""> 
    <dc:format>
     image/svg+xml
    </dc:format> 
    <dc:type rdf:resource="http://purl.org/dc/dcmitype/StillImage"></dc:type> 
   </cc:work> 
  </rdf:rdf> 
 </metadata> <defs id="defs261496"></defs> <g id="logo-group"> 
  <g id="title" style="font-style:normal;font-weight:300;font-size:72px;line-height:1;font-family:'Montserrat Light Alt1';font-variant-ligatures:none;text-align:center;text-anchor:middle" aria-label="o7Product"> 
   <path id="path261500" style="font-style: normal; font-weight: 300; font-size: 72px; line-height: 1; font-family: &quot;Montserrat Light Alt1&quot;; font-variant-ligatures: none; text-align: center; text-anchor: middle; fill: rgb(183, 145, 83);" d="m 338.76575,117.84 c 2.88,1.656 6.048,2.448 9.648,2.448 3.528,0 6.696,-0.792 9.576,-2.448 2.88,-1.584 5.112,-3.888 6.768,-6.768 1.584,-2.88 2.448,-6.192 2.448,-9.864 0,-3.6 -0.864,-6.912 -2.448,-9.792 -1.656,-2.88 -3.888,-5.184 -6.768,-6.84 -2.88,-1.584 -6.048,-2.448 -9.576,-2.448 -3.6,0 -6.768,0.864 -9.648,2.448 -2.88,1.656 -5.112,3.96 -6.696,6.84 -1.656,2.88 -2.448,6.192 -2.448,9.792 0,3.672 0.792,6.984 2.448,9.864 1.584,2.88 3.816,5.184 6.696,6.768 z m 17.352,-2.808 c -2.304,1.368 -4.824,2.016 -7.704,2.016 -2.88,0 -5.472,-0.648 -7.776,-2.016 -2.304,-1.296 -4.104,-3.168 -5.4,-5.616 -1.296,-2.376 -1.944,-5.112 -1.944,-8.208 0,-3.024 0.648,-5.76 1.944,-8.208 1.296,-2.376 3.096,-4.248 5.4,-5.616 2.304,-1.296 4.896,-2.016 7.776,-2.016 2.88,0 5.4,0.72 7.704,2.016 2.304,1.368 4.104,3.24 5.4,5.616 1.296,2.448 2.016,5.184 2.016,8.208 0,3.096 -0.72,5.832 -2.016,8.208 -1.296,2.448 -3.096,4.32 -5.4,5.616 z" transform="translate(0 296.76266666666663) translate(242.06833333333327 74.67733333333334) scale(1.1111111111111112) translate(-329.62175 -82.128)"></path> 
   <path id="path261502" style="font-style: normal; font-weight: 300; font-size: 72px; line-height: 1; font-family: &quot;Montserrat Light Alt1&quot;; font-variant-ligatures: none; text-align: center; text-anchor: middle; fill: rgb(183, 145, 83);" d="m 407.1545,69.6 h -36.144 v 12.96 h 3.6 v -9.648 h 28.296 L 381.4505,120 h 4.032 l 21.672,-47.808 z" transform="translate(0 296.76266666666663) translate(304.72249999999985 60.757333333333335) scale(1.1111111111111112) translate(-371.0105 -69.6)"></path> 
   <path id="path261504" style="font-style: normal; font-weight: 300; font-size: 72px; line-height: 1; font-family: &quot;Montserrat Light Alt1&quot;; font-variant-ligatures: none; text-align: center; text-anchor: middle; fill: rgb(183, 145, 83);" d="m 452.08812,74.136 c -3.59999,-3.024 -8.568,-4.536 -14.904,-4.536 h -18.072 v 3.312 h 18.072 c 5.328,0 9.432,1.224 12.312,3.6 2.808,2.376 4.248,5.76 4.248,10.08 0,4.392 -1.44,7.776 -4.248,10.08 -2.88,2.376 -6.984,3.528 -12.312,3.528 h -18.072 V 120 h 3.67201 v -16.488 h 14.39999 c 6.336,0 11.30401,-1.44 14.904,-4.464 3.60001,-3.024 5.40001,-7.128 5.40001,-12.456 0,-5.256 -1.8,-9.432 -5.40001,-12.456 z" transform="translate(0 296.76266666666663) translate(374.83541111111094 60.757333333333335) scale(1.1111111111111112) translate(-419.11212 -69.6)"></path> 
   <path id="path261506" style="font-style: normal; font-weight: 300; font-size: 72px; line-height: 1; font-family: &quot;Montserrat Light Alt1&quot;; font-variant-ligatures: none; text-align: center; text-anchor: middle; fill: rgb(183, 145, 83);" d="m 476.45675,84.36 c -2.448,1.44 -4.248,3.528 -5.4,6.264 v -8.208 h -3.456 V 120 h 3.6 v -19.584 c 0,-4.608 1.152,-8.28 3.528,-10.872 2.304,-2.592 5.616,-3.96 9.792,-3.96 l 0.864,0.072 v -3.528 c -3.528,0 -6.48,0.792 -8.928,2.232 z" transform="translate(0 296.76266666666663) translate(445.37833333333316 74.67733333333334) scale(1.1111111111111112) translate(-467.60075 -82.128)"></path> 
   <path id="path261508" style="font-style: normal; font-weight: 300; font-size: 72px; line-height: 1; font-family: &quot;Montserrat Light Alt1&quot;; font-variant-ligatures: none; text-align: center; text-anchor: middle; fill: rgb(183, 145, 83);" d="m 500.06263,117.84 c 2.88,1.656 6.048,2.448 9.64799,2.448 3.528,0 6.696,-0.792 9.576,-2.448 2.88,-1.584 5.11201,-3.888 6.768,-6.768 1.58401,-2.88 2.448,-6.192 2.448,-9.864 0,-3.6 -0.86399,-6.912 -2.448,-9.792 -1.65599,-2.88 -3.888,-5.184 -6.768,-6.84 -2.88,-1.584 -6.048,-2.448 -9.576,-2.448 -3.59999,0 -6.76799,0.864 -9.64799,2.448 -2.88,1.656 -5.11201,3.96 -6.69601,6.84 -1.656,2.88 -2.44799,6.192 -2.44799,9.792 0,3.672 0.79199,6.984 2.44799,9.864 1.584,2.88 3.81601,5.184 6.69601,6.768 z m 17.35199,-2.808 c -2.30399,1.368 -4.82399,2.016 -7.704,2.016 -2.88,0 -5.47199,-0.648 -7.776,-2.016 -2.304,-1.296 -4.104,-3.168 -5.4,-5.616 -1.29599,-2.376 -1.944,-5.112 -1.944,-8.208 0,-3.024 0.64801,-5.76 1.944,-8.208 1.296,-2.376 3.096,-4.248 5.4,-5.616 2.30401,-1.296 4.896,-2.016 7.776,-2.016 2.88001,0 5.40001,0.72 7.704,2.016 2.304,1.368 4.10401,3.24 5.4,5.616 1.29601,2.448 2.01601,5.184 2.01601,8.208 0,3.096 -0.72,5.832 -2.01601,8.208 -1.29599,2.448 -3.096,4.32 -5.4,5.616 z" transform="translate(0 296.76266666666663) translate(487.9537555555554 74.67733333333334) scale(1.1111111111111112) translate(-490.91863 -82.128)"></path> 
   <path id="path261510" style="font-style: normal; font-weight: 300; font-size: 72px; line-height: 1; font-family: &quot;Montserrat Light Alt1&quot;; font-variant-ligatures: none; text-align: center; text-anchor: middle; fill: rgb(183, 145, 83);" d="m 573.00875,66.576 h -3.6 v 24.552 c -1.584,-2.808 -3.672,-5.04 -6.336,-6.624 -2.664,-1.584 -5.688,-2.376 -9,-2.376 -3.528,0 -6.696,0.864 -9.504,2.448 -2.88,1.584 -5.112,3.888 -6.696,6.768 -1.584,2.88 -2.376,6.192 -2.376,9.864 0,3.744 0.792,6.984 2.376,9.864 1.584,2.88 3.816,5.184 6.696,6.768 2.808,1.656 5.976,2.448 9.504,2.448 3.384,0 6.408,-0.792 9.144,-2.376 2.664,-1.584 4.752,-3.816 6.264,-6.768 V 120 h 3.528 z m -11.016,48.456 c -2.304,1.368 -4.824,2.016 -7.704,2.016 -2.88,0 -5.472,-0.648 -7.776,-2.016 -2.304,-1.296 -4.104,-3.168 -5.4,-5.616 -1.296,-2.376 -1.944,-5.112 -1.944,-8.208 0,-3.024 0.648,-5.76 1.944,-8.208 1.296,-2.376 3.096,-4.248 5.4,-5.616 2.304,-1.296 4.896,-2.016 7.776,-2.016 2.88,0 5.4,0.72 7.704,2.016 2.304,1.368 4.104,3.24 5.4,5.616 1.296,2.448 2.016,5.184 2.016,8.208 0,3.096 -0.72,5.832 -2.016,8.208 -1.296,2.448 -3.096,4.32 -5.4,5.616 z" transform="translate(0 296.76266666666663) translate(554.1516666666665 57.397333333333336) scale(1.1111111111111112) translate(-535.49675 -66.576)"></path> 
   <path id="path261512" style="font-style: normal; font-weight: 300; font-size: 72px; line-height: 1; font-family: &quot;Montserrat Light Alt1&quot;; font-variant-ligatures: none; text-align: center; text-anchor: middle; fill: rgb(183, 145, 83);" d="m 621.161,82.416 h -3.6 v 20.016 c 0,4.464 -1.296,8.064 -3.744,10.656 -2.448,2.664 -5.832,3.96 -10.008,3.96 -3.96,0 -6.984,-1.08 -9.144,-3.312 -2.16,-2.16 -3.24,-5.4 -3.24,-9.648 V 82.416 h -3.6 v 21.96 c 0,5.184 1.368,9.072 4.176,11.808 2.736,2.736 6.624,4.104 11.52,4.104 3.312,0 6.192,-0.72 8.64,-2.16 2.448,-1.44 4.248,-3.528 5.544,-6.192 V 120 h 3.456 z" transform="translate(0 296.76266666666663) translate(628.9608333333332 74.99733333333333) scale(1.1111111111111112) translate(-587.825 -82.416)"></path> 
   <path id="path261514" style="font-style: normal; font-weight: 300; font-size: 72px; line-height: 1; font-family: &quot;Montserrat Light Alt1&quot;; font-variant-ligatures: none; text-align: center; text-anchor: middle; fill: rgb(183, 145, 83);" d="m 641.60338,117.84 c 2.88,1.656 6.12,2.448 9.792,2.448 3.02399,0 5.76,-0.576 8.208,-1.728 2.44799,-1.152 4.46399,-2.88 6.048,-5.184 l -2.664,-1.944 c -1.36801,1.872 -3.024,3.312 -5.04001,4.248 -2.016,0.936 -4.17599,1.368 -6.55199,1.368 -2.952,0 -5.61601,-0.648 -7.92001,-1.944 -2.304,-1.296 -4.17599,-3.168 -5.472,-5.616 -1.296,-2.376 -1.94399,-5.112 -1.94399,-8.28 0,-3.096 0.64799,-5.832 1.94399,-8.28 1.29601,-2.376 3.168,-4.248 5.472,-5.544 2.304,-1.296 4.96801,-2.016 7.92001,-2.016 2.376,0 4.53599,0.504 6.55199,1.44 2.01601,0.936 3.672,2.304 5.04001,4.176 l 2.664,-1.944 c -1.58401,-2.232 -3.60001,-3.96 -6.048,-5.112 -2.448,-1.152 -5.18401,-1.8 -8.208,-1.8 -3.672,0 -6.912,0.864 -9.792,2.448 -2.88,1.584 -5.18401,3.888 -6.76801,6.768 -1.65599,2.88 -2.44799,6.192 -2.44799,9.864 0,3.672 0.792,6.984 2.44799,9.864 1.584,2.88 3.88801,5.184 6.76801,6.768 z" transform="translate(0 296.76266666666663) translate(695.1412555555553 74.67733333333334) scale(1.1111111111111112) translate(-632.38738 -82.128)"></path> 
   <path id="path261516" style="font-style: normal; font-weight: 300; font-size: 72px; line-height: 1; font-family: &quot;Montserrat Light Alt1&quot;; font-variant-ligatures: none; text-align: center; text-anchor: middle; fill: rgb(183, 145, 83);" d="m 695.49875,117.624 -1.512,-2.52 c -1.584,1.44 -3.528,2.088 -5.832,2.088 -2.304,0 -4.104,-0.576 -5.256,-1.872 -1.152,-1.296 -1.728,-3.168 -1.728,-5.616 V 85.512 h 11.952 v -3.096 h -11.952 v -8.208 h -3.6 v 8.208 h -6.912 v 3.096 h 6.912 v 24.552 c 0,3.24 0.864,5.76 2.664,7.56 1.728,1.8 4.248,2.664 7.56,2.664 1.44,0 2.88,-0.216 4.248,-0.648 1.368,-0.432 2.52,-1.152 3.456,-2.016 z" transform="translate(0 296.76266666666663) translate(754.3316666666665 65.87733333333333) scale(1.1111111111111112) translate(-670.65875 -74.208)"></path> 
  </g> 
  <g id="tagline" style="font-style:normal;font-weight:400;font-size:32px;line-height:1;font-family:Montserrat;font-variant-ligatures:none;text-align:center;text-anchor:middle"></g> 
 </g> 
</svg>