<svg xmlns:dc="http://purl.org/dc/elements/1.1/" xmlns:cc="http://creativecommons.org/ns#" xmlns:rdf="http://www.w3.org/1999/02/22-rdf-syntax-ns#" xmlns:svg="http://www.w3.org/2000/svg" xmlns="http://www.w3.org/2000/svg" id="svg252920" viewbox="0 0 1024 768" height="768px" width="1024px" version="1.1"> <metadata id="metadata252926"> 
  <rdf:rdf> 
   <cc:work rdf:about=""> 
    <dc:format>
     image/svg+xml
    </dc:format> 
    <dc:type rdf:resource="http://purl.org/dc/dcmitype/StillImage"></dc:type> 
   </cc:work> 
  </rdf:rdf> 
 </metadata> <defs id="defs252924"></defs> <g id="logo-group"> 
  <g id="title" style="font-style:oblique;font-weight:700;font-size:72px;line-height:1;font-family:Averta;font-variant-ligatures:none;text-align:center;text-anchor:middle" aria-label="o7Public"> 
   <path id="path252928" style="font-style: oblique; font-weight: 700; font-size: 72px; line-height: 1; font-family: Averta; font-variant-ligatures: none; text-align: center; text-anchor: middle; fill: rgb(242, 172, 23);" d="m 398.13875,120.648 c 13.464,0 19.584,-10.008 19.584,-21.456 0,-9.576 -5.976,-15.048 -15.048,-15.048 -12.384,0 -19.44,10.08 -19.44,21.384 0,9.648 5.976,15.12 14.904,15.12 z m 0.792,-9.648 c -2.304,0 -4.752,-1.872 -4.752,-6.048 0,-5.4 2.88,-11.16 7.632,-11.16 1.944,0 4.968,1.08 4.968,6.12 0,5.76 -3.096,11.088 -7.848,11.088 z" transform="translate(0 234.73510827352231) translate(252.0000000000001 131.7044383655691) scale(1.7673564171606901) translate(-383.23475 -84.144)"></path> 
   <path id="path252930" style="font-style: oblique; font-weight: 700; font-size: 72px; line-height: 1; font-family: Averta; font-variant-ligatures: none; text-align: center; text-anchor: middle; fill: rgb(242, 172, 23);" d="m 451.31975,70.536 h -27.864 l -1.224,10.08 h 15.48 l -17.568,38.52 11.088,2.016 19.224,-43.344 z" transform="translate(0 234.73510827352231) translate(326.0681400867875 107.65425224084645) scale(1.7673564171606901) translate(-420.14375 -70.536)"></path> 
   <path id="path252932" style="font-style: oblique; font-weight: 700; font-size: 72px; line-height: 1; font-family: Averta; font-variant-ligatures: none; text-align: center; text-anchor: middle; fill: rgb(242, 172, 23);" d="m 458.5625,68.88 -6.264,51.12 h 11.304 l 2.016,-16.704 h 4.824 c 13.104,0 20.376,-8.208 20.376,-20.304 0,-8.208 -4.176,-14.112 -14.4,-14.112 z m 12.456,24.264 h -4.104 l 1.728,-14.112 h 4.824 c 2.952,0 5.4,1.584 5.4,5.256 0,5.256 -3.024,8.856 -7.848,8.856 z" transform="translate(0 234.73510827352231) translate(391.7338259272886 104.72751001402834) scale(1.7673564171606901) translate(-452.2985 -68.88)"></path> 
   <path id="path252934" style="font-style: oblique; font-weight: 700; font-size: 72px; line-height: 1; font-family: Averta; font-variant-ligatures: none; text-align: center; text-anchor: middle; fill: rgb(242, 172, 23);" d="m 502.649,120.648 c 4.392,0 7.848,-2.304 10.44,-5.832 h 0.144 L 512.801,120 h 10.584 l 4.32,-35.208 h -10.8 l -1.944,16.128 c -0.648,5.184 -4.896,10.08 -7.92,10.08 -2.52,0 -3.096,-1.872 -2.304,-7.56 l 2.664,-18.648 h -10.728 l -3.024,21.888 c -1.512,10.44 2.448,13.968 9,13.968 z" transform="translate(0 234.73510827352231) translate(473.08368653554817 132.84968532388922) scale(1.7673564171606901) translate(-493.32762 -84.792)"></path> 
   <path id="path252936" style="font-style: oblique; font-weight: 700; font-size: 72px; line-height: 1; font-family: Averta; font-variant-ligatures: none; text-align: center; text-anchor: middle; fill: rgb(242, 172, 23);" d="m 547.0055,120.72 c 13.824,0 20.664,-9.144 20.664,-21.96 0,-8.208 -3.96,-14.616 -11.448,-14.616 -4.104,0 -7.56,2.088 -10.224,5.76 l -0.144,-0.072 2.736,-22.824 h -10.8 l -6.192,50.04 c 4.464,2.376 9.216,3.672 15.408,3.672 z m -0.216,-9.648 c -1.08,0 -2.448,-0.144 -3.888,-0.504 l 0.288,-2.304 c 1.224,-9.36 5.472,-14.472 9.504,-14.472 2.448,0 4.032,2.376 4.032,5.544 0,6.264 -3.456,11.736 -9.936,11.736 z" transform="translate(0 234.73510827352231) translate(549.5569866233211 101.41901880110352) scale(1.7673564171606901) translate(-531.5975 -67.008)"></path> 
   <path id="path252938" style="font-style: oblique; font-weight: 700; font-size: 72px; line-height: 1; font-family: Averta; font-variant-ligatures: none; text-align: center; text-anchor: middle; fill: rgb(242, 172, 23);" d="m 578.29625,67.008 -6.48,52.992 h 10.8 l 6.552,-52.992 z" transform="translate(0 234.73510827352231) translate(629.4746346118061 101.41901880110352) scale(1.7673564171606901) translate(-571.81625 -67.008)"></path> 
   <path id="path252940" style="font-style: oblique; font-weight: 700; font-size: 72px; line-height: 1; font-family: Averta; font-variant-ligatures: none; text-align: center; text-anchor: middle; fill: rgb(242, 172, 23);" d="m 602.02588,80.256 c 3.95999,0 6.69599,-2.736 6.69599,-6.408 0,-3.528 -2.592,-6.12 -6.47999,-6.12 -3.96,0 -6.696,2.664 -6.696,6.336 0,3.528 2.66399,6.192 6.48,6.192 z m -6.696,4.536 -4.32001,35.208 h 10.80001 l 4.31999,-35.208 z" transform="translate(0 234.73510827352231) translate(672.2333841731535 102.69151542145921) scale(1.7673564171606901) translate(-591.00987 -67.728)"></path> 
   <path id="path252942" style="font-style: oblique; font-weight: 700; font-size: 72px; line-height: 1; font-family: Averta; font-variant-ligatures: none; text-align: center; text-anchor: middle; fill: rgb(242, 172, 23);" d="m 625.1075,120.648 c 6.768,0 11.592,-2.664 15.264,-7.704 l -8.352,-5.328 c -2.088,2.52 -4.104,3.384 -6.12,3.384 -2.952,0 -4.824,-2.304 -4.824,-6.12 0,-5.904 3.312,-11.16 8.136,-11.16 2.016,0 3.816,0.864 4.968,3.096 l 8.28,-6.192 c -2.88,-4.176 -7.272,-6.48 -13.536,-6.48 -12.168,0 -18.72,10.368 -18.72,21.168 0,10.008 5.76,15.336 14.904,15.336 z" transform="translate(0 234.73510827352231) translate(714.9921514080648 131.7044383655691) scale(1.7673564171606901) translate(-610.2035 -84.144)"></path> 
  </g> 
  <g id="tagline" style="font-style:normal;font-weight:500;font-size:32px;line-height:1;font-family:Raleway;font-variant-ligatures:none;text-align:center;text-anchor:middle"></g> 
 </g> 
</svg>