<svg xmlns:dc="http://purl.org/dc/elements/1.1/" xmlns:cc="http://creativecommons.org/ns#" xmlns:rdf="http://www.w3.org/1999/02/22-rdf-syntax-ns#" xmlns:svg="http://www.w3.org/2000/svg" xmlns="http://www.w3.org/2000/svg" id="svg288007" viewbox="0 0 1024 768" height="768px" width="1024px" version="1.1"> <metadata id="metadata288013"> 
  <rdf:rdf> 
   <cc:work rdf:about=""> 
    <dc:format>
     image/svg+xml
    </dc:format> 
    <dc:type rdf:resource="http://purl.org/dc/dcmitype/StillImage"></dc:type> 
   </cc:work> 
  </rdf:rdf> 
 </metadata> <defs id="defs288011"></defs> <g id="logo-group"> 
  <g id="title" style="font-style:normal;font-weight:700;font-size:72px;line-height:1;font-family:Phenomena;font-variant-ligatures:none;text-align:center;text-anchor:middle" aria-label="O7Paragon"> 
   <path id="path288015" style="font-style: normal; font-weight: 700; font-size: 72px; line-height: 1; font-family: Phenomena; font-variant-ligatures: none; text-align: center; text-anchor: middle; fill: rgb(55, 137, 179);" d="m 403.80875,120.72 c 7.488,0 12.672,-5.472 12.672,-13.032 V 81.912 c 0,-7.56 -5.184,-13.032 -12.672,-13.032 -7.488,0 -12.744,5.472 -12.744,13.536 v 24.768 c 0,8.064 5.256,13.536 12.744,13.536 z m 0,-6.048 c -3.672,0 -6.192,-2.736 -6.192,-7.2 V 82.128 c 0,-4.464 2.52,-7.2 6.192,-7.2 3.672,0 6.12,2.736 6.12,6.696 v 26.352 c 0,3.96 -2.448,6.696 -6.12,6.696 z" transform="translate(0 214.43197958549462) translate(252 108.40121849167768) scale(1.8468237295539738) translate(-391.06475 -68.88)"></path> 
   <path id="path288017" style="font-style: normal; font-weight: 700; font-size: 72px; line-height: 1; font-family: Phenomena; font-variant-ligatures: none; text-align: center; text-anchor: middle; fill: rgb(55, 137, 179);" d="m 420.54537,70.536 v 4.104 c 0,0.648 0.36,1.008 0.93601,1.008 h 13.752 l -10.44,43.272 c -0.144,0.648 0.14399,1.08 0.86399,1.08 h 4.536 c 0.57601,0 0.936,-0.288 1.08,-0.864 L 441.78537,75 c 0.288,-1.224 0.36,-2.088 0.36,-3.384 0,-1.368 -0.79199,-2.016 -2.16,-2.016 h -18.50399 c -0.57601,0 -0.93601,0.36 -0.93601,0.936 z" transform="translate(0 214.43197958549462) translate(315.6796272257333 109.73093157695656) scale(1.8468237295539738) translate(-420.54537 -69.6)"></path> 
   <path id="path288019" style="font-style: normal; font-weight: 700; font-size: 72px; line-height: 1; font-family: Phenomena; font-variant-ligatures: none; text-align: center; text-anchor: middle; fill: rgb(181, 215, 206);" d="m 448.90212,120 h 4.60801 c 0.57599,0 0.93599,-0.36 0.93599,-1.008 v -17.136 h 5.688 c 7.488,0 12.312,-5.04 12.312,-12.384 v -7.344 c 0,-7.848 -4.896,-13.32 -12.384,-13.32 -7.416,0 -12.096,5.472 -12.096,13.32 v 36.864 c 0,0.648 0.36,1.008 0.936,1.008 z m 5.544,-24.192 V 81.84 c 0,-4.176 2.16001,-6.912 5.688,-6.912 3.528,0 5.76,2.736 5.76,6.912 v 7.776 c 0,3.888 -2.232,6.192 -5.976,6.192 z" transform="translate(0 214.43197958549462) translate(375.5550376556703 108.26824718314985) scale(1.8468237295539738) translate(-447.96612 -68.808)"></path> 
   <path id="path288021" style="font-style: normal; font-weight: 700; font-size: 72px; line-height: 1; font-family: Phenomena; font-variant-ligatures: none; text-align: center; text-anchor: middle; fill: rgb(181, 215, 206);" d="m 487.29613,120.72 c 6.91199,0 11.23199,-4.752 11.23199,-11.376 V 94.872 c 0,-6.768 -4.392,-11.664 -11.23199,-11.664 -6.40801,0 -10.65601,4.464 -11.08801,10.728 0,0.576 0.36,1.008 0.936,1.008 h 4.17601 c 0.64799,0 0.93599,-0.216 1.00799,-0.864 0.216,-2.952 1.87201,-4.968 4.89601,-4.968 3.24,0 5.18399,2.232 5.18399,5.472 v 3.96 h -5.4 c -6.768,0 -11.376,4.608 -11.376,10.584 0,6.768 4.68,11.592 11.66401,11.592 z m -0.072,-5.904 c -3.38401,0 -5.40001,-2.232 -5.40001,-5.688 0,-2.808 2.016,-5.04 5.40001,-5.04 h 5.18399 v 5.256 c 0,3.312 -1.87199,5.472 -5.18399,5.472 z" transform="translate(0 214.43197958549462) translate(435.8833816052803 134.86250888872706) scale(1.8468237295539738) translate(-475.63212 -83.208)"></path> 
   <path id="path288023" style="font-style: normal; font-weight: 700; font-size: 72px; line-height: 1; font-family: Phenomena; font-variant-ligatures: none; text-align: center; text-anchor: middle; fill: rgb(181, 215, 206);" d="m 505.7045,120 h 4.176 c 0.648,0 1.008,-0.36 1.008,-1.008 v -23.04 c 0,-3.888 2.448,-6.264 6.192,-6.264 h 2.592 c 0.576,0 0.936,-0.36 0.936,-0.936 v -3.888 c 0,-0.648 -0.36,-1.008 -0.936,-1.008 h -2.664 c -7.272,0 -12.312,4.824 -12.312,12.6 v 22.536 c 0,0.648 0.36,1.008 1.008,1.008 z" transform="translate(0 214.43197958549462) translate(498.79428692182415 136.05925066547803) scale(1.8468237295539738) translate(-504.6965 -83.856)"></path> 
   <path id="path288025" style="font-style: normal; font-weight: 700; font-size: 72px; line-height: 1; font-family: Phenomena; font-variant-ligatures: none; text-align: center; text-anchor: middle; fill: rgb(181, 215, 206);" d="m 534.968,120.72 c 6.912,0 11.232,-4.752 11.232,-11.376 V 94.872 c 0,-6.768 -4.392,-11.664 -11.232,-11.664 -6.408,0 -10.656,4.464 -11.088,10.728 0,0.576 0.36,1.008 0.936,1.008 h 4.176 c 0.648,0 0.936,-0.216 1.008,-0.864 0.216,-2.952 1.872,-4.968 4.896,-4.968 3.24,0 5.184,2.232 5.184,5.472 v 3.96 h -5.4 c -6.768,0 -11.376,4.608 -11.376,10.584 0,6.768 4.68,11.592 11.664,11.592 z m -0.072,-5.904 c -3.384,0 -5.4,-2.232 -5.4,-5.688 0,-2.808 2.016,-5.04 5.4,-5.04 h 5.184 v 5.256 c 0,3.312 -1.872,5.472 -5.184,5.472 z" transform="translate(0 214.43197958549462) translate(542.3931781172695 134.86250888872706) scale(1.8468237295539738) translate(-523.304 -83.208)"></path> 
   <path id="path288027" style="font-style: normal; font-weight: 700; font-size: 72px; line-height: 1; font-family: Phenomena; font-variant-ligatures: none; text-align: center; text-anchor: middle; fill: rgb(181, 215, 206);" d="m 563.31237,83.208 c -6.91199,0 -11.52,4.896 -11.52,11.736 v 12.384 c 0,6.84 4.60801,11.736 11.016,11.736 2.23201,0 4.248,-0.936 5.76001,-2.52 v 7.128 c 0,3.528 -1.94401,5.616 -5.25601,5.616 -3.096,0 -5.04,-2.088 -5.256,-5.688 -0.072,-0.72 -0.432,-1.008 -1.008,-1.008 h -4.24799 c -0.64801,0 -1.00801,0.36 -0.93601,1.008 0.288,7.056 4.752,11.592 11.448,11.592 6.984,0 11.448,-4.608 11.448,-11.736 V 94.944 c 0,-6.84 -4.608,-11.736 -11.448,-11.736 z m 0,30.024 c -3.312,0 -5.328,-2.304 -5.328,-5.688 V 94.728 c 0,-3.384 2.016,-5.616 5.328,-5.616 3.312,0 5.25601,2.232 5.25601,5.616 v 12.816 c 0,3.384 -1.94401,5.688 -5.25601,5.688 z" transform="translate(0 214.43197958549462) translate(604.240294497353 134.86250888872706) scale(1.8468237295539738) translate(-551.79237 -83.208)"></path> 
   <path id="path288029" style="font-style: normal; font-weight: 700; font-size: 72px; line-height: 1; font-family: Phenomena; font-variant-ligatures: none; text-align: center; text-anchor: middle; fill: rgb(181, 215, 206);" d="m 592.42175,120.792 c 6.984,0 11.52,-4.896 11.52,-11.736 V 94.944 c 0,-6.84 -4.536,-11.736 -11.52,-11.736 -6.912,0 -11.52,4.896 -11.52,11.736 v 14.112 c 0,6.84 4.608,11.736 11.52,11.736 z m 0,-5.832 c -3.312,0 -5.256,-2.304 -5.256,-5.688 V 94.728 c 0,-3.384 1.944,-5.688 5.256,-5.688 3.312,0 5.328,2.304 5.328,5.688 v 14.544 c 0,3.384 -2.016,5.688 -5.328,5.688 z" transform="translate(0 214.43197958549462) translate(667.2343068817268 134.86250888872706) scale(1.8468237295539738) translate(-580.90175 -83.208)"></path> 
   <path id="path288031" style="font-style: normal; font-weight: 700; font-size: 72px; line-height: 1; font-family: Phenomena; font-variant-ligatures: none; text-align: center; text-anchor: middle; fill: rgb(181, 215, 206);" d="m 611.17325,120 h 4.176 c 0.648,0 1.008,-0.36 1.008,-1.008 V 94.728 c 0,-3.384 1.872,-5.688 5.04,-5.688 3.168,0 5.04,2.304 5.04,5.688 v 24.264 c 0,0.648 0.36,1.008 1.008,1.008 h 4.176 c 0.648,0 1.008,-0.36 1.008,-1.008 V 94.944 c 0,-6.84 -4.536,-11.736 -11.232,-11.736 -6.696,0 -11.232,4.896 -11.232,11.736 v 24.048 c 0,0.648 0.36,1.008 1.008,1.008 z" transform="translate(0 214.43197958549462) translate(730.5129517392994 134.86250888872706) scale(1.8468237295539738) translate(-610.16525 -83.208)"></path> 
  </g> 
  <g id="tagline" style="font-style:oblique;font-weight:normal;font-size:32px;line-height:1;font-family:'Fira Sans Condensed';font-variant-ligatures:none;text-align:center;text-anchor:middle"></g> 
 </g> 
</svg>