<svg xmlns:dc="http://purl.org/dc/elements/1.1/" xmlns:cc="http://creativecommons.org/ns#" xmlns:rdf="http://www.w3.org/1999/02/22-rdf-syntax-ns#" xmlns:svg="http://www.w3.org/2000/svg" xmlns="http://www.w3.org/2000/svg" id="svg19025" viewbox="0 0 1024 768" height="768px" width="1024px" version="1.1"> <metadata id="metadata19031"> 
  <rdf:rdf> 
   <cc:work rdf:about=""> 
    <dc:format>
     image/svg+xml
    </dc:format> 
    <dc:type rdf:resource="http://purl.org/dc/dcmitype/StillImage"></dc:type> 
   </cc:work> 
  </rdf:rdf> 
 </metadata> <defs id="defs19029"></defs> <g id="logo-group"> 
  <g id="title" style="font-style:normal;font-weight:700;font-size:72px;line-height:1;font-family:'Comfortaa Bold Alt1';font-variant-ligatures:none;text-align:center;text-anchor:middle" aria-label="O7PURPLE"> 
   <path id="path19033" style="font-style: normal; font-weight: 700; font-size: 72px; line-height: 1; font-family: &quot;Comfortaa Bold Alt1&quot;; font-variant-ligatures: none; text-align: center; text-anchor: middle; fill: rgb(48, 45, 40);" d="m 347.6825,120.72 c 3.888,0 7.632,-0.72 11.232,-2.232 3.456,-1.44 6.48,-3.528 9.144,-6.192 2.664,-2.664 4.752,-5.688 6.192,-9.144 1.512,-3.6 2.304,-7.344 2.304,-11.232 0,-3.888 -0.792,-7.632 -2.304,-11.232 -1.44,-3.456 -3.528,-6.48 -6.192,-9.144 -2.664,-2.664 -5.688,-4.752 -9.144,-6.192 -3.6,-1.512 -7.344,-2.304 -11.232,-2.304 -3.888,0 -7.632,0.792 -11.232,2.304 -3.456,1.44 -6.48,3.528 -9.144,6.192 -2.664,2.664 -4.752,5.688 -6.192,9.144 -1.512,3.6 -2.232,7.344 -2.232,11.232 0,3.888 0.72,7.632 2.232,11.232 1.44,3.456 3.528,6.48 6.192,9.144 2.664,2.664 5.688,4.752 9.144,6.192 3.6,1.512 7.344,2.232 11.232,2.232 z m 0,-50.616 c 6.048,0 11.16,2.16 15.408,6.408 4.248,4.248 6.408,9.36 6.408,15.408 0,6.048 -2.16,11.16 -6.408,15.408 -4.248,4.248 -9.36,6.336 -15.408,6.336 -6.048,0 -11.16,-2.088 -15.408,-6.336 -4.248,-4.248 -6.336,-9.36 -6.336,-15.408 0,-6.048 2.088,-11.16 6.336,-15.408 4.248,-4.248 9.36,-6.408 15.408,-6.408 z" transform="translate(0 273.41466376247604) translate(252.0000000000001 71.58646887191546) scale(1.3423815009503148) translate(-318.8825 -63.048)"></path> 
   <path id="path19035" style="font-style: normal; font-weight: 700; font-size: 72px; line-height: 1; font-family: &quot;Comfortaa Bold Alt1&quot;; font-variant-ligatures: none; text-align: center; text-anchor: middle; fill: rgb(48, 45, 40);" d="m 380.73725,70.104 c 0.72,0.72 1.584,1.008 2.664,1.008 h 21.888 l -20.664,42.912 c -0.432,0.864 -0.648,1.656 -0.648,2.304 0,1.008 0.36,1.872 1.08,2.592 0.72,0.72 1.512,1.08 2.52,1.08 0.648,0 1.296,-0.144 1.944,-0.504 0.576,-0.36 1.08,-0.864 1.44,-1.512 l 23.04,-48.6 c 0.288,-0.72 0.504,-1.368 0.504,-1.944 0,-1.008 -0.36,-1.872 -1.08,-2.592 -0.72,-0.72 -1.584,-1.08 -2.592,-1.08 h -27.432 c -1.08,0 -1.944,0.36 -2.664,1.08 -0.72,0.72 -1.008,1.584 -1.008,2.592 0,1.08 0.288,1.944 1.008,2.664 z" transform="translate(0 273.41466376247604) translate(333.6795515929487 72.55298355259967) scale(1.3423815009503148) translate(-379.72925 -63.768)"></path> 
   <path id="path19037" style="font-style: normal; font-weight: 700; font-size: 72px; line-height: 1; font-family: &quot;Comfortaa Bold Alt1&quot;; font-variant-ligatures: none; text-align: center; text-anchor: middle; fill: rgb(208, 201, 185);" d="m 430.26425,118.92 c 0.72,-0.648 1.08,-1.584 1.08,-2.664 v -13.608 c 0,-0.576 0.216,-1.08 0.648,-1.512 0.432,-0.432 0.936,-0.648 1.512,-0.648 h 8.496 c 3.528,0 6.696,-0.72 9.504,-2.304 2.808,-1.512 4.968,-3.6 6.552,-6.408 1.584,-2.664 2.376,-5.832 2.376,-9.36 0,-3.6 -0.792,-6.768 -2.376,-9.648 -1.584,-2.808 -3.744,-5.04 -6.552,-6.624 -2.808,-1.584 -5.976,-2.376 -9.504,-2.376 h -14.4 c -1.08,0 -2.016,0.36 -2.664,1.08 -0.72,0.72 -1.08,1.584 -1.08,2.664 v 48.744 c 0,1.08 0.36,1.944 1.08,2.664 0.72,0.72 1.584,1.08 2.664,1.08 1.08,0 1.944,-0.36 2.664,-1.08 z m 19.8,-28.44 c -2.16,2.088 -4.824,3.096 -8.064,3.096 h -8.496 c -0.576,0 -1.08,-0.216 -1.512,-0.648 -0.432,-0.432 -0.648,-0.936 -0.648,-1.512 V 72.84 c 0,-0.576 0.216,-1.08 0.648,-1.512 0.432,-0.432 0.936,-0.648 1.512,-0.648 h 8.496 c 3.24,0 5.904,1.152 8.064,3.312 2.088,2.232 3.168,5.04 3.168,8.424 0,3.312 -1.08,5.976 -3.168,8.064 z" transform="translate(0 273.41466376247604) translate(392.9148200853832 72.55298355259967) scale(1.3423815009503148) translate(-423.85625 -63.768)"></path> 
   <path id="path19039" style="font-style: normal; font-weight: 700; font-size: 72px; line-height: 1; font-family: &quot;Comfortaa Bold Alt1&quot;; font-variant-ligatures: none; text-align: center; text-anchor: middle; fill: rgb(208, 201, 185);" d="m 469.79562,64.848 c -0.72,0.72 -1.08,1.584 -1.08,2.664 v 33.624 c 0,3.888 0.93601,7.344 2.952,10.368 2.016,3.024 4.752,5.4 8.35201,7.128 3.59999,1.728 7.632,2.52 12.24,2.52 4.39199,0 8.35199,-0.792 11.808,-2.52 3.45599,-1.728 6.192,-4.104 8.13599,-7.128 1.944,-3.024 2.952,-6.48 2.952,-10.368 V 67.512 c 0,-1.08 -0.36,-1.944 -1.08,-2.664 -0.71999,-0.72 -1.584,-1.08 -2.59199,-1.08 -1.08,0 -1.94401,0.36 -2.66401,1.08 -0.72,0.72 -1.08,1.584 -1.08,2.664 v 33.624 c 0,2.592 -0.71999,4.824 -2.016,6.84 -1.296,2.016 -3.16799,3.6 -5.472,4.752 -2.37599,1.152 -5.03999,1.656 -7.99199,1.656 -3.168,0 -5.904,-0.504 -8.35201,-1.656 -2.44799,-1.152 -4.32,-2.736 -5.688,-4.752 -1.36799,-2.016 -2.016,-4.248 -2.016,-6.84 V 67.512 c 0,-1.08 -0.36,-1.944 -1.08,-2.664 -0.72,-0.72 -1.584,-1.08 -2.66399,-1.08 -1.08001,0 -1.94401,0.36 -2.66401,1.08 z" transform="translate(0 273.41466376247604) translate(453.1332085176687 72.55298355259967) scale(1.3423815009503148) translate(-468.71562 -63.768)"></path> 
   <path id="path19041" style="font-style: normal; font-weight: 700; font-size: 72px; line-height: 1; font-family: &quot;Comfortaa Bold Alt1&quot;; font-variant-ligatures: none; text-align: center; text-anchor: middle; fill: rgb(208, 201, 185);" d="m 566.83025,116.616 c 0,-0.792 -0.288,-1.584 -0.72,-2.376 l -9.864,-15.696 c -0.288,-0.504 -0.36,-1.08 -0.216,-1.656 0.144,-0.576 0.432,-1.008 0.936,-1.368 2.088,-1.224 3.816,-2.88 5.184,-4.968 1.728,-2.592 2.592,-5.616 2.592,-9.072 0,-3.456 -0.792,-6.48 -2.376,-9.216 -1.584,-2.664 -3.744,-4.752 -6.552,-6.264 -2.808,-1.44 -5.976,-2.232 -9.504,-2.232 h -12.96 c -1.08,0 -2.016,0.36 -2.664,1.08 -0.72,0.72 -1.08,1.584 -1.08,2.664 v 48.744 c 0,1.08 0.36,1.944 1.08,2.664 0.72,0.72 1.584,1.08 2.664,1.08 1.08,0 1.944,-0.36 2.664,-1.08 0.72,-0.648 1.08,-1.584 1.08,-2.664 v -15.768 c 0,-0.576 0.144,-1.08 0.576,-1.512 0.432,-0.432 0.936,-0.648 1.512,-0.648 h 7.128 0.072 c 0.792,0 1.368,0.36 1.8,1.08 l 11.808,18.792 c 0.72,1.224 1.8,1.8 3.24,1.8 1.08,0 1.944,-0.288 2.592,-0.936 0.648,-0.648 1.008,-1.44 1.008,-2.448 z m -20.52,-25.2 h -7.128 c -0.576,0 -1.08,-0.144 -1.512,-0.576 -0.432,-0.432 -0.576,-0.936 -0.576,-1.512 V 72.84 c 0,-0.576 0.144,-1.08 0.576,-1.512 0.432,-0.432 0.936,-0.648 1.512,-0.648 h 7.128 c 3.24,0 5.904,1.008 8.064,3.024 2.088,2.016 3.168,4.608 3.168,7.776 0,2.952 -1.08,5.328 -3.168,7.2 -2.16,1.872 -4.824,2.736 -8.064,2.736 z" transform="translate(0 273.41466376247604) translate(534.871663810879 72.55298355259967) scale(1.3423815009503148) translate(-529.60625 -63.768)"></path> 
   <path id="path19043" style="font-style: normal; font-weight: 700; font-size: 72px; line-height: 1; font-family: &quot;Comfortaa Bold Alt1&quot;; font-variant-ligatures: none; text-align: center; text-anchor: middle; fill: rgb(208, 201, 185);" d="m 581.57675,118.92 c 0.72,-0.648 1.08,-1.584 1.08,-2.664 v -13.608 c 0,-0.576 0.216,-1.08 0.648,-1.512 0.432,-0.432 0.936,-0.648 1.512,-0.648 h 8.496 c 3.528,0 6.696,-0.72 9.504,-2.304 2.808,-1.512 4.968,-3.6 6.552,-6.408 1.584,-2.664 2.376,-5.832 2.376,-9.36 0,-3.6 -0.792,-6.768 -2.376,-9.648 -1.584,-2.808 -3.744,-5.04 -6.552,-6.624 -2.808,-1.584 -5.976,-2.376 -9.504,-2.376 h -14.4 c -1.08,0 -2.016,0.36 -2.664,1.08 -0.72,0.72 -1.08,1.584 -1.08,2.664 v 48.744 c 0,1.08 0.36,1.944 1.08,2.664 0.72,0.72 1.584,1.08 2.664,1.08 1.08,0 1.944,-0.36 2.664,-1.08 z m 19.8,-28.44 c -2.16,2.088 -4.824,3.096 -8.064,3.096 h -8.496 c -0.576,0 -1.08,-0.216 -1.512,-0.648 -0.432,-0.432 -0.648,-0.936 -0.648,-1.512 V 72.84 c 0,-0.576 0.216,-1.08 0.648,-1.512 0.432,-0.432 0.936,-0.648 1.512,-0.648 h 8.496 c 3.24,0 5.904,1.152 8.064,3.312 2.088,2.232 3.168,5.04 3.168,8.424 0,3.312 -1.08,5.976 -3.168,8.064 z" transform="translate(0 273.41466376247604) translate(596.0339209479276 72.55298355259967) scale(1.3423815009503148) translate(-575.16875 -63.768)"></path> 
   <path id="path19045" style="font-style: normal; font-weight: 700; font-size: 72px; line-height: 1; font-family: &quot;Comfortaa Bold Alt1&quot;; font-variant-ligatures: none; text-align: center; text-anchor: middle; fill: rgb(208, 201, 185);" d="m 656.17213,113.592 c -0.72,-0.72 -1.65601,-1.08 -2.664,-1.08 h -23.90401 c -0.64799,0 -1.15199,-0.144 -1.584,-0.576 -0.432,-0.432 -0.576,-0.936 -0.576,-1.584 v -42.84 c 0,-1.008 -0.36,-1.944 -1.08,-2.664 -0.71999,-0.72 -1.656,-1.08 -2.664,-1.08 -1.00799,0 -1.872,0.36 -2.592,1.08 -0.72,0.72 -1.07999,1.656 -1.07999,2.664 v 48.744 c 0,1.08 0.288,2.016 1.00799,2.664 0.72,0.72 1.58401,1.08 2.664,1.08 h 29.80801 c 1.00799,0 1.944,-0.36 2.664,-1.08 0.71999,-0.72 1.07999,-1.584 1.07999,-2.664 0,-1.008 -0.36,-1.944 -1.07999,-2.664 z" transform="translate(0 273.41466376247604) translate(656.2523228040282 72.55298355259967) scale(1.3423815009503148) translate(-620.02813 -63.768)"></path> 
   <path id="path19047" style="font-style: normal; font-weight: 700; font-size: 72px; line-height: 1; font-family: &quot;Comfortaa Bold Alt1&quot;; font-variant-ligatures: none; text-align: center; text-anchor: middle; fill: rgb(208, 201, 185);" d="m 705.24575,114.024 c -0.72,-0.576 -1.584,-0.936 -2.664,-0.936 h -26.64 c -0.648,0 -1.152,-0.144 -1.584,-0.576 -0.432,-0.432 -0.576,-0.936 -0.576,-1.584 V 97.32 c 0,-0.648 0.144,-1.152 0.576,-1.584 0.432,-0.432 0.936,-0.648 1.584,-0.648 h 18.504 c 1.008,0 1.872,-0.288 2.592,-0.936 0.72,-0.648 1.08,-1.44 1.08,-2.52 0,-1.008 -0.36,-1.8 -1.08,-2.448 -0.72,-0.648 -1.584,-1.008 -2.592,-1.008 h -18.504 c -0.648,0 -1.152,-0.144 -1.584,-0.576 -0.432,-0.432 -0.576,-0.936 -0.576,-1.584 V 72.912 c 0,-0.648 0.144,-1.152 0.576,-1.584 0.432,-0.432 0.936,-0.648 1.584,-0.648 h 26.64 c 1.08,0 1.944,-0.288 2.664,-0.936 0.648,-0.576 1.008,-1.44 1.008,-2.448 0,-1.008 -0.36,-1.872 -1.008,-2.52 -0.72,-0.648 -1.584,-1.008 -2.664,-1.008 h -32.544 c -1.08,0 -2.016,0.36 -2.664,1.08 -0.72,0.72 -1.08,1.584 -1.08,2.664 v 48.744 c 0,1.08 0.36,1.944 1.08,2.664 0.72,0.72 1.584,1.08 2.664,1.08 h 32.544 c 1.08,0 1.944,-0.288 2.664,-0.936 0.648,-0.648 1.008,-1.512 1.008,-2.592 0,-1.008 -0.36,-1.8 -1.008,-2.448 z" transform="translate(0 273.41466376247604) translate(718.3584352220252 72.55298355259967) scale(1.3423815009503148) translate(-666.29375 -63.768)"></path> 
  </g> 
  <g id="tagline" style="font-style:normal;font-weight:500;font-size:32px;line-height:1;font-family:Raleway;font-variant-ligatures:none;text-align:center;text-anchor:middle"></g> 
 </g> 
</svg>