<svg xmlns:dc="http://purl.org/dc/elements/1.1/" xmlns:cc="http://creativecommons.org/ns#" xmlns:rdf="http://www.w3.org/1999/02/22-rdf-syntax-ns#" xmlns:svg="http://www.w3.org/2000/svg" xmlns="http://www.w3.org/2000/svg" id="svg35825" viewbox="0 0 1024 768" height="768px" width="1024px" version="1.1"> <metadata id="metadata35831"> 
  <rdf:rdf> 
   <cc:work rdf:about=""> 
    <dc:format>
     image/svg+xml
    </dc:format> 
    <dc:type rdf:resource="http://purl.org/dc/dcmitype/StillImage"></dc:type> 
   </cc:work> 
  </rdf:rdf> 
 </metadata> <defs id="defs35829"></defs> <g id="logo-group"> 
  <g id="title" style="font-style:oblique;font-weight:700;font-size:72px;line-height:1;font-family:Averta;font-variant-ligatures:none;text-align:center;text-anchor:middle" aria-label="O7Point"> 
   <path id="path35833" style="font-style: oblique; font-weight: 700; font-size: 72px; line-height: 1; font-family: Averta; font-variant-ligatures: none; text-align: center; text-anchor: middle; fill: rgb(226, 158, 108);" d="m 413.36113,120.648 c 17.20799,0 27.144,-14.04 27.144,-30.888 0,-13.608 -8.42401,-21.528 -20.88,-21.528 -16.488,0 -27.072,14.472 -27.072,30.744 0,13.752 8.27999,21.672 20.808,21.672 z m 0.86399,-10.8 c -5.544,0 -9.64799,-3.672 -9.64799,-11.592 0,-9.936 5.904,-19.296 13.96799,-19.296 5.76,0 9.93601,3.528 9.93601,11.448 0,10.728 -5.832,19.44 -14.25601,19.44 z" transform="translate(0 213.42476556464334) translate(251.9999999999999 118.31929237604042) scale(1.9938927830935693) translate(-392.55313 -68.232)"></path> 
   <path id="path35835" style="font-style: oblique; font-weight: 700; font-size: 72px; line-height: 1; font-family: Averta; font-variant-ligatures: none; text-align: center; text-anchor: middle; fill: rgb(226, 158, 108);" d="m 474.38225,70.536 h -27.864 l -1.224,10.08 h 15.48 l -17.568,38.52 11.088,2.016 19.224,-43.344 z" transform="translate(0 213.42476556464334) translate(358.97856875845315 122.91322134828802) scale(1.9938927830935693) translate(-443.20625 -70.536)"></path> 
   <path id="path35837" style="font-style: oblique; font-weight: 700; font-size: 72px; line-height: 1; font-family: Averta; font-variant-ligatures: none; text-align: center; text-anchor: middle; fill: rgb(210, 43, 73);" d="M 481.625,68.88 475.361,120 h 11.304 l 2.016,-16.704 h 4.824 c 13.104,0 20.376,-8.208 20.376,-20.304 0,-8.208 -4.176,-14.112 -14.4,-14.112 z m 12.456,24.264 h -4.104 l 1.728,-14.112 h 4.824 c 2.952,0 5.4,1.584 5.4,5.256 0,5.256 -3.024,8.856 -7.848,8.856 z" transform="translate(0 213.42476556464334) translate(429.0733710749118 119.61133489948504) scale(1.9938927830935693) translate(-475.361 -68.88)"></path> 
   <path id="path35839" style="font-style: oblique; font-weight: 700; font-size: 72px; line-height: 1; font-family: Averta; font-variant-ligatures: none; text-align: center; text-anchor: middle; fill: rgb(210, 43, 73);" d="m 530.18562,120.648 c 13.46401,0 19.58401,-10.008 19.58401,-21.456 0,-9.576 -5.976,-15.048 -15.048,-15.048 -12.38401,0 -19.44001,10.08 -19.44001,21.384 0,9.648 5.976,15.12 14.904,15.12 z m 0.792,-9.648 c -2.30399,0 -4.75199,-1.872 -4.75199,-6.048 0,-5.4 2.88,-11.16 7.63199,-11.16 1.94401,0 4.968,1.08 4.968,6.12 0,5.76 -3.096,11.088 -7.848,11.088 z" transform="translate(0 213.42476556464334) translate(514.6524855388133 150.0461143406253) scale(1.9938927830935693) translate(-515.28162 -84.144)"></path> 
   <path id="path35841" style="font-style: oblique; font-weight: 700; font-size: 72px; line-height: 1; font-family: Averta; font-variant-ligatures: none; text-align: center; text-anchor: middle; fill: rgb(210, 43, 73);" d="m 564.90088,80.256 c 3.95999,0 6.69599,-2.736 6.69599,-6.408 0,-3.528 -2.592,-6.12 -6.47999,-6.12 -3.96,0 -6.696,2.664 -6.696,6.336 0,3.528 2.66399,6.192 6.48,6.192 z m -6.696,4.536 -4.32001,35.208 h 10.80001 l 4.31999,-35.208 z" transform="translate(0 213.42476556464334) translate(597.6049054670507 117.31437041336126) scale(1.9938927830935693) translate(-553.88487 -67.728)"></path> 
   <path id="path35843" style="font-style: oblique; font-weight: 700; font-size: 72px; line-height: 1; font-family: Averta; font-variant-ligatures: none; text-align: center; text-anchor: middle; fill: rgb(210, 43, 73);" d="M 577.2545,84.792 572.8625,120 h 10.8 l 1.584,-13.032 c 1.152,-8.784 5.76,-13.176 9,-13.176 2.304,0 2.736,2.232 2.088,7.128 l -2.52,19.08 h 10.728 l 2.808,-21.528 c 1.296,-9.864 -1.44,-14.328 -8.136,-14.328 -4.608,0 -8.496,1.944 -11.664,5.616 l -0.144,-0.072 0.576,-4.896 z" transform="translate(0 213.42476556464334) translate(641.4259433135514 150.0461143406253) scale(1.9938927830935693) translate(-572.8625 -84.144)"></path> 
   <path id="path35845" style="font-style: oblique; font-weight: 700; font-size: 72px; line-height: 1; font-family: Averta; font-variant-ligatures: none; text-align: center; text-anchor: middle; fill: rgb(210, 43, 73);" d="m 622.6775,120.648 c 3.24,0 6.408,-0.792 9.432,-2.448 l -1.728,-8.424 c -1.368,0.72 -2.592,1.152 -3.528,1.152 -1.152,0 -1.872,-0.936 -1.584,-2.952 l 1.728,-14.472 h 7.272 l 1.08,-8.712 h -7.272 l 1.512,-12.456 -11.016,2.16 -1.368,10.296 h -3.456 l -1.08,8.712 h 3.456 l -1.872,15.912 c -1.008,8.136 2.952,11.232 8.424,11.232 z" transform="translate(0 213.42476556464334) translate(726.7785116794379 126.50222835785642) scale(1.9938927830935693) translate(-612.6695 -72.336)"></path> 
  </g> 
  <g id="tagline" style="font-style:normal;font-weight:500;font-size:32px;line-height:1;font-family:Raleway;font-variant-ligatures:none;text-align:center;text-anchor:middle"></g> 
 </g> 
</svg>