<svg xmlns:dc="http://purl.org/dc/elements/1.1/" xmlns:cc="http://creativecommons.org/ns#" xmlns:rdf="http://www.w3.org/1999/02/22-rdf-syntax-ns#" xmlns:svg="http://www.w3.org/2000/svg" xmlns="http://www.w3.org/2000/svg" id="svg309656" viewbox="0 0 1024 768" height="768px" width="1024px" version="1.1"> <metadata id="metadata309662"> 
  <rdf:rdf> 
   <cc:work rdf:about=""> 
    <dc:format>
     image/svg+xml
    </dc:format> 
    <dc:type rdf:resource="http://purl.org/dc/dcmitype/StillImage"></dc:type> 
   </cc:work> 
  </rdf:rdf> 
 </metadata> <defs id="defs309660"></defs> <g id="logo-group"> 
  <g id="title" style="font-style:normal;font-weight:200;font-size:72px;line-height:1;font-family:Phenomena;font-variant-ligatures:none;text-align:center;text-anchor:middle" aria-label="o7Poeple"> 
   <path id="path309664" style="font-style: normal; font-weight: 200; font-size: 72px; line-height: 1; font-family: Phenomena; font-variant-ligatures: none; text-align: center; text-anchor: middle; fill: rgb(175, 175, 175);" d="m 422.05625,120.504 c 6.408,0 10.224,-4.752 10.224,-10.944 V 94.44 c 0,-6.192 -3.816,-10.944 -10.224,-10.944 -6.408,0 -10.224,4.752 -10.224,10.944 v 15.12 c 0,6.192 3.816,10.944 10.224,10.944 z m 0,-1.296 c -5.544,0 -8.856,-4.248 -8.856,-9.648 V 94.44 c 0,-5.4 3.312,-9.648 8.856,-9.648 5.544,0 8.856,4.248 8.856,9.648 v 15.12 c 0,5.4 -3.312,9.648 -8.856,9.648 z" transform="translate(0 230.1135290496767) translate(252.00000000000017 122.85612087184211) scale(1.7001068419067036) translate(-411.83225 -83.496)"></path> 
   <path id="path309666" style="font-style: normal; font-weight: 200; font-size: 72px; line-height: 1; font-family: Phenomena; font-variant-ligatures: none; text-align: center; text-anchor: middle; fill: rgb(175, 175, 175);" d="m 438.64438,69.96 v 0.648 c 0,0.216 0.14399,0.36 0.35999,0.36 h 18 l -12.168,48.6 c -0.072,0.288 0.144,0.432 0.36,0.432 h 0.72001 c 0.216,0 0.288,-0.072 0.36,-0.288 l 12.23999,-48.816 c 0.072,-0.36 0.072,-0.576 0.072,-0.864 0,-0.288 -0.216,-0.432 -0.43199,-0.432 h -19.15201 c -0.216,0 -0.35999,0.144 -0.35999,0.36 z" transform="translate(0 230.1135290496767) translate(323.08508828769277 99.23143619670657) scale(1.7001068419067036) translate(-438.64438 -69.6)"></path> 
   <path id="path309668" style="font-style: normal; font-weight: 200; font-size: 72px; line-height: 1; font-family: Phenomena; font-variant-ligatures: none; text-align: center; text-anchor: middle; fill: rgb(205, 223, 202);" d="m 467.05962,120 h 0.72 c 0.21601,0 0.36001,-0.144 0.36001,-0.36 v -19.8 h 9.144 c 5.76,0 10.58399,-5.04 10.58399,-11.88 v -6.984 c 0,-6.84 -4.176,-11.88 -10.72799,-11.88 -6.48001,0 -10.44,5.04 -10.44,11.88 v 38.664 c 0,0.216 0.14399,0.36 0.35999,0.36 z m 1.08001,-21.528 V 80.976 c 0,-6.192 3.38399,-10.512 9,-10.512 5.832,0 9.28799,4.32 9.28799,10.512 v 6.984 c 0,6.192 -4.104,10.512 -9.14399,10.512 z" transform="translate(0 230.1135290496767) translate(396.2836133926964 98.37458234838559) scale(1.7001068419067036) translate(-466.69963 -69.096)"></path> 
   <path id="path309670" style="font-style: normal; font-weight: 200; font-size: 72px; line-height: 1; font-family: Phenomena; font-variant-ligatures: none; text-align: center; text-anchor: middle; fill: rgb(205, 223, 202);" d="m 504.60312,120.504 c 6.408,0 10.22401,-4.752 10.22401,-10.944 V 94.44 c 0,-6.192 -3.81601,-10.944 -10.22401,-10.944 -6.40799,0 -10.224,4.752 -10.224,10.944 v 15.12 c 0,6.192 3.81601,10.944 10.224,10.944 z m 0,-1.296 c -5.544,0 -8.856,-4.248 -8.856,-9.648 V 94.44 c 0,-5.4 3.312,-9.648 8.856,-9.648 5.54401,0 8.856,4.248 8.856,9.648 v 15.12 c 0,5.4 -3.31199,9.648 -8.856,9.648 z" transform="translate(0 230.1135290496767) translate(468.84330635078516 122.85612087184211) scale(1.7001068419067036) translate(-494.37912 -83.496)"></path> 
   <path id="path309672" style="font-style: normal; font-weight: 200; font-size: 72px; line-height: 1; font-family: Phenomena; font-variant-ligatures: none; text-align: center; text-anchor: middle; fill: rgb(205, 223, 202);" d="m 532.99925,120.504 c 6.624,0 9.936,-4.608 10.08,-10.296 0,-0.144 -0.144,-0.288 -0.36,-0.288 h -0.648 c -0.216,0 -0.36,0.144 -0.36,0.36 -0.144,4.968 -2.88,8.928 -8.712,8.928 -5.76,0 -8.424,-4.176 -8.424,-9.504 v -5.472 h 7.2 c 7.848,0 11.592,-4.32 11.592,-10.152 0,-5.832 -4.176,-10.584 -10.08,-10.584 -6.12,0 -10.08,4.608 -10.08,10.872 v 15.336 c 0,6.048 3.168,10.8 9.792,10.8 z m -8.424,-17.568 v -8.568 c 0,-5.544 3.312,-9.576 8.712,-9.576 5.184,0 8.712,4.176 8.712,9.288 0,5.112 -3.024,8.856 -10.224,8.856 z" transform="translate(0 230.1135290496767) translate(543.3558100317616 122.85612087184211) scale(1.7001068419067036) translate(-523.20725 -83.496)"></path> 
   <path id="path309674" style="font-style: normal; font-weight: 200; font-size: 72px; line-height: 1; font-family: Phenomena; font-variant-ligatures: none; text-align: center; text-anchor: middle; fill: rgb(205, 223, 202);" d="m 561.91962,83.496 c -5.832,0 -10.224,4.824 -10.224,10.8 v 39.744 c 0,0.216 0.144,0.36 0.36,0.36 h 0.648 c 0.216,0 0.36,-0.144 0.36,-0.36 v -19.512 c 1.512,3.6 4.968,5.976 8.856,5.976 5.832,0 10.22401,-4.824 10.22401,-10.8 V 94.296 c 0,-5.976 -4.39201,-10.8 -10.22401,-10.8 z m 8.856,26.208 c 0,5.256 -3.816,9.504 -8.856,9.504 -5.03999,0 -8.856,-4.248 -8.856,-9.504 V 94.296 c 0,-5.256 3.81601,-9.504 8.856,-9.504 5.04,0 8.856,4.248 8.856,9.504 z" transform="translate(0 230.1135290496767) translate(617.2906854121318 122.85612087184211) scale(1.7001068419067036) translate(-551.69562 -83.496)"></path> 
   <path id="path309676" style="font-style: normal; font-weight: 200; font-size: 72px; line-height: 1; font-family: Phenomena; font-variant-ligatures: none; text-align: center; text-anchor: middle; fill: rgb(205, 223, 202);" d="m 581.95362,120 h 0.64801 c 0.216,0 0.36,-0.144 0.36,-0.36 V 69.96 c 0,-0.216 -0.144,-0.36 -0.36,-0.36 h -0.64801 c -0.216,0 -0.36,0.144 -0.36,0.36 v 49.68 c 0,0.216 0.144,0.36 0.36,0.36 z" transform="translate(0 230.1135290496767) translate(693.6220824000591 99.23143619670657) scale(1.7001068419067036) translate(-581.59362 -69.6)"></path> 
   <path id="path309678" style="font-style: normal; font-weight: 200; font-size: 72px; line-height: 1; font-family: Phenomena; font-variant-ligatures: none; text-align: center; text-anchor: middle; fill: rgb(205, 223, 202);" d="m 602.32737,120.504 c 6.624,0 9.936,-4.608 10.08,-10.296 0,-0.144 -0.144,-0.288 -0.36,-0.288 h -0.648 c -0.216,0 -0.36,0.144 -0.36,0.36 -0.14399,4.968 -2.88,8.928 -8.712,8.928 -5.76,0 -8.424,-4.176 -8.424,-9.504 v -5.472 h 7.20001 c 7.84799,0 11.592,-4.32 11.592,-10.152 0,-5.832 -4.17601,-10.584 -10.08001,-10.584 -6.12,0 -10.07999,4.608 -10.07999,10.872 v 15.336 c 0,6.048 3.168,10.8 9.79199,10.8 z m -8.424,-17.568 v -8.568 c 0,-5.544 3.312,-9.576 8.712,-9.576 5.18401,0 8.712,4.176 8.712,9.288 0,5.112 -3.024,8.856 -10.22399,8.856 z" transform="translate(0 230.1135290496767) translate(737.7258460671608 122.85612087184211) scale(1.7001068419067036) translate(-592.53538 -83.496)"></path> 
  </g> 
  <g id="tagline" style="font-style:oblique;font-weight:300;font-size:32px;line-height:1;font-family:'Fira Sans Condensed';font-variant-ligatures:none;text-align:center;text-anchor:middle"></g> 
 </g> 
</svg>