<svg xmlns:dc="http://purl.org/dc/elements/1.1/" xmlns:cc="http://creativecommons.org/ns#" xmlns:rdf="http://www.w3.org/1999/02/22-rdf-syntax-ns#" xmlns:svg="http://www.w3.org/2000/svg" xmlns="http://www.w3.org/2000/svg" id="svg62083" viewbox="0 0 1024 768" height="768px" width="1024px" version="1.1"> <metadata id="metadata62089"> 
  <rdf:rdf> 
   <cc:work rdf:about=""> 
    <dc:format>
     image/svg+xml
    </dc:format> 
    <dc:type rdf:resource="http://purl.org/dc/dcmitype/StillImage"></dc:type> 
   </cc:work> 
  </rdf:rdf> 
 </metadata> <defs id="defs62087"></defs> <g id="logo-group"> 
  <g id="title" style="font-style:normal;font-weight:300;font-size:72px;line-height:1;font-family:'Uni Neue';font-variant-ligatures:none;text-align:center;text-anchor:middle" aria-label="o7Pick"> 
   <path id="path62091" style="font-style: normal; font-weight: 300; font-size: 72px; line-height: 1; font-family: &quot;Uni Neue&quot;; font-variant-ligatures: none; text-align: center; text-anchor: middle; fill: rgb(51, 51, 51);" d="M 446.49519,107.184 V 95.808 c 0,-7.56 -5.184,-13.536 -14.976,-13.536 -9.72,0 -14.976,5.976 -14.976,13.536 v 11.376 c 0,7.632 5.256,13.536 14.976,13.536 9.792,0 14.976,-5.904 14.976,-13.536 z m -27.648,0 V 95.808 c 0,-6.336 4.248,-11.376 12.672,-11.376 8.496,0 12.672,5.04 12.672,11.376 v 11.376 c 0,6.408 -4.176,11.448 -12.672,11.448 -8.424,0 -12.672,-5.04 -12.672,-11.448 z" transform="translate(0 178.0506880021092) translate(252 176.6558532729917) scale(2.372324159774792) translate(-416.54319 -82.272)"></path> 
   <path id="path62093" style="font-style: normal; font-weight: 300; font-size: 72px; line-height: 1; font-family: &quot;Uni Neue&quot;; font-variant-ligatures: none; text-align: center; text-anchor: middle; fill: rgb(51, 51, 51);" d="m 460.55319,120 c 0.216,0 0.504,-0.144 0.576,-0.36 l 23.832,-49.392 c 0.144,-0.144 0.144,-0.36 0.144,-0.504 v -0.792 c 0,-0.288 -0.216,-0.432 -0.504,-0.432 h -31.68 c -0.288,0 -0.504,0.144 -0.504,0.432 v 1.368 c 0,0.216 0.216,0.432 0.504,0.432 h 29.304 l -23.616,48.672 c -0.144,0.36 0.072,0.576 0.36,0.576 z" transform="translate(0 178.0506880021092) translate(348.9663777066349 144.03165142776874) scale(2.372324159774792) translate(-452.41719 -68.52)"></path> 
   <path id="path62095" style="font-style: normal; font-weight: 300; font-size: 72px; line-height: 1; font-family: &quot;Uni Neue&quot;; font-variant-ligatures: none; text-align: center; text-anchor: middle; fill: rgb(47, 16, 8);" d="m 494.03319,68.52 c -0.288,0 -0.432,0.144 -0.432,0.432 v 50.616 c 0,0.288 0.144,0.432 0.432,0.432 h 1.512 c 0.288,0 0.432,-0.144 0.432,-0.432 V 99.984 h 14.04 c 11.232,0 17.568,-5.76 17.568,-15.696 0,-9.792 -6.264,-15.768 -17.568,-15.768 z m 1.944,29.16 V 70.752 h 13.824 c 10.152,0 15.408,4.896 15.408,13.536 0,8.64 -5.256,13.392 -15.408,13.392 z" transform="translate(0 178.0506880021092) translate(458.52979670167383 144.03165142776874) scale(2.372324159774792) translate(-493.60119 -68.52)"></path> 
   <path id="path62097" style="font-style: normal; font-weight: 300; font-size: 72px; line-height: 1; font-family: &quot;Uni Neue&quot;; font-variant-ligatures: none; text-align: center; text-anchor: middle; fill: rgb(47, 16, 8);" d="m 538.04881,120 c 0.288,0 0.432,-0.144 0.432,-0.432 V 83.496 c 0,-0.288 -0.144,-0.504 -0.432,-0.504 h -1.44 c -0.288,0 -0.432,0.216 -0.432,0.504 v 36.072 c 0,0.288 0.144,0.432 0.432,0.432 z m 1.152,-46.944 c 0,-1.152 -0.792,-1.872 -1.872,-1.872 -1.08,0 -1.872,0.72 -1.872,1.872 0,1.08 0.792,1.8 1.872,1.8 1.08,0 1.872,-0.72 1.872,-1.8 z" transform="translate(0 178.0506880021092) translate(569.6865160489008 150.3515229894088) scale(2.372324159774792) translate(-535.45681 -71.184)"></path> 
   <path id="path62099" style="font-style: normal; font-weight: 300; font-size: 72px; line-height: 1; font-family: &quot;Uni Neue&quot;; font-variant-ligatures: none; text-align: center; text-anchor: middle; fill: rgb(47, 16, 8);" d="m 575.02419,116.256 c 0.288,-0.144 0.288,-0.432 0.144,-0.648 l -0.72,-0.936 c -0.144,-0.216 -0.36,-0.288 -0.648,-0.072 -3.6,2.664 -7.2,4.032 -11.376,4.032 -7.632,0 -11.952,-5.04 -11.952,-11.232 V 95.592 c 0,-6.12 4.248,-11.16 11.952,-11.16 3.888,0 7.128,1.008 10.44,3.384 0.288,0.216 0.432,0.072 0.648,-0.072 l 0.648,-1.008 c 0.144,-0.216 0.144,-0.432 -0.144,-0.648 -3.528,-2.52 -7.2,-3.816 -11.52,-3.816 -9,0 -14.328,5.904 -14.328,13.32 V 107.4 c 0,7.416 5.328,13.32 14.328,13.32 4.824,0 8.784,-1.512 12.528,-4.464 z" transform="translate(0 178.0506880021092) translate(611.7036507258526 176.6558532729917) scale(2.372324159774792) translate(-548.16819 -82.272)"></path> 
   <path id="path62101" style="font-style: normal; font-weight: 300; font-size: 72px; line-height: 1; font-family: &quot;Uni Neue&quot;; font-variant-ligatures: none; text-align: center; text-anchor: middle; fill: rgb(47, 16, 8);" d="m 610.36831,120 c 0.36,0 0.504,-0.216 0.216,-0.576 l -18.072,-20.448 17.28,-15.408 c 0.216,-0.288 0.144,-0.576 -0.216,-0.576 h -1.944 c -0.216,0 -0.432,0 -0.576,0.216 l -21.888,19.368 V 68.952 c 0,-0.288 -0.144,-0.432 -0.432,-0.432 h -1.44 c -0.216,0 -0.432,0.144 -0.432,0.432 v 50.616 c 0,0.288 0.216,0.432 0.432,0.432 h 1.44 c 0.288,0 0.432,-0.144 0.432,-0.432 v -14.112 l 5.688,-4.968 17.064,19.224 c 0.144,0.216 0.36,0.288 0.576,0.288 z" transform="translate(0 178.0506880021092) translate(705.875715251172 144.03165142776874) scale(2.372324159774792) translate(-582.86431 -68.52)"></path> 
  </g> 
  <g id="tagline" style="font-style:oblique;font-weight:400;font-size:32px;line-height:1;font-family:Lato;font-variant-ligatures:none;text-align:center;text-anchor:middle"></g> 
 </g> 
</svg>