<svg xmlns:dc="http://purl.org/dc/elements/1.1/" xmlns:cc="http://creativecommons.org/ns#" xmlns:rdf="http://www.w3.org/1999/02/22-rdf-syntax-ns#" xmlns:svg="http://www.w3.org/2000/svg" xmlns="http://www.w3.org/2000/svg" id="svg6267" viewbox="0 0 1024 768" height="768px" width="1024px" version="1.1"> <metadata id="metadata6273"> 
  <rdf:rdf> 
   <cc:work rdf:about=""> 
    <dc:format>
     image/svg+xml
    </dc:format> 
    <dc:type rdf:resource="http://purl.org/dc/dcmitype/StillImage"></dc:type> 
   </cc:work> 
  </rdf:rdf> 
 </metadata> <defs id="defs6271"></defs> <g id="logo-group"> 
  <g id="title" style="font-style:normal;font-weight:800;font-size:72px;line-height:1;font-family:'Montserrat ExtraBold Alt1';font-variant-ligatures:none;text-align:center;text-anchor:middle" aria-label="O7RAY"> 
   <path id="path6275" style="font-style: normal; font-weight: 800; font-size: 72px; line-height: 1; font-family: &quot;Montserrat ExtraBold Alt1&quot;; font-variant-ligatures: none; text-align: center; text-anchor: middle; fill: rgb(230, 230, 230);" d="m 396.57162,117.624 c 4.248,2.304 9.072,3.384 14.40001,3.384 5.32799,0 10.07999,-1.08 14.32799,-3.384 4.248,-2.232 7.56,-5.328 10.00801,-9.36 2.44799,-3.96 3.67199,-8.424 3.67199,-13.464 0,-4.968 -1.224,-9.432 -3.67199,-13.464 -2.44801,-3.96 -5.76001,-7.056 -10.00801,-9.36 -4.248,-2.232 -9,-3.384 -14.32799,-3.384 -5.32801,0 -10.15201,1.152 -14.40001,3.384 -4.248,2.304 -7.56,5.4 -10.008,9.36 -2.44799,4.032 -3.6,8.496 -3.6,13.464 0,5.04 1.15201,9.504 3.6,13.464 2.448,4.032 5.76,7.128 10.008,9.36 z m 21.312,-10.224 c -2.088,1.224 -4.392,1.8 -6.91199,1.8 -2.59201,0 -4.89601,-0.576 -6.91201,-1.8 -2.08799,-1.152 -3.744,-2.88 -4.89599,-5.04 -1.22401,-2.16 -1.8,-4.68 -1.8,-7.56 0,-2.808 0.57599,-5.328 1.8,-7.488 1.15199,-2.16 2.808,-3.888 4.89599,-5.112 2.016,-1.152 4.32,-1.8 6.91201,-1.8 2.51999,0 4.82399,0.648 6.91199,1.8 2.01601,1.224 3.67201,2.952 4.896,5.112 1.152,2.16 1.80001,4.68 1.80001,7.488 0,2.88 -0.64801,5.4 -1.80001,7.56 -1.22399,2.16 -2.87999,3.888 -4.896,5.04 z" transform="translate(0 212.99200000000002) translate(238.0651200000001 118.592) scale(2) translate(-382.96362 -68.592)"></path> 
   <path id="path6277" style="font-style: normal; font-weight: 800; font-size: 72px; line-height: 1; font-family: &quot;Montserrat ExtraBold Alt1&quot;; font-variant-ligatures: none; text-align: center; text-anchor: middle; fill: rgb(230, 230, 230);" d="m 484.82225,69.6 h -41.76 v 19.08 h 12.168 v -7.776 h 13.248 L 451.48625,120 h 15.552 l 17.784,-41.472 z" transform="translate(0 212.99200000000002) translate(364.26238000000006 120.60799999999999) scale(2) translate(-443.06225 -69.6)"></path> 
   <path id="path6279" style="font-style: normal; font-weight: 800; font-size: 72px; line-height: 1; font-family: &quot;Montserrat ExtraBold Alt1&quot;; font-variant-ligatures: none; text-align: center; text-anchor: middle; fill: rgb(230, 230, 230);" d="m 527.57675,104.16 c 3.096,-1.512 5.544,-3.6 7.272,-6.336 1.728,-2.736 2.592,-5.904 2.592,-9.576 0,-3.744 -0.936,-7.056 -2.736,-9.864 -1.872,-2.808 -4.464,-4.968 -7.776,-6.48 -3.384,-1.512 -7.344,-2.304 -11.88,-2.304 h -23.04 v 11.232 h 22.176 c 2.88,0 5.112,0.648 6.624,1.944 1.44,1.296 2.232,3.168 2.232,5.472 0,2.376 -0.792,4.176 -2.232,5.472 -1.512,1.296 -3.744,1.872 -6.624,1.872 h -22.176 V 120 h 14.256 v -13.392 h 7.776 l 9.144,13.392 h 15.264 z" transform="translate(0 212.99200000000002) translate(468.1553800000001 120.60799999999999) scale(2) translate(-492.00875 -69.6)"></path> 
   <path id="path6281" style="font-style: normal; font-weight: 800; font-size: 72px; line-height: 1; font-family: &quot;Montserrat ExtraBold Alt1&quot;; font-variant-ligatures: none; text-align: center; text-anchor: middle; fill: rgb(230, 230, 230);" d="m 575.47362,69.6 h -14.04 l -22.248,50.4 h 14.54401 l 3.95999,-9.792 4.17601,-10.512 6.48,-16.128 6.47999,16.128 4.176,10.512 3.96001,9.792 h 14.832 z" transform="translate(0 212.99200000000002) translate(568.5091199999999 120.60799999999999) scale(2) translate(-539.18562 -69.6)"></path> 
   <path id="path6283" style="font-style: normal; font-weight: 800; font-size: 72px; line-height: 1; font-family: &quot;Montserrat ExtraBold Alt1&quot;; font-variant-ligatures: none; text-align: center; text-anchor: middle; fill: rgb(230, 230, 230);" d="M 625.6025,101.928 644.8985,69.6 h -13.824 L 619.1225,89.616 607.1705,69.6 h -15.048 l 19.224,32.112 V 120 h 14.256 z" transform="translate(0 212.99200000000002) translate(680.3828799999998 120.60799999999999) scale(2) translate(-592.1225 -69.6)"></path> 
  </g> 
  <g id="tagline" style="font-style:normal;font-weight:500;font-size:32px;line-height:1;font-family:Montserrat;font-variant-ligatures:none;text-align:center;text-anchor:middle"></g> 
 </g> 
</svg>