<svg xmlns:dc="http://purl.org/dc/elements/1.1/" xmlns:cc="http://creativecommons.org/ns#" xmlns:rdf="http://www.w3.org/1999/02/22-rdf-syntax-ns#" xmlns:svg="http://www.w3.org/2000/svg" xmlns="http://www.w3.org/2000/svg" id="svg361447" viewbox="0 0 1024 768" height="768px" width="1024px" version="1.1"> <metadata id="metadata361453"> 
  <rdf:rdf> 
   <cc:work rdf:about=""> 
    <dc:format>
     image/svg+xml
    </dc:format> 
    <dc:type rdf:resource="http://purl.org/dc/dcmitype/StillImage"></dc:type> 
   </cc:work> 
  </rdf:rdf> 
 </metadata> <defs id="defs361451"></defs> <g id="logo-group"> 
  <g id="title" style="font-style:normal;font-weight:700;font-size:72px;line-height:1;font-family:'Comfortaa Bold Alt2';font-variant-ligatures:none;text-align:center;text-anchor:middle" aria-label="o7Resource"> 
   <path id="path361455" style="font-style: normal; font-weight: 700; font-size: 72px; line-height: 1; font-family: &quot;Comfortaa Bold Alt2&quot;; font-variant-ligatures: none; text-align: center; text-anchor: middle; fill: rgb(255, 255, 255);" d="m 320.75619,120.288 c 5.544,0 10.224,-1.944 14.112,-5.832 3.888,-3.888 5.904,-8.568 5.904,-14.112 0,-5.544 -2.016,-10.224 -5.904,-14.112 -3.888,-3.888 -8.568,-5.904 -14.112,-5.904 -5.544,0 -10.224,2.016 -14.112,5.904 -3.888,3.888 -5.832,8.568 -5.832,14.112 0,5.544 1.944,10.224 5.832,14.112 3.888,3.888 8.568,5.832 14.112,5.832 z m 0,-33.048 c 3.6,0 6.696,1.296 9.288,3.816 2.52,2.592 3.816,5.688 3.816,9.288 0,3.6 -1.296,6.696 -3.816,9.216 -2.592,2.592 -5.688,3.816 -9.288,3.816 -3.6,0 -6.696,-1.224 -9.216,-3.816 -2.592,-2.52 -3.816,-5.616 -3.816,-9.216 0,-3.6 1.224,-6.696 3.816,-9.288 2.52,-2.52 5.616,-3.816 9.216,-3.816 z" transform="translate(0 295.9552323022243) translate(252.00000000000006 75.03130514252905) scale(1.1054589326577164) translate(-300.81219 -80.328)"></path> 
   <path id="path361457" style="font-style: normal; font-weight: 700; font-size: 72px; line-height: 1; font-family: &quot;Comfortaa Bold Alt2&quot;; font-variant-ligatures: none; text-align: center; text-anchor: middle; fill: rgb(255, 255, 255);" d="m 344.24506,70.104 c 0.72,0.72 1.584,1.008 2.664,1.008 h 21.888 l -20.664,42.912 c -0.432,0.864 -0.648,1.656 -0.648,2.304 0,1.008 0.36,1.872 1.08,2.592 0.72,0.72 1.512,1.08 2.52,1.08 0.648,0 1.296,-0.144 1.944,-0.504 0.576,-0.36 1.08,-0.864 1.44,-1.512 l 23.04,-48.6 c 0.288,-0.72 0.504,-1.368 0.504,-1.944 0,-1.008 -0.36,-1.872 -1.08,-2.592 -0.72,-0.72 -1.584,-1.08 -2.592,-1.08 h -27.432 c -1.08,0 -1.944,0.36 -2.664,1.08 -0.72,0.72 -1.008,1.584 -1.008,2.592 0,1.08 0.288,1.944 1.008,2.664 z" transform="translate(0 295.9552323022243) translate(304.426246171631 56.724905217717264) scale(1.1054589326577164) translate(-343.23706 -63.768)"></path> 
   <path id="path361459" style="font-style: normal; font-weight: 700; font-size: 72px; line-height: 1; font-family: &quot;Comfortaa Bold Alt2&quot;; font-variant-ligatures: none; text-align: center; text-anchor: middle; fill: rgb(194, 163, 174);" d="m 420.98806,120.144 c 0.72,0 1.368,-0.216 2.016,-0.648 0.792,-0.576 1.296,-1.368 1.512,-2.376 0.144,-0.936 0,-1.872 -0.576,-2.664 l -11.88,-17.136 c 2.52,-1.08 4.608,-2.664 6.408,-4.752 2.808,-3.24 4.176,-7.056 4.176,-11.304 0,-4.824 -1.728,-8.928 -5.112,-12.384 -3.456,-3.384 -7.56,-5.112 -12.384,-5.112 h -14.04 c -1.008,0 -1.8,0.36 -2.52,1.08 -0.72,0.72 -1.08,1.512 -1.08,2.52 v 49.104 c 0,1.008 0.36,1.872 1.08,2.52 0.72,0.72 1.512,1.08 2.52,1.08 1.008,0 1.872,-0.36 2.52,-1.08 0.72,-0.648 1.08,-1.512 1.08,-2.52 V 70.968 h 10.44 c 2.808,0 5.256,1.008 7.272,3.024 2.016,2.016 3.024,4.392 3.024,7.272 0,2.52 -0.864,4.752 -2.448,6.624 -1.584,1.872 -3.6,3.024 -5.976,3.456 l -1.296,0.144 c -1.368,0.144 -2.376,0.864 -2.88,2.088 -0.648,1.224 -0.504,2.448 0.288,3.528 l 14.904,21.456 c 0.648,1.008 1.656,1.584 2.952,1.584 z" transform="translate(0 295.9552323022243) translate(358.89331324260934 56.724905217717264) scale(1.1054589326577164) translate(-387.50806 -63.768)"></path> 
   <path id="path361461" style="font-style: normal; font-weight: 700; font-size: 72px; line-height: 1; font-family: &quot;Comfortaa Bold Alt2&quot;; font-variant-ligatures: none; text-align: center; text-anchor: middle; fill: rgb(194, 163, 174);" d="m 449.12656,120.288 c 4.752,0 8.928,-1.44 12.6,-4.464 0.792,-0.576 1.152,-1.368 1.296,-2.304 0.072,-1.008 -0.144,-1.8 -0.792,-2.592 -0.576,-0.72 -1.368,-1.152 -2.304,-1.224 -0.936,-0.072 -1.8,0.144 -2.52,0.792 -2.448,1.944 -5.184,2.88 -8.28,2.88 -3.6,0 -6.696,-1.224 -9.216,-3.816 -2.592,-2.52 -3.816,-5.616 -3.816,-9.216 0,-3.6 1.224,-6.696 3.816,-9.288 2.52,-2.52 5.616,-3.816 9.216,-3.816 2.952,0 5.616,0.936 7.992,2.736 2.304,1.8 3.816,4.104 4.608,6.912 h -12.6 c -0.936,0 -1.8,0.36 -2.448,1.008 -0.648,0.648 -1.008,1.512 -1.008,2.448 0,0.936 0.36,1.8 1.008,2.448 0.648,0.648 1.512,1.008 2.448,1.008 h 16.56 c 0.936,0 1.728,-0.36 2.376,-1.008 0.72,-0.648 1.08,-1.512 1.08,-2.448 0,-5.544 -2.016,-10.224 -5.904,-14.112 -3.888,-3.888 -8.568,-5.904 -14.112,-5.904 -5.544,0 -10.224,2.016 -14.112,5.904 -3.888,3.888 -5.832,8.568 -5.832,14.112 0,5.544 1.944,10.224 5.832,14.112 3.888,3.888 8.568,5.832 14.112,5.832 z" transform="translate(0 295.9552323022243) translate(410.490056194942 75.03130514252905) scale(1.1054589326577164) translate(-429.18256 -80.328)"></path> 
   <path id="path361463" style="font-style: normal; font-weight: 700; font-size: 72px; line-height: 1; font-family: &quot;Comfortaa Bold Alt2&quot;; font-variant-ligatures: none; text-align: center; text-anchor: middle; fill: rgb(194, 163, 174);" d="m 499.10131,81.84 c -2.448,-1.008 -5.256,-1.512 -8.352,-1.512 -2.592,0 -4.968,0.432 -7.2,1.224 -2.304,0.864 -4.104,2.088 -5.472,3.672 -1.44,1.656 -2.088,3.672 -2.088,5.976 0,5.832 4.608,9.648 13.824,11.376 3.528,0.72 6.048,1.512 7.56,2.52 1.44,1.008 2.232,2.232 2.232,3.672 0,1.584 -0.792,2.808 -2.304,3.672 -1.512,0.936 -3.6,1.368 -6.336,1.368 -2.088,0 -4.032,-0.36 -5.832,-1.08 -1.872,-0.72 -3.24,-1.656 -4.104,-2.664 -0.864,-0.864 -1.8,-1.296 -2.736,-1.296 -0.792,0 -1.656,0.36 -2.52,1.008 -1.008,0.72 -1.44,1.656 -1.44,2.808 0,0.864 0.288,1.656 0.936,2.232 1.584,1.656 3.888,2.952 6.768,3.96 2.88,1.008 5.904,1.512 9.216,1.512 3.24,0 6.048,-0.504 8.352,-1.512 2.304,-1.008 4.104,-2.448 5.328,-4.248 1.152,-1.8 1.8,-3.816 1.8,-6.048 0,-2.952 -1.152,-5.4 -3.312,-7.272 -2.16,-1.872 -5.904,-3.312 -11.088,-4.392 -2.592,-0.504 -4.536,-1.008 -5.832,-1.584 -1.368,-0.576 -2.304,-1.152 -2.736,-1.8 -0.504,-0.648 -0.72,-1.44 -0.72,-2.448 0,-1.296 0.648,-2.376 2.088,-3.096 1.44,-0.72 3.24,-1.152 5.472,-1.152 1.872,0 3.528,0.288 4.896,0.72 1.296,0.432 2.592,1.224 3.816,2.304 1.008,0.936 2.088,1.368 3.384,1.368 0.792,0 1.44,-0.144 2.016,-0.576 0.792,-0.648 1.224,-1.368 1.224,-2.232 0,-0.72 -0.36,-1.512 -0.936,-2.304 -1.44,-1.728 -3.456,-3.168 -5.904,-4.176 z" transform="translate(0 295.9552323022243) translate(465.9296507619259 75.03130514252905) scale(1.1054589326577164) translate(-474.33331 -80.328)"></path> 
   <path id="path361465" style="font-style: normal; font-weight: 700; font-size: 72px; line-height: 1; font-family: &quot;Comfortaa Bold Alt2&quot;; font-variant-ligatures: none; text-align: center; text-anchor: middle; fill: rgb(194, 163, 174);" d="m 533.80306,120.288 c 5.544,0 10.224,-1.944 14.112,-5.832 3.888,-3.888 5.904,-8.568 5.904,-14.112 0,-5.544 -2.016,-10.224 -5.904,-14.112 -3.888,-3.888 -8.568,-5.904 -14.112,-5.904 -5.544,0 -10.224,2.016 -14.112,5.904 -3.888,3.888 -5.832,8.568 -5.832,14.112 0,5.544 1.944,10.224 5.832,14.112 3.888,3.888 8.568,5.832 14.112,5.832 z m 0,-33.048 c 3.6,0 6.696,1.296 9.288,3.816 2.52,2.592 3.816,5.688 3.816,9.288 0,3.6 -1.296,6.696 -3.816,9.216 -2.592,2.592 -5.688,3.816 -9.288,3.816 -3.6,0 -6.696,-1.224 -9.216,-3.816 -2.592,-2.52 -3.816,-5.616 -3.816,-9.216 0,-3.6 1.224,-6.696 3.816,-9.288 2.52,-2.52 5.616,-3.816 9.216,-3.816 z" transform="translate(0 295.9552323022243) translate(515.1510388327102 75.03130514252905) scale(1.1054589326577164) translate(-513.85906 -80.328)"></path> 
   <path id="path361467" style="font-style: normal; font-weight: 700; font-size: 72px; line-height: 1; font-family: &quot;Comfortaa Bold Alt2&quot;; font-variant-ligatures: none; text-align: center; text-anchor: middle; fill: rgb(194, 163, 174);" d="m 597.14731,80.472 c -1.008,0 -1.872,0.36 -2.592,1.08 -0.72,0.72 -1.008,1.512 -1.008,2.52 V 102 c 0,3.096 -1.152,5.76 -3.312,7.92 -2.232,2.232 -4.824,3.312 -7.92,3.312 -3.096,0 -5.688,-1.08 -7.92,-3.312 -2.16,-2.16 -3.24,-4.824 -3.24,-7.92 V 84.072 c 0,-1.008 -0.36,-1.8 -1.08,-2.52 -0.72,-0.72 -1.512,-1.08 -2.52,-1.08 -1.008,0 -1.872,0.36 -2.592,1.08 -0.72,0.72 -1.008,1.512 -1.008,2.52 V 102 c 0,5.112 1.728,9.432 5.328,13.032 3.6,3.6 7.92,5.4 13.032,5.4 5.04,0 9.432,-1.8 13.032,-5.4 3.6,-3.6 5.4,-7.92 5.4,-13.032 V 84.072 c 0,-1.008 -0.36,-1.8 -1.08,-2.52 -0.72,-0.72 -1.512,-1.08 -2.52,-1.08 z" transform="translate(0 295.9552323022243) translate(576.057680551153 75.19049122883175) scale(1.1054589326577164) translate(-563.95531 -80.472)"></path> 
   <path id="path361469" style="font-style: normal; font-weight: 700; font-size: 72px; line-height: 1; font-family: &quot;Comfortaa Bold Alt2&quot;; font-variant-ligatures: none; text-align: center; text-anchor: middle; fill: rgb(194, 163, 174);" d="m 635.71344,79.536 c -6.048,0 -11.16,2.16 -15.48,6.408 -4.248,4.248 -6.336,9.36 -6.336,15.408 v 15.192 c 0,1.008 0.288,1.8 1.008,2.448 0.648,0.72 1.44,1.008 2.448,1.008 0.936,0 1.728,-0.288 2.376,-1.008 0.72,-0.648 1.08,-1.44 1.08,-2.448 v -15.192 c 0,-4.104 1.44,-7.632 4.32,-10.512 2.952,-2.952 6.48,-4.392 10.584,-4.392 0.936,0 1.728,-0.36 2.448,-1.008 0.648,-0.72 1.008,-1.512 1.008,-2.448 0,-0.936 -0.36,-1.8 -1.008,-2.448 -0.72,-0.648 -1.512,-1.008 -2.448,-1.008 z" transform="translate(0 295.9552323022243) translate(636.7939489388943 74.15578166786415) scale(1.1054589326577164) translate(-613.89744 -79.536)"></path> 
   <path id="path361471" style="font-style: normal; font-weight: 700; font-size: 72px; line-height: 1; font-family: &quot;Comfortaa Bold Alt2&quot;; font-variant-ligatures: none; text-align: center; text-anchor: middle; fill: rgb(194, 163, 174);" d="m 677.56456,86.808 c -3.744,-4.32 -8.496,-6.48 -14.112,-6.48 -3.744,0 -7.128,0.864 -10.08,2.592 -3.024,1.728 -5.328,4.104 -6.984,7.128 -1.656,3.024 -2.448,6.48 -2.448,10.296 0,3.744 0.792,7.2 2.52,10.224 1.728,3.024 4.104,5.4 7.128,7.128 3.024,1.728 6.408,2.592 10.224,2.592 5.184,0 9.504,-1.584 12.96,-4.824 0.576,-0.576 0.864,-1.224 0.864,-1.944 0,-0.936 -0.504,-1.8 -1.368,-2.592 -0.576,-0.432 -1.224,-0.648 -1.872,-0.648 -0.864,0 -1.8,0.36 -2.664,1.008 -2.016,1.728 -4.68,2.52 -7.92,2.52 -2.52,0 -4.752,-0.576 -6.696,-1.728 -1.944,-1.152 -3.456,-2.736 -4.536,-4.752 -1.08,-2.016 -1.584,-4.392 -1.584,-6.984 0,-4.032 1.152,-7.344 3.456,-9.792 2.304,-2.448 5.256,-3.744 9,-3.744 1.8,0 3.384,0.36 4.824,0.936 1.44,0.576 2.736,1.512 3.96,2.808 0.72,0.864 1.656,1.296 2.808,1.296 0.576,0 1.152,-0.144 1.656,-0.504 1.008,-0.72 1.584,-1.584 1.584,-2.664 0,-0.72 -0.288,-1.296 -0.72,-1.872 z" transform="translate(0 295.9552323022243) translate(675.5326789710907 75.03130514252905) scale(1.1054589326577164) translate(-643.94056 -80.328)"></path> 
   <path id="path361473" style="font-style: normal; font-weight: 700; font-size: 72px; line-height: 1; font-family: &quot;Comfortaa Bold Alt2&quot;; font-variant-ligatures: none; text-align: center; text-anchor: middle; fill: rgb(194, 163, 174);" d="m 706.18906,120.288 c 4.752,0 8.928,-1.44 12.6,-4.464 0.792,-0.576 1.152,-1.368 1.296,-2.304 0.072,-1.008 -0.144,-1.8 -0.792,-2.592 -0.576,-0.72 -1.368,-1.152 -2.304,-1.224 -0.936,-0.072 -1.8,0.144 -2.52,0.792 -2.448,1.944 -5.184,2.88 -8.28,2.88 -3.6,0 -6.696,-1.224 -9.216,-3.816 -2.592,-2.52 -3.816,-5.616 -3.816,-9.216 0,-3.6 1.224,-6.696 3.816,-9.288 2.52,-2.52 5.616,-3.816 9.216,-3.816 2.952,0 5.616,0.936 7.992,2.736 2.304,1.8 3.816,4.104 4.608,6.912 h -12.6 c -0.936,0 -1.8,0.36 -2.448,1.008 -0.648,0.648 -1.008,1.512 -1.008,2.448 0,0.936 0.36,1.8 1.008,2.448 0.648,0.648 1.512,1.008 2.448,1.008 h 16.56 c 0.936,0 1.728,-0.36 2.376,-1.008 0.72,-0.648 1.08,-1.512 1.08,-2.448 0,-5.544 -2.016,-10.224 -5.904,-14.112 -3.888,-3.888 -8.568,-5.904 -14.112,-5.904 -5.544,0 -10.224,2.016 -14.112,5.904 -3.888,3.888 -5.832,8.568 -5.832,14.112 0,5.544 1.944,10.224 5.832,14.112 3.888,3.888 8.568,5.832 14.112,5.832 z" transform="translate(0 295.9552323022243) translate(727.8258610509976 75.03130514252905) scale(1.1054589326577164) translate(-686.24506 -80.328)"></path> 
  </g> 
  <g id="tagline" style="font-style:normal;font-weight:500;font-size:32px;line-height:1;font-family:Raleway;font-variant-ligatures:none;text-align:center;text-anchor:middle"></g> 
 </g> 
</svg>