<svg xmlns:dc="http://purl.org/dc/elements/1.1/" xmlns:cc="http://creativecommons.org/ns#" xmlns:rdf="http://www.w3.org/1999/02/22-rdf-syntax-ns#" xmlns:svg="http://www.w3.org/2000/svg" xmlns="http://www.w3.org/2000/svg" id="svg41548" viewbox="0 0 1024 768" height="768px" width="1024px" version="1.1"> <metadata id="metadata41554"> 
  <rdf:rdf> 
   <cc:work rdf:about=""> 
    <dc:format>
     image/svg+xml
    </dc:format> 
    <dc:type rdf:resource="http://purl.org/dc/dcmitype/StillImage"></dc:type> 
   </cc:work> 
  </rdf:rdf> 
 </metadata> <defs id="defs41552"></defs> <g id="logo-group"> 
  <g id="title" style="font-style:oblique;font-weight:700;font-size:72px;line-height:1;font-family:Averta;font-variant-ligatures:none;text-align:center;text-anchor:middle" aria-label="O7REFOCUS"> 
   <path id="path41556" style="font-style: oblique; font-weight: 700; font-size: 72px; line-height: 1; font-family: Averta; font-variant-ligatures: none; text-align: center; text-anchor: middle; fill: rgb(167, 167, 167);" d="m 341.43144,120.648 c 17.208,0 27.144,-14.04 27.144,-30.888 0,-13.608 -8.424,-21.528 -20.88,-21.528 -16.488,0 -27.072,14.472 -27.072,30.744 0,13.752 8.28,21.672 20.808,21.672 z m 0.864,-10.8 c -5.544,0 -9.648,-3.672 -9.648,-11.592 0,-9.936 5.904,-19.296 13.968,-19.296 5.76,0 9.936,3.528 9.936,11.448 0,10.728 -5.832,19.44 -14.256,19.44 z" transform="translate(0 274.4765937610066) translate(252.0000000000001 73.82442375806826) scale(1.349167894214859) translate(-320.62344 -68.232)"></path> 
   <path id="path41558" style="font-style: oblique; font-weight: 700; font-size: 72px; line-height: 1; font-family: Averta; font-variant-ligatures: none; text-align: center; text-anchor: middle; fill: rgb(167, 167, 167);" d="m 402.45256,70.536 h -27.864 l -1.224,10.08 h 15.48 l -17.568,38.52 11.088,2.016 19.224,-43.344 z" transform="translate(0 274.4765937610066) translate(320.33956324581266 76.9329065863393) scale(1.349167894214859) translate(-371.27656 -70.536)"></path> 
   <path id="path41560" style="font-style: oblique; font-weight: 700; font-size: 72px; line-height: 1; font-family: Averta; font-variant-ligatures: none; text-align: center; text-anchor: middle; fill: rgb(0, 0, 0);" d="m 409.69531,68.88 -6.264,51.12 h 11.304 l 2.016,-16.704 h 4.392 l 6.984,16.704 h 12.456 l -8.568,-18.792 c 6.768,-3.24 10.368,-9.72 10.368,-18.216 0,-8.208 -4.248,-14.112 -14.472,-14.112 z m 12.816,24.264 h -4.464 l 1.728,-14.112 h 5.256 c 2.88,0 5.4,1.584 5.4,5.256 0,5.112 -3.096,8.856 -7.92,8.856 z" transform="translate(0 274.4765937610066) translate(363.7217195923179 74.69868455351948) scale(1.349167894214859) translate(-403.43131 -68.88)"></path> 
   <path id="path41562" style="font-style: oblique; font-weight: 700; font-size: 72px; line-height: 1; font-family: Averta; font-variant-ligatures: none; text-align: center; text-anchor: middle; fill: rgb(0, 0, 0);" d="m 452.93581,68.88 -6.264,51.12 h 31.68 l 1.296,-10.296 h -20.448 l 1.296,-10.152 h 15.048 l 1.152,-9.936 h -15.048 l 1.296,-10.44 h 19.08 l 1.296,-10.296 z" transform="translate(0 274.4765937610066) translate(422.0604139221155 74.69868455351948) scale(1.349167894214859) translate(-446.67181 -68.88)"></path> 
   <path id="path41564" style="font-style: oblique; font-weight: 700; font-size: 72px; line-height: 1; font-family: Averta; font-variant-ligatures: none; text-align: center; text-anchor: middle; fill: rgb(0, 0, 0);" d="m 492.38281,68.88 -6.264,51.12 h 11.304 l 2.232,-18.648 h 16.632 l 1.152,-10.152 h -16.488 l 1.512,-12.024 h 20.016 l 1.296,-10.296 z" transform="translate(0 274.4765937610066) translate(475.281039845209 74.69868455351948) scale(1.349167894214859) translate(-486.11881 -68.88)"></path> 
   <path id="path41566" style="font-style: oblique; font-weight: 700; font-size: 72px; line-height: 1; font-family: Averta; font-variant-ligatures: none; text-align: center; text-anchor: middle; fill: rgb(0, 0, 0);" d="m 544.77519,120.648 c 17.208,0 27.144,-14.04 27.144,-30.888 0,-13.608 -8.424,-21.528 -20.88,-21.528 -16.488,0 -27.072,14.472 -27.072,30.744 0,13.752 8.28,21.672 20.808,21.672 z m 0.864,-10.8 c -5.544,0 -9.648,-3.672 -9.648,-11.592 0,-9.936 5.904,-19.296 13.968,-19.296 5.76,0 9.936,3.528 9.936,11.448 0,10.728 -5.832,19.44 -14.256,19.44 z" transform="translate(0 274.4765937610066) translate(526.3448589892528 73.82442375806826) scale(1.349167894214859) translate(-523.96719 -68.232)"></path> 
   <path id="path41568" style="font-style: oblique; font-weight: 700; font-size: 72px; line-height: 1; font-family: Averta; font-variant-ligatures: none; text-align: center; text-anchor: middle; fill: rgb(0, 0, 0);" d="m 598.00344,120.648 c 7.776,0 14.616,-3.24 19.368,-8.784 l -8.064,-7.488 c -2.736,3.24 -6.696,5.184 -10.512,5.184 -5.904,0 -9.504,-3.888 -9.504,-10.872 0,-9.576 5.472,-19.44 14.328,-19.44 3.888,0 6.984,2.52 9.216,6.552 l 9.144,-6.912 c -4.752,-7.992 -11.664,-10.656 -17.712,-10.656 -16.416,0 -27.144,13.896 -27.144,30.888 0,14.256 9,21.528 20.88,21.528 z" transform="translate(0 274.4765937610066) translate(598.0615648661113 73.82442375806826) scale(1.349167894214859) translate(-577.12344 -68.232)"></path> 
   <path id="path41570" style="font-style: oblique; font-weight: 700; font-size: 72px; line-height: 1; font-family: Averta; font-variant-ligatures: none; text-align: center; text-anchor: middle; fill: rgb(0, 0, 0);" d="m 642.30144,120.648 c 12.456,0 19.728,-5.904 21.672,-21.744 l 3.672,-30.024 h -11.52 l -3.672,29.736 c -1.008,8.496 -4.464,11.232 -9.216,11.232 -5.832,0 -6.912,-5.256 -6.12,-11.808 l 3.6,-29.16 h -11.52 l -3.528,28.224 c -1.8,14.4 2.88,23.544 16.632,23.544 z" transform="translate(0 274.4765937610066) translate(663.0613304481898 74.69868455351948) scale(1.349167894214859) translate(-625.30111 -68.88)"></path> 
   <path id="path41572" style="font-style: oblique; font-weight: 700; font-size: 72px; line-height: 1; font-family: Averta; font-variant-ligatures: none; text-align: center; text-anchor: middle; fill: rgb(0, 0, 0);" d="m 685.95819,120.648 c 10.728,0 18.504,-6.048 18.504,-16.848 0,-8.208 -6.624,-10.656 -14.04,-15.048 -4.176,-2.448 -5.472,-3.96 -5.544,-5.976 -0.072,-2.448 2.016,-4.392 5.04,-4.392 2.304,0 5.112,0.792 7.92,4.536 l 8.208,-6.84 c -3.528,-5.256 -9.72,-7.848 -15.696,-7.848 -9.72,0 -17.496,6.12 -17.496,15.84 0,8.352 6.624,11.736 12.6,15.192 4.824,2.808 6.912,3.816 6.912,6.264 0,2.592 -2.304,4.824 -6.408,4.824 -3.312,0 -7.2,-2.016 -9.576,-6.048 l -8.208,7.2 c 4.104,6.408 11.16,9.144 17.784,9.144 z" transform="translate(0 274.4765937610066) translate(720.9043135102949 73.82442375806826) scale(1.349167894214859) translate(-668.17419 -68.232)"></path> 
  </g> 
  <g id="tagline" style="font-style:normal;font-weight:500;font-size:32px;line-height:1;font-family:Raleway;font-variant-ligatures:none;text-align:center;text-anchor:middle"></g> 
 </g> 
</svg>