<svg xmlns:dc="http://purl.org/dc/elements/1.1/" xmlns:cc="http://creativecommons.org/ns#" xmlns:rdf="http://www.w3.org/1999/02/22-rdf-syntax-ns#" xmlns:svg="http://www.w3.org/2000/svg" xmlns="http://www.w3.org/2000/svg" id="svg5951" viewbox="0 0 1024 768" height="768px" width="1024px" version="1.1"> <metadata id="metadata5957"> 
  <rdf:rdf> 
   <cc:work rdf:about=""> 
    <dc:format>
     image/svg+xml
    </dc:format> 
    <dc:type rdf:resource="http://purl.org/dc/dcmitype/StillImage"></dc:type> 
   </cc:work> 
  </rdf:rdf> 
 </metadata> <defs id="defs5955"></defs> <g id="logo-group"> 
  <g id="title" style="font-style:normal;font-weight:800;font-size:72px;line-height:1;font-family:'Montserrat ExtraBold Alt1';font-variant-ligatures:none;text-align:center;text-anchor:middle" aria-label="O7STRONG"> 
   <path id="path5959" style="font-style: normal; font-weight: 800; font-size: 72px; line-height: 1; font-family: &quot;Montserrat ExtraBold Alt1&quot;; font-variant-ligatures: none; text-align: center; text-anchor: middle; fill: rgb(70, 130, 182);" d="m 315.29037,117.624 c 4.248,2.304 9.072,3.384 14.40001,3.384 5.32799,0 10.07999,-1.08 14.32799,-3.384 4.248,-2.232 7.56,-5.328 10.00801,-9.36 2.44799,-3.96 3.67199,-8.424 3.67199,-13.464 0,-4.968 -1.224,-9.432 -3.67199,-13.464 -2.44801,-3.96 -5.76001,-7.056 -10.00801,-9.36 -4.248,-2.232 -9,-3.384 -14.32799,-3.384 -5.32801,0 -10.15201,1.152 -14.40001,3.384 -4.248,2.304 -7.56,5.4 -10.008,9.36 -2.44799,4.032 -3.6,8.496 -3.6,13.464 0,5.04 1.15201,9.504 3.6,13.464 2.448,4.032 5.76,7.128 10.008,9.36 z m 21.312,-10.224 c -2.088,1.224 -4.392,1.8 -6.91199,1.8 -2.59201,0 -4.89601,-0.576 -6.91201,-1.8 -2.08799,-1.152 -3.744,-2.88 -4.89599,-5.04 -1.22401,-2.16 -1.8,-4.68 -1.8,-7.56 0,-2.808 0.57599,-5.328 1.8,-7.488 1.15199,-2.16 2.808,-3.888 4.89599,-5.112 2.016,-1.152 4.32,-1.8 6.91201,-1.8 2.51999,0 4.82399,0.648 6.91199,1.8 2.01601,1.224 3.67201,2.952 4.896,5.112 1.152,2.16 1.80001,4.68 1.80001,7.488 0,2.88 -0.64801,5.4 -1.80001,7.56 -1.22399,2.16 -2.87999,3.888 -4.896,5.04 z" transform="translate(0 284.092) translate(218.726875 67.14800000000001) scale(1.25) translate(-301.68237 -68.592)"></path> 
   <path id="path5961" style="font-style: normal; font-weight: 800; font-size: 72px; line-height: 1; font-family: &quot;Montserrat ExtraBold Alt1&quot;; font-variant-ligatures: none; text-align: center; text-anchor: middle; fill: rgb(70, 130, 182);" d="m 403.541,69.6 h -41.76 v 19.08 h 12.168 v -7.776 h 13.248 L 370.205,120 h 15.552 l 17.784,-41.472 z" transform="translate(0 284.092) translate(302.6001625 68.408) scale(1.25) translate(-361.781 -69.6)"></path> 
   <path id="path5963" style="font-style: normal; font-weight: 800; font-size: 72px; line-height: 1; font-family: &quot;Montserrat ExtraBold Alt1&quot;; font-variant-ligatures: none; text-align: center; text-anchor: middle; fill: rgb(243, 229, 240);" d="m 416.41888,119.496 c 3.81599,1.008 7.776,1.512 11.87999,1.512 4.75201,0 8.856,-0.72 12.24001,-2.16 3.31199,-1.44 5.83199,-3.456 7.56,-5.904 1.65599,-2.448 2.51999,-5.184 2.51999,-8.208 0,-3.456 -0.936,-6.264 -2.808,-8.28 -1.872,-2.016 -4.032,-3.528 -6.552,-4.464 -2.52,-0.936 -5.688,-1.8 -9.504,-2.664 -3.456,-0.72 -5.904,-1.368 -7.41599,-2.088 -1.584,-0.648 -2.30401,-1.656 -2.30401,-3.024 0,-1.296 0.64801,-2.376 1.94401,-3.24 1.29599,-0.864 3.312,-1.296 6.192,-1.296 4.464,0 9.144,1.296 13.96799,3.888 l 4.392,-10.584 c -2.448,-1.44 -5.328,-2.52 -8.496,-3.24 -3.24,-0.72 -6.48,-1.152 -9.79199,-1.152 -4.89601,0 -9,0.72 -12.312,2.16 -3.31201,1.44 -5.832,3.456 -7.488,5.904 -1.72801,2.448 -2.52001,5.256 -2.52001,8.28 0,3.528 0.864,6.336 2.73601,8.352 1.79999,2.088 3.95999,3.6 6.55199,4.536 2.52001,0.936 5.688,1.8 9.504,2.592 3.45601,0.792 5.904,1.512 7.488,2.232 1.584,0.72 2.376,1.728 2.376,3.168 0,2.736 -2.736,4.104 -8.208,4.104 -2.87999,0 -5.83199,-0.432 -8.78399,-1.368 -3.024,-0.864 -5.61601,-2.088 -7.84801,-3.6 l -4.68,10.512 c 2.376,1.728 5.472,3.024 9.36001,4.032 z" transform="translate(0 284.092) translate(367.9475 67.14800000000001) scale(1.25) translate(-407.05887 -68.592)"></path> 
   <path id="path5965" style="font-style: normal; font-weight: 800; font-size: 72px; line-height: 1; font-family: &quot;Montserrat ExtraBold Alt1&quot;; font-variant-ligatures: none; text-align: center; text-anchor: middle; fill: rgb(243, 229, 240);" d="M 467.15863,80.904 V 120 h 14.25599 V 80.904 h 15.40801 V 69.6 h -45.14401 v 11.304 z" transform="translate(0 284.092) translate(432.4721875 68.408) scale(1.25) translate(-451.67862 -69.6)"></path> 
   <path id="path5967" style="font-style: normal; font-weight: 800; font-size: 72px; line-height: 1; font-family: &quot;Montserrat ExtraBold Alt1&quot;; font-variant-ligatures: none; text-align: center; text-anchor: middle; fill: rgb(243, 229, 240);" d="m 537.70175,104.16 c 3.096,-1.512 5.544,-3.6 7.272,-6.336 1.728,-2.736 2.592,-5.904 2.592,-9.576 0,-3.744 -0.936,-7.056 -2.736,-9.864 -1.872,-2.808 -4.464,-4.968 -7.776,-6.48 -3.384,-1.512 -7.344,-2.304 -11.88,-2.304 h -23.04 v 11.232 h 22.176 c 2.88,0 5.112,0.648 6.624,1.944 1.44,1.296 2.232,3.168 2.232,5.472 0,2.376 -0.792,4.176 -2.232,5.472 -1.512,1.296 -3.744,1.872 -6.624,1.872 h -22.176 V 120 h 14.256 v -13.392 h 7.776 l 9.144,13.392 h 15.264 z" transform="translate(0 284.092) translate(504.29110000000003 68.408) scale(1.25) translate(-502.13375 -69.6)"></path> 
   <path id="path5969" style="font-style: normal; font-weight: 800; font-size: 72px; line-height: 1; font-family: &quot;Montserrat ExtraBold Alt1&quot;; font-variant-ligatures: none; text-align: center; text-anchor: middle; fill: rgb(243, 229, 240);" d="m 566.44663,117.624 c 4.24799,2.304 9.072,3.384 14.4,3.384 5.32799,0 10.08,-1.08 14.32799,-3.384 4.24801,-2.232 7.56001,-5.328 10.00801,-9.36 2.44799,-3.96 3.672,-8.424 3.672,-13.464 0,-4.968 -1.22401,-9.432 -3.672,-13.464 -2.448,-3.96 -5.76,-7.056 -10.00801,-9.36 -4.24799,-2.232 -9,-3.384 -14.32799,-3.384 -5.328,0 -10.15201,1.152 -14.4,3.384 -4.24801,2.304 -7.56001,5.4 -10.00801,9.36 -2.44799,4.032 -3.6,8.496 -3.6,13.464 0,5.04 1.15201,9.504 3.6,13.464 2.448,4.032 5.76,7.128 10.00801,9.36 z m 21.312,-10.224 c -2.08801,1.224 -4.39201,1.8 -6.912,1.8 -2.592,0 -4.89601,-0.576 -6.91201,-1.8 -2.08799,-1.152 -3.744,-2.88 -4.89599,-5.04 -1.22401,-2.16 -1.80001,-4.68 -1.80001,-7.56 0,-2.808 0.576,-5.328 1.80001,-7.488 1.15199,-2.16 2.808,-3.888 4.89599,-5.112 2.016,-1.152 4.32001,-1.8 6.91201,-1.8 2.51999,0 4.82399,0.648 6.912,1.8 2.016,1.224 3.67199,2.952 4.89599,5.112 1.152,2.16 1.8,4.68 1.8,7.488 0,2.88 -0.648,5.4 -1.8,7.56 -1.224,2.16 -2.87999,3.888 -4.89599,5.04 z" transform="translate(0 284.092) translate(576.4221875 67.14800000000001) scale(1.25) translate(-552.83862 -68.592)"></path> 
   <path id="path5971" style="font-style: normal; font-weight: 800; font-size: 72px; line-height: 1; font-family: &quot;Montserrat ExtraBold Alt1&quot;; font-variant-ligatures: none; text-align: center; text-anchor: middle; fill: rgb(243, 229, 240);" d="m 616.32125,120 h 13.968 v -8.496 l -13.968,-17.784 z m 33.984,-50.4 v 9.144 l 13.968,16.848 V 69.6 Z m 0,26.856 -22.248,-26.856 h -11.736 v 6.696 l 13.968,16.848 22.248,26.856 h 11.736 v -5.832 l -13.968,-17.784 z" transform="translate(0 284.092) translate(664.5254749999999 68.408) scale(1.25) translate(-616.32125 -69.6)"></path> 
   <path id="path5973" style="font-style: normal; font-weight: 800; font-size: 72px; line-height: 1; font-family: &quot;Montserrat ExtraBold Alt1&quot;; font-variant-ligatures: none; text-align: center; text-anchor: middle; fill: rgb(243, 229, 240);" d="m 708.16737,93.72 v 13.824 c -2.44799,1.152 -4.96799,1.656 -7.70399,1.656 -2.808,0 -5.25601,-0.576 -7.41601,-1.8 -2.15999,-1.224 -3.888,-2.952 -5.03999,-5.112 -1.22401,-2.16 -1.80001,-4.68 -1.80001,-7.488 0,-4.32 1.296,-7.848 3.96,-10.44 2.592,-2.592 6.12,-3.96 10.44001,-3.96 4.75199,0 8.784,1.872 12.24,5.616 l 9.07199,-8.208 c -2.52,-2.952 -5.616,-5.256 -9.35999,-6.84 -3.744,-1.584 -7.99201,-2.376 -12.672,-2.376 -5.4,0 -10.22401,1.152 -14.472,3.384 -4.32001,2.232 -7.63201,5.328 -10.00801,9.288 -2.44799,4.032 -3.6,8.496 -3.6,13.536 0,5.04 1.15201,9.576 3.6,13.536 2.376,4.032 5.688,7.128 9.93601,9.36 4.17599,2.232 8.928,3.312 14.25599,3.312 3.74401,0 7.488,-0.504 11.232,-1.656 3.744,-1.08 7.05601,-2.664 9.93601,-4.752 V 93.72 Z" transform="translate(0 284.092) translate(742.6331250000001 67.14800000000001) scale(1.25) translate(-671.80737 -68.592)"></path> 
  </g> 
  <g id="tagline" style="font-style:normal;font-weight:500;font-size:32px;line-height:1;font-family:Montserrat;font-variant-ligatures:none;text-align:center;text-anchor:middle"></g> 
 </g> 
</svg>