<svg xmlns:dc="http://purl.org/dc/elements/1.1/" xmlns:cc="http://creativecommons.org/ns#" xmlns:rdf="http://www.w3.org/1999/02/22-rdf-syntax-ns#" xmlns:svg="http://www.w3.org/2000/svg" xmlns="http://www.w3.org/2000/svg" id="svg37220" viewbox="0 0 1024 768" height="768px" width="1024px" version="1.1"> <metadata id="metadata37226"> 
  <rdf:rdf> 
   <cc:work rdf:about=""> 
    <dc:format>
     image/svg+xml
    </dc:format> 
    <dc:type rdf:resource="http://purl.org/dc/dcmitype/StillImage"></dc:type> 
   </cc:work> 
  </rdf:rdf> 
 </metadata> <defs id="defs37224"></defs> <g id="logo-group"> 
  <g id="title" style="font-style:normal;font-weight:700;font-size:72px;line-height:1;font-family:'Comfortaa Bold Alt2';font-variant-ligatures:none;text-align:center;text-anchor:middle" aria-label="o7Strategic"> 
   <path id="path37228" style="font-style: normal; font-weight: 700; font-size: 72px; line-height: 1; font-family: &quot;Comfortaa Bold Alt2&quot;; font-variant-ligatures: none; text-align: center; text-anchor: middle; fill: rgb(255, 255, 255);" d="m 321.88119,120.288 c 5.544,0 10.224,-1.944 14.112,-5.832 3.888,-3.888 5.904,-8.568 5.904,-14.112 0,-5.544 -2.016,-10.224 -5.904,-14.112 -3.888,-3.888 -8.568,-5.904 -14.112,-5.904 -5.544,0 -10.224,2.016 -14.112,5.904 -3.888,3.888 -5.832,8.568 -5.832,14.112 0,5.544 1.944,10.224 5.832,14.112 3.888,3.888 8.568,5.832 14.112,5.832 z m 0,-33.048 c 3.6,0 6.696,1.296 9.288,3.816 2.52,2.592 3.816,5.688 3.816,9.288 0,3.6 -1.296,6.696 -3.816,9.216 -2.592,2.592 -5.688,3.816 -9.288,3.816 -3.6,0 -6.696,-1.224 -9.216,-3.816 -2.592,-2.52 -3.816,-5.616 -3.816,-9.216 0,-3.6 1.224,-6.696 3.816,-9.288 2.52,-2.52 5.616,-3.816 9.216,-3.816 z" transform="translate(0 281.6094194155893) translate(252.00000000000006 79.71561369096472) scale(1.1557067733662574) translate(-301.93719 -80.328)"></path> 
   <path id="path37230" style="font-style: normal; font-weight: 700; font-size: 72px; line-height: 1; font-family: &quot;Comfortaa Bold Alt2&quot;; font-variant-ligatures: none; text-align: center; text-anchor: middle; fill: rgb(255, 255, 255);" d="m 345.37006,70.104 c 0.72,0.72 1.584,1.008 2.664,1.008 h 21.888 l -20.664,42.912 c -0.432,0.864 -0.648,1.656 -0.648,2.304 0,1.008 0.36,1.872 1.08,2.592 0.72,0.72 1.512,1.08 2.52,1.08 0.648,0 1.296,-0.144 1.944,-0.504 0.576,-0.36 1.08,-0.864 1.44,-1.512 l 23.04,-48.6 c 0.288,-0.72 0.504,-1.368 0.504,-1.944 0,-1.008 -0.36,-1.872 -1.08,-2.592 -0.72,-0.72 -1.584,-1.08 -2.592,-1.08 h -27.432 c -1.08,0 -1.944,0.36 -2.664,1.08 -0.72,0.72 -1.008,1.584 -1.008,2.592 0,1.08 0.288,1.944 1.008,2.664 z" transform="translate(0 281.6094194155893) translate(304.4978299382818 60.5771095240195) scale(1.1557067733662574) translate(-344.36206 -63.768)"></path> 
   <path id="path37232" style="font-style: normal; font-weight: 700; font-size: 72px; line-height: 1; font-family: &quot;Comfortaa Bold Alt2&quot;; font-variant-ligatures: none; text-align: center; text-anchor: middle; fill: rgb(65, 90, 99);" d="m 417.79306,65.64 c -2.88,-1.656 -6.336,-2.52 -10.44,-2.52 -3.816,0 -7.272,0.648 -10.296,1.8 -3.024,1.152 -5.472,2.88 -7.2,5.112 -1.728,2.232 -2.592,4.896 -2.592,7.92 0,4.392 1.656,8.064 5.112,10.944 3.384,2.88 8.064,4.608 14.04,5.184 4.32,0.432 7.488,1.656 9.648,3.6 2.088,1.944 3.168,4.248 3.168,6.984 0,2.88 -1.296,5.184 -3.744,6.84 -2.52,1.656 -5.544,2.448 -9.144,2.448 -3.096,0 -5.904,-0.648 -8.424,-1.944 -2.592,-1.296 -4.248,-2.88 -5.112,-4.752 -0.36,-0.72 -0.864,-1.368 -1.584,-1.8 -0.72,-0.432 -1.44,-0.72 -2.16,-0.72 -0.36,0 -0.576,0.072 -0.72,0.072 -0.936,0.216 -1.656,0.576 -2.16,1.152 -0.576,0.576 -0.792,1.152 -0.792,1.872 0,0.432 0.072,0.864 0.36,1.44 1.44,3.456 4.032,6.192 7.848,8.28 3.816,2.16 8.064,3.168 12.744,3.168 3.528,0 6.84,-0.576 9.936,-1.8 3.096,-1.224 5.616,-3.096 7.488,-5.544 1.872,-2.448 2.808,-5.472 2.808,-8.928 0,-4.752 -1.584,-8.568 -4.752,-11.448 -3.168,-2.88 -7.632,-4.68 -13.392,-5.256 -5.184,-0.504 -8.784,-1.584 -10.8,-3.312 -2.016,-1.656 -3.024,-3.744 -3.024,-6.264 0,-2.664 1.08,-4.68 3.384,-6.12 2.232,-1.44 5.184,-2.16 8.856,-2.16 2.952,0 5.4,0.576 7.344,1.728 1.944,1.152 3.6,2.736 4.896,4.896 0.288,0.648 0.792,1.152 1.44,1.512 0.576,0.36 1.296,0.504 2.016,0.504 0.72,0 1.296,-0.144 1.872,-0.504 0.936,-0.648 1.44,-1.512 1.44,-2.592 0,-0.792 -0.288,-1.656 -0.864,-2.592 -2.016,-3.096 -4.392,-5.472 -7.2,-7.2 z" transform="translate(0 281.6094194155893) translate(355.3847548763715 59.82821153487817) scale(1.1557067733662574) translate(-385.39306 -63.12)"></path> 
   <path id="path37234" style="font-style: normal; font-weight: 700; font-size: 72px; line-height: 1; font-family: &quot;Comfortaa Bold Alt2&quot;; font-variant-ligatures: none; text-align: center; text-anchor: middle; fill: rgb(65, 90, 99);" d="m 453.68506,112.8 c -2.088,0 -3.888,-0.72 -5.328,-2.232 -1.512,-1.44 -2.232,-3.24 -2.232,-5.328 V 88.32 h 6.408 c 0.864,0 1.656,-0.288 2.304,-0.936 0.576,-0.576 0.936,-1.368 0.936,-2.304 0,-0.864 -0.36,-1.656 -0.936,-2.304 -0.648,-0.576 -1.44,-0.936 -2.304,-0.936 h -6.408 V 71.688 c 0,-1.008 -0.36,-1.8 -1.08,-2.52 -0.72,-0.72 -1.512,-1.08 -2.52,-1.08 -1.008,0 -1.872,0.36 -2.592,1.08 -0.72,0.72 -1.008,1.512 -1.008,2.52 v 33.552 c 0,4.104 1.44,7.56 4.32,10.44 2.88,2.88 6.336,4.32 10.44,4.32 1.008,0 1.8,-0.288 2.52,-1.008 0.72,-0.72 1.08,-1.584 1.08,-2.592 0,-1.008 -0.36,-1.8 -1.08,-2.52 -0.72,-0.72 -1.512,-1.08 -2.52,-1.08 z" transform="translate(0 281.6094194155893) translate(420.7191701883128 65.56976278496171) scale(1.1557067733662574) translate(-438.92506 -68.088)"></path> 
   <path id="path37236" style="font-style: normal; font-weight: 700; font-size: 72px; line-height: 1; font-family: &quot;Comfortaa Bold Alt2&quot;; font-variant-ligatures: none; text-align: center; text-anchor: middle; fill: rgb(65, 90, 99);" d="m 488.05719,79.536 c -6.048,0 -11.16,2.16 -15.48,6.408 -4.248,4.248 -6.336,9.36 -6.336,15.408 v 15.192 c 0,1.008 0.288,1.8 1.008,2.448 0.648,0.72 1.44,1.008 2.448,1.008 0.936,0 1.728,-0.288 2.376,-1.008 0.72,-0.648 1.08,-1.44 1.08,-2.448 v -15.192 c 0,-4.104 1.44,-7.632 4.32,-10.512 2.952,-2.952 6.48,-4.392 10.584,-4.392 0.936,0 1.728,-0.36 2.448,-1.008 0.648,-0.72 1.008,-1.512 1.008,-2.448 0,-0.936 -0.36,-1.8 -1.008,-2.448 -0.72,-0.648 -1.512,-1.008 -2.448,-1.008 z" transform="translate(0 281.6094194155893) translate(455.7557269715648 78.80029392645866) scale(1.1557067733662574) translate(-466.24119 -79.536)"></path> 
   <path id="path37238" style="font-style: normal; font-weight: 700; font-size: 72px; line-height: 1; font-family: &quot;Comfortaa Bold Alt2&quot;; font-variant-ligatures: none; text-align: center; text-anchor: middle; fill: rgb(65, 90, 99);" d="m 530.12431,86.232 c -3.888,-3.888 -8.568,-5.904 -14.112,-5.904 -5.472,0 -10.224,2.016 -14.112,5.904 -3.888,3.888 -5.832,8.568 -5.832,14.112 0,5.544 1.944,10.224 5.832,14.112 3.888,3.888 8.64,5.832 14.112,5.832 4.968,0 9.36,-1.584 13.104,-4.824 v 1.368 c 0,1.008 0.288,1.8 1.008,2.448 0.648,0.72 1.44,1.008 2.448,1.008 0.936,0 1.728,-0.288 2.448,-1.008 0.648,-0.648 1.008,-1.44 1.008,-2.448 v -16.488 c 0,-5.544 -1.944,-10.224 -5.904,-14.112 z m -14.112,27.144 c -3.6,0 -6.696,-1.224 -9.216,-3.816 -2.592,-2.52 -3.816,-5.616 -3.816,-9.216 0,-3.6 1.224,-6.696 3.816,-9.216 2.52,-2.592 5.616,-3.888 9.216,-3.888 3.6,0 6.696,1.296 9.216,3.888 2.592,2.52 3.888,5.616 3.888,9.216 0,3.6 -1.296,6.696 -3.888,9.216 -2.52,2.592 -5.616,3.816 -9.216,3.816 z" transform="translate(0 281.6094194155893) translate(493.6942519056717 79.71561369096472) scale(1.1557067733662574) translate(-496.06831 -80.328)"></path> 
   <path id="path37240" style="font-style: normal; font-weight: 700; font-size: 72px; line-height: 1; font-family: &quot;Comfortaa Bold Alt2&quot;; font-variant-ligatures: none; text-align: center; text-anchor: middle; fill: rgb(65, 90, 99);" d="m 563.37256,112.8 c -2.088,0 -3.888,-0.72 -5.328,-2.232 -1.512,-1.44 -2.232,-3.24 -2.232,-5.328 V 88.32 h 6.408 c 0.864,0 1.656,-0.288 2.304,-0.936 0.576,-0.576 0.936,-1.368 0.936,-2.304 0,-0.864 -0.36,-1.656 -0.936,-2.304 -0.648,-0.576 -1.44,-0.936 -2.304,-0.936 h -6.408 V 71.688 c 0,-1.008 -0.36,-1.8 -1.08,-2.52 -0.72,-0.72 -1.512,-1.08 -2.52,-1.08 -1.008,0 -1.872,0.36 -2.592,1.08 -0.72,0.72 -1.008,1.512 -1.008,2.52 v 33.552 c 0,4.104 1.44,7.56 4.32,10.44 2.88,2.88 6.336,4.32 10.44,4.32 1.008,0 1.8,-0.288 2.52,-1.008 0.72,-0.72 1.08,-1.584 1.08,-2.592 0,-1.008 -0.36,-1.8 -1.08,-2.52 -0.72,-0.72 -1.512,-1.08 -2.52,-1.08 z" transform="translate(0 281.6094194155893) translate(557.8871178522205 65.56976278496171) scale(1.1557067733662574) translate(-548.61256 -68.088)"></path> 
   <path id="path37242" style="font-style: normal; font-weight: 700; font-size: 72px; line-height: 1; font-family: &quot;Comfortaa Bold Alt2&quot;; font-variant-ligatures: none; text-align: center; text-anchor: middle; fill: rgb(65, 90, 99);" d="m 592.70469,120.288 c 4.752,0 8.928,-1.44 12.6,-4.464 0.792,-0.576 1.152,-1.368 1.296,-2.304 0.072,-1.008 -0.144,-1.8 -0.792,-2.592 -0.576,-0.72 -1.368,-1.152 -2.304,-1.224 -0.936,-0.072 -1.8,0.144 -2.52,0.792 -2.448,1.944 -5.184,2.88 -8.28,2.88 -3.6,0 -6.696,-1.224 -9.216,-3.816 -2.592,-2.52 -3.816,-5.616 -3.816,-9.216 0,-3.6 1.224,-6.696 3.816,-9.288 2.52,-2.52 5.616,-3.816 9.216,-3.816 2.952,0 5.616,0.936 7.992,2.736 2.304,1.8 3.816,4.104 4.608,6.912 h -12.6 c -0.936,0 -1.8,0.36 -2.448,1.008 -0.648,0.648 -1.008,1.512 -1.008,2.448 0,0.936 0.36,1.8 1.008,2.448 0.648,0.648 1.512,1.008 2.448,1.008 h 16.56 c 0.936,0 1.728,-0.36 2.376,-1.008 0.72,-0.648 1.08,-1.512 1.08,-2.448 0,-5.544 -2.016,-10.224 -5.904,-14.112 -3.888,-3.888 -8.568,-5.904 -14.112,-5.904 -5.544,0 -10.224,2.016 -14.112,5.904 -3.888,3.888 -5.832,8.568 -5.832,14.112 0,5.544 1.944,10.224 5.832,14.112 3.888,3.888 8.568,5.832 14.112,5.832 z" transform="translate(0 281.6094194155893) translate(589.262395577448 79.71561369096472) scale(1.1557067733662574) translate(-572.76069 -80.328)"></path> 
   <path id="path37244" style="font-style: normal; font-weight: 700; font-size: 72px; line-height: 1; font-family: &quot;Comfortaa Bold Alt2&quot;; font-variant-ligatures: none; text-align: center; text-anchor: middle; fill: rgb(65, 90, 99);" d="m 656.89719,100.272 c 0,-5.544 -2.016,-10.224 -5.904,-14.184 -3.96,-3.888 -8.64,-5.904 -14.184,-5.904 -5.544,0 -10.224,2.016 -14.184,5.904 -3.888,3.96 -5.832,8.64 -5.832,14.184 0,5.544 1.944,10.224 5.832,14.184 3.96,3.888 8.64,5.832 14.184,5.832 4.968,0 9.288,-1.584 13.104,-4.824 v 1.368 c 0,3.6 -1.296,6.696 -3.816,9.216 -2.592,2.592 -5.688,3.816 -9.288,3.816 -2.232,0 -4.32,-0.504 -6.264,-1.584 -1.944,-1.008 -3.528,-2.52 -4.68,-4.392 -0.576,-0.792 -1.296,-1.296 -2.232,-1.44 -0.936,-0.216 -1.8,-0.072 -2.592,0.432 -0.792,0.504 -1.296,1.224 -1.512,2.16 -0.216,0.936 0,1.8 0.504,2.592 1.224,1.944 2.736,3.6 4.464,4.968 1.728,1.368 3.672,2.376 5.76,3.096 2.088,0.72 4.32,1.08 6.552,1.08 5.544,0 10.224,-1.944 14.112,-5.832 3.888,-3.888 5.904,-8.568 5.904,-14.112 V 102 c 0,-0.576 0.072,-1.152 0.072,-1.728 z m -20.088,12.96 c -3.6,0 -6.624,-1.224 -9.144,-3.816 -2.592,-2.52 -3.816,-5.544 -3.816,-9.144 0,-3.6 1.224,-6.624 3.816,-9.216 2.52,-2.52 5.544,-3.816 9.144,-3.816 3.6,0 6.624,1.296 9.216,3.816 2.52,2.592 3.816,5.616 3.816,9.216 0,3.6 -1.296,6.624 -3.816,9.144 -2.592,2.592 -5.616,3.816 -9.216,3.816 z" transform="translate(0 281.6094194155893) translate(643.6181743957965 79.54919191559998) scale(1.1557067733662574) translate(-616.79319 -80.184)"></path> 
   <path id="path37246" style="font-style: normal; font-weight: 700; font-size: 72px; line-height: 1; font-family: &quot;Comfortaa Bold Alt2&quot;; font-variant-ligatures: none; text-align: center; text-anchor: middle; fill: rgb(65, 90, 99);" d="m 669.48144,81.624 c -0.72,0.72 -1.008,1.584 -1.008,2.664 v 32.04 c 0,1.08 0.288,1.944 1.008,2.664 0.72,0.72 1.584,1.008 2.664,1.008 1.08,0 1.944,-0.288 2.664,-1.008 0.648,-0.72 1.008,-1.584 1.008,-2.664 v -32.04 c 0,-1.08 -0.36,-1.944 -1.008,-2.664 -0.72,-0.648 -1.584,-1.008 -2.664,-1.008 -1.08,0 -1.944,0.36 -2.664,1.008 z m 5.976,-15.48 c -0.936,-0.936 -2.016,-1.44 -3.312,-1.44 -1.296,0 -2.448,0.504 -3.384,1.44 -0.936,0.936 -1.368,2.016 -1.368,3.312 0,1.296 0.432,2.448 1.368,3.384 0.936,0.936 2.088,1.368 3.384,1.368 1.296,0 2.376,-0.432 3.312,-1.368 0.936,-0.936 1.44,-2.088 1.44,-3.384 0,-1.296 -0.504,-2.376 -1.44,-3.312 z" transform="translate(0 281.6094194155893) translate(705.5643463749213 61.65885106389032) scale(1.1557067733662574) translate(-667.39344 -64.704)"></path> 
   <path id="path37248" style="font-style: normal; font-weight: 700; font-size: 72px; line-height: 1; font-family: &quot;Comfortaa Bold Alt2&quot;; font-variant-ligatures: none; text-align: center; text-anchor: middle; fill: rgb(65, 90, 99);" d="m 721.15831,86.808 c -3.744,-4.32 -8.496,-6.48 -14.112,-6.48 -3.744,0 -7.128,0.864 -10.08,2.592 -3.024,1.728 -5.328,4.104 -6.984,7.128 -1.656,3.024 -2.448,6.48 -2.448,10.296 0,3.744 0.792,7.2 2.52,10.224 1.728,3.024 4.104,5.4 7.128,7.128 3.024,1.728 6.408,2.592 10.224,2.592 5.184,0 9.504,-1.584 12.96,-4.824 0.576,-0.576 0.864,-1.224 0.864,-1.944 0,-0.936 -0.504,-1.8 -1.368,-2.592 -0.576,-0.432 -1.224,-0.648 -1.872,-0.648 -0.864,0 -1.8,0.36 -2.664,1.008 -2.016,1.728 -4.68,2.52 -7.92,2.52 -2.52,0 -4.752,-0.576 -6.696,-1.728 -1.944,-1.152 -3.456,-2.736 -4.536,-4.752 -1.08,-2.016 -1.584,-4.392 -1.584,-6.984 0,-4.032 1.152,-7.344 3.456,-9.792 2.304,-2.448 5.256,-3.744 9,-3.744 1.8,0 3.384,0.36 4.824,0.936 1.44,0.576 2.736,1.512 3.96,2.808 0.72,0.864 1.656,1.296 2.808,1.296 0.576,0 1.152,-0.144 1.656,-0.504 1.008,-0.72 1.584,-1.584 1.584,-2.664 0,-0.72 -0.288,-1.296 -0.72,-1.872 z" transform="translate(0 281.6094194155893) translate(732.3084065755094 79.71561369096472) scale(1.1557067733662574) translate(-687.53431 -80.328)"></path> 
  </g> 
  <g id="tagline" style="font-style:normal;font-weight:500;font-size:32px;line-height:1;font-family:Raleway;font-variant-ligatures:none;text-align:center;text-anchor:middle"></g> 
 </g> 
</svg>