<svg xmlns:dc="http://purl.org/dc/elements/1.1/" xmlns:cc="http://creativecommons.org/ns#" xmlns:rdf="http://www.w3.org/1999/02/22-rdf-syntax-ns#" xmlns:svg="http://www.w3.org/2000/svg" xmlns="http://www.w3.org/2000/svg" id="svg36588" viewbox="0 0 1024 768" height="768px" width="1024px" version="1.1"> <metadata id="metadata36594"> 
  <rdf:rdf> 
   <cc:work rdf:about=""> 
    <dc:format>
     image/svg+xml
    </dc:format> 
    <dc:type rdf:resource="http://purl.org/dc/dcmitype/StillImage"></dc:type> 
   </cc:work> 
  </rdf:rdf> 
 </metadata> <defs id="defs36592"></defs> <g id="logo-group"> 
  <g id="title" style="font-style:normal;font-weight:200;font-size:72px;line-height:1;font-family:Phenomena;font-variant-ligatures:none;text-align:center;text-anchor:middle" aria-label="O7Semiindependent"> 
   <path id="path36596" style="font-style: normal; font-weight: 200; font-size: 72px; line-height: 1; font-family: Phenomena; font-variant-ligatures: none; text-align: center; text-anchor: middle; fill: rgb(255, 255, 255);" d="m 297.00912,120.504 c 7.05601,0 11.59201,-4.896 11.59201,-13.248 v -24.84 c 0,-8.424 -4.536,-13.32 -11.59201,-13.32 -7.056,0 -11.592,4.896 -11.592,13.32 v 24.84 c 0,8.352 4.536,13.248 11.592,13.248 z m 0,-1.368 c -6.192,0 -10.152,-4.32 -10.152,-11.88 v -24.84 c 0,-7.632 3.96,-11.952 10.152,-11.952 6.192,0 10.152,4.32 10.152,11.952 v 24.84 c 0,7.56 -3.96,11.88 -10.152,11.88 z" transform="translate(0 286.99444260446967) translate(252.00000000000006 59.74735033417426) scale(1.1410696760185) translate(-285.41712 -69.096)"></path> 
   <path id="path36598" style="font-style: normal; font-weight: 200; font-size: 72px; line-height: 1; font-family: Phenomena; font-variant-ligatures: none; text-align: center; text-anchor: middle; fill: rgb(255, 255, 255);" d="m 315.17563,69.96 v 0.648 c 0,0.216 0.14399,0.36 0.35999,0.36 h 18 l -12.168,48.6 c -0.072,0.288 0.144,0.432 0.36,0.432 h 0.72001 c 0.216,0 0.288,-0.072 0.36,-0.288 l 12.23999,-48.816 c 0.072,-0.36 0.072,-0.576 0.072,-0.864 0,-0.288 -0.216,-0.432 -0.43199,-0.432 h -19.15201 c -0.216,0 -0.35999,0.144 -0.35999,0.36 z" transform="translate(0 286.99444260446967) translate(285.95653336449334 60.322449450887575) scale(1.1410696760185) translate(-315.17563 -69.6)"></path> 
   <path id="path36600" style="font-style: normal; font-weight: 200; font-size: 72px; line-height: 1; font-family: Phenomena; font-variant-ligatures: none; text-align: center; text-anchor: middle; fill: rgb(34, 156, 215);" d="m 352.80687,120.504 c 6.84001,0 11.16001,-4.968 11.16001,-11.232 0,-14.76 -20.59201,-16.056 -20.59201,-28.944 0,-6.12 4.03201,-9.864 9.432,-9.864 5.32801,0 9.216,3.744 9.36,10.152 0,0.216 0.144,0.36 0.36001,0.36 h 0.71999 c 0.216,0 0.36,-0.144 0.36,-0.36 0,-7.056 -4.752,-11.52 -10.8,-11.52 -6.264,0 -10.872,4.464 -10.872,11.232 0,13.968 20.59201,14.904 20.59201,28.944 0,5.544 -3.60001,9.864 -9.72001,9.864 -5.976,0 -9.64799,-4.32 -9.79199,-10.152 0,-0.216 -0.14401,-0.36 -0.36001,-0.36 h -0.72 c -0.21599,0 -0.35999,0.144 -0.35999,0.36 0,6.624 4.392,11.52 11.23199,11.52 z" transform="translate(0 286.99444260446967) translate(316.07991700912476 59.74735033417426) scale(1.1410696760185) translate(-341.57488 -69.096)"></path> 
   <path id="path36602" style="font-style: normal; font-weight: 200; font-size: 72px; line-height: 1; font-family: Phenomena; font-variant-ligatures: none; text-align: center; text-anchor: middle; fill: rgb(34, 156, 215);" d="m 381.4055,120.504 c 6.624,0 9.936,-4.608 10.08,-10.296 0,-0.144 -0.144,-0.288 -0.36,-0.288 h -0.648 c -0.216,0 -0.36,0.144 -0.36,0.36 -0.144,4.968 -2.88,8.928 -8.712,8.928 -5.76,0 -8.424,-4.176 -8.424,-9.504 v -5.472 h 7.2 c 7.848,0 11.592,-4.32 11.592,-10.152 0,-5.832 -4.176,-10.584 -10.08,-10.584 -6.12,0 -10.08,4.608 -10.08,10.872 v 15.336 c 0,6.048 3.168,10.8 9.792,10.8 z m -8.424,-17.568 v -8.568 c 0,-5.544 3.312,-9.576 8.712,-9.576 5.184,0 8.712,4.176 8.712,9.288 0,5.112 -3.024,8.856 -10.224,8.856 z" transform="translate(0 286.99444260446967) translate(350.3560754005676 76.17875366884067) scale(1.1410696760185) translate(-371.6135 -83.496)"></path> 
   <path id="path36604" style="font-style: normal; font-weight: 200; font-size: 72px; line-height: 1; font-family: Phenomena; font-variant-ligatures: none; text-align: center; text-anchor: middle; fill: rgb(34, 156, 215);" d="m 426.88587,83.496 c -4.176,0 -7.344,2.664 -8.64,6.48 -1.36799,-3.816 -4.46399,-6.48 -8.63999,-6.48 -6.12,0 -9.50401,4.752 -9.50401,10.728 v 25.416 c 0,0.216 0.144,0.36 0.36001,0.36 h 0.64799 c 0.216,0 0.36,-0.144 0.36,-0.36 V 94.224 c 0,-5.256 2.736,-9.432 8.13601,-9.432 4.67999,0 7.91999,4.176 7.91999,9.288 v 25.56 c 0,0.216 0.144,0.36 0.36,0.36 h 0.64801 c 0.21599,0 0.35999,-0.144 0.35999,-0.36 V 94.08 c 0,-5.112 3.24,-9.288 7.992,-9.288 5.32801,0 8.06401,4.176 8.06401,9.432 v 25.416 c 0,0.216 0.144,0.36 0.36,0.36 h 0.64799 c 0.216,0 0.36001,-0.144 0.36001,-0.36 V 94.224 c 0,-5.976 -3.38401,-10.728 -9.43201,-10.728 z" transform="translate(0 286.99444260446967) translate(382.86329052676274 76.17875366884067) scale(1.1410696760185) translate(-400.10187 -83.496)"></path> 
   <path id="path36606" style="font-style: normal; font-weight: 200; font-size: 72px; line-height: 1; font-family: Phenomena; font-variant-ligatures: none; text-align: center; text-anchor: middle; fill: rgb(34, 156, 215);" d="m 447.03237,77.88 c 0.936,0 1.584,-0.648 1.584,-1.584 0,-0.936 -0.648,-1.584 -1.584,-1.584 -0.93599,0 -1.584,0.648 -1.584,1.584 0,0.936 0.64801,1.584 1.584,1.584 z m -0.36,42.12 h 0.64801 c 0.216,0 0.36,-0.144 0.36,-0.36 V 84.36 c 0,-0.216 -0.144,-0.36 -0.36,-0.36 h -0.64801 c -0.216,0 -0.36,0.144 -0.36,0.36 v 35.28 c 0,0.216 0.144,0.36 0.36,0.36 z" transform="translate(0 286.99444260446967) translate(434.6068065903356 66.15559763469417) scale(1.1410696760185) translate(-445.44837 -74.712)"></path> 
   <path id="path36608" style="font-style: normal; font-weight: 200; font-size: 72px; line-height: 1; font-family: Phenomena; font-variant-ligatures: none; text-align: center; text-anchor: middle; fill: rgb(219, 77, 32);" d="m 459.40737,77.88 c 0.936,0 1.584,-0.648 1.584,-1.584 0,-0.936 -0.648,-1.584 -1.584,-1.584 -0.93599,0 -1.584,0.648 -1.584,1.584 0,0.936 0.64801,1.584 1.584,1.584 z m -0.36,42.12 h 0.64801 c 0.216,0 0.36,-0.144 0.36,-0.36 V 84.36 c 0,-0.216 -0.144,-0.36 -0.36,-0.36 h -0.64801 c -0.216,0 -0.36,0.144 -0.36,0.36 v 35.28 c 0,0.216 0.144,0.36 0.36,0.36 z" transform="translate(0 286.99444260446967) translate(448.72754383106457 66.15559763469417) scale(1.1410696760185) translate(-457.82337 -74.712)"></path> 
   <path id="path36610" style="font-style: normal; font-weight: 200; font-size: 72px; line-height: 1; font-family: Phenomena; font-variant-ligatures: none; text-align: center; text-anchor: middle; fill: rgb(219, 77, 32);" d="m 470.3525,120 h 0.648 c 0.216,0 0.36,-0.144 0.36,-0.36 V 95.016 c 0,-6.048 2.664,-10.224 8.424,-10.224 5.76,0 8.424,4.176 8.424,10.224 v 24.624 c 0,0.216 0.144,0.36 0.36,0.36 h 0.648 c 0.216,0 0.36,-0.144 0.36,-0.36 V 95.016 c 0,-6.768 -3.312,-11.52 -9.792,-11.52 -6.48,0 -9.792,4.752 -9.792,11.52 v 24.624 c 0,0.216 0.144,0.36 0.36,0.36 z" transform="translate(0 286.99444260446967) translate(462.61336905759157 76.17875366884067) scale(1.1410696760185) translate(-469.9925 -83.496)"></path> 
   <path id="path36612" style="font-style: normal; font-weight: 200; font-size: 72px; line-height: 1; font-family: Phenomena; font-variant-ligatures: none; text-align: center; text-anchor: middle; fill: rgb(219, 77, 32);" d="m 518.54525,69.6 h -0.648 c -0.216,0 -0.36,0.144 -0.36,0.36 v 19.512 c -1.512,-3.6 -5.112,-5.976 -8.856,-5.976 -5.688,0 -10.224,4.824 -10.224,10.8 v 15.408 c 0,5.976 4.536,10.8 10.224,10.8 5.688,0 10.224,-4.824 10.224,-10.8 V 69.96 c 0,-0.216 -0.144,-0.36 -0.36,-0.36 z m -1.008,40.104 c 0,5.256 -3.96,9.504 -8.856,9.504 -4.896,0 -8.856,-4.248 -8.856,-9.504 V 94.296 c 0,-5.256 3.96,-9.504 8.856,-9.504 4.896,0 8.856,4.248 8.856,9.504 z" transform="translate(0 286.99444260446967) translate(495.0936321180392 60.322449450887575) scale(1.1410696760185) translate(-498.45725 -69.6)"></path> 
   <path id="path36614" style="font-style: normal; font-weight: 200; font-size: 72px; line-height: 1; font-family: Phenomena; font-variant-ligatures: none; text-align: center; text-anchor: middle; fill: rgb(219, 77, 32);" d="m 537.49925,120.504 c 6.624,0 9.936,-4.608 10.08,-10.296 0,-0.144 -0.144,-0.288 -0.36,-0.288 h -0.648 c -0.216,0 -0.36,0.144 -0.36,0.36 -0.144,4.968 -2.88,8.928 -8.712,8.928 -5.76,0 -8.424,-4.176 -8.424,-9.504 v -5.472 h 7.2 c 7.848,0 11.592,-4.32 11.592,-10.152 0,-5.832 -4.176,-10.584 -10.08,-10.584 -6.12,0 -10.08,4.608 -10.08,10.872 v 15.336 c 0,6.048 3.168,10.8 9.792,10.8 z m -8.424,-17.568 v -8.568 c 0,-5.544 3.312,-9.576 8.712,-9.576 5.184,0 8.712,4.176 8.712,9.288 0,5.112 -3.024,8.856 -10.224,8.856 z" transform="translate(0 286.99444260446967) translate(528.4699201415804 76.17875366884067) scale(1.1410696760185) translate(-527.70725 -83.496)"></path> 
   <path id="path36616" style="font-style: normal; font-weight: 200; font-size: 72px; line-height: 1; font-family: Phenomena; font-variant-ligatures: none; text-align: center; text-anchor: middle; fill: rgb(219, 77, 32);" d="m 566.41962,83.496 c -5.832,0 -10.224,4.824 -10.224,10.8 v 39.744 c 0,0.216 0.144,0.36 0.36,0.36 h 0.648 c 0.216,0 0.36,-0.144 0.36,-0.36 v -19.512 c 1.512,3.6 4.968,5.976 8.856,5.976 5.832,0 10.22401,-4.824 10.22401,-10.8 V 94.296 c 0,-5.976 -4.39201,-10.8 -10.22401,-10.8 z m 8.856,26.208 c 0,5.256 -3.816,9.504 -8.856,9.504 -5.03999,0 -8.856,-4.248 -8.856,-9.504 V 94.296 c 0,-5.256 3.81601,-9.504 8.856,-9.504 5.04,0 8.856,4.248 8.856,9.504 z" transform="translate(0 286.99444260446967) translate(560.9771352677755 76.17875366884067) scale(1.1410696760185) translate(-556.19562 -83.496)"></path> 
   <path id="path36618" style="font-style: normal; font-weight: 200; font-size: 72px; line-height: 1; font-family: Phenomena; font-variant-ligatures: none; text-align: center; text-anchor: middle; fill: rgb(219, 77, 32);" d="m 594.73362,120.504 c 6.624,0 9.936,-4.608 10.08,-10.296 0,-0.144 -0.144,-0.288 -0.36,-0.288 h -0.648 c -0.216,0 -0.36,0.144 -0.36,0.36 -0.14399,4.968 -2.88,8.928 -8.712,8.928 -5.76,0 -8.424,-4.176 -8.424,-9.504 v -5.472 h 7.20001 c 7.84799,0 11.592,-4.32 11.592,-10.152 0,-5.832 -4.17601,-10.584 -10.08001,-10.584 -6.12,0 -10.07999,4.608 -10.07999,10.872 v 15.336 c 0,6.048 3.168,10.8 9.79199,10.8 z m -8.424,-17.568 v -8.568 c 0,-5.544 3.312,-9.576 8.712,-9.576 5.18401,0 8.712,4.176 8.712,9.288 0,5.112 -3.024,8.856 -10.22399,8.856 z" transform="translate(0 286.99444260446967) translate(593.7783355853002 76.17875366884067) scale(1.1410696760185) translate(-584.94163 -83.496)"></path> 
   <path id="path36620" style="font-style: normal; font-weight: 200; font-size: 72px; line-height: 1; font-family: Phenomena; font-variant-ligatures: none; text-align: center; text-anchor: middle; fill: rgb(219, 77, 32);" d="m 613.79,120 h 0.648 c 0.216,0 0.36,-0.144 0.36,-0.36 V 95.016 c 0,-6.048 2.664,-10.224 8.424,-10.224 5.76,0 8.424,4.176 8.424,10.224 v 24.624 c 0,0.216 0.144,0.36 0.36,0.36 h 0.648 c 0.216,0 0.36,-0.144 0.36,-0.36 V 95.016 c 0,-6.768 -3.312,-11.52 -9.792,-11.52 -6.48,0 -9.792,4.752 -9.792,11.52 v 24.624 c 0,0.216 0.144,0.36 0.36,0.36 z" transform="translate(0 286.99444260446967) translate(626.2855507114953 76.17875366884067) scale(1.1410696760185) translate(-613.43 -83.496)"></path> 
   <path id="path36622" style="font-style: normal; font-weight: 200; font-size: 72px; line-height: 1; font-family: Phenomena; font-variant-ligatures: none; text-align: center; text-anchor: middle; fill: rgb(219, 77, 32);" d="m 661.98275,69.6 h -0.648 c -0.216,0 -0.36,0.144 -0.36,0.36 v 19.512 c -1.512,-3.6 -5.112,-5.976 -8.856,-5.976 -5.688,0 -10.224,4.824 -10.224,10.8 v 15.408 c 0,5.976 4.536,10.8 10.224,10.8 5.688,0 10.224,-4.824 10.224,-10.8 V 69.96 c 0,-0.216 -0.144,-0.36 -0.36,-0.36 z m -1.008,40.104 c 0,5.256 -3.96,9.504 -8.856,9.504 -4.896,0 -8.856,-4.248 -8.856,-9.504 V 94.296 c 0,-5.256 3.96,-9.504 8.856,-9.504 4.896,0 8.856,4.248 8.856,9.504 z" transform="translate(0 286.99444260446967) translate(658.7658137719429 60.322449450887575) scale(1.1410696760185) translate(-641.89475 -69.6)"></path> 
   <path id="path36624" style="font-style: normal; font-weight: 200; font-size: 72px; line-height: 1; font-family: Phenomena; font-variant-ligatures: none; text-align: center; text-anchor: middle; fill: rgb(219, 77, 32);" d="m 680.93675,120.504 c 6.624,0 9.936,-4.608 10.08,-10.296 0,-0.144 -0.144,-0.288 -0.36,-0.288 h -0.648 c -0.216,0 -0.36,0.144 -0.36,0.36 -0.144,4.968 -2.88,8.928 -8.712,8.928 -5.76,0 -8.424,-4.176 -8.424,-9.504 v -5.472 h 7.2 c 7.848,0 11.592,-4.32 11.592,-10.152 0,-5.832 -4.176,-10.584 -10.08,-10.584 -6.12,0 -10.08,4.608 -10.08,10.872 v 15.336 c 0,6.048 3.168,10.8 9.792,10.8 z m -8.424,-17.568 v -8.568 c 0,-5.544 3.312,-9.576 8.712,-9.576 5.184,0 8.712,4.176 8.712,9.288 0,5.112 -3.024,8.856 -10.224,8.856 z" transform="translate(0 286.99444260446967) translate(692.1421017954841 76.17875366884067) scale(1.1410696760185) translate(-671.14475 -83.496)"></path> 
   <path id="path36626" style="font-style: normal; font-weight: 200; font-size: 72px; line-height: 1; font-family: Phenomena; font-variant-ligatures: none; text-align: center; text-anchor: middle; fill: rgb(219, 77, 32);" d="m 699.99312,120 h 0.648 c 0.216,0 0.36,-0.144 0.36,-0.36 V 95.016 c 0,-6.048 2.664,-10.224 8.424,-10.224 5.76,0 8.424,4.176 8.424,10.224 v 24.624 c 0,0.216 0.144,0.36 0.36,0.36 h 0.648 c 0.216,0 0.36,-0.144 0.36,-0.36 V 95.016 c 0,-6.768 -3.312,-11.52 -9.792,-11.52 -6.48,0 -9.792,4.752 -9.792,11.52 v 24.624 c 0,0.216 0.144,0.36 0.36,0.36 z" transform="translate(0 286.99444260446967) translate(724.6493169216792 76.17875366884067) scale(1.1410696760185) translate(-699.63312 -83.496)"></path> 
   <path id="path36628" style="font-style: normal; font-weight: 200; font-size: 72px; line-height: 1; font-family: Phenomena; font-variant-ligatures: none; text-align: center; text-anchor: middle; fill: rgb(219, 77, 32);" d="m 740.76987,118.848 h -1.00799 c -5.04001,0 -7.70401,-3.24 -7.70401,-9.36 V 85.296 h 8.06401 c 0.216,0 0.35999,-0.144 0.35999,-0.36 V 84.36 c 0,-0.216 -0.14399,-0.36 -0.35999,-0.36 h -8.06401 v -9.72 c 0,-0.216 -0.144,-0.36 -0.36,-0.36 h -0.64799 c -0.216,0 -0.36,0.144 -0.36,0.36 V 84 h -5.04001 c -0.216,0 -0.35999,0.144 -0.35999,0.36 v 0.576 c 0,0.216 0.14399,0.36 0.35999,0.36 h 5.04001 v 24.192 c 0,6.984 3.096,10.656 9.072,10.656 h 1.00799 c 0.216,0 0.36,-0.144 0.36,-0.36 v -0.576 c 0,-0.216 -0.144,-0.36 -0.36,-0.36 z" transform="translate(0 286.99444260446967) translate(753.9254677425637 65.25187045128752) scale(1.1410696760185) translate(-725.28988 -73.92)"></path> 
  </g> 
  <g id="tagline" style="font-style:oblique;font-weight:300;font-size:32px;line-height:1;font-family:'Fira Sans Condensed';font-variant-ligatures:none;text-align:center;text-anchor:middle"></g> 
 </g> 
</svg>