<svg xmlns:dc="http://purl.org/dc/elements/1.1/" xmlns:cc="http://creativecommons.org/ns#" xmlns:rdf="http://www.w3.org/1999/02/22-rdf-syntax-ns#" xmlns:svg="http://www.w3.org/2000/svg" xmlns="http://www.w3.org/2000/svg" id="svg608014" viewbox="0 0 1024 768" height="768px" width="1024px" version="1.1"> <metadata id="metadata608020"> 
  <rdf:rdf> 
   <cc:work rdf:about=""> 
    <dc:format>
     image/svg+xml
    </dc:format> 
    <dc:type rdf:resource="http://purl.org/dc/dcmitype/StillImage"></dc:type> 
   </cc:work> 
  </rdf:rdf> 
 </metadata> <defs id="defs608018"></defs> <g id="logo-group"> 
  <g id="title" style="font-style:normal;font-weight:200;font-size:72px;line-height:1;font-family:Phenomena;font-variant-ligatures:none;text-align:center;text-anchor:middle" aria-label="O7SMITH"> 
   <path id="path608022" style="font-style: normal; font-weight: 200; font-size: 72px; line-height: 1; font-family: Phenomena; font-variant-ligatures: none; text-align: center; text-anchor: middle; fill: rgb(214, 37, 49);" d="m 424.69662,120.504 c 7.05601,0 11.59201,-4.896 11.59201,-13.248 v -24.84 c 0,-8.424 -4.536,-13.32 -11.59201,-13.32 -7.056,0 -11.592,4.896 -11.592,13.32 v 24.84 c 0,8.352 4.536,13.248 11.592,13.248 z m 0,-1.368 c -6.192,0 -10.152,-4.32 -10.152,-11.88 v -24.84 c 0,-7.632 3.96,-11.952 10.152,-11.952 6.192,0 10.152,4.32 10.152,11.952 v 24.84 c 0,7.56 -3.96,11.88 -10.152,11.88 z" transform="translate(0 230.9008740274727) translate(252.0000000000001 106.41027029744458) scale(1.8164042824106257) translate(-413.10462 -69.096)"></path> 
   <path id="path608024" style="font-style: normal; font-weight: 200; font-size: 72px; line-height: 1; font-family: Phenomena; font-variant-ligatures: none; text-align: center; text-anchor: middle; fill: rgb(214, 37, 49);" d="m 442.86313,69.96 v 0.648 c 0,0.216 0.14399,0.36 0.35999,0.36 h 18 l -12.168,48.6 c -0.072,0.288 0.144,0.432 0.36,0.432 h 0.72001 c 0.216,0 0.288,-0.072 0.36,-0.288 l 12.23999,-48.816 c 0.072,-0.36 0.072,-0.576 0.072,-0.864 0,-0.288 -0.216,-0.432 -0.43199,-0.432 h -19.15201 c -0.216,0 -0.35999,0.144 -0.35999,0.36 z" transform="translate(0 230.9008740274727) translate(333.29954923831895 107.32573805577954) scale(1.8164042824106257) translate(-442.86313 -69.6)"></path> 
   <path id="path608026" style="font-style: normal; font-weight: 200; font-size: 72px; line-height: 1; font-family: Phenomena; font-variant-ligatures: none; text-align: center; text-anchor: middle; fill: rgb(240, 242, 240);" d="m 480.49437,120.504 c 6.84001,0 11.16001,-4.968 11.16001,-11.232 0,-14.76 -20.59201,-16.056 -20.59201,-28.944 0,-6.12 4.03201,-9.864 9.432,-9.864 5.32801,0 9.216,3.744 9.36,10.152 0,0.216 0.144,0.36 0.36001,0.36 h 0.71999 c 0.216,0 0.36,-0.144 0.36,-0.36 0,-7.056 -4.752,-11.52 -10.8,-11.52 -6.264,0 -10.872,4.464 -10.872,11.232 0,13.968 20.59201,14.904 20.59201,28.944 0,5.544 -3.60001,9.864 -9.72001,9.864 -5.976,0 -9.64799,-4.32 -9.79199,-10.152 0,-0.216 -0.14401,-0.36 -0.36001,-0.36 h -0.72 c -0.21599,0 -0.35999,0.144 -0.35999,0.36 0,6.624 4.392,11.52 11.23199,11.52 z" transform="translate(0 230.9008740274727) translate(408.49732422690704 106.41027029744458) scale(1.8164042824106257) translate(-469.26238 -69.096)"></path> 
   <path id="path608028" style="font-style: normal; font-weight: 200; font-size: 72px; line-height: 1; font-family: Phenomena; font-variant-ligatures: none; text-align: center; text-anchor: middle; fill: rgb(240, 242, 240);" d="m 529.037,69.096 c -4.392,0 -7.848,3.096 -9.288,7.344 -1.44,-4.248 -4.968,-7.344 -9.288,-7.344 -6.336,0 -10.152,5.184 -10.152,11.88 v 38.664 c 0,0.216 0.144,0.36 0.36,0.36 h 0.72 c 0.216,0 0.36,-0.144 0.36,-0.36 V 80.976 c 0,-6.048 3.24,-10.512 8.712,-10.512 5.04,0 8.568,4.68 8.568,10.512 v 38.664 c 0,0.216 0.144,0.36 0.36,0.36 h 0.72 c 0.216,0 0.36,-0.144 0.36,-0.36 V 80.976 c 0,-5.832 3.6,-10.512 8.568,-10.512 5.544,0 8.712,4.464 8.712,10.512 v 38.664 c 0,0.216 0.144,0.36 0.36,0.36 h 0.72 c 0.216,0 0.36,-0.144 0.36,-0.36 V 80.976 c 0,-6.696 -3.888,-11.88 -10.152,-11.88 z" transform="translate(0 230.9008740274727) translate(492.13660198544187 106.41027029744458) scale(1.8164042824106257) translate(-500.309 -69.096)"></path> 
   <path id="path608030" style="font-style: normal; font-weight: 200; font-size: 72px; line-height: 1; font-family: Phenomena; font-variant-ligatures: none; text-align: center; text-anchor: middle; fill: rgb(240, 242, 240);" d="m 550.24775,69.96 v 49.68 c 0,0.216 0.144,0.36 0.36,0.36 h 0.72 c 0.216,0 0.36,-0.144 0.36,-0.36 V 69.96 c 0,-0.216 -0.144,-0.36 -0.36,-0.36 h -0.72 c -0.216,0 -0.36,0.144 -0.36,0.36 z" transform="translate(0 230.9008740274727) translate(610.0916255798347 107.32573805577954) scale(1.8164042824106257) translate(-550.24775 -69.6)"></path> 
   <path id="path608032" style="font-style: normal; font-weight: 200; font-size: 72px; line-height: 1; font-family: Phenomena; font-variant-ligatures: none; text-align: center; text-anchor: middle; fill: rgb(240, 242, 240);" d="m 579.8375,69.6 h -20.88 c -0.216,0 -0.36,0.144 -0.36,0.36 v 0.648 c 0,0.216 0.144,0.36 0.36,0.36 h 9.72 v 48.672 c 0,0.216 0.144,0.36 0.36,0.36 h 0.72 c 0.216,0 0.36,-0.144 0.36,-0.36 V 70.968 h 9.72 c 0.216,0 0.36,-0.144 0.36,-0.36 V 69.96 c 0,-0.216 -0.144,-0.36 -0.36,-0.36 z" transform="translate(0 230.9008740274727) translate(652.5042114730521 107.32573805577954) scale(1.8164042824106257) translate(-558.5975 -69.6)"></path> 
   <path id="path608034" style="font-style: normal; font-weight: 200; font-size: 72px; line-height: 1; font-family: Phenomena; font-variant-ligatures: none; text-align: center; text-anchor: middle; fill: rgb(240, 242, 240);" d="m 607.9445,69.96 v 23.688 h -18.288 V 69.96 c 0,-0.216 -0.144,-0.36 -0.36,-0.36 h -0.72 c -0.216,0 -0.36,0.144 -0.36,0.36 v 49.68 c 0,0.216 0.144,0.36 0.36,0.36 h 0.72 c 0.216,0 0.36,-0.144 0.36,-0.36 V 95.016 h 18.288 v 24.624 c 0,0.216 0.144,0.36 0.36,0.36 h 0.72 c 0.216,0 0.36,-0.144 0.36,-0.36 V 69.96 c 0,-0.216 -0.144,-0.36 -0.36,-0.36 h -0.72 c -0.216,0 -0.36,0.144 -0.36,0.36 z" transform="translate(0 230.9008740274727) translate(733.5503541499319 107.32573805577954) scale(1.8164042824106257) translate(-588.2165 -69.6)"></path> 
  </g> 
  <g id="tagline" style="font-style:oblique;font-weight:300;font-size:32px;line-height:1;font-family:'Fira Sans Condensed';font-variant-ligatures:none;text-align:center;text-anchor:middle"></g> 
 </g> 
</svg>