<svg xmlns:dc="http://purl.org/dc/elements/1.1/" xmlns:cc="http://creativecommons.org/ns#" xmlns:rdf="http://www.w3.org/1999/02/22-rdf-syntax-ns#" xmlns:svg="http://www.w3.org/2000/svg" xmlns="http://www.w3.org/2000/svg" id="svg334188" viewbox="0 0 1024 768" height="768px" width="1024px" version="1.1"> <metadata id="metadata334194"> 
  <rdf:rdf> 
   <cc:work rdf:about=""> 
    <dc:format>
     image/svg+xml
    </dc:format> 
    <dc:type rdf:resource="http://purl.org/dc/dcmitype/StillImage"></dc:type> 
   </cc:work> 
  </rdf:rdf> 
 </metadata> <defs id="defs334192"></defs> <g id="logo-group"> 
  <g id="title" style="font-style:normal;font-weight:700;font-size:72px;line-height:1;font-family:Jura;font-variant-ligatures:none;text-align:center;text-anchor:middle" aria-label="O7SEACH"> 
   <path id="path334196" style="font-style: normal; font-weight: 700; font-size: 72px; line-height: 1; font-family: Jura; font-variant-ligatures: none; text-align: center; text-anchor: middle; fill: rgb(21, 21, 21);" d="m 366.47394,120 q -8.28,0 -12.24,-3.888 -3.888,-3.96 -3.888,-12.24 V 87.24 q 0,-8.28 3.96,-12.168 3.96,-3.96 12.168,-3.888 h 8.64 q 8.28,0 12.168,3.96 3.96,3.888 3.96,12.168 v 16.56 q 0,8.28 -3.96,12.24 -3.888,3.888 -12.168,3.888 z m 8.64,-6.048 q 3.96,0 6.048,-0.936 2.16,-0.936 3.096,-3.024 0.936,-2.16 0.936,-6.12 v -16.56 q 0,-3.888 -0.936,-6.048 -0.936,-2.16 -3.096,-3.096 -2.16,-0.936 -6.048,-0.936 h -8.64 q -3.888,-0.072 -6.048,0.864 -2.16,0.936 -3.096,3.096 -0.936,2.16 -0.936,6.048 v 16.632 q 0,3.96 0.936,6.12 0.936,2.088 3.024,3.024 2.16,0.936 6.12,0.936 z" transform="translate(0 268.62363257142863) translate(217.97321428571433 80.50687742857141) scale(1.4285714285714286) translate(-350.34594 -71.182714)"></path> 
   <path id="path334198" style="font-style: normal; font-weight: 700; font-size: 72px; line-height: 1; font-family: Jura; font-variant-ligatures: none; text-align: center; text-anchor: middle; fill: rgb(21, 21, 21);" d="m 408.33856,120 q -1.44,0 -2.232,-0.792 -0.792,-0.792 -0.72,-2.376 0.144,-7.416 1.224,-11.952 1.08,-4.536 3.312,-7.56 2.232,-3.024 6.336,-5.904 3.312,-2.592 4.968,-5.904 1.656,-3.384 1.944,-8.28 h -22.752 q -1.44,0 -2.232,-0.792 -0.792,-0.792 -0.792,-2.232 0,-1.44 0.792,-2.232 0.792,-0.792 2.232,-0.792 h 25.848 q 1.44,0 2.232,0.792 0.792,0.792 0.792,2.232 0,7.704 -2.304,13.032 -2.232,5.328 -7.2,9.072 -3.312,2.304 -5.04,4.68 -1.656,2.376 -2.448,6.048 -0.72,3.6 -0.864,9.792 -0.144,3.168 -3.096,3.168 z" transform="translate(0 268.62363257142863) translate(306.61410000000006 80.50871457142856) scale(1.4285714285714286) translate(-397.39456 -71.184)"></path> 
   <path id="path334200" style="font-style: normal; font-weight: 700; font-size: 72px; line-height: 1; font-family: Jura; font-variant-ligatures: none; text-align: center; text-anchor: middle; fill: rgb(194, 117, 133);" d="m 452.13256,120 q -6.192,0 -9.648,-2.448 -3.384,-2.52 -4.248,-7.704 -0.144,-1.512 0.648,-2.304 0.792,-0.864 2.304,-0.864 1.44,0 2.16,0.72 0.72,0.648 1.008,2.232 0.504,2.448 2.232,3.384 1.8,0.936 5.544,0.936 h 10.368 q 3.168,0 4.824,-0.72 1.728,-0.72 2.448,-2.376 0.72,-1.728 0.72,-4.824 0,-4.608 -1.728,-6.336 -1.728,-1.728 -6.264,-1.728 h -8.928 q -6.768,0 -10.08,-3.312 -3.312,-3.312 -3.312,-10.152 0,-6.768 3.24,-10.008 3.312,-3.312 10.08,-3.312 h 8.568 q 11.376,0 13.104,9.504 0.216,1.512 -0.576,2.376 -0.792,0.792 -2.376,0.792 -1.44,0 -2.16,-0.72 -0.72,-0.72 -0.936,-2.232 -0.576,-2.088 -2.16,-2.88 -1.584,-0.792 -4.896,-0.792 h -8.568 q -2.952,0 -4.536,0.648 -1.512,0.648 -2.16,2.232 -0.576,1.512 -0.576,4.392 0,2.952 0.648,4.536 0.648,1.512 2.16,2.232 1.584,0.648 4.536,0.648 h 8.928 q 7.128,0 10.584,3.456 3.456,3.456 3.456,10.656 0,7.128 -3.456,10.584 -3.456,3.384 -10.584,3.384 z" transform="translate(0 268.62363257142863) translate(386.3567428571429 80.50871457142856) scale(1.4285714285714286) translate(-438.21441 -71.184)"></path> 
   <path id="path334202" style="font-style: normal; font-weight: 700; font-size: 72px; line-height: 1; font-family: Jura; font-variant-ligatures: none; text-align: center; text-anchor: middle; fill: rgb(194, 117, 133);" d="m 518.61781,113.952 q 1.44,0 2.232,0.792 0.792,0.792 0.792,2.232 0,1.44 -0.792,2.232 -0.792,0.792 -2.232,0.792 h -25.848 q -1.44,0 -2.232,-0.792 -0.792,-0.792 -0.792,-2.232 V 74.208 q 0,-1.44 0.792,-2.232 0.792,-0.792 2.232,-0.792 h 25.848 q 1.44,0 2.232,0.792 0.792,0.792 0.792,2.232 0,1.44 -0.792,2.232 -0.792,0.792 -2.232,0.792 h -22.824 v 15.12 h 14.328 q 1.44,0 2.232,0.792 0.792,0.792 0.792,2.232 0,1.44 -0.792,2.232 -0.792,0.792 -2.232,0.792 h -14.328 v 15.552 z" transform="translate(0 268.62363257142863) translate(481.40160000000003 80.50871457142856) scale(1.4285714285714286) translate(-489.74581 -71.184)"></path> 
   <path id="path334204" style="font-style: normal; font-weight: 700; font-size: 72px; line-height: 1; font-family: Jura; font-variant-ligatures: none; text-align: center; text-anchor: middle; fill: rgb(194, 117, 133);" d="m 570.42294,115.752 q 0.288,0.648 0.288,1.44 0,1.728 -1.944,2.52 -0.648,0.288 -1.44,0.288 -1.728,0 -2.52,-1.944 l -3.888,-9.432 h -22.392 l -3.744,9.432 q -0.792,1.944 -2.52,1.944 -0.72,0 -1.368,-0.288 -2.016,-0.72 -2.016,-2.52 0,-0.792 0.288,-1.44 l 17.136,-42.192 q 1.08,-2.376 3.384,-2.376 h 0.144 q 2.376,0.144 3.168,2.376 z m -29.52,-13.176 h 17.568 l -9,-21.816 z" transform="translate(0 268.62363257142863) translate(558.7346428571428 80.50871457142856) scale(1.4285714285714286) translate(-528.87894 -71.184)"></path> 
   <path id="path334206" style="font-style: normal; font-weight: 700; font-size: 72px; line-height: 1; font-family: Jura; font-variant-ligatures: none; text-align: center; text-anchor: middle; fill: rgb(194, 117, 133);" d="m 594.84894,120 q -8.28,0 -12.24,-3.888 -3.888,-3.96 -3.888,-12.24 v -16.56 q 0,-8.28 3.888,-12.24 3.96,-3.96 12.168,-3.888 h 8.712 q 6.768,0 10.296,2.808 3.6,2.808 4.176,8.784 0.216,1.512 -0.576,2.304 -0.792,0.792 -2.304,0.792 -1.44,0 -2.232,-0.72 -0.72,-0.792 -0.936,-2.304 -0.36,-3.24 -2.232,-4.392 -1.872,-1.224 -6.192,-1.224 h -8.712 q -3.888,-0.072 -6.048,0.864 -2.16,0.936 -3.096,3.096 -0.864,2.16 -0.864,6.12 v 16.56 q 0,3.96 0.936,6.12 0.936,2.088 3.024,3.024 2.16,0.936 6.12,0.936 h 8.64 q 4.32,0 6.192,-1.152 1.872,-1.224 2.232,-4.464 0.216,-1.512 0.936,-2.232 0.792,-0.792 2.232,-0.792 1.512,0 2.304,0.792 0.792,0.792 0.576,2.304 -0.576,5.976 -4.176,8.784 -3.528,2.808 -10.296,2.808 z" transform="translate(0 268.62363257142863) translate(651.3660714285716 80.50687742857141) scale(1.4285714285714286) translate(-578.72094 -71.182714)"></path> 
   <path id="path334208" style="font-style: normal; font-weight: 700; font-size: 72px; line-height: 1; font-family: Jura; font-variant-ligatures: none; text-align: center; text-anchor: middle; fill: rgb(194, 117, 133);" d="m 633.53544,120 q -1.152,0 -2.088,-0.936 -0.936,-0.936 -0.936,-2.088 V 74.208 q 0,-1.224 0.936,-2.088 0.936,-0.936 2.088,-0.936 1.224,0 2.088,0.936 0.936,0.864 0.936,2.088 V 92.28 h 29.376 V 74.208 q 0,-1.224 0.864,-2.088 0.936,-0.936 2.16,-0.936 1.224,0 2.088,0.936 0.936,0.864 0.936,2.088 v 42.768 q 0,1.152 -0.936,2.088 -0.864,0.936 -2.088,0.936 -1.224,0 -2.16,-0.864 -0.864,-0.936 -0.864,-2.16 V 98.328 h -29.376 v 18.648 q 0,1.152 -0.936,2.088 -0.864,0.936 -2.088,0.936 z" transform="translate(0 268.62363257142863) translate(746.7810714285714 80.50871457142856) scale(1.4285714285714286) translate(-630.51144 -71.184)"></path> 
  </g> 
  <g id="tagline" style="font-style:normal;font-weight:500;font-size:32px;line-height:1;font-family:Roboto;font-variant-ligatures:none;text-align:center;text-anchor:middle"></g> 
 </g> 
</svg>