<svg xmlns:dc="http://purl.org/dc/elements/1.1/" xmlns:cc="http://creativecommons.org/ns#" xmlns:rdf="http://www.w3.org/1999/02/22-rdf-syntax-ns#" xmlns:svg="http://www.w3.org/2000/svg" xmlns="http://www.w3.org/2000/svg" id="svg29052" viewbox="0 0 1024 768" height="768px" width="1024px" version="1.1"> <metadata id="metadata29058"> 
  <rdf:rdf> 
   <cc:work rdf:about=""> 
    <dc:format>
     image/svg+xml
    </dc:format> 
    <dc:type rdf:resource="http://purl.org/dc/dcmitype/StillImage"></dc:type> 
   </cc:work> 
  </rdf:rdf> 
 </metadata> <defs id="defs29056"></defs> <g id="logo-group"> 
  <g id="title" style="font-style:normal;font-weight:200;font-size:72px;line-height:1;font-family:Montserrat;font-variant-ligatures:none;text-align:center;text-anchor:middle" aria-label="o7Style"> 
   <path id="path29060" style="font-style: normal; font-weight: 200; font-size: 72px; line-height: 1; font-family: Montserrat; font-variant-ligatures: none; text-align: center; text-anchor: middle; fill: rgb(255, 255, 255);" d="m 411.05037,82.776 q 5.112,0 9.216,2.376 4.176,2.376 6.48,6.624 2.37601,4.248 2.37601,9.576 0,5.328 -2.37601,9.576 -2.304,4.248 -6.48,6.696 -4.104,2.376 -9.216,2.376 -5.112,0 -9.28799,-2.376 -4.10401,-2.448 -6.48001,-6.696 -2.30399,-4.248 -2.30399,-9.576 0,-5.328 2.30399,-9.576 2.376,-4.248 6.48001,-6.624 4.17599,-2.376 9.28799,-2.376 z m 0,1.44 q -4.75199,0 -8.568,2.232 -3.81599,2.16 -5.976,6.048 -2.08799,3.888 -2.08799,8.856 0,4.968 2.08799,8.928 2.16001,3.888 5.976,6.12 3.81601,2.16 8.568,2.16 4.752,0 8.56801,-2.16 3.81599,-2.232 5.90399,-6.12 2.16,-3.96 2.16,-8.928 0,-4.968 -2.16,-8.856 -2.088,-3.888 -5.90399,-6.048 -3.81601,-2.232 -8.56801,-2.232 z" transform="translate(0 241.73918222816795) translate(251.99999999999994 114.54611213380775) scale(1.5840595357809963) translate(-392.97838 -82.776)"></path> 
   <path id="path29062" style="font-style: normal; font-weight: 200; font-size: 72px; line-height: 1; font-family: Montserrat; font-variant-ligatures: none; text-align: center; text-anchor: middle; fill: rgb(255, 255, 255);" d="m 435.42012,69.672 h 35.49601 v 1.8 L 446.29212,120 h -1.584 l 24.91201,-48.888 h -32.76001 v 8.064 h -1.44 z" transform="translate(0 241.73918222816795) translate(342.99113599885254 93.78859597693358) scale(1.5840595357809963) translate(-435.42012 -69.672)"></path> 
   <path id="path29064" style="font-style: normal; font-weight: 200; font-size: 72px; line-height: 1; font-family: Montserrat; font-variant-ligatures: none; text-align: center; text-anchor: middle; fill: rgb(88, 88, 56);" d="m 507.18162,74.208 q -2.44799,-1.584 -5.904,-2.448 -3.384,-0.936 -6.76799,-0.936 -6.62401,0 -10.656,2.736 -3.96001,2.664 -3.96001,7.128 0,3.888 1.944,6.264 1.94401,2.376 4.752,3.672 2.88,1.224 7.77601,2.736 5.18399,1.584 8.27999,3.024 3.096,1.368 5.18401,4.104 2.15999,2.736 2.15999,7.2 0,3.744 -2.088,6.624 -2.088,2.808 -5.97599,4.392 -3.81601,1.512 -9,1.512 -4.752,0 -9.43201,-1.944 -4.608,-1.944 -7.776,-5.184 l 1.008,-1.008 q 2.88,3.096 7.272,4.896 4.39201,1.8 8.92801,1.8 7.12799,0 11.37599,-3.024 4.248,-3.024 4.248,-8.064 0,-3.96 -2.01599,-6.336 -1.94401,-2.448 -4.824,-3.744 -2.88,-1.368 -7.84801,-2.88 -5.112,-1.584 -8.208,-2.952 -3.024,-1.44 -5.112,-4.104 -2.088,-2.664 -2.088,-7.056 0,-5.112 4.392,-8.136 4.392,-3.096 11.66401,-3.096 3.52799,0 7.128,1.008 3.67199,1.008 6.26399,2.664 z" transform="translate(0 241.73918222816795) translate(430.5856681787022 93.33238683062868) scale(1.5840595357809963) translate(-475.71762 -69.384)"></path> 
   <path id="path29066" style="font-style: normal; font-weight: 200; font-size: 72px; line-height: 1; font-family: Montserrat; font-variant-ligatures: none; text-align: center; text-anchor: middle; fill: rgb(88, 88, 56);" d="m 539.85163,117.336 q -3.60001,2.664 -7.48801,2.664 -3.81599,0 -5.832,-2.592 -1.944,-2.592 -1.944,-7.632 v -24.84 h -5.47199 v -1.44 h 5.47199 V 74.64 h 1.44 v 8.856 h 13.104 v 1.44 h -13.104 v 24.84 q 0,4.32 1.584,6.552 1.656,2.232 4.752,2.232 3.6,0 6.624,-2.376 z" transform="translate(0 241.73918222816795) translate(523.0915927898361 101.65820375069356) scale(1.5840595357809963) translate(-519.11563 -74.64)"></path> 
   <path id="path29068" style="font-style: normal; font-weight: 200; font-size: 72px; line-height: 1; font-family: Montserrat; font-variant-ligatures: none; text-align: center; text-anchor: middle; fill: rgb(88, 88, 56);" d="m 556.93925,125.4 q -1.728,4.176 -4.248,6.336 -2.52,2.232 -5.472,2.232 -3.96,0 -6.624,-1.872 l 0.648,-1.224 q 2.448,1.656 5.832,1.656 2.736,0 4.968,-2.016 2.304,-1.944 3.744,-5.616 l 1.872,-4.752 -15.408,-37.368 h 1.656 l 14.472,35.568 14.256,-35.568 h 1.728 z" transform="translate(0 241.73918222816795) translate(580.8774827125033 114.54611213380775) scale(1.5840595357809963) translate(-540.59525 -82.776)"></path> 
   <path id="path29070" style="font-style: normal; font-weight: 200; font-size: 72px; line-height: 1; font-family: Montserrat; font-variant-ligatures: none; text-align: center; text-anchor: middle; fill: rgb(88, 88, 56);" d="m 582.57687,66.576 h 1.44001 V 120 h -1.44001 z" transform="translate(0 241.73918222816795) translate(671.1397612377524 88.88434765415562) scale(1.5840595357809963) translate(-582.57687 -66.576)"></path> 
   <path id="path29072" style="font-style: normal; font-weight: 200; font-size: 72px; line-height: 1; font-family: Montserrat; font-variant-ligatures: none; text-align: center; text-anchor: middle; fill: rgb(88, 88, 56);" d="m 613.96888,118.56 q 4.03199,0 7.41599,-1.368 3.456,-1.44 5.76,-4.032 l 1.008,1.008 q -2.592,2.808 -6.264,4.32 -3.672,1.512 -7.91999,1.512 -5.11201,0 -9.216,-2.376 -4.03201,-2.448 -6.40801,-6.696 -2.30399,-4.248 -2.30399,-9.576 0,-5.328 2.30399,-9.576 2.376,-4.248 6.40801,-6.624 4.10399,-2.376 9.216,-2.376 5.11199,0 9,2.376 3.95999,2.376 6.12,6.624 2.15999,4.248 2.15999,9.576 h -33.768 q 0,4.968 2.08801,8.928 2.16,3.888 5.904,6.12 3.74399,2.16 8.496,2.16 z m 0,-34.344 q -4.53601,0 -8.208,2.016 -3.6,1.944 -5.76001,5.544 -2.16,3.528 -2.448,8.136 h 32.256 q -0.50399,-7.056 -4.752,-11.376 -4.248,-4.32 -11.08799,-4.32 z" transform="translate(0 241.73918222816795) translate(716.228447704818 114.54611213380775) scale(1.5840595357809963) translate(-596.04088 -82.776)"></path> 
  </g> 
  <g id="tagline" style="font-style:normal;font-weight:400;font-size:32px;line-height:1;font-family:Montserrat;font-variant-ligatures:none;text-align:center;text-anchor:middle"></g> 
 </g> 
</svg>