<svg xmlns:dc="http://purl.org/dc/elements/1.1/" xmlns:cc="http://creativecommons.org/ns#" xmlns:rdf="http://www.w3.org/1999/02/22-rdf-syntax-ns#" xmlns:svg="http://www.w3.org/2000/svg" xmlns="http://www.w3.org/2000/svg" id="svg5776" viewbox="0 0 1024 768" height="768px" width="1024px" version="1.1"> <metadata id="metadata5782"> 
  <rdf:rdf> 
   <cc:work rdf:about=""> 
    <dc:format>
     image/svg+xml
    </dc:format> 
    <dc:type rdf:resource="http://purl.org/dc/dcmitype/StillImage"></dc:type> 
   </cc:work> 
  </rdf:rdf> 
 </metadata> <defs id="defs5780"></defs> <g id="logo-group"> 
  <g id="title" style="font-style:normal;font-weight:400;font-size:72px;line-height:1;font-family:'Abril Fatface';font-variant-ligatures:none;text-align:center;text-anchor:middle" aria-label="O7SWITCHED"> 
   <path id="path5784" style="font-style: normal; font-weight: 400; font-size: 72px; line-height: 1; font-family: &quot;Abril Fatface&quot;; font-variant-ligatures: none; text-align: center; text-anchor: middle; fill: rgb(189, 195, 194);" d="m 308.30637,97.752 v -5.328 q 0,-13.176 -1.296,-16.632 -1.43999,-3.96 -4.10399,-4.896 -1.512,-0.576 -3.67201,-0.576 -2.15999,0 -3.744,0.576 -1.51199,0.576 -2.52,2.016 -1.008,1.44 -1.656,3.024 -0.57599,1.584 -0.936,4.464 -0.432,4.176 -0.432,12.312 v 5.184 q 0,8.784 0.64801,12.528 0.71999,3.672 1.728,5.256 2.23199,3.528 6.91199,3.528 5.688,0 7.344,-4.752 1.728,-4.824 1.728,-16.704 z m -9.216,22.968 q -12.024,0 -18,-6.48 -5.904,-6.552 -5.904,-18.864 0,-12.384 6.336,-19.44 6.40801,-7.128 18.07201,-7.128 11.66399,0 17.56799,6.768 5.976,6.696 5.976,19.08 0,12.384 -6.048,19.224 -5.976,6.84 -18,6.84 z" transform="translate(0 298.75208273679124) translate(251.99999999999994 56.74684735814094) scale(1.0980532402938747) translate(-275.18637 -68.808)"></path> 
   <path id="path5786" style="font-style: normal; font-weight: 400; font-size: 72px; line-height: 1; font-family: &quot;Abril Fatface&quot;; font-variant-ligatures: none; text-align: center; text-anchor: middle; fill: rgb(189, 195, 194);" d="m 343.01375,120.72 q -3.888,0 -6.12,-2.088 -2.232,-2.16 -2.232,-5.256 0,-3.168 2.088,-6.912 2.16,-3.816 9.288,-12.096 l 11.88,-13.752 h -18.432 q -5.112,0 -6.768,1.296 -1.584,1.224 -2.52,5.976 h -1.152 l 0.792,-18.288 h 32.256 v 7.776 l -7.992,13.968 q -5.328,9.432 -6.84,13.536 -1.44,4.032 -1.44,7.704 0,3.672 2.16,6.768 l -0.504,0.864 q -2.016,0.504 -4.464,0.504 z" transform="translate(0 298.75208273679124) translate(311.14046672921904 57.61650552445367) scale(1.0980532402938747) translate(-329.04575 -69.6)"></path> 
   <path id="path5788" style="font-style: normal; font-weight: 400; font-size: 72px; line-height: 1; font-family: &quot;Abril Fatface&quot;; font-variant-ligatures: none; text-align: center; text-anchor: middle; fill: rgb(90, 98, 101);" d="m 386.19687,119.208 q 3.6,0 6.336,-1.944 2.808,-1.944 2.808,-5.832 0,-3.96 -3.024,-6.048 -2.952,-2.088 -8.496,-3.6 -5.47199,-1.584 -7.992,-2.736 -2.448,-1.152 -4.68,-3.024 -4.464,-3.744 -4.464,-11.592 0,-6.408 4.536,-11.016 4.608,-4.608 12.528,-4.608 3.81601,0 7.92001,1.152 4.17599,1.08 5.18399,1.08 1.00801,0 1.8,-1.44 h 0.79201 l 0.50399,14.544 h -1.152 q -3.456,-6.264 -7.272,-10.008 -3.744,-3.816 -8.208,-3.816 -4.392,0 -6.84,2.088 -2.448,2.016 -2.448,5.472 0,3.384 2.88001,5.256 2.952,1.8 7.19999,2.952 4.248,1.152 5.544,1.584 1.368,0.432 3.312,1.224 2.016,0.72 3.24001,1.584 1.29599,0.792 2.66399,2.088 1.44,1.224 2.232,2.736 1.944,3.456 1.944,8.208 0,7.776 -4.896,12.528 -4.82399,4.68 -12.744,4.68 -4.10399,0 -9.432,-1.08 -5.25599,-1.08 -5.832,-1.08 -1.00799,0 -1.944,2.16 h -1.008 l -0.71999,-17.136 h 1.224 q 3.168,6.264 8.06399,10.944 4.968,4.68 10.44,4.68 z" transform="translate(0 298.75208273679124) translate(352.233055887658 56.74684735814094) scale(1.0980532402938747) translate(-366.46888 -68.808)"></path> 
   <path id="path5790" style="font-style: normal; font-weight: 400; font-size: 72px; line-height: 1; font-family: &quot;Abril Fatface&quot;; font-variant-ligatures: none; text-align: center; text-anchor: middle; fill: rgb(90, 98, 101);" d="m 433.68425,105.456 5.976,-20.736 -4.32,-13.752 h -4.104 V 69.6 h 22.32 v 1.368 h -4.248 l 10.728,34.056 8.64,-34.056 h -7.272 V 69.6 h 14.4 v 1.368 h -4.752 l -13.248,49.752 h -6.408 l -10.656,-32.544 -9.36,32.544 h -6.264 l -18.144,-49.752 h -3.384 V 69.6 h 23.4 v 1.368 h -5.04 z" transform="translate(0 298.75208273679124) translate(392.99210039382524 57.61650552445367) scale(1.0980532402938747) translate(-403.58825 -69.6)"></path> 
   <path id="path5792" style="font-style: normal; font-weight: 400; font-size: 72px; line-height: 1; font-family: &quot;Abril Fatface&quot;; font-variant-ligatures: none; text-align: center; text-anchor: middle; fill: rgb(90, 98, 101);" d="m 478.08125,69.6 h 21.96 v 1.368 h -3.96 v 47.664 h 3.96 V 120 h -21.96 v -1.368 h 3.96 V 70.968 h -3.96 z" transform="translate(0 298.75208273679124) translate(474.78938042303685 57.61650552445367) scale(1.0980532402938747) translate(-478.08125 -69.6)"></path> 
   <path id="path5794" style="font-style: normal; font-weight: 400; font-size: 72px; line-height: 1; font-family: &quot;Abril Fatface&quot;; font-variant-ligatures: none; text-align: center; text-anchor: middle; fill: rgb(90, 98, 101);" d="m 547.667,69.6 0.72,18.072 h -1.368 q -3.168,-9.576 -5.616,-13.032 -2.448,-3.528 -7.056,-3.528 h -0.864 v 47.376 h 6.12 V 120 h -26.28 v -1.512 h 6.12 V 71.112 h -0.936 q -4.608,0 -7.128,3.672 -2.52,3.6 -5.544,12.888 h -1.368 l 0.72,-18.072 z" transform="translate(0 298.75208273679124) translate(503.762338708121 57.61650552445367) scale(1.0980532402938747) translate(-504.467 -69.6)"></path> 
   <path id="path5796" style="font-style: normal; font-weight: 400; font-size: 72px; line-height: 1; font-family: &quot;Abril Fatface&quot;; font-variant-ligatures: none; text-align: center; text-anchor: middle; fill: rgb(90, 98, 101);" d="m 577.78437,70.248 q -11.16,0 -11.16,21.528 v 5.688 q 0,10.224 2.952,16.056 2.952,5.76 8.712,5.76 7.92001,0 14.544,-15.408 h 1.296 l -0.504,16.056 h -0.792 q -0.432,-0.792 -0.79199,-1.08 -0.36,-0.36 -1.08001,-0.36 -0.648,0 -5.18399,1.152 -4.53601,1.08 -9.216,1.08 -11.736,0 -18.216,-6.336 -6.40801,-6.336 -6.40801,-19.008 0,-12.744 6.69601,-19.656 6.768,-6.912 18.144,-6.912 4.39199,0 8.568,1.152 4.24799,1.08 4.96799,1.08 0.72,0 1.08001,-0.288 0.36,-0.36 0.792,-1.152 h 0.79199 l 0.576,15.624 h -1.29599 q -3.24,-7.272 -6.696,-11.088 -3.38401,-3.888 -7.77601,-3.888 z" transform="translate(0 298.75208273679124) translate(555.8862342513299 56.74684735814094) scale(1.0980532402938747) translate(-551.93637 -68.808)"></path> 
   <path id="path5798" style="font-style: normal; font-weight: 400; font-size: 72px; line-height: 1; font-family: &quot;Abril Fatface&quot;; font-variant-ligatures: none; text-align: center; text-anchor: middle; fill: rgb(90, 98, 101);" d="m 600.137,69.6 h 22.464 v 1.368 h -4.176 v 22.32 h 14.328 v -22.32 h -4.248 V 69.6 h 22.536 v 1.368 h -4.248 v 47.664 h 4.248 V 120 h -22.536 v -1.368 h 4.248 V 95.16 h -14.328 v 23.472 h 4.176 V 120 h -22.464 v -1.368 h 4.248 V 70.968 h -4.248 z" transform="translate(0 298.75208273679124) translate(608.813092207036 57.61650552445367) scale(1.0980532402938747) translate(-600.137 -69.6)"></path> 
   <path id="path5800" style="font-style: normal; font-weight: 400; font-size: 72px; line-height: 1; font-family: &quot;Abril Fatface&quot;; font-variant-ligatures: none; text-align: center; text-anchor: middle; fill: rgb(90, 98, 101);" d="m 653.99637,69.6 h 37.44 l 0.72001,14.256 h -1.29601 q -3.024,-7.272 -6.336,-9.936 -3.312,-2.736 -9.71999,-2.736 h -2.52001 v 22.248 h 2.44801 q 3.38399,0 5.688,-2.52 2.30399,-2.592 3.24,-6.912 h 1.07999 v 21.312 h -1.22399 q -1.29601,-5.4 -3.528,-7.704 -2.16,-2.304 -5.976,-2.304 h -1.72801 v 23.112 h 2.73601 q 6.62399,0 11.232,-3.96 4.67999,-3.96 6.408,-10.152 h 1.43999 l -0.576,15.696 h -39.528 v -1.584 h 4.248 V 71.184 h -4.248 z" transform="translate(0 298.75208273679124) translate(667.9535479557227 57.61650552445367) scale(1.0980532402938747) translate(-653.99637 -69.6)"></path> 
   <path id="path5802" style="font-style: normal; font-weight: 400; font-size: 72px; line-height: 1; font-family: &quot;Abril Fatface&quot;; font-variant-ligatures: none; text-align: center; text-anchor: middle; fill: rgb(90, 98, 101);" d="m 748.75175,93.936 q 0,14.832 -8.352,20.664 -7.704,5.4 -21.168,5.4 h -20.376 v -1.368 h 4.752 V 70.968 h -4.752 V 69.6 h 22.248 q 13.824,0 20.736,5.688 6.912,5.616 6.912,18.648 z m -31.104,24.696 h 2.736 q 7.272,0 10.368,-5.112 3.168,-5.184 3.168,-17.28 v -4.176 q 0,-16.2 -6.192,-19.512 -2.952,-1.584 -8.352,-1.584 h -1.728 z" transform="translate(0 298.75208273679124) translate(717.2115355222968 57.61650552445367) scale(1.0980532402938747) translate(-698.85575 -69.6)"></path> 
  </g> 
  <g id="tagline" style="font-style:oblique;font-weight:normal;font-size:32px;line-height:1;font-family:'Droid Serif';font-variant-ligatures:none;text-align:center;text-anchor:middle"></g> 
 </g> 
</svg>