<svg xmlns:dc="http://purl.org/dc/elements/1.1/" xmlns:cc="http://creativecommons.org/ns#" xmlns:rdf="http://www.w3.org/1999/02/22-rdf-syntax-ns#" xmlns:svg="http://www.w3.org/2000/svg" xmlns="http://www.w3.org/2000/svg" id="svg40400" viewbox="0 0 1024 768" height="768px" width="1024px" version="1.1"> <metadata id="metadata40406"> 
  <rdf:rdf> 
   <cc:work rdf:about=""> 
    <dc:format>
     image/svg+xml
    </dc:format> 
    <dc:type rdf:resource="http://purl.org/dc/dcmitype/StillImage"></dc:type> 
   </cc:work> 
  </rdf:rdf> 
 </metadata> <defs id="defs40404"></defs> <g id="logo-group"> 
  <g id="title" style="font-style:normal;font-weight:200;font-size:72px;line-height:1;font-family:Phenomena;font-variant-ligatures:none;text-align:center;text-anchor:middle" aria-label="o7Scriptwriter"> 
   <path id="path40408" style="font-style: normal; font-weight: 200; font-size: 72px; line-height: 1; font-family: Phenomena; font-variant-ligatures: none; text-align: center; text-anchor: middle; fill: rgb(229, 212, 206);" d="m 359.3375,120.504 c 6.408,0 10.224,-4.752 10.224,-10.944 V 94.44 c 0,-6.192 -3.816,-10.944 -10.224,-10.944 -6.408,0 -10.224,4.752 -10.224,10.944 v 15.12 c 0,6.192 3.816,10.944 10.224,10.944 z m 0,-1.296 c -5.544,0 -8.856,-4.248 -8.856,-9.648 V 94.44 c 0,-5.4 3.312,-9.648 8.856,-9.648 5.544,0 8.856,4.248 8.856,9.648 v 15.12 c 0,5.4 -3.312,9.648 -8.856,9.648 z" transform="translate(0 242.0546743277701) translate(252.00000000000006 113.0570303134067) scale(1.582746841925442) translate(-349.1135 -83.496)"></path> 
   <path id="path40410" style="font-style: normal; font-weight: 200; font-size: 72px; line-height: 1; font-family: Phenomena; font-variant-ligatures: none; text-align: center; text-anchor: middle; fill: rgb(229, 212, 206);" d="m 375.92563,69.96 v 0.648 c 0,0.216 0.14399,0.36 0.35999,0.36 h 18 l -12.168,48.6 c -0.072,0.288 0.144,0.432 0.36,0.432 h 0.72001 c 0.216,0 0.288,-0.072 0.36,-0.288 l 12.23999,-48.816 c 0.072,-0.36 0.072,-0.576 0.072,-0.864 0,-0.288 -0.216,-0.432 -0.43199,-0.432 h -19.15201 c -0.216,0 -0.35999,0.144 -0.35999,0.36 z" transform="translate(0 242.0546743277701) translate(294.4368140827945 91.06318019801074) scale(1.582746841925442) translate(-375.92563 -69.6)"></path> 
   <path id="path40412" style="font-style: normal; font-weight: 200; font-size: 72px; line-height: 1; font-family: Phenomena; font-variant-ligatures: none; text-align: center; text-anchor: middle; fill: rgb(229, 212, 206);" d="m 413.55687,120.504 c 6.84001,0 11.16001,-4.968 11.16001,-11.232 0,-14.76 -20.59201,-16.056 -20.59201,-28.944 0,-6.12 4.03201,-9.864 9.432,-9.864 5.32801,0 9.216,3.744 9.36,10.152 0,0.216 0.144,0.36 0.36001,0.36 h 0.71999 c 0.216,0 0.36,-0.144 0.36,-0.36 0,-7.056 -4.752,-11.52 -10.8,-11.52 -6.264,0 -10.872,4.464 -10.872,11.232 0,13.968 20.59201,14.904 20.59201,28.944 0,5.544 -3.60001,9.864 -9.72001,9.864 -5.976,0 -9.64799,-4.32 -9.79199,-10.152 0,-0.216 -0.14401,-0.36 -0.36001,-0.36 h -0.72 c -0.21599,0 -0.35999,0.144 -0.35999,0.36 0,6.624 4.392,11.52 11.23199,11.52 z" transform="translate(0 242.0546743277701) translate(336.2201436494948 90.26547578968035) scale(1.582746841925442) translate(-402.32488 -69.096)"></path> 
   <path id="path40414" style="font-style: normal; font-weight: 200; font-size: 72px; line-height: 1; font-family: Phenomena; font-variant-ligatures: none; text-align: center; text-anchor: middle; fill: rgb(229, 212, 206);" d="m 442.6595,120.504 c 5.832,0 9.936,-4.104 10.152,-10.224 0,-0.216 -0.144,-0.36 -0.36,-0.36 h -0.648 c -0.216,0 -0.36,0.144 -0.36,0.36 -0.216,5.328 -3.744,8.928 -8.784,8.928 -5.328,0 -8.928,-3.888 -8.928,-9.648 V 94.944 c 0,-6.12 3.456,-10.152 8.712,-10.152 4.968,0 8.424,3.168 8.64,7.848 0,0.216 0.144,0.36 0.36,0.36 h 0.648 c 0.216,0 0.36,-0.144 0.36,-0.36 -0.216,-5.472 -4.248,-9.144 -10.008,-9.144 -6.048,0 -10.08,4.608 -10.08,11.448 v 14.616 c 0,6.552 4.104,10.944 10.296,10.944 z" transform="translate(0 242.0546743277701) translate(383.7636745902932 113.0570303134067) scale(1.582746841925442) translate(-432.3635 -83.496)"></path> 
   <path id="path40416" style="font-style: normal; font-weight: 200; font-size: 72px; line-height: 1; font-family: Phenomena; font-variant-ligatures: none; text-align: center; text-anchor: middle; fill: rgb(229, 212, 206);" d="m 461.3525,120 h 0.648 c 0.216,0 0.36,-0.144 0.36,-0.36 V 95.16 c 0,-5.976 3.96,-10.008 9.432,-10.008 h 2.16 c 0.216,0 0.36,-0.144 0.36,-0.36 v -0.576 c 0,-0.216 -0.144,-0.36 -0.36,-0.36 h -2.16 c -6.192,0 -10.8,4.608 -10.8,11.304 v 24.48 c 0,0.216 0.144,0.36 0.36,0.36 z" transform="translate(0 242.0546743277701) translate(429.0761339277767 113.62681917649985) scale(1.582746841925442) translate(-460.9925 -83.856)"></path> 
   <path id="path40418" style="font-style: normal; font-weight: 200; font-size: 72px; line-height: 1; font-family: Phenomena; font-variant-ligatures: none; text-align: center; text-anchor: middle; fill: rgb(229, 212, 206);" d="m 481.76675,77.88 c 0.936,0 1.584,-0.648 1.584,-1.584 0,-0.936 -0.648,-1.584 -1.584,-1.584 -0.936,0 -1.584,0.648 -1.584,1.584 0,0.936 0.648,1.584 1.584,1.584 z m -0.36,42.12 h 0.648 c 0.216,0 0.36,-0.144 0.36,-0.36 V 84.36 c 0,-0.216 -0.144,-0.36 -0.36,-0.36 h -0.648 c -0.216,0 -0.36,0.144 -0.36,0.36 v 35.28 c 0,0.216 0.144,0.36 0.36,0.36 z" transform="translate(0 242.0546743277701) translate(459.4494415110364 99.15418205393362) scale(1.582746841925442) translate(-480.18275 -74.712)"></path> 
   <path id="path40420" style="font-style: normal; font-weight: 200; font-size: 72px; line-height: 1; font-family: Phenomena; font-variant-ligatures: none; text-align: center; text-anchor: middle; fill: rgb(229, 212, 206);" d="m 502.57587,83.496 c -5.832,0 -10.224,4.824 -10.224,10.8 v 39.744 c 0,0.216 0.144,0.36 0.36001,0.36 h 0.64799 c 0.216,0 0.36,-0.144 0.36,-0.36 v -19.512 c 1.512,3.6 4.96801,5.976 8.856,5.976 5.832,0 10.22401,-4.824 10.22401,-10.8 V 94.296 c 0,-5.976 -4.39201,-10.8 -10.22401,-10.8 z m 8.856,26.208 c 0,5.256 -3.81599,9.504 -8.856,9.504 -5.04,0 -8.856,-4.248 -8.856,-9.504 V 94.296 c 0,-5.256 3.816,-9.504 8.856,-9.504 5.04001,0 8.856,4.248 8.856,9.504 z" transform="translate(0 242.0546743277701) translate(478.7100777600482 113.0570303134067) scale(1.582746841925442) translate(-492.35187 -83.496)"></path> 
   <path id="path40422" style="font-style: normal; font-weight: 200; font-size: 72px; line-height: 1; font-family: Phenomena; font-variant-ligatures: none; text-align: center; text-anchor: middle; fill: rgb(229, 212, 206);" d="m 533.48862,118.848 h -1.00799 c -5.04001,0 -7.70401,-3.24 -7.70401,-9.36 V 85.296 h 8.06401 c 0.216,0 0.35999,-0.144 0.35999,-0.36 V 84.36 c 0,-0.216 -0.14399,-0.36 -0.35999,-0.36 h -8.06401 v -9.72 c 0,-0.216 -0.144,-0.36 -0.36,-0.36 h -0.64799 c -0.216,0 -0.36,0.144 -0.36,0.36 V 84 h -5.04001 c -0.216,0 -0.35999,0.144 -0.35999,0.36 v 0.576 c 0,0.216 0.14399,0.36 0.35999,0.36 h 5.04001 v 24.192 c 0,6.984 3.096,10.656 9.072,10.656 h 1.00799 c 0.216,0 0.36,-0.144 0.36,-0.36 v -0.576 c 0,-0.216 -0.144,-0.36 -0.36,-0.36 z" transform="translate(0 242.0546743277701) translate(519.3182336240872 97.90064655512867) scale(1.582746841925442) translate(-518.00863 -73.92)"></path> 
   <path id="path40424" style="font-style: normal; font-weight: 200; font-size: 72px; line-height: 1; font-family: Phenomena; font-variant-ligatures: none; text-align: center; text-anchor: middle; fill: rgb(229, 212, 206);" d="m 567.22962,120.504 c 6.048,0 9.432,-4.752 9.432,-10.728 V 84.36 c 0,-0.216 -0.144,-0.36 -0.35999,-0.36 h -0.648 c -0.216,0 -0.36,0.144 -0.36,0.36 v 25.416 c 0,5.256 -2.736,9.432 -8.06401,9.432 -4.752,0 -7.992,-4.176 -7.992,-9.288 V 84.36 c 0,-0.216 -0.144,-0.36 -0.36,-0.36 h -0.648 c -0.21599,0 -0.35999,0.144 -0.35999,0.36 v 25.56 c 0,5.112 -3.24,9.288 -7.92001,9.288 -5.4,0 -8.136,-4.176 -8.136,-9.432 V 84.36 c 0,-0.216 -0.144,-0.36 -0.36,-0.36 h -0.648 c -0.216,0 -0.36,0.144 -0.36,0.36 v 25.416 c 0,5.976 3.384,10.728 9.504,10.728 4.17601,0 7.27201,-2.664 8.64,-6.48 1.296,3.816 4.464,6.48 8.64,6.48 z" transform="translate(0 242.0546743277701) translate(554.8303086888998 113.85473472173712) scale(1.582746841925442) translate(-540.44562 -84)"></path> 
   <path id="path40426" style="font-style: normal; font-weight: 200; font-size: 72px; line-height: 1; font-family: Phenomena; font-variant-ligatures: none; text-align: center; text-anchor: middle; fill: rgb(229, 212, 206);" d="m 586.36812,120 h 0.648 c 0.216,0 0.36,-0.144 0.36,-0.36 V 95.16 c 0,-5.976 3.96001,-10.008 9.43201,-10.008 h 2.15999 c 0.216,0 0.36,-0.144 0.36,-0.36 v -0.576 c 0,-0.216 -0.144,-0.36 -0.36,-0.36 h -2.15999 c -6.19201,0 -10.80001,4.608 -10.80001,11.304 v 24.48 c 0,0.216 0.144,0.36 0.36,0.36 z" transform="translate(0 242.0546743277701) translate(626.9442116741277 113.62681917649985) scale(1.582746841925442) translate(-586.00812 -83.856)"></path> 
   <path id="path40428" style="font-style: normal; font-weight: 200; font-size: 72px; line-height: 1; font-family: Phenomena; font-variant-ligatures: none; text-align: center; text-anchor: middle; fill: rgb(229, 212, 206);" d="m 606.78237,77.88 c 0.93601,0 1.584,-0.648 1.584,-1.584 0,-0.936 -0.64799,-1.584 -1.584,-1.584 -0.936,0 -1.58399,0.648 -1.58399,1.584 0,0.936 0.64799,1.584 1.58399,1.584 z m -0.36,42.12 h 0.64801 c 0.216,0 0.36,-0.144 0.36,-0.36 V 84.36 c 0,-0.216 -0.144,-0.36 -0.36,-0.36 h -0.64801 c -0.216,0 -0.36,0.144 -0.36,0.36 v 35.28 c 0,0.216 0.144,0.36 0.36,0.36 z" transform="translate(0 242.0546743277701) translate(657.3175350848559 99.15418205393362) scale(1.582746841925442) translate(-605.19838 -74.712)"></path> 
   <path id="path40430" style="font-style: normal; font-weight: 200; font-size: 72px; line-height: 1; font-family: Phenomena; font-variant-ligatures: none; text-align: center; text-anchor: middle; fill: rgb(229, 212, 206);" d="m 629.5355,118.848 h -1.008 c -5.04,0 -7.704,-3.24 -7.704,-9.36 V 85.296 h 8.064 c 0.216,0 0.36,-0.144 0.36,-0.36 V 84.36 c 0,-0.216 -0.144,-0.36 -0.36,-0.36 h -8.064 v -9.72 c 0,-0.216 -0.144,-0.36 -0.36,-0.36 h -0.648 c -0.216,0 -0.36,0.144 -0.36,0.36 V 84 h -5.04 c -0.216,0 -0.36,0.144 -0.36,0.36 v 0.576 c 0,0.216 0.144,0.36 0.36,0.36 h 5.04 v 24.192 c 0,6.984 3.096,10.656 9.072,10.656 h 1.008 c 0.216,0 0.36,-0.144 0.36,-0.36 v -0.576 c 0,-0.216 -0.144,-0.36 -0.36,-0.36 z" transform="translate(0 242.0546743277701) translate(671.3361137934105 97.90064655512867) scale(1.582746841925442) translate(-614.0555 -73.92)"></path> 
   <path id="path40432" style="font-style: normal; font-weight: 200; font-size: 72px; line-height: 1; font-family: Phenomena; font-variant-ligatures: none; text-align: center; text-anchor: middle; fill: rgb(229, 212, 206);" d="m 645.63987,120.504 c 6.624,0 9.936,-4.608 10.08,-10.296 0,-0.144 -0.144,-0.288 -0.36,-0.288 h -0.648 c -0.216,0 -0.36,0.144 -0.36,0.36 -0.14399,4.968 -2.88,8.928 -8.712,8.928 -5.76,0 -8.424,-4.176 -8.424,-9.504 v -5.472 h 7.20001 c 7.84799,0 11.592,-4.32 11.592,-10.152 0,-5.832 -4.17601,-10.584 -10.08001,-10.584 -6.12,0 -10.07999,4.608 -10.07999,10.872 v 15.336 c 0,6.048 3.168,10.8 9.79199,10.8 z m -8.424,-17.568 v -8.568 c 0,-5.544 3.312,-9.576 8.712,-9.576 5.18401,0 8.712,4.176 8.712,9.288 0,5.112 -3.024,8.856 -10.22399,8.856 z" transform="translate(0 242.0546743277701) translate(705.8279344164496 113.0570303134067) scale(1.582746841925442) translate(-635.84788 -83.496)"></path> 
   <path id="path40434" style="font-style: normal; font-weight: 200; font-size: 72px; line-height: 1; font-family: Phenomena; font-variant-ligatures: none; text-align: center; text-anchor: middle; fill: rgb(229, 212, 206);" d="m 664.69625,120 h 0.648 c 0.216,0 0.36,-0.144 0.36,-0.36 V 95.16 c 0,-5.976 3.96,-10.008 9.432,-10.008 h 2.16 c 0.216,0 0.36,-0.144 0.36,-0.36 v -0.576 c 0,-0.216 -0.144,-0.36 -0.36,-0.36 h -2.16 c -6.192,0 -10.8,4.608 -10.8,11.304 v 24.48 c 0,0.216 0.144,0.36 0.36,0.36 z" transform="translate(0 242.0546743277701) translate(750.917812065553 113.62681917649985) scale(1.582746841925442) translate(-664.33625 -83.856)"></path> 
  </g> 
  <g id="tagline" style="font-style:oblique;font-weight:300;font-size:32px;line-height:1;font-family:'Fira Sans Condensed';font-variant-ligatures:none;text-align:center;text-anchor:middle"></g> 
 </g> 
</svg>