<svg xmlns:dc="http://purl.org/dc/elements/1.1/" xmlns:cc="http://creativecommons.org/ns#" xmlns:rdf="http://www.w3.org/1999/02/22-rdf-syntax-ns#" xmlns:svg="http://www.w3.org/2000/svg" xmlns="http://www.w3.org/2000/svg" id="svg309718" viewbox="0 0 1024 768" height="768px" width="1024px" version="1.1"> <metadata id="metadata309724"> 
  <rdf:rdf> 
   <cc:work rdf:about=""> 
    <dc:format>
     image/svg+xml
    </dc:format> 
    <dc:type rdf:resource="http://purl.org/dc/dcmitype/StillImage"></dc:type> 
   </cc:work> 
  </rdf:rdf> 
 </metadata> <defs id="defs309722"></defs> <g id="logo-group"> 
  <g id="title" style="font-style:normal;font-weight:400;font-size:72px;line-height:1;font-family:Teko;font-variant-ligatures:none;text-align:center;text-anchor:middle" aria-label="o7Solution"> 
   <path id="path309726" style="font-style: normal; font-weight: 400; font-size: 72px; line-height: 1; font-family: Teko; font-variant-ligatures: none; text-align: center; text-anchor: middle; fill: rgb(151, 143, 111);" d="m 411.11169,84.864 h 7.704 q 6.696,0 6.696,6.408 v 22.392 q 0,6.336 -6.696,6.336 h -7.704 q -6.624,0 -6.624,-6.336 V 91.272 q 0,-6.408 6.624,-6.408 z m 7.992,27.864 V 92.136 q 0,-1.296 -0.432,-1.728 -0.432,-0.432 -1.728,-0.432 h -3.96 q -1.296,0 -1.728,0.432 -0.36,0.432 -0.36,1.728 v 20.592 q 0,1.296 0.36,1.728 0.432,0.432 1.728,0.432 h 3.96 q 1.296,0 1.728,-0.432 0.432,-0.432 0.432,-1.728 z" transform="translate(0 173.56151802523976) translate(252 183.76035851383028) scale(2.4217613889733016) translate(-404.48769 -84.864)"></path> 
   <path id="path309728" style="font-style: normal; font-weight: 400; font-size: 72px; line-height: 1; font-family: Teko; font-variant-ligatures: none; text-align: center; text-anchor: middle; fill: rgb(151, 143, 111);" d="m 448.84981,74.928 v 4.032 l -12.096,41.04 h -6.624 l 11.736,-39.672 h -13.176 v -5.4 z" transform="translate(0 173.56151802523976) translate(310.6117597472986 159.6977373529915) scale(2.4217613889733016) translate(-428.68981 -74.928)"></path> 
   <path id="path309730" style="font-style: normal; font-weight: 400; font-size: 72px; line-height: 1; font-family: Teko; font-variant-ligatures: none; text-align: center; text-anchor: middle; fill: rgb(203, 183, 148);" d="M 465.91494,112.656 V 101.64 q 0,-1.296 -0.432,-1.656 -0.36,-0.432 -1.656,-0.432 h -5.328 q -6.552,0 -6.552,-6.408 v -11.88 q 0,-6.336 6.696,-6.336 h 7.056 q 6.696,0 6.696,6.336 v 6.624 h -6.552 v -5.616 q 0,-1.296 -0.432,-1.656 -0.432,-0.432 -1.728,-0.432 h -3.024 q -1.296,0 -1.728,0.432 -0.432,0.36 -0.432,1.656 V 92.28 q 0,1.296 0.432,1.728 0.432,0.36 1.728,0.36 h 5.256 q 6.624,0 6.624,6.336 v 12.96 q 0,6.336 -6.768,6.336 h -6.984 q -6.696,0 -6.696,-6.336 v -6.624 h 6.552 v 5.616 q 0,1.296 0.432,1.728 0.432,0.36 1.728,0.36 h 3.024 q 1.296,0 1.656,-0.36 0.432,-0.432 0.432,-1.728 z" transform="translate(0 173.56151802523976) translate(366.93497919963113 159.6977373529915) scale(2.4217613889733016) translate(-451.94694 -74.928)"></path> 
   <path id="path309732" style="font-style: normal; font-weight: 400; font-size: 72px; line-height: 1; font-family: Teko; font-variant-ligatures: none; text-align: center; text-anchor: middle; fill: rgb(203, 183, 148);" d="m 484.65856,84.864 h 7.704 q 6.696,0 6.696,6.408 v 22.392 q 0,6.336 -6.696,6.336 h -7.704 q -6.624,0 -6.624,-6.336 V 91.272 q 0,-6.408 6.624,-6.408 z m 7.992,27.864 V 92.136 q 0,-1.296 -0.432,-1.728 -0.432,-0.432 -1.728,-0.432 h -3.96 q -1.296,0 -1.728,0.432 -0.36,0.432 -0.36,1.728 v 20.592 q 0,1.296 0.36,1.728 0.432,0.432 1.728,0.432 h 3.96 q 1.296,0 1.728,-0.432 0.432,-0.432 0.432,-1.728 z" transform="translate(0 173.56151802523976) translate(430.11297004583884 183.76035851383028) scale(2.4217613889733016) translate(-478.03456 -84.864)"></path> 
   <path id="path309734" style="font-style: normal; font-weight: 400; font-size: 72px; line-height: 1; font-family: Teko; font-variant-ligatures: none; text-align: center; text-anchor: middle; fill: rgb(203, 183, 148);" d="m 511.45269,120 h -6.48 V 71.832 h 6.48 z" transform="translate(0 173.56151802523976) translate(495.3506931709822 152.19996409273017) scale(2.4217613889733016) translate(-504.97269 -71.832)"></path> 
   <path id="path309736" style="font-style: normal; font-weight: 400; font-size: 72px; line-height: 1; font-family: Teko; font-variant-ligatures: none; text-align: center; text-anchor: middle; fill: rgb(203, 183, 148);" d="m 531.23356,84.864 h 6.48 V 120 h -6.48 v -2.808 q -0.936,2.808 -4.464,2.808 h -2.592 q -6.48,0 -6.48,-6.336 v -28.8 h 6.48 v 27.792 q 0,1.296 0.432,1.728 0.432,0.36 1.728,0.36 h 2.52 q 1.296,0 1.8,-0.576 0.576,-0.576 0.576,-1.944 z" transform="translate(0 173.56151802523976) translate(526.1672920166868 183.76035851383028) scale(2.4217613889733016) translate(-517.69756 -84.864)"></path> 
   <path id="path309738" style="font-style: normal; font-weight: 400; font-size: 72px; line-height: 1; font-family: Teko; font-variant-ligatures: none; text-align: center; text-anchor: middle; fill: rgb(203, 183, 148);" d="m 555.94644,90.12 h -4.824 v 22.248 q 0,1.296 0.36,1.728 0.432,0.36 1.728,0.36 h 2.736 V 120 h -4.608 q -6.768,0 -6.768,-6.336 V 90.12 h -3.312 v -5.256 h 3.312 v -5.976 h 6.552 v 5.976 h 4.824 z" transform="translate(0 173.56151802523976) translate(583.2261214909201 169.28791245332582) scale(2.4217613889733016) translate(-541.25844 -78.888)"></path> 
   <path id="path309740" style="font-style: normal; font-weight: 400; font-size: 72px; line-height: 1; font-family: Teko; font-variant-ligatures: none; text-align: center; text-anchor: middle; fill: rgb(203, 183, 148);" d="M 559.67244,78.168 V 71.76 h 6.768 v 6.408 z m 6.624,41.832 h -6.48 V 84.864 h 6.48 z" transform="translate(0 173.56151802523976) translate(627.8204357074748 152.02559727272416) scale(2.4217613889733016) translate(-559.67244 -71.76)"></path> 
   <path id="path309742" style="font-style: normal; font-weight: 400; font-size: 72px; line-height: 1; font-family: Teko; font-variant-ligatures: none; text-align: center; text-anchor: middle; fill: rgb(203, 183, 148);" d="m 578.87731,84.864 h 7.704 q 6.696,0 6.696,6.408 v 22.392 q 0,6.336 -6.696,6.336 h -7.704 q -6.624,0 -6.624,-6.336 V 91.272 q 0,-6.408 6.624,-6.408 z m 7.992,27.864 V 92.136 q 0,-1.296 -0.432,-1.728 -0.432,-0.432 -1.728,-0.432 h -3.96 q -1.296,0 -1.728,0.432 -0.36,0.432 -0.36,1.728 v 20.592 q 0,1.296 0.36,1.728 0.432,0.432 1.728,0.432 h 3.96 q 1.296,0 1.728,-0.432 0.432,-0.432 0.432,-1.728 z" transform="translate(0 173.56151802523976) translate(658.2883009131672 183.76035851383028) scale(2.4217613889733016) translate(-572.25331 -84.864)"></path> 
   <path id="path309744" style="font-style: normal; font-weight: 400; font-size: 72px; line-height: 1; font-family: Teko; font-variant-ligatures: none; text-align: center; text-anchor: middle; fill: rgb(203, 183, 148);" d="m 610.13544,84.864 h 2.52 q 6.552,0 6.552,6.408 V 120 h -6.48 V 92.208 q 0,-1.296 -0.432,-1.656 -0.432,-0.432 -1.728,-0.432 h -2.52 q -1.296,0 -1.872,0.576 -0.504,0.576 -0.504,1.944 V 120 h -6.48 V 84.864 h 6.48 v 2.808 q 0.936,-2.808 4.464,-2.808 z" transform="translate(0 173.56151802523976) translate(723.5260240383103 183.76035851383028) scale(2.4217613889733016) translate(-599.19144 -84.864)"></path> 
  </g> 
  <g id="tagline" style="font-style:oblique;font-weight:normal;font-size:32px;line-height:1;font-family:'Fira Sans Condensed';font-variant-ligatures:none;text-align:center;text-anchor:middle"></g> 
 </g> 
</svg>