<svg xmlns:dc="http://purl.org/dc/elements/1.1/" xmlns:cc="http://creativecommons.org/ns#" xmlns:rdf="http://www.w3.org/1999/02/22-rdf-syntax-ns#" xmlns:svg="http://www.w3.org/2000/svg" xmlns="http://www.w3.org/2000/svg" id="svg285375" viewbox="0 0 1024 768" height="768px" width="1024px" version="1.1"> <metadata id="metadata285381"> 
  <rdf:rdf> 
   <cc:work rdf:about=""> 
    <dc:format>
     image/svg+xml
    </dc:format> 
    <dc:type rdf:resource="http://purl.org/dc/dcmitype/StillImage"></dc:type> 
   </cc:work> 
  </rdf:rdf> 
 </metadata> <defs id="defs285379"></defs> <g id="logo-group"> 
  <g id="title" style="font-style:normal;font-weight:500;font-size:72px;line-height:1;font-family:'Raleway Medium Alt1';font-variant-ligatures:none;text-align:center;text-anchor:middle" aria-label="O7SYSTEM"> 
   <path id="path285383" style="font-style: normal; font-weight: 500; font-size: 72px; line-height: 1; font-family: &quot;Raleway Medium Alt1&quot;; font-variant-ligatures: none; text-align: center; text-anchor: middle; fill: rgb(73, 62, 68);" d="m 368.8955,97.248 c -0.216,1.512 -0.504,3.024 -1.008,4.464 -0.792,2.448 -1.944,4.608 -3.456,6.48 -1.512,1.872 -3.384,3.456 -5.472,4.608 -2.232,1.152 -4.68,1.728 -7.344,1.728 -2.664,0 -5.04,-0.504 -7.2,-1.656 -2.16,-1.08 -4.032,-2.592 -5.544,-4.464 -1.584,-1.872 -2.736,-3.96 -3.6,-6.408 -0.504,-1.512 -0.864,-3.096 -1.08,-4.752 h -6.552 c 0.216,2.304 0.72,4.608 1.584,6.768 1.08,3.168 2.736,5.904 4.896,8.352 2.088,2.448 4.608,4.392 7.56,5.832 2.952,1.44 6.264,2.16 9.864,2.16 3.456,0 6.624,-0.648 9.576,-2.088 2.952,-1.44 5.472,-3.312 7.632,-5.688 2.16,-2.376 3.816,-5.112 5.04,-8.28 0.864,-2.232 1.44,-4.608 1.728,-7.056 z m -33.624,-10.152 c 0.792,-2.376 1.944,-4.464 3.456,-6.408 1.512,-1.872 3.384,-3.384 5.544,-4.536 2.16,-1.152 4.608,-1.728 7.344,-1.728 2.52,0 4.896,0.576 7.056,1.656 2.16,1.152 3.96,2.592 5.544,4.464 1.584,1.872 2.736,3.96 3.6,6.408 0.432,1.296 0.792,2.664 1.008,3.96 h 6.552 c -0.288,-1.944 -0.792,-3.96 -1.44,-5.832 -1.152,-3.096 -2.808,-5.832 -4.896,-8.352 -2.16,-2.448 -4.68,-4.392 -7.56,-5.904 -2.952,-1.512 -6.264,-2.304 -9.792,-2.304 -3.528,0 -6.696,0.72 -9.648,2.16 -2.952,1.44 -5.472,3.312 -7.632,5.688 -2.16,2.448 -3.888,5.184 -5.112,8.28 -0.792,2.088 -1.368,4.176 -1.584,6.264 h 6.552 c 0.216,-1.224 0.576,-2.52 1.008,-3.816 z" transform="translate(0 278.5693000823257) translate(252 67.41473731543469) scale(1.2541555358352994) translate(-327.6395 -68.52)"></path> 
   <path id="path285385" style="font-style: normal; font-weight: 500; font-size: 72px; line-height: 1; font-family: &quot;Raleway Medium Alt1&quot;; font-variant-ligatures: none; text-align: center; text-anchor: middle; fill: rgb(73, 62, 68);" d="m 406.77087,83.856 -22.896,45.288 h 7.20001 l 25.70399,-51.12 h -36.28799 v 5.832 z" transform="translate(0 278.5693000823257) translate(327.0629395543821 79.3342315280134) scale(1.2541555358352994) translate(-380.49088 -78.024)"></path> 
   <path id="path285387" style="font-style: normal; font-weight: 500; font-size: 72px; line-height: 1; font-family: &quot;Raleway Medium Alt1&quot;; font-variant-ligatures: none; text-align: center; text-anchor: middle; fill: rgb(238, 230, 184);" d="m 453.22212,79.608 3.024,-5.256 c -2.16,-1.728 -4.68,-3.168 -7.416,-4.248 -2.80799,-1.008 -5.90399,-1.584 -9.36,-1.584 -2.664,0 -5.112,0.36 -7.344,1.008 -2.30399,0.648 -4.248,1.584 -5.832,2.88 -1.656,1.296 -2.952,2.88 -3.816,4.752 -0.936,1.872 -1.368,4.032 -1.368,6.48 0,2.016 0.288,3.744 1.00801,5.184 0.64799,1.44 1.656,2.664 2.952,3.672 1.29599,1.008 2.952,1.872 4.96799,2.592 1.944,0.72 4.24801,1.44 6.84,2.016 2.304,0.576 4.392,1.152 6.26401,1.728 1.87199,0.576 3.38399,1.152 4.68,1.872 1.224,0.72 2.15999,1.584 2.808,2.592 0.64799,1.008 1.00799,2.16 1.00799,3.6 0,2.592 -1.00799,4.536 -3.024,5.832 -2.016,1.296 -4.896,1.944 -8.49599,1.944 -2.01601,0 -3.88801,-0.144 -5.68801,-0.576 -1.79999,-0.432 -3.45599,-0.936 -5.04,-1.584 -1.584,-0.648 -2.95199,-1.368 -4.17599,-2.232 -1.22401,-0.792 -2.23201,-1.584 -2.952,-2.448 l -3.096,5.472 c 2.88,2.376 6.048,4.176 9.57599,5.4 3.528,1.224 7.272,1.8 11.23201,1.8 2.59199,0 5.03999,-0.216 7.34399,-0.792 2.232,-0.576 4.176,-1.44 5.832,-2.592 1.656,-1.152 2.952,-2.664 3.96,-4.464 0.93601,-1.8 1.44,-3.96 1.44,-6.408 0,-2.304 -0.43199,-4.248 -1.224,-5.832 -0.79199,-1.584 -1.944,-2.88 -3.45599,-4.032 -1.51201,-1.08 -3.312,-2.016 -5.47201,-2.736 -2.15999,-0.72 -4.536,-1.44 -7.128,-2.016 -2.304,-0.504 -4.31999,-1.008 -5.976,-1.512 -1.728,-0.432 -3.096,-1.008 -4.24799,-1.656 -1.15201,-0.648 -1.94401,-1.44 -2.44801,-2.376 -0.57599,-0.864 -0.792,-2.016 -0.792,-3.456 0,-2.592 0.864,-4.608 2.736,-6.12 1.87201,-1.44 4.752,-2.232 8.784,-2.232 1.512,0 2.952,0.216 4.392,0.504 1.44,0.288 2.736,0.72 3.96001,1.224 1.15199,0.504 2.23199,1.08 3.24,1.656 0.93599,0.648 1.72799,1.296 2.30399,1.944 z" transform="translate(0 278.5693000823257) translate(384.34680719254345 67.41473731543469) scale(1.2541555358352994) translate(-419.16613 -68.52)"></path> 
   <path id="path285389" style="font-style: normal; font-weight: 500; font-size: 72px; line-height: 1; font-family: &quot;Raleway Medium Alt1&quot;; font-variant-ligatures: none; text-align: center; text-anchor: middle; fill: rgb(238, 230, 184);" d="m 460.6235,68.88 15.912,26.64 3.312,-5.688 -12.096,-20.952 z m 38.232,0 -15.624,26.64 -3.24,5.832 V 120 h 6.48 v -18.648 l 19.44,-32.472 z" transform="translate(0 278.5693000823257) translate(445.1198860300628 67.86623330833542) scale(1.2541555358352994) translate(-460.6235 -68.88)"></path> 
   <path id="path285391" style="font-style: normal; font-weight: 500; font-size: 72px; line-height: 1; font-family: &quot;Raleway Medium Alt1&quot;; font-variant-ligatures: none; text-align: center; text-anchor: middle; fill: rgb(238, 230, 184);" d="m 540.97212,79.608 3.024,-5.256 c -2.15999,-1.728 -4.67999,-3.168 -7.416,-4.248 -2.808,-1.008 -5.904,-1.584 -9.35999,-1.584 -2.66401,0 -5.11201,0.36 -7.34401,1.008 -2.30399,0.648 -4.248,1.584 -5.832,2.88 -1.656,1.296 -2.952,2.88 -3.816,4.752 -0.936,1.872 -1.368,4.032 -1.368,6.48 0,2.016 0.288,3.744 1.00801,5.184 0.64799,1.44 1.656,2.664 2.95199,3.672 1.296,1.008 2.952,1.872 4.96801,2.592 1.94399,0.72 4.24799,1.44 6.83999,2.016 2.30401,0.576 4.392,1.152 6.264,1.728 1.87201,0.576 3.384,1.152 4.68001,1.872 1.22399,0.72 2.15999,1.584 2.808,2.592 0.648,1.008 1.00799,2.16 1.00799,3.6 0,2.592 -1.00799,4.536 -3.02399,5.832 -2.01601,1.296 -4.89601,1.944 -8.49601,1.944 -2.016,0 -3.88799,-0.144 -5.688,-0.576 -1.79999,-0.432 -3.456,-0.936 -5.04,-1.584 -1.584,-0.648 -2.95199,-1.368 -4.176,-2.232 -1.224,-0.792 -2.232,-1.584 -2.95199,-2.448 l -3.096,5.472 c 2.88,2.376 6.04799,4.176 9.57599,5.4 3.528,1.224 7.27201,1.8 11.232,1.8 2.59201,0 5.04001,-0.216 7.344,-0.792 2.232,-0.576 4.17601,-1.44 5.832,-2.592 1.656,-1.152 2.952,-2.664 3.96001,-4.464 0.93599,-1.8 1.43999,-3.96 1.43999,-6.408 0,-2.304 -0.432,-4.248 -1.22399,-5.832 -0.792,-1.584 -1.94401,-2.88 -3.456,-4.032 -1.51201,-1.08 -3.312,-2.016 -5.472,-2.736 -2.16001,-0.72 -4.53601,-1.44 -7.12801,-2.016 -2.30399,-0.504 -4.32,-1.008 -5.976,-1.512 -1.72799,-0.432 -3.096,-1.008 -4.248,-1.656 -1.15199,-0.648 -1.944,-1.44 -2.448,-2.376 -0.576,-0.864 -0.792,-2.016 -0.792,-3.456 0,-2.592 0.864,-4.608 2.73601,-6.12 1.872,-1.44 4.75199,-2.232 8.784,-2.232 1.51199,0 2.952,0.216 4.39199,0.504 1.44001,0.288 2.736,0.72 3.96001,1.224 1.15199,0.504 2.23199,1.08 3.24,1.656 0.93599,0.648 1.72799,1.296 2.30399,1.944 z" transform="translate(0 278.5693000823257) translate(511.95713296378517 67.41473731543469) scale(1.2541555358352994) translate(-506.91613 -68.52)"></path> 
   <path id="path285393" style="font-style: normal; font-weight: 500; font-size: 72px; line-height: 1; font-family: &quot;Raleway Medium Alt1&quot;; font-variant-ligatures: none; text-align: center; text-anchor: middle; fill: rgb(238, 230, 184);" d="m 567.56713,120 h 6.48 V 81.12 h -6.48 z m -17.64,-51.12 v 5.76 h 41.76 v -5.76 z" transform="translate(0 278.5693000823257) translate(574.6787054664444 67.86623330833542) scale(1.2541555358352994) translate(-549.92713 -68.88)"></path> 
   <path id="path285395" style="font-style: normal; font-weight: 500; font-size: 72px; line-height: 1; font-family: &quot;Raleway Medium Alt1&quot;; font-variant-ligatures: none; text-align: center; text-anchor: middle; fill: rgb(238, 230, 184);" d="m 605.45938,74.64 h 27.576 v -5.76 h -34.05601 v 15.84 h 6.48001 z m -6.48001,39.6 V 120 h 34.704 v -5.76 z m 6.48001,-17.64 h 23.976 v -5.4 h -30.45601 v 16.56 h 6.48001 z" transform="translate(0 278.5693000823257) translate(644.9769325584132 67.86623330833542) scale(1.2541555358352994) translate(-598.97937 -68.88)"></path> 
   <path id="path285397" style="font-style: normal; font-weight: 500; font-size: 72px; line-height: 1; font-family: &quot;Raleway Medium Alt1&quot;; font-variant-ligatures: none; text-align: center; text-anchor: middle; fill: rgb(238, 230, 184);" d="M 642.57312,68.88 V 120 h 6.48001 V 80.472 l 11.44799,20.448 3.45601,-5.904 -14.544,-26.136 z m 43.92,0 -18.576,33.192 -3.38399,5.904 1.58399,2.808 h 3.67201 L 686.78112,80.472 V 120 h 6.48 V 68.88 Z" transform="translate(0 278.5693000823257) translate(708.4293641995804 67.86623330833542) scale(1.2541555358352994) translate(-642.57312 -68.88)"></path> 
  </g> 
  <g id="tagline" style="font-style:oblique;font-weight:600;font-size:32px;line-height:1;font-family:Raleway;font-variant-ligatures:none;text-align:center;text-anchor:middle"></g> 
 </g> 
</svg>