<svg xmlns:dc="http://purl.org/dc/elements/1.1/" xmlns:cc="http://creativecommons.org/ns#" xmlns:rdf="http://www.w3.org/1999/02/22-rdf-syntax-ns#" xmlns:svg="http://www.w3.org/2000/svg" xmlns="http://www.w3.org/2000/svg" id="svg70836" viewbox="0 0 1024 768" height="768px" width="1024px" version="1.1"> <metadata id="metadata70842"> 
  <rdf:rdf> 
   <cc:work rdf:about=""> 
    <dc:format>
     image/svg+xml
    </dc:format> 
    <dc:type rdf:resource="http://purl.org/dc/dcmitype/StillImage"></dc:type> 
   </cc:work> 
  </rdf:rdf> 
 </metadata> <defs id="defs70840"></defs> <g id="logo-group"> 
  <g id="title" style="font-style:normal;font-weight:200;font-size:72px;line-height:1;font-family:Phenomena;font-variant-ligatures:none;text-align:center;text-anchor:middle" aria-label="O7SELECTED"> 
   <path id="path70844" style="font-style: normal; font-weight: 200; font-size: 72px; line-height: 1; font-family: Phenomena; font-variant-ligatures: none; text-align: center; text-anchor: middle; fill: rgb(247, 231, 186);" d="m 392.4935,120.504 c 7.056,0 11.592,-4.896 11.592,-13.248 v -24.84 c 0,-8.424 -4.536,-13.32 -11.592,-13.32 -7.056,0 -11.592,4.896 -11.592,13.32 v 24.84 c 0,8.352 4.536,13.248 11.592,13.248 z m 0,-1.368 c -6.192,0 -10.152,-4.32 -10.152,-11.88 v -24.84 c 0,-7.632 3.96,-11.952 10.152,-11.952 6.192,0 10.152,4.32 10.152,11.952 v 24.84 c 0,7.56 -3.96,11.88 -10.152,11.88 z" transform="translate(0 278.97821732027705) translate(252.00000000000006 71.36858135061325) scale(1.3092593109675417) translate(-380.9015 -69.096)"></path> 
   <path id="path70846" style="font-style: normal; font-weight: 200; font-size: 72px; line-height: 1; font-family: Phenomena; font-variant-ligatures: none; text-align: center; text-anchor: middle; fill: rgb(247, 231, 186);" d="m 410.66,69.96 v 0.648 c 0,0.216 0.144,0.36 0.36,0.36 h 18 l -12.168,48.6 c -0.072,0.288 0.144,0.432 0.36,0.432 h 0.72 c 0.216,0 0.288,-0.072 0.36,-0.288 l 12.24,-48.816 c 0.072,-0.36 0.072,-0.576 0.072,-0.864 0,-0.288 -0.216,-0.432 -0.432,-0.432 H 411.02 c -0.216,0 -0.36,0.144 -0.36,0.36 z" transform="translate(0 278.97821732027705) translate(310.6004828699408 72.02844804334089) scale(1.3092593109675417) translate(-410.66 -69.6)"></path> 
   <path id="path70848" style="font-style: normal; font-weight: 200; font-size: 72px; line-height: 1; font-family: Phenomena; font-variant-ligatures: none; text-align: center; text-anchor: middle; fill: rgb(82, 165, 136);" d="m 448.29125,120.504 c 6.84,0 11.16,-4.968 11.16,-11.232 0,-14.76 -20.592,-16.056 -20.592,-28.944 0,-6.12 4.032,-9.864 9.432,-9.864 5.328,0 9.216,3.744 9.36,10.152 0,0.216 0.144,0.36 0.36,0.36 h 0.72 c 0.216,0 0.36,-0.144 0.36,-0.36 0,-7.056 -4.752,-11.52 -10.8,-11.52 -6.264,0 -10.872,4.464 -10.872,11.232 0,13.968 20.592,14.904 20.592,28.944 0,5.544 -3.6,9.864 -9.72,9.864 -5.976,0 -9.648,-4.32 -9.792,-10.152 0,-0.216 -0.144,-0.36 -0.36,-0.36 h -0.72 c -0.216,0 -0.36,0.144 -0.36,0.36 0,6.624 4.392,11.52 11.232,11.52 z" transform="translate(0 278.97821732027705) translate(364.80283639951375 71.36858135061325) scale(1.3092593109675417) translate(-437.05925 -69.096)"></path> 
   <path id="path70850" style="font-style: normal; font-weight: 200; font-size: 72px; line-height: 1; font-family: Phenomena; font-variant-ligatures: none; text-align: center; text-anchor: middle; fill: rgb(82, 165, 136);" d="m 478.54588,120.144 h 6.47999 c 0.216,0 0.36,-0.144 0.36,-0.36 v -0.648 c 0,-0.216 -0.144,-0.36 -0.36,-0.36 h -6.47999 c -6.048,0 -9.72001,-4.32 -9.72001,-10.512 V 95.016 h 14.76 c 0.216,0 0.36,-0.144 0.36,-0.36 v -0.648 c 0,-0.216 -0.144,-0.36 -0.36,-0.36 h -14.76 V 81.336 c 0,-6.192 3.67201,-10.512 9.72001,-10.512 h 6.47999 c 0.216,0 0.36,-0.144 0.36,-0.36 v -0.648 c 0,-0.216 -0.144,-0.36 -0.36,-0.36 h -6.47999 c -6.91201,0 -11.16001,5.04 -11.16001,11.88 v 26.928 c 0,6.84 4.248,11.88 11.16001,11.88 z" transform="translate(0 278.97821732027705) translate(424.1471356692013 71.83991470256157) scale(1.3092593109675417) translate(-467.38587 -69.456)"></path> 
   <path id="path70852" style="font-style: normal; font-weight: 200; font-size: 72px; line-height: 1; font-family: Phenomena; font-variant-ligatures: none; text-align: center; text-anchor: middle; fill: rgb(82, 165, 136);" d="m 505.14087,118.632 c -5.76,0 -9.71999,-4.752 -9.71999,-10.512 V 69.96 c 0,-0.216 -0.144,-0.36 -0.36001,-0.36 h -0.72 c -0.216,0 -0.35999,0.144 -0.35999,0.36 v 38.16 c 0,6.552 4.67999,11.88 11.15999,11.88 h 5.40001 c 0.21599,0 0.35999,-0.144 0.35999,-0.36 v -0.648 c 0,-0.216 -0.144,-0.36 -0.35999,-0.36 z" transform="translate(0 278.97821732027705) translate(478.6057898014893 72.02844804334089) scale(1.3092593109675417) translate(-493.98088 -69.6)"></path> 
   <path id="path70854" style="font-style: normal; font-weight: 200; font-size: 72px; line-height: 1; font-family: Phenomena; font-variant-ligatures: none; text-align: center; text-anchor: middle; fill: rgb(82, 165, 136);" d="m 525.9365,120.144 h 6.48 c 0.216,0 0.36,-0.144 0.36,-0.36 v -0.648 c 0,-0.216 -0.144,-0.36 -0.36,-0.36 h -6.48 c -6.048,0 -9.72,-4.32 -9.72,-10.512 V 95.016 h 14.76 c 0.216,0 0.36,-0.144 0.36,-0.36 v -0.648 c 0,-0.216 -0.144,-0.36 -0.36,-0.36 h -14.76 V 81.336 c 0,-6.192 3.672,-10.512 9.72,-10.512 h 6.48 c 0.216,0 0.36,-0.144 0.36,-0.36 v -0.648 c 0,-0.216 -0.144,-0.36 -0.36,-0.36 h -6.48 c -6.912,0 -11.16,5.04 -11.16,11.88 v 26.928 c 0,6.84 4.248,11.88 11.16,11.88 z" transform="translate(0 278.97821732027705) translate(525.4715385783453 71.83991470256157) scale(1.3092593109675417) translate(-514.7765 -69.456)"></path> 
   <path id="path70856" style="font-style: normal; font-weight: 200; font-size: 72px; line-height: 1; font-family: Phenomena; font-variant-ligatures: none; text-align: center; text-anchor: middle; fill: rgb(82, 165, 136);" d="m 552.0275,120.504 c 6.624,0 11.16,-4.968 11.376,-11.448 0,-0.288 -0.144,-0.432 -0.36,-0.432 h -0.72 c -0.216,0 -0.36,0.144 -0.36,0.36 -0.144,5.832 -3.96,10.152 -9.936,10.152 -5.688,0 -9.936,-4.464 -9.936,-10.512 V 80.976 c 0,-5.976 4.248,-10.512 9.936,-10.512 5.76,0 9.432,4.392 9.576,10.152 0,0.216 0.144,0.36 0.36,0.36 h 0.72 c 0.216,0 0.36,-0.144 0.36,-0.36 -0.144,-6.408 -4.608,-11.52 -11.016,-11.52 -6.552,0 -11.376,5.256 -11.376,11.88 v 27.648 c 0,6.696 4.824,11.88 11.376,11.88 z" transform="translate(0 278.97821732027705) translate(578.9875129141435 71.36858135061325) scale(1.3092593109675417) translate(-540.6515 -69.096)"></path> 
   <path id="path70858" style="font-style: normal; font-weight: 200; font-size: 72px; line-height: 1; font-family: Phenomena; font-variant-ligatures: none; text-align: center; text-anchor: middle; fill: rgb(82, 165, 136);" d="m 589.25937,69.6 h -20.88 c -0.216,0 -0.36,0.144 -0.36,0.36 v 0.648 c 0,0.216 0.144,0.36 0.36,0.36 h 9.72 v 48.672 c 0,0.216 0.14401,0.36 0.36001,0.36 h 0.72 c 0.21599,0 0.35999,-0.144 0.35999,-0.36 V 70.968 h 9.72 c 0.216,0 0.36,-0.144 0.36,-0.36 V 69.96 c 0,-0.216 -0.144,-0.36 -0.36,-0.36 z" transform="translate(0 278.97821732027705) translate(634.4580411975058 72.02844804334089) scale(1.3092593109675417) translate(-568.01937 -69.6)"></path> 
   <path id="path70860" style="font-style: normal; font-weight: 200; font-size: 72px; line-height: 1; font-family: Phenomena; font-variant-ligatures: none; text-align: center; text-anchor: middle; fill: rgb(82, 165, 136);" d="m 605.38963,120.144 h 6.48 c 0.216,0 0.35999,-0.144 0.35999,-0.36 v -0.648 c 0,-0.216 -0.14399,-0.36 -0.35999,-0.36 h -6.48 c -6.048,0 -9.72001,-4.32 -9.72001,-10.512 V 95.016 h 14.76 c 0.216,0 0.36,-0.144 0.36,-0.36 v -0.648 c 0,-0.216 -0.144,-0.36 -0.36,-0.36 h -14.76 V 81.336 c 0,-6.192 3.67201,-10.512 9.72001,-10.512 h 6.48 c 0.216,0 0.35999,-0.144 0.35999,-0.36 v -0.648 c 0,-0.216 -0.14399,-0.36 -0.35999,-0.36 h -6.48 c -6.91201,0 -11.16,5.04 -11.16,11.88 v 26.928 c 0,6.84 4.24799,11.88 11.16,11.88 z" transform="translate(0 278.97821732027705) translate(688.4129578098991 71.83991470256157) scale(1.3092593109675417) translate(-594.22963 -69.456)"></path> 
   <path id="path70862" style="font-style: normal; font-weight: 200; font-size: 72px; line-height: 1; font-family: Phenomena; font-variant-ligatures: none; text-align: center; text-anchor: middle; fill: rgb(82, 165, 136);" d="m 622.26463,120.144 h 9.432 c 6.69599,0 11.376,-5.4 11.376,-11.88 V 80.328 c 0,-6.192 -4.68001,-10.872 -11.376,-10.872 h -9.432 c -0.43201,0 -0.72001,0.288 -0.72001,0.72 v 49.248 c 0,0.432 0.288,0.72 0.72001,0.72 z m 0.72,-1.368 V 70.824 h 8.712 c 5.904,0 9.93599,4.032 9.93599,9.504 v 27.936 c 0,5.76 -4.03199,10.512 -9.93599,10.512 z" transform="translate(0 278.97821732027705) translate(743.8142524608975 71.83991470256157) scale(1.3092593109675417) translate(-621.54462 -69.456)"></path> 
  </g> 
  <g id="tagline" style="font-style:oblique;font-weight:300;font-size:32px;line-height:1;font-family:'Fira Sans Condensed';font-variant-ligatures:none;text-align:center;text-anchor:middle"></g> 
 </g> 
</svg>