<svg xmlns:dc="http://purl.org/dc/elements/1.1/" xmlns:cc="http://creativecommons.org/ns#" xmlns:rdf="http://www.w3.org/1999/02/22-rdf-syntax-ns#" xmlns:svg="http://www.w3.org/2000/svg" xmlns="http://www.w3.org/2000/svg" id="svg111262" viewbox="0 0 1024 768" height="768px" width="1024px" version="1.1"> <metadata id="metadata111268"> 
  <rdf:rdf> 
   <cc:work rdf:about=""> 
    <dc:format>
     image/svg+xml
    </dc:format> 
    <dc:type rdf:resource="http://purl.org/dc/dcmitype/StillImage"></dc:type> 
   </cc:work> 
  </rdf:rdf> 
 </metadata> <defs id="defs111266"></defs> <g id="logo-group"> 
  <g id="title" style="font-style:normal;font-weight:700;font-size:72px;line-height:1;font-family:'Brandmark1 Bold';font-variant-ligatures:none;text-align:center;text-anchor:middle" aria-label="o7stage"> 
   <path id="path111270" style="font-style: normal; font-weight: 700; font-size: 72px; line-height: 1; font-family: &quot;Brandmark1 Bold&quot;; font-variant-ligatures: none; text-align: center; text-anchor: middle; fill: rgb(125, 189, 163);" d="m 405.27294,123.024 c 2.736,0 5.472,-0.576 7.992,-1.584 2.448,-1.08 4.68,-2.52 6.552,-4.392 1.872,-1.944 3.312,-4.104 4.392,-6.552 1.08,-2.52 1.584,-5.256 1.584,-7.992 0,-2.808 -0.504,-5.472 -1.584,-7.992 -1.08,-2.448 -2.52,-4.68 -4.392,-6.552 -1.944,-1.872 -4.104,-3.312 -6.552,-4.392 -2.52,-1.08 -5.256,-1.584 -7.992,-1.584 -2.736,0 -5.472,0.504 -7.992,1.584 -2.448,1.08 -4.608,2.52 -6.552,4.392 -1.872,1.944 -3.312,4.104 -4.392,6.552 -1.008,2.52 -1.584,5.184 -1.584,7.992 0,2.736 0.576,5.472 1.584,7.992 1.08,2.448 2.52,4.608 4.392,6.552 1.944,1.872 4.104,3.312 6.552,4.392 2.52,1.008 5.256,1.584 7.992,1.584 z m 0,-30.24 c 5.328,0 9.72,4.392 9.72,9.72 0,5.328 -4.392,9.72 -9.72,9.72 -5.328,0 -9.72,-4.392 -9.72,-9.72 0,-5.328 4.392,-9.72 9.72,-9.72 z" transform="translate(0 210.66958474783024) translate(251.99999999999994 134.38301014255347) scale(1.8588872236357517) translate(-384.75294 -81.984)"></path> 
   <path id="path111272" style="font-style: normal; font-weight: 700; font-size: 72px; line-height: 1; font-family: &quot;Brandmark1 Bold&quot;; font-variant-ligatures: none; text-align: center; text-anchor: middle; fill: rgb(125, 189, 163);" d="m 428.12281,121.512 11.16,2.232 20.592,-48.384 v -7.344 h -35.712 V 78.6 h 22.536 z" transform="translate(0 210.66958474783024) translate(332.69405272268875 108.4180734028093) scale(1.8588872236357517) translate(-424.16281 -68.016)"></path> 
   <path id="path111274" style="font-style: normal; font-weight: 700; font-size: 72px; line-height: 1; font-family: &quot;Brandmark1 Bold&quot;; font-variant-ligatures: none; text-align: center; text-anchor: middle; fill: rgb(26, 73, 93);" d="m 475.57644,122.952 c 7.272,0 13.176,-5.904 13.176,-13.176 0,-7.272 -5.904,-13.176 -13.176,-13.176 h -3.024 c -1.08,0 -1.872,-0.864 -1.872,-1.872 0,-1.08 0.792,-1.944 1.872,-1.944 h 15.048 V 81.48 h -15.048 c -7.272,0 -13.176,5.976 -13.176,13.248 0,7.272 5.904,13.176 13.176,13.176 h 3.024 c 1.008,0 1.872,0.864 1.872,1.872 0,1.08 -0.864,1.872 -1.872,1.872 h -16.848 v 11.304 z" transform="translate(0 210.66958474783024) translate(404.38320960115243 133.44613098184107) scale(1.8588872236357517) translate(-458.72844 -81.48)"></path> 
   <path id="path111276" style="font-style: normal; font-weight: 700; font-size: 72px; line-height: 1; font-family: &quot;Brandmark1 Bold&quot;; font-variant-ligatures: none; text-align: center; text-anchor: middle; fill: rgb(26, 73, 93);" d="m 515.14044,92.496 v -10.08 h -11.448 V 69.528 l -10.8,3.6 v 27.936 c 0,3.024 0.576,5.904 1.728,8.64 1.08,2.664 2.736,5.04 4.752,7.056 2.016,2.088 4.392,3.672 7.056,4.824 2.736,1.152 5.688,1.728 8.712,1.728 v -10.8 c -6.336,0 -11.448,-5.112 -11.448,-11.448 v -8.568 z" transform="translate(0 210.66958474783024) translate(475.3257816039873 111.22871088494655) scale(1.8588872236357517) translate(-492.89244 -69.528)"></path> 
   <path id="path111278" style="font-style: normal; font-weight: 700; font-size: 72px; line-height: 1; font-family: &quot;Brandmark1 Bold&quot;; font-variant-ligatures: none; text-align: center; text-anchor: middle; fill: rgb(26, 73, 93);" d="m 543.92919,81.984 0.072,2.304 c -2.88,-1.44 -6.048,-2.232 -9.288,-2.232 -2.736,0 -5.472,0.504 -7.992,1.584 -2.448,1.08 -4.608,2.52 -6.552,4.392 -1.872,1.872 -3.312,4.104 -4.392,6.552 -1.008,2.52 -1.584,5.256 -1.584,7.992 0,2.736 0.576,5.472 1.584,7.992 1.08,2.448 2.52,4.608 4.392,6.552 1.944,1.872 4.104,3.312 6.552,4.392 2.52,1.008 5.256,1.584 7.992,1.584 3.24,0 6.408,-0.792 9.288,-2.232 l -0.072,1.656 h 10.8 V 81.984 Z m -4.32,28.944 c -1.44,0.864 -3.168,1.368 -4.896,1.368 -5.328,0 -9.72,-4.392 -9.72,-9.72 0,-5.328 4.392,-9.72 9.72,-9.72 1.872,0 3.744,0.504 5.256,1.584 1.584,0.936 2.808,2.376 3.528,4.032 0.648,1.296 0.936,2.664 0.936,4.104 0,1.728 -0.432,3.384 -1.296,4.896 -0.864,1.44 -2.016,2.664 -3.528,3.456 z" transform="translate(0 210.66958474783024) translate(522.3570225273894 134.38301014255347) scale(1.8588872236357517) translate(-514.19319 -81.984)"></path> 
   <path id="path111280" style="font-style: normal; font-weight: 700; font-size: 72px; line-height: 1; font-family: &quot;Brandmark1 Bold&quot;; font-variant-ligatures: none; text-align: center; text-anchor: middle; fill: rgb(26, 73, 93);" d="m 591.99031,87.888 c -3.816,-3.816 -8.928,-5.904 -14.256,-5.904 -5.4,0 -10.512,2.088 -14.328,5.904 -3.816,3.816 -5.904,8.856 -5.904,14.256 0,5.4 2.088,10.44 5.904,14.256 3.816,3.816 8.928,5.904 14.328,5.904 3.168,0 6.264,-0.72 9,-2.088 -1.08,3.96 -4.752,6.84 -9,6.84 -2.448,0 -4.752,-0.936 -6.48,-2.592 l -7.488,7.848 c 3.816,3.6 8.712,5.544 13.896,5.544 5.4,0 10.512,-2.088 14.328,-5.904 3.816,-3.816 5.904,-8.856 5.904,-14.256 v -15.552 c 0,-5.4 -2.088,-10.44 -5.904,-14.256 z m -14.256,23.616 c -5.184,0 -9.432,-4.176 -9.432,-9.36 0,-5.184 4.248,-9.432 9.432,-9.432 5.184,0 9.36,4.248 9.36,9.432 0,5.184 -4.248,9.36 -9.36,9.36 z" transform="translate(0 210.66958474783024) translate(610.29934125684 134.38301014255347) scale(1.8588872236357517) translate(-557.50231 -81.984)"></path> 
   <path id="path111282" style="font-style: normal; font-weight: 700; font-size: 72px; line-height: 1; font-family: &quot;Brandmark1 Bold&quot;; font-variant-ligatures: none; text-align: center; text-anchor: middle; fill: rgb(26, 73, 93);" d="m 620.25819,122.808 c 2.808,0 5.544,-0.576 8.136,-1.728 2.52,-1.08 4.752,-2.664 6.624,-4.608 l -7.632,-7.2 c -1.872,2.016 -4.392,3.096 -7.128,3.096 -3.528,0 -6.624,-1.872 -8.352,-4.608 h 28.584 v -5.256 c 0,-5.4 -2.088,-10.512 -5.904,-14.328 -3.816,-3.816 -8.928,-5.976 -14.328,-5.976 -5.472,0 -10.512,2.16 -14.4,5.976 -3.816,3.816 -5.904,8.928 -5.904,14.328 0,5.4 2.088,10.512 5.904,14.328 3.888,3.816 8.928,5.976 14.4,5.976 z m -8.352,-25.488 c 1.728,-2.808 4.824,-4.68 8.352,-4.68 3.456,0 6.552,1.872 8.352,4.68 z" transform="translate(0 210.66958474783024) translate(696.6481475027011 134.78452978285878) scale(1.8588872236357517) translate(-599.95419 -82.2)"></path> 
  </g> 
  <g id="tagline" style="font-style:normal;font-weight:400;font-size:32px;line-height:1;font-family:Montserrat;font-variant-ligatures:none;text-align:center;text-anchor:middle"></g> 
 </g> 
</svg>