<svg xmlns:dc="http://purl.org/dc/elements/1.1/" xmlns:cc="http://creativecommons.org/ns#" xmlns:rdf="http://www.w3.org/1999/02/22-rdf-syntax-ns#" xmlns:svg="http://www.w3.org/2000/svg" xmlns="http://www.w3.org/2000/svg" id="svg19535" viewbox="0 0 1024 768" height="768px" width="1024px" version="1.1"> <metadata id="metadata19541"> 
  <rdf:rdf> 
   <cc:work rdf:about=""> 
    <dc:format>
     image/svg+xml
    </dc:format> 
    <dc:type rdf:resource="http://purl.org/dc/dcmitype/StillImage"></dc:type> 
   </cc:work> 
  </rdf:rdf> 
 </metadata> <defs id="defs19539"></defs> <g id="logo-group"> 
  <g id="title" style="font-style:normal;font-weight:400;font-size:72px;line-height:1;font-family:'Abril Fatface';font-variant-ligatures:none;text-align:center;text-anchor:middle" aria-label="o7Ster"> 
   <path id="path19543" style="font-style: normal; font-weight: 400; font-size: 72px; line-height: 1; font-family: &quot;Abril Fatface&quot;; font-variant-ligatures: none; text-align: center; text-anchor: middle; fill: rgb(255, 255, 255);" d="m 425.93694,105.816 v -6.12 q 0,-6.984 -0.792,-10.152 -0.72,-3.24 -3.456,-3.24 -1.584,0 -2.592,0.936 -0.936,0.864 -1.368,2.952 -0.648,3.24 -0.648,9.864 v 5.616 q 0,7.848 0.432,9.432 0.504,1.584 1.008,2.592 0.792,1.728 3.096,1.728 2.808,0 3.672,-3.24 0.648,-2.304 0.648,-10.368 z m -4.464,14.904 q -9,0 -13.608,-4.608 -4.608,-4.608 -4.608,-13.176 0,-8.64 4.896,-13.248 4.968,-4.68 13.896,-4.68 8.928,0 13.32,4.32 4.392,4.248 4.392,13.032 0,18.36 -18.288,18.36 z" transform="translate(0 177.34047680228406) translate(252.00000000000006 183.44753176302646) scale(2.379252914584821) translate(-403.25694 -85.008)"></path> 
   <path id="path19545" style="font-style: normal; font-weight: 400; font-size: 72px; line-height: 1; font-family: &quot;Abril Fatface&quot;; font-variant-ligatures: none; text-align: center; text-anchor: middle; fill: rgb(255, 255, 255);" d="m 457.97469,120.72 q -3.888,0 -6.12,-2.088 -2.232,-2.16 -2.232,-5.256 0,-3.168 2.088,-6.912 2.16,-3.816 9.288,-12.096 l 11.88,-13.752 h -18.432 q -5.112,0 -6.768,1.296 -1.584,1.224 -2.52,5.976 h -1.152 l 0.792,-18.288 h 32.256 v 7.776 l -7.992,13.968 q -5.328,9.432 -6.84,13.536 -1.44,4.032 -1.44,7.704 0,3.672 2.16,6.768 l -0.504,0.864 q -2.016,0.504 -4.464,0.504 z" transform="translate(0 177.34047680228406) translate(348.95396145610283 146.7880028551035) scale(2.379252914584821) translate(-444.00669 -69.6)"></path> 
   <path id="path19547" style="font-style: normal; font-weight: 400; font-size: 72px; line-height: 1; font-family: &quot;Abril Fatface&quot;; font-variant-ligatures: none; text-align: center; text-anchor: middle; fill: rgb(215, 218, 199);" d="m 501.15781,119.208 q 3.6,0 6.336,-1.944 2.808,-1.944 2.808,-5.832 0,-3.96 -3.024,-6.048 -2.952,-2.088 -8.496,-3.6 -5.472,-1.584 -7.992,-2.736 -2.448,-1.152 -4.68,-3.024 -4.464,-3.744 -4.464,-11.592 0,-6.408 4.536,-11.016 4.608,-4.608 12.528,-4.608 3.816,0 7.92,1.152 4.176,1.08 5.184,1.08 1.008,0 1.8,-1.44 h 0.792 l 0.504,14.544 h -1.152 q -3.456,-6.264 -7.272,-10.008 -3.744,-3.816 -8.208,-3.816 -4.392,0 -6.84,2.088 -2.448,2.016 -2.448,5.472 0,3.384 2.88,5.256 2.952,1.8 7.2,2.952 4.248,1.152 5.544,1.584 1.368,0.432 3.312,1.224 2.016,0.72 3.24,1.584 1.296,0.792 2.664,2.088 1.44,1.224 2.232,2.736 1.944,3.456 1.944,8.208 0,7.776 -4.896,12.528 -4.824,4.68 -12.744,4.68 -4.104,0 -9.432,-1.08 -5.256,-1.08 -5.832,-1.08 -1.008,0 -1.944,2.16 h -1.008 l -0.72,-17.136 h 1.224 q 3.168,6.264 8.064,10.944 4.968,4.68 10.44,4.68 z" transform="translate(0 177.34047680228406) translate(437.99302878896026 144.90363454675236) scale(2.379252914584821) translate(-481.42981 -68.808)"></path> 
   <path id="path19549" style="font-style: normal; font-weight: 400; font-size: 72px; line-height: 1; font-family: &quot;Abril Fatface&quot;; font-variant-ligatures: none; text-align: center; text-anchor: middle; fill: rgb(215, 218, 199);" d="m 525.24969,109.704 v -22.68 h -3.96 v -1.296 h 3.96 V 76.44 l 13.392,-3.312 v 12.6 h 9.36 v 1.296 h -9.36 v 24.264 q 0,3.384 0.648,4.968 0.72,1.584 2.88,1.584 2.16,0 3.744,-2.16 1.656,-2.16 2.16,-5.904 l 1.224,0.144 q -0.576,4.968 -3.168,7.92 -2.592,2.88 -8.568,2.88 -5.976,0 -9.144,-2.376 -3.168,-2.376 -3.168,-8.64 z" transform="translate(0 177.34047680228406) translate(532.8297644539614 155.18200713775877) scale(2.379252914584821) translate(-521.28969 -73.128)"></path> 
   <path id="path19551" style="font-style: normal; font-weight: 400; font-size: 72px; line-height: 1; font-family: &quot;Abril Fatface&quot;; font-variant-ligatures: none; text-align: center; text-anchor: middle; fill: rgb(215, 218, 199);" d="m 568.99194,120.72 q -9.288,0 -13.968,-4.752 -4.608,-4.824 -4.608,-13.32 0,-8.568 5.184,-13.104 5.256,-4.536 13.32,-4.536 16.344,0 15.696,16.416 h -20.304 v 2.808 q 0,7.056 1.8,10.656 1.8,3.6 6.264,3.6 8.352,0 10.944,-8.928 l 1.296,0.216 q -1.368,5.184 -4.968,8.064 -3.528,2.88 -10.656,2.88 z m -4.608,-20.736 h 7.416 v -3.528 q 0,-5.832 -0.72,-7.92 -0.648,-2.16 -2.736,-2.16 -2.016,0 -3.024,2.304 -0.936,2.232 -0.936,7.776 z" transform="translate(0 177.34047680228406) translate(602.1284796573875 183.44753176302646) scale(2.379252914584821) translate(-550.41594 -85.008)"></path> 
   <path id="path19553" style="font-style: normal; font-weight: 400; font-size: 72px; line-height: 1; font-family: &quot;Abril Fatface&quot;; font-variant-ligatures: none; text-align: center; text-anchor: middle; fill: rgb(215, 218, 199);" d="m 611.22894,87.744 q -2.664,0 -4.68,3.456 -2.016,3.456 -2.016,8.208 v 19.296 h 5.112 V 120 h -22.464 v -1.296 h 3.96 v -31.68 h -3.96 v -1.296 h 17.352 v 6.912 q 0.936,-3.672 3.6,-5.616 2.664,-2.016 6.048,-2.016 3.384,0 5.472,1.944 2.16,1.872 2.16,5.4 0,3.456 -1.584,5.328 -1.584,1.872 -4.896,1.872 -3.24,0 -4.824,-2.16 -1.512,-2.16 -0.36,-5.976 h 2.592 q 1.8,-3.672 -1.512,-3.672 z" transform="translate(0 177.34047680228406) translate(689.6017130620985 183.44753176302646) scale(2.379252914584821) translate(-587.18094 -85.008)"></path> 
  </g> 
  <g id="tagline" style="font-style:oblique;font-weight:normal;font-size:32px;line-height:1;font-family:'Droid Serif';font-variant-ligatures:none;text-align:center;text-anchor:middle"></g> 
 </g> 
</svg>