<svg xmlns:dc="http://purl.org/dc/elements/1.1/" xmlns:cc="http://creativecommons.org/ns#" xmlns:rdf="http://www.w3.org/1999/02/22-rdf-syntax-ns#" xmlns:svg="http://www.w3.org/2000/svg" xmlns="http://www.w3.org/2000/svg" id="svg48180" viewbox="0 0 1024 768" height="768px" width="1024px" version="1.1"> <metadata id="metadata48186"> 
  <rdf:rdf> 
   <cc:work rdf:about=""> 
    <dc:format>
     image/svg+xml
    </dc:format> 
    <dc:type rdf:resource="http://purl.org/dc/dcmitype/StillImage"></dc:type> 
   </cc:work> 
  </rdf:rdf> 
 </metadata> <defs id="defs48184"></defs> <g id="logo-group"> 
  <g id="title" style="font-style:normal;font-weight:700;font-size:72px;line-height:1;font-family:Phenomena;font-variant-ligatures:none;text-align:center;text-anchor:middle" aria-label="O7Smart"> 
   <path id="path48188" style="font-style: normal; font-weight: 700; font-size: 72px; line-height: 1; font-family: Phenomena; font-variant-ligatures: none; text-align: center; text-anchor: middle; fill: rgb(105, 115, 110);" d="m 428.76969,120.72 c 7.488,0 12.672,-5.472 12.672,-13.032 V 81.912 c 0,-7.56 -5.184,-13.032 -12.672,-13.032 -7.488,0 -12.744,5.472 -12.744,13.536 v 24.768 c 0,8.064 5.256,13.536 12.744,13.536 z m 0,-6.048 c -3.672,0 -6.192,-2.736 -6.192,-7.2 V 82.128 c 0,-4.464 2.52,-7.2 6.192,-7.2 3.672,0 6.12,2.736 6.12,6.696 v 26.352 c 0,3.96 -2.448,6.696 -6.12,6.696 z" transform="translate(0 148.18005865368247) translate(251.9999999999999 166.200149788337) scale(2.6859487483788764) translate(-416.02569 -68.88)"></path> 
   <path id="path48190" style="font-style: normal; font-weight: 700; font-size: 72px; line-height: 1; font-family: Phenomena; font-variant-ligatures: none; text-align: center; text-anchor: middle; fill: rgb(105, 115, 110);" d="m 445.50631,70.536 v 4.104 c 0,0.648 0.36,1.008 0.936,1.008 h 13.752 l -10.44,43.272 c -0.144,0.648 0.144,1.08 0.864,1.08 h 4.536 c 0.576,0 0.936,-0.288 1.08,-0.864 L 466.74631,75 c 0.288,-1.224 0.36,-2.088 0.36,-3.384 0,-1.368 -0.792,-2.016 -2.16,-2.016 h -18.504 c -0.576,0 -0.936,0.36 -0.936,0.936 z" transform="translate(0 148.18005865368247) translate(331.1834343904331 168.13403288716978) scale(2.6859487483788764) translate(-445.50631 -69.6)"></path> 
   <path id="path48192" style="font-style: normal; font-weight: 700; font-size: 72px; line-height: 1; font-family: Phenomena; font-variant-ligatures: none; text-align: center; text-anchor: middle; fill: rgb(105, 115, 110);" d="m 483.79906,120.792 c 7.488,0 12.456,-4.68 12.456,-12.096 0,-14.688 -18.144,-18.072 -18.144,-28.368 0,-3.6 1.944,-5.472 5.472,-5.472 3.384,0 5.328,2.448 5.544,7.776 0,0.576 0.36,0.936 0.936,0.936 h 4.536 c 0.648,0 0.936,-0.36 0.936,-0.936 -0.288,-8.424 -4.968,-13.824 -12.024,-13.824 -7.128,0 -11.88,4.464 -11.88,11.52 0,13.824 18.072,17.208 18.072,28.368 0,3.888 -2.016,5.976 -5.832,5.976 -3.888,0 -5.976,-2.736 -6.12,-8.208 -0.072,-0.576 -0.432,-0.936 -1.008,-0.936 h -4.536 c -0.648,0 -1.008,0.36 -1.008,1.008 0.288,8.712 5.112,14.256 12.6,14.256 z" transform="translate(0 148.18005865368247) translate(400.1928440953444 166.00676147845377) scale(2.6859487483788764) translate(-471.19906 -68.808)"></path> 
   <path id="path48194" style="font-style: normal; font-weight: 700; font-size: 72px; line-height: 1; font-family: Phenomena; font-variant-ligatures: none; text-align: center; text-anchor: middle; fill: rgb(105, 115, 110);" d="m 527.67519,83.208 c -3.384,0 -6.12,1.8 -7.776,4.392 -1.656,-2.592 -4.464,-4.392 -7.776,-4.392 -6.552,0 -10.872,4.896 -10.872,11.736 v 24.048 c 0,0.648 0.36,1.008 1.008,1.008 h 4.104 c 0.648,0 1.008,-0.36 1.008,-1.008 V 94.728 c 0,-3.384 1.728,-5.616 4.752,-5.616 3.024,0 4.68,2.232 4.68,5.616 v 24.264 c 0,0.648 0.36,1.008 1.008,1.008 h 4.176 c 0.576,0 0.936,-0.36 0.936,-1.008 V 94.728 c 0,-3.384 1.728,-5.616 4.752,-5.616 3.024,0 4.68,2.232 4.68,5.616 v 24.264 c 0,0.648 0.36,1.008 1.008,1.008 h 4.176 c 0.576,0 0.936,-0.36 0.936,-1.008 V 94.944 c 0,-6.84 -4.248,-11.736 -10.8,-11.736 z" transform="translate(0 148.18005865368247) translate(480.9113250549638 204.6844234551096) scale(2.6859487483788764) translate(-501.25119 -83.208)"></path> 
   <path id="path48196" style="font-style: normal; font-weight: 700; font-size: 72px; line-height: 1; font-family: Phenomena; font-variant-ligatures: none; text-align: center; text-anchor: middle; fill: rgb(105, 115, 110);" d="m 555.85081,120.72 c 6.912,0 11.232,-4.752 11.232,-11.376 V 94.872 c 0,-6.768 -4.392,-11.664 -11.232,-11.664 -6.408,0 -10.656,4.464 -11.088,10.728 0,0.576 0.36,1.008 0.936,1.008 h 4.176 c 0.648,0 0.936,-0.216 1.008,-0.864 0.216,-2.952 1.872,-4.968 4.896,-4.968 3.24,0 5.184,2.232 5.184,5.472 v 3.96 h -5.4 c -6.768,0 -11.376,4.608 -11.376,10.584 0,6.768 4.68,11.592 11.664,11.592 z m -0.072,-5.904 c -3.384,0 -5.4,-2.232 -5.4,-5.688 0,-2.808 2.016,-5.04 5.4,-5.04 h 5.184 v 5.256 c 0,3.312 -1.872,5.472 -5.184,5.472 z" transform="translate(0 148.18005865368247) translate(596.234199854835 204.6844234551096) scale(2.6859487483788764) translate(-544.18681 -83.208)"></path> 
   <path id="path48198" style="font-style: normal; font-weight: 700; font-size: 72px; line-height: 1; font-family: Phenomena; font-variant-ligatures: none; text-align: center; text-anchor: middle; fill: rgb(105, 115, 110);" d="m 574.25919,120 h 4.176 c 0.648,0 1.008,-0.36 1.008,-1.008 v -23.04 c 0,-3.888 2.448,-6.264 6.192,-6.264 h 2.592 c 0.576,0 0.936,-0.36 0.936,-0.936 v -3.888 c 0,-0.648 -0.36,-1.008 -0.936,-1.008 h -2.664 c -7.272,0 -12.312,4.824 -12.312,12.6 v 22.536 c 0,0.648 0.36,1.008 1.008,1.008 z" transform="translate(0 148.18005865368247) translate(674.2996349382429 206.42491824405909) scale(2.6859487483788764) translate(-573.25119 -83.856)"></path> 
   <path id="path48200" style="font-style: normal; font-weight: 700; font-size: 72px; line-height: 1; font-family: Phenomena; font-variant-ligatures: none; text-align: center; text-anchor: middle; fill: rgb(105, 115, 110);" d="m 608.61781,114.384 h -0.792 c -3.672,0 -5.544,-2.304 -5.544,-6.84 V 89.616 h 5.544 c 0.576,0 0.936,-0.36 0.936,-0.936 v -3.744 c 0,-0.576 -0.36,-0.936 -0.936,-0.936 h -5.544 v -9.288 c 0,-0.648 -0.36,-1.008 -0.936,-1.008 h -4.176 c -0.648,0 -1.008,0.36 -1.008,1.008 V 84 h -4.032 c -0.576,0 -0.936,0.36 -0.936,0.936 v 3.744 c 0,0.576 0.36,0.936 0.936,0.936 h 4.032 v 17.856 c 0,7.92 4.248,12.744 11.376,12.744 h 1.08 c 0.648,0 1.008,-0.36 1.008,-0.936 v -3.96 c 0,-0.576 -0.36,-0.936 -1.008,-0.936 z" transform="translate(0 148.18005865368247) translate(722.4925926698807 179.1571665505167) scale(2.6859487483788764) translate(-591.19381 -73.704)"></path> 
  </g> 
  <g id="tagline" style="font-style:oblique;font-weight:normal;font-size:32px;line-height:1;font-family:'Fira Sans Condensed';font-variant-ligatures:none;text-align:center;text-anchor:middle"></g> 
 </g> 
</svg>