<svg xmlns:dc="http://purl.org/dc/elements/1.1/" xmlns:cc="http://creativecommons.org/ns#" xmlns:rdf="http://www.w3.org/1999/02/22-rdf-syntax-ns#" xmlns:svg="http://www.w3.org/2000/svg" xmlns="http://www.w3.org/2000/svg" id="svg298173" viewbox="0 0 1024 768" height="768px" width="1024px" version="1.1"> <metadata id="metadata298179"> 
  <rdf:rdf> 
   <cc:work rdf:about=""> 
    <dc:format>
     image/svg+xml
    </dc:format> 
    <dc:type rdf:resource="http://purl.org/dc/dcmitype/StillImage"></dc:type> 
   </cc:work> 
  </rdf:rdf> 
 </metadata> <defs id="defs298177"></defs> <g id="logo-group"> 
  <g id="title" style="font-style:oblique;font-weight:700;font-size:72px;line-height:1;font-family:'Uni Neue';font-variant-ligatures:none;text-align:center;text-anchor:middle" aria-label="o7Sec"> 
   <path id="path298181" style="font-style: oblique; font-weight: 700; font-size: 72px; line-height: 1; font-family: &quot;Uni Neue&quot;; font-variant-ligatures: none; text-align: center; text-anchor: middle; fill: rgb(40, 40, 40);" d="m 452.27431,106.68 1.656,-9.072 c 1.512,-8.784 -4.248,-16.056 -14.112,-16.056 -10.008,0 -17.064,5.4 -18.648,14.112 l -1.512,8.928 c -1.656,9.144 4.176,16.344 13.824,16.344 10.584,0 17.136,-5.184 18.792,-14.256 z m -21.816,-1.008 1.656,-9.288 c 0.576,-3.24 3.024,-5.4 6.48,-5.4 3.456,0 4.968,2.664 4.392,5.904 l -1.656,9.216 c -0.576,3.384 -2.88,5.4 -6.624,5.4 -3.384,0 -4.896,-2.304 -4.248,-5.832 z" transform="translate(0 140.51569303317967) translate(252 208.28744674048517) scale(2.769661648279443) translate(-419.37846 -81.552)"></path> 
   <path id="path298183" style="font-style: oblique; font-weight: 700; font-size: 72px; line-height: 1; font-family: &quot;Uni Neue&quot;; font-variant-ligatures: none; text-align: center; text-anchor: middle; fill: rgb(40, 40, 40);" d="m 469.49356,120 c 0.72,0 1.152,-0.288 1.512,-0.864 l 24.84,-41.688 c 0.288,-0.504 0.432,-0.936 0.504,-1.44 l 1.008,-6.12 c 0.144,-0.792 -0.288,-1.368 -1.08,-1.368 h -31.896 c -0.792,0 -1.224,0.36 -1.296,1.152 l -1.368,7.776 c -0.144,0.792 0.288,1.368 1.152,1.368 h 19.872 l -23.688,39.672 c -0.504,0.864 -0.072,1.512 0.864,1.512 z" transform="translate(0 140.51569303317967) translate(361.2970249865824 172.19321614010744) scale(2.769661648279443) translate(-458.84069 -68.52)"></path> 
   <path id="path298185" style="font-style: oblique; font-weight: 700; font-size: 72px; line-height: 1; font-family: &quot;Uni Neue&quot;; font-variant-ligatures: none; text-align: center; text-anchor: middle; fill: rgb(94, 94, 94);" d="m 533.47119,106.608 c 2.376,-12.168 -8.064,-15.84 -14.616,-17.856 -4.608,-1.368 -7.632,-2.592 -7.056,-6.048 0.576,-2.88 3.024,-4.752 6.912,-4.752 4.104,0 8.352,1.44 11.592,3.528 0.648,0.432 1.224,0.36 1.728,-0.216 l 5.04,-6.48 c 0.504,-0.648 0.432,-1.296 -0.216,-1.728 -4.968,-3.672 -10.008,-5.472 -16.848,-5.472 -9.72,0 -17.712,3.888 -19.44,13.968 -1.728,10.224 5.256,14.976 12.96,17.208 5.328,1.512 9,2.952 8.424,6.552 -0.576,3.384 -4.248,5.04 -8.424,5.04 -4.464,0 -8.28,-1.656 -12.24,-4.752 -0.648,-0.504 -1.296,-0.504 -1.8,0.144 l -5.184,6.408 c -0.504,0.648 -0.432,1.296 0.144,1.8 4.896,4.32 10.296,6.984 17.856,6.984 9.36,0 18.864,-3.096 21.168,-14.328 z" transform="translate(0 140.51569303317967) translate(458.58266442675614 169.6008128373179) scale(2.769661648279443) translate(-493.96615 -67.584)"></path> 
   <path id="path298187" style="font-style: oblique; font-weight: 700; font-size: 72px; line-height: 1; font-family: &quot;Uni Neue&quot;; font-variant-ligatures: none; text-align: center; text-anchor: middle; fill: rgb(94, 94, 94);" d="m 540.42706,95.376 -1.872,10.44 c -1.656,9.36 4.896,15.12 14.328,15.12 6.264,0 11.16,-1.728 15.048,-4.392 0.648,-0.36 0.72,-1.008 0.432,-1.728 l -2.952,-5.544 c -0.36,-0.792 -0.936,-0.864 -1.656,-0.36 -2.88,1.728 -6.192,2.88 -9.36,2.88 -3.96,0 -5.688,-1.872 -4.968,-5.688 l 0.216,-1.008 h 20.016 c 0.72,0 1.152,-0.36 1.296,-1.08 l 1.224,-6.984 c 1.944,-10.584 -4.608,-15.48 -13.824,-15.48 -8.712,0 -16.2,4.392 -17.928,13.824 z m 21.024,2.52 h -10.512 l 0.36,-1.944 c 0.648,-3.384 3.024,-5.256 6.12,-5.256 3.672,0 4.896,2.52 4.392,5.4 z" transform="translate(0 140.51569303317967) translate(581.3688833254197 208.28744674048517) scale(2.769661648279443) translate(-538.29872 -81.552)"></path> 
   <path id="path298189" style="font-style: oblique; font-weight: 700; font-size: 72px; line-height: 1; font-family: &quot;Uni Neue&quot;; font-variant-ligatures: none; text-align: center; text-anchor: middle; fill: rgb(94, 94, 94);" d="m 602.38531,117.84 c 0.792,-0.432 0.936,-1.008 0.576,-1.728 l -2.808,-6.192 c -0.36,-0.72 -1.008,-0.864 -1.728,-0.432 -2.304,1.368 -4.752,2.088 -6.768,2.088 -3.528,0 -5.472,-2.232 -4.608,-6.624 l 1.512,-8.496 c 0.648,-3.528 2.952,-5.544 6.768,-5.544 2.016,0 3.96,0.576 5.544,1.512 0.72,0.432 1.224,0.36 1.728,-0.216 l 4.248,-5.472 c 0.432,-0.648 0.36,-1.296 -0.216,-1.728 -2.88,-2.088 -6.408,-3.456 -10.944,-3.456 -9.144,0 -16.344,4.68 -17.928,13.752 l -1.584,8.928 c -1.8,10.224 4.104,16.704 13.824,16.704 4.32,0 8.496,-0.936 12.384,-3.096 z" transform="translate(0 140.51569303317967) translate(685.3881795581233 208.28744674048517) scale(2.769661648279443) translate(-575.8554 -81.552)"></path> 
  </g> 
  <g id="tagline" style="font-style:oblique;font-weight:400;font-size:32px;line-height:1;font-family:Lato;font-variant-ligatures:none;text-align:center;text-anchor:middle"></g> 
 </g> 
</svg>