<svg xmlns:dc="http://purl.org/dc/elements/1.1/" xmlns:cc="http://creativecommons.org/ns#" xmlns:rdf="http://www.w3.org/1999/02/22-rdf-syntax-ns#" xmlns:svg="http://www.w3.org/2000/svg" xmlns="http://www.w3.org/2000/svg" id="svg270651" viewbox="0 0 1024 768" height="768px" width="1024px" version="1.1"> <metadata id="metadata270657"> 
  <rdf:rdf> 
   <cc:work rdf:about=""> 
    <dc:format>
     image/svg+xml
    </dc:format> 
    <dc:type rdf:resource="http://purl.org/dc/dcmitype/StillImage"></dc:type> 
   </cc:work> 
  </rdf:rdf> 
 </metadata> <defs id="defs270655"></defs> <g id="logo-group"> 
  <g id="title" style="font-style:normal;font-weight:300;font-size:72px;line-height:1;font-family:'Montserrat Light Alt1';font-variant-ligatures:none;text-align:center;text-anchor:middle" aria-label="O7Supplies"> 
   <path id="path270659" style="font-style: normal; font-weight: 300; font-size: 72px; line-height: 1; font-family: &quot;Montserrat Light Alt1&quot;; font-variant-ligatures: none; text-align: center; text-anchor: middle; fill: rgb(22, 22, 22);" d="m 325.78381,117.048 c 3.96,2.232 8.424,3.312 13.392,3.312 4.896,0 9.36,-1.08 13.392,-3.312 3.96,-2.16 7.056,-5.256 9.36,-9.144 2.304,-3.888 3.456,-8.208 3.456,-13.104 0,-4.824 -1.152,-9.216 -3.456,-13.104 -2.304,-3.888 -5.4,-6.912 -9.36,-9.144 -4.032,-2.16 -8.496,-3.312 -13.392,-3.312 -4.968,0 -9.432,1.152 -13.392,3.384 -4.032,2.232 -7.128,5.256 -9.432,9.144 -2.304,3.888 -3.384,8.28 -3.384,13.032 0,4.824 1.08,9.144 3.384,13.032 2.304,3.888 5.4,6.984 9.432,9.216 z m 24.84,-2.952 c -3.456,1.944 -7.272,2.88 -11.448,2.88 -4.248,0 -8.064,-0.936 -11.52,-2.88 -3.456,-1.872 -6.12,-4.536 -8.064,-7.92 -2.016,-3.384 -2.952,-7.2 -2.952,-11.376 0,-4.176 0.936,-7.92 2.952,-11.304 1.944,-3.384 4.608,-6.048 8.064,-7.992 3.456,-1.872 7.272,-2.88 11.52,-2.88 4.176,0 7.992,1.008 11.448,2.88 3.384,1.944 6.048,4.608 8.064,7.992 1.944,3.384 2.952,7.128 2.952,11.304 0,4.176 -1.008,7.992 -2.952,11.376 -2.016,3.384 -4.68,6.048 -8.064,7.92 z" transform="translate(0 278.33299422737764) translate(251.99999999999994 67.83545803111903) scale(1.2191140674627245) translate(-312.96781 -69.24)"></path> 
   <path id="path270661" style="font-style: normal; font-weight: 300; font-size: 72px; line-height: 1; font-family: &quot;Montserrat Light Alt1&quot;; font-variant-ligatures: none; text-align: center; text-anchor: middle; fill: rgb(22, 22, 22);" d="m 407.92794,69.6 h -36.144 v 12.96 h 3.6 v -9.648 h 28.296 L 382.22394,120 h 4.032 l 21.672,-47.808 z" transform="translate(0 278.33299422737764) translate(327.3609136791045 68.27433909540562) scale(1.2191140674627245) translate(-371.78394 -69.6)"></path> 
   <path id="path270663" style="font-style: normal; font-weight: 300; font-size: 72px; line-height: 1; font-family: &quot;Montserrat Light Alt1&quot;; font-variant-ligatures: none; text-align: center; text-anchor: middle; fill: rgb(22, 22, 22);" d="m 421.84644,118.488 c 3.312,1.296 6.84,1.872 10.584,1.872 3.96,0 7.344,-0.576 10.08,-1.8 2.736,-1.152 4.752,-2.808 6.048,-4.824 1.296,-2.016 2.016,-4.248 2.016,-6.696 0,-2.952 -0.792,-5.328 -2.376,-7.056 -1.584,-1.728 -3.456,-3.096 -5.616,-3.96 -2.232,-0.864 -5.184,-1.728 -8.856,-2.664 -3.312,-0.792 -5.976,-1.584 -7.848,-2.304 -1.944,-0.72 -3.528,-1.728 -4.824,-3.096 -1.296,-1.296 -1.944,-3.096 -1.944,-5.4 0,-2.952 1.152,-5.4 3.6,-7.272 2.376,-1.872 5.904,-2.808 10.584,-2.808 2.304,0 4.68,0.36 7.128,1.08 2.448,0.72 4.68,1.8 6.696,3.168 l 1.368,-2.952 c -2.016,-1.368 -4.32,-2.448 -6.984,-3.312 -2.736,-0.792 -5.472,-1.224 -8.208,-1.224 -4.032,0 -7.344,0.648 -10.008,1.8 -2.664,1.224 -4.608,2.88 -5.904,4.896 -1.296,2.016 -1.944,4.248 -1.944,6.696 0,3.024 0.72,5.472 2.304,7.272 1.584,1.8 3.456,3.096 5.688,3.96 2.232,0.864 5.184,1.8 8.928,2.664 3.24,0.792 5.832,1.512 7.776,2.232 1.872,0.72 3.528,1.8 4.824,3.096 1.296,1.368 1.944,3.168 1.944,5.4 0,2.952 -1.224,5.328 -3.672,7.128 -2.448,1.872 -6.12,2.736 -10.872,2.736 -3.312,0 -6.48,-0.576 -9.504,-1.728 -3.024,-1.152 -5.4,-2.736 -7.128,-4.608 l -1.656,2.736 c 1.872,2.016 4.464,3.672 7.776,4.968 z" transform="translate(0 278.33299422737764) translate(382.57032289525523 67.83545803111903) scale(1.2191140674627245) translate(-414.07044 -69.24)"></path> 
   <path id="path270665" style="font-style: normal; font-weight: 300; font-size: 72px; line-height: 1; font-family: &quot;Montserrat Light Alt1&quot;; font-variant-ligatures: none; text-align: center; text-anchor: middle; fill: rgb(22, 22, 22);" d="m 494.80944,82.416 h -3.6 v 20.016 c 0,4.464 -1.296,8.064 -3.744,10.656 -2.448,2.664 -5.832,3.96 -10.008,3.96 -3.96,0 -6.984,-1.08 -9.144,-3.312 -2.16,-2.16 -3.24,-5.4 -3.24,-9.648 V 82.416 h -3.6 v 21.96 c 0,5.184 1.368,9.072 4.176,11.808 2.736,2.736 6.624,4.104 11.52,4.104 3.312,0 6.192,-0.72 8.64,-2.16 2.448,-1.44 4.248,-3.528 5.544,-6.192 V 120 h 3.456 z" transform="translate(0 278.33299422737764) translate(444.01732923757885 83.89850498400793) scale(1.2191140674627245) translate(-461.47344 -82.416)"></path> 
   <path id="path270667" style="font-style: normal; font-weight: 300; font-size: 72px; line-height: 1; font-family: &quot;Montserrat Light Alt1&quot;; font-variant-ligatures: none; text-align: center; text-anchor: middle; fill: rgb(22, 22, 22);" d="m 538.50781,84.576 c -2.88,-1.584 -6.048,-2.448 -9.504,-2.448 -3.384,0 -6.408,0.864 -9.144,2.448 -2.736,1.584 -4.824,3.816 -6.264,6.696 v -8.856 h -3.456 v 51.552 h 3.6 v -22.536 c 1.44,2.808 3.528,4.968 6.264,6.552 2.664,1.584 5.688,2.304 9,2.304 3.456,0 6.624,-0.792 9.504,-2.376 2.808,-1.584 5.04,-3.888 6.624,-6.768 1.584,-2.88 2.448,-6.192 2.448,-9.936 0,-3.672 -0.864,-6.984 -2.448,-9.864 -1.584,-2.88 -3.816,-5.112 -6.624,-6.768 z m -1.944,30.456 c -2.304,1.368 -4.896,2.016 -7.776,2.016 -2.88,0 -5.472,-0.648 -7.776,-2.016 -2.304,-1.296 -4.104,-3.168 -5.4,-5.616 -1.296,-2.376 -1.944,-5.112 -1.944,-8.208 0,-3.024 0.648,-5.76 1.944,-8.208 1.296,-2.376 3.096,-4.248 5.4,-5.616 2.304,-1.296 4.896,-2.016 7.776,-2.016 2.88,0 5.472,0.72 7.776,2.016 2.304,1.368 4.104,3.24 5.4,5.616 1.296,2.448 2.016,5.184 2.016,8.208 0,3.096 -0.72,5.832 -2.016,8.208 -1.296,2.448 -3.096,4.32 -5.4,5.616 z" transform="translate(0 278.33299422737764) translate(507.004527719313 83.54740013257864) scale(1.2191140674627245) translate(-510.13981 -82.128)"></path> 
   <path id="path270669" style="font-style: normal; font-weight: 300; font-size: 72px; line-height: 1; font-family: &quot;Montserrat Light Alt1&quot;; font-variant-ligatures: none; text-align: center; text-anchor: middle; fill: rgb(22, 22, 22);" d="m 587.16406,84.576 c -2.88,-1.584 -6.048,-2.448 -9.504,-2.448 -3.384,0 -6.408,0.864 -9.144,2.448 -2.736,1.584 -4.824,3.816 -6.264,6.696 v -8.856 h -3.456 v 51.552 h 3.6 v -22.536 c 1.44,2.808 3.528,4.968 6.264,6.552 2.664,1.584 5.688,2.304 9,2.304 3.456,0 6.624,-0.792 9.504,-2.376 2.808,-1.584 5.04,-3.888 6.624,-6.768 1.584,-2.88 2.448,-6.192 2.448,-9.936 0,-3.672 -0.864,-6.984 -2.448,-9.864 -1.584,-2.88 -3.816,-5.112 -6.624,-6.768 z m -1.944,30.456 c -2.304,1.368 -4.896,2.016 -7.776,2.016 -2.88,0 -5.472,-0.648 -7.776,-2.016 -2.304,-1.296 -4.104,-3.168 -5.4,-5.616 -1.296,-2.376 -1.944,-5.112 -1.944,-8.208 0,-3.024 0.648,-5.76 1.944,-8.208 1.296,-2.376 3.096,-4.248 5.4,-5.616 2.304,-1.296 4.896,-2.016 7.776,-2.016 2.88,0 5.472,0.72 7.776,2.016 2.304,1.368 4.104,3.24 5.4,5.616 1.296,2.448 2.016,5.184 2.016,8.208 0,3.096 -0.72,5.832 -2.016,8.208 -1.296,2.448 -3.096,4.32 -5.4,5.616 z" transform="translate(0 278.33299422737764) translate(569.9793887666845 83.54740013257864) scale(1.2191140674627245) translate(-558.79606 -82.128)"></path> 
   <path id="path270671" style="font-style: normal; font-weight: 300; font-size: 72px; line-height: 1; font-family: &quot;Montserrat Light Alt1&quot;; font-variant-ligatures: none; text-align: center; text-anchor: middle; fill: rgb(22, 22, 22);" d="M 607.45231,66.576 V 120 h 3.6 V 66.576 Z" transform="translate(0 278.33299422737764) translate(632.9542498140559 64.58773815539834) scale(1.2191140674627245) translate(-607.45231 -66.576)"></path> 
   <path id="path270673" style="font-style: normal; font-weight: 300; font-size: 72px; line-height: 1; font-family: &quot;Montserrat Light Alt1&quot;; font-variant-ligatures: none; text-align: center; text-anchor: middle; fill: rgb(22, 22, 22);" d="M 626.29606,82.416 V 120 h 3.6 V 82.416 Z m -0.288,-9.936 c 0.576,0.576 1.224,0.792 2.088,0.792 0.792,0 1.512,-0.288 2.088,-0.864 0.576,-0.576 0.864,-1.224 0.864,-2.088 0,-0.792 -0.288,-1.44 -0.864,-2.016 -0.576,-0.576 -1.296,-0.864 -2.088,-0.864 -0.864,0 -1.512,0.288 -2.088,0.864 -0.576,0.576 -0.864,1.296 -0.864,2.088 0,0.864 0.288,1.512 0.864,2.088 z" transform="translate(0 278.33299422737764) translate(658.1798533194776 65.64105270968614) scale(1.2191140674627245) translate(-625.14406 -67.44)"></path> 
   <path id="path270675" style="font-style: normal; font-weight: 300; font-size: 72px; line-height: 1; font-family: &quot;Montserrat Light Alt1&quot;; font-variant-ligatures: none; text-align: center; text-anchor: middle; fill: rgb(22, 22, 22);" d="m 667.31581,115.752 c -2.088,0.864 -4.392,1.296 -6.768,1.296 -3.888,0 -7.128,-1.008 -9.864,-3.024 -2.736,-2.016 -4.608,-4.752 -5.472,-8.208 l 31.752,-6.192 c -0.216,-3.312 -1.008,-6.264 -2.592,-8.928 -1.584,-2.664 -3.672,-4.752 -6.264,-6.264 -2.592,-1.512 -5.544,-2.304 -8.784,-2.304 -3.528,0 -6.696,0.864 -9.432,2.448 -2.808,1.656 -4.968,3.888 -6.552,6.768 -1.584,2.88 -2.304,6.192 -2.304,9.864 0,3.744 0.792,6.984 2.448,9.864 1.656,2.88 3.96,5.184 6.912,6.768 2.952,1.656 6.264,2.448 10.08,2.448 2.88,0 5.544,-0.504 8.064,-1.512 2.376,-1.008 4.464,-2.52 6.12,-4.608 l -2.088,-2.376 c -1.44,1.8 -3.168,3.096 -5.256,3.96 z m -15.624,-28.44 c 2.232,-1.296 4.752,-2.016 7.632,-2.016 2.448,0 4.752,0.576 6.768,1.656 2.016,1.08 3.6,2.592 4.896,4.392 1.224,1.872 2.016,3.96 2.376,6.192 l -28.656,5.616 c -0.144,-0.936 -0.144,-1.656 -0.144,-2.232 0,-2.952 0.576,-5.688 1.872,-8.064 1.224,-2.376 2.952,-4.248 5.256,-5.544 z" transform="translate(0 278.33299422737764) translate(681.2110515034666 83.54740013257864) scale(1.2191140674627245) translate(-641.03581 -82.128)"></path> 
   <path id="path270677" style="font-style: normal; font-weight: 300; font-size: 72px; line-height: 1; font-family: &quot;Montserrat Light Alt1&quot;; font-variant-ligatures: none; text-align: center; text-anchor: middle; fill: rgb(22, 22, 22);" d="m 689.03506,118.92 c 2.736,0.936 5.616,1.368 8.64,1.368 4.68,0 8.352,-0.936 10.944,-2.808 2.592,-1.872 3.888,-4.32 3.888,-7.488 0,-2.304 -0.648,-4.176 -1.872,-5.544 -1.296,-1.296 -2.808,-2.304 -4.608,-2.88 -1.8,-0.576 -4.176,-1.152 -7.056,-1.728 -2.664,-0.504 -4.752,-1.008 -6.192,-1.44 -1.44,-0.432 -2.664,-1.152 -3.672,-2.088 -1.008,-0.936 -1.512,-2.232 -1.512,-3.96 0,-2.088 0.864,-3.816 2.664,-5.112 1.728,-1.296 4.392,-1.944 7.92,-1.944 2.016,0 4.032,0.288 6.048,0.864 1.944,0.576 3.672,1.44 5.256,2.52 l 1.656,-2.88 c -1.512,-1.08 -3.456,-1.944 -5.76,-2.664 -2.376,-0.648 -4.752,-1.008 -7.128,-1.008 -4.608,0 -8.136,1.008 -10.584,2.952 -2.448,1.944 -3.672,4.392 -3.672,7.344 0,2.448 0.648,4.392 1.944,5.76 1.296,1.44 2.808,2.448 4.68,3.024 1.8,0.648 4.176,1.224 7.2,1.728 2.52,0.504 4.536,0.936 5.976,1.368 1.44,0.432 2.592,1.152 3.6,2.016 1.008,0.936 1.512,2.16 1.512,3.744 0,2.232 -0.936,3.96 -2.736,5.184 -1.8,1.296 -4.608,1.872 -8.352,1.872 -2.664,0 -5.184,-0.432 -7.632,-1.296 -2.448,-0.864 -4.392,-1.944 -5.904,-3.24 l -1.656,2.88 c 1.512,1.44 3.672,2.592 6.408,3.456 z" transform="translate(0 278.33299422737764) translate(735.5728716642138 83.54740013257864) scale(1.2191140674627245) translate(-682.62706 -82.128)"></path> 
  </g> 
  <g id="tagline" style="font-style:normal;font-weight:400;font-size:32px;line-height:1;font-family:Montserrat;font-variant-ligatures:none;text-align:center;text-anchor:middle"></g> 
 </g> 
</svg>