<svg xmlns:dc="http://purl.org/dc/elements/1.1/" xmlns:cc="http://creativecommons.org/ns#" xmlns:rdf="http://www.w3.org/1999/02/22-rdf-syntax-ns#" xmlns:svg="http://www.w3.org/2000/svg" xmlns="http://www.w3.org/2000/svg" id="svg37255" viewbox="0 0 1024 768" height="768px" width="1024px" version="1.1"> <metadata id="metadata37261"> 
  <rdf:rdf> 
   <cc:work rdf:about=""> 
    <dc:format>
     image/svg+xml
    </dc:format> 
    <dc:type rdf:resource="http://purl.org/dc/dcmitype/StillImage"></dc:type> 
   </cc:work> 
  </rdf:rdf> 
 </metadata> <defs id="defs37259"></defs> <g id="logo-group"> 
  <g id="title" style="font-style:normal;font-weight:700;font-size:72px;line-height:1;font-family:'Comfortaa Bold Alt2';font-variant-ligatures:none;text-align:center;text-anchor:middle" aria-label="o7Should"> 
   <path id="path37263" style="font-style: normal; font-weight: 700; font-size: 72px; line-height: 1; font-family: &quot;Comfortaa Bold Alt2&quot;; font-variant-ligatures: none; text-align: center; text-anchor: middle; fill: rgb(155, 155, 155);" d="m 361.11556,120.288 c 5.544,0 10.224,-1.944 14.112,-5.832 3.888,-3.888 5.904,-8.568 5.904,-14.112 0,-5.544 -2.016,-10.224 -5.904,-14.112 -3.888,-3.888 -8.568,-5.904 -14.112,-5.904 -5.544,0 -10.224,2.016 -14.112,5.904 -3.888,3.888 -5.832,8.568 -5.832,14.112 0,5.544 1.944,10.224 5.832,14.112 3.888,3.888 8.568,5.832 14.112,5.832 z m 0,-33.048 c 3.6,0 6.696,1.296 9.288,3.816 2.52,2.592 3.816,5.688 3.816,9.288 0,3.6 -1.296,6.696 -3.816,9.216 -2.592,2.592 -5.688,3.816 -9.288,3.816 -3.6,0 -6.696,-1.224 -9.216,-3.816 -2.592,-2.52 -3.816,-5.616 -3.816,-9.216 0,-3.6 1.224,-6.696 3.816,-9.288 2.52,-2.52 5.616,-3.816 9.216,-3.816 z" transform="translate(0 274.0829569910907) translate(252.00000000000006 94.40088327697634) scale(1.3385230962675074) translate(-341.17156 -80.328)"></path> 
   <path id="path37265" style="font-style: normal; font-weight: 700; font-size: 72px; line-height: 1; font-family: &quot;Comfortaa Bold Alt2&quot;; font-variant-ligatures: none; text-align: center; text-anchor: middle; fill: rgb(155, 155, 155);" d="m 384.60444,70.104 c 0.72,0.72 1.584,1.008 2.664,1.008 h 21.888 l -20.664,42.912 c -0.432,0.864 -0.648,1.656 -0.648,2.304 0,1.008 0.36,1.872 1.08,2.592 0.72,0.72 1.512,1.08 2.52,1.08 0.648,0 1.296,-0.144 1.944,-0.504 0.576,-0.36 1.08,-0.864 1.44,-1.512 l 23.04,-48.6 c 0.288,-0.72 0.504,-1.368 0.504,-1.944 0,-1.008 -0.36,-1.872 -1.08,-2.592 -0.72,-0.72 -1.584,-1.08 -2.592,-1.08 h -27.432 c -1.08,0 -1.944,0.36 -2.664,1.08 -0.72,0.72 -1.008,1.584 -1.008,2.592 0,1.08 0.288,1.944 1.008,2.664 z" transform="translate(0 274.0829569910907) translate(318.15634341025003 72.23494080278641) scale(1.3385230962675074) translate(-383.59644 -63.768)"></path> 
   <path id="path37267" style="font-style: normal; font-weight: 700; font-size: 72px; line-height: 1; font-family: &quot;Comfortaa Bold Alt2&quot;; font-variant-ligatures: none; text-align: center; text-anchor: middle; fill: rgb(255, 207, 11);" d="m 457.02744,65.64 c -2.88,-1.656 -6.336,-2.52 -10.44,-2.52 -3.816,0 -7.272,0.648 -10.296,1.8 -3.024,1.152 -5.472,2.88 -7.2,5.112 -1.728,2.232 -2.592,4.896 -2.592,7.92 0,4.392 1.656,8.064 5.112,10.944 3.384,2.88 8.064,4.608 14.04,5.184 4.32,0.432 7.488,1.656 9.648,3.6 2.088,1.944 3.168,4.248 3.168,6.984 0,2.88 -1.296,5.184 -3.744,6.84 -2.52,1.656 -5.544,2.448 -9.144,2.448 -3.096,0 -5.904,-0.648 -8.424,-1.944 -2.592,-1.296 -4.248,-2.88 -5.112,-4.752 -0.36,-0.72 -0.864,-1.368 -1.584,-1.8 -0.72,-0.432 -1.44,-0.72 -2.16,-0.72 -0.36,0 -0.576,0.072 -0.72,0.072 -0.936,0.216 -1.656,0.576 -2.16,1.152 -0.576,0.576 -0.792,1.152 -0.792,1.872 0,0.432 0.072,0.864 0.36,1.44 1.44,3.456 4.032,6.192 7.848,8.28 3.816,2.16 8.064,3.168 12.744,3.168 3.528,0 6.84,-0.576 9.936,-1.8 3.096,-1.224 5.616,-3.096 7.488,-5.544 1.872,-2.448 2.808,-5.472 2.808,-8.928 0,-4.752 -1.584,-8.568 -4.752,-11.448 -3.168,-2.88 -7.632,-4.68 -13.392,-5.256 -5.184,-0.504 -8.784,-1.584 -10.8,-3.312 -2.016,-1.656 -3.024,-3.744 -3.024,-6.264 0,-2.664 1.08,-4.68 3.384,-6.12 2.232,-1.44 5.184,-2.16 8.856,-2.16 2.952,0 5.4,0.576 7.344,1.728 1.944,1.152 3.6,2.736 4.896,4.896 0.288,0.648 0.792,1.152 1.44,1.512 0.576,0.36 1.296,0.504 2.016,0.504 0.72,0 1.296,-0.144 1.872,-0.504 0.936,-0.648 1.44,-1.512 1.44,-2.592 0,-0.792 -0.288,-1.656 -0.864,-2.592 -2.016,-3.096 -4.392,-5.472 -7.2,-7.2 z" transform="translate(0 274.0829569910907) translate(382.44694624707466 71.36757783640508) scale(1.3385230962675074) translate(-424.62744 -63.12)"></path> 
   <path id="path37269" style="font-style: normal; font-weight: 700; font-size: 72px; line-height: 1; font-family: &quot;Comfortaa Bold Alt2&quot;; font-variant-ligatures: none; text-align: center; text-anchor: middle; fill: rgb(255, 207, 11);" d="m 505.01544,82.416 c -2.664,-1.44 -5.616,-2.16 -8.928,-2.16 -2.448,0 -4.68,0.432 -6.768,1.296 -2.16,0.864 -3.96,2.016 -5.472,3.528 V 67.44 c 0,-1.08 -0.36,-1.944 -1.008,-2.664 -0.72,-0.648 -1.584,-1.008 -2.664,-1.008 -1.08,0 -1.944,0.36 -2.664,1.008 -0.72,0.72 -1.008,1.584 -1.008,2.664 v 48.96 c 0,1.08 0.288,1.944 1.008,2.664 0.72,0.72 1.584,1.008 2.664,1.008 1.08,0 1.944,-0.288 2.664,-1.008 0.648,-0.72 1.008,-1.584 1.008,-2.664 V 96.096 c 0,-1.728 0.432,-3.24 1.368,-4.68 0.936,-1.368 2.232,-2.448 3.888,-3.312 1.656,-0.792 3.528,-1.224 5.544,-1.224 3.456,0 6.192,1.008 8.28,3.024 2.088,2.016 3.168,4.896 3.168,8.784 V 116.4 c 0,1.08 0.288,1.944 1.008,2.664 0.72,0.72 1.584,1.008 2.664,1.008 1.008,0 1.872,-0.288 2.592,-1.008 0.72,-0.72 1.08,-1.584 1.08,-2.664 V 98.688 c 0,-3.888 -0.792,-7.2 -2.232,-9.936 -1.512,-2.736 -3.6,-4.896 -6.192,-6.336 z" transform="translate(0 274.0829569910907) translate(461.25383206292054 72.23494080278641) scale(1.3385230962675074) translate(-476.50344 -63.768)"></path> 
   <path id="path37271" style="font-style: normal; font-weight: 700; font-size: 72px; line-height: 1; font-family: &quot;Comfortaa Bold Alt2&quot;; font-variant-ligatures: none; text-align: center; text-anchor: middle; fill: rgb(255, 207, 11);" d="m 543.50619,120.288 c 5.544,0 10.224,-1.944 14.112,-5.832 3.888,-3.888 5.904,-8.568 5.904,-14.112 0,-5.544 -2.016,-10.224 -5.904,-14.112 -3.888,-3.888 -8.568,-5.904 -14.112,-5.904 -5.544,0 -10.224,2.016 -14.112,5.904 -3.888,3.888 -5.832,8.568 -5.832,14.112 0,5.544 1.944,10.224 5.832,14.112 3.888,3.888 8.568,5.832 14.112,5.832 z m 0,-33.048 c 3.6,0 6.696,1.296 9.288,3.816 2.52,2.592 3.816,5.688 3.816,9.288 0,3.6 -1.296,6.696 -3.816,9.216 -2.592,2.592 -5.688,3.816 -9.288,3.816 -3.6,0 -6.696,-1.224 -9.216,-3.816 -2.592,-2.52 -3.816,-5.616 -3.816,-9.216 0,-3.6 1.224,-6.696 3.816,-9.288 2.52,-2.52 5.616,-3.816 9.216,-3.816 z" transform="translate(0 274.0829569910907) translate(533.6127174932717 94.40088327697634) scale(1.3385230962675074) translate(-523.56219 -80.328)"></path> 
   <path id="path37273" style="font-style: normal; font-weight: 700; font-size: 72px; line-height: 1; font-family: &quot;Comfortaa Bold Alt2&quot;; font-variant-ligatures: none; text-align: center; text-anchor: middle; fill: rgb(255, 207, 11);" d="m 606.85044,80.472 c -1.008,0 -1.872,0.36 -2.592,1.08 -0.72,0.72 -1.008,1.512 -1.008,2.52 V 102 c 0,3.096 -1.152,5.76 -3.312,7.92 -2.232,2.232 -4.824,3.312 -7.92,3.312 -3.096,0 -5.688,-1.08 -7.92,-3.312 -2.16,-2.16 -3.24,-4.824 -3.24,-7.92 V 84.072 c 0,-1.008 -0.36,-1.8 -1.08,-2.52 -0.72,-0.72 -1.512,-1.08 -2.52,-1.08 -1.008,0 -1.872,0.36 -2.592,1.08 -0.72,0.72 -1.008,1.512 -1.008,2.52 V 102 c 0,5.112 1.728,9.432 5.328,13.032 3.6,3.6 7.92,5.4 13.032,5.4 5.04,0 9.432,-1.8 13.032,-5.4 3.6,-3.6 5.4,-7.92 5.4,-13.032 V 84.072 c 0,-1.008 -0.36,-1.8 -1.08,-2.52 -0.72,-0.72 -1.512,-1.08 -2.52,-1.08 z" transform="translate(0 274.0829569910907) translate(610.0373668285354 94.59363060283886) scale(1.3385230962675074) translate(-573.65844 -80.472)"></path> 
   <path id="path37275" style="font-style: normal; font-weight: 700; font-size: 72px; line-height: 1; font-family: &quot;Comfortaa Bold Alt2&quot;; font-variant-ligatures: none; text-align: center; text-anchor: middle; fill: rgb(255, 207, 11);" d="m 623.02456,64.776 c -0.72,0.72 -1.008,1.584 -1.008,2.592 v 39.312 c 0,2.592 0.432,4.896 1.368,6.912 0.864,2.016 2.16,3.6 3.816,4.752 1.656,1.152 3.528,1.656 5.616,1.656 h 0.144 c 1.44,0 2.592,-0.288 3.528,-1.008 0.864,-0.648 1.368,-1.512 1.368,-2.592 0,-1.008 -0.36,-1.872 -0.936,-2.592 -0.576,-0.648 -1.368,-1.008 -2.304,-1.008 h -1.8 c -1.08,0 -1.944,-0.576 -2.592,-1.728 -0.72,-1.152 -1.008,-2.592 -1.008,-4.392 V 67.368 c 0,-1.008 -0.36,-1.872 -1.008,-2.592 -0.72,-0.648 -1.584,-1.008 -2.592,-1.008 -1.08,0 -1.944,0.36 -2.592,1.008 z" transform="translate(0 274.0829569910907) translate(684.1354890144835 72.23494080278641) scale(1.3385230962675074) translate(-622.01656 -63.768)"></path> 
   <path id="path37277" style="font-style: normal; font-weight: 700; font-size: 72px; line-height: 1; font-family: &quot;Comfortaa Bold Alt2&quot;; font-variant-ligatures: none; text-align: center; text-anchor: middle; fill: rgb(255, 207, 11);" d="m 646.53144,114.456 c 3.888,3.96 8.568,5.904 14.112,5.904 5.544,0 10.224,-1.944 14.112,-5.904 3.888,-3.888 5.904,-8.568 5.904,-14.112 v -33.12 c 0,-0.936 -0.36,-1.728 -1.08,-2.448 -0.648,-0.648 -1.44,-1.008 -2.376,-1.008 -1.008,0 -1.8,0.36 -2.448,1.008 -0.72,0.72 -1.008,1.512 -1.008,2.448 v 18 c -3.744,-3.24 -8.136,-4.824 -13.104,-4.824 -5.544,0 -10.224,1.944 -14.112,5.832 -3.888,3.888 -5.832,8.64 -5.832,14.112 0,5.544 1.944,10.224 5.832,14.112 z m 14.112,-27.144 c 3.6,0 6.696,1.296 9.216,3.816 2.592,2.52 3.888,5.616 3.888,9.216 0,3.6 -1.296,6.696 -3.888,9.288 -2.52,2.52 -5.616,3.816 -9.216,3.816 -3.6,0 -6.696,-1.296 -9.216,-3.816 -2.592,-2.592 -3.816,-5.688 -3.816,-9.288 0,-3.6 1.224,-6.696 3.816,-9.216 2.52,-2.52 5.616,-3.816 9.216,-3.816 z" transform="translate(0 274.0829569910907) translate(718.5126170731502 72.23494080278641) scale(1.3385230962675074) translate(-640.69944 -63.768)"></path> 
  </g> 
  <g id="tagline" style="font-style:normal;font-weight:500;font-size:32px;line-height:1;font-family:Raleway;font-variant-ligatures:none;text-align:center;text-anchor:middle"></g> 
 </g> 
</svg>