<svg xmlns:dc="http://purl.org/dc/elements/1.1/" xmlns:cc="http://creativecommons.org/ns#" xmlns:rdf="http://www.w3.org/1999/02/22-rdf-syntax-ns#" xmlns:svg="http://www.w3.org/2000/svg" xmlns="http://www.w3.org/2000/svg" id="svg25506" viewbox="0 0 1024 768" height="768px" width="1024px" version="1.1"> <metadata id="metadata25512"> 
  <rdf:rdf> 
   <cc:work rdf:about=""> 
    <dc:format>
     image/svg+xml
    </dc:format> 
    <dc:type rdf:resource="http://purl.org/dc/dcmitype/StillImage"></dc:type> 
   </cc:work> 
  </rdf:rdf> 
 </metadata> <defs id="defs25510"></defs> <g id="logo-group"> 
  <g id="title" style="font-style:normal;font-weight:500;font-size:72px;line-height:1;font-family:'Raleway Medium Alt1';font-variant-ligatures:none;text-align:center;text-anchor:middle" aria-label="o7Subnetwork"> 
   <path id="path25514" style="font-style: normal; font-weight: 500; font-size: 72px; line-height: 1; font-family: &quot;Raleway Medium Alt1&quot;; font-variant-ligatures: none; text-align: center; text-anchor: middle; fill: rgb(130, 140, 142);" d="m 288.69988,120.72 c 2.808,0 5.39999,-0.504 7.704,-1.584 2.30399,-1.008 4.32,-2.448 6.04799,-4.248 1.656,-1.728 2.952,-3.816 3.888,-6.192 0.864,-2.304 1.368,-4.824 1.368,-7.416 0,-2.592 -0.504,-5.112 -1.44,-7.488 -0.93599,-2.304 -2.23199,-4.392 -3.888,-6.192 -1.65599,-1.728 -3.672,-3.168 -5.97599,-4.248 -2.37601,-1.008 -4.96801,-1.584 -7.704,-1.584 -2.808,0 -5.40001,0.576 -7.70401,1.584 -2.304,1.08 -4.31999,2.52 -5.97599,4.248 -1.65601,1.8 -2.952,3.888 -3.88801,6.192 -0.936,2.376 -1.368,4.896 -1.368,7.488 0,2.592 0.432,5.112 1.368,7.416 0.864,2.376 2.16,4.464 3.816,6.192 1.65601,1.8 3.672,3.24 5.976,4.248 2.304,1.08 4.89601,1.584 7.77601,1.584 z m -12.45601,-19.368 c 0,-1.944 0.28801,-3.744 0.936,-5.472 0.648,-1.728 1.512,-3.168 2.66401,-4.464 1.15199,-1.296 2.44799,-2.304 3.95999,-3.024 1.512,-0.72 3.168,-1.152 4.89601,-1.152 1.72799,0 3.312,0.36 4.82399,1.08 1.512,0.72 2.88001,1.728 4.03201,3.024 1.15199,1.296 2.01599,2.736 2.66399,4.464 0.64801,1.728 1.008,3.528 1.008,5.4 0,2.016 -0.35999,3.816 -1.008,5.544 -0.648,1.728 -1.512,3.168 -2.66399,4.464 -1.152,1.296 -2.52001,2.232 -4.03201,2.952 -1.51199,0.72 -3.096,1.08 -4.82399,1.08 -1.72801,0 -3.38401,-0.36 -4.89601,-1.08 -1.512,-0.72 -2.808,-1.656 -3.95999,-2.952 -1.15201,-1.224 -2.01601,-2.664 -2.66401,-4.392 -0.64799,-1.656 -0.936,-3.456 -0.936,-5.472 z" transform="translate(0 319.53000000000003) translate(240.45843750000006 50.7) scale(0.8333333333333334) translate(-269.76387 -81.768)"></path> 
   <path id="path25516" style="font-style: normal; font-weight: 500; font-size: 72px; line-height: 1; font-family: &quot;Raleway Medium Alt1&quot;; font-variant-ligatures: none; text-align: center; text-anchor: middle; fill: rgb(130, 140, 142);" d="m 338.56775,83.856 -22.896,45.288 h 7.2 l 25.704,-51.12 h -36.288 v 5.832 z" transform="translate(0 319.53000000000003) translate(288.39500416666675 47.58000000000001) scale(0.8333333333333334) translate(-312.28775 -78.024)"></path> 
   <path id="path25518" style="font-style: normal; font-weight: 500; font-size: 72px; line-height: 1; font-family: &quot;Raleway Medium Alt1&quot;; font-variant-ligatures: none; text-align: center; text-anchor: middle; fill: rgb(129, 108, 61);" d="m 385.019,79.608 3.024,-5.256 c -2.16,-1.728 -4.68,-3.168 -7.416,-4.248 -2.808,-1.008 -5.904,-1.584 -9.36,-1.584 -2.664,0 -5.112,0.36 -7.344,1.008 -2.304,0.648 -4.248,1.584 -5.832,2.88 -1.656,1.296 -2.952,2.88 -3.816,4.752 -0.936,1.872 -1.368,4.032 -1.368,6.48 0,2.016 0.288,3.744 1.008,5.184 0.648,1.44 1.656,2.664 2.952,3.672 1.296,1.008 2.952,1.872 4.968,2.592 1.944,0.72 4.248,1.44 6.84,2.016 2.304,0.576 4.392,1.152 6.264,1.728 1.872,0.576 3.384,1.152 4.68,1.872 1.224,0.72 2.16,1.584 2.808,2.592 0.648,1.008 1.008,2.16 1.008,3.6 0,2.592 -1.008,4.536 -3.024,5.832 -2.016,1.296 -4.896,1.944 -8.496,1.944 -2.016,0 -3.888,-0.144 -5.688,-0.576 -1.8,-0.432 -3.456,-0.936 -5.04,-1.584 -1.584,-0.648 -2.952,-1.368 -4.176,-2.232 -1.224,-0.792 -2.232,-1.584 -2.952,-2.448 l -3.096,5.472 c 2.88,2.376 6.048,4.176 9.576,5.4 3.528,1.224 7.272,1.8 11.232,1.8 2.592,0 5.04,-0.216 7.344,-0.792 2.232,-0.576 4.176,-1.44 5.832,-2.592 1.656,-1.152 2.952,-2.664 3.96,-4.464 0.936,-1.8 1.44,-3.96 1.44,-6.408 0,-2.304 -0.432,-4.248 -1.224,-5.832 -0.792,-1.584 -1.944,-2.88 -3.456,-4.032 -1.512,-1.08 -3.312,-2.016 -5.472,-2.736 -2.16,-0.72 -4.536,-1.44 -7.128,-2.016 -2.304,-0.504 -4.32,-1.008 -5.976,-1.512 -1.728,-0.432 -3.096,-1.008 -4.248,-1.656 -1.152,-0.648 -1.944,-1.44 -2.448,-2.376 -0.576,-0.864 -0.792,-2.016 -0.792,-3.456 0,-2.592 0.864,-4.608 2.736,-6.12 1.872,-1.44 4.752,-2.232 8.784,-2.232 1.512,0 2.952,0.216 4.392,0.504 1.44,0.288 2.736,0.72 3.96,1.224 1.152,0.504 2.232,1.08 3.24,1.656 0.936,0.648 1.728,1.296 2.304,1.944 z" transform="translate(0 319.53000000000003) translate(333.12437916666676 39.66) scale(0.8333333333333334) translate(-350.963 -68.52)"></path> 
   <path id="path25520" style="font-style: normal; font-weight: 500; font-size: 72px; line-height: 1; font-family: &quot;Raleway Medium Alt1&quot;; font-variant-ligatures: none; text-align: center; text-anchor: middle; fill: rgb(129, 108, 61);" d="m 409.454,120.72 c 3.24,0 6.264,-0.72 9,-2.232 2.736,-1.512 4.896,-3.672 6.624,-6.552 l 0.144,4.392 c 0,1.152 0.432,2.088 1.296,2.808 0.864,0.72 1.872,1.08 3.168,1.08 0.36,0 0.72,0 1.152,0 0.432,0 1.008,-0.072 1.728,-0.216 v -5.472 c -1.368,0 -2.016,-0.792 -2.016,-2.304 V 82.416 h -6.336 v 23.544 c -1.152,2.88 -2.808,5.184 -5.112,6.84 -2.304,1.656 -4.68,2.448 -7.272,2.448 -5.328,0 -7.992,-3.816 -7.992,-11.52 V 82.416 h -6.336 v 22.536 c 0,5.256 1.008,9.216 3.024,11.808 2.016,2.664 4.968,3.96 8.928,3.96 z" transform="translate(0 319.53000000000003) translate(384.4068791666667 51.24000000000001) scale(0.8333333333333334) translate(-397.502 -82.416)"></path> 
   <path id="path25522" style="font-style: normal; font-weight: 500; font-size: 72px; line-height: 1; font-family: &quot;Raleway Medium Alt1&quot;; font-variant-ligatures: none; text-align: center; text-anchor: middle; fill: rgb(129, 108, 61);" d="m 460.4705,120.72 c 2.448,0 4.824,-0.504 6.984,-1.512 2.16,-1.008 4.104,-2.448 5.688,-4.176 1.584,-1.728 2.808,-3.816 3.744,-6.192 0.864,-2.304 1.368,-4.824 1.368,-7.488 0,-2.448 -0.432,-4.896 -1.224,-7.272 -0.792,-2.376 -1.944,-4.464 -3.384,-6.264 -1.44,-1.8 -3.24,-3.24 -5.256,-4.392 -2.088,-1.08 -4.392,-1.656 -6.984,-1.656 -3.096,0 -5.76,0.792 -8.064,2.232 -2.304,1.512 -4.248,3.456 -5.832,5.904 V 67.44 h -6.336 V 120 h 5.616 v -7.056 c 1.368,2.304 3.24,4.176 5.688,5.616 2.376,1.44 5.04,2.16 7.992,2.16 z m -1.584,-5.472 c -1.152,0 -2.376,-0.216 -3.6,-0.648 -1.224,-0.432 -2.376,-1.008 -3.456,-1.728 -1.08,-0.72 -2.016,-1.656 -2.808,-2.664 -0.792,-1.008 -1.296,-2.088 -1.512,-3.312 V 96.024 c 0.576,-1.152 1.224,-2.304 2.016,-3.384 0.792,-1.008 1.728,-1.944 2.736,-2.736 1.008,-0.792 2.16,-1.44 3.384,-1.944 1.152,-0.432 2.448,-0.72 3.816,-0.72 1.8,0 3.456,0.432 4.968,1.224 1.512,0.792 2.808,1.8 3.888,3.096 1.08,1.296 1.944,2.808 2.52,4.536 0.576,1.728 0.936,3.456 0.936,5.256 0,1.872 -0.36,3.6 -0.936,5.256 -0.648,1.656 -1.512,3.096 -2.664,4.392 -1.152,1.296 -2.52,2.376 -4.104,3.096 -1.584,0.792 -3.312,1.152 -5.184,1.152 z" transform="translate(0 319.53000000000003) translate(433.30062916666674 38.760000000000005) scale(0.8333333333333334) translate(-441.1745 -67.44)"></path> 
   <path id="path25524" style="font-style: normal; font-weight: 500; font-size: 72px; line-height: 1; font-family: &quot;Raleway Medium Alt1&quot;; font-variant-ligatures: none; text-align: center; text-anchor: middle; fill: rgb(129, 108, 61);" d="M 518.64987,120 V 97.536 c 0,-2.232 -0.216,-4.32 -0.57599,-6.264 -0.36,-1.872 -0.93601,-3.528 -1.80001,-4.968 -0.86399,-1.44 -2.01599,-2.52 -3.456,-3.312 -1.43999,-0.792 -3.24,-1.224 -5.4,-1.224 -3.31199,0 -6.40799,0.792 -9.216,2.376 -2.808,1.584 -4.968,3.744 -6.40799,6.336 v -8.064 h -5.76 V 120 h 6.33599 V 97.32 c 0.432,-1.44 1.08001,-2.736 1.944,-3.96 0.864,-1.152 1.872,-2.232 3.024,-3.096 1.152,-0.864 2.37601,-1.512 3.67201,-2.016 1.296,-0.504 2.59199,-0.792 3.88799,-0.792 2.448,0 4.32,0.936 5.544,2.736 1.22401,1.872 1.87201,4.752 1.87201,8.784 V 120 Z" transform="translate(0 319.53000000000003) translate(483.1834458333334 50.7) scale(0.8333333333333334) translate(-486.03388 -81.768)"></path> 
   <path id="path25526" style="font-style: normal; font-weight: 500; font-size: 72px; line-height: 1; font-family: &quot;Raleway Medium Alt1&quot;; font-variant-ligatures: none; text-align: center; text-anchor: middle; fill: rgb(129, 108, 61);" d="m 545.13463,120.72 c 1.87199,0 3.67199,-0.216 5.39999,-0.72 1.728,-0.432 3.24001,-1.08 4.68,-1.944 1.44,-0.864 2.66401,-1.872 3.744,-3.024 1.08001,-1.152 1.944,-2.376 2.592,-3.816 l -5.472,-1.512 c -0.432,1.008 -1.008,1.872 -1.72799,2.592 -0.72001,0.792 -1.58401,1.44 -2.52,1.944 -1.008,0.576 -2.01601,1.008 -3.096,1.296 -1.15201,0.288 -2.23201,0.432 -3.384,0.432 -1.65601,0 -3.24,-0.288 -4.68001,-0.936 -1.43999,-0.576 -2.736,-1.44 -3.88799,-2.592 -1.15201,-1.08 -2.08801,-2.376 -2.80801,-3.96 -0.71999,-1.512 -1.15199,-3.24 -1.296,-5.112 h 31.17601 c 0,-0.216 0.072,-0.576 0.072,-1.008 0,-0.432 0.072,-0.864 0.072,-1.44 0,-2.448 -0.50399,-4.896 -1.368,-7.2 -0.864,-2.304 -2.15999,-4.392 -3.744,-6.12 -1.65599,-1.728 -3.672,-3.168 -5.976,-4.248 -2.304,-1.008 -4.89599,-1.584 -7.70399,-1.584 -2.88,0 -5.472,0.576 -7.77601,1.584 -2.376,1.008 -4.39199,2.448 -6.12,4.176 -1.728,1.8 -3.024,3.888 -3.95999,6.192 -0.93601,2.376 -1.36801,4.896 -1.36801,7.488 0,2.664 0.432,5.184 1.36801,7.56 0.93599,2.376 2.23199,4.464 3.95999,6.192 1.65601,1.8 3.672,3.24 6.048,4.248 2.30401,1.008 4.89601,1.512 7.77601,1.512 z m 12.88799,-22.032 h -25.488 c 0.144,-1.728 0.50401,-3.384 1.22401,-4.896 0.71999,-1.44 1.58399,-2.736 2.736,-3.816 1.15199,-1.08 2.448,-1.944 3.95999,-2.52 1.44001,-0.576 3.024,-0.936 4.75201,-0.936 1.65599,0 3.24,0.36 4.75199,0.936 1.44001,0.576 2.736,1.44 3.88801,2.448 1.15199,1.08 2.08799,2.376 2.80799,3.888 0.72001,1.512 1.22401,3.168 1.368,4.896 z" transform="translate(0 319.53000000000003) translate(528.9740708333334 50.7) scale(0.8333333333333334) translate(-525.98263 -81.768)"></path> 
   <path id="path25528" style="font-style: normal; font-weight: 500; font-size: 72px; line-height: 1; font-family: &quot;Raleway Medium Alt1&quot;; font-variant-ligatures: none; text-align: center; text-anchor: middle; fill: rgb(129, 108, 61);" d="m 590.13013,118.128 -1.51201,-5.04 c -0.432,0.288 -1.15199,0.576 -2.16,1.008 -1.008,0.432 -2.15999,0.576 -3.384,0.576 -1.15199,0 -2.08799,-0.288 -2.88,-0.936 -0.864,-0.576 -1.29599,-1.584 -1.36799,-3.024 V 87.384 h 8.424 v -4.968 h -8.424 V 69.888 h -6.336 v 12.528 h -5.11201 v 4.968 h 5.11201 v 25.272 c 0,2.736 0.79199,4.68 2.52,5.976 1.65599,1.296 3.672,1.872 5.976,1.872 1.008,0 1.94399,-0.072 2.87999,-0.216 0.93601,-0.144 1.8,-0.36 2.592,-0.648 0.79201,-0.288 1.51201,-0.504 2.16,-0.792 0.576,-0.288 1.08,-0.504 1.51201,-0.72 z" transform="translate(0 319.53000000000003) translate(575.9703125 40.80000000000001) scale(0.8333333333333334) translate(-567.37812 -69.888)"></path> 
   <path id="path25530" style="font-style: normal; font-weight: 500; font-size: 72px; line-height: 1; font-family: &quot;Raleway Medium Alt1&quot;; font-variant-ligatures: none; text-align: center; text-anchor: middle; fill: rgb(129, 108, 61);" d="m 643.09063,82.416 -12.88801,31.32 -6.336,-15.624 6.40801,-15.624 h -5.256 l -4.60801,12.024 -4.60799,-12.024 h -5.25601 l 6.48,15.624 -6.336,15.624 -12.95999,-31.32 h -6.048 L 607.66662,120 h 5.25601 l 7.48799,-18.36 7.56001,18.36 h 5.256 l 15.984,-37.584 z" transform="translate(0 319.53000000000003) translate(608.7240708333334 51.24000000000001) scale(0.8333333333333334) translate(-591.68263 -82.416)"></path> 
   <path id="path25532" style="font-style: normal; font-weight: 500; font-size: 72px; line-height: 1; font-family: &quot;Raleway Medium Alt1&quot;; font-variant-ligatures: none; text-align: center; text-anchor: middle; fill: rgb(129, 108, 61);" d="m 670.2155,120.72 c 2.808,0 5.4,-0.504 7.704,-1.584 2.304,-1.008 4.32,-2.448 6.048,-4.248 1.656,-1.728 2.952,-3.816 3.888,-6.192 0.864,-2.304 1.368,-4.824 1.368,-7.416 0,-2.592 -0.504,-5.112 -1.44,-7.488 -0.936,-2.304 -2.232,-4.392 -3.888,-6.192 -1.656,-1.728 -3.672,-3.168 -5.976,-4.248 -2.376,-1.008 -4.968,-1.584 -7.704,-1.584 -2.808,0 -5.4,0.576 -7.704,1.584 -2.304,1.08 -4.32,2.52 -5.976,4.248 -1.656,1.8 -2.952,3.888 -3.888,6.192 -0.936,2.376 -1.368,4.896 -1.368,7.488 0,2.592 0.432,5.112 1.368,7.416 0.864,2.376 2.16,4.464 3.816,6.192 1.656,1.8 3.672,3.24 5.976,4.248 2.304,1.08 4.896,1.584 7.776,1.584 z m -12.456,-19.368 c 0,-1.944 0.288,-3.744 0.936,-5.472 0.648,-1.728 1.512,-3.168 2.664,-4.464 1.152,-1.296 2.448,-2.304 3.96,-3.024 1.512,-0.72 3.168,-1.152 4.896,-1.152 1.728,0 3.312,0.36 4.824,1.08 1.512,0.72 2.88,1.728 4.032,3.024 1.152,1.296 2.016,2.736 2.664,4.464 0.648,1.728 1.008,3.528 1.008,5.4 0,2.016 -0.36,3.816 -1.008,5.544 -0.648,1.728 -1.512,3.168 -2.664,4.464 -1.152,1.296 -2.52,2.232 -4.032,2.952 -1.512,0.72 -3.096,1.08 -4.824,1.08 -1.728,0 -3.384,-0.36 -4.896,-1.08 -1.512,-0.72 -2.808,-1.656 -3.96,-2.952 -1.152,-1.224 -2.016,-2.664 -2.664,-4.392 -0.648,-1.656 -0.936,-3.456 -0.936,-5.472 z" transform="translate(0 319.53000000000003) translate(670.8881291666667 50.7) scale(0.8333333333333334) translate(-651.2795 -81.768)"></path> 
   <path id="path25534" style="font-style: normal; font-weight: 500; font-size: 72px; line-height: 1; font-family: &quot;Raleway Medium Alt1&quot;; font-variant-ligatures: none; text-align: center; text-anchor: middle; fill: rgb(129, 108, 61);" d="M 716.84338,87.96 V 82.2 c -0.288,0 -0.576,-0.072 -0.86401,-0.072 h -1.224 c -2.448,0.216 -4.68,1.152 -6.76799,2.736 -2.16001,1.584 -3.81601,3.672 -5.11201,6.264 v -8.712 h -5.904 V 120 h 6.336 V 96.816 c 1.00801,-2.736 2.664,-4.824 5.112,-6.408 2.44801,-1.512 5.25601,-2.304 8.42401,-2.448 z" transform="translate(0 319.53000000000003) translate(721.4646875000001 51) scale(0.8333333333333334) translate(-696.97137 -82.128)"></path> 
   <path id="path25536" style="font-style: normal; font-weight: 500; font-size: 72px; line-height: 1; font-family: &quot;Raleway Medium Alt1&quot;; font-variant-ligatures: none; text-align: center; text-anchor: middle; fill: rgb(129, 108, 61);" d="m 749.62362,120 h 6.84 l -15.696,-21.96 14.976,-15.552 h -6.98399 L 729.46362,102 V 67.44 h -6.336 V 120 h 6.336 v -11.592 l 7.20001,-6.768 z" transform="translate(0 319.53000000000003) translate(755.7615625000001 38.760000000000005) scale(0.8333333333333334) translate(-723.12762 -67.44)"></path> 
  </g> 
  <g id="tagline" style="font-style:oblique;font-weight:600;font-size:32px;line-height:1;font-family:Raleway;font-variant-ligatures:none;text-align:center;text-anchor:middle"></g> 
 </g> 
</svg>