<svg xmlns:dc="http://purl.org/dc/elements/1.1/" xmlns:cc="http://creativecommons.org/ns#" xmlns:rdf="http://www.w3.org/1999/02/22-rdf-syntax-ns#" xmlns:svg="http://www.w3.org/2000/svg" xmlns="http://www.w3.org/2000/svg" id="svg34038" viewbox="0 0 1024 768" height="768px" width="1024px" version="1.1"> <metadata id="metadata34044"> 
  <rdf:rdf> 
   <cc:work rdf:about=""> 
    <dc:format>
     image/svg+xml
    </dc:format> 
    <dc:type rdf:resource="http://purl.org/dc/dcmitype/StillImage"></dc:type> 
   </cc:work> 
  </rdf:rdf> 
 </metadata> <defs id="defs34042"></defs> <g id="logo-group"> 
  <g id="title" style="font-style:normal;font-weight:700;font-size:72px;line-height:1;font-family:'Comfortaa Bold Alt1';font-variant-ligatures:none;text-align:center;text-anchor:middle" aria-label="o7swift"> 
   <path id="path34046" style="font-style: normal; font-weight: 700; font-size: 72px; line-height: 1; font-family: &quot;Comfortaa Bold Alt1&quot;; font-variant-ligatures: none; text-align: center; text-anchor: middle; fill: rgb(244, 127, 94);" d="m 420.34737,82.92 c -3.024,-1.728 -6.408,-2.592 -10.15199,-2.592 -3.88801,0 -7.272,0.864 -10.296,2.592 -3.024,1.728 -5.40001,4.032 -7.05601,7.056 -1.728,3.024 -2.52,6.48 -2.52,10.368 0,3.888 0.792,7.272 2.52,10.296 1.656,3.024 4.03201,5.4 7.05601,7.128 3.024,1.728 6.40799,2.52 10.296,2.52 3.81599,0 7.19999,-0.792 10.22399,-2.52 3.024,-1.728 5.32801,-4.104 7.056,-7.128 1.656,-3.024 2.52,-6.408 2.52,-10.296 0,-3.888 -0.864,-7.344 -2.592,-10.368 -1.72799,-3.024 -4.032,-5.328 -7.056,-7.056 z m -16.776,5.616 c 1.944,-1.152 4.176,-1.728 6.62401,-1.728 2.44799,0 4.608,0.576 6.55199,1.728 1.944,1.152 3.456,2.808 4.536,4.824 1.08001,2.088 1.656,4.392 1.656,6.984 0,2.592 -0.57599,4.968 -1.656,6.984 -1.08,2.016 -2.592,3.6 -4.536,4.752 -1.94399,1.152 -4.104,1.728 -6.55199,1.728 -2.44801,0 -4.68001,-0.576 -6.62401,-1.728 -1.94399,-1.152 -3.456,-2.736 -4.536,-4.752 -1.152,-2.016 -1.656,-4.392 -1.656,-6.984 0,-2.592 0.504,-4.896 1.656,-6.984 1.08,-2.016 2.59201,-3.672 4.536,-4.824 z" transform="translate(0 202.71485094178882) translate(252.0000000000001 156.4870240964488) scale(2.119497859979693) translate(-390.32337 -80.328)"></path> 
   <path id="path34048" style="font-style: normal; font-weight: 700; font-size: 72px; line-height: 1; font-family: &quot;Comfortaa Bold Alt1&quot;; font-variant-ligatures: none; text-align: center; text-anchor: middle; fill: rgb(244, 127, 94);" d="m 433.61225,70.104 c 0.72,0.72 1.584,1.008 2.664,1.008 h 21.888 l -20.664,42.912 c -0.432,0.864 -0.648,1.656 -0.648,2.304 0,1.008 0.36,1.872 1.08,2.592 0.72,0.72 1.512,1.08 2.52,1.08 0.648,0 1.296,-0.144 1.944,-0.504 0.576,-0.36 1.08,-0.864 1.44,-1.512 l 23.04,-48.6 c 0.288,-0.72 0.504,-1.368 0.504,-1.944 0,-1.008 -0.36,-1.872 -1.08,-2.592 -0.72,-0.72 -1.584,-1.08 -2.592,-1.08 h -27.432 c -1.08,0 -1.944,0.36 -2.664,1.08 -0.72,0.72 -1.008,1.584 -1.008,2.592 0,1.08 0.288,1.944 1.008,2.664 z" transform="translate(0 202.71485094178882) translate(341.6142346780583 121.38813953518508) scale(2.119497859979693) translate(-432.60425 -63.768)"></path> 
   <path id="path34050" style="font-style: normal; font-weight: 700; font-size: 72px; line-height: 1; font-family: &quot;Comfortaa Bold Alt1&quot;; font-variant-ligatures: none; text-align: center; text-anchor: middle; fill: rgb(246, 233, 215);" d="m 498.18725,81.84 c -2.448,-1.008 -5.256,-1.512 -8.352,-1.512 -2.592,0 -4.968,0.432 -7.2,1.224 -2.304,0.864 -4.104,2.088 -5.472,3.672 -1.44,1.656 -2.088,3.672 -2.088,5.976 0,5.832 4.608,9.648 13.824,11.376 3.528,0.72 6.048,1.512 7.56,2.52 1.44,1.008 2.232,2.232 2.232,3.672 0,1.584 -0.792,2.808 -2.304,3.672 -1.512,0.936 -3.6,1.368 -6.336,1.368 -2.088,0 -4.032,-0.36 -5.832,-1.08 -1.872,-0.72 -3.24,-1.656 -4.104,-2.664 -0.864,-0.864 -1.8,-1.296 -2.736,-1.296 -0.792,0 -1.656,0.36 -2.52,1.008 -1.008,0.72 -1.44,1.656 -1.44,2.808 0,0.864 0.288,1.656 0.936,2.232 1.584,1.656 3.888,2.952 6.768,3.96 2.88,1.008 5.904,1.512 9.216,1.512 3.24,0 6.048,-0.504 8.352,-1.512 2.304,-1.008 4.104,-2.448 5.328,-4.248 1.152,-1.8 1.8,-3.816 1.8,-6.048 0,-2.952 -1.152,-5.4 -3.312,-7.272 -2.16,-1.872 -5.904,-3.312 -11.088,-4.392 -2.592,-0.504 -4.536,-1.008 -5.832,-1.584 -1.368,-0.576 -2.304,-1.152 -2.736,-1.8 -0.504,-0.648 -0.72,-1.44 -0.72,-2.448 0,-1.296 0.648,-2.376 2.088,-3.096 1.44,-0.72 3.24,-1.152 5.472,-1.152 1.872,0 3.528,0.288 4.896,0.72 1.296,0.432 2.592,1.224 3.816,2.304 1.008,0.936 2.088,1.368 3.384,1.368 0.792,0 1.44,-0.144 2.016,-0.576 0.792,-0.648 1.224,-1.368 1.224,-2.232 0,-0.72 -0.36,-1.512 -0.936,-2.304 -1.44,-1.728 -3.456,-3.168 -5.904,-4.176 z" transform="translate(0 202.71485094178882) translate(428.1215398331295 156.4870240964488) scale(2.119497859979693) translate(-473.41925 -80.328)"></path> 
   <path id="path34052" style="font-style: normal; font-weight: 700; font-size: 72px; line-height: 1; font-family: &quot;Comfortaa Bold Alt1&quot;; font-variant-ligatures: none; text-align: center; text-anchor: middle; fill: rgb(246, 233, 215);" d="m 559.169,81.408 c -0.504,-0.504 -1.224,-0.792 -2.232,-0.792 -1.872,0 -3.096,1.152 -3.744,3.312 l -7.92,24.768 -6.48,-25.344 c -0.288,-0.792 -0.72,-1.44 -1.296,-1.944 -0.576,-0.504 -1.368,-0.792 -2.232,-0.792 -1.008,0 -1.8,0.288 -2.376,0.792 -0.576,0.504 -1.008,1.152 -1.224,1.944 l -7.344,24.84 -7.776,-24.264 c -0.432,-1.152 -0.936,-1.944 -1.512,-2.52 -0.576,-0.504 -1.368,-0.792 -2.232,-0.792 -2.016,0 -3.024,1.008 -3.024,3.024 0,0.72 0.072,1.44 0.288,2.016 l 10.656,31.968 c 0.216,0.72 0.648,1.296 1.296,1.728 0.648,0.432 1.368,0.648 2.16,0.648 0.72,0 1.44,-0.216 2.088,-0.648 0.648,-0.432 1.08,-1.008 1.368,-1.728 l 7.416,-26.136 7.056,26.136 c 0.144,0.72 0.576,1.296 1.224,1.728 0.648,0.432 1.368,0.648 2.232,0.648 0.72,0 1.44,-0.216 2.088,-0.648 0.576,-0.432 1.008,-1.008 1.296,-1.728 l 10.656,-31.968 c 0.216,-0.576 0.36,-1.296 0.36,-2.088 0,-0.864 -0.288,-1.584 -0.792,-2.16 z" transform="translate(0 202.71485094178882) translate(505.18171315180626 157.09743948012294) scale(2.119497859979693) translate(-509.777 -80.616)"></path> 
   <path id="path34054" style="font-style: normal; font-weight: 700; font-size: 72px; line-height: 1; font-family: &quot;Comfortaa Bold Alt1&quot;; font-variant-ligatures: none; text-align: center; text-anchor: middle; fill: rgb(246, 233, 215);" d="m 569.28612,81.624 c -0.71999,0.72 -1.00799,1.584 -1.00799,2.664 v 32.04 c 0,1.08 0.288,1.944 1.00799,2.664 0.72,0.72 1.58401,1.008 2.664,1.008 1.08,0 1.94401,-0.288 2.664,-1.008 0.648,-0.72 1.008,-1.584 1.008,-2.664 v -32.04 c 0,-1.08 -0.36,-1.944 -1.008,-2.664 -0.71999,-0.648 -1.584,-1.008 -2.664,-1.008 -1.07999,0 -1.944,0.36 -2.664,1.008 z" transform="translate(0 202.71485094178882) translate(629.1747329932001 157.09743948012294) scale(2.119497859979693) translate(-568.27813 -80.616)"></path> 
   <path id="path34056" style="font-style: normal; font-weight: 700; font-size: 72px; line-height: 1; font-family: &quot;Comfortaa Bold Alt1&quot;; font-variant-ligatures: none; text-align: center; text-anchor: middle; fill: rgb(246, 233, 215);" d="m 590.075,82.056 v 6.192 28.08 c 0,1.152 0.288,2.016 1.008,2.664 0.72,0.72 1.512,1.008 2.52,1.008 1.152,0 2.088,-0.288 2.808,-1.008 0.648,-0.648 1.008,-1.512 1.008,-2.664 v -28.08 h 7.344 c 1.008,0 1.8,-0.288 2.448,-0.864 0.576,-0.576 0.936,-1.296 0.936,-2.16 0,-0.936 -0.36,-1.728 -0.936,-2.304 -0.648,-0.576 -1.44,-0.864 -2.448,-0.864 h -7.344 v -1.944 c 0,-2.88 0.792,-5.256 2.448,-7.056 1.584,-1.728 3.744,-2.664 6.48,-2.664 1.008,0 1.872,-0.288 2.592,-0.936 0.72,-0.576 1.08,-1.368 1.08,-2.376 0,-0.936 -0.36,-1.728 -1.08,-2.376 -0.72,-0.576 -1.584,-0.936 -2.592,-0.936 -3.24,0 -6.048,0.72 -8.496,2.16 -2.448,1.44 -4.392,3.384 -5.76,5.976 -1.368,2.592 -2.016,5.544 -2.016,8.928 z" transform="translate(0 202.71485094178882) translate(675.3731523124559 121.38813953518508) scale(2.119497859979693) translate(-590.075 -63.768)"></path> 
   <path id="path34058" style="font-style: normal; font-weight: 700; font-size: 72px; line-height: 1; font-family: &quot;Comfortaa Bold Alt1&quot;; font-variant-ligatures: none; text-align: center; text-anchor: middle; fill: rgb(246, 233, 215);" d="m 617.4485,82.056 v 6.192 17.784 c 0,2.664 0.504,5.04 1.656,7.128 1.08,2.16 2.592,3.816 4.536,5.04 1.944,1.224 4.104,1.8 6.48,1.8 h 1.296 c 1.224,0 2.232,-0.288 3.024,-1.008 0.792,-0.648 1.224,-1.512 1.224,-2.592 0,-1.008 -0.36,-1.872 -0.936,-2.592 -0.576,-0.648 -1.296,-1.008 -2.16,-1.008 h -2.448 c -1.584,0 -2.88,-0.648 -3.888,-1.944 -1.08,-1.296 -1.584,-2.88 -1.584,-4.824 V 88.248 h 6.12 c 1.008,0 1.8,-0.288 2.448,-0.864 0.576,-0.576 0.936,-1.296 0.936,-2.16 0,-0.936 -0.36,-1.728 -0.936,-2.304 -0.648,-0.576 -1.44,-0.864 -2.448,-0.864 h -6.12 V 71.688 c 0,-1.008 -0.36,-1.872 -1.008,-2.592 -0.72,-0.648 -1.584,-1.008 -2.592,-1.008 -1.08,0 -1.944,0.36 -2.592,1.008 -0.72,0.72 -1.008,1.584 -1.008,2.592 z" transform="translate(0 202.71485094178882) translate(733.39122698261 130.54437029029734) scale(2.119497859979693) translate(-617.4485 -68.088)"></path> 
  </g> 
  <g id="tagline" style="font-style:normal;font-weight:500;font-size:32px;line-height:1;font-family:Raleway;font-variant-ligatures:none;text-align:center;text-anchor:middle"></g> 
 </g> 
</svg>