<svg xmlns:dc="http://purl.org/dc/elements/1.1/" xmlns:cc="http://creativecommons.org/ns#" xmlns:rdf="http://www.w3.org/1999/02/22-rdf-syntax-ns#" xmlns:svg="http://www.w3.org/2000/svg" xmlns="http://www.w3.org/2000/svg" id="svg371462" viewbox="0 0 1024 768" height="768px" width="1024px" version="1.1"> <metadata id="metadata371468"> 
  <rdf:rdf> 
   <cc:work rdf:about=""> 
    <dc:format>
     image/svg+xml
    </dc:format> 
    <dc:type rdf:resource="http://purl.org/dc/dcmitype/StillImage"></dc:type> 
   </cc:work> 
  </rdf:rdf> 
 </metadata> <defs id="defs371466"></defs> <g id="logo-group"> 
  <g id="title" style="font-style:normal;font-weight:700;font-size:72px;line-height:1;font-family:Phenomena;font-variant-ligatures:none;text-align:center;text-anchor:middle" aria-label="O7TARGETING"> 
   <path id="path371470" style="font-style: normal; font-weight: 700; font-size: 72px; line-height: 1; font-family: Phenomena; font-variant-ligatures: none; text-align: center; text-anchor: middle; fill: rgb(87, 81, 108);" d="m 374.69937,120.72 c 7.488,0 12.672,-5.472 12.672,-13.032 V 81.912 c 0,-7.56 -5.184,-13.032 -12.672,-13.032 -7.488,0 -12.744,5.472 -12.744,13.536 v 24.768 c 0,8.064 5.256,13.536 12.744,13.536 z m 0,-6.048 c -3.672,0 -6.19199,-2.736 -6.19199,-7.2 V 82.128 c 0,-4.464 2.51999,-7.2 6.19199,-7.2 3.672,0 6.12,2.736 6.12,6.696 v 26.352 c 0,3.96 -2.448,6.696 -6.12,6.696 z" transform="translate(0 253.80022745037763) translate(252 89.45840689048508) scale(1.5718119467259741) translate(-361.95537 -68.88)"></path> 
   <path id="path371472" style="font-style: normal; font-weight: 700; font-size: 72px; line-height: 1; font-family: Phenomena; font-variant-ligatures: none; text-align: center; text-anchor: middle; fill: rgb(87, 81, 108);" d="m 391.436,70.536 v 4.104 c 0,0.648 0.36,1.008 0.936,1.008 h 13.752 l -10.44,43.272 c -0.144,0.648 0.144,1.08 0.864,1.08 h 4.536 c 0.576,0 0.936,-0.288 1.08,-0.864 L 412.676,75 c 0.288,-1.224 0.36,-2.088 0.36,-3.384 0,-1.368 -0.792,-2.016 -2.16,-2.016 h -18.504 c -0.576,0 -0.936,0.36 -0.936,0.936 z" transform="translate(0 253.80022745037763) translate(303.05344227118604 90.59011149212778) scale(1.5718119467259741) translate(-391.436 -69.6)"></path> 
   <path id="path371474" style="font-style: normal; font-weight: 700; font-size: 72px; line-height: 1; font-family: Phenomena; font-variant-ligatures: none; text-align: center; text-anchor: middle; fill: rgb(87, 81, 108);" d="m 438.94475,69.6 h -22.104 c -0.576,0 -0.936,0.36 -0.936,0.936 v 4.104 c 0,0.648 0.36,1.008 0.936,1.008 h 7.848 v 43.344 c 0,0.648 0.36,1.008 0.936,1.008 h 4.536 c 0.648,0 1.008,-0.36 1.008,-1.008 V 75.648 h 7.776 c 0.648,0 1.008,-0.36 1.008,-1.008 v -4.104 c 0,-0.576 -0.36,-0.936 -1.008,-0.936 z" transform="translate(0 253.80022745037763) translate(346.2291516828151 90.59011149212778) scale(1.5718119467259741) translate(-415.90475 -69.6)"></path> 
   <path id="path371476" style="font-style: normal; font-weight: 700; font-size: 72px; line-height: 1; font-family: Phenomena; font-variant-ligatures: none; text-align: center; text-anchor: middle; fill: rgb(87, 81, 108);" d="m 445.10525,120 h 4.608 c 0.576,0 0.936,-0.36 0.936,-1.008 v -15.984 h 11.664 v 15.984 c 0,0.648 0.432,1.008 1.008,1.008 h 4.536 c 0.648,0 1.008,-0.36 1.008,-1.008 V 82.128 c 0,-7.92 -4.968,-13.248 -12.384,-13.248 -7.416,0 -12.312,5.328 -12.312,13.248 v 36.864 c 0,0.648 0.36,1.008 0.936,1.008 z m 5.544,-22.968 V 81.84 c 0,-4.32 2.16,-6.84 5.832,-6.84 3.744,0 5.832,2.52 5.832,6.84 v 15.192 z" transform="translate(0 253.80022745037763) translate(395.3710662912293 89.45840689048508) scale(1.5718119467259741) translate(-444.16925 -68.88)"></path> 
   <path id="path371478" style="font-style: normal; font-weight: 700; font-size: 72px; line-height: 1; font-family: Phenomena; font-variant-ligatures: none; text-align: center; text-anchor: middle; fill: rgb(87, 81, 108);" d="m 477.58962,120 h 4.60801 c 0.57599,0 0.93599,-0.36 0.93599,-1.008 v -18 h 5.832 l 6.84001,18.144 c 0.144,0.576 0.43199,0.864 1.00799,0.864 h 4.89601 c 0.64799,0 1.15199,-0.432 0.93599,-1.08 l -7.704,-19.44 c 3.74401,-2.016 6.408,-6.048 6.408,-11.592 v -5.76 c 0,-7.848 -5.04,-13.32 -12.456,-13.32 -7.272,0 -12.24,5.472 -12.24,13.32 v 36.864 c 0,0.648 0.36,1.008 0.936,1.008 z m 5.544,-24.984 V 81.84 c 0,-4.176 2.37601,-6.912 5.832,-6.912 3.456,0 5.832,2.736 5.832,6.912 v 6.192 c 0,4.248 -2.376,6.984 -6.12,6.984 z" transform="translate(0 253.80022745037763) translate(451.145822979274 89.34523643032084) scale(1.5718119467259741) translate(-476.65362 -68.808)"></path> 
   <path id="path371480" style="font-style: normal; font-weight: 700; font-size: 72px; line-height: 1; font-family: Phenomena; font-variant-ligatures: none; text-align: center; text-anchor: middle; fill: rgb(87, 81, 108);" d="m 520.03363,120.792 c 7.48799,0 12.672,-5.472 12.672,-12.888 v -12.24 c 0,-1.872 -1.08,-2.952 -2.952,-2.952 h -8.49601 c -0.64799,0 -1.00799,0.36 -1.00799,1.008 v 3.816 c 0,0.576 0.36,0.936 1.00799,0.936 h 4.96801 v 9.792 c 0,3.744 -2.52,6.408 -6.12,6.408 -3.67201,0 -6.192,-2.664 -6.192,-6.912 V 81.84 c 0,-4.248 2.23199,-6.912 5.904,-6.912 3.456,0 5.61599,2.592 5.832,6.984 0.072,0.648 0.432,1.008 1.008,1.008 h 4.60799 c 0.57601,0 0.93601,-0.36 0.93601,-1.008 -0.216,-7.704 -5.18401,-13.104 -12.384,-13.104 -7.48801,0 -12.45601,5.4 -12.45601,13.248 v 25.416 c 0,7.848 5.184,13.32 12.67201,13.32 z" transform="translate(0 253.80022745037763) translate(504.1284600795131 89.34523643032084) scale(1.5718119467259741) translate(-507.36162 -68.808)"></path> 
   <path id="path371482" style="font-style: normal; font-weight: 700; font-size: 72px; line-height: 1; font-family: Phenomena; font-variant-ligatures: none; text-align: center; text-anchor: middle; fill: rgb(87, 81, 108);" d="m 550.4705,120.216 h 7.56 c 0.576,0 0.936,-0.36 0.936,-0.936 v -4.104 c 0,-0.648 -0.36,-1.008 -0.936,-1.008 h -7.056 c -3.744,0 -6.264,-2.88 -6.264,-6.984 v -9.72 h 11.52 c 0.648,0 1.008,-0.36 1.008,-1.008 v -3.888 c 0,-0.648 -0.36,-1.008 -1.008,-1.008 h -11.52 v -9.144 c 0,-4.104 2.52,-6.984 6.264,-6.984 h 7.056 c 0.576,0 0.936,-0.36 0.936,-1.008 V 70.32 c 0,-0.576 -0.36,-0.936 -0.936,-0.936 h -7.56 c -7.272,0 -12.312,5.472 -12.312,12.888 v 25.056 c 0,7.416 5.04,12.888 12.312,12.888 z" transform="translate(0 253.80022745037763) translate(557.2507998255771 90.25060011163497) scale(1.5718119467259741) translate(-538.1585 -69.384)"></path> 
   <path id="path371484" style="font-style: normal; font-weight: 700; font-size: 72px; line-height: 1; font-family: Phenomena; font-variant-ligatures: none; text-align: center; text-anchor: middle; fill: rgb(87, 81, 108);" d="m 585.05412,69.6 h -22.104 c -0.57599,0 -0.93599,0.36 -0.93599,0.936 v 4.104 c 0,0.648 0.36,1.008 0.93599,1.008 h 7.84801 v 43.344 c 0,0.648 0.36,1.008 0.93599,1.008 h 4.536 c 0.64801,0 1.00801,-0.36 1.00801,-1.008 V 75.648 h 7.77599 c 0.64801,0 1.00801,-0.36 1.00801,-1.008 v -4.104 c 0,-0.576 -0.36,-0.936 -1.00801,-0.936 z" transform="translate(0 253.80022745037763) translate(599.4627998964296 90.59011149212778) scale(1.5718119467259741) translate(-562.01413 -69.6)"></path> 
   <path id="path371486" style="font-style: normal; font-weight: 700; font-size: 72px; line-height: 1; font-family: Phenomena; font-variant-ligatures: none; text-align: center; text-anchor: middle; fill: rgb(87, 81, 108);" d="m 590.99188,70.536 v 48.456 c 0,0.648 0.35999,1.008 1.00799,1.008 h 4.53601 c 0.576,0 0.93599,-0.36 0.93599,-1.008 V 70.536 c 0,-0.576 -0.35999,-0.936 -0.93599,-0.936 h -4.53601 c -0.648,0 -1.00799,0.36 -1.00799,0.936 z" transform="translate(0 253.80022745037763) translate(649.7258093758462 90.59011149212778) scale(1.5718119467259741) translate(-590.99188 -69.6)"></path> 
   <path id="path371488" style="font-style: normal; font-weight: 700; font-size: 72px; line-height: 1; font-family: Phenomena; font-variant-ligatures: none; text-align: center; text-anchor: middle; fill: rgb(87, 81, 108);" d="m 606.68337,120 h 4.60801 c 0.576,0 0.936,-0.36 0.936,-1.008 V 81.768 c 0,-4.104 2.232,-6.84 5.832,-6.84 3.59999,0 5.832,2.736 5.832,6.84 v 37.224 c 0,0.648 0.43199,1.008 1.00799,1.008 h 4.53601 c 0.648,0 1.008,-0.36 1.008,-1.008 V 82.056 c 0,-7.776 -4.89601,-13.248 -12.384,-13.248 -7.48801,0 -12.312,5.472 -12.312,13.248 v 36.936 c 0,0.648 0.36,1.008 0.93599,1.008 z" transform="translate(0 253.80022745037763) translate(677.6341163959391 89.34523643032084) scale(1.5718119467259741) translate(-605.74738 -68.808)"></path> 
   <path id="path371490" style="font-style: normal; font-weight: 700; font-size: 72px; line-height: 1; font-family: Phenomena; font-variant-ligatures: none; text-align: center; text-anchor: middle; fill: rgb(87, 81, 108);" d="m 650.11175,120.792 c 7.488,0 12.672,-5.472 12.672,-12.888 v -12.24 c 0,-1.872 -1.08,-2.952 -2.952,-2.952 h -8.496 c -0.648,0 -1.008,0.36 -1.008,1.008 v 3.816 c 0,0.576 0.36,0.936 1.008,0.936 h 4.968 v 9.792 c 0,3.744 -2.52,6.408 -6.12,6.408 -3.672,0 -6.192,-2.664 -6.192,-6.912 V 81.84 c 0,-4.248 2.232,-6.912 5.904,-6.912 3.456,0 5.616,2.592 5.832,6.984 0.072,0.648 0.432,1.008 1.008,1.008 h 4.608 c 0.576,0 0.936,-0.36 0.936,-1.008 -0.216,-7.704 -5.184,-13.104 -12.384,-13.104 -7.488,0 -12.456,5.4 -12.456,13.248 v 25.416 c 0,7.848 5.184,13.32 12.672,13.32 z" transform="translate(0 253.80022745037763) translate(732.1639980221769 89.34523643032084) scale(1.5718119467259741) translate(-637.43975 -68.808)"></path> 
  </g> 
  <g id="tagline" style="font-style:oblique;font-weight:normal;font-size:32px;line-height:1;font-family:'Fira Sans Condensed';font-variant-ligatures:none;text-align:center;text-anchor:middle"></g> 
 </g> 
</svg>