<svg xmlns:dc="http://purl.org/dc/elements/1.1/" xmlns:cc="http://creativecommons.org/ns#" xmlns:rdf="http://www.w3.org/1999/02/22-rdf-syntax-ns#" xmlns:svg="http://www.w3.org/2000/svg" xmlns="http://www.w3.org/2000/svg" id="svg283168" viewbox="0 0 1024 768" height="768px" width="1024px" version="1.1"> <metadata id="metadata283174"> 
  <rdf:rdf> 
   <cc:work rdf:about=""> 
    <dc:format>
     image/svg+xml
    </dc:format> 
    <dc:type rdf:resource="http://purl.org/dc/dcmitype/StillImage"></dc:type> 
   </cc:work> 
  </rdf:rdf> 
 </metadata> <defs id="defs283172"></defs> <g id="logo-group"> 
  <g id="title" style="font-style:oblique;font-weight:700;font-size:72px;line-height:1;font-family:Averta;font-variant-ligatures:none;text-align:center;text-anchor:middle" aria-label="o7Theory"> 
   <path id="path283176" style="font-style: oblique; font-weight: 700; font-size: 72px; line-height: 1; font-family: Averta; font-variant-ligatures: none; text-align: center; text-anchor: middle; fill: rgb(232, 163, 0);" d="m 387.09969,120.648 c 13.464,0 19.584,-10.008 19.584,-21.456 0,-9.576 -5.976,-15.048 -15.048,-15.048 -12.384,0 -19.44,10.08 -19.44,21.384 0,9.648 5.976,15.12 14.904,15.12 z m 0.792,-9.648 c -2.304,0 -4.752,-1.872 -4.752,-6.048 0,-5.4 2.88,-11.16 7.632,-11.16 1.944,0 4.968,1.08 4.968,6.12 0,5.76 -3.096,11.088 -7.848,11.088 z" transform="translate(0 213.58388415483154) translate(252.00000000000006 139.204754107491) scale(1.8564930845632601) translate(-372.19569 -84.144)"></path> 
   <path id="path283178" style="font-style: oblique; font-weight: 700; font-size: 72px; line-height: 1; font-family: Averta; font-variant-ligatures: none; text-align: center; text-anchor: middle; fill: rgb(232, 163, 0);" d="m 440.28069,70.536 h -27.864 l -1.224,10.08 h 15.48 l -17.568,38.52 11.088,2.016 19.224,-43.344 z" transform="translate(0 213.58388415483154) translate(320.5213032581454 113.94159621275413) scale(1.8564930845632601) translate(-409.10469 -70.536)"></path> 
   <path id="path283180" style="font-style: oblique; font-weight: 700; font-size: 72px; line-height: 1; font-family: Averta; font-variant-ligatures: none; text-align: center; text-anchor: middle; fill: rgb(232, 163, 0);" d="m 455.43331,79.176 -5.04,40.824 h 11.52 l 5.04,-40.824 h 11.88 l 1.296,-10.296 h -35.352 l -1.296,10.296 z" transform="translate(0 213.58388415483154) translate(384.3412605588045 110.86724366471735) scale(1.8564930845632601) translate(-443.48131 -68.88)"></path> 
   <path id="path283182" style="font-style: oblique; font-weight: 700; font-size: 72px; line-height: 1; font-family: Averta; font-variant-ligatures: none; text-align: center; text-anchor: middle; fill: rgb(232, 163, 0);" d="m 486.10981,67.008 -6.552,52.992 h 10.8 l 1.512,-12.672 c 1.08,-8.928 5.76,-13.536 9.072,-13.536 2.304,0 2.736,2.232 2.088,7.128 l -2.592,19.08 h 10.8 l 2.808,-21.528 c 1.296,-9.864 -1.44,-14.328 -8.136,-14.328 -4.608,0 -8.568,1.944 -11.736,5.616 l -0.144,-0.072 2.808,-22.68 z" transform="translate(0 213.58388415483154) translate(451.31703332405095 107.39188861041491) scale(1.8564930845632601) translate(-479.55781 -67.008)"></path> 
   <path id="path283184" style="font-style: oblique; font-weight: 700; font-size: 72px; line-height: 1; font-family: Averta; font-variant-ligatures: none; text-align: center; text-anchor: middle; fill: rgb(232, 163, 0);" d="m 550.46881,93.864 c 0.072,-6.624 -6.336,-9.72 -12.024,-9.72 -11.88,0 -19.296,9.792 -19.296,21.744 -0.072,9.144 5.832,14.76 14.688,14.76 6.912,0 11.592,-2.592 15.336,-7.704 l -8.064,-4.752 c -1.944,2.592 -4.032,3.528 -6.408,3.528 -2.088,0 -4.392,-1.296 -5.04,-4.464 10.368,-1.08 20.664,-4.464 20.808,-13.392 z m -10.368,1.512 c -0.072,3.456 -4.824,4.824 -10.08,5.4 1.224,-4.896 4.392,-7.632 7.488,-7.632 1.656,0 2.664,0.792 2.592,2.232 z" transform="translate(0 213.58388415483154) translate(524.8162443144898 139.204754107491) scale(1.8564930845632601) translate(-519.14816 -84.144)"></path> 
   <path id="path283186" style="font-style: oblique; font-weight: 700; font-size: 72px; line-height: 1; font-family: Averta; font-variant-ligatures: none; text-align: center; text-anchor: middle; fill: rgb(232, 163, 0);" d="m 568.36531,120.648 c 13.464,0 19.584,-10.008 19.584,-21.456 0,-9.576 -5.976,-15.048 -15.048,-15.048 -12.384,0 -19.44,10.08 -19.44,21.384 0,9.648 5.976,15.12 14.904,15.12 z m 0.792,-9.648 c -2.304,0 -4.752,-1.872 -4.752,-6.048 0,-5.4 2.88,-11.16 7.632,-11.16 1.944,0 4.968,1.08 4.968,6.12 0,5.76 -3.096,11.088 -7.848,11.088 z" transform="translate(0 213.58388415483154) translate(588.5183699990719 139.204754107491) scale(1.8564930845632601) translate(-553.46131 -84.144)"></path> 
   <path id="path283188" style="font-style: oblique; font-weight: 700; font-size: 72px; line-height: 1; font-family: Averta; font-variant-ligatures: none; text-align: center; text-anchor: middle; fill: rgb(232, 163, 0);" d="m 596.16856,84.792 -4.32,35.208 h 10.8 l 1.584,-13.536 c 1.296,-8.352 5.616,-12.24 10.8,-10.368 l 1.512,-11.952 c -3.888,0 -7.344,1.872 -10.08,5.472 h -0.144 l 0.648,-4.824 z" transform="translate(0 213.58388415483154) translate(659.784034159473 139.204754107491) scale(1.8564930845632601) translate(-591.84856 -84.144)"></path> 
   <path id="path283190" style="font-style: oblique; font-weight: 700; font-size: 72px; line-height: 1; font-family: Averta; font-variant-ligatures: none; text-align: center; text-anchor: middle; fill: rgb(232, 163, 0);" d="m 652.29369,84.792 h -10.728 l -2.016,16.056 c -0.576,5.04 -4.824,10.152 -7.92,10.152 -2.592,0 -3.096,-1.872 -2.304,-7.56 l 2.592,-18.648 h -10.728 l -3.024,21.888 c -1.512,10.44 2.376,13.968 9,13.968 4.392,0 7.848,-2.232 10.44,-5.76 l 0.216,0.072 v 0.072 c -1.296,9.36 -4.896,11.016 -9.72,11.016 -2.88,0 -5.832,-0.792 -8.784,-2.736 l -3.384,8.136 c 4.104,2.52 8.496,3.456 12.744,3.456 8.928,0 18,-3.744 19.872,-19.656 z" transform="translate(0 213.58388415483154) translate(704.49791144528 140.40776162628794) scale(1.8564930845632601) translate(-615.93369 -84.792)"></path> 
  </g> 
  <g id="tagline" style="font-style:normal;font-weight:500;font-size:32px;line-height:1;font-family:Raleway;font-variant-ligatures:none;text-align:center;text-anchor:middle"></g> 
 </g> 
</svg>