<svg xmlns:dc="http://purl.org/dc/elements/1.1/" xmlns:cc="http://creativecommons.org/ns#" xmlns:rdf="http://www.w3.org/1999/02/22-rdf-syntax-ns#" xmlns:svg="http://www.w3.org/2000/svg" xmlns="http://www.w3.org/2000/svg" id="svg988511" viewbox="0 0 1024 768" height="768px" width="1024px" version="1.1"> <metadata id="metadata988517"> 
  <rdf:rdf> 
   <cc:work rdf:about=""> 
    <dc:format>
     image/svg+xml
    </dc:format> 
    <dc:type rdf:resource="http://purl.org/dc/dcmitype/StillImage"></dc:type> 
   </cc:work> 
  </rdf:rdf> 
 </metadata> <defs id="defs988515"></defs> <g id="logo-group"> 
  <g id="title" style="font-style:normal;font-weight:200;font-size:72px;line-height:1;font-family:Phenomena;font-variant-ligatures:none;text-align:center;text-anchor:middle" aria-label="o7Technology"> 
   <path id="path988519" style="font-style: normal; font-weight: 200; font-size: 72px; line-height: 1; font-family: Phenomena; font-variant-ligatures: none; text-align: center; text-anchor: middle; fill: rgb(55, 54, 54);" d="m 367.91562,120.504 c 6.408,0 10.22401,-4.752 10.22401,-10.944 V 94.44 c 0,-6.192 -3.81601,-10.944 -10.22401,-10.944 -6.40799,0 -10.224,4.752 -10.224,10.944 v 15.12 c 0,6.192 3.81601,10.944 10.224,10.944 z m 0,-1.296 c -5.544,0 -8.856,-4.248 -8.856,-9.648 V 94.44 c 0,-5.4 3.312,-9.648 8.856,-9.648 5.54401,0 8.856,4.248 8.856,9.648 v 15.12 c 0,5.4 -3.31199,9.648 -8.856,9.648 z" transform="translate(0 256.7766730892034) translate(252.00000000000017 100.16514755513745) scale(1.4343818572762461) translate(-357.69162 -83.496)"></path> 
   <path id="path988521" style="font-style: normal; font-weight: 200; font-size: 72px; line-height: 1; font-family: Phenomena; font-variant-ligatures: none; text-align: center; text-anchor: middle; fill: rgb(55, 54, 54);" d="m 384.50375,69.96 v 0.648 c 0,0.216 0.144,0.36 0.36,0.36 h 18 l -12.168,48.6 c -0.072,0.288 0.144,0.432 0.36,0.432 h 0.72 c 0.216,0 0.288,-0.072 0.36,-0.288 l 12.24,-48.816 c 0.072,-0.36 0.072,-0.576 0.072,-0.864 0,-0.288 -0.216,-0.432 -0.432,-0.432 h -19.152 c -0.216,0 -0.36,0.144 -0.36,0.36 z" transform="translate(0 256.7766730892034) translate(297.6307421133136 80.23297726642673) scale(1.4343818572762461) translate(-384.50375 -69.6)"></path> 
   <path id="path988523" style="font-style: normal; font-weight: 200; font-size: 72px; line-height: 1; font-family: Phenomena; font-variant-ligatures: none; text-align: center; text-anchor: middle; fill: rgb(124, 124, 124);" d="m 430.775,69.6 h -20.88 c -0.216,0 -0.36,0.144 -0.36,0.36 v 0.648 c 0,0.216 0.144,0.36 0.36,0.36 h 9.72 v 48.672 c 0,0.216 0.144,0.36 0.36,0.36 h 0.72 c 0.216,0 0.36,-0.144 0.36,-0.36 V 70.968 h 9.72 c 0.216,0 0.36,-0.144 0.36,-0.36 V 69.96 c 0,-0.216 -0.144,-0.36 -0.36,-0.36 z" transform="translate(0 256.7766730892034) translate(340.70702226464084 80.23297726642673) scale(1.4343818572762461) translate(-409.535 -69.6)"></path> 
   <path id="path988525" style="font-style: normal; font-weight: 200; font-size: 72px; line-height: 1; font-family: Phenomena; font-variant-ligatures: none; text-align: center; text-anchor: middle; fill: rgb(124, 124, 124);" d="m 441.593,120.504 c 6.624,0 9.936,-4.608 10.08,-10.296 0,-0.144 -0.144,-0.288 -0.36,-0.288 h -0.648 c -0.216,0 -0.36,0.144 -0.36,0.36 -0.144,4.968 -2.88,8.928 -8.712,8.928 -5.76,0 -8.424,-4.176 -8.424,-9.504 v -5.472 h 7.2 c 7.848,0 11.592,-4.32 11.592,-10.152 0,-5.832 -4.176,-10.584 -10.08,-10.584 -6.12,0 -10.08,4.608 -10.08,10.872 v 15.336 c 0,6.048 3.168,10.8 9.792,10.8 z m -8.424,-17.568 v -8.568 c 0,-5.544 3.312,-9.576 8.712,-9.576 5.184,0 8.712,4.176 8.712,9.288 0,5.112 -3.024,8.856 -10.224,8.856 z" transform="translate(0 256.7766730892034) translate(379.8168779851349 100.16514755513745) scale(1.4343818572762461) translate(-431.801 -83.496)"></path> 
   <path id="path988527" style="font-style: normal; font-weight: 200; font-size: 72px; line-height: 1; font-family: Phenomena; font-variant-ligatures: none; text-align: center; text-anchor: middle; fill: rgb(124, 124, 124);" d="m 470.08137,120.504 c 5.832,0 9.93601,-4.104 10.15201,-10.224 0,-0.216 -0.144,-0.36 -0.36001,-0.36 h -0.648 c -0.216,0 -0.36,0.144 -0.36,0.36 -0.21599,5.328 -3.744,8.928 -8.784,8.928 -5.328,0 -8.928,-3.888 -8.928,-9.648 V 94.944 c 0,-6.12 3.456,-10.152 8.712,-10.152 4.968,0 8.424,3.168 8.64001,7.848 0,0.216 0.144,0.36 0.35999,0.36 h 0.648 c 0.216,0 0.36,-0.144 0.36,-0.36 -0.216,-5.472 -4.24799,-9.144 -10.008,-9.144 -6.04799,0 -10.08,4.608 -10.08,11.448 v 14.616 c 0,6.552 4.104,10.944 10.296,10.944 z" transform="translate(0 256.7766730892034) translate(427.1290598868218 100.16514755513745) scale(1.4343818572762461) translate(-459.78537 -83.496)"></path> 
   <path id="path988529" style="font-style: normal; font-weight: 200; font-size: 72px; line-height: 1; font-family: Phenomena; font-variant-ligatures: none; text-align: center; text-anchor: middle; fill: rgb(124, 124, 124);" d="m 488.01612,120 h 0.64801 c 0.216,0 0.36,-0.144 0.36,-0.36 V 94.296 c 0,-5.328 3.59999,-9.504 8.928,-9.504 5.32799,0 8.928,4.176 8.928,9.504 v 25.344 c 0,0.216 0.144,0.36 0.35999,0.36 h 0.648 c 0.216,0 0.36001,-0.144 0.36001,-0.36 V 94.296 c 0,-6.048 -4.248,-10.8 -10.296,-10.8 -4.03201,0 -7.20001,2.088 -8.928,5.256 V 69.96 c 0,-0.216 -0.144,-0.36 -0.36,-0.36 h -0.64801 c -0.216,0 -0.36,0.144 -0.36,0.36 v 49.68 c 0,0.216 0.144,0.36 0.36,0.36 z" transform="translate(0 256.7766730892034) translate(474.2782673218849 80.23297726642673) scale(1.4343818572762461) translate(-487.65612 -69.6)"></path> 
   <path id="path988531" style="font-style: normal; font-weight: 200; font-size: 72px; line-height: 1; font-family: Phenomena; font-variant-ligatures: none; text-align: center; text-anchor: middle; fill: rgb(124, 124, 124);" d="m 518.02437,120 h 0.648 c 0.216,0 0.36,-0.144 0.36,-0.36 V 95.016 c 0,-6.048 2.664,-10.224 8.424,-10.224 5.76,0 8.424,4.176 8.424,10.224 v 24.624 c 0,0.216 0.144,0.36 0.36,0.36 h 0.648 c 0.216,0 0.36,-0.144 0.36,-0.36 V 95.016 c 0,-6.768 -3.312,-11.52 -9.792,-11.52 -6.48,0 -9.792,4.752 -9.792,11.52 v 24.624 c 0,0.216 0.144,0.36 0.36,0.36 z" transform="translate(0 256.7766730892034) translate(524.493465976876 100.16514755513745) scale(1.4343818572762461) translate(-517.66437 -83.496)"></path> 
   <path id="path988533" style="font-style: normal; font-weight: 200; font-size: 72px; line-height: 1; font-family: Phenomena; font-variant-ligatures: none; text-align: center; text-anchor: middle; fill: rgb(124, 124, 124);" d="m 556.35312,120.504 c 6.408,0 10.22401,-4.752 10.22401,-10.944 V 94.44 c 0,-6.192 -3.81601,-10.944 -10.22401,-10.944 -6.408,0 -10.22399,4.752 -10.22399,10.944 v 15.12 c 0,6.192 3.81599,10.944 10.22399,10.944 z m 0,-1.296 c -5.544,0 -8.856,-4.248 -8.856,-9.648 V 94.44 c 0,-5.4 3.312,-9.648 8.856,-9.648 5.544,0 8.856,4.248 8.856,9.648 v 15.12 c 0,5.4 -3.312,9.648 -8.856,9.648 z" transform="translate(0 256.7766730892034) translate(572.4947105789801 100.16514755513745) scale(1.4343818572762461) translate(-546.12913 -83.496)"></path> 
   <path id="path988535" style="font-style: normal; font-weight: 200; font-size: 72px; line-height: 1; font-family: Phenomena; font-variant-ligatures: none; text-align: center; text-anchor: middle; fill: rgb(124, 124, 124);" d="m 576.46925,120 h 0.648 c 0.216,0 0.36,-0.144 0.36,-0.36 V 69.96 c 0,-0.216 -0.144,-0.36 -0.36,-0.36 h -0.648 c -0.216,0 -0.36,0.144 -0.36,0.36 v 49.68 c 0,0.216 0.144,0.36 0.36,0.36 z" transform="translate(0 256.7766730892034) translate(622.669560072326 80.23297726642673) scale(1.4343818572762461) translate(-576.10925 -69.6)"></path> 
   <path id="path988537" style="font-style: normal; font-weight: 200; font-size: 72px; line-height: 1; font-family: Phenomena; font-variant-ligatures: none; text-align: center; text-anchor: middle; fill: rgb(124, 124, 124);" d="m 597.275,120.504 c 6.408,0 10.224,-4.752 10.224,-10.944 V 94.44 c 0,-6.192 -3.816,-10.944 -10.224,-10.944 -6.408,0 -10.224,4.752 -10.224,10.944 v 15.12 c 0,6.192 3.816,10.944 10.224,10.944 z m 0,-1.296 c -5.544,0 -8.856,-4.248 -8.856,-9.648 V 94.44 c 0,-5.4 3.312,-9.648 8.856,-9.648 5.544,0 8.856,4.248 8.856,9.648 v 15.12 c 0,5.4 -3.312,9.648 -8.856,9.648 z" transform="translate(0 256.7766730892034) translate(645.5361170455596 100.16514755513745) scale(1.4343818572762461) translate(-587.051 -83.496)"></path> 
   <path id="path988539" style="font-style: normal; font-weight: 200; font-size: 72px; line-height: 1; font-family: Phenomena; font-variant-ligatures: none; text-align: center; text-anchor: middle; fill: rgb(124, 124, 124);" d="m 626.10312,83.496 c -6.048,0 -10.22399,4.824 -10.22399,11.088 v 13.968 c 0,6.624 4.17599,11.448 10.22399,11.448 3.888,0 7.27201,-2.16 8.856,-5.832 v 10.152 c 0,5.256 -3.312,9.504 -8.928,9.504 -5.472,0 -8.64,-3.96 -8.784,-8.928 0,-0.216 -0.144,-0.36 -0.36,-0.36 h -0.648 c -0.21599,0 -0.35999,0.144 -0.35999,0.36 0.144,5.688 3.95999,10.224 10.15199,10.224 6.408,0 10.29601,-4.824 10.29601,-10.8 V 94.584 c 0,-6.264 -4.17601,-11.088 -10.22401,-11.088 z m 0,35.208 c -5.256,0 -8.856,-4.248 -8.856,-10.152 V 94.584 c 0,-5.544 3.6,-9.792 8.856,-9.792 5.256,0 8.856,4.248 8.856,9.792 v 13.968 c 0,5.904 -3.6,10.152 -8.856,10.152 z" transform="translate(0 256.7766730892034) translate(694.058572983142 100.16514755513745) scale(1.4343818572762461) translate(-615.87913 -83.496)"></path> 
   <path id="path988541" style="font-style: normal; font-weight: 200; font-size: 72px; line-height: 1; font-family: Phenomena; font-variant-ligatures: none; text-align: center; text-anchor: middle; fill: rgb(124, 124, 124);" d="m 664.85712,84 h -0.648 c -0.216,0 -0.36,0.144 -0.36,0.36 v 24.48 c 0,5.688 -3.096,9.864 -8.352,9.864 -5.328,0 -8.496,-4.176 -8.496,-9.864 V 84.36 c 0,-0.216 -0.144,-0.36 -0.36,-0.36 h -0.648 c -0.216,0 -0.36,0.144 -0.36,0.36 v 24.48 c 0,6.408 3.744,11.16 9.864,11.16 3.81601,0 6.91201,-2.16 8.352,-5.544 v 9.864 c 0,5.256 -3.096,9.504 -8.424,9.504 -5.184,0 -8.28,-3.96 -8.424,-8.928 0,-0.216 -0.144,-0.36 -0.36,-0.36 h -0.648 c -0.216,0 -0.36,0.144 -0.36,0.36 0.144,5.688 3.888,10.224 9.792,10.224 6.048,0 9.792,-4.824 9.792,-10.8 V 84.36 c 0,-0.216 -0.144,-0.36 -0.36,-0.36 z" transform="translate(0 256.7766730892034) translate(743.909065707102 100.88807601120467) scale(1.4343818572762461) translate(-645.63312 -84)"></path> 
  </g> 
  <g id="tagline" style="font-style:oblique;font-weight:300;font-size:32px;line-height:1;font-family:'Fira Sans Condensed';font-variant-ligatures:none;text-align:center;text-anchor:middle"></g> 
 </g> 
</svg>