<svg xmlns:dc="http://purl.org/dc/elements/1.1/" xmlns:cc="http://creativecommons.org/ns#" xmlns:rdf="http://www.w3.org/1999/02/22-rdf-syntax-ns#" xmlns:svg="http://www.w3.org/2000/svg" xmlns="http://www.w3.org/2000/svg" id="svg78382" viewbox="0 0 1024 768" height="768px" width="1024px" version="1.1"> <metadata id="metadata78388"> 
  <rdf:rdf> 
   <cc:work rdf:about=""> 
    <dc:format>
     image/svg+xml
    </dc:format> 
    <dc:type rdf:resource="http://purl.org/dc/dcmitype/StillImage"></dc:type> 
   </cc:work> 
  </rdf:rdf> 
 </metadata> <defs id="defs78386"></defs> <g id="logo-group"> 
  <g id="title" style="font-style:normal;font-weight:300;font-size:72px;line-height:1;font-family:'Uni Neue';font-variant-ligatures:none;text-align:center;text-anchor:middle" aria-label="o7Tigress"> 
   <path id="path78390" style="font-style: normal; font-weight: 300; font-size: 72px; line-height: 1; font-family: &quot;Uni Neue&quot;; font-variant-ligatures: none; text-align: center; text-anchor: middle; fill: rgb(154, 154, 154);" d="M 401.42487,107.184 V 95.808 c 0,-7.56 -5.18399,-13.536 -14.976,-13.536 -9.71999,0 -14.976,5.976 -14.976,13.536 v 11.376 c 0,7.632 5.25601,13.536 14.976,13.536 9.79201,0 14.976,-5.904 14.976,-13.536 z m -27.64799,0 V 95.808 c 0,-6.336 4.24799,-11.376 12.67199,-11.376 8.49601,0 12.672,5.04 12.672,11.376 v 11.376 c 0,6.408 -4.17599,11.448 -12.672,11.448 -8.424,0 -12.67199,-5.04 -12.67199,-11.448 z" transform="translate(0 215.71333706048262) translate(252.0000000000001 132.95799894894515) scale(1.8411853236695976) translate(-371.47287 -82.272)"></path> 
   <path id="path78392" style="font-style: normal; font-weight: 300; font-size: 72px; line-height: 1; font-family: &quot;Uni Neue&quot;; font-variant-ligatures: none; text-align: center; text-anchor: middle; fill: rgb(154, 154, 154);" d="m 415.48287,120 c 0.216,0 0.504,-0.144 0.576,-0.36 l 23.832,-49.392 c 0.144,-0.144 0.144,-0.36 0.144,-0.504 v -0.792 c 0,-0.288 -0.216,-0.432 -0.504,-0.432 h -31.68 c -0.28799,0 -0.504,0.144 -0.504,0.432 v 1.368 c 0,0.216 0.21601,0.432 0.504,0.432 h 29.304 l -23.61599,48.672 c -0.144,0.36 0.072,0.576 0.35999,0.576 z" transform="translate(0 215.71333706048262) translate(318.0506823013233 107.63801837784082) scale(1.8411853236695976) translate(-407.34687 -68.52)"></path> 
   <path id="path78394" style="font-style: normal; font-weight: 300; font-size: 72px; line-height: 1; font-family: &quot;Uni Neue&quot;; font-variant-ligatures: none; text-align: center; text-anchor: middle; fill: rgb(247, 247, 246);" d="m 442.84287,68.52 c -0.288,0 -0.432,0.144 -0.432,0.432 v 1.368 c 0,0.288 0.144,0.432 0.432,0.432 h 16.56 v 48.816 c 0,0.288 0.216,0.432 0.50401,0.432 h 1.512 c 0.216,0 0.43199,-0.144 0.43199,-0.432 V 70.752 h 16.776 c 0.288,0 0.504,-0.144 0.504,-0.432 v -1.368 c 0,-0.288 -0.216,-0.432 -0.504,-0.432 z" transform="translate(0 215.71333706048262) translate(382.61000449047407 107.63801837784082) scale(1.8411853236695976) translate(-442.41087 -68.52)"></path> 
   <path id="path78396" style="font-style: normal; font-weight: 300; font-size: 72px; line-height: 1; font-family: &quot;Uni Neue&quot;; font-variant-ligatures: none; text-align: center; text-anchor: middle; fill: rgb(247, 247, 246);" d="m 484.96287,120 c 0.288,0 0.43201,-0.144 0.43201,-0.432 V 83.496 c 0,-0.288 -0.14401,-0.504 -0.43201,-0.504 h -1.44 c -0.288,0 -0.432,0.216 -0.432,0.504 v 36.072 c 0,0.288 0.144,0.432 0.432,0.432 z m 1.152,-46.944 c 0,-1.152 -0.792,-1.872 -1.87199,-1.872 -1.08001,0 -1.87201,0.72 -1.87201,1.872 0,1.08 0.792,1.8 1.87201,1.8 1.07999,0 1.87199,-0.72 1.87199,-1.8 z" transform="translate(0 215.71333706048262) translate(456.1837700243113 112.54293608009662) scale(1.8411853236695976) translate(-482.37087 -71.184)"></path> 
   <path id="path78398" style="font-style: normal; font-weight: 300; font-size: 72px; line-height: 1; font-family: &quot;Uni Neue&quot;; font-variant-ligatures: none; text-align: center; text-anchor: middle; fill: rgb(247, 247, 246);" d="M 523.59425,121.08 V 85.368 c 0,-0.216 -0.072,-0.432 -0.36,-0.504 -3.6,-1.584 -8.64,-2.592 -13.032,-2.592 -9.072,0 -15.192,4.32 -15.192,14.256 v 7.776 c 0,9.504 5.832,14.328 15.192,14.328 3.744,0 7.848,-1.008 11.088,-2.664 v 5.04 c 0.072,6.768 -3.528,11.232 -11.808,11.232 -5.256,0 -9,-2.232 -12.24,-5.256 -0.216,-0.216 -0.432,-0.144 -0.576,0.072 l -0.72,1.008 c -0.144,0.288 -0.144,0.432 0,0.576 3.744,3.6 8.064,5.76 13.536,5.76 9.792,0 14.112,-5.544 14.112,-13.32 z m -26.28,-16.776 v -7.776 c 0,-8.28 4.752,-12.096 12.816,-12.096 3.528,0 8.064,0.792 11.16,1.872 v 27.432 c -3.096,1.656 -7.056,2.736 -11.016,2.736 -7.92,0 -12.96,-3.6 -12.96,-12.168 z" transform="translate(0 215.71333706048262) translate(479.4552109805942 132.95799894894515) scale(1.8411853236695976) translate(-495.01025 -82.272)"></path> 
   <path id="path78400" style="font-style: normal; font-weight: 300; font-size: 72px; line-height: 1; font-family: &quot;Uni Neue&quot;; font-variant-ligatures: none; text-align: center; text-anchor: middle; fill: rgb(247, 247, 246);" d="m 536.35963,120 c 0.28799,0 0.43199,-0.144 0.43199,-0.432 V 86.304 c 3.096,-1.224 6.84,-1.872 10.296,-1.872 2.376,0 4.896,0.216 7.12801,0.576 0.288,0.072 0.43199,-0.072 0.43199,-0.36 v -1.224 c 0,-0.288 -0.072,-0.432 -0.43199,-0.504 -2.30401,-0.36 -4.82401,-0.648 -7.27201,-0.648 -4.104,0 -8.64,0.864 -12.096,2.52 -0.216,0.072 -0.36,0.288 -0.36,0.504 v 34.272 c 0,0.288 0.216,0.432 0.432,0.432 z" transform="translate(0 215.71333706048262) translate(552.1403652416686 132.95799894894515) scale(1.8411853236695976) translate(-534.48762 -82.272)"></path> 
   <path id="path78402" style="font-style: normal; font-weight: 300; font-size: 72px; line-height: 1; font-family: &quot;Uni Neue&quot;; font-variant-ligatures: none; text-align: center; text-anchor: middle; fill: rgb(247, 247, 246);" d="m 586.59762,95.952 c 0,-8.712 -5.904,-13.68 -14.32799,-13.68 -8.424,0 -14.328,4.968 -14.328,13.68 v 11.664 c 0,8.28 6.76799,13.104 14.328,13.104 6.12,0 10.58399,-2.736 13.60799,-5.544 0.288,-0.144 0.288,-0.36 0.072,-0.576 l -0.79199,-0.936 c -0.144,-0.216 -0.36,-0.216 -0.576,-0.072 -2.736,2.448 -6.62401,5.04 -12.24,5.04 -6.55201,0 -12.096,-4.032 -12.096,-11.016 v -4.752 h 25.91999 c 0.216,0 0.432,-0.144 0.432,-0.432 z m -2.30399,0 v 4.896 h -24.048 v -4.896 c 0,-7.416 4.75199,-11.52 12.024,-11.52 7.19999,0 12.024,4.176 12.024,11.52 z" transform="translate(0 215.71333706048262) translate(595.3235442348688 132.95799894894515) scale(1.8411853236695976) translate(-557.94163 -82.272)"></path> 
   <path id="path78404" style="font-style: normal; font-weight: 300; font-size: 72px; line-height: 1; font-family: &quot;Uni Neue&quot;; font-variant-ligatures: none; text-align: center; text-anchor: middle; fill: rgb(247, 247, 246);" d="m 620.71213,110.352 c 0,-7.272 -6.69601,-8.928 -13.17601,-10.296 -5.616,-1.152 -11.448,-2.808 -11.448,-8.424 0,-4.536 4.39201,-7.2 10.36801,-7.2 4.24799,0 8.352,1.296 11.664,3.168 0.216,0.144 0.504,0.072 0.576,-0.144 l 0.64799,-1.08 c 0.144,-0.216 0.072,-0.432 -0.144,-0.576 -3.59999,-2.088 -7.41599,-3.528 -12.67199,-3.528 -7.20001,0 -12.672,3.456 -12.672,9.36 0,7.2 7.34399,9.36 13.24799,10.584 5.32801,1.08 11.30401,2.304 11.30401,8.208 0,5.328 -4.60801,8.208 -11.30401,8.208 -4.752,0 -8.784,-1.512 -12.52799,-4.32 -0.216,-0.216 -0.432,-0.144 -0.576,0.072 l -0.72001,1.08 c -0.144,0.216 -0.144,0.504 0.144,0.648 3.88801,3.024 8.352,4.608 13.68,4.608 8.784,0 13.60801,-4.248 13.60801,-10.368 z" transform="translate(0 215.71333706048262) translate(660.2140956637477 132.95799894894515) scale(1.8411853236695976) translate(-593.18553 -82.272)"></path> 
   <path id="path78406" style="font-style: normal; font-weight: 300; font-size: 72px; line-height: 1; font-family: &quot;Uni Neue&quot;; font-variant-ligatures: none; text-align: center; text-anchor: middle; fill: rgb(247, 247, 246);" d="m 653.89963,110.352 c 0,-7.272 -6.69601,-8.928 -13.17601,-10.296 -5.616,-1.152 -11.448,-2.808 -11.448,-8.424 0,-4.536 4.39201,-7.2 10.36801,-7.2 4.24799,0 8.352,1.296 11.664,3.168 0.216,0.144 0.504,0.072 0.576,-0.144 l 0.64799,-1.08 c 0.144,-0.216 0.072,-0.432 -0.144,-0.576 -3.59999,-2.088 -7.41599,-3.528 -12.67199,-3.528 -7.20001,0 -12.672,3.456 -12.672,9.36 0,7.2 7.34399,9.36 13.24799,10.584 5.32801,1.08 11.30401,2.304 11.30401,8.208 0,5.328 -4.60801,8.208 -11.30401,8.208 -4.752,0 -8.784,-1.512 -12.52799,-4.32 -0.216,-0.216 -0.432,-0.144 -0.576,0.072 l -0.72001,1.08 c -0.144,0.216 -0.144,0.504 0.144,0.648 3.88801,3.024 8.352,4.608 13.68,4.608 8.784,0 13.60801,-4.248 13.60801,-10.368 z" transform="translate(0 215.71333706048262) translate(721.3184335930324 132.95799894894515) scale(1.8411853236695976) translate(-626.37303 -82.272)"></path> 
  </g> 
  <g id="tagline" style="font-style:oblique;font-weight:400;font-size:32px;line-height:1;font-family:Lato;font-variant-ligatures:none;text-align:center;text-anchor:middle"></g> 
 </g> 
</svg>