<svg xmlns:dc="http://purl.org/dc/elements/1.1/" xmlns:cc="http://creativecommons.org/ns#" xmlns:rdf="http://www.w3.org/1999/02/22-rdf-syntax-ns#" xmlns:svg="http://www.w3.org/2000/svg" xmlns="http://www.w3.org/2000/svg" id="svg988624" viewbox="0 0 1024 768" height="768px" width="1024px" version="1.1"> <metadata id="metadata988630"> 
  <rdf:rdf> 
   <cc:work rdf:about=""> 
    <dc:format>
     image/svg+xml
    </dc:format> 
    <dc:type rdf:resource="http://purl.org/dc/dcmitype/StillImage"></dc:type> 
   </cc:work> 
  </rdf:rdf> 
 </metadata> <defs id="defs988628"></defs> <g id="logo-group"> 
  <g id="title" style="font-style:normal;font-weight:400;font-size:72px;line-height:1;font-family:'Abril Fatface';font-variant-ligatures:none;text-align:center;text-anchor:middle" aria-label="O7Template"> 
   <path id="path988632" style="font-style: normal; font-weight: 400; font-size: 72px; line-height: 1; font-family: &quot;Abril Fatface&quot;; font-variant-ligatures: none; text-align: center; text-anchor: middle; fill: rgb(213, 213, 213);" d="m 345.29075,97.752 v -5.328 q 0,-13.176 -1.296,-16.632 -1.44,-3.96 -4.104,-4.896 -1.512,-0.576 -3.672,-0.576 -2.16,0 -3.744,0.576 -1.512,0.576 -2.52,2.016 -1.008,1.44 -1.656,3.024 -0.576,1.584 -0.936,4.464 -0.432,4.176 -0.432,12.312 v 5.184 q 0,8.784 0.648,12.528 0.72,3.672 1.728,5.256 2.232,3.528 6.912,3.528 5.688,0 7.344,-4.752 1.728,-4.824 1.728,-16.704 z m -9.216,22.968 q -12.024,0 -18,-6.48 -5.904,-6.552 -5.904,-18.864 0,-12.384 6.336,-19.44 6.408,-7.128 18.072,-7.128 11.664,0 17.568,6.768 5.976,6.696 5.976,19.08 0,12.384 -6.048,19.224 -5.976,6.84 -18,6.84 z" transform="translate(0 276.53911071719426) translate(252.00000000000006 67.63950131706144) scale(1.2155490832034277) translate(-312.17075 -68.808)"></path> 
   <path id="path988634" style="font-style: normal; font-weight: 400; font-size: 72px; line-height: 1; font-family: &quot;Abril Fatface&quot;; font-variant-ligatures: none; text-align: center; text-anchor: middle; fill: rgb(213, 213, 213);" d="m 379.99813,120.72 q -3.88801,0 -6.12001,-2.088 -2.232,-2.16 -2.232,-5.256 0,-3.168 2.088,-6.912 2.16,-3.816 9.28801,-12.096 l 11.87999,-13.752 h -18.432 q -5.112,0 -6.76799,1.296 -1.584,1.224 -2.52001,5.976 h -1.152 L 366.82213,69.6 h 32.25599 v 7.776 l -7.992,13.968 q -5.328,9.432 -6.84,13.536 -1.44,4.032 -1.44,7.704 0,3.672 2.16,6.768 l -0.50399,0.864 q -2.01601,0.504 -4.464,0.504 z" transform="translate(0 276.53911071719426) translate(321.1153550750245 68.60221619095856) scale(1.2155490832034277) translate(-366.03012 -69.6)"></path> 
   <path id="path988636" style="font-style: normal; font-weight: 400; font-size: 72px; line-height: 1; font-family: &quot;Abril Fatface&quot;; font-variant-ligatures: none; text-align: center; text-anchor: middle; fill: rgb(255, 80, 58);" d="m 445.57325,69.6 0.72,18.072 h -1.368 q -3.168,-9.576 -5.616,-13.032 -2.448,-3.528 -7.056,-3.528 h -0.864 v 47.376 h 6.12 V 120 h -26.28 v -1.512 h 6.12 V 71.112 h -0.936 q -4.608,0 -7.128,3.672 -2.52,3.6 -5.544,12.888 h -1.368 l 0.72,-18.072 z" transform="translate(0 276.53911071719426) translate(368.93886067687777 68.60221619095856) scale(1.2155490832034277) translate(-402.37325 -69.6)"></path> 
   <path id="path988638" style="font-style: normal; font-weight: 400; font-size: 72px; line-height: 1; font-family: &quot;Abril Fatface&quot;; font-variant-ligatures: none; text-align: center; text-anchor: middle; fill: rgb(255, 80, 58);" d="m 464.29662,120.72 q -9.288,0 -13.968,-4.752 -4.608,-4.824 -4.608,-13.32 0,-8.568 5.184,-13.104 5.256,-4.536 13.32,-4.536 16.344,0 15.696,16.416 h -20.304 v 2.808 q 0,7.056 1.8,10.656 1.80001,3.6 6.26401,3.6 8.35199,0 10.94399,-8.928 l 1.296,0.216 q -1.368,5.184 -4.968,8.064 -3.528,2.88 -10.656,2.88 z m -4.608,-20.736 h 7.416 v -3.528 q 0,-5.832 -0.71999,-7.92 -0.64801,-2.16 -2.73601,-2.16 -2.01599,0 -3.024,2.304 -0.936,2.232 -0.936,7.776 z" transform="translate(0 276.53911071719426) translate(425.27636378926786 87.33139646495698) scale(1.2155490832034277) translate(-445.72062 -85.008)"></path> 
   <path id="path988640" style="font-style: normal; font-weight: 400; font-size: 72px; line-height: 1; font-family: &quot;Abril Fatface&quot;; font-variant-ligatures: none; text-align: center; text-anchor: middle; fill: rgb(255, 80, 58);" d="m 482.48563,85.728 h 17.35199 v 6.624 q 2.376,-7.344 10.44,-7.344 8.13601,0 9.864,7.776 2.52,-7.776 10.58401,-7.776 10.58399,0 10.58399,12.024 v 21.672 h 4.03201 V 120 h -19.94401 v -1.296 h 2.52001 v -23.4 q 0,-5.472 -0.93601,-6.408 -0.432,-0.432 -1.152,-0.432 -2.088,0 -3.67199,2.808 -1.58401,2.808 -1.58401,7.128 v 20.304 h 2.592 V 120 h -18.50399 v -1.296 h 2.51999 v -23.4 q 0,-5.472 -0.93599,-6.408 -0.43201,-0.432 -1.15201,-0.432 -2.016,0 -3.672,3.096 -1.584,3.024 -1.584,7.272 v 19.872 h 2.592 V 120 h -19.94399 v -1.296 h 3.95999 v -31.68 h -3.95999 z" transform="translate(0 276.53911071719426) translate(473.61268523834303 87.33139646495698) scale(1.2155490832034277) translate(-482.48563 -85.008)"></path> 
   <path id="path988642" style="font-style: normal; font-weight: 400; font-size: 72px; line-height: 1; font-family: &quot;Abril Fatface&quot;; font-variant-ligatures: none; text-align: center; text-anchor: middle; fill: rgb(255, 80, 58);" d="m 572.75,100.632 q 0,-7.416 -0.72,-9.936 -0.72,-2.592 -2.808,-2.592 -2.088,0 -3.744,2.736 -1.656,2.664 -1.656,7.2 v 13.176 q 0,3.096 1.224,5.256 1.224,2.16 3.6,2.16 2.376,0 3.24,-3.168 0.864,-3.168 0.864,-11.088 z m -9.072,-14.904 v 5.688 q 2.808,-6.408 9.936,-6.408 6.192,0 9.576,4.464 3.456,4.464 3.456,13.536 0,9.072 -3.744,13.392 -3.672,4.32 -11.088,4.32 -3.456,0 -5.184,-0.864 -1.728,-0.864 -2.808,-2.664 v 18.648 h 9.288 v 1.296 h -26.64 v -1.296 h 3.96 V 87.024 h -3.816 v -1.296 z" transform="translate(0 276.53911071719426) translate(555.0354747808022 87.33139646495698) scale(1.2155490832034277) translate(-546.47 -85.008)"></path> 
   <path id="path988644" style="font-style: normal; font-weight: 400; font-size: 72px; line-height: 1; font-family: &quot;Abril Fatface&quot;; font-variant-ligatures: none; text-align: center; text-anchor: middle; fill: rgb(255, 80, 58);" d="m 588.51013,66 h 17.63999 v 52.704 h 4.03201 V 120 h -21.384 v -1.296 h 3.95999 V 67.296 h -4.24799 z" transform="translate(0 276.53911071719426) translate(609.7839635096653 64.22623949142621) scale(1.2155490832034277) translate(-588.51013 -66)"></path> 
   <path id="path988646" style="font-style: normal; font-weight: 400; font-size: 72px; line-height: 1; font-family: &quot;Abril Fatface&quot;; font-variant-ligatures: none; text-align: center; text-anchor: middle; fill: rgb(255, 80, 58);" d="m 628.85937,103.08 h 2.088 v -5.544 q 0,-6.84 -0.79199,-9.144 -0.72,-2.376 -2.88,-2.376 -1.29601,0 -2.37601,0.72 -1.00799,0.648 -1.00799,1.872 0,1.152 0.432,2.376 h 1.79999 q 0.57601,1.512 0.57601,3.672 0,2.088 -1.80001,3.672 -1.8,1.512 -4.53599,1.512 -6.19201,0 -6.19201,-5.976 0,-8.856 15.04801,-8.856 8.56799,0 11.80799,2.952 3.31201,2.88 3.31201,10.656 v 14.616 q 0,3.744 2.08799,3.744 2.448,0 2.88,-7.416 l 1.08001,0.072 q -0.28801,6.336 -2.376,8.712 -2.08801,2.376 -6.84001,2.376 -8.63999,0 -9.936,-5.328 -0.93599,2.736 -2.808,4.032 -1.87199,1.296 -5.472,1.296 -10.65599,0 -10.65599,-8.712 0,-5.112 4.03199,-6.984 4.10401,-1.944 12.528,-1.944 z m -2.88,8.856 q 0,3.744 0.36001,4.824 0.432,1.08 1.51199,1.08 1.152,0 2.08801,-1.8 1.00799,-1.872 1.00799,-5.112 v -6.696 h -0.50399 q -4.46401,0 -4.46401,6.552 z" transform="translate(0 276.53911071719426) translate(642.3476117868728 87.33139646495698) scale(1.2155490832034277) translate(-612.29938 -85.008)"></path> 
   <path id="path988648" style="font-style: normal; font-weight: 400; font-size: 72px; line-height: 1; font-family: &quot;Abril Fatface&quot;; font-variant-ligatures: none; text-align: center; text-anchor: middle; fill: rgb(255, 80, 58);" d="m 653.57,109.704 v -22.68 h -3.96 v -1.296 h 3.96 V 76.44 l 13.392,-3.312 v 12.6 h 9.36 v 1.296 h -9.36 v 24.264 q 0,3.384 0.648,4.968 0.72,1.584 2.88,1.584 2.16,0 3.744,-2.16 1.656,-2.16 2.16,-5.904 l 1.224,0.144 q -0.576,4.968 -3.168,7.92 -2.592,2.88 -8.568,2.88 -5.976,0 -9.144,-2.376 -3.168,-2.376 -3.168,-8.64 z" transform="translate(0 276.53911071719426) translate(691.3471489712346 72.89067335650026) scale(1.2155490832034277) translate(-649.61 -73.128)"></path> 
   <path id="path988650" style="font-style: normal; font-weight: 400; font-size: 72px; line-height: 1; font-family: &quot;Abril Fatface&quot;; font-variant-ligatures: none; text-align: center; text-anchor: middle; fill: rgb(255, 80, 58);" d="m 697.31225,120.72 q -9.288,0 -13.968,-4.752 -4.608,-4.824 -4.608,-13.32 0,-8.568 5.184,-13.104 5.256,-4.536 13.32,-4.536 16.344,0 15.696,16.416 h -20.304 v 2.808 q 0,7.056 1.8,10.656 1.8,3.6 6.264,3.6 8.352,0 10.944,-8.928 l 1.296,0.216 q -1.368,5.184 -4.968,8.064 -3.528,2.88 -10.656,2.88 z m -4.608,-20.736 h 7.416 v -3.528 q 0,-5.832 -0.72,-7.92 -0.648,-2.16 -2.736,-2.16 -2.016,0 -3.024,2.304 -0.936,2.232 -0.936,7.776 z" transform="translate(0 276.53911071719426) translate(730.3981827054986 87.33139646495698) scale(1.2155490832034277) translate(-678.73625 -85.008)"></path> 
  </g> 
  <g id="tagline" style="font-style:oblique;font-weight:normal;font-size:32px;line-height:1;font-family:'Droid Serif';font-variant-ligatures:none;text-align:center;text-anchor:middle"></g> 
 </g> 
</svg>