<svg xmlns:dc="http://purl.org/dc/elements/1.1/" xmlns:cc="http://creativecommons.org/ns#" xmlns:rdf="http://www.w3.org/1999/02/22-rdf-syntax-ns#" xmlns:svg="http://www.w3.org/2000/svg" xmlns="http://www.w3.org/2000/svg" id="svg373297" viewbox="0 0 1024 768" height="768px" width="1024px" version="1.1"> <metadata id="metadata373303"> 
  <rdf:rdf> 
   <cc:work rdf:about=""> 
    <dc:format>
     image/svg+xml
    </dc:format> 
    <dc:type rdf:resource="http://purl.org/dc/dcmitype/StillImage"></dc:type> 
   </cc:work> 
  </rdf:rdf> 
 </metadata> <defs id="defs373301"></defs> <g id="logo-group"> 
  <g id="title" style="font-style:normal;font-weight:700;font-size:72px;line-height:1;font-family:Phenomena;font-variant-ligatures:none;text-align:center;text-anchor:middle" aria-label="O7TRUTH"> 
   <path id="path373305" style="font-style: normal; font-weight: 700; font-size: 72px; line-height: 1; font-family: Phenomena; font-variant-ligatures: none; text-align: center; text-anchor: middle; fill: rgb(54, 68, 83);" d="m 425.95719,120.72 c 7.488,0 12.672,-5.472 12.672,-13.032 V 81.912 c 0,-7.56 -5.184,-13.032 -12.672,-13.032 -7.488,0 -12.744,5.472 -12.744,13.536 v 24.768 c 0,8.064 5.256,13.536 12.744,13.536 z m 0,-6.048 c -3.672,0 -6.192,-2.736 -6.192,-7.2 V 82.128 c 0,-4.464 2.52,-7.2 6.192,-7.2 3.672,0 6.12,2.736 6.12,6.696 v 26.352 c 0,3.96 -2.448,6.696 -6.12,6.696 z" transform="translate(0 230.69267910387458) translate(251.99999999999994 106.2479420181974) scale(1.8155624567101831) translate(-413.21319 -68.88)"></path> 
   <path id="path373307" style="font-style: normal; font-weight: 700; font-size: 72px; line-height: 1; font-family: Phenomena; font-variant-ligatures: none; text-align: center; text-anchor: middle; fill: rgb(54, 68, 83);" d="m 442.69381,70.536 v 4.104 c 0,0.648 0.36,1.008 0.936,1.008 h 13.752 l -10.44,43.272 c -0.144,0.648 0.144,1.08 0.864,1.08 h 4.536 c 0.576,0 0.936,-0.288 1.08,-0.864 L 463.93381,75 c 0.288,-1.224 0.36,-2.088 0.36,-3.384 0,-1.368 -0.792,-2.016 -2.16,-2.016 h -18.504 c -0.576,0 -0.936,0.36 -0.936,0.936 z" transform="translate(0 230.69267910387458) translate(332.75734372319204 107.55514698702875) scale(1.8155624567101831) translate(-442.69381 -69.6)"></path> 
   <path id="path373309" style="font-style: normal; font-weight: 700; font-size: 72px; line-height: 1; font-family: Phenomena; font-variant-ligatures: none; text-align: center; text-anchor: middle; fill: rgb(240, 243, 240);" d="m 490.20256,69.6 h -22.104 c -0.576,0 -0.936,0.36 -0.936,0.936 v 4.104 c 0,0.648 0.36,1.008 0.936,1.008 h 7.848 v 43.344 c 0,0.648 0.36,1.008 0.936,1.008 h 4.536 c 0.648,0 1.008,-0.36 1.008,-1.008 V 75.648 h 7.776 c 0.648,0 1.008,-0.36 1.008,-1.008 v -4.104 c 0,-0.576 -0.36,-0.936 -1.008,-0.936 z" transform="translate(0 230.69267910387458) translate(404.415324436472 107.55514698702875) scale(1.8155624567101831) translate(-467.16256 -69.6)"></path> 
   <path id="path373311" style="font-style: normal; font-weight: 700; font-size: 72px; line-height: 1; font-family: Phenomena; font-variant-ligatures: none; text-align: center; text-anchor: middle; fill: rgb(240, 243, 240);" d="m 496.36306,120 h 4.608 c 0.576,0 0.936,-0.36 0.936,-1.008 v -18 h 5.832 l 6.84,18.144 c 0.144,0.576 0.432,0.864 1.008,0.864 h 4.896 c 0.648,0 1.152,-0.432 0.936,-1.08 l -7.704,-19.44 c 3.744,-2.016 6.408,-6.048 6.408,-11.592 v -5.76 c 0,-7.848 -5.04,-13.32 -12.456,-13.32 -7.272,0 -12.24,5.472 -12.24,13.32 v 36.864 c 0,0.648 0.36,1.008 0.936,1.008 z m 5.544,-24.984 V 81.84 c 0,-4.176 2.376,-6.912 5.832,-6.912 3.456,0 5.832,2.736 5.832,6.912 v 6.192 c 0,4.248 -2.376,6.984 -6.12,6.984 z" transform="translate(0 230.69267910387458) translate(482.9647263448097 106.1172215213143) scale(1.8155624567101831) translate(-495.42706 -68.808)"></path> 
   <path id="path373313" style="font-style: normal; font-weight: 700; font-size: 72px; line-height: 1; font-family: Phenomena; font-variant-ligatures: none; text-align: center; text-anchor: middle; fill: rgb(240, 243, 240);" d="m 528.00369,69.6 c -0.576,0 -0.936,0.36 -0.936,1.008 v 36.936 c 0,7.776 4.824,13.248 12.312,13.248 7.488,0 12.384,-5.472 12.384,-13.248 V 70.608 c 0,-0.648 -0.36,-1.008 -1.008,-1.008 h -4.536 c -0.576,0 -1.008,0.36 -1.008,1.008 v 37.224 c 0,4.104 -2.232,6.84 -5.832,6.84 -3.6,0 -5.832,-2.736 -5.832,-6.84 V 70.608 c 0,-0.648 -0.36,-1.008 -0.936,-1.008 z" transform="translate(0 230.69267910387458) translate(567.6437031301203 107.55514698702875) scale(1.8155624567101831) translate(-527.06769 -69.6)"></path> 
   <path id="path373315" style="font-style: normal; font-weight: 700; font-size: 72px; line-height: 1; font-family: Phenomena; font-variant-ligatures: none; text-align: center; text-anchor: middle; fill: rgb(240, 243, 240);" d="m 579.64006,69.6 h -22.104 c -0.576,0 -0.936,0.36 -0.936,0.936 v 4.104 c 0,0.648 0.36,1.008 0.936,1.008 h 7.848 v 43.344 c 0,0.648 0.36,1.008 0.936,1.008 h 4.536 c 0.648,0 1.008,-0.36 1.008,-1.008 V 75.648 h 7.776 c 0.648,0 1.008,-0.36 1.008,-1.008 v -4.104 c 0,-0.576 -0.36,-0.936 -1.008,-0.936 z" transform="translate(0 230.69267910387458) translate(648.4950022104472 107.55514698702875) scale(1.8155624567101831) translate(-556.60006 -69.6)"></path> 
   <path id="path373317" style="font-style: normal; font-weight: 700; font-size: 72px; line-height: 1; font-family: Phenomena; font-variant-ligatures: none; text-align: center; text-anchor: middle; fill: rgb(240, 243, 240);" d="m 603.14581,70.536 v 20.952 h -11.088 V 70.536 c 0,-0.576 -0.36,-0.936 -0.936,-0.936 h -4.536 c -0.648,0 -1.008,0.36 -1.008,0.936 v 48.456 c 0,0.648 0.36,1.008 1.008,1.008 h 4.536 c 0.576,0 0.936,-0.36 0.936,-1.008 V 97.464 h 11.088 v 21.528 c 0,0.648 0.36,1.008 1.008,1.008 h 4.536 c 0.576,0 0.936,-0.36 0.936,-1.008 V 70.536 c 0,-0.576 -0.36,-0.936 -0.936,-0.936 h -4.536 c -0.648,0 -1.008,0.36 -1.008,0.936 z" transform="translate(0 230.69267910387458) translate(728.3393540410334 107.55514698702875) scale(1.8155624567101831) translate(-585.57781 -69.6)"></path> 
  </g> 
  <g id="tagline" style="font-style:oblique;font-weight:normal;font-size:32px;line-height:1;font-family:'Fira Sans Condensed';font-variant-ligatures:none;text-align:center;text-anchor:middle"></g> 
 </g> 
</svg>