<svg xmlns:dc="http://purl.org/dc/elements/1.1/" xmlns:cc="http://creativecommons.org/ns#" xmlns:rdf="http://www.w3.org/1999/02/22-rdf-syntax-ns#" xmlns:svg="http://www.w3.org/2000/svg" xmlns="http://www.w3.org/2000/svg" id="svg252514" viewbox="0 0 1024 768" height="768px" width="1024px" version="1.1"> <metadata id="metadata252520"> 
  <rdf:rdf> 
   <cc:work rdf:about=""> 
    <dc:format>
     image/svg+xml
    </dc:format> 
    <dc:type rdf:resource="http://purl.org/dc/dcmitype/StillImage"></dc:type> 
   </cc:work> 
  </rdf:rdf> 
 </metadata> <defs id="defs252518"></defs> <g id="logo-group"> 
  <g id="title" style="font-style:oblique;font-weight:700;font-size:72px;line-height:1;font-family:'Uni Neue';font-variant-ligatures:none;text-align:center;text-anchor:middle" aria-label="O7UPGRADE"> 
   <path id="path252522" style="font-style: oblique; font-weight: 700; font-size: 72px; line-height: 1; font-family: &quot;Uni Neue&quot;; font-variant-ligatures: none; text-align: center; text-anchor: middle; fill: rgb(238, 231, 213);" d="m 356.43837,101.64 2.232,-12.744 c 2.16,-12.96 -4.32,-21.312 -16.632,-21.312 -12.6,0 -21.16799,7.056 -23.256,18.864 l -2.232,12.744 c -2.232,12.816 4.03201,21.744 16.34401,21.744 12.95999,0 21.45599,-6.984 23.54399,-19.296 z m -28.44,-1.152 2.376,-13.032 c 1.08001,-5.904 4.464,-9.36 10.15201,-9.36 5.47199,0 7.63199,3.96 6.62399,9.72 l -2.30399,13.176 c -1.00801,5.832 -4.608,9.432 -10.29601,9.432 -5.328,0 -7.56,-4.032 -6.552,-9.936 z" transform="translate(0 285.089974208278) translate(252.00000000000006 65.94169742316717) scale(1.2358797559062378) translate(-316.10488 -67.584)"></path> 
   <path id="path252524" style="font-style: oblique; font-weight: 700; font-size: 72px; line-height: 1; font-family: &quot;Uni Neue&quot;; font-variant-ligatures: none; text-align: center; text-anchor: middle; fill: rgb(238, 231, 213);" d="m 372.67325,120 c 0.72,0 1.152,-0.288 1.512,-0.864 l 24.84,-41.688 c 0.288,-0.504 0.432,-0.936 0.504,-1.44 l 1.008,-6.12 c 0.144,-0.792 -0.288,-1.368 -1.08,-1.368 h -31.896 c -0.792,0 -1.224,0.36 -1.296,1.152 l -1.368,7.776 c -0.144,0.792 0.288,1.368 1.152,1.368 h 19.872 l -23.688,39.672 c -0.504,0.864 -0.072,1.512 0.864,1.512 z" transform="translate(0 285.089974208278) translate(312.45367620003157 67.09848087469538) scale(1.2358797559062378) translate(-362.02038 -68.52)"></path> 
   <path id="path252526" style="font-style: oblique; font-weight: 700; font-size: 72px; line-height: 1; font-family: &quot;Uni Neue&quot;; font-variant-ligatures: none; text-align: center; text-anchor: middle; fill: rgb(174, 198, 163);" d="m 439.53087,102.216 5.61601,-32.328 c 0.072,-0.792 -0.36001,-1.368 -1.15201,-1.368 h -9.072 c -0.72,0 -1.152,0.432 -1.296,1.152 l -5.472,31.68 c -1.07999,5.976 -4.464,8.928 -9.288,8.928 -4.68,0 -7.2,-3.168 -6.12,-9.432 l 5.54401,-30.96 c 0.14399,-0.792 -0.288,-1.368 -1.15201,-1.368 h -9.072 c -0.72,0 -1.152,0.432 -1.296,1.152 l -5.32799,29.88 c -2.23201,13.32 4.03199,21.312 15.76799,21.312 12.88801,0 20.30401,-6.912 22.32,-18.648 z" transform="translate(0 285.089974208278) translate(364.330482840847 67.09848087469538) scale(1.2358797559062378) translate(-400.99599 -68.52)"></path> 
   <path id="path252528" style="font-style: oblique; font-weight: 700; font-size: 72px; line-height: 1; font-family: &quot;Uni Neue&quot;; font-variant-ligatures: none; text-align: center; text-anchor: middle; fill: rgb(174, 198, 163);" d="m 456.31137,68.52 c -0.72,0 -1.224,0.432 -1.296,1.152 l -8.63999,48.96 c -0.144,0.792 0.28799,1.368 1.07999,1.368 h 8.928 c 0.792,0 1.224,-0.432 1.368,-1.152 l 2.52,-14.184 h 7.992 c 11.592,0 18.86401,-6.624 20.736,-16.848 2.088,-11.448 -4.248,-19.296 -16.344,-19.296 z m 12.168,25.848 h -6.408 l 2.736,-15.48 h 6.264 c 4.824,0 7.272,2.736 6.408,7.992 -0.792,4.824 -3.88799,7.488 -9,7.488 z" transform="translate(0 285.089974208278) translate(424.08767900443763 67.09848087469538) scale(1.2358797559062378) translate(-446.34794 -68.52)"></path> 
   <path id="path252530" style="font-style: oblique; font-weight: 700; font-size: 72px; line-height: 1; font-family: &quot;Uni Neue&quot;; font-variant-ligatures: none; text-align: center; text-anchor: middle; fill: rgb(174, 198, 163);" d="m 527.543,114.024 c 0.432,-0.36 0.576,-0.792 0.72,-1.368 l 3.744,-21.24 c 0.144,-0.792 -0.288,-1.368 -1.08,-1.368 h -17.424 c -0.72,0 -1.224,0.432 -1.296,1.152 l -1.224,6.84 c -0.144,0.792 0.288,1.368 1.08,1.368 h 7.632 l -1.656,9 c -2.088,1.152 -5.04,1.872 -8.064,1.944 -4.968,0 -7.2,-3.672 -6.408,-8.496 l 2.592,-15.12 c 0.864,-5.472 4.536,-8.712 9.792,-8.712 4.176,0 7.56,1.224 10.152,3.096 0.648,0.36 1.224,0.36 1.728,-0.288 l 5.544,-6.264 c 0.432,-0.576 0.504,-1.224 -0.144,-1.8 -4.032,-3.168 -9.72,-5.184 -16.128,-5.184 -11.448,0 -20.448,6.336 -22.464,18.072 l -2.592,15.408 c -1.944,11.304 4.824,19.8 16.2,19.8 7.272,0 14.544,-2.664 19.296,-6.84 z" transform="translate(0 285.089974208278) translate(483.86443914456424 65.94169742316717) scale(1.2358797559062378) translate(-491.71572 -67.584)"></path> 
   <path id="path252532" style="font-style: oblique; font-weight: 700; font-size: 72px; line-height: 1; font-family: &quot;Uni Neue&quot;; font-variant-ligatures: none; text-align: center; text-anchor: middle; fill: rgb(174, 198, 163);" d="m 545.75225,120 c 0.792,0 1.224,-0.432 1.368,-1.152 l 2.736,-15.984 h 4.752 l 6.624,16.2 c 0.216,0.648 0.72,0.936 1.44,0.936 h 9.792 c 0.936,0 1.296,-0.576 0.864,-1.44 l -8.064,-17.064 c 7.056,-2.16 11.304,-6.984 12.528,-14.472 1.728,-10.44 -3.96,-18.504 -15.624,-18.504 h -16.56 c -0.792,0 -1.224,0.432 -1.368,1.152 l -8.568,48.96 c -0.144,0.792 0.288,1.368 1.152,1.368 z m 8.28,-41.112 h 6.408 c 4.752,0 6.48,2.52 5.76,7.272 -0.72,4.392 -3.384,6.48 -8.208,6.48 h -6.336 z" transform="translate(0 285.089974208278) translate(541.8633368206296 67.09848087469538) scale(1.2358797559062378) translate(-535.64496 -68.52)"></path> 
   <path id="path252534" style="font-style: oblique; font-weight: 700; font-size: 72px; line-height: 1; font-family: &quot;Uni Neue&quot;; font-variant-ligatures: none; text-align: center; text-anchor: middle; fill: rgb(174, 198, 163);" d="m 619.06175,120 c 0.864,0 1.296,-0.504 1.152,-1.296 l -7.416,-49.032 c -0.144,-0.792 -0.648,-1.152 -1.368,-1.152 h -10.512 c -0.648,0 -1.152,0.288 -1.44,0.936 l -23.976,49.032 c -0.432,0.936 -0.072,1.512 0.864,1.512 h 9.864 c 0.648,0 1.224,-0.288 1.44,-0.936 l 3.888,-8.64 h 16.2 l 1.008,8.424 c 0.072,0.792 0.576,1.152 1.296,1.152 z m -14.4,-38.952 c 0.432,4.608 1.224,12.024 1.944,19.152 h -10.512 c 3.168,-6.912 6.264,-14.4 8.28,-19.152 z" transform="translate(0 285.089974208278) translate(594.6050244734257 67.09848087469538) scale(1.2358797559062378) translate(-575.32038 -68.52)"></path> 
   <path id="path252536" style="font-style: oblique; font-weight: 700; font-size: 72px; line-height: 1; font-family: &quot;Uni Neue&quot;; font-variant-ligatures: none; text-align: center; text-anchor: middle; fill: rgb(174, 198, 163);" d="m 643.81962,120 c 12.096,0 20.304,-4.824 22.75201,-19.008 l 2.08799,-11.88 c 2.448,-14.256 -5.75999,-20.592 -16.272,-20.592 h -16.92 c -0.72,0 -1.224,0.432 -1.296,1.152 l -8.64,48.96 c -0.144,0.792 0.288,1.368 1.08,1.368 z m 0.072,-41.04 h 7.20001 c 5.11199,0 7.19999,2.52 6.12,8.712 l -2.23201,12.816 c -1.152,6.408 -4.32,9.072 -9.35999,9.072 h -7.12801 z" transform="translate(0 285.089974208278) translate(660.333806235592 67.09848087469538) scale(1.2358797559062378) translate(-625.50418 -68.52)"></path> 
   <path id="path252538" style="font-style: oblique; font-weight: 700; font-size: 72px; line-height: 1; font-family: &quot;Uni Neue&quot;; font-variant-ligatures: none; text-align: center; text-anchor: middle; fill: rgb(174, 198, 163);" d="m 712.8305,69.888 c 0.144,-0.792 -0.288,-1.368 -1.152,-1.368 h -29.592 c -0.72,0 -1.152,0.432 -1.296,1.152 l -8.712,48.96 c -0.072,0.792 0.288,1.368 1.152,1.368 h 30.744 c 0.792,0 1.224,-0.36 1.368,-1.152 l 1.296,-7.848 c 0.072,-0.792 -0.36,-1.368 -1.152,-1.368 h -20.376 l 1.872,-10.728 h 17.352 c 0.72,0 1.152,-0.432 1.296,-1.152 l 1.368,-7.56 c 0.144,-0.864 -0.288,-1.368 -1.08,-1.368 h -17.136 l 1.8,-10.008 h 19.584 c 0.72,0 1.152,-0.432 1.296,-1.152 z" transform="translate(0 285.089974208278) translate(721.5906312537967 67.09848087469538) scale(1.2358797559062378) translate(-672.06954 -68.52)"></path> 
  </g> 
  <g id="tagline" style="font-style:oblique;font-weight:400;font-size:32px;line-height:1;font-family:Lato;font-variant-ligatures:none;text-align:center;text-anchor:middle"></g> 
 </g> 
</svg>