<svg xmlns:dc="http://purl.org/dc/elements/1.1/" xmlns:cc="http://creativecommons.org/ns#" xmlns:rdf="http://www.w3.org/1999/02/22-rdf-syntax-ns#" xmlns:svg="http://www.w3.org/2000/svg" xmlns="http://www.w3.org/2000/svg" id="svg121398" viewbox="0 0 1024 768" height="768px" width="1024px" version="1.1"> <metadata id="metadata121404"> 
  <rdf:rdf> 
   <cc:work rdf:about=""> 
    <dc:format>
     image/svg+xml
    </dc:format> 
    <dc:type rdf:resource="http://purl.org/dc/dcmitype/StillImage"></dc:type> 
   </cc:work> 
  </rdf:rdf> 
 </metadata> <defs id="defs121402"></defs> <g id="logo-group"> 
  <g id="title" style="font-style:normal;font-weight:400;font-size:72px;line-height:1;font-family:Teko;font-variant-ligatures:none;text-align:center;text-anchor:middle" aria-label="o7Upgraded"> 
   <path id="path121406" style="font-style: normal; font-weight: 400; font-size: 72px; line-height: 1; font-family: Teko; font-variant-ligatures: none; text-align: center; text-anchor: middle; fill: rgb(131, 115, 92);" d="m 397.18981,84.864 h 7.704 q 6.696,0 6.696,6.408 v 22.392 q 0,6.336 -6.696,6.336 h -7.704 q -6.624,0 -6.624,-6.336 V 91.272 q 0,-6.408 6.624,-6.408 z m 7.992,27.864 V 92.136 q 0,-1.296 -0.432,-1.728 -0.432,-0.432 -1.728,-0.432 h -3.96 q -1.296,0 -1.728,0.432 -0.36,0.432 -0.36,1.728 v 20.592 q 0,1.296 0.36,1.728 0.432,0.432 1.728,0.432 h 3.96 q 1.296,0 1.728,-0.432 0.432,-0.432 0.432,-1.728 z" transform="translate(0 211.21496347832846) translate(251.99999999999983 141.8805826431856) scale(1.9291169711913836) translate(-390.56581 -84.864)"></path> 
   <path id="path121408" style="font-style: normal; font-weight: 400; font-size: 72px; line-height: 1; font-family: Teko; font-variant-ligatures: none; text-align: center; text-anchor: middle; fill: rgb(131, 115, 92);" d="m 434.92794,74.928 v 4.032 l -12.096,41.04 h -6.624 l 11.736,-39.672 h -13.176 v -5.4 z" transform="translate(0 211.21496347832846) translate(304.4760906355541 122.71287641742799) scale(1.9291169711913836) translate(-414.76794 -74.928)"></path> 
   <path id="path121410" style="font-style: normal; font-weight: 400; font-size: 72px; line-height: 1; font-family: Teko; font-variant-ligatures: none; text-align: center; text-anchor: middle; fill: rgb(208, 150, 113);" d="m 453.79306,74.928 h 6.552 v 38.736 q 0,6.336 -6.768,6.336 h -7.992 q -6.768,0 -6.768,-6.336 V 74.928 h 6.552 v 37.728 q 0,1.296 0.432,1.728 0.432,0.36 1.728,0.36 h 4.104 q 1.368,0 1.728,-0.36 0.432,-0.432 0.432,-1.728 z" transform="translate(0 211.21496347832846) translate(356.6570070833464 122.71287641742799) scale(1.9291169711913836) translate(-438.81706 -74.928)"></path> 
   <path id="path121412" style="font-style: normal; font-weight: 400; font-size: 72px; line-height: 1; font-family: Teko; font-variant-ligatures: none; text-align: center; text-anchor: middle; fill: rgb(208, 150, 113);" d="m 477.94794,84.864 h 2.52 q 6.552,0 6.552,6.408 v 22.392 q 0,6.336 -6.552,6.336 h -2.52 q -3.528,0 -4.464,-2.808 v 12.744 h -6.48 V 84.864 h 6.48 v 2.808 q 0.936,-2.808 4.464,-2.808 z m 2.592,27.792 V 92.208 q 0,-1.296 -0.432,-1.656 -0.432,-0.432 -1.728,-0.432 h -2.52 q -1.296,0 -1.872,0.576 -0.504,0.576 -0.504,1.944 v 19.584 q 0,1.368 0.504,1.944 0.576,0.576 1.872,0.576 h 2.52 q 1.296,0 1.728,-0.36 0.432,-0.432 0.432,-1.728 z" transform="translate(0 211.21496347832846) translate(416.82014656985547 141.8805826431856) scale(1.9291169711913836) translate(-467.00394 -84.864)"></path> 
   <path id="path121414" style="font-style: normal; font-weight: 400; font-size: 72px; line-height: 1; font-family: Teko; font-variant-ligatures: none; text-align: center; text-anchor: middle; fill: rgb(208, 150, 113);" d="m 505.98294,84.864 h 6.48 V 123.6 q 0,6.336 -6.768,6.336 h -12.024 v -5.112 h 10.152 q 1.296,0 1.728,-0.432 0.432,-0.432 0.432,-1.656 v -5.976 q -0.936,2.808 -4.464,2.808 h -2.592 q -6.48,0 -6.48,-6.408 V 91.272 q 0,-6.408 6.48,-6.408 h 2.592 q 3.528,0 4.464,2.808 z m -4.896,29.448 h 2.52 q 1.296,0 1.8,-0.576 0.576,-0.576 0.576,-1.944 V 92.64 q 0,-1.368 -0.576,-1.944 -0.504,-0.576 -1.8,-0.576 h -2.52 q -1.296,0 -1.728,0.432 -0.432,0.36 -0.432,1.656 v 20.016 q 0,1.224 0.432,1.656 0.432,0.432 1.728,0.432 z" transform="translate(0 211.21496347832846) translate(471.69002058145196 141.8805826431856) scale(1.9291169711913836) translate(-492.44694 -84.864)"></path> 
   <path id="path121416" style="font-style: normal; font-weight: 400; font-size: 72px; line-height: 1; font-family: Teko; font-variant-ligatures: none; text-align: center; text-anchor: middle; fill: rgb(208, 150, 113);" d="m 530.92194,84.792 h 1.44 v 5.616 h -2.592 q -4.536,0 -4.536,5.328 V 120 h -6.48 V 84.864 h 6.48 v 4.32 q 0.576,-1.872 2.016,-3.096 1.512,-1.296 3.672,-1.296 z" transform="translate(0 211.21496347832846) translate(528.2266516561577 141.7416862212598) scale(1.9291169711913836) translate(-518.75394 -84.792)"></path> 
   <path id="path121418" style="font-style: normal; font-weight: 400; font-size: 72px; line-height: 1; font-family: Teko; font-variant-ligatures: none; text-align: center; text-anchor: middle; fill: rgb(208, 150, 113);" d="m 549.01419,84.864 h 6.48 V 120 h -6.48 v -2.808 q -0.936,2.808 -4.464,2.808 h -2.592 q -6.48,0 -6.48,-6.336 V 91.272 q 0,-6.408 6.48,-6.408 h 2.592 q 3.528,0 4.464,2.808 z m -4.896,29.88 h 2.52 q 1.296,0 1.8,-0.576 0.576,-0.576 0.576,-1.944 V 92.64 q 0,-1.368 -0.576,-1.944 -0.504,-0.576 -1.8,-0.576 h -2.52 q -1.296,0 -1.728,0.432 -0.432,0.36 -0.432,1.656 v 20.448 q 0,1.296 0.432,1.728 0.432,0.36 1.728,0.36 z" transform="translate(0 211.21496347832846) translate(566.2770370751797 141.8805826431856) scale(1.9291169711913836) translate(-535.47819 -84.864)"></path> 
   <path id="path121420" style="font-style: normal; font-weight: 400; font-size: 72px; line-height: 1; font-family: Teko; font-variant-ligatures: none; text-align: center; text-anchor: middle; fill: rgb(208, 150, 113);" d="m 574.88919,71.832 h 6.48 V 120 h -6.48 v -2.808 q -0.936,2.808 -4.464,2.808 h -2.592 q -6.48,0 -6.48,-6.336 V 91.2 q 0,-6.408 6.48,-6.408 h 2.592 q 3.528,0 4.464,2.808 z m -4.896,42.912 h 2.52 q 1.296,0 1.8,-0.576 0.576,-0.576 0.576,-1.944 V 92.568 q 0,-1.368 -0.576,-1.944 -0.504,-0.576 -1.8,-0.576 h -2.52 q -1.296,0 -1.728,0.432 -0.432,0.432 -0.432,1.656 v 20.52 q 0,1.296 0.432,1.728 0.432,0.36 1.728,0.36 z" transform="translate(0 211.21496347832846) translate(621.980289618331 116.74033027461945) scale(1.9291169711913836) translate(-561.35319 -71.832)"></path> 
   <path id="path121422" style="font-style: normal; font-weight: 400; font-size: 72px; line-height: 1; font-family: Teko; font-variant-ligatures: none; text-align: center; text-anchor: middle; fill: rgb(208, 150, 113);" d="m 594.21219,84.864 h 7.056 q 6.768,0 6.768,6.408 v 13.176 h -14.184 v 8.352 q 0,1.224 0.432,1.656 0.432,0.432 1.728,0.432 h 3.312 q 1.296,0 1.728,-0.432 0.432,-0.432 0.432,-1.728 v -2.88 h 6.336 v 3.816 q 0,6.336 -6.696,6.336 h -6.912 q -6.696,0 -6.696,-6.336 V 91.272 q 0,-6.408 6.696,-6.408 z m -0.36,14.832 h 7.776 v -7.632 q 0,-1.224 -0.432,-1.656 -0.36,-0.432 -1.656,-0.432 h -3.528 q -1.296,0 -1.728,0.432 -0.432,0.432 -0.432,1.656 z" transform="translate(0 211.21496347832846) translate(678.2391278491854 141.8805826431856) scale(1.9291169711913836) translate(-587.51619 -84.864)"></path> 
   <path id="path121424" style="font-style: normal; font-weight: 400; font-size: 72px; line-height: 1; font-family: Teko; font-variant-ligatures: none; text-align: center; text-anchor: middle; fill: rgb(208, 150, 113);" d="m 626.63919,71.832 h 6.48 V 120 h -6.48 v -2.808 q -0.936,2.808 -4.464,2.808 h -2.592 q -6.48,0 -6.48,-6.336 V 91.2 q 0,-6.408 6.48,-6.408 h 2.592 q 3.528,0 4.464,2.808 z m -4.896,42.912 h 2.52 q 1.296,0 1.8,-0.576 0.576,-0.576 0.576,-1.944 V 92.568 q 0,-1.368 -0.576,-1.944 -0.504,-0.576 -1.8,-0.576 h -2.52 q -1.296,0 -1.728,0.432 -0.432,0.432 -0.432,1.656 v 20.52 q 0,1.296 0.432,1.728 0.432,0.36 1.728,0.36 z" transform="translate(0 211.21496347832846) translate(733.3867947046334 116.74033027461945) scale(1.9291169711913836) translate(-613.10319 -71.832)"></path> 
  </g> 
  <g id="tagline" style="font-style:oblique;font-weight:normal;font-size:32px;line-height:1;font-family:'Fira Sans Condensed';font-variant-ligatures:none;text-align:center;text-anchor:middle"></g> 
 </g> 
</svg>