<svg xmlns:dc="http://purl.org/dc/elements/1.1/" xmlns:cc="http://creativecommons.org/ns#" xmlns:rdf="http://www.w3.org/1999/02/22-rdf-syntax-ns#" xmlns:svg="http://www.w3.org/2000/svg" xmlns="http://www.w3.org/2000/svg" id="svg3905" viewbox="0 0 1024 768" height="768px" width="1024px" version="1.1"> <metadata id="metadata3911"> 
  <rdf:rdf> 
   <cc:work rdf:about=""> 
    <dc:format>
     image/svg+xml
    </dc:format> 
    <dc:type rdf:resource="http://purl.org/dc/dcmitype/StillImage"></dc:type> 
   </cc:work> 
  </rdf:rdf> 
 </metadata> <defs id="defs3909"></defs> <g id="logo-group"> 
  <g id="title" style="font-style:oblique;font-weight:700;font-size:72px;line-height:1;font-family:'Uni Neue';font-variant-ligatures:none;text-align:center;text-anchor:middle" aria-label="O7VALUE"> 
   <path id="path3913" style="font-style: oblique; font-weight: 700; font-size: 72px; line-height: 1; font-family: &quot;Uni Neue&quot;; font-variant-ligatures: none; text-align: center; text-anchor: middle; fill: rgb(240, 240, 240);" d="m 407.27431,101.64 2.232,-12.744 c 2.16,-12.96 -4.32,-21.312 -16.632,-21.312 -12.6,0 -21.168,7.056 -23.256,18.864 l -2.232,12.744 c -2.232,12.816 4.032,21.744 16.344,21.744 12.96,0 21.456,-6.984 23.544,-19.296 z m -28.44,-1.152 2.376,-13.032 c 1.08,-5.904 4.464,-9.36 10.152,-9.36 5.472,0 7.632,3.96 6.624,9.72 l -2.304,13.176 c -1.008,5.832 -4.608,9.432 -10.296,9.432 -5.328,0 -7.56,-4.032 -6.552,-9.936 z" transform="translate(0 245.02644533221115) translate(252.00000000000006 94.66706911381118) scale(1.6609118891129733) translate(-366.94082 -67.584)"></path> 
   <path id="path3915" style="font-style: oblique; font-weight: 700; font-size: 72px; line-height: 1; font-family: &quot;Uni Neue&quot;; font-variant-ligatures: none; text-align: center; text-anchor: middle; fill: rgb(240, 240, 240);" d="m 423.50919,120 c 0.72,0 1.152,-0.288 1.512,-0.864 l 24.84,-41.688 c 0.288,-0.504 0.432,-0.936 0.504,-1.44 l 1.008,-6.12 c 0.144,-0.792 -0.288,-1.368 -1.08,-1.368 h -31.896 c -0.792,0 -1.224,0.36 -1.296,1.152 l -1.368,7.776 c -0.144,0.792 0.288,1.368 1.152,1.368 h 19.872 l -23.688,39.672 c -0.504,0.864 -0.072,1.512 0.864,1.512 z" transform="translate(0 245.02644533221115) translate(333.2443355119057 96.22168264202094) scale(1.6609118891129733) translate(-412.85632 -68.52)"></path> 
   <path id="path3917" style="font-style: oblique; font-weight: 700; font-size: 72px; line-height: 1; font-family: &quot;Uni Neue&quot;; font-variant-ligatures: none; text-align: center; text-anchor: middle; fill: rgb(255, 255, 255);" d="m 472.51081,120 c 0.648,0 1.152,-0.288 1.44,-0.936 l 24.408,-49.032 c 0.432,-0.936 0.072,-1.512 -0.864,-1.512 h -9.936 c -0.648,0 -1.224,0.36 -1.512,0.936 l -10.656,23.04 c -2.088,4.608 -4.392,10.44 -6.048,14.544 h -0.432 c -0.288,-4.176 -0.936,-10.584 -1.512,-15.408 l -2.592,-21.96 c -0.072,-0.792 -0.576,-1.152 -1.368,-1.152 h -9.144 c -0.792,0 -1.296,0.504 -1.152,1.296 l 7.2,49.032 c 0.144,0.792 0.576,1.152 1.368,1.152 z" transform="translate(0 245.02644533221115) translate(405.09865583135456 96.22168264202094) scale(1.6609118891129733) translate(-453.11829 -68.52)"></path> 
   <path id="path3919" style="font-style: oblique; font-weight: 700; font-size: 72px; line-height: 1; font-family: &quot;Uni Neue&quot;; font-variant-ligatures: none; text-align: center; text-anchor: middle; fill: rgb(255, 255, 255);" d="m 531.38206,120 c 0.864,0 1.296,-0.504 1.152,-1.296 l -7.416,-49.032 c -0.144,-0.792 -0.648,-1.152 -1.368,-1.152 h -10.512 c -0.648,0 -1.152,0.288 -1.44,0.936 l -23.976,49.032 c -0.432,0.936 -0.072,1.512 0.864,1.512 h 9.864 c 0.648,0 1.224,-0.288 1.44,-0.936 l 3.888,-8.64 h 16.2 l 1.008,8.424 c 0.072,0.792 0.576,1.152 1.296,1.152 z m -14.4,-38.952 c 0.432,4.608 1.224,12.024 1.944,19.152 h -10.512 c 3.168,-6.912 6.264,-14.4 8.28,-19.152 z" transform="translate(0 245.02644533221115) translate(467.4200560994072 96.22168264202094) scale(1.6609118891129733) translate(-487.64069 -68.52)"></path> 
   <path id="path3921" style="font-style: oblique; font-weight: 700; font-size: 72px; line-height: 1; font-family: &quot;Uni Neue&quot;; font-variant-ligatures: none; text-align: center; text-anchor: middle; fill: rgb(255, 255, 255);" d="m 557.86794,69.888 c 0.072,-0.792 -0.288,-1.368 -1.152,-1.368 h -8.928 c -0.72,0 -1.224,0.432 -1.296,1.152 l -8.64,48.96 c -0.144,0.792 0.288,1.368 1.08,1.368 h 28.656 c 0.792,0 1.224,-0.432 1.368,-1.152 l 1.368,-7.92 c 0.144,-0.792 -0.288,-1.368 -1.152,-1.368 h -18.288 z" transform="translate(0 245.02644533221115) translate(555.7536784367325 96.22168264202094) scale(1.6609118891129733) translate(-537.8245 -68.52)"></path> 
   <path id="path3923" style="font-style: oblique; font-weight: 700; font-size: 72px; line-height: 1; font-family: &quot;Uni Neue&quot;; font-variant-ligatures: none; text-align: center; text-anchor: middle; fill: rgb(255, 255, 255);" d="m 614.39806,102.216 5.616,-32.328 c 0.072,-0.792 -0.36,-1.368 -1.152,-1.368 h -9.072 c -0.72,0 -1.152,0.432 -1.296,1.152 l -5.472,31.68 c -1.08,5.976 -4.464,8.928 -9.288,8.928 -4.68,0 -7.2,-3.168 -6.12,-9.432 l 5.544,-30.96 c 0.144,-0.792 -0.288,-1.368 -1.152,-1.368 h -9.072 c -0.72,0 -1.152,0.432 -1.296,1.152 l -5.328,29.88 c -2.232,13.32 4.032,21.312 15.768,21.312 12.888,0 20.304,-6.912 22.32,-18.648 z" transform="translate(0 245.02644533221115) translate(623.9152933531166 96.22168264202094) scale(1.6609118891129733) translate(-575.86317 -68.52)"></path> 
   <path id="path3925" style="font-style: oblique; font-weight: 700; font-size: 72px; line-height: 1; font-family: &quot;Uni Neue&quot;; font-variant-ligatures: none; text-align: center; text-anchor: middle; fill: rgb(255, 255, 255);" d="m 661.99456,69.888 c 0.144,-0.792 -0.288,-1.368 -1.152,-1.368 h -29.592 c -0.72,0 -1.152,0.432 -1.296,1.152 l -8.712,48.96 c -0.072,0.792 0.288,1.368 1.152,1.368 h 30.744 c 0.792,0 1.224,-0.36 1.368,-1.152 l 1.296,-7.848 c 0.072,-0.792 -0.36,-1.368 -1.152,-1.368 h -20.376 l 1.872,-10.728 h 17.352 c 0.72,0 1.152,-0.432 1.296,-1.152 l 1.368,-7.56 c 0.144,-0.864 -0.288,-1.368 -1.08,-1.368 h -17.136 l 1.8,-10.008 h 19.584 c 0.72,0 1.152,-0.432 1.296,-1.152 z" transform="translate(0 245.02644533221115) translate(704.2543156216235 96.22168264202094) scale(1.6609118891129733) translate(-621.2336 -68.52)"></path> 
  </g> 
  <g id="tagline" style="font-style:oblique;font-weight:400;font-size:32px;line-height:1;font-family:Lato;font-variant-ligatures:none;text-align:center;text-anchor:middle"></g> 
 </g> 
</svg>