<svg xmlns:dc="http://purl.org/dc/elements/1.1/" xmlns:cc="http://creativecommons.org/ns#" xmlns:rdf="http://www.w3.org/1999/02/22-rdf-syntax-ns#" xmlns:svg="http://www.w3.org/2000/svg" xmlns="http://www.w3.org/2000/svg" id="svg90958" viewbox="0 0 1024 768" height="768px" width="1024px" version="1.1"> <metadata id="metadata90964"> 
  <rdf:rdf> 
   <cc:work rdf:about=""> 
    <dc:format>
     image/svg+xml
    </dc:format> 
    <dc:type rdf:resource="http://purl.org/dc/dcmitype/StillImage"></dc:type> 
   </cc:work> 
  </rdf:rdf> 
 </metadata> <defs id="defs90962"></defs> <g id="logo-group"> 
  <g id="title" style="font-style:normal;font-weight:200;font-size:72px;line-height:1;font-family:Montserrat;font-variant-ligatures:none;text-align:center;text-anchor:middle" aria-label="O7VICTORY"> 
   <path id="path90966" style="font-style: normal; font-weight: 200; font-size: 72px; line-height: 1; font-family: Montserrat; font-variant-ligatures: none; text-align: center; text-anchor: middle; fill: rgb(49, 50, 57);" d="m 340.14331,69.384 q 6.984,0 12.888,3.456 5.976,3.384 9.432,9.216 3.528,5.832 3.528,12.672 0,6.84 -3.528,12.744 -3.456,5.832 -9.432,9.288 -5.904,3.456 -12.888,3.456 -6.984,0 -12.96,-3.456 -5.904,-3.456 -9.432,-9.288 -3.456,-5.904 -3.456,-12.744 0,-6.84 3.456,-12.672 3.528,-5.832 9.432,-9.216 5.976,-3.456 12.96,-3.456 z m 0,1.44 q -6.552,0 -12.168,3.24 -5.616,3.24 -8.928,8.784 -3.312,5.472 -3.312,11.88 0,6.48 3.312,12.024 3.312,5.544 8.928,8.784 5.616,3.24 12.168,3.24 6.552,0 12.168,-3.24 5.616,-3.24 8.928,-8.784 3.312,-5.544 3.312,-12.024 0,-6.408 -3.312,-11.88 -3.312,-5.544 -8.928,-8.784 -5.616,-3.24 -12.168,-3.24 z" transform="translate(0 279.62657950672417) translate(252.0000000000001 71.19389940406593) scale(1.3054580220809686) translate(-314.29531 -69.384)"></path> 
   <path id="path90968" style="font-style: normal; font-weight: 200; font-size: 72px; line-height: 1; font-family: Montserrat; font-variant-ligatures: none; text-align: center; text-anchor: middle; fill: rgb(49, 50, 57);" d="m 372.20919,69.672 h 35.496 v 1.8 L 383.08119,120 h -1.584 l 24.912,-48.888 h -32.76 v 8.064 h -1.44 z" transform="translate(0 279.62657950672417) translate(327.6041392358346 71.56987131442524) scale(1.3054580220809686) translate(-372.20919 -69.672)"></path> 
   <path id="path90970" style="font-style: normal; font-weight: 200; font-size: 72px; line-height: 1; font-family: Montserrat; font-variant-ligatures: none; text-align: center; text-anchor: middle; fill: rgb(126, 110, 91);" d="m 410.27469,69.672 h 1.656 l 20.16,48.672 20.088,-48.672 h 1.728 L 432.88269,120 h -1.584 z" transform="translate(0 279.62657950672417) translate(377.29705157535784 71.56987131442524) scale(1.3054580220809686) translate(-410.27469 -69.672)"></path> 
   <path id="path90972" style="font-style: normal; font-weight: 200; font-size: 72px; line-height: 1; font-family: Montserrat; font-variant-ligatures: none; text-align: center; text-anchor: middle; fill: rgb(126, 110, 91);" d="m 463.91131,69.672 h 1.44 V 120 h -1.44 z" transform="translate(0 279.62657950672417) translate(447.3174074316663 71.56987131442524) scale(1.3054580220809686) translate(-463.91131 -69.672)"></path> 
   <path id="path90974" style="font-style: normal; font-weight: 200; font-size: 72px; line-height: 1; font-family: Montserrat; font-variant-ligatures: none; text-align: center; text-anchor: middle; fill: rgb(126, 110, 91);" d="m 520.31544,76.872 q -3.24,-2.952 -7.488,-4.536 -4.176,-1.584 -8.856,-1.584 -6.624,0 -12.24,3.24 -5.616,3.24 -8.928,8.784 -3.312,5.544 -3.312,12.024 0,6.48 3.312,12.024 3.312,5.544 8.928,8.784 5.616,3.24 12.24,3.24 4.608,0 8.784,-1.584 4.248,-1.656 7.56,-4.608 l 1.008,0.936 q -3.528,3.168 -7.992,4.896 -4.464,1.728 -9.36,1.728 -6.984,0 -12.96,-3.456 -5.904,-3.456 -9.432,-9.288 -3.456,-5.832 -3.456,-12.672 0,-6.84 3.456,-12.672 3.528,-5.904 9.432,-9.288 5.976,-3.456 12.96,-3.456 4.896,0 9.288,1.728 4.464,1.728 7.992,4.824 z" transform="translate(0 279.62657950672417) translate(465.8707465510239 71.19389940406593) scale(1.3054580220809686) translate(-478.12344 -69.384)"></path> 
   <path id="path90976" style="font-style: normal; font-weight: 200; font-size: 72px; line-height: 1; font-family: Montserrat; font-variant-ligatures: none; text-align: center; text-anchor: middle; fill: rgb(126, 110, 91);" d="m 526.22506,69.672 h 36 v 1.44 h -17.28 V 120 h -1.44 V 71.112 h -17.28 z" transform="translate(0 279.62657950672417) translate(528.6653922551143 71.56987131442524) scale(1.3054580220809686) translate(-526.22506 -69.672)"></path> 
   <path id="path90978" style="font-style: normal; font-weight: 200; font-size: 72px; line-height: 1; font-family: Montserrat; font-variant-ligatures: none; text-align: center; text-anchor: middle; fill: rgb(126, 110, 91);" d="m 588.90894,69.384 q 6.984,0 12.888,3.456 5.976,3.384 9.432,9.216 3.528,5.832 3.528,12.672 0,6.84 -3.528,12.744 -3.456,5.832 -9.432,9.288 -5.904,3.456 -12.888,3.456 -6.984,0 -12.96,-3.456 -5.904,-3.456 -9.432,-9.288 -3.456,-5.904 -3.456,-12.744 0,-6.84 3.456,-12.672 3.528,-5.832 9.432,-9.216 5.976,-3.456 12.96,-3.456 z m 0,1.44 q -6.552,0 -12.168,3.24 -5.616,3.24 -8.928,8.784 -3.312,5.472 -3.312,11.88 0,6.48 3.312,12.024 3.312,5.544 8.928,8.784 5.616,3.24 12.168,3.24 6.552,0 12.168,-3.24 5.616,-3.24 8.928,-8.784 3.312,-5.544 3.312,-12.024 0,-6.408 -3.312,-11.88 -3.312,-5.544 -8.928,-8.784 -5.616,-3.24 -12.168,-3.24 z" transform="translate(0 279.62657950672417) translate(576.7530873015262 71.19389940406593) scale(1.3054580220809686) translate(-563.06094 -69.384)"></path> 
   <path id="path90980" style="font-style: normal; font-weight: 200; font-size: 72px; line-height: 1; font-family: Montserrat; font-variant-ligatures: none; text-align: center; text-anchor: middle; fill: rgb(126, 110, 91);" d="m 663.88681,86.016 q 0,6.48 -3.384,10.656 -3.384,4.104 -9.648,5.472 l 13.032,17.856 h -1.8 l -12.816,-17.568 q -2.88,0.288 -4.608,0.288 h -15.624 V 120 h -1.44 V 69.672 h 17.064 q 9.144,0 14.184,4.32 5.04,4.248 5.04,12.024 z m -19.224,15.264 q 8.496,0 13.104,-3.96 4.68,-4.032 4.68,-11.304 0,-7.128 -4.68,-11.016 -4.608,-3.888 -13.104,-3.888 h -15.624 v 30.168 z" transform="translate(0 279.62657950672417) translate(661.0045674210448 71.56987131442524) scale(1.3054580220809686) translate(-627.59881 -69.672)"></path> 
   <path id="path90982" style="font-style: normal; font-weight: 200; font-size: 72px; line-height: 1; font-family: Montserrat; font-variant-ligatures: none; text-align: center; text-anchor: middle; fill: rgb(126, 110, 91);" d="m 712.62294,69.672 -20.232,30.96 V 120 h -1.44 v -19.368 l -20.52,-30.96 h 1.728 l 19.512,29.52 19.224,-29.52 z" transform="translate(0 279.62657950672417) translate(716.9201151323598 71.56987131442524) scale(1.3054580220809686) translate(-670.43094 -69.672)"></path> 
  </g> 
  <g id="tagline" style="font-style:normal;font-weight:400;font-size:32px;line-height:1;font-family:Montserrat;font-variant-ligatures:none;text-align:center;text-anchor:middle"></g> 
 </g> 
</svg>