<svg xmlns:dc="http://purl.org/dc/elements/1.1/" xmlns:cc="http://creativecommons.org/ns#" xmlns:rdf="http://www.w3.org/1999/02/22-rdf-syntax-ns#" xmlns:svg="http://www.w3.org/2000/svg" xmlns="http://www.w3.org/2000/svg" id="svg17899" viewbox="0 0 1024 768" height="768px" width="1024px" version="1.1"> <metadata id="metadata17905"> 
  <rdf:rdf> 
   <cc:work rdf:about=""> 
    <dc:format>
     image/svg+xml
    </dc:format> 
    <dc:type rdf:resource="http://purl.org/dc/dcmitype/StillImage"></dc:type> 
   </cc:work> 
  </rdf:rdf> 
 </metadata> <defs id="defs17903"></defs> <g id="logo-group"> 
  <g id="title" style="font-style:normal;font-weight:500;font-size:72px;line-height:1;font-family:'Raleway Medium Alt1';font-variant-ligatures:none;text-align:center;text-anchor:middle" aria-label="O7WISDOM"> 
   <path id="path17907" style="font-style: normal; font-weight: 500; font-size: 72px; line-height: 1; font-family: &quot;Raleway Medium Alt1&quot;; font-variant-ligatures: none; text-align: center; text-anchor: middle; fill: rgb(255, 255, 255);" d="m 356.80175,97.248 c -0.216,1.512 -0.504,3.024 -1.008,4.464 -0.792,2.448 -1.944,4.608 -3.456,6.48 -1.512,1.872 -3.384,3.456 -5.472,4.608 -2.232,1.152 -4.68,1.728 -7.344,1.728 -2.664,0 -5.04,-0.504 -7.2,-1.656 -2.16,-1.08 -4.032,-2.592 -5.544,-4.464 -1.584,-1.872 -2.736,-3.96 -3.6,-6.408 -0.504,-1.512 -0.864,-3.096 -1.08,-4.752 h -6.552 c 0.216,2.304 0.72,4.608 1.584,6.768 1.08,3.168 2.736,5.904 4.896,8.352 2.088,2.448 4.608,4.392 7.56,5.832 2.952,1.44 6.264,2.16 9.864,2.16 3.456,0 6.624,-0.648 9.576,-2.088 2.952,-1.44 5.472,-3.312 7.632,-5.688 2.16,-2.376 3.816,-5.112 5.04,-8.28 0.864,-2.232 1.44,-4.608 1.728,-7.056 z m -33.624,-10.152 c 0.792,-2.376 1.944,-4.464 3.456,-6.408 1.512,-1.872 3.384,-3.384 5.544,-4.536 2.16,-1.152 4.608,-1.728 7.344,-1.728 2.52,0 4.896,0.576 7.056,1.656 2.16,1.152 3.96,2.592 5.544,4.464 1.584,1.872 2.736,3.96 3.6,6.408 0.432,1.296 0.792,2.664 1.008,3.96 h 6.552 c -0.288,-1.944 -0.792,-3.96 -1.44,-5.832 -1.152,-3.096 -2.808,-5.832 -4.896,-8.352 -2.16,-2.448 -4.68,-4.392 -7.56,-5.904 -2.952,-1.512 -6.264,-2.304 -9.792,-2.304 -3.528,0 -6.696,0.72 -9.648,2.16 -2.952,1.44 -5.472,3.312 -7.632,5.688 -2.16,2.448 -3.888,5.184 -5.112,8.28 -0.792,2.088 -1.368,4.176 -1.584,6.264 h 6.552 c 0.216,-1.224 0.576,-2.52 1.008,-3.816 z" transform="translate(0 278.98) translate(202.7442999999999 67.12999999999998) scale(1.25) translate(-315.54575 -68.52)"></path> 
   <path id="path17909" style="font-style: normal; font-weight: 500; font-size: 72px; line-height: 1; font-family: &quot;Raleway Medium Alt1&quot;; font-variant-ligatures: none; text-align: center; text-anchor: middle; fill: rgb(255, 255, 255);" d="m 394.67712,83.856 -22.896,45.288 h 7.20001 l 25.70399,-51.12 h -36.28799 v 5.832 z" transform="translate(0 278.98) translate(287.5585249999999 79.01) scale(1.25) translate(-368.39713 -78.024)"></path> 
   <path id="path17911" style="font-style: normal; font-weight: 500; font-size: 72px; line-height: 1; font-family: &quot;Raleway Medium Alt1&quot;; font-variant-ligatures: none; text-align: center; text-anchor: middle; fill: rgb(211, 211, 211);" d="m 439.90438,77.88 -3.96001,-8.712 h -6.11999 l 7.128,15.264 z m 32.976,-9 -17.28001,43.488 -3.168,6.48 0.504,1.152 h 5.616 l 21.384,-51.12 z m -26.49601,21.6 9.288,-21.312 h -6.12 l -19.584,43.2 -17.352,-43.488 h -6.98399 L 426.94437,120 h 5.61601 l 10.22399,-23.4 6.696,15.552 3.312,-6.408 z" transform="translate(0 278.98) translate(352.8525874999999 67.58) scale(1.25) translate(-405.63238 -68.88)"></path> 
   <path id="path17913" style="font-style: normal; font-weight: 500; font-size: 72px; line-height: 1; font-family: &quot;Raleway Medium Alt1&quot;; font-variant-ligatures: none; text-align: center; text-anchor: middle; fill: rgb(211, 211, 211);" d="m 486.62,120 h 6.48 V 68.88 h -6.48 z" transform="translate(0 278.98) translate(472.8371124999999 67.58) scale(1.25) translate(-486.62 -68.88)"></path> 
   <path id="path17915" style="font-style: normal; font-weight: 500; font-size: 72px; line-height: 1; font-family: &quot;Raleway Medium Alt1&quot;; font-variant-ligatures: none; text-align: center; text-anchor: middle; fill: rgb(211, 211, 211);" d="m 535.34712,79.608 3.024,-5.256 c -2.15999,-1.728 -4.67999,-3.168 -7.416,-4.248 -2.808,-1.008 -5.904,-1.584 -9.35999,-1.584 -2.66401,0 -5.11201,0.36 -7.34401,1.008 -2.30399,0.648 -4.248,1.584 -5.832,2.88 -1.656,1.296 -2.952,2.88 -3.816,4.752 -0.936,1.872 -1.368,4.032 -1.368,6.48 0,2.016 0.288,3.744 1.00801,5.184 0.64799,1.44 1.656,2.664 2.952,3.672 1.29599,1.008 2.952,1.872 4.968,2.592 1.94399,0.72 4.24799,1.44 6.83999,2.016 2.30401,0.576 4.392,1.152 6.264,1.728 1.87201,0.576 3.384,1.152 4.68001,1.872 1.22399,0.72 2.15999,1.584 2.808,2.592 0.648,1.008 1.00799,2.16 1.00799,3.6 0,2.592 -1.00799,4.536 -3.02399,5.832 -2.01601,1.296 -4.89601,1.944 -8.49601,1.944 -2.016,0 -3.88799,-0.144 -5.688,-0.576 -1.79999,-0.432 -3.456,-0.936 -5.04,-1.584 -1.584,-0.648 -2.95199,-1.368 -4.17599,-2.232 -1.22401,-0.792 -2.23201,-1.584 -2.952,-2.448 l -3.096,5.472 c 2.88,2.376 6.048,4.176 9.57599,5.4 3.528,1.224 7.27201,1.8 11.232,1.8 2.59201,0 5.04001,-0.216 7.344,-0.792 2.232,-0.576 4.17601,-1.44 5.832,-2.592 1.656,-1.152 2.952,-2.664 3.96001,-4.464 0.93599,-1.8 1.43999,-3.96 1.43999,-6.408 0,-2.304 -0.432,-4.248 -1.22399,-5.832 -0.792,-1.584 -1.94401,-2.88 -3.456,-4.032 -1.51201,-1.08 -3.312,-2.016 -5.472,-2.736 -2.16001,-0.72 -4.53601,-1.44 -7.12801,-2.016 -2.30399,-0.504 -4.32,-1.008 -5.976,-1.512 -1.72799,-0.432 -3.096,-1.008 -4.248,-1.656 -1.15199,-0.648 -1.944,-1.44 -2.448,-2.376 -0.57599,-0.864 -0.792,-2.016 -0.792,-3.456 0,-2.592 0.864,-4.608 2.73601,-6.12 1.872,-1.44 4.75199,-2.232 8.784,-2.232 1.51199,0 2.952,0.216 4.39199,0.504 1.44001,0.288 2.736,0.72 3.96001,1.224 1.15199,0.504 2.23199,1.08 3.24,1.656 0.93599,0.648 1.72799,1.296 2.30399,1.944 z" transform="translate(0 278.98) translate(509.92602499999987 67.12999999999998) scale(1.25) translate(-501.29113 -68.52)"></path> 
   <path id="path17917" style="font-style: normal; font-weight: 500; font-size: 72px; line-height: 1; font-family: &quot;Raleway Medium Alt1&quot;; font-variant-ligatures: none; text-align: center; text-anchor: middle; fill: rgb(211, 211, 211);" d="m 590.02212,84.504 c -1.00799,-3.096 -2.592,-5.832 -4.60799,-8.136 -2.088,-2.232 -4.68001,-4.104 -7.77601,-5.472 -3.096,-1.296 -6.69599,-2.016 -10.728,-2.016 h -17.712 v 5.76 h 17.712 c 2.88,0 5.4,0.504 7.70401,1.512 2.232,1.008 4.10399,2.376 5.688,4.032 1.58399,1.728 2.736,3.816 3.52799,6.264 0.792,2.448 1.224,5.112 1.224,7.92 0,2.88 -0.432,5.472 -1.224,7.92 -0.79199,2.448 -1.944,4.536 -3.45599,6.264 -1.51201,1.8 -3.384,3.24 -5.68801,4.176 -2.304,1.008 -4.896,1.512 -7.776,1.512 H 555.67813 V 81.48 h -6.48001 V 120 h 17.712 c 3.74401,0 7.12801,-0.576 10.15201,-1.8 3.024,-1.224 5.688,-2.952 7.84799,-5.184 2.16,-2.232 3.81601,-4.896 4.968,-8.064 1.152,-3.168 1.72801,-6.696 1.72801,-10.584 0,-3.456 -0.57601,-6.768 -1.58401,-9.864 z" transform="translate(0 278.98) translate(588.5597624999999 67.58) scale(1.25) translate(-549.19812 -68.88)"></path> 
   <path id="path17919" style="font-style: normal; font-weight: 500; font-size: 72px; line-height: 1; font-family: &quot;Raleway Medium Alt1&quot;; font-variant-ligatures: none; text-align: center; text-anchor: middle; fill: rgb(211, 211, 211);" d="m 638.8955,97.248 c -0.216,1.512 -0.504,3.024 -1.008,4.464 -0.792,2.448 -1.944,4.608 -3.456,6.48 -1.512,1.872 -3.384,3.456 -5.472,4.608 -2.232,1.152 -4.68,1.728 -7.344,1.728 -2.664,0 -5.04,-0.504 -7.2,-1.656 -2.16,-1.08 -4.032,-2.592 -5.544,-4.464 -1.584,-1.872 -2.736,-3.96 -3.6,-6.408 -0.504,-1.512 -0.864,-3.096 -1.08,-4.752 h -6.552 c 0.216,2.304 0.72,4.608 1.584,6.768 1.08,3.168 2.736,5.904 4.896,8.352 2.088,2.448 4.608,4.392 7.56,5.832 2.952,1.44 6.264,2.16 9.864,2.16 3.456,0 6.624,-0.648 9.576,-2.088 2.952,-1.44 5.472,-3.312 7.632,-5.688 2.16,-2.376 3.816,-5.112 5.04,-8.28 0.864,-2.232 1.44,-4.608 1.728,-7.056 z m -33.624,-10.152 c 0.792,-2.376 1.944,-4.464 3.456,-6.408 1.512,-1.872 3.384,-3.384 5.544,-4.536 2.16,-1.152 4.608,-1.728 7.344,-1.728 2.52,0 4.896,0.576 7.056,1.656 2.16,1.152 3.96,2.592 5.544,4.464 1.584,1.872 2.736,3.96 3.6,6.408 0.432,1.296 0.792,2.664 1.008,3.96 h 6.552 c -0.288,-1.944 -0.792,-3.96 -1.44,-5.832 -1.152,-3.096 -2.808,-5.832 -4.896,-8.352 -2.16,-2.448 -4.68,-4.392 -7.56,-5.904 -2.952,-1.512 -6.264,-2.304 -9.792,-2.304 -3.528,0 -6.696,0.72 -9.648,2.16 -2.952,1.44 -5.472,3.312 -7.632,5.688 -2.16,2.448 -3.888,5.184 -5.112,8.28 -0.792,2.088 -1.368,4.176 -1.584,6.264 h 6.552 c 0.216,-1.224 0.576,-2.52 1.008,-3.816 z" transform="translate(0 278.98) translate(667.8614875 67.12999999999998) scale(1.25) translate(-597.6395 -68.52)"></path> 
   <path id="path17921" style="font-style: normal; font-weight: 500; font-size: 72px; line-height: 1; font-family: &quot;Raleway Medium Alt1&quot;; font-variant-ligatures: none; text-align: center; text-anchor: middle; fill: rgb(211, 211, 211);" d="M 654.66687,68.88 V 120 h 6.48001 V 80.472 l 11.44799,20.448 3.45601,-5.904 -14.544,-26.136 z m 43.92,0 -18.576,33.192 -3.38399,5.904 1.58399,2.808 h 3.67201 L 698.87487,80.472 V 120 h 6.48 V 68.88 Z" transform="translate(0 278.98) translate(757.8957 67.58) scale(1.25) translate(-654.66687 -68.88)"></path> 
  </g> 
  <g id="tagline" style="font-style:oblique;font-weight:600;font-size:32px;line-height:1;font-family:Raleway;font-variant-ligatures:none;text-align:center;text-anchor:middle"></g> 
 </g> 
</svg>