<svg xmlns:dc="http://purl.org/dc/elements/1.1/" xmlns:cc="http://creativecommons.org/ns#" xmlns:rdf="http://www.w3.org/1999/02/22-rdf-syntax-ns#" xmlns:svg="http://www.w3.org/2000/svg" xmlns="http://www.w3.org/2000/svg" id="svg510809" viewbox="0 0 1024 768" height="768px" width="1024px" version="1.1"> <metadata id="metadata510815"> 
  <rdf:rdf> 
   <cc:work rdf:about=""> 
    <dc:format>
     image/svg+xml
    </dc:format> 
    <dc:type rdf:resource="http://purl.org/dc/dcmitype/StillImage"></dc:type> 
   </cc:work> 
  </rdf:rdf> 
 </metadata> <defs id="defs510813"></defs> <g id="logo-group"> 
  <g id="title" style="font-style:normal;font-weight:500;font-size:72px;line-height:1;font-family:'Raleway Medium Alt1';font-variant-ligatures:none;text-align:center;text-anchor:middle" aria-label="O7Writer"> 
   <path id="path510817" style="font-style: normal; font-weight: 500; font-size: 72px; line-height: 1; font-family: &quot;Raleway Medium Alt1&quot;; font-variant-ligatures: none; text-align: center; text-anchor: middle; fill: rgb(18, 17, 61);" d="m 405.66894,97.248 c -0.216,1.512 -0.504,3.024 -1.008,4.464 -0.792,2.448 -1.944,4.608 -3.456,6.48 -1.512,1.872 -3.384,3.456 -5.472,4.608 -2.232,1.152 -4.68,1.728 -7.344,1.728 -2.664,0 -5.04,-0.504 -7.2,-1.656 -2.16,-1.08 -4.032,-2.592 -5.544,-4.464 -1.584,-1.872 -2.736,-3.96 -3.6,-6.408 -0.504,-1.512 -0.864,-3.096 -1.08,-4.752 h -6.552 c 0.216,2.304 0.72,4.608 1.584,6.768 1.08,3.168 2.736,5.904 4.896,8.352 2.088,2.448 4.608,4.392 7.56,5.832 2.952,1.44 6.264,2.16 9.864,2.16 3.456,0 6.624,-0.648 9.576,-2.088 2.952,-1.44 5.472,-3.312 7.632,-5.688 2.16,-2.376 3.816,-5.112 5.04,-8.28 0.864,-2.232 1.44,-4.608 1.728,-7.056 z m -33.624,-10.152 c 0.792,-2.376 1.944,-4.464 3.456,-6.408 1.512,-1.872 3.384,-3.384 5.544,-4.536 2.16,-1.152 4.608,-1.728 7.344,-1.728 2.52,0 4.896,0.576 7.056,1.656 2.16,1.152 3.96,2.592 5.544,4.464 1.584,1.872 2.736,3.96 3.6,6.408 0.432,1.296 0.792,2.664 1.008,3.96 h 6.552 c -0.288,-1.944 -0.792,-3.96 -1.44,-5.832 -1.152,-3.096 -2.808,-5.832 -4.896,-8.352 -2.16,-2.448 -4.68,-4.392 -7.56,-5.904 -2.952,-1.512 -6.264,-2.304 -9.792,-2.304 -3.528,0 -6.696,0.72 -9.648,2.16 -2.952,1.44 -5.472,3.312 -7.632,5.688 -2.16,2.448 -3.888,5.184 -5.112,8.28 -0.792,2.088 -1.368,4.176 -1.584,6.264 h 6.552 c 0.216,-1.224 0.576,-2.52 1.008,-3.816 z" transform="translate(0 247.46728083875036) translate(252 89.89539572832808) scale(1.566482716408758) translate(-364.41294 -68.52)"></path> 
   <path id="path510819" style="font-style: normal; font-weight: 500; font-size: 72px; line-height: 1; font-family: &quot;Raleway Medium Alt1&quot;; font-variant-ligatures: none; text-align: center; text-anchor: middle; fill: rgb(18, 17, 61);" d="m 443.54431,83.856 -22.896,45.288 h 7.2 l 25.704,-51.12 h -36.288 v 5.832 z" transform="translate(0 247.46728083875036) translate(342.62317122556817 104.78324746507695) scale(1.566482716408758) translate(-417.26431 -78.024)"></path> 
   <path id="path510821" style="font-style: normal; font-weight: 500; font-size: 72px; line-height: 1; font-family: &quot;Raleway Medium Alt1&quot;; font-variant-ligatures: none; text-align: center; text-anchor: middle; fill: rgb(18, 17, 61);" d="m 488.77156,77.88 -3.96,-8.712 h -6.12 l 7.128,15.264 z m 32.976,-9 -17.28,43.488 -3.168,6.48 0.504,1.152 h 5.616 l 21.384,-51.12 z m -26.496,21.6 9.288,-21.312 h -6.12 l -19.584,43.2 -17.352,-43.488 h -6.984 l 21.312,51.12 h 5.616 l 10.224,-23.4 6.696,15.552 3.312,-6.408 z" transform="translate(0 247.46728083875036) translate(408.7839603737711 90.45932950623524) scale(1.566482716408758) translate(-454.49956 -68.88)"></path> 
   <path id="path510823" style="font-style: normal; font-weight: 500; font-size: 72px; line-height: 1; font-family: &quot;Raleway Medium Alt1&quot;; font-variant-ligatures: none; text-align: center; text-anchor: middle; fill: rgb(18, 17, 61);" d="M 551.25744,87.96 V 82.2 c -0.288,0 -0.576,-0.072 -0.864,-0.072 h -1.224 c -2.448,0.216 -4.68,1.152 -6.768,2.736 -2.16,1.584 -3.816,3.672 -5.112,6.264 v -8.712 h -5.904 V 120 h 6.336 V 96.816 c 1.008,-2.736 2.664,-4.824 5.112,-6.408 2.448,-1.512 5.256,-2.304 8.424,-2.448 z" transform="translate(0 247.46728083875036) translate(537.0567761116928 111.21209253321848) scale(1.566482716408758) translate(-531.38544 -82.128)"></path> 
   <path id="path510825" style="font-style: normal; font-weight: 500; font-size: 72px; line-height: 1; font-family: &quot;Raleway Medium Alt1&quot;; font-variant-ligatures: none; text-align: center; text-anchor: middle; fill: rgb(18, 17, 61);" d="m 557.54169,120 h 6.336 V 82.416 h -6.336 z m 0,-44.64 h 6.336 v -7.92 h -6.336 z" transform="translate(0 247.46728083875036) translate(585.8625032448032 88.20359439460663) scale(1.566482716408758) translate(-557.54169 -67.44)"></path> 
   <path id="path510827" style="font-style: normal; font-weight: 500; font-size: 72px; line-height: 1; font-family: &quot;Raleway Medium Alt1&quot;; font-variant-ligatures: none; text-align: center; text-anchor: middle; fill: rgb(18, 17, 61);" d="m 593.57544,118.128 -1.512,-5.04 c -0.432,0.288 -1.152,0.576 -2.16,1.008 -1.008,0.432 -2.16,0.576 -3.384,0.576 -1.152,0 -2.088,-0.288 -2.88,-0.936 -0.864,-0.576 -1.296,-1.584 -1.368,-3.024 V 87.384 h 8.424 v -4.968 h -8.424 V 69.888 h -6.336 v 12.528 h -5.112 v 4.968 h 5.112 v 25.272 c 0,2.736 0.792,4.68 2.52,5.976 1.656,1.296 3.672,1.872 5.976,1.872 1.008,0 1.944,-0.072 2.88,-0.216 0.936,-0.144 1.8,-0.36 2.592,-0.648 0.792,-0.288 1.512,-0.504 2.16,-0.792 0.576,-0.288 1.08,-0.504 1.512,-0.72 z" transform="translate(0 247.46728083875036) translate(614.5005486455088 92.0383440843753) scale(1.566482716408758) translate(-570.82344 -69.888)"></path> 
   <path id="path510829" style="font-style: normal; font-weight: 500; font-size: 72px; line-height: 1; font-family: &quot;Raleway Medium Alt1&quot;; font-variant-ligatures: none; text-align: center; text-anchor: middle; fill: rgb(18, 17, 61);" d="m 615.51744,120.72 c 1.872,0 3.672,-0.216 5.4,-0.72 1.728,-0.432 3.24,-1.08 4.68,-1.944 1.44,-0.864 2.664,-1.872 3.744,-3.024 1.08,-1.152 1.944,-2.376 2.592,-3.816 l -5.472,-1.512 c -0.432,1.008 -1.008,1.872 -1.728,2.592 -0.72,0.792 -1.584,1.44 -2.52,1.944 -1.008,0.576 -2.016,1.008 -3.096,1.296 -1.152,0.288 -2.232,0.432 -3.384,0.432 -1.656,0 -3.24,-0.288 -4.68,-0.936 -1.44,-0.576 -2.736,-1.44 -3.888,-2.592 -1.152,-1.08 -2.088,-2.376 -2.808,-3.96 -0.72,-1.512 -1.152,-3.24 -1.296,-5.112 h 31.176 c 0,-0.216 0.072,-0.576 0.072,-1.008 0,-0.432 0.072,-0.864 0.072,-1.44 0,-2.448 -0.504,-4.896 -1.368,-7.2 -0.864,-2.304 -2.16,-4.392 -3.744,-6.12 -1.656,-1.728 -3.672,-3.168 -5.976,-4.248 -2.304,-1.008 -4.896,-1.584 -7.704,-1.584 -2.88,0 -5.472,0.576 -7.776,1.584 -2.376,1.008 -4.392,2.448 -6.12,4.176 -1.728,1.8 -3.024,3.888 -3.96,6.192 -0.936,2.376 -1.368,4.896 -1.368,7.488 0,2.664 0.432,5.184 1.368,7.56 0.936,2.376 2.232,4.464 3.96,6.192 1.656,1.8 3.672,3.24 6.048,4.248 2.304,1.008 4.896,1.512 7.776,1.512 z m 12.888,-22.032 h -25.488 c 0.144,-1.728 0.504,-3.384 1.224,-4.896 0.72,-1.44 1.584,-2.736 2.736,-3.816 1.152,-1.08 2.448,-1.944 3.96,-2.52 1.44,-0.576 3.024,-0.936 4.752,-0.936 1.656,0 3.24,0.36 4.752,0.936 1.44,0.576 2.736,1.44 3.888,2.448 1.152,1.08 2.088,2.376 2.808,3.888 0.72,1.512 1.224,3.168 1.368,4.896 z" transform="translate(0 247.46728083875036) translate(662.3440637700653 110.64815875531133) scale(1.566482716408758) translate(-596.36544 -81.768)"></path> 
   <path id="path510831" style="font-style: normal; font-weight: 500; font-size: 72px; line-height: 1; font-family: &quot;Raleway Medium Alt1&quot;; font-variant-ligatures: none; text-align: center; text-anchor: middle; fill: rgb(18, 17, 61);" d="M 661.36681,87.96 V 82.2 c -0.288,0 -0.576,-0.072 -0.864,-0.072 h -1.224 c -2.448,0.216 -4.68,1.152 -6.768,2.736 -2.16,1.584 -3.816,3.672 -5.112,6.264 v -8.712 h -5.904 V 120 h 6.336 V 96.816 c 1.008,-2.736 2.664,-4.824 5.112,-6.408 2.448,-1.512 5.256,-2.304 8.424,-2.448 z" transform="translate(0 247.46728083875036) translate(740.870855459525 111.21209253321848) scale(1.566482716408758) translate(-641.49481 -82.128)"></path> 
  </g> 
  <g id="tagline" style="font-style:oblique;font-weight:600;font-size:32px;line-height:1;font-family:Raleway;font-variant-ligatures:none;text-align:center;text-anchor:middle"></g> 
 </g> 
</svg>