<svg xmlns:dc="http://purl.org/dc/elements/1.1/" xmlns:cc="http://creativecommons.org/ns#" xmlns:rdf="http://www.w3.org/1999/02/22-rdf-syntax-ns#" xmlns:svg="http://www.w3.org/2000/svg" xmlns="http://www.w3.org/2000/svg" id="svg287941" viewbox="0 0 1024 768" height="768px" width="1024px" version="1.1"> <metadata id="metadata287947"> 
  <rdf:rdf> 
   <cc:work rdf:about=""> 
    <dc:format>
     image/svg+xml
    </dc:format> 
    <dc:type rdf:resource="http://purl.org/dc/dcmitype/StillImage"></dc:type> 
   </cc:work> 
  </rdf:rdf> 
 </metadata> <defs id="defs287945"></defs> <g id="logo-group"> 
  <g id="title" style="font-style:normal;font-weight:300;font-size:72px;line-height:1;font-family:'Montserrat Light Alt1';font-variant-ligatures:none;text-align:center;text-anchor:middle" aria-label="o7Wave"> 
   <path id="path287949" style="font-style: normal; font-weight: 300; font-size: 72px; line-height: 1; font-family: &quot;Montserrat Light Alt1&quot;; font-variant-ligatures: none; text-align: center; text-anchor: middle; fill: rgb(199, 159, 102);" d="m 384.18763,117.84 c 2.88,1.656 6.048,2.448 9.64799,2.448 3.52801,0 6.69601,-0.792 9.57601,-2.448 2.87999,-1.584 5.11199,-3.888 6.76799,-6.768 1.584,-2.88 2.44801,-6.192 2.44801,-9.864 0,-3.6 -0.86401,-6.912 -2.44801,-9.792 -1.656,-2.88 -3.888,-5.184 -6.76799,-6.84 -2.88,-1.584 -6.048,-2.448 -9.57601,-2.448 -3.59999,0 -6.76799,0.864 -9.64799,2.448 -2.88,1.656 -5.11201,3.96 -6.69601,6.84 -1.656,2.88 -2.44799,6.192 -2.44799,9.792 0,3.672 0.79199,6.984 2.44799,9.864 1.584,2.88 3.81601,5.184 6.69601,6.768 z m 17.35199,-2.808 c -2.30399,1.368 -4.824,2.016 -7.704,2.016 -2.88,0 -5.47199,-0.648 -7.776,-2.016 -2.304,-1.296 -4.104,-3.168 -5.4,-5.616 -1.29599,-2.376 -1.944,-5.112 -1.944,-8.208 0,-3.024 0.64801,-5.76 1.944,-8.208 1.296,-2.376 3.096,-4.248 5.4,-5.616 2.30401,-1.296 4.896,-2.016 7.776,-2.016 2.88,0 5.40001,0.72 7.704,2.016 2.304,1.368 4.104,3.24 5.4,5.616 1.29601,2.448 2.016,5.184 2.016,8.208 0,3.096 -0.71999,5.832 -2.016,8.208 -1.296,2.448 -3.096,4.32 -5.4,5.616 z" transform="translate(0 245.35999999999999) translate(221.27875000000012 117.28) scale(1.6666666666666667) translate(-375.04363 -82.128)"></path> 
   <path id="path287951" style="font-style: normal; font-weight: 300; font-size: 72px; line-height: 1; font-family: &quot;Montserrat Light Alt1&quot;; font-variant-ligatures: none; text-align: center; text-anchor: middle; fill: rgb(199, 159, 102);" d="m 452.57637,69.6 h -36.144 v 12.96 h 3.6 v -9.648 h 28.296 L 426.87237,120 h 4.03201 l 21.67199,-47.808 z" transform="translate(0 245.35999999999999) translate(315.2599833333334 96.4) scale(1.6666666666666667) translate(-416.43237 -69.6)"></path> 
   <path id="path287953" style="font-style: normal; font-weight: 300; font-size: 72px; line-height: 1; font-family: &quot;Montserrat Light Alt1&quot;; font-variant-ligatures: none; text-align: center; text-anchor: middle; fill: rgb(79, 78, 78);" d="m 532.34788,69.6 h -3.6 l -15.48001,45.432 -15.696,-45.432 h -3.52799 l -15.76801,45.36 -15.336,-45.36 h -3.888 l 17.13601,50.4 h 3.88799 L 495.77188,74.784 511.39587,120 h 3.888 z" transform="translate(0 245.35999999999999) translate(411.29248333333345 96.4) scale(1.6666666666666667) translate(-459.05187 -69.6)"></path> 
   <path id="path287955" style="font-style: normal; font-weight: 300; font-size: 72px; line-height: 1; font-family: &quot;Montserrat Light Alt1&quot;; font-variant-ligatures: none; text-align: center; text-anchor: middle; fill: rgb(79, 78, 78);" d="m 562.29763,85.728 c -2.52001,-2.376 -6.12,-3.6 -10.72801,-3.6 -2.88,0 -5.688,0.504 -8.28,1.44 -2.66399,0.936 -4.89599,2.232 -6.768,3.888 l 1.80001,2.592 c 1.58399,-1.44 3.45599,-2.592 5.76,-3.456 2.30399,-0.864 4.67999,-1.296 7.19999,-1.296 3.6,0 6.408,0.936 8.28001,2.736 1.87199,1.872 2.88,4.536 2.88,7.992 v 3.024 h -12.88801 c -4.89599,0 -8.49599,1.008 -10.728,2.952 -2.232,1.944 -3.31199,4.464 -3.31199,7.56 0,3.24 1.15199,5.832 3.59999,7.776 2.44801,2.016 5.76,2.952 9.936,2.952 3.168,0 5.976,-0.576 8.28,-1.8 2.30401,-1.224 4.032,-2.952 5.25601,-5.184 V 120 h 3.45599 V 96.168 c 0,-4.608 -1.29599,-8.064 -3.74399,-10.44 z m -4.82401,29.448 c -2.16,1.44 -4.82399,2.16 -7.92,2.16 -3.312,0 -5.90399,-0.648 -7.704,-2.088 -1.872,-1.44 -2.736,-3.384 -2.736,-5.832 0,-2.304 0.792,-4.176 2.44801,-5.544 1.65599,-1.296 4.31999,-2.016 8.064,-2.016 h 12.816 v 7.056 c -1.15201,2.736 -2.808,4.824 -4.96801,6.264 z" transform="translate(0 245.35999999999999) translate(563.7287500000001 117.28) scale(1.6666666666666667) translate(-535.51363 -82.128)"></path> 
   <path id="path287957" style="font-style: normal; font-weight: 300; font-size: 72px; line-height: 1; font-family: &quot;Montserrat Light Alt1&quot;; font-variant-ligatures: none; text-align: center; text-anchor: middle; fill: rgb(79, 78, 78);" d="m 610.40937,82.416 h -3.67199 l -15.12,33.624 -14.976,-33.624 h -3.81601 l 16.92,37.584 h 3.672 z" transform="translate(0 245.35999999999999) translate(650.9149833333333 117.76000000000002) scale(1.6666666666666667) translate(-572.82537 -82.416)"></path> 
   <path id="path287959" style="font-style: normal; font-weight: 300; font-size: 72px; line-height: 1; font-family: &quot;Montserrat Light Alt1&quot;; font-variant-ligatures: none; text-align: center; text-anchor: middle; fill: rgb(79, 78, 78);" d="m 639.26112,115.752 c -2.08799,0.864 -4.392,1.296 -6.768,1.296 -3.88799,0 -7.12799,-1.008 -9.86399,-3.024 -2.736,-2.016 -4.60801,-4.752 -5.47201,-8.208 l 31.75201,-6.192 c -0.21601,-3.312 -1.00801,-6.264 -2.592,-8.928 -1.58401,-2.664 -3.67201,-4.752 -6.264,-6.264 -2.592,-1.512 -5.544,-2.304 -8.784,-2.304 -3.52801,0 -6.69601,0.864 -9.432,2.448 -2.808,1.656 -4.968,3.888 -6.55201,6.768 -1.58399,2.88 -2.30399,6.192 -2.30399,9.864 0,3.744 0.792,6.984 2.44799,9.864 1.656,2.88 3.96001,5.184 6.91201,6.768 2.952,1.656 6.264,2.448 10.07999,2.448 2.88,0 5.544,-0.504 8.06401,-1.512 2.376,-1.008 4.46399,-2.52 6.12,-4.608 l -2.08801,-2.376 c -1.43999,1.8 -3.168,3.096 -5.256,3.96 z m -15.624,-28.44 c 2.23201,-1.296 4.75201,-2.016 7.63201,-2.016 2.44799,0 4.75199,0.576 6.768,1.656 2.016,1.08 3.59999,2.592 4.896,4.392 1.22399,1.872 2.01599,3.96 2.37599,6.192 l -28.65599,5.616 c -0.144,-0.936 -0.144,-1.656 -0.144,-2.232 0,-2.952 0.57599,-5.688 1.87199,-8.064 1.22401,-2.376 2.952,-4.248 5.256,-5.544 z" transform="translate(0 245.35999999999999) translate(742.8412499999998 117.28) scale(1.6666666666666667) translate(-612.98113 -82.128)"></path> 
  </g> 
  <g id="tagline" style="font-style:normal;font-weight:400;font-size:32px;line-height:1;font-family:Montserrat;font-variant-ligatures:none;text-align:center;text-anchor:middle"></g> 
 </g> 
</svg>