<svg xmlns:dc="http://purl.org/dc/elements/1.1/" xmlns:cc="http://creativecommons.org/ns#" xmlns:rdf="http://www.w3.org/1999/02/22-rdf-syntax-ns#" xmlns:svg="http://www.w3.org/2000/svg" xmlns="http://www.w3.org/2000/svg" id="svg47534" viewbox="0 0 1024 768" height="768px" width="1024px" version="1.1"> <metadata id="metadata47540"> 
  <rdf:rdf> 
   <cc:work rdf:about=""> 
    <dc:format>
     image/svg+xml
    </dc:format> 
    <dc:type rdf:resource="http://purl.org/dc/dcmitype/StillImage"></dc:type> 
   </cc:work> 
  </rdf:rdf> 
 </metadata> <defs id="defs47538"></defs> <g id="logo-group"> 
  <g id="title" style="font-style:normal;font-weight:500;font-size:72px;line-height:1;font-family:'Raleway Medium Alt1';font-variant-ligatures:none;text-align:center;text-anchor:middle" aria-label="o7War"> 
   <path id="path47542" style="font-style: normal; font-weight: 500; font-size: 72px; line-height: 1; font-family: &quot;Raleway Medium Alt1&quot;; font-variant-ligatures: none; text-align: center; text-anchor: middle; fill: rgb(25, 25, 25);" d="m 423.8405,120.72 c 2.808,0 5.4,-0.504 7.704,-1.584 2.304,-1.008 4.32,-2.448 6.048,-4.248 1.656,-1.728 2.952,-3.816 3.888,-6.192 0.864,-2.304 1.368,-4.824 1.368,-7.416 0,-2.592 -0.504,-5.112 -1.44,-7.488 -0.936,-2.304 -2.232,-4.392 -3.888,-6.192 -1.656,-1.728 -3.672,-3.168 -5.976,-4.248 -2.376,-1.008 -4.968,-1.584 -7.704,-1.584 -2.808,0 -5.4,0.576 -7.704,1.584 -2.304,1.08 -4.32,2.52 -5.976,4.248 -1.656,1.8 -2.952,3.888 -3.888,6.192 -0.936,2.376 -1.368,4.896 -1.368,7.488 0,2.592 0.432,5.112 1.368,7.416 0.864,2.376 2.16,4.464 3.816,6.192 1.656,1.8 3.672,3.24 5.976,4.248 2.304,1.08 4.896,1.584 7.776,1.584 z m -12.456,-19.368 c 0,-1.944 0.288,-3.744 0.936,-5.472 0.648,-1.728 1.512,-3.168 2.664,-4.464 1.152,-1.296 2.448,-2.304 3.96,-3.024 1.512,-0.72 3.168,-1.152 4.896,-1.152 1.728,0 3.312,0.36 4.824,1.08 1.512,0.72 2.88,1.728 4.032,3.024 1.152,1.296 2.016,2.736 2.664,4.464 0.648,1.728 1.008,3.528 1.008,5.4 0,2.016 -0.36,3.816 -1.008,5.544 -0.648,1.728 -1.512,3.168 -2.664,4.464 -1.152,1.296 -2.52,2.232 -4.032,2.952 -1.512,0.72 -3.096,1.08 -4.824,1.08 -1.728,0 -3.384,-0.36 -4.896,-1.08 -1.512,-0.72 -2.808,-1.656 -3.96,-2.952 -1.152,-1.224 -2.016,-2.664 -2.664,-4.392 -0.648,-1.656 -0.936,-3.456 -0.936,-5.472 z" transform="translate(0 176.67697575795526) translate(252 167.9273454351343) scale(2.284602111279893) translate(-404.9045 -81.768)"></path> 
   <path id="path47544" style="font-style: normal; font-weight: 500; font-size: 72px; line-height: 1; font-family: &quot;Raleway Medium Alt1&quot;; font-variant-ligatures: none; text-align: center; text-anchor: middle; fill: rgb(25, 25, 25);" d="m 473.70837,83.856 -22.896,45.288 h 7.20001 l 25.70399,-51.12 h -36.28799 v 5.832 z" transform="translate(0 176.67697575795526) translate(356.0039523616525 159.37379513050237) scale(2.284602111279893) translate(-447.42838 -78.024)"></path> 
   <path id="path47546" style="font-style: normal; font-weight: 500; font-size: 72px; line-height: 1; font-family: &quot;Raleway Medium Alt1&quot;; font-variant-ligatures: none; text-align: center; text-anchor: middle; fill: rgb(83, 83, 83);" d="m 518.93562,77.88 -3.95999,-8.712 h -6.12 l 7.12799,15.264 z m 32.976,-9 -17.28,43.488 -3.168,6.48 0.504,1.152 h 5.616 l 21.384,-51.12 z m -26.496,21.6 9.288,-21.312 h -6.12 l -19.584,43.2 -17.352,-43.488 h -6.98399 L 505.97562,120 h 5.61601 l 10.22399,-23.4 6.696,15.552 3.312,-6.408 z" transform="translate(0 176.67697575795526) translate(447.9254894595269 138.48339342495902) scale(2.284602111279893) translate(-484.66363 -68.88)"></path> 
   <path id="path47548" style="font-style: normal; font-weight: 500; font-size: 72px; line-height: 1; font-family: &quot;Raleway Medium Alt1&quot;; font-variant-ligatures: none; text-align: center; text-anchor: middle; fill: rgb(83, 83, 83);" d="m 570.35375,120.72 c 2.88,0 5.616,-0.576 8.208,-1.728 2.592,-1.152 4.68,-2.88 6.408,-5.184 l 0.144,2.664 c 0.144,1.08 0.576,2.016 1.296,2.736 0.72,0.72 1.728,1.08 3.024,1.08 0.432,0 0.936,0 1.368,-0.072 0.432,0 0.936,-0.072 1.656,-0.216 v -5.472 c -1.368,0 -2.016,-0.792 -2.016,-2.304 V 96.888 c 0,-4.752 -1.44,-8.496 -4.176,-11.16 -2.736,-2.592 -6.624,-3.96 -11.52,-3.96 -4.896,0 -9.792,1.656 -14.616,4.896 l 2.088,4.104 c 4.176,-2.88 8.136,-4.392 11.952,-4.392 3.168,0 5.616,0.936 7.344,2.664 1.728,1.728 2.592,4.176 2.592,7.2 v 3.024 c -1.44,-0.576 -3.096,-1.008 -4.968,-1.368 -1.872,-0.288 -3.744,-0.504 -5.544,-0.504 -2.304,0 -4.464,0.288 -6.408,0.864 -1.944,0.576 -3.6,1.368 -5.04,2.376 -1.44,1.008 -2.52,2.232 -3.24,3.672 -0.792,1.44 -1.152,2.952 -1.152,4.68 0,1.728 0.288,3.24 0.936,4.68 0.648,1.44 1.512,2.664 2.664,3.672 1.152,1.08 2.448,1.944 4.032,2.52 1.512,0.576 3.168,0.864 4.968,0.864 z m 1.656,-4.752 c -1.152,0 -2.232,-0.144 -3.24,-0.576 -1.008,-0.36 -1.944,-0.864 -2.664,-1.584 -0.72,-0.648 -1.296,-1.44 -1.728,-2.376 -0.432,-0.864 -0.576,-1.872 -0.576,-2.952 0,-2.16 0.936,-3.888 2.952,-5.256 2.016,-1.296 4.608,-2.016 7.776,-2.016 3.312,0 6.48,0.648 9.576,1.8 v 5.544 c 0,1.008 -0.504,1.944 -1.368,2.808 -1.008,1.44 -2.52,2.52 -4.464,3.384 -1.944,0.864 -4.032,1.224 -6.264,1.224 z" transform="translate(0 176.67697575795526) translate(621.7611382590671 167.9273454351343) scale(2.284602111279893) translate(-557.75375 -81.768)"></path> 
   <path id="path47550" style="font-style: normal; font-weight: 500; font-size: 72px; line-height: 1; font-family: &quot;Raleway Medium Alt1&quot;; font-variant-ligatures: none; text-align: center; text-anchor: middle; fill: rgb(83, 83, 83);" d="M 620.51525,87.96 V 82.2 c -0.288,0 -0.576,-0.072 -0.864,-0.072 h -1.224 c -2.448,0.216 -4.68,1.152 -6.768,2.736 -2.16,1.584 -3.816,3.672 -5.112,6.264 v -8.712 h -5.904 V 120 h 6.336 V 96.816 c 1.008,-2.736 2.664,-4.824 5.112,-6.408 2.448,-1.512 5.256,-2.304 8.424,-2.448 z" transform="translate(0 176.67697575795526) translate(726.600386844646 168.74980219519506) scale(2.284602111279893) translate(-600.64325 -82.128)"></path> 
  </g> 
  <g id="tagline" style="font-style:oblique;font-weight:600;font-size:32px;line-height:1;font-family:Raleway;font-variant-ligatures:none;text-align:center;text-anchor:middle"></g> 
 </g> 
</svg>