<svg xmlns:dc="http://purl.org/dc/elements/1.1/" xmlns:cc="http://creativecommons.org/ns#" xmlns:rdf="http://www.w3.org/1999/02/22-rdf-syntax-ns#" xmlns:svg="http://www.w3.org/2000/svg" xmlns="http://www.w3.org/2000/svg" id="svg299005" viewbox="0 0 1024 768" height="768px" width="1024px" version="1.1"> <metadata id="metadata299011"> 
  <rdf:rdf> 
   <cc:work rdf:about=""> 
    <dc:format>
     image/svg+xml
    </dc:format> 
    <dc:type rdf:resource="http://purl.org/dc/dcmitype/StillImage"></dc:type> 
   </cc:work> 
  </rdf:rdf> 
 </metadata> <defs id="defs299009"></defs> <g id="logo-group"> 
  <g id="title" style="font-style:normal;font-weight:700;font-size:72px;line-height:1;font-family:'Comfortaa Bold Alt1';font-variant-ligatures:none;text-align:center;text-anchor:middle" aria-label="o7want"> 
   <path id="path299013" style="font-style: normal; font-weight: 700; font-size: 72px; line-height: 1; font-family: &quot;Comfortaa Bold Alt1&quot;; font-variant-ligatures: none; text-align: center; text-anchor: middle; fill: rgb(22, 29, 34);" d="m 415.84737,82.92 c -3.024,-1.728 -6.408,-2.592 -10.15199,-2.592 -3.88801,0 -7.272,0.864 -10.296,2.592 -3.024,1.728 -5.40001,4.032 -7.05601,7.056 -1.728,3.024 -2.52,6.48 -2.52,10.368 0,3.888 0.792,7.272 2.52,10.296 1.656,3.024 4.03201,5.4 7.05601,7.128 3.024,1.728 6.40799,2.52 10.296,2.52 3.81599,0 7.19999,-0.792 10.22399,-2.52 3.024,-1.728 5.32801,-4.104 7.056,-7.128 1.656,-3.024 2.52,-6.408 2.52,-10.296 0,-3.888 -0.864,-7.344 -2.592,-10.368 -1.72799,-3.024 -4.032,-5.328 -7.056,-7.056 z m -16.776,5.616 c 1.944,-1.152 4.176,-1.728 6.62401,-1.728 2.44799,0 4.608,0.576 6.55199,1.728 1.944,1.152 3.456,2.808 4.536,4.824 1.08001,2.088 1.656,4.392 1.656,6.984 0,2.592 -0.57599,4.968 -1.656,6.984 -1.08,2.016 -2.592,3.6 -4.536,4.752 -1.94399,1.152 -4.104,1.728 -6.55199,1.728 -2.44801,0 -4.68001,-0.576 -6.62401,-1.728 -1.94399,-1.152 -3.456,-2.736 -4.536,-4.752 -1.152,-2.016 -1.656,-4.392 -1.656,-6.984 0,-2.592 0.504,-4.896 1.656,-6.984 1.08,-2.016 2.59201,-3.672 4.536,-4.824 z" transform="translate(0 209.54331137020583) translate(252 150.4624569457563) scale(2.044498268919384) translate(-385.82337 -80.328)"></path> 
   <path id="path299015" style="font-style: normal; font-weight: 700; font-size: 72px; line-height: 1; font-family: &quot;Comfortaa Bold Alt1&quot;; font-variant-ligatures: none; text-align: center; text-anchor: middle; fill: rgb(22, 29, 34);" d="m 429.11225,70.104 c 0.72,0.72 1.584,1.008 2.664,1.008 h 21.888 l -20.664,42.912 c -0.432,0.864 -0.648,1.656 -0.648,2.304 0,1.008 0.36,1.872 1.08,2.592 0.72,0.72 1.512,1.08 2.52,1.08 0.648,0 1.296,-0.144 1.944,-0.504 0.576,-0.36 1.08,-0.864 1.44,-1.512 l 23.04,-48.6 c 0.288,-0.72 0.504,-1.368 0.504,-1.944 0,-1.008 -0.36,-1.872 -1.08,-2.592 -0.72,-0.72 -1.584,-1.08 -2.592,-1.08 h -27.432 c -1.08,0 -1.944,0.36 -2.664,1.08 -0.72,0.72 -1.008,1.584 -1.008,2.592 0,1.08 0.288,1.944 1.008,2.664 z" transform="translate(0 209.54331137020583) translate(338.44318596838815 116.60556561245127) scale(2.044498268919384) translate(-428.10425 -63.768)"></path> 
   <path id="path299017" style="font-style: normal; font-weight: 700; font-size: 72px; line-height: 1; font-family: &quot;Comfortaa Bold Alt1&quot;; font-variant-ligatures: none; text-align: center; text-anchor: middle; fill: rgb(41, 80, 113);" d="m 515.57525,81.408 c -0.504,-0.504 -1.224,-0.792 -2.232,-0.792 -1.872,0 -3.096,1.152 -3.744,3.312 l -7.92,24.768 -6.48,-25.344 c -0.288,-0.792 -0.72,-1.44 -1.296,-1.944 -0.576,-0.504 -1.368,-0.792 -2.232,-0.792 -1.008,0 -1.8,0.288 -2.376,0.792 -0.576,0.504 -1.008,1.152 -1.224,1.944 l -7.344,24.84 -7.776,-24.264 c -0.432,-1.152 -0.936,-1.944 -1.512,-2.52 -0.576,-0.504 -1.368,-0.792 -2.232,-0.792 -2.016,0 -3.024,1.008 -3.024,3.024 0,0.72 0.072,1.44 0.288,2.016 l 10.656,31.968 c 0.216,0.72 0.648,1.296 1.296,1.728 0.648,0.432 1.368,0.648 2.16,0.648 0.72,0 1.44,-0.216 2.088,-0.648 0.648,-0.432 1.08,-1.008 1.368,-1.728 l 7.416,-26.136 7.056,26.136 c 0.144,0.72 0.576,1.296 1.224,1.728 0.648,0.432 1.368,0.648 2.232,0.648 0.72,0 1.44,-0.216 2.088,-0.648 0.576,-0.432 1.008,-1.008 1.296,-1.728 l 10.656,-31.968 c 0.216,-0.576 0.36,-1.296 0.36,-2.088 0,-0.864 -0.288,-1.584 -0.792,-2.16 z" transform="translate(0 209.54331137020583) translate(416.2956355505694 151.05127244720506) scale(2.044498268919384) translate(-466.18325 -80.616)"></path> 
   <path id="path299019" style="font-style: normal; font-weight: 700; font-size: 72px; line-height: 1; font-family: &quot;Comfortaa Bold Alt1&quot;; font-variant-ligatures: none; text-align: center; text-anchor: middle; fill: rgb(41, 80, 113);" d="m 560.21412,100.344 c 0,-3.672 -0.93599,-7.128 -2.664,-10.152 -1.72799,-3.024 -4.10399,-5.472 -7.12799,-7.2 -3.024,-1.728 -6.336,-2.664 -10.008,-2.664 -3.74401,0 -7.12801,0.936 -10.15201,2.664 -3.024,1.728 -5.4,4.176 -7.12799,7.2 -1.72801,3.024 -2.592,6.408 -2.592,10.152 0,3.744 0.79199,7.2 2.376,10.224 1.58399,3.024 3.81599,5.4 6.624,7.128 2.88,1.8 5.976,2.664 9.43199,2.664 h 0.576 17.20801 c 0.93599,0 1.728,-0.36 2.448,-1.008 0.64799,-0.648 1.00799,-1.44 1.00799,-2.448 V 116.4 Z m -30.95999,6.912 c -1.15201,-2.016 -1.65601,-4.32 -1.65601,-6.912 0,-2.52 0.504,-4.824 1.65601,-6.912 1.15199,-2.016 2.664,-3.672 4.60799,-4.824 1.944,-1.152 4.10401,-1.8 6.55201,-1.8 2.37599,0 4.53599,0.648 6.48,1.8 1.94399,1.152 3.456,2.808 4.60799,4.824 1.08001,2.088 1.65601,4.392 1.65601,6.912 0,2.592 -0.576,4.896 -1.65601,6.912 -1.15199,2.016 -2.664,3.672 -4.60799,4.824 -1.94401,1.152 -4.10401,1.728 -6.48,1.728 -2.448,0 -4.60801,-0.576 -6.55201,-1.728 -1.94399,-1.152 -3.456,-2.808 -4.60799,-4.824 z" transform="translate(0 209.54331137020583) translate(527.432271610966 150.4624569457563) scale(2.044498268919384) translate(-520.54213 -80.328)"></path> 
   <path id="path299021" style="font-style: normal; font-weight: 700; font-size: 72px; line-height: 1; font-family: &quot;Comfortaa Bold Alt1&quot;; font-variant-ligatures: none; text-align: center; text-anchor: middle; fill: rgb(41, 80, 113);" d="m 605.91837,88.752 c -1.51199,-2.736 -3.59999,-4.896 -6.192,-6.336 -2.52,-1.296 -5.256,-2.016 -8.28,-2.088 -0.072,0 -0.216,-0.072 -0.216,-0.072 h -16.55999 c -1.00801,0 -1.80001,0.36 -2.448,1.008 -0.72,0.72 -1.008,1.512 -1.008,2.448 0,0.072 0,0.216 0,0.288 0,0.144 0,0.216 0,0.288 V 116.4 c 0,1.08 0.288,1.944 1.008,2.664 0.71999,0.72 1.58399,1.008 2.664,1.008 1.07999,0 1.94399,-0.288 2.664,-1.008 0.648,-0.72 1.00799,-1.584 1.00799,-2.664 V 96.096 c 0,-1.728 0.432,-3.24 1.368,-4.68 0.93601,-1.368 2.232,-2.448 3.88801,-3.312 1.65599,-0.792 3.52799,-1.224 5.544,-1.224 3.456,0 6.192,1.008 8.27999,3.024 2.088,2.016 3.168,4.968 3.168,8.784 V 116.4 c 0,1.08 0.28801,1.944 1.00801,2.664 0.71999,0.72 1.58399,1.008 2.664,1.008 1.00799,0 1.87199,-0.288 2.592,-1.008 0.72,-0.72 1.07999,-1.584 1.07999,-2.664 V 98.688 c 0,-3.888 -0.79199,-7.2 -2.232,-9.936 z" transform="translate(0 209.54331137020583) translate(631.0315990182162 150.31525307039408) scale(2.044498268919384) translate(-571.21438 -80.256)"></path> 
   <path id="path299023" style="font-style: normal; font-weight: 700; font-size: 72px; line-height: 1; font-family: &quot;Comfortaa Bold Alt1&quot;; font-variant-ligatures: none; text-align: center; text-anchor: middle; fill: rgb(41, 80, 113);" d="m 621.9485,82.056 v 6.192 17.784 c 0,2.664 0.504,5.04 1.656,7.128 1.08,2.16 2.592,3.816 4.536,5.04 1.944,1.224 4.104,1.8 6.48,1.8 h 1.296 c 1.224,0 2.232,-0.288 3.024,-1.008 0.792,-0.648 1.224,-1.512 1.224,-2.592 0,-1.008 -0.36,-1.872 -0.936,-2.592 -0.576,-0.648 -1.296,-1.008 -2.16,-1.008 h -2.448 c -1.584,0 -2.88,-0.648 -3.888,-1.944 -1.08,-1.296 -1.584,-2.88 -1.584,-4.824 V 88.248 h 6.12 c 1.008,0 1.8,-0.288 2.448,-0.864 0.576,-0.576 0.936,-1.296 0.936,-2.16 0,-0.936 -0.36,-1.728 -0.936,-2.304 -0.648,-0.576 -1.44,-0.864 -2.448,-0.864 h -6.12 V 71.688 c 0,-1.008 -0.36,-1.872 -1.008,-2.592 -0.72,-0.648 -1.584,-1.008 -2.592,-1.008 -1.08,0 -1.944,0.36 -2.592,1.008 -0.72,0.72 -1.008,1.584 -1.008,2.592 z" transform="translate(0 209.54331137020583) translate(734.7574195333646 125.437798134183) scale(2.044498268919384) translate(-621.9485 -68.088)"></path> 
  </g> 
  <g id="tagline" style="font-style:normal;font-weight:500;font-size:32px;line-height:1;font-family:Raleway;font-variant-ligatures:none;text-align:center;text-anchor:middle"></g> 
 </g> 
</svg>