<svg xmlns:dc="http://purl.org/dc/elements/1.1/" xmlns:cc="http://creativecommons.org/ns#" xmlns:rdf="http://www.w3.org/1999/02/22-rdf-syntax-ns#" xmlns:svg="http://www.w3.org/2000/svg" xmlns="http://www.w3.org/2000/svg" id="svg480711" viewbox="0 0 1024 768" height="768px" width="1024px" version="1.1"> <metadata id="metadata480717"> 
  <rdf:rdf> 
   <cc:work rdf:about=""> 
    <dc:format>
     image/svg+xml
    </dc:format> 
    <dc:type rdf:resource="http://purl.org/dc/dcmitype/StillImage"></dc:type> 
   </cc:work> 
  </rdf:rdf> 
 </metadata> <defs id="defs480715"></defs> <g id="logo-group"> 
  <g id="title" style="font-style:normal;font-weight:200;font-size:72px;line-height:1;font-family:Montserrat;font-variant-ligatures:none;text-align:center;text-anchor:middle" aria-label="O7WISHED"> 
   <path id="path480719" style="font-style: normal; font-weight: 200; font-size: 72px; line-height: 1; font-family: Montserrat; font-variant-ligatures: none; text-align: center; text-anchor: middle; fill: rgb(190, 30, 94);" d="m 344.08081,69.384 q 6.984,0 12.888,3.456 5.976,3.384 9.432,9.216 3.528,5.832 3.528,12.672 0,6.84 -3.528,12.744 -3.456,5.832 -9.432,9.288 -5.904,3.456 -12.888,3.456 -6.984,0 -12.96,-3.456 -5.904,-3.456 -9.432,-9.288 -3.456,-5.904 -3.456,-12.744 0,-6.84 3.456,-12.672 3.528,-5.832 9.432,-9.216 5.976,-3.456 12.96,-3.456 z m 0,1.44 q -6.552,0 -12.168,3.24 -5.616,3.24 -8.928,8.784 -3.312,5.472 -3.312,11.88 0,6.48 3.312,12.024 3.312,5.544 8.928,8.784 5.616,3.24 12.168,3.24 6.552,0 12.168,-3.24 5.616,-3.24 8.928,-8.784 3.312,-5.544 3.312,-12.024 0,-6.408 -3.312,-11.88 -3.312,-5.544 -8.928,-8.784 -5.616,-3.24 -12.168,-3.24 z" transform="translate(0 282.7281467372549) translate(252.00000000000006 68.92386627407497) scale(1.272741068172417) translate(-318.23281 -69.384)"></path> 
   <path id="path480721" style="font-style: normal; font-weight: 200; font-size: 72px; line-height: 1; font-family: Montserrat; font-variant-ligatures: none; text-align: center; text-anchor: middle; fill: rgb(190, 30, 94);" d="m 376.14669,69.672 h 35.496 v 1.8 L 387.01869,120 h -1.584 l 24.912,-48.888 h -32.76 v 8.064 h -1.44 z" transform="translate(0 282.7281467372549) translate(329.52759669772644 69.29041570170862) scale(1.272741068172417) translate(-376.14669 -69.672)"></path> 
   <path id="path480723" style="font-style: normal; font-weight: 200; font-size: 72px; line-height: 1; font-family: Montserrat; font-variant-ligatures: none; text-align: center; text-anchor: middle; fill: rgb(190, 30, 94);" d="m 482.18019,69.672 h 1.656 L 466.77219,120 h -1.512 l -16.2,-48.312 -16.272,48.312 h -1.512 l -17.064,-50.328 h 1.656 l 16.2,48.672 16.128,-48.672 h 1.656 l 16.2,48.672 z" transform="translate(0 282.7281467372549) translate(381.7933450327609 69.29041570170862) scale(1.272741068172417) translate(-414.21219 -69.672)"></path> 
   <path id="path480725" style="font-style: normal; font-weight: 200; font-size: 72px; line-height: 1; font-family: Montserrat; font-variant-ligatures: none; text-align: center; text-anchor: middle; fill: rgb(190, 30, 94);" d="m 493.72381,69.672 h 1.44 V 120 h -1.44 z" transform="translate(0 282.7281467372549) translate(486.8092724081975 69.29041570170862) scale(1.272741068172417) translate(-493.72381 -69.672)"></path> 
   <path id="path480727" style="font-style: normal; font-weight: 200; font-size: 72px; line-height: 1; font-family: Montserrat; font-variant-ligatures: none; text-align: center; text-anchor: middle; fill: rgb(190, 30, 94);" d="m 538.75194,74.208 q -2.448,-1.584 -5.904,-2.448 -3.384,-0.936 -6.768,-0.936 -6.624,0 -10.656,2.736 -3.96,2.664 -3.96,7.128 0,3.888 1.944,6.264 1.944,2.376 4.752,3.672 2.88,1.224 7.776,2.736 5.184,1.584 8.28,3.024 3.096,1.368 5.184,4.104 2.16,2.736 2.16,7.2 0,3.744 -2.088,6.624 -2.088,2.808 -5.976,4.392 -3.816,1.512 -9,1.512 -4.752,0 -9.432,-1.944 -4.608,-1.944 -7.776,-5.184 l 1.008,-1.008 q 2.88,3.096 7.272,4.896 4.392,1.8 8.928,1.8 7.128,0 11.376,-3.024 4.248,-3.024 4.248,-8.064 0,-3.96 -2.016,-6.336 -1.944,-2.448 -4.824,-3.744 -2.88,-1.368 -7.848,-2.88 -5.112,-1.584 -8.208,-2.952 -3.024,-1.44 -5.112,-4.104 -2.088,-2.664 -2.088,-7.056 0,-5.112 4.392,-8.136 4.392,-3.096 11.664,-3.096 3.528,0 7.128,1.008 3.672,1.008 6.264,2.664 z" transform="translate(0 282.7281467372549) translate(507.8911209177442 68.92386627407497) scale(1.272741068172417) translate(-507.28794 -69.384)"></path> 
   <path id="path480729" style="font-style: normal; font-weight: 200; font-size: 72px; line-height: 1; font-family: Montserrat; font-variant-ligatures: none; text-align: center; text-anchor: middle; fill: rgb(190, 30, 94);" d="m 556.30194,69.672 h 1.44 v 24.192 h 36.216 V 69.672 h 1.44 V 120 h -1.44 V 95.304 h -36.216 V 120 h -1.44 z" transform="translate(0 282.7281467372549) translate(574.0914748376642 69.29041570170862) scale(1.272741068172417) translate(-556.30194 -69.672)"></path> 
   <path id="path480731" style="font-style: normal; font-weight: 200; font-size: 72px; line-height: 1; font-family: Montserrat; font-variant-ligatures: none; text-align: center; text-anchor: middle; fill: rgb(190, 30, 94);" d="m 613.81756,69.672 h 31.464 v 1.44 h -30.024 V 93.36 h 26.712 v 1.44 h -26.712 v 23.76 h 31.032 V 120 h -32.472 z" transform="translate(0 282.7281467372549) translate(651.1121896775803 69.29041570170862) scale(1.272741068172417) translate(-613.81756 -69.672)"></path> 
   <path id="path480733" style="font-style: normal; font-weight: 200; font-size: 72px; line-height: 1; font-family: Montserrat; font-variant-ligatures: none; text-align: center; text-anchor: middle; fill: rgb(190, 30, 94);" d="m 680.02381,69.672 q 6.984,0 12.888,3.384 5.904,3.384 9.36,9.216 3.528,5.76 3.528,12.6 0,6.768 -3.528,12.6 -3.456,5.76 -9.36,9.144 -5.904,3.384 -12.888,3.384 h -19.8 V 69.672 Z m 0,48.888 q 6.552,0 12.168,-3.168 5.616,-3.24 8.856,-8.64 3.312,-5.472 3.312,-11.88 0,-6.408 -3.312,-11.88 -3.24,-5.472 -8.856,-8.64 -5.616,-3.24 -12.168,-3.24 h -18.36 v 47.448 z" transform="translate(0 282.7281467372549) translate(713.9935530769739 69.29041570170862) scale(1.272741068172417) translate(-660.22381 -69.672)"></path> 
  </g> 
  <g id="tagline" style="font-style:normal;font-weight:400;font-size:32px;line-height:1;font-family:Montserrat;font-variant-ligatures:none;text-align:center;text-anchor:middle"></g> 
 </g> 
</svg>