<svg xmlns:dc="http://purl.org/dc/elements/1.1/" xmlns:cc="http://creativecommons.org/ns#" xmlns:rdf="http://www.w3.org/1999/02/22-rdf-syntax-ns#" xmlns:svg="http://www.w3.org/2000/svg" xmlns="http://www.w3.org/2000/svg" id="svg3526" viewbox="0 0 1024 768" height="768px" width="1024px" version="1.1"> <metadata id="metadata3532"> 
  <rdf:rdf> 
   <cc:work rdf:about=""> 
    <dc:format>
     image/svg+xml
    </dc:format> 
    <dc:type rdf:resource="http://purl.org/dc/dcmitype/StillImage"></dc:type> 
   </cc:work> 
  </rdf:rdf> 
 </metadata> <defs id="defs3530"></defs> <g id="logo-group"> 
  <g id="title" style="font-style:normal;font-weight:400;font-size:72px;line-height:1;font-family:'Abril Fatface';font-variant-ligatures:none;text-align:center;text-anchor:middle" aria-label="O7WHITE"> 
   <path id="path3534" style="font-style: normal; font-weight: 400; font-size: 72px; line-height: 1; font-family: &quot;Abril Fatface&quot;; font-variant-ligatures: none; text-align: center; text-anchor: middle; fill: rgb(0, 0, 0);" d="m 379.46262,97.752 v -5.328 q 0,-13.176 -1.296,-16.632 -1.43999,-3.96 -4.10399,-4.896 -1.512,-0.576 -3.67201,-0.576 -2.15999,0 -3.744,0.576 -1.51199,0.576 -2.52,2.016 -1.008,1.44 -1.656,3.024 -0.57599,1.584 -0.936,4.464 -0.432,4.176 -0.432,12.312 v 5.184 q 0,8.784 0.64801,12.528 0.71999,3.672 1.728,5.256 2.23199,3.528 6.91199,3.528 5.688,0 7.344,-4.752 1.728,-4.824 1.728,-16.704 z m -9.216,22.968 q -12.024,0 -18,-6.48 -5.904,-6.552 -5.904,-18.864 0,-12.384 6.336,-19.44 6.40801,-7.128 18.07201,-7.128 11.66399,0 17.56799,6.768 5.976,6.696 5.976,19.08 0,12.384 -6.048,19.224 -5.976,6.84 -18,6.84 z" transform="translate(0 267.4308571428571) translate(211.26901428571438 79.48914285714288) scale(1.4285714285714286) translate(-346.34262 -68.808)"></path> 
   <path id="path3536" style="font-style: normal; font-weight: 400; font-size: 72px; line-height: 1; font-family: &quot;Abril Fatface&quot;; font-variant-ligatures: none; text-align: center; text-anchor: middle; fill: rgb(0, 0, 0);" d="m 414.17,120.72 q -3.888,0 -6.12,-2.088 -2.232,-2.16 -2.232,-5.256 0,-3.168 2.088,-6.912 2.16,-3.816 9.288,-12.096 l 11.88,-13.752 h -18.432 q -5.112,0 -6.768,1.296 -1.584,1.224 -2.52,5.976 h -1.152 L 400.994,69.6 h 32.256 v 7.776 l -7.992,13.968 q -5.328,9.432 -6.84,13.536 -1.44,4.032 -1.44,7.704 0,3.672 2.16,6.768 l -0.504,0.864 q -2.016,0.504 -4.464,0.504 z" transform="translate(0 267.4308571428571) translate(309.6395571428572 80.62057142857141) scale(1.4285714285714286) translate(-400.202 -69.6)"></path> 
   <path id="path3538" style="font-style: normal; font-weight: 400; font-size: 72px; line-height: 1; font-family: &quot;Abril Fatface&quot;; font-variant-ligatures: none; text-align: center; text-anchor: middle; fill: rgb(198, 211, 231);" d="m 464.48113,105.456 5.976,-20.736 -4.32001,-13.752 h -4.104 V 69.6 h 22.32 v 1.368 h -4.248 l 10.728,34.056 8.64,-34.056 h -7.272 V 69.6 h 14.40001 v 1.368 h -4.752 l -13.248,49.752 h -6.40801 l -10.656,-32.544 -9.36,32.544 h -6.264 l -18.144,-49.752 h -3.38399 V 69.6 h 23.39999 v 1.368 h -5.03999 z" transform="translate(0 267.4308571428571) translate(379.9011714285715 80.62057142857141) scale(1.4285714285714286) translate(-434.38513 -69.6)"></path> 
   <path id="path3540" style="font-style: normal; font-weight: 400; font-size: 72px; line-height: 1; font-family: &quot;Abril Fatface&quot;; font-variant-ligatures: none; text-align: center; text-anchor: middle; fill: rgb(198, 211, 231);" d="m 508.59012,69.6 h 22.464 v 1.368 h -4.176 v 22.32 h 14.32801 v -22.32 h -4.24801 V 69.6 h 22.536 v 1.368 h -4.248 v 47.664 h 4.248 V 120 h -22.536 v -1.368 h 4.24801 V 95.16 h -14.32801 v 23.472 h 4.176 V 120 h -22.464 v -1.368 h 4.248 V 70.968 h -4.248 z" transform="translate(0 267.4308571428571) translate(507.3368714285715 80.62057142857141) scale(1.4285714285714286) translate(-508.59012 -69.6)"></path> 
   <path id="path3542" style="font-style: normal; font-weight: 400; font-size: 72px; line-height: 1; font-family: &quot;Abril Fatface&quot;; font-variant-ligatures: none; text-align: center; text-anchor: middle; fill: rgb(198, 211, 231);" d="m 562.7375,69.6 h 21.96 v 1.368 h -3.96 v 47.664 h 3.96 V 120 h -21.96 v -1.368 h 3.96 V 70.968 h -3.96 z" transform="translate(0 267.4308571428571) translate(606.1188428571428 80.62057142857141) scale(1.4285714285714286) translate(-562.7375 -69.6)"></path> 
   <path id="path3544" style="font-style: normal; font-weight: 400; font-size: 72px; line-height: 1; font-family: &quot;Abril Fatface&quot;; font-variant-ligatures: none; text-align: center; text-anchor: middle; fill: rgb(198, 211, 231);" d="m 632.32325,69.6 0.72,18.072 h -1.368 q -3.168,-9.576 -5.616,-13.032 -2.448,-3.528 -7.056,-3.528 h -0.864 v 47.376 h 6.12 V 120 h -26.28 v -1.512 h 6.12 V 71.112 h -0.936 q -4.608,0 -7.128,3.672 -2.52,3.6 -5.544,12.888 h -1.368 l 0.72,-18.072 z" transform="translate(0 267.4308571428571) translate(665.2413428571429 80.62057142857141) scale(1.4285714285714286) translate(-589.12325 -69.6)"></path> 
   <path id="path3546" style="font-style: normal; font-weight: 400; font-size: 72px; line-height: 1; font-family: &quot;Abril Fatface&quot;; font-variant-ligatures: none; text-align: center; text-anchor: middle; fill: rgb(198, 211, 231);" d="m 637.262,69.6 h 37.44 l 0.72,14.256 h -1.296 q -3.024,-7.272 -6.336,-9.936 -3.312,-2.736 -9.72,-2.736 h -2.52 v 22.248 h 2.448 q 3.384,0 5.688,-2.52 2.304,-2.592 3.24,-6.912 h 1.08 v 21.312 h -1.224 q -1.296,-5.4 -3.528,-7.704 -2.16,-2.304 -5.976,-2.304 h -1.728 v 23.112 h 2.736 q 6.624,0 11.232,-3.96 4.68,-3.96 6.408,-10.152 h 1.44 L 676.79,120 h -39.528 v -1.584 h 4.248 V 71.184 h -4.248 z" transform="translate(0 267.4308571428571) translate(755.4395571428571 80.62057142857141) scale(1.4285714285714286) translate(-637.262 -69.6)"></path> 
  </g> 
  <g id="tagline" style="font-style:oblique;font-weight:normal;font-size:32px;line-height:1;font-family:'Droid Serif';font-variant-ligatures:none;text-align:center;text-anchor:middle"></g> 
 </g> 
</svg>