<svg xmlns:dc="http://purl.org/dc/elements/1.1/" xmlns:cc="http://creativecommons.org/ns#" xmlns:rdf="http://www.w3.org/1999/02/22-rdf-syntax-ns#" xmlns:svg="http://www.w3.org/2000/svg" xmlns="http://www.w3.org/2000/svg" id="svg267202" viewbox="0 0 1024 768" height="768px" width="1024px" version="1.1"> <metadata id="metadata267208"> 
  <rdf:rdf> 
   <cc:work rdf:about=""> 
    <dc:format>
     image/svg+xml
    </dc:format> 
    <dc:type rdf:resource="http://purl.org/dc/dcmitype/StillImage"></dc:type> 
   </cc:work> 
  </rdf:rdf> 
 </metadata> <defs id="defs267206"></defs> <g id="logo-group"> 
  <g id="title" style="font-style:normal;font-weight:500;font-size:72px;line-height:1;font-family:'Raleway Medium Alt1';font-variant-ligatures:none;text-align:center;text-anchor:middle" aria-label="O7WEB"> 
   <path id="path267210" style="font-style: normal; font-weight: 500; font-size: 72px; line-height: 1; font-family: &quot;Raleway Medium Alt1&quot;; font-variant-ligatures: none; text-align: center; text-anchor: middle; fill: rgb(248, 224, 116);" d="m 426.2705,97.248 c -0.216,1.512 -0.504,3.024 -1.008,4.464 -0.792,2.448 -1.944,4.608 -3.456,6.48 -1.512,1.872 -3.384,3.456 -5.472,4.608 -2.232,1.152 -4.68,1.728 -7.344,1.728 -2.664,0 -5.04,-0.504 -7.2,-1.656 -2.16,-1.08 -4.032,-2.592 -5.544,-4.464 -1.584,-1.872 -2.736,-3.96 -3.6,-6.408 -0.504,-1.512 -0.864,-3.096 -1.08,-4.752 h -6.552 c 0.216,2.304 0.72,4.608 1.584,6.768 1.08,3.168 2.736,5.904 4.896,8.352 2.088,2.448 4.608,4.392 7.56,5.832 2.952,1.44 6.264,2.16 9.864,2.16 3.456,0 6.624,-0.648 9.576,-2.088 2.952,-1.44 5.472,-3.312 7.632,-5.688 2.16,-2.376 3.816,-5.112 5.04,-8.28 0.864,-2.232 1.44,-4.608 1.728,-7.056 z m -33.624,-10.152 c 0.792,-2.376 1.944,-4.464 3.456,-6.408 1.512,-1.872 3.384,-3.384 5.544,-4.536 2.16,-1.152 4.608,-1.728 7.344,-1.728 2.52,0 4.896,0.576 7.056,1.656 2.16,1.152 3.96,2.592 5.544,4.464 1.584,1.872 2.736,3.96 3.6,6.408 0.432,1.296 0.792,2.664 1.008,3.96 h 6.552 c -0.288,-1.944 -0.792,-3.96 -1.44,-5.832 -1.152,-3.096 -2.808,-5.832 -4.896,-8.352 -2.16,-2.448 -4.68,-4.392 -7.56,-5.904 -2.952,-1.512 -6.264,-2.304 -9.792,-2.304 -3.528,0 -6.696,0.72 -9.648,2.16 -2.952,1.44 -5.472,3.312 -7.632,5.688 -2.16,2.448 -3.888,5.184 -5.112,8.28 -0.792,2.088 -1.368,4.176 -1.584,6.264 h 6.552 c 0.216,-1.224 0.576,-2.52 1.008,-3.816 z" transform="translate(0 204.856) translate(246.09199999999993 118.52) scale(2) translate(-385.0145 -68.52)"></path> 
   <path id="path267212" style="font-style: normal; font-weight: 500; font-size: 72px; line-height: 1; font-family: &quot;Raleway Medium Alt1&quot;; font-variant-ligatures: none; text-align: center; text-anchor: middle; fill: rgb(248, 224, 116);" d="m 464.14587,83.856 -22.896,45.288 h 7.20001 l 25.70399,-51.12 h -36.28799 v 5.832 z" transform="translate(0 204.856) translate(357.79475999999994 137.52800000000002) scale(2) translate(-437.86588 -78.024)"></path> 
   <path id="path267214" style="font-style: normal; font-weight: 500; font-size: 72px; line-height: 1; font-family: &quot;Raleway Medium Alt1&quot;; font-variant-ligatures: none; text-align: center; text-anchor: middle; fill: rgb(169, 214, 243);" d="m 509.37313,77.88 -3.96001,-8.712 h -6.11999 l 7.128,15.264 z m 32.97599,-9 -17.28,43.488 -3.168,6.48 0.504,1.152 h 5.616 l 21.384,-51.12 z m -26.496,21.6 9.288,-21.312 h -6.12 l -19.584,43.2 -17.352,-43.488 h -6.98399 L 496.41312,120 h 5.61601 l 10.22399,-23.4 6.696,15.552 3.312,-6.408 z" transform="translate(0 204.856) translate(438.26526 119.24) scale(2) translate(-475.10113 -68.88)"></path> 
   <path id="path267216" style="font-style: normal; font-weight: 500; font-size: 72px; line-height: 1; font-family: &quot;Raleway Medium Alt1&quot;; font-variant-ligatures: none; text-align: center; text-anchor: middle; fill: rgb(169, 214, 243);" d="m 562.56875,74.64 h 27.576 v -5.76 h -34.056 v 15.84 h 6.48 z m -6.48,39.6 V 120 h 34.704 v -5.76 z m 6.48,-17.64 h 23.976 v -5.4 h -30.456 v 16.56 h 6.48 z" transform="translate(0 204.856) translate(606.2405 119.24) scale(2) translate(-556.08875 -68.88)"></path> 
   <path id="path267218" style="font-style: normal; font-weight: 500; font-size: 72px; line-height: 1; font-family: &quot;Raleway Medium Alt1&quot;; font-variant-ligatures: none; text-align: center; text-anchor: middle; fill: rgb(169, 214, 243);" d="m 636.3305,98.616 c -1.728,-2.304 -4.032,-3.96 -6.912,-4.824 2.304,-1.008 4.104,-2.664 5.4,-4.824 1.296,-2.088 1.944,-4.464 1.944,-7.056 0,-1.584 -0.288,-3.096 -0.864,-4.68 -0.576,-1.584 -1.368,-2.952 -2.304,-4.176 -1.008,-1.224 -2.232,-2.232 -3.672,-3.024 -1.44,-0.72 -3.096,-1.152 -4.824,-1.152 h -25.416 v 39.6 h 6.48 V 74.496 h 16.704 c 1.008,0 2.016,0.216 2.952,0.648 0.936,0.504 1.728,1.08 2.376,1.8 0.648,0.792 1.152,1.728 1.584,2.736 0.36,1.08 0.576,2.232 0.576,3.384 0,1.224 -0.216,2.304 -0.648,3.312 -0.432,1.008 -0.936,1.944 -1.656,2.664 -0.72,0.792 -1.512,1.44 -2.448,1.872 -1.008,0.432 -2.088,0.648 -3.168,0.648 h -9.792 v 5.256 h 11.808 c 1.152,0 2.16,0.288 3.168,0.72 0.936,0.504 1.728,1.152 2.448,1.944 0.72,0.864 1.224,1.8 1.656,2.88 0.432,1.08 0.648,2.16 0.648,3.312 0,1.152 -0.216,2.304 -0.648,3.312 -0.504,1.08 -1.08,2.016 -1.8,2.808 -0.792,0.792 -1.728,1.44 -2.664,1.872 -1.008,0.504 -2.16,0.72 -3.312,0.72 h -24.264 V 120 h 24.264 c 2.016,0 3.96,-0.288 5.76,-0.936 1.8,-0.576 3.384,-1.512 4.752,-2.664 1.368,-1.152 2.448,-2.52 3.24,-4.176 0.792,-1.584 1.224,-3.384 1.224,-5.4 0,-3.168 -0.864,-5.904 -2.592,-8.208 z" transform="translate(0 204.856) translate(699.4280000000001 119.24) scale(2) translate(-599.6825 -68.88)"></path> 
  </g> 
  <g id="tagline" style="font-style:oblique;font-weight:600;font-size:32px;line-height:1;font-family:Raleway;font-variant-ligatures:none;text-align:center;text-anchor:middle"></g> 
 </g> 
</svg>