<svg xmlns:dc="http://purl.org/dc/elements/1.1/" xmlns:cc="http://creativecommons.org/ns#" xmlns:rdf="http://www.w3.org/1999/02/22-rdf-syntax-ns#" xmlns:svg="http://www.w3.org/2000/svg" xmlns="http://www.w3.org/2000/svg" id="svg18833" viewbox="0 0 1024 768" height="768px" width="1024px" version="1.1"> <metadata id="metadata18839"> 
  <rdf:rdf> 
   <cc:work rdf:about=""> 
    <dc:format>
     image/svg+xml
    </dc:format> 
    <dc:type rdf:resource="http://purl.org/dc/dcmitype/StillImage"></dc:type> 
   </cc:work> 
  </rdf:rdf> 
 </metadata> <defs id="defs18837"></defs> <g id="logo-group"> 
  <g id="title" style="font-style:normal;font-weight:700;font-size:72px;line-height:1;font-family:'Comfortaa Bold Alt1';font-variant-ligatures:none;text-align:center;text-anchor:middle" aria-label="o7Ware"> 
   <path id="path18841" style="font-style: normal; font-weight: 700; font-size: 72px; line-height: 1; font-family: &quot;Comfortaa Bold Alt1&quot;; font-variant-ligatures: none; text-align: center; text-anchor: middle; fill: rgb(200, 83, 62);" d="m 412.0505,82.92 c -3.024,-1.728 -6.408,-2.592 -10.152,-2.592 -3.888,0 -7.272,0.864 -10.296,2.592 -3.024,1.728 -5.4,4.032 -7.056,7.056 -1.728,3.024 -2.52,6.48 -2.52,10.368 0,3.888 0.792,7.272 2.52,10.296 1.656,3.024 4.032,5.4 7.056,7.128 3.024,1.728 6.408,2.52 10.296,2.52 3.816,0 7.2,-0.792 10.224,-2.52 3.024,-1.728 5.328,-4.104 7.056,-7.128 1.656,-3.024 2.52,-6.408 2.52,-10.296 0,-3.888 -0.864,-7.344 -2.592,-10.368 -1.728,-3.024 -4.032,-5.328 -7.056,-7.056 z m -16.776,5.616 c 1.944,-1.152 4.176,-1.728 6.624,-1.728 2.448,0 4.608,0.576 6.552,1.728 1.944,1.152 3.456,2.808 4.536,4.824 1.08,2.088 1.656,4.392 1.656,6.984 0,2.592 -0.576,4.968 -1.656,6.984 -1.08,2.016 -2.592,3.6 -4.536,4.752 -1.944,1.152 -4.104,1.728 -6.552,1.728 -2.448,0 -4.68,-0.576 -6.624,-1.728 -1.944,-1.152 -3.456,-2.736 -4.536,-4.752 -1.152,-2.016 -1.656,-4.392 -1.656,-6.984 0,-2.592 0.504,-4.896 1.656,-6.984 1.08,-2.016 2.592,-3.672 4.536,-4.824 z" transform="translate(0 236.31988909507393) translate(251.99999999999994 127.0992646503617) scale(1.7536508396868054) translate(-382.0265 -80.328)"></path> 
   <path id="path18843" style="font-style: normal; font-weight: 700; font-size: 72px; line-height: 1; font-family: &quot;Comfortaa Bold Alt1&quot;; font-variant-ligatures: none; text-align: center; text-anchor: middle; fill: rgb(200, 83, 62);" d="m 425.31538,70.104 c 0.71999,0.72 1.584,1.008 2.66399,1.008 h 21.888 l -20.664,42.912 c -0.432,0.864 -0.64799,1.656 -0.64799,2.304 0,1.008 0.35999,1.872 1.07999,2.592 0.72,0.72 1.512,1.08 2.52,1.08 0.64801,0 1.296,-0.144 1.944,-0.504 0.576,-0.36 1.08,-0.864 1.44,-1.512 l 23.04001,-48.6 c 0.28799,-0.72 0.50399,-1.368 0.50399,-1.944 0,-1.008 -0.35999,-1.872 -1.08,-2.592 -0.72,-0.72 -1.584,-1.08 -2.59199,-1.08 h -27.43201 c -1.07999,0 -1.944,0.36 -2.66399,1.08 -0.72001,0.72 -1.00801,1.584 -1.00801,2.592 0,1.08 0.288,1.944 1.00801,2.664 z" transform="translate(0 236.31988909507393) translate(338.42143905599625 98.05880674514819) scale(1.7536508396868054) translate(-424.30737 -63.768)"></path> 
   <path id="path18845" style="font-style: normal; font-weight: 700; font-size: 72px; line-height: 1; font-family: &quot;Comfortaa Bold Alt1&quot;; font-variant-ligatures: none; text-align: center; text-anchor: middle; fill: rgb(75, 29, 64);" d="m 527.25837,64.632 c -0.504,-0.576 -1.224,-0.864 -2.15999,-0.864 -1.00801,0 -1.87201,0.216 -2.44801,0.576 -0.57599,0.432 -1.00799,1.08 -1.224,1.872 l -9.864,34.272 c -0.28799,1.008 -1.008,1.584 -2.088,1.512 -1.07999,0 -1.8,-0.504 -2.016,-1.584 l -9,-33.48 c -0.216,-0.72 -0.64799,-1.368 -1.296,-1.8 -0.72,-0.432 -1.44,-0.648 -2.23199,-0.648 -0.86401,0 -1.656,0.288 -2.30401,0.72 -0.71999,0.504 -1.152,1.08 -1.296,1.8 l -8.928,33.12 c -0.288,1.08 -0.93599,1.584 -2.016,1.584 -1.152,0.072 -1.8,-0.504 -2.08799,-1.512 l -9.64801,-33.624 c -0.288,-0.864 -0.79199,-1.584 -1.44,-2.088 -0.648,-0.432 -1.368,-0.72 -2.23199,-0.72 -1.00801,0 -1.728,0.288 -2.30401,0.864 -0.576,0.576 -0.79199,1.368 -0.79199,2.376 0,0.72 0.072,1.368 0.28799,1.944 l 14.47201,48.096 c 0.288,0.936 0.71999,1.656 1.44,2.16 0.64799,0.576 1.43999,0.792 2.30399,0.792 0.86401,0 1.584,-0.216 2.23201,-0.792 0.64799,-0.576 1.07999,-1.224 1.43999,-2.088 0,-0.072 0.072,-0.144 0.072,-0.216 l 8.71199,-33.264 c 0.28801,-1.08 1.008,-1.656 2.08801,-1.656 1.152,0 1.79999,0.576 2.08799,1.656 l 8.64,33.336 c 0,0.072 0.072,0.144 0.072,0.216 0.288,0.792 0.72,1.512 1.44,2.016 0.648,0.576 1.368,0.792 2.304,0.792 0.864,0 1.584,-0.216 2.232,-0.792 0.648,-0.576 1.08001,-1.224 1.44001,-2.16 0,0 0.072,-0.072 0.072,-0.144 l 14.472,-47.952 c 0.144,-0.576 0.288,-1.296 0.288,-2.016 0,-0.936 -0.288,-1.728 -0.72001,-2.304 z" transform="translate(0 236.31988909507393) translate(416.590442771544 98.05880674514819) scale(1.7536508396868054) translate(-461.88238 -63.768)"></path> 
   <path id="path18847" style="font-style: normal; font-weight: 700; font-size: 72px; line-height: 1; font-family: &quot;Comfortaa Bold Alt1&quot;; font-variant-ligatures: none; text-align: center; text-anchor: middle; fill: rgb(75, 29, 64);" d="m 564.99537,100.344 c 0,-3.672 -0.93599,-7.128 -2.664,-10.152 -1.72799,-3.024 -4.10399,-5.472 -7.12799,-7.2 -3.024,-1.728 -6.336,-2.664 -10.008,-2.664 -3.74401,0 -7.12801,0.936 -10.15201,2.664 -3.024,1.728 -5.4,4.176 -7.12799,7.2 -1.72801,3.024 -2.592,6.408 -2.592,10.152 0,3.744 0.79199,7.2 2.376,10.224 1.58399,3.024 3.81599,5.4 6.624,7.128 2.88,1.8 5.976,2.664 9.43199,2.664 h 0.576 17.20801 c 0.93599,0 1.728,-0.36 2.448,-1.008 0.64799,-0.648 1.00799,-1.44 1.00799,-2.448 V 116.4 Z m -30.95999,6.912 c -1.15201,-2.016 -1.65601,-4.32 -1.65601,-6.912 0,-2.52 0.504,-4.824 1.65601,-6.912 1.15199,-2.016 2.664,-3.672 4.60799,-4.824 1.944,-1.152 4.10401,-1.8 6.55201,-1.8 2.37599,0 4.53599,0.648 6.48,1.8 1.94399,1.152 3.456,2.808 4.60799,4.824 1.08001,2.088 1.65601,4.392 1.65601,6.912 0,2.592 -0.576,4.896 -1.65601,6.912 -1.15199,2.016 -2.664,3.672 -4.60799,4.824 -1.94401,1.152 -4.10401,1.728 -6.48,1.728 -2.448,0 -4.60801,-0.576 -6.55201,-1.728 -1.94399,-1.152 -3.456,-2.808 -4.60799,-4.824 z" transform="translate(0 236.31988909507393) translate(540.1193615699223 127.0992646503617) scale(1.7536508396868054) translate(-525.32338 -80.328)"></path> 
   <path id="path18849" style="font-style: normal; font-weight: 700; font-size: 72px; line-height: 1; font-family: &quot;Comfortaa Bold Alt1&quot;; font-variant-ligatures: none; text-align: center; text-anchor: middle; fill: rgb(75, 29, 64);" d="m 601.26762,81.336 c -1.44,-0.72 -3.45599,-1.152 -5.976,-1.152 -2.448,0 -4.68,0.504 -6.76799,1.44 -2.16001,1.008 -3.88801,2.304 -5.32801,3.96 v -1.368 c 0,-2.376 -1.22399,-3.6 -3.59999,-3.6 -1.15201,0 -2.08801,0.36 -2.664,0.936 -0.648,0.648 -0.936,1.512 -0.936,2.664 V 116.4 c 0,1.224 0.288,2.16 0.936,2.736 0.57599,0.576 1.51199,0.864 2.664,0.864 1.15199,0 2.08799,-0.288 2.664,-0.936 0.576,-0.576 0.93599,-1.512 0.93599,-2.664 V 95.376 c 0,-2.664 1.008,-4.824 3.168,-6.408 2.08801,-1.584 4.89601,-2.376 8.35201,-2.376 1.15199,0 2.736,0.216 4.67999,0.504 0.432,0.144 0.79201,0.144 1.08001,0.144 1.43999,0 2.448,-0.72 2.88,-2.304 0,-0.144 0.072,-0.36 0.072,-0.72 0,-1.152 -0.72001,-2.088 -2.16001,-2.88 z" transform="translate(0 236.31988909507393) translate(641.2563512090495 126.84673892944679) scale(1.7536508396868054) translate(-575.99563 -80.184)"></path> 
   <path id="path18851" style="font-style: normal; font-weight: 700; font-size: 72px; line-height: 1; font-family: &quot;Comfortaa Bold Alt1&quot;; font-variant-ligatures: none; text-align: center; text-anchor: middle; fill: rgb(75, 29, 64);" d="m 642.61475,102 c 0.576,-0.576 0.936,-1.368 0.936,-2.304 0,-3.744 -0.72,-7.128 -2.16,-10.08 -1.44,-2.88 -3.528,-5.184 -6.192,-6.84 -2.736,-1.584 -5.904,-2.448 -9.576,-2.448 -3.744,0 -7.128,0.864 -10.08,2.592 -2.952,1.728 -5.256,4.104 -6.912,7.128 -1.656,3.024 -2.448,6.48 -2.448,10.296 0,3.888 0.864,7.272 2.592,10.296 1.728,3.024 4.176,5.4 7.344,7.128 3.096,1.728 6.624,2.52 10.584,2.52 2.16,0 4.464,-0.36 6.912,-1.224 2.448,-0.792 4.464,-1.872 6.12,-3.168 0.72,-0.576 1.152,-1.296 1.152,-2.16 0,-0.864 -0.432,-1.728 -1.296,-2.448 -0.576,-0.432 -1.296,-0.72 -2.16,-0.72 -0.936,0 -1.728,0.288 -2.376,0.792 -1.008,0.792 -2.304,1.44 -3.888,1.944 -1.584,0.576 -3.024,0.792 -4.464,0.792 -3.672,0 -6.768,-1.008 -9.288,-3.096 -2.52,-2.016 -4.032,-4.752 -4.536,-8.136 h 27.36 c 0.936,0 1.728,-0.288 2.376,-0.864 z m -25.56,-12.6 c 2.16,-1.872 5.04,-2.88 8.568,-2.88 3.168,0 5.688,1.008 7.704,2.88 1.944,1.944 3.168,4.536 3.6,7.704 h -23.976 c 0.576,-3.168 1.944,-5.76 4.104,-7.704 z" transform="translate(0 236.31988909507393) translate(706.4695754225836 127.0992646503617) scale(1.7536508396868054) translate(-606.18275 -80.328)"></path> 
  </g> 
  <g id="tagline" style="font-style:normal;font-weight:500;font-size:32px;line-height:1;font-family:Raleway;font-variant-ligatures:none;text-align:center;text-anchor:middle"></g> 
 </g> 
</svg>