<svg xmlns:dc="http://purl.org/dc/elements/1.1/" xmlns:cc="http://creativecommons.org/ns#" xmlns:rdf="http://www.w3.org/1999/02/22-rdf-syntax-ns#" xmlns:svg="http://www.w3.org/2000/svg" xmlns="http://www.w3.org/2000/svg" id="svg26458" viewbox="0 0 1024 768" height="768px" width="1024px" version="1.1"> <metadata id="metadata26464"> 
  <rdf:rdf> 
   <cc:work rdf:about=""> 
    <dc:format>
     image/svg+xml
    </dc:format> 
    <dc:type rdf:resource="http://purl.org/dc/dcmitype/StillImage"></dc:type> 
   </cc:work> 
  </rdf:rdf> 
 </metadata> <defs id="defs26462"></defs> <g id="logo-group"> 
  <g id="title" style="font-style:normal;font-weight:700;font-size:72px;line-height:1;font-family:Phenomena;font-variant-ligatures:none;text-align:center;text-anchor:middle" aria-label="o7Zone"> 
   <path id="path26466" style="font-style: normal; font-weight: 700; font-size: 72px; line-height: 1; font-family: Phenomena; font-variant-ligatures: none; text-align: center; text-anchor: middle; fill: rgb(126, 90, 17);" d="m 443.078,120.792 c 6.984,0 11.52,-4.896 11.52,-11.736 V 94.944 c 0,-6.84 -4.536,-11.736 -11.52,-11.736 -6.912,0 -11.52,4.896 -11.52,11.736 v 14.112 c 0,6.84 4.608,11.736 11.52,11.736 z m 0,-5.832 c -3.312,0 -5.256,-2.304 -5.256,-5.688 V 94.728 c 0,-3.384 1.944,-5.688 5.256,-5.688 3.312,0 5.328,2.304 5.328,5.688 v 14.544 c 0,3.384 -2.016,5.688 -5.328,5.688 z" transform="translate(0 96.78830070099102) translate(251.9999999999999 248.57500604302638) scale(3.222947385383934) translate(-431.558 -83.208)"></path> 
   <path id="path26468" style="font-style: normal; font-weight: 700; font-size: 72px; line-height: 1; font-family: Phenomena; font-variant-ligatures: none; text-align: center; text-anchor: middle; fill: rgb(126, 90, 17);" d="m 458.3735,70.536 v 4.104 c 0,0.648 0.36,1.008 0.936,1.008 h 13.752 l -10.44,43.272 c -0.144,0.648 0.144,1.08 0.864,1.08 h 4.536 c 0.576,0 0.936,-0.288 1.08,-0.864 L 479.6135,75 c 0.288,-1.224 0.36,-2.088 0.36,-3.384 0,-1.368 -0.792,-2.016 -2.16,-2.016 h -18.504 c -0.576,0 -0.936,0.36 -0.936,0.936 z" transform="translate(0 96.78830070099102) translate(338.42494561276266 204.7171380227218) scale(3.222947385383934) translate(-458.3735 -69.6)"></path> 
   <path id="path26470" style="font-style: normal; font-weight: 700; font-size: 72px; line-height: 1; font-family: Phenomena; font-variant-ligatures: none; text-align: center; text-anchor: middle; fill: rgb(250, 228, 87);" d="m 490.76225,113.952 16.92,-36.072 c 0.648,-1.296 0.72,-2.376 0.648,-3.888 v -1.368 c -0.072,-2.088 -1.224,-3.024 -3.168,-3.024 h -18.504 c -0.576,0 -0.936,0.36 -0.936,0.936 v 4.104 c 0,0.648 0.36,1.008 0.936,1.008 h 15.048 l -16.776,36 c -0.648,1.296 -0.792,2.304 -0.792,3.888 v 1.368 c 0,1.944 1.152,3.096 3.168,3.096 h 20.304 c 0.576,0 0.936,-0.36 0.936,-1.008 v -4.032 c 0,-0.648 -0.36,-1.008 -0.936,-1.008 z" transform="translate(0 96.78830070099102) translate(421.46337926033345 204.7171380227218) scale(3.222947385383934) translate(-484.13825 -69.6)"></path> 
   <path id="path26472" style="font-style: normal; font-weight: 700; font-size: 72px; line-height: 1; font-family: Phenomena; font-variant-ligatures: none; text-align: center; text-anchor: middle; fill: rgb(250, 228, 87);" d="m 523.5155,120.792 c 6.984,0 11.52,-4.896 11.52,-11.736 V 94.944 c 0,-6.84 -4.536,-11.736 -11.52,-11.736 -6.912,0 -11.52,4.896 -11.52,11.736 v 14.112 c 0,6.84 4.608,11.736 11.52,11.736 z m 0,-5.832 c -3.312,0 -5.256,-2.304 -5.256,-5.688 V 94.728 c 0,-3.384 1.944,-5.688 5.256,-5.688 3.312,0 5.328,2.304 5.328,5.688 v 14.544 c 0,3.384 -2.016,5.688 -5.328,5.688 z" transform="translate(0 96.78830070099102) translate(511.2458303118199 248.57500604302638) scale(3.222947385383934) translate(-511.9955 -83.208)"></path> 
   <path id="path26474" style="font-style: normal; font-weight: 700; font-size: 72px; line-height: 1; font-family: Phenomena; font-variant-ligatures: none; text-align: center; text-anchor: middle; fill: rgb(250, 228, 87);" d="m 542.267,120 h 4.176 c 0.648,0 1.008,-0.36 1.008,-1.008 V 94.728 c 0,-3.384 1.872,-5.688 5.04,-5.688 3.168,0 5.04,2.304 5.04,5.688 v 24.264 c 0,0.648 0.36,1.008 1.008,1.008 h 4.176 c 0.648,0 1.008,-0.36 1.008,-1.008 V 94.944 c 0,-6.84 -4.536,-11.736 -11.232,-11.736 -6.696,0 -11.232,4.896 -11.232,11.736 v 24.048 c 0,0.648 0.36,1.008 1.008,1.008 z" transform="translate(0 96.78830070099102) translate(605.5605511240028 248.57500604302638) scale(3.222947385383934) translate(-541.259 -83.208)"></path> 
   <path id="path26476" style="font-style: normal; font-weight: 700; font-size: 72px; line-height: 1; font-family: Phenomena; font-variant-ligatures: none; text-align: center; text-anchor: middle; fill: rgb(250, 228, 87);" d="m 581.309,120.72 c 6.48,0 11.016,-4.464 11.376,-11.16 0,-0.576 -0.36,-0.936 -0.936,-0.936 h -4.248 c -0.576,0 -0.936,0.288 -1.008,0.936 -0.216,3.168 -2.16,5.328 -5.112,5.328 -3.312,0 -5.256,-2.304 -5.256,-5.616 v -3.744 h 5.328 c 6.84,0 11.448,-4.536 11.448,-10.872 0,-6.624 -4.752,-11.448 -11.52,-11.376 -6.912,0 -11.376,4.752 -11.448,11.592 v 14.112 c 0,7.056 4.608,11.736 11.376,11.736 z M 576.125,99.912 V 94.8 c 0,-3.456 1.872,-5.688 5.256,-5.688 3.312,0 5.328,2.232 5.328,5.688 0,3.024 -1.944,5.112 -5.256,5.112 z" transform="translate(0 96.78830070099102) translate(697.9753444525019 248.80449601160265) scale(3.222947385383934) translate(-569.933 -83.279205)"></path> 
  </g> 
  <g id="tagline" style="font-style:oblique;font-weight:normal;font-size:32px;line-height:1;font-family:'Fira Sans Condensed';font-variant-ligatures:none;text-align:center;text-anchor:middle"></g> 
 </g> 
</svg>