<svg xmlns:dc="http://purl.org/dc/elements/1.1/" xmlns:cc="http://creativecommons.org/ns#" xmlns:rdf="http://www.w3.org/1999/02/22-rdf-syntax-ns#" xmlns:svg="http://www.w3.org/2000/svg" xmlns="http://www.w3.org/2000/svg" id="svg593919" viewbox="0 0 1024 768" height="768px" width="1024px" version="1.1"> <metadata id="metadata593925"> 
  <rdf:rdf> 
   <cc:work rdf:about=""> 
    <dc:format>
     image/svg+xml
    </dc:format> 
    <dc:type rdf:resource="http://purl.org/dc/dcmitype/StillImage"></dc:type> 
   </cc:work> 
  </rdf:rdf> 
 </metadata> <defs id="defs593923"></defs> <g id="logo-group"> 
  <g id="title" style="font-style:normal;font-weight:400;font-size:72px;line-height:1;font-family:'Abril Fatface';font-variant-ligatures:none;text-align:center;text-anchor:middle" aria-label="Onsiteo7"> 
   <path id="path593927" style="font-style: normal; font-weight: 400; font-size: 72px; line-height: 1; font-family: &quot;Abril Fatface&quot;; font-variant-ligatures: none; text-align: center; text-anchor: middle; fill: rgb(211, 211, 211);" d="m 401.32981,97.752 v -5.328 q 0,-13.176 -1.296,-16.632 -1.44,-3.96 -4.104,-4.896 -1.512,-0.576 -3.672,-0.576 -2.16,0 -3.744,0.576 -1.512,0.576 -2.52,2.016 -1.008,1.44 -1.656,3.024 -0.576,1.584 -0.936,4.464 -0.432,4.176 -0.432,12.312 v 5.184 q 0,8.784 0.648,12.528 0.72,3.672 1.728,5.256 2.232,3.528 6.912,3.528 5.688,0 7.344,-4.752 1.728,-4.824 1.728,-16.704 z m -9.216,22.968 q -12.024,0 -18,-6.48 -5.904,-6.552 -5.904,-18.864 0,-12.384 6.336,-19.44 6.408,-7.128 18.072,-7.128 11.664,0 17.568,6.768 5.976,6.696 5.976,19.08 0,12.384 -6.048,19.224 -5.976,6.84 -18,6.84 z" transform="translate(0 244.03763292547274) translate(252 97.74394651082551) scale(1.6729442290260652) translate(-368.20981 -68.808)"></path> 
   <path id="path593929" style="font-style: normal; font-weight: 400; font-size: 72px; line-height: 1; font-family: &quot;Abril Fatface&quot;; font-variant-ligatures: none; text-align: center; text-anchor: middle; fill: rgb(211, 211, 211);" d="m 419.98119,85.728 h 17.352 v 6.624 q 1.152,-3.312 3.528,-5.328 2.376,-2.016 7.2,-2.016 11.16,0 11.16,12.024 v 21.672 h 4.032 V 120 h -20.376 v -1.296 h 2.952 v -23.4 q 0,-4.32 -0.576,-5.544 -0.576,-1.296 -2.088,-1.296 -2.304,0 -4.104,3.024 -1.728,3.024 -1.728,7.344 v 19.872 h 3.096 V 120 h -20.448 v -1.296 h 3.96 v -31.68 h -3.96 z" transform="translate(0 244.03763292547274) translate(343.6294640867937 124.84564302104775) scale(1.6729442290260652) translate(-419.98119 -85.008)"></path> 
   <path id="path593931" style="font-style: normal; font-weight: 400; font-size: 72px; line-height: 1; font-family: &quot;Abril Fatface&quot;; font-variant-ligatures: none; text-align: center; text-anchor: middle; fill: rgb(49, 49, 49);" d="m 465.79006,120.72 v -12.888 h 0.864 q 1.872,6.264 5.04,8.784 3.168,2.52 7.92,2.52 7.344,0 7.344,-4.68 0,-2.016 -1.8,-3.024 -2.808,-1.584 -7.2,-2.448 -4.896,-1.296 -8.208,-3.456 -3.96,-2.592 -3.96,-8.208 0,-5.616 3.456,-8.928 3.456,-3.384 9.216,-3.384 3.528,0 7.272,1.656 1.368,0.576 2.088,0.576 0.72,0 1.224,-0.504 0.504,-0.504 1.224,-1.872 h 0.792 V 95.88 h -0.864 q -3.672,-9.36 -11.376,-9.36 -3.384,0 -5.04,1.224 -1.656,1.152 -1.656,2.952 0,1.08 0.504,1.728 0.504,0.576 0.792,0.864 0.288,0.288 0.936,0.648 0.648,0.288 1.08,0.504 0.432,0.144 1.296,0.432 0.936,0.288 1.368,0.36 4.896,1.224 7.056,2.16 2.16,0.864 4.104,2.16 3.96,2.736 3.96,8.856 0,6.048 -3.6,9.216 -3.6,3.096 -9.864,3.096 -4.464,0 -8.64,-2.088 -0.864,-0.576 -1.368,-0.576 -1.584,0 -3.096,2.664 z" transform="translate(0 244.03763292547274) translate(425.28398147857706 124.604739052068) scale(1.6729442290260652) translate(-465.79006 -84.864)"></path> 
   <path id="path593933" style="font-style: normal; font-weight: 400; font-size: 72px; line-height: 1; font-family: &quot;Abril Fatface&quot;; font-variant-ligatures: none; text-align: center; text-anchor: middle; fill: rgb(49, 49, 49);" d="m 505.93681,80.76 q -3.816,0 -5.472,-1.944 -1.584,-1.944 -1.584,-4.824 0,-2.88 1.728,-4.752 1.8,-1.872 5.4,-1.872 3.6,0 5.472,1.728 1.872,1.656 1.872,4.824 0,3.096 -1.8,4.968 -1.8,1.872 -5.616,1.872 z m -10.872,4.968 h 17.64 v 32.976 h 4.032 V 120 h -21.384 v -1.296 h 3.96 v -31.68 h -4.248 z" transform="translate(0 244.03763292547274) translate(479.2778382343361 95.33490682102797) scale(1.6729442290260652) translate(-495.06481 -67.368)"></path> 
   <path id="path593935" style="font-style: normal; font-weight: 400; font-size: 72px; line-height: 1; font-family: &quot;Abril Fatface&quot;; font-variant-ligatures: none; text-align: center; text-anchor: middle; fill: rgb(49, 49, 49);" d="m 521.73406,109.704 v -22.68 h -3.96 v -1.296 h 3.96 V 76.44 l 13.392,-3.312 v 12.6 h 9.36 v 1.296 h -9.36 v 24.264 q 0,3.384 0.648,4.968 0.72,1.584 2.88,1.584 2.16,0 3.744,-2.16 1.656,-2.16 2.16,-5.904 l 1.224,0.144 q -0.576,4.968 -3.168,7.92 -2.592,2.88 -8.568,2.88 -5.976,0 -9.144,-2.376 -3.168,-2.376 -3.168,-8.64 z" transform="translate(0 244.03763292547274) translate(522.2879796544244 104.9710655802181) scale(1.6729442290260652) translate(-517.77406 -73.128)"></path> 
   <path id="path593937" style="font-style: normal; font-weight: 400; font-size: 72px; line-height: 1; font-family: &quot;Abril Fatface&quot;; font-variant-ligatures: none; text-align: center; text-anchor: middle; fill: rgb(49, 49, 49);" d="m 565.47631,120.72 q -9.288,0 -13.968,-4.752 -4.608,-4.824 -4.608,-13.32 0,-8.568 5.184,-13.104 5.256,-4.536 13.32,-4.536 16.344,0 15.696,16.416 h -20.304 v 2.808 q 0,7.056 1.8,10.656 1.8,3.6 6.264,3.6 8.352,0 10.944,-8.928 l 1.296,0.216 q -1.368,5.184 -4.968,8.064 -3.528,2.88 -10.656,2.88 z m -4.608,-20.736 h 7.416 v -3.528 q 0,-5.832 -0.72,-7.92 -0.648,-2.16 -2.736,-2.16 -2.016,0 -3.024,2.304 -0.936,2.232 -0.936,7.776 z" transform="translate(0 244.03763292547274) translate(576.0334041921731 124.84564302104775) scale(1.6729442290260652) translate(-546.90031 -85.008)"></path> 
   <path id="path593939" style="font-style: normal; font-weight: 400; font-size: 72px; line-height: 1; font-family: &quot;Abril Fatface&quot;; font-variant-ligatures: none; text-align: center; text-anchor: middle; fill: rgb(91, 91, 91);" d="m 606.92131,105.816 v -6.12 q 0,-6.984 -0.792,-10.152 -0.72,-3.24 -3.456,-3.24 -1.584,0 -2.592,0.936 -0.936,0.864 -1.368,2.952 -0.648,3.24 -0.648,9.864 v 5.616 q 0,7.848 0.432,9.432 0.504,1.584 1.008,2.592 0.792,1.728 3.096,1.728 2.808,0 3.672,-3.24 0.648,-2.304 0.648,-10.368 z m -4.464,14.904 q -9,0 -13.608,-4.608 -4.608,-4.608 -4.608,-13.176 0,-8.64 4.896,-13.248 4.968,-4.68 13.896,-4.68 8.928,0 13.32,4.32 4.392,4.248 4.392,13.032 0,18.36 -18.288,18.36 z" transform="translate(0 244.03763292547274) translate(643.5216473353136 124.84564302104775) scale(1.6729442290260652) translate(-584.24131 -85.008)"></path> 
   <path id="path593941" style="font-style: normal; font-weight: 400; font-size: 72px; line-height: 1; font-family: &quot;Abril Fatface&quot;; font-variant-ligatures: none; text-align: center; text-anchor: middle; fill: rgb(91, 91, 91);" d="m 638.95906,120.72 q -3.888,0 -6.12,-2.088 -2.232,-2.16 -2.232,-5.256 0,-3.168 2.088,-6.912 2.16,-3.816 9.288,-12.096 l 11.88,-13.752 h -18.432 q -5.112,0 -6.768,1.296 -1.584,1.224 -2.52,5.976 h -1.152 l 0.792,-18.288 h 32.256 v 7.776 l -7.992,13.968 q -5.328,9.432 -6.84,13.536 -1.44,4.032 -1.44,7.704 0,3.672 2.16,6.768 l -0.504,0.864 q -2.016,0.504 -4.464,0.504 z" transform="translate(0 244.03763292547274) translate(716.7125391191465 99.06891834021414) scale(1.6729442290260652) translate(-624.99106 -69.6)"></path> 
  </g> 
  <g id="tagline" style="font-style:oblique;font-weight:normal;font-size:32px;line-height:1;font-family:'Droid Serif';font-variant-ligatures:none;text-align:center;text-anchor:middle"></g> 
 </g> 
</svg>