<svg xmlns:dc="http://purl.org/dc/elements/1.1/" xmlns:cc="http://creativecommons.org/ns#" xmlns:rdf="http://www.w3.org/1999/02/22-rdf-syntax-ns#" xmlns:svg="http://www.w3.org/2000/svg" xmlns="http://www.w3.org/2000/svg" id="svg5376" viewbox="0 0 1024 768" height="768px" width="1024px" version="1.1"> <metadata id="metadata5382"> 
  <rdf:rdf> 
   <cc:work rdf:about=""> 
    <dc:format>
     image/svg+xml
    </dc:format> 
    <dc:type rdf:resource="http://purl.org/dc/dcmitype/StillImage"></dc:type> 
   </cc:work> 
  </rdf:rdf> 
 </metadata> <defs id="defs5380"></defs> <g id="logo-group"> 
  <g id="title" style="font-style:normal;font-weight:200;font-size:72px;line-height:1;font-family:Phenomena;font-variant-ligatures:none;text-align:center;text-anchor:middle" aria-label="Onairo7"> 
   <path id="path5384" style="font-style: normal; font-weight: 200; font-size: 72px; line-height: 1; font-family: Phenomena; font-variant-ligatures: none; text-align: center; text-anchor: middle; fill: rgb(0, 0, 0);" d="m 441.64194,120.504 c 7.056,0 11.592,-4.896 11.592,-13.248 v -24.84 c 0,-8.424 -4.536,-13.32 -11.592,-13.32 -7.056,0 -11.592,4.896 -11.592,13.32 v 24.84 c 0,8.352 4.536,13.248 11.592,13.248 z m 0,-1.368 c -6.192,0 -10.152,-4.32 -10.152,-11.88 v -24.84 c 0,-7.632 3.96,-11.952 10.152,-11.952 6.192,0 10.152,4.32 10.152,11.952 v 24.84 c 0,7.56 -3.96,11.88 -10.152,11.88 z" transform="translate(0 134.36049442797386) translate(251.99999999999983 176.7747646941426) scale(2.834762717004495) translate(-430.04994 -69.096)"></path> 
   <path id="path5386" style="font-style: normal; font-weight: 200; font-size: 72px; line-height: 1; font-family: Phenomena; font-variant-ligatures: none; text-align: center; text-anchor: middle; fill: rgb(0, 0, 0);" d="m 462.68844,120 h 0.648 c 0.216,0 0.36,-0.144 0.36,-0.36 V 95.016 c 0,-6.048 2.664,-10.224 8.424,-10.224 5.76,0 8.424,4.176 8.424,10.224 v 24.624 c 0,0.216 0.144,0.36 0.36,0.36 h 0.648 c 0.216,0 0.36,-0.144 0.36,-0.36 V 95.016 c 0,-6.768 -3.312,-11.52 -9.792,-11.52 -6.48,0 -9.792,4.752 -9.792,11.52 v 24.624 c 0,0.216 0.144,0.36 0.36,0.36 z" transform="translate(0 134.36049442797386) translate(352.00617651184285 217.59534781900732) scale(2.834762717004495) translate(-462.32844 -83.496)"></path> 
   <path id="path5388" style="font-style: normal; font-weight: 200; font-size: 72px; line-height: 1; font-family: Phenomena; font-variant-ligatures: none; text-align: center; text-anchor: middle; fill: rgb(0, 0, 0);" d="m 501.01719,120.504 c 6.192,0 9.648,-4.32 9.648,-11.16 V 94.368 c 0,-6.84 -3.672,-10.872 -9.648,-10.872 -6.264,0 -9.864,3.888 -10.152,9.144 0,0.216 0.144,0.36 0.36,0.36 h 0.648 c 0.216,0 0.36,-0.144 0.36,-0.36 0.288,-4.464 3.384,-7.848 8.784,-7.848 5.112,0 8.28,3.528 8.28,9.576 v 4.896 h -7.632 c -7.488,0 -11.376,3.816 -11.376,10.08 0,7.128 3.888,11.16 10.728,11.16 z m 0,-1.296 c -5.976,0 -9.36,-3.6 -9.36,-9.864 0,-5.472 3.384,-8.784 10.008,-8.784 h 7.632 v 8.784 c 0,6.048 -2.952,9.864 -8.28,9.864 z" transform="translate(0 134.36049442797386) translate(439.7725563023398 217.59534781900732) scale(2.834762717004495) translate(-490.28919 -83.496)"></path> 
   <path id="path5390" style="font-style: normal; font-weight: 200; font-size: 72px; line-height: 1; font-family: Phenomena; font-variant-ligatures: none; text-align: center; text-anchor: middle; fill: rgb(0, 0, 0);" d="m 520.93081,77.88 c 0.936,0 1.584,-0.648 1.584,-1.584 0,-0.936 -0.648,-1.584 -1.584,-1.584 -0.936,0 -1.584,0.648 -1.584,1.584 0,0.936 0.648,1.584 1.584,1.584 z m -0.36,42.12 h 0.648 c 0.216,0 0.36,-0.144 0.36,-0.36 V 84.36 c 0,-0.216 -0.144,-0.36 -0.36,-0.36 h -0.648 c -0.216,0 -0.36,0.144 -0.36,0.36 v 35.28 c 0,0.216 0.144,0.36 0.36,0.36 z" transform="translate(0 134.36049442797386) translate(530.6483022742375 192.69479211283982) scale(2.834762717004495) translate(-519.34681 -74.712)"></path> 
   <path id="path5392" style="font-style: normal; font-weight: 200; font-size: 72px; line-height: 1; font-family: Phenomena; font-variant-ligatures: none; text-align: center; text-anchor: middle; fill: rgb(0, 0, 0);" d="m 531.87594,120 h 0.648 c 0.216,0 0.36,-0.144 0.36,-0.36 V 95.16 c 0,-5.976 3.96,-10.008 9.432,-10.008 h 2.16 c 0.216,0 0.36,-0.144 0.36,-0.36 v -0.576 c 0,-0.216 -0.144,-0.36 -0.36,-0.36 h -2.16 c -6.192,0 -10.8,4.608 -10.8,11.304 v 24.48 c 0,0.216 0.144,0.36 0.36,0.36 z" transform="translate(0 134.36049442797386) translate(573.6491864476319 218.61586239712892) scale(2.834762717004495) translate(-531.51594 -83.856)"></path> 
   <path id="path5394" style="font-style: normal; font-weight: 200; font-size: 72px; line-height: 1; font-family: Phenomena; font-variant-ligatures: none; text-align: center; text-anchor: middle; fill: rgb(39, 44, 47);" d="m 558.95469,120.504 c 6.408,0 10.224,-4.752 10.224,-10.944 V 94.44 c 0,-6.192 -3.816,-10.944 -10.224,-10.944 -6.408,0 -10.224,4.752 -10.224,10.944 v 15.12 c 0,6.192 3.816,10.944 10.224,10.944 z m 0,-1.296 c -5.544,0 -8.856,-4.248 -8.856,-9.648 V 94.44 c 0,-5.4 3.312,-9.648 8.856,-9.648 5.544,0 8.856,4.248 8.856,9.648 v 15.12 c 0,5.4 -3.312,9.648 -8.856,9.648 z" transform="translate(0 134.36049442797386) translate(630.9532060811983 217.59534781900732) scale(2.834762717004495) translate(-548.73069 -83.496)"></path> 
   <path id="path5396" style="font-style: normal; font-weight: 200; font-size: 72px; line-height: 1; font-family: Phenomena; font-variant-ligatures: none; text-align: center; text-anchor: middle; fill: rgb(39, 44, 47);" d="m 575.54281,69.96 v 0.648 c 0,0.216 0.144,0.36 0.36,0.36 h 18 l -12.168,48.6 c -0.072,0.288 0.144,0.432 0.36,0.432 h 0.72 c 0.216,0 0.288,-0.072 0.36,-0.288 l 12.24,-48.816 c 0.072,-0.36 0.072,-0.576 0.072,-0.864 0,-0.288 -0.216,-0.432 -0.432,-0.432 h -19.152 c -0.216,0 -0.36,0.144 -0.36,0.36 z" transform="translate(0 134.36049442797386) translate(715.4634923720627 178.20348510351283) scale(2.834762717004495) translate(-575.54281 -69.6)"></path> 
  </g> 
  <g id="tagline" style="font-style:oblique;font-weight:300;font-size:32px;line-height:1;font-family:'Fira Sans Condensed';font-variant-ligatures:none;text-align:center;text-anchor:middle"></g> 
 </g> 
</svg>