<svg xmlns:dc="http://purl.org/dc/elements/1.1/" xmlns:cc="http://creativecommons.org/ns#" xmlns:rdf="http://www.w3.org/1999/02/22-rdf-syntax-ns#" xmlns:svg="http://www.w3.org/2000/svg" xmlns="http://www.w3.org/2000/svg" id="svg35761" viewbox="0 0 1024 768" height="768px" width="1024px" version="1.1"> <metadata id="metadata35767"> 
  <rdf:rdf> 
   <cc:work rdf:about=""> 
    <dc:format>
     image/svg+xml
    </dc:format> 
    <dc:type rdf:resource="http://purl.org/dc/dcmitype/StillImage"></dc:type> 
   </cc:work> 
  </rdf:rdf> 
 </metadata> <defs id="defs35765"></defs> <g id="logo-group"> 
  <g id="title" style="font-style:normal;font-weight:700;font-size:72px;line-height:1;font-family:Phenomena;font-variant-ligatures:none;text-align:center;text-anchor:middle" aria-label="Onelifeo7"> 
   <path id="path35769" style="font-style: normal; font-weight: 700; font-size: 72px; line-height: 1; font-family: Phenomena; font-variant-ligatures: none; text-align: center; text-anchor: middle; fill: rgb(170, 143, 113);" d="m 418.64469,120.72 c 7.488,0 12.672,-5.472 12.672,-13.032 V 81.912 c 0,-7.56 -5.184,-13.032 -12.672,-13.032 -7.488,0 -12.744,5.472 -12.744,13.536 v 24.768 c 0,8.064 5.256,13.536 12.744,13.536 z m 0,-6.048 c -3.672,0 -6.192,-2.736 -6.192,-7.2 V 82.128 c 0,-4.464 2.52,-7.2 6.192,-7.2 3.672,0 6.12,2.736 6.12,6.696 v 26.352 c 0,3.96 -2.448,6.696 -6.12,6.696 z" transform="translate(0 171.74816749403254) translate(252 148.99254442417475) scale(2.4371739898980076) translate(-405.90069 -68.88)"></path> 
   <path id="path35771" style="font-style: normal; font-weight: 700; font-size: 72px; line-height: 1; font-family: Phenomena; font-variant-ligatures: none; text-align: center; text-anchor: middle; fill: rgb(170, 143, 113);" d="m 438.55606,120 h 4.176 c 0.648,0 1.008,-0.36 1.008,-1.008 V 94.728 c 0,-3.384 1.872,-5.688 5.04,-5.688 3.168,0 5.04,2.304 5.04,5.688 v 24.264 c 0,0.648 0.36,1.008 1.008,1.008 h 4.176 c 0.648,0 1.008,-0.36 1.008,-1.008 V 94.944 c 0,-6.84 -4.536,-11.736 -11.232,-11.736 -6.696,0 -11.232,4.896 -11.232,11.736 v 24.048 c 0,0.648 0.36,1.008 1.008,1.008 z" transform="translate(0 171.74816749403254) translate(329.13014701267855 183.91237335143342) scale(2.4371739898980076) translate(-437.54806 -83.208)"></path> 
   <path id="path35773" style="font-style: normal; font-weight: 700; font-size: 72px; line-height: 1; font-family: Phenomena; font-variant-ligatures: none; text-align: center; text-anchor: middle; fill: rgb(170, 143, 113);" d="m 477.59806,120.72 c 6.48,0 11.016,-4.464 11.376,-11.16 0,-0.576 -0.36,-0.936 -0.936,-0.936 h -4.248 c -0.576,0 -0.936,0.288 -1.008,0.936 -0.216,3.168 -2.16,5.328 -5.112,5.328 -3.312,0 -5.256,-2.304 -5.256,-5.616 v -3.744 h 5.328 c 6.84,0 11.448,-4.536 11.448,-10.872 0,-6.624 -4.752,-11.448 -11.52,-11.376 -6.912,0 -11.376,4.752 -11.448,11.592 v 14.112 c 0,7.056 4.608,11.736 11.376,11.736 z m -5.184,-20.808 V 94.8 c 0,-3.456 1.872,-5.688 5.256,-5.688 3.312,0 5.328,2.232 5.328,5.688 0,3.024 -1.944,5.112 -5.256,5.112 z" transform="translate(0 171.74816749403254) translate(399.013673999014 184.08591232538413) scale(2.4371739898980076) translate(-466.22206 -83.279205)"></path> 
   <path id="path35775" style="font-style: normal; font-weight: 700; font-size: 72px; line-height: 1; font-family: Phenomena; font-variant-ligatures: none; text-align: center; text-anchor: middle; fill: rgb(170, 143, 113);" d="m 496.22581,120 h 4.176 c 0.648,0 1.008,-0.36 1.008,-1.008 V 70.536 c 0,-0.576 -0.36,-0.936 -1.008,-0.936 h -4.176 c -0.648,0 -1.008,0.36 -1.008,0.936 v 48.456 c 0,0.648 0.36,1.008 1.008,1.008 z" transform="translate(0 171.74816749403254) translate(469.68136171659904 150.7473096969013) scale(2.4371739898980076) translate(-495.21781 -69.6)"></path> 
   <path id="path35777" style="font-style: normal; font-weight: 700; font-size: 72px; line-height: 1; font-family: Phenomena; font-variant-ligatures: none; text-align: center; text-anchor: middle; fill: rgb(170, 143, 113);" d="m 512.51694,79.464 c 2.088,0 3.744,-1.728 3.744,-3.672 0,-2.16 -1.656,-3.744 -3.744,-3.744 -2.16,0 -3.672,1.584 -3.672,3.744 0,2.088 1.512,3.672 3.672,3.672 z m -2.088,40.536 h 4.176 c 0.648,0 1.008,-0.36 1.008,-1.008 V 84.936 c 0,-0.576 -0.36,-0.936 -1.008,-0.936 h -4.176 c -0.648,0 -1.008,0.36 -1.008,0.936 v 34.056 c 0,0.648 0.36,1.008 1.008,1.008 z" transform="translate(0 171.74816749403254) translate(502.89304850955796 156.71351162417167) scale(2.4371739898980076) translate(-508.84494 -72.048)"></path> 
   <path id="path35779" style="font-style: normal; font-weight: 700; font-size: 72px; line-height: 1; font-family: Phenomena; font-variant-ligatures: none; text-align: center; text-anchor: middle; fill: rgb(170, 143, 113);" d="m 538.67881,84 h -7.128 v -1.872 c 0,-4.752 2.304,-6.984 6.12,-6.984 0.576,0 0.936,-0.36 0.936,-1.008 V 70.32 c 0,-0.648 -0.36,-1.008 -0.936,-1.008 -7.344,0 -12.312,4.896 -12.312,13.176 V 84 h -4.104 c -0.576,0 -0.936,0.36 -0.936,0.936 v 3.744 c 0,0.576 0.36,0.936 0.936,0.936 h 4.104 v 29.376 c 0,0.648 0.36,1.008 1.008,1.008 h 4.176 c 0.576,0 1.008,-0.36 1.008,-1.008 V 89.616 h 7.128 c 0.576,0 0.936,-0.36 0.936,-0.936 v -3.744 c 0,-0.576 -0.36,-0.936 -0.936,-0.936 z" transform="translate(0 171.74816749403254) translate(530.856866037029 150.0454035878107) scale(2.4371739898980076) translate(-520.31881 -69.312)"></path> 
   <path id="path35781" style="font-style: normal; font-weight: 700; font-size: 72px; line-height: 1; font-family: Phenomena; font-variant-ligatures: none; text-align: center; text-anchor: middle; fill: rgb(170, 143, 113);" d="m 554.09806,120.72 c 6.48,0 11.016,-4.464 11.376,-11.16 0,-0.576 -0.36,-0.936 -0.936,-0.936 h -4.248 c -0.576,0 -0.936,0.288 -1.008,0.936 -0.216,3.168 -2.16,5.328 -5.112,5.328 -3.312,0 -5.256,-2.304 -5.256,-5.616 v -3.744 h 5.328 c 6.84,0 11.448,-4.536 11.448,-10.872 0,-6.624 -4.752,-11.448 -11.52,-11.376 -6.912,0 -11.376,4.752 -11.448,11.592 v 14.112 c 0,7.056 4.608,11.736 11.376,11.736 z m -5.184,-20.808 V 94.8 c 0,-3.456 1.872,-5.688 5.256,-5.688 3.312,0 5.328,2.232 5.328,5.688 0,3.024 -1.944,5.112 -5.256,5.112 z" transform="translate(0 171.74816749403254) translate(585.4574842262116 184.08591232538413) scale(2.4371739898980076) translate(-542.72206 -83.279205)"></path> 
   <path id="path35783" style="font-style: normal; font-weight: 700; font-size: 72px; line-height: 1; font-family: Phenomena; font-variant-ligatures: none; text-align: center; text-anchor: middle; fill: rgb(100, 72, 55);" d="m 582.36706,120.792 c 6.984,0 11.52,-4.896 11.52,-11.736 V 94.944 c 0,-6.84 -4.536,-11.736 -11.52,-11.736 -6.912,0 -11.52,4.896 -11.52,11.736 v 14.112 c 0,6.84 4.608,11.736 11.52,11.736 z m 0,-5.832 c -3.312,0 -5.256,-2.304 -5.256,-5.688 V 94.728 c 0,-3.384 1.944,-5.688 5.256,-5.688 3.312,0 5.328,2.304 5.328,5.688 v 14.544 c 0,3.384 -2.016,5.688 -5.328,5.688 z" transform="translate(0 171.74816749403254) translate(654.0030026920932 183.91237335143342) scale(2.4371739898980076) translate(-570.84706 -83.208)"></path> 
   <path id="path35785" style="font-style: normal; font-weight: 700; font-size: 72px; line-height: 1; font-family: Phenomena; font-variant-ligatures: none; text-align: center; text-anchor: middle; fill: rgb(100, 72, 55);" d="m 597.66256,70.536 v 4.104 c 0,0.648 0.36,1.008 0.936,1.008 h 13.752 l -10.44,43.272 c -0.144,0.648 0.144,1.08 0.864,1.08 h 4.536 c 0.576,0 0.936,-0.288 1.08,-0.864 L 618.90256,75 c 0.288,-1.224 0.36,-2.088 0.36,-3.384 0,-1.368 -0.792,-2.016 -2.16,-2.016 h -18.504 c -0.576,0 -0.936,0.36 -0.936,0.936 z" transform="translate(0 171.74816749403254) translate(719.3570418182031 150.7473096969013) scale(2.4371739898980076) translate(-597.66256 -69.6)"></path> 
  </g> 
  <g id="tagline" style="font-style:oblique;font-weight:normal;font-size:32px;line-height:1;font-family:'Fira Sans Condensed';font-variant-ligatures:none;text-align:center;text-anchor:middle"></g> 
 </g> 
</svg>