<svg xmlns:dc="http://purl.org/dc/elements/1.1/" xmlns:cc="http://creativecommons.org/ns#" xmlns:rdf="http://www.w3.org/1999/02/22-rdf-syntax-ns#" xmlns:svg="http://www.w3.org/2000/svg" xmlns="http://www.w3.org/2000/svg" id="svg42850" viewbox="0 0 1024 768" height="768px" width="1024px" version="1.1"> <metadata id="metadata42856"> 
  <rdf:rdf> 
   <cc:work rdf:about=""> 
    <dc:format>
     image/svg+xml
    </dc:format> 
    <dc:type rdf:resource="http://purl.org/dc/dcmitype/StillImage"></dc:type> 
   </cc:work> 
  </rdf:rdf> 
 </metadata> <defs id="defs42854"></defs> <g id="logo-group"> 
  <g id="title" style="font-style:normal;font-weight:800;font-size:72px;line-height:1;font-family:'Montserrat ExtraBold Alt1';font-variant-ligatures:none;text-align:center;text-anchor:middle" aria-label="ONEMINUTEO7"> 
   <path id="path42858" style="font-style: normal; font-weight: 800; font-size: 72px; line-height: 1; font-family: &quot;Montserrat ExtraBold Alt1&quot;; font-variant-ligatures: none; text-align: center; text-anchor: middle; fill: rgb(226, 221, 202);" d="m 240.75912,117.624 c 4.248,2.304 9.07201,3.384 14.4,3.384 5.328,0 10.08,-1.08 14.328,-3.384 4.248,-2.232 7.56,-5.328 10.00801,-9.36 2.44799,-3.96 3.67199,-8.424 3.67199,-13.464 0,-4.968 -1.224,-9.432 -3.67199,-13.464 -2.44801,-3.96 -5.76001,-7.056 -10.00801,-9.36 -4.248,-2.232 -9,-3.384 -14.328,-3.384 -5.32799,0 -10.152,1.152 -14.4,3.384 -4.248,2.304 -7.56,5.4 -10.008,9.36 -2.448,4.032 -3.6,8.496 -3.6,13.464 0,5.04 1.152,9.504 3.6,13.464 2.448,4.032 5.76,7.128 10.008,9.36 z m 21.312,-10.224 c -2.088,1.224 -4.392,1.8 -6.912,1.8 -2.592,0 -4.896,-0.576 -6.912,-1.8 -2.088,-1.152 -3.744,-2.88 -4.896,-5.04 -1.224,-2.16 -1.79999,-4.68 -1.79999,-7.56 0,-2.808 0.57599,-5.328 1.79999,-7.488 1.152,-2.16 2.808,-3.888 4.896,-5.112 2.016,-1.152 4.32,-1.8 6.912,-1.8 2.52,0 4.824,0.648 6.912,1.8 2.01601,1.224 3.67201,2.952 4.896,5.112 1.152,2.16 1.80001,4.68 1.80001,7.488 0,2.88 -0.64801,5.4 -1.80001,7.56 -1.22399,2.16 -2.87999,3.888 -4.896,5.04 z" transform="translate(0 316.1076756785206) translate(252 43.983240230579256) scale(0.9122819021253098) translate(-227.15112 -68.592)"></path> 
   <path id="path42860" style="font-style: normal; font-weight: 800; font-size: 72px; line-height: 1; font-family: &quot;Montserrat ExtraBold Alt1&quot;; font-variant-ligatures: none; text-align: center; text-anchor: middle; fill: rgb(226, 221, 202);" d="m 290.63375,120 h 13.968 v -8.496 l -13.968,-17.784 z m 33.984,-50.4 v 9.144 l 13.968,16.848 V 69.6 Z m 0,26.856 -22.248,-26.856 h -11.736 v 6.696 l 13.968,16.848 22.248,26.856 h 11.736 v -5.832 l -13.968,-17.784 z" transform="translate(0 316.1076756785206) translate(309.91405444831724 44.90282038792155) scale(0.9122819021253098) translate(-290.63375 -69.6)"></path> 
   <path id="path42862" style="font-style: normal; font-weight: 800; font-size: 72px; line-height: 1; font-family: &quot;Montserrat ExtraBold Alt1&quot;; font-variant-ligatures: none; text-align: center; text-anchor: middle; fill: rgb(226, 221, 202);" d="m 388.67187,69.6 h -39.95999 v 11.016 h 39.95999 z m 0,19.512 h -39.95999 v 10.656 h 39.95999 z m -39.95999,19.872 V 120 h 39.95999 v -11.016 z" transform="translate(0 316.1076756785206) translate(362.89768135659824 44.90282038792155) scale(0.9122819021253098) translate(-348.71188 -69.6)"></path> 
   <path id="path42864" style="font-style: normal; font-weight: 800; font-size: 72px; line-height: 1; font-family: &quot;Montserrat ExtraBold Alt1&quot;; font-variant-ligatures: none; text-align: center; text-anchor: middle; fill: rgb(226, 221, 202);" d="m 455.55088,88.824 -13.03201,23.328 0.072,7.848 h 13.10401 z M 397.08688,120 h 13.17599 v -6.984 L 397.08688,89.472 Z m 46.728,-50.4 -17.28001,29.088 -17.712,-29.088 h -11.73599 l 13.17599,24.408 12.888,21.024 h 6.336 l 12.96,-21.744 12.744,-23.688 z" transform="translate(0 316.1076756785206) translate(407.0293183719101 44.90282038792155) scale(0.9122819021253098) translate(-397.08688 -69.6)"></path> 
   <path id="path42866" style="font-style: normal; font-weight: 800; font-size: 72px; line-height: 1; font-family: &quot;Montserrat ExtraBold Alt1&quot;; font-variant-ligatures: none; text-align: center; text-anchor: middle; fill: rgb(226, 221, 202);" d="M 465.71188,69.6 V 120 h 14.25599 V 69.6 Z" transform="translate(0 316.1076756785206) translate(469.6346639052595 44.90282038792155) scale(0.9122819021253098) translate(-465.71188 -69.6)"></path> 
   <path id="path42868" style="font-style: normal; font-weight: 800; font-size: 72px; line-height: 1; font-family: &quot;Montserrat ExtraBold Alt1&quot;; font-variant-ligatures: none; text-align: center; text-anchor: middle; fill: rgb(226, 221, 202);" d="m 490.18063,120 h 13.96799 v -8.496 L 490.18063,93.72 Z m 33.98399,-50.4 v 9.144 l 13.968,16.848 V 69.6 Z m 0,26.856 -22.248,-26.856 h -11.73599 v 6.696 l 13.96799,16.848 22.248,26.856 h 11.736 v -5.832 l -13.968,-17.784 z" transform="translate(0 316.1076756785206) translate(491.9570616978882 44.90282038792155) scale(0.9122819021253098) translate(-490.18063 -69.6)"></path> 
   <path id="path42870" style="font-style: normal; font-weight: 800; font-size: 72px; line-height: 1; font-family: &quot;Montserrat ExtraBold Alt1&quot;; font-variant-ligatures: none; text-align: center; text-anchor: middle; fill: rgb(226, 221, 202);" d="m 554.01875,114.888 c 4.176,4.104 10.008,6.12 17.496,6.12 7.488,0 13.248,-2.016 17.424,-6.12 4.176,-4.032 6.264,-9.864 6.264,-17.352 V 69.6 h -14.04 v 27.504 c 0,8.064 -3.168,12.096 -9.504,12.096 -6.408,0 -9.576,-4.032 -9.576,-12.096 V 69.6 h -14.256 v 27.936 c 0,7.488 2.016,13.32 6.192,17.352 z" transform="translate(0 316.1076756785206) translate(544.546573701632 44.90282038792155) scale(0.9122819021253098) translate(-547.82675 -69.6)"></path> 
   <path id="path42872" style="font-style: normal; font-weight: 800; font-size: 72px; line-height: 1; font-family: &quot;Montserrat ExtraBold Alt1&quot;; font-variant-ligatures: none; text-align: center; text-anchor: middle; fill: rgb(226, 221, 202);" d="M 614.67425,80.904 V 120 h 14.256 V 80.904 h 15.408 V 69.6 h -45.144 v 11.304 z" transform="translate(0 316.1076756785206) translate(591.408214309054 44.90282038792155) scale(0.9122819021253098) translate(-599.19425 -69.6)"></path> 
   <path id="path42874" style="font-style: normal; font-weight: 800; font-size: 72px; line-height: 1; font-family: &quot;Montserrat ExtraBold Alt1&quot;; font-variant-ligatures: none; text-align: center; text-anchor: middle; fill: rgb(226, 221, 202);" d="m 689.60937,69.6 h -39.96 v 11.016 h 39.96 z m 0,19.512 h -39.96 v 10.656 h 39.96 z m -39.96,19.872 V 120 h 39.96 v -11.016 z" transform="translate(0 316.1076756785206) translate(637.4375071546148 44.90282038792155) scale(0.9122819021253098) translate(-649.64937 -69.6)"></path> 
   <path id="path42876" style="font-style: normal; font-weight: 800; font-size: 72px; line-height: 1; font-family: &quot;Montserrat ExtraBold Alt1&quot;; font-variant-ligatures: none; text-align: center; text-anchor: middle; fill: rgb(135, 42, 50);" d="m 708.89975,117.624 c 4.248,2.304 9.072,3.384 14.4,3.384 5.328,0 10.08,-1.08 14.328,-3.384 4.248,-2.232 7.56,-5.328 10.008,-9.36 2.448,-3.96 3.672,-8.424 3.672,-13.464 0,-4.968 -1.224,-9.432 -3.672,-13.464 -2.448,-3.96 -5.76,-7.056 -10.008,-9.36 -4.248,-2.232 -9,-3.384 -14.328,-3.384 -5.328,0 -10.152,1.152 -14.4,3.384 -4.248,2.304 -7.56,5.4 -10.008,9.36 -2.448,4.032 -3.6,8.496 -3.6,13.464 0,5.04 1.152,9.504 3.6,13.464 2.448,4.032 5.76,7.128 10.008,9.36 z m 21.312,-10.224 c -2.088,1.224 -4.392,1.8 -6.912,1.8 -2.592,0 -4.896,-0.576 -6.912,-1.8 -2.088,-1.152 -3.744,-2.88 -4.896,-5.04 -1.224,-2.16 -1.8,-4.68 -1.8,-7.56 0,-2.808 0.576,-5.328 1.8,-7.488 1.152,-2.16 2.808,-3.888 4.896,-5.112 2.016,-1.152 4.32,-1.8 6.912,-1.8 2.52,0 4.824,0.648 6.912,1.8 2.016,1.224 3.672,2.952 4.896,5.112 1.152,2.16 1.8,4.68 1.8,7.488 0,2.88 -0.648,5.4 -1.8,7.56 -1.224,2.16 -2.88,3.888 -4.896,5.04 z" transform="translate(0 316.1076756785206) translate(679.076224398541 43.983240230579256) scale(0.9122819021253098) translate(-695.29175 -68.592)"></path> 
   <path id="path42878" style="font-style: normal; font-weight: 800; font-size: 72px; line-height: 1; font-family: &quot;Montserrat ExtraBold Alt1&quot;; font-variant-ligatures: none; text-align: center; text-anchor: middle; fill: rgb(135, 42, 50);" d="m 797.15037,69.6 h -41.76 v 19.08 h 12.168 v -7.776 h 13.248 L 763.81438,120 h 15.55199 l 17.784,-41.472 z" transform="translate(0 316.1076756785206) translate(733.9031077672472 44.90282038792155) scale(0.9122819021253098) translate(-755.39037 -69.6)"></path> 
  </g> 
  <g id="tagline" style="font-style:normal;font-weight:500;font-size:32px;line-height:1;font-family:Montserrat;font-variant-ligatures:none;text-align:center;text-anchor:middle"></g> 
 </g> 
</svg>