<svg xmlns:dc="http://purl.org/dc/elements/1.1/" xmlns:cc="http://creativecommons.org/ns#" xmlns:rdf="http://www.w3.org/1999/02/22-rdf-syntax-ns#" xmlns:svg="http://www.w3.org/2000/svg" xmlns="http://www.w3.org/2000/svg" id="svg122007" viewbox="0 0 1024 768" height="768px" width="1024px" version="1.1"> <metadata id="metadata122013"> 
  <rdf:rdf> 
   <cc:work rdf:about=""> 
    <dc:format>
     image/svg+xml
    </dc:format> 
    <dc:type rdf:resource="http://purl.org/dc/dcmitype/StillImage"></dc:type> 
   </cc:work> 
  </rdf:rdf> 
 </metadata> <defs id="defs122011"></defs> <g id="logo-group"> 
  <g id="title" style="font-style:oblique;font-weight:700;font-size:72px;line-height:1;font-family:'Uni Neue';font-variant-ligatures:none;text-align:center;text-anchor:middle" aria-label="Oneshoto7"> 
   <path id="path122015" style="font-style: oblique; font-weight: 700; font-size: 72px; line-height: 1; font-family: &quot;Uni Neue&quot;; font-variant-ligatures: none; text-align: center; text-anchor: middle; fill: rgb(0, 0, 0);" d="m 387.86806,101.64 2.232,-12.744 c 2.16,-12.96 -4.32,-21.312 -16.632,-21.312 -12.6,0 -21.168,7.056 -23.256,18.864 l -2.232,12.744 c -2.232,12.816 4.032,21.744 16.344,21.744 12.96,0 21.456,-6.984 23.544,-19.296 z m -28.44,-1.152 2.376,-13.032 c 1.08,-5.904 4.464,-9.36 10.152,-9.36 5.472,0 7.632,3.96 6.624,9.72 l -2.304,13.176 c -1.008,5.832 -4.608,9.432 -10.296,9.432 -5.328,0 -7.56,-4.032 -6.552,-9.936 z" transform="translate(0 271.33499065971864) translate(252.0000000000001 75.80395933856965) scale(1.38180574305412) translate(-347.53457 -67.584)"></path> 
   <path id="path122017" style="font-style: oblique; font-weight: 700; font-size: 72px; line-height: 1; font-family: &quot;Uni Neue&quot;; font-variant-ligatures: none; text-align: center; text-anchor: middle; fill: rgb(0, 0, 0);" d="m 401.63806,120 c 0.792,0 1.224,-0.36 1.368,-1.152 l 4.752,-27 c 1.08,-0.504 2.88,-0.864 4.608,-0.864 3.816,0 5.4,2.088 4.536,6.624 l -3.6,21.024 c -0.072,0.792 0.36,1.368 1.152,1.368 h 8.28 c 0.792,0 1.224,-0.432 1.368,-1.152 l 3.6,-20.16 c 1.8,-10.224 -3.096,-17.136 -13.968,-17.136 -4.68,0 -10.08,1.152 -14.616,2.88 -0.648,0.288 -0.936,0.72 -1.08,1.296 l -5.904,32.904 c -0.144,0.792 0.288,1.368 1.152,1.368 z" transform="translate(0 271.33499065971864) translate(320.4991506558276 95.10502195754958) scale(1.38180574305412) translate(-392.10677 -81.552)"></path> 
   <path id="path122019" style="font-style: oblique; font-weight: 700; font-size: 72px; line-height: 1; font-family: &quot;Uni Neue&quot;; font-variant-ligatures: none; text-align: center; text-anchor: middle; fill: rgb(0, 0, 0);" d="m 434.67706,95.376 -1.872,10.44 c -1.656,9.36 4.896,15.12 14.328,15.12 6.264,0 11.16,-1.728 15.048,-4.392 0.648,-0.36 0.72,-1.008 0.432,-1.728 l -2.952,-5.544 c -0.36,-0.792 -0.936,-0.864 -1.656,-0.36 -2.88,1.728 -6.192,2.88 -9.36,2.88 -3.96,0 -5.688,-1.872 -4.968,-5.688 l 0.216,-1.008 h 20.016 c 0.72,0 1.152,-0.36 1.296,-1.08 l 1.224,-6.984 c 1.944,-10.584 -4.608,-15.48 -13.824,-15.48 -8.712,0 -16.2,4.392 -17.928,13.824 z m 21.024,2.52 h -10.512 l 0.36,-1.944 c 0.648,-3.384 3.024,-5.256 6.12,-5.256 3.672,0 4.896,2.52 4.392,5.4 z" transform="translate(0 271.33499065971864) translate(383.2910981414057 95.10502195754958) scale(1.38180574305412) translate(-432.54872 -81.552)"></path> 
   <path id="path122021" style="font-style: oblique; font-weight: 700; font-size: 72px; line-height: 1; font-family: &quot;Uni Neue&quot;; font-variant-ligatures: none; text-align: center; text-anchor: middle; fill: rgb(0, 0, 0);" d="m 499.65931,109.776 c 1.512,-8.424 -5.4,-11.88 -10.944,-13.104 -3.456,-0.792 -5.76,-1.44 -5.328,-3.6 0.288,-1.8 1.944,-2.376 4.608,-2.376 3.024,0 5.76,0.648 7.992,1.944 0.72,0.36 1.296,0.288 1.728,-0.36 l 4.248,-5.688 c 0.504,-0.648 0.432,-1.296 -0.288,-1.728 -3.888,-2.232 -7.704,-3.312 -12.672,-3.312 -8.712,0 -14.76,3.096 -16.272,10.368 -1.584,7.776 4.032,12.024 11.088,13.464 2.88,0.648 5.4,1.224 4.896,3.456 -0.36,1.656 -2.088,2.736 -5.544,2.736 -3.384,0 -6.552,-1.008 -9.36,-3.096 -0.648,-0.432 -1.224,-0.36 -1.728,0.288 l -4.104,5.616 c -0.432,0.576 -0.432,1.224 0.216,1.728 3.96,3.24 8.64,4.824 14.616,4.824 9,0 15.408,-3.528 16.848,-11.16 z" transform="translate(0 271.33499065971864) translate(438.7422855253535 95.10502195754958) scale(1.38180574305412) translate(-467.67823 -81.552)"></path> 
   <path id="path122023" style="font-style: oblique; font-weight: 700; font-size: 72px; line-height: 1; font-family: &quot;Uni Neue&quot;; font-variant-ligatures: none; text-align: center; text-anchor: middle; fill: rgb(0, 0, 0);" d="m 520.78569,83.064 2.304,-13.176 c 0.144,-0.792 -0.288,-1.368 -1.08,-1.368 h -8.28 c -0.792,0 -1.224,0.432 -1.296,1.152 l -8.712,48.96 c -0.072,0.792 0.36,1.368 1.152,1.368 h 8.28 c 0.792,0 1.224,-0.432 1.368,-1.152 l 4.68,-26.64 c 1.296,-0.648 3.096,-1.224 4.824,-1.224 3.888,0 5.256,2.16 4.464,6.336 l -3.672,21.312 c -0.144,0.792 0.288,1.368 1.152,1.368 h 8.28 c 0.72,0 1.224,-0.432 1.296,-1.152 l 3.6,-20.232 c 1.872,-10.656 -2.88,-17.064 -11.304,-17.064 -2.808,0 -5.112,0.576 -7.056,1.512 z" transform="translate(0 271.33499065971864) translate(495.44563763754206 77.09732951406829) scale(1.38180574305412) translate(-503.71392 -68.52)"></path> 
   <path id="path122025" style="font-style: oblique; font-weight: 700; font-size: 72px; line-height: 1; font-family: &quot;Uni Neue&quot;; font-variant-ligatures: none; text-align: center; text-anchor: middle; fill: rgb(0, 0, 0);" d="m 576.86806,106.68 1.656,-9.072 c 1.512,-8.784 -4.248,-16.056 -14.112,-16.056 -10.008,0 -17.064,5.4 -18.648,14.112 l -1.512,8.928 c -1.656,9.144 4.176,16.344 13.824,16.344 10.584,0 17.136,-5.184 18.792,-14.256 z m -21.816,-1.008 1.656,-9.288 c 0.576,-3.24 3.024,-5.4 6.48,-5.4 3.456,0 4.968,2.664 4.392,5.904 l -1.656,9.216 c -0.576,3.384 -2.88,5.4 -6.624,5.4 -3.384,0 -4.896,-2.304 -4.248,-5.832 z" transform="translate(0 271.33499065971864) translate(557.983802680351 95.10502195754958) scale(1.38180574305412) translate(-543.97221 -81.552)"></path> 
   <path id="path122027" style="font-style: oblique; font-weight: 700; font-size: 72px; line-height: 1; font-family: &quot;Uni Neue&quot;; font-variant-ligatures: none; text-align: center; text-anchor: middle; fill: rgb(0, 0, 0);" d="m 602.51131,92.568 c 0.792,0 1.224,-0.36 1.368,-1.152 l 1.152,-6.624 c 0.144,-0.792 -0.288,-1.368 -1.152,-1.368 h -5.76 l 0.432,-8.568 c 0.072,-0.792 -0.36,-1.296 -1.224,-1.296 h -7.056 c -0.792,0 -1.224,0.432 -1.368,1.152 l -5.4,30.888 c -1.872,10.512 3.24,15.336 11.232,15.336 1.224,0 2.592,-0.144 3.672,-0.36 0.72,-0.072 1.08,-0.504 1.224,-1.224 l 1.152,-6.696 c 0.216,-0.936 -0.288,-1.296 -1.152,-1.224 -0.72,0 -1.368,0 -1.944,0 -2.952,0 -4.104,-1.728 -3.528,-4.968 l 2.448,-13.896 z" transform="translate(0 271.33499065971864) translate(618.9825946712253 84.06163045906106) scale(1.38180574305412) translate(-583.11647 -73.56)"></path> 
   <path id="path122029" style="font-style: oblique; font-weight: 700; font-size: 72px; line-height: 1; font-family: &quot;Uni Neue&quot;; font-variant-ligatures: none; text-align: center; text-anchor: middle; fill: rgb(0, 0, 0);" d="m 638.74306,106.68 1.656,-9.072 c 1.512,-8.784 -4.248,-16.056 -14.112,-16.056 -10.008,0 -17.064,5.4 -18.648,14.112 l -1.512,8.928 c -1.656,9.144 4.176,16.344 13.824,16.344 10.584,0 17.136,-5.184 18.792,-14.256 z m -21.816,-1.008 1.656,-9.288 c 0.576,-3.24 3.024,-5.4 6.48,-5.4 3.456,0 4.968,2.664 4.392,5.904 l -1.656,9.216 c -0.576,3.384 -2.88,5.4 -6.624,5.4 -3.384,0 -4.896,-2.304 -4.248,-5.832 z" transform="translate(0 271.33499065971864) translate(657.3010904623659 95.10502195754958) scale(1.38180574305412) translate(-605.84721 -81.552)"></path> 
   <path id="path122031" style="font-style: oblique; font-weight: 700; font-size: 72px; line-height: 1; font-family: &quot;Uni Neue&quot;; font-variant-ligatures: none; text-align: center; text-anchor: middle; fill: rgb(0, 0, 0);" d="m 655.96231,120 c 0.72,0 1.152,-0.288 1.512,-0.864 l 24.84,-41.688 c 0.288,-0.504 0.432,-0.936 0.504,-1.44 l 1.008,-6.12 c 0.144,-0.792 -0.288,-1.368 -1.08,-1.368 h -31.896 c -0.792,0 -1.224,0.36 -1.296,1.152 l -1.368,7.776 c -0.144,0.792 0.288,1.368 1.152,1.368 h 19.872 l -23.688,39.672 c -0.504,0.864 -0.072,1.512 0.864,1.512 z" transform="translate(0 271.33499065971864) translate(718.739255225359 77.09732951406829) scale(1.38180574305412) translate(-645.30944 -68.52)"></path> 
  </g> 
  <g id="tagline" style="font-style:oblique;font-weight:400;font-size:32px;line-height:1;font-family:Lato;font-variant-ligatures:none;text-align:center;text-anchor:middle"></g> 
 </g> 
</svg>