<svg xmlns:dc="http://purl.org/dc/elements/1.1/" xmlns:cc="http://creativecommons.org/ns#" xmlns:rdf="http://www.w3.org/1999/02/22-rdf-syntax-ns#" xmlns:svg="http://www.w3.org/2000/svg" xmlns="http://www.w3.org/2000/svg" id="svg51613" viewbox="0 0 1024 768" height="768px" width="1024px" version="1.1"> <metadata id="metadata51619"> 
  <rdf:rdf> 
   <cc:work rdf:about=""> 
    <dc:format>
     image/svg+xml
    </dc:format> 
    <dc:type rdf:resource="http://purl.org/dc/dcmitype/StillImage"></dc:type> 
   </cc:work> 
  </rdf:rdf> 
 </metadata> <defs id="defs51617"></defs> <g id="logo-group"> 
  <g id="title" style="font-style:normal;font-weight:700;font-size:72px;line-height:1;font-family:Phenomena;font-variant-ligatures:none;text-align:center;text-anchor:middle" aria-label="Optimizationo7"> 
   <path id="path51621" style="font-style: normal; font-weight: 700; font-size: 72px; line-height: 1; font-family: Phenomena; font-variant-ligatures: none; text-align: center; text-anchor: middle; fill: rgb(32, 87, 107);" d="m 352.55094,120.72 c 7.488,0 12.672,-5.472 12.672,-13.032 V 81.912 c 0,-7.56 -5.184,-13.032 -12.672,-13.032 -7.488,0 -12.744,5.472 -12.744,13.536 v 24.768 c 0,8.064 5.256,13.536 12.744,13.536 z m 0,-6.048 c -3.672,0 -6.192,-2.736 -6.192,-7.2 V 82.128 c 0,-4.464 2.52,-7.2 6.192,-7.2 3.672,0 6.12,2.736 6.12,6.696 v 26.352 c 0,3.96 -2.448,6.696 -6.12,6.696 z" transform="translate(0 281.81053195793174) translate(251.99999999999983 63.167077516112386) scale(1.1911596619644653) translate(-339.80694 -68.88)"></path> 
   <path id="path51623" style="font-style: normal; font-weight: 700; font-size: 72px; line-height: 1; font-family: Phenomena; font-variant-ligatures: none; text-align: center; text-anchor: middle; fill: rgb(32, 87, 107);" d="m 382.97431,83.208 c -6.912,0 -11.52,4.896 -11.52,11.736 v 38.52 c 0,0.576 0.36,0.936 1.008,0.936 h 4.248 c 0.576,0 0.936,-0.36 0.936,-0.936 v -15.12 c 1.656,1.512 3.744,2.448 6.336,2.448 5.832,0 10.44,-4.896 10.44,-11.736 V 94.944 c 0,-6.84 -4.608,-11.736 -11.448,-11.736 z m 5.256,26.064 c 0,3.384 -1.944,5.616 -5.256,5.616 -3.312,0 -5.328,-2.232 -5.328,-5.616 V 94.728 c 0,-3.384 2.016,-5.616 5.328,-5.616 3.312,0 5.256,2.232 5.256,5.616 z" transform="translate(0 281.81053195793174) translate(298.0351881850155 80.23401315273924) scale(1.1911596619644653) translate(-371.45431 -83.208)"></path> 
   <path id="path51625" style="font-style: normal; font-weight: 700; font-size: 72px; line-height: 1; font-family: Phenomena; font-variant-ligatures: none; text-align: center; text-anchor: middle; fill: rgb(32, 87, 107);" d="m 415.39906,114.384 h -0.792 c -3.672,0 -5.544,-2.304 -5.544,-6.84 V 89.616 h 5.544 c 0.576,0 0.936,-0.36 0.936,-0.936 v -3.744 c 0,-0.576 -0.36,-0.936 -0.936,-0.936 h -5.544 v -9.288 c 0,-0.648 -0.36,-1.008 -0.936,-1.008 h -4.176 c -0.648,0 -1.008,0.36 -1.008,1.008 V 84 h -4.032 c -0.576,0 -0.936,0.36 -0.936,0.936 v 3.744 c 0,0.576 0.36,0.936 0.936,0.936 h 4.032 v 17.856 c 0,7.92 4.248,12.744 11.376,12.744 h 1.08 c 0.648,0 1.008,-0.36 1.008,-0.936 v -3.96 c 0,-0.576 -0.36,-0.936 -1.008,-0.936 z" transform="translate(0 281.81053195793174) translate(337.9637534238108 68.91323172542894) scale(1.1911596619644653) translate(-397.97506 -73.704)"></path> 
   <path id="path51627" style="font-style: normal; font-weight: 700; font-size: 72px; line-height: 1; font-family: Phenomena; font-variant-ligatures: none; text-align: center; text-anchor: middle; fill: rgb(32, 87, 107);" d="m 424.90756,79.464 c 2.088,0 3.744,-1.728 3.744,-3.672 0,-2.16 -1.656,-3.744 -3.744,-3.744 -2.16,0 -3.672,1.584 -3.672,3.744 0,2.088 1.512,3.672 3.672,3.672 z m -2.088,40.536 h 4.176 c 0.648,0 1.008,-0.36 1.008,-1.008 V 84.936 c 0,-0.576 -0.36,-0.936 -1.008,-0.936 h -4.176 c -0.648,0 -1.008,0.36 -1.008,0.936 v 34.056 c 0,0.648 0.36,1.008 1.008,1.008 z" transform="translate(0 281.81053195793174) translate(374.0088403746865 66.94067132521582) scale(1.1911596619644653) translate(-421.23556 -72.048)"></path> 
   <path id="path51629" style="font-style: normal; font-weight: 700; font-size: 72px; line-height: 1; font-family: Phenomena; font-variant-ligatures: none; text-align: center; text-anchor: middle; fill: rgb(32, 87, 107);" d="m 461.44081,83.208 c -3.384,0 -6.12,1.8 -7.776,4.392 -1.656,-2.592 -4.464,-4.392 -7.776,-4.392 -6.552,0 -10.872,4.896 -10.872,11.736 v 24.048 c 0,0.648 0.36,1.008 1.008,1.008 h 4.104 c 0.648,0 1.008,-0.36 1.008,-1.008 V 94.728 c 0,-3.384 1.728,-5.616 4.752,-5.616 3.024,0 4.68,2.232 4.68,5.616 v 24.264 c 0,0.648 0.36,1.008 1.008,1.008 h 4.176 c 0.576,0 0.936,-0.36 0.936,-1.008 V 94.728 c 0,-3.384 1.728,-5.616 4.752,-5.616 3.024,0 4.68,2.232 4.68,5.616 v 24.264 c 0,0.648 0.36,1.008 1.008,1.008 h 4.176 c 0.576,0 0.936,-0.36 0.936,-1.008 V 94.944 c 0,-6.84 -4.248,-11.736 -10.8,-11.736 z" transform="translate(0 281.81053195793174) translate(398.76262709988555 80.23401315273924) scale(1.1911596619644653) translate(-435.01681 -83.208)"></path> 
   <path id="path51631" style="font-style: normal; font-weight: 700; font-size: 72px; line-height: 1; font-family: Phenomena; font-variant-ligatures: none; text-align: center; text-anchor: middle; fill: rgb(32, 87, 107);" d="m 482.56381,79.464 c 2.088,0 3.744,-1.728 3.744,-3.672 0,-2.16 -1.656,-3.744 -3.744,-3.744 -2.16,0 -3.672,1.584 -3.672,3.744 0,2.088 1.512,3.672 3.672,3.672 z m -2.088,40.536 h 4.176 c 0.648,0 1.008,-0.36 1.008,-1.008 V 84.936 c 0,-0.576 -0.36,-0.936 -1.008,-0.936 h -4.176 c -0.648,0 -1.008,0.36 -1.008,0.936 v 34.056 c 0,0.648 0.36,1.008 1.008,1.008 z" transform="translate(0 281.81053195793174) translate(459.36287490232775 66.94067132521582) scale(1.1911596619644653) translate(-478.89181 -72.048)"></path> 
   <path id="path51633" style="font-style: normal; font-weight: 700; font-size: 72px; line-height: 1; font-family: Phenomena; font-variant-ligatures: none; text-align: center; text-anchor: middle; fill: rgb(32, 87, 107);" d="m 498.78631,114.168 13.248,-23.04 c 0.648,-1.08 0.72,-2.016 0.72,-2.952 v -1.8 c 0,-1.512 -0.936,-2.376 -2.448,-2.376 h -16.92 c -0.576,0 -1.008,0.36 -1.008,0.936 v 3.888 c 0,0.648 0.432,1.008 1.008,1.008 h 12.528 l -13.464,23.328 c -0.576,1.008 -0.72,1.944 -0.72,2.952 v 1.368 c 0,1.584 0.936,2.52 2.448,2.52 h 17.568 c 0.648,0 1.008,-0.36 1.008,-1.008 v -3.816 c 0,-0.648 -0.36,-1.008 -1.008,-1.008 z" transform="translate(0 281.81053195793174) translate(482.99369585620974 81.1774116050151) scale(1.1911596619644653) translate(-491.73031 -84)"></path> 
   <path id="path51635" style="font-style: normal; font-weight: 700; font-size: 72px; line-height: 1; font-family: Phenomena; font-variant-ligatures: none; text-align: center; text-anchor: middle; fill: rgb(32, 87, 107);" d="m 528.28831,120.72 c 6.912,0 11.232,-4.752 11.232,-11.376 V 94.872 c 0,-6.768 -4.392,-11.664 -11.232,-11.664 -6.408,0 -10.656,4.464 -11.088,10.728 0,0.576 0.36,1.008 0.936,1.008 h 4.176 c 0.648,0 0.936,-0.216 1.008,-0.864 0.216,-2.952 1.872,-4.968 4.896,-4.968 3.24,0 5.184,2.232 5.184,5.472 v 3.96 h -5.4 c -6.768,0 -11.376,4.608 -11.376,10.584 0,6.768 4.68,11.592 11.664,11.592 z m -0.072,-5.904 c -3.384,0 -5.4,-2.232 -5.4,-5.688 0,-2.808 2.016,-5.04 5.4,-5.04 h 5.184 v 5.256 c 0,3.312 -1.872,5.472 -5.184,5.472 z" transform="translate(0 281.81053195793174) translate(520.9845421149045 80.23401315273924) scale(1.1911596619644653) translate(-516.62431 -83.208)"></path> 
   <path id="path51637" style="font-style: normal; font-weight: 700; font-size: 72px; line-height: 1; font-family: Phenomena; font-variant-ligatures: none; text-align: center; text-anchor: middle; fill: rgb(32, 87, 107);" d="m 560.52406,114.384 h -0.792 c -3.672,0 -5.544,-2.304 -5.544,-6.84 V 89.616 h 5.544 c 0.576,0 0.936,-0.36 0.936,-0.936 v -3.744 c 0,-0.576 -0.36,-0.936 -0.936,-0.936 h -5.544 v -9.288 c 0,-0.648 -0.36,-1.008 -0.936,-1.008 h -4.176 c -0.648,0 -1.008,0.36 -1.008,1.008 V 84 h -4.032 c -0.576,0 -0.936,0.36 -0.936,0.936 v 3.744 c 0,0.576 0.36,0.936 0.936,0.936 h 4.032 v 17.856 c 0,7.92 4.248,12.744 11.376,12.744 h 1.08 c 0.648,0 1.008,-0.36 1.008,-0.936 v -3.96 c 0,-0.576 -0.36,-0.936 -1.008,-0.936 z" transform="translate(0 281.81053195793174) translate(560.8595051689114 68.91323172542894) scale(1.1911596619644653) translate(-543.10006 -73.704)"></path> 
   <path id="path51639" style="font-style: normal; font-weight: 700; font-size: 72px; line-height: 1; font-family: Phenomena; font-variant-ligatures: none; text-align: center; text-anchor: middle; fill: rgb(32, 87, 107);" d="m 570.03256,79.464 c 2.088,0 3.744,-1.728 3.744,-3.672 0,-2.16 -1.656,-3.744 -3.744,-3.744 -2.16,0 -3.672,1.584 -3.672,3.744 0,2.088 1.512,3.672 3.672,3.672 z m -2.088,40.536 h 4.176 c 0.648,0 1.008,-0.36 1.008,-1.008 V 84.936 c 0,-0.576 -0.36,-0.936 -1.008,-0.936 h -4.176 c -0.648,0 -1.008,0.36 -1.008,0.936 v 34.056 c 0,0.648 0.36,1.008 1.008,1.008 z" transform="translate(0 281.81053195793174) translate(596.904592119787 66.94067132521582) scale(1.1911596619644653) translate(-566.36056 -72.048)"></path> 
   <path id="path51641" style="font-style: normal; font-weight: 700; font-size: 72px; line-height: 1; font-family: Phenomena; font-variant-ligatures: none; text-align: center; text-anchor: middle; fill: rgb(32, 87, 107);" d="m 590.52331,120.792 c 6.984,0 11.52,-4.896 11.52,-11.736 V 94.944 c 0,-6.84 -4.536,-11.736 -11.52,-11.736 -6.912,0 -11.52,4.896 -11.52,11.736 v 14.112 c 0,6.84 4.608,11.736 11.52,11.736 z m 0,-5.832 c -3.312,0 -5.256,-2.304 -5.256,-5.688 V 94.728 c 0,-3.384 1.944,-5.688 5.256,-5.688 3.312,0 5.328,2.304 5.328,5.688 v 14.544 c 0,3.384 -2.016,5.688 -5.328,5.688 z" transform="translate(0 281.81053195793174) translate(620.3022435698396 80.23401315273924) scale(1.1911596619644653) translate(-579.00331 -83.208)"></path> 
   <path id="path51643" style="font-style: normal; font-weight: 700; font-size: 72px; line-height: 1; font-family: Phenomena; font-variant-ligatures: none; text-align: center; text-anchor: middle; fill: rgb(32, 87, 107);" d="m 609.27481,120 h 4.176 c 0.648,0 1.008,-0.36 1.008,-1.008 V 94.728 c 0,-3.384 1.872,-5.688 5.04,-5.688 3.168,0 5.04,2.304 5.04,5.688 v 24.264 c 0,0.648 0.36,1.008 1.008,1.008 h 4.176 c 0.648,0 1.008,-0.36 1.008,-1.008 V 94.944 c 0,-6.84 -4.536,-11.736 -11.232,-11.736 -6.696,0 -11.232,4.896 -11.232,11.736 v 24.048 c 0,0.648 0.36,1.008 1.008,1.008 z" transform="translate(0 281.81053195793174) translate(663.4978619714879 80.23401315273924) scale(1.1911596619644653) translate(-608.26681 -83.208)"></path> 
   <path id="path51645" style="font-style: normal; font-weight: 700; font-size: 72px; line-height: 1; font-family: Phenomena; font-variant-ligatures: none; text-align: center; text-anchor: middle; fill: rgb(197, 227, 212);" d="m 648.46081,120.792 c 6.984,0 11.52,-4.896 11.52,-11.736 V 94.944 c 0,-6.84 -4.536,-11.736 -11.52,-11.736 -6.912,0 -11.52,4.896 -11.52,11.736 v 14.112 c 0,6.84 4.608,11.736 11.52,11.736 z m 0,-5.832 c -3.312,0 -5.256,-2.304 -5.256,-5.688 V 94.728 c 0,-3.384 1.944,-5.688 5.256,-5.688 3.312,0 5.328,2.304 5.328,5.688 v 14.544 c 0,3.384 -2.016,5.688 -5.328,5.688 z" transform="translate(0 281.81053195793174) translate(705.9912917524083 80.23401315273924) scale(1.1911596619644653) translate(-636.94081 -83.208)"></path> 
   <path id="path51647" style="font-style: normal; font-weight: 700; font-size: 72px; line-height: 1; font-family: Phenomena; font-variant-ligatures: none; text-align: center; text-anchor: middle; fill: rgb(197, 227, 212);" d="m 663.75631,70.536 v 4.104 c 0,0.648 0.36,1.008 0.936,1.008 h 13.752 l -10.44,43.272 c -0.144,0.648 0.144,1.08 0.864,1.08 h 4.536 c 0.576,0 0.936,-0.288 1.08,-0.864 L 684.99631,75 c 0.288,-1.224 0.36,-2.088 0.36,-3.384 0,-1.368 -0.792,-2.016 -2.16,-2.016 h -18.504 c -0.576,0 -0.936,0.36 -0.936,0.936 z" transform="translate(0 281.81053195793174) translate(746.2709513015676 64.02471247272678) scale(1.1911596619644653) translate(-663.75631 -69.6)"></path> 
  </g> 
  <g id="tagline" style="font-style:oblique;font-weight:normal;font-size:32px;line-height:1;font-family:'Fira Sans Condensed';font-variant-ligatures:none;text-align:center;text-anchor:middle"></g> 
 </g> 
</svg>