<svg xmlns:dc="http://purl.org/dc/elements/1.1/" xmlns:cc="http://creativecommons.org/ns#" xmlns:rdf="http://www.w3.org/1999/02/22-rdf-syntax-ns#" xmlns:svg="http://www.w3.org/2000/svg" xmlns="http://www.w3.org/2000/svg" id="svg115702" viewbox="0 0 1024 768" height="768px" width="1024px" version="1.1"> <metadata id="metadata115708"> 
  <rdf:rdf> 
   <cc:work rdf:about=""> 
    <dc:format>
     image/svg+xml
    </dc:format> 
    <dc:type rdf:resource="http://purl.org/dc/dcmitype/StillImage"></dc:type> 
   </cc:work> 
  </rdf:rdf> 
 </metadata> <defs id="defs115706"></defs> <g id="logo-group"> 
  <g id="title" style="font-style:normal;font-weight:200;font-size:72px;line-height:1;font-family:Phenomena;font-variant-ligatures:none;text-align:center;text-anchor:middle" aria-label="Orangeyellowo7"> 
   <path id="path115710" style="font-style: normal; font-weight: 200; font-size: 72px; line-height: 1; font-family: Phenomena; font-variant-ligatures: none; text-align: center; text-anchor: middle; fill: rgb(99, 86, 78);" d="m 341.65756,120.504 c 7.056,0 11.592,-4.896 11.592,-13.248 v -24.84 c 0,-8.424 -4.536,-13.32 -11.592,-13.32 -7.056,0 -11.592,4.896 -11.592,13.32 v 24.84 c 0,8.352 4.536,13.248 11.592,13.248 z m 0,-1.368 c -6.192,0 -10.152,-4.32 -10.152,-11.88 v -24.84 c 0,-7.632 3.96,-11.952 10.152,-11.952 6.192,0 10.152,4.32 10.152,11.952 v 24.84 c 0,7.56 -3.96,11.88 -10.152,11.88 z" transform="translate(0 271.80168542777204) translate(251.99999999999977 69.7502408399211) scale(1.2858376872745327) translate(-330.06556 -69.096)"></path> 
   <path id="path115712" style="font-style: normal; font-weight: 200; font-size: 72px; line-height: 1; font-family: Phenomena; font-variant-ligatures: none; text-align: center; text-anchor: middle; fill: rgb(99, 86, 78);" d="m 362.70406,120 h 0.648 c 0.216,0 0.36,-0.144 0.36,-0.36 V 95.16 c 0,-5.976 3.96,-10.008 9.432,-10.008 h 2.16 c 0.216,0 0.36,-0.144 0.36,-0.36 v -0.576 c 0,-0.216 -0.144,-0.36 -0.36,-0.36 h -2.16 c -6.192,0 -10.8,4.608 -10.8,11.304 v 24.48 c 0,0.216 0.144,0.36 0.36,0.36 z" transform="translate(0 271.80168542777204) translate(297.36242485051434 88.72920510409321) scale(1.2858376872745327) translate(-362.34406 -83.856)"></path> 
   <path id="path115714" style="font-style: normal; font-weight: 200; font-size: 72px; line-height: 1; font-family: Phenomena; font-variant-ligatures: none; text-align: center; text-anchor: middle; fill: rgb(99, 86, 78);" d="m 388.65781,120.504 c 6.192,0 9.648,-4.32 9.648,-11.16 V 94.368 c 0,-6.84 -3.672,-10.872 -9.648,-10.872 -6.264,0 -9.864,3.888 -10.152,9.144 0,0.216 0.144,0.36 0.36,0.36 h 0.648 c 0.216,0 0.36,-0.144 0.36,-0.36 0.288,-4.464 3.384,-7.848 8.784,-7.848 5.112,0 8.28,3.528 8.28,9.576 v 4.896 h -7.632 c -7.488,0 -11.376,3.816 -11.376,10.08 0,7.128 3.888,11.16 10.728,11.16 z m 0,-1.296 c -5.976,0 -9.36,-3.6 -9.36,-9.864 0,-5.472 3.384,-8.784 10.008,-8.784 h 7.632 v 8.784 c 0,6.048 -2.952,9.864 -8.28,9.864 z" transform="translate(0 271.80168542777204) translate(321.26068264677696 88.26630353667437) scale(1.2858376872745327) translate(-377.92981 -83.496)"></path> 
   <path id="path115716" style="font-style: normal; font-weight: 200; font-size: 72px; line-height: 1; font-family: Phenomena; font-variant-ligatures: none; text-align: center; text-anchor: middle; fill: rgb(99, 86, 78);" d="m 407.56344,120 h 0.648 c 0.216,0 0.36,-0.144 0.36,-0.36 V 95.016 c 0,-6.048 2.664,-10.224 8.424,-10.224 5.76,0 8.424,4.176 8.424,10.224 v 24.624 c 0,0.216 0.144,0.36 0.36,0.36 h 0.648 c 0.216,0 0.36,-0.144 0.36,-0.36 V 95.016 c 0,-6.768 -3.312,-11.52 -9.792,-11.52 -6.48,0 -9.792,4.752 -9.792,11.52 v 24.624 c 0,0.216 0.144,0.36 0.36,0.36 z" transform="translate(0 271.80168542777204) translate(362.759332405931 88.26630353667437) scale(1.2858376872745327) translate(-407.20344 -83.496)"></path> 
   <path id="path115718" style="font-style: normal; font-weight: 200; font-size: 72px; line-height: 1; font-family: Phenomena; font-variant-ligatures: none; text-align: center; text-anchor: middle; fill: rgb(99, 86, 78);" d="m 445.89219,83.496 c -6.048,0 -10.224,4.824 -10.224,11.088 v 13.968 c 0,6.624 4.176,11.448 10.224,11.448 3.888,0 7.272,-2.16 8.856,-5.832 v 10.152 c 0,5.256 -3.312,9.504 -8.928,9.504 -5.472,0 -8.64,-3.96 -8.784,-8.928 0,-0.216 -0.144,-0.36 -0.36,-0.36 h -0.648 c -0.216,0 -0.36,0.144 -0.36,0.36 0.144,5.688 3.96,10.224 10.152,10.224 6.408,0 10.296,-4.824 10.296,-10.8 V 94.584 c 0,-6.264 -4.176,-11.088 -10.224,-11.088 z m 0,35.208 c -5.256,0 -8.856,-4.248 -8.856,-10.152 V 94.584 c 0,-5.544 3.6,-9.792 8.856,-9.792 5.256,0 8.856,4.248 8.856,9.792 v 13.968 c 0,5.904 -3.6,10.152 -8.856,10.152 z" transform="translate(0 271.80168542777204) translate(403.2178937766023 88.26630353667437) scale(1.2858376872745327) translate(-435.66819 -83.496)"></path> 
   <path id="path115720" style="font-style: normal; font-weight: 200; font-size: 72px; line-height: 1; font-family: Phenomena; font-variant-ligatures: none; text-align: center; text-anchor: middle; fill: rgb(99, 86, 78);" d="m 474.71019,120.504 c 6.624,0 9.936,-4.608 10.08,-10.296 0,-0.144 -0.144,-0.288 -0.36,-0.288 h -0.648 c -0.216,0 -0.36,0.144 -0.36,0.36 -0.144,4.968 -2.88,8.928 -8.712,8.928 -5.76,0 -8.424,-4.176 -8.424,-9.504 v -5.472 h 7.2 c 7.848,0 11.592,-4.32 11.592,-10.152 0,-5.832 -4.176,-10.584 -10.08,-10.584 -6.12,0 -10.08,4.608 -10.08,10.872 v 15.336 c 0,6.048 3.168,10.8 9.792,10.8 z m -8.424,-17.568 v -8.568 c 0,-5.544 3.312,-9.576 8.712,-9.576 5.184,0 8.712,4.176 8.712,9.288 0,5.112 -3.024,8.856 -10.224,8.856 z" transform="translate(0 271.80168542777204) translate(444.686159191206 88.26630353667437) scale(1.2858376872745327) translate(-464.91819 -83.496)"></path> 
   <path id="path115722" style="font-style: normal; font-weight: 200; font-size: 72px; line-height: 1; font-family: Phenomena; font-variant-ligatures: none; text-align: center; text-anchor: middle; fill: rgb(124, 111, 103);" d="m 512.63056,84 h -0.648 c -0.216,0 -0.36,0.144 -0.36,0.36 v 24.48 c 0,5.688 -3.096,9.864 -8.352,9.864 -5.328,0 -8.496,-4.176 -8.496,-9.864 V 84.36 c 0,-0.216 -0.144,-0.36 -0.36,-0.36 h -0.648 c -0.216,0 -0.36,0.144 -0.36,0.36 v 24.48 c 0,6.408 3.744,11.16 9.864,11.16 3.816,0 6.912,-2.16 8.352,-5.544 v 9.864 c 0,5.256 -3.096,9.504 -8.424,9.504 -5.184,0 -8.28,-3.96 -8.424,-8.928 0,-0.216 -0.144,-0.36 -0.36,-0.36 h -0.648 c -0.216,0 -0.36,0.144 -0.36,0.36 0.144,5.688 3.888,10.224 9.792,10.224 6.048,0 9.792,-4.824 9.792,-10.8 V 84.36 c 0,-0.216 -0.144,-0.36 -0.36,-0.36 z" transform="translate(0 271.80168542777204) translate(485.1750920480508 88.91436573106074) scale(1.2858376872745327) translate(-493.40656 -84)"></path> 
   <path id="path115724" style="font-style: normal; font-weight: 200; font-size: 72px; line-height: 1; font-family: Phenomena; font-variant-ligatures: none; text-align: center; text-anchor: middle; fill: rgb(124, 111, 103);" d="m 532.22581,120.504 c 6.624,0 9.936,-4.608 10.08,-10.296 0,-0.144 -0.144,-0.288 -0.36,-0.288 h -0.648 c -0.216,0 -0.36,0.144 -0.36,0.36 -0.144,4.968 -2.88,8.928 -8.712,8.928 -5.76,0 -8.424,-4.176 -8.424,-9.504 v -5.472 h 7.2 c 7.848,0 11.592,-4.32 11.592,-10.152 0,-5.832 -4.176,-10.584 -10.08,-10.584 -6.12,0 -10.08,4.608 -10.08,10.872 v 15.336 c 0,6.048 3.168,10.8 9.792,10.8 z m -8.424,-17.568 v -8.568 c 0,-5.544 3.312,-9.576 8.712,-9.576 5.184,0 8.712,4.176 8.712,9.288 0,5.112 -3.024,8.856 -10.224,8.856 z" transform="translate(0 271.80168542777204) translate(526.356937117814 88.26630353667437) scale(1.2858376872745327) translate(-522.43381 -83.496)"></path> 
   <path id="path115726" style="font-style: normal; font-weight: 200; font-size: 72px; line-height: 1; font-family: Phenomena; font-variant-ligatures: none; text-align: center; text-anchor: middle; fill: rgb(124, 111, 103);" d="m 551.93019,120 h 0.648 c 0.216,0 0.36,-0.144 0.36,-0.36 V 69.96 c 0,-0.216 -0.144,-0.36 -0.36,-0.36 h -0.648 c -0.216,0 -0.36,0.144 -0.36,0.36 v 49.68 c 0,0.216 0.144,0.36 0.36,0.36 z" transform="translate(0 271.80168542777204) translate(567.6791056543897 70.39830303430747) scale(1.2858376872745327) translate(-551.57019 -69.6)"></path> 
   <path id="path115728" style="font-style: normal; font-weight: 200; font-size: 72px; line-height: 1; font-family: Phenomena; font-variant-ligatures: none; text-align: center; text-anchor: middle; fill: rgb(124, 111, 103);" d="m 564.30519,120 h 0.648 c 0.216,0 0.36,-0.144 0.36,-0.36 V 69.96 c 0,-0.216 -0.144,-0.36 -0.36,-0.36 h -0.648 c -0.216,0 -0.36,0.144 -0.36,0.36 v 49.68 c 0,0.216 0.144,0.36 0.36,0.36 z" transform="translate(0 271.80168542777204) translate(587.4488600962355 70.39830303430747) scale(1.2858376872745327) translate(-563.94519 -69.6)"></path> 
   <path id="path115730" style="font-style: normal; font-weight: 200; font-size: 72px; line-height: 1; font-family: Phenomena; font-variant-ligatures: none; text-align: center; text-anchor: middle; fill: rgb(124, 111, 103);" d="m 585.11094,120.504 c 6.408,0 10.224,-4.752 10.224,-10.944 V 94.44 c 0,-6.192 -3.816,-10.944 -10.224,-10.944 -6.408,0 -10.224,4.752 -10.224,10.944 v 15.12 c 0,6.192 3.816,10.944 10.224,10.944 z m 0,-1.296 c -5.544,0 -8.856,-4.248 -8.856,-9.648 V 94.44 c 0,-5.4 3.312,-9.648 8.856,-9.648 5.544,0 8.856,4.248 8.856,9.648 v 15.12 c 0,5.4 -3.312,9.648 -8.856,9.648 z" transform="translate(0 271.80168542777204) translate(605.375687672795 88.26630353667437) scale(1.2858376872745327) translate(-574.88694 -83.496)"></path> 
   <path id="path115732" style="font-style: normal; font-weight: 200; font-size: 72px; line-height: 1; font-family: Phenomena; font-variant-ligatures: none; text-align: center; text-anchor: middle; fill: rgb(124, 111, 103);" d="m 630.44056,120.504 c 6.048,0 9.432,-4.752 9.432,-10.728 V 84.36 c 0,-0.216 -0.144,-0.36 -0.36,-0.36 h -0.648 c -0.216,0 -0.36,0.144 -0.36,0.36 v 25.416 c 0,5.256 -2.736,9.432 -8.064,9.432 -4.752,0 -7.992,-4.176 -7.992,-9.288 V 84.36 c 0,-0.216 -0.144,-0.36 -0.36,-0.36 h -0.648 c -0.216,0 -0.36,0.144 -0.36,0.36 v 25.56 c 0,5.112 -3.24,9.288 -7.92,9.288 -5.4,0 -8.136,-4.176 -8.136,-9.432 V 84.36 c 0,-0.216 -0.144,-0.36 -0.36,-0.36 h -0.648 c -0.216,0 -0.36,0.144 -0.36,0.36 v 25.416 c 0,5.976 3.384,10.728 9.504,10.728 4.176,0 7.272,-2.664 8.64,-6.48 1.296,3.816 4.464,6.48 8.64,6.48 z" transform="translate(0 271.80168542777204) translate(646.2262623791859 88.91436573106074) scale(1.2858376872745327) translate(-603.65656 -84)"></path> 
   <path id="path115734" style="font-style: normal; font-weight: 200; font-size: 72px; line-height: 1; font-family: Phenomena; font-variant-ligatures: none; text-align: center; text-anchor: middle; fill: rgb(145, 132, 124);" d="m 658.93906,120.504 c 6.408,0 10.224,-4.752 10.224,-10.944 V 94.44 c 0,-6.192 -3.816,-10.944 -10.224,-10.944 -6.408,0 -10.224,4.752 -10.224,10.944 v 15.12 c 0,6.192 3.816,10.944 10.224,10.944 z m 0,-1.296 c -5.544,0 -8.856,-4.248 -8.856,-9.648 V 94.44 c 0,-5.4 3.312,-9.648 8.856,-9.648 5.544,0 8.856,4.248 8.856,9.648 v 15.12 c 0,5.4 -3.312,9.648 -8.856,9.648 z" transform="translate(0 271.80168542777204) translate(708.0216928730689 88.26630353667437) scale(1.2858376872745327) translate(-648.71506 -83.496)"></path> 
   <path id="path115736" style="font-style: normal; font-weight: 200; font-size: 72px; line-height: 1; font-family: Phenomena; font-variant-ligatures: none; text-align: center; text-anchor: middle; fill: rgb(145, 132, 124);" d="m 675.52719,69.96 v 0.648 c 0,0.216 0.144,0.36 0.36,0.36 h 18 l -12.168,48.6 c -0.072,0.288 0.144,0.432 0.36,0.432 h 0.72 c 0.216,0 0.288,-0.072 0.36,-0.288 l 12.24,-48.816 c 0.072,-0.36 0.072,-0.576 0.072,-0.864 0,-0.288 -0.216,-0.432 -0.432,-0.432 h -19.152 c -0.216,0 -0.36,0.144 -0.36,0.36 z" transform="translate(0 271.80168542777204) translate(746.3552531649967 70.39830303430747) scale(1.2858376872745327) translate(-675.52719 -69.6)"></path> 
  </g> 
  <g id="tagline" style="font-style:oblique;font-weight:300;font-size:32px;line-height:1;font-family:'Fira Sans Condensed';font-variant-ligatures:none;text-align:center;text-anchor:middle"></g> 
 </g> 
</svg>