<svg xmlns:dc="http://purl.org/dc/elements/1.1/" xmlns:cc="http://creativecommons.org/ns#" xmlns:rdf="http://www.w3.org/1999/02/22-rdf-syntax-ns#" xmlns:svg="http://www.w3.org/2000/svg" xmlns="http://www.w3.org/2000/svg" id="svg75742" viewbox="0 0 1024 768" height="768px" width="1024px" version="1.1"> <metadata id="metadata75748"> 
  <rdf:rdf> 
   <cc:work rdf:about=""> 
    <dc:format>
     image/svg+xml
    </dc:format> 
    <dc:type rdf:resource="http://purl.org/dc/dcmitype/StillImage"></dc:type> 
   </cc:work> 
  </rdf:rdf> 
 </metadata> <defs id="defs75746"></defs> <g id="logo-group"> 
  <g id="title" style="font-style:normal;font-weight:500;font-size:72px;line-height:1;font-family:'Raleway Medium Alt1';font-variant-ligatures:none;text-align:center;text-anchor:middle" aria-label="ORANGEREDO7"> 
   <path id="path75750" style="font-style: normal; font-weight: 500; font-size: 72px; line-height: 1; font-family: &quot;Raleway Medium Alt1&quot;; font-variant-ligatures: none; text-align: center; text-anchor: middle; fill: rgb(89, 86, 68);" d="m 288.59862,97.248 c -0.21599,1.512 -0.504,3.024 -1.008,4.464 -0.79199,2.448 -1.94399,4.608 -3.45599,6.48 -1.51201,1.872 -3.384,3.456 -5.47201,4.608 -2.23199,1.152 -4.68,1.728 -7.344,1.728 -2.664,0 -5.04,-0.504 -7.2,-1.656 -2.16,-1.08 -4.03199,-2.592 -5.54399,-4.464 -1.584,-1.872 -2.73601,-3.96 -3.60001,-6.408 -0.504,-1.512 -0.864,-3.096 -1.08,-4.752 h -6.552 c 0.216,2.304 0.72,4.608 1.584,6.768 1.08,3.168 2.736,5.904 4.896,8.352 2.088,2.448 4.60801,4.392 7.56001,5.832 2.952,1.44 6.26399,2.16 9.86399,2.16 3.456,0 6.62401,-0.648 9.57601,-2.088 2.952,-1.44 5.47199,-3.312 7.632,-5.688 2.15999,-2.376 3.81599,-5.112 5.03999,-8.28 0.86401,-2.232 1.44,-4.608 1.728,-7.056 z m -33.624,-10.152 c 0.792,-2.376 1.94401,-4.464 3.45601,-6.408 1.512,-1.872 3.38399,-3.384 5.54399,-4.536 2.16001,-1.152 4.608,-1.728 7.344,-1.728 2.52,0 4.896,0.576 7.056,1.656 2.16,1.152 3.96001,2.592 5.54401,4.464 1.584,1.872 2.73599,3.96 3.59999,6.408 0.432,1.296 0.79201,2.664 1.008,3.96 h 6.552 c -0.288,-1.944 -0.79199,-3.96 -1.44,-5.832 -1.152,-3.096 -2.808,-5.832 -4.896,-8.352 -2.16,-2.448 -4.67999,-4.392 -7.55999,-5.904 -2.952,-1.512 -6.264,-2.304 -9.79201,-2.304 -3.528,0 -6.696,0.72 -9.648,2.16 -2.952,1.44 -5.472,3.312 -7.632,5.688 -2.16,2.448 -3.888,5.184 -5.112,8.28 -0.792,2.088 -1.368,4.176 -1.584,6.264 h 6.552 c 0.216,-1.224 0.576,-2.52 1.008,-3.816 z" transform="translate(0 312.6727272727273) translate(238.37840909090897 43.770909090909086) scale(0.9090909090909091) translate(-247.34262 -68.52)"></path> 
   <path id="path75752" style="font-style: normal; font-weight: 500; font-size: 72px; line-height: 1; font-family: &quot;Raleway Medium Alt1&quot;; font-variant-ligatures: none; text-align: center; text-anchor: middle; fill: rgb(89, 86, 68);" d="m 331.01,100.416 c 1.584,-0.36 3.096,-1.08 4.392,-2.088 1.296,-0.936 2.448,-2.088 3.384,-3.456 0.936,-1.296 1.656,-2.808 2.16,-4.464 0.504,-1.656 0.792,-3.384 0.792,-5.184 0,-2.016 -0.432,-3.96 -1.152,-5.904 -0.792,-1.944 -1.872,-3.672 -3.24,-5.256 -1.368,-1.584 -3.024,-2.808 -4.896,-3.744 -1.872,-0.936 -3.96,-1.44 -6.192,-1.44 H 304.37 V 120 h 6.48 v -18.36 h 6.48 l -3.6,-5.76 h -2.88 V 74.64 h 15.048 c 1.224,0 2.376,0.288 3.528,0.864 1.152,0.576 2.088,1.296 2.952,2.304 0.864,1.008 1.512,2.088 2.016,3.384 0.504,1.296 0.792,2.664 0.792,4.032 0,1.44 -0.216,2.736 -0.648,4.032 -0.504,1.368 -1.08,2.448 -1.8,3.456 -0.792,1.008 -1.728,1.8 -2.808,2.304 -1.08,0.576 -2.304,0.864 -3.6,0.864 h -5.688 l 3.744,5.76 11.664,18.36 h 7.344 z" transform="translate(0 312.6727272727273) translate(296.5851181818181 44.098181818181814) scale(0.9090909090909091) translate(-304.37 -68.88)"></path> 
   <path id="path75754" style="font-style: normal; font-weight: 500; font-size: 72px; line-height: 1; font-family: &quot;Raleway Medium Alt1&quot;; font-variant-ligatures: none; text-align: center; text-anchor: middle; fill: rgb(89, 86, 68);" d="m 375.452,75.864 -2.808,7.632 6.48,16.488 h -12.816 l -1.944,5.04 h 16.2 L 386.612,120 h 6.912 z m -2.808,-6.984 h -5.472 L 346.22,120 h 6.624 l 17.064,-43.632 z" transform="translate(0 312.6727272727273) translate(340.994209090909 44.098181818181814) scale(0.9090909090909091) translate(-346.22 -68.88)"></path> 
   <path id="path75756" style="font-style: normal; font-weight: 500; font-size: 72px; line-height: 1; font-family: &quot;Raleway Medium Alt1&quot;; font-variant-ligatures: none; text-align: center; text-anchor: middle; fill: rgb(89, 86, 68);" d="m 400.41687,120 h 6.48001 V 91.272 l -6.48001,-8.424 z m 36.72,-51.048 v 39.744 L 405.45688,68.88 h -5.04001 v 3.888 l 6.48001,8.208 31.248,39.024 h 5.47199 V 68.952 Z" transform="translate(0 312.6727272727273) translate(396.6277272727272 44.098181818181814) scale(0.9090909090909091) translate(-400.41687 -68.88)"></path> 
   <path id="path75758" style="font-style: normal; font-weight: 500; font-size: 72px; line-height: 1; font-family: &quot;Raleway Medium Alt1&quot;; font-variant-ligatures: none; text-align: center; text-anchor: middle; fill: rgb(89, 86, 68);" d="m 469.79113,112.944 c -2.23201,-1.008 -4.10401,-2.448 -5.61601,-4.32 -1.584,-1.872 -2.88,-3.96 -3.744,-6.408 -0.93599,-2.448 -1.36799,-4.968 -1.36799,-7.776 0,-2.52 0.36,-5.04 1.22399,-7.488 0.792,-2.448 1.94401,-4.536 3.45601,-6.408 1.44,-1.872 3.23999,-3.312 5.39999,-4.464 2.08801,-1.152 4.392,-1.728 7.056,-1.728 3.168,0 5.976,0.72 8.56801,2.16 2.51999,1.44 4.536,3.672 6.12,6.624 l 4.96799,-3.456 c -1.728,-3.24 -4.176,-5.976 -7.344,-8.064 -3.168,-2.016 -7.272,-3.096 -12.168,-3.096 -3.45599,0 -6.62399,0.72 -9.50399,2.088 -2.952,1.44 -5.47201,3.312 -7.56,5.688 -2.16001,2.376 -3.81601,5.112 -4.96801,8.208 -1.22399,3.096 -1.8,6.336 -1.8,9.792 0,3.384 0.57601,6.552 1.8,9.648 1.224,3.168 2.88,5.904 5.04001,8.352 2.08799,2.448 4.536,4.392 7.488,5.832 2.88,1.512 6.048,2.232 9.50399,2.232 3.6,0 6.91201,-0.864 10.00801,-2.736 v -6.048 c -3.024,2.016 -6.192,2.952 -9.50401,2.952 -2.59199,0 -4.896,-0.504 -7.05599,-1.584 z m 11.08799,-18.432 v 4.896 h 11.016 V 120 h 5.472 V 94.512 Z" transform="translate(0 312.6727272727273) translate(450.34977272727264 43.770909090909086) scale(0.9090909090909091) translate(-452.51112 -68.52)"></path> 
   <path id="path75760" style="font-style: normal; font-weight: 500; font-size: 72px; line-height: 1; font-family: &quot;Raleway Medium Alt1&quot;; font-variant-ligatures: none; text-align: center; text-anchor: middle; fill: rgb(89, 86, 68);" d="m 513.77188,74.64 h 27.576 v -5.76 h -34.05601 v 15.84 h 6.48001 z m -6.48001,39.6 V 120 h 34.704 v -5.76 z m 6.48001,-17.64 h 23.976 v -5.4 h -30.45601 v 16.56 h 6.48001 z" transform="translate(0 312.6727272727273) translate(506.51409090909084 44.098181818181814) scale(0.9090909090909091) translate(-507.29187 -68.88)"></path> 
   <path id="path75762" style="font-style: normal; font-weight: 500; font-size: 72px; line-height: 1; font-family: &quot;Raleway Medium Alt1&quot;; font-variant-ligatures: none; text-align: center; text-anchor: middle; fill: rgb(113, 83, 62);" d="m 577.52562,100.416 c 1.58401,-0.36 3.096,-1.08 4.39201,-2.088 1.29599,-0.936 2.448,-2.088 3.384,-3.456 0.93599,-1.296 1.65599,-2.808 2.16,-4.464 0.504,-1.656 0.792,-3.384 0.792,-5.184 0,-2.016 -0.432,-3.96 -1.152,-5.904 -0.79201,-1.944 -1.872,-3.672 -3.24001,-5.256 -1.368,-1.584 -3.024,-2.808 -4.89599,-3.744 -1.87201,-0.936 -3.96001,-1.44 -6.192,-1.44 H 550.88562 V 120 h 6.48001 v -18.36 h 6.48 l -3.6,-5.76 h -2.88 V 74.64 h 15.048 c 1.22399,0 2.37599,0.288 3.528,0.864 1.15199,0.576 2.08799,1.296 2.952,2.304 0.86399,1.008 1.51199,2.088 2.01599,3.384 0.50401,1.296 0.79201,2.664 0.79201,4.032 0,1.44 -0.216,2.736 -0.64801,4.032 -0.504,1.368 -1.08,2.448 -1.79999,3.456 -0.792,1.008 -1.72801,1.8 -2.80801,2.304 -1.07999,0.576 -2.304,0.864 -3.59999,0.864 h -5.688 l 3.74399,5.76 11.664,18.36 h 7.344 z" transform="translate(0 312.6727272727273) translate(552.508409090909 44.098181818181814) scale(0.9090909090909091) translate(-550.88562 -68.88)"></path> 
   <path id="path75764" style="font-style: normal; font-weight: 500; font-size: 72px; line-height: 1; font-family: &quot;Raleway Medium Alt1&quot;; font-variant-ligatures: none; text-align: center; text-anchor: middle; fill: rgb(113, 83, 62);" d="m 604.61563,74.64 h 27.576 v -5.76 h -34.05601 v 15.84 h 6.48001 z m -6.48001,39.6 V 120 h 34.704 v -5.76 z m 6.48001,-17.64 h 23.976 v -5.4 h -30.45601 v 16.56 h 6.48001 z" transform="translate(0 312.6727272727273) translate(601.8265909090909 44.098181818181814) scale(0.9090909090909091) translate(-598.13562 -68.88)"></path> 
   <path id="path75766" style="font-style: normal; font-weight: 500; font-size: 72px; line-height: 1; font-family: &quot;Raleway Medium Alt1&quot;; font-variant-ligatures: none; text-align: center; text-anchor: middle; fill: rgb(113, 83, 62);" d="m 682.55337,84.504 c -1.00799,-3.096 -2.592,-5.832 -4.60799,-8.136 -2.088,-2.232 -4.68001,-4.104 -7.77601,-5.472 -3.096,-1.296 -6.69599,-2.016 -10.728,-2.016 h -17.712 v 5.76 h 17.712 c 2.88,0 5.4,0.504 7.70401,1.512 2.232,1.008 4.10399,2.376 5.688,4.032 1.58399,1.728 2.736,3.816 3.52799,6.264 0.792,2.448 1.224,5.112 1.224,7.92 0,2.88 -0.432,5.472 -1.224,7.92 -0.79199,2.448 -1.944,4.536 -3.45599,6.264 -1.51201,1.8 -3.384,3.24 -5.68801,4.176 -2.304,1.008 -4.896,1.512 -7.776,1.512 H 648.20938 V 81.48 h -6.48001 V 120 h 17.712 c 3.74401,0 7.12801,-0.576 10.15201,-1.8 3.024,-1.224 5.688,-2.952 7.84799,-5.184 2.16,-2.232 3.81601,-4.896 4.968,-8.064 1.152,-3.168 1.72801,-6.696 1.72801,-10.584 0,-3.456 -0.57601,-6.768 -1.58401,-9.864 z" transform="translate(0 312.6727272727273) translate(647.820909090909 44.098181818181814) scale(0.9090909090909091) translate(-641.72937 -68.88)"></path> 
   <path id="path75768" style="font-style: normal; font-weight: 500; font-size: 72px; line-height: 1; font-family: &quot;Raleway Medium Alt1&quot;; font-variant-ligatures: none; text-align: center; text-anchor: middle; fill: rgb(133, 80, 56);" d="m 731.42675,97.248 c -0.216,1.512 -0.504,3.024 -1.008,4.464 -0.792,2.448 -1.944,4.608 -3.456,6.48 -1.512,1.872 -3.384,3.456 -5.472,4.608 -2.232,1.152 -4.68,1.728 -7.344,1.728 -2.664,0 -5.04,-0.504 -7.2,-1.656 -2.16,-1.08 -4.032,-2.592 -5.544,-4.464 -1.584,-1.872 -2.736,-3.96 -3.6,-6.408 -0.504,-1.512 -0.864,-3.096 -1.08,-4.752 h -6.552 c 0.216,2.304 0.72,4.608 1.584,6.768 1.08,3.168 2.736,5.904 4.896,8.352 2.088,2.448 4.608,4.392 7.56,5.832 2.952,1.44 6.264,2.16 9.864,2.16 3.456,0 6.624,-0.648 9.576,-2.088 2.952,-1.44 5.472,-3.312 7.632,-5.688 2.16,-2.376 3.816,-5.112 5.04,-8.28 0.864,-2.232 1.44,-4.608 1.728,-7.056 z m -33.624,-10.152 c 0.792,-2.376 1.944,-4.464 3.456,-6.408 1.512,-1.872 3.384,-3.384 5.544,-4.536 2.16,-1.152 4.608,-1.728 7.344,-1.728 2.52,0 4.896,0.576 7.056,1.656 2.16,1.152 3.96,2.592 5.544,4.464 1.584,1.872 2.736,3.96 3.6,6.408 0.432,1.296 0.792,2.664 1.008,3.96 h 6.552 c -0.288,-1.944 -0.792,-3.96 -1.44,-5.832 -1.152,-3.096 -2.808,-5.832 -4.896,-8.352 -2.16,-2.448 -4.68,-4.392 -7.56,-5.904 -2.952,-1.512 -6.264,-2.304 -9.792,-2.304 -3.528,0 -6.696,0.72 -9.648,2.16 -2.952,1.44 -5.472,3.312 -7.632,5.688 -2.16,2.448 -3.888,5.184 -5.112,8.28 -0.792,2.088 -1.368,4.176 -1.584,6.264 h 6.552 c 0.216,-1.224 0.576,-2.52 1.008,-3.816 z" transform="translate(0 312.6727272727273) translate(698.2221636363635 43.770909090909086) scale(0.9090909090909091) translate(-690.17075 -68.52)"></path> 
   <path id="path75770" style="font-style: normal; font-weight: 500; font-size: 72px; line-height: 1; font-family: &quot;Raleway Medium Alt1&quot;; font-variant-ligatures: none; text-align: center; text-anchor: middle; fill: rgb(133, 80, 56);" d="m 769.30213,83.856 -22.89601,45.288 h 7.20001 l 25.70399,-51.12 h -36.288 v 5.832 z" transform="translate(0 312.6727272727273) translate(752.6324999999998 52.41090909090909) scale(0.9090909090909091) translate(-743.02212 -78.024)"></path> 
  </g> 
  <g id="tagline" style="font-style:oblique;font-weight:600;font-size:32px;line-height:1;font-family:Raleway;font-variant-ligatures:none;text-align:center;text-anchor:middle"></g> 
 </g> 
</svg>