<svg xmlns:dc="http://purl.org/dc/elements/1.1/" xmlns:cc="http://creativecommons.org/ns#" xmlns:rdf="http://www.w3.org/1999/02/22-rdf-syntax-ns#" xmlns:svg="http://www.w3.org/2000/svg" xmlns="http://www.w3.org/2000/svg" id="svg78945" viewbox="0 0 1024 768" height="768px" width="1024px" version="1.1"> <metadata id="metadata78951"> 
  <rdf:rdf> 
   <cc:work rdf:about=""> 
    <dc:format>
     image/svg+xml
    </dc:format> 
    <dc:type rdf:resource="http://purl.org/dc/dcmitype/StillImage"></dc:type> 
   </cc:work> 
  </rdf:rdf> 
 </metadata> <defs id="defs78949"></defs> <g id="logo-group"> 
  <g id="title" style="font-style:normal;font-weight:500;font-size:72px;line-height:1;font-family:'Raleway Medium Alt1';font-variant-ligatures:none;text-align:center;text-anchor:middle" aria-label="PALMTREEO7"> 
   <path id="path78953" style="font-style: normal; font-weight: 500; font-size: 72px; line-height: 1; font-family: &quot;Raleway Medium Alt1&quot;; font-variant-ligatures: none; text-align: center; text-anchor: middle; fill: rgb(38, 226, 212);" d="m 321.30687,79.32 c -0.79199,-1.944 -1.87199,-3.672 -3.24,-5.256 -1.368,-1.584 -3.024,-2.808 -4.89599,-3.744 -1.87201,-0.936 -3.96001,-1.44 -6.192,-1.44 h -21.31201 v 20.448 h 6.48001 V 74.64 h 14.47199 c 1.224,0 2.376,0.288 3.52801,0.792 1.07999,0.576 2.08799,1.296 2.952,2.232 0.86399,1.008 1.512,2.088 2.01599,3.384 0.504,1.296 0.79201,2.736 0.79201,4.176 0,1.44 -0.21601,2.808 -0.64801,4.104 -0.504,1.368 -1.08,2.448 -1.8,3.456 -0.792,1.008 -1.728,1.728 -2.808,2.304 -1.08,0.576 -2.304,0.792 -3.59999,0.792 H 285.66687 V 120 h 6.48001 v -18.36 h 15.26399 c 2.232,0 4.24801,-0.432 6.12,-1.368 1.872,-0.864 3.456,-2.088 4.752,-3.672 1.296,-1.512 2.30401,-3.24 3.096,-5.256 0.72001,-1.944 1.08,-3.96 1.08,-6.12 0,-2.016 -0.43199,-3.96 -1.152,-5.904 z" transform="translate(0 303.688) translate(251.25649999999996 50.36) scale(1) translate(-285.66687 -68.88)"></path> 
   <path id="path78955" style="font-style: normal; font-weight: 500; font-size: 72px; line-height: 1; font-family: &quot;Raleway Medium Alt1&quot;; font-variant-ligatures: none; text-align: center; text-anchor: middle; fill: rgb(38, 226, 212);" d="m 350.702,75.864 -2.808,7.632 6.48,16.488 h -12.816 l -1.944,5.04 h 16.2 L 361.862,120 h 6.912 z m -2.808,-6.984 h -5.472 L 321.47,120 h 6.624 l 17.064,-43.632 z" transform="translate(0 303.688) translate(294.05962999999997 50.36) scale(1) translate(-321.47 -68.88)"></path> 
   <path id="path78957" style="font-style: normal; font-weight: 500; font-size: 72px; line-height: 1; font-family: &quot;Raleway Medium Alt1&quot;; font-variant-ligatures: none; text-align: center; text-anchor: middle; fill: rgb(38, 226, 212);" d="M 375.66687,114.24 V 120 h 34.99201 v -5.76 z m 6.48001,-45.36 h -6.48001 v 38.88 h 6.48001 z" transform="translate(0 303.688) translate(355.25649999999996 50.36) scale(1) translate(-375.66687 -68.88)"></path> 
   <path id="path78959" style="font-style: normal; font-weight: 500; font-size: 72px; line-height: 1; font-family: &quot;Raleway Medium Alt1&quot;; font-variant-ligatures: none; text-align: center; text-anchor: middle; fill: rgb(38, 226, 212);" d="M 417.71375,68.88 V 120 h 6.48 V 80.472 l 11.448,20.448 3.456,-5.904 -14.544,-26.136 z m 43.92,0 -18.576,33.192 -3.384,5.904 1.584,2.808 h 3.672 l 16.992,-30.312 V 120 h 6.48 V 68.88 Z" transform="translate(0 303.688) translate(404.30337999999995 50.36) scale(1) translate(-417.71375 -68.88)"></path> 
   <path id="path78961" style="font-style: normal; font-weight: 500; font-size: 72px; line-height: 1; font-family: &quot;Raleway Medium Alt1&quot;; font-variant-ligatures: none; text-align: center; text-anchor: middle; fill: rgb(38, 226, 212);" d="m 493.31712,120 h 6.48 V 81.12 h -6.48 z m -17.64,-51.12 v 5.76 h 41.76001 v -5.76 z" transform="translate(0 303.688) translate(469.26674999999994 50.36) scale(1) translate(-475.67712 -68.88)"></path> 
   <path id="path78963" style="font-style: normal; font-weight: 500; font-size: 72px; line-height: 1; font-family: &quot;Raleway Medium Alt1&quot;; font-variant-ligatures: none; text-align: center; text-anchor: middle; fill: rgb(38, 226, 212);" d="m 551.36937,100.416 c 1.58401,-0.36 3.096,-1.08 4.39201,-2.088 1.29599,-0.936 2.448,-2.088 3.384,-3.456 0.93599,-1.296 1.65599,-2.808 2.16,-4.464 0.504,-1.656 0.792,-3.384 0.792,-5.184 0,-2.016 -0.432,-3.96 -1.152,-5.904 -0.79201,-1.944 -1.872,-3.672 -3.24001,-5.256 -1.368,-1.584 -3.024,-2.808 -4.89599,-3.744 -1.87201,-0.936 -3.96001,-1.44 -6.192,-1.44 H 524.72937 V 120 h 6.48001 v -18.36 h 6.48 l -3.6,-5.76 h -2.88 V 74.64 h 15.048 c 1.22399,0 2.37599,0.288 3.528,0.864 1.15199,0.576 2.08799,1.296 2.952,2.304 0.86399,1.008 1.51199,2.088 2.01599,3.384 0.50401,1.296 0.79201,2.664 0.79201,4.032 0,1.44 -0.216,2.736 -0.64801,4.032 -0.504,1.368 -1.08,2.448 -1.79999,3.456 -0.792,1.008 -1.72801,1.8 -2.80801,2.304 -1.07999,0.576 -2.304,0.864 -3.59999,0.864 h -5.688 l 3.74399,5.76 11.664,18.36 h 7.344 z" transform="translate(0 303.688) translate(525.319 50.36) scale(1) translate(-524.72937 -68.88)"></path> 
   <path id="path78965" style="font-style: normal; font-weight: 500; font-size: 72px; line-height: 1; font-family: &quot;Raleway Medium Alt1&quot;; font-variant-ligatures: none; text-align: center; text-anchor: middle; fill: rgb(38, 226, 212);" d="m 578.45938,74.64 h 27.576 v -5.76 h -34.05601 v 15.84 h 6.48001 z m -6.48001,39.6 V 120 h 34.704 v -5.76 z m 6.48001,-17.64 h 23.976 v -5.4 h -30.45601 v 16.56 h 6.48001 z" transform="translate(0 303.688) translate(579.569 50.36) scale(1) translate(-571.97937 -68.88)"></path> 
   <path id="path78967" style="font-style: normal; font-weight: 500; font-size: 72px; line-height: 1; font-family: &quot;Raleway Medium Alt1&quot;; font-variant-ligatures: none; text-align: center; text-anchor: middle; fill: rgb(38, 226, 212);" d="m 622.05313,74.64 h 27.576 v -5.76 h -34.05601 v 15.84 h 6.48001 z m -6.48001,39.6 V 120 h 34.704 v -5.76 z m 6.48001,-17.64 h 23.976 v -5.4 h -30.45601 v 16.56 h 6.48001 z" transform="translate(0 303.688) translate(630.16275 50.36) scale(1) translate(-615.57312 -68.88)"></path> 
   <path id="path78969" style="font-style: normal; font-weight: 500; font-size: 72px; line-height: 1; font-family: &quot;Raleway Medium Alt1&quot;; font-variant-ligatures: none; text-align: center; text-anchor: middle; fill: rgb(38, 226, 212);" d="m 696.2705,97.248 c -0.216,1.512 -0.504,3.024 -1.008,4.464 -0.792,2.448 -1.944,4.608 -3.456,6.48 -1.512,1.872 -3.384,3.456 -5.472,4.608 -2.232,1.152 -4.68,1.728 -7.344,1.728 -2.664,0 -5.04,-0.504 -7.2,-1.656 -2.16,-1.08 -4.032,-2.592 -5.544,-4.464 -1.584,-1.872 -2.736,-3.96 -3.6,-6.408 -0.504,-1.512 -0.864,-3.096 -1.08,-4.752 h -6.552 c 0.216,2.304 0.72,4.608 1.584,6.768 1.08,3.168 2.736,5.904 4.896,8.352 2.088,2.448 4.608,4.392 7.56,5.832 2.952,1.44 6.264,2.16 9.864,2.16 3.456,0 6.624,-0.648 9.576,-2.088 2.952,-1.44 5.472,-3.312 7.632,-5.688 2.16,-2.376 3.816,-5.112 5.04,-8.28 0.864,-2.232 1.44,-4.608 1.728,-7.056 z m -33.624,-10.152 c 0.792,-2.376 1.944,-4.464 3.456,-6.408 1.512,-1.872 3.384,-3.384 5.544,-4.536 2.16,-1.152 4.608,-1.728 7.344,-1.728 2.52,0 4.896,0.576 7.056,1.656 2.16,1.152 3.96,2.592 5.544,4.464 1.584,1.872 2.736,3.96 3.6,6.408 0.432,1.296 0.792,2.664 1.008,3.96 h 6.552 c -0.288,-1.944 -0.792,-3.96 -1.44,-5.832 -1.152,-3.096 -2.808,-5.832 -4.896,-8.352 -2.16,-2.448 -4.68,-4.392 -7.56,-5.904 -2.952,-1.512 -6.264,-2.304 -9.792,-2.304 -3.528,0 -6.696,0.72 -9.648,2.16 -2.952,1.44 -5.472,3.312 -7.632,5.688 -2.16,2.448 -3.888,5.184 -5.112,8.28 -0.792,2.088 -1.368,4.176 -1.584,6.264 h 6.552 c 0.216,-1.224 0.576,-2.52 1.008,-3.816 z" transform="translate(0 303.688) translate(676.6041299999999 50) scale(1) translate(-655.0145 -68.52)"></path> 
   <path id="path78971" style="font-style: normal; font-weight: 500; font-size: 72px; line-height: 1; font-family: &quot;Raleway Medium Alt1&quot;; font-variant-ligatures: none; text-align: center; text-anchor: middle; fill: rgb(38, 226, 212);" d="m 734.14588,83.856 -22.89601,45.288 h 7.20001 l 25.70399,-51.12 h -36.288 v 5.832 z" transform="translate(0 303.688) translate(736.4554999999999 59.504000000000005) scale(1) translate(-707.86587 -78.024)"></path> 
  </g> 
  <g id="tagline" style="font-style:oblique;font-weight:600;font-size:32px;line-height:1;font-family:Raleway;font-variant-ligatures:none;text-align:center;text-anchor:middle"></g> 
 </g> 
</svg>