<svg xmlns:dc="http://purl.org/dc/elements/1.1/" xmlns:cc="http://creativecommons.org/ns#" xmlns:rdf="http://www.w3.org/1999/02/22-rdf-syntax-ns#" xmlns:svg="http://www.w3.org/2000/svg" xmlns="http://www.w3.org/2000/svg" id="svg78696" viewbox="0 0 1024 768" height="768px" width="1024px" version="1.1"> <metadata id="metadata78702"> 
  <rdf:rdf> 
   <cc:work rdf:about=""> 
    <dc:format>
     image/svg+xml
    </dc:format> 
    <dc:type rdf:resource="http://purl.org/dc/dcmitype/StillImage"></dc:type> 
   </cc:work> 
  </rdf:rdf> 
 </metadata> <defs id="defs78700"></defs> <g id="logo-group"> 
  <g id="title" style="font-style:normal;font-weight:700;font-size:72px;line-height:1;font-family:'Brandmark1 Bold';font-variant-ligatures:none;text-align:center;text-anchor:middle" aria-label="paragono7"> 
   <path id="path78704" style="font-style: normal; font-weight: 700; font-size: 72px; line-height: 1; font-family: &quot;Brandmark1 Bold&quot;; font-variant-ligatures: none; text-align: center; text-anchor: middle; fill: rgb(73, 108, 124);" d="m 374.61219,94.584 c -1.08,-2.448 -2.52,-4.608 -4.392,-6.552 -1.944,-1.872 -4.104,-3.312 -6.552,-4.392 -2.52,-1.08 -5.184,-1.584 -7.992,-1.584 -2.736,0 -5.472,0.504 -7.992,1.584 -2.448,1.08 -4.608,2.52 -6.552,4.392 -1.872,1.872 -3.312,4.104 -4.392,6.552 -1.008,2.52 -1.584,5.184 -1.584,7.992 v 30.6 l 10.8,3.6 v -16.128 c 0.576,0.288 1.152,0.576 1.728,0.792 2.52,1.08 5.256,1.656 7.992,1.656 2.736,0 5.472,-0.576 7.992,-1.656 2.448,-1.008 4.608,-2.448 6.552,-4.392 1.872,-1.872 3.312,-4.032 4.392,-6.48 1.08,-2.52 1.584,-5.256 1.584,-7.992 0,-2.808 -0.504,-5.472 -1.584,-7.992 z m -18.936,17.712 c -5.328,0 -9.72,-4.392 -9.72,-9.72 0,-5.328 4.392,-9.72 9.72,-9.72 5.328,0 9.72,4.392 9.72,9.72 0,5.328 -4.392,9.72 -9.72,9.72 z" transform="translate(0 251.67978712907797) translate(252.00000000000006 101.82534105984668) scale(1.4604823664308118) translate(-335.15619 -82.056)"></path> 
   <path id="path78706" style="font-style: normal; font-weight: 700; font-size: 72px; line-height: 1; font-family: &quot;Brandmark1 Bold&quot;; font-variant-ligatures: none; text-align: center; text-anchor: middle; fill: rgb(73, 108, 124);" d="m 406.96044,81.984 0.072,2.304 c -2.88,-1.44 -6.048,-2.232 -9.288,-2.232 -2.736,0 -5.472,0.504 -7.992,1.584 -2.448,1.08 -4.608,2.52 -6.552,4.392 -1.872,1.872 -3.312,4.104 -4.392,6.552 -1.008,2.52 -1.584,5.256 -1.584,7.992 0,2.736 0.576,5.472 1.584,7.992 1.08,2.448 2.52,4.608 4.392,6.552 1.944,1.872 4.104,3.312 6.552,4.392 2.52,1.008 5.256,1.584 7.992,1.584 3.24,0 6.408,-0.792 9.288,-2.232 l -0.072,1.656 h 10.8 V 81.984 Z m -4.32,28.944 c -1.44,0.864 -3.168,1.368 -4.896,1.368 -5.328,0 -9.72,-4.392 -9.72,-9.72 0,-5.328 4.392,-9.72 9.72,-9.72 1.872,0 3.744,0.504 5.256,1.584 1.584,0.936 2.808,2.376 3.528,4.032 0.648,1.296 0.936,2.664 0.936,4.104 0,1.728 -0.432,3.384 -1.296,4.896 -0.864,1.44 -2.016,2.664 -3.528,3.456 z" transform="translate(0 251.67978712907797) translate(313.4399373116031 101.72018632946366) scale(1.4604823664308118) translate(-377.22444 -81.984)"></path> 
   <path id="path78708" style="font-style: normal; font-weight: 700; font-size: 72px; line-height: 1; font-family: &quot;Brandmark1 Bold&quot;; font-variant-ligatures: none; text-align: center; text-anchor: middle; fill: rgb(73, 108, 124);" d="m 433.85356,122.52 v 0 -17.712 c 0,-6.912 5.616,-12.6 12.6,-12.6 v -10.8 c -3.168,0 -6.264,0.648 -9.144,1.872 -2.736,1.152 -5.256,2.88 -7.416,5.04 -2.16,2.088 -3.816,4.608 -5.04,7.416 -1.224,2.88 -1.8,5.904 -1.8,9.072 v 17.712 z" transform="translate(0 251.67978712907797) translate(380.3725589406447 100.87894848639952) scale(1.4604823664308118) translate(-423.05356 -81.408)"></path> 
   <path id="path78710" style="font-style: normal; font-weight: 700; font-size: 72px; line-height: 1; font-family: &quot;Brandmark1 Bold&quot;; font-variant-ligatures: none; text-align: center; text-anchor: middle; fill: rgb(73, 108, 124);" d="m 474.74169,81.984 0.072,2.304 c -2.88,-1.44 -6.048,-2.232 -9.288,-2.232 -2.736,0 -5.472,0.504 -7.992,1.584 -2.448,1.08 -4.608,2.52 -6.552,4.392 -1.872,1.872 -3.312,4.104 -4.392,6.552 -1.008,2.52 -1.584,5.256 -1.584,7.992 0,2.736 0.576,5.472 1.584,7.992 1.08,2.448 2.52,4.608 4.392,6.552 1.944,1.872 4.104,3.312 6.552,4.392 2.52,1.008 5.256,1.584 7.992,1.584 3.24,0 6.408,-0.792 9.288,-2.232 l -0.072,1.656 h 10.8 V 81.984 Z m -4.32,28.944 c -1.44,0.864 -3.168,1.368 -4.896,1.368 -5.328,0 -9.72,-4.392 -9.72,-9.72 0,-5.328 4.392,-9.72 9.72,-9.72 1.872,0 3.744,0.504 5.256,1.584 1.584,0.936 2.808,2.376 3.528,4.032 0.648,1.296 0.936,2.664 0.936,4.104 0,1.728 -0.432,3.384 -1.296,4.896 -0.864,1.44 -2.016,2.664 -3.528,3.456 z" transform="translate(0 251.67978712907797) translate(412.43325771124154 101.72018632946366) scale(1.4604823664308118) translate(-445.00569 -81.984)"></path> 
   <path id="path78712" style="font-style: normal; font-weight: 700; font-size: 72px; line-height: 1; font-family: &quot;Brandmark1 Bold&quot;; font-variant-ligatures: none; text-align: center; text-anchor: middle; fill: rgb(73, 108, 124);" d="m 522.80281,87.888 c -3.816,-3.816 -8.928,-5.904 -14.256,-5.904 -5.4,0 -10.512,2.088 -14.328,5.904 -3.816,3.816 -5.904,8.856 -5.904,14.256 0,5.4 2.088,10.44 5.904,14.256 3.816,3.816 8.928,5.904 14.328,5.904 3.168,0 6.264,-0.72 9,-2.088 -1.08,3.96 -4.752,6.84 -9,6.84 -2.448,0 -4.752,-0.936 -6.48,-2.592 l -7.488,7.848 c 3.816,3.6 8.712,5.544 13.896,5.544 5.4,0 10.512,-2.088 14.328,-5.904 3.816,-3.816 5.904,-8.856 5.904,-14.256 v -15.552 c 0,-5.4 -2.088,-10.44 -5.904,-14.256 z m -14.256,23.616 c -5.184,0 -9.432,-4.176 -9.432,-9.36 0,-5.184 4.248,-9.432 9.432,-9.432 5.184,0 9.36,4.248 9.36,9.432 0,5.184 -4.248,9.36 -9.36,9.36 z" transform="translate(0 251.67978712907797) translate(475.6854637768775 101.72018632946366) scale(1.4604823664308118) translate(-488.31481 -81.984)"></path> 
   <path id="path78714" style="font-style: normal; font-weight: 700; font-size: 72px; line-height: 1; font-family: &quot;Brandmark1 Bold&quot;; font-variant-ligatures: none; text-align: center; text-anchor: middle; fill: rgb(73, 108, 124);" d="m 552.36669,123.024 c 2.736,0 5.472,-0.576 7.992,-1.584 2.448,-1.08 4.68,-2.52 6.552,-4.392 1.872,-1.944 3.312,-4.104 4.392,-6.552 1.08,-2.52 1.584,-5.256 1.584,-7.992 0,-2.808 -0.504,-5.472 -1.584,-7.992 -1.08,-2.448 -2.52,-4.68 -4.392,-6.552 -1.944,-1.872 -4.104,-3.312 -6.552,-4.392 -2.52,-1.08 -5.256,-1.584 -7.992,-1.584 -2.736,0 -5.472,0.504 -7.992,1.584 -2.448,1.08 -4.608,2.52 -6.552,4.392 -1.872,1.944 -3.312,4.104 -4.392,6.552 -1.008,2.52 -1.584,5.184 -1.584,7.992 0,2.736 0.576,5.472 1.584,7.992 1.08,2.448 2.52,4.608 4.392,6.552 1.944,1.872 4.104,3.312 6.552,4.392 2.52,1.008 5.256,1.584 7.992,1.584 z m 0,-30.24 c 5.328,0 9.72,4.392 9.72,9.72 0,5.328 -4.392,9.72 -9.72,9.72 -5.328,0 -9.72,-4.392 -9.72,-9.72 0,-5.328 4.392,-9.72 9.72,-9.72 z" transform="translate(0 251.67978712907797) translate(539.2630068944595 101.72018632946366) scale(1.4604823664308118) translate(-531.84669 -81.984)"></path> 
   <path id="path78716" style="font-style: normal; font-weight: 700; font-size: 72px; line-height: 1; font-family: &quot;Brandmark1 Bold&quot;; font-variant-ligatures: none; text-align: center; text-anchor: middle; fill: rgb(73, 108, 124);" d="m 607.71669,88.392 c -3.456,-3.384 -7.992,-5.256 -12.816,-5.256 -2.592,0 -5.04,0.504 -7.272,1.512 v -2.664 h -10.8 v 17.64 c -0.072,0.576 -0.072,1.08 -0.072,1.656 h 0.072 v 21.24 h 10.8 V 100.2 c 0.504,-3.528 3.528,-6.264 7.272,-6.264 4.032,0 7.344,3.312 7.344,7.344 v 21.24 h 10.8 v -21.24 c 0,-4.896 -1.944,-9.432 -5.328,-12.888 z" transform="translate(0 251.67978712907797) translate(604.8532699708674 101.72018632946366) scale(1.4604823664308118) translate(-576.75669 -81.984)"></path> 
   <path id="path78718" style="font-style: normal; font-weight: 700; font-size: 72px; line-height: 1; font-family: &quot;Brandmark1 Bold&quot;; font-variant-ligatures: none; text-align: center; text-anchor: middle; fill: rgb(249, 168, 21);" d="m 636.60106,123.024 c 2.736,0 5.472,-0.576 7.992,-1.584 2.448,-1.08 4.68,-2.52 6.552,-4.392 1.872,-1.944 3.312,-4.104 4.392,-6.552 1.08,-2.52 1.584,-5.256 1.584,-7.992 0,-2.808 -0.504,-5.472 -1.584,-7.992 -1.08,-2.448 -2.52,-4.68 -4.392,-6.552 -1.944,-1.872 -4.104,-3.312 -6.552,-4.392 -2.52,-1.08 -5.256,-1.584 -7.992,-1.584 -2.736,0 -5.472,0.504 -7.992,1.584 -2.448,1.08 -4.608,2.52 -6.552,4.392 -1.872,1.944 -3.312,4.104 -4.392,6.552 -1.008,2.52 -1.584,5.184 -1.584,7.992 0,2.736 0.576,5.472 1.584,7.992 1.08,2.448 2.52,4.608 4.392,6.552 1.944,1.872 4.104,3.312 6.552,4.392 2.52,1.008 5.256,1.584 7.992,1.584 z m 0,-30.24 c 5.328,0 9.72,4.392 9.72,9.72 0,5.328 -4.392,9.72 -9.72,9.72 -5.328,0 -9.72,-4.392 -9.72,-9.72 0,-5.328 4.392,-9.72 9.72,-9.72 z" transform="translate(0 251.67978712907797) translate(662.285818926868 101.72018632946366) scale(1.4604823664308118) translate(-616.08106 -81.984)"></path> 
   <path id="path78720" style="font-style: normal; font-weight: 700; font-size: 72px; line-height: 1; font-family: &quot;Brandmark1 Bold&quot;; font-variant-ligatures: none; text-align: center; text-anchor: middle; fill: rgb(249, 168, 21);" d="m 659.45094,121.512 11.16,2.232 20.592,-48.384 v -7.344 h -35.712 V 78.6 h 22.536 z" transform="translate(0 251.67978712907797) translate(719.8432537300224 81.32016863515811) scale(1.4604823664308118) translate(-655.49094 -68.016)"></path> 
  </g> 
  <g id="tagline" style="font-style:normal;font-weight:400;font-size:32px;line-height:1;font-family:Montserrat;font-variant-ligatures:none;text-align:center;text-anchor:middle"></g> 
 </g> 
</svg>