<svg xmlns:dc="http://purl.org/dc/elements/1.1/" xmlns:cc="http://creativecommons.org/ns#" xmlns:rdf="http://www.w3.org/1999/02/22-rdf-syntax-ns#" xmlns:svg="http://www.w3.org/2000/svg" xmlns="http://www.w3.org/2000/svg" id="svg111221" viewbox="0 0 1024 768" height="768px" width="1024px" version="1.1"> <metadata id="metadata111227"> 
  <rdf:rdf> 
   <cc:work rdf:about=""> 
    <dc:format>
     image/svg+xml
    </dc:format> 
    <dc:type rdf:resource="http://purl.org/dc/dcmitype/StillImage"></dc:type> 
   </cc:work> 
  </rdf:rdf> 
 </metadata> <defs id="defs111225"></defs> <g id="logo-group"> 
  <g id="title" style="font-style:normal;font-weight:500;font-size:72px;line-height:1;font-family:'Raleway Medium Alt1';font-variant-ligatures:none;text-align:center;text-anchor:middle" aria-label="PARADIGMATICO7"> 
   <path id="path111229" style="font-style: normal; font-weight: 500; font-size: 72px; line-height: 1; font-family: &quot;Raleway Medium Alt1&quot;; font-variant-ligatures: none; text-align: center; text-anchor: middle; fill: rgb(190, 30, 94);" d="m 244.52562,79.32 c -0.79199,-1.944 -1.872,-3.672 -3.24,-5.256 -1.368,-1.584 -3.024,-2.808 -4.896,-3.744 -1.872,-0.936 -3.96,-1.44 -6.19199,-1.44 h -21.31201 v 20.448 h 6.48 V 74.64 h 14.472 c 1.224,0 2.376,0.288 3.528,0.792 1.08,0.576 2.088,1.296 2.952,2.232 0.864,1.008 1.512,2.088 2.016,3.384 0.504,1.296 0.79201,2.736 0.79201,4.176 0,1.44 -0.21601,2.808 -0.64801,4.104 -0.504,1.368 -1.08,2.448 -1.8,3.456 -0.792,1.008 -1.728,1.728 -2.808,2.304 -1.08,0.576 -2.304,0.792 -3.6,0.792 h -21.384 V 120 h 6.48 v -18.36 h 15.264 c 2.232,0 4.248,-0.432 6.12,-1.368 1.872,-0.864 3.456,-2.088 4.752,-3.672 1.296,-1.512 2.30401,-3.24 3.096,-5.256 0.72,-1.944 1.08,-3.96 1.08,-6.12 0,-2.016 -0.432,-3.96 -1.152,-5.904 z" transform="translate(0 328.396) translate(209.3564374999999 33.14) scale(0.75) translate(-208.88562 -68.88)"></path> 
   <path id="path111231" style="font-style: normal; font-weight: 500; font-size: 72px; line-height: 1; font-family: &quot;Raleway Medium Alt1&quot;; font-variant-ligatures: none; text-align: center; text-anchor: middle; fill: rgb(190, 30, 94);" d="m 273.92075,75.864 -2.808,7.632 6.48,16.488 h -12.816 l -1.944,5.04 h 16.2 l 6.048,14.976 h 6.912 z m -2.808,-6.984 h -5.472 l -20.952,51.12 h 6.624 l 17.064,-43.632 z" transform="translate(0 328.396) translate(247.45878499999992 33.14) scale(0.75) translate(-244.68875 -68.88)"></path> 
   <path id="path111233" style="font-style: normal; font-weight: 500; font-size: 72px; line-height: 1; font-family: &quot;Raleway Medium Alt1&quot;; font-variant-ligatures: none; text-align: center; text-anchor: middle; fill: rgb(190, 30, 94);" d="m 325.52562,100.416 c 1.584,-0.36 3.096,-1.08 4.392,-2.088 1.296,-0.936 2.44801,-2.088 3.384,-3.456 0.936,-1.296 1.656,-2.808 2.16001,-4.464 0.50399,-1.656 0.79199,-3.384 0.79199,-5.184 0,-2.016 -0.432,-3.96 -1.15199,-5.904 -0.79201,-1.944 -1.87201,-3.672 -3.24001,-5.256 -1.368,-1.584 -3.024,-2.808 -4.896,-3.744 -1.872,-0.936 -3.96,-1.44 -6.192,-1.44 h -21.888 V 120 h 6.48001 v -18.36 h 6.47999 l -3.59999,-5.76 h -2.88 V 74.64 h 15.048 c 1.224,0 2.37599,0.288 3.52799,0.864 1.152,0.576 2.088,1.296 2.952,2.304 0.86401,1.008 1.512,2.088 2.016,3.384 0.50401,1.296 0.792,2.664 0.792,4.032 0,1.44 -0.21599,2.736 -0.648,4.032 -0.504,1.368 -1.08,2.448 -1.8,3.456 -0.79199,1.008 -1.728,1.8 -2.808,2.304 -1.07999,0.576 -2.304,0.864 -3.6,0.864 h -5.688 l 3.74401,5.76 11.66399,18.36 h 7.344 z" transform="translate(0 328.396) translate(299.35643749999997 33.14) scale(0.75) translate(-298.88562 -68.88)"></path> 
   <path id="path111235" style="font-style: normal; font-weight: 500; font-size: 72px; line-height: 1; font-family: &quot;Raleway Medium Alt1&quot;; font-variant-ligatures: none; text-align: center; text-anchor: middle; fill: rgb(190, 30, 94);" d="m 369.96762,75.864 -2.808,7.632 6.48001,16.488 h -12.81601 l -1.944,5.04 h 16.20001 l 6.048,14.976 h 6.91199 z m -2.808,-6.984 h -5.47199 l -20.952,51.12 h 6.62399 l 17.06401,-43.632 z" transform="translate(0 328.396) translate(341.993945 33.14) scale(0.75) translate(-340.73563 -68.88)"></path> 
   <path id="path111237" style="font-style: normal; font-weight: 500; font-size: 72px; line-height: 1; font-family: &quot;Raleway Medium Alt1&quot;; font-variant-ligatures: none; text-align: center; text-anchor: middle; fill: rgb(190, 30, 94);" d="m 435.7565,84.504 c -1.008,-3.096 -2.592,-5.832 -4.608,-8.136 -2.088,-2.232 -4.68,-4.104 -7.776,-5.472 -3.096,-1.296 -6.696,-2.016 -10.728,-2.016 h -17.712 v 5.76 h 17.712 c 2.88,0 5.4,0.504 7.704,1.512 2.232,1.008 4.104,2.376 5.688,4.032 1.584,1.728 2.736,3.816 3.528,6.264 0.792,2.448 1.224,5.112 1.224,7.92 0,2.88 -0.432,5.472 -1.224,7.92 -0.792,2.448 -1.944,4.536 -3.456,6.264 -1.512,1.8 -3.384,3.24 -5.688,4.176 -2.304,1.008 -4.896,1.512 -7.776,1.512 h -11.232 V 81.48 h -6.48 V 120 h 17.712 c 3.744,0 7.128,-0.576 10.152,-1.8 3.024,-1.224 5.688,-2.952 7.848,-5.184 2.16,-2.232 3.816,-4.896 4.968,-8.064 1.152,-3.168 1.728,-6.696 1.728,-10.584 0,-3.456 -0.576,-6.768 -1.584,-9.864 z" transform="translate(0 328.396) translate(393.8915975 33.14) scale(0.75) translate(-394.9325 -68.88)"></path> 
   <path id="path111239" style="font-style: normal; font-weight: 500; font-size: 72px; line-height: 1; font-family: &quot;Raleway Medium Alt1&quot;; font-variant-ligatures: none; text-align: center; text-anchor: middle; fill: rgb(190, 30, 94);" d="m 446.54187,120 h 6.48001 V 68.88 h -6.48001 z" transform="translate(0 328.396) translate(443.84862499999997 33.14) scale(0.75) translate(-446.54187 -68.88)"></path> 
   <path id="path111241" style="font-style: normal; font-weight: 500; font-size: 72px; line-height: 1; font-family: &quot;Raleway Medium Alt1&quot;; font-variant-ligatures: none; text-align: center; text-anchor: middle; fill: rgb(190, 30, 94);" d="m 479.213,112.944 c -2.232,-1.008 -4.104,-2.448 -5.616,-4.32 -1.584,-1.872 -2.88,-3.96 -3.744,-6.408 -0.936,-2.448 -1.368,-4.968 -1.368,-7.776 0,-2.52 0.36,-5.04 1.224,-7.488 0.792,-2.448 1.944,-4.536 3.456,-6.408 1.44,-1.872 3.24,-3.312 5.4,-4.464 2.088,-1.152 4.392,-1.728 7.056,-1.728 3.168,0 5.976,0.72 8.568,2.16 2.52,1.44 4.536,3.672 6.12,6.624 l 4.968,-3.456 c -1.728,-3.24 -4.176,-5.976 -7.344,-8.064 -3.168,-2.016 -7.272,-3.096 -12.168,-3.096 -3.456,0 -6.624,0.72 -9.504,2.088 -2.952,1.44 -5.472,3.312 -7.56,5.688 -2.16,2.376 -3.816,5.112 -4.968,8.208 -1.224,3.096 -1.8,6.336 -1.8,9.792 0,3.384 0.576,6.552 1.8,9.648 1.224,3.168 2.88,5.904 5.04,8.352 2.088,2.448 4.536,4.392 7.488,5.832 2.88,1.512 6.048,2.232 9.504,2.232 3.6,0 6.912,-0.864 10.008,-2.736 v -6.048 c -3.024,2.016 -6.192,2.952 -9.504,2.952 -2.592,0 -4.896,-0.504 -7.056,-1.584 z m 11.088,-18.432 v 4.896 h 11.016 V 120 h 5.472 V 94.512 Z" transform="translate(0 328.396) translate(466.64197249999995 32.870000000000005) scale(0.75) translate(-461.933 -68.52)"></path> 
   <path id="path111243" style="font-style: normal; font-weight: 500; font-size: 72px; line-height: 1; font-family: &quot;Raleway Medium Alt1&quot;; font-variant-ligatures: none; text-align: center; text-anchor: middle; fill: rgb(190, 30, 94);" d="M 516.71375,68.88 V 120 h 6.48 V 80.472 l 11.448,20.448 3.456,-5.904 -14.544,-26.136 z m 43.92,0 -18.576,33.192 -3.384,5.904 1.584,2.808 h 3.672 l 16.992,-30.312 V 120 h 6.48 V 68.88 Z" transform="translate(0 328.396) translate(518.977535 33.14) scale(0.75) translate(-516.71375 -68.88)"></path> 
   <path id="path111245" style="font-style: normal; font-weight: 500; font-size: 72px; line-height: 1; font-family: &quot;Raleway Medium Alt1&quot;; font-variant-ligatures: none; text-align: center; text-anchor: middle; fill: rgb(190, 30, 94);" d="m 603.40512,75.864 -2.808,7.632 6.48001,16.488 h -12.81601 l -1.94399,5.04 h 16.19999 l 6.048,14.976 h 6.912 z m -2.808,-6.984 h -5.47199 l -20.952,51.12 h 6.624 l 17.064,-43.632 z" transform="translate(0 328.396) translate(573.3220699999999 33.14) scale(0.75) translate(-574.17313 -68.88)"></path> 
   <path id="path111247" style="font-style: normal; font-weight: 500; font-size: 72px; line-height: 1; font-family: &quot;Raleway Medium Alt1&quot;; font-variant-ligatures: none; text-align: center; text-anchor: middle; fill: rgb(190, 30, 94);" d="m 636.33275,120 h 6.48 V 81.12 h -6.48 z m -17.64,-51.12 v 5.76 h 41.76 v -5.76 z" transform="translate(0 328.396) translate(617.961785 33.14) scale(0.75) translate(-618.69275 -68.88)"></path> 
   <path id="path111249" style="font-style: normal; font-weight: 500; font-size: 72px; line-height: 1; font-family: &quot;Raleway Medium Alt1&quot;; font-variant-ligatures: none; text-align: center; text-anchor: middle; fill: rgb(190, 30, 94);" d="m 667.745,120 h 6.48 V 68.88 h -6.48 z" transform="translate(0 328.396) translate(666.0009725 33.14) scale(0.75) translate(-667.745 -68.88)"></path> 
   <path id="path111251" style="font-style: normal; font-weight: 500; font-size: 72px; line-height: 1; font-family: &quot;Raleway Medium Alt1&quot;; font-variant-ligatures: none; text-align: center; text-anchor: middle; fill: rgb(190, 30, 94);" d="m 690.76813,87.24 c 0.71999,-2.376 1.87199,-4.536 3.38399,-6.408 1.44,-1.872 3.312,-3.456 5.47201,-4.608 2.16,-1.152 4.67999,-1.8 7.55999,-1.8 1.29601,0 2.592,0.144 3.96001,0.432 1.29599,0.288 2.592,0.792 3.88799,1.44 1.224,0.72 2.44801,1.584 3.528,2.664 1.08,1.152 2.01601,2.52 2.808,4.104 l 5.11201,-3.312 c -1.58401,-3.312 -4.03201,-5.976 -7.27201,-8.064 -3.312,-2.016 -7.2,-3.096 -11.736,-3.096 -3.888,0 -7.272,0.792 -10.296,2.232 -3.096,1.512 -5.616,3.456 -7.704,5.904 -2.08799,2.448 -3.672,5.184 -4.75199,8.208 -0.792,2.16 -1.22401,4.32 -1.44001,6.408 h 6.55201 c 0.216,-1.368 0.504,-2.736 0.936,-4.104 z m 31.24799,18.36 c -0.72,1.584 -1.65599,2.952 -2.808,4.104 -1.152,1.152 -2.37599,2.088 -3.6,2.808 -1.36799,0.72 -2.664,1.296 -4.10399,1.584 -1.44001,0.36 -2.808,0.504 -4.10401,0.504 -2.59199,0 -4.89599,-0.504 -7.056,-1.656 -2.16,-1.08 -4.03199,-2.592 -5.616,-4.464 -1.65599,-1.872 -2.88,-3.96 -3.744,-6.408 -0.57599,-1.512 -0.93599,-3.024 -1.15199,-4.68 h -6.55201 c 0.288,2.16 0.79201,4.248 1.584,6.336 1.152,3.168 2.80801,5.976 4.96801,8.424 2.15999,2.448 4.67999,4.464 7.63199,5.976 2.88,1.584 6.12,2.304 9.648,2.304 1.944,0 3.96001,-0.216 6.048,-0.792 2.016,-0.504 3.96001,-1.224 5.832,-2.304 1.87201,-0.936 3.528,-2.232 4.968,-3.672 1.44,-1.44 2.59201,-3.168 3.456,-5.112 z" transform="translate(0 328.396) translate(688.9023125 32.92400000000001) scale(0.75) translate(-683.28012 -68.592)"></path> 
   <path id="path111253" style="font-style: normal; font-weight: 500; font-size: 72px; line-height: 1; font-family: &quot;Raleway Medium Alt1&quot;; font-variant-ligatures: none; text-align: center; text-anchor: middle; fill: rgb(226, 190, 204);" d="m 773.05175,97.248 c -0.216,1.512 -0.504,3.024 -1.008,4.464 -0.792,2.448 -1.944,4.608 -3.456,6.48 -1.512,1.872 -3.384,3.456 -5.472,4.608 -2.232,1.152 -4.68,1.728 -7.344,1.728 -2.664,0 -5.04,-0.504 -7.2,-1.656 -2.16,-1.08 -4.032,-2.592 -5.544,-4.464 -1.584,-1.872 -2.736,-3.96 -3.6,-6.408 -0.504,-1.512 -0.864,-3.096 -1.08,-4.752 h -6.552 c 0.216,2.304 0.72,4.608 1.584,6.768 1.08,3.168 2.736,5.904 4.896,8.352 2.088,2.448 4.608,4.392 7.56,5.832 2.952,1.44 6.264,2.16 9.864,2.16 3.456,0 6.624,-0.648 9.576,-2.088 2.952,-1.44 5.472,-3.312 7.632,-5.688 2.16,-2.376 3.816,-5.112 5.04,-8.28 0.864,-2.232 1.44,-4.608 1.728,-7.056 z m -33.624,-10.152 c 0.792,-2.376 1.944,-4.464 3.456,-6.408 1.512,-1.872 3.384,-3.384 5.544,-4.536 2.16,-1.152 4.608,-1.728 7.344,-1.728 2.52,0 4.896,0.576 7.056,1.656 2.16,1.152 3.96,2.592 5.544,4.464 1.584,1.872 2.736,3.96 3.6,6.408 0.432,1.296 0.792,2.664 1.008,3.96 h 6.552 c -0.288,-1.944 -0.792,-3.96 -1.44,-5.832 -1.152,-3.096 -2.808,-5.832 -4.896,-8.352 -2.16,-2.448 -4.68,-4.392 -7.56,-5.904 -2.952,-1.512 -6.264,-2.304 -9.792,-2.304 -3.528,0 -6.696,0.72 -9.648,2.16 -2.952,1.44 -5.472,3.312 -7.632,5.688 -2.16,2.448 -3.888,5.184 -5.112,8.28 -0.792,2.088 -1.368,4.176 -1.584,6.264 h 6.552 c 0.216,-1.224 0.576,-2.52 1.008,-3.816 z" transform="translate(0 328.396) translate(736.539035 32.870000000000005) scale(0.75) translate(-731.79575 -68.52)"></path> 
   <path id="path111255" style="font-style: normal; font-weight: 500; font-size: 72px; line-height: 1; font-family: &quot;Raleway Medium Alt1&quot;; font-variant-ligatures: none; text-align: center; text-anchor: middle; fill: rgb(226, 190, 204);" d="m 810.92713,83.856 -22.89601,45.288 h 7.20001 l 25.70399,-51.12 h -36.288 v 5.832 z" transform="translate(0 328.396) translate(787.4275625 39.998000000000005) scale(0.75) translate(-784.64712 -78.024)"></path> 
  </g> 
  <g id="tagline" style="font-style:oblique;font-weight:600;font-size:32px;line-height:1;font-family:Raleway;font-variant-ligatures:none;text-align:center;text-anchor:middle"></g> 
 </g> 
</svg>