<svg xmlns:dc="http://purl.org/dc/elements/1.1/" xmlns:cc="http://creativecommons.org/ns#" xmlns:rdf="http://www.w3.org/1999/02/22-rdf-syntax-ns#" xmlns:svg="http://www.w3.org/2000/svg" xmlns="http://www.w3.org/2000/svg" id="svg19713" viewbox="0 0 1024 768" height="768px" width="1024px" version="1.1"> <metadata id="metadata19719"> 
  <rdf:rdf> 
   <cc:work rdf:about=""> 
    <dc:format>
     image/svg+xml
    </dc:format> 
    <dc:type rdf:resource="http://purl.org/dc/dcmitype/StillImage"></dc:type> 
   </cc:work> 
  </rdf:rdf> 
 </metadata> <defs id="defs19717"></defs> <g id="logo-group"> 
  <g id="title" style="font-style:normal;font-weight:700;font-size:72px;line-height:1;font-family:'Brandmark1 Bold';font-variant-ligatures:none;text-align:center;text-anchor:middle" aria-label="pattero7"> 
   <path id="path19721" style="font-style: normal; font-weight: 700; font-size: 72px; line-height: 1; font-family: &quot;Brandmark1 Bold&quot;; font-variant-ligatures: none; text-align: center; text-anchor: middle; fill: rgb(69, 69, 69);" d="m 414.76062,94.584 c -1.07999,-2.448 -2.51999,-4.608 -4.392,-6.552 -1.944,-1.872 -4.10399,-3.312 -6.552,-4.392 -2.52,-1.08 -5.18399,-1.584 -7.99199,-1.584 -2.73601,0 -5.47201,0.504 -7.99201,1.584 -2.44799,1.08 -4.608,2.52 -6.552,4.392 -1.872,1.872 -3.312,4.104 -4.392,6.552 -1.008,2.52 -1.584,5.184 -1.584,7.992 v 30.6 l 10.8,3.6 v -16.128 c 0.57601,0.288 1.152,0.576 1.728,0.792 2.52,1.08 5.256,1.656 7.99201,1.656 2.736,0 5.47199,-0.576 7.99199,-1.656 2.44801,-1.008 4.608,-2.448 6.552,-4.392 1.87201,-1.872 3.31201,-4.032 4.392,-6.48 1.08,-2.52 1.584,-5.256 1.584,-7.992 0,-2.808 -0.504,-5.472 -1.584,-7.992 z m -18.93599,17.712 c -5.32801,0 -9.72001,-4.392 -9.72001,-9.72 0,-5.328 4.392,-9.72 9.72001,-9.72 5.32799,0 9.71999,4.392 9.71999,9.72 0,5.328 -4.392,9.72 -9.71999,9.72 z" transform="translate(0 248.01473179999363) translate(252 105.3943682118415) scale(1.503977383882245) translate(-375.30462 -82.056)"></path> 
   <path id="path19723" style="font-style: normal; font-weight: 700; font-size: 72px; line-height: 1; font-family: &quot;Brandmark1 Bold&quot;; font-variant-ligatures: none; text-align: center; text-anchor: middle; fill: rgb(69, 69, 69);" d="m 447.10887,81.984 0.072,2.304 c -2.88,-1.44 -6.048,-2.232 -9.28801,-2.232 -2.73599,0 -5.47199,0.504 -7.992,1.584 -2.448,1.08 -4.608,2.52 -6.55199,4.392 -1.87201,1.872 -3.31201,4.104 -4.392,6.552 -1.00801,2.52 -1.584,5.256 -1.584,7.992 0,2.736 0.57599,5.472 1.584,7.992 1.07999,2.448 2.51999,4.608 4.392,6.552 1.94399,1.872 4.10399,3.312 6.55199,4.392 2.52001,1.008 5.25601,1.584 7.992,1.584 3.24001,0 6.40801,-0.792 9.28801,-2.232 l -0.072,1.656 h 10.80001 V 81.984 Z m -4.31999,28.944 c -1.44,0.864 -3.16801,1.368 -4.89601,1.368 -5.32799,0 -9.72,-4.392 -9.72,-9.72 0,-5.328 4.39201,-9.72 9.72,-9.72 1.87201,0 3.74401,0.504 5.256,1.584 1.584,0.936 2.80801,2.376 3.528,4.032 0.64801,1.296 0.936,2.664 0.936,4.104 0,1.728 -0.43199,3.384 -1.296,4.896 -0.864,1.44 -2.01599,2.664 -3.52799,3.456 z" transform="translate(0 248.01473179999363) translate(330.3094704183266 105.28608184020196) scale(1.503977383882245) translate(-417.37287 -81.984)"></path> 
   <path id="path19725" style="font-style: normal; font-weight: 700; font-size: 72px; line-height: 1; font-family: &quot;Brandmark1 Bold&quot;; font-variant-ligatures: none; text-align: center; text-anchor: middle; fill: rgb(69, 69, 69);" d="M 486.242,92.496 V 82.416 H 474.794 V 69.528 l -10.8,3.6 v 27.936 c 0,3.024 0.576,5.904 1.728,8.64 1.08,2.664 2.736,5.04 4.752,7.056 2.016,2.088 4.392,3.672 7.056,4.824 2.736,1.152 5.688,1.728 8.712,1.728 v -10.8 c -6.336,0 -11.448,-5.112 -11.448,-11.448 v -8.568 z" transform="translate(0 248.01473179999363) translate(415.46636938818324 86.55253954656474) scale(1.503977383882245) translate(-463.994 -69.528)"></path> 
   <path id="path19727" style="font-style: normal; font-weight: 700; font-size: 72px; line-height: 1; font-family: &quot;Brandmark1 Bold&quot;; font-variant-ligatures: none; text-align: center; text-anchor: middle; fill: rgb(69, 69, 69);" d="m 512.6795,92.496 v -10.08 h -11.448 V 69.528 l -10.8,3.6 v 27.936 c 0,3.024 0.576,5.904 1.728,8.64 1.08,2.664 2.736,5.04 4.752,7.056 2.016,2.088 4.392,3.672 7.056,4.824 2.736,1.152 5.688,1.728 8.712,1.728 v -10.8 c -6.336,0 -11.448,-5.112 -11.448,-11.448 v -8.568 z" transform="translate(0 248.01473179999363) translate(470.26754531339253 86.55253954656474) scale(1.503977383882245) translate(-490.4315 -69.528)"></path> 
   <path id="path19729" style="font-style: normal; font-weight: 700; font-size: 72px; line-height: 1; font-family: &quot;Brandmark1 Bold&quot;; font-variant-ligatures: none; text-align: center; text-anchor: middle; fill: rgb(69, 69, 69);" d="m 531.03162,122.808 c 2.808,0 5.544,-0.576 8.13601,-1.728 2.52,-1.08 4.75199,-2.664 6.62399,-4.608 l -7.632,-7.2 c -1.87199,2.016 -4.392,3.096 -7.128,3.096 -3.52799,0 -6.62399,-1.872 -8.352,-4.608 h 28.58401 v -5.256 c 0,-5.4 -2.08801,-10.512 -5.904,-14.328 -3.816,-3.816 -8.92801,-5.976 -14.32801,-5.976 -5.472,0 -10.51199,2.16 -14.4,5.976 -3.816,3.816 -5.904,8.928 -5.904,14.328 0,5.4 2.088,10.512 5.904,14.328 3.88801,3.816 8.928,5.976 14.4,5.976 z m -8.352,-25.488 c 1.72801,-2.808 4.82401,-4.68 8.352,-4.68 3.456,0 6.552,1.872 8.35201,4.68 z" transform="translate(0 248.01473179999363) translate(515.832224612775 105.61094095512054) scale(1.503977383882245) translate(-510.72762 -82.2)"></path> 
   <path id="path19731" style="font-style: normal; font-weight: 700; font-size: 72px; line-height: 1; font-family: &quot;Brandmark1 Bold&quot;; font-variant-ligatures: none; text-align: center; text-anchor: middle; fill: rgb(69, 69, 69);" d="m 564.5645,122.52 v 0 -17.712 c 0,-6.912 5.616,-12.6 12.6,-12.6 v -10.8 c -3.168,0 -6.264,0.648 -9.144,1.872 -2.736,1.152 -5.256,2.88 -7.416,5.04 -2.16,2.088 -3.816,4.608 -5.04,7.416 -1.224,2.88 -1.8,5.904 -1.8,9.072 v 17.712 z" transform="translate(0 248.01473179999363) translate(595.5984926444515 104.41979086708581) scale(1.503977383882245) translate(-553.7645 -81.408)"></path> 
   <path id="path19733" style="font-style: normal; font-weight: 700; font-size: 72px; line-height: 1; font-family: &quot;Brandmark1 Bold&quot;; font-variant-ligatures: none; text-align: center; text-anchor: middle; fill: rgb(222, 245, 248);" d="m 596.45262,123.024 c 2.736,0 5.472,-0.576 7.992,-1.584 2.448,-1.08 4.68001,-2.52 6.552,-4.392 1.872,-1.944 3.312,-4.104 4.39201,-6.552 1.07999,-2.52 1.58399,-5.256 1.58399,-7.992 0,-2.808 -0.504,-5.472 -1.58399,-7.992 -1.08001,-2.448 -2.52001,-4.68 -4.39201,-6.552 -1.94399,-1.872 -4.104,-3.312 -6.552,-4.392 -2.52,-1.08 -5.256,-1.584 -7.992,-1.584 -2.73599,0 -5.47199,0.504 -7.99199,1.584 -2.44801,1.08 -4.60801,2.52 -6.552,4.392 -1.87201,1.944 -3.312,4.104 -4.39201,6.552 -1.00799,2.52 -1.58399,5.184 -1.58399,7.992 0,2.736 0.576,5.472 1.58399,7.992 1.08001,2.448 2.52,4.608 4.39201,6.552 1.94399,1.872 4.10399,3.312 6.552,4.392 2.52,1.008 5.256,1.584 7.99199,1.584 z m 0,-30.24 c 5.328,0 9.72001,4.392 9.72001,9.72 0,5.328 -4.39201,9.72 -9.72001,9.72 -5.32799,0 -9.72,-4.392 -9.72,-9.72 0,-5.328 4.39201,-9.72 9.72,-9.72 z" transform="translate(0 248.01473179999363) translate(643.9786326462356 105.28608184020196) scale(1.503977383882245) translate(-575.93263 -81.984)"></path> 
   <path id="path19735" style="font-style: normal; font-weight: 700; font-size: 72px; line-height: 1; font-family: &quot;Brandmark1 Bold&quot;; font-variant-ligatures: none; text-align: center; text-anchor: middle; fill: rgb(222, 245, 248);" d="m 619.3025,121.512 11.16,2.232 20.592,-48.384 v -7.344 h -35.712 V 78.6 h 22.536 z" transform="translate(0 248.01473179999363) translate(718.2899596667974 84.27852574213479) scale(1.503977383882245) translate(-615.3425 -68.016)"></path> 
  </g> 
  <g id="tagline" style="font-style:normal;font-weight:400;font-size:32px;line-height:1;font-family:Montserrat;font-variant-ligatures:none;text-align:center;text-anchor:middle"></g> 
 </g> 
</svg>