<svg xmlns:dc="http://purl.org/dc/elements/1.1/" xmlns:cc="http://creativecommons.org/ns#" xmlns:rdf="http://www.w3.org/1999/02/22-rdf-syntax-ns#" xmlns:svg="http://www.w3.org/2000/svg" xmlns="http://www.w3.org/2000/svg" id="svg79401" viewbox="0 0 1024 768" height="768px" width="1024px" version="1.1"> <metadata id="metadata79407"> 
  <rdf:rdf> 
   <cc:work rdf:about=""> 
    <dc:format>
     image/svg+xml
    </dc:format> 
    <dc:type rdf:resource="http://purl.org/dc/dcmitype/StillImage"></dc:type> 
   </cc:work> 
  </rdf:rdf> 
 </metadata> <defs id="defs79405"></defs> <g id="logo-group"> 
  <g id="title" style="font-style:normal;font-weight:200;font-size:72px;line-height:1;font-family:Phenomena;font-variant-ligatures:none;text-align:center;text-anchor:middle" aria-label="Payneo7"> 
   <path id="path79409" style="font-style: normal; font-weight: 200; font-size: 72px; line-height: 1; font-family: Phenomena; font-variant-ligatures: none; text-align: center; text-anchor: middle; fill: rgb(255, 204, 153);" d="m 419.31744,120 h 0.72 c 0.216,0 0.36,-0.144 0.36,-0.36 v -19.8 h 9.144 c 5.76,0 10.584,-5.04 10.584,-11.88 v -6.984 c 0,-6.84 -4.176,-11.88 -10.728,-11.88 -6.48,0 -10.44,5.04 -10.44,11.88 v 38.664 c 0,0.216 0.144,0.36 0.36,0.36 z m 1.08,-21.528 V 80.976 c 0,-6.192 3.384,-10.512 9,-10.512 5.832,0 9.288,4.32 9.288,10.512 v 6.984 c 0,6.192 -4.104,10.512 -9.144,10.512 z" transform="translate(0 172.58575885278702) translate(251.99999999999994 136.88918845054087) scale(2.257514016014543) translate(-418.95744 -69.096)"></path> 
   <path id="path79411" style="font-style: normal; font-weight: 200; font-size: 72px; line-height: 1; font-family: Phenomena; font-variant-ligatures: none; text-align: center; text-anchor: middle; fill: rgb(255, 204, 153);" d="m 456.72031,120.504 c 6.192,0 9.648,-4.32 9.648,-11.16 V 94.368 c 0,-6.84 -3.672,-10.872 -9.648,-10.872 -6.264,0 -9.864,3.888 -10.152,9.144 0,0.216 0.144,0.36 0.36,0.36 h 0.648 c 0.216,0 0.36,-0.144 0.36,-0.36 0.288,-4.464 3.384,-7.848 8.784,-7.848 5.112,0 8.28,3.528 8.28,9.576 v 4.896 h -7.632 c -7.488,0 -11.376,3.816 -11.376,10.08 0,7.128 3.888,11.16 10.728,11.16 z m 0,-1.296 c -5.976,0 -9.36,-3.6 -9.36,-9.864 0,-5.472 3.384,-8.784 10.008,-8.784 h 7.632 v 8.784 c 0,6.048 -2.952,9.864 -8.28,9.864 z" transform="translate(0 172.58575885278702) translate(328.8341960582327 169.39739028115028) scale(2.257514016014543) translate(-445.99231 -83.496)"></path> 
   <path id="path79413" style="font-style: normal; font-weight: 200; font-size: 72px; line-height: 1; font-family: Phenomena; font-variant-ligatures: none; text-align: center; text-anchor: middle; fill: rgb(255, 204, 153);" d="m 493.92744,84 h -0.648 c -0.216,0 -0.36,0.144 -0.36,0.36 v 24.48 c 0,5.688 -3.096,9.864 -8.352,9.864 -5.328,0 -8.496,-4.176 -8.496,-9.864 V 84.36 c 0,-0.216 -0.144,-0.36 -0.36,-0.36 h -0.648 c -0.216,0 -0.36,0.144 -0.36,0.36 v 24.48 c 0,6.408 3.744,11.16 9.864,11.16 3.816,0 6.912,-2.16 8.352,-5.544 v 9.864 c 0,5.256 -3.096,9.504 -8.424,9.504 -5.184,0 -8.28,-3.96 -8.424,-8.928 0,-0.216 -0.144,-0.36 -0.36,-0.36 h -0.648 c -0.216,0 -0.36,0.144 -0.36,0.36 0.144,5.688 3.888,10.224 9.792,10.224 6.048,0 9.792,-4.824 9.792,-10.8 V 84.36 c 0,-0.216 -0.144,-0.36 -0.36,-0.36 z" transform="translate(0 172.58575885278702) translate(409.4525725609503 170.5351773452216) scale(2.257514016014543) translate(-474.70344 -84)"></path> 
   <path id="path79415" style="font-style: normal; font-weight: 200; font-size: 72px; line-height: 1; font-family: Phenomena; font-variant-ligatures: none; text-align: center; text-anchor: middle; fill: rgb(255, 204, 153);" d="m 504.45406,120 h 0.648 c 0.216,0 0.36,-0.144 0.36,-0.36 V 95.016 c 0,-6.048 2.664,-10.224 8.424,-10.224 5.76,0 8.424,4.176 8.424,10.224 v 24.624 c 0,0.216 0.144,0.36 0.36,0.36 h 0.648 c 0.216,0 0.36,-0.144 0.36,-0.36 V 95.016 c 0,-6.768 -3.312,-11.52 -9.792,-11.52 -6.48,0 -9.792,4.752 -9.792,11.52 v 24.624 c 0,0.216 0.144,0.36 0.36,0.36 z" transform="translate(0 172.58575885278702) translate(491.6049072624095 169.39739028115028) scale(2.257514016014543) translate(-504.09406 -83.496)"></path> 
   <path id="path79417" style="font-style: normal; font-weight: 200; font-size: 72px; line-height: 1; font-family: Phenomena; font-variant-ligatures: none; text-align: center; text-anchor: middle; fill: rgb(255, 204, 153);" d="m 542.35081,120.504 c 6.624,0 9.936,-4.608 10.08,-10.296 0,-0.144 -0.144,-0.288 -0.36,-0.288 h -0.648 c -0.216,0 -0.36,0.144 -0.36,0.36 -0.144,4.968 -2.88,8.928 -8.712,8.928 -5.76,0 -8.424,-4.176 -8.424,-9.504 v -5.472 h 7.2 c 7.848,0 11.592,-4.32 11.592,-10.152 0,-5.832 -4.176,-10.584 -10.08,-10.584 -6.12,0 -10.08,4.608 -10.08,10.872 v 15.336 c 0,6.048 3.168,10.8 9.792,10.8 z m -8.424,-17.568 v -8.568 c 0,-5.544 3.312,-9.576 8.712,-9.576 5.184,0 8.712,4.176 8.712,9.288 0,5.112 -3.024,8.856 -10.224,8.856 z" transform="translate(0 172.58575885278702) translate(571.6670774618614 169.39739028115028) scale(2.257514016014543) translate(-532.55881 -83.496)"></path> 
   <path id="path79419" style="font-style: normal; font-weight: 200; font-size: 72px; line-height: 1; font-family: Phenomena; font-variant-ligatures: none; text-align: center; text-anchor: middle; fill: rgb(153, 102, 153);" d="m 570.76719,120.504 c 6.408,0 10.224,-4.752 10.224,-10.944 V 94.44 c 0,-6.192 -3.816,-10.944 -10.224,-10.944 -6.408,0 -10.224,4.752 -10.224,10.944 v 15.12 c 0,6.192 3.816,10.944 10.224,10.944 z m 0,-1.296 c -5.544,0 -8.856,-4.248 -8.856,-9.648 V 94.44 c 0,-5.4 3.312,-9.648 8.856,-9.648 5.544,0 8.856,4.248 8.856,9.648 v 15.12 c 0,5.4 -3.312,9.648 -8.856,9.648 z" transform="translate(0 172.58575885278702) translate(650.6448056534402 169.39739028115028) scale(2.257514016014543) translate(-560.54319 -83.496)"></path> 
   <path id="path79421" style="font-style: normal; font-weight: 200; font-size: 72px; line-height: 1; font-family: Phenomena; font-variant-ligatures: none; text-align: center; text-anchor: middle; fill: rgb(153, 102, 153);" d="m 587.35531,69.96 v 0.648 c 0,0.216 0.144,0.36 0.36,0.36 h 18 l -12.168,48.6 c -0.072,0.288 0.144,0.432 0.36,0.432 h 0.72 c 0.216,0 0.288,-0.072 0.36,-0.288 l 12.24,-48.816 c 0.072,-0.36 0.072,-0.576 0.072,-0.864 0,-0.288 -0.216,-0.432 -0.432,-0.432 h -19.152 c -0.216,0 -0.36,0.144 -0.36,0.36 z" transform="translate(0 172.58575885278702) translate(726.976140464606 138.0269755146122) scale(2.257514016014543) translate(-587.35531 -69.6)"></path> 
  </g> 
  <g id="tagline" style="font-style:oblique;font-weight:300;font-size:32px;line-height:1;font-family:'Fira Sans Condensed';font-variant-ligatures:none;text-align:center;text-anchor:middle"></g> 
 </g> 
</svg>