<svg xmlns:dc="http://purl.org/dc/elements/1.1/" xmlns:cc="http://creativecommons.org/ns#" xmlns:rdf="http://www.w3.org/1999/02/22-rdf-syntax-ns#" xmlns:svg="http://www.w3.org/2000/svg" xmlns="http://www.w3.org/2000/svg" id="svg321186" viewbox="0 0 1024 768" height="768px" width="1024px" version="1.1"> <metadata id="metadata321192"> 
  <rdf:rdf> 
   <cc:work rdf:about=""> 
    <dc:format>
     image/svg+xml
    </dc:format> 
    <dc:type rdf:resource="http://purl.org/dc/dcmitype/StillImage"></dc:type> 
   </cc:work> 
  </rdf:rdf> 
 </metadata> <defs id="defs321190"></defs> <g id="logo-group"> 
  <g id="title" style="font-style:normal;font-weight:500;font-size:72px;line-height:1;font-family:'Raleway Medium Alt1';font-variant-ligatures:none;text-align:center;text-anchor:middle" aria-label="PELICANO7"> 
   <path id="path321194" style="font-style: normal; font-weight: 500; font-size: 72px; line-height: 1; font-family: &quot;Raleway Medium Alt1&quot;; font-variant-ligatures: none; text-align: center; text-anchor: middle; fill: rgb(149, 109, 90);" d="m 356.67406,79.32 c -0.792,-1.944 -1.872,-3.672 -3.24,-5.256 -1.368,-1.584 -3.024,-2.808 -4.896,-3.744 -1.872,-0.936 -3.96,-1.44 -6.192,-1.44 h -21.312 v 20.448 h 6.48 V 74.64 h 14.472 c 1.224,0 2.376,0.288 3.528,0.792 1.08,0.576 2.088,1.296 2.952,2.232 0.864,1.008 1.512,2.088 2.016,3.384 0.504,1.296 0.792,2.736 0.792,4.176 0,1.44 -0.216,2.808 -0.648,4.104 -0.504,1.368 -1.08,2.448 -1.8,3.456 -0.792,1.008 -1.728,1.728 -2.808,2.304 -1.08,0.576 -2.304,0.792 -3.6,0.792 h -21.384 V 120 h 6.48 v -18.36 h 15.264 c 2.232,0 4.248,-0.432 6.12,-1.368 1.872,-0.864 3.456,-2.088 4.752,-3.672 1.296,-1.512 2.304,-3.24 3.096,-5.256 0.72,-1.944 1.08,-3.96 1.08,-6.12 0,-2.016 -0.432,-3.96 -1.152,-5.904 z" transform="translate(0 292.70666666666665) translate(229.9152055555556 58.013333333333335) scale(1.1111111111111112) translate(-321.03406 -68.88)"></path> 
   <path id="path321196" style="font-style: normal; font-weight: 500; font-size: 72px; line-height: 1; font-family: &quot;Raleway Medium Alt1&quot;; font-variant-ligatures: none; text-align: center; text-anchor: middle; fill: rgb(149, 109, 90);" d="m 372.37344,74.64 h 27.576 v -5.76 h -34.056 v 15.84 h 6.48 z m -6.48,39.6 V 120 h 34.704 v -5.76 z m 6.48,-17.64 h 23.976 v -5.4 h -30.456 v 16.56 h 6.48 z" transform="translate(0 292.70666666666665) translate(296.42562777777783 58.013333333333335) scale(1.1111111111111112) translate(-365.89344 -68.88)"></path> 
   <path id="path321198" style="font-style: normal; font-weight: 500; font-size: 72px; line-height: 1; font-family: &quot;Raleway Medium Alt1&quot;; font-variant-ligatures: none; text-align: center; text-anchor: middle; fill: rgb(149, 109, 90);" d="M 409.48719,114.24 V 120 h 34.992 v -5.76 z m 6.48,-45.36 h -6.48 v 38.88 h 6.48 z" transform="translate(0 292.70666666666665) translate(361.5297944444445 58.013333333333335) scale(1.1111111111111112) translate(-409.48719 -68.88)"></path> 
   <path id="path321200" style="font-style: normal; font-weight: 500; font-size: 72px; line-height: 1; font-family: &quot;Raleway Medium Alt1&quot;; font-variant-ligatures: none; text-align: center; text-anchor: middle; fill: rgb(149, 109, 90);" d="m 451.53406,120 h 6.48 V 68.88 h -6.48 z" transform="translate(0 292.70666666666665) translate(424.91520555555564 58.013333333333335) scale(1.1111111111111112) translate(-451.53406 -68.88)"></path> 
   <path id="path321202" style="font-style: normal; font-weight: 500; font-size: 72px; line-height: 1; font-family: &quot;Raleway Medium Alt1&quot;; font-variant-ligatures: none; text-align: center; text-anchor: middle; fill: rgb(149, 109, 90);" d="m 474.55719,87.24 c 0.72,-2.376 1.872,-4.536 3.384,-6.408 1.44,-1.872 3.312,-3.456 5.472,-4.608 2.16,-1.152 4.68,-1.8 7.56,-1.8 1.296,0 2.592,0.144 3.96,0.432 1.296,0.288 2.592,0.792 3.888,1.44 1.224,0.72 2.448,1.584 3.528,2.664 1.08,1.152 2.016,2.52 2.808,4.104 l 5.112,-3.312 c -1.584,-3.312 -4.032,-5.976 -7.272,-8.064 -3.312,-2.016 -7.2,-3.096 -11.736,-3.096 -3.888,0 -7.272,0.792 -10.296,2.232 -3.096,1.512 -5.616,3.456 -7.704,5.904 -2.088,2.448 -3.672,5.184 -4.752,8.208 -0.792,2.16 -1.224,4.32 -1.44,6.408 h 6.552 c 0.216,-1.368 0.504,-2.736 0.936,-4.104 z m 31.248,18.36 c -0.72,1.584 -1.656,2.952 -2.808,4.104 -1.152,1.152 -2.376,2.088 -3.6,2.808 -1.368,0.72 -2.664,1.296 -4.104,1.584 -1.44,0.36 -2.808,0.504 -4.104,0.504 -2.592,0 -4.896,-0.504 -7.056,-1.656 -2.16,-1.08 -4.032,-2.592 -5.616,-4.464 -1.656,-1.872 -2.88,-3.96 -3.744,-6.408 -0.576,-1.512 -0.936,-3.024 -1.152,-4.68 h -6.552 c 0.288,2.16 0.792,4.248 1.584,6.336 1.152,3.168 2.808,5.976 4.968,8.424 2.16,2.448 4.68,4.464 7.632,5.976 2.88,1.584 6.12,2.304 9.648,2.304 1.944,0 3.96,-0.216 6.048,-0.792 2.016,-0.504 3.96,-1.224 5.832,-2.304 1.872,-0.936 3.528,-2.232 4.968,-3.672 1.44,-1.44 2.592,-3.168 3.456,-5.112 z" transform="translate(0 292.70666666666665) translate(458.8431277777778 57.69333333333334) scale(1.1111111111111112) translate(-467.06919 -68.592)"></path> 
   <path id="path321204" style="font-style: normal; font-weight: 500; font-size: 72px; line-height: 1; font-family: &quot;Raleway Medium Alt1&quot;; font-variant-ligatures: none; text-align: center; text-anchor: middle; fill: rgb(149, 109, 90);" d="m 542.44419,75.864 -2.808,7.632 6.48,16.488 h -12.816 l -1.944,5.04 h 16.2 l 6.048,14.976 h 6.912 z m -2.808,-6.984 h -5.472 l -20.952,51.12 h 6.624 l 17.064,-43.632 z" transform="translate(0 292.70666666666665) translate(526.7797944444444 58.013333333333335) scale(1.1111111111111112) translate(-513.21219 -68.88)"></path> 
   <path id="path321206" style="font-style: normal; font-weight: 500; font-size: 72px; line-height: 1; font-family: &quot;Raleway Medium Alt1&quot;; font-variant-ligatures: none; text-align: center; text-anchor: middle; fill: rgb(149, 109, 90);" d="m 567.40906,120 h 6.48 V 91.272 l -6.48,-8.424 z m 36.72,-51.048 v 39.744 l -31.68,-39.816 h -5.04 v 3.888 l 6.48,8.208 31.248,39.024 h 5.472 V 68.952 Z" transform="translate(0 292.70666666666665) translate(603.6652055555555 58.013333333333335) scale(1.1111111111111112) translate(-567.40906 -68.88)"></path> 
   <path id="path321208" style="font-style: normal; font-weight: 500; font-size: 72px; line-height: 1; font-family: &quot;Raleway Medium Alt1&quot;; font-variant-ligatures: none; text-align: center; text-anchor: middle; fill: rgb(98, 77, 54);" d="m 660.90331,97.248 c -0.216,1.512 -0.504,3.024 -1.008,4.464 -0.792,2.448 -1.944,4.608 -3.456,6.48 -1.512,1.872 -3.384,3.456 -5.472,4.608 -2.232,1.152 -4.68,1.728 -7.344,1.728 -2.664,0 -5.04,-0.504 -7.2,-1.656 -2.16,-1.08 -4.032,-2.592 -5.544,-4.464 -1.584,-1.872 -2.736,-3.96 -3.6,-6.408 -0.504,-1.512 -0.864,-3.096 -1.08,-4.752 h -6.552 c 0.216,2.304 0.72,4.608 1.584,6.768 1.08,3.168 2.736,5.904 4.896,8.352 2.088,2.448 4.608,4.392 7.56,5.832 2.952,1.44 6.264,2.16 9.864,2.16 3.456,0 6.624,-0.648 9.576,-2.088 2.952,-1.44 5.472,-3.312 7.632,-5.688 2.16,-2.376 3.816,-5.112 5.04,-8.28 0.864,-2.232 1.44,-4.608 1.728,-7.056 z m -33.624,-10.152 c 0.792,-2.376 1.944,-4.464 3.456,-6.408 1.512,-1.872 3.384,-3.384 5.544,-4.536 2.16,-1.152 4.608,-1.728 7.344,-1.728 2.52,0 4.896,0.576 7.056,1.656 2.16,1.152 3.96,2.592 5.544,4.464 1.584,1.872 2.736,3.96 3.6,6.408 0.432,1.296 0.792,2.664 1.008,3.96 h 6.552 c -0.288,-1.944 -0.792,-3.96 -1.44,-5.832 -1.152,-3.096 -2.808,-5.832 -4.896,-8.352 -2.16,-2.448 -4.68,-4.392 -7.56,-5.904 -2.952,-1.512 -6.264,-2.304 -9.792,-2.304 -3.528,0 -6.696,0.72 -9.648,2.16 -2.952,1.44 -5.472,3.312 -7.632,5.688 -2.16,2.448 -3.888,5.184 -5.112,8.28 -0.792,2.088 -1.368,4.176 -1.584,6.264 h 6.552 c 0.216,-1.224 0.576,-2.52 1.008,-3.816 z" transform="translate(0 292.70666666666665) translate(678.3743722222222 57.61333333333333) scale(1.1111111111111112) translate(-619.64731 -68.52)"></path> 
   <path id="path321210" style="font-style: normal; font-weight: 500; font-size: 72px; line-height: 1; font-family: &quot;Raleway Medium Alt1&quot;; font-variant-ligatures: none; text-align: center; text-anchor: middle; fill: rgb(98, 77, 54);" d="m 698.77869,83.856 -22.896,45.288 h 7.2 l 25.704,-51.12 h -36.288 v 5.832 z" transform="translate(0 292.70666666666665) translate(753.7647944444445 68.17333333333333) scale(1.1111111111111112) translate(-672.49869 -78.024)"></path> 
  </g> 
  <g id="tagline" style="font-style:oblique;font-weight:600;font-size:32px;line-height:1;font-family:Raleway;font-variant-ligatures:none;text-align:center;text-anchor:middle"></g> 
 </g> 
</svg>