<svg xmlns:dc="http://purl.org/dc/elements/1.1/" xmlns:cc="http://creativecommons.org/ns#" xmlns:rdf="http://www.w3.org/1999/02/22-rdf-syntax-ns#" xmlns:svg="http://www.w3.org/2000/svg" xmlns="http://www.w3.org/2000/svg" id="svg96175" viewbox="0 0 1024 768" height="768px" width="1024px" version="1.1"> <metadata id="metadata96181"> 
  <rdf:rdf> 
   <cc:work rdf:about=""> 
    <dc:format>
     image/svg+xml
    </dc:format> 
    <dc:type rdf:resource="http://purl.org/dc/dcmitype/StillImage"></dc:type> 
   </cc:work> 
  </rdf:rdf> 
 </metadata> <defs id="defs96179"></defs> <g id="logo-group"> 
  <g id="title" style="font-style:normal;font-weight:400;font-size:72px;line-height:1;font-family:Teko;font-variant-ligatures:none;text-align:center;text-anchor:middle" aria-label="Pentao7"> 
   <path id="path96183" style="font-style: normal; font-weight: 400; font-size: 72px; line-height: 1; font-family: Teko; font-variant-ligatures: none; text-align: center; text-anchor: middle; fill: rgb(99, 86, 78);" d="m 431.43931,74.928 h 14.76 q 6.696,0 6.696,6.336 V 96.24 q 0,6.336 -6.696,6.336 h -8.28 V 120 h -6.48 z m 14.976,20.304 v -12.96 q 0,-1.296 -0.432,-1.656 -0.432,-0.432 -1.728,-0.432 h -6.336 v 17.208 h 6.336 q 1.296,0 1.728,-0.432 0.432,-0.432 0.432,-1.728 z" transform="translate(0 100.84307210300022) translate(251.99999999999994 211.92034890283998) scale(3.161012557426329) translate(-431.43931 -74.928)"></path> 
   <path id="path96185" style="font-style: normal; font-weight: 400; font-size: 72px; line-height: 1; font-family: Teko; font-variant-ligatures: none; text-align: center; text-anchor: middle; fill: rgb(99, 86, 78);" d="m 464.69656,84.864 h 7.056 q 6.768,0 6.768,6.408 v 13.176 h -14.184 v 8.352 q 0,1.224 0.432,1.656 0.432,0.432 1.728,0.432 h 3.312 q 1.296,0 1.728,-0.432 0.432,-0.432 0.432,-1.728 v -2.88 h 6.336 v 3.816 q 0,6.336 -6.696,6.336 h -6.912 q -6.696,0 -6.696,-6.336 V 91.272 q 0,-6.408 6.696,-6.408 z m -0.36,14.832 h 7.776 v -7.632 q 0,-1.224 -0.432,-1.656 -0.36,-0.432 -1.656,-0.432 h -3.528 q -1.296,0 -1.728,0.432 -0.432,0.432 -0.432,1.656 z" transform="translate(0 100.84307210300022) translate(335.96044479094 243.32816967342802) scale(3.161012557426329) translate(-458.00056 -84.864)"></path> 
   <path id="path96187" style="font-style: normal; font-weight: 400; font-size: 72px; line-height: 1; font-family: Teko; font-variant-ligatures: none; text-align: center; text-anchor: middle; fill: rgb(99, 86, 78);" d="m 494.96356,84.864 h 2.52 q 6.552,0 6.552,6.408 V 120 h -6.48 V 92.208 q 0,-1.296 -0.432,-1.656 -0.432,-0.432 -1.728,-0.432 h -2.52 q -1.296,0 -1.872,0.576 -0.504,0.576 -0.504,1.944 V 120 h -6.48 V 84.864 h 6.48 v 2.808 q 0.936,-2.808 4.464,-2.808 z" transform="translate(0 100.84307210300022) translate(418.20683052261575 243.32816967342802) scale(3.161012557426329) translate(-484.01956 -84.864)"></path> 
   <path id="path96189" style="font-style: normal; font-weight: 400; font-size: 72px; line-height: 1; font-family: Teko; font-variant-ligatures: none; text-align: center; text-anchor: middle; fill: rgb(99, 86, 78);" d="m 522.19644,90.12 h -4.824 v 22.248 q 0,1.296 0.36,1.728 0.432,0.36 1.728,0.36 h 2.736 V 120 h -4.608 q -6.768,0 -6.768,-6.336 V 90.12 h -3.312 v -5.256 h 3.312 v -5.976 h 6.552 v 5.976 h 4.824 z" transform="translate(0 100.84307210300022) translate(492.4554751624958 224.43795863024826) scale(3.161012557426329) translate(-507.50844 -78.888)"></path> 
   <path id="path96191" style="font-style: normal; font-weight: 400; font-size: 72px; line-height: 1; font-family: Teko; font-variant-ligatures: none; text-align: center; text-anchor: middle; fill: rgb(99, 86, 78);" d="m 539.17044,84.864 h 6.48 V 120 h -6.48 v -2.808 q -0.936,2.808 -4.464,2.808 h -2.592 q -6.48,0 -6.48,-6.336 V 91.272 q 0,-6.408 6.48,-6.408 h 2.592 q 3.528,0 4.464,2.808 z m -4.896,29.88 h 2.52 q 1.296,0 1.8,-0.576 0.576,-0.576 0.576,-1.944 V 92.64 q 0,-1.368 -0.576,-1.944 -0.504,-0.576 -1.8,-0.576 h -2.52 q -1.296,0 -1.728,0.432 -0.432,0.36 -0.432,1.656 v 20.448 q 0,1.296 0.432,1.728 0.432,0.36 1.728,0.36 z" transform="translate(0 100.84307210300022) translate(549.7519887784055 243.32816967342802) scale(3.161012557426329) translate(-525.63444 -84.864)"></path> 
   <path id="path96193" style="font-style: normal; font-weight: 400; font-size: 72px; line-height: 1; font-family: Teko; font-variant-ligatures: none; text-align: center; text-anchor: middle; fill: rgb(169, 156, 148);" d="m 558.20544,84.864 h 7.704 q 6.696,0 6.696,6.408 v 22.392 q 0,6.336 -6.696,6.336 h -7.704 q -6.624,0 -6.624,-6.336 V 91.272 q 0,-6.408 6.624,-6.408 z m 7.992,27.864 V 92.136 q 0,-1.296 -0.432,-1.728 -0.432,-0.432 -1.728,-0.432 h -3.96 q -1.296,0 -1.728,0.432 -0.36,0.432 -0.36,1.728 v 20.592 q 0,1.296 0.36,1.728 0.432,0.432 1.728,0.432 h 3.96 q 1.296,0 1.728,-0.432 0.432,-0.432 0.432,-1.728 z" transform="translate(0 100.84307210300022) translate(631.7707816059466 243.32816967342802) scale(3.161012557426329) translate(-551.58144 -84.864)"></path> 
   <path id="path96195" style="font-style: normal; font-weight: 400; font-size: 72px; line-height: 1; font-family: Teko; font-variant-ligatures: none; text-align: center; text-anchor: middle; fill: rgb(169, 156, 148);" d="m 595.94356,74.928 v 4.032 l -12.096,41.04 h -6.624 l 11.736,-39.672 h -13.176 v -5.4 z" transform="translate(0 100.84307210300022) translate(708.2739868422852 211.92034890283998) scale(3.161012557426329) translate(-575.78356 -74.928)"></path> 
  </g> 
  <g id="tagline" style="font-style:oblique;font-weight:normal;font-size:32px;line-height:1;font-family:'Fira Sans Condensed';font-variant-ligatures:none;text-align:center;text-anchor:middle"></g> 
 </g> 
</svg>