<svg xmlns:dc="http://purl.org/dc/elements/1.1/" xmlns:cc="http://creativecommons.org/ns#" xmlns:rdf="http://www.w3.org/1999/02/22-rdf-syntax-ns#" xmlns:svg="http://www.w3.org/2000/svg" xmlns="http://www.w3.org/2000/svg" id="svg371580" viewbox="0 0 1024 768" height="768px" width="1024px" version="1.1"> <metadata id="metadata371586"> 
  <rdf:rdf> 
   <cc:work rdf:about=""> 
    <dc:format>
     image/svg+xml
    </dc:format> 
    <dc:type rdf:resource="http://purl.org/dc/dcmitype/StillImage"></dc:type> 
   </cc:work> 
  </rdf:rdf> 
 </metadata> <defs id="defs371584"></defs> <g id="logo-group"> 
  <g id="title" style="font-style:normal;font-weight:200;font-size:72px;line-height:1;font-family:Phenomena;font-variant-ligatures:none;text-align:center;text-anchor:middle" aria-label="PERCEPTUALO7"> 
   <path id="path371588" style="font-style: normal; font-weight: 200; font-size: 72px; line-height: 1; font-family: Phenomena; font-variant-ligatures: none; text-align: center; text-anchor: middle; fill: rgb(65, 135, 163);" d="m 348.02056,120 h 0.72 c 0.216,0 0.36,-0.144 0.36,-0.36 v -19.8 h 9.144 c 5.76,0 10.584,-5.04 10.584,-11.88 v -6.984 c 0,-6.84 -4.176,-11.88 -10.728,-11.88 -6.48,0 -10.44,5.04 -10.44,11.88 v 38.664 c 0,0.216 0.144,0.36 0.36,0.36 z m 1.08,-21.528 V 80.976 c 0,-6.192 3.384,-10.512 9,-10.512 5.832,0 9.288,4.32 9.288,10.512 v 6.984 c 0,6.192 -4.104,10.512 -9.144,10.512 z" transform="translate(0 303.6960032705857) translate(251.9999999999999 53.3527571098693) scale(1.0485231722512056) translate(-347.66056 -69.096)"></path> 
   <path id="path371590" style="font-style: normal; font-weight: 200; font-size: 72px; line-height: 1; font-family: Phenomena; font-variant-ligatures: none; text-align: center; text-anchor: middle; fill: rgb(65, 135, 163);" d="m 387.63181,120.144 h 6.48 c 0.216,0 0.36,-0.144 0.36,-0.36 v -0.648 c 0,-0.216 -0.144,-0.36 -0.36,-0.36 h -6.48 c -6.048,0 -9.72,-4.32 -9.72,-10.512 V 95.016 h 14.76 c 0.216,0 0.36,-0.144 0.36,-0.36 v -0.648 c 0,-0.216 -0.144,-0.36 -0.36,-0.36 h -14.76 V 81.336 c 0,-6.192 3.672,-10.512 9.72,-10.512 h 6.48 c 0.216,0 0.36,-0.144 0.36,-0.36 v -0.648 c 0,-0.216 -0.144,-0.36 -0.36,-0.36 h -6.48 c -6.912,0 -11.16,5.04 -11.16,11.88 v 26.928 c 0,6.84 4.248,11.88 11.16,11.88 z" transform="translate(0 303.6960032705857) translate(297.9371108302905 53.73022545187973) scale(1.0485231722512056) translate(-376.47181 -69.456)"></path> 
   <path id="path371592" style="font-style: normal; font-weight: 200; font-size: 72px; line-height: 1; font-family: Phenomena; font-variant-ligatures: none; text-align: center; text-anchor: middle; fill: rgb(65, 135, 163);" d="m 403.42681,120 h 0.72 c 0.216,0 0.36,-0.144 0.36,-0.36 V 97.968 h 9.288 l 10.368,21.744 c 0.072,0.144 0.288,0.288 0.432,0.288 h 0.792 c 0.216,0 0.36,-0.216 0.288,-0.432 l -10.368,-21.6 c 5.04,-0.288 9.648,-5.256 9.648,-11.88 v -5.112 c 0,-6.84 -4.608,-11.88 -10.944,-11.88 -6.408,0 -10.944,5.04 -10.944,11.88 v 38.664 c 0,0.216 0.144,0.36 0.36,0.36 z m 1.08,-23.4 V 80.976 c 0,-6.192 3.96,-10.512 9.504,-10.512 5.616,0 9.504,4.32 9.504,10.512 v 5.112 c 0,6.192 -3.888,10.512 -9.504,10.512 z" transform="translate(0 303.6960032705857) translate(341.5504321800794 53.3527571098693) scale(1.0485231722512056) translate(-403.06681 -69.096)"></path> 
   <path id="path371594" style="font-style: normal; font-weight: 200; font-size: 72px; line-height: 1; font-family: Phenomena; font-variant-ligatures: none; text-align: center; text-anchor: middle; fill: rgb(65, 135, 163);" d="m 444.94156,120.504 c 6.624,0 11.16,-4.968 11.376,-11.448 0,-0.288 -0.144,-0.432 -0.36,-0.432 h -0.72 c -0.216,0 -0.36,0.144 -0.36,0.36 -0.144,5.832 -3.96,10.152 -9.936,10.152 -5.688,0 -9.936,-4.464 -9.936,-10.512 V 80.976 c 0,-5.976 4.248,-10.512 9.936,-10.512 5.76,0 9.432,4.392 9.576,10.152 0,0.216 0.144,0.36 0.36,0.36 h 0.72 c 0.216,0 0.36,-0.144 0.36,-0.36 -0.144,-6.408 -4.608,-11.52 -11.016,-11.52 -6.552,0 -11.376,5.256 -11.376,11.88 v 27.648 c 0,6.696 4.824,11.88 11.376,11.88 z" transform="translate(0 303.6960032705857) translate(389.2569258635439 53.3527571098693) scale(1.0485231722512056) translate(-433.56556 -69.096)"></path> 
   <path id="path371596" style="font-style: normal; font-weight: 200; font-size: 72px; line-height: 1; font-family: Phenomena; font-variant-ligatures: none; text-align: center; text-anchor: middle; fill: rgb(65, 135, 163);" d="m 474.95994,120.144 h 6.48 c 0.216,0 0.36,-0.144 0.36,-0.36 v -0.648 c 0,-0.216 -0.144,-0.36 -0.36,-0.36 h -6.48 c -6.048,0 -9.72,-4.32 -9.72,-10.512 V 95.016 h 14.76 c 0.216,0 0.36,-0.144 0.36,-0.36 v -0.648 c 0,-0.216 -0.144,-0.36 -0.36,-0.36 h -14.76 V 81.336 c 0,-6.192 3.672,-10.512 9.72,-10.512 h 6.48 c 0.216,0 0.36,-0.144 0.36,-0.36 v -0.648 c 0,-0.216 -0.144,-0.36 -0.36,-0.36 h -6.48 c -6.912,0 -11.16,5.04 -11.16,11.88 v 26.928 c 0,6.84 4.248,11.88 11.16,11.88 z" transform="translate(0 303.6960032705857) translate(436.6862214759604 53.73022545187973) scale(1.0485231722512056) translate(-463.79994 -69.456)"></path> 
   <path id="path371598" style="font-style: normal; font-weight: 200; font-size: 72px; line-height: 1; font-family: Phenomena; font-variant-ligatures: none; text-align: center; text-anchor: middle; fill: rgb(65, 135, 163);" d="m 490.75494,120 h 0.72 c 0.216,0 0.36,-0.144 0.36,-0.36 v -19.8 h 9.144 c 5.76,0 10.584,-5.04 10.584,-11.88 v -6.984 c 0,-6.84 -4.176,-11.88 -10.728,-11.88 -6.48,0 -10.44,5.04 -10.44,11.88 v 38.664 c 0,0.216 0.144,0.36 0.36,0.36 z m 1.08,-21.528 V 80.976 c 0,-6.192 3.384,-10.512 9,-10.512 5.832,0 9.288,4.32 9.288,10.512 v 6.984 c 0,6.192 -4.104,10.512 -9.144,10.512 z" transform="translate(0 303.6960032705857) translate(480.2995428257493 53.3527571098693) scale(1.0485231722512056) translate(-490.39494 -69.096)"></path> 
   <path id="path371600" style="font-style: normal; font-weight: 200; font-size: 72px; line-height: 1; font-family: Phenomena; font-variant-ligatures: none; text-align: center; text-anchor: middle; fill: rgb(65, 135, 163);" d="m 536.03281,69.6 h -20.88 c -0.216,0 -0.36,0.144 -0.36,0.36 v 0.648 c 0,0.216 0.144,0.36 0.36,0.36 h 9.72 v 48.672 c 0,0.216 0.144,0.36 0.36,0.36 h 0.72 c 0.216,0 0.36,-0.144 0.36,-0.36 V 70.968 h 9.72 c 0.216,0 0.36,-0.144 0.36,-0.36 V 69.96 c 0,-0.216 -0.144,-0.36 -0.36,-0.36 z" transform="translate(0 303.6960032705857) translate(521.6091224580899 53.8812127886839) scale(1.0485231722512056) translate(-514.79281 -69.6)"></path> 
   <path id="path371602" style="font-style: normal; font-weight: 200; font-size: 72px; line-height: 1; font-family: Phenomena; font-variant-ligatures: none; text-align: center; text-anchor: middle; fill: rgb(65, 135, 163);" d="m 544.05181,69.6 c -0.216,0 -0.36,0.144 -0.36,0.36 v 37.944 c 0,7.632 4.464,12.6 11.088,12.6 6.552,0 11.088,-4.968 11.088,-12.6 V 69.96 c 0,-0.216 -0.144,-0.36 -0.36,-0.36 h -0.72 c -0.216,0 -0.36,0.144 -0.36,0.36 v 37.944 c 0,6.984 -3.816,11.232 -9.648,11.232 -5.76,0 -9.648,-4.248 -9.648,-11.232 V 69.96 c 0,-0.216 -0.144,-0.36 -0.36,-0.36 z" transform="translate(0 303.6960032705857) translate(567.6382411967455 53.8812127886839) scale(1.0485231722512056) translate(-543.69181 -69.6)"></path> 
   <path id="path371604" style="font-style: normal; font-weight: 200; font-size: 72px; line-height: 1; font-family: Phenomena; font-variant-ligatures: none; text-align: center; text-anchor: middle; fill: rgb(65, 135, 163);" d="m 575.83306,120 h 0.72 c 0.216,0 0.36,-0.144 0.36,-0.36 v -19.584 h 19.368 v 19.584 c 0.072,0.216 0.216,0.36 0.432,0.36 h 0.72 c 0.216,0 0.36,-0.144 0.288,-0.36 V 81.696 c -0.072,-7.56 -4.536,-12.6 -11.16,-12.6 -6.624,0 -11.088,5.04 -11.088,12.6 v 37.944 c 0,0.216 0.144,0.36 0.36,0.36 z m 1.08,-21.312 V 81.696 c 0,-6.84 3.888,-11.232 9.648,-11.232 5.976,0 9.72,4.392 9.72,11.232 v 16.992 z" transform="translate(0 303.6960032705857) translate(616.6894658486221 53.3527571098693) scale(1.0485231722512056) translate(-575.47306 -69.096)"></path> 
   <path id="path371606" style="font-style: normal; font-weight: 200; font-size: 72px; line-height: 1; font-family: Phenomena; font-variant-ligatures: none; text-align: center; text-anchor: middle; fill: rgb(65, 135, 163);" d="m 619.25806,118.632 c -5.76,0 -9.72,-4.752 -9.72,-10.512 V 69.96 c 0,-0.216 -0.144,-0.36 -0.36,-0.36 h -0.72 c -0.216,0 -0.36,0.144 -0.36,0.36 v 38.16 c 0,6.552 4.68,11.88 11.16,11.88 h 5.4 c 0.216,0 0.36,-0.144 0.36,-0.36 v -0.648 c 0,-0.216 -0.144,-0.36 -0.36,-0.36 z" transform="translate(0 303.6960032705857) translate(666.6253819270858 53.8812127886839) scale(1.0485231722512056) translate(-608.09806 -69.6)"></path> 
   <path id="path371608" style="font-style: normal; font-weight: 200; font-size: 72px; line-height: 1; font-family: Phenomena; font-variant-ligatures: none; text-align: center; text-anchor: middle; fill: rgb(232, 230, 238);" d="m 640.48569,120.504 c 7.056,0 11.592,-4.896 11.592,-13.248 v -24.84 c 0,-8.424 -4.536,-13.32 -11.592,-13.32 -7.056,0 -11.592,4.896 -11.592,13.32 v 24.84 c 0,8.352 4.536,13.248 11.592,13.248 z m 0,-1.368 c -6.192,0 -10.152,-4.32 -10.152,-11.88 v -24.84 c 0,-7.632 3.96,-11.952 10.152,-11.952 6.192,0 10.152,4.32 10.152,11.952 v 24.84 c 0,7.56 -3.96,11.88 -10.152,11.88 z" transform="translate(0 303.6960032705857) translate(704.1579294474162 53.3527571098693) scale(1.0485231722512056) translate(-628.89369 -69.096)"></path> 
   <path id="path371610" style="font-style: normal; font-weight: 200; font-size: 72px; line-height: 1; font-family: Phenomena; font-variant-ligatures: none; text-align: center; text-anchor: middle; fill: rgb(232, 230, 238);" d="m 658.65219,69.96 v 0.648 c 0,0.216 0.144,0.36 0.36,0.36 h 18 l -12.168,48.6 c -0.072,0.288 0.144,0.432 0.36,0.432 h 0.72 c 0.216,0 0.288,-0.072 0.36,-0.288 l 12.24,-48.816 c 0.072,-0.36 0.072,-0.576 0.072,-0.864 0,-0.288 -0.216,-0.432 -0.432,-0.432 h -19.152 c -0.216,0 -0.36,0.144 -0.36,0.36 z" transform="translate(0 303.6960032705857) translate(751.088253852622 53.8812127886839) scale(1.0485231722512056) translate(-658.65219 -69.6)"></path> 
  </g> 
  <g id="tagline" style="font-style:oblique;font-weight:300;font-size:32px;line-height:1;font-family:'Fira Sans Condensed';font-variant-ligatures:none;text-align:center;text-anchor:middle"></g> 
 </g> 
</svg>