<svg xmlns:dc="http://purl.org/dc/elements/1.1/" xmlns:cc="http://creativecommons.org/ns#" xmlns:rdf="http://www.w3.org/1999/02/22-rdf-syntax-ns#" xmlns:svg="http://www.w3.org/2000/svg" xmlns="http://www.w3.org/2000/svg" id="svg91297" viewbox="0 0 1024 768" height="768px" width="1024px" version="1.1"> <metadata id="metadata91303"> 
  <rdf:rdf> 
   <cc:work rdf:about=""> 
    <dc:format>
     image/svg+xml
    </dc:format> 
    <dc:type rdf:resource="http://purl.org/dc/dcmitype/StillImage"></dc:type> 
   </cc:work> 
  </rdf:rdf> 
 </metadata> <defs id="defs91301"></defs> <g id="logo-group"> 
  <g id="title" style="font-style:normal;font-weight:700;font-size:72px;line-height:1;font-family:'Comfortaa Bold Alt1';font-variant-ligatures:none;text-align:center;text-anchor:middle" aria-label="PICTUREPERFECTO7"> 
   <path id="path91305" style="font-style: normal; font-weight: 700; font-size: 72px; line-height: 1; font-family: &quot;Comfortaa Bold Alt1&quot;; font-variant-ligatures: none; text-align: center; text-anchor: middle; fill: rgb(84, 64, 55);" d="m 143.03769,118.92 c 0.72,-0.648 1.08,-1.584 1.08,-2.664 v -13.608 c 0,-0.576 0.216,-1.08 0.648,-1.512 0.432,-0.432 0.936,-0.648 1.512,-0.648 h 8.496 c 3.528,0 6.696,-0.72 9.504,-2.304 2.808,-1.512 4.968,-3.6 6.552,-6.408 1.584,-2.664 2.376,-5.832 2.376,-9.36 0,-3.6 -0.792,-6.768 -2.376,-9.648 -1.584,-2.808 -3.744,-5.04 -6.552,-6.624 -2.808,-1.584 -5.976,-2.376 -9.504,-2.376 h -14.4 c -1.08,0 -2.016,0.36 -2.664,1.08 -0.72,0.72 -1.08,1.584 -1.08,2.664 v 48.744 c 0,1.08 0.36,1.944 1.08,2.664 0.72,0.72 1.584,1.08 2.664,1.08 1.08,0 1.944,-0.36 2.664,-1.08 z m 19.8,-28.44 c -2.16,2.088 -4.824,3.096 -8.064,3.096 h -8.496 c -0.576,0 -1.08,-0.216 -1.512,-0.648 -0.432,-0.432 -0.648,-0.936 -0.648,-1.512 V 72.84 c 0,-0.576 0.216,-1.08 0.648,-1.512 0.432,-0.432 0.936,-0.648 1.512,-0.648 h 8.496 c 3.24,0 5.904,1.152 8.064,3.312 2.088,2.232 3.168,5.04 3.168,8.424 0,3.312 -1.08,5.976 -3.168,8.064 z" transform="translate(0 327.973) translate(206.07889250000005 34.77799999999999) scale(0.75) translate(-136.62969 -63.768)"></path> 
   <path id="path91307" style="font-style: normal; font-weight: 700; font-size: 72px; line-height: 1; font-family: &quot;Comfortaa Bold Alt1&quot;; font-variant-ligatures: none; text-align: center; text-anchor: middle; fill: rgb(84, 64, 55);" d="m 182.56906,64.848 c -0.72,0.72 -1.08,1.584 -1.08,2.664 v 48.744 c 0,1.08 0.36,1.944 1.08,2.664 0.72,0.72 1.584,1.08 2.664,1.08 1.08,0 1.944,-0.36 2.664,-1.08 0.72,-0.72 1.08,-1.584 1.08,-2.664 V 67.512 c 0,-1.08 -0.36,-1.944 -1.08,-2.664 -0.72,-0.72 -1.584,-1.08 -2.664,-1.08 -1.08,0 -1.944,0.36 -2.664,1.08 z" transform="translate(0 327.973) translate(242.72342000000006 34.77799999999999) scale(0.75) translate(-181.48906 -63.768)"></path> 
   <path id="path91309" style="font-style: normal; font-weight: 700; font-size: 72px; line-height: 1; font-family: &quot;Comfortaa Bold Alt1&quot;; font-variant-ligatures: none; text-align: center; text-anchor: middle; fill: rgb(84, 64, 55);" d="m 238.05856,64.488 c -2.664,-0.936 -5.832,-1.44 -9.432,-1.44 -5.184,0 -9.864,1.296 -14.112,3.888 -4.248,2.592 -7.56,6.048 -10.008,10.44 -2.448,4.392 -3.672,9.216 -3.672,14.472 0,5.328 1.224,10.224 3.672,14.616 2.448,4.464 5.76,7.92 10.008,10.44 4.248,2.592 8.928,3.816 14.112,3.816 6.552,0 12.456,-2.088 17.64,-6.264 0.72,-0.72 1.152,-1.656 1.152,-2.664 0,-1.008 -0.36,-1.872 -0.936,-2.52 -0.576,-0.648 -1.368,-1.008 -2.232,-1.008 -0.792,0 -1.584,0.288 -2.376,0.864 -4.248,3.168 -8.64,4.752 -13.248,4.752 -3.744,0 -7.2,-0.936 -10.368,-2.952 -3.168,-1.944 -5.616,-4.608 -7.488,-7.992 -1.872,-3.312 -2.736,-7.056 -2.736,-11.088 0,-3.96 0.864,-7.632 2.736,-11.016 1.872,-3.384 4.32,-6.048 7.488,-8.064 3.168,-1.944 6.624,-2.952 10.368,-2.952 2.952,0 5.4,0.432 7.272,1.152 1.872,0.72 3.744,1.944 5.76,3.6 0.72,0.648 1.584,0.936 2.52,0.936 0.864,0 1.656,-0.288 2.376,-0.936 0.72,-0.576 1.08,-1.368 1.08,-2.376 0,-0.576 -0.144,-1.152 -0.288,-1.584 -0.216,-0.432 -0.576,-0.936 -1.152,-1.368 -2.736,-2.16 -5.472,-3.744 -8.136,-4.752 z" transform="translate(0 327.973) translate(260.2325450000001 34.238) scale(0.75) translate(-200.83456 -63.048)"></path> 
   <path id="path91311" style="font-style: normal; font-weight: 700; font-size: 72px; line-height: 1; font-family: &quot;Comfortaa Bold Alt1&quot;; font-variant-ligatures: none; text-align: center; text-anchor: middle; fill: rgb(84, 64, 55);" d="m 297.69931,64.776 c -0.648,-0.648 -1.44,-1.008 -2.448,-1.008 h -38.52 c -1.008,0 -1.872,0.36 -2.52,1.008 -0.648,0.648 -0.936,1.44 -0.936,2.448 0,1.008 0.288,1.872 0.936,2.52 0.648,0.648 1.512,0.936 2.52,0.936 h 13.392 c 0.576,0 1.08,0.216 1.512,0.648 0.432,0.432 0.648,0.936 0.648,1.512 v 43.416 c 0,1.08 0.36,1.944 1.08,2.664 0.72,0.72 1.584,1.08 2.664,1.08 1.008,0 1.944,-0.36 2.664,-1.08 0.72,-0.72 1.08,-1.584 1.08,-2.664 V 72.84 c 0,-0.576 0.216,-1.08 0.648,-1.512 0.432,-0.432 0.936,-0.648 1.512,-0.648 h 13.32 c 1.008,0 1.8,-0.288 2.448,-0.936 0.648,-0.648 1.008,-1.512 1.008,-2.52 0,-1.008 -0.36,-1.8 -1.008,-2.448 z" transform="translate(0 327.973) translate(302.56310750000006 34.77799999999999) scale(0.75) translate(-253.27531 -63.768)"></path> 
   <path id="path91313" style="font-style: normal; font-weight: 700; font-size: 72px; line-height: 1; font-family: &quot;Comfortaa Bold Alt1&quot;; font-variant-ligatures: none; text-align: center; text-anchor: middle; fill: rgb(84, 64, 55);" d="m 308.00656,64.848 c -0.72,0.72 -1.08,1.584 -1.08,2.664 v 33.624 c 0,3.888 0.936,7.344 2.952,10.368 2.016,3.024 4.752,5.4 8.352,7.128 3.6,1.728 7.632,2.52 12.24,2.52 4.392,0 8.352,-0.792 11.808,-2.52 3.456,-1.728 6.192,-4.104 8.136,-7.128 1.944,-3.024 2.952,-6.48 2.952,-10.368 V 67.512 c 0,-1.08 -0.36,-1.944 -1.08,-2.664 -0.72,-0.72 -1.584,-1.08 -2.592,-1.08 -1.08,0 -1.944,0.36 -2.664,1.08 -0.72,0.72 -1.08,1.584 -1.08,2.664 v 33.624 c 0,2.592 -0.72,4.824 -2.016,6.84 -1.296,2.016 -3.168,3.6 -5.472,4.752 -2.376,1.152 -5.04,1.656 -7.992,1.656 -3.168,0 -5.904,-0.504 -8.352,-1.656 -2.448,-1.152 -4.32,-2.736 -5.688,-4.752 -1.368,-2.016 -2.016,-4.248 -2.016,-6.84 V 67.512 c 0,-1.08 -0.36,-1.944 -1.08,-2.664 -0.72,-0.72 -1.584,-1.08 -2.664,-1.08 -1.08,0 -1.944,0.36 -2.664,1.08 z" transform="translate(0 327.973) translate(345.80154500000003 34.77799999999999) scale(0.75) translate(-306.92656 -63.768)"></path> 
   <path id="path91315" style="font-style: normal; font-weight: 700; font-size: 72px; line-height: 1; font-family: &quot;Comfortaa Bold Alt1&quot;; font-variant-ligatures: none; text-align: center; text-anchor: middle; fill: rgb(84, 64, 55);" d="m 405.04119,116.616 c 0,-0.792 -0.288,-1.584 -0.72,-2.376 l -9.864,-15.696 c -0.288,-0.504 -0.36,-1.08 -0.216,-1.656 0.144,-0.576 0.432,-1.008 0.936,-1.368 2.088,-1.224 3.816,-2.88 5.184,-4.968 1.728,-2.592 2.592,-5.616 2.592,-9.072 0,-3.456 -0.792,-6.48 -2.376,-9.216 -1.584,-2.664 -3.744,-4.752 -6.552,-6.264 -2.808,-1.44 -5.976,-2.232 -9.504,-2.232 h -12.96 c -1.08,0 -2.016,0.36 -2.664,1.08 -0.72,0.72 -1.08,1.584 -1.08,2.664 v 48.744 c 0,1.08 0.36,1.944 1.08,2.664 0.72,0.72 1.584,1.08 2.664,1.08 1.08,0 1.944,-0.36 2.664,-1.08 0.72,-0.648 1.08,-1.584 1.08,-2.664 v -15.768 c 0,-0.576 0.144,-1.08 0.576,-1.512 0.432,-0.432 0.936,-0.648 1.512,-0.648 h 7.128 0.072 c 0.792,0 1.368,0.36 1.8,1.08 l 11.808,18.792 c 0.72,1.224 1.8,1.8 3.24,1.8 1.08,0 1.944,-0.288 2.592,-0.936 0.648,-0.648 1.008,-1.44 1.008,-2.448 z m -20.52,-25.2 h -7.128 c -0.576,0 -1.08,-0.144 -1.512,-0.576 -0.432,-0.432 -0.576,-0.936 -0.576,-1.512 V 72.84 c 0,-0.576 0.144,-1.08 0.576,-1.512 0.432,-0.432 0.936,-0.648 1.512,-0.648 h 7.128 c 3.24,0 5.904,1.008 8.064,3.024 2.088,2.016 3.168,4.608 3.168,7.776 0,2.952 -1.08,5.328 -3.168,7.2 -2.16,1.872 -4.824,2.736 -8.064,2.736 z" transform="translate(0 327.973) translate(394.4695175 34.77799999999999) scale(0.75) translate(-367.81719 -63.768)"></path> 
   <path id="path91317" style="font-style: normal; font-weight: 700; font-size: 72px; line-height: 1; font-family: &quot;Comfortaa Bold Alt1&quot;; font-variant-ligatures: none; text-align: center; text-anchor: middle; fill: rgb(84, 64, 55);" d="m 452.33169,114.024 c -0.72,-0.576 -1.584,-0.936 -2.664,-0.936 h -26.64 c -0.648,0 -1.152,-0.144 -1.584,-0.576 -0.432,-0.432 -0.576,-0.936 -0.576,-1.584 V 97.32 c 0,-0.648 0.144,-1.152 0.576,-1.584 0.432,-0.432 0.936,-0.648 1.584,-0.648 h 18.504 c 1.008,0 1.872,-0.288 2.592,-0.936 0.72,-0.648 1.08,-1.44 1.08,-2.52 0,-1.008 -0.36,-1.8 -1.08,-2.448 -0.72,-0.648 -1.584,-1.008 -2.592,-1.008 h -18.504 c -0.648,0 -1.152,-0.144 -1.584,-0.576 -0.432,-0.432 -0.576,-0.936 -0.576,-1.584 V 72.912 c 0,-0.648 0.144,-1.152 0.576,-1.584 0.432,-0.432 0.936,-0.648 1.584,-0.648 h 26.64 c 1.08,0 1.944,-0.288 2.664,-0.936 0.648,-0.576 1.008,-1.44 1.008,-2.448 0,-1.008 -0.36,-1.872 -1.008,-2.52 -0.72,-0.648 -1.584,-1.008 -2.664,-1.008 h -32.544 c -1.08,0 -2.016,0.36 -2.664,1.08 -0.72,0.72 -1.08,1.584 -1.08,2.664 v 48.744 c 0,1.08 0.36,1.944 1.08,2.664 0.72,0.72 1.584,1.08 2.664,1.08 h 32.544 c 1.08,0 1.944,-0.288 2.664,-0.936 0.648,-0.648 1.008,-1.512 1.008,-2.592 0,-1.008 -0.36,-1.8 -1.008,-2.448 z" transform="translate(0 327.973) translate(431.6413925 34.77799999999999) scale(0.75) translate(-413.37969 -63.768)"></path> 
   <path id="path91319" style="font-style: normal; font-weight: 700; font-size: 72px; line-height: 1; font-family: &quot;Comfortaa Bold Alt1&quot;; font-variant-ligatures: none; text-align: center; text-anchor: middle; fill: rgb(84, 64, 55);" d="m 470.13144,118.92 c 0.72,-0.648 1.08,-1.584 1.08,-2.664 v -13.608 c 0,-0.576 0.216,-1.08 0.648,-1.512 0.432,-0.432 0.936,-0.648 1.512,-0.648 h 8.496 c 3.528,0 6.696,-0.72 9.504,-2.304 2.808,-1.512 4.968,-3.6 6.552,-6.408 1.584,-2.664 2.376,-5.832 2.376,-9.36 0,-3.6 -0.792,-6.768 -2.376,-9.648 -1.584,-2.808 -3.744,-5.04 -6.552,-6.624 -2.808,-1.584 -5.976,-2.376 -9.504,-2.376 h -14.4 c -1.08,0 -2.016,0.36 -2.664,1.08 -0.72,0.72 -1.08,1.584 -1.08,2.664 v 48.744 c 0,1.08 0.36,1.944 1.08,2.664 0.72,0.72 1.584,1.08 2.664,1.08 1.08,0 1.944,-0.36 2.664,-1.08 z m 19.8,-28.44 c -2.16,2.088 -4.824,3.096 -8.064,3.096 h -8.496 c -0.576,0 -1.08,-0.216 -1.512,-0.648 -0.432,-0.432 -0.648,-0.936 -0.648,-1.512 V 72.84 c 0,-0.576 0.216,-1.08 0.648,-1.512 0.432,-0.432 0.936,-0.648 1.512,-0.648 h 8.496 c 3.24,0 5.904,1.152 8.064,3.312 2.088,2.232 3.168,5.04 3.168,8.424 0,3.312 -1.08,5.976 -3.168,8.064 z" transform="translate(0 327.973) translate(472.399205 34.77799999999999) scale(0.75) translate(-463.72344 -63.768)"></path> 
   <path id="path91321" style="font-style: normal; font-weight: 700; font-size: 72px; line-height: 1; font-family: &quot;Comfortaa Bold Alt1&quot;; font-variant-ligatures: none; text-align: center; text-anchor: middle; fill: rgb(84, 64, 55);" d="m 547.53481,114.024 c -0.72,-0.576 -1.584,-0.936 -2.664,-0.936 h -26.64 c -0.648,0 -1.152,-0.144 -1.584,-0.576 -0.432,-0.432 -0.576,-0.936 -0.576,-1.584 V 97.32 c 0,-0.648 0.144,-1.152 0.576,-1.584 0.432,-0.432 0.936,-0.648 1.584,-0.648 h 18.504 c 1.008,0 1.872,-0.288 2.592,-0.936 0.72,-0.648 1.08,-1.44 1.08,-2.52 0,-1.008 -0.36,-1.8 -1.08,-2.448 -0.72,-0.648 -1.584,-1.008 -2.592,-1.008 h -18.504 c -0.648,0 -1.152,-0.144 -1.584,-0.576 -0.432,-0.432 -0.576,-0.936 -0.576,-1.584 V 72.912 c 0,-0.648 0.144,-1.152 0.576,-1.584 0.432,-0.432 0.936,-0.648 1.584,-0.648 h 26.64 c 1.08,0 1.944,-0.288 2.664,-0.936 0.648,-0.576 1.008,-1.44 1.008,-2.448 0,-1.008 -0.36,-1.872 -1.008,-2.52 -0.72,-0.648 -1.584,-1.008 -2.664,-1.008 h -32.544 c -1.08,0 -2.016,0.36 -2.664,1.08 -0.72,0.72 -1.08,1.584 -1.08,2.664 v 48.744 c 0,1.08 0.36,1.944 1.08,2.664 0.72,0.72 1.584,1.08 2.664,1.08 h 32.544 c 1.08,0 1.944,-0.288 2.664,-0.936 0.648,-0.648 1.008,-1.512 1.008,-2.592 0,-1.008 -0.36,-1.8 -1.008,-2.448 z" transform="translate(0 327.973) translate(509.04373250000003 34.77799999999999) scale(0.75) translate(-508.58281 -63.768)"></path> 
   <path id="path91323" style="font-style: normal; font-weight: 700; font-size: 72px; line-height: 1; font-family: &quot;Comfortaa Bold Alt1&quot;; font-variant-ligatures: none; text-align: center; text-anchor: middle; fill: rgb(84, 64, 55);" d="m 596.15056,116.616 c 0,-0.792 -0.288,-1.584 -0.72,-2.376 l -9.864,-15.696 c -0.288,-0.504 -0.36,-1.08 -0.216,-1.656 0.144,-0.576 0.432,-1.008 0.936,-1.368 2.088,-1.224 3.816,-2.88 5.184,-4.968 1.728,-2.592 2.592,-5.616 2.592,-9.072 0,-3.456 -0.792,-6.48 -2.376,-9.216 -1.584,-2.664 -3.744,-4.752 -6.552,-6.264 -2.808,-1.44 -5.976,-2.232 -9.504,-2.232 h -12.96 c -1.08,0 -2.016,0.36 -2.664,1.08 -0.72,0.72 -1.08,1.584 -1.08,2.664 v 48.744 c 0,1.08 0.36,1.944 1.08,2.664 0.72,0.72 1.584,1.08 2.664,1.08 1.08,0 1.944,-0.36 2.664,-1.08 0.72,-0.648 1.08,-1.584 1.08,-2.664 v -15.768 c 0,-0.576 0.144,-1.08 0.576,-1.512 0.432,-0.432 0.936,-0.648 1.512,-0.648 h 7.128 0.072 c 0.792,0 1.368,0.36 1.8,1.08 l 11.808,18.792 c 0.72,1.224 1.8,1.8 3.24,1.8 1.08,0 1.944,-0.288 2.592,-0.936 0.648,-0.648 1.008,-1.44 1.008,-2.448 z m -20.52,-25.2 h -7.128 c -0.576,0 -1.08,-0.144 -1.512,-0.576 -0.432,-0.432 -0.576,-0.936 -0.576,-1.512 V 72.84 c 0,-0.576 0.144,-1.08 0.576,-1.512 0.432,-0.432 0.936,-0.648 1.512,-0.648 h 7.128 c 3.24,0 5.904,1.008 8.064,3.024 2.088,2.016 3.168,4.608 3.168,7.776 0,2.952 -1.08,5.328 -3.168,7.2 -2.16,1.872 -4.824,2.736 -8.064,2.736 z" transform="translate(0 327.973) translate(549.801545 34.77799999999999) scale(0.75) translate(-558.92656 -63.768)"></path> 
   <path id="path91325" style="font-style: normal; font-weight: 700; font-size: 72px; line-height: 1; font-family: &quot;Comfortaa Bold Alt1&quot;; font-variant-ligatures: none; text-align: center; text-anchor: middle; fill: rgb(84, 64, 55);" d="m 630.69706,89.184 c -0.72,-0.648 -1.584,-1.008 -2.592,-1.008 h -18.504 c -0.648,0 -1.152,-0.144 -1.584,-0.576 -0.432,-0.432 -0.576,-0.936 -0.576,-1.584 V 72.912 c 0,-0.648 0.144,-1.152 0.576,-1.584 0.432,-0.432 0.936,-0.648 1.584,-0.648 h 26.64 c 1.08,0 1.944,-0.288 2.664,-0.936 0.648,-0.576 1.008,-1.44 1.008,-2.448 0,-1.008 -0.36,-1.872 -1.008,-2.52 -0.72,-0.648 -1.584,-1.008 -2.664,-1.008 h -32.544 c -1.08,0 -2.016,0.36 -2.664,1.08 -0.72,0.72 -1.08,1.584 -1.08,2.664 v 48.744 c 0,1.08 0.36,1.944 1.08,2.664 0.72,0.72 1.584,1.08 2.664,1.08 1.008,0 1.944,-0.36 2.664,-1.08 0.72,-0.72 1.08,-1.584 1.08,-2.664 V 97.32 c 0,-0.648 0.144,-1.152 0.576,-1.584 0.432,-0.432 0.936,-0.648 1.584,-0.648 h 18.504 c 1.008,0 1.872,-0.288 2.592,-0.936 0.72,-0.648 1.08,-1.44 1.08,-2.52 0,-1.008 -0.36,-1.8 -1.08,-2.448 z" transform="translate(0 327.973) translate(583.57142 34.77799999999999) scale(0.75) translate(-599.95306 -63.768)"></path> 
   <path id="path91327" style="font-style: normal; font-weight: 700; font-size: 72px; line-height: 1; font-family: &quot;Comfortaa Bold Alt1&quot;; font-variant-ligatures: none; text-align: center; text-anchor: middle; fill: rgb(84, 64, 55);" d="m 688.44106,114.024 c -0.72,-0.576 -1.584,-0.936 -2.664,-0.936 h -26.64 c -0.648,0 -1.152,-0.144 -1.584,-0.576 -0.432,-0.432 -0.576,-0.936 -0.576,-1.584 V 97.32 c 0,-0.648 0.144,-1.152 0.576,-1.584 0.432,-0.432 0.936,-0.648 1.584,-0.648 h 18.504 c 1.008,0 1.872,-0.288 2.592,-0.936 0.72,-0.648 1.08,-1.44 1.08,-2.52 0,-1.008 -0.36,-1.8 -1.08,-2.448 -0.72,-0.648 -1.584,-1.008 -2.592,-1.008 h -18.504 c -0.648,0 -1.152,-0.144 -1.584,-0.576 -0.432,-0.432 -0.576,-0.936 -0.576,-1.584 V 72.912 c 0,-0.648 0.144,-1.152 0.576,-1.584 0.432,-0.432 0.936,-0.648 1.584,-0.648 h 26.64 c 1.08,0 1.944,-0.288 2.664,-0.936 0.648,-0.576 1.008,-1.44 1.008,-2.448 0,-1.008 -0.36,-1.872 -1.008,-2.52 -0.72,-0.648 -1.584,-1.008 -2.664,-1.008 h -32.544 c -1.08,0 -2.016,0.36 -2.664,1.08 -0.72,0.72 -1.08,1.584 -1.08,2.664 v 48.744 c 0,1.08 0.36,1.944 1.08,2.664 0.72,0.72 1.584,1.08 2.664,1.08 h 32.544 c 1.08,0 1.944,-0.288 2.664,-0.936 0.648,-0.648 1.008,-1.512 1.008,-2.592 0,-1.008 -0.36,-1.8 -1.008,-2.448 z" transform="translate(0 327.973) translate(623.7234199999999 34.77799999999999) scale(0.75) translate(-649.48906 -63.768)"></path> 
   <path id="path91329" style="font-style: normal; font-weight: 700; font-size: 72px; line-height: 1; font-family: &quot;Comfortaa Bold Alt1&quot;; font-variant-ligatures: none; text-align: center; text-anchor: middle; fill: rgb(84, 64, 55);" d="m 734.46481,64.488 c -2.664,-0.936 -5.832,-1.44 -9.432,-1.44 -5.184,0 -9.864,1.296 -14.112,3.888 -4.248,2.592 -7.56,6.048 -10.008,10.44 -2.448,4.392 -3.672,9.216 -3.672,14.472 0,5.328 1.224,10.224 3.672,14.616 2.448,4.464 5.76,7.92 10.008,10.44 4.248,2.592 8.928,3.816 14.112,3.816 6.552,0 12.456,-2.088 17.64,-6.264 0.72,-0.72 1.152,-1.656 1.152,-2.664 0,-1.008 -0.36,-1.872 -0.936,-2.52 -0.576,-0.648 -1.368,-1.008 -2.232,-1.008 -0.792,0 -1.584,0.288 -2.376,0.864 -4.248,3.168 -8.64,4.752 -13.248,4.752 -3.744,0 -7.2,-0.936 -10.368,-2.952 -3.168,-1.944 -5.616,-4.608 -7.488,-7.992 -1.872,-3.312 -2.736,-7.056 -2.736,-11.088 0,-3.96 0.864,-7.632 2.736,-11.016 1.872,-3.384 4.32,-6.048 7.488,-8.064 3.168,-1.944 6.624,-2.952 10.368,-2.952 2.952,0 5.4,0.432 7.272,1.152 1.872,0.72 3.744,1.944 5.76,3.6 0.72,0.648 1.584,0.936 2.52,0.936 0.864,0 1.656,-0.288 2.376,-0.936 0.72,-0.576 1.08,-1.368 1.08,-2.376 0,-0.576 -0.144,-1.152 -0.288,-1.584 -0.216,-0.432 -0.576,-0.936 -1.152,-1.368 -2.736,-2.16 -5.472,-3.744 -8.136,-4.752 z" transform="translate(0 327.973) translate(662.5372325 34.238) scale(0.75) translate(-697.24081 -63.048)"></path> 
   <path id="path91331" style="font-style: normal; font-weight: 700; font-size: 72px; line-height: 1; font-family: &quot;Comfortaa Bold Alt1&quot;; font-variant-ligatures: none; text-align: center; text-anchor: middle; fill: rgb(84, 64, 55);" d="m 794.10556,64.776 c -0.648,-0.648 -1.44,-1.008 -2.448,-1.008 h -38.52 c -1.008,0 -1.872,0.36 -2.52,1.008 -0.648,0.648 -0.936,1.44 -0.936,2.448 0,1.008 0.288,1.872 0.936,2.52 0.648,0.648 1.512,0.936 2.52,0.936 h 13.392 c 0.576,0 1.08,0.216 1.512,0.648 0.432,0.432 0.648,0.936 0.648,1.512 v 43.416 c 0,1.08 0.36,1.944 1.08,2.664 0.72,0.72 1.584,1.08 2.664,1.08 1.008,0 1.944,-0.36 2.664,-1.08 0.72,-0.72 1.08,-1.584 1.08,-2.664 V 72.84 c 0,-0.576 0.216,-1.08 0.648,-1.512 0.432,-0.432 0.936,-0.648 1.512,-0.648 h 13.32 c 1.008,0 1.8,-0.288 2.448,-0.936 0.648,-0.648 1.008,-1.512 1.008,-2.52 0,-1.008 -0.36,-1.8 -1.008,-2.448 z" transform="translate(0 327.973) translate(704.867795 34.77799999999999) scale(0.75) translate(-749.68156 -63.768)"></path> 
   <path id="path91333" style="font-style: normal; font-weight: 700; font-size: 72px; line-height: 1; font-family: &quot;Comfortaa Bold Alt1&quot;; font-variant-ligatures: none; text-align: center; text-anchor: middle; fill: rgb(112, 88, 75);" d="m 825.59656,120.72 c 3.888,0 7.632,-0.72 11.232,-2.232 3.456,-1.44 6.48,-3.528 9.144,-6.192 2.664,-2.664 4.752,-5.688 6.192,-9.144 1.512,-3.6 2.304,-7.344 2.304,-11.232 0,-3.888 -0.792,-7.632 -2.304,-11.232 -1.44,-3.456 -3.528,-6.48 -6.192,-9.144 -2.664,-2.664 -5.688,-4.752 -9.144,-6.192 -3.6,-1.512 -7.344,-2.304 -11.232,-2.304 -3.888,0 -7.632,0.792 -11.232,2.304 -3.456,1.44 -6.48,3.528 -9.144,6.192 -2.664,2.664 -4.752,5.688 -6.192,9.144 -1.512,3.6 -2.232,7.344 -2.232,11.232 0,3.888 0.72,7.632 2.232,11.232 1.44,3.456 3.528,6.48 6.192,9.144 2.664,2.664 5.688,4.752 9.144,6.192 3.6,1.512 7.344,2.232 11.232,2.232 z m 0,-50.616 c 6.048,0 11.16,2.16 15.408,6.408 4.248,4.248 6.408,9.36 6.408,15.408 0,6.048 -2.16,11.16 -6.408,15.408 -4.248,4.248 -9.36,6.336 -15.408,6.336 -6.048,0 -11.16,-2.088 -15.408,-6.336 -4.248,-4.248 -6.336,-9.36 -6.336,-15.408 0,-6.048 2.088,-11.16 6.336,-15.408 4.248,-4.248 9.36,-6.408 15.408,-6.408 z" transform="translate(0 327.973) translate(743.204045 34.238) scale(0.75) translate(-796.79656 -63.048)"></path> 
   <path id="path91335" style="font-style: normal; font-weight: 700; font-size: 72px; line-height: 1; font-family: &quot;Comfortaa Bold Alt1&quot;; font-variant-ligatures: none; text-align: center; text-anchor: middle; fill: rgb(112, 88, 75);" d="m 858.65131,70.104 c 0.72,0.72 1.584,1.008 2.664,1.008 h 21.888 l -20.664,42.912 c -0.432,0.864 -0.648,1.656 -0.648,2.304 0,1.008 0.36,1.872 1.08,2.592 0.72,0.72 1.512,1.08 2.52,1.08 0.648,0 1.296,-0.144 1.944,-0.504 0.576,-0.36 1.08,-0.864 1.44,-1.512 l 23.04,-48.6 c 0.288,-0.72 0.504,-1.368 0.504,-1.944 0,-1.008 -0.36,-1.872 -1.08,-2.592 -0.72,-0.72 -1.584,-1.08 -2.592,-1.08 h -27.432 c -1.08,0 -1.944,0.36 -2.664,1.08 -0.72,0.72 -1.008,1.584 -1.008,2.592 0,1.08 0.288,1.944 1.008,2.664 z" transform="translate(0 327.973) translate(791.8391075 34.77799999999999) scale(0.75) translate(-857.64331 -63.768)"></path> 
  </g> 
  <g id="tagline" style="font-style:normal;font-weight:500;font-size:32px;line-height:1;font-family:Raleway;font-variant-ligatures:none;text-align:center;text-anchor:middle"></g> 
 </g> 
</svg>