<svg xmlns:dc="http://purl.org/dc/elements/1.1/" xmlns:cc="http://creativecommons.org/ns#" xmlns:rdf="http://www.w3.org/1999/02/22-rdf-syntax-ns#" xmlns:svg="http://www.w3.org/2000/svg" xmlns="http://www.w3.org/2000/svg" id="svg122038" viewbox="0 0 1024 768" height="768px" width="1024px" version="1.1"> <metadata id="metadata122044"> 
  <rdf:rdf> 
   <cc:work rdf:about=""> 
    <dc:format>
     image/svg+xml
    </dc:format> 
    <dc:type rdf:resource="http://purl.org/dc/dcmitype/StillImage"></dc:type> 
   </cc:work> 
  </rdf:rdf> 
 </metadata> <defs id="defs122042"></defs> <g id="logo-group"> 
  <g id="title" style="font-style:normal;font-weight:700;font-size:72px;line-height:1;font-family:Phenomena;font-variant-ligatures:none;text-align:center;text-anchor:middle" aria-label="PINEAPPLEO7"> 
   <path id="path122046" style="font-style: normal; font-weight: 700; font-size: 72px; line-height: 1; font-family: Phenomena; font-variant-ligatures: none; text-align: center; text-anchor: middle; fill: rgb(218, 214, 202);" d="m 365.93337,120 h 4.60801 c 0.57599,0 0.93599,-0.36 0.93599,-1.008 v -17.136 h 5.688 c 7.488,0 12.312,-5.04 12.312,-12.384 v -7.344 c 0,-7.848 -4.896,-13.32 -12.384,-13.32 -7.416,0 -12.096,5.472 -12.096,13.32 v 36.864 c 0,0.648 0.36,1.008 0.936,1.008 z m 5.544,-24.192 V 81.84 c 0,-4.176 2.16001,-6.912 5.688,-6.912 3.528,0 5.76,2.736 5.76,6.912 v 7.776 c 0,3.888 -2.232,6.192 -5.976,6.192 z" transform="translate(0 268.15609452528076) translate(251.99999999999994 78.96254906825884) scale(1.420918338975974) translate(-364.99737 -68.808)"></path> 
   <path id="path122048" style="font-style: normal; font-weight: 700; font-size: 72px; line-height: 1; font-family: Phenomena; font-variant-ligatures: none; text-align: center; text-anchor: middle; fill: rgb(218, 214, 202);" d="m 395.66375,70.536 v 48.456 c 0,0.648 0.36,1.008 1.008,1.008 h 4.536 c 0.576,0 0.936,-0.36 0.936,-1.008 V 70.536 c 0,-0.576 -0.36,-0.936 -0.936,-0.936 h -4.536 c -0.648,0 -1.008,0.36 -1.008,0.936 z" transform="translate(0 268.15609452528076) translate(305.5208501048378 80.08791639272776) scale(1.420918338975974) translate(-395.66375 -69.6)"></path> 
   <path id="path122050" style="font-style: normal; font-weight: 700; font-size: 72px; line-height: 1; font-family: Phenomena; font-variant-ligatures: none; text-align: center; text-anchor: middle; fill: rgb(218, 214, 202);" d="m 411.35525,120 h 4.608 c 0.576,0 0.936,-0.36 0.936,-1.008 V 81.768 c 0,-4.104 2.232,-6.84 5.832,-6.84 3.6,0 5.832,2.736 5.832,6.84 v 37.224 c 0,0.648 0.432,1.008 1.008,1.008 h 4.536 c 0.648,0 1.008,-0.36 1.008,-1.008 V 82.056 c 0,-7.776 -4.896,-13.248 -12.384,-13.248 -7.488,0 -12.312,5.472 -12.312,13.248 v 36.936 c 0,0.648 0.36,1.008 0.936,1.008 z" transform="translate(0 268.15609452528076) translate(336.4336390284296 78.96254906825884) scale(1.420918338975974) translate(-410.41925 -68.808)"></path> 
   <path id="path122052" style="font-style: normal; font-weight: 700; font-size: 72px; line-height: 1; font-family: Phenomena; font-variant-ligatures: none; text-align: center; text-anchor: middle; fill: rgb(218, 214, 202);" d="m 454.42363,120.216 h 7.56 c 0.57599,0 0.93599,-0.36 0.93599,-0.936 v -4.104 c 0,-0.648 -0.36,-1.008 -0.93599,-1.008 h -7.05601 c -3.744,0 -6.26399,-2.88 -6.26399,-6.984 v -9.72 h 11.51999 c 0.648,0 1.008,-0.36 1.008,-1.008 v -3.888 c 0,-0.648 -0.36,-1.008 -1.008,-1.008 h -11.51999 v -9.144 c 0,-4.104 2.51999,-6.984 6.26399,-6.984 h 7.05601 c 0.57599,0 0.93599,-0.36 0.93599,-1.008 V 70.32 c 0,-0.576 -0.36,-0.936 -0.93599,-0.936 h -7.56 c -7.272,0 -12.31201,5.472 -12.31201,12.888 v 25.056 c 0,7.416 5.04001,12.888 12.31201,12.888 z" transform="translate(0 268.15609452528076) translate(391.4123371398734 79.78099803150899) scale(1.420918338975974) translate(-442.11162 -69.384)"></path> 
   <path id="path122054" style="font-style: normal; font-weight: 700; font-size: 72px; line-height: 1; font-family: Phenomena; font-variant-ligatures: none; text-align: center; text-anchor: middle; fill: rgb(218, 214, 202);" d="m 469.85525,120 h 4.608 c 0.576,0 0.936,-0.36 0.936,-1.008 v -15.984 h 11.664 v 15.984 c 0,0.648 0.432,1.008 1.008,1.008 h 4.536 c 0.648,0 1.008,-0.36 1.008,-1.008 V 82.128 c 0,-7.92 -4.968,-13.248 -12.384,-13.248 -7.416,0 -12.312,5.328 -12.312,13.248 v 36.864 c 0,0.648 0.36,1.008 0.936,1.008 z m 5.544,-22.968 V 81.84 c 0,-4.32 2.16,-6.84 5.832,-6.84 3.744,0 5.832,2.52 5.832,6.84 v 15.192 z" transform="translate(0 268.15609452528076) translate(439.4502186041877 79.06485518866508) scale(1.420918338975974) translate(-468.91925 -68.88)"></path> 
   <path id="path122056" style="font-style: normal; font-weight: 700; font-size: 72px; line-height: 1; font-family: Phenomena; font-variant-ligatures: none; text-align: center; text-anchor: middle; fill: rgb(218, 214, 202);" d="m 502.33962,120 h 4.60801 c 0.57599,0 0.93599,-0.36 0.93599,-1.008 v -17.136 h 5.68801 c 7.48799,0 12.312,-5.04 12.312,-12.384 v -7.344 c 0,-7.848 -4.89601,-13.32 -12.384,-13.32 -7.41601,0 -12.09601,5.472 -12.09601,13.32 v 36.864 c 0,0.648 0.36,1.008 0.936,1.008 z m 5.544,-24.192 V 81.84 c 0,-4.176 2.16001,-6.912 5.68801,-6.912 3.528,0 5.76,2.736 5.76,6.912 v 7.776 c 0,3.888 -2.232,6.192 -5.976,6.192 z" transform="translate(0 268.15609452528076) translate(495.5542840401004 78.96254906825884) scale(1.420918338975974) translate(-501.40362 -68.808)"></path> 
   <path id="path122058" style="font-style: normal; font-weight: 700; font-size: 72px; line-height: 1; font-family: Phenomena; font-variant-ligatures: none; text-align: center; text-anchor: middle; fill: rgb(218, 214, 202);" d="m 532.574,120 h 4.608 c 0.576,0 0.936,-0.36 0.936,-1.008 v -17.136 h 5.688 c 7.488,0 12.312,-5.04 12.312,-12.384 v -7.344 c 0,-7.848 -4.896,-13.32 -12.384,-13.32 -7.416,0 -12.096,5.472 -12.096,13.32 v 36.864 c 0,0.648 0.36,1.008 0.936,1.008 z m 5.544,-24.192 V 81.84 c 0,-4.176 2.16,-6.912 5.688,-6.912 3.528,0 5.76,2.736 5.76,6.912 v 7.776 c 0,3.888 -2.232,6.192 -5.976,6.192 z" transform="translate(0 268.15609452528076) translate(548.4612974225006 78.96254906825884) scale(1.420918338975974) translate(-531.638 -68.808)"></path> 
   <path id="path122060" style="font-style: normal; font-weight: 700; font-size: 72px; line-height: 1; font-family: Phenomena; font-variant-ligatures: none; text-align: center; text-anchor: middle; fill: rgb(218, 214, 202);" d="m 573.83113,114.168 c -3.312,0 -5.688,-2.736 -5.688,-6.84 V 70.536 c 0,-0.576 -0.36,-0.936 -1.008,-0.936 h -4.60801 c -0.57599,0 -0.93599,0.36 -0.93599,0.936 v 37.008 c 0,7.2 4.53599,12.672 11.88,12.672 h 7.27199 c 0.648,0 1.008,-0.36 1.008,-0.936 v -4.104 c 0,-0.648 -0.36,-1.008 -1.008,-1.008 z" transform="translate(0 268.15609452528076) translate(600.9686775220638 80.08791639272776) scale(1.420918338975974) translate(-561.59113 -69.6)"></path> 
   <path id="path122062" style="font-style: normal; font-weight: 700; font-size: 72px; line-height: 1; font-family: Phenomena; font-variant-ligatures: none; text-align: center; text-anchor: middle; fill: rgb(218, 214, 202);" d="m 596.17363,120.216 h 7.55999 c 0.576,0 0.936,-0.36 0.936,-0.936 v -4.104 c 0,-0.648 -0.36,-1.008 -0.936,-1.008 h -7.05599 c -3.74401,0 -6.264,-2.88 -6.264,-6.984 v -9.72 h 11.51999 c 0.64801,0 1.00801,-0.36 1.00801,-1.008 v -3.888 c 0,-0.648 -0.36,-1.008 -1.00801,-1.008 h -11.51999 v -9.144 c 0,-4.104 2.51999,-6.984 6.264,-6.984 h 7.05599 c 0.576,0 0.936,-0.36 0.936,-1.008 V 70.32 c 0,-0.576 -0.36,-0.936 -0.936,-0.936 h -7.55999 c -7.27201,0 -12.31201,5.472 -12.31201,12.888 v 25.056 c 0,7.416 5.04,12.888 12.31201,12.888 z" transform="translate(0 268.15609452528076) translate(642.5596535538766 79.78099803150899) scale(1.420918338975974) translate(-583.86162 -69.384)"></path> 
   <path id="path122064" style="font-style: normal; font-weight: 700; font-size: 72px; line-height: 1; font-family: Phenomena; font-variant-ligatures: none; text-align: center; text-anchor: middle; fill: rgb(190, 126, 20);" d="m 622.62125,120.72 c 7.488,0 12.672,-5.472 12.672,-13.032 V 81.912 c 0,-7.56 -5.184,-13.032 -12.672,-13.032 -7.488,0 -12.744,5.472 -12.744,13.536 v 24.768 c 0,8.064 5.256,13.536 12.744,13.536 z m 0,-6.048 c -3.672,0 -6.192,-2.736 -6.192,-7.2 V 82.128 c 0,-4.464 2.52,-7.2 6.192,-7.2 3.672,0 6.12,2.736 6.12,6.696 v 26.352 c 0,3.96 -2.448,6.696 -6.12,6.696 z" transform="translate(0 268.15609452528076) translate(689.472167693722 79.06485518866508) scale(1.420918338975974) translate(-609.87725 -68.88)"></path> 
   <path id="path122066" style="font-style: normal; font-weight: 700; font-size: 72px; line-height: 1; font-family: Phenomena; font-variant-ligatures: none; text-align: center; text-anchor: middle; fill: rgb(190, 126, 20);" d="m 639.35788,70.536 v 4.104 c 0,0.648 0.36,1.008 0.93599,1.008 h 13.75201 l -10.44001,43.272 c -0.144,0.648 0.144,1.08 0.864,1.08 h 4.536 c 0.576,0 0.936,-0.288 1.08,-0.864 L 660.59788,75 c 0.28799,-1.224 0.36,-2.088 0.36,-3.384 0,-1.368 -0.792,-2.016 -2.16001,-2.016 h -18.504 c -0.57599,0 -0.93599,0.36 -0.93599,0.936 z" transform="translate(0 268.15609452528076) translate(741.3081638781191 80.08791639272776) scale(1.420918338975974) translate(-639.35788 -69.6)"></path> 
  </g> 
  <g id="tagline" style="font-style:oblique;font-weight:normal;font-size:32px;line-height:1;font-family:'Fira Sans Condensed';font-variant-ligatures:none;text-align:center;text-anchor:middle"></g> 
 </g> 
</svg>