<svg xmlns:dc="http://purl.org/dc/elements/1.1/" xmlns:cc="http://creativecommons.org/ns#" xmlns:rdf="http://www.w3.org/1999/02/22-rdf-syntax-ns#" xmlns:svg="http://www.w3.org/2000/svg" xmlns="http://www.w3.org/2000/svg" id="svg657595" viewbox="0 0 1024 768" height="768px" width="1024px" version="1.1"> <metadata id="metadata657601"> 
  <rdf:rdf> 
   <cc:work rdf:about=""> 
    <dc:format>
     image/svg+xml
    </dc:format> 
    <dc:type rdf:resource="http://purl.org/dc/dcmitype/StillImage"></dc:type> 
   </cc:work> 
  </rdf:rdf> 
 </metadata> <defs id="defs657599"></defs> <g id="logo-group"> 
  <g id="title" style="font-style:normal;font-weight:400;font-size:72px;line-height:1;font-family:Teko;font-variant-ligatures:none;text-align:center;text-anchor:middle" aria-label="Pinko7"> 
   <path id="path657603" style="font-style: normal; font-weight: 400; font-size: 72px; line-height: 1; font-family: Teko; font-variant-ligatures: none; text-align: center; text-anchor: middle; fill: rgb(255, 255, 255);" d="m 445.92369,74.928 h 14.76 q 6.696,0 6.696,6.336 V 96.24 q 0,6.336 -6.696,6.336 h -8.28 V 120 h -6.48 z m 14.976,20.304 v -12.96 q 0,-1.296 -0.432,-1.656 -0.432,-0.432 -1.728,-0.432 h -6.336 v 17.208 h 6.336 q 1.296,0 1.728,-0.432 0.432,-0.432 0.432,-1.728 z" transform="translate(0 168.9467309788609) translate(251.99999999999994 163.30408657922305) scale(2.4698922509505534) translate(-445.92369 -74.928)"></path> 
   <path id="path657605" style="font-style: normal; font-weight: 400; font-size: 72px; line-height: 1; font-family: Teko; font-variant-ligatures: none; text-align: center; text-anchor: middle; fill: rgb(255, 255, 255);" d="M 472.48494,78.168 V 71.76 h 6.768 v 6.408 z m 6.624,41.832 h -6.48 V 84.864 h 6.48 z" transform="translate(0 168.9467309788609) translate(354.6518093148185 155.4794679282117) scale(2.4698922509505534) translate(-472.48494 -71.76)"></path> 
   <path id="path657607" style="font-style: normal; font-weight: 400; font-size: 72px; line-height: 1; font-family: Teko; font-variant-ligatures: none; text-align: center; text-anchor: middle; fill: rgb(255, 255, 255);" d="m 496.36981,84.864 h 2.52 q 6.552,0 6.552,6.408 V 120 h -6.48 V 92.208 q 0,-1.296 -0.432,-1.656 -0.432,-0.432 -1.728,-0.432 h -2.52 q -1.296,0 -1.872,0.576 -0.504,0.576 -0.504,1.944 V 120 h -6.48 V 84.864 h 6.48 v 2.808 q 0.936,-2.808 4.464,-2.808 z" transform="translate(0 168.9467309788609) translate(423.66274761263537 187.8449359846678) scale(2.4698922509505534) translate(-485.42581 -84.864)"></path> 
   <path id="path657609" style="font-style: normal; font-weight: 400; font-size: 72px; line-height: 1; font-family: Teko; font-variant-ligatures: none; text-align: center; text-anchor: middle; fill: rgb(255, 255, 255);" d="m 534.04269,84.864 -8.064,16.776 8.064,18.36 h -6.912 l -7.776,-18.36 7.776,-16.776 z M 511.72269,120 V 71.832 h 6.48 V 120 Z" transform="translate(0 168.9467309788609) translate(525.6615915130702 155.6573001702801) scale(2.4698922509505534) translate(-511.72269 -71.832)"></path> 
   <path id="path657611" style="font-style: normal; font-weight: 400; font-size: 72px; line-height: 1; font-family: Teko; font-variant-ligatures: none; text-align: center; text-anchor: middle; fill: rgb(199, 148, 127);" d="m 543.72106,84.864 h 7.704 q 6.696,0 6.696,6.408 v 22.392 q 0,6.336 -6.696,6.336 h -7.704 q -6.624,0 -6.624,-6.336 V 91.272 q 0,-6.408 6.624,-6.408 z m 7.992,27.864 V 92.136 q 0,-1.296 -0.432,-1.728 -0.432,-0.432 -1.728,-0.432 h -3.96 q -1.296,0 -1.728,0.432 -0.36,0.432 -0.36,1.728 v 20.592 q 0,1.296 0.36,1.728 0.432,0.432 1.728,0.432 h 3.96 q 1.296,0 1.728,-0.432 0.432,-0.432 0.432,-1.728 z" transform="translate(0 168.9467309788609) translate(625.3819351130808 187.8449359846678) scale(2.4698922509505534) translate(-537.09706 -84.864)"></path> 
   <path id="path657613" style="font-style: normal; font-weight: 400; font-size: 72px; line-height: 1; font-family: Teko; font-variant-ligatures: none; text-align: center; text-anchor: middle; fill: rgb(199, 148, 127);" d="m 581.45919,74.928 v 4.032 l -12.096,41.04 h -6.624 l 11.736,-39.672 h -13.176 v -5.4 z" transform="translate(0 168.9467309788609) translate(722.2069722208367 163.30408657922305) scale(2.4698922509505534) translate(-561.29919 -74.928)"></path> 
  </g> 
  <g id="tagline" style="font-style:oblique;font-weight:normal;font-size:32px;line-height:1;font-family:'Fira Sans Condensed';font-variant-ligatures:none;text-align:center;text-anchor:middle"></g> 
 </g> 
</svg>