<svg xmlns:dc="http://purl.org/dc/elements/1.1/" xmlns:cc="http://creativecommons.org/ns#" xmlns:rdf="http://www.w3.org/1999/02/22-rdf-syntax-ns#" xmlns:svg="http://www.w3.org/2000/svg" xmlns="http://www.w3.org/2000/svg" id="svg283129" viewbox="0 0 1024 768" height="768px" width="1024px" version="1.1"> <metadata id="metadata283135"> 
  <rdf:rdf> 
   <cc:work rdf:about=""> 
    <dc:format>
     image/svg+xml
    </dc:format> 
    <dc:type rdf:resource="http://purl.org/dc/dcmitype/StillImage"></dc:type> 
   </cc:work> 
  </rdf:rdf> 
 </metadata> <defs id="defs283133"></defs> <g id="logo-group"> 
  <g id="title" style="font-style:normal;font-weight:700;font-size:72px;line-height:1;font-family:'Brandmark1 Bold';font-variant-ligatures:none;text-align:center;text-anchor:middle" aria-label="POMEGRANATEO7"> 
   <path id="path283137" style="font-style: normal; font-weight: 700; font-size: 72px; line-height: 1; font-family: &quot;Brandmark1 Bold&quot;; font-variant-ligatures: none; text-align: center; text-anchor: middle; fill: rgb(171, 171, 173);" d="m 200.67537,122.52 h 11.304 v -19.512 h 7.992 c 2.88,0 5.616,-0.288 7.992,-1.008 2.52,-0.72 4.752,-1.872 6.552,-3.384 1.944,-1.584 3.456,-3.528 4.392,-5.832 1.008,-2.376 1.584,-5.04 1.584,-8.064 0,-5.328 -1.656,-9.864 -4.752,-13.032 -3.384,-3.528 -8.352,-5.328 -14.688,-5.328 h -20.376 z m 18.72,-30.24 h -7.416 V 77.088 h 8.424 c 2.736,0 4.968,0.72 6.408,1.944 1.44,1.224 2.16,3.096 2.16,5.544 0,2.376 -0.72,4.248 -2.088,5.544 -1.584,1.44 -4.104,2.16 -7.488,2.16 z" transform="translate(0 326.8223979581833) translate(252.0000000000001 35.18544640668438) scale(0.7713298132411752) translate(-200.67537 -66.36)"></path> 
   <path id="path283139" style="font-style: normal; font-weight: 700; font-size: 72px; line-height: 1; font-family: &quot;Brandmark1 Bold&quot;; font-variant-ligatures: none; text-align: center; text-anchor: middle; fill: rgb(171, 171, 173);" d="m 270.67962,122.808 c 3.81601,0 7.56,-0.72 11.088,-2.232 3.384,-1.368 6.40801,-3.456 9,-6.048 2.592,-2.592 4.68001,-5.616 6.12001,-9 1.43999,-3.528 2.23199,-7.272 2.23199,-11.088 0,-3.816 -0.792,-7.56 -2.23199,-11.088 -1.44,-3.384 -3.52801,-6.408 -6.12001,-9 -2.59199,-2.592 -5.616,-4.68 -9,-6.12 -3.528,-1.44 -7.27199,-2.232 -11.088,-2.232 -3.81599,0 -7.56,0.792 -11.08799,2.232 -3.38401,1.44 -6.40801,3.528 -9.00001,6.12 -2.592,2.592 -4.67999,5.616 -6.048,9 -1.512,3.528 -2.232,7.272 -2.232,11.088 0,3.816 0.72,7.56 2.232,11.088 1.36801,3.384 3.456,6.408 6.048,9 2.592,2.592 5.616,4.68 9.00001,6.048 3.52799,1.512 7.272,2.232 11.08799,2.232 z m 0,-45.504 c 4.536,0 8.856,1.8 12.096,5.04 3.24,3.24 5.04,7.56 5.04,12.096 0,4.608 -1.8,8.856 -5.04,12.096 -3.24,3.24 -7.488,5.04 -12.096,5.04 -4.536,0 -8.856,-1.8 -12.096,-5.04 -3.24,-3.24 -5.04,-7.488 -5.04,-12.096 0,-4.536 1.8,-8.856 5.04,-12.096 3.24,-3.24 7.56,-5.04 12.096,-5.04 z" transform="translate(0 326.8223979581833) translate(287.20060018952773 34.90776767391756) scale(0.7713298132411752) translate(-242.31162 -66)"></path> 
   <path id="path283141" style="font-style: normal; font-weight: 700; font-size: 72px; line-height: 1; font-family: &quot;Brandmark1 Bold&quot;; font-variant-ligatures: none; text-align: center; text-anchor: middle; fill: rgb(171, 171, 173);" d="m 348.23937,122.52 h 11.30401 V 66.36 h -10.296 l -17.35201,30.6 -17.42399,-30.6 h -10.29601 v 56.16 h 11.376 V 90.336 l 12.672,21.888 h 7.20001 l 12.81599,-22.032 z" transform="translate(0 326.8223979581833) translate(338.00327417639113 35.18544640668438) scale(0.7713298132411752) translate(-304.17537 -66.36)"></path> 
   <path id="path283143" style="font-style: normal; font-weight: 700; font-size: 72px; line-height: 1; font-family: &quot;Brandmark1 Bold&quot;; font-variant-ligatures: none; text-align: center; text-anchor: middle; fill: rgb(171, 171, 173);" d="m 367.17537,122.52 h 36.36 v -10.728 h -25.056 v -11.88 h 25.056 V 89.184 h -25.056 V 77.088 h 25.056 V 66.36 h -36.36 z" transform="translate(0 326.8223979581833) translate(389.68237166354993 35.18544640668438) scale(0.7713298132411752) translate(-367.17537 -66.36)"></path> 
   <path id="path283145" style="font-style: normal; font-weight: 700; font-size: 72px; line-height: 1; font-family: &quot;Brandmark1 Bold&quot;; font-variant-ligatures: none; text-align: center; text-anchor: middle; fill: rgb(171, 171, 173);" d="m 433.29725,122.952 c 3.816,0 7.56,-0.792 11.088,-2.232 3.384,-1.44 6.408,-3.456 9.072,-6.12 2.592,-2.592 4.608,-5.616 6.048,-9.072 1.512,-3.456 2.232,-7.2 2.232,-11.088 v -5.616 h -28.44 v 11.304 h 16.2 c -0.792,2.376 -2.232,4.608 -4.104,6.48 -3.24,3.24 -7.56,5.04 -12.096,5.04 -4.608,0 -8.928,-1.8 -12.168,-5.04 -3.24,-3.24 -5.04,-7.56 -5.04,-12.168 0,-4.536 1.8,-8.856 5.04,-12.096 3.24,-3.312 7.56,-5.04 12.168,-5.04 2.736,0 5.4,0.648 7.92,1.872 2.304,1.224 4.392,3.024 5.976,5.184 l 9.072,-6.696 c -2.52,-3.528 -5.976,-6.48 -9.864,-8.496 -4.032,-2.088 -8.568,-3.168 -13.104,-3.168 -3.888,0 -7.56,0.72 -11.088,2.232 -3.384,1.44 -6.48,3.456 -9.072,6.048 -2.592,2.664 -4.68,5.688 -6.12,9.072 -1.44,3.528 -2.232,7.272 -2.232,11.088 0,3.888 0.792,7.56 2.232,11.088 1.44,3.384 3.528,6.48 6.12,9.072 2.592,2.592 5.688,4.68 9.072,6.12 3.528,1.44 7.2,2.232 11.088,2.232 z" transform="translate(0 326.8223979581833) translate(421.77731263293765 34.90776767391756) scale(0.7713298132411752) translate(-404.78525 -66)"></path> 
   <path id="path283147" style="font-style: normal; font-weight: 700; font-size: 72px; line-height: 1; font-family: &quot;Brandmark1 Bold&quot;; font-variant-ligatures: none; text-align: center; text-anchor: middle; fill: rgb(171, 171, 173);" d="m 491.74437,101.424 c 2.952,-1.08 5.32801,-2.736 7.2,-4.824 2.59201,-3.024 3.96001,-7.056 3.96001,-11.88 0,-5.328 -1.65601,-9.864 -4.75201,-13.032 -1.728,-1.728 -3.816,-3.096 -6.264,-3.96 -2.44799,-0.864 -5.32799,-1.368 -8.42399,-1.368 h -20.66401 v 56.16 h 11.304 V 77.088 h 8.496 c 2.88,0 5.184,0.72 6.624,1.944 1.44,1.224 2.16,3.096 2.16,5.544 0,2.376 -0.72,4.248 -2.088,5.472 -1.656,1.512 -4.17599,2.232 -7.56,2.232 h -2.16 v 11.016 l 13.32,19.224 h 13.68 z" transform="translate(0 326.8223979581833) translate(469.6114235606667 35.18544640668438) scale(0.7713298132411752) translate(-462.80037 -66.36)"></path> 
   <path id="path283149" style="font-style: normal; font-weight: 700; font-size: 72px; line-height: 1; font-family: &quot;Brandmark1 Bold&quot;; font-variant-ligatures: none; text-align: center; text-anchor: middle; fill: rgb(171, 171, 173);" d="m 543.77,122.52 h 11.952 L 534.41,66.36 h -9.792 l -21.24,56.16 h 11.952 l 4.536,-12.456 h 19.296 z m -8.424,-22.968 h -11.664 l 5.832,-15.912 z" transform="translate(0 326.8223979581833) translate(503.99547858330095 35.18544640668438) scale(0.7713298132411752) translate(-503.378 -66.36)"></path> 
   <path id="path283151" style="font-style: normal; font-weight: 700; font-size: 72px; line-height: 1; font-family: &quot;Brandmark1 Bold&quot;; font-variant-ligatures: none; text-align: center; text-anchor: middle; fill: rgb(171, 171, 173);" d="m 593.86625,122.52 h 10.296 V 66.36 h -11.304 v 35.424 l -25.128,-35.424 h -10.008 v 56.16 h 11.304 V 87.456 Z" transform="translate(0 326.8223979581833) translate(548.9981380394975 35.18544640668438) scale(0.7713298132411752) translate(-557.72225 -66.36)"></path> 
   <path id="path283153" style="font-style: normal; font-weight: 700; font-size: 72px; line-height: 1; font-family: &quot;Brandmark1 Bold&quot;; font-variant-ligatures: none; text-align: center; text-anchor: middle; fill: rgb(171, 171, 173);" d="m 646.56687,122.52 h 11.952 l -21.312,-56.16 h -9.79199 l -21.24,56.16 h 11.952 l 4.53599,-12.456 h 19.29601 z m -8.424,-22.968 h -11.66399 l 5.83199,-15.912 z" transform="translate(0 326.8223979581833) translate(589.4564153414059 35.18544640668438) scale(0.7713298132411752) translate(-606.17488 -66.36)"></path> 
   <path id="path283155" style="font-style: normal; font-weight: 700; font-size: 72px; line-height: 1; font-family: &quot;Brandmark1 Bold&quot;; font-variant-ligatures: none; text-align: center; text-anchor: middle; fill: rgb(171, 171, 173);" d="m 666.68525,122.52 h 11.304 V 77.088 h 15.48 V 66.36 h -42.048 v 10.728 h 15.264 z" transform="translate(0 326.8223979581833) translate(627.4416087163116 35.18544640668438) scale(0.7713298132411752) translate(-651.42125 -66.36)"></path> 
   <path id="path283157" style="font-style: normal; font-weight: 700; font-size: 72px; line-height: 1; font-family: &quot;Brandmark1 Bold&quot;; font-variant-ligatures: none; text-align: center; text-anchor: middle; fill: rgb(171, 171, 173);" d="m 696.80038,122.52 h 36.36 v -10.728 h -25.05601 v -11.88 h 25.05601 V 89.184 H 708.10437 V 77.088 h 25.05601 V 66.36 h -36.36 z" transform="translate(0 326.8223979581833) translate(665.5292038372233 35.18544640668438) scale(0.7713298132411752) translate(-696.80038 -66.36)"></path> 
   <path id="path283159" style="font-style: normal; font-weight: 700; font-size: 72px; line-height: 1; font-family: &quot;Brandmark1 Bold&quot;; font-variant-ligatures: none; text-align: center; text-anchor: middle; fill: rgb(130, 122, 120);" d="m 763.57025,122.808 c 3.816,0 7.56,-0.72 11.088,-2.232 3.384,-1.368 6.408,-3.456 9,-6.048 2.592,-2.592 4.68,-5.616 6.12,-9 1.44,-3.528 2.232,-7.272 2.232,-11.088 0,-3.816 -0.792,-7.56 -2.232,-11.088 -1.44,-3.384 -3.528,-6.408 -6.12,-9 -2.592,-2.592 -5.616,-4.68 -9,-6.12 -3.528,-1.44 -7.272,-2.232 -11.088,-2.232 -3.816,0 -7.56,0.792 -11.088,2.232 -3.384,1.44 -6.408,3.528 -9,6.12 -2.592,2.592 -4.68,5.616 -6.048,9 -1.512,3.528 -2.232,7.272 -2.232,11.088 0,3.816 0.72,7.56 2.232,11.088 1.368,3.384 3.456,6.408 6.048,9 2.592,2.592 5.616,4.68 9,6.048 3.528,1.512 7.272,2.232 11.088,2.232 z m 0,-45.504 c 4.536,0 8.856,1.8 12.096,5.04 3.24,3.24 5.04,7.56 5.04,12.096 0,4.608 -1.8,8.856 -5.04,12.096 -3.24,3.24 -7.488,5.04 -12.096,5.04 -4.536,0 -8.856,-1.8 -12.096,-5.04 -3.24,-3.24 -5.04,-7.488 -5.04,-12.096 0,-4.536 1.8,-8.856 5.04,-12.096 3.24,-3.24 7.56,-5.04 12.096,-5.04 z" transform="translate(0 326.8223979581833) translate(698.2350303054 34.90776767391756) scale(0.7713298132411752) translate(-735.20225 -66)"></path> 
   <path id="path283161" style="font-style: normal; font-weight: 700; font-size: 72px; line-height: 1; font-family: &quot;Brandmark1 Bold&quot;; font-variant-ligatures: none; text-align: center; text-anchor: middle; fill: rgb(130, 122, 120);" d="m 795.08375,121.512 11.16,2.232 20.592,-48.384 v -7.344 h -35.712 V 78.6 h 22.536 z" transform="translate(0 326.8223979581833) translate(744.454269709531 36.46276857741178) scale(0.7713298132411752) translate(-791.12375 -68.016)"></path> 
  </g> 
  <g id="tagline" style="font-style:normal;font-weight:400;font-size:32px;line-height:1;font-family:Montserrat;font-variant-ligatures:none;text-align:center;text-anchor:middle"></g> 
 </g> 
</svg>