<svg xmlns:dc="http://purl.org/dc/elements/1.1/" xmlns:cc="http://creativecommons.org/ns#" xmlns:rdf="http://www.w3.org/1999/02/22-rdf-syntax-ns#" xmlns:svg="http://www.w3.org/2000/svg" xmlns="http://www.w3.org/2000/svg" id="svg313575" viewbox="0 0 1024 768" height="768px" width="1024px" version="1.1"> <metadata id="metadata313581"> 
  <rdf:rdf> 
   <cc:work rdf:about=""> 
    <dc:format>
     image/svg+xml
    </dc:format> 
    <dc:type rdf:resource="http://purl.org/dc/dcmitype/StillImage"></dc:type> 
   </cc:work> 
  </rdf:rdf> 
 </metadata> <defs id="defs313579"></defs> <g id="logo-group"> 
  <g id="title" style="font-style:normal;font-weight:700;font-size:72px;line-height:1;font-family:Phenomena;font-variant-ligatures:none;text-align:center;text-anchor:middle" aria-label="Pragmatisto7"> 
   <path id="path313583" style="font-style: normal; font-weight: 700; font-size: 72px; line-height: 1; font-family: Phenomena; font-variant-ligatures: none; text-align: center; text-anchor: middle; fill: rgb(102, 102, 102);" d="m 360.449,120 h 4.608 c 0.576,0 0.936,-0.36 0.936,-1.008 v -17.136 h 5.688 c 7.488,0 12.312,-5.04 12.312,-12.384 v -7.344 c 0,-7.848 -4.896,-13.32 -12.384,-13.32 -7.416,0 -12.096,5.472 -12.096,13.32 v 36.864 c 0,0.648 0.36,1.008 0.936,1.008 z m 5.544,-24.192 V 81.84 c 0,-4.176 2.16,-6.912 5.688,-6.912 3.528,0 5.76,2.736 5.76,6.912 v 7.776 c 0,3.888 -2.232,6.192 -5.976,6.192 z" transform="translate(0 229.9994455855869) translate(251.99999999999994 97.76661776614644) scale(1.6942015138667952) translate(-359.513 -68.808)"></path> 
   <path id="path313585" style="font-style: normal; font-weight: 700; font-size: 72px; line-height: 1; font-family: Phenomena; font-variant-ligatures: none; text-align: center; text-anchor: middle; fill: rgb(102, 102, 102);" d="m 388.28262,120 h 4.176 c 0.648,0 1.00801,-0.36 1.00801,-1.008 v -23.04 c 0,-3.888 2.44799,-6.264 6.192,-6.264 h 2.592 c 0.57599,0 0.93599,-0.36 0.93599,-0.936 v -3.888 c 0,-0.648 -0.36,-1.008 -0.93599,-1.008 h -2.664 c -7.27201,0 -12.312,4.824 -12.312,12.6 v 22.536 c 0,0.648 0.36,1.008 1.00799,1.008 z" transform="translate(0 229.9994455855869) translate(299.0337955734098 123.26096214681395) scale(1.6942015138667952) translate(-387.27463 -83.856)"></path> 
   <path id="path313587" style="font-style: normal; font-weight: 700; font-size: 72px; line-height: 1; font-family: Phenomena; font-variant-ligatures: none; text-align: center; text-anchor: middle; fill: rgb(102, 102, 102);" d="m 417.54613,120.72 c 6.91199,0 11.23199,-4.752 11.23199,-11.376 V 94.872 c 0,-6.768 -4.392,-11.664 -11.23199,-11.664 -6.40801,0 -10.65601,4.464 -11.08801,10.728 0,0.576 0.36,1.008 0.936,1.008 h 4.17601 c 0.64799,0 0.93599,-0.216 1.00799,-0.864 0.216,-2.952 1.87201,-4.968 4.89601,-4.968 3.24,0 5.18399,2.232 5.18399,5.472 v 3.96 h -5.4 c -6.768,0 -11.376,4.608 -11.376,10.584 0,6.768 4.68,11.592 11.66401,11.592 z m -0.072,-5.904 c -3.38401,0 -5.40001,-2.232 -5.40001,-5.688 0,-2.808 2.016,-5.04 5.40001,-5.04 h 5.18399 v 5.256 c 0,3.312 -1.87199,5.472 -5.18399,5.472 z" transform="translate(0 229.9994455855869) translate(330.55863330067103 122.1631195658283) scale(1.6942015138667952) translate(-405.88212 -83.208)"></path> 
   <path id="path313589" style="font-style: normal; font-weight: 700; font-size: 72px; line-height: 1; font-family: Phenomena; font-variant-ligatures: none; text-align: center; text-anchor: middle; fill: rgb(102, 102, 102);" d="m 445.8905,83.208 c -6.912,0 -11.52,4.896 -11.52,11.736 v 12.384 c 0,6.84 4.608,11.736 11.016,11.736 2.232,0 4.248,-0.936 5.76,-2.52 v 7.128 c 0,3.528 -1.944,5.616 -5.256,5.616 -3.096,0 -5.04,-2.088 -5.256,-5.688 -0.072,-0.72 -0.432,-1.008 -1.008,-1.008 h -4.248 c -0.648,0 -1.008,0.36 -0.936,1.008 0.288,7.056 4.752,11.592 11.448,11.592 6.984,0 11.448,-4.608 11.448,-11.736 V 94.944 c 0,-6.84 -4.608,-11.736 -11.448,-11.736 z m 0,30.024 c -3.312,0 -5.328,-2.304 -5.328,-5.688 V 94.728 c 0,-3.384 2.016,-5.616 5.328,-5.616 3.312,0 5.256,2.232 5.256,5.616 v 12.816 c 0,3.384 -1.944,5.688 -5.256,5.688 z" transform="translate(0 229.9994455855869) translate(378.8236898242835 122.1631195658283) scale(1.6942015138667952) translate(-434.3705 -83.208)"></path> 
   <path id="path313591" style="font-style: normal; font-weight: 700; font-size: 72px; line-height: 1; font-family: Phenomena; font-variant-ligatures: none; text-align: center; text-anchor: middle; fill: rgb(102, 102, 102);" d="m 490.47987,83.208 c -3.384,0 -6.12,1.8 -7.776,4.392 -1.656,-2.592 -4.464,-4.392 -7.776,-4.392 -6.552,0 -10.87199,4.896 -10.87199,11.736 v 24.048 c 0,0.648 0.36,1.008 1.00799,1.008 h 4.104 c 0.648,0 1.00801,-0.36 1.00801,-1.008 V 94.728 c 0,-3.384 1.72799,-5.616 4.75199,-5.616 3.024,0 4.68,2.232 4.68,5.616 v 24.264 c 0,0.648 0.36,1.008 1.00801,1.008 h 4.17599 c 0.57601,0 0.936,-0.36 0.936,-1.008 V 94.728 c 0,-3.384 1.728,-5.616 4.752,-5.616 3.024,0 4.68,2.232 4.68,5.616 v 24.264 c 0,0.648 0.36001,1.008 1.008,1.008 h 4.17601 c 0.57599,0 0.93599,-0.36 0.93599,-1.008 V 94.944 c 0,-6.84 -4.24799,-11.736 -10.8,-11.736 z" transform="translate(0 229.9994455855869) translate(429.1167055599946 122.1631195658283) scale(1.6942015138667952) translate(-464.05588 -83.208)"></path> 
   <path id="path313593" style="font-style: normal; font-weight: 700; font-size: 72px; line-height: 1; font-family: Phenomena; font-variant-ligatures: none; text-align: center; text-anchor: middle; fill: rgb(102, 102, 102);" d="m 518.6555,120.72 c 6.912,0 11.232,-4.752 11.232,-11.376 V 94.872 c 0,-6.768 -4.392,-11.664 -11.232,-11.664 -6.408,0 -10.656,4.464 -11.088,10.728 0,0.576 0.36,1.008 0.936,1.008 h 4.176 c 0.648,0 0.936,-0.216 1.008,-0.864 0.216,-2.952 1.872,-4.968 4.896,-4.968 3.24,0 5.184,2.232 5.184,5.472 v 3.96 h -5.4 c -6.768,0 -11.376,4.608 -11.376,10.584 0,6.768 4.68,11.592 11.664,11.592 z m -0.072,-5.904 c -3.384,0 -5.4,-2.232 -5.4,-5.688 0,-2.808 2.016,-5.04 5.4,-5.04 h 5.184 v 5.256 c 0,3.312 -1.872,5.472 -5.184,5.472 z" transform="translate(0 229.9994455855869) translate(501.858297962804 122.1631195658283) scale(1.6942015138667952) translate(-506.9915 -83.208)"></path> 
   <path id="path313595" style="font-style: normal; font-weight: 700; font-size: 72px; line-height: 1; font-family: Phenomena; font-variant-ligatures: none; text-align: center; text-anchor: middle; fill: rgb(102, 102, 102);" d="m 550.89125,114.384 h -0.792 c -3.672,0 -5.544,-2.304 -5.544,-6.84 V 89.616 h 5.544 c 0.576,0 0.936,-0.36 0.936,-0.936 v -3.744 c 0,-0.576 -0.36,-0.936 -0.936,-0.936 h -5.544 v -9.288 c 0,-0.648 -0.36,-1.008 -0.936,-1.008 h -4.176 c -0.648,0 -1.008,0.36 -1.008,1.008 V 84 h -4.032 c -0.576,0 -0.936,0.36 -0.936,0.936 v 3.744 c 0,0.576 0.36,0.936 0.936,0.936 h 4.032 v 17.856 c 0,7.92 4.248,12.744 11.376,12.744 h 1.08 c 0.648,0 1.008,-0.36 1.008,-0.936 v -3.96 c 0,-0.576 -0.36,-0.936 -1.008,-0.936 z" transform="translate(0 229.9994455855869) translate(546.713553693563 106.06142837803826) scale(1.6942015138667952) translate(-533.46725 -73.704)"></path> 
   <path id="path313597" style="font-style: normal; font-weight: 700; font-size: 72px; line-height: 1; font-family: Phenomena; font-variant-ligatures: none; text-align: center; text-anchor: middle; fill: rgb(102, 102, 102);" d="m 560.39975,79.464 c 2.088,0 3.744,-1.728 3.744,-3.672 0,-2.16 -1.656,-3.744 -3.744,-3.744 -2.16,0 -3.672,1.584 -3.672,3.744 0,2.088 1.512,3.672 3.672,3.672 z m -2.088,40.536 h 4.176 c 0.648,0 1.008,-0.36 1.008,-1.008 V 84.936 c 0,-0.576 -0.36,-0.936 -1.008,-0.936 h -4.176 c -0.648,0 -1.008,0.36 -1.008,0.936 v 34.056 c 0,0.648 0.36,1.008 1.008,1.008 z" transform="translate(0 229.9994455855869) translate(586.1215280068615 103.25583067107486) scale(1.6942015138667952) translate(-556.72775 -72.048)"></path> 
   <path id="path313599" style="font-style: normal; font-weight: 700; font-size: 72px; line-height: 1; font-family: Phenomena; font-variant-ligatures: none; text-align: center; text-anchor: middle; fill: rgb(102, 102, 102);" d="m 581.59362,120.792 c 6.696,0 11.16001,-4.464 11.16001,-10.296 0,-12.096 -16.63201,-10.152 -16.63201,-17.064 0,-2.592 1.944,-4.392 4.896,-4.392 3.096,0 4.75201,2.016 4.96801,4.824 0.072,0.576 0.432,0.936 1.00799,0.936 h 4.248 c 0.72001,0 0.93601,-0.504 0.93601,-1.008 -0.216,-5.616 -3.60001,-10.584 -11.30401,-10.584 -6.47999,0 -10.872,4.32 -10.872,10.08 0,11.808 16.56001,9.864 16.56001,17.136 0,2.592 -1.72801,4.464 -5.04001,4.464 -3.744,0 -5.472,-2.016 -5.76,-5.688 -0.072,-0.72 -0.504,-0.936 -1.00799,-0.936 h -4.17601 c -0.792,0 -1.008,0.504 -1.008,1.08 0.216,6.336 4.53601,11.448 12.024,11.448 z" transform="translate(0 229.9994455855869) translate(607.8782436017419 122.1631195658283) scale(1.6942015138667952) translate(-569.56962 -83.208)"></path> 
   <path id="path313601" style="font-style: normal; font-weight: 700; font-size: 72px; line-height: 1; font-family: Phenomena; font-variant-ligatures: none; text-align: center; text-anchor: middle; fill: rgb(102, 102, 102);" d="m 613.18813,114.384 h -0.79201 c -3.672,0 -5.544,-2.304 -5.544,-6.84 V 89.616 h 5.544 c 0.576,0 0.93601,-0.36 0.93601,-0.936 v -3.744 c 0,-0.576 -0.36001,-0.936 -0.93601,-0.936 h -5.544 v -9.288 c 0,-0.648 -0.36,-1.008 -0.936,-1.008 h -4.17599 c -0.64801,0 -1.00801,0.36 -1.00801,1.008 V 84 h -4.032 c -0.57599,0 -0.93599,0.36 -0.93599,0.936 v 3.744 c 0,0.576 0.36,0.936 0.93599,0.936 h 4.032 v 17.856 c 0,7.92 4.24801,12.744 11.376,12.744 h 1.08001 c 0.648,0 1.008,-0.36 1.008,-0.936 v -3.96 c 0,-0.576 -0.36,-0.936 -1.008,-0.936 z" transform="translate(0 229.9994455855869) translate(652.257022098741 106.06142837803826) scale(1.6942015138667952) translate(-595.76413 -73.704)"></path> 
   <path id="path313603" style="font-style: normal; font-weight: 700; font-size: 72px; line-height: 1; font-family: Phenomena; font-variant-ligatures: none; text-align: center; text-anchor: middle; fill: rgb(179, 179, 179);" d="m 629.54675,120.792 c 6.984,0 11.52,-4.896 11.52,-11.736 V 94.944 c 0,-6.84 -4.536,-11.736 -11.52,-11.736 -6.912,0 -11.52,4.896 -11.52,11.736 v 14.112 c 0,6.84 4.608,11.736 11.52,11.736 z m 0,-5.832 c -3.312,0 -5.256,-2.304 -5.256,-5.688 V 94.728 c 0,-3.384 1.944,-5.688 5.256,-5.688 3.312,0 5.328,2.304 5.328,5.688 v 14.544 c 0,3.384 -2.016,5.688 -5.328,5.688 z" transform="translate(0 229.9994455855869) translate(689.9743866053822 122.1631195658283) scale(1.6942015138667952) translate(-618.02675 -83.208)"></path> 
   <path id="path313605" style="font-style: normal; font-weight: 700; font-size: 72px; line-height: 1; font-family: Phenomena; font-variant-ligatures: none; text-align: center; text-anchor: middle; fill: rgb(179, 179, 179);" d="m 644.84225,70.536 v 4.104 c 0,0.648 0.36,1.008 0.936,1.008 h 13.752 l -10.44,43.272 c -0.144,0.648 0.144,1.08 0.864,1.08 h 4.536 c 0.576,0 0.936,-0.288 1.08,-0.864 L 666.08225,75 c 0.288,-1.224 0.36,-2.088 0.36,-3.384 0,-1.368 -0.792,-2.016 -2.16,-2.016 h -18.504 c -0.576,0 -0.936,0.36 -0.936,0.936 z" transform="translate(0 229.9994455855869) translate(735.4052473004773 99.10842536512892) scale(1.6942015138667952) translate(-644.84225 -69.6)"></path> 
  </g> 
  <g id="tagline" style="font-style:oblique;font-weight:normal;font-size:32px;line-height:1;font-family:'Fira Sans Condensed';font-variant-ligatures:none;text-align:center;text-anchor:middle"></g> 
 </g> 
</svg>