<svg xmlns:dc="http://purl.org/dc/elements/1.1/" xmlns:cc="http://creativecommons.org/ns#" xmlns:rdf="http://www.w3.org/1999/02/22-rdf-syntax-ns#" xmlns:svg="http://www.w3.org/2000/svg" xmlns="http://www.w3.org/2000/svg" id="svg29317" viewbox="0 0 1024 768" height="768px" width="1024px" version="1.1"> <metadata id="metadata29323"> 
  <rdf:rdf> 
   <cc:work rdf:about=""> 
    <dc:format>
     image/svg+xml
    </dc:format> 
    <dc:type rdf:resource="http://purl.org/dc/dcmitype/StillImage"></dc:type> 
   </cc:work> 
  </rdf:rdf> 
 </metadata> <defs id="defs29321"></defs> <g id="logo-group"> 
  <g id="title" style="font-style:normal;font-weight:700;font-size:72px;line-height:1;font-family:'Comfortaa Bold Alt2';font-variant-ligatures:none;text-align:center;text-anchor:middle" aria-label="Praxiso7"> 
   <path id="path29325" style="font-style: normal; font-weight: 700; font-size: 72px; line-height: 1; font-family: &quot;Comfortaa Bold Alt2&quot;; font-variant-ligatures: none; text-align: center; text-anchor: middle; fill: rgb(255, 255, 255);" d="m 370.42831,118.92 c 0.72,-0.72 1.08,-1.584 1.08,-2.664 v -15.768 h 10.656 c 3.528,0 6.696,-0.72 9.504,-2.304 2.808,-1.512 4.968,-3.672 6.552,-6.408 1.584,-2.736 2.376,-5.832 2.376,-9.36 0,-3.6 -0.792,-6.768 -2.376,-9.648 -1.584,-2.808 -3.744,-5.04 -6.552,-6.624 -2.808,-1.584 -5.976,-2.376 -9.504,-2.376 h -14.4 c -1.08,0 -1.944,0.36 -2.664,1.08 -0.72,0.72 -1.08,1.584 -1.08,2.664 v 48.744 c 0,1.08 0.36,1.944 1.08,2.664 0.72,0.72 1.584,1.08 2.664,1.08 1.08,0 1.944,-0.36 2.664,-1.08 z m 19.8,-28.44 c -2.16,2.088 -4.824,3.096 -8.064,3.096 h -10.656 V 70.68 h 10.656 c 3.24,0 5.904,1.152 8.064,3.312 2.088,2.232 3.168,5.04 3.168,8.424 0,3.312 -1.08,5.976 -3.168,8.064 z" transform="translate(0 249.15522166174688) translate(252.00000000000006 89.20869892938808) scale(1.6148648056923232) translate(-364.02031 -63.768)"></path> 
   <path id="path29327" style="font-style: normal; font-weight: 700; font-size: 72px; line-height: 1; font-family: &quot;Comfortaa Bold Alt2&quot;; font-variant-ligatures: none; text-align: center; text-anchor: middle; fill: rgb(255, 255, 255);" d="m 430.11969,79.536 c -6.048,0 -11.16,2.16 -15.48,6.408 -4.248,4.248 -6.336,9.36 -6.336,15.408 v 15.192 c 0,1.008 0.288,1.8 1.008,2.448 0.648,0.72 1.44,1.008 2.448,1.008 0.936,0 1.728,-0.288 2.376,-1.008 0.72,-0.648 1.08,-1.44 1.08,-2.448 v -15.192 c 0,-4.104 1.44,-7.632 4.32,-10.512 2.952,-2.952 6.48,-4.392 10.584,-4.392 0.936,0 1.728,-0.36 2.448,-1.008 0.648,-0.72 1.008,-1.512 1.008,-2.448 0,-0.936 -0.36,-1.8 -1.008,-2.448 -0.72,-0.648 -1.512,-1.008 -2.448,-1.008 z" transform="translate(0 249.15522166174688) translate(328.3562662561763 114.67188718554462) scale(1.6148648056923232) translate(-408.30369 -79.536)"></path> 
   <path id="path29329" style="font-style: normal; font-weight: 700; font-size: 72px; line-height: 1; font-family: &quot;Comfortaa Bold Alt2&quot;; font-variant-ligatures: none; text-align: center; text-anchor: middle; fill: rgb(255, 255, 255);" d="m 472.18681,86.232 c -3.888,-3.888 -8.568,-5.904 -14.112,-5.904 -5.472,0 -10.224,2.016 -14.112,5.904 -3.888,3.888 -5.832,8.568 -5.832,14.112 0,5.544 1.944,10.224 5.832,14.112 3.888,3.888 8.64,5.832 14.112,5.832 4.968,0 9.36,-1.584 13.104,-4.824 v 1.368 c 0,1.008 0.288,1.8 1.008,2.448 0.648,0.72 1.44,1.008 2.448,1.008 0.936,0 1.728,-0.288 2.448,-1.008 0.648,-0.648 1.008,-1.44 1.008,-2.448 v -16.488 c 0,-5.544 -1.944,-10.224 -5.904,-14.112 z m -14.112,27.144 c -3.6,0 -6.696,-1.224 -9.216,-3.816 -2.592,-2.52 -3.816,-5.616 -3.816,-9.216 0,-3.6 1.224,-6.696 3.816,-9.216 2.52,-2.592 5.616,-3.888 9.216,-3.888 3.6,0 6.696,1.296 9.216,3.888 2.592,2.52 3.888,5.616 3.888,9.216 0,3.6 -1.296,6.696 -3.888,9.216 -2.52,2.592 -5.616,3.816 -9.216,3.816 z" transform="translate(0 249.15522166174688) translate(381.3676270164149 115.95086011165293) scale(1.6148648056923232) translate(-438.13081 -80.328)"></path> 
   <path id="path29331" style="font-style: normal; font-weight: 700; font-size: 72px; line-height: 1; font-family: &quot;Comfortaa Bold Alt2&quot;; font-variant-ligatures: none; text-align: center; text-anchor: middle; fill: rgb(255, 255, 255);" d="m 519.90706,116.976 c 0,-0.936 -0.36,-1.8 -1.008,-2.52 l -11.448,-13.68 10.872,-14.184 c 0.648,-0.864 1.008,-1.8 1.008,-2.88 0,-0.864 -0.288,-1.584 -0.864,-2.16 -0.576,-0.576 -1.296,-0.936 -2.232,-0.936 -1.152,0 -2.088,0.432 -2.664,1.224 l -10.584,14.112 -11.808,-14.112 c -0.72,-0.792 -1.584,-1.224 -2.736,-1.224 -1.008,0 -1.8,0.288 -2.376,0.864 -0.576,0.576 -0.792,1.296 -0.792,2.088 0,1.008 0.36,1.872 1.08,2.736 l 11.88,14.04 -11.16,13.968 c -0.72,0.864 -1.008,1.728 -1.008,2.664 0,0.864 0.216,1.584 0.792,2.16 0.576,0.576 1.296,0.864 2.304,0.864 1.008,0 1.872,-0.36 2.592,-1.152 l 10.872,-13.68 11.448,13.68 c 0.576,0.792 1.44,1.152 2.592,1.152 0.936,0 1.728,-0.288 2.304,-0.864 0.576,-0.576 0.936,-1.296 0.936,-2.16 z" transform="translate(0 249.15522166174688) translate(462.34381154925217 116.41594117569232) scale(1.6148648056923232) translate(-485.27506 -80.616)"></path> 
   <path id="path29333" style="font-style: normal; font-weight: 700; font-size: 72px; line-height: 1; font-family: &quot;Comfortaa Bold Alt2&quot;; font-variant-ligatures: none; text-align: center; text-anchor: middle; fill: rgb(255, 255, 255);" d="m 530.82519,81.624 c -0.72,0.72 -1.008,1.584 -1.008,2.664 v 32.04 c 0,1.08 0.288,1.944 1.008,2.664 0.72,0.72 1.584,1.008 2.664,1.008 1.08,0 1.944,-0.288 2.664,-1.008 0.648,-0.72 1.008,-1.584 1.008,-2.664 v -32.04 c 0,-1.08 -0.36,-1.944 -1.008,-2.664 -0.72,-0.648 -1.584,-1.008 -2.664,-1.008 -1.08,0 -1.944,0.36 -2.664,1.008 z m 5.976,-15.48 c -0.936,-0.936 -2.016,-1.44 -3.312,-1.44 -1.296,0 -2.448,0.504 -3.384,1.44 -0.936,0.936 -1.368,2.016 -1.368,3.312 0,1.296 0.432,2.448 1.368,3.384 0.936,0.936 2.088,1.368 3.384,1.368 1.296,0 2.376,-0.432 3.312,-1.368 0.936,-0.936 1.44,-2.088 1.44,-3.384 0,-1.296 -0.504,-2.376 -1.44,-3.312 z" transform="translate(0 249.15522166174688) translate(537.3738700837537 90.72021238751606) scale(1.6148648056923232) translate(-528.73719 -64.704)"></path> 
   <path id="path29335" style="font-style: normal; font-weight: 700; font-size: 72px; line-height: 1; font-family: &quot;Comfortaa Bold Alt2&quot;; font-variant-ligatures: none; text-align: center; text-anchor: middle; fill: rgb(255, 255, 255);" d="m 573.07006,81.84 c -2.448,-1.008 -5.256,-1.512 -8.352,-1.512 -2.592,0 -4.968,0.432 -7.2,1.224 -2.304,0.864 -4.104,2.088 -5.472,3.672 -1.44,1.656 -2.088,3.672 -2.088,5.976 0,5.832 4.608,9.648 13.824,11.376 3.528,0.72 6.048,1.512 7.56,2.52 1.44,1.008 2.232,2.232 2.232,3.672 0,1.584 -0.792,2.808 -2.304,3.672 -1.512,0.936 -3.6,1.368 -6.336,1.368 -2.088,0 -4.032,-0.36 -5.832,-1.08 -1.872,-0.72 -3.24,-1.656 -4.104,-2.664 -0.864,-0.864 -1.8,-1.296 -2.736,-1.296 -0.792,0 -1.656,0.36 -2.52,1.008 -1.008,0.72 -1.44,1.656 -1.44,2.808 0,0.864 0.288,1.656 0.936,2.232 1.584,1.656 3.888,2.952 6.768,3.96 2.88,1.008 5.904,1.512 9.216,1.512 3.24,0 6.048,-0.504 8.352,-1.512 2.304,-1.008 4.104,-2.448 5.328,-4.248 1.152,-1.8 1.8,-3.816 1.8,-6.048 0,-2.952 -1.152,-5.4 -3.312,-7.272 -2.16,-1.872 -5.904,-3.312 -11.088,-4.392 -2.592,-0.504 -4.536,-1.008 -5.832,-1.584 -1.368,-0.576 -2.304,-1.152 -2.736,-1.8 -0.504,-0.648 -0.72,-1.44 -0.72,-2.448 0,-1.296 0.648,-2.376 2.088,-3.096 1.44,-0.72 3.24,-1.152 5.472,-1.152 1.872,0 3.528,0.288 4.896,0.72 1.296,0.432 2.592,1.224 3.816,2.304 1.008,0.936 2.088,1.368 3.384,1.368 0.792,0 1.44,-0.144 2.016,-0.576 0.792,-0.648 1.224,-1.368 1.224,-2.232 0,-0.72 -0.36,-1.512 -0.936,-2.304 -1.44,-1.728 -3.456,-3.168 -5.904,-4.176 z" transform="translate(0 249.15522166174688) translate(573.8130844917761 115.95086011165293) scale(1.6148648056923232) translate(-548.30206 -80.328)"></path> 
   <path id="path29337" style="font-style: normal; font-weight: 700; font-size: 72px; line-height: 1; font-family: &quot;Comfortaa Bold Alt2&quot;; font-variant-ligatures: none; text-align: center; text-anchor: middle; fill: rgb(176, 183, 159);" d="m 607.77181,120.288 c 5.544,0 10.224,-1.944 14.112,-5.832 3.888,-3.888 5.904,-8.568 5.904,-14.112 0,-5.544 -2.016,-10.224 -5.904,-14.112 -3.888,-3.888 -8.568,-5.904 -14.112,-5.904 -5.544,0 -10.224,2.016 -14.112,5.904 -3.888,3.888 -5.832,8.568 -5.832,14.112 0,5.544 1.944,10.224 5.832,14.112 3.888,3.888 8.568,5.832 14.112,5.832 z m 0,-33.048 c 3.6,0 6.696,1.296 9.288,3.816 2.52,2.592 3.816,5.688 3.816,9.288 0,3.6 -1.296,6.696 -3.816,9.216 -2.592,2.592 -5.688,3.816 -9.288,3.816 -3.6,0 -6.696,-1.224 -9.216,-3.816 -2.592,-2.52 -3.816,-5.616 -3.816,-9.216 0,-3.6 1.224,-6.696 3.816,-9.288 2.52,-2.52 5.616,-3.816 9.216,-3.816 z" transform="translate(0 249.15522166174688) translate(642.4864215024465 115.95086011165293) scale(1.6148648056923232) translate(-587.82781 -80.328)"></path> 
   <path id="path29339" style="font-style: normal; font-weight: 700; font-size: 72px; line-height: 1; font-family: &quot;Comfortaa Bold Alt2&quot;; font-variant-ligatures: none; text-align: center; text-anchor: middle; fill: rgb(176, 183, 159);" d="m 631.26069,70.104 c 0.72,0.72 1.584,1.008 2.664,1.008 h 21.888 l -20.664,42.912 c -0.432,0.864 -0.648,1.656 -0.648,2.304 0,1.008 0.36,1.872 1.08,2.592 0.72,0.72 1.512,1.08 2.52,1.08 0.648,0 1.296,-0.144 1.944,-0.504 0.576,-0.36 1.08,-0.864 1.44,-1.512 l 23.04,-48.6 c 0.288,-0.72 0.504,-1.368 0.504,-1.944 0,-1.008 -0.36,-1.872 -1.08,-2.592 -0.72,-0.72 -1.584,-1.08 -2.592,-1.08 h -27.432 c -1.08,0 -1.944,0.36 -2.664,1.08 -0.72,0.72 -1.008,1.584 -1.008,2.592 0,1.08 0.288,1.944 1.008,2.664 z" transform="translate(0 249.15522166174688) translate(715.8414615172436 89.20869892938808) scale(1.6148648056923232) translate(-630.25269 -63.768)"></path> 
  </g> 
  <g id="tagline" style="font-style:normal;font-weight:500;font-size:32px;line-height:1;font-family:Raleway;font-variant-ligatures:none;text-align:center;text-anchor:middle"></g> 
 </g> 
</svg>