<svg xmlns:dc="http://purl.org/dc/elements/1.1/" xmlns:cc="http://creativecommons.org/ns#" xmlns:rdf="http://www.w3.org/1999/02/22-rdf-syntax-ns#" xmlns:svg="http://www.w3.org/2000/svg" xmlns="http://www.w3.org/2000/svg" id="svg295912" viewbox="0 0 1024 768" height="768px" width="1024px" version="1.1"> <metadata id="metadata295918"> 
  <rdf:rdf> 
   <cc:work rdf:about=""> 
    <dc:format>
     image/svg+xml
    </dc:format> 
    <dc:type rdf:resource="http://purl.org/dc/dcmitype/StillImage"></dc:type> 
   </cc:work> 
  </rdf:rdf> 
 </metadata> <defs id="defs295916"></defs> <g id="logo-group"> 
  <g id="title" style="font-style:normal;font-weight:800;font-size:72px;line-height:1;font-family:'Montserrat ExtraBold Alt1';font-variant-ligatures:none;text-align:center;text-anchor:middle" aria-label="Producto7"> 
   <path id="path295920" style="font-style: normal; font-weight: 800; font-size: 72px; line-height: 1; font-family: &quot;Montserrat ExtraBold Alt1&quot;; font-variant-ligatures: none; text-align: center; text-anchor: middle; fill: rgb(5, 5, 5);" d="m 360.18912,78.384 c -1.87199,-2.808 -4.464,-4.968 -7.776,-6.48 -3.38399,-1.512 -7.344,-2.304 -11.88,-2.304 h -23.03999 v 11.232 h 22.17599 c 2.88,0 5.112,0.648 6.62401,1.944 1.43999,1.296 2.23199,3.168 2.23199,5.472 0,2.376 -0.792,4.176 -2.23199,5.472 -1.51201,1.296 -3.74401,1.872 -6.62401,1.872 H 317.49313 V 120 h 14.25599 v -13.176 h 8.784 c 4.536,0 8.49601,-0.72 11.88,-2.232 3.312,-1.512 5.90401,-3.672 7.776,-6.48 1.8,-2.736 2.736,-6.048 2.736,-9.864 0,-3.744 -0.936,-7.056 -2.736,-9.864 z" transform="translate(0 276.36742452178225) translate(252 75.7723832551805) scale(1.3268445869997199) translate(-317.49313 -69.6)"></path> 
   <path id="path295922" style="font-style: normal; font-weight: 800; font-size: 72px; line-height: 1; font-family: &quot;Montserrat ExtraBold Alt1&quot;; font-variant-ligatures: none; text-align: center; text-anchor: middle; fill: rgb(5, 5, 5);" d="m 387.87087,81.696 c -2.232,0.864 -4.03199,2.232 -5.4,3.96 v -4.68 h -13.032 V 120 h 13.68 v -17.928 c 0,-3.24 0.792,-5.688 2.448,-7.272 1.656,-1.584 3.96001,-2.376 6.91201,-2.376 0.79199,0 1.8,0.072 3.096,0.216 V 80.328 c -2.88,0 -5.47201,0.504 -7.70401,1.368 z" transform="translate(0 276.36742452178225) translate(320.92392393669485 90.0067719845135) scale(1.3268445869997199) translate(-369.43887 -80.328)"></path> 
   <path id="path295924" style="font-style: normal; font-weight: 800; font-size: 72px; line-height: 1; font-family: &quot;Montserrat ExtraBold Alt1&quot;; font-variant-ligatures: none; text-align: center; text-anchor: middle; fill: rgb(5, 5, 5);" d="m 409.07825,118.056 c 3.312,1.728 7.128,2.592 11.304,2.592 4.176,0 7.992,-0.864 11.376,-2.592 3.312,-1.728 5.976,-4.104 7.848,-7.2 1.872,-3.024 2.808,-6.552 2.808,-10.44 0,-3.888 -0.936,-7.344 -2.808,-10.368 -1.872,-3.024 -4.536,-5.4 -7.848,-7.128 -3.384,-1.728 -7.2,-2.592 -11.376,-2.592 -4.248,0 -8.064,0.864 -11.376,2.592 -3.312,1.728 -5.976,4.104 -7.848,7.128 -1.872,3.096 -2.808,6.552 -2.808,10.368 0,3.888 0.936,7.416 2.808,10.44 1.872,3.096 4.536,5.472 7.92,7.2 z m 17.208,-10.728 c -1.584,1.656 -3.528,2.448 -5.904,2.448 -2.448,0 -4.392,-0.792 -5.904,-2.448 -1.584,-1.656 -2.304,-3.96 -2.304,-6.912 0,-2.88 0.72,-5.112 2.304,-6.768 1.512,-1.584 3.456,-2.448 5.904,-2.448 2.376,0 4.32,0.864 5.904,2.448 1.512,1.656 2.304,3.888 2.304,6.768 0,2.952 -0.792,5.256 -2.304,6.912 z" transform="translate(0 276.36742452178225) translate(359.28483199238684 90.0067719845135) scale(1.3268445869997199) translate(-398.35025 -80.328)"></path> 
   <path id="path295926" style="font-style: normal; font-weight: 800; font-size: 72px; line-height: 1; font-family: &quot;Montserrat ExtraBold Alt1&quot;; font-variant-ligatures: none; text-align: center; text-anchor: middle; fill: rgb(5, 5, 5);" d="M 490.22338,66.576 H 476.54337 V 84.36 c -2.592,-2.664 -6.19199,-4.032 -10.79999,-4.032 -3.60001,0 -6.84001,0.864 -9.72001,2.448 -2.952,1.656 -5.25599,4.032 -6.984,7.056 -1.728,3.024 -2.51999,6.552 -2.51999,10.584 0,4.032 0.79199,7.632 2.51999,10.656 1.72801,3.096 4.032,5.472 6.984,7.128 2.88,1.656 6.12,2.448 9.72001,2.448 5.03999,0 8.85599,-1.512 11.44799,-4.536 V 120 h 13.03201 z m -15.76801,40.752 c -1.584,1.656 -3.528,2.448 -5.832,2.448 -2.448,0 -4.39199,-0.792 -5.90399,-2.448 -1.58401,-1.656 -2.30401,-3.96 -2.30401,-6.912 0,-2.88 0.72,-5.112 2.30401,-6.768 1.512,-1.584 3.45599,-2.448 5.90399,-2.448 2.376,0 4.32,0.864 5.832,2.448 1.512,1.656 2.304,3.888 2.304,6.768 0,2.952 -0.792,5.256 -2.304,6.912 z" transform="translate(0 276.36742452178225) translate(423.1977813933727 71.76000522409336) scale(1.3268445869997199) translate(-446.51938 -66.576)"></path> 
   <path id="path295928" style="font-style: normal; font-weight: 800; font-size: 72px; line-height: 1; font-family: &quot;Montserrat ExtraBold Alt1&quot;; font-variant-ligatures: none; text-align: center; text-anchor: middle; fill: rgb(5, 5, 5);" d="m 539.9945,80.976 h -13.68 v 18.792 c 0,3.168 -0.72,5.472 -2.088,6.984 -1.368,1.512 -3.096,2.232 -5.256,2.232 -2.16,0 -3.744,-0.648 -4.824,-2.016 -1.152,-1.296 -1.656,-3.456 -1.656,-6.408 V 80.976 h -13.68 v 21.816 c 0,5.976 1.44,10.44 4.464,13.392 3.024,3.024 7.056,4.464 12.096,4.464 2.232,0 4.392,-0.36 6.408,-1.224 2.016,-0.792 3.744,-2.016 5.184,-3.6 V 120 h 13.032 z" transform="translate(0 276.36742452178225) translate(492.5799709135254 90.86656727688933) scale(1.3268445869997199) translate(-498.8105 -80.976)"></path> 
   <path id="path295930" style="font-style: normal; font-weight: 800; font-size: 72px; line-height: 1; font-family: &quot;Montserrat ExtraBold Alt1&quot;; font-variant-ligatures: none; text-align: center; text-anchor: middle; fill: rgb(5, 5, 5);" d="m 557.08775,118.056 c 3.384,1.728 7.272,2.592 11.592,2.592 4.392,0 8.208,-0.936 11.448,-2.808 3.168,-1.872 5.472,-4.536 6.84,-7.92 l -10.584,-5.4 c -1.8,3.528 -4.392,5.256 -7.776,5.256 -2.448,0 -4.536,-0.792 -6.12,-2.448 -1.584,-1.656 -2.376,-3.96 -2.376,-6.912 0,-2.88 0.792,-5.112 2.376,-6.768 1.584,-1.584 3.672,-2.448 6.12,-2.448 3.384,0 5.976,1.8 7.776,5.256 l 10.584,-5.4 c -1.368,-3.312 -3.672,-5.976 -6.84,-7.848 -3.24,-1.872 -7.056,-2.88 -11.448,-2.88 -4.32,0 -8.208,0.864 -11.592,2.592 -3.456,1.728 -6.12,4.104 -7.992,7.128 -1.872,3.024 -2.808,6.48 -2.808,10.368 0,3.888 0.936,7.416 2.808,10.44 1.872,3.096 4.536,5.472 7.992,7.2 z" transform="translate(0 276.36742452178225) translate(555.5749030816578 90.0067719845135) scale(1.3268445869997199) translate(-546.28775 -80.328)"></path> 
   <path id="path295932" style="font-style: normal; font-weight: 800; font-size: 72px; line-height: 1; font-family: &quot;Montserrat ExtraBold Alt1&quot;; font-variant-ligatures: none; text-align: center; text-anchor: middle; fill: rgb(5, 5, 5);" d="m 619.82,118.416 -3.384,-9.576 c -1.224,0.864 -2.592,1.224 -4.176,1.224 -1.296,0 -2.304,-0.36 -3.024,-1.152 -0.72,-0.792 -1.08,-1.872 -1.08,-3.312 V 92.64 h 8.928 V 82.416 h -8.928 V 72.264 h -13.68 v 10.152 h -5.688 V 92.64 h 5.688 v 13.104 c 0,4.968 1.368,8.712 4.104,11.16 2.736,2.52 6.624,3.744 11.736,3.744 1.872,0 3.6,-0.144 5.256,-0.576 1.656,-0.36 3.096,-0.936 4.248,-1.656 z" transform="translate(0 276.36742452178225) translate(611.9661297402928 79.30709723494775) scale(1.3268445869997199) translate(-588.788 -72.264)"></path> 
   <path id="path295934" style="font-style: normal; font-weight: 800; font-size: 72px; line-height: 1; font-family: &quot;Montserrat ExtraBold Alt1&quot;; font-variant-ligatures: none; text-align: center; text-anchor: middle; fill: rgb(5, 5, 5);" d="m 632.25013,118.056 c 3.312,1.728 7.12799,2.592 11.30399,2.592 4.17601,0 7.992,-0.864 11.376,-2.592 3.312,-1.728 5.976,-4.104 7.84801,-7.2 1.87199,-3.024 2.808,-6.552 2.808,-10.44 0,-3.888 -0.93601,-7.344 -2.808,-10.368 -1.87201,-3.024 -4.53601,-5.4 -7.84801,-7.128 -3.384,-1.728 -7.19999,-2.592 -11.376,-2.592 -4.248,0 -8.06399,0.864 -11.37599,2.592 -3.31201,1.728 -5.976,4.104 -7.84801,7.128 -1.872,3.096 -2.808,6.552 -2.808,10.368 0,3.888 0.936,7.416 2.808,10.44 1.87201,3.096 4.536,5.472 7.92001,7.2 z m 17.20799,-10.728 c -1.58399,1.656 -3.528,2.448 -5.904,2.448 -2.44799,0 -4.39199,-0.792 -5.904,-2.448 -1.58399,-1.656 -2.30399,-3.96 -2.30399,-6.912 0,-2.88 0.72,-5.112 2.30399,-6.768 1.51201,-1.584 3.45601,-2.448 5.904,-2.448 2.376,0 4.32001,0.864 5.904,2.448 1.51201,1.656 2.304,3.888 2.304,6.768 0,2.952 -0.79199,5.256 -2.304,6.912 z" transform="translate(0 276.36742452178225) translate(655.399219672492 90.0067719845135) scale(1.3268445869997199) translate(-621.52212 -80.328)"></path> 
   <path id="path295936" style="font-style: normal; font-weight: 800; font-size: 72px; line-height: 1; font-family: &quot;Montserrat ExtraBold Alt1&quot;; font-variant-ligatures: none; text-align: center; text-anchor: middle; fill: rgb(5, 5, 5);" d="m 709.40037,69.6 h -41.76 v 19.08 h 12.168 v -7.776 h 13.248 L 676.06438,120 h 15.55199 l 17.784,-41.472 z" transform="translate(0 276.36742452178225) translate(716.5909700468917 75.7723832551805) scale(1.3268445869997199) translate(-667.64037 -69.6)"></path> 
  </g> 
  <g id="tagline" style="font-style:normal;font-weight:500;font-size:32px;line-height:1;font-family:Montserrat;font-variant-ligatures:none;text-align:center;text-anchor:middle"></g> 
 </g> 
</svg>