<svg xmlns:dc="http://purl.org/dc/elements/1.1/" xmlns:cc="http://creativecommons.org/ns#" xmlns:rdf="http://www.w3.org/1999/02/22-rdf-syntax-ns#" xmlns:svg="http://www.w3.org/2000/svg" xmlns="http://www.w3.org/2000/svg" id="svg659355" viewbox="0 0 1024 768" height="768px" width="1024px" version="1.1"> <metadata id="metadata659361"> 
  <rdf:rdf> 
   <cc:work rdf:about=""> 
    <dc:format>
     image/svg+xml
    </dc:format> 
    <dc:type rdf:resource="http://purl.org/dc/dcmitype/StillImage"></dc:type> 
   </cc:work> 
  </rdf:rdf> 
 </metadata> <defs id="defs659359"></defs> <g id="logo-group"> 
  <g id="title" style="font-style:normal;font-weight:200;font-size:72px;line-height:1;font-family:Montserrat;font-variant-ligatures:none;text-align:center;text-anchor:middle" aria-label="Protecto7"> 
   <path id="path659363" style="font-style: normal; font-weight: 200; font-size: 72px; line-height: 1; font-family: Montserrat; font-variant-ligatures: none; text-align: center; text-anchor: middle; fill: rgb(23, 156, 240);" d="m 372.13156,69.672 q 9.144,0 14.184,4.32 5.04,4.248 5.04,12.024 0,7.92 -5.04,12.312 -5.04,4.392 -14.184,4.392 h -15.624 V 120 h -1.44 V 69.672 Z m 0,31.608 q 8.496,0 13.104,-3.96 4.68,-4.032 4.68,-11.304 0,-7.128 -4.68,-11.016 -4.608,-3.888 -13.104,-3.888 h -15.624 v 30.168 z" transform="translate(0 250.15424591258792) translate(251.99999999999994 93.11100395185557) scale(1.6187708685247382) translate(-355.06756 -69.672)"></path> 
   <path id="path659365" style="font-style: normal; font-weight: 200; font-size: 72px; line-height: 1; font-family: Montserrat; font-variant-ligatures: none; text-align: center; text-anchor: middle; fill: rgb(23, 156, 240);" d="m 402.88344,92.928 q 1.656,-4.752 5.328,-7.416 3.672,-2.664 8.928,-2.736 v 1.44 q -6.336,0.144 -10.08,4.248 -3.672,4.032 -4.176,11.16 V 120 h -1.44 V 82.776 h 1.44 z" transform="translate(0 250.15424591258792) translate(327.07192354619895 114.32337741300373) scale(1.6187708685247382) translate(-401.44344 -82.776)"></path> 
   <path id="path659367" style="font-style: normal; font-weight: 200; font-size: 72px; line-height: 1; font-family: Montserrat; font-variant-ligatures: none; text-align: center; text-anchor: middle; fill: rgb(23, 156, 240);" d="m 439.66756,82.776 q 5.112,0 9.216,2.376 4.176,2.376 6.48,6.624 2.376,4.248 2.376,9.576 0,5.328 -2.376,9.576 -2.304,4.248 -6.48,6.696 -4.104,2.376 -9.216,2.376 -5.112,0 -9.288,-2.376 -4.104,-2.448 -6.48,-6.696 -2.304,-4.248 -2.304,-9.576 0,-5.328 2.304,-9.576 2.376,-4.248 6.48,-6.624 4.176,-2.376 9.288,-2.376 z m 0,1.44 q -4.752,0 -8.568,2.232 -3.816,2.16 -5.976,6.048 -2.088,3.888 -2.088,8.856 0,4.968 2.088,8.928 2.16,3.888 5.976,6.12 3.816,2.16 8.568,2.16 4.752,0 8.568,-2.16 3.816,-2.232 5.904,-6.12 2.16,-3.96 2.16,-8.928 0,-4.968 -2.16,-8.856 -2.088,-3.888 -5.904,-6.048 -3.816,-2.232 -8.568,-2.232 z" transform="translate(0 250.15424591258792) translate(359.69358834121357 114.32337741300373) scale(1.6187708685247382) translate(-421.59556 -82.776)"></path> 
   <path id="path659369" style="font-style: normal; font-weight: 200; font-size: 72px; line-height: 1; font-family: Montserrat; font-variant-ligatures: none; text-align: center; text-anchor: middle; fill: rgb(23, 156, 240);" d="m 485.78131,117.336 q -3.6,2.664 -7.488,2.664 -3.816,0 -5.832,-2.592 -1.944,-2.592 -1.944,-7.632 v -24.84 h -5.472 v -1.44 h 5.472 V 74.64 h 1.44 v 8.856 h 13.104 v 1.44 h -13.104 v 24.84 q 0,4.32 1.584,6.552 1.656,2.232 4.752,2.232 3.6,0 6.624,-2.376 z" transform="translate(0 250.15424591258792) translate(430.02877788589626 101.15305762668646) scale(1.6187708685247382) translate(-465.04531 -74.64)"></path> 
   <path id="path659371" style="font-style: normal; font-weight: 200; font-size: 72px; line-height: 1; font-family: Montserrat; font-variant-ligatures: none; text-align: center; text-anchor: middle; fill: rgb(23, 156, 240);" d="m 508.42981,118.56 q 4.032,0 7.416,-1.368 3.456,-1.44 5.76,-4.032 l 1.008,1.008 q -2.592,2.808 -6.264,4.32 -3.672,1.512 -7.92,1.512 -5.112,0 -9.216,-2.376 -4.032,-2.448 -6.408,-6.696 -2.304,-4.248 -2.304,-9.576 0,-5.328 2.304,-9.576 2.376,-4.248 6.408,-6.624 4.104,-2.376 9.216,-2.376 5.112,0 9,2.376 3.96,2.376 6.12,6.624 2.16,4.248 2.16,9.576 h -33.768 q 0,4.968 2.088,8.928 2.16,3.888 5.904,6.12 3.744,2.16 8.496,2.16 z m 0,-34.344 q -4.536,0 -8.208,2.016 -3.6,1.944 -5.76,5.544 -2.16,3.528 -2.448,8.136 h 32.256 q -0.504,-7.056 -4.752,-11.376 -4.248,-4.32 -11.088,-4.32 z" transform="translate(0 250.15424591258792) translate(471.2370185004963 114.32337741300373) scale(1.6187708685247382) translate(-490.50181 -82.776)"></path> 
   <path id="path659373" style="font-style: normal; font-weight: 200; font-size: 72px; line-height: 1; font-family: Montserrat; font-variant-ligatures: none; text-align: center; text-anchor: middle; fill: rgb(23, 156, 240);" d="m 562.77856,88.752 q -4.968,-4.536 -11.736,-4.536 -4.752,0 -8.568,2.232 -3.816,2.16 -5.976,6.048 -2.16,3.888 -2.16,8.856 0,4.968 2.16,8.928 2.16,3.888 5.976,6.12 3.816,2.16 8.568,2.16 3.816,0 6.984,-1.368 3.24,-1.44 5.544,-4.032 l 0.936,1.008 q -2.448,2.808 -5.976,4.32 -3.456,1.512 -7.488,1.512 -5.112,0 -9.288,-2.376 -4.104,-2.448 -6.48,-6.696 -2.304,-4.248 -2.304,-9.576 0,-5.328 2.304,-9.576 2.376,-4.248 6.48,-6.624 4.176,-2.376 9.288,-2.376 3.672,0 6.912,1.296 3.312,1.296 5.76,3.672 z" transform="translate(0 250.15424591258792) translate(539.9841938231563 114.32337741300373) scale(1.6187708685247382) translate(-532.97056 -82.776)"></path> 
   <path id="path659375" style="font-style: normal; font-weight: 200; font-size: 72px; line-height: 1; font-family: Montserrat; font-variant-ligatures: none; text-align: center; text-anchor: middle; fill: rgb(23, 156, 240);" d="m 593.64069,117.336 q -3.6,2.664 -7.488,2.664 -3.816,0 -5.832,-2.592 -1.944,-2.592 -1.944,-7.632 v -24.84 h -5.472 v -1.44 h 5.472 V 74.64 h 1.44 v 8.856 h 13.104 v 1.44 h -13.104 v 24.84 q 0,4.32 1.584,6.552 1.656,2.232 4.752,2.232 3.6,0 6.624,-2.376 z" transform="translate(0 250.15424591258792) translate(604.628400127036 101.15305762668646) scale(1.6187708685247382) translate(-572.90469 -74.64)"></path> 
   <path id="path659377" style="font-style: normal; font-weight: 200; font-size: 72px; line-height: 1; font-family: Montserrat; font-variant-ligatures: none; text-align: center; text-anchor: middle; fill: rgb(248, 247, 247);" d="m 616.43319,82.776 q 5.112,0 9.216,2.376 4.176,2.376 6.48,6.624 2.376,4.248 2.376,9.576 0,5.328 -2.376,9.576 -2.304,4.248 -6.48,6.696 -4.104,2.376 -9.216,2.376 -5.112,0 -9.288,-2.376 -4.104,-2.448 -6.48,-6.696 -2.304,-4.248 -2.304,-9.576 0,-5.328 2.304,-9.576 2.376,-4.248 6.48,-6.624 4.176,-2.376 9.288,-2.376 z m 0,1.44 q -4.752,0 -8.568,2.232 -3.816,2.16 -5.976,6.048 -2.088,3.888 -2.088,8.856 0,4.968 2.088,8.928 2.16,3.888 5.976,6.12 3.816,2.16 8.568,2.16 4.752,0 8.568,-2.16 3.816,-2.232 5.904,-6.12 2.16,-3.96 2.16,-8.928 0,-4.968 -2.16,-8.856 -2.088,-3.888 -5.904,-6.048 -3.816,-2.232 -8.568,-2.232 z" transform="translate(0 250.15424591258792) translate(645.836640741636 114.32337741300373) scale(1.6187708685247382) translate(-598.36119 -82.776)"></path> 
   <path id="path659379" style="font-style: normal; font-weight: 200; font-size: 72px; line-height: 1; font-family: Montserrat; font-variant-ligatures: none; text-align: center; text-anchor: middle; fill: rgb(248, 247, 247);" d="m 640.80294,69.672 h 35.496 v 1.8 L 651.67494,120 h -1.584 l 24.912,-48.888 h -32.76 v 8.064 h -1.44 z" transform="translate(0 250.15424591258792) translate(714.540109250846 93.11100395185557) scale(1.6187708685247382) translate(-640.80294 -69.672)"></path> 
  </g> 
  <g id="tagline" style="font-style:normal;font-weight:400;font-size:32px;line-height:1;font-family:Montserrat;font-variant-ligatures:none;text-align:center;text-anchor:middle"></g> 
 </g> 
</svg>