<svg xmlns:dc="http://purl.org/dc/elements/1.1/" xmlns:cc="http://creativecommons.org/ns#" xmlns:rdf="http://www.w3.org/1999/02/22-rdf-syntax-ns#" xmlns:svg="http://www.w3.org/2000/svg" xmlns="http://www.w3.org/2000/svg" id="svg6339" viewbox="0 0 1024 768" height="768px" width="1024px" version="1.1"> <metadata id="metadata6345"> 
  <rdf:rdf> 
   <cc:work rdf:about=""> 
    <dc:format>
     image/svg+xml
    </dc:format> 
    <dc:type rdf:resource="http://purl.org/dc/dcmitype/StillImage"></dc:type> 
   </cc:work> 
  </rdf:rdf> 
 </metadata> <defs id="defs6343"></defs> <g id="logo-group"> 
  <g id="title" style="font-style:normal;font-weight:700;font-size:72px;line-height:1;font-family:'Comfortaa Bold Alt1';font-variant-ligatures:none;text-align:center;text-anchor:middle" aria-label="purpleo7"> 
   <path id="path6347" style="font-style: normal; font-weight: 700; font-size: 72px; line-height: 1; font-family: &quot;Comfortaa Bold Alt1&quot;; font-variant-ligatures: none; text-align: center; text-anchor: middle; fill: rgb(206, 206, 206);" d="m 392.2145,100.344 c 0,-3.744 -0.864,-7.128 -2.592,-10.152 -1.728,-3.024 -4.176,-5.472 -7.2,-7.2 -3.024,-1.728 -6.408,-2.664 -10.08,-2.664 h -0.288 -0.144 -15.912 c -1.008,0 -1.8,0.36 -2.448,1.008 -0.72,0.72 -1.008,1.512 -1.008,2.448 v 15.336 1.224 32.832 c 0,1.152 0.288,2.016 1.008,2.664 0.648,0.72 1.512,1.008 2.664,1.008 1.008,0 1.872,-0.288 2.592,-1.008 0.72,-0.648 1.08,-1.512 1.08,-2.664 v -19.44 c 1.656,2.088 3.672,3.672 6.12,4.824 2.376,1.152 4.968,1.728 7.776,1.728 3.456,0 6.552,-0.864 9.36,-2.592 2.808,-1.728 5.04,-4.104 6.624,-7.128 1.584,-3.024 2.448,-6.48 2.448,-10.224 z m -7.056,0 c 0,2.592 -0.576,4.896 -1.728,6.912 -1.152,2.016 -2.664,3.672 -4.608,4.824 -1.944,1.152 -4.104,1.728 -6.48,1.728 -2.448,0 -4.608,-0.576 -6.552,-1.728 -1.944,-1.152 -3.456,-2.808 -4.536,-4.824 -1.152,-2.016 -1.656,-4.32 -1.656,-6.912 0,-2.52 0.504,-4.824 1.656,-6.912 1.08,-2.016 2.592,-3.672 4.536,-4.824 1.944,-1.152 4.104,-1.8 6.552,-1.8 2.376,0 4.536,0.648 6.48,1.8 1.944,1.152 3.456,2.808 4.608,4.824 1.152,2.088 1.728,4.392 1.728,6.912 z" transform="translate(0 257.64442514049927) translate(252.0000000000001 98.4448496362601) scale(1.3969331943563899) translate(-352.5425 -80.328)"></path> 
   <path id="path6349" style="font-style: normal; font-weight: 700; font-size: 72px; line-height: 1; font-family: &quot;Comfortaa Bold Alt1&quot;; font-variant-ligatures: none; text-align: center; text-anchor: middle; fill: rgb(206, 206, 206);" d="M 439.3115,116.328 V 84.216 c 0,-1.08 -0.36,-1.944 -1.008,-2.664 -0.72,-0.648 -1.584,-1.008 -2.664,-1.008 -1.08,0 -1.944,0.36 -2.664,1.008 -0.72,0.72 -1.008,1.584 -1.008,2.664 v 20.304 c 0,1.8 -0.504,3.312 -1.44,4.68 -0.936,1.44 -2.232,2.52 -3.888,3.312 -1.656,0.864 -3.528,1.224 -5.472,1.224 -3.528,0 -6.264,-0.936 -8.352,-2.952 -2.088,-2.016 -3.096,-4.968 -3.096,-8.856 V 84.216 c 0,-1.008 -0.36,-1.872 -1.08,-2.592 -0.72,-0.72 -1.584,-1.08 -2.592,-1.08 -1.08,0 -1.944,0.36 -2.664,1.08 -0.72,0.72 -1.008,1.584 -1.008,2.592 v 17.712 c 0,3.96 0.72,7.272 2.232,10.008 1.44,2.736 3.528,4.896 6.192,6.264 2.52,1.44 5.256,2.16 8.28,2.232 0.144,0 5.688,0 16.848,0 0.936,0 1.728,-0.36 2.376,-1.008 0.648,-0.648 1.008,-1.44 1.008,-2.448 z" transform="translate(0 257.64442514049927) translate(331.3919042348567 98.74658720624106) scale(1.3969331943563899) translate(-402.3755 -80.544)"></path> 
   <path id="path6351" style="font-style: normal; font-weight: 700; font-size: 72px; line-height: 1; font-family: &quot;Comfortaa Bold Alt1&quot;; font-variant-ligatures: none; text-align: center; text-anchor: middle; fill: rgb(206, 206, 206);" d="m 477.51762,81.336 c -1.44,-0.72 -3.456,-1.152 -5.976,-1.152 -2.448,0 -4.68,0.504 -6.768,1.44 -2.15999,1.008 -3.888,2.304 -5.328,3.96 v -1.368 c 0,-2.376 -1.22399,-3.6 -3.6,-3.6 -1.152,0 -2.08799,0.36 -2.664,0.936 -0.648,0.648 -0.93599,1.512 -0.93599,2.664 V 116.4 c 0,1.224 0.28799,2.16 0.93599,2.736 0.57601,0.576 1.512,0.864 2.664,0.864 1.152,0 2.088,-0.288 2.66401,-0.936 0.57599,-0.576 0.93599,-1.512 0.93599,-2.664 V 95.376 c 0,-2.664 1.008,-4.824 3.16801,-6.408 2.08799,-1.584 4.896,-2.376 8.35199,-2.376 1.152,0 2.736,0.216 4.68,0.504 0.432,0.144 0.79201,0.144 1.08,0.144 1.44,0 2.44801,-0.72 2.88001,-2.304 0,-0.144 0.072,-0.36 0.072,-0.72 0,-1.152 -0.72,-2.088 -2.16,-2.88 z" transform="translate(0 257.64442514049927) translate(410.83567659921994 98.24369125627274) scale(1.3969331943563899) translate(-452.24563 -80.184)"></path> 
   <path id="path6353" style="font-style: normal; font-weight: 700; font-size: 72px; line-height: 1; font-family: &quot;Comfortaa Bold Alt1&quot;; font-variant-ligatures: none; text-align: center; text-anchor: middle; fill: rgb(206, 206, 206);" d="m 526.93325,100.344 c 0,-3.744 -0.864,-7.128 -2.592,-10.152 -1.728,-3.024 -4.176,-5.472 -7.2,-7.2 -3.024,-1.728 -6.408,-2.664 -10.08,-2.664 h -0.288 -0.144 -15.912 c -1.008,0 -1.8,0.36 -2.448,1.008 -0.72,0.72 -1.008,1.512 -1.008,2.448 v 15.336 1.224 32.832 c 0,1.152 0.288,2.016 1.008,2.664 0.648,0.72 1.512,1.008 2.664,1.008 1.008,0 1.872,-0.288 2.592,-1.008 0.72,-0.648 1.08,-1.512 1.08,-2.664 v -19.44 c 1.656,2.088 3.672,3.672 6.12,4.824 2.376,1.152 4.968,1.728 7.776,1.728 3.456,0 6.552,-0.864 9.36,-2.592 2.808,-1.728 5.04,-4.104 6.624,-7.128 1.584,-3.024 2.448,-6.48 2.448,-10.224 z m -7.056,0 c 0,2.592 -0.576,4.896 -1.728,6.912 -1.152,2.016 -2.664,3.672 -4.608,4.824 -1.944,1.152 -4.104,1.728 -6.48,1.728 -2.448,0 -4.608,-0.576 -6.552,-1.728 -1.944,-1.152 -3.456,-2.808 -4.536,-4.824 -1.152,-2.016 -1.656,-4.32 -1.656,-6.912 0,-2.52 0.504,-4.824 1.656,-6.912 1.08,-2.016 2.592,-3.672 4.536,-4.824 1.944,-1.152 4.104,-1.8 6.552,-1.8 2.376,0 4.536,0.648 6.48,1.8 1.944,1.152 3.456,2.808 4.608,4.824 1.152,2.088 1.728,4.392 1.728,6.912 z" transform="translate(0 257.64442514049927) translate(469.5286908586841 98.4448496362601) scale(1.3969331943563899) translate(-487.26125 -80.328)"></path> 
   <path id="path6355" style="font-style: normal; font-weight: 700; font-size: 72px; line-height: 1; font-family: &quot;Comfortaa Bold Alt1&quot;; font-variant-ligatures: none; text-align: center; text-anchor: middle; fill: rgb(206, 206, 206);" d="m 537.45425,64.776 c -0.72,0.72 -1.008,1.584 -1.008,2.592 v 39.312 c 0,2.592 0.432,4.896 1.368,6.912 0.864,2.016 2.16,3.6 3.816,4.752 1.656,1.152 3.528,1.656 5.616,1.656 h 0.144 c 1.44,0 2.592,-0.288 3.528,-1.008 0.864,-0.648 1.368,-1.512 1.368,-2.592 0,-1.008 -0.36,-1.872 -0.936,-2.592 -0.576,-0.648 -1.368,-1.008 -2.304,-1.008 h -1.8 c -1.08,0 -1.944,-0.576 -2.592,-1.728 -0.72,-1.152 -1.008,-2.592 -1.008,-4.392 V 67.368 c 0,-1.008 -0.36,-1.872 -1.008,-2.592 -0.72,-0.648 -1.584,-1.008 -2.592,-1.008 -1.08,0 -1.944,0.36 -2.592,1.008 z" transform="translate(0 257.64442514049927) translate(548.0153823835977 75.31163593771825) scale(1.3969331943563899) translate(-536.44625 -63.768)"></path> 
   <path id="path6357" style="font-style: normal; font-weight: 700; font-size: 72px; line-height: 1; font-family: &quot;Comfortaa Bold Alt1&quot;; font-variant-ligatures: none; text-align: center; text-anchor: middle; fill: rgb(206, 206, 206);" d="m 591.84912,102 c 0.576,-0.576 0.936,-1.368 0.936,-2.304 0,-3.744 -0.72,-7.128 -2.15999,-10.08 -1.44001,-2.88 -3.52801,-5.184 -6.192,-6.84 -2.736,-1.584 -5.904,-2.448 -9.57601,-2.448 -3.744,0 -7.128,0.864 -10.08,2.592 -2.952,1.728 -5.256,4.104 -6.91199,7.128 -1.65601,3.024 -2.448,6.48 -2.448,10.296 0,3.888 0.86399,7.272 2.592,10.296 1.72799,3.024 4.17599,5.4 7.34399,7.128 3.096,1.728 6.624,2.52 10.58401,2.52 2.15999,0 4.46399,-0.36 6.91199,-1.224 2.44801,-0.792 4.46401,-1.872 6.12,-3.168 0.72,-0.576 1.152,-1.296 1.152,-2.16 0,-0.864 -0.432,-1.728 -1.296,-2.448 -0.57599,-0.432 -1.29599,-0.72 -2.16,-0.72 -0.936,0 -1.72799,0.288 -2.37599,0.792 -1.00801,0.792 -2.304,1.44 -3.88801,1.944 -1.58399,0.576 -3.024,0.792 -4.46399,0.792 -3.67201,0 -6.76801,-1.008 -9.288,-3.096 -2.52,-2.016 -4.03201,-4.752 -4.53601,-8.136 h 27.36 c 0.93601,0 1.72801,-0.288 2.376,-0.864 z M 566.28913,89.4 c 2.15999,-1.872 5.03999,-2.88 8.56799,-2.88 3.168,0 5.688,1.008 7.704,2.88 1.94401,1.944 3.168,4.536 3.6,7.704 h -23.976 c 0.576,-3.168 1.94401,-5.76 4.10401,-7.704 z" transform="translate(0 257.64442514049927) translate(584.2949667422444 98.4448496362601) scale(1.3969331943563899) translate(-555.41713 -80.328)"></path> 
   <path id="path6359" style="font-style: normal; font-weight: 700; font-size: 72px; line-height: 1; font-family: &quot;Comfortaa Bold Alt1&quot;; font-variant-ligatures: none; text-align: center; text-anchor: middle; fill: rgb(182, 182, 182);" d="m 628.75363,82.92 c -3.02401,-1.728 -6.408,-2.592 -10.152,-2.592 -3.88801,0 -7.27201,0.864 -10.29601,2.592 -3.024,1.728 -5.4,4.032 -7.05599,7.056 -1.72801,3.024 -2.52,6.48 -2.52,10.368 0,3.888 0.79199,7.272 2.52,10.296 1.65599,3.024 4.03199,5.4 7.05599,7.128 3.024,1.728 6.408,2.52 10.29601,2.52 3.816,0 7.2,-0.792 10.22399,-2.52 3.02401,-1.728 5.32801,-4.104 7.056,-7.128 1.65601,-3.024 2.52,-6.408 2.52,-10.296 0,-3.888 -0.86399,-7.344 -2.592,-10.368 -1.72799,-3.024 -4.032,-5.328 -7.05599,-7.056 z m -16.77601,5.616 c 1.944,-1.152 4.17601,-1.728 6.62401,-1.728 2.44799,0 4.60799,0.576 6.552,1.728 1.94399,1.152 3.456,2.808 4.53599,4.824 1.08001,2.088 1.65601,4.392 1.65601,6.984 0,2.592 -0.576,4.968 -1.65601,6.984 -1.07999,2.016 -2.592,3.6 -4.53599,4.752 -1.94401,1.152 -4.10401,1.728 -6.552,1.728 -2.448,0 -4.68001,-0.576 -6.62401,-1.728 -1.94399,-1.152 -3.456,-2.736 -4.53599,-4.752 -1.15201,-2.016 -1.65601,-4.392 -1.65601,-6.984 0,-2.592 0.504,-4.896 1.65601,-6.984 1.07999,-2.016 2.592,-3.672 4.53599,-4.824 z" transform="translate(0 257.64442514049927) translate(654.5781680833003 98.4448496362601) scale(1.3969331943563899) translate(-598.72963 -80.328)"></path> 
   <path id="path6361" style="font-style: normal; font-weight: 700; font-size: 72px; line-height: 1; font-family: &quot;Comfortaa Bold Alt1&quot;; font-variant-ligatures: none; text-align: center; text-anchor: middle; fill: rgb(182, 182, 182);" d="m 642.0185,70.104 c 0.72,0.72 1.584,1.008 2.664,1.008 h 21.888 l -20.664,42.912 c -0.432,0.864 -0.648,1.656 -0.648,2.304 0,1.008 0.36,1.872 1.08,2.592 0.72,0.72 1.512,1.08 2.52,1.08 0.648,0 1.296,-0.144 1.944,-0.504 0.576,-0.36 1.08,-0.864 1.44,-1.512 l 23.04,-48.6 c 0.288,-0.72 0.504,-1.368 0.504,-1.944 0,-1.008 -0.36,-1.872 -1.08,-2.592 -0.72,-0.72 -1.584,-1.08 -2.592,-1.08 h -27.432 c -1.08,0 -1.944,0.36 -2.664,1.08 -0.72,0.72 -1.008,1.584 -1.008,2.592 0,1.08 0.288,1.944 1.008,2.664 z" transform="translate(0 257.64442514049927) translate(723.4202512330621 75.31163593771825) scale(1.3969331943563899) translate(-641.0105 -63.768)"></path> 
  </g> 
  <g id="tagline" style="font-style:normal;font-weight:500;font-size:32px;line-height:1;font-family:Raleway;font-variant-ligatures:none;text-align:center;text-anchor:middle"></g> 
 </g> 
</svg>