<svg xmlns:dc="http://purl.org/dc/elements/1.1/" xmlns:cc="http://creativecommons.org/ns#" xmlns:rdf="http://www.w3.org/1999/02/22-rdf-syntax-ns#" xmlns:svg="http://www.w3.org/2000/svg" xmlns="http://www.w3.org/2000/svg" id="svg14458" viewbox="0 0 1024 768" height="768px" width="1024px" version="1.1"> <metadata id="metadata14464"> 
  <rdf:rdf> 
   <cc:work rdf:about=""> 
    <dc:format>
     image/svg+xml
    </dc:format> 
    <dc:type rdf:resource="http://purl.org/dc/dcmitype/StillImage"></dc:type> 
   </cc:work> 
  </rdf:rdf> 
 </metadata> <defs id="defs14462"></defs> <g id="logo-group"> 
  <g id="title" style="font-style:normal;font-weight:800;font-size:72px;line-height:1;font-family:'Montserrat ExtraBold Alt1';font-variant-ligatures:none;text-align:center;text-anchor:middle" aria-label="Quorumo7"> 
   <path id="path14466" style="font-style: normal; font-weight: 800; font-size: 72px; line-height: 1; font-family: &quot;Montserrat ExtraBold Alt1&quot;; font-variant-ligatures: none; text-align: center; text-anchor: middle; fill: rgb(66, 195, 228);" d="m 369.00912,125.832 -6.19199,-7.344 c -2.30401,2.376 -4.824,3.528 -7.63201,3.528 -1.152,0 -2.16,-0.216 -3.096,-0.648 -0.936,-0.432 -1.872,-1.152 -2.808,-2.232 5.184,-1.872 9.36,-4.968 12.456,-9.288 3.096,-4.32 4.68,-9.36 4.68,-15.048 0,-4.968 -1.224,-9.432 -3.67199,-13.464 -2.44801,-3.96 -5.76001,-7.056 -10.00801,-9.36 -4.248,-2.232 -9,-3.384 -14.32799,-3.384 -5.32801,0 -10.15201,1.152 -14.40001,3.384 -4.248,2.304 -7.56,5.4 -10.008,9.36 -2.44799,4.032 -3.6,8.496 -3.6,13.464 0,4.392 0.93601,8.424 2.808,12.024 1.872,3.672 4.53601,6.696 7.992,9.072 3.384,2.448 7.272,3.96 11.664,4.68 2.80801,3.024 5.328,5.328 7.632,6.984 2.30401,1.656 4.536,2.808 6.84001,3.528 2.23199,0.72 4.75199,1.08 7.56,1.08 2.87999,0 5.47199,-0.504 7.92,-1.584 2.44799,-1.08 4.46399,-2.664 6.19199,-4.752 z M 326.60113,102.36 c -1.22401,-2.16 -1.8,-4.68 -1.8,-7.56 0,-2.808 0.57599,-5.328 1.8,-7.488 1.15199,-2.16 2.808,-3.888 4.89599,-5.112 2.016,-1.152 4.32,-1.8 6.91201,-1.8 2.51999,0 4.82399,0.648 6.91199,1.8 2.01601,1.224 3.67201,2.952 4.896,5.112 1.152,2.16 1.80001,4.68 1.80001,7.488 0,2.88 -0.64801,5.4 -1.80001,7.56 -1.22399,2.16 -2.87999,3.888 -4.896,5.04 -2.088,1.224 -4.392,1.8 -6.91199,1.8 -2.59201,0 -4.89601,-0.576 -6.91201,-1.8 -2.08799,-1.152 -3.744,-2.88 -4.89599,-5.04 z" transform="translate(0 277.11699999999996) translate(237.93796875000015 67.14800000000001) scale(1.25) translate(-310.40112 -68.592)"></path> 
   <path id="path14468" style="font-style: normal; font-weight: 800; font-size: 72px; line-height: 1; font-family: &quot;Montserrat ExtraBold Alt1&quot;; font-variant-ligatures: none; text-align: center; text-anchor: middle; fill: rgb(66, 195, 228);" d="m 414.27575,80.976 h -13.68 v 18.792 c 0,3.168 -0.72,5.472 -2.088,6.984 -1.368,1.512 -3.096,2.232 -5.256,2.232 -2.16,0 -3.744,-0.648 -4.824,-2.016 -1.152,-1.296 -1.656,-3.456 -1.656,-6.408 V 80.976 h -13.68 v 21.816 c 0,5.976 1.44,10.44 4.464,13.392 3.024,3.024 7.056,4.464 12.096,4.464 2.232,0 4.392,-0.36 6.408,-1.224 2.016,-0.792 3.744,-2.016 5.184,-3.6 V 120 h 13.032 z" transform="translate(0 277.11699999999996) translate(322.55125625000016 82.628) scale(1.25) translate(-373.09175 -80.976)"></path> 
   <path id="path14470" style="font-style: normal; font-weight: 800; font-size: 72px; line-height: 1; font-family: &quot;Montserrat ExtraBold Alt1&quot;; font-variant-ligatures: none; text-align: center; text-anchor: middle; fill: rgb(66, 195, 228);" d="m 431.297,118.056 c 3.312,1.728 7.128,2.592 11.304,2.592 4.176,0 7.992,-0.864 11.376,-2.592 3.312,-1.728 5.976,-4.104 7.848,-7.2 1.872,-3.024 2.808,-6.552 2.808,-10.44 0,-3.888 -0.936,-7.344 -2.808,-10.368 -1.872,-3.024 -4.536,-5.4 -7.848,-7.128 -3.384,-1.728 -7.2,-2.592 -11.376,-2.592 -4.248,0 -8.064,0.864 -11.376,2.592 -3.312,1.728 -5.976,4.104 -7.848,7.128 -1.872,3.096 -2.808,6.552 -2.808,10.368 0,3.888 0.936,7.416 2.808,10.44 1.872,3.096 4.536,5.472 7.92,7.2 z m 17.208,-10.728 c -1.584,1.656 -3.528,2.448 -5.904,2.448 -2.448,0 -4.392,-0.792 -5.904,-2.448 -1.584,-1.656 -2.304,-3.96 -2.304,-6.912 0,-2.88 0.72,-5.112 2.304,-6.768 1.512,-1.584 3.456,-2.448 5.904,-2.448 2.376,0 4.32,0.864 5.904,2.448 1.512,1.656 2.304,3.888 2.304,6.768 0,2.952 -0.792,5.256 -2.304,6.912 z" transform="translate(0 277.11699999999996) translate(388.14781875000017 81.818) scale(1.25) translate(-420.569 -80.328)"></path> 
   <path id="path14472" style="font-style: normal; font-weight: 800; font-size: 72px; line-height: 1; font-family: &quot;Montserrat ExtraBold Alt1&quot;; font-variant-ligatures: none; text-align: center; text-anchor: middle; fill: rgb(66, 195, 228);" d="m 489.40212,81.696 c -2.232,0.864 -4.03199,2.232 -5.4,3.96 v -4.68 h -13.032 V 120 h 13.68 v -17.928 c 0,-3.24 0.792,-5.688 2.448,-7.272 1.656,-1.584 3.96001,-2.376 6.91201,-2.376 0.79199,0 1.8,0.072 3.096,0.216 V 80.328 c -2.88,0 -5.47201,0.504 -7.70401,1.368 z" transform="translate(0 277.11699999999996) translate(457.3992187500001 81.818) scale(1.25) translate(-470.97012 -80.328)"></path> 
   <path id="path14474" style="font-style: normal; font-weight: 800; font-size: 72px; line-height: 1; font-family: &quot;Montserrat ExtraBold Alt1&quot;; font-variant-ligatures: none; text-align: center; text-anchor: middle; fill: rgb(66, 195, 228);" d="m 543.932,80.976 h -13.68 v 18.792 c 0,3.168 -0.72,5.472 -2.088,6.984 -1.368,1.512 -3.096,2.232 -5.256,2.232 -2.16,0 -3.744,-0.648 -4.824,-2.016 -1.152,-1.296 -1.656,-3.456 -1.656,-6.408 V 80.976 h -13.68 v 21.816 c 0,5.976 1.44,10.44 4.464,13.392 3.024,3.024 7.056,4.464 12.096,4.464 2.232,0 4.392,-0.36 6.408,-1.224 2.016,-0.792 3.744,-2.016 5.184,-3.6 V 120 h 13.032 z" transform="translate(0 277.11699999999996) translate(503.37156875000005 82.628) scale(1.25) translate(-502.748 -80.976)"></path> 
   <path id="path14476" style="font-style: normal; font-weight: 800; font-size: 72px; line-height: 1; font-family: &quot;Montserrat ExtraBold Alt1&quot;; font-variant-ligatures: none; text-align: center; text-anchor: middle; fill: rgb(66, 195, 228);" d="m 614.95325,84.648 c -2.88,-2.88 -6.696,-4.32 -11.448,-4.32 -2.808,0 -5.4,0.576 -7.704,1.584 -2.376,1.08 -4.32,2.592 -5.832,4.536 -1.368,-2.016 -3.096,-3.6 -5.256,-4.608 -2.16,-1.008 -4.608,-1.512 -7.344,-1.512 -2.376,0 -4.536,0.432 -6.552,1.224 -2.016,0.792 -3.672,1.944 -5.112,3.528 v -4.104 h -13.032 V 120 h 13.68 v -19.368 c 0,-2.88 0.576,-5.112 1.872,-6.552 1.224,-1.44 2.88,-2.16 5.04,-2.16 3.888,0 5.904,2.664 5.904,7.992 V 120 h 13.68 v -19.368 c 0,-2.88 0.576,-5.112 1.872,-6.552 1.224,-1.44 2.88,-2.16 4.968,-2.16 1.872,0 3.312,0.648 4.32,1.944 1.008,1.296 1.584,3.312 1.584,6.048 V 120 h 13.68 V 97.68 c 0,-5.76 -1.44,-10.152 -4.32,-13.032 z" transform="translate(0 277.11699999999996) translate(572.0281312500001 81.818) scale(1.25) translate(-552.67325 -80.328)"></path> 
   <path id="path14478" style="font-style: normal; font-weight: 800; font-size: 72px; line-height: 1; font-family: &quot;Montserrat ExtraBold Alt1&quot;; font-variant-ligatures: none; text-align: center; text-anchor: middle; fill: rgb(25, 118, 133);" d="m 636.75013,118.056 c 3.312,1.728 7.12799,2.592 11.30399,2.592 4.17601,0 7.992,-0.864 11.376,-2.592 3.312,-1.728 5.976,-4.104 7.84801,-7.2 1.87199,-3.024 2.808,-6.552 2.808,-10.44 0,-3.888 -0.93601,-7.344 -2.808,-10.368 -1.87201,-3.024 -4.53601,-5.4 -7.84801,-7.128 -3.384,-1.728 -7.19999,-2.592 -11.376,-2.592 -4.248,0 -8.06399,0.864 -11.37599,2.592 -3.31201,1.728 -5.976,4.104 -7.84801,7.128 -1.872,3.096 -2.808,6.552 -2.808,10.368 0,3.888 0.936,7.416 2.808,10.44 1.87201,3.096 4.536,5.472 7.92001,7.2 z m 17.20799,-10.728 c -1.58399,1.656 -3.528,2.448 -5.904,2.448 -2.44799,0 -4.39199,-0.792 -5.904,-2.448 -1.58399,-1.656 -2.30399,-3.96 -2.30399,-6.912 0,-2.88 0.72,-5.112 2.30399,-6.768 1.51201,-1.584 3.45601,-2.448 5.904,-2.448 2.376,0 4.32001,0.864 5.904,2.448 1.51201,1.656 2.304,3.888 2.304,6.768 0,2.952 -0.79199,5.256 -2.304,6.912 z" transform="translate(0 277.11699999999996) translate(669.96421875 81.818) scale(1.25) translate(-626.02212 -80.328)"></path> 
   <path id="path14480" style="font-style: normal; font-weight: 800; font-size: 72px; line-height: 1; font-family: &quot;Montserrat ExtraBold Alt1&quot;; font-variant-ligatures: none; text-align: center; text-anchor: middle; fill: rgb(25, 118, 133);" d="m 713.90037,69.6 h -41.76 v 19.08 h 12.168 v -7.776 h 13.248 L 680.56438,120 h 15.55199 l 17.784,-41.472 z" transform="translate(0 277.11699999999996) translate(733.8620312499999 68.408) scale(1.25) translate(-672.14037 -69.6)"></path> 
  </g> 
  <g id="tagline" style="font-style:normal;font-weight:500;font-size:32px;line-height:1;font-family:Montserrat;font-variant-ligatures:none;text-align:center;text-anchor:middle"></g> 
 </g> 
</svg>