<svg xmlns:dc="http://purl.org/dc/elements/1.1/" xmlns:cc="http://creativecommons.org/ns#" xmlns:rdf="http://www.w3.org/1999/02/22-rdf-syntax-ns#" xmlns:svg="http://www.w3.org/2000/svg" xmlns="http://www.w3.org/2000/svg" id="svg41604" viewbox="0 0 1024 768" height="768px" width="1024px" version="1.1"> <metadata id="metadata41610"> 
  <rdf:rdf> 
   <cc:work rdf:about=""> 
    <dc:format>
     image/svg+xml
    </dc:format> 
    <dc:type rdf:resource="http://purl.org/dc/dcmitype/StillImage"></dc:type> 
   </cc:work> 
  </rdf:rdf> 
 </metadata> <defs id="defs41608"></defs> <g id="logo-group"> 
  <g id="title" style="font-style:normal;font-weight:700;font-size:72px;line-height:1;font-family:'Comfortaa Bold Alt2';font-variant-ligatures:none;text-align:center;text-anchor:middle" aria-label="RAINMAKERO7"> 
   <path id="path41612" style="font-style: normal; font-weight: 700; font-size: 72px; line-height: 1; font-family: &quot;Comfortaa Bold Alt2&quot;; font-variant-ligatures: none; text-align: center; text-anchor: middle; fill: rgb(255, 255, 255);" d="m 280.15212,120.144 c 0.72,0 1.368,-0.216 2.016,-0.648 0.792,-0.576 1.296,-1.368 1.512,-2.376 0.144,-0.936 0,-1.872 -0.576,-2.664 L 271.22413,97.32 c 2.51999,-1.08 4.608,-2.664 6.40799,-4.752 2.80801,-3.24 4.17601,-7.056 4.17601,-11.304 0,-4.824 -1.72801,-8.928 -5.11201,-12.384 -3.456,-3.384 -7.56,-5.112 -12.384,-5.112 h -14.04 c -1.008,0 -1.8,0.36 -2.52,1.08 -0.72,0.72 -1.08,1.512 -1.08,2.52 v 49.104 c 0,1.008 0.36,1.872 1.08,2.52 0.72,0.72 1.512,1.08 2.52,1.08 1.008,0 1.872,-0.36 2.52,-1.08 0.72,-0.648 1.08,-1.512 1.08,-2.52 V 70.968 h 10.44 c 2.80801,0 5.256,1.008 7.272,3.024 2.016,2.016 3.024,4.392 3.024,7.272 0,2.52 -0.864,4.752 -2.448,6.624 -1.584,1.872 -3.59999,3.024 -5.976,3.456 l -1.296,0.144 c -1.368,0.144 -2.37599,0.864 -2.88,2.088 -0.648,1.224 -0.504,2.448 0.28801,3.528 l 14.904,21.456 c 0.64799,1.008 1.656,1.584 2.95199,1.584 z" transform="translate(0 307.73299170189756) translate(252.00000000000006 48.98698047831242) scale(0.9704230723609399) translate(-246.67212 -63.768)"></path> 
   <path id="path41614" style="font-style: normal; font-weight: 700; font-size: 72px; line-height: 1; font-family: &quot;Comfortaa Bold Alt2&quot;; font-variant-ligatures: none; text-align: center; text-anchor: middle; fill: rgb(255, 255, 255);" d="M 334.13862,114.744 313.83463,66.288 c -0.64801,-1.656 -1.80001,-2.52 -3.52801,-2.52 -1.656,0 -2.808,0.864 -3.528,2.52 l -20.232,48.312 c -0.288,0.648 -0.36,1.224 -0.36,1.656 0,1.08 0.288,1.944 1.008,2.664 0.72,0.72 1.584,1.08 2.66401,1.08 0.71999,0 1.368,-0.144 2.01599,-0.576 0.576,-0.432 1.08001,-0.936 1.44,-1.728 l 17.136,-41.904 16.84801,41.904 c 0.216,0.72 0.71999,1.296 1.36799,1.728 0.648,0.432 1.296,0.576 2.08801,0.576 1.008,0 1.94399,-0.36 2.664,-1.08 0.71999,-0.72 1.07999,-1.584 1.07999,-2.592 0,-0.432 -0.144,-0.936 -0.36,-1.584 z" transform="translate(0 307.73299170189756) translate(290.34578249280645 48.98698047831242) scale(0.9704230723609399) translate(-286.18662 -63.768)"></path> 
   <path id="path41616" style="font-style: normal; font-weight: 700; font-size: 72px; line-height: 1; font-family: &quot;Comfortaa Bold Alt2&quot;; font-variant-ligatures: none; text-align: center; text-anchor: middle; fill: rgb(255, 255, 255);" d="m 343.79562,64.848 c -0.72,0.72 -1.08,1.584 -1.08,2.664 v 48.744 c 0,1.08 0.36,1.944 1.08,2.664 0.72,0.72 1.584,1.08 2.66401,1.08 1.07999,0 1.94399,-0.36 2.66399,-1.08 0.72,-0.72 1.08,-1.584 1.08,-2.664 V 67.512 c 0,-1.08 -0.36,-1.944 -1.08,-2.664 -0.72,-0.72 -1.584,-1.08 -2.66399,-1.08 -1.08001,0 -1.94401,0.36 -2.66401,1.08 z" transform="translate(0 307.73299170189756) translate(345.20282835029803 48.98698047831242) scale(0.9704230723609399) translate(-342.71562 -63.768)"></path> 
   <path id="path41618" style="font-style: normal; font-weight: 700; font-size: 72px; line-height: 1; font-family: &quot;Comfortaa Bold Alt2&quot;; font-variant-ligatures: none; text-align: center; text-anchor: middle; fill: rgb(255, 255, 255);" d="m 403.67712,64.848 c -0.71999,0.72 -1.08,1.584 -1.08,2.664 v 39.384 l -31.392,-41.76 c -0.36,-0.36 -0.792,-0.648 -1.29599,-0.936 -0.57601,-0.288 -1.08001,-0.432 -1.584,-0.432 -1.08,0 -1.94401,0.36 -2.664,1.08 -0.72001,0.72 -1.00801,1.584 -1.00801,2.664 v 48.744 c 0,1.152 0.288,2.016 1.00801,2.736 0.71999,0.72 1.584,1.008 2.664,1.008 1.07999,0 1.94399,-0.36 2.66399,-1.08 0.72,-0.72 1.08,-1.584 1.08,-2.664 V 76.944 l 31.392,41.76 c 0.288,0.432 0.648,0.792 1.224,1.008 0.576,0.216 1.08,0.288 1.65601,0.288 1.008,0 1.87199,-0.288 2.592,-1.008 0.71999,-0.72 1.07999,-1.584 1.07999,-2.736 V 67.512 c 0,-1.08 -0.36,-1.944 -1.07999,-2.664 -0.72001,-0.72 -1.584,-1.08 -2.592,-1.08 -1.08001,0 -1.944,0.36 -2.66401,1.08 z" transform="translate(0 307.73299170189756) translate(366.49148450021613 48.98698047831242) scale(0.9704230723609399) translate(-364.65312 -63.768)"></path> 
   <path id="path41620" style="font-style: normal; font-weight: 700; font-size: 72px; line-height: 1; font-family: &quot;Comfortaa Bold Alt2&quot;; font-variant-ligatures: none; text-align: center; text-anchor: middle; fill: rgb(255, 255, 255);" d="m 479.64275,64.848 c -0.72,-0.72 -1.656,-1.08 -2.664,-1.08 -1.44,0 -2.592,0.72 -3.312,2.016 l -20.808,42.84 -21.384,-42.84 c -0.792,-1.296 -1.872,-2.016 -3.312,-2.016 -1.08,0 -1.944,0.36 -2.664,1.08 -0.72,0.72 -1.08,1.656 -1.08,2.664 v 48.744 c 0,1.08 0.36,1.944 1.08,2.664 0.72,0.72 1.584,1.08 2.664,1.08 1.008,0 1.944,-0.36 2.664,-1.08 0.72,-0.72 1.08,-1.584 1.08,-2.664 V 81.12 l 17.208,34.488 c 0.72,1.512 1.872,2.232 3.456,2.232 1.296,0 2.376,-0.576 3.24,-1.872 l 17.424,-35.496 v 35.784 c 0,1.08 0.36,1.944 1.08,2.664 0.72,0.72 1.584,1.08 2.664,1.08 1.008,0 1.872,-0.36 2.592,-1.08 0.72,-0.72 1.152,-1.584 1.152,-2.664 V 67.512 c 0,-1.008 -0.36,-1.944 -1.08,-2.664 z" transform="translate(0 307.73299170189756) translate(424.48943078640326 48.98698047831242) scale(0.9704230723609399) translate(-424.41875 -63.768)"></path> 
   <path id="path41622" style="font-style: normal; font-weight: 700; font-size: 72px; line-height: 1; font-family: &quot;Comfortaa Bold Alt2&quot;; font-variant-ligatures: none; text-align: center; text-anchor: middle; fill: rgb(255, 255, 255);" d="M 537.20113,114.744 516.89712,66.288 c -0.64799,-1.656 -1.8,-2.52 -3.528,-2.52 -1.656,0 -2.808,0.864 -3.528,2.52 l -20.232,48.312 c -0.288,0.648 -0.36,1.224 -0.36,1.656 0,1.08 0.288,1.944 1.008,2.664 0.72,0.72 1.584,1.08 2.66401,1.08 0.71999,0 1.368,-0.144 2.01599,-0.576 0.576,-0.432 1.08001,-0.936 1.44,-1.728 l 17.136,-41.904 16.84801,41.904 c 0.216,0.72 0.72,1.296 1.36799,1.728 0.648,0.432 1.296,0.576 2.08801,0.576 1.00799,0 1.94399,-0.36 2.664,-1.08 0.72,-0.72 1.07999,-1.584 1.07999,-2.592 0,-0.432 -0.14399,-0.936 -0.35999,-1.584 z" transform="translate(0 307.73299170189756) translate(487.40231762409974 48.98698047831242) scale(0.9704230723609399) translate(-489.24912 -63.768)"></path> 
   <path id="path41624" style="font-style: normal; font-weight: 700; font-size: 72px; line-height: 1; font-family: &quot;Comfortaa Bold Alt2&quot;; font-variant-ligatures: none; text-align: center; text-anchor: middle; fill: rgb(255, 255, 255);" d="m 559.81812,91.488 23.04,-22.464 c 0.72,-0.648 1.08001,-1.512 1.08001,-2.52 0,-1.008 -0.28801,-1.8 -1.00801,-2.52 -0.72,-0.72 -1.51199,-1.08 -2.52,-1.08 -1.008,-0.072 -1.87199,0.288 -2.592,1.008 l -24.696,24.12 V 67.368 c 0,-1.008 -0.36,-1.872 -1.07999,-2.592 -0.72,-0.72 -1.58401,-1.008 -2.52001,-1.008 -1.00799,0 -1.872,0.288 -2.592,1.008 -0.72,0.72 -1.00799,1.584 -1.00799,2.592 v 49.176 c 0,0.936 0.28799,1.8 1.00799,2.52 0.72,0.72 1.58401,1.08 2.592,1.08 0.936,0 1.80001,-0.36 2.52001,-1.08 0.71999,-0.72 1.07999,-1.584 1.07999,-2.52 v -21.6 l 24.696,24.12 c 0.72001,0.72 1.512,1.08 2.52,1.08 1.00801,0 1.872,-0.36 2.592,-1.152 0.72,-0.648 1.00801,-1.512 1.00801,-2.52 0,-1.008 -0.36001,-1.872 -1.08001,-2.52 z" transform="translate(0 307.73299170189756) translate(542.3991141082421 48.13976037837227) scale(0.9704230723609399) translate(-545.92213 -62.894958)"></path> 
   <path id="path41626" style="font-style: normal; font-weight: 700; font-size: 72px; line-height: 1; font-family: &quot;Comfortaa Bold Alt2&quot;; font-variant-ligatures: none; text-align: center; text-anchor: middle; fill: rgb(255, 255, 255);" d="m 632.82388,114.024 c -0.72,-0.576 -1.58401,-0.936 -2.664,-0.936 h -28.80001 v -18 h 20.664 c 1.00801,0 1.87201,-0.288 2.592,-0.936 0.72,-0.648 1.08,-1.512 1.08,-2.52 0,-1.008 -0.36,-1.8 -1.08,-2.448 -0.71999,-0.648 -1.58399,-1.008 -2.592,-1.008 h -20.664 V 70.68 h 28.80001 c 1.07999,0 1.944,-0.288 2.664,-0.936 0.64799,-0.576 1.00799,-1.44 1.00799,-2.448 0,-1.008 -0.36,-1.872 -1.00799,-2.52 -0.72,-0.648 -1.58401,-1.008 -2.664,-1.008 h -32.54401 c -1.07999,0 -1.944,0.36 -2.664,1.08 -0.72,0.72 -1.07999,1.584 -1.07999,2.664 v 48.744 c 0,1.08 0.35999,1.944 1.07999,2.664 0.72,0.72 1.58401,1.08 2.664,1.08 h 32.54401 c 1.07999,0 1.944,-0.288 2.664,-0.936 0.64799,-0.648 1.00799,-1.512 1.00799,-2.592 0,-1.008 -0.36,-1.8 -1.00799,-2.448 z" transform="translate(0 307.73299170189756) translate(588.930657822181 48.98698047831242) scale(0.9704230723609399) translate(-593.87188 -63.768)"></path> 
   <path id="path41628" style="font-style: normal; font-weight: 700; font-size: 72px; line-height: 1; font-family: &quot;Comfortaa Bold Alt2&quot;; font-variant-ligatures: none; text-align: center; text-anchor: middle; fill: rgb(255, 255, 255);" d="m 677.83962,120.144 c 0.72,0 1.368,-0.216 2.01601,-0.648 0.79199,-0.576 1.29599,-1.368 1.51199,-2.376 0.144,-0.936 0,-1.872 -0.576,-2.664 l -11.88,-17.136 c 2.52001,-1.08 4.60801,-2.664 6.408,-4.752 2.808,-3.24 4.17601,-7.056 4.17601,-11.304 0,-4.824 -1.72801,-8.928 -5.112,-12.384 -3.456,-3.384 -7.56001,-5.112 -12.384,-5.112 h -14.04001 c -1.00799,0 -1.8,0.36 -2.52,1.08 -0.72,0.72 -1.07999,1.512 -1.07999,2.52 v 49.104 c 0,1.008 0.35999,1.872 1.07999,2.52 0.72,0.72 1.51201,1.08 2.52,1.08 1.008,0 1.87201,-0.36 2.52001,-1.08 0.71999,-0.648 1.07999,-1.512 1.07999,-2.52 V 70.968 h 10.44001 c 2.808,0 5.25599,1.008 7.27199,3.024 2.01601,2.016 3.024,4.392 3.024,7.272 0,2.52 -0.86399,4.752 -2.448,6.624 -1.58399,1.872 -3.6,3.024 -5.976,3.456 l -1.296,0.144 c -1.368,0.144 -2.376,0.864 -2.88,2.088 -0.64799,1.224 -0.50399,2.448 0.288,3.528 l 14.904,21.456 c 0.648,1.008 1.65601,1.584 2.952,1.584 z" transform="translate(0 307.73299170189756) translate(637.9251352937722 48.98698047831242) scale(0.9704230723609399) translate(-644.35963 -63.768)"></path> 
   <path id="path41630" style="font-style: normal; font-weight: 700; font-size: 72px; line-height: 1; font-family: &quot;Comfortaa Bold Alt2&quot;; font-variant-ligatures: none; text-align: center; text-anchor: middle; fill: rgb(186, 184, 185);" d="m 715.77012,120.864 c 3.88801,0 7.632,-0.792 11.232,-2.304 3.456,-1.44 6.552,-3.528 9.216,-6.192 2.664,-2.664 4.75201,-5.688 6.192,-9.216 1.51201,-3.528 2.304,-7.272 2.304,-11.232 0,-3.96 -0.79199,-7.704 -2.304,-11.304 -1.43999,-3.456 -3.528,-6.48 -6.192,-9.144 -2.664,-2.664 -5.76,-4.752 -9.216,-6.192 -3.6,-1.512 -7.34399,-2.304 -11.232,-2.304 -3.96,0 -7.70399,0.792 -11.30399,2.304 -3.456,1.44 -6.552,3.528 -9.216,6.192 -2.664,2.664 -4.75201,5.688 -6.192,9.144 -1.51201,3.6 -2.232,7.344 -2.232,11.304 0,3.96 0.71999,7.704 2.232,11.232 1.43999,3.528 3.528,6.552 6.192,9.216 2.664,2.664 5.76,4.752 9.216,6.192 3.6,1.512 7.34399,2.304 11.30399,2.304 z m 0,-50.688 c 5.976,0 11.088,2.088 15.33601,6.336 4.24799,4.248 6.408,9.432 6.408,15.408 0,5.976 -2.16001,11.088 -6.408,15.336 -4.24801,4.248 -9.36001,6.408 -15.33601,6.408 -6.048,0 -11.15999,-2.16 -15.408,-6.408 -4.248,-4.176 -6.336,-9.36 -6.336,-15.336 0,-5.976 2.088,-11.16 6.336,-15.408 4.24801,-4.248 9.36,-6.336 15.408,-6.336 z" transform="translate(0 307.73299170189756) translate(679.135606696188 48.21840540500256) scale(0.9704230723609399) translate(-686.82613 -62.976)"></path> 
   <path id="path41632" style="font-style: normal; font-weight: 700; font-size: 72px; line-height: 1; font-family: &quot;Comfortaa Bold Alt2&quot;; font-variant-ligatures: none; text-align: center; text-anchor: middle; fill: rgb(186, 184, 185);" d="m 748.75288,70.104 c 0.72,0.72 1.58399,1.008 2.66399,1.008 h 21.88801 l -20.664,42.912 c -0.432,0.864 -0.648,1.656 -0.648,2.304 0,1.008 0.36,1.872 1.07999,2.592 0.72,0.72 1.512,1.08 2.52001,1.08 0.64799,0 1.29599,-0.144 1.94399,-0.504 0.57601,-0.36 1.08001,-0.864 1.44,-1.512 l 23.04001,-48.6 c 0.288,-0.72 0.504,-1.368 0.504,-1.944 0,-1.008 -0.36,-1.872 -1.08001,-2.592 -0.72,-0.72 -1.584,-1.08 -2.59199,-1.08 h -27.43201 c -1.08,0 -1.94399,0.36 -2.66399,1.08 -0.72001,0.72 -1.00801,1.584 -1.00801,2.592 0,1.08 0.288,1.944 1.00801,2.664 z" transform="translate(0 307.73299170189756) translate(738.2525575313451 48.98698047831242) scale(0.9704230723609399) translate(-747.74487 -63.768)"></path> 
  </g> 
  <g id="tagline" style="font-style:normal;font-weight:500;font-size:32px;line-height:1;font-family:Raleway;font-variant-ligatures:none;text-align:center;text-anchor:middle"></g> 
 </g> 
</svg>