<svg xmlns:dc="http://purl.org/dc/elements/1.1/" xmlns:cc="http://creativecommons.org/ns#" xmlns:rdf="http://www.w3.org/1999/02/22-rdf-syntax-ns#" xmlns:svg="http://www.w3.org/2000/svg" xmlns="http://www.w3.org/2000/svg" id="svg971949" viewbox="0 0 1024 768" height="768px" width="1024px" version="1.1"> <metadata id="metadata971955"> 
  <rdf:rdf> 
   <cc:work rdf:about=""> 
    <dc:format>
     image/svg+xml
    </dc:format> 
    <dc:type rdf:resource="http://purl.org/dc/dcmitype/StillImage"></dc:type> 
   </cc:work> 
  </rdf:rdf> 
 </metadata> <defs id="defs971953"></defs> <g id="logo-group"> 
  <g id="title" style="font-style:normal;font-weight:400;font-size:72px;line-height:1;font-family:'Abril Fatface';font-variant-ligatures:none;text-align:center;text-anchor:middle" aria-label="Reo7"> 
   <path id="path971957" style="font-style: normal; font-weight: 400; font-size: 72px; line-height: 1; font-family: &quot;Abril Fatface&quot;; font-variant-ligatures: none; text-align: center; text-anchor: middle; fill: rgb(52, 39, 46);" d="m 453.70194,94.512 h -3.816 v 24.12 h 4.68 V 120 h -23.4 v -1.368 h 4.68 V 70.968 h -4.68 V 69.6 h 21.744 q 9.36,0 13.248,1.008 3.96,0.936 5.544,2.304 3.456,2.808 3.456,8.928 0,6.12 -3.024,8.784 -3.024,2.592 -9.216,3.096 v 0.216 q 5.832,0.792 8.136,3.456 2.304,2.664 2.304,8.928 v 3.816 q 0,3.744 0.36,5.04 0.432,1.296 1.728,1.296 1.296,0 2.016,-1.152 0.792,-1.224 1.44,-5.04 l 1.224,0.144 q -0.792,6.12 -2.808,8.208 -1.944,2.088 -7.848,2.088 -5.904,0 -8.424,-2.736 -2.448,-2.808 -2.448,-10.44 v -5.256 q 0,-4.032 -1.08,-5.904 -1.008,-1.872 -3.816,-1.872 z m -3.816,-23.544 v 22.176 h 2.304 q 4.104,0 6.048,-2.52 2.016,-2.52 2.016,-8.208 v -2.088 q 0,-5.688 -1.944,-7.488 -1.872,-1.872 -6.048,-1.872 z" transform="translate(0 114.30069280014052) translate(252 191.9934403227219) scale(3.0401356368207173) translate(-431.16594 -69.6)"></path> 
   <path id="path971959" style="font-style: normal; font-weight: 400; font-size: 72px; line-height: 1; font-family: &quot;Abril Fatface&quot;; font-variant-ligatures: none; text-align: center; text-anchor: middle; fill: rgb(52, 39, 46);" d="m 500.64819,120.72 q -9.288,0 -13.968,-4.752 -4.608,-4.824 -4.608,-13.32 0,-8.568 5.184,-13.104 5.256,-4.536 13.32,-4.536 16.344,0 15.696,16.416 h -20.304 v 2.808 q 0,7.056 1.8,10.656 1.8,3.6 6.264,3.6 8.352,0 10.944,-8.928 l 1.296,0.216 q -1.368,5.184 -4.968,8.064 -3.528,2.88 -10.656,2.88 z m -4.608,-20.736 h 7.416 v -3.528 q 0,-5.832 -0.72,-7.92 -0.648,-2.16 -2.736,-2.16 -2.016,0 -3.024,2.304 -0.936,2.232 -0.936,7.776 z" transform="translate(0 114.30069280014052) translate(415.8823116723668 238.83585021485553) scale(3.0401356368207173) translate(-482.07219 -85.008)"></path> 
   <path id="path971961" style="font-style: normal; font-weight: 400; font-size: 72px; line-height: 1; font-family: &quot;Abril Fatface&quot;; font-variant-ligatures: none; text-align: center; text-anchor: middle; fill: rgb(72, 60, 62);" d="m 542.09319,105.816 v -6.12 q 0,-6.984 -0.792,-10.152 -0.72,-3.24 -3.456,-3.24 -1.584,0 -2.592,0.936 -0.936,0.864 -1.368,2.952 -0.648,3.24 -0.648,9.864 v 5.616 q 0,7.848 0.432,9.432 0.504,1.584 1.008,2.592 0.792,1.728 3.096,1.728 2.808,0 3.672,-3.24 0.648,-2.304 0.648,-10.368 z m -4.464,14.904 q -9,0 -13.608,-4.608 -4.608,-4.608 -4.608,-13.176 0,-8.64 4.896,-13.248 4.968,-4.68 13.896,-4.68 8.928,0 13.32,4.32 4.392,4.248 4.392,13.032 0,18.36 -18.288,18.36 z" transform="translate(0 114.30069280014052) translate(538.5244233973515 238.83585021485553) scale(3.0401356368207173) translate(-519.41319 -85.008)"></path> 
   <path id="path971963" style="font-style: normal; font-weight: 400; font-size: 72px; line-height: 1; font-family: &quot;Abril Fatface&quot;; font-variant-ligatures: none; text-align: center; text-anchor: middle; fill: rgb(72, 60, 62);" d="m 574.13094,120.72 q -3.888,0 -6.12,-2.088 -2.232,-2.16 -2.232,-5.256 0,-3.168 2.088,-6.912 2.16,-3.816 9.288,-12.096 l 11.88,-13.752 h -18.432 q -5.112,0 -6.768,1.296 -1.584,1.224 -2.52,5.976 h -1.152 l 0.792,-18.288 h 32.256 v 7.776 l -7.992,13.968 q -5.328,9.432 -6.84,13.536 -1.44,4.032 -1.44,7.704 0,3.672 2.16,6.768 l -0.504,0.864 q -2.016,0.504 -4.464,0.504 z" transform="translate(0 114.30069280014052) translate(671.5295974743489 191.9934403227219) scale(3.0401356368207173) translate(-560.16294 -69.6)"></path> 
  </g> 
  <g id="tagline" style="font-style:oblique;font-weight:normal;font-size:32px;line-height:1;font-family:'Droid Serif';font-variant-ligatures:none;text-align:center;text-anchor:middle"></g> 
 </g> 
</svg>