<svg xmlns:dc="http://purl.org/dc/elements/1.1/" xmlns:cc="http://creativecommons.org/ns#" xmlns:rdf="http://www.w3.org/1999/02/22-rdf-syntax-ns#" xmlns:svg="http://www.w3.org/2000/svg" xmlns="http://www.w3.org/2000/svg" id="svg298972" viewbox="0 0 1024 768" height="768px" width="1024px" version="1.1"> <metadata id="metadata298978"> 
  <rdf:rdf> 
   <cc:work rdf:about=""> 
    <dc:format>
     image/svg+xml
    </dc:format> 
    <dc:type rdf:resource="http://purl.org/dc/dcmitype/StillImage"></dc:type> 
   </cc:work> 
  </rdf:rdf> 
 </metadata> <defs id="defs298976"></defs> <g id="logo-group"> 
  <g id="title" style="font-style:normal;font-weight:300;font-size:72px;line-height:1;font-family:'Montserrat Light Alt1';font-variant-ligatures:none;text-align:center;text-anchor:middle" aria-label="Readyseto7"> 
   <path id="path298980" style="font-style: normal; font-weight: 300; font-size: 72px; line-height: 1; font-family: &quot;Montserrat Light Alt1&quot;; font-variant-ligatures: none; text-align: center; text-anchor: middle; fill: rgb(255, 255, 255);" d="m 341.75825,102.36 c 3.744,-1.08 6.696,-2.952 8.712,-5.688 2.016,-2.736 3.096,-6.048 3.096,-10.08 0,-5.256 -1.8,-9.432 -5.4,-12.456 -3.6,-3.024 -8.568,-4.536 -14.904,-4.536 h -18.072 v 3.312 h 18.072 c 5.328,0 9.432,1.224 12.312,3.6 2.808,2.376 4.248,5.76 4.248,10.08 0,4.392 -1.44,7.776 -4.248,10.152 -2.88,2.376 -6.984,3.528 -12.312,3.528 h -18.072 V 120 h 3.672 v -16.488 h 14.4 c 1.44,0 3.096,-0.072 4.896,-0.36 l 12.024,16.848 h 4.176 z" transform="translate(0 283.032530894692) translate(252 64.89533374889896) scale(1.1705651400703874) translate(-315.19025 -69.6)"></path> 
   <path id="path298982" style="font-style: normal; font-weight: 300; font-size: 72px; line-height: 1; font-family: &quot;Montserrat Light Alt1&quot;; font-variant-ligatures: none; text-align: center; text-anchor: middle; fill: rgb(255, 255, 255);" d="m 388.10487,115.752 c -2.08799,0.864 -4.392,1.296 -6.76799,1.296 -3.88801,0 -7.12801,-1.008 -9.86401,-3.024 -2.736,-2.016 -4.608,-4.752 -5.472,-8.208 l 31.75201,-6.192 c -0.21601,-3.312 -1.00801,-6.264 -2.592,-8.928 -1.58401,-2.664 -3.67201,-4.752 -6.264,-6.264 -2.59201,-1.512 -5.54401,-2.304 -8.78401,-2.304 -3.528,0 -6.696,0.864 -9.43199,2.448 -2.808,1.656 -4.96801,3.888 -6.55201,6.768 -1.584,2.88 -2.30399,6.192 -2.30399,9.864 0,3.744 0.79199,6.984 2.44799,9.864 1.656,2.88 3.96,5.184 6.912,6.768 2.952,1.656 6.264,2.448 10.08001,2.448 2.88,0 5.54399,-0.504 8.06399,-1.512 2.37601,-1.008 4.464,-2.52 6.12,-4.608 l -2.08799,-2.376 c -1.44,1.8 -3.168,3.096 -5.25601,3.96 z m -15.62399,-28.44 c 2.23199,-1.296 4.75199,-2.016 7.63199,-2.016 2.448,0 4.752,0.576 6.768,1.656 2.01601,1.08 3.6,2.592 4.89601,4.392 1.22399,1.872 2.01599,3.96 2.37599,6.192 l -28.656,5.616 c -0.144,-0.936 -0.144,-1.656 -0.144,-2.232 0,-2.952 0.576,-5.688 1.872,-8.064 1.224,-2.376 2.952,-4.248 5.25601,-5.544 z" transform="translate(0 283.032530894692) translate(312.4416978984326 79.56017382370078) scale(1.1705651400703874) translate(-361.82488 -82.128)"></path> 
   <path id="path298984" style="font-style: normal; font-weight: 300; font-size: 72px; line-height: 1; font-family: &quot;Montserrat Light Alt1&quot;; font-variant-ligatures: none; text-align: center; text-anchor: middle; fill: rgb(255, 255, 255);" d="m 431.23512,85.728 c -2.52,-2.376 -6.12,-3.6 -10.728,-3.6 -2.88,0 -5.688,0.504 -8.28,1.44 -2.66399,0.936 -4.896,2.232 -6.768,3.888 l 1.8,2.592 c 1.584,-1.44 3.456,-2.592 5.76,-3.456 2.304,-0.864 4.68,-1.296 7.20001,-1.296 3.59999,0 6.40799,0.936 8.27999,2.736 1.872,1.872 2.88,4.536 2.88,7.992 v 3.024 h -12.888 c -4.896,0 -8.49599,1.008 -10.728,2.952 -2.232,1.944 -3.312,4.464 -3.312,7.56 0,3.24 1.152,5.832 3.60001,7.776 2.44799,2.016 5.75999,2.952 9.93599,2.952 3.168,0 5.976,-0.576 8.28001,-1.8 2.30399,-1.224 4.03199,-2.952 5.25599,-5.184 V 120 h 3.456 V 96.168 c 0,-4.608 -1.29599,-8.064 -3.744,-10.44 z m -4.824,29.448 c -2.16,1.44 -4.82399,2.16 -7.92,2.16 -3.312,0 -5.90399,-0.648 -7.704,-2.088 -1.872,-1.44 -2.73599,-3.384 -2.73599,-5.832 0,-2.304 0.79199,-4.176 2.44799,-5.544 1.656,-1.296 4.32,-2.016 8.06401,-2.016 h 12.81599 v 7.056 c -1.152,2.736 -2.808,4.824 -4.968,6.264 z" transform="translate(0 283.032530894692) translate(368.19131419505845 79.56017382370078) scale(1.1705651400703874) translate(-404.45112 -82.128)"></path> 
   <path id="path298986" style="font-style: normal; font-weight: 300; font-size: 72px; line-height: 1; font-family: &quot;Montserrat Light Alt1&quot;; font-variant-ligatures: none; text-align: center; text-anchor: middle; fill: rgb(255, 255, 255);" d="m 483.43063,66.576 h -3.60001 v 24.552 c -1.584,-2.808 -3.67199,-5.04 -6.336,-6.624 -2.664,-1.584 -5.688,-2.376 -9,-2.376 -3.52799,0 -6.69599,0.864 -9.50399,2.448 -2.88,1.584 -5.11201,3.888 -6.69601,6.768 -1.584,2.88 -2.37599,6.192 -2.37599,9.864 0,3.744 0.79199,6.984 2.37599,9.864 1.584,2.88 3.81601,5.184 6.69601,6.768 2.808,1.656 5.976,2.448 9.50399,2.448 3.384,0 6.408,-0.792 9.144,-2.376 2.664,-1.584 4.752,-3.816 6.264,-6.768 V 120 h 3.52801 z m -11.01601,48.456 c -2.30399,1.368 -4.824,2.016 -7.704,2.016 -2.88,0 -5.47199,-0.648 -7.776,-2.016 -2.304,-1.296 -4.104,-3.168 -5.4,-5.616 -1.29599,-2.376 -1.944,-5.112 -1.944,-8.208 0,-3.024 0.64801,-5.76 1.944,-8.208 1.296,-2.376 3.096,-4.248 5.4,-5.616 2.30401,-1.296 4.896,-2.016 7.776,-2.016 2.88,0 5.40001,0.72 7.704,2.016 2.304,1.368 4.104,3.24 5.4,5.616 1.29601,2.448 2.016,5.184 2.016,8.208 0,3.096 -0.71999,5.832 -2.016,8.208 -1.296,2.448 -3.096,4.32 -5.4,5.616 z" transform="translate(0 283.032530894692) translate(422.58456154693056 61.3555447653261) scale(1.1705651400703874) translate(-445.91863 -66.576)"></path> 
   <path id="path298988" style="font-style: normal; font-weight: 300; font-size: 72px; line-height: 1; font-family: &quot;Montserrat Light Alt1&quot;; font-variant-ligatures: none; text-align: center; text-anchor: middle; fill: rgb(255, 255, 255);" d="m 528.84687,82.416 h -3.67199 l -15.04801,33.624 -15.048,-33.624 h -3.816 l 16.92001,37.44 -2.01601,4.536 c -1.15199,2.448 -2.304,4.176 -3.6,5.184 -1.296,1.008 -2.88,1.512 -4.68,1.512 -2.736,0 -5.112,-0.936 -6.984,-2.952 l -1.8,2.736 c 1.00801,1.152 2.30401,1.944 3.81601,2.52 1.512,0.576 3.168,0.864 4.89599,0.864 2.59201,0 4.824,-0.648 6.696,-2.088 1.87201,-1.368 3.60001,-3.744 5.04001,-7.056 z" transform="translate(0 283.032530894692) translate(478.98735319171567 79.89729658404104) scale(1.1705651400703874) translate(-489.10287 -82.416)"></path> 
   <path id="path298990" style="font-style: normal; font-weight: 300; font-size: 72px; line-height: 1; font-family: &quot;Montserrat Light Alt1&quot;; font-variant-ligatures: none; text-align: center; text-anchor: middle; fill: rgb(255, 255, 255);" d="m 537.08975,118.92 c 2.736,0.936 5.616,1.368 8.64,1.368 4.68,0 8.352,-0.936 10.944,-2.808 2.592,-1.872 3.888,-4.32 3.888,-7.488 0,-2.304 -0.648,-4.176 -1.872,-5.544 -1.296,-1.296 -2.808,-2.304 -4.608,-2.88 -1.8,-0.576 -4.176,-1.152 -7.056,-1.728 -2.664,-0.504 -4.752,-1.008 -6.192,-1.44 -1.44,-0.432 -2.664,-1.152 -3.672,-2.088 -1.008,-0.936 -1.512,-2.232 -1.512,-3.96 0,-2.088 0.864,-3.816 2.664,-5.112 1.728,-1.296 4.392,-1.944 7.92,-1.944 2.016,0 4.032,0.288 6.048,0.864 1.944,0.576 3.672,1.44 5.256,2.52 l 1.656,-2.88 c -1.512,-1.08 -3.456,-1.944 -5.76,-2.664 -2.376,-0.648 -4.752,-1.008 -7.128,-1.008 -4.608,0 -8.136,1.008 -10.584,2.952 -2.448,1.944 -3.672,4.392 -3.672,7.344 0,2.448 0.648,4.392 1.944,5.76 1.296,1.44 2.808,2.448 4.68,3.024 1.8,0.648 4.176,1.224 7.2,1.728 2.52,0.504 4.536,0.936 5.976,1.368 1.44,0.432 2.592,1.152 3.6,2.016 1.008,0.936 1.512,2.16 1.512,3.744 0,2.232 -0.936,3.96 -2.736,5.184 -1.8,1.296 -4.608,1.872 -8.352,1.872 -2.664,0 -5.184,-0.432 -7.632,-1.296 -2.448,-0.864 -4.392,-1.944 -5.904,-3.24 l -1.656,2.88 c 1.512,1.44 3.672,2.592 6.408,3.456 z" transform="translate(0 283.032530894692) translate(533.5109663832375 79.56017382370078) scale(1.1705651400703874) translate(-530.68175 -82.128)"></path> 
   <path id="path298992" style="font-style: normal; font-weight: 300; font-size: 72px; line-height: 1; font-family: &quot;Montserrat Light Alt1&quot;; font-variant-ligatures: none; text-align: center; text-anchor: middle; fill: rgb(255, 255, 255);" d="m 592.85487,115.752 c -2.08799,0.864 -4.392,1.296 -6.768,1.296 -3.88799,0 -7.12799,-1.008 -9.86399,-3.024 -2.736,-2.016 -4.60801,-4.752 -5.47201,-8.208 l 31.75201,-6.192 c -0.21601,-3.312 -1.00801,-6.264 -2.592,-8.928 -1.58401,-2.664 -3.67201,-4.752 -6.264,-6.264 -2.592,-1.512 -5.544,-2.304 -8.784,-2.304 -3.52801,0 -6.69601,0.864 -9.432,2.448 -2.808,1.656 -4.968,3.888 -6.55201,6.768 -1.58399,2.88 -2.30399,6.192 -2.30399,9.864 0,3.744 0.792,6.984 2.44799,9.864 1.656,2.88 3.96001,5.184 6.91201,6.768 2.952,1.656 6.264,2.448 10.07999,2.448 2.88,0 5.544,-0.504 8.06401,-1.512 2.376,-1.008 4.46399,-2.52 6.12,-4.608 l -2.08801,-2.376 c -1.43999,1.8 -3.168,3.096 -5.256,3.96 z m -15.624,-28.44 c 2.23201,-1.296 4.75201,-2.016 7.63201,-2.016 2.44799,0 4.75199,0.576 6.768,1.656 2.016,1.08 3.59999,2.592 4.896,4.392 1.22399,1.872 2.01599,3.96 2.37599,6.192 l -28.65599,5.616 c -0.144,-0.936 -0.144,-1.656 -0.144,-2.232 0,-2.952 0.57599,-5.688 1.87199,-8.064 1.22401,-2.376 2.952,-4.248 5.256,-5.544 z" transform="translate(0 283.032530894692) translate(581.379038829604 79.56017382370078) scale(1.1705651400703874) translate(-566.57488 -82.128)"></path> 
   <path id="path298994" style="font-style: normal; font-weight: 300; font-size: 72px; line-height: 1; font-family: &quot;Montserrat Light Alt1&quot;; font-variant-ligatures: none; text-align: center; text-anchor: middle; fill: rgb(255, 255, 255);" d="m 632.35812,117.624 -1.51199,-2.52 c -1.58401,1.44 -3.52801,2.088 -5.832,2.088 -2.30401,0 -4.10401,-0.576 -5.25601,-1.872 -1.15199,-1.296 -1.728,-3.168 -1.728,-5.616 V 85.512 h 11.952 v -3.096 h -11.952 v -8.208 h -3.6 v 8.208 h -6.91199 v 3.096 h 6.91199 v 24.552 c 0,3.24 0.864,5.76 2.664,7.56 1.72801,1.8 4.248,2.664 7.56001,2.664 1.43999,0 2.88,-0.216 4.24799,-0.648 1.368,-0.432 2.52001,-1.152 3.456,-2.016 z" transform="translate(0 283.032530894692) translate(635.1586057011428 70.28929791434331) scale(1.1705651400703874) translate(-607.51813 -74.208)"></path> 
   <path id="path298996" style="font-style: normal; font-weight: 300; font-size: 72px; line-height: 1; font-family: &quot;Montserrat Light Alt1&quot;; font-variant-ligatures: none; text-align: center; text-anchor: middle; fill: rgb(219, 45, 36);" d="m 646.03138,117.84 c 2.88,1.656 6.048,2.448 9.648,2.448 3.52799,0 6.69599,-0.792 9.57599,-2.448 2.88,-1.584 5.11201,-3.888 6.768,-6.768 1.58401,-2.88 2.448,-6.192 2.448,-9.864 0,-3.6 -0.86399,-6.912 -2.448,-9.792 -1.65599,-2.88 -3.888,-5.184 -6.768,-6.84 -2.88,-1.584 -6.048,-2.448 -9.57599,-2.448 -3.6,0 -6.768,0.864 -9.648,2.448 -2.88,1.656 -5.11201,3.96 -6.69601,6.84 -1.65599,2.88 -2.44799,6.192 -2.44799,9.792 0,3.672 0.792,6.984 2.44799,9.864 1.584,2.88 3.81601,5.184 6.69601,6.768 z m 17.35199,-2.808 c -2.30399,1.368 -4.82399,2.016 -7.70399,2.016 -2.88,0 -5.47201,-0.648 -7.77601,-2.016 -2.304,-1.296 -4.10399,-3.168 -5.4,-5.616 -1.296,-2.376 -1.94399,-5.112 -1.94399,-8.208 0,-3.024 0.64799,-5.76 1.94399,-8.208 1.29601,-2.376 3.096,-4.248 5.4,-5.616 2.304,-1.296 4.89601,-2.016 7.77601,-2.016 2.88,0 5.4,0.72 7.70399,2.016 2.304,1.368 4.10401,3.24 5.4,5.616 1.29601,2.448 2.01601,5.184 2.01601,8.208 0,3.096 -0.72,5.832 -2.01601,8.208 -1.29599,2.448 -3.096,4.32 -5.4,5.616 z" transform="translate(0 283.032530894692) translate(675.390051641507 79.56017382370078) scale(1.1705651400703874) translate(-636.88738 -82.128)"></path> 
   <path id="path298998" style="font-style: normal; font-weight: 300; font-size: 72px; line-height: 1; font-family: &quot;Montserrat Light Alt1&quot;; font-variant-ligatures: none; text-align: center; text-anchor: middle; fill: rgb(219, 45, 36);" d="m 714.42012,69.6 h -36.144 v 12.96 h 3.6 v -9.648 h 28.29601 L 688.71613,120 h 4.03199 l 21.672,-47.808 z" transform="translate(0 283.032530894692) translate(729.6910935772958 64.89533374889896) scale(1.1705651400703874) translate(-678.27612 -69.6)"></path> 
  </g> 
  <g id="tagline" style="font-style:normal;font-weight:400;font-size:32px;line-height:1;font-family:Montserrat;font-variant-ligatures:none;text-align:center;text-anchor:middle"></g> 
 </g> 
</svg>