<svg xmlns:dc="http://purl.org/dc/elements/1.1/" xmlns:cc="http://creativecommons.org/ns#" xmlns:rdf="http://www.w3.org/1999/02/22-rdf-syntax-ns#" xmlns:svg="http://www.w3.org/2000/svg" xmlns="http://www.w3.org/2000/svg" id="svg53022" viewbox="0 0 1024 768" height="768px" width="1024px" version="1.1"> <metadata id="metadata53028"> 
  <rdf:rdf> 
   <cc:work rdf:about=""> 
    <dc:format>
     image/svg+xml
    </dc:format> 
    <dc:type rdf:resource="http://purl.org/dc/dcmitype/StillImage"></dc:type> 
   </cc:work> 
  </rdf:rdf> 
 </metadata> <defs id="defs53026"></defs> <g id="logo-group"> 
  <g id="title" style="font-style:normal;font-weight:800;font-size:72px;line-height:1;font-family:'Montserrat ExtraBold Alt1';font-variant-ligatures:none;text-align:center;text-anchor:middle" aria-label="REDBOXO7"> 
   <path id="path53030" style="font-style: normal; font-weight: 800; font-size: 72px; line-height: 1; font-family: &quot;Montserrat ExtraBold Alt1&quot;; font-variant-ligatures: none; text-align: center; text-anchor: middle; fill: rgb(72, 148, 255);" d="m 335.97519,104.16 c 3.096,-1.512 5.544,-3.6 7.272,-6.336 1.728,-2.736 2.592,-5.904 2.592,-9.576 0,-3.744 -0.936,-7.056 -2.736,-9.864 -1.872,-2.808 -4.464,-4.968 -7.776,-6.48 -3.384,-1.512 -7.344,-2.304 -11.88,-2.304 h -23.04 v 11.232 h 22.176 c 2.88,0 5.112,0.648 6.624,1.944 1.44,1.296 2.232,3.168 2.232,5.472 0,2.376 -0.792,4.176 -2.232,5.472 -1.512,1.296 -3.744,1.872 -6.624,1.872 h -22.176 V 120 h 14.256 v -13.392 h 7.776 l 9.144,13.392 h 15.264 z" transform="translate(0 284.092) translate(232.5755499999999 68.408) scale(1.25) translate(-300.40719 -69.6)"></path> 
   <path id="path53032" style="font-style: normal; font-weight: 800; font-size: 72px; line-height: 1; font-family: &quot;Montserrat ExtraBold Alt1&quot;; font-variant-ligatures: none; text-align: center; text-anchor: middle; fill: rgb(72, 148, 255);" d="m 393.66406,69.6 h -39.96 v 11.016 h 39.96 z m 0,19.512 h -39.96 v 10.656 h 39.96 z m -39.96,19.872 V 120 h 39.96 v -11.016 z" transform="translate(0 284.092) translate(302.94663749999995 68.408) scale(1.25) translate(-353.70406 -69.6)"></path> 
   <path id="path53034" style="font-style: normal; font-weight: 800; font-size: 72px; line-height: 1; font-family: &quot;Montserrat ExtraBold Alt1&quot;; font-variant-ligatures: none; text-align: center; text-anchor: middle; fill: rgb(72, 148, 255);" d="m 450.53506,81.48 c -2.376,-3.744 -5.688,-6.696 -9.936,-8.784 -4.32,-2.016 -9.216,-3.096 -14.688,-3.096 h -23.832 v 11.376 h 23.256 c 4.32,0 7.776,1.224 10.368,3.672 2.592,2.52 3.96,5.904 3.96,10.152 0,4.32 -1.368,7.704 -3.96,10.152 -2.592,2.448 -6.048,3.672 -10.368,3.672 h -9 V 95.232 h -14.256 V 120 h 23.832 c 5.472,0 10.368,-1.008 14.688,-3.096 4.248,-2.016 7.56,-4.968 9.936,-8.784 2.304,-3.744 3.528,-8.208 3.528,-13.32 0,-5.04 -1.224,-9.504 -3.528,-13.32 z" transform="translate(0 284.092) translate(367.16538749999995 68.408) scale(1.25) translate(-402.07906 -69.6)"></path> 
   <path id="path53036" style="font-style: normal; font-weight: 800; font-size: 72px; line-height: 1; font-family: &quot;Montserrat ExtraBold Alt1&quot;; font-variant-ligatures: none; text-align: center; text-anchor: middle; fill: rgb(72, 148, 255);" d="m 507.06744,98.472 c -1.656,-2.16 -3.96,-3.744 -6.768,-4.752 2.088,-1.08 3.816,-2.592 4.968,-4.464 1.152,-1.872 1.8,-4.032 1.8,-6.48 0,-4.032 -1.728,-7.2 -5.04,-9.576 -3.384,-2.376 -8.28,-3.6 -14.688,-3.6 h -25.776 v 10.296 h 23.904 c 4.752,0 7.2,1.656 7.2,4.824 0,3.312 -2.448,4.896 -7.2,4.896 h -23.904 v 9.864 h 26.064 c 4.968,0 7.488,1.728 7.488,5.112 0,3.456 -2.52,5.112 -7.488,5.112 h -26.064 V 120 h 27.216 c 6.696,0 11.808,-1.152 15.408,-3.6 3.528,-2.376 5.328,-5.76 5.328,-10.224 0,-3.024 -0.864,-5.544 -2.448,-7.704 z" transform="translate(0 284.092) translate(445.27086249999996 68.408) scale(1.25) translate(-461.56344 -69.6)"></path> 
   <path id="path53038" style="font-style: normal; font-weight: 800; font-size: 72px; line-height: 1; font-family: &quot;Montserrat ExtraBold Alt1&quot;; font-variant-ligatures: none; text-align: center; text-anchor: middle; fill: rgb(72, 148, 255);" d="m 527.98569,117.624 c 4.248,2.304 9.072,3.384 14.4,3.384 5.328,0 10.08,-1.08 14.328,-3.384 4.248,-2.232 7.56,-5.328 10.008,-9.36 2.448,-3.96 3.672,-8.424 3.672,-13.464 0,-4.968 -1.224,-9.432 -3.672,-13.464 -2.448,-3.96 -5.76,-7.056 -10.008,-9.36 -4.248,-2.232 -9,-3.384 -14.328,-3.384 -5.328,0 -10.152,1.152 -14.4,3.384 -4.248,2.304 -7.56,5.4 -10.008,9.36 -2.448,4.032 -3.6,8.496 -3.6,13.464 0,5.04 1.152,9.504 3.6,13.464 2.448,4.032 5.76,7.128 10.008,9.36 z m 21.312,-10.224 c -2.088,1.224 -4.392,1.8 -6.912,1.8 -2.592,0 -4.896,-0.576 -6.912,-1.8 -2.088,-1.152 -3.744,-2.88 -4.896,-5.04 -1.224,-2.16 -1.8,-4.68 -1.8,-7.56 0,-2.808 0.576,-5.328 1.8,-7.488 1.152,-2.16 2.808,-3.888 4.896,-5.112 2.016,-1.152 4.32,-1.8 6.912,-1.8 2.52,0 4.824,0.648 6.912,1.8 2.016,1.224 3.672,2.952 4.896,5.112 1.152,2.16 1.8,4.68 1.8,7.488 0,2.88 -0.648,5.4 -1.8,7.56 -1.224,2.16 -2.88,3.888 -4.896,5.04 z" transform="translate(0 284.092) translate(515.038675 67.14800000000001) scale(1.25) translate(-514.37769 -68.592)"></path> 
   <path id="path53040" style="font-style: normal; font-weight: 800; font-size: 72px; line-height: 1; font-family: &quot;Montserrat ExtraBold Alt1&quot;; font-variant-ligatures: none; text-align: center; text-anchor: middle; fill: rgb(72, 148, 255);" d="m 591.44019,74.928 -3.6,-5.328 h -16.056 l 11.16,15.84 z m 21.096,28.584 -8.352,10.8 3.816,5.688 h 16.416 z m 10.728,-33.912 h -15.408 l -36.864,50.4 h 16.272 z" transform="translate(0 284.092) translate(589.5568000000001 68.408) scale(1.25) translate(-570.99219 -69.6)"></path> 
   <path id="path53042" style="font-style: normal; font-weight: 800; font-size: 72px; line-height: 1; font-family: &quot;Montserrat ExtraBold Alt1&quot;; font-variant-ligatures: none; text-align: center; text-anchor: middle; fill: rgb(179, 212, 255);" d="m 638.23569,117.624 c 4.248,2.304 9.072,3.384 14.4,3.384 5.328,0 10.08,-1.08 14.328,-3.384 4.248,-2.232 7.56,-5.328 10.008,-9.36 2.448,-3.96 3.672,-8.424 3.672,-13.464 0,-4.968 -1.224,-9.432 -3.672,-13.464 -2.448,-3.96 -5.76,-7.056 -10.008,-9.36 -4.248,-2.232 -9,-3.384 -14.328,-3.384 -5.328,0 -10.152,1.152 -14.4,3.384 -4.248,2.304 -7.56,5.4 -10.008,9.36 -2.448,4.032 -3.6,8.496 -3.6,13.464 0,5.04 1.152,9.504 3.6,13.464 2.448,4.032 5.76,7.128 10.008,9.36 z m 21.312,-10.224 c -2.088,1.224 -4.392,1.8 -6.912,1.8 -2.592,0 -4.896,-0.576 -6.912,-1.8 -2.088,-1.152 -3.744,-2.88 -4.896,-5.04 -1.224,-2.16 -1.8,-4.68 -1.8,-7.56 0,-2.808 0.576,-5.328 1.8,-7.488 1.152,-2.16 2.808,-3.888 4.896,-5.112 2.016,-1.152 4.32,-1.8 6.912,-1.8 2.52,0 4.824,0.648 6.912,1.8 2.016,1.224 3.672,2.952 4.896,5.112 1.152,2.16 1.8,4.68 1.8,7.488 0,2.88 -0.648,5.4 -1.8,7.56 -1.224,2.16 -2.88,3.888 -4.896,5.04 z" transform="translate(0 284.092) translate(660.351175 67.14800000000001) scale(1.25) translate(-624.62769 -68.592)"></path> 
   <path id="path53044" style="font-style: normal; font-weight: 800; font-size: 72px; line-height: 1; font-family: &quot;Montserrat ExtraBold Alt1&quot;; font-variant-ligatures: none; text-align: center; text-anchor: middle; fill: rgb(179, 212, 255);" d="m 726.48631,69.6 h -41.76 v 19.08 h 12.168 v -7.776 h 13.248 L 693.15031,120 h 15.552 l 17.784,-41.472 z" transform="translate(0 284.092) translate(739.22445 68.408) scale(1.25) translate(-684.72631 -69.6)"></path> 
  </g> 
  <g id="tagline" style="font-style:normal;font-weight:500;font-size:32px;line-height:1;font-family:Montserrat;font-variant-ligatures:none;text-align:center;text-anchor:middle"></g> 
 </g> 
</svg>