<svg xmlns:dc="http://purl.org/dc/elements/1.1/" xmlns:cc="http://creativecommons.org/ns#" xmlns:rdf="http://www.w3.org/1999/02/22-rdf-syntax-ns#" xmlns:svg="http://www.w3.org/2000/svg" xmlns="http://www.w3.org/2000/svg" id="svg402273" viewbox="0 0 1024 768" height="768px" width="1024px" version="1.1"> <metadata id="metadata402279"> 
  <rdf:rdf> 
   <cc:work rdf:about=""> 
    <dc:format>
     image/svg+xml
    </dc:format> 
    <dc:type rdf:resource="http://purl.org/dc/dcmitype/StillImage"></dc:type> 
   </cc:work> 
  </rdf:rdf> 
 </metadata> <defs id="defs402277"></defs> <g id="logo-group"> 
  <g id="title" style="font-style:normal;font-weight:700;font-size:72px;line-height:1;font-family:'Comfortaa Bold Alt2';font-variant-ligatures:none;text-align:center;text-anchor:middle" aria-label="REDDOORO7"> 
   <path id="path402281" style="font-style: normal; font-weight: 700; font-size: 72px; line-height: 1; font-family: &quot;Comfortaa Bold Alt2&quot;; font-variant-ligatures: none; text-align: center; text-anchor: middle; fill: rgb(169, 128, 100);" d="m 309.68337,120.144 c 0.72,0 1.368,-0.216 2.016,-0.648 0.792,-0.576 1.296,-1.368 1.512,-2.376 0.144,-0.936 0,-1.872 -0.576,-2.664 L 300.75538,97.32 c 2.51999,-1.08 4.608,-2.664 6.40799,-4.752 2.80801,-3.24 4.17601,-7.056 4.17601,-11.304 0,-4.824 -1.72801,-8.928 -5.11201,-12.384 -3.456,-3.384 -7.56,-5.112 -12.384,-5.112 h -14.03999 c -1.00801,0 -1.80001,0.36 -2.52001,1.08 -0.72,0.72 -1.08,1.512 -1.08,2.52 v 49.104 c 0,1.008 0.36,1.872 1.08,2.52 0.72,0.72 1.512,1.08 2.52001,1.08 1.00799,0 1.87199,-0.36 2.51999,-1.08 0.72001,-0.648 1.08,-1.512 1.08,-2.52 V 70.968 h 10.44 c 2.80801,0 5.256,1.008 7.272,3.024 2.016,2.016 3.024,4.392 3.024,7.272 0,2.52 -0.864,4.752 -2.448,6.624 -1.584,1.872 -3.59999,3.024 -5.976,3.456 l -1.296,0.144 c -1.368,0.144 -2.37599,0.864 -2.88,2.088 -0.648,1.224 -0.504,2.448 0.28801,3.528 l 14.904,21.456 c 0.64799,1.008 1.656,1.584 2.95199,1.584 z" transform="translate(0 294.8426666666667) translate(180.4520777777778 57.87733333333334) scale(1.1111111111111112) translate(-276.20337 -63.768)"></path> 
   <path id="path402283" style="font-style: normal; font-weight: 700; font-size: 72px; line-height: 1; font-family: &quot;Comfortaa Bold Alt2&quot;; font-variant-ligatures: none; text-align: center; text-anchor: middle; fill: rgb(169, 128, 100);" d="m 360.57387,114.024 c -0.71999,-0.576 -1.584,-0.936 -2.664,-0.936 h -28.8 v -18 h 20.664 c 1.00801,0 1.872,-0.288 2.59201,-0.936 0.71999,-0.648 1.07999,-1.512 1.07999,-2.52 0,-1.008 -0.36,-1.8 -1.07999,-2.448 -0.72001,-0.648 -1.584,-1.008 -2.59201,-1.008 h -20.664 V 70.68 h 28.8 c 1.08,0 1.94401,-0.288 2.664,-0.936 0.648,-0.576 1.00801,-1.44 1.00801,-2.448 0,-1.008 -0.36001,-1.872 -1.00801,-2.52 -0.71999,-0.648 -1.584,-1.008 -2.664,-1.008 h -32.54399 c -1.08001,0 -1.94401,0.36 -2.66401,1.08 -0.72,0.72 -1.08,1.584 -1.08,2.664 v 48.744 c 0,1.08 0.36,1.944 1.08,2.664 0.72,0.72 1.584,1.08 2.66401,1.08 h 32.54399 c 1.08,0 1.94401,-0.288 2.664,-0.936 0.648,-0.648 1.00801,-1.512 1.00801,-2.592 0,-1.008 -0.36001,-1.8 -1.00801,-2.448 z" transform="translate(0 294.8426666666667) translate(247.58374444444448 57.87733333333334) scale(1.1111111111111112) translate(-321.62187 -63.768)"></path> 
   <path id="path402285" style="font-style: normal; font-weight: 700; font-size: 72px; line-height: 1; font-family: &quot;Comfortaa Bold Alt2&quot;; font-variant-ligatures: none; text-align: center; text-anchor: middle; fill: rgb(169, 128, 100);" d="m 403.21362,67.368 c -4.248,-2.376 -9.072,-3.6 -14.472,-3.6 h -13.03199 c -1.08001,0 -1.94401,0.36 -2.66401,1.08 -0.72,0.72 -1.08,1.584 -1.08,2.664 v 48.744 c 0,1.08 0.36,1.944 1.08,2.664 0.72,0.72 1.584,1.08 2.66401,1.08 h 13.03199 c 5.4,0 10.224,-1.152 14.472,-3.6 4.17601,-2.376 7.488,-5.688 9.864,-10.008 2.304,-4.248 3.528,-9.072 3.528,-14.544 0,-5.4 -1.224,-10.224 -3.528,-14.472 -2.376,-4.248 -5.68799,-7.56 -9.864,-10.008 z m -3.816,43.272 c -3.168,1.872 -6.696,2.736 -10.656,2.736 h -9.288 V 70.392 h 9.288 c 3.96,0 7.488,0.936 10.656,2.736 3.168,1.872 5.616,4.392 7.344,7.632 1.728,3.312 2.664,6.984 2.664,11.088 0,4.176 -0.936,7.848 -2.664,11.16 -1.728,3.312 -4.176,5.832 -7.344,7.632 z" transform="translate(0 294.8426666666667) translate(320.18791111111113 57.87733333333334) scale(1.1111111111111112) translate(-371.96562 -63.768)"></path> 
   <path id="path402287" style="font-style: normal; font-weight: 700; font-size: 72px; line-height: 1; font-family: &quot;Comfortaa Bold Alt2&quot;; font-variant-ligatures: none; text-align: center; text-anchor: middle; fill: rgb(169, 128, 100);" d="m 459.60425,67.368 c -4.248,-2.376 -9.072,-3.6 -14.472,-3.6 h -13.032 c -1.08,0 -1.944,0.36 -2.664,1.08 -0.72,0.72 -1.08,1.584 -1.08,2.664 v 48.744 c 0,1.08 0.36,1.944 1.08,2.664 0.72,0.72 1.584,1.08 2.664,1.08 h 13.032 c 5.4,0 10.224,-1.152 14.472,-3.6 4.176,-2.376 7.488,-5.688 9.864,-10.008 2.304,-4.248 3.528,-9.072 3.528,-14.544 0,-5.4 -1.224,-10.224 -3.528,-14.472 -2.376,-4.248 -5.688,-7.56 -9.864,-10.008 z m -3.816,43.272 c -3.168,1.872 -6.696,2.736 -10.656,2.736 h -9.288 V 70.392 h 9.288 c 3.96,0 7.488,0.936 10.656,2.736 3.168,1.872 5.616,4.392 7.344,7.632 1.728,3.312 2.664,6.984 2.664,11.088 0,4.176 -0.936,7.848 -2.664,11.16 -1.728,3.312 -4.176,5.832 -7.344,7.632 z" transform="translate(0 294.8426666666667) translate(399.5108333333334 57.87733333333334) scale(1.1111111111111112) translate(-428.35625 -63.768)"></path> 
   <path id="path402289" style="font-style: normal; font-weight: 700; font-size: 72px; line-height: 1; font-family: &quot;Comfortaa Bold Alt2&quot;; font-variant-ligatures: none; text-align: center; text-anchor: middle; fill: rgb(169, 128, 100);" d="m 509.33262,120.864 c 3.88801,0 7.632,-0.792 11.232,-2.304 3.456,-1.44 6.552,-3.528 9.216,-6.192 2.664,-2.664 4.75201,-5.688 6.192,-9.216 1.51201,-3.528 2.304,-7.272 2.304,-11.232 0,-3.96 -0.79199,-7.704 -2.304,-11.304 -1.43999,-3.456 -3.528,-6.48 -6.192,-9.144 -2.664,-2.664 -5.76,-4.752 -9.216,-6.192 -3.6,-1.512 -7.34399,-2.304 -11.232,-2.304 -3.95999,0 -7.704,0.792 -11.304,2.304 -3.45599,1.44 -6.55199,3.528 -9.21599,6.192 -2.66401,2.664 -4.752,5.688 -6.192,9.144 -1.512,3.6 -2.23201,7.344 -2.23201,11.304 0,3.96 0.72001,7.704 2.23201,11.232 1.44,3.528 3.52799,6.552 6.192,9.216 2.664,2.664 5.76,4.752 9.21599,6.192 3.6,1.512 7.34401,2.304 11.304,2.304 z m 0,-50.688 c 5.976,0 11.088,2.088 15.33601,6.336 4.24799,4.248 6.408,9.432 6.408,15.408 0,5.976 -2.16001,11.088 -6.408,15.336 -4.24801,4.248 -9.36001,6.408 -15.33601,6.408 -6.048,0 -11.16,-2.16 -15.408,-6.408 -4.248,-4.176 -6.336,-9.36 -6.336,-15.336 0,-5.976 2.088,-11.16 6.336,-15.408 4.248,-4.248 9.36,-6.336 15.408,-6.336 z" transform="translate(0 294.8426666666667) translate(473.99124444444453 56.99733333333333) scale(1.1111111111111112) translate(-480.38862 -62.976)"></path> 
   <path id="path402291" style="font-style: normal; font-weight: 700; font-size: 72px; line-height: 1; font-family: &quot;Comfortaa Bold Alt2&quot;; font-variant-ligatures: none; text-align: center; text-anchor: middle; fill: rgb(169, 128, 100);" d="m 574.30137,120.864 c 3.88801,0 7.632,-0.792 11.232,-2.304 3.456,-1.44 6.552,-3.528 9.216,-6.192 2.664,-2.664 4.75201,-5.688 6.192,-9.216 1.51201,-3.528 2.304,-7.272 2.304,-11.232 0,-3.96 -0.79199,-7.704 -2.304,-11.304 -1.43999,-3.456 -3.528,-6.48 -6.192,-9.144 -2.664,-2.664 -5.76,-4.752 -9.216,-6.192 -3.6,-1.512 -7.34399,-2.304 -11.232,-2.304 -3.96,0 -7.70399,0.792 -11.30399,2.304 -3.456,1.44 -6.552,3.528 -9.216,6.192 -2.664,2.664 -4.75201,5.688 -6.192,9.144 -1.51201,3.6 -2.232,7.344 -2.232,11.304 0,3.96 0.71999,7.704 2.232,11.232 1.43999,3.528 3.528,6.552 6.192,9.216 2.664,2.664 5.76,4.752 9.216,6.192 3.6,1.512 7.34399,2.304 11.30399,2.304 z m 0,-50.688 c 5.976,0 11.088,2.088 15.33601,6.336 4.24799,4.248 6.408,9.432 6.408,15.408 0,5.976 -2.16001,11.088 -6.408,15.336 -4.24801,4.248 -9.36001,6.408 -15.33601,6.408 -6.048,0 -11.15999,-2.16 -15.408,-6.408 -4.248,-4.176 -6.336,-9.36 -6.336,-15.336 0,-5.976 2.088,-11.16 6.336,-15.408 4.24801,-4.248 9.36,-6.336 15.408,-6.336 z" transform="translate(0 294.8426666666667) translate(562.8454222222224 56.99733333333333) scale(1.1111111111111112) translate(-545.35738 -62.976)"></path> 
   <path id="path402293" style="font-style: normal; font-weight: 700; font-size: 72px; line-height: 1; font-family: &quot;Comfortaa Bold Alt2&quot;; font-variant-ligatures: none; text-align: center; text-anchor: middle; fill: rgb(169, 128, 100);" d="m 648.30837,120.144 c 0.72,0 1.368,-0.216 2.01601,-0.648 0.79199,-0.576 1.29599,-1.368 1.51199,-2.376 0.144,-0.936 0,-1.872 -0.576,-2.664 l -11.88,-17.136 c 2.52001,-1.08 4.60801,-2.664 6.408,-4.752 2.808,-3.24 4.17601,-7.056 4.17601,-11.304 0,-4.824 -1.72801,-8.928 -5.112,-12.384 -3.456,-3.384 -7.56001,-5.112 -12.384,-5.112 h -14.04001 c -1.00799,0 -1.8,0.36 -2.52,1.08 -0.72,0.72 -1.07999,1.512 -1.07999,2.52 v 49.104 c 0,1.008 0.35999,1.872 1.07999,2.52 0.72,0.72 1.51201,1.08 2.52,1.08 1.008,0 1.87201,-0.36 2.52001,-1.08 0.71999,-0.648 1.07999,-1.512 1.07999,-2.52 V 70.968 h 10.44001 c 2.808,0 5.25599,1.008 7.27199,3.024 2.01601,2.016 3.024,4.392 3.024,7.272 0,2.52 -0.86399,4.752 -2.448,6.624 -1.58399,1.872 -3.6,3.024 -5.976,3.456 l -1.296,0.144 c -1.368,0.144 -2.376,0.864 -2.88,2.088 -0.64799,1.224 -0.50399,2.448 0.288,3.528 l 14.904,21.456 c 0.648,1.008 1.65601,1.584 2.952,1.584 z" transform="translate(0 294.8426666666667) translate(656.7020888888891 57.87733333333334) scale(1.1111111111111112) translate(-614.82838 -63.768)"></path> 
   <path id="path402295" style="font-style: normal; font-weight: 700; font-size: 72px; line-height: 1; font-family: &quot;Comfortaa Bold Alt2&quot;; font-variant-ligatures: none; text-align: center; text-anchor: middle; fill: rgb(66, 164, 191);" d="m 686.23887,120.864 c 3.88801,0 7.632,-0.792 11.232,-2.304 3.456,-1.44 6.552,-3.528 9.216,-6.192 2.664,-2.664 4.75201,-5.688 6.192,-9.216 1.51201,-3.528 2.304,-7.272 2.304,-11.232 0,-3.96 -0.79199,-7.704 -2.304,-11.304 -1.43999,-3.456 -3.528,-6.48 -6.192,-9.144 -2.664,-2.664 -5.76,-4.752 -9.216,-6.192 -3.6,-1.512 -7.34399,-2.304 -11.232,-2.304 -3.96,0 -7.70399,0.792 -11.30399,2.304 -3.456,1.44 -6.552,3.528 -9.216,6.192 -2.664,2.664 -4.75201,5.688 -6.192,9.144 -1.51201,3.6 -2.232,7.344 -2.232,11.304 0,3.96 0.71999,7.704 2.232,11.232 1.43999,3.528 3.528,6.552 6.192,9.216 2.664,2.664 5.76,4.752 9.216,6.192 3.6,1.512 7.34399,2.304 11.30399,2.304 z m 0,-50.688 c 5.976,0 11.088,2.088 15.33601,6.336 4.24799,4.248 6.408,9.432 6.408,15.408 0,5.976 -2.16001,11.088 -6.408,15.336 -4.24801,4.248 -9.36001,6.408 -15.33601,6.408 -6.048,0 -11.15999,-2.16 -15.408,-6.408 -4.248,-4.176 -6.336,-9.36 -6.336,-15.336 0,-5.976 2.088,-11.16 6.336,-15.408 4.24801,-4.248 9.36,-6.336 15.408,-6.336 z" transform="translate(0 294.8426666666667) translate(720.5537555555558 56.99733333333333) scale(1.1111111111111112) translate(-657.29488 -62.976)"></path> 
   <path id="path402297" style="font-style: normal; font-weight: 700; font-size: 72px; line-height: 1; font-family: &quot;Comfortaa Bold Alt2&quot;; font-variant-ligatures: none; text-align: center; text-anchor: middle; fill: rgb(66, 164, 191);" d="m 719.22163,70.104 c 0.72,0.72 1.58399,1.008 2.66399,1.008 h 21.88801 l -20.664,42.912 c -0.432,0.864 -0.648,1.656 -0.648,2.304 0,1.008 0.36,1.872 1.07999,2.592 0.72,0.72 1.512,1.08 2.52001,1.08 0.64799,0 1.29599,-0.144 1.94399,-0.504 0.57601,-0.36 1.08001,-0.864 1.44,-1.512 l 23.04001,-48.6 c 0.288,-0.72 0.504,-1.368 0.504,-1.944 0,-1.008 -0.36,-1.872 -1.08001,-2.592 -0.72,-0.72 -1.584,-1.08 -2.59199,-1.08 h -27.43201 c -1.08,0 -1.94399,0.36 -2.66399,1.08 -0.72001,0.72 -1.00801,1.584 -1.00801,2.592 0,1.08 0.288,1.944 1.00801,2.664 z" transform="translate(0 294.8426666666667) translate(804.9079111111113 57.87733333333334) scale(1.1111111111111112) translate(-718.21362 -63.768)"></path> 
  </g> 
  <g id="tagline" style="font-style:normal;font-weight:500;font-size:32px;line-height:1;font-family:Raleway;font-variant-ligatures:none;text-align:center;text-anchor:middle"></g> 
 </g> 
</svg>