<svg xmlns:dc="http://purl.org/dc/elements/1.1/" xmlns:cc="http://creativecommons.org/ns#" xmlns:rdf="http://www.w3.org/1999/02/22-rdf-syntax-ns#" xmlns:svg="http://www.w3.org/2000/svg" xmlns="http://www.w3.org/2000/svg" id="svg96260" viewbox="0 0 1024 768" height="768px" width="1024px" version="1.1"> <metadata id="metadata96266"> 
  <rdf:rdf> 
   <cc:work rdf:about=""> 
    <dc:format>
     image/svg+xml
    </dc:format> 
    <dc:type rdf:resource="http://purl.org/dc/dcmitype/StillImage"></dc:type> 
   </cc:work> 
  </rdf:rdf> 
 </metadata> <defs id="defs96264"></defs> <g id="logo-group"> 
  <g id="title" style="font-style:normal;font-weight:400;font-size:72px;line-height:1;font-family:Teko;font-variant-ligatures:none;text-align:center;text-anchor:middle" aria-label="Redeyeo7"> 
   <path id="path96268" style="font-style: normal; font-weight: 400; font-size: 72px; line-height: 1; font-family: Teko; font-variant-ligatures: none; text-align: center; text-anchor: middle; fill: rgb(237, 201, 140);" d="M 420.13025,101.784 V 120 h -6.48 V 74.928 h 14.76 q 6.696,0 6.696,6.336 v 14.112 q 0,5.472 -4.824,6.264 l 7.128,18.36 h -6.984 l -6.768,-18.216 z m 0,-21.6 V 96.6 h 6.336 q 1.296,0 1.728,-0.36 0.432,-0.432 0.432,-1.728 v -12.24 q 0,-1.296 -0.432,-1.656 -0.432,-0.432 -1.728,-0.432 z" transform="translate(0 182.6775371621445) translate(251.99999999999994 143.90803401446055) scale(2.2119906311987583) translate(-413.65025 -74.928)"></path> 
   <path id="path96270" style="font-style: normal; font-weight: 400; font-size: 72px; line-height: 1; font-family: Teko; font-variant-ligatures: none; text-align: center; text-anchor: middle; fill: rgb(237, 201, 140);" d="m 448.17313,84.864 h 7.05599 q 6.768,0 6.768,6.408 v 13.176 h -14.18399 v 8.352 q 0,1.224 0.432,1.656 0.43199,0.432 1.72799,0.432 h 3.312 q 1.296,0 1.728,-0.432 0.43201,-0.432 0.43201,-1.728 v -2.88 h 6.33599 v 3.816 q 0,6.336 -6.696,6.336 h -6.91199 q -6.69601,0 -6.69601,-6.336 V 91.272 q 0,-6.408 6.69601,-6.408 z m -0.36,14.832 h 7.776 v -7.632 q 0,-1.224 -0.43201,-1.656 -0.36,-0.432 -1.656,-0.432 h -3.528 q -1.296,0 -1.72799,0.432 -0.432,0.432 -0.432,1.656 z" transform="translate(0 182.6775371621445) translate(324.61272889157954 165.88637292605145) scale(2.2119906311987583) translate(-441.47712 -84.864)"></path> 
   <path id="path96272" style="font-style: normal; font-weight: 400; font-size: 72px; line-height: 1; font-family: Teko; font-variant-ligatures: none; text-align: center; text-anchor: middle; fill: rgb(237, 201, 140);" d="m 480.60012,71.832 h 6.48 V 120 h -6.48 v -2.808 q -0.93599,2.808 -4.464,2.808 h -2.592 q -6.48,0 -6.48,-6.336 V 91.2 q 0,-6.408 6.48,-6.408 h 2.592 q 3.52801,0 4.464,2.808 z m -4.896,42.912 h 2.52001 q 1.29599,0 1.8,-0.576 0.57599,-0.576 0.57599,-1.944 V 92.568 q 0,-1.368 -0.57599,-1.944 -0.50401,-0.576 -1.8,-0.576 h -2.52001 q -1.296,0 -1.72799,0.432 -0.43201,0.432 -0.43201,1.656 v 20.52 q 0,1.296 0.43201,1.728 0.43199,0.36 1.72799,0.36 z" transform="translate(0 182.6775371621445) translate(392.270886328056 137.0597110202692) scale(2.2119906311987583) translate(-467.06412 -71.832)"></path> 
   <path id="path96274" style="font-style: normal; font-weight: 400; font-size: 72px; line-height: 1; font-family: Teko; font-variant-ligatures: none; text-align: center; text-anchor: middle; fill: rgb(237, 201, 140);" d="m 499.92313,84.864 h 7.05599 q 6.768,0 6.768,6.408 v 13.176 h -14.18399 v 8.352 q 0,1.224 0.432,1.656 0.43199,0.432 1.72799,0.432 h 3.312 q 1.296,0 1.728,-0.432 0.43201,-0.432 0.43201,-1.728 v -2.88 h 6.33599 v 3.816 q 0,6.336 -6.696,6.336 h -6.91199 q -6.69601,0 -6.69601,-6.336 V 91.272 q 0,-6.408 6.69601,-6.408 z m -0.36,14.832 h 7.776 v -7.632 q 0,-1.224 -0.43201,-1.656 -0.36,-0.432 -1.656,-0.432 h -3.528 q -1.296,0 -1.72799,0.432 -0.432,0.432 -0.432,1.656 z" transform="translate(0 182.6775371621445) translate(461.2031503681029 165.88637292605145) scale(2.2119906311987583) translate(-493.22712 -84.864)"></path> 
   <path id="path96276" style="font-style: normal; font-weight: 400; font-size: 72px; line-height: 1; font-family: Teko; font-variant-ligatures: none; text-align: center; text-anchor: middle; fill: rgb(237, 201, 140);" d="m 524.43012,129.936 h -4.31999 v -5.184 h 2.952 q 3.096,0 3.74399,-2.376 l 0.72,-2.952 h -3.528 l -7.34399,-34.56 h 6.624 l 5.328,29.448 4.96799,-29.448 h 6.552 l -7.416,38.52 q -1.584,6.552 -8.28,6.552 z" transform="translate(0 182.6775371621445) translate(524.0834301610964 165.88637292605145) scale(2.2119906311987583) translate(-516.65413 -84.864)"></path> 
   <path id="path96278" style="font-style: normal; font-weight: 400; font-size: 72px; line-height: 1; font-family: Teko; font-variant-ligatures: none; text-align: center; text-anchor: middle; fill: rgb(237, 201, 140);" d="m 550.4075,84.864 h 7.056 q 6.768,0 6.768,6.408 v 13.176 h -14.184 v 8.352 q 0,1.224 0.432,1.656 0.432,0.432 1.728,0.432 h 3.312 q 1.296,0 1.728,-0.432 0.432,-0.432 0.432,-1.728 v -2.88 h 6.336 v 3.816 q 0,6.336 -6.696,6.336 h -6.912 q -6.696,0 -6.696,-6.336 V 91.272 q 0,-6.408 6.696,-6.408 z m -0.36,14.832 h 7.776 v -7.632 q 0,-1.224 -0.432,-1.656 -0.36,-0.432 -1.656,-0.432 h -3.528 q -1.296,0 -1.728,0.432 -0.432,0.432 -0.432,1.656 z" transform="translate(0 182.6775371621445) translate(594.9940322619685 165.88637292605145) scale(2.2119906311987583) translate(-543.7115 -84.864)"></path> 
   <path id="path96280" style="font-style: normal; font-weight: 400; font-size: 72px; line-height: 1; font-family: Teko; font-variant-ligatures: none; text-align: center; text-anchor: middle; fill: rgb(219, 24, 46);" d="m 575.9945,84.864 h 7.704 q 6.696,0 6.696,6.408 v 22.392 q 0,6.336 -6.696,6.336 h -7.704 q -6.624,0 -6.624,-6.336 V 91.272 q 0,-6.408 6.624,-6.408 z m 7.992,27.864 V 92.136 q 0,-1.296 -0.432,-1.728 -0.432,-0.432 -1.728,-0.432 h -3.96 q -1.296,0 -1.728,0.432 -0.36,0.432 -0.36,1.728 v 20.592 q 0,1.296 0.36,1.728 0.432,0.432 1.728,0.432 h 3.96 q 1.296,0 1.728,-0.432 0.432,-0.432 0.432,-1.728 z" transform="translate(0 182.6775371621445) translate(662.8114530238912 165.88637292605145) scale(2.2119906311987583) translate(-569.3705 -84.864)"></path> 
   <path id="path96282" style="font-style: normal; font-weight: 400; font-size: 72px; line-height: 1; font-family: Teko; font-variant-ligatures: none; text-align: center; text-anchor: middle; fill: rgb(219, 24, 46);" d="m 613.73262,74.928 v 4.032 l -12.096,41.04 h -6.624 l 11.736,-39.672 h -13.17599 v -5.4 z" transform="translate(0 182.6775371621445) translate(727.4062909949395 143.90803401446055) scale(2.2119906311987583) translate(-593.57263 -74.928)"></path> 
  </g> 
  <g id="tagline" style="font-style:oblique;font-weight:normal;font-size:32px;line-height:1;font-family:'Fira Sans Condensed';font-variant-ligatures:none;text-align:center;text-anchor:middle"></g> 
 </g> 
</svg>