<svg xmlns:dc="http://purl.org/dc/elements/1.1/" xmlns:cc="http://creativecommons.org/ns#" xmlns:rdf="http://www.w3.org/1999/02/22-rdf-syntax-ns#" xmlns:svg="http://www.w3.org/2000/svg" xmlns="http://www.w3.org/2000/svg" id="svg356756" viewbox="0 0 1024 768" height="768px" width="1024px" version="1.1"> <metadata id="metadata356762"> 
  <rdf:rdf> 
   <cc:work rdf:about=""> 
    <dc:format>
     image/svg+xml
    </dc:format> 
    <dc:type rdf:resource="http://purl.org/dc/dcmitype/StillImage"></dc:type> 
   </cc:work> 
  </rdf:rdf> 
 </metadata> <defs id="defs356760"></defs> <g id="logo-group"> 
  <g id="title" style="font-style:normal;font-weight:400;font-size:72px;line-height:1;font-family:'Abril Fatface';font-variant-ligatures:none;text-align:center;text-anchor:middle" aria-label="Redskyo7"> 
   <path id="path356764" style="font-style: normal; font-weight: 400; font-size: 72px; line-height: 1; font-family: &quot;Abril Fatface&quot;; font-variant-ligatures: none; text-align: center; text-anchor: middle; fill: rgb(20, 20, 25);" d="m 380.01444,94.512 h -3.816 v 24.12 h 4.68 V 120 h -23.4 v -1.368 h 4.68 V 70.968 h -4.68 V 69.6 h 21.744 q 9.36,0 13.248,1.008 3.96,0.936 5.544,2.304 3.456,2.808 3.456,8.928 0,6.12 -3.024,8.784 -3.024,2.592 -9.216,3.096 v 0.216 q 5.832,0.792 8.136,3.456 2.304,2.664 2.304,8.928 v 3.816 q 0,3.744 0.36,5.04 0.432,1.296 1.728,1.296 1.296,0 2.016,-1.152 0.792,-1.224 1.44,-5.04 l 1.224,0.144 q -0.792,6.12 -2.808,8.208 -1.944,2.088 -7.848,2.088 -5.904,0 -8.424,-2.736 -2.448,-2.808 -2.448,-10.44 v -5.256 q 0,-4.032 -1.08,-5.904 -1.008,-1.872 -3.816,-1.872 z m -3.816,-23.544 v 22.176 h 2.304 q 4.104,0 6.048,-2.52 2.016,-2.52 2.016,-8.208 v -2.088 q 0,-5.688 -1.944,-7.488 -1.872,-1.872 -6.048,-1.872 z" transform="translate(0 252.01718654092957) translate(251.9999999999999 84.97650800736568) scale(1.4508118966575532) translate(-357.47844 -69.6)"></path> 
   <path id="path356766" style="font-style: normal; font-weight: 400; font-size: 72px; line-height: 1; font-family: &quot;Abril Fatface&quot;; font-variant-ligatures: none; text-align: center; text-anchor: middle; fill: rgb(20, 20, 25);" d="m 426.96069,120.72 q -9.288,0 -13.968,-4.752 -4.608,-4.824 -4.608,-13.32 0,-8.568 5.184,-13.104 5.256,-4.536 13.32,-4.536 16.344,0 15.696,16.416 h -20.304 v 2.808 q 0,7.056 1.8,10.656 1.8,3.6 6.264,3.6 8.352,0 10.944,-8.928 l 1.296,0.216 q -1.368,5.184 -4.968,8.064 -3.528,2.88 -10.656,2.88 z m -4.608,-20.736 h 7.416 v -3.528 q 0,-5.832 -0.72,-7.92 -0.648,-2.16 -2.736,-2.16 -2.016,0 -3.024,2.304 -0.936,2.232 -0.936,7.776 z" transform="translate(0 252.01718654092957) translate(336.01107639082636 107.33061771106526) scale(1.4508118966575532) translate(-408.38469 -85.008)"></path> 
   <path id="path356768" style="font-style: normal; font-weight: 400; font-size: 72px; line-height: 1; font-family: &quot;Abril Fatface&quot;; font-variant-ligatures: none; text-align: center; text-anchor: middle; fill: rgb(20, 20, 25);" d="m 459.76569,105.096 q 0,7.56 0.792,10.08 0.792,2.448 2.88,2.448 2.16,0 3.672,-1.872 1.584,-1.872 1.584,-5.544 V 94.512 q 0,-3.096 -1.224,-5.256 -1.224,-2.16 -3.6,-2.16 -2.376,0 -3.24,3.168 -0.864,3.168 -0.864,11.088 z m 9.864,14.904 -0.792,-5.04 q -2.448,5.76 -9.936,5.76 -6.192,0 -9.648,-4.464 -3.384,-4.464 -3.384,-13.32 0,-17.928 14.256,-17.928 6.336,0 8.352,3.528 v -21.24 h -4.392 V 66 h 18 v 52.704 h 3.528 V 120 Z" transform="translate(0 252.01718654092957) translate(400.5504436136376 79.7535851793985) scale(1.4508118966575532) translate(-445.86969 -66)"></path> 
   <path id="path356770" style="font-style: normal; font-weight: 400; font-size: 72px; line-height: 1; font-family: &quot;Abril Fatface&quot;; font-variant-ligatures: none; text-align: center; text-anchor: middle; fill: rgb(20, 20, 25);" d="m 488.43069,120.72 v -12.888 h 0.864 q 1.872,6.264 5.04,8.784 3.168,2.52 7.92,2.52 7.344,0 7.344,-4.68 0,-2.016 -1.8,-3.024 -2.808,-1.584 -7.2,-2.448 -4.896,-1.296 -8.208,-3.456 -3.96,-2.592 -3.96,-8.208 0,-5.616 3.456,-8.928 3.456,-3.384 9.216,-3.384 3.528,0 7.272,1.656 1.368,0.576 2.088,0.576 0.72,0 1.224,-0.504 0.504,-0.504 1.224,-1.872 h 0.792 V 95.88 h -0.864 q -3.672,-9.36 -11.376,-9.36 -3.384,0 -5.04,1.224 -1.656,1.152 -1.656,2.952 0,1.08 0.504,1.728 0.504,0.576 0.792,0.864 0.288,0.288 0.936,0.648 0.648,0.288 1.08,0.504 0.432,0.144 1.296,0.432 0.936,0.288 1.368,0.36 4.896,1.224 7.056,2.16 2.16,0.864 4.104,2.16 3.96,2.736 3.96,8.856 0,6.048 -3.6,9.216 -3.6,3.096 -9.864,3.096 -4.464,0 -8.64,-2.088 -0.864,-0.576 -1.368,-0.576 -1.584,0 -3.096,2.664 z" transform="translate(0 252.01718654092957) translate(472.4541320238826 107.1217007979466) scale(1.4508118966575532) translate(-488.43069 -84.864)"></path> 
   <path id="path356772" style="font-style: normal; font-weight: 400; font-size: 72px; line-height: 1; font-family: &quot;Abril Fatface&quot;; font-variant-ligatures: none; text-align: center; text-anchor: middle; fill: rgb(20, 20, 25);" d="m 541.53744,120 v -1.296 h 3.312 l -8.136,-16.704 -1.368,0.36 v 16.344 h 3.312 V 120 h -20.664 v -1.296 h 3.96 V 67.296 h -4.248 V 66 h 17.64 v 34.92 l 1.152,-0.432 16.2,-13.464 h -6.768 v -1.296 h 14.184 v 1.296 h -5.04 l -8.568,7.272 12.456,24.408 h 2.592 V 120 Z" transform="translate(0 252.01718654092957) translate(525.081970872161 79.7535851793985) scale(1.4508118966575532) translate(-517.70544 -66)"></path> 
   <path id="path356774" style="font-style: normal; font-weight: 400; font-size: 72px; line-height: 1; font-family: &quot;Abril Fatface&quot;; font-variant-ligatures: none; text-align: center; text-anchor: middle; fill: rgb(20, 20, 25);" d="m 555.74281,87.024 v -1.296 h 20.88 v 1.296 h -3.888 l 7.848,23.904 8.352,-23.904 h -4.824 v -1.296 h 10.152 v 1.296 h -3.6 l -13.464,38.808 q -2.376,6.768 -5.328,9.432 -2.952,2.736 -7.2,2.736 -4.248,0 -6.696,-1.944 -2.448,-1.944 -2.448,-4.968 0,-3.024 1.584,-4.608 1.584,-1.584 4.176,-1.584 5.976,0 5.976,4.968 0,1.08 -0.432,2.592 h -2.52 q -0.576,1.656 -0.144,2.736 0.432,1.08 1.944,1.08 2.952,0 5.256,-2.952 2.304,-2.88 4.392,-8.856 l 1.584,-4.464 h -6.336 l -12.312,-32.976 z" transform="translate(0 252.01718654092957) translate(590.109347692651 108.37520227665871) scale(1.4508118966575532) translate(-555.52681 -85.728)"></path> 
   <path id="path356776" style="font-style: normal; font-weight: 400; font-size: 72px; line-height: 1; font-family: &quot;Abril Fatface&quot;; font-variant-ligatures: none; text-align: center; text-anchor: middle; fill: rgb(48, 48, 48);" d="m 615.78069,105.816 v -6.12 q 0,-6.984 -0.792,-10.152 -0.72,-3.24 -3.456,-3.24 -1.584,0 -2.592,0.936 -0.936,0.864 -1.368,2.952 -0.648,3.24 -0.648,9.864 v 5.616 q 0,7.848 0.432,9.432 0.504,1.584 1.008,2.592 0.792,1.728 3.096,1.728 2.808,0 3.672,-3.24 0.648,-2.304 0.648,-10.368 z m -4.464,14.904 q -9,0 -13.608,-4.608 -4.608,-4.608 -4.608,-13.176 0,-8.64 4.896,-13.248 4.968,-4.68 13.896,-4.68 8.928,0 13.32,4.32 4.392,4.248 4.392,13.032 0,18.36 -18.288,18.36 z" transform="translate(0 252.01718654092957) translate(654.7776630768373 107.33061771106526) scale(1.4508118966575532) translate(-593.10069 -85.008)"></path> 
   <path id="path356778" style="font-style: normal; font-weight: 400; font-size: 72px; line-height: 1; font-family: &quot;Abril Fatface&quot;; font-variant-ligatures: none; text-align: center; text-anchor: middle; fill: rgb(48, 48, 48);" d="m 647.81844,120.72 q -3.888,0 -6.12,-2.088 -2.232,-2.16 -2.232,-5.256 0,-3.168 2.088,-6.912 2.16,-3.816 9.288,-12.096 l 11.88,-13.752 h -18.432 q -5.112,0 -6.768,1.296 -1.584,1.224 -2.52,5.976 h -1.152 l 0.792,-18.288 h 32.256 v 7.776 l -7.992,13.968 q -5.328,9.432 -6.84,13.536 -1.44,4.032 -1.44,7.704 0,3.672 2.16,6.768 l -0.504,0.864 q -2.016,0.504 -4.464,0.504 z" transform="translate(0 252.01718654092957) translate(724.0535684392613 84.97650800736568) scale(1.4508118966575532) translate(-633.85044 -69.6)"></path> 
  </g> 
  <g id="tagline" style="font-style:oblique;font-weight:normal;font-size:32px;line-height:1;font-family:'Droid Serif';font-variant-ligatures:none;text-align:center;text-anchor:middle"></g> 
 </g> 
</svg>