<svg xmlns:dc="http://purl.org/dc/elements/1.1/" xmlns:cc="http://creativecommons.org/ns#" xmlns:rdf="http://www.w3.org/1999/02/22-rdf-syntax-ns#" xmlns:svg="http://www.w3.org/2000/svg" xmlns="http://www.w3.org/2000/svg" id="svg53766" viewbox="0 0 1024 768" height="768px" width="1024px" version="1.1"> <metadata id="metadata53772"> 
  <rdf:rdf> 
   <cc:work rdf:about=""> 
    <dc:format>
     image/svg+xml
    </dc:format> 
    <dc:type rdf:resource="http://purl.org/dc/dcmitype/StillImage"></dc:type> 
   </cc:work> 
  </rdf:rdf> 
 </metadata> <defs id="defs53770"></defs> <g id="logo-group"> 
  <g id="title" style="font-style:normal;font-weight:200;font-size:72px;line-height:1;font-family:Montserrat;font-variant-ligatures:none;text-align:center;text-anchor:middle" aria-label="Redstoneo7"> 
   <path id="path53774" style="font-style: normal; font-weight: 200; font-size: 72px; line-height: 1; font-family: Montserrat; font-variant-ligatures: none; text-align: center; text-anchor: middle; fill: rgb(79, 92, 93);" d="m 349.9415,86.016 q 0,6.48 -3.384,10.656 -3.384,4.104 -9.648,5.472 L 349.9415,120 h -1.8 l -12.816,-17.568 q -2.88,0.288 -4.608,0.288 h -15.624 V 120 h -1.44 V 69.672 h 17.064 q 9.144,0 14.184,4.32 5.04,4.248 5.04,12.024 z m -19.224,15.264 q 8.496,0 13.104,-3.96 4.68,-4.032 4.68,-11.304 0,-7.128 -4.68,-11.016 -4.608,-3.888 -13.104,-3.888 h -15.624 v 30.168 z" transform="translate(0 287.95303263702573) translate(251.9999999999999 67.47142268758725) scale(1.2063299846076936) translate(-313.6535 -69.672)"></path> 
   <path id="path53776" style="font-style: normal; font-weight: 200; font-size: 72px; line-height: 1; font-family: Montserrat; font-variant-ligatures: none; text-align: center; text-anchor: middle; fill: rgb(79, 92, 93);" d="m 378.14075,118.56 q 4.032,0 7.416,-1.368 3.456,-1.44 5.76,-4.032 l 1.008,1.008 q -2.592,2.808 -6.264,4.32 -3.672,1.512 -7.92,1.512 -5.112,0 -9.216,-2.376 -4.032,-2.448 -6.408,-6.696 -2.304,-4.248 -2.304,-9.576 0,-5.328 2.304,-9.576 2.376,-4.248 6.408,-6.624 4.104,-2.376 9.216,-2.376 5.112,0 9,2.376 3.96,2.376 6.12,6.624 2.16,4.248 2.16,9.576 h -33.768 q 0,4.968 2.088,8.928 2.16,3.888 5.904,6.12 3.744,2.16 8.496,2.16 z m 0,-34.344 q -4.536,0 -8.208,2.016 -3.6,1.944 -5.76,5.544 -2.16,3.528 -2.448,8.136 h 32.256 q -0.504,-7.056 -4.752,-11.376 -4.248,-4.32 -11.088,-4.32 z" transform="translate(0 287.95303263702573) translate(311.7848092896687 83.27917080588645) scale(1.2063299846076936) translate(-360.21275 -82.776)"></path> 
   <path id="path53778" style="font-style: normal; font-weight: 200; font-size: 72px; line-height: 1; font-family: Montserrat; font-variant-ligatures: none; text-align: center; text-anchor: middle; fill: rgb(79, 92, 93);" d="M 439.1135,66.576 V 120 h -1.44 v -10.944 q -2.088,5.112 -6.552,8.136 -4.392,2.952 -10.224,2.952 -5.184,0 -9.36,-2.376 -4.176,-2.448 -6.552,-6.696 -2.304,-4.32 -2.304,-9.648 0,-5.328 2.304,-9.648 2.376,-4.32 6.552,-6.696 4.176,-2.448 9.36,-2.448 5.832,0 10.224,3.024 4.464,2.952 6.552,8.064 V 66.576 Z m -18.216,52.128 q 4.824,0 8.64,-2.232 3.816,-2.232 5.976,-6.12 2.16,-3.96 2.16,-8.928 0,-4.968 -2.16,-8.928 -2.16,-3.96 -5.976,-6.192 -3.816,-2.232 -8.64,-2.232 -4.824,0 -8.64,2.232 -3.816,2.232 -5.976,6.192 -2.16,3.96 -2.16,8.928 0,4.968 2.16,8.928 2.16,3.888 5.976,6.12 3.816,2.232 8.64,2.232 z" transform="translate(0 287.95303263702573) translate(366.63512577729983 63.7366250552418) scale(1.2063299846076936) translate(-402.6815 -66.576)"></path> 
   <path id="path53780" style="font-style: normal; font-weight: 200; font-size: 72px; line-height: 1; font-family: Montserrat; font-variant-ligatures: none; text-align: center; text-anchor: middle; fill: rgb(79, 92, 93);" d="m 472.65312,86.664 q -3.81599,-2.448 -9.144,-2.448 -4.608,0 -7.56,1.872 -2.88,1.872 -2.88,5.472 0,2.52 1.368,4.104 1.44,1.584 3.456,2.448 2.08801,0.864 5.76,2.016 3.88801,1.152 6.192,2.232 2.37601,1.008 3.96,2.952 1.656,1.944 1.656,5.04 0,4.752 -3.67199,7.2 -3.60001,2.448 -8.856,2.448 -3.88801,0 -7.416,-1.368 -3.45601,-1.368 -5.904,-3.816 l 0.93599,-1.08 q 2.376,2.304 5.544,3.6 3.168,1.224 6.84001,1.224 4.752,0 7.91999,-2.088 3.168,-2.088 3.168,-6.048 0,-2.52 -1.44,-4.104 -1.44,-1.656 -3.59999,-2.592 -2.08801,-0.936 -5.68801,-2.016 -3.816,-1.224 -6.19199,-2.232 -2.30401,-1.08 -3.88801,-2.952 -1.584,-1.872 -1.584,-4.824 0,-4.392 3.312,-6.624 3.38401,-2.304 8.496,-2.304 5.328,0 9.93601,2.664 z" transform="translate(0 287.95303263702573) translate(426.8691482266368 83.27917080588645) scale(1.2063299846076936) translate(-449.61313 -82.776)"></path> 
   <path id="path53782" style="font-style: normal; font-weight: 200; font-size: 72px; line-height: 1; font-family: Montserrat; font-variant-ligatures: none; text-align: center; text-anchor: middle; fill: rgb(79, 92, 93);" d="m 502.586,117.336 q -3.6,2.664 -7.488,2.664 -3.816,0 -5.832,-2.592 -1.944,-2.592 -1.944,-7.632 v -24.84 h -5.472 v -1.44 h 5.472 V 74.64 h 1.44 v 8.856 h 13.104 v 1.44 h -13.104 v 24.84 q 0,4.32 1.584,6.552 1.656,2.232 4.752,2.232 3.6,0 6.624,-2.376 z" transform="translate(0 287.95303263702573) translate(469.37644107136015 73.46447005111824) scale(1.2063299846076936) translate(-481.85 -74.64)"></path> 
   <path id="path53784" style="font-style: normal; font-weight: 200; font-size: 72px; line-height: 1; font-family: Montserrat; font-variant-ligatures: none; text-align: center; text-anchor: middle; fill: rgb(79, 92, 93);" d="m 525.3785,82.776 q 5.112,0 9.216,2.376 4.176,2.376 6.48,6.624 2.376,4.248 2.376,9.576 0,5.328 -2.376,9.576 -2.304,4.248 -6.48,6.696 -4.104,2.376 -9.216,2.376 -5.112,0 -9.288,-2.376 -4.104,-2.448 -6.48,-6.696 -2.304,-4.248 -2.304,-9.576 0,-5.328 2.304,-9.576 2.376,-4.248 6.48,-6.624 4.176,-2.376 9.288,-2.376 z m 0,1.44 q -4.752,0 -8.568,2.232 -3.816,2.16 -5.976,6.048 -2.088,3.888 -2.088,8.856 0,4.968 2.088,8.928 2.16,3.888 5.976,6.12 3.816,2.16 8.568,2.16 4.752,0 8.568,-2.16 3.816,-2.232 5.904,-6.12 2.16,-3.96 2.16,-8.928 0,-4.968 -2.16,-8.856 -2.088,-3.888 -5.904,-6.048 -3.816,-2.232 -8.568,-2.232 z" transform="translate(0 287.95303263702573) translate(503.70437027834896 83.27917080588645) scale(1.2063299846076936) translate(-507.3065 -82.776)"></path> 
   <path id="path53786" style="font-style: normal; font-weight: 200; font-size: 72px; line-height: 1; font-family: Montserrat; font-variant-ligatures: none; text-align: center; text-anchor: middle; fill: rgb(79, 92, 93);" d="m 572.21225,82.776 q 6.912,0 10.728,3.888 3.888,3.888 3.888,10.8 V 120 h -1.44 V 97.464 q 0,-6.264 -3.528,-9.72 -3.456,-3.528 -9.648,-3.528 -6.912,0.144 -11.016,4.248 -4.104,4.104 -4.68,11.304 V 120 h -1.44 V 82.776 h 1.44 v 10.512 q 1.8,-4.968 5.832,-7.704 4.032,-2.736 9.864,-2.808 z" transform="translate(0 287.95303263702573) translate(564.9494420143853 83.27917080588645) scale(1.2063299846076936) translate(-555.07625 -82.776)"></path> 
   <path id="path53788" style="font-style: normal; font-weight: 200; font-size: 72px; line-height: 1; font-family: Montserrat; font-variant-ligatures: none; text-align: center; text-anchor: middle; fill: rgb(79, 92, 93);" d="m 615.2345,118.56 q 4.032,0 7.416,-1.368 3.456,-1.44 5.76,-4.032 l 1.008,1.008 q -2.592,2.808 -6.264,4.32 -3.672,1.512 -7.92,1.512 -5.112,0 -9.216,-2.376 -4.032,-2.448 -6.408,-6.696 -2.304,-4.248 -2.304,-9.576 0,-5.328 2.304,-9.576 2.376,-4.248 6.408,-6.624 4.104,-2.376 9.216,-2.376 5.112,0 9,2.376 3.96,2.376 6.12,6.624 2.16,4.248 2.16,9.576 h -33.768 q 0,4.968 2.088,8.928 2.16,3.888 5.904,6.12 3.744,2.16 8.496,2.16 z m 0,-34.344 q -4.536,0 -8.208,2.016 -3.6,1.944 -5.76,5.544 -2.16,3.528 -2.448,8.136 h 32.256 q -0.504,-7.056 -4.752,-11.376 -4.248,-4.32 -11.088,-4.32 z" transform="translate(0 287.95303263702573) translate(619.5120488006877 83.27917080588645) scale(1.2063299846076936) translate(-597.3065 -82.776)"></path> 
   <path id="path53790" style="font-style: normal; font-weight: 200; font-size: 72px; line-height: 1; font-family: Montserrat; font-variant-ligatures: none; text-align: center; text-anchor: middle; fill: rgb(48, 70, 41);" d="m 657.84725,82.776 q 5.112,0 9.216,2.376 4.176,2.376 6.48,6.624 2.376,4.248 2.376,9.576 0,5.328 -2.376,9.576 -2.304,4.248 -6.48,6.696 -4.104,2.376 -9.216,2.376 -5.112,0 -9.288,-2.376 -4.104,-2.448 -6.48,-6.696 -2.304,-4.248 -2.304,-9.576 0,-5.328 2.304,-9.576 2.376,-4.248 6.48,-6.624 4.176,-2.376 9.288,-2.376 z m 0,1.44 q -4.752,0 -8.568,2.232 -3.816,2.16 -5.976,6.048 -2.088,3.888 -2.088,8.856 0,4.968 2.088,8.928 2.16,3.888 5.976,6.12 3.816,2.16 8.568,2.16 4.752,0 8.568,-2.16 3.816,-2.232 5.904,-6.12 2.16,-3.96 2.16,-8.928 0,-4.968 -2.16,-8.856 -2.088,-3.888 -5.904,-6.048 -3.816,-2.232 -8.568,-2.232 z" transform="translate(0 287.95303263702573) translate(674.3623652883188 83.27917080588645) scale(1.2063299846076936) translate(-639.77525 -82.776)"></path> 
   <path id="path53792" style="font-style: normal; font-weight: 200; font-size: 72px; line-height: 1; font-family: Montserrat; font-variant-ligatures: none; text-align: center; text-anchor: middle; fill: rgb(48, 70, 41);" d="m 682.217,69.672 h 35.496 v 1.8 L 693.089,120 h -1.584 l 24.912,-48.888 h -32.76 v 8.064 h -1.44 z" transform="translate(0 287.95303263702573) translate(729.1801108663653 67.47142268758725) scale(1.2063299846076936) translate(-682.217 -69.672)"></path> 
  </g> 
  <g id="tagline" style="font-style:normal;font-weight:400;font-size:32px;line-height:1;font-family:Montserrat;font-variant-ligatures:none;text-align:center;text-anchor:middle"></g> 
 </g> 
</svg>