<svg xmlns:dc="http://purl.org/dc/elements/1.1/" xmlns:cc="http://creativecommons.org/ns#" xmlns:rdf="http://www.w3.org/1999/02/22-rdf-syntax-ns#" xmlns:svg="http://www.w3.org/2000/svg" xmlns="http://www.w3.org/2000/svg" id="svg2519" viewbox="0 0 1024 768" height="768px" width="1024px" version="1.1"> <metadata id="metadata2525"> 
  <rdf:rdf> 
   <cc:work rdf:about=""> 
    <dc:format>
     image/svg+xml
    </dc:format> 
    <dc:type rdf:resource="http://purl.org/dc/dcmitype/StillImage"></dc:type> 
   </cc:work> 
  </rdf:rdf> 
 </metadata> <defs id="defs2523"></defs> <g id="logo-group"> 
  <g id="title" style="font-style:normal;font-weight:700;font-size:72px;line-height:1;font-family:'Comfortaa Bold Alt2';font-variant-ligatures:none;text-align:center;text-anchor:middle" aria-label="REFRESHESO7"> 
   <path id="path2527" style="font-style: normal; font-weight: 700; font-size: 72px; line-height: 1; font-family: &quot;Comfortaa Bold Alt2&quot;; font-variant-ligatures: none; text-align: center; text-anchor: middle; fill: rgb(207, 171, 25);" d="m 277.33962,120.144 c 0.72,0 1.368,-0.216 2.016,-0.648 0.792,-0.576 1.296,-1.368 1.512,-2.376 0.144,-0.936 0,-1.872 -0.576,-2.664 L 268.41163,97.32 c 2.51999,-1.08 4.608,-2.664 6.40799,-4.752 2.80801,-3.24 4.17601,-7.056 4.17601,-11.304 0,-4.824 -1.72801,-8.928 -5.11201,-12.384 -3.456,-3.384 -7.56,-5.112 -12.384,-5.112 h -14.04 c -1.008,0 -1.8,0.36 -2.52,1.08 -0.72,0.72 -1.08,1.512 -1.08,2.52 v 49.104 c 0,1.008 0.36,1.872 1.08,2.52 0.72,0.72 1.512,1.08 2.52,1.08 1.008,0 1.872,-0.36 2.52,-1.08 0.72,-0.648 1.08,-1.512 1.08,-2.52 V 70.968 h 10.44 c 2.80801,0 5.256,1.008 7.272,3.024 2.016,2.016 3.024,4.392 3.024,7.272 0,2.52 -0.864,4.752 -2.448,6.624 -1.584,1.872 -3.59999,3.024 -5.976,3.456 l -1.296,0.144 c -1.368,0.144 -2.37599,0.864 -2.88,2.088 -0.648,1.224 -0.504,2.448 0.28801,3.528 l 14.904,21.456 c 0.64799,1.008 1.656,1.584 2.95199,1.584 z" transform="translate(0 308.7013622779431) translate(252 48.26308940665933) scale(0.9603420117717246) translate(-243.85962 -63.768)"></path> 
   <path id="path2529" style="font-style: normal; font-weight: 700; font-size: 72px; line-height: 1; font-family: &quot;Comfortaa Bold Alt2&quot;; font-variant-ligatures: none; text-align: center; text-anchor: middle; fill: rgb(207, 171, 25);" d="m 328.23012,114.024 c -0.71999,-0.576 -1.584,-0.936 -2.664,-0.936 h -28.8 v -18 h 20.664 c 1.00801,0 1.872,-0.288 2.59201,-0.936 0.71999,-0.648 1.07999,-1.512 1.07999,-2.52 0,-1.008 -0.36,-1.8 -1.07999,-2.448 -0.72001,-0.648 -1.584,-1.008 -2.59201,-1.008 h -20.664 V 70.68 h 28.8 c 1.08,0 1.94401,-0.288 2.664,-0.936 0.648,-0.576 1.00801,-1.44 1.00801,-2.448 0,-1.008 -0.36001,-1.872 -1.00801,-2.52 -0.71999,-0.648 -1.584,-1.008 -2.664,-1.008 h -32.54399 c -1.08001,0 -1.94401,0.36 -2.66401,1.08 -0.72,0.72 -1.08,1.584 -1.08,2.664 v 48.744 c 0,1.08 0.36,1.944 1.08,2.664 0.72,0.72 1.584,1.08 2.66401,1.08 h 32.54399 c 1.08,0 1.94401,-0.288 2.664,-0.936 0.648,-0.648 1.00801,-1.512 1.00801,-2.592 0,-1.008 -0.36001,-1.8 -1.00801,-2.448 z" transform="translate(0 308.7013622779431) translate(295.6172936616541 48.26308940665933) scale(0.9603420117717246) translate(-289.27812 -63.768)"></path> 
   <path id="path2531" style="font-style: normal; font-weight: 700; font-size: 72px; line-height: 1; font-family: &quot;Comfortaa Bold Alt2&quot;; font-variant-ligatures: none; text-align: center; text-anchor: middle; fill: rgb(207, 171, 25);" d="m 365.82988,89.184 c -0.72001,-0.648 -1.58401,-1.008 -2.59201,-1.008 h -20.664 V 70.68 h 28.8 c 1.08,0 1.94401,-0.288 2.664,-0.936 0.648,-0.576 1.00801,-1.44 1.00801,-2.448 0,-1.008 -0.36001,-1.872 -1.00801,-2.52 -0.71999,-0.648 -1.584,-1.008 -2.664,-1.008 h -32.54399 c -1.08001,0 -1.94401,0.36 -2.664,1.08 -0.72001,0.72 -1.08001,1.584 -1.08001,2.664 v 48.744 c 0,1.08 0.36,1.944 1.08001,2.664 0.71999,0.72 1.58399,1.08 2.664,1.08 1.00799,0 1.94399,-0.36 2.66399,-1.08 0.72001,-0.72 1.08,-1.584 1.08,-2.664 V 95.088 h 20.664 c 1.008,0 1.872,-0.288 2.59201,-0.936 0.71999,-0.648 1.07999,-1.512 1.07999,-2.52 0,-1.008 -0.36,-1.8 -1.07999,-2.448 z" transform="translate(0 308.7013622779431) translate(339.6084004513903 48.26308940665933) scale(0.9603420117717246) translate(-335.08587 -63.768)"></path> 
   <path id="path2533" style="font-style: normal; font-weight: 700; font-size: 72px; line-height: 1; font-family: &quot;Comfortaa Bold Alt2&quot;; font-variant-ligatures: none; text-align: center; text-anchor: middle; fill: rgb(207, 171, 25);" d="m 418.24587,120.144 c 0.72,0 1.368,-0.216 2.016,-0.648 0.792,-0.576 1.296,-1.368 1.512,-2.376 0.144,-0.936 0,-1.872 -0.576,-2.664 L 409.31788,97.32 c 2.51999,-1.08 4.608,-2.664 6.40799,-4.752 2.80801,-3.24 4.17601,-7.056 4.17601,-11.304 0,-4.824 -1.72801,-8.928 -5.11201,-12.384 -3.456,-3.384 -7.56,-5.112 -12.384,-5.112 h -14.03999 c -1.00801,0 -1.80001,0.36 -2.52001,1.08 -0.72,0.72 -1.08,1.512 -1.08,2.52 v 49.104 c 0,1.008 0.36,1.872 1.08,2.52 0.72,0.72 1.512,1.08 2.52001,1.08 1.00799,0 1.87199,-0.36 2.51999,-1.08 0.72001,-0.648 1.08,-1.512 1.08,-2.52 V 70.968 h 10.44 c 2.80801,0 5.256,1.008 7.272,3.024 2.016,2.016 3.024,4.392 3.024,7.272 0,2.52 -0.864,4.752 -2.448,6.624 -1.584,1.872 -3.59999,3.024 -5.976,3.456 l -1.296,0.144 c -1.368,0.144 -2.37599,0.864 -2.88,2.088 -0.648,1.224 -0.504,2.448 0.28801,3.528 l 14.904,21.456 c 0.64799,1.008 1.656,1.584 2.95199,1.584 z" transform="translate(0 308.7013622779431) translate(387.3181915962096 48.26308940665933) scale(0.9603420117717246) translate(-384.76587 -63.768)"></path> 
   <path id="path2535" style="font-style: normal; font-weight: 700; font-size: 72px; line-height: 1; font-family: &quot;Comfortaa Bold Alt2&quot;; font-variant-ligatures: none; text-align: center; text-anchor: middle; fill: rgb(207, 171, 25);" d="m 469.13637,114.024 c -0.71999,-0.576 -1.584,-0.936 -2.664,-0.936 h -28.8 v -18 h 20.664 c 1.00801,0 1.872,-0.288 2.59201,-0.936 0.71999,-0.648 1.07999,-1.512 1.07999,-2.52 0,-1.008 -0.36,-1.8 -1.07999,-2.448 -0.72001,-0.648 -1.584,-1.008 -2.59201,-1.008 h -20.664 V 70.68 h 28.8 c 1.08,0 1.94401,-0.288 2.664,-0.936 0.648,-0.576 1.00801,-1.44 1.00801,-2.448 0,-1.008 -0.36001,-1.872 -1.00801,-2.52 -0.71999,-0.648 -1.584,-1.008 -2.664,-1.008 h -32.54399 c -1.08001,0 -1.94401,0.36 -2.66401,1.08 -0.72,0.72 -1.08,1.584 -1.08,2.664 v 48.744 c 0,1.08 0.36,1.944 1.08,2.664 0.72,0.72 1.584,1.08 2.66401,1.08 h 32.54399 c 1.08,0 1.94401,-0.288 2.664,-0.936 0.648,-0.648 1.00801,-1.512 1.00801,-2.592 0,-1.008 -0.36001,-1.8 -1.00801,-2.448 z" transform="translate(0 308.7013622779431) translate(430.9354852578637 48.26308940665933) scale(0.9603420117717246) translate(-430.18437 -63.768)"></path> 
   <path id="path2537" style="font-style: normal; font-weight: 700; font-size: 72px; line-height: 1; font-family: &quot;Comfortaa Bold Alt2&quot;; font-variant-ligatures: none; text-align: center; text-anchor: middle; fill: rgb(207, 171, 25);" d="m 509.83213,65.64 c -2.88,-1.656 -6.33601,-2.52 -10.44,-2.52 -3.81601,0 -7.272,0.648 -10.296,1.8 -3.024,1.152 -5.47201,2.88 -7.20001,5.112 -1.728,2.232 -2.592,4.896 -2.592,7.92 0,4.392 1.656,8.064 5.11201,10.944 3.38399,2.88 8.06399,4.608 14.03999,5.184 4.32,0.432 7.488,1.656 9.648,3.6 2.08801,1.944 3.16801,4.248 3.16801,6.984 0,2.88 -1.296,5.184 -3.74401,6.84 -2.52,1.656 -5.544,2.448 -9.144,2.448 -3.096,0 -5.904,-0.648 -8.424,-1.944 -2.59199,-1.296 -4.24799,-2.88 -5.112,-4.752 -0.35999,-0.72 -0.864,-1.368 -1.584,-1.8 -0.72,-0.432 -1.44,-0.72 -2.16,-0.72 -0.36,0 -0.576,0.072 -0.72,0.072 -0.936,0.216 -1.656,0.576 -2.15999,1.152 -0.57601,0.576 -0.79201,1.152 -0.79201,1.872 0,0.432 0.072,0.864 0.36,1.44 1.44,3.456 4.032,6.192 7.848,8.28 3.816,2.16 8.064,3.168 12.744,3.168 3.528,0 6.84001,-0.576 9.93601,-1.8 3.096,-1.224 5.61599,-3.096 7.488,-5.544 1.87199,-2.448 2.80799,-5.472 2.80799,-8.928 0,-4.752 -1.584,-8.568 -4.75199,-11.448 -3.16801,-2.88 -7.63201,-4.68 -13.39201,-5.256 -5.184,-0.504 -8.78399,-1.584 -10.8,-3.312 -2.016,-1.656 -3.024,-3.744 -3.024,-6.264 0,-2.664 1.08,-4.68 3.384,-6.12 2.232,-1.44 5.184,-2.16 8.856,-2.16 2.952,0 5.4,0.576 7.344,1.728 1.94401,1.152 3.60001,2.736 4.896,4.896 0.28801,0.648 0.792,1.152 1.44,1.512 0.57601,0.36 1.29601,0.504 2.016,0.504 0.72,0 1.29601,-0.144 1.87201,-0.504 0.93599,-0.648 1.43999,-1.512 1.43999,-2.592 0,-0.792 -0.288,-1.656 -0.864,-2.592 -2.016,-3.096 -4.392,-5.472 -7.19999,-7.2 z" transform="translate(0 308.7013622779431) translate(476.3094845445512 47.64078778303126) scale(0.9603420117717246) translate(-477.43212 -63.12)"></path> 
   <path id="path2539" style="font-style: normal; font-weight: 700; font-size: 72px; line-height: 1; font-family: &quot;Comfortaa Bold Alt2&quot;; font-variant-ligatures: none; text-align: center; text-anchor: middle; fill: rgb(207, 171, 25);" d="m 572.00413,64.848 c -0.72,0.72 -1.08001,1.584 -1.08001,2.664 v 20.664 h -33.408 V 67.512 c 0,-1.08 -0.36,-1.944 -1.08,-2.664 -0.71999,-0.72 -1.584,-1.08 -2.664,-1.08 -1.07999,0 -1.944,0.36 -2.664,1.08 -0.72,0.72 -1.07999,1.584 -1.07999,2.664 v 48.744 c 0,1.08 0.35999,1.944 1.07999,2.664 0.72,0.72 1.58401,1.08 2.664,1.08 1.08,0 1.94401,-0.36 2.664,-1.08 0.72,-0.72 1.08,-1.584 1.08,-2.664 V 94.8 h 33.408 v 21.456 c 0,1.08 0.36001,1.944 1.08001,2.664 0.71999,0.72 1.58399,1.08 2.664,1.08 1.00799,0 1.87199,-0.288 2.592,-1.008 0.72,-0.72 1.07999,-1.584 1.07999,-2.736 V 67.512 c 0,-1.08 -0.35999,-1.944 -1.07999,-2.664 -0.72001,-0.72 -1.58401,-1.08 -2.592,-1.08 -1.08001,0 -1.94401,0.36 -2.664,1.08 z" transform="translate(0 308.7013622779431) translate(526.819642599117 48.26308940665933) scale(0.9603420117717246) translate(-530.02813 -63.768)"></path> 
   <path id="path2541" style="font-style: normal; font-weight: 700; font-size: 72px; line-height: 1; font-family: &quot;Comfortaa Bold Alt2&quot;; font-variant-ligatures: none; text-align: center; text-anchor: middle; fill: rgb(207, 171, 25);" d="m 631.69888,114.024 c -0.72,-0.576 -1.58401,-0.936 -2.664,-0.936 h -28.80001 v -18 h 20.664 c 1.00801,0 1.87201,-0.288 2.592,-0.936 0.72,-0.648 1.08,-1.512 1.08,-2.52 0,-1.008 -0.36,-1.8 -1.08,-2.448 -0.71999,-0.648 -1.58399,-1.008 -2.592,-1.008 h -20.664 V 70.68 h 28.80001 c 1.07999,0 1.944,-0.288 2.664,-0.936 0.64799,-0.576 1.00799,-1.44 1.00799,-2.448 0,-1.008 -0.36,-1.872 -1.00799,-2.52 -0.72,-0.648 -1.58401,-1.008 -2.664,-1.008 h -32.54401 c -1.07999,0 -1.944,0.36 -2.664,1.08 -0.72,0.72 -1.07999,1.584 -1.07999,2.664 v 48.744 c 0,1.08 0.35999,1.944 1.07999,2.664 0.72,0.72 1.58401,1.08 2.664,1.08 h 32.54401 c 1.07999,0 1.944,-0.288 2.664,-0.936 0.64799,-0.648 1.00799,-1.512 1.00799,-2.592 0,-1.008 -0.36,-1.8 -1.00799,-2.448 z" transform="translate(0 308.7013622779431) translate(587.0510931499248 48.26308940665933) scale(0.9603420117717246) translate(-592.74688 -63.768)"></path> 
   <path id="path2543" style="font-style: normal; font-weight: 700; font-size: 72px; line-height: 1; font-family: &quot;Comfortaa Bold Alt2&quot;; font-variant-ligatures: none; text-align: center; text-anchor: middle; fill: rgb(207, 171, 25);" d="m 672.39463,65.64 c -2.88,-1.656 -6.33601,-2.52 -10.44001,-2.52 -3.81599,0 -7.27199,0.648 -10.29599,1.8 -3.024,1.152 -5.472,2.88 -7.20001,5.112 -1.72799,2.232 -2.592,4.896 -2.592,7.92 0,4.392 1.656,8.064 5.112,10.944 3.384,2.88 8.06401,4.608 14.04001,5.184 4.31999,0.432 7.48799,1.656 9.64799,3.6 2.08801,1.944 3.168,4.248 3.168,6.984 0,2.88 -1.29599,5.184 -3.74399,6.84 -2.52001,1.656 -5.54401,2.448 -9.144,2.448 -3.096,0 -5.904,-0.648 -8.42401,-1.944 -2.592,-1.296 -4.24799,-2.88 -5.112,-4.752 -0.36,-0.72 -0.864,-1.368 -1.58399,-1.8 -0.72001,-0.432 -1.44001,-0.72 -2.16001,-0.72 -0.35999,0 -0.57599,0.072 -0.71999,0.072 -0.93601,0.216 -1.65601,0.576 -2.16001,1.152 -0.57599,0.576 -0.79199,1.152 -0.79199,1.872 0,0.432 0.072,0.864 0.36,1.44 1.43999,3.456 4.03199,6.192 7.84799,8.28 3.81601,2.16 8.064,3.168 12.74401,3.168 3.528,0 6.83999,-0.576 9.93599,-1.8 3.096,-1.224 5.616,-3.096 7.48801,-5.544 1.87199,-2.448 2.80799,-5.472 2.80799,-8.928 0,-4.752 -1.584,-8.568 -4.75199,-11.448 -3.168,-2.88 -7.63201,-4.68 -13.39201,-5.256 -5.18399,-0.504 -8.78399,-1.584 -10.79999,-3.312 -2.01601,-1.656 -3.024,-3.744 -3.024,-6.264 0,-2.664 1.07999,-4.68 3.38399,-6.12 2.23201,-1.44 5.18401,-2.16 8.856,-2.16 2.952,0 5.40001,0.576 7.344,1.728 1.944,1.152 3.60001,2.736 4.896,4.896 0.288,0.648 0.792,1.152 1.44,1.512 0.57601,0.36 1.29601,0.504 2.016,0.504 0.72,0 1.29601,-0.144 1.87201,-0.504 0.93599,-0.648 1.43999,-1.512 1.43999,-2.592 0,-0.792 -0.288,-1.656 -0.864,-2.592 -2.016,-3.096 -4.392,-5.472 -7.19999,-7.2 z" transform="translate(0 308.7013622779431) translate(632.4250924366124 47.64078778303126) scale(0.9603420117717246) translate(-639.99463 -63.12)"></path> 
   <path id="path2545" style="font-style: normal; font-weight: 700; font-size: 72px; line-height: 1; font-family: &quot;Comfortaa Bold Alt2&quot;; font-variant-ligatures: none; text-align: center; text-anchor: middle; fill: rgb(66, 36, 0);" d="m 718.58262,120.864 c 3.88801,0 7.632,-0.792 11.232,-2.304 3.456,-1.44 6.552,-3.528 9.216,-6.192 2.664,-2.664 4.75201,-5.688 6.192,-9.216 1.51201,-3.528 2.304,-7.272 2.304,-11.232 0,-3.96 -0.79199,-7.704 -2.304,-11.304 -1.43999,-3.456 -3.528,-6.48 -6.192,-9.144 -2.664,-2.664 -5.76,-4.752 -9.216,-6.192 -3.6,-1.512 -7.34399,-2.304 -11.232,-2.304 -3.96,0 -7.70399,0.792 -11.30399,2.304 -3.456,1.44 -6.552,3.528 -9.216,6.192 -2.664,2.664 -4.75201,5.688 -6.192,9.144 -1.51201,3.6 -2.232,7.344 -2.232,11.304 0,3.96 0.71999,7.704 2.232,11.232 1.43999,3.528 3.528,6.552 6.192,9.216 2.664,2.664 5.76,4.752 9.216,6.192 3.6,1.512 7.34399,2.304 11.30399,2.304 z m 0,-50.688 c 5.976,0 11.088,2.088 15.33601,6.336 4.24799,4.248 6.408,9.432 6.408,15.408 0,5.976 -2.16001,11.088 -6.408,15.336 -4.24801,4.248 -9.36001,6.408 -15.33601,6.408 -6.048,0 -11.15999,-2.16 -15.408,-6.408 -4.248,-4.176 -6.336,-9.36 -6.336,-15.336 0,-5.976 2.088,-11.16 6.336,-15.408 4.24801,-4.248 9.36,-6.336 15.408,-6.336 z" transform="translate(0 308.7013622779431) translate(680.100311269008 47.50249853333614) scale(0.9603420117717246) translate(-689.63863 -62.976)"></path> 
   <path id="path2547" style="font-style: normal; font-weight: 700; font-size: 72px; line-height: 1; font-family: &quot;Comfortaa Bold Alt2&quot;; font-variant-ligatures: none; text-align: center; text-anchor: middle; fill: rgb(66, 36, 0);" d="m 751.56538,70.104 c 0.72,0.72 1.58399,1.008 2.66399,1.008 h 21.88801 l -20.664,42.912 c -0.432,0.864 -0.648,1.656 -0.648,2.304 0,1.008 0.36,1.872 1.07999,2.592 0.72,0.72 1.512,1.08 2.52001,1.08 0.64799,0 1.29599,-0.144 1.94399,-0.504 0.57601,-0.36 1.08001,-0.864 1.44,-1.512 l 23.04001,-48.6 c 0.288,-0.72 0.504,-1.368 0.504,-1.944 0,-1.008 -0.36,-1.872 -1.08001,-2.592 -0.72,-0.72 -1.584,-1.08 -2.59199,-1.08 h -27.43201 c -1.08,0 -1.94399,0.36 -2.66399,1.08 -0.72001,0.72 -1.00801,1.584 -1.00801,2.592 0,1.08 0.288,1.944 1.00801,2.664 z" transform="translate(0 308.7013622779431) translate(738.6031365952065 48.26308940665933) scale(0.9603420117717246) translate(-750.55737 -63.768)"></path> 
  </g> 
  <g id="tagline" style="font-style:normal;font-weight:500;font-size:32px;line-height:1;font-family:Raleway;font-variant-ligatures:none;text-align:center;text-anchor:middle"></g> 
 </g> 
</svg>