<svg xmlns:dc="http://purl.org/dc/elements/1.1/" xmlns:cc="http://creativecommons.org/ns#" xmlns:rdf="http://www.w3.org/1999/02/22-rdf-syntax-ns#" xmlns:svg="http://www.w3.org/2000/svg" xmlns="http://www.w3.org/2000/svg" id="svg401975" viewbox="0 0 1024 768" height="768px" width="1024px" version="1.1"> <metadata id="metadata401981"> 
  <rdf:rdf> 
   <cc:work rdf:about=""> 
    <dc:format>
     image/svg+xml
    </dc:format> 
    <dc:type rdf:resource="http://purl.org/dc/dcmitype/StillImage"></dc:type> 
   </cc:work> 
  </rdf:rdf> 
 </metadata> <defs id="defs401979"></defs> <g id="logo-group"> 
  <g id="title" style="font-style:oblique;font-weight:700;font-size:72px;line-height:1;font-family:Averta;font-variant-ligatures:none;text-align:center;text-anchor:middle" aria-label="Rejuvenateo7"> 
   <path id="path401983" style="font-style: oblique; font-weight: 700; font-size: 72px; line-height: 1; font-family: Averta; font-variant-ligatures: none; text-align: center; text-anchor: middle; fill: rgb(169, 214, 33);" d="m 316.39062,68.88 -6.264,51.12 h 11.30401 l 2.01599,-16.704 h 4.392 L 334.82263,120 h 12.456 l -8.56801,-18.792 c 6.76801,-3.24 10.368,-9.72 10.368,-18.216 0,-8.208 -4.248,-14.112 -14.472,-14.112 z m 12.816,24.264 h -4.464 l 1.728,-14.112 h 5.25601 c 2.87999,0 5.39999,1.584 5.39999,5.256 0,5.112 -3.096,8.856 -7.92,8.856 z" transform="translate(0 272.72153321575536) translate(251.99999999999994 70.00862551440333) scale(1.273760533019793) translate(-310.12662 -68.88)"></path> 
   <path id="path401985" style="font-style: oblique; font-weight: 700; font-size: 72px; line-height: 1; font-family: Averta; font-variant-ligatures: none; text-align: center; text-anchor: middle; fill: rgb(169, 214, 33);" d="m 383.47663,93.864 c 0.072,-6.624 -6.33601,-9.72 -12.02401,-9.72 -11.87999,0 -19.29599,9.792 -19.29599,21.744 -0.072,9.144 5.832,14.76 14.68799,14.76 6.912,0 11.592,-2.592 15.33601,-7.704 l -8.06401,-4.752 c -1.944,2.592 -4.03199,3.528 -6.408,3.528 -2.08799,0 -4.392,-1.296 -5.03999,-4.464 10.368,-1.08 20.66399,-4.464 20.808,-13.392 z m -10.368,1.512 c -0.072,3.456 -4.82401,4.824 -10.08001,5.4 1.22401,-4.896 4.392,-7.632 7.488,-7.632 1.656,0 2.66401,0.792 2.59201,2.232 z" transform="translate(0 272.72153321575536) translate(305.5353399960807 89.45130629041746) scale(1.273760533019793) translate(-352.15598 -84.144)"></path> 
   <path id="path401987" style="font-style: oblique; font-weight: 700; font-size: 72px; line-height: 1; font-family: Averta; font-variant-ligatures: none; text-align: center; text-anchor: middle; fill: rgb(169, 214, 33);" d="m 396.69312,80.256 c 3.96,0 6.696,-2.736 6.696,-6.408 0,-3.528 -2.592,-6.12 -6.47999,-6.12 -3.96001,0 -6.69601,2.664 -6.69601,6.336 0,3.528 2.664,6.192 6.48,6.192 z m -12.456,54.576 c 6.336,0 10.872,-3.6 12.024,-13.608 l 4.536,-36.432 h -10.872 l -4.32,34.92 c -0.50399,4.32 -1.224,6.048 -3.384,6.048 -0.864,0 -1.87199,-0.144 -2.736,-0.864 l -2.664,8.28 c 2.08801,1.08 4.176,1.656 7.416,1.656 z" transform="translate(0 272.72153321575536) translate(336.9528218694885 68.54125338036455) scale(1.273760533019793) translate(-376.82112 -67.728)"></path> 
   <path id="path401989" style="font-style: oblique; font-weight: 700; font-size: 72px; line-height: 1; font-family: Averta; font-variant-ligatures: none; text-align: center; text-anchor: middle; fill: rgb(169, 214, 33);" d="m 414.61775,120.648 c 4.392,0 7.848,-2.304 10.44,-5.832 h 0.144 l -0.432,5.184 h 10.584 l 4.32,-35.208 h -10.8 l -1.944,16.128 c -0.648,5.184 -4.896,10.08 -7.92,10.08 -2.52,0 -3.096,-1.872 -2.304,-7.56 l 2.664,-18.648 h -10.728 l -3.024,21.888 c -1.512,10.44 2.448,13.968 9,13.968 z" transform="translate(0 272.72153321575536) translate(373.2234714873604 90.2767031158143) scale(1.273760533019793) translate(-405.29637 -84.792)"></path> 
   <path id="path401991" style="font-style: oblique; font-weight: 700; font-size: 72px; line-height: 1; font-family: Averta; font-variant-ligatures: none; text-align: center; text-anchor: middle; fill: rgb(169, 214, 33);" d="m 455.15825,120.648 c 9.504,0 18.648,-5.4 20.952,-21.384 0.72,-4.896 0.72,-9.936 -0.072,-14.472 h -10.8 c 0.648,4.608 0.72,8.136 0.072,12.312 -1.512,10.872 -5.832,13.896 -8.28,13.896 -2.376,0 -2.592,-2.88 -1.944,-7.992 l 2.232,-18.216 h -10.656 l -2.592,20.448 c -1.08,9.144 1.944,15.408 11.088,15.408 z" transform="translate(0 272.72153321575536) translate(422.3461865569273 90.2767031158143) scale(1.273760533019793) translate(-443.86148 -84.792)"></path> 
   <path id="path401993" style="font-style: oblique; font-weight: 700; font-size: 72px; line-height: 1; font-family: Averta; font-variant-ligatures: none; text-align: center; text-anchor: middle; fill: rgb(169, 214, 33);" d="m 511.0235,93.864 c 0.072,-6.624 -6.336,-9.72 -12.024,-9.72 -11.88,0 -19.296,9.792 -19.296,21.744 -0.072,9.144 5.832,14.76 14.688,14.76 6.912,0 11.592,-2.592 15.336,-7.704 l -8.064,-4.752 c -1.944,2.592 -4.032,3.528 -6.408,3.528 -2.088,0 -4.392,-1.296 -5.04,-4.464 10.368,-1.08 20.664,-4.464 20.808,-13.392 z m -10.368,1.512 c -0.072,3.456 -4.824,4.824 -10.08,5.4 1.224,-4.896 4.392,-7.632 7.488,-7.632 1.656,0 2.664,0.792 2.592,2.232 z" transform="translate(0 272.72153321575536) translate(467.99950911228694 89.45130629041746) scale(1.273760533019793) translate(-479.70285 -84.144)"></path> 
   <path id="path401995" style="font-style: oblique; font-weight: 700; font-size: 72px; line-height: 1; font-family: Averta; font-variant-ligatures: none; text-align: center; text-anchor: middle; fill: rgb(169, 214, 33);" d="M 518.192,84.792 513.8,120 h 10.8 l 1.584,-13.032 c 1.152,-8.784 5.76,-13.176 9,-13.176 2.304,0 2.736,2.232 2.088,7.128 l -2.52,19.08 h 10.728 l 2.808,-21.528 c 1.296,-9.864 -1.44,-14.328 -8.136,-14.328 -4.608,0 -8.496,1.944 -11.664,5.616 l -0.144,-0.072 0.576,-4.896 z" transform="translate(0 272.72153321575536) translate(511.4311130707427 89.45130629041746) scale(1.273760533019793) translate(-513.8 -84.144)"></path> 
   <path id="path401997" style="font-style: oblique; font-weight: 700; font-size: 72px; line-height: 1; font-family: Averta; font-variant-ligatures: none; text-align: center; text-anchor: middle; fill: rgb(169, 214, 33);" d="m 564.767,120.648 c 3.96,0 7.488,-2.16 10.08,-5.904 l 0.216,0.072 -0.648,5.184 h 10.872 l 4.32,-35.208 h -10.872 l -0.288,2.448 h -0.216 c -1.872,-1.944 -4.608,-3.096 -8.28,-3.096 -9.216,0 -16.632,9.576 -16.632,22.104 0,8.136 3.888,14.4 11.448,14.4 z m 3.456,-9.576 c -2.448,0 -4.032,-2.232 -4.032,-5.616 0,-5.256 2.88,-11.664 7.632,-11.664 2.232,0 4.248,0.864 5.832,2.52 l -0.144,1.008 c -1.224,8.856 -5.544,13.752 -9.288,13.752 z" transform="translate(0 272.72153321575536) translate(561.7688555751519 89.45130629041746) scale(1.273760533019793) translate(-553.319 -84.144)"></path> 
   <path id="path401999" style="font-style: oblique; font-weight: 700; font-size: 72px; line-height: 1; font-family: Averta; font-variant-ligatures: none; text-align: center; text-anchor: middle; fill: rgb(169, 214, 33);" d="m 603.41187,120.648 c 3.24001,0 6.40801,-0.792 9.43201,-2.448 l -1.72801,-8.424 c -1.36799,0.72 -2.592,1.152 -3.52799,1.152 -1.15201,0 -1.87201,-0.936 -1.58401,-2.952 l 1.728,-14.472 h 7.272 l 1.08001,-8.712 h -7.27201 l 1.51201,-12.456 -11.01601,2.16 -1.36799,10.296 h -3.45601 l -1.08,8.712 h 3.456 l -1.87199,15.912 c -1.00801,8.136 2.952,11.232 8.42399,11.232 z" transform="translate(0 272.72153321575536) translate(612.8273809523811 74.41074191651974) scale(1.273760533019793) translate(-593.40387 -72.336)"></path> 
   <path id="path402001" style="font-style: oblique; font-weight: 700; font-size: 72px; line-height: 1; font-family: Averta; font-variant-ligatures: none; text-align: center; text-anchor: middle; fill: rgb(169, 214, 33);" d="m 647.28913,93.864 c 0.072,-6.624 -6.33601,-9.72 -12.02401,-9.72 -11.87999,0 -19.296,9.792 -19.296,21.744 -0.072,9.144 5.832,14.76 14.688,14.76 6.912,0 11.59201,-2.592 15.336,-7.704 l -8.064,-4.752 c -1.94399,2.592 -4.032,3.528 -6.408,3.528 -2.08799,0 -4.39199,-1.296 -5.03999,-4.464 10.36799,-1.08 20.66399,-4.464 20.808,-13.392 z m -10.36801,1.512 c -0.072,3.456 -4.824,4.824 -10.07999,5.4 1.22399,-4.896 4.39199,-7.632 7.48799,-7.632 1.65601,0 2.664,0.792 2.592,2.232 z" transform="translate(0 272.72153321575536) translate(641.5692778757594 89.45130629041746) scale(1.273760533019793) translate(-615.96847 -84.144)"></path> 
   <path id="path402003" style="font-style: oblique; font-weight: 700; font-size: 72px; line-height: 1; font-family: Averta; font-variant-ligatures: none; text-align: center; text-anchor: middle; fill: rgb(152, 212, 131);" d="m 665.18562,120.648 c 13.46401,0 19.58401,-10.008 19.58401,-21.456 0,-9.576 -5.976,-15.048 -15.048,-15.048 -12.38401,0 -19.44001,10.08 -19.44001,21.384 0,9.648 5.976,15.12 14.904,15.12 z m 0.792,-9.648 c -2.30399,0 -4.75199,-1.872 -4.75199,-6.048 0,-5.4 2.88,-11.16 7.63199,-11.16 1.94401,0 4.968,1.08 4.968,6.12 0,5.76 -3.096,11.088 -7.848,11.088 z" transform="translate(0 272.72153321575536) translate(685.2760141093474 89.45130629041746) scale(1.273760533019793) translate(-650.28162 -84.144)"></path> 
   <path id="path402005" style="font-style: oblique; font-weight: 700; font-size: 72px; line-height: 1; font-family: Averta; font-variant-ligatures: none; text-align: center; text-anchor: middle; fill: rgb(152, 212, 131);" d="m 718.36662,70.536 h -27.864 l -1.22399,10.08 h 15.48 l -17.56801,38.52 11.08801,2.016 19.22399,-43.344 z" transform="translate(0 272.72153321575536) translate(732.2892416225749 72.11797295708412) scale(1.273760533019793) translate(-687.19062 -70.536)"></path> 
  </g> 
  <g id="tagline" style="font-style:normal;font-weight:500;font-size:32px;line-height:1;font-family:Raleway;font-variant-ligatures:none;text-align:center;text-anchor:middle"></g> 
 </g> 
</svg>