<svg xmlns:dc="http://purl.org/dc/elements/1.1/" xmlns:cc="http://creativecommons.org/ns#" xmlns:rdf="http://www.w3.org/1999/02/22-rdf-syntax-ns#" xmlns:svg="http://www.w3.org/2000/svg" xmlns="http://www.w3.org/2000/svg" id="svg119377" viewbox="0 0 1024 768" height="768px" width="1024px" version="1.1"> <metadata id="metadata119383"> 
  <rdf:rdf> 
   <cc:work rdf:about=""> 
    <dc:format>
     image/svg+xml
    </dc:format> 
    <dc:type rdf:resource="http://purl.org/dc/dcmitype/StillImage"></dc:type> 
   </cc:work> 
  </rdf:rdf> 
 </metadata> <defs id="defs119381"></defs> <g id="logo-group"> 
  <g id="title" style="font-style:oblique;font-weight:700;font-size:72px;line-height:1;font-family:Averta;font-variant-ligatures:none;text-align:center;text-anchor:middle" aria-label="Risingsuno7"> 
   <path id="path119385" style="font-style: oblique; font-weight: 700; font-size: 72px; line-height: 1; font-family: Averta; font-variant-ligatures: none; text-align: center; text-anchor: middle; fill: rgb(215, 215, 217);" d="m 337.0625,68.88 -6.264,51.12 h 11.304 l 2.016,-16.704 h 4.392 l 6.984,16.704 h 12.456 l -8.568,-18.792 c 6.768,-3.24 10.368,-9.72 10.368,-18.216 0,-8.208 -4.248,-14.112 -14.472,-14.112 z m 12.816,24.264 h -4.464 l 1.728,-14.112 h 5.256 c 2.88,0 5.4,1.584 5.4,5.256 0,5.112 -3.096,8.856 -7.92,8.856 z" transform="translate(0 258.13340070932867) translate(252.00000000000017 79.89523817700503) scale(1.417294398620863) translate(-330.7985 -68.88)"></path> 
   <path id="path119387" style="font-style: oblique; font-weight: 700; font-size: 72px; line-height: 1; font-family: Averta; font-variant-ligatures: none; text-align: center; text-anchor: middle; fill: rgb(215, 215, 217);" d="m 384.76025,80.256 c 3.96,0 6.696,-2.736 6.696,-6.408 0,-3.528 -2.592,-6.12 -6.48,-6.12 -3.96,0 -6.696,2.664 -6.696,6.336 0,3.528 2.664,6.192 6.48,6.192 z m -6.696,4.536 -4.32,35.208 h 10.8 l 4.32,-35.208 z" transform="translate(0 258.13340070932867) translate(312.86677091957216 78.26251502979382) scale(1.417294398620863) translate(-373.74425 -67.728)"></path> 
   <path id="path119389" style="font-style: oblique; font-weight: 700; font-size: 72px; line-height: 1; font-family: Averta; font-variant-ligatures: none; text-align: center; text-anchor: middle; fill: rgb(215, 215, 217);" d="m 404.45787,120.648 c 8.568,0 13.96801,-4.536 13.96801,-11.448 0,-5.544 -3.74401,-8.064 -9.21601,-10.8 -3.24,-1.584 -4.968,-2.736 -4.968,-3.888 0,-1.368 1.368,-2.16 2.808,-2.16 1.656,0.072 4.10401,0.936 6.048,3.6 l 6.552,-6.192 c -3.168,-3.816 -7.92,-5.616 -12.672,-5.616 -7.272,0 -13.032,4.68 -13.032,11.736 0,5.184 3.24,8.064 8.568,10.728 4.03201,2.088 5.47201,2.664 5.47201,3.96 0,1.224 -1.368,1.944 -3.24001,1.944 -2.73599,0 -5.90399,-1.656 -7.992,-4.176 l -6.048,6.264 c 3.096,3.888 8.712,6.048 13.752,6.048 z" transform="translate(0 258.13340070932867) translate(336.9063799371077 101.52881987755391) scale(1.417294398620863) translate(-390.70587 -84.144)"></path> 
   <path id="path119391" style="font-style: oblique; font-weight: 700; font-size: 72px; line-height: 1; font-family: Averta; font-variant-ligatures: none; text-align: center; text-anchor: middle; fill: rgb(215, 215, 217);" d="m 434.26025,80.256 c 3.96,0 6.696,-2.736 6.696,-6.408 0,-3.528 -2.592,-6.12 -6.48,-6.12 -3.96,0 -6.696,2.664 -6.696,6.336 0,3.528 2.664,6.192 6.48,6.192 z m -6.696,4.536 -4.32,35.208 h 10.8 l 4.32,-35.208 z" transform="translate(0 258.13340070932867) translate(383.02284365130487 78.26251502979382) scale(1.417294398620863) translate(-423.24425 -67.728)"></path> 
   <path id="path119393" style="font-style: oblique; font-weight: 700; font-size: 72px; line-height: 1; font-family: Averta; font-variant-ligatures: none; text-align: center; text-anchor: middle; fill: rgb(215, 215, 217);" d="m 446.61387,84.792 -4.392,35.208 h 10.80001 l 1.584,-13.032 c 1.152,-8.784 5.76,-13.176 9,-13.176 2.30399,0 2.736,2.232 2.08799,7.128 l -2.52,19.08 h 10.72801 l 2.80799,-21.528 c 1.296,-9.864 -1.43999,-14.328 -8.136,-14.328 -4.608,0 -8.496,1.944 -11.664,5.616 l -0.144,-0.072 0.57601,-4.896 z" transform="translate(0 258.13340070932867) translate(409.91971817646015 101.52881987755391) scale(1.417294398620863) translate(-442.22187 -84.144)"></path> 
   <path id="path119395" style="font-style: oblique; font-weight: 700; font-size: 72px; line-height: 1; font-family: Averta; font-variant-ligatures: none; text-align: center; text-anchor: middle; fill: rgb(215, 215, 217);" d="m 517.81287,84.792 h -10.8 l -0.216,2.232 -0.216,0.072 c -1.872,-1.944 -4.608,-2.952 -8.20799,-2.952 -9.216,0 -16.56,9.576 -16.56,21.744 0,7.344 3.81599,13.68 11.44799,13.68 3.888,0 7.416,-2.232 10.008,-5.904 l 0.216,0.072 c -1.296,10.224 -4.89599,12.024 -10.296,12.024 -3.096,0 -6.048,-0.936 -9,-2.736 l -3.384,8.424 c 4.10401,2.52 8.35201,3.456 12.816,3.456 9.504,0 18.504,-3.744 20.44801,-19.44 z m -11.87999,11.376 -0.144,1.152 c -1.224,7.776 -5.40001,12.672 -9.144,12.672 -2.44801,0 -3.96001,-1.8 -3.96001,-5.184 0,-4.608 2.80801,-11.016 7.56,-11.016 2.232,0 4.10401,0.792 5.68801,2.376 z" transform="translate(0 258.13340070932867) translate(464.60318795844887 101.52881987755391) scale(1.417294398620863) translate(-480.80487 -84.144)"></path> 
   <path id="path119397" style="font-style: oblique; font-weight: 700; font-size: 72px; line-height: 1; font-family: Averta; font-variant-ligatures: none; text-align: center; text-anchor: middle; fill: rgb(215, 215, 217);" d="m 532.98912,120.648 c 8.56801,0 13.96801,-4.536 13.96801,-11.448 0,-5.544 -3.74401,-8.064 -9.21601,-10.8 -3.24,-1.584 -4.96799,-2.736 -4.96799,-3.888 0,-1.368 1.36799,-2.16 2.808,-2.16 1.65599,0.072 4.10399,0.936 6.048,3.6 l 6.55199,-6.192 c -3.168,-3.816 -7.92,-5.616 -12.67199,-5.616 -7.27201,0 -13.03201,4.68 -13.03201,11.736 0,5.184 3.24,8.064 8.568,10.728 4.03201,2.088 5.472,2.664 5.472,3.96 0,1.224 -1.36799,1.944 -3.24,1.944 -2.736,0 -5.904,-1.656 -7.992,-4.176 l -6.048,6.264 c 3.096,3.888 8.712,6.048 13.752,6.048 z" transform="translate(0 258.13340070932867) translate(519.0730006098456 101.52881987755391) scale(1.417294398620863) translate(-519.23712 -84.144)"></path> 
   <path id="path119399" style="font-style: oblique; font-weight: 700; font-size: 72px; line-height: 1; font-family: Averta; font-variant-ligatures: none; text-align: center; text-anchor: middle; fill: rgb(215, 215, 217);" d="m 561.43025,120.648 c 4.392,0 7.848,-2.304 10.44,-5.832 h 0.144 l -0.432,5.184 h 10.584 l 4.32,-35.208 h -10.8 l -1.944,16.128 c -0.648,5.184 -4.896,10.08 -7.92,10.08 -2.52,0 -3.096,-1.872 -2.304,-7.56 l 2.664,-18.648 h -10.728 l -3.024,21.888 c -1.512,10.44 2.448,13.968 9,13.968 z" transform="translate(0 258.13340070932867) translate(565.661947757711 102.44722664786023) scale(1.417294398620863) translate(-552.10887 -84.792)"></path> 
   <path id="path119401" style="font-style: oblique; font-weight: 700; font-size: 72px; line-height: 1; font-family: Averta; font-variant-ligatures: none; text-align: center; text-anchor: middle; fill: rgb(215, 215, 217);" d="m 594.41075,84.792 -4.392,35.208 h 10.8 l 1.584,-13.032 c 1.152,-8.784 5.76,-13.176 9,-13.176 2.304,0 2.736,2.232 2.088,7.128 l -2.52,19.08 h 10.728 l 2.808,-21.528 c 1.296,-9.864 -1.44,-14.328 -8.136,-14.328 -4.608,0 -8.496,1.944 -11.664,5.616 l -0.144,-0.072 0.576,-4.896 z" transform="translate(0 258.13340070932867) translate(619.3914083341 101.52881987755391) scale(1.417294398620863) translate(-590.01875 -84.144)"></path> 
   <path id="path119403" style="font-style: oblique; font-weight: 700; font-size: 72px; line-height: 1; font-family: Averta; font-variant-ligatures: none; text-align: center; text-anchor: middle; fill: rgb(134, 144, 136);" d="m 644.51375,120.648 c 13.464,0 19.584,-10.008 19.584,-21.456 0,-9.576 -5.976,-15.048 -15.048,-15.048 -12.384,0 -19.44,10.08 -19.44,21.384 0,9.648 5.976,15.12 14.904,15.12 z m 0.792,-9.648 c -2.304,0 -4.752,-1.872 -4.752,-6.048 0,-5.4 2.88,-11.16 7.632,-11.16 1.944,0 4.968,1.08 4.968,6.12 0,5.76 -3.096,11.088 -7.848,11.088 z" transform="translate(0 258.13340070932867) translate(675.5035108698986 101.52881987755391) scale(1.417294398620863) translate(-629.60975 -84.144)"></path> 
   <path id="path119405" style="font-style: oblique; font-weight: 700; font-size: 72px; line-height: 1; font-family: Averta; font-variant-ligatures: none; text-align: center; text-anchor: middle; fill: rgb(134, 144, 136);" d="m 697.69475,70.536 h -27.864 l -1.224,10.08 h 15.48 l -17.568,38.52 11.088,2.016 19.224,-43.344 z" transform="translate(0 258.13340070932867) translate(727.8144298285961 82.24227770112118) scale(1.417294398620863) translate(-666.51875 -70.536)"></path> 
  </g> 
  <g id="tagline" style="font-style:normal;font-weight:500;font-size:32px;line-height:1;font-family:Raleway;font-variant-ligatures:none;text-align:center;text-anchor:middle"></g> 
 </g> 
</svg>