<svg xmlns:dc="http://purl.org/dc/elements/1.1/" xmlns:cc="http://creativecommons.org/ns#" xmlns:rdf="http://www.w3.org/1999/02/22-rdf-syntax-ns#" xmlns:svg="http://www.w3.org/2000/svg" xmlns="http://www.w3.org/2000/svg" id="svg65243" viewbox="0 0 1024 768" height="768px" width="1024px" version="1.1"> <metadata id="metadata65249"> 
  <rdf:rdf> 
   <cc:work rdf:about=""> 
    <dc:format>
     image/svg+xml
    </dc:format> 
    <dc:type rdf:resource="http://purl.org/dc/dcmitype/StillImage"></dc:type> 
   </cc:work> 
  </rdf:rdf> 
 </metadata> <defs id="defs65247"></defs> <g id="logo-group"> 
  <g id="title" style="font-style:normal;font-weight:200;font-size:72px;line-height:1;font-family:Montserrat;font-variant-ligatures:none;text-align:center;text-anchor:middle" aria-label="Riverbendo7"> 
   <path id="path65251" style="font-style: normal; font-weight: 200; font-size: 72px; line-height: 1; font-family: Montserrat; font-variant-ligatures: none; text-align: center; text-anchor: middle; fill: rgb(169, 214, 33);" d="m 338.97275,86.016 q 0,6.48 -3.384,10.656 -3.384,4.104 -9.648,5.472 l 13.032,17.856 h -1.8 l -12.816,-17.568 q -2.88,0.288 -4.608,0.288 h -15.624 V 120 h -1.44 V 69.672 h 17.064 q 9.144,0 14.184,4.32 5.04,4.248 5.04,12.024 z m -19.224,15.264 q 8.496,0 13.104,-3.96 4.68,-4.032 4.68,-11.304 0,-7.128 -4.68,-11.016 -4.608,-3.888 -13.104,-3.888 h -15.624 v 30.168 z" transform="translate(0 315.7032727272727) translate(250.18318181818188 46.76218181818183) scale(0.9090909090909091) translate(-302.68475 -69.672)"></path> 
   <path id="path65253" style="font-style: normal; font-weight: 200; font-size: 72px; line-height: 1; font-family: Montserrat; font-variant-ligatures: none; text-align: center; text-anchor: middle; fill: rgb(169, 214, 33);" d="m 353.42,82.776 h 1.44 V 120 h -1.44 z m 0.72,-12.6 q 0.72,0 1.296,0.576 0.576,0.504 0.576,1.296 0,0.72 -0.576,1.296 -0.576,0.576 -1.296,0.576 -0.792,0 -1.368,-0.576 -0.504,-0.576 -0.504,-1.296 0,-0.792 0.504,-1.296 0.576,-0.576 1.368,-0.576 z" transform="translate(0 315.7032727272727) translate(308.8952272727273 47.22036363636364) scale(0.9090909090909091) translate(-352.268 -70.176)"></path> 
   <path id="path65255" style="font-style: normal; font-weight: 200; font-size: 72px; line-height: 1; font-family: Montserrat; font-variant-ligatures: none; text-align: center; text-anchor: middle; fill: rgb(169, 214, 33);" d="m 363.51688,82.776 h 1.65599 l 14.4,35.568 14.328,-35.568 h 1.728 L 380.36487,120 h -1.584 z" transform="translate(0 315.7032727272727) translate(332.7578454545455 58.6749090909091) scale(0.9090909090909091) translate(-363.51688 -82.776)"></path> 
   <path id="path65257" style="font-style: normal; font-weight: 200; font-size: 72px; line-height: 1; font-family: Montserrat; font-variant-ligatures: none; text-align: center; text-anchor: middle; fill: rgb(169, 214, 33);" d="m 416.25013,118.56 q 4.03199,0 7.416,-1.368 3.45599,-1.44 5.76,-4.032 l 1.00799,1.008 q -2.592,2.808 -6.264,4.32 -3.67199,1.512 -7.91999,1.512 -5.11201,0 -9.216,-2.376 -4.03201,-2.448 -6.40801,-6.696 -2.30399,-4.248 -2.30399,-9.576 0,-5.328 2.30399,-9.576 2.376,-4.248 6.40801,-6.624 4.10399,-2.376 9.216,-2.376 5.11199,0 9,2.376 3.95999,2.376 6.12,6.624 2.15999,4.248 2.15999,9.576 h -33.76799 q 0,4.968 2.08799,8.928 2.16001,3.888 5.904,6.12 3.74401,2.16 8.49601,2.16 z m 0,-34.344 q -4.536,0 -8.20801,2.016 -3.6,1.944 -5.76,5.544 -2.16,3.528 -2.448,8.136 h 32.256 q -0.504,-7.056 -4.752,-11.376 -4.248,-4.32 -11.08799,-4.32 z" transform="translate(0 315.7032727272727) translate(378.0353454545455 58.6749090909091) scale(0.9090909090909091) translate(-398.32213 -82.776)"></path> 
   <path id="path65259" style="font-style: normal; font-weight: 200; font-size: 72px; line-height: 1; font-family: Montserrat; font-variant-ligatures: none; text-align: center; text-anchor: middle; fill: rgb(169, 214, 33);" d="m 446.40688,92.928 q 1.656,-4.752 5.32799,-7.416 3.67201,-2.664 8.928,-2.736 v 1.44 q -6.336,0.144 -10.08,4.248 -3.672,4.032 -4.17599,11.16 V 120 h -1.44 V 82.776 h 1.44 z" transform="translate(0 315.7032727272727) translate(434.0760272727273 58.6749090909091) scale(0.9090909090909091) translate(-444.96688 -82.776)"></path> 
   <path id="path65261" style="font-style: normal; font-weight: 200; font-size: 72px; line-height: 1; font-family: Montserrat; font-variant-ligatures: none; text-align: center; text-anchor: middle; fill: rgb(169, 214, 33);" d="m 487.727,82.776 q 5.184,0 9.288,2.448 4.104,2.376 6.408,6.624 2.376,4.248 2.376,9.576 0,5.328 -2.376,9.576 -2.304,4.176 -6.408,6.624 -4.104,2.376 -9.288,2.376 -5.76,0 -10.224,-2.952 -4.392,-2.952 -6.408,-7.992 V 120 h -1.44 V 66.576 h 1.44 V 93.72 q 2.016,-5.04 6.408,-7.992 4.464,-2.952 10.224,-2.952 z m 0,35.784 q 4.752,0 8.496,-2.16 3.816,-2.232 5.976,-6.12 2.16,-3.96 2.16,-8.856 0,-4.896 -2.16,-8.784 -2.16,-3.96 -5.976,-6.192 -3.744,-2.232 -8.496,-2.232 -4.752,0 -8.568,2.232 -3.744,2.232 -5.904,6.192 -2.16,3.888 -2.16,8.784 0,4.896 2.16,8.856 2.16,3.888 5.904,6.12 3.816,2.16 8.568,2.16 z" transform="translate(0 315.7032727272727) translate(470.15613636363634 43.94763636363636) scale(0.9090909090909091) translate(-469.655 -66.576)"></path> 
   <path id="path65263" style="font-style: normal; font-weight: 200; font-size: 72px; line-height: 1; font-family: Montserrat; font-variant-ligatures: none; text-align: center; text-anchor: middle; fill: rgb(169, 214, 33);" d="m 531.28138,118.56 q 4.03199,0 7.41599,-1.368 3.456,-1.44 5.76,-4.032 l 1.008,1.008 q -2.592,2.808 -6.264,4.32 -3.672,1.512 -7.91999,1.512 -5.11201,0 -9.216,-2.376 -4.03201,-2.448 -6.40801,-6.696 -2.30399,-4.248 -2.30399,-9.576 0,-5.328 2.30399,-9.576 2.376,-4.248 6.40801,-6.624 4.10399,-2.376 9.216,-2.376 5.11199,0 9,2.376 3.95999,2.376 6.12,6.624 2.15999,4.248 2.15999,9.576 h -33.768 q 0,4.968 2.08801,8.928 2.16,3.888 5.904,6.12 3.74399,2.16 8.496,2.16 z m 0,-34.344 q -4.53601,0 -8.208,2.016 -3.6,1.944 -5.76001,5.544 -2.16,3.528 -2.448,8.136 h 32.256 q -0.50399,-7.056 -4.752,-11.376 -4.248,-4.32 -11.08799,-4.32 z" transform="translate(0 315.7032727272727) translate(523.5183000000001 58.6749090909091) scale(0.9090909090909091) translate(-513.35338 -82.776)"></path> 
   <path id="path65265" style="font-style: normal; font-weight: 200; font-size: 72px; line-height: 1; font-family: Montserrat; font-variant-ligatures: none; text-align: center; text-anchor: middle; fill: rgb(169, 214, 33);" d="m 577.13413,82.776 q 6.91199,0 10.72799,3.888 3.88801,3.888 3.88801,10.8 V 120 h -1.44001 V 97.464 q 0,-6.264 -3.528,-9.72 -3.45599,-3.528 -9.64799,-3.528 -6.91201,0.144 -11.01601,4.248 -4.10399,4.104 -4.67999,11.304 V 120 h -1.44001 V 82.776 h 1.44001 v 10.512 q 1.79999,-4.968 5.83199,-7.704 4.03201,-2.736 9.86401,-2.808 z" transform="translate(0 315.7032727272727) translate(579.5589727272727 58.6749090909091) scale(0.9090909090909091) translate(-559.99812 -82.776)"></path> 
   <path id="path65267" style="font-style: normal; font-weight: 200; font-size: 72px; line-height: 1; font-family: Montserrat; font-variant-ligatures: none; text-align: center; text-anchor: middle; fill: rgb(169, 214, 33);" d="M 638.66038,66.576 V 120 h -1.44001 v -10.944 q -2.08799,5.112 -6.552,8.136 -4.39199,2.952 -10.22399,2.952 -5.18401,0 -9.36,-2.376 -4.17601,-2.448 -6.55201,-6.696 -2.30399,-4.32 -2.30399,-9.648 0,-5.328 2.30399,-9.648 2.376,-4.32 6.55201,-6.696 4.17599,-2.448 9.36,-2.448 5.832,0 10.22399,3.024 4.46401,2.952 6.552,8.064 V 66.576 Z m -18.216,52.128 q 4.82399,0 8.64,-2.232 3.816,-2.232 5.976,-6.12 2.15999,-3.96 2.15999,-8.928 0,-4.968 -2.15999,-8.928 -2.16,-3.96 -5.976,-6.192 -3.81601,-2.232 -8.64,-2.232 -4.82401,0 -8.64,2.232 -3.816,2.232 -5.976,6.192 -2.16001,3.96 -2.16001,8.928 0,4.968 2.16001,8.928 2.16,3.888 5.976,6.12 3.81599,2.232 8.64,2.232 z" transform="translate(0 315.7032727272727) translate(631.5864818181818 43.94763636363636) scale(0.9090909090909091) translate(-602.22838 -66.576)"></path> 
   <path id="path65269" style="font-style: normal; font-weight: 200; font-size: 72px; line-height: 1; font-family: Montserrat; font-variant-ligatures: none; text-align: center; text-anchor: middle; fill: rgb(77, 77, 77);" d="m 668.816,82.776 q 5.112,0 9.216,2.376 4.176,2.376 6.48,6.624 2.376,4.248 2.376,9.576 0,5.328 -2.376,9.576 -2.304,4.248 -6.48,6.696 -4.104,2.376 -9.216,2.376 -5.112,0 -9.288,-2.376 -4.104,-2.448 -6.48,-6.696 -2.304,-4.248 -2.304,-9.576 0,-5.328 2.304,-9.576 2.376,-4.248 6.48,-6.624 4.176,-2.376 9.288,-2.376 z m 0,1.44 q -4.752,0 -8.568,2.232 -3.816,2.16 -5.976,6.048 -2.088,3.888 -2.088,8.856 0,4.968 2.088,8.928 2.16,3.888 5.976,6.12 3.816,2.16 8.568,2.16 4.752,0 8.568,-2.16 3.816,-2.232 5.904,-6.12 2.16,-3.96 2.16,-8.928 0,-4.968 -2.16,-8.856 -2.088,-3.888 -5.904,-6.048 -3.816,-2.232 -8.568,-2.232 z" transform="translate(0 315.7032727272727) translate(689.3279545454545 58.6749090909091) scale(0.9090909090909091) translate(-650.744 -82.776)"></path> 
   <path id="path65271" style="font-style: normal; font-weight: 200; font-size: 72px; line-height: 1; font-family: Montserrat; font-variant-ligatures: none; text-align: center; text-anchor: middle; fill: rgb(77, 77, 77);" d="m 693.18575,69.672 h 35.496 v 1.8 L 704.05775,120 h -1.584 l 24.912,-48.888 h -32.76 v 8.064 h -1.44 z" transform="translate(0 315.7032727272727) translate(741.5477272727272 46.76218181818183) scale(0.9090909090909091) translate(-693.18575 -69.672)"></path> 
  </g> 
  <g id="tagline" style="font-style:normal;font-weight:400;font-size:32px;line-height:1;font-family:Montserrat;font-variant-ligatures:none;text-align:center;text-anchor:middle"></g> 
 </g> 
</svg>