<svg xmlns:dc="http://purl.org/dc/elements/1.1/" xmlns:cc="http://creativecommons.org/ns#" xmlns:rdf="http://www.w3.org/1999/02/22-rdf-syntax-ns#" xmlns:svg="http://www.w3.org/2000/svg" xmlns="http://www.w3.org/2000/svg" id="svg29346" viewbox="0 0 1024 768" height="768px" width="1024px" version="1.1"> <metadata id="metadata29352"> 
  <rdf:rdf> 
   <cc:work rdf:about=""> 
    <dc:format>
     image/svg+xml
    </dc:format> 
    <dc:type rdf:resource="http://purl.org/dc/dcmitype/StillImage"></dc:type> 
   </cc:work> 
  </rdf:rdf> 
 </metadata> <defs id="defs29350"></defs> <g id="logo-group"> 
  <g id="title" style="font-style:normal;font-weight:700;font-size:72px;line-height:1;font-family:'Brandmark1 Bold';font-variant-ligatures:none;text-align:center;text-anchor:middle" aria-label="ROCKFISHO7"> 
   <path id="path29354" style="font-style: normal; font-weight: 700; font-size: 72px; line-height: 1; font-family: &quot;Brandmark1 Bold&quot;; font-variant-ligatures: none; text-align: center; text-anchor: middle; fill: rgb(39, 43, 60);" d="m 319.33812,101.424 c 2.952,-1.08 5.32801,-2.736 7.2,-4.824 2.59201,-3.024 3.96001,-7.056 3.96001,-11.88 0,-5.328 -1.65601,-9.864 -4.75201,-13.032 -1.728,-1.728 -3.816,-3.096 -6.264,-3.96 -2.44799,-0.864 -5.32799,-1.368 -8.42399,-1.368 h -20.66401 v 56.16 h 11.304 V 77.088 h 8.496 c 2.88,0 5.184,0.72 6.624,1.944 1.44,1.224 2.16,3.096 2.16,5.544 0,2.376 -0.72,4.248 -2.088,5.472 -1.656,1.512 -4.17599,2.232 -7.56,2.232 h -2.16 v 11.016 l 13.32,19.224 h 13.68 z" transform="translate(0 297.7020767234402) translate(252.00000000000006 55.70049230332731) scale(1.0772226085492362) translate(-290.39412 -66.36)"></path> 
   <path id="path29356" style="font-style: normal; font-weight: 700; font-size: 72px; line-height: 1; font-family: &quot;Brandmark1 Bold&quot;; font-variant-ligatures: none; text-align: center; text-anchor: middle; fill: rgb(39, 43, 60);" d="m 360.82025,122.808 c 3.816,0 7.56,-0.72 11.088,-2.232 3.384,-1.368 6.408,-3.456 9,-6.048 2.592,-2.592 4.68,-5.616 6.12,-9 1.44,-3.528 2.232,-7.272 2.232,-11.088 0,-3.816 -0.792,-7.56 -2.232,-11.088 -1.44,-3.384 -3.528,-6.408 -6.12,-9 -2.592,-2.592 -5.616,-4.68 -9,-6.12 -3.528,-1.44 -7.272,-2.232 -11.088,-2.232 -3.816,0 -7.56,0.792 -11.088,2.232 -3.384,1.44 -6.408,3.528 -9,6.12 -2.592,2.592 -4.68,5.616 -6.048,9 -1.512,3.528 -2.232,7.272 -2.232,11.088 0,3.816 0.72,7.56 2.232,11.088 1.368,3.384 3.456,6.408 6.048,9 2.592,2.592 5.616,4.68 9,6.048 3.528,1.512 7.272,2.232 11.088,2.232 z m 0,-45.504 c 4.536,0 8.856,1.8 12.096,5.04 3.24,3.24 5.04,7.56 5.04,12.096 0,4.608 -1.8,8.856 -5.04,12.096 -3.24,3.24 -7.488,5.04 -12.096,5.04 -4.536,0 -8.856,-1.8 -12.096,-5.04 -3.24,-3.24 -5.04,-7.488 -5.04,-12.096 0,-4.536 1.8,-8.856 5.04,-12.096 3.24,-3.24 7.56,-5.04 12.096,-5.04 z" transform="translate(0 297.7020767234402) translate(301.6148589434999 55.31269216424958) scale(1.0772226085492362) translate(-332.45225 -66)"></path> 
   <path id="path29358" style="font-style: normal; font-weight: 700; font-size: 72px; line-height: 1; font-family: &quot;Brandmark1 Bold&quot;; font-variant-ligatures: none; text-align: center; text-anchor: middle; fill: rgb(39, 43, 60);" d="m 420.668,123.024 c 9.504,0 18.36,-4.752 23.688,-12.6 l -9.36,-6.336 c -3.24,4.752 -8.568,7.632 -14.328,7.632 -4.608,0 -9,-1.8 -12.24,-5.04 -3.312,-3.312 -5.112,-7.632 -5.112,-12.312 0,-4.608 1.8,-8.928 5.112,-12.24 3.24,-3.24 7.632,-5.04 12.24,-5.04 5.76,0 11.16,2.88 14.4,7.704 l 9.36,-6.336 c -5.328,-7.92 -14.184,-12.672 -23.76,-12.672 -3.888,0 -7.632,0.72 -11.16,2.232 -3.384,1.44 -6.48,3.528 -9.072,6.12 -2.664,2.664 -4.68,5.688 -6.12,9.144 -1.512,3.528 -2.304,7.272 -2.304,11.088 0,3.888 0.792,7.632 2.304,11.16 1.44,3.384 3.456,6.48 6.12,9.072 2.592,2.664 5.688,4.752 9.072,6.192 3.528,1.44 7.272,2.232 11.16,2.232 z" transform="translate(0 297.7020767234402) translate(370.08285863723717 55.08001208080296) scale(1.0772226085492362) translate(-392.012 -65.784)"></path> 
   <path id="path29360" style="font-style: normal; font-weight: 700; font-size: 72px; line-height: 1; font-family: &quot;Brandmark1 Bold&quot;; font-variant-ligatures: none; text-align: center; text-anchor: middle; fill: rgb(39, 43, 60);" d="m 478.02387,122.52 h 14.04 L 470.03188,92.352 492.06387,66.36 h -14.688 l -19.584,23.76 V 66.36 h -11.304 v 56.16 h 11.304 v -15.768 l 4.68,-5.544 z" transform="translate(0 297.7020767234402) translate(433.07438785582315 55.70049230332731) scale(1.0772226085492362) translate(-446.48787 -66.36)"></path> 
   <path id="path29362" style="font-style: normal; font-weight: 700; font-size: 72px; line-height: 1; font-family: &quot;Brandmark1 Bold&quot;; font-variant-ligatures: none; text-align: center; text-anchor: middle; fill: rgb(39, 43, 60);" d="m 493.03475,122.52 h 11.304 v -21.744 h 25.632 V 90.048 h -25.632 v -12.96 h 25.632 V 66.36 h -36.936 z" transform="translate(0 297.7020767234402) translate(487.5246297834483 55.70049230332731) scale(1.0772226085492362) translate(-493.03475 -66.36)"></path> 
   <path id="path29364" style="font-style: normal; font-weight: 700; font-size: 72px; line-height: 1; font-family: &quot;Brandmark1 Bold&quot;; font-variant-ligatures: none; text-align: center; text-anchor: middle; fill: rgb(39, 43, 60);" d="m 535.01975,122.52 h 11.304 V 66.36 l -11.304,3.6 z" transform="translate(0 297.7020767234402) translate(537.0607114375849 55.70049230332731) scale(1.0772226085492362) translate(-535.01975 -66.36)"></path> 
   <path id="path29366" style="font-style: normal; font-weight: 700; font-size: 72px; line-height: 1; font-family: &quot;Brandmark1 Bold&quot;; font-variant-ligatures: none; text-align: center; text-anchor: middle; fill: rgb(39, 43, 60);" d="m 571.62725,122.952 c 5.112,0 9.864,-1.44 13.392,-4.176 1.944,-1.512 3.456,-3.312 4.536,-5.4 1.152,-2.16 1.728,-4.68 1.728,-7.344 0,-4.896 -1.728,-8.64 -5.184,-11.52 -2.952,-2.376 -6.84,-3.888 -10.944,-5.544 -0.432,-0.144 -0.864,-0.36 -1.368,-0.504 v 0 c -2.88,-1.152 -5.616,-2.16 -7.344,-3.384 -1.224,-0.864 -2.016,-1.728 -1.944,-3.384 0,-3.672 3.6,-5.04 6.624,-5.04 3.24,0 7.128,1.728 10.656,4.608 l 2.016,1.656 6.912,-8.928 -1.872,-1.584 c -5.328,-4.248 -11.448,-6.552 -17.712,-6.552 -4.896,0 -9.432,1.656 -12.816,4.536 -3.456,3.024 -5.328,7.128 -5.328,11.52 0,2.592 0.504,4.896 1.584,6.912 0.936,1.872 2.304,3.456 4.104,4.968 3.168,2.448 7.128,4.032 11.16,5.544 0.288,0.144 0.576,0.216 0.792,0.288 2.952,1.152 5.544,2.088 7.128,3.312 1.368,1.008 1.944,2.088 1.944,3.816 0,1.656 -0.648,2.88 -1.872,3.816 -1.44,1.008 -3.6,1.512 -6.12,1.512 -2.16,0 -4.464,-0.504 -6.48,-1.44 -2.232,-1.08 -4.176,-2.592 -5.688,-4.464 l -1.944,-2.448 -7.416,8.928 1.512,1.584 c 5.256,5.616 12.312,8.712 19.944,8.712 z" transform="translate(0 297.7020767234402) translate(557.6911402252156 55.157572108618496) scale(1.0772226085492362) translate(-550.17125 -65.856)"></path> 
   <path id="path29368" style="font-style: normal; font-weight: 700; font-size: 72px; line-height: 1; font-family: &quot;Brandmark1 Bold&quot;; font-variant-ligatures: none; text-align: center; text-anchor: middle; fill: rgb(39, 43, 60);" d="m 629.08888,122.52 h 11.30399 V 66.36 H 629.08888 V 90.336 H 607.41687 V 66.36 h -11.30399 v 56.16 h 11.30399 v -21.456 h 21.67201 z" transform="translate(0 297.7020767234402) translate(611.4893931690165 55.70049230332731) scale(1.0772226085492362) translate(-596.11288 -66.36)"></path> 
   <path id="path29370" style="font-style: normal; font-weight: 700; font-size: 72px; line-height: 1; font-family: &quot;Brandmark1 Bold&quot;; font-variant-ligatures: none; text-align: center; text-anchor: middle; fill: rgb(125, 77, 62);" d="m 673.8515,122.808 c 3.816,0 7.56,-0.72 11.088,-2.232 3.384,-1.368 6.408,-3.456 9,-6.048 2.592,-2.592 4.68,-5.616 6.12,-9 1.44,-3.528 2.232,-7.272 2.232,-11.088 0,-3.816 -0.792,-7.56 -2.232,-11.088 -1.44,-3.384 -3.528,-6.408 -6.12,-9 -2.592,-2.592 -5.616,-4.68 -9,-6.12 -3.528,-1.44 -7.272,-2.232 -11.088,-2.232 -3.816,0 -7.56,0.792 -11.088,2.232 -3.384,1.44 -6.408,3.528 -9,6.12 -2.592,2.592 -4.68,5.616 -6.048,9 -1.512,3.528 -2.232,7.272 -2.232,11.088 0,3.816 0.72,7.56 2.232,11.088 1.368,3.384 3.456,6.408 6.048,9 2.592,2.592 5.616,4.68 9,6.048 3.528,1.512 7.272,2.232 11.088,2.232 z m 0,-45.504 c 4.536,0 8.856,1.8 12.096,5.04 3.24,3.24 5.04,7.56 5.04,12.096 0,4.608 -1.8,8.856 -5.04,12.096 -3.24,3.24 -7.488,5.04 -12.096,5.04 -4.536,0 -8.856,-1.8 -12.096,-5.04 -3.24,-3.24 -5.04,-7.488 -5.04,-12.096 0,-4.536 1.8,-8.856 5.04,-12.096 3.24,-3.24 7.56,-5.04 12.096,-5.04 z" transform="translate(0 297.7020767234402) translate(668.9814316653066 55.31269216424958) scale(1.0772226085492362) translate(-645.4835 -66)"></path> 
   <path id="path29372" style="font-style: normal; font-weight: 700; font-size: 72px; line-height: 1; font-family: &quot;Brandmark1 Bold&quot;; font-variant-ligatures: none; text-align: center; text-anchor: middle; fill: rgb(125, 77, 62);" d="m 705.365,121.512 11.16,2.232 20.592,-48.384 V 68.016 H 701.405 V 78.6 h 22.536 z" transform="translate(0 297.7020767234402) translate(733.5302262034895 57.48437294308485) scale(1.0772226085492362) translate(-701.405 -68.016)"></path> 
  </g> 
  <g id="tagline" style="font-style:normal;font-weight:400;font-size:32px;line-height:1;font-family:Montserrat;font-variant-ligatures:none;text-align:center;text-anchor:middle"></g> 
 </g> 
</svg>