<svg xmlns:dc="http://purl.org/dc/elements/1.1/" xmlns:cc="http://creativecommons.org/ns#" xmlns:rdf="http://www.w3.org/1999/02/22-rdf-syntax-ns#" xmlns:svg="http://www.w3.org/2000/svg" xmlns="http://www.w3.org/2000/svg" id="svg5212" viewbox="0 0 1024 768" height="768px" width="1024px" version="1.1"> <metadata id="metadata5218"> 
  <rdf:rdf> 
   <cc:work rdf:about=""> 
    <dc:format>
     image/svg+xml
    </dc:format> 
    <dc:type rdf:resource="http://purl.org/dc/dcmitype/StillImage"></dc:type> 
   </cc:work> 
  </rdf:rdf> 
 </metadata> <defs id="defs5216"></defs> <g id="logo-group"> 
  <g id="title" style="font-style:normal;font-weight:800;font-size:72px;line-height:1;font-family:'Montserrat ExtraBold Alt1';font-variant-ligatures:none;text-align:center;text-anchor:middle" aria-label="Satorio7"> 
   <path id="path5220" style="font-style: normal; font-weight: 800; font-size: 72px; line-height: 1; font-family: &quot;Montserrat ExtraBold Alt1&quot;; font-variant-ligatures: none; text-align: center; text-anchor: middle; fill: rgb(0, 0, 0);" d="m 364.31731,119.496 c 3.816,1.008 7.776,1.512 11.88,1.512 4.752,0 8.856,-0.72 12.24,-2.16 3.312,-1.44 5.832,-3.456 7.56,-5.904 1.656,-2.448 2.52,-5.184 2.52,-8.208 0,-3.456 -0.936,-6.264 -2.808,-8.28 -1.872,-2.016 -4.032,-3.528 -6.552,-4.464 -2.52,-0.936 -5.688,-1.8 -9.504,-2.664 -3.456,-0.72 -5.904,-1.368 -7.416,-2.088 -1.584,-0.648 -2.304,-1.656 -2.304,-3.024 0,-1.296 0.648,-2.376 1.944,-3.24 1.296,-0.864 3.312,-1.296 6.192,-1.296 4.464,0 9.144,1.296 13.968,3.888 l 4.392,-10.584 c -2.448,-1.44 -5.328,-2.52 -8.496,-3.24 -3.24,-0.72 -6.48,-1.152 -9.792,-1.152 -4.896,0 -9,0.72 -12.312,2.16 -3.312,1.44 -5.832,3.456 -7.488,5.904 -1.728,2.448 -2.52,5.256 -2.52,8.28 0,3.528 0.864,6.336 2.736,8.352 1.8,2.088 3.96,3.6 6.552,4.536 2.52,0.936 5.688,1.8 9.504,2.592 3.456,0.792 5.904,1.512 7.488,2.232 1.584,0.72 2.376,1.728 2.376,3.168 0,2.736 -2.736,4.104 -8.208,4.104 -2.88,0 -5.832,-0.432 -8.784,-1.368 -3.024,-0.864 -5.616,-2.088 -7.848,-3.6 l -4.68,10.512 c 2.376,1.728 5.472,3.024 9.36,4.032 z" transform="translate(0 244.21834444542012) translate(252.0000000000001 101.6788434010457) scale(1.6589521139643937) translate(-354.95731 -68.592)"></path> 
   <path id="path5222" style="font-style: normal; font-weight: 800; font-size: 72px; line-height: 1; font-family: &quot;Montserrat ExtraBold Alt1&quot;; font-variant-ligatures: none; text-align: center; text-anchor: middle; fill: rgb(0, 0, 0);" d="m 435.84819,84.792 c -3.456,-2.952 -8.352,-4.464 -14.832,-4.464 -3.168,0 -6.264,0.432 -9.36,1.224 -3.096,0.792 -5.688,1.872 -7.848,3.312 l 4.608,9.288 c 1.296,-1.008 2.952,-1.872 4.896,-2.448 1.872,-0.576 3.816,-0.936 5.688,-0.936 5.256,0 7.992,2.088 8.28,6.192 h -7.776 c -5.904,0 -10.296,1.08 -13.104,3.096 -2.88,2.016 -4.248,4.896 -4.248,8.568 0,2.304 0.504,4.392 1.656,6.192 1.152,1.8 2.808,3.24 5.04,4.248 2.16,1.08 4.824,1.584 7.848,1.584 5.688,0 9.504,-1.872 11.52,-5.688 V 120 h 12.744 V 98.328 c 0,-6.048 -1.728,-10.584 -5.112,-13.536 z m -11.16,26.064 c -1.224,0.792 -2.592,1.152 -4.176,1.152 -1.584,0 -2.88,-0.36 -3.744,-1.08 -0.936,-0.72 -1.368,-1.656 -1.368,-2.88 0,-2.592 1.944,-3.96 5.976,-3.96 h 5.904 v 3.384 c -0.576,1.512 -1.44,2.664 -2.592,3.384 z" transform="translate(0 244.21834444542012) translate(330.29404594429604 121.14830541053183) scale(1.6589521139643937) translate(-402.15219 -80.328)"></path> 
   <path id="path5224" style="font-style: normal; font-weight: 800; font-size: 72px; line-height: 1; font-family: &quot;Montserrat ExtraBold Alt1&quot;; font-variant-ligatures: none; text-align: center; text-anchor: middle; fill: rgb(0, 0, 0);" d="m 476.59344,118.416 -3.384,-9.576 c -1.224,0.864 -2.592,1.224 -4.176,1.224 -1.296,0 -2.304,-0.36 -3.024,-1.152 -0.72,-0.792 -1.08,-1.872 -1.08,-3.312 V 92.64 h 8.928 V 82.416 h -8.928 V 72.264 h -13.68 v 10.152 h -5.688 V 92.64 h 5.688 v 13.104 c 0,4.968 1.368,8.712 4.104,11.16 2.736,2.52 6.624,3.744 11.736,3.744 1.872,0 3.6,-0.144 5.256,-0.576 1.656,-0.36 3.096,-0.936 4.248,-1.656 z" transform="translate(0 244.21834444542012) translate(402.3079129974049 107.77051556352293) scale(1.6589521139643937) translate(-445.56144 -72.264)"></path> 
   <path id="path5226" style="font-style: normal; font-weight: 800; font-size: 72px; line-height: 1; font-family: &quot;Montserrat ExtraBold Alt1&quot;; font-variant-ligatures: none; text-align: center; text-anchor: middle; fill: rgb(0, 0, 0);" d="m 489.02356,118.056 c 3.312,1.728 7.128,2.592 11.304,2.592 4.176,0 7.992,-0.864 11.376,-2.592 3.312,-1.728 5.976,-4.104 7.848,-7.2 1.872,-3.024 2.808,-6.552 2.808,-10.44 0,-3.888 -0.936,-7.344 -2.808,-10.368 -1.872,-3.024 -4.536,-5.4 -7.848,-7.128 -3.384,-1.728 -7.2,-2.592 -11.376,-2.592 -4.248,0 -8.064,0.864 -11.376,2.592 -3.312,1.728 -5.976,4.104 -7.848,7.128 -1.872,3.096 -2.808,6.552 -2.808,10.368 0,3.888 0.936,7.416 2.808,10.44 1.872,3.096 4.536,5.472 7.92,7.2 z m 17.208,-10.728 c -1.584,1.656 -3.528,2.448 -5.904,2.448 -2.448,0 -4.392,-0.792 -5.904,-2.448 -1.584,-1.656 -2.304,-3.96 -2.304,-6.912 0,-2.88 0.72,-5.112 2.304,-6.768 1.512,-1.584 3.456,-2.448 5.904,-2.448 2.376,0 4.32,0.864 5.904,2.448 1.512,1.656 2.304,3.888 2.304,6.768 0,2.952 -0.792,5.256 -2.304,6.912 z" transform="translate(0 244.21834444542012) translate(456.6122505701691 121.14830541053183) scale(1.6589521139643937) translate(-478.29556 -80.328)"></path> 
   <path id="path5228" style="font-style: normal; font-weight: 800; font-size: 72px; line-height: 1; font-family: &quot;Montserrat ExtraBold Alt1&quot;; font-variant-ligatures: none; text-align: center; text-anchor: middle; fill: rgb(0, 0, 0);" d="m 547.12869,81.696 c -2.232,0.864 -4.032,2.232 -5.4,3.96 v -4.68 h -13.032 V 120 h 13.68 v -17.928 c 0,-3.24 0.792,-5.688 2.448,-7.272 1.656,-1.584 3.96,-2.376 6.912,-2.376 0.792,0 1.8,0.072 3.096,0.216 V 80.328 c -2.88,0 -5.472,0.504 -7.704,1.368 z" transform="translate(0 244.21834444542012) translate(540.2253117298633 121.14830541053183) scale(1.6589521139643937) translate(-528.69669 -80.328)"></path> 
   <path id="path5230" style="font-style: normal; font-weight: 800; font-size: 72px; line-height: 1; font-family: &quot;Montserrat ExtraBold Alt1&quot;; font-variant-ligatures: none; text-align: center; text-anchor: middle; fill: rgb(0, 0, 0);" d="M 560.47794,80.976 V 120 h 13.68 V 80.976 Z m 0.792,-6.408 c 1.512,1.44 3.528,2.088 6.048,2.088 2.448,0 4.464,-0.648 6.048,-2.088 1.512,-1.44 2.304,-3.24 2.304,-5.4 0,-2.016 -0.792,-3.744 -2.304,-5.04 -1.584,-1.296 -3.6,-2.016 -6.048,-2.016 -2.52,0 -4.536,0.72 -6.048,2.088 -1.584,1.44 -2.304,3.168 -2.304,5.184 0,2.088 0.72,3.816 2.304,5.184 z" transform="translate(0 244.21834444542012) translate(590.4405480054801 90.92883370255643) scale(1.6589521139643937) translate(-558.96594 -62.112)"></path> 
   <path id="path5232" style="font-style: normal; font-weight: 800; font-size: 72px; line-height: 1; font-family: &quot;Montserrat ExtraBold Alt1&quot;; font-variant-ligatures: none; text-align: center; text-anchor: middle; fill: rgb(67, 67, 67);" d="m 591.25794,118.056 c 3.312,1.728 7.128,2.592 11.304,2.592 4.176,0 7.992,-0.864 11.376,-2.592 3.312,-1.728 5.976,-4.104 7.848,-7.2 1.872,-3.024 2.808,-6.552 2.808,-10.44 0,-3.888 -0.936,-7.344 -2.808,-10.368 -1.872,-3.024 -4.536,-5.4 -7.848,-7.128 -3.384,-1.728 -7.2,-2.592 -11.376,-2.592 -4.248,0 -8.064,0.864 -11.376,2.592 -3.312,1.728 -5.976,4.104 -7.848,7.128 -1.872,3.096 -2.808,6.552 -2.808,10.368 0,3.888 0.936,7.416 2.808,10.44 1.872,3.096 4.536,5.472 7.92,7.2 z m 17.208,-10.728 c -1.584,1.656 -3.528,2.448 -5.904,2.448 -2.448,0 -4.392,-0.792 -5.904,-2.448 -1.584,-1.656 -2.304,-3.96 -2.304,-6.912 0,-2.88 0.72,-5.112 2.304,-6.768 1.512,-1.584 3.456,-2.448 5.904,-2.448 2.376,0 4.32,0.864 5.904,2.448 1.512,1.656 2.304,3.888 2.304,6.768 0,2.952 -0.792,5.256 -2.304,6.912 z" transform="translate(0 244.21834444542012) translate(626.2141913910083 121.14830541053183) scale(1.6589521139643937) translate(-580.52994 -80.328)"></path> 
   <path id="path5234" style="font-style: normal; font-weight: 800; font-size: 72px; line-height: 1; font-family: &quot;Montserrat ExtraBold Alt1&quot;; font-variant-ligatures: none; text-align: center; text-anchor: middle; fill: rgb(67, 67, 67);" d="m 668.40819,69.6 h -41.76 v 19.08 h 12.168 v -7.776 h 13.248 L 635.07219,120 h 15.552 l 17.784,-41.472 z" transform="translate(0 244.21834444542012) translate(702.7221597208468 103.35106713192178) scale(1.6589521139643937) translate(-626.64819 -69.6)"></path> 
  </g> 
  <g id="tagline" style="font-style:normal;font-weight:500;font-size:32px;line-height:1;font-family:Montserrat;font-variant-ligatures:none;text-align:center;text-anchor:middle"></g> 
 </g> 
</svg>