<svg xmlns:dc="http://purl.org/dc/elements/1.1/" xmlns:cc="http://creativecommons.org/ns#" xmlns:rdf="http://www.w3.org/1999/02/22-rdf-syntax-ns#" xmlns:svg="http://www.w3.org/2000/svg" xmlns="http://www.w3.org/2000/svg" id="svg9076" viewbox="0 0 1024 768" height="768px" width="1024px" version="1.1"> <metadata id="metadata9082"> 
  <rdf:rdf> 
   <cc:work rdf:about=""> 
    <dc:format>
     image/svg+xml
    </dc:format> 
    <dc:type rdf:resource="http://purl.org/dc/dcmitype/StillImage"></dc:type> 
   </cc:work> 
  </rdf:rdf> 
 </metadata> <defs id="defs9080"></defs> <g id="logo-group"> 
  <g id="title" style="font-style:normal;font-weight:500;font-size:72px;line-height:1;font-family:'Raleway Medium Alt1';font-variant-ligatures:none;text-align:center;text-anchor:middle" aria-label="SCARLETO7"> 
   <path id="path9084" style="font-style: normal; font-weight: 500; font-size: 72px; line-height: 1; font-family: &quot;Raleway Medium Alt1&quot;; font-variant-ligatures: none; text-align: center; text-anchor: middle; fill: rgb(38, 32, 36);" d="m 343.67525,79.608 3.024,-5.256 c -2.16,-1.728 -4.68,-3.168 -7.416,-4.248 -2.808,-1.008 -5.904,-1.584 -9.36,-1.584 -2.664,0 -5.112,0.36 -7.344,1.008 -2.304,0.648 -4.248,1.584 -5.832,2.88 -1.656,1.296 -2.952,2.88 -3.816,4.752 -0.936,1.872 -1.368,4.032 -1.368,6.48 0,2.016 0.288,3.744 1.008,5.184 0.648,1.44 1.656,2.664 2.952,3.672 1.296,1.008 2.952,1.872 4.968,2.592 1.944,0.72 4.248,1.44 6.84,2.016 2.304,0.576 4.392,1.152 6.264,1.728 1.872,0.576 3.384,1.152 4.68,1.872 1.224,0.72 2.16,1.584 2.808,2.592 0.648,1.008 1.008,2.16 1.008,3.6 0,2.592 -1.008,4.536 -3.024,5.832 -2.016,1.296 -4.896,1.944 -8.496,1.944 -2.016,0 -3.888,-0.144 -5.688,-0.576 -1.8,-0.432 -3.456,-0.936 -5.04,-1.584 -1.584,-0.648 -2.952,-1.368 -4.176,-2.232 -1.224,-0.792 -2.232,-1.584 -2.952,-2.448 l -3.096,5.472 c 2.88,2.376 6.048,4.176 9.576,5.4 3.528,1.224 7.272,1.8 11.232,1.8 2.592,0 5.04,-0.216 7.344,-0.792 2.232,-0.576 4.176,-1.44 5.832,-2.592 1.656,-1.152 2.952,-2.664 3.96,-4.464 0.936,-1.8 1.44,-3.96 1.44,-6.408 0,-2.304 -0.432,-4.248 -1.224,-5.832 -0.792,-1.584 -1.944,-2.88 -3.456,-4.032 -1.512,-1.08 -3.312,-2.016 -5.472,-2.736 -2.16,-0.72 -4.536,-1.44 -7.128,-2.016 -2.304,-0.504 -4.32,-1.008 -5.976,-1.512 -1.728,-0.432 -3.096,-1.008 -4.248,-1.656 -1.152,-0.648 -1.944,-1.44 -2.448,-2.376 -0.576,-0.864 -0.792,-2.016 -0.792,-3.456 0,-2.592 0.864,-4.608 2.736,-6.12 1.872,-1.44 4.752,-2.232 8.784,-2.232 1.512,0 2.952,0.216 4.392,0.504 1.44,0.288 2.736,0.72 3.96,1.224 1.152,0.504 2.232,1.08 3.24,1.656 0.936,0.648 1.728,1.296 2.304,1.944 z" transform="translate(0 283.15497814715013) translate(252.0000000000001 64.23549718064264) scale(1.2077568181646618) translate(-309.61925 -68.52)"></path> 
   <path id="path9086" style="font-style: normal; font-weight: 500; font-size: 72px; line-height: 1; font-family: &quot;Raleway Medium Alt1&quot;; font-variant-ligatures: none; text-align: center; text-anchor: middle; fill: rgb(38, 32, 36);" d="m 361.84625,87.24 c 0.72,-2.376 1.872,-4.536 3.384,-6.408 1.44,-1.872 3.312,-3.456 5.472,-4.608 2.16,-1.152 4.68,-1.8 7.56,-1.8 1.296,0 2.592,0.144 3.96,0.432 1.296,0.288 2.592,0.792 3.888,1.44 1.224,0.72 2.448,1.584 3.528,2.664 1.08,1.152 2.016,2.52 2.808,4.104 l 5.112,-3.312 c -1.584,-3.312 -4.032,-5.976 -7.272,-8.064 -3.312,-2.016 -7.2,-3.096 -11.736,-3.096 -3.888,0 -7.272,0.792 -10.296,2.232 -3.096,1.512 -5.616,3.456 -7.704,5.904 -2.088,2.448 -3.672,5.184 -4.752,8.208 -0.792,2.16 -1.224,4.32 -1.44,6.408 h 6.552 c 0.216,-1.368 0.504,-2.736 0.936,-4.104 z m 31.248,18.36 c -0.72,1.584 -1.656,2.952 -2.808,4.104 -1.152,1.152 -2.376,2.088 -3.6,2.808 -1.368,0.72 -2.664,1.296 -4.104,1.584 -1.44,0.36 -2.808,0.504 -4.104,0.504 -2.592,0 -4.896,-0.504 -7.056,-1.656 -2.16,-1.08 -4.032,-2.592 -5.616,-4.464 -1.656,-1.872 -2.88,-3.96 -3.744,-6.408 -0.576,-1.512 -0.936,-3.024 -1.152,-4.68 h -6.552 c 0.288,2.16 0.792,4.248 1.584,6.336 1.152,3.168 2.808,5.976 4.968,8.424 2.16,2.448 4.68,4.464 7.632,5.976 2.88,1.584 6.12,2.304 9.648,2.304 1.944,0 3.96,-0.216 6.048,-0.792 2.016,-0.504 3.96,-1.224 5.832,-2.304 1.872,-0.936 3.528,-2.232 4.968,-3.672 1.44,-1.44 2.592,-3.168 3.456,-5.112 z" transform="translate(0 283.15497814715013) translate(309.6571027423629 64.32245567155049) scale(1.2077568181646618) translate(-354.35825 -68.592)"></path> 
   <path id="path9088" style="font-style: normal; font-weight: 500; font-size: 72px; line-height: 1; font-family: &quot;Raleway Medium Alt1&quot;; font-variant-ligatures: none; text-align: center; text-anchor: middle; fill: rgb(38, 32, 36);" d="m 429.73325,75.864 -2.808,7.632 6.48,16.488 h -12.816 l -1.944,5.04 h 16.2 l 6.048,14.976 h 6.912 z m -2.808,-6.984 h -5.472 l -20.952,51.12 h 6.624 l 17.064,-43.632 z" transform="translate(0 283.15497814715013) translate(369.0098960574289 64.6702896351819) scale(1.2077568181646618) translate(-400.50125 -68.88)"></path> 
   <path id="path9090" style="font-style: normal; font-weight: 500; font-size: 72px; line-height: 1; font-family: &quot;Raleway Medium Alt1&quot;; font-variant-ligatures: none; text-align: center; text-anchor: middle; fill: rgb(38, 32, 36);" d="m 481.33812,100.416 c 1.584,-0.36 3.096,-1.08 4.392,-2.088 1.296,-0.936 2.44801,-2.088 3.384,-3.456 0.936,-1.296 1.656,-2.808 2.16001,-4.464 0.50399,-1.656 0.79199,-3.384 0.79199,-5.184 0,-2.016 -0.432,-3.96 -1.15199,-5.904 -0.79201,-1.944 -1.87201,-3.672 -3.24001,-5.256 -1.368,-1.584 -3.024,-2.808 -4.896,-3.744 -1.872,-0.936 -3.96,-1.44 -6.192,-1.44 h -21.888 V 120 h 6.48001 v -18.36 h 6.47999 l -3.59999,-5.76 h -2.88 V 74.64 h 15.048 c 1.224,0 2.37599,0.288 3.52799,0.864 1.152,0.576 2.088,1.296 2.952,2.304 0.86401,1.008 1.512,2.088 2.016,3.384 0.50401,1.296 0.792,2.664 0.792,4.032 0,1.44 -0.21599,2.736 -0.648,4.032 -0.504,1.368 -1.08,2.448 -1.8,3.456 -0.79199,1.008 -1.728,1.8 -2.808,2.304 -1.07999,0.576 -2.304,0.864 -3.6,0.864 h -5.688 l 3.74401,5.76 11.66399,18.36 h 7.344 z" transform="translate(0 283.15497814715013) translate(438.0898057776067 64.6702896351819) scale(1.2077568181646618) translate(-454.69812 -68.88)"></path> 
   <path id="path9092" style="font-style: normal; font-weight: 500; font-size: 72px; line-height: 1; font-family: &quot;Raleway Medium Alt1&quot;; font-variant-ligatures: none; text-align: center; text-anchor: middle; fill: rgb(38, 32, 36);" d="M 501.94812,114.24 V 120 h 34.992 v -5.76 z m 6.48001,-45.36 h -6.48001 v 38.88 h 6.48001 z" transform="translate(0 283.15497814715013) translate(498.779585890381 64.6702896351819) scale(1.2077568181646618) translate(-501.94812 -68.88)"></path> 
   <path id="path9094" style="font-style: normal; font-weight: 500; font-size: 72px; line-height: 1; font-family: &quot;Raleway Medium Alt1&quot;; font-variant-ligatures: none; text-align: center; text-anchor: middle; fill: rgb(38, 32, 36);" d="m 550.475,74.64 h 27.576 v -5.76 h -34.056 v 15.84 h 6.48 z m -6.48,39.6 V 120 h 34.704 v -5.76 z m 6.48,-17.64 h 23.976 v -5.4 h -30.456 v 16.56 h 6.48 z" transform="translate(0 283.15497814715013) translate(553.1852623474264 64.6702896351819) scale(1.2077568181646618) translate(-543.995 -68.88)"></path> 
   <path id="path9096" style="font-style: normal; font-weight: 500; font-size: 72px; line-height: 1; font-family: &quot;Raleway Medium Alt1&quot;; font-variant-ligatures: none; text-align: center; text-anchor: middle; fill: rgb(38, 32, 36);" d="m 600.33275,120 h 6.48 V 81.12 h -6.48 z m -17.64,-51.12 v 5.76 h 41.76 v -5.76 z" transform="translate(0 283.15497814715013) translate(603.546004212052 64.6702896351819) scale(1.2077568181646618) translate(-582.69275 -68.88)"></path> 
   <path id="path9098" style="font-style: normal; font-weight: 500; font-size: 72px; line-height: 1; font-family: &quot;Raleway Medium Alt1&quot;; font-variant-ligatures: none; text-align: center; text-anchor: middle; fill: rgb(252, 124, 114);" d="m 668.28612,97.248 c -0.216,1.512 -0.504,3.024 -1.00799,4.464 -0.792,2.448 -1.94401,4.608 -3.456,6.48 -1.51201,1.872 -3.384,3.456 -5.472,4.608 -2.23201,1.152 -4.68001,1.728 -7.34401,1.728 -2.664,0 -5.03999,-0.504 -7.2,-1.656 -2.16,-1.08 -4.03199,-2.592 -5.544,-4.464 -1.58399,-1.872 -2.736,-3.96 -3.6,-6.408 -0.50399,-1.512 -0.86399,-3.096 -1.07999,-4.752 h -6.55201 c 0.216,2.304 0.72001,4.608 1.584,6.768 1.08,3.168 2.73601,5.904 4.89601,8.352 2.08799,2.448 4.60799,4.392 7.55999,5.832 2.952,1.44 6.264,2.16 9.864,2.16 3.456,0 6.62401,-0.648 9.57601,-2.088 2.952,-1.44 5.47199,-3.312 7.63199,-5.688 2.16001,-2.376 3.816,-5.112 5.04001,-8.28 0.86399,-2.232 1.43999,-4.608 1.72799,-7.056 z m -33.624,-10.152 c 0.792,-2.376 1.94401,-4.464 3.456,-6.408 1.51201,-1.872 3.384,-3.384 5.54401,-4.536 2.16,-1.152 4.60799,-1.728 7.34399,-1.728 2.52,0 4.896,0.576 7.05601,1.656 2.15999,1.152 3.95999,2.592 5.544,4.464 1.58399,1.872 2.73599,3.96 3.6,6.408 0.43199,1.296 0.79199,2.664 1.00799,3.96 h 6.552 c -0.288,-1.944 -0.792,-3.96 -1.43999,-5.832 -1.15201,-3.096 -2.808,-5.832 -4.89601,-8.352 -2.16,-2.448 -4.67999,-4.392 -7.55999,-5.904 -2.952,-1.512 -6.264,-2.304 -9.79201,-2.304 -3.528,0 -6.696,0.72 -9.648,2.16 -2.952,1.44 -5.472,3.312 -7.63199,5.688 -2.16001,2.448 -3.88801,5.184 -5.11201,8.28 -0.79199,2.088 -1.368,4.176 -1.584,6.264 h 6.55201 c 0.216,-1.224 0.576,-2.52 1.00799,-3.816 z" transform="translate(0 283.15497814715013) translate(660.7180355835353 64.23549718064264) scale(1.2077568181646618) translate(-627.03012 -68.52)"></path> 
   <path id="path9100" style="font-style: normal; font-weight: 500; font-size: 72px; line-height: 1; font-family: &quot;Raleway Medium Alt1&quot;; font-variant-ligatures: none; text-align: center; text-anchor: middle; fill: rgb(252, 124, 114);" d="m 706.1615,83.856 -22.896,45.288 h 7.2 l 25.704,-51.12 h -36.288 v 5.832 z" transform="translate(0 283.15497814715013) translate(728.1729205824406 75.71401798047957) scale(1.2077568181646618) translate(-679.8815 -78.024)"></path> 
  </g> 
  <g id="tagline" style="font-style:oblique;font-weight:600;font-size:32px;line-height:1;font-family:Raleway;font-variant-ligatures:none;text-align:center;text-anchor:middle"></g> 
 </g> 
</svg>