<svg xmlns:dc="http://purl.org/dc/elements/1.1/" xmlns:cc="http://creativecommons.org/ns#" xmlns:rdf="http://www.w3.org/1999/02/22-rdf-syntax-ns#" xmlns:svg="http://www.w3.org/2000/svg" xmlns="http://www.w3.org/2000/svg" id="svg270684" viewbox="0 0 1024 768" height="768px" width="1024px" version="1.1"> <metadata id="metadata270690"> 
  <rdf:rdf> 
   <cc:work rdf:about=""> 
    <dc:format>
     image/svg+xml
    </dc:format> 
    <dc:type rdf:resource="http://purl.org/dc/dcmitype/StillImage"></dc:type> 
   </cc:work> 
  </rdf:rdf> 
 </metadata> <defs id="defs270688"></defs> <g id="logo-group"> 
  <g id="title" style="font-style:normal;font-weight:700;font-size:72px;line-height:1;font-family:Jura;font-variant-ligatures:none;text-align:center;text-anchor:middle" aria-label="Securityo7"> 
   <path id="path270692" style="font-style: normal; font-weight: 700; font-size: 72px; line-height: 1; font-family: Jura; font-variant-ligatures: none; text-align: center; text-anchor: middle; fill: rgb(248, 248, 248);" d="m 331.26537,120 q -6.192,0 -9.648,-2.448 -3.38399,-2.52 -4.248,-7.704 -0.144,-1.512 0.64801,-2.304 0.79199,-0.864 2.30399,-0.864 1.44,0 2.16001,0.72 0.71999,0.648 1.00799,2.232 0.50401,2.448 2.23201,3.384 1.79999,0.936 5.54399,0.936 h 10.368 q 3.168,0 4.82401,-0.72 1.728,-0.72 2.44799,-2.376 0.72001,-1.728 0.72001,-4.824 0,-4.608 -1.72801,-6.336 -1.728,-1.728 -6.264,-1.728 h -8.928 q -6.768,0 -10.07999,-3.312 -3.31201,-3.312 -3.31201,-10.152 0,-6.768 3.24001,-10.008 3.31199,-3.312 10.07999,-3.312 h 8.568 q 11.37601,0 13.10401,9.504 0.21599,1.512 -0.57601,2.376 -0.792,0.792 -2.37599,0.792 -1.44001,0 -2.16001,-0.72 -0.71999,-0.72 -0.93599,-2.232 -0.57601,-2.088 -2.16001,-2.88 -1.584,-0.792 -4.896,-0.792 h -8.568 q -2.952,0 -4.536,0.648 -1.512,0.648 -2.16,2.232 -0.576,1.512 -0.576,4.392 0,2.952 0.648,4.536 0.648,1.512 2.16,2.232 1.584,0.648 4.536,0.648 h 8.928 q 7.128,0 10.584,3.456 3.45601,3.456 3.45601,10.656 0,7.128 -3.45601,10.584 -3.456,3.384 -10.584,3.384 z" transform="translate(0 267.92968083185366) translate(251.99999999999994 75.79811810725026) scale(1.3270133472023242) translate(-317.34722 -71.184)"></path> 
   <path id="path270694" style="font-style: normal; font-weight: 700; font-size: 72px; line-height: 1; font-family: Jura; font-variant-ligatures: none; text-align: center; text-anchor: middle; fill: rgb(248, 248, 248);" d="m 373.19862,104.232 v 1.728 q 0,3.168 0.72001,4.896 0.71999,1.656 2.44799,2.376 1.728,0.72 4.89601,0.72 h 5.90399 q 3.672,0 5.4,-0.648 1.8,-0.72 2.37601,-2.448 0.43199,-1.44 1.15199,-2.088 0.72,-0.72 2.08801,-0.72 1.368,0 2.08799,0.648 0.79201,0.576 0.79201,1.728 0,0.504 -0.072,0.72 -1.584,8.856 -13.82401,8.856 h -5.90399 q -7.2,0 -10.65601,-3.456 -3.456,-3.456 -3.456,-10.584 v -8.352 q 0,-7.272 3.456,-10.728 3.45601,-3.456 10.65601,-3.384 h 5.90399 q 7.2,0 10.65601,3.456 3.456,3.456 3.456,10.656 v 3.6 q 0,1.44 -0.79201,2.232 -0.792,0.792 -2.23199,0.792 z m 0,-6.048 h 22.03201 v -0.576 q 0,-3.168 -0.72001,-4.896 -0.72,-1.728 -2.44799,-2.448 -1.728,-0.72 -4.89601,-0.72 h -5.90399 q -3.16801,-0.072 -4.89601,0.648 -1.728,0.72 -2.44799,2.448 -0.72001,1.728 -0.72001,4.968 z" transform="translate(0 267.92968083185366) translate(318.0897765360562 92.13435705539821) scale(1.3270133472023242) translate(-367.15062 -83.494531)"></path> 
   <path id="path270696" style="font-style: normal; font-weight: 700; font-size: 72px; line-height: 1; font-family: Jura; font-variant-ligatures: none; text-align: center; text-anchor: middle; fill: rgb(248, 248, 248);" d="m 426.96575,120 q -7.2,0 -10.656,-3.456 -3.456,-3.456 -3.456,-10.656 v -8.352 q 0,-7.2 3.456,-10.656 3.456,-3.456 10.656,-3.384 h 5.904 q 10.656,0 12.384,7.344 0.072,0.288 0.072,0.72 0,1.152 -0.864,1.8 -0.792,0.648 -2.16,0.648 -1.296,0 -2.016,-0.648 -0.648,-0.648 -1.224,-2.088 -0.504,-0.936 -1.944,-1.296 -1.44,-0.432 -4.248,-0.432 h -5.904 q -3.168,-0.072 -4.896,0.648 -1.728,0.72 -2.448,2.448 -0.72,1.728 -0.72,4.896 v 8.352 q 0,3.168 0.72,4.896 0.72,1.728 2.448,2.448 1.728,0.72 4.896,0.72 h 5.904 q 2.808,0 4.248,-0.36 1.44,-0.432 1.944,-1.368 0.576,-1.512 1.224,-2.088 0.72,-0.648 2.088,-0.648 1.296,0 2.088,0.648 0.864,0.648 0.864,1.8 0,0.432 -0.072,0.72 -1.728,7.344 -12.384,7.344 z" transform="translate(0 267.92968083185366) translate(378.73844005497915 92.13435705539821) scale(1.3270133472023242) translate(-412.85375 -83.494531)"></path> 
   <path id="path270698" style="font-style: normal; font-weight: 700; font-size: 72px; line-height: 1; font-family: Jura; font-variant-ligatures: none; text-align: center; text-anchor: middle; fill: rgb(248, 248, 248);" d="m 486.85512,83.496 q 1.44,0 2.23201,0.792 0.79199,0.792 0.79199,2.232 v 30.456 q 0,3.024 -3.024,3.024 -3.024,0 -3.024,-3.024 v -1.224 Q 480.01512,120 472.59913,120 h -2.01601 q -7.2,0 -10.656,-3.456 -3.456,-3.456 -3.456,-10.656 V 86.52 q 0,-1.44 0.792,-2.232 0.792,-0.792 2.23201,-0.792 1.43999,0 2.23199,0.792 0.792,0.792 0.792,2.232 v 19.368 q 0,3.168 0.72,4.896 0.72,1.728 2.448,2.448 1.728,0.72 4.896,0.72 h 2.01601 q 4.536,0 7.632,-1.008 3.168,-1.08 3.59999,-3.096 V 86.52 q 0,-1.44 0.79201,-2.232 0.79199,-0.792 2.23199,-0.792 z" transform="translate(0 267.92968083185366) translate(436.61927221484143 92.13630643800524) scale(1.3270133472023242) translate(-456.47112 -83.496)"></path> 
   <path id="path270700" style="font-style: normal; font-weight: 700; font-size: 72px; line-height: 1; font-family: Jura; font-variant-ligatures: none; text-align: center; text-anchor: middle; fill: rgb(248, 248, 248);" d="m 523.871,83.496 q 1.44,0 2.232,0.792 0.792,0.792 0.792,2.232 0,1.44 -0.792,2.232 -0.792,0.792 -2.232,0.792 -6.12,0 -9.504,2.304 -3.312,2.232 -3.456,6.12 v 19.008 q 0,1.44 -0.792,2.232 -0.792,0.792 -2.232,0.792 -1.44,0 -2.232,-0.792 -0.792,-0.792 -0.792,-2.232 V 86.52 q 0,-3.024 3.024,-3.024 3.024,0 3.024,3.024 v 2.808 q 4.392,-5.832 12.96,-5.832 z" transform="translate(0 267.92968083185366) translate(500.8359428710546 92.13630643800524) scale(1.3270133472023242) translate(-504.863 -83.496)"></path> 
   <path id="path270702" style="font-style: normal; font-weight: 700; font-size: 72px; line-height: 1; font-family: Jura; font-variant-ligatures: none; text-align: center; text-anchor: middle; fill: rgb(248, 248, 248);" d="m 538.68387,120 q -1.44,0 -2.232,-0.792 -0.79199,-0.792 -0.79199,-2.232 V 86.52 q 0,-1.44 0.79199,-2.232 0.792,-0.792 2.232,-0.792 1.44,0 2.23201,0.792 0.79199,0.792 0.79199,2.232 v 30.456 q 0,1.44 -0.79199,2.232 -0.79201,0.792 -2.23201,0.792 z m -1.00799,-42.408 q -1.65601,0 -2.592,-0.936 -0.86401,-0.936 -0.86401,-2.52 v -2.16 q 0,-1.656 0.86401,-2.448 0.93599,-0.864 2.592,-0.864 h 2.08799 q 3.24,0 3.24,3.312 v 2.16 q 0,1.656 -0.864,2.592 -0.79199,0.864 -2.376,0.864 z" transform="translate(0 267.92968083185366) translate(539.7929011931382 72.4540444723004) scale(1.3270133472023242) translate(-534.21987 -68.664)"></path> 
   <path id="path270704" style="font-style: normal; font-weight: 700; font-size: 72px; line-height: 1; font-family: Jura; font-variant-ligatures: none; text-align: center; text-anchor: middle; fill: rgb(248, 248, 248);" d="m 572.16162,113.952 q 3.024,0 3.024,3.024 0,1.44 -0.79199,2.232 -0.792,0.792 -2.23201,0.792 -7.12799,0 -10.51199,-3.384 -3.38401,-3.384 -3.38401,-10.44 V 89.544 h -3.528 q -1.43999,0 -2.232,-0.792 -0.792,-0.792 -0.792,-2.232 0,-3.024 3.024,-3.024 h 3.528 V 78.24 q 0,-1.44 0.79201,-2.232 0.79199,-0.792 2.23199,-0.792 1.44001,0 2.232,0.792 0.792,0.792 0.792,2.232 v 5.256 h 8.28 q 3.024,0 3.024,3.024 0,1.44 -0.792,2.232 -0.79199,0.792 -2.232,0.792 h -8.28 v 16.632 q 0,3.096 0.72001,4.752 0.72,1.656 2.37599,2.376 1.656,0.648 4.752,0.648 z" transform="translate(0 267.92968083185366) translate(563.0073409357587 81.14863592317) scale(1.3270133472023242) translate(-551.71362 -75.216)"></path> 
   <path id="path270706" style="font-style: normal; font-weight: 700; font-size: 72px; line-height: 1; font-family: Jura; font-variant-ligatures: none; text-align: center; text-anchor: middle; fill: rgb(248, 248, 248);" d="m 596.636,134.4 q -10.368,0 -10.368,-10.44 0,-3.024 3.024,-3.024 3.024,0 3.024,3.024 0,2.736 0.792,3.528 0.864,0.864 3.528,0.864 h 13.968 q 2.664,0 3.456,-0.864 0.864,-0.864 0.864,-3.528 v -9.144 q -2.016,3.024 -4.752,4.104 -2.664,1.08 -6.48,1.08 h -3.528 q -7.128,0 -10.512,-3.384 -3.384,-3.384 -3.384,-10.44 V 86.52 q 0,-3.024 3.024,-3.024 3.024,0 3.024,3.024 v 19.656 q 0,3.096 0.648,4.752 0.72,1.656 2.376,2.376 1.728,0.648 4.824,0.648 h 3.528 q 5.832,0 8.496,-1.872 2.736,-1.944 2.736,-5.904 V 86.52 q 0,-3.024 3.024,-3.024 3.024,0 3.024,3.024 v 37.44 q 0,10.44 -10.368,10.44 z" transform="translate(0 267.92968083185366) translate(608.8614644000598 92.13630643800524) scale(1.3270133472023242) translate(-586.268 -83.496)"></path> 
   <path id="path270708" style="font-style: normal; font-weight: 700; font-size: 72px; line-height: 1; font-family: Jura; font-variant-ligatures: none; text-align: center; text-anchor: middle; fill: rgb(103, 177, 37);" d="m 648.3095,120 q -7.2,0 -10.656,-3.456 -3.456,-3.456 -3.456,-10.584 v -8.352 q 0,-7.2 3.456,-10.656 3.456,-3.456 10.656,-3.456 h 5.904 q 7.2,0 10.656,3.456 3.456,3.456 3.456,10.656 v 8.28 q 0,7.2 -3.456,10.656 -3.456,3.456 -10.656,3.456 z m 5.904,-6.048 q 3.168,0 4.896,-0.72 1.728,-0.72 2.448,-2.448 0.72,-1.728 0.72,-4.896 v -8.28 q 0,-3.168 -0.72,-4.896 -0.72,-1.728 -2.448,-2.448 -1.728,-0.72 -4.896,-0.72 h -5.904 q -3.24,0 -4.968,0.72 -1.656,0.72 -2.376,2.448 -0.72,1.656 -0.72,4.896 v 8.352 q 0,3.168 0.72,4.896 0.72,1.656 2.448,2.376 1.728,0.72 4.896,0.72 z" transform="translate(0 267.92968083185366) translate(672.4645506247936 92.13630643800524) scale(1.3270133472023242) translate(-634.1975 -83.496)"></path> 
   <path id="path270710" style="font-style: normal; font-weight: 700; font-size: 72px; line-height: 1; font-family: Jura; font-variant-ligatures: none; text-align: center; text-anchor: middle; fill: rgb(103, 177, 37);" d="m 688.25262,120 q -1.43999,0 -2.232,-0.792 -0.792,-0.792 -0.72,-2.376 0.144,-7.416 1.22401,-11.952 1.08,-4.536 3.312,-7.56 2.23199,-3.024 6.336,-5.904 3.312,-2.592 4.96799,-5.904 1.656,-3.384 1.944,-8.28 h -22.752 q -1.44,0 -2.23199,-0.792 -0.79201,-0.792 -0.79201,-2.232 0,-1.44 0.79201,-2.232 0.79199,-0.792 2.23199,-0.792 h 25.848 q 1.44001,0 2.23201,0.792 0.79199,0.792 0.79199,2.232 0,7.704 -2.304,13.032 -2.23199,5.328 -7.2,9.072 -3.31199,2.304 -5.04,4.68 -1.65599,2.376 -2.448,6.048 -0.72,3.6 -0.864,9.792 -0.144,3.168 -3.096,3.168 z" transform="translate(0 267.92968083185366) translate(729.6735822776345 75.79811810725026) scale(1.3270133472023242) translate(-677.30862 -71.184)"></path> 
  </g> 
  <g id="tagline" style="font-style:normal;font-weight:500;font-size:32px;line-height:1;font-family:Roboto;font-variant-ligatures:none;text-align:center;text-anchor:middle"></g> 
 </g> 
</svg>