<svg xmlns:dc="http://purl.org/dc/elements/1.1/" xmlns:cc="http://creativecommons.org/ns#" xmlns:rdf="http://www.w3.org/1999/02/22-rdf-syntax-ns#" xmlns:svg="http://www.w3.org/2000/svg" xmlns="http://www.w3.org/2000/svg" id="svg19767" viewbox="0 0 1024 768" height="768px" width="1024px" version="1.1"> <metadata id="metadata19773"> 
  <rdf:rdf> 
   <cc:work rdf:about=""> 
    <dc:format>
     image/svg+xml
    </dc:format> 
    <dc:type rdf:resource="http://purl.org/dc/dcmitype/StillImage"></dc:type> 
   </cc:work> 
  </rdf:rdf> 
 </metadata> <defs id="defs19771"></defs> <g id="logo-group"> 
  <g id="title" style="font-style:normal;font-weight:700;font-size:72px;line-height:1;font-family:'Comfortaa Bold Alt2';font-variant-ligatures:none;text-align:center;text-anchor:middle" aria-label="Semiformalo7"> 
   <path id="path19775" style="font-style: normal; font-weight: 700; font-size: 72px; line-height: 1; font-family: &quot;Comfortaa Bold Alt2&quot;; font-variant-ligatures: none; text-align: center; text-anchor: middle; fill: rgb(255, 255, 255);" d="m 292.70713,65.64 c -2.88,-1.656 -6.33601,-2.52 -10.44,-2.52 -3.81601,0 -7.272,0.648 -10.296,1.8 -3.024,1.152 -5.47201,2.88 -7.20001,5.112 -1.728,2.232 -2.592,4.896 -2.592,7.92 0,4.392 1.656,8.064 5.11201,10.944 3.38399,2.88 8.06399,4.608 14.03999,5.184 4.32,0.432 7.488,1.656 9.648,3.6 2.08801,1.944 3.16801,4.248 3.16801,6.984 0,2.88 -1.296,5.184 -3.74401,6.84 -2.52,1.656 -5.544,2.448 -9.144,2.448 -3.096,0 -5.904,-0.648 -8.424,-1.944 -2.59199,-1.296 -4.24799,-2.88 -5.112,-4.752 -0.35999,-0.72 -0.864,-1.368 -1.584,-1.8 -0.72,-0.432 -1.44,-0.72 -2.16,-0.72 -0.36,0 -0.576,0.072 -0.72,0.072 -0.936,0.216 -1.656,0.576 -2.15999,1.152 -0.57601,0.576 -0.79201,1.152 -0.79201,1.872 0,0.432 0.072,0.864 0.36,1.44 1.44,3.456 4.032,6.192 7.848,8.28 3.816,2.16 8.064,3.168 12.744,3.168 3.528,0 6.84001,-0.576 9.93601,-1.8 3.096,-1.224 5.61599,-3.096 7.488,-5.544 1.87199,-2.448 2.80799,-5.472 2.80799,-8.928 0,-4.752 -1.584,-8.568 -4.752,-11.448 -3.168,-2.88 -7.632,-4.68 -13.392,-5.256 -5.184,-0.504 -8.78399,-1.584 -10.8,-3.312 -2.016,-1.656 -3.024,-3.744 -3.024,-6.264 0,-2.664 1.08,-4.68 3.384,-6.12 2.232,-1.44 5.184,-2.16 8.856,-2.16 2.952,0 5.4,0.576 7.344,1.728 1.94401,1.152 3.60001,2.736 4.896,4.896 0.28801,0.648 0.792,1.152 1.44,1.512 0.57601,0.36 1.296,0.504 2.01601,0.504 0.71999,0 1.296,-0.144 1.87199,-0.504 0.93601,-0.648 1.44,-1.512 1.44,-2.592 0,-0.792 -0.288,-1.656 -0.864,-2.592 -2.016,-3.096 -4.392,-5.472 -7.19999,-7.2 z" transform="translate(0 302.5331529511015) translate(251.9999999999999 51.83128139389114) scale(1.0290126963544224) translate(-260.30712 -63.12)"></path> 
   <path id="path19777" style="font-style: normal; font-weight: 700; font-size: 72px; line-height: 1; font-family: &quot;Comfortaa Bold Alt2&quot;; font-variant-ligatures: none; text-align: center; text-anchor: middle; fill: rgb(255, 255, 255);" d="m 329.10312,120.288 c 4.752,0 8.928,-1.44 12.6,-4.464 0.79201,-0.576 1.152,-1.368 1.296,-2.304 0.072,-1.008 -0.144,-1.8 -0.79199,-2.592 -0.57601,-0.72 -1.36801,-1.152 -2.30401,-1.224 -0.936,-0.072 -1.8,0.144 -2.52,0.792 -2.44799,1.944 -5.184,2.88 -8.28,2.88 -3.6,0 -6.696,-1.224 -9.21599,-3.816 -2.59201,-2.52 -3.81601,-5.616 -3.81601,-9.216 0,-3.6 1.224,-6.696 3.81601,-9.288 2.51999,-2.52 5.61599,-3.816 9.21599,-3.816 2.952,0 5.61601,0.936 7.992,2.736 2.30401,1.8 3.816,4.104 4.608,6.912 h -12.6 c -0.936,0 -1.79999,0.36 -2.448,1.008 -0.648,0.648 -1.00799,1.512 -1.00799,2.448 0,0.936 0.35999,1.8 1.00799,2.448 0.64801,0.648 1.512,1.008 2.448,1.008 h 16.56 c 0.93601,0 1.728,-0.36 2.37601,-1.008 0.71999,-0.648 1.07999,-1.512 1.07999,-2.448 0,-5.544 -2.016,-10.224 -5.904,-14.112 -3.88799,-3.888 -8.56799,-5.904 -14.112,-5.904 -5.544,0 -10.224,2.016 -14.112,5.904 -3.888,3.888 -5.83199,8.568 -5.83199,14.112 0,5.544 1.94399,10.224 5.83199,14.112 3.888,3.888 8.568,5.832 14.112,5.832 z" transform="translate(0 302.5331529511015) translate(302.26933853243304 69.53853187275803) scale(1.0290126963544224) translate(-309.15913 -80.328)"></path> 
   <path id="path19779" style="font-style: normal; font-weight: 700; font-size: 72px; line-height: 1; font-family: &quot;Comfortaa Bold Alt2&quot;; font-variant-ligatures: none; text-align: center; text-anchor: middle; fill: rgb(255, 255, 255);" d="m 407.58987,83.856 c -3.024,-3.024 -6.696,-4.536 -11.016,-4.536 -4.32,0 -7.99199,1.512 -11.016,4.536 -0.36,0.36 -0.648,0.72 -1.008,1.08 -0.28799,-0.36 -0.64799,-0.72 -0.936,-1.08 -3.096,-3.024 -6.768,-4.536 -11.088,-4.536 -4.32,0 -7.99199,1.512 -11.01599,4.536 -3.024,3.096 -4.536,6.768 -4.536,11.088 v 21.6 c 0,1.008 0.28799,1.8 1.00799,2.52 0.72,0.72 1.584,1.08 2.592,1.08 0.93601,0 1.8,-0.36 2.52001,-1.08 0.71999,-0.72 1.07999,-1.512 1.07999,-2.52 v -21.6 c 0,-2.304 0.792,-4.32 2.448,-5.976 1.656,-1.656 3.6,-2.448 5.904,-2.448 2.37601,0 4.32,0.792 5.976,2.448 1.656,1.656 2.44801,3.672 2.44801,5.976 v 21.6 c 0,1.008 0.35999,1.8 1.07999,2.52 0.72,0.72 1.512,1.08 2.52,1.08 1.008,0 1.872,-0.36 2.52001,-1.08 0.71999,-0.72 1.07999,-1.512 1.07999,-2.52 v -21.6 c 0,-1.512 0.36001,-2.952 1.152,-4.248 0.72001,-1.296 1.728,-2.304 3.024,-3.024 1.296,-0.792 2.736,-1.152 4.248,-1.152 2.30401,0 4.32,0.792 5.904,2.448 1.656,1.656 2.52001,3.672 2.52001,5.976 v 21.6 c 0,1.008 0.288,1.8 1.00799,2.52 0.72,0.72 1.584,1.08 2.592,1.08 0.93601,0 1.8,-0.36 2.52001,-1.08 0.71999,-0.72 1.07999,-1.512 1.07999,-2.52 v -21.6 c 0,-4.32 -1.584,-7.992 -4.608,-11.088 z" transform="translate(0 302.5331529511015) translate(351.4713233554457 68.50128707483276) scale(1.0290126963544224) translate(-356.97388 -79.32)"></path> 
   <path id="path19781" style="font-style: normal; font-weight: 700; font-size: 72px; line-height: 1; font-family: &quot;Comfortaa Bold Alt2&quot;; font-variant-ligatures: none; text-align: center; text-anchor: middle; fill: rgb(255, 255, 255);" d="m 426.12988,81.624 c -0.72001,0.72 -1.00801,1.584 -1.00801,2.664 v 32.04 c 0,1.08 0.288,1.944 1.00801,2.664 0.71999,0.72 1.584,1.008 2.664,1.008 1.07999,0 1.94399,-0.288 2.66399,-1.008 0.64801,-0.72 1.008,-1.584 1.008,-2.664 v -32.04 c 0,-1.08 -0.35999,-1.944 -1.008,-2.664 -0.72,-0.648 -1.584,-1.008 -2.66399,-1.008 -1.08,0 -1.94401,0.36 -2.664,1.008 z m 5.976,-15.48 c -0.93601,-0.936 -2.01601,-1.44 -3.312,-1.44 -1.296,0 -2.44801,0.504 -3.38401,1.44 -0.93599,0.936 -1.368,2.016 -1.368,3.312 0,1.296 0.43201,2.448 1.368,3.384 0.936,0.936 2.08801,1.368 3.38401,1.368 1.29599,0 2.37599,-0.432 3.312,-1.368 0.93599,-0.936 1.44,-2.088 1.44,-3.384 0,-1.296 -0.50401,-2.376 -1.44,-3.312 z" transform="translate(0 302.5331529511015) translate(420.48513658441715 53.46123750491655) scale(1.0290126963544224) translate(-424.04187 -64.704)"></path> 
   <path id="path19783" style="font-style: normal; font-weight: 700; font-size: 72px; line-height: 1; font-family: &quot;Comfortaa Bold Alt2&quot;; font-variant-ligatures: none; text-align: center; text-anchor: middle; fill: rgb(218, 211, 208);" d="m 461.75075,70.68 c 1.008,0 1.8,-0.288 2.52,-1.008 0.72,-0.72 1.08,-1.584 1.08,-2.592 0,-1.008 -0.36,-1.8 -1.08,-2.52 -0.72,-0.72 -1.512,-1.08 -2.52,-1.08 -4.104,0 -7.56,1.44 -10.44,4.32 -2.88,2.88 -4.32,6.408 -4.32,10.44 v 38.304 c 0,1.008 0.288,1.872 1.008,2.592 0.72,0.72 1.584,1.008 2.592,1.008 1.008,0 1.8,-0.288 2.52,-1.008 0.72,-0.72 1.08,-1.584 1.08,-2.592 V 88.392 h 7.2 c 0.864,0 1.656,-0.288 2.304,-0.936 0.576,-0.576 0.936,-1.368 0.936,-2.304 0,-0.864 -0.36,-1.656 -0.936,-2.304 -0.648,-0.576 -1.44,-0.936 -2.304,-0.936 h -7.2 V 78.24 c 0,-2.016 0.72,-3.816 2.232,-5.328 1.44,-1.44 3.24,-2.232 5.328,-2.232 z" transform="translate(0 302.5331529511015) translate(444.0998254715312 52.201725964578735) scale(1.0290126963544224) translate(-446.99075 -63.48)"></path> 
   <path id="path19785" style="font-style: normal; font-weight: 700; font-size: 72px; line-height: 1; font-family: &quot;Comfortaa Bold Alt2&quot;; font-variant-ligatures: none; text-align: center; text-anchor: middle; fill: rgb(218, 211, 208);" d="m 489.014,120.288 c 5.544,0 10.224,-1.944 14.112,-5.832 3.888,-3.888 5.904,-8.568 5.904,-14.112 0,-5.544 -2.016,-10.224 -5.904,-14.112 -3.888,-3.888 -8.568,-5.904 -14.112,-5.904 -5.544,0 -10.224,2.016 -14.112,5.904 -3.888,3.888 -5.832,8.568 -5.832,14.112 0,5.544 1.944,10.224 5.832,14.112 3.888,3.888 8.568,5.832 14.112,5.832 z m 0,-33.048 c 3.6,0 6.696,1.296 9.288,3.816 2.52,2.592 3.816,5.688 3.816,9.288 0,3.6 -1.296,6.696 -3.816,9.216 -2.592,2.592 -5.688,3.816 -9.288,3.816 -3.6,0 -6.696,-1.224 -9.216,-3.816 -2.592,-2.52 -3.816,-5.616 -3.816,-9.216 0,-3.6 1.224,-6.696 3.816,-9.288 2.52,-2.52 5.616,-3.816 9.216,-3.816 z" transform="translate(0 302.5331529511015) translate(466.8196540475146 69.53853187275803) scale(1.0290126963544224) translate(-469.07 -80.328)"></path> 
   <path id="path19787" style="font-style: normal; font-weight: 700; font-size: 72px; line-height: 1; font-family: &quot;Comfortaa Bold Alt2&quot;; font-variant-ligatures: none; text-align: center; text-anchor: middle; fill: rgb(218, 211, 208);" d="m 541.84625,79.536 c -6.048,0 -11.16,2.16 -15.48,6.408 -4.248,4.248 -6.336,9.36 -6.336,15.408 v 15.192 c 0,1.008 0.288,1.8 1.008,2.448 0.648,0.72 1.44,1.008 2.448,1.008 0.936,0 1.728,-0.288 2.376,-1.008 0.72,-0.648 1.08,-1.44 1.08,-2.448 v -15.192 c 0,-4.104 1.44,-7.632 4.32,-10.512 2.952,-2.952 6.48,-4.392 10.584,-4.392 0.936,0 1.728,-0.36 2.448,-1.008 0.648,-0.72 1.008,-1.512 1.008,-2.448 0,-0.936 -0.36,-1.8 -1.008,-2.448 -0.72,-0.648 -1.512,-1.008 -2.448,-1.008 z" transform="translate(0 302.5331529511015) translate(519.2583983069101 68.72355381724532) scale(1.0290126963544224) translate(-520.03025 -79.536)"></path> 
   <path id="path19789" style="font-style: normal; font-weight: 700; font-size: 72px; line-height: 1; font-family: &quot;Comfortaa Bold Alt2&quot;; font-variant-ligatures: none; text-align: center; text-anchor: middle; fill: rgb(218, 211, 208);" d="m 605.58987,83.856 c -3.024,-3.024 -6.696,-4.536 -11.01599,-4.536 -4.32001,0 -7.99201,1.512 -11.01601,4.536 -0.36,0.36 -0.64799,0.72 -1.00799,1.08 -0.288,-0.36 -0.648,-0.72 -0.93601,-1.08 -3.096,-3.024 -6.768,-4.536 -11.08799,-4.536 -4.32001,0 -7.99201,1.512 -11.01601,4.536 -3.024,3.096 -4.53599,6.768 -4.53599,11.088 v 21.6 c 0,1.008 0.288,1.8 1.00799,2.52 0.72,0.72 1.584,1.08 2.59201,1.08 0.93599,0 1.79999,-0.36 2.52,-1.08 0.72,-0.72 1.07999,-1.512 1.07999,-2.52 v -21.6 c 0,-2.304 0.792,-4.32 2.44801,-5.976 1.65599,-1.656 3.59999,-2.448 5.904,-2.448 2.376,0 4.31999,0.792 5.976,2.448 1.65599,1.656 2.448,3.672 2.448,5.976 v 21.6 c 0,1.008 0.36,1.8 1.07999,2.52 0.72,0.72 1.512,1.08 2.52001,1.08 1.00799,0 1.87199,-0.36 2.52,-1.08 0.72,-0.72 1.07999,-1.512 1.07999,-2.52 v -21.6 c 0,-1.512 0.36,-2.952 1.152,-4.248 0.72001,-1.296 1.728,-2.304 3.024,-3.024 1.29601,-0.792 2.736,-1.152 4.24801,-1.152 2.304,0 4.31999,0.792 5.904,2.448 1.65599,1.656 2.52,3.672 2.52,5.976 v 21.6 c 0,1.008 0.288,1.8 1.008,2.52 0.71999,0.72 1.58399,1.08 2.592,1.08 0.93599,0 1.79999,-0.36 2.52,-1.08 0.71999,-0.72 1.07999,-1.512 1.07999,-2.52 v -21.6 c 0,-4.32 -1.584,-7.992 -4.608,-11.088 z" transform="translate(0 302.5331529511015) translate(555.2158372336213 68.50128707483276) scale(1.0290126963544224) translate(-554.97388 -79.32)"></path> 
   <path id="path19791" style="font-style: normal; font-weight: 700; font-size: 72px; line-height: 1; font-family: &quot;Comfortaa Bold Alt2&quot;; font-variant-ligatures: none; text-align: center; text-anchor: middle; fill: rgb(218, 211, 208);" d="m 654.22587,86.232 c -3.88799,-3.888 -8.568,-5.904 -14.112,-5.904 -5.47199,0 -10.224,2.016 -14.11199,5.904 -3.88801,3.888 -5.832,8.568 -5.832,14.112 0,5.544 1.94399,10.224 5.832,14.112 3.88799,3.888 8.64,5.832 14.11199,5.832 4.968,0 9.36001,-1.584 13.10401,-4.824 v 1.368 c 0,1.008 0.288,1.8 1.00799,2.448 0.648,0.72 1.44001,1.008 2.448,1.008 0.936,0 1.72801,-0.288 2.44801,-1.008 0.64799,-0.648 1.00799,-1.44 1.00799,-2.448 v -16.488 c 0,-5.544 -1.944,-10.224 -5.904,-14.112 z m -14.112,27.144 c -3.6,0 -6.696,-1.224 -9.216,-3.816 -2.59199,-2.52 -3.816,-5.616 -3.816,-9.216 0,-3.6 1.22401,-6.696 3.816,-9.216 2.52,-2.592 5.616,-3.888 9.216,-3.888 3.60001,0 6.69601,1.296 9.21601,3.888 2.59199,2.52 3.888,5.616 3.888,9.216 0,3.6 -1.29601,6.696 -3.888,9.216 -2.52,2.592 -5.616,3.816 -9.21601,3.816 z" transform="translate(0 302.5331529511015) translate(622.3033489851443 69.53853187275803) scale(1.0290126963544224) translate(-620.16988 -80.328)"></path> 
   <path id="path19793" style="font-style: normal; font-weight: 700; font-size: 72px; line-height: 1; font-family: &quot;Comfortaa Bold Alt2&quot;; font-variant-ligatures: none; text-align: center; text-anchor: middle; fill: rgb(218, 211, 208);" d="m 670.62612,64.776 c -0.72,0.72 -1.008,1.584 -1.008,2.592 v 39.312 c 0,2.592 0.432,4.896 1.36801,6.912 0.864,2.016 2.15999,3.6 3.816,4.752 1.65599,1.152 3.52799,1.656 5.616,1.656 h 0.144 c 1.43999,0 2.592,-0.288 3.52799,-1.008 0.864,-0.648 1.368,-1.512 1.368,-2.592 0,-1.008 -0.36,-1.872 -0.936,-2.592 -0.57599,-0.648 -1.36799,-1.008 -2.304,-1.008 h -1.79999 c -1.08001,0 -1.94401,-0.576 -2.592,-1.728 -0.72,-1.152 -1.00801,-2.592 -1.00801,-4.392 V 67.368 c 0,-1.008 -0.36,-1.872 -1.008,-2.592 -0.72,-0.648 -1.58399,-1.008 -2.592,-1.008 -1.08,0 -1.94399,0.36 -2.592,1.008 z" transform="translate(0 302.5331529511015) translate(673.1862157575249 52.49808162112881) scale(1.0290126963544224) translate(-669.61812 -63.768)"></path> 
   <path id="path19795" style="font-style: normal; font-weight: 700; font-size: 72px; line-height: 1; font-family: &quot;Comfortaa Bold Alt2&quot;; font-variant-ligatures: none; text-align: center; text-anchor: middle; fill: rgb(186, 172, 169);" d="m 708.389,120.288 c 5.544,0 10.224,-1.944 14.112,-5.832 3.888,-3.888 5.904,-8.568 5.904,-14.112 0,-5.544 -2.016,-10.224 -5.904,-14.112 -3.888,-3.888 -8.568,-5.904 -14.112,-5.904 -5.544,0 -10.224,2.016 -14.112,5.904 -3.888,3.888 -5.832,8.568 -5.832,14.112 0,5.544 1.944,10.224 5.832,14.112 3.888,3.888 8.568,5.832 14.112,5.832 z m 0,-33.048 c 3.6,0 6.696,1.296 9.288,3.816 2.52,2.592 3.816,5.688 3.816,9.288 0,3.6 -1.296,6.696 -3.816,9.216 -2.592,2.592 -5.688,3.816 -9.288,3.816 -3.6,0 -6.696,-1.224 -9.216,-3.816 -2.592,-2.52 -3.816,-5.616 -3.816,-9.216 0,-3.6 1.224,-6.696 3.816,-9.288 2.52,-2.52 5.616,-3.816 9.216,-3.816 z" transform="translate(0 302.5331529511015) translate(692.5593143102661 69.53853187275803) scale(1.0290126963544224) translate(-688.445 -80.328)"></path> 
   <path id="path19797" style="font-style: normal; font-weight: 700; font-size: 72px; line-height: 1; font-family: &quot;Comfortaa Bold Alt2&quot;; font-variant-ligatures: none; text-align: center; text-anchor: middle; fill: rgb(186, 172, 169);" d="m 731.87788,70.104 c 0.72,0.72 1.58399,1.008 2.66399,1.008 h 21.88801 l -20.664,42.912 c -0.432,0.864 -0.648,1.656 -0.648,2.304 0,1.008 0.36,1.872 1.07999,2.592 0.72,0.72 1.512,1.08 2.52001,1.08 0.64799,0 1.29599,-0.144 1.94399,-0.504 0.57601,-0.36 1.08001,-0.864 1.44,-1.512 l 23.04001,-48.6 c 0.288,-0.72 0.504,-1.368 0.504,-1.944 0,-1.008 -0.36,-1.872 -1.08001,-2.592 -0.72,-0.72 -1.584,-1.08 -2.59199,-1.08 h -27.43201 c -1.08,0 -1.94399,0.36 -2.66399,1.08 -0.72001,0.72 -1.00801,1.584 -1.00801,2.592 0,1.08 0.288,1.944 1.00801,2.664 z" transform="translate(0 302.5331529511015) translate(736.2150441814518 52.49808162112881) scale(1.0290126963544224) translate(-730.86987 -63.768)"></path> 
  </g> 
  <g id="tagline" style="font-style:normal;font-weight:500;font-size:32px;line-height:1;font-family:Raleway;font-variant-ligatures:none;text-align:center;text-anchor:middle"></g> 
 </g> 
</svg>