<svg xmlns:dc="http://purl.org/dc/elements/1.1/" xmlns:cc="http://creativecommons.org/ns#" xmlns:rdf="http://www.w3.org/1999/02/22-rdf-syntax-ns#" xmlns:svg="http://www.w3.org/2000/svg" xmlns="http://www.w3.org/2000/svg" id="svg60875" viewbox="0 0 1024 768" height="768px" width="1024px" version="1.1"> <metadata id="metadata60881"> 
  <rdf:rdf> 
   <cc:work rdf:about=""> 
    <dc:format>
     image/svg+xml
    </dc:format> 
    <dc:type rdf:resource="http://purl.org/dc/dcmitype/StillImage"></dc:type> 
   </cc:work> 
  </rdf:rdf> 
 </metadata> <defs id="defs60879"></defs> <g id="logo-group"> 
  <g id="title" style="font-style:normal;font-weight:300;font-size:72px;line-height:1;font-family:'Montserrat Light Alt1';font-variant-ligatures:none;text-align:center;text-anchor:middle" aria-label="Simpleo7"> 
   <path id="path60883" style="font-style: normal; font-weight: 300; font-size: 72px; line-height: 1; font-family: &quot;Montserrat Light Alt1&quot;; font-variant-ligatures: none; text-align: center; text-anchor: middle; fill: rgb(245, 238, 211);" d="m 356.3855,118.488 c 3.312,1.296 6.84,1.872 10.584,1.872 3.96,0 7.344,-0.576 10.08,-1.8 2.736,-1.152 4.752,-2.808 6.048,-4.824 1.296,-2.016 2.016,-4.248 2.016,-6.696 0,-2.952 -0.792,-5.328 -2.376,-7.056 -1.584,-1.728 -3.456,-3.096 -5.616,-3.96 -2.232,-0.864 -5.184,-1.728 -8.856,-2.664 -3.312,-0.792 -5.976,-1.584 -7.848,-2.304 -1.944,-0.72 -3.528,-1.728 -4.824,-3.096 -1.296,-1.296 -1.944,-3.096 -1.944,-5.4 0,-2.952 1.152,-5.4 3.6,-7.272 2.376,-1.872 5.904,-2.808 10.584,-2.808 2.304,0 4.68,0.36 7.128,1.08 2.448,0.72 4.68,1.8 6.696,3.168 l 1.368,-2.952 c -2.016,-1.368 -4.32,-2.448 -6.984,-3.312 -2.736,-0.792 -5.472,-1.224 -8.208,-1.224 -4.032,0 -7.344,0.648 -10.008,1.8 -2.664,1.224 -4.608,2.88 -5.904,4.896 -1.296,2.016 -1.944,4.248 -1.944,6.696 0,3.024 0.72,5.472 2.304,7.272 1.584,1.8 3.456,3.096 5.688,3.96 2.232,0.864 5.184,1.8 8.928,2.664 3.24,0.792 5.832,1.512 7.776,2.232 1.872,0.72 3.528,1.8 4.824,3.096 1.296,1.368 1.944,3.168 1.944,5.4 0,2.952 -1.224,5.328 -3.672,7.128 -2.448,1.872 -6.12,2.736 -10.872,2.736 -3.312,0 -6.48,-0.576 -9.504,-1.728 -3.024,-1.152 -5.4,-2.736 -7.128,-4.608 l -1.656,2.736 c 1.872,2.016 4.464,3.672 7.776,4.968 z" transform="translate(0 241.25816704279273) translate(251.9999999999999 93.43643371985232) scale(1.5888566395125983) translate(-348.6095 -69.24)"></path> 
   <path id="path60885" style="font-style: normal; font-weight: 300; font-size: 72px; line-height: 1; font-family: &quot;Montserrat Light Alt1&quot;; font-variant-ligatures: none; text-align: center; text-anchor: middle; fill: rgb(245, 238, 211);" d="M 396.4445,82.416 V 120 h 3.6 V 82.416 Z m -0.288,-9.936 c 0.576,0.576 1.224,0.792 2.088,0.792 0.792,0 1.512,-0.288 2.088,-0.864 0.576,-0.576 0.864,-1.224 0.864,-2.088 0,-0.792 -0.288,-1.44 -0.864,-2.016 -0.576,-0.576 -1.296,-0.864 -2.088,-0.864 -0.864,0 -1.512,0.288 -2.088,0.864 -0.576,0.576 -0.864,1.296 -0.864,2.088 0,0.864 0.288,1.512 0.864,2.088 z" transform="translate(0 241.25816704279273) translate(326.17259450236645 90.57649176872962) scale(1.5888566395125983) translate(-395.2925 -67.44)"></path> 
   <path id="path60887" style="font-style: normal; font-weight: 300; font-size: 72px; line-height: 1; font-family: &quot;Montserrat Light Alt1&quot;; font-variant-ligatures: none; text-align: center; text-anchor: middle; fill: rgb(245, 238, 211);" d="m 473.03225,86.232 c -2.664,-2.736 -6.336,-4.104 -10.944,-4.104 -3.6,0 -6.696,0.864 -9.36,2.448 -2.664,1.656 -4.608,3.888 -5.832,6.624 -1.008,-2.952 -2.736,-5.184 -5.112,-6.768 -2.376,-1.512 -5.256,-2.304 -8.64,-2.304 -3.456,0 -6.408,0.792 -8.856,2.232 -2.448,1.44 -4.32,3.528 -5.544,6.12 v -8.064 h -3.456 V 120 h 3.6 V 99.984 c 0,-4.464 1.224,-7.992 3.672,-10.656 2.448,-2.592 5.832,-3.96 10.08,-3.96 3.672,0 6.552,1.152 8.64,3.312 2.016,2.232 3.096,5.472 3.096,9.648 V 120 h 3.6 V 99.984 c 0,-4.464 1.224,-7.992 3.672,-10.656 2.448,-2.592 5.832,-3.96 10.08,-3.96 3.672,0 6.552,1.152 8.64,3.312 2.016,2.232 3.096,5.472 3.096,9.648 V 120 h 3.6 V 98.04 c 0,-5.112 -1.368,-9.072 -4.032,-11.808 z" transform="translate(0 241.25816704279273) translate(357.94297465190044 113.91361808989069) scale(1.5888566395125983) translate(-415.28825 -82.128)"></path> 
   <path id="path60889" style="font-style: normal; font-weight: 300; font-size: 72px; line-height: 1; font-family: &quot;Montserrat Light Alt1&quot;; font-variant-ligatures: none; text-align: center; text-anchor: middle; fill: rgb(245, 238, 211);" d="m 520.29687,84.576 c -2.88,-1.584 -6.048,-2.448 -9.504,-2.448 -3.38399,0 -6.40799,0.864 -9.144,2.448 -2.736,1.584 -4.82399,3.816 -6.26399,6.696 v -8.856 h -3.45601 v 51.552 h 3.6 v -22.536 c 1.44001,2.808 3.528,4.968 6.264,6.552 2.66401,1.584 5.68801,2.304 9,2.304 3.456,0 6.624,-0.792 9.504,-2.376 2.808,-1.584 5.04,-3.888 6.62401,-6.768 1.58399,-2.88 2.44799,-6.192 2.44799,-9.936 0,-3.672 -0.864,-6.984 -2.44799,-9.864 -1.58401,-2.88 -3.81601,-5.112 -6.62401,-6.768 z m -1.94399,30.456 c -2.30401,1.368 -4.89601,2.016 -7.77601,2.016 -2.88,0 -5.472,-0.648 -7.77599,-2.016 -2.30401,-1.296 -4.10401,-3.168 -5.40001,-5.616 -1.296,-2.376 -1.94399,-5.112 -1.94399,-8.208 0,-3.024 0.64799,-5.76 1.94399,-8.208 1.296,-2.376 3.096,-4.248 5.40001,-5.616 2.30399,-1.296 4.89599,-2.016 7.77599,-2.016 2.88,0 5.472,0.72 7.77601,2.016 2.304,1.368 4.10399,3.24 5.4,5.616 1.29599,2.448 2.01599,5.184 2.01599,8.208 0,3.096 -0.72,5.832 -2.01599,8.208 -1.29601,2.448 -3.096,4.32 -5.4,5.616 z" transform="translate(0 241.25816704279273) translate(479.71393259526246 113.91361808989069) scale(1.5888566395125983) translate(-491.92887 -82.128)"></path> 
   <path id="path60891" style="font-style: normal; font-weight: 300; font-size: 72px; line-height: 1; font-family: &quot;Montserrat Light Alt1&quot;; font-variant-ligatures: none; text-align: center; text-anchor: middle; fill: rgb(245, 238, 211);" d="M 540.58512,66.576 V 120 h 3.6 V 66.576 Z" transform="translate(0 241.25816704279273) translate(557.0217384615472 89.20371963219074) scale(1.5888566395125983) translate(-540.58512 -66.576)"></path> 
   <path id="path60893" style="font-style: normal; font-weight: 300; font-size: 72px; line-height: 1; font-family: &quot;Montserrat Light Alt1&quot;; font-variant-ligatures: none; text-align: center; text-anchor: middle; fill: rgb(245, 238, 211);" d="m 581.60487,115.752 c -2.08799,0.864 -4.392,1.296 -6.768,1.296 -3.88799,0 -7.12799,-1.008 -9.86399,-3.024 -2.736,-2.016 -4.60801,-4.752 -5.47201,-8.208 l 31.75201,-6.192 c -0.21601,-3.312 -1.00801,-6.264 -2.592,-8.928 -1.58401,-2.664 -3.67201,-4.752 -6.264,-6.264 -2.592,-1.512 -5.544,-2.304 -8.784,-2.304 -3.52801,0 -6.69601,0.864 -9.432,2.448 -2.808,1.656 -4.968,3.888 -6.55201,6.768 -1.58399,2.88 -2.30399,6.192 -2.30399,9.864 0,3.744 0.792,6.984 2.44799,9.864 1.656,2.88 3.96001,5.184 6.91201,6.768 2.952,1.656 6.264,2.448 10.07999,2.448 2.88,0 5.544,-0.504 8.06401,-1.512 2.376,-1.008 4.46399,-2.52 6.12,-4.608 l -2.08801,-2.376 c -1.43999,1.8 -3.168,3.096 -5.256,3.96 z m -15.624,-28.44 c 2.23201,-1.296 4.75201,-2.016 7.63201,-2.016 2.44799,0 4.75199,0.576 6.768,1.656 2.016,1.08 3.59999,2.592 4.896,4.392 1.22399,1.872 2.01599,3.96 2.37599,6.192 l -28.65599,5.616 c -0.144,-0.936 -0.144,-1.656 -0.144,-2.232 0,-2.952 0.57599,-5.688 1.87199,-8.064 1.22401,-2.376 2.952,-4.248 5.256,-5.544 z" transform="translate(0 241.25816704279273) translate(580.4411040023695 113.91361808989069) scale(1.5888566395125983) translate(-555.32488 -82.128)"></path> 
   <path id="path60895" style="font-style: normal; font-weight: 300; font-size: 72px; line-height: 1; font-family: &quot;Montserrat Light Alt1&quot;; font-variant-ligatures: none; text-align: center; text-anchor: middle; fill: rgb(91, 84, 75);" d="m 607.50013,117.84 c 2.88,1.656 6.048,2.448 9.648,2.448 3.52799,0 6.69599,-0.792 9.57599,-2.448 2.88,-1.584 5.11201,-3.888 6.768,-6.768 1.58401,-2.88 2.448,-6.192 2.448,-9.864 0,-3.6 -0.86399,-6.912 -2.448,-9.792 -1.65599,-2.88 -3.888,-5.184 -6.768,-6.84 -2.88,-1.584 -6.048,-2.448 -9.57599,-2.448 -3.6,0 -6.768,0.864 -9.648,2.448 -2.88,1.656 -5.11201,3.96 -6.69601,6.84 -1.65599,2.88 -2.44799,6.192 -2.44799,9.792 0,3.672 0.792,6.984 2.44799,9.864 1.584,2.88 3.81601,5.184 6.69601,6.768 z m 17.35199,-2.808 c -2.30399,1.368 -4.82399,2.016 -7.70399,2.016 -2.88,0 -5.47201,-0.648 -7.77601,-2.016 -2.304,-1.296 -4.10399,-3.168 -5.4,-5.616 -1.296,-2.376 -1.94399,-5.112 -1.94399,-8.208 0,-3.024 0.64799,-5.76 1.94399,-8.208 1.29601,-2.376 3.096,-4.248 5.4,-5.616 2.304,-1.296 4.89601,-2.016 7.77601,-2.016 2.88,0 5.4,0.72 7.70399,2.016 2.304,1.368 4.10401,3.24 5.4,5.616 1.29601,2.448 2.01601,5.184 2.01601,8.208 0,3.096 -0.72,5.832 -2.01601,8.208 -1.29599,2.448 -3.096,4.32 -5.4,5.616 z" transform="translate(0 241.25816704279273) translate(648.811591271396 113.91361808989069) scale(1.5888566395125983) translate(-598.35613 -82.128)"></path> 
   <path id="path60897" style="font-style: normal; font-weight: 300; font-size: 72px; line-height: 1; font-family: &quot;Montserrat Light Alt1&quot;; font-variant-ligatures: none; text-align: center; text-anchor: middle; fill: rgb(91, 84, 75);" d="m 675.88887,69.6 h -36.144 v 12.96 h 3.6 v -9.648 h 28.29601 L 650.18488,120 h 4.03199 l 21.672,-47.808 z" transform="translate(0 241.25816704279273) translate(714.5723656214566 94.00842211007685) scale(1.5888566395125983) translate(-639.74487 -69.6)"></path> 
  </g> 
  <g id="tagline" style="font-style:normal;font-weight:400;font-size:32px;line-height:1;font-family:Montserrat;font-variant-ligatures:none;text-align:center;text-anchor:middle"></g> 
 </g> 
</svg>