<svg xmlns:dc="http://purl.org/dc/elements/1.1/" xmlns:cc="http://creativecommons.org/ns#" xmlns:rdf="http://www.w3.org/1999/02/22-rdf-syntax-ns#" xmlns:svg="http://www.w3.org/2000/svg" xmlns="http://www.w3.org/2000/svg" id="svg8786" viewbox="0 0 1024 768" height="768px" width="1024px" version="1.1"> <metadata id="metadata8792"> 
  <rdf:rdf> 
   <cc:work rdf:about=""> 
    <dc:format>
     image/svg+xml
    </dc:format> 
    <dc:type rdf:resource="http://purl.org/dc/dcmitype/StillImage"></dc:type> 
   </cc:work> 
  </rdf:rdf> 
 </metadata> <defs id="defs8790"></defs> <g id="logo-group"> 
  <g id="title" style="font-style:normal;font-weight:700;font-size:72px;line-height:1;font-family:Phenomena;font-variant-ligatures:none;text-align:center;text-anchor:middle" aria-label="Siriuso7"> 
   <path id="path8794" style="font-style: normal; font-weight: 700; font-size: 72px; line-height: 1; font-family: Phenomena; font-variant-ligatures: none; text-align: center; text-anchor: middle; fill: rgb(22, 29, 34);" d="m 433.66625,120.792 c 7.488,0 12.456,-4.68 12.456,-12.096 0,-14.688 -18.144,-18.072 -18.144,-28.368 0,-3.6 1.944,-5.472 5.472,-5.472 3.384,0 5.328,2.448 5.544,7.776 0,0.576 0.36,0.936 0.936,0.936 h 4.536 c 0.648,0 0.936,-0.36 0.936,-0.936 -0.288,-8.424 -4.968,-13.824 -12.024,-13.824 -7.128,0 -11.88,4.464 -11.88,11.52 0,13.824 18.072,17.208 18.072,28.368 0,3.888 -2.016,5.976 -5.832,5.976 -3.888,0 -5.976,-2.736 -6.12,-8.208 -0.072,-0.576 -0.432,-0.936 -1.008,-0.936 h -4.536 c -0.648,0 -1.008,0.36 -1.008,1.008 0.288,8.712 5.112,14.256 12.6,14.256 z" transform="translate(0 189.49289872660466) translate(252.00000000000006 136.02096084830998) scale(2.250159296132862) translate(-421.06625 -68.808)"></path> 
   <path id="path8796" style="font-style: normal; font-weight: 700; font-size: 72px; line-height: 1; font-family: Phenomena; font-variant-ligatures: none; text-align: center; text-anchor: middle; fill: rgb(22, 29, 34);" d="m 454.79037,79.464 c 2.088,0 3.744,-1.728 3.744,-3.672 0,-2.16 -1.656,-3.744 -3.744,-3.744 -2.15999,0 -3.67199,1.584 -3.67199,3.744 0,2.088 1.512,3.672 3.67199,3.672 z M 452.70238,120 h 4.17599 c 0.64801,0 1.008,-0.36 1.008,-1.008 V 84.936 c 0,-0.576 -0.35999,-0.936 -1.008,-0.936 h -4.17599 c -0.64801,0 -1.00801,0.36 -1.00801,0.936 v 34.056 c 0,0.648 0.36,1.008 1.00801,1.008 z" transform="translate(0 189.49289872660466) translate(335.37319476102334 143.31147696778044) scale(2.250159296132862) translate(-451.11838 -72.048)"></path> 
   <path id="path8798" style="font-style: normal; font-weight: 700; font-size: 72px; line-height: 1; font-family: Phenomena; font-variant-ligatures: none; text-align: center; text-anchor: middle; fill: rgb(22, 29, 34);" d="m 465.90762,120 h 4.176 c 0.648,0 1.00801,-0.36 1.00801,-1.008 v -23.04 c 0,-3.888 2.44799,-6.264 6.192,-6.264 h 2.592 c 0.57599,0 0.93599,-0.36 0.93599,-0.936 v -3.888 c 0,-0.648 -0.36,-1.008 -0.93599,-1.008 h -2.664 c -7.27201,0 -12.312,4.824 -12.312,12.6 v 22.536 c 0,0.648 0.36,1.008 1.00799,1.008 z" transform="translate(0 189.49289872660466) translate(382.1343176337843 169.88135793651725) scale(2.250159296132862) translate(-464.89963 -83.856)"></path> 
   <path id="path8800" style="font-style: normal; font-weight: 700; font-size: 72px; line-height: 1; font-family: Phenomena; font-variant-ligatures: none; text-align: center; text-anchor: middle; fill: rgb(22, 29, 34);" d="m 488.54037,79.464 c 2.088,0 3.744,-1.728 3.744,-3.672 0,-2.16 -1.656,-3.744 -3.744,-3.744 -2.15999,0 -3.67199,1.584 -3.67199,3.744 0,2.088 1.512,3.672 3.67199,3.672 z M 486.45238,120 h 4.17599 c 0.64801,0 1.008,-0.36 1.008,-1.008 V 84.936 c 0,-0.576 -0.35999,-0.936 -1.008,-0.936 h -4.17599 c -0.64801,0 -1.00801,0.36 -1.00801,0.936 v 34.056 c 0,0.648 0.36,1.008 1.00801,1.008 z" transform="translate(0 189.49289872660466) translate(442.8183011513674 143.31147696778044) scale(2.250159296132862) translate(-484.86838 -72.048)"></path> 
   <path id="path8802" style="font-style: normal; font-weight: 700; font-size: 72px; line-height: 1; font-family: Phenomena; font-variant-ligatures: none; text-align: center; text-anchor: middle; fill: rgb(22, 29, 34);" d="m 500.0795,84 c -0.648,0 -1.008,0.36 -1.008,1.008 v 24.048 c 0,6.84 4.536,11.736 11.232,11.736 6.696,0 11.232,-4.896 11.232,-11.736 V 85.008 c 0,-0.648 -0.36,-1.008 -1.008,-1.008 h -4.176 c -0.648,0 -1.008,0.36 -1.008,1.008 v 24.264 c 0,3.384 -1.872,5.688 -5.04,5.688 -3.168,0 -5.04,-2.304 -5.04,-5.688 V 85.008 c 0,-0.648 -0.36,-1.008 -1.008,-1.008 z" transform="translate(0 189.49289872660466) translate(490.528698726388 170.20538087516036) scale(2.250159296132862) translate(-499.0715 -84)"></path> 
   <path id="path8804" style="font-style: normal; font-weight: 700; font-size: 72px; line-height: 1; font-family: Phenomena; font-variant-ligatures: none; text-align: center; text-anchor: middle; fill: rgb(22, 29, 34);" d="m 539.2655,120.792 c 6.696,0 11.16,-4.464 11.16,-10.296 0,-12.096 -16.632,-10.152 -16.632,-17.064 0,-2.592 1.944,-4.392 4.896,-4.392 3.096,0 4.752,2.016 4.968,4.824 0.072,0.576 0.432,0.936 1.008,0.936 h 4.248 c 0.72,0 0.936,-0.504 0.936,-1.008 -0.216,-5.616 -3.6,-10.584 -11.304,-10.584 -6.48,0 -10.872,4.32 -10.872,10.08 0,11.808 16.56,9.864 16.56,17.136 0,2.592 -1.728,4.464 -5.04,4.464 -3.744,0 -5.472,-2.016 -5.76,-5.688 -0.072,-0.72 -0.504,-0.936 -1.008,-0.936 h -4.176 c -0.792,0 -1.008,0.504 -1.008,1.08 0.216,6.336 4.536,11.448 12.024,11.448 z" transform="translate(0 189.49289872660466) translate(569.6668011713807 168.42325471262313) scale(2.250159296132862) translate(-527.2415 -83.208)"></path> 
   <path id="path8806" style="font-style: normal; font-weight: 700; font-size: 72px; line-height: 1; font-family: Phenomena; font-variant-ligatures: none; text-align: center; text-anchor: middle; fill: rgb(76, 107, 16);" d="m 566.2655,120.792 c 6.984,0 11.52,-4.896 11.52,-11.736 V 94.944 c 0,-6.84 -4.536,-11.736 -11.52,-11.736 -6.912,0 -11.52,4.896 -11.52,11.736 v 14.112 c 0,6.84 4.608,11.736 11.52,11.736 z m 0,-5.832 c -3.312,0 -5.256,-2.304 -5.256,-5.688 V 94.728 c 0,-3.384 1.944,-5.688 5.256,-5.688 3.312,0 5.328,2.304 5.328,5.688 v 14.544 c 0,3.384 -2.016,5.688 -5.328,5.688 z" transform="translate(0 189.49289872660466) translate(647.3062975251491 168.42325471262313) scale(2.250159296132862) translate(-554.7455 -83.208)"></path> 
   <path id="path8808" style="font-style: normal; font-weight: 700; font-size: 72px; line-height: 1; font-family: Phenomena; font-variant-ligatures: none; text-align: center; text-anchor: middle; fill: rgb(76, 107, 16);" d="m 581.561,70.536 v 4.104 c 0,0.648 0.36,1.008 0.936,1.008 h 13.752 l -10.44,43.272 c -0.144,0.648 0.144,1.08 0.864,1.08 h 4.536 c 0.576,0 0.936,-0.288 1.08,-0.864 L 602.801,75 c 0.288,-1.224 0.36,-2.088 0.36,-3.384 0,-1.368 -0.792,-2.016 -2.16,-2.016 h -18.504 c -0.576,0 -0.936,0.36 -0.936,0.936 z" transform="translate(0 189.49289872660466) translate(723.3965592035302 137.80308701084715) scale(2.250159296132862) translate(-581.561 -69.6)"></path> 
  </g> 
  <g id="tagline" style="font-style:oblique;font-weight:normal;font-size:32px;line-height:1;font-family:'Fira Sans Condensed';font-variant-ligatures:none;text-align:center;text-anchor:middle"></g> 
 </g> 
</svg>