<svg xmlns:dc="http://purl.org/dc/elements/1.1/" xmlns:cc="http://creativecommons.org/ns#" xmlns:rdf="http://www.w3.org/1999/02/22-rdf-syntax-ns#" xmlns:svg="http://www.w3.org/2000/svg" xmlns="http://www.w3.org/2000/svg" id="svg26123" viewbox="0 0 1024 768" height="768px" width="1024px" version="1.1"> <metadata id="metadata26129"> 
  <rdf:rdf> 
   <cc:work rdf:about=""> 
    <dc:format>
     image/svg+xml
    </dc:format> 
    <dc:type rdf:resource="http://purl.org/dc/dcmitype/StillImage"></dc:type> 
   </cc:work> 
  </rdf:rdf> 
 </metadata> <defs id="defs26127"></defs> <g id="logo-group"> 
  <g id="title" style="font-style:normal;font-weight:700;font-size:72px;line-height:1;font-family:'Comfortaa Bold Alt2';font-variant-ligatures:none;text-align:center;text-anchor:middle" aria-label="SKYLARKO7"> 
   <path id="path26131" style="font-style: normal; font-weight: 700; font-size: 72px; line-height: 1; font-family: &quot;Comfortaa Bold Alt2&quot;; font-variant-ligatures: none; text-align: center; text-anchor: middle; fill: rgb(147, 148, 152);" d="m 330.32431,65.64 c -2.88,-1.656 -6.336,-2.52 -10.44,-2.52 -3.816,0 -7.272,0.648 -10.296,1.8 -3.024,1.152 -5.472,2.88 -7.2,5.112 -1.728,2.232 -2.592,4.896 -2.592,7.92 0,4.392 1.656,8.064 5.112,10.944 3.384,2.88 8.064,4.608 14.04,5.184 4.32,0.432 7.488,1.656 9.648,3.6 2.088,1.944 3.168,4.248 3.168,6.984 0,2.88 -1.296,5.184 -3.744,6.84 -2.52,1.656 -5.544,2.448 -9.144,2.448 -3.096,0 -5.904,-0.648 -8.424,-1.944 -2.592,-1.296 -4.248,-2.88 -5.112,-4.752 -0.36,-0.72 -0.864,-1.368 -1.584,-1.8 -0.72,-0.432 -1.44,-0.72 -2.16,-0.72 -0.36,0 -0.576,0.072 -0.72,0.072 -0.936,0.216 -1.656,0.576 -2.16,1.152 -0.576,0.576 -0.792,1.152 -0.792,1.872 0,0.432 0.072,0.864 0.36,1.44 1.44,3.456 4.032,6.192 7.848,8.28 3.816,2.16 8.064,3.168 12.744,3.168 3.528,0 6.84,-0.576 9.936,-1.8 3.096,-1.224 5.616,-3.096 7.488,-5.544 1.872,-2.448 2.808,-5.472 2.808,-8.928 0,-4.752 -1.584,-8.568 -4.752,-11.448 -3.168,-2.88 -7.632,-4.68 -13.392,-5.256 -5.184,-0.504 -8.784,-1.584 -10.8,-3.312 -2.016,-1.656 -3.024,-3.744 -3.024,-6.264 0,-2.664 1.08,-4.68 3.384,-6.12 2.232,-1.44 5.184,-2.16 8.856,-2.16 2.952,0 5.4,0.576 7.344,1.728 1.944,1.152 3.6,2.736 4.896,4.896 0.288,0.648 0.792,1.152 1.44,1.512 0.576,0.36 1.296,0.504 2.016,0.504 0.72,0 1.296,-0.144 1.872,-0.504 0.936,-0.648 1.44,-1.512 1.44,-2.592 0,-0.792 -0.288,-1.656 -0.864,-2.592 -2.016,-3.096 -4.392,-5.472 -7.2,-7.2 z" transform="translate(0 294.806648) translate(206.38645555555547 57.23837533333334) scale(1.1111111111111112) translate(-297.92431 -63.12)"></path> 
   <path id="path26133" style="font-style: normal; font-weight: 700; font-size: 72px; line-height: 1; font-family: &quot;Comfortaa Bold Alt2&quot;; font-variant-ligatures: none; text-align: center; text-anchor: middle; fill: rgb(147, 148, 152);" d="m 364.56031,91.488 23.04,-22.464 c 0.72,-0.648 1.08,-1.512 1.08,-2.52 0,-1.008 -0.288,-1.8 -1.008,-2.52 -0.72,-0.72 -1.512,-1.08 -2.52,-1.08 -1.008,-0.072 -1.872,0.288 -2.592,1.008 l -24.696,24.12 V 67.368 c 0,-1.008 -0.36,-1.872 -1.08,-2.592 -0.72,-0.72 -1.584,-1.008 -2.52,-1.008 -1.008,0 -1.872,0.288 -2.592,1.008 -0.72,0.72 -1.008,1.584 -1.008,2.592 v 49.176 c 0,0.936 0.288,1.8 1.008,2.52 0.72,0.72 1.584,1.08 2.592,1.08 0.936,0 1.8,-0.36 2.52,-1.08 0.72,-0.72 1.08,-1.584 1.08,-2.52 v -21.6 l 24.696,24.12 c 0.72,0.72 1.512,1.08 2.52,1.08 1.008,0 1.872,-0.36 2.592,-1.152 0.72,-0.648 1.008,-1.512 1.008,-2.52 0,-1.008 -0.36,-1.872 -1.08,-2.52 z" transform="translate(0 294.806648) translate(281.6531222222222 56.988328666666675) scale(1.1111111111111112) translate(-350.66431 -62.894958)"></path> 
   <path id="path26135" style="font-style: normal; font-weight: 700; font-size: 72px; line-height: 1; font-family: &quot;Comfortaa Bold Alt2&quot;; font-variant-ligatures: none; text-align: center; text-anchor: middle; fill: rgb(147, 148, 152);" d="m 439.06119,64.776 c -0.576,-0.648 -1.368,-1.008 -2.232,-1.008 -1.44,0 -2.592,0.648 -3.312,1.8 l -17.136,27 -16.848,-26.712 c -0.504,-0.72 -1.008,-1.224 -1.44,-1.584 -0.504,-0.288 -1.152,-0.504 -1.872,-0.504 -1.008,0 -1.944,0.36 -2.664,1.008 -0.72,0.72 -1.08,1.512 -1.08,2.52 0,0.72 0.216,1.512 0.792,2.304 l 19.224,29.88 v 16.776 c 0,1.08 0.36,1.944 1.08,2.664 0.72,0.72 1.584,1.08 2.592,1.08 1.008,0 1.944,-0.36 2.664,-1.08 0.72,-0.72 1.08,-1.584 1.08,-2.664 V 99.48 l 19.368,-29.88 c 0.432,-0.72 0.72,-1.512 0.72,-2.376 0,-0.936 -0.36,-1.728 -0.936,-2.448 z" transform="translate(0 294.806648) translate(344.7785444444444 57.958375333333336) scale(1.1111111111111112) translate(-392.47719 -63.768)"></path> 
   <path id="path26137" style="font-style: normal; font-weight: 700; font-size: 72px; line-height: 1; font-family: &quot;Comfortaa Bold Alt2&quot;; font-variant-ligatures: none; text-align: center; text-anchor: middle; fill: rgb(147, 148, 152);" d="m 483.69556,113.592 c -0.72,-0.72 -1.656,-1.08 -2.664,-1.08 h -26.064 v -45 c 0,-1.008 -0.36,-1.944 -1.08,-2.664 -0.72,-0.72 -1.656,-1.08 -2.664,-1.08 -1.008,0 -1.872,0.36 -2.592,1.08 -0.72,0.72 -1.08,1.656 -1.08,2.664 v 48.744 c 0,1.08 0.288,1.944 1.008,2.664 0.72,0.72 1.584,1.08 2.664,1.08 h 29.808 c 1.008,0 1.944,-0.36 2.664,-1.08 0.72,-0.72 1.08,-1.584 1.08,-2.664 0,-1.008 -0.36,-1.944 -1.08,-2.664 z" transform="translate(0 294.806648) translate(422.6389555555555 57.958375333333336) scale(1.1111111111111112) translate(-447.55156 -63.768)"></path> 
   <path id="path26139" style="font-style: normal; font-weight: 700; font-size: 72px; line-height: 1; font-family: &quot;Comfortaa Bold Alt2&quot;; font-variant-ligatures: none; text-align: center; text-anchor: middle; fill: rgb(147, 148, 152);" d="m 535.86519,114.744 -20.304,-48.456 c -0.648,-1.656 -1.8,-2.52 -3.528,-2.52 -1.656,0 -2.808,0.864 -3.528,2.52 l -20.232,48.312 c -0.288,0.648 -0.36,1.224 -0.36,1.656 0,1.08 0.288,1.944 1.008,2.664 0.72,0.72 1.584,1.08 2.664,1.08 0.72,0 1.368,-0.144 2.016,-0.576 0.576,-0.432 1.08,-0.936 1.44,-1.728 l 17.136,-41.904 16.848,41.904 c 0.216,0.72 0.72,1.296 1.368,1.728 0.648,0.432 1.296,0.576 2.088,0.576 1.008,0 1.944,-0.36 2.664,-1.08 0.72,-0.72 1.08,-1.584 1.08,-2.592 0,-0.432 -0.144,-0.936 -0.36,-1.584 z" transform="translate(0 294.806648) translate(484.15187777777777 57.958375333333336) scale(1.1111111111111112) translate(-487.91319 -63.768)"></path> 
   <path id="path26141" style="font-style: normal; font-weight: 700; font-size: 72px; line-height: 1; font-family: &quot;Comfortaa Bold Alt2&quot;; font-variant-ligatures: none; text-align: center; text-anchor: middle; fill: rgb(147, 148, 152);" d="m 578.06619,120.144 c 0.72,0 1.368,-0.216 2.016,-0.648 0.792,-0.576 1.296,-1.368 1.512,-2.376 0.144,-0.936 0,-1.872 -0.576,-2.664 l -11.88,-17.136 c 2.52,-1.08 4.608,-2.664 6.408,-4.752 2.808,-3.24 4.176,-7.056 4.176,-11.304 0,-4.824 -1.728,-8.928 -5.112,-12.384 -3.456,-3.384 -7.56,-5.112 -12.384,-5.112 h -14.04 c -1.008,0 -1.8,0.36 -2.52,1.08 -0.72,0.72 -1.08,1.512 -1.08,2.52 v 49.104 c 0,1.008 0.36,1.872 1.08,2.52 0.72,0.72 1.512,1.08 2.52,1.08 1.008,0 1.872,-0.36 2.52,-1.08 0.72,-0.648 1.08,-1.512 1.08,-2.52 V 70.968 h 10.44 c 2.808,0 5.256,1.008 7.272,3.024 2.016,2.016 3.024,4.392 3.024,7.272 0,2.52 -0.864,4.752 -2.448,6.624 -1.584,1.872 -3.6,3.024 -5.976,3.456 l -1.296,0.144 c -1.368,0.144 -2.376,0.864 -2.88,2.088 -0.648,1.224 -0.504,2.448 0.288,3.528 l 14.904,21.456 c 0.648,1.008 1.656,1.584 2.952,1.584 z" transform="translate(0 294.806648) translate(563.7885444444445 57.958375333333336) scale(1.1111111111111112) translate(-544.58619 -63.768)"></path> 
   <path id="path26143" style="font-style: normal; font-weight: 700; font-size: 72px; line-height: 1; font-family: &quot;Comfortaa Bold Alt2&quot;; font-variant-ligatures: none; text-align: center; text-anchor: middle; fill: rgb(147, 148, 152);" d="m 604.04469,91.488 23.04,-22.464 c 0.72,-0.648 1.08,-1.512 1.08,-2.52 0,-1.008 -0.288,-1.8 -1.008,-2.52 -0.72,-0.72 -1.512,-1.08 -2.52,-1.08 -1.008,-0.072 -1.872,0.288 -2.592,1.008 l -24.696,24.12 V 67.368 c 0,-1.008 -0.36,-1.872 -1.08,-2.592 -0.72,-0.72 -1.584,-1.008 -2.52,-1.008 -1.008,0 -1.872,0.288 -2.592,1.008 -0.72,0.72 -1.008,1.584 -1.008,2.592 v 49.176 c 0,0.936 0.288,1.8 1.008,2.52 0.72,0.72 1.584,1.08 2.592,1.08 0.936,0 1.8,-0.36 2.52,-1.08 0.72,-0.72 1.08,-1.584 1.08,-2.52 v -21.6 l 24.696,24.12 c 0.72,0.72 1.512,1.08 2.52,1.08 1.008,0 1.872,-0.36 2.592,-1.152 0.72,-0.648 1.008,-1.512 1.008,-2.52 0,-1.008 -0.36,-1.872 -1.08,-2.52 z" transform="translate(0 294.806648) translate(631.0802111111112 56.988328666666675) scale(1.1111111111111112) translate(-590.14869 -62.894958)"></path> 
   <path id="path26145" style="font-style: normal; font-weight: 700; font-size: 72px; line-height: 1; font-family: &quot;Comfortaa Bold Alt2&quot;; font-variant-ligatures: none; text-align: center; text-anchor: middle; fill: rgb(57, 86, 52);" d="m 661.27794,120.864 c 3.888,0 7.632,-0.792 11.232,-2.304 3.456,-1.44 6.552,-3.528 9.216,-6.192 2.664,-2.664 4.752,-5.688 6.192,-9.216 1.512,-3.528 2.304,-7.272 2.304,-11.232 0,-3.96 -0.792,-7.704 -2.304,-11.304 -1.44,-3.456 -3.528,-6.48 -6.192,-9.144 -2.664,-2.664 -5.76,-4.752 -9.216,-6.192 -3.6,-1.512 -7.344,-2.304 -11.232,-2.304 -3.96,0 -7.704,0.792 -11.304,2.304 -3.456,1.44 -6.552,3.528 -9.216,6.192 -2.664,2.664 -4.752,5.688 -6.192,9.144 -1.512,3.6 -2.232,7.344 -2.232,11.304 0,3.96 0.72,7.704 2.232,11.232 1.44,3.528 3.528,6.552 6.192,9.216 2.664,2.664 5.76,4.752 9.216,6.192 3.6,1.512 7.344,2.304 11.304,2.304 z m 0,-50.688 c 5.976,0 11.088,2.088 15.336,6.336 4.248,4.248 6.408,9.432 6.408,15.408 0,5.976 -2.16,11.088 -6.408,15.336 -4.248,4.248 -9.36,6.408 -15.336,6.408 -6.048,0 -11.16,-2.16 -15.408,-6.408 -4.248,-4.176 -6.336,-9.36 -6.336,-15.336 0,-5.976 2.088,-11.16 6.336,-15.408 4.248,-4.248 9.36,-6.336 15.408,-6.336 z" transform="translate(0 294.806648) translate(694.6193777777779 57.07837533333333) scale(1.1111111111111112) translate(-632.33394 -62.976)"></path> 
   <path id="path26147" style="font-style: normal; font-weight: 700; font-size: 72px; line-height: 1; font-family: &quot;Comfortaa Bold Alt2&quot;; font-variant-ligatures: none; text-align: center; text-anchor: middle; fill: rgb(57, 86, 52);" d="m 694.26069,70.104 c 0.72,0.72 1.584,1.008 2.664,1.008 h 21.888 l -20.664,42.912 c -0.432,0.864 -0.648,1.656 -0.648,2.304 0,1.008 0.36,1.872 1.08,2.592 0.72,0.72 1.512,1.08 2.52,1.08 0.648,0 1.296,-0.144 1.944,-0.504 0.576,-0.36 1.08,-0.864 1.44,-1.512 l 23.04,-48.6 c 0.288,-0.72 0.504,-1.368 0.504,-1.944 0,-1.008 -0.36,-1.872 -1.08,-2.592 -0.72,-0.72 -1.584,-1.08 -2.592,-1.08 h -27.432 c -1.08,0 -1.944,0.36 -2.664,1.08 -0.72,0.72 -1.008,1.584 -1.008,2.592 0,1.08 0.288,1.944 1.008,2.664 z" transform="translate(0 294.806648) translate(778.9735444444447 57.958375333333336) scale(1.1111111111111112) translate(-693.25269 -63.768)"></path> 
  </g> 
  <g id="tagline" style="font-style:normal;font-weight:500;font-size:32px;line-height:1;font-family:Raleway;font-variant-ligatures:none;text-align:center;text-anchor:middle"></g> 
 </g> 
</svg>