<svg xmlns:dc="http://purl.org/dc/elements/1.1/" xmlns:cc="http://creativecommons.org/ns#" xmlns:rdf="http://www.w3.org/1999/02/22-rdf-syntax-ns#" xmlns:svg="http://www.w3.org/2000/svg" xmlns="http://www.w3.org/2000/svg" id="svg53414" viewbox="0 0 1024 768" height="768px" width="1024px" version="1.1"> <metadata id="metadata53420"> 
  <rdf:rdf> 
   <cc:work rdf:about=""> 
    <dc:format>
     image/svg+xml
    </dc:format> 
    <dc:type rdf:resource="http://purl.org/dc/dcmitype/StillImage"></dc:type> 
   </cc:work> 
  </rdf:rdf> 
 </metadata> <defs id="defs53418"></defs> <g id="logo-group"> 
  <g id="title" style="font-style:normal;font-weight:800;font-size:72px;line-height:1;font-family:'Montserrat ExtraBold Alt1';font-variant-ligatures:none;text-align:center;text-anchor:middle" aria-label="Smartchoiceo7"> 
   <path id="path53422" style="font-style: normal; font-weight: 800; font-size: 72px; line-height: 1; font-family: &quot;Montserrat ExtraBold Alt1&quot;; font-variant-ligatures: none; text-align: center; text-anchor: middle; fill: rgb(245, 238, 211);" d="m 234.45013,119.496 c 3.81599,1.008 7.77599,1.512 11.87999,1.512 4.752,0 8.856,-0.72 12.24001,-2.16 3.31199,-1.44 5.83199,-3.456 7.56,-5.904 1.65599,-2.448 2.51999,-5.184 2.51999,-8.208 0,-3.456 -0.936,-6.264 -2.808,-8.28 -1.872,-2.016 -4.032,-3.528 -6.552,-4.464 -2.52,-0.936 -5.688,-1.8 -9.504,-2.664 -3.456,-0.72 -5.904,-1.368 -7.416,-2.088 -1.584,-0.648 -2.304,-1.656 -2.304,-3.024 0,-1.296 0.648,-2.376 1.94401,-3.24 1.29599,-0.864 3.31199,-1.296 6.19199,-1.296 4.464,0 9.14401,1.296 13.968,3.888 l 4.392,-10.584 c -2.448,-1.44 -5.328,-2.52 -8.496,-3.24 -3.24,-0.72 -6.48,-1.152 -9.792,-1.152 -4.896,0 -9,0.72 -12.31199,2.16 -3.31201,1.44 -5.83201,3.456 -7.488,5.904 -1.72801,2.448 -2.52001,5.256 -2.52001,8.28 0,3.528 0.864,6.336 2.736,8.352 1.8,2.088 3.96,3.6 6.552,4.536 2.52,0.936 5.688,1.8 9.504,2.592 3.456,0.792 5.904,1.512 7.488,2.232 1.584,0.72 2.376,1.728 2.376,3.168 0,2.736 -2.736,4.104 -8.208,4.104 -2.87999,0 -5.832,-0.432 -8.784,-1.368 -3.024,-0.864 -5.616,-2.088 -7.848,-3.6 l -4.68,10.512 c 2.376,1.728 5.472,3.024 9.36001,4.032 z" transform="translate(0 317.95646356834806) translate(252 46.438071591523276) scale(0.8535991309704234) translate(-225.09012 -68.592)"></path> 
   <path id="path53424" style="font-style: normal; font-weight: 800; font-size: 72px; line-height: 1; font-family: &quot;Montserrat ExtraBold Alt1&quot;; font-variant-ligatures: none; text-align: center; text-anchor: middle; fill: rgb(245, 238, 211);" d="m 336.797,84.648 c -2.88,-2.88 -6.696,-4.32 -11.448,-4.32 -2.808,0 -5.4,0.576 -7.704,1.584 -2.376,1.08 -4.32,2.592 -5.832,4.536 -1.368,-2.016 -3.096,-3.6 -5.256,-4.608 -2.16,-1.008 -4.608,-1.512 -7.344,-1.512 -2.376,0 -4.536,0.432 -6.552,1.224 -2.016,0.792 -3.672,1.944 -5.112,3.528 V 80.976 H 274.517 V 120 h 13.68 v -19.368 c 0,-2.88 0.576,-5.112 1.872,-6.552 1.224,-1.44 2.88,-2.16 5.04,-2.16 3.888,0 5.904,2.664 5.904,7.992 V 120 h 13.68 v -19.368 c 0,-2.88 0.576,-5.112 1.872,-6.552 1.224,-1.44 2.88,-2.16 4.968,-2.16 1.872,0 3.312,0.648 4.32,1.944 1.008,1.296 1.584,3.312 1.584,6.048 V 120 h 13.68 V 97.68 c 0,-5.76 -1.44,-10.152 -4.32,-13.032 z" transform="translate(0 317.95646356834806) translate(296.7515392074907 56.45591099259217) scale(0.8535991309704234) translate(-274.517 -80.328)"></path> 
   <path id="path53426" style="font-style: normal; font-weight: 800; font-size: 72px; line-height: 1; font-family: &quot;Montserrat ExtraBold Alt1&quot;; font-variant-ligatures: none; text-align: center; text-anchor: middle; fill: rgb(245, 238, 211);" d="m 381.21537,84.792 c -3.456,-2.952 -8.35199,-4.464 -14.832,-4.464 -3.168,0 -6.264,0.432 -9.36,1.224 -3.096,0.792 -5.688,1.872 -7.848,3.312 l 4.608,9.288 c 1.29601,-1.008 2.952,-1.872 4.896,-2.448 1.872,-0.576 3.81601,-0.936 5.688,-0.936 5.256,0 7.992,2.088 8.28,6.192 h -7.776 c -5.904,0 -10.296,1.08 -13.10399,3.096 -2.88,2.016 -4.248,4.896 -4.248,8.568 0,2.304 0.50399,4.392 1.65599,6.192 1.15201,1.8 2.80801,3.24 5.04,4.248 2.16001,1.08 4.824,1.584 7.848,1.584 5.688,0 9.504,-1.872 11.52,-5.688 V 120 h 12.74401 V 98.328 c 0,-6.048 -1.72801,-10.584 -5.11201,-13.536 z m -11.15999,26.064 c -1.22401,0.792 -2.59201,1.152 -4.17601,1.152 -1.584,0 -2.88,-0.36 -3.744,-1.08 -0.936,-0.72 -1.36799,-1.656 -1.36799,-2.88 0,-2.592 1.94399,-3.96 5.976,-3.96 h 5.90399 v 3.384 c -0.576,1.512 -1.43999,2.664 -2.59199,3.384 z" transform="translate(0 317.95646356834806) translate(361.6271047271746 56.45591099259217) scale(0.8535991309704234) translate(-347.51938 -80.328)"></path> 
   <path id="path53428" style="font-style: normal; font-weight: 800; font-size: 72px; line-height: 1; font-family: &quot;Montserrat ExtraBold Alt1&quot;; font-variant-ligatures: none; text-align: center; text-anchor: middle; fill: rgb(245, 238, 211);" d="m 413.46462,81.696 c -2.232,0.864 -4.03199,2.232 -5.4,3.96 v -4.68 h -13.032 V 120 h 13.68 v -17.928 c 0,-3.24 0.792,-5.688 2.448,-7.272 1.656,-1.584 3.96001,-2.376 6.91201,-2.376 0.79199,0 1.8,0.072 3.096,0.216 V 80.328 c -2.88,0 -5.47201,0.504 -7.70401,1.368 z" transform="translate(0 317.95646356834806) translate(404.745162493675 56.45591099259217) scale(0.8535991309704234) translate(-395.03262 -80.328)"></path> 
   <path id="path53430" style="font-style: normal; font-weight: 800; font-size: 72px; line-height: 1; font-family: &quot;Montserrat ExtraBold Alt1&quot;; font-variant-ligatures: none; text-align: center; text-anchor: middle; fill: rgb(245, 238, 211);" d="m 455.0075,118.416 -3.384,-9.576 c -1.224,0.864 -2.592,1.224 -4.176,1.224 -1.296,0 -2.304,-0.36 -3.024,-1.152 -0.72,-0.792 -1.08,-1.872 -1.08,-3.312 V 92.64 h 8.928 V 82.416 h -8.928 V 72.264 h -13.68 v 10.152 h -5.688 V 92.64 h 5.688 v 13.104 c 0,4.968 1.368,8.712 4.104,11.16 2.736,2.52 6.624,3.744 11.736,3.744 1.872,0 3.6,-0.144 5.256,-0.576 1.656,-0.36 3.096,-0.936 4.248,-1.656 z" transform="translate(0 317.95646356834806) translate(432.0115771023676 49.57248760044667) scale(0.8535991309704234) translate(-423.9755 -72.264)"></path> 
   <path id="path53432" style="font-style: normal; font-weight: 800; font-size: 72px; line-height: 1; font-family: &quot;Montserrat ExtraBold Alt1&quot;; font-variant-ligatures: none; text-align: center; text-anchor: middle; fill: rgb(245, 238, 211);" d="m 467.50963,118.056 c 3.38399,1.728 7.272,2.592 11.592,2.592 4.39199,0 8.20799,-0.936 11.44799,-2.808 3.168,-1.872 5.47201,-4.536 6.84001,-7.92 l -10.584,-5.4 c -1.80001,3.528 -4.392,5.256 -7.77601,5.256 -2.448,0 -4.536,-0.792 -6.12,-2.448 -1.584,-1.656 -2.37599,-3.96 -2.37599,-6.912 0,-2.88 0.79199,-5.112 2.37599,-6.768 1.584,-1.584 3.672,-2.448 6.12,-2.448 3.38401,0 5.976,1.8 7.77601,5.256 l 10.584,-5.4 c -1.368,-3.312 -3.67201,-5.976 -6.84001,-7.848 -3.24,-1.872 -7.056,-2.88 -11.44799,-2.88 -4.32,0 -8.20801,0.864 -11.592,2.592 -3.45601,1.728 -6.12,4.104 -7.99201,7.128 -1.872,3.024 -2.80799,6.48 -2.80799,10.368 0,3.888 0.93599,7.416 2.80799,10.44 1.87201,3.096 4.536,5.472 7.99201,7.2 z" transform="translate(0 317.95646356834806) translate(462.51419941635174 56.45591099259217) scale(0.8535991309704234) translate(-456.70963 -80.328)"></path> 
   <path id="path53434" style="font-style: normal; font-weight: 800; font-size: 72px; line-height: 1; font-family: &quot;Montserrat ExtraBold Alt1&quot;; font-variant-ligatures: none; text-align: center; text-anchor: middle; fill: rgb(245, 238, 211);" d="m 539.55012,84.648 c -2.952,-2.88 -6.84,-4.32 -11.664,-4.32 -2.30399,0 -4.46399,0.36 -6.48,1.08 -2.016,0.72 -3.816,1.8 -5.256,3.168 v -18 h -13.68 V 120 h 13.68 v -18.864 c 0,-3.024 0.64801,-5.328 2.088,-6.912 1.44001,-1.512 3.312,-2.304 5.688,-2.304 4.248,0 6.408,2.664 6.408,7.992 V 120 h 13.68001 V 97.68 c 0,-5.76 -1.51201,-10.152 -4.46401,-13.032 z" transform="translate(0 317.95646356834806) translate(504.13611130604374 44.71721574348691) scale(0.8535991309704234) translate(-502.47012 -66.576)"></path> 
   <path id="path53436" style="font-style: normal; font-weight: 800; font-size: 72px; line-height: 1; font-family: &quot;Montserrat ExtraBold Alt1&quot;; font-variant-ligatures: none; text-align: center; text-anchor: middle; fill: rgb(245, 238, 211);" d="m 561.37513,118.056 c 3.312,1.728 7.12799,2.592 11.30399,2.592 4.17601,0 7.992,-0.864 11.376,-2.592 3.312,-1.728 5.976,-4.104 7.84801,-7.2 1.87199,-3.024 2.808,-6.552 2.808,-10.44 0,-3.888 -0.93601,-7.344 -2.808,-10.368 -1.87201,-3.024 -4.53601,-5.4 -7.84801,-7.128 -3.384,-1.728 -7.19999,-2.592 -11.376,-2.592 -4.248,0 -8.06399,0.864 -11.37599,2.592 -3.31201,1.728 -5.976,4.104 -7.84801,7.128 -1.872,3.096 -2.808,6.552 -2.808,10.368 0,3.888 0.936,7.416 2.808,10.44 1.87201,3.096 4.536,5.472 7.92001,7.2 z m 17.20799,-10.728 c -1.58399,1.656 -3.528,2.448 -5.904,2.448 -2.44799,0 -4.39199,-0.792 -5.904,-2.448 -1.58399,-1.656 -2.30399,-3.96 -2.30399,-6.912 0,-2.88 0.72,-5.112 2.30399,-6.768 1.51201,-1.584 3.45601,-2.448 5.904,-2.448 2.376,0 4.32001,0.864 5.904,2.448 1.51201,1.656 2.304,3.888 2.304,6.768 0,2.952 -0.79199,5.256 -2.304,6.912 z" transform="translate(0 317.95646356834806) translate(547.8207540317171 56.45591099259217) scale(0.8535991309704234) translate(-550.64712 -80.328)"></path> 
   <path id="path53438" style="font-style: normal; font-weight: 800; font-size: 72px; line-height: 1; font-family: &quot;Montserrat ExtraBold Alt1&quot;; font-variant-ligatures: none; text-align: center; text-anchor: middle; fill: rgb(245, 238, 211);" d="M 601.04825,80.976 V 120 h 13.68 V 80.976 Z m 0.792,-6.408 c 1.512,1.44 3.528,2.088 6.048,2.088 2.448,0 4.464,-0.648 6.048,-2.088 1.512,-1.44 2.304,-3.24 2.304,-5.4 0,-2.016 -0.792,-3.744 -2.304,-5.04 -1.584,-1.296 -3.6,-2.016 -6.048,-2.016 -2.52,0 -4.536,0.72 -6.048,2.088 -1.584,1.44 -2.304,3.168 -2.304,5.184 0,2.088 0.72,3.816 2.304,5.184 z" transform="translate(0 317.95646356834806) translate(592.1132703065284 40.90674922283494) scale(0.8535991309704234) translate(-599.53625 -62.112)"></path> 
   <path id="path53440" style="font-style: normal; font-weight: 800; font-size: 72px; line-height: 1; font-family: &quot;Montserrat ExtraBold Alt1&quot;; font-variant-ligatures: none; text-align: center; text-anchor: middle; fill: rgb(245, 238, 211);" d="m 631.90025,118.056 c 3.384,1.728 7.272,2.592 11.592,2.592 4.392,0 8.208,-0.936 11.448,-2.808 3.168,-1.872 5.472,-4.536 6.84,-7.92 l -10.584,-5.4 c -1.8,3.528 -4.392,5.256 -7.776,5.256 -2.448,0 -4.536,-0.792 -6.12,-2.448 -1.584,-1.656 -2.376,-3.96 -2.376,-6.912 0,-2.88 0.792,-5.112 2.376,-6.768 1.584,-1.584 3.672,-2.448 6.12,-2.448 3.384,0 5.976,1.8 7.776,5.256 l 10.584,-5.4 c -1.368,-3.312 -3.672,-5.976 -6.84,-7.848 -3.24,-1.872 -7.056,-2.88 -11.448,-2.88 -4.32,0 -8.208,0.864 -11.592,2.592 -3.456,1.728 -6.12,4.104 -7.992,7.128 -1.872,3.024 -2.808,6.48 -2.808,10.368 0,3.888 0.936,7.416 2.808,10.44 1.872,3.096 4.536,5.472 7.992,7.2 z" transform="translate(0 317.95646356834806) translate(613.0810793596859 56.45591099259217) scale(0.8535991309704234) translate(-621.10025 -80.328)"></path> 
   <path id="path53442" style="font-style: normal; font-weight: 800; font-size: 72px; line-height: 1; font-family: &quot;Montserrat ExtraBold Alt1&quot;; font-variant-ligatures: none; text-align: center; text-anchor: middle; fill: rgb(245, 238, 211);" d="m 706.2515,103.944 c 0.144,-2.16 0.216,-3.24 0.216,-3.384 0,-4.176 -0.936,-7.776 -2.808,-10.8 -1.872,-3.024 -4.32,-5.4 -7.488,-6.984 -3.168,-1.584 -6.696,-2.448 -10.584,-2.448 -4.104,0 -7.776,0.864 -11.016,2.592 -3.312,1.728 -5.832,4.176 -7.704,7.2 -1.872,3.024 -2.736,6.48 -2.736,10.296 0,3.888 0.936,7.416 2.808,10.44 1.872,3.096 4.608,5.472 8.064,7.2 3.456,1.728 7.416,2.592 12.024,2.592 7.272,0 12.816,-2.088 16.632,-6.336 l -7.2,-7.488 c -1.44,1.224 -2.808,2.088 -4.176,2.592 -1.368,0.576 -2.952,0.792 -4.824,0.792 -2.52,0 -4.608,-0.504 -6.264,-1.584 -1.656,-1.08 -2.736,-2.664 -3.312,-4.68 z m -25.92,-12.096 c 1.44,-1.152 3.168,-1.8 5.328,-1.8 2.088,0 3.816,0.648 5.256,1.8 1.44,1.224 2.304,2.88 2.736,4.896 h -15.984 c 0.36,-2.016 1.224,-3.672 2.664,-4.896 z" transform="translate(0 317.95646356834806) translate(652.3733143571683 56.45591099259217) scale(0.8535991309704234) translate(-664.1315 -80.328)"></path> 
   <path id="path53444" style="font-style: normal; font-weight: 800; font-size: 72px; line-height: 1; font-family: &quot;Montserrat ExtraBold Alt1&quot;; font-variant-ligatures: none; text-align: center; text-anchor: middle; fill: rgb(245, 238, 211);" d="m 721.12513,118.056 c 3.312,1.728 7.12799,2.592 11.30399,2.592 4.17601,0 7.992,-0.864 11.376,-2.592 3.312,-1.728 5.976,-4.104 7.84801,-7.2 1.87199,-3.024 2.808,-6.552 2.808,-10.44 0,-3.888 -0.93601,-7.344 -2.808,-10.368 -1.87201,-3.024 -4.53601,-5.4 -7.84801,-7.128 -3.384,-1.728 -7.19999,-2.592 -11.376,-2.592 -4.248,0 -8.06399,0.864 -11.37599,2.592 -3.31201,1.728 -5.976,4.104 -7.84801,7.128 -1.872,3.096 -2.808,6.552 -2.808,10.368 0,3.888 0.936,7.416 2.808,10.44 1.87201,3.096 4.536,5.472 7.92001,7.2 z m 17.20799,-10.728 c -1.58399,1.656 -3.528,2.448 -5.904,2.448 -2.44799,0 -4.39199,-0.792 -5.904,-2.448 -1.58399,-1.656 -2.30399,-3.96 -2.30399,-6.912 0,-2.88 0.72,-5.112 2.30399,-6.768 1.51201,-1.584 3.45601,-2.448 5.904,-2.448 2.376,0 4.32001,0.864 5.904,2.448 1.51201,1.656 2.304,3.888 2.304,6.768 0,2.952 -0.79199,5.256 -2.304,6.912 z" transform="translate(0 317.95646356834806) translate(694.4264047758874 56.45591099259217) scale(0.8535991309704234) translate(-710.39712 -80.328)"></path> 
   <path id="path53446" style="font-style: normal; font-weight: 800; font-size: 72px; line-height: 1; font-family: &quot;Montserrat ExtraBold Alt1&quot;; font-variant-ligatures: none; text-align: center; text-anchor: middle; fill: rgb(245, 238, 211);" d="m 798.27537,69.6 h -41.76 v 19.08 h 12.168 v -7.776 h 13.248 L 764.93938,120 h 15.55199 l 17.784,-41.472 z" transform="translate(0 317.95646356834806) translate(736.3537002906753 47.29849951554146) scale(0.8535991309704234) translate(-756.51537 -69.6)"></path> 
  </g> 
  <g id="tagline" style="font-style:normal;font-weight:500;font-size:32px;line-height:1;font-family:Montserrat;font-variant-ligatures:none;text-align:center;text-anchor:middle"></g> 
 </g> 
</svg>