<svg xmlns:dc="http://purl.org/dc/elements/1.1/" xmlns:cc="http://creativecommons.org/ns#" xmlns:rdf="http://www.w3.org/1999/02/22-rdf-syntax-ns#" xmlns:svg="http://www.w3.org/2000/svg" xmlns="http://www.w3.org/2000/svg" id="svg635436" viewbox="0 0 1024 768" height="768px" width="1024px" version="1.1"> <metadata id="metadata635442"> 
  <rdf:rdf> 
   <cc:work rdf:about=""> 
    <dc:format>
     image/svg+xml
    </dc:format> 
    <dc:type rdf:resource="http://purl.org/dc/dcmitype/StillImage"></dc:type> 
   </cc:work> 
  </rdf:rdf> 
 </metadata> <defs id="defs635440"></defs> <g id="logo-group"> 
  <g id="title" style="font-style:normal;font-weight:800;font-size:72px;line-height:1;font-family:'Montserrat ExtraBold Alt1';font-variant-ligatures:none;text-align:center;text-anchor:middle" aria-label="SMARTO7"> 
   <path id="path635444" style="font-style: normal; font-weight: 800; font-size: 72px; line-height: 1; font-family: &quot;Montserrat ExtraBold Alt1&quot;; font-variant-ligatures: none; text-align: center; text-anchor: middle; fill: rgb(213, 213, 213);" d="m 334.997,119.496 c 3.816,1.008 7.776,1.512 11.88,1.512 4.752,0 8.856,-0.72 12.24,-2.16 3.312,-1.44 5.832,-3.456 7.56,-5.904 1.656,-2.448 2.52,-5.184 2.52,-8.208 0,-3.456 -0.936,-6.264 -2.808,-8.28 -1.872,-2.016 -4.032,-3.528 -6.552,-4.464 -2.52,-0.936 -5.688,-1.8 -9.504,-2.664 -3.456,-0.72 -5.904,-1.368 -7.416,-2.088 -1.584,-0.648 -2.304,-1.656 -2.304,-3.024 0,-1.296 0.648,-2.376 1.944,-3.24 1.296,-0.864 3.312,-1.296 6.192,-1.296 4.464,0 9.144,1.296 13.968,3.888 l 4.392,-10.584 c -2.448,-1.44 -5.328,-2.52 -8.496,-3.24 -3.24,-0.72 -6.48,-1.152 -9.792,-1.152 -4.896,0 -9,0.72 -12.312,2.16 -3.312,1.44 -5.832,3.456 -7.488,5.904 -1.728,2.448 -2.52,5.256 -2.52,8.28 0,3.528 0.864,6.336 2.736,8.352 1.8,2.088 3.96,3.6 6.552,4.536 2.52,0.936 5.688,1.8 9.504,2.592 3.456,0.792 5.904,1.512 7.488,2.232 1.584,0.72 2.376,1.728 2.376,3.168 0,2.736 -2.736,4.104 -8.208,4.104 -2.88,0 -5.832,-0.432 -8.784,-1.368 -3.024,-0.864 -5.616,-2.088 -7.848,-3.6 l -4.68,10.512 c 2.376,1.728 5.472,3.024 9.36,4.032 z" transform="translate(0 267.16342857142854) translate(216.2203571428572 79.39657142857145) scale(1.4285714285714286) translate(-325.637 -68.592)"></path> 
   <path id="path635446" style="font-style: normal; font-weight: 800; font-size: 72px; line-height: 1; font-family: &quot;Montserrat ExtraBold Alt1&quot;; font-variant-ligatures: none; text-align: center; text-anchor: middle; fill: rgb(213, 213, 213);" d="m 434.17588,88.824 -13.03201,23.328 0.072,7.848 h 13.10401 z M 375.71188,120 h 13.17599 v -6.984 L 375.71188,89.472 Z m 46.728,-50.4 -17.28001,29.088 -17.712,-29.088 h -11.73599 l 13.17599,24.408 12.888,21.024 h 6.336 l 12.96,-21.744 12.744,-23.688 z" transform="translate(0 267.16342857142854) translate(297.7559000000001 80.83657142857142) scale(1.4285714285714286) translate(-375.71188 -69.6)"></path> 
   <path id="path635448" style="font-style: normal; font-weight: 800; font-size: 72px; line-height: 1; font-family: &quot;Montserrat ExtraBold Alt1&quot;; font-variant-ligatures: none; text-align: center; text-anchor: middle; fill: rgb(213, 213, 213);" d="m 474.50487,69.6 h -14.04 L 438.21688,120 h 14.54399 l 3.96,-9.792 4.17601,-10.512 6.47999,-16.128 6.48,16.128 4.176,10.512 3.96001,9.792 h 14.832 z" transform="translate(0 267.16342857142854) translate(397.04875714285726 80.83657142857142) scale(1.4285714285714286) translate(-438.21688 -69.6)"></path> 
   <path id="path635450" style="font-style: normal; font-weight: 800; font-size: 72px; line-height: 1; font-family: &quot;Montserrat ExtraBold Alt1&quot;; font-variant-ligatures: none; text-align: center; text-anchor: middle; fill: rgb(213, 213, 213);" d="m 536.43612,104.16 c 3.096,-1.512 5.54401,-3.6 7.272,-6.336 1.728,-2.736 2.592,-5.904 2.592,-9.576 0,-3.744 -0.93599,-7.056 -2.736,-9.864 -1.87199,-2.808 -4.46399,-4.968 -7.77599,-6.48 -3.384,-1.512 -7.34401,-2.304 -11.88,-2.304 h -23.04 v 11.232 h 22.17599 c 2.88,0 5.112,0.648 6.62401,1.944 1.43999,1.296 2.23199,3.168 2.23199,5.472 0,2.376 -0.792,4.176 -2.23199,5.472 -1.51201,1.296 -3.74401,1.872 -6.62401,1.872 H 500.86813 V 120 h 14.256 v -13.392 h 7.77599 l 9.144,13.392 h 15.26401 z" transform="translate(0 267.16342857142854) translate(496.55054285714294 80.83657142857142) scale(1.4285714285714286) translate(-500.86813 -69.6)"></path> 
   <path id="path635452" style="font-style: normal; font-weight: 800; font-size: 72px; line-height: 1; font-family: &quot;Montserrat ExtraBold Alt1&quot;; font-variant-ligatures: none; text-align: center; text-anchor: middle; fill: rgb(213, 213, 213);" d="M 564.18988,80.904 V 120 h 14.25599 V 80.904 h 15.40801 V 69.6 h -45.14401 v 11.304 z" transform="translate(0 267.16342857142854) translate(574.8958857142858 80.83657142857142) scale(1.4285714285714286) translate(-548.70987 -69.6)"></path> 
   <path id="path635454" style="font-style: normal; font-weight: 800; font-size: 72px; line-height: 1; font-family: &quot;Montserrat ExtraBold Alt1&quot;; font-variant-ligatures: none; text-align: center; text-anchor: middle; fill: rgb(255, 80, 58);" d="m 609.47788,117.624 c 4.24799,2.304 9.072,3.384 14.4,3.384 5.32799,0 10.08,-1.08 14.32799,-3.384 4.24801,-2.232 7.56001,-5.328 10.00801,-9.36 2.44799,-3.96 3.672,-8.424 3.672,-13.464 0,-4.968 -1.22401,-9.432 -3.672,-13.464 -2.448,-3.96 -5.76,-7.056 -10.00801,-9.36 -4.24799,-2.232 -9,-3.384 -14.32799,-3.384 -5.328,0 -10.15201,1.152 -14.4,3.384 -4.24801,2.304 -7.56001,5.4 -10.00801,9.36 -2.44799,4.032 -3.6,8.496 -3.6,13.464 0,5.04 1.15201,9.504 3.6,13.464 2.448,4.032 5.76,7.128 10.00801,9.36 z m 21.312,-10.224 c -2.08801,1.224 -4.39201,1.8 -6.912,1.8 -2.592,0 -4.89601,-0.576 -6.91201,-1.8 -2.08799,-1.152 -3.744,-2.88 -4.89599,-5.04 -1.22401,-2.16 -1.80001,-4.68 -1.80001,-7.56 0,-2.808 0.576,-5.328 1.80001,-7.488 1.15199,-2.16 2.808,-3.888 4.89599,-5.112 2.016,-1.152 4.32001,-1.8 6.91201,-1.8 2.51999,0 4.82399,0.648 6.912,1.8 2.016,1.224 3.67199,2.952 4.89599,5.112 1.152,2.16 1.8,4.68 1.8,7.488 0,2.88 -0.648,5.4 -1.8,7.56 -1.224,2.16 -2.87999,3.888 -4.89599,5.04 z" transform="translate(0 267.16342857142854) translate(652.2673142857143 79.39657142857145) scale(1.4285714285714286) translate(-595.86987 -68.592)"></path> 
   <path id="path635456" style="font-style: normal; font-weight: 800; font-size: 72px; line-height: 1; font-family: &quot;Montserrat ExtraBold Alt1&quot;; font-variant-ligatures: none; text-align: center; text-anchor: middle; fill: rgb(255, 80, 58);" d="m 697.7285,69.6 h -41.76 v 19.08 h 12.168 v -7.776 h 13.248 L 664.3925,120 h 15.552 l 17.784,-41.472 z" transform="translate(0 267.16342857142854) translate(748.1224999999998 80.83657142857142) scale(1.4285714285714286) translate(-655.9685 -69.6)"></path> 
  </g> 
  <g id="tagline" style="font-style:normal;font-weight:500;font-size:32px;line-height:1;font-family:Montserrat;font-variant-ligatures:none;text-align:center;text-anchor:middle"></g> 
 </g> 
</svg>