<svg xmlns:dc="http://purl.org/dc/elements/1.1/" xmlns:cc="http://creativecommons.org/ns#" xmlns:rdf="http://www.w3.org/1999/02/22-rdf-syntax-ns#" xmlns:svg="http://www.w3.org/2000/svg" xmlns="http://www.w3.org/2000/svg" id="svg397910" viewbox="0 0 1024 768" height="768px" width="1024px" version="1.1"> <metadata id="metadata397916"> 
  <rdf:rdf> 
   <cc:work rdf:about=""> 
    <dc:format>
     image/svg+xml
    </dc:format> 
    <dc:type rdf:resource="http://purl.org/dc/dcmitype/StillImage"></dc:type> 
   </cc:work> 
  </rdf:rdf> 
 </metadata> <defs id="defs397914"></defs> <g id="logo-group"> 
  <g id="title" style="font-style:normal;font-weight:700;font-size:72px;line-height:1;font-family:'Brandmark1 Bold';font-variant-ligatures:none;text-align:center;text-anchor:middle" aria-label="Stacko7"> 
   <path id="path397918" style="font-style: normal; font-weight: 700; font-size: 72px; line-height: 1; font-family: &quot;Brandmark1 Bold&quot;; font-variant-ligatures: none; text-align: center; text-anchor: middle; fill: rgb(170, 160, 153);" d="m 403.58037,122.952 c 5.112,0 9.864,-1.44 13.392,-4.176 1.94401,-1.512 3.45601,-3.312 4.536,-5.4 1.152,-2.16 1.728,-4.68 1.728,-7.344 0,-4.896 -1.728,-8.64 -5.184,-11.52 -2.952,-2.376 -6.84,-3.888 -10.94399,-5.544 -0.43201,-0.144 -0.86401,-0.36 -1.36801,-0.504 v 0 c -2.88,-1.152 -5.616,-2.16 -7.344,-3.384 -1.224,-0.864 -2.01599,-1.728 -1.94399,-3.384 0,-3.672 3.59999,-5.04 6.62399,-5.04 3.24,0 7.12801,1.728 10.656,4.608 l 2.016,1.656 6.912,-8.928 -1.872,-1.584 c -5.328,-4.248 -11.448,-6.552 -17.712,-6.552 -4.89599,0 -9.43199,1.656 -12.816,4.536 -3.456,3.024 -5.328,7.128 -5.328,11.52 0,2.592 0.504,4.896 1.584,6.912 0.93601,1.872 2.30401,3.456 4.10401,4.968 3.16799,2.448 7.12799,4.032 11.15999,5.544 0.288,0.144 0.57601,0.216 0.79201,0.288 2.952,1.152 5.54399,2.088 7.12799,3.312 1.368,1.008 1.94401,2.088 1.94401,3.816 0,1.656 -0.64801,2.88 -1.87201,3.816 -1.43999,1.008 -3.6,1.512 -6.12,1.512 -2.16,0 -4.464,-0.504 -6.48,-1.44 -2.23199,-1.08 -4.176,-2.592 -5.688,-4.464 l -1.944,-2.448 -7.416,8.928 1.512,1.584 c 5.25601,5.616 12.312,8.712 19.944,8.712 z" transform="translate(0 264.0365714285714) translate(241.22401428571425 79.59199999999998) scale(1.4285714285714286) translate(-382.12437 -65.856)"></path> 
   <path id="path397920" style="font-style: normal; font-weight: 700; font-size: 72px; line-height: 1; font-family: &quot;Brandmark1 Bold&quot;; font-variant-ligatures: none; text-align: center; text-anchor: middle; fill: rgb(170, 160, 153);" d="M 450.242,92.496 V 82.416 H 438.794 V 69.528 l -10.8,3.6 v 27.936 c 0,3.024 0.576,5.904 1.728,8.64 1.08,2.664 2.736,5.04 4.752,7.056 2.016,2.088 4.392,3.672 7.056,4.824 2.736,1.152 5.688,1.728 8.712,1.728 v -10.8 c -6.336,0 -11.448,-5.112 -11.448,-11.448 v -8.568 z" transform="translate(0 264.0365714285714) translate(335.3234857142857 84.8377142857143) scale(1.4285714285714286) translate(-427.994 -69.528)"></path> 
   <path id="path397922" style="font-style: normal; font-weight: 700; font-size: 72px; line-height: 1; font-family: &quot;Brandmark1 Bold&quot;; font-variant-ligatures: none; text-align: center; text-anchor: middle; fill: rgb(170, 160, 153);" d="m 479.03075,81.984 0.072,2.304 c -2.88,-1.44 -6.048,-2.232 -9.288,-2.232 -2.736,0 -5.472,0.504 -7.992,1.584 -2.448,1.08 -4.608,2.52 -6.552,4.392 -1.872,1.872 -3.312,4.104 -4.392,6.552 -1.008,2.52 -1.584,5.256 -1.584,7.992 0,2.736 0.576,5.472 1.584,7.992 1.08,2.448 2.52,4.608 4.392,6.552 1.944,1.872 4.104,3.312 6.552,4.392 2.52,1.008 5.256,1.584 7.992,1.584 3.24,0 6.408,-0.792 9.288,-2.232 l -0.072,1.656 h 10.8 V 81.984 Z m -4.32,28.944 c -1.44,0.864 -3.168,1.368 -4.896,1.368 -5.328,0 -9.72,-4.392 -9.72,-9.72 0,-5.328 4.392,-9.72 9.72,-9.72 1.872,0 3.744,0.504 5.256,1.584 1.584,0.936 2.808,2.376 3.528,4.032 0.648,1.296 0.936,2.664 0.936,4.104 0,1.728 -0.432,3.384 -1.296,4.896 -0.864,1.44 -2.016,2.664 -3.528,3.456 z" transform="translate(0 264.0365714285714) translate(394.32455714285715 102.632) scale(1.4285714285714286) translate(-449.29475 -81.984)"></path> 
   <path id="path397924" style="font-style: normal; font-weight: 700; font-size: 72px; line-height: 1; font-family: &quot;Brandmark1 Bold&quot;; font-variant-ligatures: none; text-align: center; text-anchor: middle; fill: rgb(170, 160, 153);" d="m 513.48387,123.096 c 6.69601,0 13.03201,-3.312 16.92,-8.928 l -8.928,-6.12 c -1.79999,2.664 -4.82399,4.248 -7.992,4.248 -5.4,0 -9.72,-4.392 -9.72,-9.72 0,-5.4 4.32,-9.72 9.72,-9.72 3.09601,0 6.12001,1.512 7.92,4.104 l 8.856,-6.192 c -1.872,-2.664 -4.39199,-4.824 -7.19999,-6.336 -2.952,-1.584 -6.264,-2.376 -9.57601,-2.376 -2.80799,0 -5.472,0.504 -7.992,1.584 -2.44799,1.08 -4.68,2.52 -6.552,4.392 -1.87199,1.944 -3.38399,4.104 -4.392,6.552 -1.08,2.52 -1.584,5.256 -1.584,7.992 0,2.736 0.504,5.472 1.584,7.992 1.00801,2.448 2.52001,4.608 4.392,6.552 1.872,1.872 4.10401,3.312 6.552,4.392 2.52,1.008 5.18401,1.584 7.992,1.584 z" transform="translate(0 264.0365714285714) translate(485.2804428571428 102.73485714285715) scale(1.4285714285714286) translate(-492.96387 -82.056)"></path> 
   <path id="path397926" style="font-style: normal; font-weight: 700; font-size: 72px; line-height: 1; font-family: &quot;Brandmark1 Bold&quot;; font-variant-ligatures: none; text-align: center; text-anchor: middle; fill: rgb(170, 160, 153);" d="m 557.36675,122.52 h 12.744 l -14.76,-22.824 15.624,-17.28 h -13.824 l -13.608,15.264 V 64.488 h -10.872 v 58.032 h 10.872 v -10.224 l 4.32,-4.68 z" transform="translate(0 264.0365714285714) translate(570.5759857142857 77.63771428571428) scale(1.4285714285714286) translate(-532.67075 -64.488)"></path> 
   <path id="path397928" style="font-style: normal; font-weight: 700; font-size: 72px; line-height: 1; font-family: &quot;Brandmark1 Bold&quot;; font-variant-ligatures: none; text-align: center; text-anchor: middle; fill: rgb(154, 103, 85);" d="m 586.60887,123.024 c 2.736,0 5.472,-0.576 7.992,-1.584 2.448,-1.08 4.68001,-2.52 6.552,-4.392 1.872,-1.944 3.312,-4.104 4.39201,-6.552 1.07999,-2.52 1.58399,-5.256 1.58399,-7.992 0,-2.808 -0.504,-5.472 -1.58399,-7.992 -1.08001,-2.448 -2.52001,-4.68 -4.39201,-6.552 -1.94399,-1.872 -4.104,-3.312 -6.552,-4.392 -2.52,-1.08 -5.256,-1.584 -7.992,-1.584 -2.73599,0 -5.47199,0.504 -7.99199,1.584 -2.44801,1.08 -4.60801,2.52 -6.552,4.392 -1.87201,1.944 -3.312,4.104 -4.39201,6.552 -1.00799,2.52 -1.58399,5.184 -1.58399,7.992 0,2.736 0.576,5.472 1.58399,7.992 1.08001,2.448 2.52,4.608 4.39201,6.552 1.94399,1.872 4.10399,3.312 6.552,4.392 2.52,1.008 5.256,1.584 7.99199,1.584 z m 0,-30.24 c 5.328,0 9.72001,4.392 9.72001,9.72 0,5.328 -4.39201,9.72 -9.72001,9.72 -5.32799,0 -9.72,-4.392 -9.72,-9.72 0,-5.328 4.39201,-9.72 9.72,-9.72 z" transform="translate(0 264.0365714285714) translate(646.8876000000001 102.632) scale(1.4285714285714286) translate(-566.08888 -81.984)"></path> 
   <path id="path397930" style="font-style: normal; font-weight: 700; font-size: 72px; line-height: 1; font-family: &quot;Brandmark1 Bold&quot;; font-variant-ligatures: none; text-align: center; text-anchor: middle; fill: rgb(154, 103, 85);" d="m 609.45875,121.512 11.16,2.232 20.592,-48.384 v -7.344 h -35.712 V 78.6 h 22.536 z" transform="translate(0 264.0365714285714) translate(731.758842857143 82.6777142857143) scale(1.4285714285714286) translate(-605.49875 -68.016)"></path> 
  </g> 
  <g id="tagline" style="font-style:normal;font-weight:400;font-size:32px;line-height:1;font-family:Montserrat;font-variant-ligatures:none;text-align:center;text-anchor:middle"></g> 
 </g> 
</svg>