<svg xmlns:dc="http://purl.org/dc/elements/1.1/" xmlns:cc="http://creativecommons.org/ns#" xmlns:rdf="http://www.w3.org/1999/02/22-rdf-syntax-ns#" xmlns:svg="http://www.w3.org/2000/svg" xmlns="http://www.w3.org/2000/svg" id="svg378850" viewbox="0 0 1024 768" height="768px" width="1024px" version="1.1"> <metadata id="metadata378856"> 
  <rdf:rdf> 
   <cc:work rdf:about=""> 
    <dc:format>
     image/svg+xml
    </dc:format> 
    <dc:type rdf:resource="http://purl.org/dc/dcmitype/StillImage"></dc:type> 
   </cc:work> 
  </rdf:rdf> 
 </metadata> <defs id="defs378854"></defs> <g id="logo-group"> 
  <g id="title" style="font-style:normal;font-weight:700;font-size:72px;line-height:1;font-family:Jura;font-variant-ligatures:none;text-align:center;text-anchor:middle" aria-label="Stealthyo7"> 
   <path id="path378858" style="font-style: normal; font-weight: 700; font-size: 72px; line-height: 1; font-family: Jura; font-variant-ligatures: none; text-align: center; text-anchor: middle; fill: rgb(112, 195, 197);" d="m 329.50756,120 q -6.192,0 -9.648,-2.448 -3.384,-2.52 -4.248,-7.704 -0.144,-1.512 0.648,-2.304 0.792,-0.864 2.304,-0.864 1.44,0 2.16,0.72 0.72,0.648 1.008,2.232 0.504,2.448 2.232,3.384 1.8,0.936 5.544,0.936 h 10.368 q 3.168,0 4.824,-0.72 1.728,-0.72 2.448,-2.376 0.72,-1.728 0.72,-4.824 0,-4.608 -1.728,-6.336 -1.728,-1.728 -6.264,-1.728 h -8.928 q -6.768,0 -10.08,-3.312 -3.312,-3.312 -3.312,-10.152 0,-6.768 3.24,-10.008 3.312,-3.312 10.08,-3.312 h 8.568 q 11.376,0 13.104,9.504 0.216,1.512 -0.576,2.376 -0.792,0.792 -2.376,0.792 -1.44,0 -2.16,-0.72 -0.72,-0.72 -0.936,-2.232 -0.576,-2.088 -2.16,-2.88 -1.584,-0.792 -4.896,-0.792 h -8.568 q -2.952,0 -4.536,0.648 -1.512,0.648 -2.16,2.232 -0.576,1.512 -0.576,4.392 0,2.952 0.648,4.536 0.648,1.512 2.16,2.232 1.584,0.648 4.536,0.648 h 8.928 q 7.128,0 10.584,3.456 3.456,3.456 3.456,10.656 0,7.128 -3.456,10.584 -3.456,3.384 -10.584,3.384 z" transform="translate(0 269.34959998500653) translate(252 74.31016739973388) scale(1.3152136350827979) translate(-315.58941 -71.184)"></path> 
   <path id="path378860" style="font-style: normal; font-weight: 700; font-size: 72px; line-height: 1; font-family: Jura; font-variant-ligatures: none; text-align: center; text-anchor: middle; fill: rgb(112, 195, 197);" d="m 382.52881,113.952 q 3.024,0 3.024,3.024 0,1.44 -0.792,2.232 -0.792,0.792 -2.232,0.792 -7.128,0 -10.512,-3.384 -3.384,-3.384 -3.384,-10.44 V 89.544 h -3.528 q -1.44,0 -2.232,-0.792 -0.792,-0.792 -0.792,-2.232 0,-3.024 3.024,-3.024 h 3.528 V 78.24 q 0,-1.44 0.792,-2.232 0.792,-0.792 2.232,-0.792 1.44,0 2.232,0.792 0.792,0.792 0.792,2.232 v 5.256 h 8.28 q 3.024,0 3.024,3.024 0,1.44 -0.792,2.232 -0.792,0.792 -2.232,0.792 h -8.28 v 16.632 q 0,3.096 0.72,4.752 0.72,1.656 2.376,2.376 1.656,0.648 4.752,0.648 z" transform="translate(0 269.34959998500653) translate(313.1461231940884 79.61310877638773) scale(1.3152136350827979) translate(-362.08081 -75.216)"></path> 
   <path id="path378862" style="font-style: normal; font-weight: 700; font-size: 72px; line-height: 1; font-family: Jura; font-variant-ligatures: none; text-align: center; text-anchor: middle; fill: rgb(112, 195, 197);" d="m 398.86269,104.232 v 1.728 q 0,3.168 0.72,4.896 0.72,1.656 2.448,2.376 1.728,0.72 4.896,0.72 h 5.904 q 3.672,0 5.4,-0.648 1.8,-0.72 2.376,-2.448 0.432,-1.44 1.152,-2.088 0.72,-0.72 2.088,-0.72 1.368,0 2.088,0.648 0.792,0.576 0.792,1.728 0,0.504 -0.072,0.72 -1.584,8.856 -13.824,8.856 h -5.904 q -7.2,0 -10.656,-3.456 -3.456,-3.456 -3.456,-10.584 v -8.352 q 0,-7.272 3.456,-10.728 3.456,-3.456 10.656,-3.384 h 5.904 q 7.2,0 10.656,3.456 3.456,3.456 3.456,10.656 v 3.6 q 0,1.44 -0.792,2.232 -0.792,0.792 -2.232,0.792 z m 0,-6.048 h 22.032 v -0.576 q 0,-3.168 -0.72,-4.896 -0.72,-1.728 -2.448,-2.448 -1.728,-0.72 -4.896,-0.72 h -5.904 q -3.168,-0.072 -4.896,0.648 -1.728,0.72 -2.448,2.448 -0.72,1.728 -0.72,4.968 z" transform="translate(0 269.34959998500653) translate(353.5677412290869 90.50114562604337) scale(1.3152136350827979) translate(-392.81469 -83.494531)"></path> 
   <path id="path378864" style="font-style: normal; font-weight: 700; font-size: 72px; line-height: 1; font-family: Jura; font-variant-ligatures: none; text-align: center; text-anchor: middle; fill: rgb(112, 195, 197);" d="m 457.95781,83.496 q 7.2,0 10.656,3.456 3.456,3.456 3.456,10.656 v 19.368 q 0,1.44 -0.792,2.232 -0.792,0.792 -2.232,0.792 -1.44,0 -2.232,-0.792 -0.792,-0.792 -0.792,-2.232 v -1.656 q -3.816,4.68 -11.232,4.68 h -4.032 q -6.048,0 -9,-2.952 -2.952,-2.952 -2.952,-9 0,-6.048 2.88,-9 2.952,-2.952 9.072,-2.952 h 15.192 q -0.216,-3.744 -1.944,-5.112 -1.728,-1.44 -6.048,-1.44 h -4.176 q -3.6,0 -5.4,0.504 -1.728,0.504 -2.448,1.728 -0.648,1.512 -1.368,2.088 -0.72,0.576 -2.016,0.576 -1.296,0 -2.16,-0.648 -0.792,-0.648 -0.792,-1.728 0,-0.432 0.072,-0.72 1.08,-4.032 4.464,-5.904 3.456,-1.944 9.648,-1.944 z m 7.704,25.488 q 0.072,-0.216 0.144,-0.432 0.072,-0.288 0.216,-0.576 v -5.832 h -15.264 q -2.448,0 -3.672,0.504 -1.224,0.504 -1.728,1.728 -0.504,1.224 -0.504,3.672 0,2.448 0.504,3.672 0.504,1.224 1.728,1.728 1.224,0.504 3.672,0.504 h 4.032 q 9.144,0 10.872,-4.968 z" transform="translate(0 269.34959998500653) translate(414.0558893458161 90.5030776748733) scale(1.3152136350827979) translate(-438.80581 -83.496)"></path> 
   <path id="path378866" style="font-style: normal; font-weight: 700; font-size: 72px; line-height: 1; font-family: Jura; font-variant-ligatures: none; text-align: center; text-anchor: middle; fill: rgb(112, 195, 197);" d="m 497.24281,120 q -5.472,0 -8.208,-2.664 -2.664,-2.736 -2.664,-8.28 v -36.72 q 0,-1.44 0.792,-2.232 0.792,-0.792 2.232,-0.792 1.44,0 2.232,0.792 0.792,0.792 0.792,2.232 v 36.72 q 0,2.952 0.936,3.96 1.008,0.936 3.888,0.936 3.096,0 3.096,3.024 0.072,1.44 -0.72,2.232 -0.792,0.792 -2.376,0.792 z" transform="translate(0 269.34959998500653) translate(476.61402589852935 71.84808747485887) scale(1.3152136350827979) translate(-486.37081 -69.312)"></path> 
   <path id="path378868" style="font-style: normal; font-weight: 700; font-size: 72px; line-height: 1; font-family: Jura; font-variant-ligatures: none; text-align: center; text-anchor: middle; fill: rgb(112, 195, 197);" d="m 525.82569,113.952 q 3.024,0 3.024,3.024 0,1.44 -0.792,2.232 -0.792,0.792 -2.232,0.792 -7.128,0 -10.512,-3.384 -3.384,-3.384 -3.384,-10.44 V 89.544 h -3.528 q -1.44,0 -2.232,-0.792 -0.792,-0.792 -0.792,-2.232 0,-3.024 3.024,-3.024 h 3.528 V 78.24 q 0,-1.44 0.792,-2.232 0.792,-0.792 2.232,-0.792 1.44,0 2.232,0.792 0.792,0.792 0.792,2.232 v 5.256 h 8.28 q 3.024,0 3.024,3.024 0,1.44 -0.792,2.232 -0.792,0.792 -2.232,0.792 h -8.28 v 16.632 q 0,3.096 0.72,4.752 0.72,1.656 2.376,2.376 1.656,0.648 4.752,0.648 z" transform="translate(0 269.34959998500653) translate(501.61213363491186 79.61310877638773) scale(1.3152136350827979) translate(-505.37769 -75.216)"></path> 
   <path id="path378870" style="font-style: normal; font-weight: 700; font-size: 72px; line-height: 1; font-family: Jura; font-variant-ligatures: none; text-align: center; text-anchor: middle; fill: rgb(112, 195, 197);" d="m 560.30806,83.496 q 7.2,0 10.656,3.456 3.456,3.456 3.456,10.656 v 19.368 q 0,1.44 -0.792,2.232 -0.792,0.792 -2.232,0.792 -1.44,0 -2.232,-0.792 -0.792,-0.792 -0.792,-2.232 V 97.608 q 0,-3.168 -0.72,-4.896 -0.72,-1.728 -2.448,-2.448 -1.728,-0.72 -4.896,-0.72 h -2.016 q -4.752,0 -7.416,1.224 -2.664,1.224 -3.456,3.744 -0.072,0.36 -0.36,1.08 v 21.384 q 0,1.44 -0.792,2.232 -0.792,0.792 -2.232,0.792 -1.44,0 -2.232,-0.792 -0.792,-0.792 -0.792,-2.232 v -20.88 q -0.36,-0.576 -0.36,-1.224 0,-0.432 0.072,-0.648 0.144,-0.72 0.288,-1.152 V 72.336 q 0,-1.44 0.792,-2.232 0.792,-0.792 2.232,-0.792 1.44,0 2.232,0.792 0.792,0.792 0.792,2.232 V 85.8 q 4.392,-2.304 11.232,-2.304 z" transform="translate(0 269.34959998500653) translate(548.0054660278673 71.84808747485887) scale(1.3152136350827979) translate(-540.65206 -69.312)"></path> 
   <path id="path378872" style="font-style: normal; font-weight: 700; font-size: 72px; line-height: 1; font-family: Jura; font-variant-ligatures: none; text-align: center; text-anchor: middle; fill: rgb(112, 195, 197);" d="m 598.39381,134.4 q -10.368,0 -10.368,-10.44 0,-3.024 3.024,-3.024 3.024,0 3.024,3.024 0,2.736 0.792,3.528 0.864,0.864 3.528,0.864 h 13.968 q 2.664,0 3.456,-0.864 0.864,-0.864 0.864,-3.528 v -9.144 q -2.016,3.024 -4.752,4.104 -2.664,1.08 -6.48,1.08 h -3.528 q -7.128,0 -10.512,-3.384 -3.384,-3.384 -3.384,-10.44 V 86.52 q 0,-3.024 3.024,-3.024 3.024,0 3.024,3.024 v 19.656 q 0,3.096 0.648,4.752 0.72,1.656 2.376,2.376 1.728,0.648 4.824,0.648 h 3.528 q 5.832,0 8.496,-1.872 2.736,-1.944 2.736,-5.904 V 86.52 q 0,-3.024 3.024,-3.024 3.024,0 3.024,3.024 v 37.44 q 0,10.44 -10.368,10.44 z" transform="translate(0 269.34959998500653) translate(610.312067972871 90.5030776748733) scale(1.3152136350827979) translate(-588.02581 -83.496)"></path> 
   <path id="path378874" style="font-style: normal; font-weight: 700; font-size: 72px; line-height: 1; font-family: Jura; font-variant-ligatures: none; text-align: center; text-anchor: middle; fill: rgb(138, 197, 140);" d="m 650.06731,120 q -7.2,0 -10.656,-3.456 -3.456,-3.456 -3.456,-10.584 v -8.352 q 0,-7.2 3.456,-10.656 3.456,-3.456 10.656,-3.456 h 5.904 q 7.2,0 10.656,3.456 3.456,3.456 3.456,10.656 v 8.28 q 0,7.2 -3.456,10.656 -3.456,3.456 -10.656,3.456 z m 5.904,-6.048 q 3.168,0 4.896,-0.72 1.728,-0.72 2.448,-2.448 0.72,-1.728 0.72,-4.896 v -8.28 q 0,-3.168 -0.72,-4.896 -0.72,-1.728 -2.448,-2.448 -1.728,-0.72 -4.896,-0.72 h -5.904 q -3.24,0 -4.968,0.72 -1.656,0.72 -2.376,2.448 -0.72,1.656 -0.72,4.896 v 8.352 q 0,3.168 0.72,4.896 0.72,1.656 2.448,2.376 1.728,0.72 4.896,0.72 z" transform="translate(0 269.34959998500653) translate(673.349599895572 90.5030776748733) scale(1.3152136350827979) translate(-635.95531 -83.496)"></path> 
   <path id="path378876" style="font-style: normal; font-weight: 700; font-size: 72px; line-height: 1; font-family: Jura; font-variant-ligatures: none; text-align: center; text-anchor: middle; fill: rgb(138, 197, 140);" d="m 690.01044,120 q -1.44,0 -2.232,-0.792 -0.792,-0.792 -0.72,-2.376 0.144,-7.416 1.224,-11.952 1.08,-4.536 3.312,-7.56 2.232,-3.024 6.336,-5.904 3.312,-2.592 4.968,-5.904 1.656,-3.384 1.944,-8.28 h -22.752 q -1.44,0 -2.232,-0.792 -0.792,-0.792 -0.792,-2.232 0,-1.44 0.792,-2.232 0.792,-0.792 2.232,-0.792 h 25.848 q 1.44,0 2.232,0.792 0.792,0.792 0.792,2.232 0,7.704 -2.304,13.032 -2.232,5.328 -7.2,9.072 -3.312,2.304 -5.04,4.68 -1.656,2.376 -2.448,6.048 -0.72,3.6 -0.864,9.792 -0.144,3.168 -3.096,3.168 z" transform="translate(0 269.34959998500653) translate(730.0499458953989 74.31016739973388) scale(1.3152136350827979) translate(-679.06644 -71.184)"></path> 
  </g> 
  <g id="tagline" style="font-style:normal;font-weight:500;font-size:32px;line-height:1;font-family:Roboto;font-variant-ligatures:none;text-align:center;text-anchor:middle"></g> 
 </g> 
</svg>