<svg xmlns:dc="http://purl.org/dc/elements/1.1/" xmlns:cc="http://creativecommons.org/ns#" xmlns:rdf="http://www.w3.org/1999/02/22-rdf-syntax-ns#" xmlns:svg="http://www.w3.org/2000/svg" xmlns="http://www.w3.org/2000/svg" id="svg8664" viewbox="0 0 1024 768" height="768px" width="1024px" version="1.1"> <metadata id="metadata8670"> 
  <rdf:rdf> 
   <cc:work rdf:about=""> 
    <dc:format>
     image/svg+xml
    </dc:format> 
    <dc:type rdf:resource="http://purl.org/dc/dcmitype/StillImage"></dc:type> 
   </cc:work> 
  </rdf:rdf> 
 </metadata> <defs id="defs8668"></defs> <g id="logo-group"> 
  <g id="title" style="font-style:normal;font-weight:700;font-size:72px;line-height:1;font-family:Phenomena;font-variant-ligatures:none;text-align:center;text-anchor:middle" aria-label="STEPUPO7"> 
   <path id="path8672" style="font-style: normal; font-weight: 700; font-size: 72px; line-height: 1; font-family: Phenomena; font-variant-ligatures: none; text-align: center; text-anchor: middle; fill: rgb(255, 255, 255);" d="m 412.5725,120.792 c 7.488,0 12.456,-4.68 12.456,-12.096 0,-14.688 -18.144,-18.072 -18.144,-28.368 0,-3.6 1.944,-5.472 5.472,-5.472 3.384,0 5.328,2.448 5.544,7.776 0,0.576 0.36,0.936 0.936,0.936 h 4.536 c 0.648,0 0.936,-0.36 0.936,-0.936 -0.288,-8.424 -4.968,-13.824 -12.024,-13.824 -7.128,0 -11.88,4.464 -11.88,11.52 0,13.824 18.072,17.208 18.072,28.368 0,3.888 -2.016,5.976 -5.832,5.976 -3.888,0 -5.976,-2.736 -6.12,-8.208 -0.072,-0.576 -0.432,-0.936 -1.008,-0.936 h -4.536 c -0.648,0 -1.008,0.36 -1.008,1.008 0.288,8.712 5.112,14.256 12.6,14.256 z" transform="translate(0 253.10056815391658) translate(252.00000000000006 89.85306508929649) scale(1.5791923190515127) translate(-399.9725 -68.808)"></path> 
   <path id="path8674" style="font-style: normal; font-weight: 700; font-size: 72px; line-height: 1; font-family: Phenomena; font-variant-ligatures: none; text-align: center; text-anchor: middle; fill: rgb(255, 255, 255);" d="m 450.89787,69.6 h -22.10399 c -0.57601,0 -0.93601,0.36 -0.93601,0.936 v 4.104 c 0,0.648 0.36,1.008 0.93601,1.008 h 7.848 v 43.344 c 0,0.648 0.35999,1.008 0.93599,1.008 h 4.536 c 0.648,0 1.008,-0.36 1.008,-1.008 V 75.648 h 7.776 c 0.64801,0 1.008,-0.36 1.008,-1.008 v -4.104 c 0,-0.576 -0.35999,-0.936 -1.008,-0.936 z" transform="translate(0 253.10056815391658) translate(319.7242469036822 91.10378540598525) scale(1.5791923190515127) translate(-427.85787 -69.6)"></path> 
   <path id="path8676" style="font-style: normal; font-weight: 700; font-size: 72px; line-height: 1; font-family: Phenomena; font-variant-ligatures: none; text-align: center; text-anchor: middle; fill: rgb(255, 255, 255);" d="m 466.658,120.216 h 7.56 c 0.576,0 0.936,-0.36 0.936,-0.936 v -4.104 c 0,-0.648 -0.36,-1.008 -0.936,-1.008 h -7.056 c -3.744,0 -6.264,-2.88 -6.264,-6.984 v -9.72 h 11.52 c 0.648,0 1.008,-0.36 1.008,-1.008 v -3.888 c 0,-0.648 -0.36,-1.008 -1.008,-1.008 h -11.52 v -9.144 c 0,-4.104 2.52,-6.984 6.264,-6.984 h 7.056 c 0.576,0 0.936,-0.36 0.936,-1.008 V 70.32 c 0,-0.576 -0.36,-0.936 -0.936,-0.936 h -7.56 c -7.272,0 -12.312,5.472 -12.312,12.888 v 25.056 c 0,7.416 5.04,12.888 12.312,12.888 z" transform="translate(0 253.10056815391658) translate(385.2419831314928 90.76267986507015) scale(1.5791923190515127) translate(-454.346 -69.384)"></path> 
   <path id="path8678" style="font-style: normal; font-weight: 700; font-size: 72px; line-height: 1; font-family: Phenomena; font-variant-ligatures: none; text-align: center; text-anchor: middle; fill: rgb(255, 255, 255);" d="m 482.08962,120 h 4.60801 c 0.57599,0 0.93599,-0.36 0.93599,-1.008 v -17.136 h 5.688 c 7.488,0 12.312,-5.04 12.312,-12.384 v -7.344 c 0,-7.848 -4.896,-13.32 -12.384,-13.32 -7.416,0 -12.096,5.472 -12.096,13.32 v 36.864 c 0,0.648 0.36,1.008 0.936,1.008 z m 5.544,-24.192 V 81.84 c 0,-4.176 2.16001,-6.912 5.688,-6.912 3.528,0 5.76,2.736 5.76,6.912 v 7.776 c 0,3.888 -2.232,6.192 -5.976,6.192 z" transform="translate(0 253.10056815391658) translate(451.2642555133172 89.85306508929649) scale(1.5791923190515127) translate(-481.15362 -68.808)"></path> 
   <path id="path8680" style="font-style: normal; font-weight: 700; font-size: 72px; line-height: 1; font-family: Phenomena; font-variant-ligatures: none; text-align: center; text-anchor: middle; fill: rgb(255, 255, 255);" d="m 512.04275,69.6 c -0.576,0 -0.936,0.36 -0.936,1.008 v 36.936 c 0,7.776 4.824,13.248 12.312,13.248 7.488,0 12.384,-5.472 12.384,-13.248 V 70.608 c 0,-0.648 -0.36,-1.008 -1.008,-1.008 h -4.536 c -0.576,0 -1.008,0.36 -1.008,1.008 v 37.224 c 0,4.104 -2.232,6.84 -5.832,6.84 -3.6,0 -5.832,-2.736 -5.832,-6.84 V 70.608 c 0,-0.648 -0.36,-1.008 -0.936,-1.008 z" transform="translate(0 253.10056815391658) translate(522.2538931266413 91.10378540598525) scale(1.5791923190515127) translate(-511.10675 -69.6)"></path> 
   <path id="path8682" style="font-style: normal; font-weight: 700; font-size: 72px; line-height: 1; font-family: Phenomena; font-variant-ligatures: none; text-align: center; text-anchor: middle; fill: rgb(255, 255, 255);" d="m 544.66775,120 h 4.608 c 0.576,0 0.936,-0.36 0.936,-1.008 v -17.136 h 5.688 c 7.488,0 12.312,-5.04 12.312,-12.384 v -7.344 c 0,-7.848 -4.896,-13.32 -12.384,-13.32 -7.416,0 -12.096,5.472 -12.096,13.32 v 36.864 c 0,0.648 0.36,1.008 0.936,1.008 z m 5.544,-24.192 V 81.84 c 0,-4.176 2.16,-6.912 5.688,-6.912 3.528,0 5.76,2.736 5.76,6.912 v 7.776 c 0,3.888 -2.232,6.192 -5.976,6.192 z" transform="translate(0 253.10056815391658) translate(597.4629273214698 89.85306508929649) scale(1.5791923190515127) translate(-543.73175 -68.808)"></path> 
   <path id="path8684" style="font-style: normal; font-weight: 700; font-size: 72px; line-height: 1; font-family: Phenomena; font-variant-ligatures: none; text-align: center; text-anchor: middle; fill: rgb(226, 226, 226);" d="m 585.91813,120.72 c 7.48799,0 12.67199,-5.472 12.67199,-13.032 V 81.912 c 0,-7.56 -5.184,-13.032 -12.67199,-13.032 -7.48801,0 -12.74401,5.472 -12.74401,13.536 v 24.768 c 0,8.064 5.256,13.536 12.74401,13.536 z m 0,-6.048 c -3.67201,0 -6.192,-2.736 -6.192,-7.2 V 82.128 c 0,-4.464 2.51999,-7.2 6.192,-7.2 3.67199,0 6.12,2.736 6.12,6.696 v 26.352 c 0,3.96 -2.44801,6.696 -6.12,6.696 z" transform="translate(0 253.10056815391658) translate(667.6459766659152 89.96676693626817) scale(1.5791923190515127) translate(-573.17412 -68.88)"></path> 
   <path id="path8686" style="font-style: normal; font-weight: 700; font-size: 72px; line-height: 1; font-family: Phenomena; font-variant-ligatures: none; text-align: center; text-anchor: middle; fill: rgb(226, 226, 226);" d="m 602.65475,70.536 v 4.104 c 0,0.648 0.36,1.008 0.936,1.008 h 13.752 l -10.44,43.272 c -0.144,0.648 0.144,1.08 0.864,1.08 h 4.536 c 0.576,0 0.936,-0.288 1.08,-0.864 L 623.89475,75 c 0.288,-1.224 0.36,-2.088 0.36,-3.384 0,-1.368 -0.792,-2.016 -2.16,-2.016 h -18.504 c -0.576,0 -0.936,0.36 -0.936,0.936 z" transform="translate(0 253.10056815391658) translate(737.8894459084875 91.10378540598525) scale(1.5791923190515127) translate(-602.65475 -69.6)"></path> 
  </g> 
  <g id="tagline" style="font-style:oblique;font-weight:normal;font-size:32px;line-height:1;font-family:'Fira Sans Condensed';font-variant-ligatures:none;text-align:center;text-anchor:middle"></g> 
 </g> 
</svg>