<svg xmlns:dc="http://purl.org/dc/elements/1.1/" xmlns:cc="http://creativecommons.org/ns#" xmlns:rdf="http://www.w3.org/1999/02/22-rdf-syntax-ns#" xmlns:svg="http://www.w3.org/2000/svg" xmlns="http://www.w3.org/2000/svg" id="svg96202" viewbox="0 0 1024 768" height="768px" width="1024px" version="1.1"> <metadata id="metadata96208"> 
  <rdf:rdf> 
   <cc:work rdf:about=""> 
    <dc:format>
     image/svg+xml
    </dc:format> 
    <dc:type rdf:resource="http://purl.org/dc/dcmitype/StillImage"></dc:type> 
   </cc:work> 
  </rdf:rdf> 
 </metadata> <defs id="defs96206"></defs> <g id="logo-group"> 
  <g id="title" style="font-style:normal;font-weight:200;font-size:72px;line-height:1;font-family:Phenomena;font-variant-ligatures:none;text-align:center;text-anchor:middle" aria-label="Stratoo7"> 
   <path id="path96210" style="font-style: normal; font-weight: 200; font-size: 72px; line-height: 1; font-family: Phenomena; font-variant-ligatures: none; text-align: center; text-anchor: middle; fill: rgb(210, 211, 201);" d="m 429.37719,120.504 c 6.84,0 11.16,-4.968 11.16,-11.232 0,-14.76 -20.592,-16.056 -20.592,-28.944 0,-6.12 4.032,-9.864 9.432,-9.864 5.328,0 9.216,3.744 9.36,10.152 0,0.216 0.144,0.36 0.36,0.36 h 0.72 c 0.216,0 0.36,-0.144 0.36,-0.36 0,-7.056 -4.752,-11.52 -10.8,-11.52 -6.264,0 -10.872,4.464 -10.872,11.232 0,13.968 20.592,14.904 20.592,28.944 0,5.544 -3.6,9.864 -9.72,9.864 -5.976,0 -9.648,-4.32 -9.792,-10.152 0,-0.216 -0.144,-0.36 -0.36,-0.36 h -0.72 c -0.216,0 -0.36,0.144 -0.36,0.36 0,6.624 4.392,11.52 11.232,11.52 z" transform="translate(0 167.5797186040999) translate(252.0000000000001 152.56257573134084) scale(2.4843489598723636) translate(-418.14519 -69.096)"></path> 
   <path id="path96212" style="font-style: normal; font-weight: 200; font-size: 72px; line-height: 1; font-family: Phenomena; font-variant-ligatures: none; text-align: center; text-anchor: middle; fill: rgb(210, 211, 201);" d="m 460.85581,118.848 h -1.008 c -5.04,0 -7.704,-3.24 -7.704,-9.36 V 85.296 h 8.064 c 0.216,0 0.36,-0.144 0.36,-0.36 V 84.36 c 0,-0.216 -0.144,-0.36 -0.36,-0.36 h -8.064 v -9.72 c 0,-0.216 -0.144,-0.36 -0.36,-0.36 h -0.648 c -0.216,0 -0.36,0.144 -0.36,0.36 V 84 h -5.04 c -0.216,0 -0.36,0.144 -0.36,0.36 v 0.576 c 0,0.216 0.144,0.36 0.36,0.36 h 5.04 v 24.192 c 0,6.984 3.096,10.656 9.072,10.656 h 1.008 c 0.216,0 0.36,-0.144 0.36,-0.36 v -0.576 c 0,-0.216 -0.144,-0.36 -0.36,-0.36 z" transform="translate(0 167.5797186040999) translate(327.1034093532968 164.54707511376512) scale(2.4843489598723636) translate(-445.37581 -73.92)"></path> 
   <path id="path96214" style="font-style: normal; font-weight: 200; font-size: 72px; line-height: 1; font-family: Phenomena; font-variant-ligatures: none; text-align: center; text-anchor: middle; fill: rgb(210, 211, 201);" d="m 468.17281,120 h 0.648 c 0.216,0 0.36,-0.144 0.36,-0.36 V 95.16 c 0,-5.976 3.96,-10.008 9.432,-10.008 h 2.16 c 0.216,0 0.36,-0.144 0.36,-0.36 v -0.576 c 0,-0.216 -0.144,-0.36 -0.36,-0.36 h -2.16 c -6.192,0 -10.8,4.608 -10.8,11.304 v 24.48 c 0,0.216 0.144,0.36 0.36,0.36 z" transform="translate(0 167.5797186040999) translate(390.2977938455702 189.23156637905691) scale(2.4843489598723636) translate(-467.81281 -83.856)"></path> 
   <path id="path96216" style="font-style: normal; font-weight: 200; font-size: 72px; line-height: 1; font-family: Phenomena; font-variant-ligatures: none; text-align: center; text-anchor: middle; fill: rgb(210, 211, 201);" d="m 494.12656,120.504 c 6.192,0 9.648,-4.32 9.648,-11.16 V 94.368 c 0,-6.84 -3.672,-10.872 -9.648,-10.872 -6.264,0 -9.864,3.888 -10.152,9.144 0,0.216 0.144,0.36 0.36,0.36 h 0.648 c 0.216,0 0.36,-0.144 0.36,-0.36 0.288,-4.464 3.384,-7.848 8.784,-7.848 5.112,0 8.28,3.528 8.28,9.576 v 4.896 h -7.632 c -7.488,0 -11.376,3.816 -11.376,10.08 0,7.128 3.888,11.16 10.728,11.16 z m 0,-1.296 c -5.976,0 -9.36,-3.6 -9.36,-9.864 0,-5.472 3.384,-8.784 10.008,-8.784 h 7.632 v 8.784 c 0,6.048 -2.952,9.864 -8.28,9.864 z" transform="translate(0 167.5797186040999) translate(436.4712825265179 188.33720075350288) scale(2.4843489598723636) translate(-483.39856 -83.496)"></path> 
   <path id="path96218" style="font-style: normal; font-weight: 200; font-size: 72px; line-height: 1; font-family: Phenomena; font-variant-ligatures: none; text-align: center; text-anchor: middle; fill: rgb(210, 211, 201);" d="m 524.55894,118.848 h -1.008 c -5.04,0 -7.704,-3.24 -7.704,-9.36 V 85.296 h 8.064 c 0.216,0 0.36,-0.144 0.36,-0.36 V 84.36 c 0,-0.216 -0.144,-0.36 -0.36,-0.36 h -8.064 v -9.72 c 0,-0.216 -0.144,-0.36 -0.36,-0.36 h -0.648 c -0.216,0 -0.36,0.144 -0.36,0.36 V 84 h -5.04 c -0.216,0 -0.36,0.144 -0.36,0.36 v 0.576 c 0,0.216 0.144,0.36 0.36,0.36 h 5.04 v 24.192 c 0,6.984 3.096,10.656 9.072,10.656 h 1.008 c 0.216,0 0.36,-0.144 0.36,-0.36 v -0.576 c 0,-0.216 -0.144,-0.36 -0.36,-0.36 z" transform="translate(0 167.5797186040999) translate(507.7233547482621 164.54707511376512) scale(2.4843489598723636) translate(-509.07894 -73.92)"></path> 
   <path id="path96220" style="font-style: normal; font-weight: 200; font-size: 72px; line-height: 1; font-family: Phenomena; font-variant-ligatures: none; text-align: center; text-anchor: middle; fill: rgb(210, 211, 201);" d="m 541.09531,120.504 c 6.408,0 10.224,-4.752 10.224,-10.944 V 94.44 c 0,-6.192 -3.816,-10.944 -10.224,-10.944 -6.408,0 -10.224,4.752 -10.224,10.944 v 15.12 c 0,6.192 3.816,10.944 10.224,10.944 z m 0,-1.296 c -5.544,0 -8.856,-4.248 -8.856,-9.648 V 94.44 c 0,-5.4 3.312,-9.648 8.856,-9.648 5.544,0 8.856,4.248 8.856,9.648 v 15.12 c 0,5.4 -3.312,9.648 -8.856,9.648 z" transform="translate(0 167.5797186040999) translate(569.3162533705328 188.33720075350288) scale(2.4843489598723636) translate(-530.87131 -83.496)"></path> 
   <path id="path96222" style="font-style: normal; font-weight: 200; font-size: 72px; line-height: 1; font-family: Phenomena; font-variant-ligatures: none; text-align: center; text-anchor: middle; fill: rgb(70, 65, 55);" d="m 569.92344,120.504 c 6.408,0 10.224,-4.752 10.224,-10.944 V 94.44 c 0,-6.192 -3.816,-10.944 -10.224,-10.944 -6.408,0 -10.224,4.752 -10.224,10.944 v 15.12 c 0,6.192 3.816,10.944 10.224,10.944 z m 0,-1.296 c -5.544,0 -8.856,-4.248 -8.856,-9.648 V 94.44 c 0,-5.4 3.312,-9.648 8.856,-9.648 5.544,0 8.856,4.248 8.856,9.648 v 15.12 c 0,5.4 -3.312,9.648 -8.856,9.648 z" transform="translate(0 167.5797186040999) translate(648.3884350307152 188.33720075350288) scale(2.4843489598723636) translate(-559.69944 -83.496)"></path> 
   <path id="path96224" style="font-style: normal; font-weight: 200; font-size: 72px; line-height: 1; font-family: Phenomena; font-variant-ligatures: none; text-align: center; text-anchor: middle; fill: rgb(70, 65, 55);" d="m 586.51156,69.96 v 0.648 c 0,0.216 0.144,0.36 0.36,0.36 h 18 l -12.168,48.6 c -0.072,0.288 0.144,0.432 0.36,0.432 h 0.72 c 0.216,0 0.288,-0.072 0.36,-0.288 l 12.24,-48.816 c 0.072,-0.36 0.072,-0.576 0.072,-0.864 0,-0.288 -0.216,-0.432 -0.432,-0.432 h -19.152 c -0.216,0 -0.36,0.144 -0.36,0.36 z" transform="translate(0 167.5797186040999) translate(722.4521443443055 153.8146876071165) scale(2.4843489598723636) translate(-586.51156 -69.6)"></path> 
  </g> 
  <g id="tagline" style="font-style:oblique;font-weight:300;font-size:32px;line-height:1;font-family:'Fira Sans Condensed';font-variant-ligatures:none;text-align:center;text-anchor:middle"></g> 
 </g> 
</svg>