<svg xmlns:dc="http://purl.org/dc/elements/1.1/" xmlns:cc="http://creativecommons.org/ns#" xmlns:rdf="http://www.w3.org/1999/02/22-rdf-syntax-ns#" xmlns:svg="http://www.w3.org/2000/svg" xmlns="http://www.w3.org/2000/svg" id="svg9308" viewbox="0 0 1024 768" height="768px" width="1024px" version="1.1"> <metadata id="metadata9314"> 
  <rdf:rdf> 
   <cc:work rdf:about=""> 
    <dc:format>
     image/svg+xml
    </dc:format> 
    <dc:type rdf:resource="http://purl.org/dc/dcmitype/StillImage"></dc:type> 
   </cc:work> 
  </rdf:rdf> 
 </metadata> <defs id="defs9312"></defs> <g id="logo-group"> 
  <g id="title" style="font-style:normal;font-weight:700;font-size:72px;line-height:1;font-family:'Comfortaa Bold Alt1';font-variant-ligatures:none;text-align:center;text-anchor:middle" aria-label="sucessfulo7"> 
   <path id="path9316" style="font-style: normal; font-weight: 700; font-size: 72px; line-height: 1; font-family: &quot;Comfortaa Bold Alt1&quot;; font-variant-ligatures: none; text-align: center; text-anchor: middle; fill: rgb(255, 255, 255);" d="m 324.0935,81.84 c -2.448,-1.008 -5.256,-1.512 -8.352,-1.512 -2.592,0 -4.968,0.432 -7.2,1.224 -2.304,0.864 -4.104,2.088 -5.472,3.672 -1.44,1.656 -2.088,3.672 -2.088,5.976 0,5.832 4.608,9.648 13.824,11.376 3.528,0.72 6.048,1.512 7.56,2.52 1.44,1.008 2.232,2.232 2.232,3.672 0,1.584 -0.792,2.808 -2.304,3.672 -1.512,0.936 -3.6,1.368 -6.336,1.368 -2.088,0 -4.032,-0.36 -5.832,-1.08 -1.872,-0.72 -3.24,-1.656 -4.104,-2.664 -0.864,-0.864 -1.8,-1.296 -2.736,-1.296 -0.792,0 -1.656,0.36 -2.52,1.008 -1.008,0.72 -1.44,1.656 -1.44,2.808 0,0.864 0.288,1.656 0.936,2.232 1.584,1.656 3.888,2.952 6.768,3.96 2.88,1.008 5.904,1.512 9.216,1.512 3.24,0 6.048,-0.504 8.352,-1.512 2.304,-1.008 4.104,-2.448 5.328,-4.248 1.152,-1.8 1.8,-3.816 1.8,-6.048 0,-2.952 -1.152,-5.4 -3.312,-7.272 -2.16,-1.872 -5.904,-3.312 -11.088,-4.392 -2.592,-0.504 -4.536,-1.008 -5.832,-1.584 -1.368,-0.576 -2.304,-1.152 -2.736,-1.8 -0.504,-0.648 -0.72,-1.44 -0.72,-2.448 0,-1.296 0.648,-2.376 2.088,-3.096 1.44,-0.72 3.24,-1.152 5.472,-1.152 1.872,0 3.528,0.288 4.896,0.72 1.296,0.432 2.592,1.224 3.816,2.304 1.008,0.936 2.088,1.368 3.384,1.368 0.792,0 1.44,-0.144 2.016,-0.576 0.792,-0.648 1.224,-1.368 1.224,-2.232 0,-0.72 -0.36,-1.512 -0.936,-2.304 -1.44,-1.728 -3.456,-3.168 -5.904,-4.176 z" transform="translate(0 292.991218387787) translate(252.0000000000001 77.61646594295163) scale(1.137641494160836) translate(-299.3255 -80.328)"></path> 
   <path id="path9318" style="font-style: normal; font-weight: 700; font-size: 72px; line-height: 1; font-family: &quot;Comfortaa Bold Alt1&quot;; font-variant-ligatures: none; text-align: center; text-anchor: middle; fill: rgb(255, 255, 255);" d="M 377.15525,116.328 V 84.216 c 0,-1.08 -0.36,-1.944 -1.008,-2.664 -0.72,-0.648 -1.584,-1.008 -2.664,-1.008 -1.08,0 -1.944,0.36 -2.664,1.008 -0.72,0.72 -1.008,1.584 -1.008,2.664 v 20.304 c 0,1.8 -0.504,3.312 -1.44,4.68 -0.936,1.44 -2.232,2.52 -3.888,3.312 -1.656,0.864 -3.528,1.224 -5.472,1.224 -3.528,0 -6.264,-0.936 -8.352,-2.952 -2.088,-2.016 -3.096,-4.968 -3.096,-8.856 V 84.216 c 0,-1.008 -0.36,-1.872 -1.08,-2.592 -0.72,-0.72 -1.584,-1.08 -2.592,-1.08 -1.08,0 -1.944,0.36 -2.664,1.08 -0.72,0.72 -1.008,1.584 -1.008,2.592 v 17.712 c 0,3.96 0.72,7.272 2.232,10.008 1.44,2.736 3.528,4.896 6.192,6.264 2.52,1.44 5.256,2.16 8.28,2.232 0.144,0 5.688,0 16.848,0 0.936,0 1.728,-0.36 2.376,-1.008 0.648,-0.648 1.008,-1.44 1.008,-2.448 z" transform="translate(0 292.991218387787) translate(301.9353513343223 77.86219650569038) scale(1.137641494160836) translate(-340.21925 -80.544)"></path> 
   <path id="path9320" style="font-style: normal; font-weight: 700; font-size: 72px; line-height: 1; font-family: &quot;Comfortaa Bold Alt1&quot;; font-variant-ligatures: none; text-align: center; text-anchor: middle; fill: rgb(255, 255, 255);" d="m 421.69738,86.808 c -3.74401,-4.32 -8.49601,-6.48 -14.11201,-6.48 -3.74399,0 -7.12799,0.864 -10.07999,2.592 -3.024,1.728 -5.32801,4.104 -6.98401,7.128 -1.656,3.024 -2.448,6.48 -2.448,10.296 0,3.744 0.792,7.2 2.52,10.224 1.728,3.024 4.10401,5.4 7.12801,7.128 3.024,1.728 6.40799,2.592 10.224,2.592 5.18399,0 9.504,-1.584 12.95999,-4.824 0.57601,-0.576 0.86401,-1.224 0.86401,-1.944 0,-0.936 -0.50401,-1.8 -1.368,-2.592 -0.57601,-0.432 -1.22401,-0.648 -1.872,-0.648 -0.86401,0 -1.80001,0.36 -2.66401,1.008 -2.016,1.728 -4.67999,2.52 -7.91999,2.52 -2.52001,0 -4.75201,-0.576 -6.69601,-1.728 -1.94399,-1.152 -3.45599,-2.736 -4.536,-4.752 -1.08,-2.016 -1.584,-4.392 -1.584,-6.984 0,-4.032 1.15201,-7.344 3.456,-9.792 2.304,-2.448 5.25601,-3.744 9,-3.744 1.8,0 3.38401,0.36 4.824,0.936 1.44,0.576 2.736,1.512 3.96,2.808 0.72001,0.864 1.656,1.296 2.808,1.296 0.576,0 1.15201,-0.144 1.656,-0.504 1.008,-0.72 1.584,-1.584 1.584,-2.664 0,-0.72 -0.288,-1.296 -0.71999,-1.872 z" transform="translate(0 292.991218387787) translate(359.78910839535683 77.61646594295163) scale(1.137641494160836) translate(-388.07337 -80.328)"></path> 
   <path id="path9322" style="font-style: normal; font-weight: 700; font-size: 72px; line-height: 1; font-family: &quot;Comfortaa Bold Alt1&quot;; font-variant-ligatures: none; text-align: center; text-anchor: middle; fill: rgb(255, 255, 255);" d="m 467.81788,102 c 0.57599,-0.576 0.93599,-1.368 0.93599,-2.304 0,-3.744 -0.71999,-7.128 -2.15999,-10.08 -1.44001,-2.88 -3.52801,-5.184 -6.192,-6.84 -2.736,-1.584 -5.904,-2.448 -9.57601,-2.448 -3.74399,0 -7.128,0.864 -10.08,2.592 -2.95199,1.728 -5.256,4.104 -6.912,7.128 -1.656,3.024 -2.448,6.48 -2.448,10.296 0,3.888 0.864,7.272 2.592,10.296 1.728,3.024 4.176,5.4 7.344,7.128 3.096,1.728 6.624,2.52 10.584,2.52 2.16,0 4.464,-0.36 6.91201,-1.224 2.44799,-0.792 4.464,-1.872 6.12,-3.168 0.71999,-0.576 1.15199,-1.296 1.15199,-2.16 0,-0.864 -0.432,-1.728 -1.29599,-2.448 -0.57601,-0.432 -1.296,-0.72 -2.16001,-0.72 -0.936,0 -1.728,0.288 -2.37599,0.792 -1.00801,0.792 -2.30401,1.44 -3.88801,1.944 -1.584,0.576 -3.024,0.792 -4.464,0.792 -3.672,0 -6.768,-1.008 -9.28799,-3.096 -2.52001,-2.016 -4.03201,-4.752 -4.536,-8.136 h 27.35999 c 0.93601,0 1.728,-0.288 2.37601,-0.864 z m -25.56,-12.6 c 2.15999,-1.872 5.03999,-2.88 8.56799,-2.88 3.168,0 5.688,1.008 7.704,2.88 1.94401,1.944 3.168,4.536 3.6,7.704 h -23.976 c 0.576,-3.168 1.944,-5.76 4.10401,-7.704 z" transform="translate(0 292.991218387787) translate(412.4761300936806 77.61646594295163) scale(1.137641494160836) translate(-431.38587 -80.328)"></path> 
   <path id="path9324" style="font-style: normal; font-weight: 700; font-size: 72px; line-height: 1; font-family: &quot;Comfortaa Bold Alt1&quot;; font-variant-ligatures: none; text-align: center; text-anchor: middle; fill: rgb(255, 255, 255);" d="m 500.29662,81.84 c -2.448,-1.008 -5.256,-1.512 -8.352,-1.512 -2.592,0 -4.96799,0.432 -7.2,1.224 -2.304,0.864 -4.104,2.088 -5.472,3.672 -1.44,1.656 -2.088,3.672 -2.088,5.976 0,5.832 4.608,9.648 13.824,11.376 3.52801,0.72 6.048,1.512 7.56,2.52 1.44,1.008 2.23201,2.232 2.23201,3.672 0,1.584 -0.79201,2.808 -2.30401,3.672 -1.512,0.936 -3.6,1.368 -6.336,1.368 -2.08799,0 -4.032,-0.36 -5.832,-1.08 -1.872,-0.72 -3.24,-1.656 -4.104,-2.664 -0.86399,-0.864 -1.8,-1.296 -2.73599,-1.296 -0.79201,0 -1.65601,0.36 -2.52001,1.008 -1.008,0.72 -1.44,1.656 -1.44,2.808 0,0.864 0.288,1.656 0.936,2.232 1.58401,1.656 3.888,2.952 6.768,3.96 2.88,1.008 5.904,1.512 9.216,1.512 3.24,0 6.048,-0.504 8.35201,-1.512 2.30399,-1.008 4.10399,-2.448 5.32799,-4.248 1.152,-1.8 1.8,-3.816 1.8,-6.048 0,-2.952 -1.152,-5.4 -3.312,-7.272 -2.16,-1.872 -5.904,-3.312 -11.088,-4.392 -2.592,-0.504 -4.536,-1.008 -5.832,-1.584 -1.368,-0.576 -2.304,-1.152 -2.736,-1.8 -0.504,-0.648 -0.71999,-1.44 -0.71999,-2.448 0,-1.296 0.64799,-2.376 2.08799,-3.096 1.44,-0.72 3.24,-1.152 5.47201,-1.152 1.87199,0 3.52799,0.288 4.89599,0.72 1.296,0.432 2.59201,1.224 3.81601,2.304 1.00799,0.936 2.08799,1.368 3.38399,1.368 0.792,0 1.44001,-0.144 2.016,-0.576 0.79201,-0.648 1.224,-1.368 1.224,-2.232 0,-0.72 -0.36,-1.512 -0.936,-2.304 -1.44,-1.728 -3.456,-3.168 -5.904,-4.176 z" transform="translate(0 292.991218387787) translate(466.1076786425313 77.61646594295163) scale(1.137641494160836) translate(-475.52862 -80.328)"></path> 
   <path id="path9326" style="font-style: normal; font-weight: 700; font-size: 72px; line-height: 1; font-family: &quot;Comfortaa Bold Alt1&quot;; font-variant-ligatures: none; text-align: center; text-anchor: middle; fill: rgb(255, 255, 255);" d="m 539.39037,81.84 c -2.448,-1.008 -5.256,-1.512 -8.352,-1.512 -2.592,0 -4.96799,0.432 -7.19999,1.224 -2.30401,0.864 -4.10401,2.088 -5.47201,3.672 -1.44,1.656 -2.088,3.672 -2.088,5.976 0,5.832 4.60801,9.648 13.82401,11.376 3.52799,0.72 6.04799,1.512 7.55999,2.52 1.44001,1.008 2.232,2.232 2.232,3.672 0,1.584 -0.79199,2.808 -2.304,3.672 -1.51199,0.936 -3.6,1.368 -6.336,1.368 -2.08799,0 -4.03199,-0.36 -5.832,-1.08 -1.87199,-0.72 -3.24,-1.656 -4.104,-2.664 -0.86399,-0.864 -1.8,-1.296 -2.736,-1.296 -0.79199,0 -1.656,0.36 -2.52,1.008 -1.00799,0.72 -1.43999,1.656 -1.43999,2.808 0,0.864 0.288,1.656 0.93599,2.232 1.58401,1.656 3.888,2.952 6.768,3.96 2.88,1.008 5.904,1.512 9.216,1.512 3.24,0 6.048,-0.504 8.352,-1.512 2.304,-1.008 4.104,-2.448 5.32801,-4.248 1.15199,-1.8 1.79999,-3.816 1.79999,-6.048 0,-2.952 -1.152,-5.4 -3.312,-7.272 -2.15999,-1.872 -5.904,-3.312 -11.08799,-4.392 -2.592,-0.504 -4.53601,-1.008 -5.832,-1.584 -1.36801,-0.576 -2.30401,-1.152 -2.736,-1.8 -0.504,-0.648 -0.72,-1.44 -0.72,-2.448 0,-1.296 0.648,-2.376 2.08799,-3.096 1.44001,-0.72 3.24,-1.152 5.472,-1.152 1.87201,0 3.528,0.288 4.89601,0.72 1.29599,0.432 2.592,1.224 3.81599,2.304 1.008,0.936 2.08801,1.368 3.384,1.368 0.792,0 1.44001,-0.144 2.01601,-0.576 0.79199,-0.648 1.22399,-1.368 1.22399,-2.232 0,-0.72 -0.36,-1.512 -0.936,-2.304 -1.44,-1.728 -3.45599,-3.168 -5.904,-4.176 z" transform="translate(0 292.991218387787) translate(513.995286663779 77.61646594295163) scale(1.137641494160836) translate(-514.62238 -80.328)"></path> 
   <path id="path9328" style="font-style: normal; font-weight: 700; font-size: 72px; line-height: 1; font-family: &quot;Comfortaa Bold Alt1&quot;; font-variant-ligatures: none; text-align: center; text-anchor: middle; fill: rgb(255, 255, 255);" d="m 557.02813,82.056 v 6.192 28.08 c 0,1.152 0.288,2.016 1.00799,2.664 0.72,0.72 1.51201,1.008 2.52,1.008 1.152,0 2.08801,-0.288 2.808,-1.008 0.648,-0.648 1.008,-1.512 1.008,-2.664 v -28.08 h 7.34401 c 1.00799,0 1.79999,-0.288 2.448,-0.864 0.576,-0.576 0.936,-1.296 0.936,-2.16 0,-0.936 -0.36,-1.728 -0.936,-2.304 -0.64801,-0.576 -1.44001,-0.864 -2.448,-0.864 h -7.34401 v -1.944 c 0,-2.88 0.79201,-5.256 2.448,-7.056 1.58401,-1.728 3.744,-2.664 6.48,-2.664 1.00801,0 1.87201,-0.288 2.592,-0.936 0.72,-0.576 1.08,-1.368 1.08,-2.376 0,-0.936 -0.36,-1.728 -1.08,-2.376 -0.71999,-0.576 -1.58399,-0.936 -2.592,-0.936 -3.24,0 -6.048,0.72 -8.496,2.16 -2.44799,1.44 -4.392,3.384 -5.76,5.976 -1.368,2.592 -2.01599,5.544 -2.01599,8.928 z" transform="translate(0 292.991218387787) translate(565.6507519372724 58.77712279964818) scale(1.137641494160836) translate(-557.02813 -63.768)"></path> 
   <path id="path9330" style="font-style: normal; font-weight: 700; font-size: 72px; line-height: 1; font-family: &quot;Comfortaa Bold Alt1&quot;; font-variant-ligatures: none; text-align: center; text-anchor: middle; fill: rgb(255, 255, 255);" d="M 618.88963,116.328 V 84.216 c 0,-1.08 -0.36001,-1.944 -1.00801,-2.664 -0.72,-0.648 -1.58399,-1.008 -2.664,-1.008 -1.08,0 -1.94399,0.36 -2.664,1.008 -0.72,0.72 -1.008,1.584 -1.008,2.664 v 20.304 c 0,1.8 -0.504,3.312 -1.43999,4.68 -0.93601,1.44 -2.23201,2.52 -3.88801,3.312 -1.65599,0.864 -3.528,1.224 -5.47199,1.224 -3.52801,0 -6.26401,-0.936 -8.352,-2.952 -2.08801,-2.016 -3.096,-4.968 -3.096,-8.856 V 84.216 c 0,-1.008 -0.36,-1.872 -1.08001,-2.592 -0.72,-0.72 -1.58399,-1.08 -2.59199,-1.08 -1.08001,0 -1.944,0.36 -2.664,1.08 -0.72001,0.72 -1.00801,1.584 -1.00801,2.592 v 17.712 c 0,3.96 0.72001,7.272 2.232,10.008 1.44001,2.736 3.528,4.896 6.192,6.264 2.52,1.44 5.25601,2.16 8.28001,2.232 0.144,0 5.688,0 16.84799,0 0.93601,0 1.728,-0.36 2.376,-1.008 0.648,-0.648 1.00801,-1.44 1.00801,-2.448 z" transform="translate(0 292.991218387787) translate(597.4199481060459 77.86219650569038) scale(1.137641494160836) translate(-581.95362 -80.544)"></path> 
   <path id="path9332" style="font-style: normal; font-weight: 700; font-size: 72px; line-height: 1; font-family: &quot;Comfortaa Bold Alt1&quot;; font-variant-ligatures: none; text-align: center; text-anchor: middle; fill: rgb(255, 255, 255);" d="m 631.39175,64.776 c -0.72,0.72 -1.008,1.584 -1.008,2.592 v 39.312 c 0,2.592 0.432,4.896 1.368,6.912 0.864,2.016 2.16,3.6 3.816,4.752 1.656,1.152 3.528,1.656 5.616,1.656 h 0.144 c 1.44,0 2.592,-0.288 3.528,-1.008 0.864,-0.648 1.368,-1.512 1.368,-2.592 0,-1.008 -0.36,-1.872 -0.936,-2.592 -0.576,-0.648 -1.368,-1.008 -2.304,-1.008 h -1.8 c -1.08,0 -1.944,-0.576 -2.592,-1.728 -0.72,-1.152 -1.008,-2.592 -1.008,-4.392 V 67.368 c 0,-1.008 -0.36,-1.872 -1.008,-2.592 -0.72,-0.648 -1.584,-1.008 -2.592,-1.008 -1.08,0 -1.944,0.36 -2.592,1.008 z" transform="translate(0 292.991218387787) translate(655.9289980441318 58.77712279964818) scale(1.137641494160836) translate(-630.38375 -63.768)"></path> 
   <path id="path9334" style="font-style: normal; font-weight: 700; font-size: 72px; line-height: 1; font-family: &quot;Comfortaa Bold Alt1&quot;; font-variant-ligatures: none; text-align: center; text-anchor: middle; fill: rgb(127, 132, 164);" d="m 679.37863,82.92 c -3.02401,-1.728 -6.408,-2.592 -10.152,-2.592 -3.88801,0 -7.27201,0.864 -10.29601,2.592 -3.024,1.728 -5.4,4.032 -7.05599,7.056 -1.72801,3.024 -2.52,6.48 -2.52,10.368 0,3.888 0.79199,7.272 2.52,10.296 1.65599,3.024 4.03199,5.4 7.05599,7.128 3.024,1.728 6.408,2.52 10.29601,2.52 3.816,0 7.2,-0.792 10.22399,-2.52 3.02401,-1.728 5.32801,-4.104 7.056,-7.128 1.65601,-3.024 2.52,-6.408 2.52,-10.296 0,-3.888 -0.86399,-7.344 -2.592,-10.368 -1.72799,-3.024 -4.032,-5.328 -7.05599,-7.056 z m -16.77601,5.616 c 1.944,-1.152 4.17601,-1.728 6.62401,-1.728 2.44799,0 4.60799,0.576 6.552,1.728 1.94399,1.152 3.456,2.808 4.53599,4.824 1.08001,2.088 1.65601,4.392 1.65601,6.984 0,2.592 -0.576,4.968 -1.65601,6.984 -1.07999,2.016 -2.592,3.6 -4.53599,4.752 -1.94401,1.152 -4.10401,1.728 -6.552,1.728 -2.448,0 -4.68001,-0.576 -6.62401,-1.728 -1.94399,-1.152 -3.456,-2.736 -4.53599,-4.752 -1.15201,-2.016 -1.65601,-4.392 -1.65601,-6.984 0,-2.592 0.504,-4.896 1.65601,-6.984 1.07999,-2.016 2.592,-3.672 4.53599,-4.824 z" transform="translate(0 292.991218387787) translate(680.9239827953604 77.61646594295163) scale(1.137641494160836) translate(-649.35463 -80.328)"></path> 
   <path id="path9336" style="font-style: normal; font-weight: 700; font-size: 72px; line-height: 1; font-family: &quot;Comfortaa Bold Alt1&quot;; font-variant-ligatures: none; text-align: center; text-anchor: middle; fill: rgb(127, 132, 164);" d="m 692.6435,70.104 c 0.72,0.72 1.584,1.008 2.664,1.008 h 21.888 l -20.664,42.912 c -0.432,0.864 -0.648,1.656 -0.648,2.304 0,1.008 0.36,1.872 1.08,2.592 0.72,0.72 1.512,1.08 2.52,1.08 0.648,0 1.296,-0.144 1.944,-0.504 0.576,-0.36 1.08,-0.864 1.44,-1.512 l 23.04,-48.6 c 0.288,-0.72 0.504,-1.368 0.504,-1.944 0,-1.008 -0.36,-1.872 -1.08,-2.592 -0.72,-0.72 -1.584,-1.08 -2.592,-1.08 h -27.432 c -1.08,0 -1.944,0.36 -2.664,1.08 -0.72,0.72 -1.008,1.584 -1.008,2.592 0,1.08 0.288,1.944 1.008,2.664 z" transform="translate(0 292.991218387787) translate(732.4373793990628 58.77712279964818) scale(1.137641494160836) translate(-691.6355 -63.768)"></path> 
  </g> 
  <g id="tagline" style="font-style:normal;font-weight:500;font-size:32px;line-height:1;font-family:Raleway;font-variant-ligatures:none;text-align:center;text-anchor:middle"></g> 
 </g> 
</svg>