<svg xmlns:dc="http://purl.org/dc/elements/1.1/" xmlns:cc="http://creativecommons.org/ns#" xmlns:rdf="http://www.w3.org/1999/02/22-rdf-syntax-ns#" xmlns:svg="http://www.w3.org/2000/svg" xmlns="http://www.w3.org/2000/svg" id="svg9016" viewbox="0 0 1024 768" height="768px" width="1024px" version="1.1"> <metadata id="metadata9022"> 
  <rdf:rdf> 
   <cc:work rdf:about=""> 
    <dc:format>
     image/svg+xml
    </dc:format> 
    <dc:type rdf:resource="http://purl.org/dc/dcmitype/StillImage"></dc:type> 
   </cc:work> 
  </rdf:rdf> 
 </metadata> <defs id="defs9020"></defs> <g id="logo-group"> 
  <g id="title" style="font-style:normal;font-weight:400;font-size:72px;line-height:1;font-family:'Abril Fatface';font-variant-ligatures:none;text-align:center;text-anchor:middle" aria-label="Sunnysideo7"> 
   <path id="path9024" style="font-style: normal; font-weight: 400; font-size: 72px; line-height: 1; font-family: &quot;Abril Fatface&quot;; font-variant-ligatures: none; text-align: center; text-anchor: middle; fill: rgb(55, 55, 55);" d="m 327.20469,119.208 q 3.6,0 6.336,-1.944 2.808,-1.944 2.808,-5.832 0,-3.96 -3.024,-6.048 -2.952,-2.088 -8.496,-3.6 -5.472,-1.584 -7.992,-2.736 -2.448,-1.152 -4.68,-3.024 -4.464,-3.744 -4.464,-11.592 0,-6.408 4.536,-11.016 4.608,-4.608 12.528,-4.608 3.816,0 7.92,1.152 4.176,1.08 5.184,1.08 1.008,0 1.8,-1.44 h 0.792 l 0.504,14.544 h -1.152 q -3.456,-6.264 -7.272,-10.008 -3.744,-3.816 -8.208,-3.816 -4.392,0 -6.84,2.088 -2.448,2.016 -2.448,5.472 0,3.384 2.88,5.256 2.952,1.8 7.2,2.952 4.248,1.152 5.544,1.584 1.368,0.432 3.312,1.224 2.016,0.72 3.24,1.584 1.296,0.792 2.664,2.088 1.44,1.224 2.232,2.736 1.944,3.456 1.944,8.208 0,7.776 -4.896,12.528 -4.824,4.68 -12.744,4.68 -4.104,0 -9.432,-1.08 -5.256,-1.08 -5.832,-1.08 -1.008,0 -1.944,2.16 h -1.008 l -0.72,-17.136 h 1.224 q 3.168,6.264 8.064,10.944 4.968,4.68 10.44,4.68 z" transform="translate(0 280.0042079972309) translate(252.0000000000001 64.94774956986802) scale(1.1764293333604816) translate(-307.47669 -68.808)"></path> 
   <path id="path9026" style="font-style: normal; font-weight: 400; font-size: 72px; line-height: 1; font-family: &quot;Abril Fatface&quot;; font-variant-ligatures: none; text-align: center; text-anchor: middle; fill: rgb(55, 55, 55);" d="m 389.11344,120 h -16.416 l -0.792,-5.256 q -1.152,2.88 -3.456,4.464 -2.232,1.512 -6.696,1.512 -11.16,0 -11.16,-12.024 V 87.024 h -4.032 v -1.296 h 17.424 v 24.696 q 0,4.32 0.576,5.688 0.648,1.368 2.448,1.368 1.872,0 3.312,-2.232 1.44,-2.232 1.44,-6.192 V 87.024 h -3.312 v -1.296 h 16.704 v 32.976 h 3.96 z" transform="translate(0 280.0042079972309) translate(301.5097343871426 84.85293389032736) scale(1.1764293333604816) translate(-346.56144 -85.728)"></path> 
   <path id="path9028" style="font-style: normal; font-weight: 400; font-size: 72px; line-height: 1; font-family: &quot;Abril Fatface&quot;; font-variant-ligatures: none; text-align: center; text-anchor: middle; fill: rgb(55, 55, 55);" d="m 390.73119,85.728 h 17.352 v 6.624 q 1.152,-3.312 3.528,-5.328 2.376,-2.016 7.2,-2.016 11.16,0 11.16,12.024 v 21.672 h 4.032 V 120 h -20.376 v -1.296 h 2.952 v -23.4 q 0,-4.32 -0.576,-5.544 -0.576,-1.296 -2.088,-1.296 -2.304,0 -4.104,3.024 -1.728,3.024 -1.728,7.344 v 19.872 h 3.096 V 120 h -20.448 v -1.296 h 3.96 v -31.68 h -3.96 z" transform="translate(0 280.0042079972309) translate(357.0016119344232 84.00590477030784) scale(1.1764293333604816) translate(-390.73119 -85.008)"></path> 
   <path id="path9030" style="font-style: normal; font-weight: 400; font-size: 72px; line-height: 1; font-family: &quot;Abril Fatface&quot;; font-variant-ligatures: none; text-align: center; text-anchor: middle; fill: rgb(55, 55, 55);" d="m 435.02806,85.728 h 17.352 v 6.624 q 1.152,-3.312 3.528,-5.328 2.376,-2.016 7.2,-2.016 11.16,0 11.16,12.024 v 21.672 h 4.032 V 120 h -20.376 v -1.296 h 2.952 v -23.4 q 0,-4.32 -0.576,-5.544 -0.576,-1.296 -2.088,-1.296 -2.304,0 -4.104,3.024 -1.728,3.024 -1.728,7.344 v 19.872 h 3.096 V 120 h -20.448 v -1.296 h 3.96 v -31.68 h -3.96 z" transform="translate(0 280.0042079972309) translate(412.64303717856046 84.00590477030784) scale(1.1764293333604816) translate(-435.02806 -85.008)"></path> 
   <path id="path9032" style="font-style: normal; font-weight: 400; font-size: 72px; line-height: 1; font-family: &quot;Abril Fatface&quot;; font-variant-ligatures: none; text-align: center; text-anchor: middle; fill: rgb(55, 55, 55);" d="m 475.16469,87.024 v -1.296 h 20.88 v 1.296 h -3.888 l 7.848,23.904 8.352,-23.904 h -4.824 v -1.296 h 10.152 v 1.296 h -3.6 l -13.464,38.808 q -2.376,6.768 -5.328,9.432 -2.952,2.736 -7.2,2.736 -4.248,0 -6.696,-1.944 -2.448,-1.944 -2.448,-4.968 0,-3.024 1.584,-4.608 1.584,-1.584 4.176,-1.584 5.976,0 5.976,4.968 0,1.08 -0.432,2.592 h -2.52 q -0.576,1.656 -0.144,2.736 0.432,1.08 1.944,1.08 2.952,0 5.256,-2.952 2.304,-2.88 4.392,-8.856 l 1.584,-4.464 h -6.336 l -12.312,-32.976 z" transform="translate(0 280.0042079972309) translate(463.1361253168724 84.85293389032736) scale(1.1764293333604816) translate(-474.94869 -85.728)"></path> 
   <path id="path9034" style="font-style: normal; font-weight: 400; font-size: 72px; line-height: 1; font-family: &quot;Abril Fatface&quot;; font-variant-ligatures: none; text-align: center; text-anchor: middle; fill: rgb(55, 55, 55);" d="m 513.32131,120.72 v -12.888 h 0.864 q 1.872,6.264 5.04,8.784 3.168,2.52 7.92,2.52 7.344,0 7.344,-4.68 0,-2.016 -1.8,-3.024 -2.808,-1.584 -7.2,-2.448 -4.896,-1.296 -8.208,-3.456 -3.96,-2.592 -3.96,-8.208 0,-5.616 3.456,-8.928 3.456,-3.384 9.216,-3.384 3.528,0 7.272,1.656 1.368,0.576 2.088,0.576 0.72,0 1.224,-0.504 0.504,-0.504 1.224,-1.872 h 0.792 V 95.88 h -0.864 q -3.672,-9.36 -11.376,-9.36 -3.384,0 -5.04,1.224 -1.656,1.152 -1.656,2.952 0,1.08 0.504,1.728 0.504,0.576 0.792,0.864 0.288,0.288 0.936,0.648 0.648,0.288 1.08,0.504 0.432,0.144 1.296,0.432 0.936,0.288 1.368,0.36 4.896,1.224 7.056,2.16 2.16,0.864 4.104,2.16 3.96,2.736 3.96,8.856 0,6.048 -3.6,9.216 -3.6,3.096 -9.864,3.096 -4.464,0 -8.64,-2.088 -0.864,-0.576 -1.368,-0.576 -1.584,0 -3.096,2.664 z" transform="translate(0 280.0042079972309) translate(511.80808908284894 83.83649894630392) scale(1.1764293333604816) translate(-513.32131 -84.864)"></path> 
   <path id="path9036" style="font-style: normal; font-weight: 400; font-size: 72px; line-height: 1; font-family: &quot;Abril Fatface&quot;; font-variant-ligatures: none; text-align: center; text-anchor: middle; fill: rgb(55, 55, 55);" d="m 553.46806,80.76 q -3.816,0 -5.472,-1.944 -1.584,-1.944 -1.584,-4.824 0,-2.88 1.728,-4.752 1.8,-1.872 5.4,-1.872 3.6,0 5.472,1.728 1.872,1.656 1.872,4.824 0,3.096 -1.8,4.968 -1.8,1.872 -5.616,1.872 z m -10.872,4.968 h 17.64 v 32.976 h 4.032 V 120 h -21.384 v -1.296 h 3.96 v -31.68 h -4.248 z" transform="translate(0 280.0042079972309) translate(549.777051709725 63.25369132982894) scale(1.1764293333604816) translate(-542.59606 -67.368)"></path> 
   <path id="path9038" style="font-style: normal; font-weight: 400; font-size: 72px; line-height: 1; font-family: &quot;Abril Fatface&quot;; font-variant-ligatures: none; text-align: center; text-anchor: middle; fill: rgb(55, 55, 55);" d="m 580.28131,105.096 q 0,7.56 0.792,10.08 0.792,2.448 2.88,2.448 2.16,0 3.672,-1.872 1.584,-1.872 1.584,-5.544 V 94.512 q 0,-3.096 -1.224,-5.256 -1.224,-2.16 -3.6,-2.16 -2.376,0 -3.24,3.168 -0.864,3.168 -0.864,11.088 z m 9.864,14.904 -0.792,-5.04 q -2.448,5.76 -9.936,5.76 -6.192,0 -9.648,-4.464 -3.384,-4.464 -3.384,-13.32 0,-17.928 14.256,-17.928 6.336,0 8.352,3.528 v -21.24 h -4.392 V 66 h 18 v 52.704 h 3.528 V 120 Z" transform="translate(0 280.0042079972309) translate(581.2927112284524 61.644336001791785) scale(1.1764293333604816) translate(-566.38531 -66)"></path> 
   <path id="path9040" style="font-style: normal; font-weight: 400; font-size: 72px; line-height: 1; font-family: &quot;Abril Fatface&quot;; font-variant-ligatures: none; text-align: center; text-anchor: middle; fill: rgb(55, 55, 55);" d="m 626.92944,120.72 q -9.288,0 -13.968,-4.752 -4.608,-4.824 -4.608,-13.32 0,-8.568 5.184,-13.104 5.256,-4.536 13.32,-4.536 16.344,0 15.696,16.416 h -20.304 v 2.808 q 0,7.056 1.8,10.656 1.8,3.6 6.264,3.6 8.352,0 10.944,-8.928 l 1.296,0.216 q -1.368,5.184 -4.968,8.064 -3.528,2.88 -10.656,2.88 z m -4.608,-20.736 h 7.416 v -3.528 q 0,-5.832 -0.72,-7.92 -0.648,-2.16 -2.736,-2.16 -2.016,0 -3.024,2.304 -0.936,2.232 -0.936,7.776 z" transform="translate(0 280.0042079972309) translate(634.1945384268198 84.00590477030784) scale(1.1764293333604816) translate(-608.35344 -85.008)"></path> 
   <path id="path9042" style="font-style: normal; font-weight: 400; font-size: 72px; line-height: 1; font-family: &quot;Abril Fatface&quot;; font-variant-ligatures: none; text-align: center; text-anchor: middle; fill: rgb(5, 6, 36);" d="m 668.37444,105.816 v -6.12 q 0,-6.984 -0.792,-10.152 -0.72,-3.24 -3.456,-3.24 -1.584,0 -2.592,0.936 -0.936,0.864 -1.368,2.952 -0.648,3.24 -0.648,9.864 v 5.616 q 0,7.848 0.432,9.432 0.504,1.584 1.008,2.592 0.792,1.728 3.096,1.728 2.808,0 3.672,-3.24 0.648,-2.304 0.648,-10.368 z m -4.464,14.904 q -9,0 -13.608,-4.608 -4.608,-4.608 -4.608,-13.176 0,-8.64 4.896,-13.248 4.968,-4.68 13.896,-4.68 8.928,0 13.32,4.32 4.392,4.248 4.392,13.032 0,18.36 -18.288,18.36 z" transform="translate(0 280.0042079972309) translate(681.652874163915 84.00590477030784) scale(1.1764293333604816) translate(-645.69444 -85.008)"></path> 
   <path id="path9044" style="font-style: normal; font-weight: 400; font-size: 72px; line-height: 1; font-family: &quot;Abril Fatface&quot;; font-variant-ligatures: none; text-align: center; text-anchor: middle; fill: rgb(5, 6, 36);" d="m 700.41219,120.72 q -3.888,0 -6.12,-2.088 -2.232,-2.16 -2.232,-5.256 0,-3.168 2.088,-6.912 2.16,-3.816 9.288,-12.096 l 11.88,-13.752 h -18.432 q -5.112,0 -6.768,1.296 -1.584,1.224 -2.52,5.976 h -1.152 l 0.792,-18.288 h 32.256 v 7.776 l -7.992,13.968 q -5.328,9.432 -6.84,13.536 -1.44,4.032 -1.44,7.704 0,3.672 2.16,6.768 l -0.504,0.864 q -2.016,0.504 -4.464,0.504 z" transform="translate(0 280.0042079972309) translate(733.1213633911028 65.8794816018895) scale(1.1764293333604816) translate(-686.44419 -69.6)"></path> 
  </g> 
  <g id="tagline" style="font-style:oblique;font-weight:normal;font-size:32px;line-height:1;font-family:'Droid Serif';font-variant-ligatures:none;text-align:center;text-anchor:middle"></g> 
 </g> 
</svg>