<svg xmlns:dc="http://purl.org/dc/elements/1.1/" xmlns:cc="http://creativecommons.org/ns#" xmlns:rdf="http://www.w3.org/1999/02/22-rdf-syntax-ns#" xmlns:svg="http://www.w3.org/2000/svg" xmlns="http://www.w3.org/2000/svg" id="svg586964" viewbox="0 0 1024 768" height="768px" width="1024px" version="1.1"> <metadata id="metadata586970"> 
  <rdf:rdf> 
   <cc:work rdf:about=""> 
    <dc:format>
     image/svg+xml
    </dc:format> 
    <dc:type rdf:resource="http://purl.org/dc/dcmitype/StillImage"></dc:type> 
   </cc:work> 
  </rdf:rdf> 
 </metadata> <defs id="defs586968"></defs> <g id="logo-group"> 
  <g id="title" style="font-style:normal;font-weight:700;font-size:72px;line-height:1;font-family:Phenomena;font-variant-ligatures:none;text-align:center;text-anchor:middle" aria-label="TANGENTO7"> 
   <path id="path586972" style="font-style: normal; font-weight: 700; font-size: 72px; line-height: 1; font-family: Phenomena; font-variant-ligatures: none; text-align: center; text-anchor: middle; fill: rgb(237, 241, 226);" d="m 406.81194,69.6 h -22.104 c -0.576,0 -0.936,0.36 -0.936,0.936 v 4.104 c 0,0.648 0.36,1.008 0.936,1.008 h 7.848 v 43.344 c 0,0.648 0.36,1.008 0.936,1.008 h 4.536 c 0.648,0 1.008,-0.36 1.008,-1.008 V 75.648 h 7.776 c 0.648,0 1.008,-0.36 1.008,-1.008 v -4.104 c 0,-0.576 -0.36,-0.936 -1.008,-0.936 z" transform="translate(0 209.8379789747387) translate(252.0000000000001 122.86619265145764) scale(2.035548744992208) translate(-383.77194 -69.6)"></path> 
   <path id="path586974" style="font-style: normal; font-weight: 700; font-size: 72px; line-height: 1; font-family: Phenomena; font-variant-ligatures: none; text-align: center; text-anchor: middle; fill: rgb(237, 241, 226);" d="m 412.97244,120 h 4.608 c 0.576,0 0.936,-0.36 0.936,-1.008 v -15.984 h 11.664 v 15.984 c 0,0.648 0.432,1.008 1.008,1.008 h 4.536 c 0.648,0 1.008,-0.36 1.008,-1.008 V 82.128 c 0,-7.92 -4.968,-13.248 -12.384,-13.248 -7.416,0 -12.312,5.328 -12.312,13.248 v 36.864 c 0,0.648 0.36,1.008 0.936,1.008 z m 5.544,-22.968 V 81.84 c 0,-4.32 2.16,-6.84 5.832,-6.84 3.744,0 5.832,2.52 5.832,6.84 v 15.192 z" transform="translate(0 209.8379789747387) translate(309.53376750283246 121.40059755506327) scale(2.035548744992208) translate(-412.03644 -68.88)"></path> 
   <path id="path586976" style="font-style: normal; font-weight: 700; font-size: 72px; line-height: 1; font-family: Phenomena; font-variant-ligatures: none; text-align: center; text-anchor: middle; fill: rgb(237, 241, 226);" d="m 445.45681,120 h 4.608 c 0.576,0 0.936,-0.36 0.936,-1.008 V 81.768 c 0,-4.104 2.232,-6.84 5.832,-6.84 3.6,0 5.832,2.736 5.832,6.84 v 37.224 c 0,0.648 0.432,1.008 1.008,1.008 h 4.536 c 0.648,0 1.008,-0.36 1.008,-1.008 V 82.056 c 0,-7.776 -4.896,-13.248 -12.384,-13.248 -7.488,0 -12.312,5.472 -12.312,13.248 v 36.936 c 0,0.648 0.36,1.008 0.936,1.008 z" transform="translate(0 209.8379789747387) translate(375.65728608819484 121.25403804542385) scale(2.035548744992208) translate(-444.52081 -68.808)"></path> 
   <path id="path586978" style="font-style: normal; font-weight: 700; font-size: 72px; line-height: 1; font-family: Phenomena; font-variant-ligatures: none; text-align: center; text-anchor: middle; fill: rgb(237, 241, 226);" d="m 488.88519,120.792 c 7.488,0 12.672,-5.472 12.672,-12.888 v -12.24 c 0,-1.872 -1.08,-2.952 -2.952,-2.952 h -8.496 c -0.648,0 -1.008,0.36 -1.008,1.008 v 3.816 c 0,0.576 0.36,0.936 1.008,0.936 h 4.968 v 9.792 c 0,3.744 -2.52,6.408 -6.12,6.408 -3.672,0 -6.192,-2.664 -6.192,-6.912 V 81.84 c 0,-4.248 2.232,-6.912 5.904,-6.912 3.456,0 5.616,2.592 5.832,6.984 0.072,0.648 0.432,1.008 1.008,1.008 h 4.608 c 0.576,0 0.936,-0.36 0.936,-1.008 -0.216,-7.704 -5.184,-13.104 -12.384,-13.104 -7.488,0 -12.456,5.4 -12.456,13.248 v 25.416 c 0,7.848 5.184,13.32 12.672,13.32 z" transform="translate(0 209.8379789747387) translate(440.16867042301095 121.25403804542385) scale(2.035548744992208) translate(-476.21319 -68.808)"></path> 
   <path id="path586980" style="font-style: normal; font-weight: 700; font-size: 72px; line-height: 1; font-family: Phenomena; font-variant-ligatures: none; text-align: center; text-anchor: middle; fill: rgb(237, 241, 226);" d="m 519.32206,120.216 h 7.56 c 0.576,0 0.936,-0.36 0.936,-0.936 v -4.104 c 0,-0.648 -0.36,-1.008 -0.936,-1.008 h -7.056 c -3.744,0 -6.264,-2.88 -6.264,-6.984 v -9.72 h 11.52 c 0.648,0 1.008,-0.36 1.008,-1.008 v -3.888 c 0,-0.648 -0.36,-1.008 -1.008,-1.008 h -11.52 v -9.144 c 0,-4.104 2.52,-6.984 6.264,-6.984 h 7.056 c 0.576,0 0.936,-0.36 0.936,-1.008 V 70.32 c 0,-0.576 -0.36,-0.936 -0.936,-0.936 h -7.56 c -7.272,0 -12.312,5.472 -12.312,12.888 v 25.056 c 0,7.416 5.04,12.888 12.312,12.888 z" transform="translate(0 209.8379789747387) translate(502.85720050119915 122.42651412253933) scale(2.035548744992208) translate(-507.01006 -69.384)"></path> 
   <path id="path586982" style="font-style: normal; font-weight: 700; font-size: 72px; line-height: 1; font-family: Phenomena; font-variant-ligatures: none; text-align: center; text-anchor: middle; fill: rgb(237, 241, 226);" d="m 534.75369,120 h 4.608 c 0.576,0 0.936,-0.36 0.936,-1.008 V 81.768 c 0,-4.104 2.232,-6.84 5.832,-6.84 3.6,0 5.832,2.736 5.832,6.84 v 37.224 c 0,0.648 0.432,1.008 1.008,1.008 h 4.536 c 0.648,0 1.008,-0.36 1.008,-1.008 V 82.056 c 0,-7.776 -4.896,-13.248 -12.384,-13.248 -7.488,0 -12.312,5.472 -12.312,13.248 v 36.936 c 0,0.648 0.36,1.008 0.936,1.008 z" transform="translate(0 209.8379789747387) translate(557.4254381039144 121.25403804542385) scale(2.035548744992208) translate(-533.81769 -68.808)"></path> 
   <path id="path586984" style="font-style: normal; font-weight: 700; font-size: 72px; line-height: 1; font-family: Phenomena; font-variant-ligatures: none; text-align: center; text-anchor: middle; fill: rgb(237, 241, 226);" d="m 584.70256,69.6 h -22.104 c -0.576,0 -0.936,0.36 -0.936,0.936 v 4.104 c 0,0.648 0.36,1.008 0.936,1.008 h 7.848 v 43.344 c 0,0.648 0.36,1.008 0.936,1.008 h 4.536 c 0.648,0 1.008,-0.36 1.008,-1.008 V 75.648 h 7.776 c 0.648,0 1.008,-0.36 1.008,-1.008 v -4.104 c 0,-0.576 -0.36,-0.936 -1.008,-0.936 z" transform="translate(0 209.8379789747387) translate(614.1050282868855 122.86619265145764) scale(2.035548744992208) translate(-561.66256 -69.6)"></path> 
   <path id="path586986" style="font-style: normal; font-weight: 700; font-size: 72px; line-height: 1; font-family: Phenomena; font-variant-ligatures: none; text-align: center; text-anchor: middle; fill: rgb(224, 228, 213);" d="m 600.89469,120.72 c 7.488,0 12.672,-5.472 12.672,-13.032 V 81.912 c 0,-7.56 -5.184,-13.032 -12.672,-13.032 -7.488,0 -12.744,5.472 -12.744,13.536 v 24.768 c 0,8.064 5.256,13.536 12.744,13.536 z m 0,-6.048 c -3.672,0 -6.192,-2.736 -6.192,-7.2 V 82.128 c 0,-4.464 2.52,-7.2 6.192,-7.2 3.672,0 6.12,2.736 6.12,6.696 v 26.352 c 0,3.96 -2.448,6.696 -6.12,6.696 z" transform="translate(0 209.8379789747387) translate(668.0229080655761 121.40059755506327) scale(2.035548744992208) translate(-588.15069 -68.88)"></path> 
   <path id="path586988" style="font-style: normal; font-weight: 700; font-size: 72px; line-height: 1; font-family: Phenomena; font-variant-ligatures: none; text-align: center; text-anchor: middle; fill: rgb(224, 228, 213);" d="m 617.63131,70.536 v 4.104 c 0,0.648 0.36,1.008 0.936,1.008 h 13.752 l -10.44,43.272 c -0.144,0.648 0.144,1.08 0.864,1.08 h 4.536 c 0.576,0 0.936,-0.288 1.08,-0.864 L 638.87131,75 c 0.288,-1.224 0.36,-2.088 0.36,-3.384 0,-1.368 -0.792,-2.016 -2.16,-2.016 h -18.504 c -0.576,0 -0.936,0.36 -0.936,0.936 z" transform="translate(0 209.8379789747387) translate(728.0321471081679 122.86619265145764) scale(2.035548744992208) translate(-617.63131 -69.6)"></path> 
  </g> 
  <g id="tagline" style="font-style:oblique;font-weight:normal;font-size:32px;line-height:1;font-family:'Fira Sans Condensed';font-variant-ligatures:none;text-align:center;text-anchor:middle"></g> 
 </g> 
</svg>