<svg xmlns:dc="http://purl.org/dc/elements/1.1/" xmlns:cc="http://creativecommons.org/ns#" xmlns:rdf="http://www.w3.org/1999/02/22-rdf-syntax-ns#" xmlns:svg="http://www.w3.org/2000/svg" xmlns="http://www.w3.org/2000/svg" id="svg971375" viewbox="0 0 1024 768" height="768px" width="1024px" version="1.1"> <metadata id="metadata971381"> 
  <rdf:rdf> 
   <cc:work rdf:about=""> 
    <dc:format>
     image/svg+xml
    </dc:format> 
    <dc:type rdf:resource="http://purl.org/dc/dcmitype/StillImage"></dc:type> 
   </cc:work> 
  </rdf:rdf> 
 </metadata> <defs id="defs971379"></defs> <g id="logo-group"> 
  <g id="title" style="font-style:normal;font-weight:800;font-size:72px;line-height:1;font-family:'Montserrat ExtraBold Alt1';font-variant-ligatures:none;text-align:center;text-anchor:middle" aria-label="TECHNOLOGICALO7"> 
   <path id="path971383" style="font-style: normal; font-weight: 800; font-size: 72px; line-height: 1; font-family: &quot;Montserrat ExtraBold Alt1&quot;; font-variant-ligatures: none; text-align: center; text-anchor: middle; fill: rgb(240, 181, 87);" d="M 144.63519,80.904 V 120 h 14.256 V 80.904 h 15.408 V 69.6 h -45.144 v 11.304 z" transform="translate(0 331.49199999999996) translate(225.56332999999995 33.60799999999999) scale(0.75) translate(-129.15519 -69.6)"></path> 
   <path id="path971385" style="font-style: normal; font-weight: 800; font-size: 72px; line-height: 1; font-family: &quot;Montserrat ExtraBold Alt1&quot;; font-variant-ligatures: none; text-align: center; text-anchor: middle; fill: rgb(240, 181, 87);" d="m 219.57031,69.6 h -39.96 v 11.016 h 39.96 z m 0,19.512 h -39.96 v 10.656 h 39.96 z m -39.96,19.872 V 120 h 39.96 v -11.016 z" transform="translate(0 331.49199999999996) translate(263.40466999999995 33.60799999999999) scale(0.75) translate(-179.61031 -69.6)"></path> 
   <path id="path971387" style="font-style: normal; font-weight: 800; font-size: 72px; line-height: 1; font-family: &quot;Montserrat ExtraBold Alt1&quot;; font-variant-ligatures: none; text-align: center; text-anchor: middle; fill: rgb(240, 181, 87);" d="m 238.71669,117.696 c 4.176,2.232 8.928,3.312 14.256,3.312 4.608,0 8.712,-0.792 12.456,-2.448 3.672,-1.584 6.768,-3.96 9.216,-7.056 l -9.072,-8.208 c -3.312,3.96 -7.272,5.904 -11.88,5.904 -2.736,0 -5.184,-0.576 -7.344,-1.8 -2.16,-1.152 -3.816,-2.88 -4.968,-5.04 -1.152,-2.16 -1.728,-4.68 -1.728,-7.56 0,-2.808 0.576,-5.328 1.728,-7.488 1.152,-2.16 2.808,-3.888 4.968,-5.112 2.16,-1.152 4.608,-1.8 7.344,-1.8 4.608,0 8.568,2.016 11.88,5.904 l 9.072,-8.208 c -2.448,-3.024 -5.544,-5.4 -9.216,-7.056 -3.744,-1.584 -7.848,-2.448 -12.456,-2.448 -5.328,0 -10.08,1.152 -14.256,3.384 -4.176,2.232 -7.488,5.328 -9.864,9.288 -2.448,4.032 -3.6,8.496 -3.6,13.536 0,5.04 1.152,9.576 3.6,13.536 2.376,4.032 5.688,7.128 9.864,9.36 z" transform="translate(0 331.49199999999996) translate(297.6364549999999 32.852000000000004) scale(0.75) translate(-225.25269 -68.592)"></path> 
   <path id="path971389" style="font-style: normal; font-weight: 800; font-size: 72px; line-height: 1; font-family: &quot;Montserrat ExtraBold Alt1&quot;; font-variant-ligatures: none; text-align: center; text-anchor: middle; fill: rgb(240, 181, 87);" d="m 328.95294,69.6 h -14.256 v 18.936 h -19.44 V 69.6 h -14.256 V 120 h 14.256 v -19.656 h 19.44 V 120 h 14.256 z" transform="translate(0 331.49199999999996) translate(339.44764249999986 33.60799999999999) scale(0.75) translate(-281.00094 -69.6)"></path> 
   <path id="path971391" style="font-style: normal; font-weight: 800; font-size: 72px; line-height: 1; font-family: &quot;Montserrat ExtraBold Alt1&quot;; font-variant-ligatures: none; text-align: center; text-anchor: middle; fill: rgb(240, 181, 87);" d="m 339.07906,120 h 13.968 v -8.496 l -13.968,-17.784 z m 33.984,-50.4 v 9.144 l 13.968,16.848 V 69.6 Z m 0,26.856 -22.248,-26.856 h -11.736 v 6.696 l 13.968,16.848 22.248,26.856 h 11.736 v -5.832 l -13.968,-17.784 z" transform="translate(0 331.49199999999996) translate(383.0062324999999 33.60799999999999) scale(0.75) translate(-339.07906 -69.6)"></path> 
   <path id="path971393" style="font-style: normal; font-weight: 800; font-size: 72px; line-height: 1; font-family: &quot;Montserrat ExtraBold Alt1&quot;; font-variant-ligatures: none; text-align: center; text-anchor: middle; fill: rgb(240, 181, 87);" d="m 408.17319,117.624 c 4.248,2.304 9.072,3.384 14.4,3.384 5.328,0 10.08,-1.08 14.328,-3.384 4.248,-2.232 7.56,-5.328 10.008,-9.36 2.448,-3.96 3.672,-8.424 3.672,-13.464 0,-4.968 -1.224,-9.432 -3.672,-13.464 -2.448,-3.96 -5.76,-7.056 -10.008,-9.36 -4.248,-2.232 -9,-3.384 -14.328,-3.384 -5.328,0 -10.152,1.152 -14.4,3.384 -4.248,2.304 -7.56,5.4 -10.008,9.36 -2.448,4.032 -3.6,8.496 -3.6,13.464 0,5.04 1.152,9.504 3.6,13.464 2.448,4.032 5.76,7.128 10.008,9.36 z m 21.312,-10.224 c -2.088,1.224 -4.392,1.8 -6.912,1.8 -2.592,0 -4.896,-0.576 -6.912,-1.8 -2.088,-1.152 -3.744,-2.88 -4.896,-5.04 -1.224,-2.16 -1.8,-4.68 -1.8,-7.56 0,-2.808 0.576,-5.328 1.8,-7.488 1.152,-2.16 2.808,-3.888 4.896,-5.112 2.016,-1.152 4.32,-1.8 6.912,-1.8 2.52,0 4.824,0.648 6.912,1.8 2.016,1.224 3.672,2.952 4.896,5.112 1.152,2.16 1.8,4.68 1.8,7.488 0,2.88 -0.648,5.4 -1.8,7.56 -1.224,2.16 -2.88,3.888 -4.896,5.04 z" transform="translate(0 331.49199999999996) translate(424.62082999999984 32.852000000000004) scale(0.75) translate(-394.56519 -68.592)"></path> 
   <path id="path971395" style="font-style: normal; font-weight: 800; font-size: 72px; line-height: 1; font-family: &quot;Montserrat ExtraBold Alt1&quot;; font-variant-ligatures: none; text-align: center; text-anchor: middle; fill: rgb(240, 181, 87);" d="M 458.04781,69.6 V 120 h 38.304 v -11.304 h -24.048 V 69.6 Z" transform="translate(0 331.49199999999996) translate(472.2327949999999 33.60799999999999) scale(0.75) translate(-458.04781 -69.6)"></path> 
   <path id="path971397" style="font-style: normal; font-weight: 800; font-size: 72px; line-height: 1; font-family: &quot;Montserrat ExtraBold Alt1&quot;; font-variant-ligatures: none; text-align: center; text-anchor: middle; fill: rgb(240, 181, 87);" d="m 512.09506,117.624 c 4.248,2.304 9.072,3.384 14.4,3.384 5.328,0 10.08,-1.08 14.328,-3.384 4.248,-2.232 7.56,-5.328 10.008,-9.36 2.448,-3.96 3.672,-8.424 3.672,-13.464 0,-4.968 -1.224,-9.432 -3.672,-13.464 -2.448,-3.96 -5.76,-7.056 -10.008,-9.36 -4.248,-2.232 -9,-3.384 -14.328,-3.384 -5.328,0 -10.152,1.152 -14.4,3.384 -4.248,2.304 -7.56,5.4 -10.008,9.36 -2.448,4.032 -3.6,8.496 -3.6,13.464 0,5.04 1.152,9.504 3.6,13.464 2.448,4.032 5.76,7.128 10.008,9.36 z m 21.312,-10.224 c -2.088,1.224 -4.392,1.8 -6.912,1.8 -2.592,0 -4.896,-0.576 -6.912,-1.8 -2.088,-1.152 -3.744,-2.88 -4.896,-5.04 -1.224,-2.16 -1.8,-4.68 -1.8,-7.56 0,-2.808 0.576,-5.328 1.8,-7.488 1.152,-2.16 2.808,-3.888 4.896,-5.112 2.016,-1.152 4.32,-1.8 6.912,-1.8 2.52,0 4.824,0.648 6.912,1.8 2.016,1.224 3.672,2.952 4.896,5.112 1.152,2.16 1.8,4.68 1.8,7.488 0,2.88 -0.648,5.4 -1.8,7.56 -1.224,2.16 -2.88,3.888 -4.896,5.04 z" transform="translate(0 331.49199999999996) translate(502.5622324999999 32.852000000000004) scale(0.75) translate(-498.48706 -68.592)"></path> 
   <path id="path971399" style="font-style: normal; font-weight: 800; font-size: 72px; line-height: 1; font-family: &quot;Montserrat ExtraBold Alt1&quot;; font-variant-ligatures: none; text-align: center; text-anchor: middle; fill: rgb(240, 181, 87);" d="m 595.73769,93.72 v 13.824 c -2.448,1.152 -4.968,1.656 -7.704,1.656 -2.808,0 -5.256,-0.576 -7.416,-1.8 -2.16,-1.224 -3.888,-2.952 -5.04,-5.112 -1.224,-2.16 -1.8,-4.68 -1.8,-7.488 0,-4.32 1.296,-7.848 3.96,-10.44 2.592,-2.592 6.12,-3.96 10.44,-3.96 4.752,0 8.784,1.872 12.24,5.616 l 9.072,-8.208 c -2.52,-2.952 -5.616,-5.256 -9.36,-6.84 -3.744,-1.584 -7.992,-2.376 -12.672,-2.376 -5.4,0 -10.224,1.152 -14.472,3.384 -4.32,2.232 -7.632,5.328 -10.008,9.288 -2.448,4.032 -3.6,8.496 -3.6,13.536 0,5.04 1.152,9.576 3.6,13.536 2.376,4.032 5.688,7.128 9.936,9.36 4.176,2.232 8.928,3.312 14.256,3.312 3.744,0 7.488,-0.504 11.232,-1.656 3.744,-1.08 7.056,-2.664 9.936,-4.752 V 93.72 Z" transform="translate(0 331.49199999999996) translate(548.2302049999998 32.852000000000004) scale(0.75) translate(-559.37769 -68.592)"></path> 
   <path id="path971401" style="font-style: normal; font-weight: 800; font-size: 72px; line-height: 1; font-family: &quot;Montserrat ExtraBold Alt1&quot;; font-variant-ligatures: none; text-align: center; text-anchor: middle; fill: rgb(240, 181, 87);" d="M 617.37594,69.6 V 120 h 14.256 V 69.6 Z" transform="translate(0 331.49199999999996) translate(591.7288924999999 33.60799999999999) scale(0.75) translate(-617.37594 -69.6)"></path> 
   <path id="path971403" style="font-style: normal; font-weight: 800; font-size: 72px; line-height: 1; font-family: &quot;Montserrat ExtraBold Alt1&quot;; font-variant-ligatures: none; text-align: center; text-anchor: middle; fill: rgb(240, 181, 87);" d="m 652.71669,117.696 c 4.176,2.232 8.928,3.312 14.256,3.312 4.608,0 8.712,-0.792 12.456,-2.448 3.672,-1.584 6.768,-3.96 9.216,-7.056 l -9.072,-8.208 c -3.312,3.96 -7.272,5.904 -11.88,5.904 -2.736,0 -5.184,-0.576 -7.344,-1.8 -2.16,-1.152 -3.816,-2.88 -4.968,-5.04 -1.152,-2.16 -1.728,-4.68 -1.728,-7.56 0,-2.808 0.576,-5.328 1.728,-7.488 1.152,-2.16 2.808,-3.888 4.968,-5.112 2.16,-1.152 4.608,-1.8 7.344,-1.8 4.608,0 8.568,2.016 11.88,5.904 l 9.072,-8.208 c -2.448,-3.024 -5.544,-5.4 -9.216,-7.056 -3.744,-1.584 -7.848,-2.448 -12.456,-2.448 -5.328,0 -10.08,1.152 -14.256,3.384 -4.176,2.232 -7.488,5.328 -9.864,9.288 -2.448,4.032 -3.6,8.496 -3.6,13.536 0,5.04 1.152,9.576 3.6,13.536 2.376,4.032 5.688,7.128 9.864,9.36 z" transform="translate(0 331.49199999999996) translate(608.136455 32.852000000000004) scale(0.75) translate(-639.25269 -68.592)"></path> 
   <path id="path971405" style="font-style: normal; font-weight: 800; font-size: 72px; line-height: 1; font-family: &quot;Montserrat ExtraBold Alt1&quot;; font-variant-ligatures: none; text-align: center; text-anchor: middle; fill: rgb(240, 181, 87);" d="m 724.32519,69.6 h -14.04 l -22.248,50.4 h 14.544 l 3.96,-9.792 4.176,-10.512 6.48,-16.128 6.48,16.128 4.176,10.512 3.96,9.792 h 14.832 z" transform="translate(0 331.49199999999996) translate(644.7248299999999 33.60799999999999) scale(0.75) translate(-688.03719 -69.6)"></path> 
   <path id="path971407" style="font-style: normal; font-weight: 800; font-size: 72px; line-height: 1; font-family: &quot;Montserrat ExtraBold Alt1&quot;; font-variant-ligatures: none; text-align: center; text-anchor: middle; fill: rgb(240, 181, 87);" d="M 750.68844,69.6 V 120 h 38.304 v -11.304 h -24.048 V 69.6 Z" transform="translate(0 331.49199999999996) translate(691.7132674999999 33.60799999999999) scale(0.75) translate(-750.68844 -69.6)"></path> 
   <path id="path971409" style="font-style: normal; font-weight: 800; font-size: 72px; line-height: 1; font-family: &quot;Montserrat ExtraBold Alt1&quot;; font-variant-ligatures: none; text-align: center; text-anchor: middle; fill: rgb(213, 214, 216);" d="m 804.73569,117.624 c 4.248,2.304 9.072,3.384 14.4,3.384 5.328,0 10.08,-1.08 14.328,-3.384 4.248,-2.232 7.56,-5.328 10.008,-9.36 2.448,-3.96 3.672,-8.424 3.672,-13.464 0,-4.968 -1.224,-9.432 -3.672,-13.464 -2.448,-3.96 -5.76,-7.056 -10.008,-9.36 -4.248,-2.232 -9,-3.384 -14.328,-3.384 -5.328,0 -10.152,1.152 -14.4,3.384 -4.248,2.304 -7.56,5.4 -10.008,9.36 -2.448,4.032 -3.6,8.496 -3.6,13.464 0,5.04 1.152,9.504 3.6,13.464 2.448,4.032 5.76,7.128 10.008,9.36 z m 21.312,-10.224 c -2.088,1.224 -4.392,1.8 -6.912,1.8 -2.592,0 -4.896,-0.576 -6.912,-1.8 -2.088,-1.152 -3.744,-2.88 -4.896,-5.04 -1.224,-2.16 -1.8,-4.68 -1.8,-7.56 0,-2.808 0.576,-5.328 1.8,-7.488 1.152,-2.16 2.808,-3.888 4.896,-5.112 2.016,-1.152 4.32,-1.8 6.912,-1.8 2.52,0 4.824,0.648 6.912,1.8 2.016,1.224 3.672,2.952 4.896,5.112 1.152,2.16 1.8,4.68 1.8,7.488 0,2.88 -0.648,5.4 -1.8,7.56 -1.224,2.16 -2.88,3.888 -4.896,5.04 z" transform="translate(0 331.49199999999996) translate(722.0427049999998 32.852000000000004) scale(0.75) translate(-791.12769 -68.592)"></path> 
   <path id="path971411" style="font-style: normal; font-weight: 800; font-size: 72px; line-height: 1; font-family: &quot;Montserrat ExtraBold Alt1&quot;; font-variant-ligatures: none; text-align: center; text-anchor: middle; fill: rgb(213, 214, 216);" d="m 892.98631,69.6 h -41.76 v 19.08 h 12.168 v -7.776 h 13.248 L 859.65031,120 h 15.552 l 17.784,-41.472 z" transform="translate(0 331.49199999999996) translate(767.1166699999998 33.60799999999999) scale(0.75) translate(-851.22631 -69.6)"></path> 
  </g> 
  <g id="tagline" style="font-style:normal;font-weight:500;font-size:32px;line-height:1;font-family:Montserrat;font-variant-ligatures:none;text-align:center;text-anchor:middle"></g> 
 </g> 
</svg>