<svg xmlns:dc="http://purl.org/dc/elements/1.1/" xmlns:cc="http://creativecommons.org/ns#" xmlns:rdf="http://www.w3.org/1999/02/22-rdf-syntax-ns#" xmlns:svg="http://www.w3.org/2000/svg" xmlns="http://www.w3.org/2000/svg" id="svg267272" viewbox="0 0 1024 768" height="768px" width="1024px" version="1.1"> <metadata id="metadata267278"> 
  <rdf:rdf> 
   <cc:work rdf:about=""> 
    <dc:format>
     image/svg+xml
    </dc:format> 
    <dc:type rdf:resource="http://purl.org/dc/dcmitype/StillImage"></dc:type> 
   </cc:work> 
  </rdf:rdf> 
 </metadata> <defs id="defs267276"></defs> <g id="logo-group"> 
  <g id="title" style="font-style:normal;font-weight:700;font-size:72px;line-height:1;font-family:'Comfortaa Bold Alt2';font-variant-ligatures:none;text-align:center;text-anchor:middle" aria-label="TESTDRIVEO7"> 
   <path id="path267280" style="font-style: normal; font-weight: 700; font-size: 72px; line-height: 1; font-family: &quot;Comfortaa Bold Alt2&quot;; font-variant-ligatures: none; text-align: center; text-anchor: middle; fill: rgb(104, 152, 195);" d="m 296.78525,64.776 c -0.648,-0.648 -1.44,-1.008 -2.448,-1.008 h -38.52 c -1.008,0 -1.872,0.36 -2.52,1.008 -0.648,0.648 -0.936,1.44 -0.936,2.448 0,1.008 0.288,1.872 0.936,2.52 0.648,0.648 1.512,0.936 2.52,0.936 h 15.552 v 45.576 c 0,1.08 0.36,1.944 1.08,2.664 0.72,0.72 1.584,1.08 2.664,1.08 1.008,0 1.944,-0.36 2.664,-1.08 0.72,-0.72 1.08,-1.584 1.08,-2.664 V 70.68 h 15.48 c 1.008,0 1.8,-0.288 2.448,-0.936 0.648,-0.648 1.008,-1.512 1.008,-2.52 0,-1.008 -0.36,-1.8 -1.008,-2.448 z" transform="translate(0 304.73786713211814) translate(252.00000000000006 51.01269948562977) scale(1.0034609754991495) translate(-252.36125 -63.768)"></path> 
   <path id="path267282" style="font-style: normal; font-weight: 700; font-size: 72px; line-height: 1; font-family: &quot;Comfortaa Bold Alt2&quot;; font-variant-ligatures: none; text-align: center; text-anchor: middle; fill: rgb(104, 152, 195);" d="m 344.9645,114.024 c -0.72,-0.576 -1.584,-0.936 -2.664,-0.936 h -28.8 v -18 h 20.664 c 1.008,0 1.872,-0.288 2.592,-0.936 0.72,-0.648 1.08,-1.512 1.08,-2.52 0,-1.008 -0.36,-1.8 -1.08,-2.448 -0.72,-0.648 -1.584,-1.008 -2.592,-1.008 h -20.664 V 70.68 h 28.8 c 1.08,0 1.944,-0.288 2.664,-0.936 0.648,-0.576 1.008,-1.44 1.008,-2.448 0,-1.008 -0.36,-1.872 -1.008,-2.52 -0.72,-0.648 -1.584,-1.008 -2.664,-1.008 h -32.544 c -1.08,0 -1.944,0.36 -2.664,1.08 -0.72,0.72 -1.08,1.584 -1.08,2.664 v 48.744 c 0,1.08 0.36,1.944 1.08,2.664 0.72,0.72 1.584,1.08 2.664,1.08 h 32.544 c 1.08,0 1.944,-0.288 2.664,-0.936 0.648,-0.648 1.008,-1.512 1.008,-2.592 0,-1.008 -0.36,-1.8 -1.008,-2.448 z" transform="translate(0 304.73786713211814) translate(305.8369356617488 51.01269948562977) scale(1.0034609754991495) translate(-306.0125 -63.768)"></path> 
   <path id="path267284" style="font-style: normal; font-weight: 700; font-size: 72px; line-height: 1; font-family: &quot;Comfortaa Bold Alt2&quot;; font-variant-ligatures: none; text-align: center; text-anchor: middle; fill: rgb(104, 152, 195);" d="m 385.66025,65.64 c -2.88,-1.656 -6.336,-2.52 -10.44,-2.52 -3.816,0 -7.272,0.648 -10.296,1.8 -3.024,1.152 -5.472,2.88 -7.2,5.112 -1.728,2.232 -2.592,4.896 -2.592,7.92 0,4.392 1.656,8.064 5.112,10.944 3.384,2.88 8.064,4.608 14.04,5.184 4.32,0.432 7.488,1.656 9.648,3.6 2.088,1.944 3.168,4.248 3.168,6.984 0,2.88 -1.296,5.184 -3.744,6.84 -2.52,1.656 -5.544,2.448 -9.144,2.448 -3.096,0 -5.904,-0.648 -8.424,-1.944 -2.592,-1.296 -4.248,-2.88 -5.112,-4.752 -0.36,-0.72 -0.864,-1.368 -1.584,-1.8 -0.72,-0.432 -1.44,-0.72 -2.16,-0.72 -0.36,0 -0.576,0.072 -0.72,0.072 -0.936,0.216 -1.656,0.576 -2.16,1.152 -0.576,0.576 -0.792,1.152 -0.792,1.872 0,0.432 0.072,0.864 0.36,1.44 1.44,3.456 4.032,6.192 7.848,8.28 3.816,2.16 8.064,3.168 12.744,3.168 3.528,0 6.84,-0.576 9.936,-1.8 3.096,-1.224 5.616,-3.096 7.488,-5.544 1.872,-2.448 2.808,-5.472 2.808,-8.928 0,-4.752 -1.584,-8.568 -4.752,-11.448 -3.168,-2.88 -7.632,-4.68 -13.392,-5.256 -5.184,-0.504 -8.784,-1.584 -10.8,-3.312 -2.016,-1.656 -3.024,-3.744 -3.024,-6.264 0,-2.664 1.08,-4.68 3.384,-6.12 2.232,-1.44 5.184,-2.16 8.856,-2.16 2.952,0 5.4,0.576 7.344,1.728 1.944,1.152 3.6,2.736 4.896,4.896 0.288,0.648 0.792,1.152 1.44,1.512 0.576,0.36 1.296,0.504 2.016,0.504 0.72,0 1.296,-0.144 1.872,-0.504 0.936,-0.648 1.44,-1.512 1.44,-2.592 0,-0.792 -0.288,-1.656 -0.864,-2.592 -2.016,-3.096 -4.392,-5.472 -7.2,-7.2 z" transform="translate(0 304.73786713211814) translate(353.2482089668888 50.362456773506324) scale(1.0034609754991495) translate(-353.26025 -63.12)"></path> 
   <path id="path267286" style="font-style: normal; font-weight: 700; font-size: 72px; line-height: 1; font-family: &quot;Comfortaa Bold Alt2&quot;; font-variant-ligatures: none; text-align: center; text-anchor: middle; fill: rgb(104, 152, 195);" d="m 441.34775,64.776 c -0.648,-0.648 -1.44,-1.008 -2.448,-1.008 h -38.52 c -1.008,0 -1.872,0.36 -2.52,1.008 -0.648,0.648 -0.936,1.44 -0.936,2.448 0,1.008 0.288,1.872 0.936,2.52 0.648,0.648 1.512,0.936 2.52,0.936 h 15.552 v 45.576 c 0,1.08 0.36,1.944 1.08,2.664 0.72,0.72 1.584,1.08 2.664,1.08 1.008,0 1.944,-0.36 2.664,-1.08 0.72,-0.72 1.08,-1.584 1.08,-2.664 V 70.68 h 15.48 c 1.008,0 1.8,-0.288 2.448,-0.936 0.648,-0.648 1.008,-1.512 1.008,-2.52 0,-1.008 -0.36,-1.8 -1.008,-2.448 z" transform="translate(0 304.73786713211814) translate(397.0628272705959 51.01269948562977) scale(1.0034609754991495) translate(-396.92375 -63.768)"></path> 
   <path id="path267288" style="font-style: normal; font-weight: 700; font-size: 72px; line-height: 1; font-family: &quot;Comfortaa Bold Alt2&quot;; font-variant-ligatures: none; text-align: center; text-anchor: middle; fill: rgb(104, 152, 195);" d="m 481.823,67.368 c -4.248,-2.376 -9.072,-3.6 -14.472,-3.6 h -13.032 c -1.08,0 -1.944,0.36 -2.664,1.08 -0.72,0.72 -1.08,1.584 -1.08,2.664 v 48.744 c 0,1.08 0.36,1.944 1.08,2.664 0.72,0.72 1.584,1.08 2.664,1.08 h 13.032 c 5.4,0 10.224,-1.152 14.472,-3.6 4.176,-2.376 7.488,-5.688 9.864,-10.008 2.304,-4.248 3.528,-9.072 3.528,-14.544 0,-5.4 -1.224,-10.224 -3.528,-14.472 -2.376,-4.248 -5.688,-7.56 -9.864,-10.008 z m -3.816,43.272 c -3.168,1.872 -6.696,2.736 -10.656,2.736 h -9.288 V 70.392 h 9.288 c 3.96,0 7.488,0.936 10.656,2.736 3.168,1.872 5.616,4.392 7.344,7.632 1.728,3.312 2.664,6.984 2.664,11.088 0,4.176 -0.936,7.848 -2.664,11.16 -1.728,3.312 -4.176,5.832 -7.344,7.632 z" transform="translate(0 304.73786713211814) translate(450.89976293234463 51.01269948562977) scale(1.0034609754991495) translate(-450.575 -63.768)"></path> 
   <path id="path267290" style="font-style: normal; font-weight: 700; font-size: 72px; line-height: 1; font-family: &quot;Comfortaa Bold Alt2&quot;; font-variant-ligatures: none; text-align: center; text-anchor: middle; fill: rgb(104, 152, 195);" d="m 540.58962,120.144 c 0.72,0 1.368,-0.216 2.01601,-0.648 0.79199,-0.576 1.29599,-1.368 1.51199,-2.376 0.144,-0.936 0,-1.872 -0.576,-2.664 l -11.88,-17.136 c 2.52001,-1.08 4.60801,-2.664 6.408,-4.752 2.808,-3.24 4.17601,-7.056 4.17601,-11.304 0,-4.824 -1.72801,-8.928 -5.112,-12.384 -3.456,-3.384 -7.56001,-5.112 -12.384,-5.112 h -14.04 c -1.00801,0 -1.80001,0.36 -2.52001,1.08 -0.72,0.72 -1.08,1.512 -1.08,2.52 v 49.104 c 0,1.008 0.36,1.872 1.08,2.52 0.72,0.72 1.512,1.08 2.52001,1.08 1.00799,0 1.872,-0.36 2.52,-1.08 0.71999,-0.648 1.07999,-1.512 1.07999,-2.52 V 70.968 h 10.44001 c 2.808,0 5.25599,1.008 7.27199,3.024 2.01601,2.016 3.024,4.392 3.024,7.272 0,2.52 -0.86399,4.752 -2.448,6.624 -1.58399,1.872 -3.6,3.024 -5.976,3.456 l -1.296,0.144 c -1.368,0.144 -2.376,0.864 -2.88,2.088 -0.64799,1.224 -0.50399,2.448 0.288,3.528 l 14.904,21.456 c 0.648,1.008 1.65601,1.584 2.952,1.584 z" transform="translate(0 304.73786713211814) translate(507.6300478670184 51.01269948562977) scale(1.0034609754991495) translate(-507.10962 -63.768)"></path> 
   <path id="path267292" style="font-style: normal; font-weight: 700; font-size: 72px; line-height: 1; font-family: &quot;Comfortaa Bold Alt2&quot;; font-variant-ligatures: none; text-align: center; text-anchor: middle; fill: rgb(104, 152, 195);" d="m 553.60812,64.848 c -0.72,0.72 -1.07999,1.584 -1.07999,2.664 v 48.744 c 0,1.08 0.35999,1.944 1.07999,2.664 0.72,0.72 1.58401,1.08 2.664,1.08 1.08,0 1.94401,-0.36 2.664,-1.08 0.72,-0.72 1.08,-1.584 1.08,-2.664 V 67.512 c 0,-1.08 -0.36,-1.944 -1.08,-2.664 -0.71999,-0.72 -1.584,-1.08 -2.664,-1.08 -1.07999,0 -1.944,0.36 -2.664,1.08 z" transform="translate(0 304.73786713211814) translate(553.2057502173362 51.01269948562977) scale(1.0034609754991495) translate(-552.52813 -63.768)"></path> 
   <path id="path267294" style="font-style: normal; font-weight: 700; font-size: 72px; line-height: 1; font-family: &quot;Comfortaa Bold Alt2&quot;; font-variant-ligatures: none; text-align: center; text-anchor: middle; fill: rgb(104, 152, 195);" d="m 617.95362,64.632 c -0.576,-0.576 -1.43999,-0.864 -2.448,-0.864 -0.864,0 -1.584,0.216 -2.08799,0.504 -0.576,0.288 -1.00801,0.864 -1.29601,1.728 l -18.432,43.488 L 575.54562,66 c -0.648,-1.44 -1.79999,-2.232 -3.456,-2.232 -1.07999,0 -1.944,0.288 -2.52,0.864 -0.576,0.576 -0.86399,1.296 -0.86399,2.232 0,0.72 0.14399,1.512 0.57599,2.52 l 21.096,48.24 c 0.72,1.584 1.80001,2.376 3.384,2.376 1.58401,0 2.736,-0.792 3.384,-2.376 l 21.312,-48.888 c 0.28801,-0.648 0.43201,-1.296 0.43201,-1.872 0,-0.864 -0.36001,-1.656 -0.93601,-2.232 z" transform="translate(0 304.73786713211814) translate(569.4392401484738 51.01269948562977) scale(1.0034609754991495) translate(-568.70563 -63.768)"></path> 
   <path id="path267296" style="font-style: normal; font-weight: 700; font-size: 72px; line-height: 1; font-family: &quot;Comfortaa Bold Alt2&quot;; font-variant-ligatures: none; text-align: center; text-anchor: middle; fill: rgb(104, 152, 195);" d="m 666.43325,114.024 c -0.72,-0.576 -1.584,-0.936 -2.664,-0.936 h -28.8 v -18 h 20.664 c 1.008,0 1.872,-0.288 2.592,-0.936 0.72,-0.648 1.08,-1.512 1.08,-2.52 0,-1.008 -0.36,-1.8 -1.08,-2.448 -0.72,-0.648 -1.584,-1.008 -2.592,-1.008 h -20.664 V 70.68 h 28.8 c 1.08,0 1.944,-0.288 2.664,-0.936 0.648,-0.576 1.008,-1.44 1.008,-2.448 0,-1.008 -0.36,-1.872 -1.008,-2.52 -0.72,-0.648 -1.584,-1.008 -2.664,-1.008 h -32.544 c -1.08,0 -1.944,0.36 -2.664,1.08 -0.72,0.72 -1.08,1.584 -1.08,2.664 v 48.744 c 0,1.08 0.36,1.944 1.08,2.664 0.72,0.72 1.584,1.08 2.664,1.08 h 32.544 c 1.08,0 1.944,-0.288 2.664,-0.936 0.648,-0.648 1.008,-1.512 1.008,-2.592 0,-1.008 -0.36,-1.8 -1.008,-2.448 z" transform="translate(0 304.73786713211814) translate(628.4182811292411 51.01269948562977) scale(1.0034609754991495) translate(-627.48125 -63.768)"></path> 
   <path id="path267298" style="font-style: normal; font-weight: 700; font-size: 72px; line-height: 1; font-family: &quot;Comfortaa Bold Alt2&quot;; font-variant-ligatures: none; text-align: center; text-anchor: middle; fill: rgb(255, 199, 67);" d="m 703.817,120.864 c 3.888,0 7.632,-0.792 11.232,-2.304 3.456,-1.44 6.552,-3.528 9.216,-6.192 2.664,-2.664 4.752,-5.688 6.192,-9.216 1.512,-3.528 2.304,-7.272 2.304,-11.232 0,-3.96 -0.792,-7.704 -2.304,-11.304 -1.44,-3.456 -3.528,-6.48 -6.192,-9.144 -2.664,-2.664 -5.76,-4.752 -9.216,-6.192 -3.6,-1.512 -7.344,-2.304 -11.232,-2.304 -3.96,0 -7.704,0.792 -11.304,2.304 -3.456,1.44 -6.552,3.528 -9.216,6.192 -2.664,2.664 -4.752,5.688 -6.192,9.144 -1.512,3.6 -2.232,7.344 -2.232,11.304 0,3.96 0.72,7.704 2.232,11.232 1.44,3.528 3.528,6.552 6.192,9.216 2.664,2.664 5.76,4.752 9.216,6.192 3.6,1.512 7.344,2.304 11.304,2.304 z m 0,-50.688 c 5.976,0 11.088,2.088 15.336,6.336 4.248,4.248 6.408,9.432 6.408,15.408 0,5.976 -2.16,11.088 -6.408,15.336 -4.248,4.248 -9.36,6.408 -15.336,6.408 -6.048,0 -11.16,-2.16 -15.408,-6.408 -4.248,-4.176 -6.336,-9.36 -6.336,-15.336 0,-5.976 2.088,-11.16 6.336,-15.408 4.248,-4.248 9.36,-6.336 15.408,-6.336 z" transform="translate(0 304.73786713211814) translate(675.9740528148528 50.217958393034436) scale(1.0034609754991495) translate(-674.873 -62.976)"></path> 
   <path id="path267300" style="font-style: normal; font-weight: 700; font-size: 72px; line-height: 1; font-family: &quot;Comfortaa Bold Alt2&quot;; font-variant-ligatures: none; text-align: center; text-anchor: middle; fill: rgb(255, 199, 67);" d="m 736.79975,70.104 c 0.72,0.72 1.584,1.008 2.664,1.008 h 21.888 l -20.664,42.912 c -0.432,0.864 -0.648,1.656 -0.648,2.304 0,1.008 0.36,1.872 1.08,2.592 0.72,0.72 1.512,1.08 2.52,1.08 0.648,0 1.296,-0.144 1.944,-0.504 0.576,-0.36 1.08,-0.864 1.44,-1.512 l 23.04,-48.6 c 0.288,-0.72 0.504,-1.368 0.504,-1.944 0,-1.008 -0.36,-1.872 -1.08,-2.592 -0.72,-0.72 -1.584,-1.08 -2.592,-1.08 h -27.432 c -1.08,0 -1.944,0.36 -2.664,1.08 -0.72,0.72 -1.008,1.584 -1.008,2.592 0,1.08 0.288,1.944 1.008,2.664 z" transform="translate(0 304.73786713211814) translate(737.1036411160414 51.01269948562977) scale(1.0034609754991495) translate(-735.79175 -63.768)"></path> 
  </g> 
  <g id="tagline" style="font-style:normal;font-weight:500;font-size:32px;line-height:1;font-family:Raleway;font-variant-ligatures:none;text-align:center;text-anchor:middle"></g> 
 </g> 
</svg>