<svg xmlns:dc="http://purl.org/dc/elements/1.1/" xmlns:cc="http://creativecommons.org/ns#" xmlns:rdf="http://www.w3.org/1999/02/22-rdf-syntax-ns#" xmlns:svg="http://www.w3.org/2000/svg" xmlns="http://www.w3.org/2000/svg" id="svg396706" viewbox="0 0 1024 768" height="768px" width="1024px" version="1.1"> <metadata id="metadata396712"> 
  <rdf:rdf> 
   <cc:work rdf:about=""> 
    <dc:format>
     image/svg+xml
    </dc:format> 
    <dc:type rdf:resource="http://purl.org/dc/dcmitype/StillImage"></dc:type> 
   </cc:work> 
  </rdf:rdf> 
 </metadata> <defs id="defs396710"></defs> <g id="logo-group"> 
  <g id="title" style="font-style:normal;font-weight:400;font-size:72px;line-height:1;font-family:'Abril Fatface';font-variant-ligatures:none;text-align:center;text-anchor:middle" aria-label="Thermalo7"> 
   <path id="path396714" style="font-style: normal; font-weight: 400; font-size: 72px; line-height: 1; font-family: &quot;Abril Fatface&quot;; font-variant-ligatures: none; text-align: center; text-anchor: middle; fill: rgb(169, 214, 33);" d="m 373.64356,69.6 0.72,18.072 h -1.368 q -3.168,-9.576 -5.616,-13.032 -2.448,-3.528 -7.056,-3.528 h -0.864 v 47.376 h 6.12 V 120 h -26.28 v -1.512 h 6.12 V 71.112 h -0.936 q -4.608,0 -7.128,3.672 -2.52,3.6 -5.544,12.888 h -1.368 l 0.72,-18.072 z" transform="translate(0 284.68646508001456) translate(252.0000000000001 69.96638850076036) scale(1.235149260068396) translate(-330.44356 -69.6)"></path> 
   <path id="path396716" style="font-style: normal; font-weight: 400; font-size: 72px; line-height: 1; font-family: &quot;Abril Fatface&quot;; font-variant-ligatures: none; text-align: center; text-anchor: middle; fill: rgb(169, 214, 33);" d="m 377.79031,66 h 17.352 v 26.352 q 1.152,-3.312 3.528,-5.328 2.376,-2.016 7.2,-2.016 11.16,0 11.16,12.024 v 21.672 h 4.032 V 120 h -20.376 v -1.296 h 2.952 v -23.4 q 0,-4.32 -0.576,-5.544 -0.576,-1.296 -2.088,-1.296 -2.304,0 -4.104,3.024 -1.728,3.024 -1.728,7.344 v 19.872 h 3.096 V 120 h -20.448 v -1.296 h 3.96 V 67.296 h -3.96 z" transform="translate(0 284.68646508001456) translate(319.1263480496222 65.51985116451414) scale(1.235149260068396) translate(-377.79031 -66)"></path> 
   <path id="path396718" style="font-style: normal; font-weight: 400; font-size: 72px; line-height: 1; font-family: &quot;Abril Fatface&quot;; font-variant-ligatures: none; text-align: center; text-anchor: middle; fill: rgb(169, 214, 33);" d="m 441.02319,120.72 q -9.288,0 -13.968,-4.752 -4.608,-4.824 -4.608,-13.32 0,-8.568 5.184,-13.104 5.256,-4.536 13.32,-4.536 16.344,0 15.696,16.416 h -20.304 v 2.808 q 0,7.056 1.8,10.656 1.8,3.6 6.264,3.6 8.352,0 10.944,-8.928 l 1.296,0.216 q -1.368,5.184 -4.968,8.064 -3.528,2.88 -10.656,2.88 z m -4.608,-20.736 h 7.416 v -3.528 q 0,-5.832 -0.72,-7.92 -0.648,-2.16 -2.736,-2.16 -2.016,0 -3.024,2.304 -0.936,2.232 -0.936,7.776 z" transform="translate(0 284.68646508001456) translate(382.9303051590641 88.9975682998942) scale(1.235149260068396) translate(-422.44719 -85.008)"></path> 
   <path id="path396720" style="font-style: normal; font-weight: 400; font-size: 72px; line-height: 1; font-family: &quot;Abril Fatface&quot;; font-variant-ligatures: none; text-align: center; text-anchor: middle; fill: rgb(169, 214, 33);" d="m 483.26019,87.744 q -2.664,0 -4.68,3.456 -2.016,3.456 -2.016,8.208 v 19.296 h 5.112 V 120 h -22.464 v -1.296 h 3.96 v -31.68 h -3.96 v -1.296 h 17.352 v 6.912 q 0.936,-3.672 3.6,-5.616 2.664,-2.016 6.048,-2.016 3.384,0 5.472,1.944 2.16,1.872 2.16,5.4 0,3.456 -1.584,5.328 -1.584,1.872 -4.896,1.872 -3.24,0 -4.824,-2.16 -1.512,-2.16 -0.36,-5.976 h 2.592 q 1.8,-3.672 -1.512,-3.672 z" transform="translate(0 284.68646508001456) translate(436.98661252595747 88.9975682998942) scale(1.235149260068396) translate(-459.21219 -85.008)"></path> 
   <path id="path396722" style="font-style: normal; font-weight: 400; font-size: 72px; line-height: 1; font-family: &quot;Abril Fatface&quot;; font-variant-ligatures: none; text-align: center; text-anchor: middle; fill: rgb(169, 214, 33);" d="m 494.79031,85.728 h 17.352 v 6.624 q 2.376,-7.344 10.44,-7.344 8.136,0 9.864,7.776 2.52,-7.776 10.584,-7.776 10.584,0 10.584,12.024 v 21.672 h 4.032 V 120 h -19.944 v -1.296 h 2.52 v -23.4 q 0,-5.472 -0.936,-6.408 -0.432,-0.432 -1.152,-0.432 -2.088,0 -3.672,2.808 -1.584,2.808 -1.584,7.128 v 20.304 h 2.592 V 120 h -18.504 v -1.296 h 2.52 v -23.4 q 0,-5.472 -0.936,-6.408 -0.432,-0.432 -1.152,-0.432 -2.016,0 -3.672,3.096 -1.584,3.024 -1.584,7.272 v 19.872 h 2.592 V 120 h -19.944 v -1.296 h 3.96 v -31.68 h -3.96 z" transform="translate(0 284.68646508001456) translate(489.5769459390608 88.9975682998942) scale(1.235149260068396) translate(-494.79031 -85.008)"></path> 
   <path id="path396724" style="font-style: normal; font-weight: 400; font-size: 72px; line-height: 1; font-family: &quot;Abril Fatface&quot;; font-variant-ligatures: none; text-align: center; text-anchor: middle; fill: rgb(169, 214, 33);" d="m 576.05469,103.08 h 2.088 v -5.544 q 0,-6.84 -0.792,-9.144 -0.72,-2.376 -2.88,-2.376 -1.296,0 -2.376,0.72 -1.008,0.648 -1.008,1.872 0,1.152 0.432,2.376 h 1.8 q 0.576,1.512 0.576,3.672 0,2.088 -1.8,3.672 -1.8,1.512 -4.536,1.512 -6.192,0 -6.192,-5.976 0,-8.856 15.048,-8.856 8.568,0 11.808,2.952 3.312,2.88 3.312,10.656 v 14.616 q 0,3.744 2.088,3.744 2.448,0 2.88,-7.416 l 1.08,0.072 q -0.288,6.336 -2.376,8.712 -2.088,2.376 -6.84,2.376 -8.64,0 -9.936,-5.328 -0.936,2.736 -2.808,4.032 -1.872,1.296 -5.472,1.296 -10.656,0 -10.656,-8.712 0,-5.112 4.032,-6.984 4.104,-1.944 12.528,-1.944 z m -2.88,8.856 q 0,3.744 0.36,4.824 0.432,1.08 1.512,1.08 1.152,0 2.088,-1.8 1.008,-1.872 1.008,-5.112 v -6.696 h -0.504 q -4.464,0 -4.464,6.552 z" transform="translate(0 284.68646508001456) translate(578.142557839724 88.9975682998942) scale(1.235149260068396) translate(-559.49469 -85.008)"></path> 
   <path id="path396726" style="font-style: normal; font-weight: 400; font-size: 72px; line-height: 1; font-family: &quot;Abril Fatface&quot;; font-variant-ligatures: none; text-align: center; text-anchor: middle; fill: rgb(169, 214, 33);" d="m 598.00231,66 h 17.64 v 52.704 h 4.032 V 120 h -21.384 v -1.296 h 3.96 V 67.296 h -4.248 z" transform="translate(0 284.68646508001456) translate(634.3512610101977 65.51985116451414) scale(1.235149260068396) translate(-598.00231 -66)"></path> 
   <path id="path396728" style="font-style: normal; font-weight: 400; font-size: 72px; line-height: 1; font-family: &quot;Abril Fatface&quot;; font-variant-ligatures: none; text-align: center; text-anchor: middle; fill: rgb(152, 212, 131);" d="m 644.32756,105.816 v -6.12 q 0,-6.984 -0.792,-10.152 -0.72,-3.24 -3.456,-3.24 -1.584,0 -2.592,0.936 -0.936,0.864 -1.368,2.952 -0.648,3.24 -0.648,9.864 v 5.616 q 0,7.848 0.432,9.432 0.504,1.584 1.008,2.592 0.792,1.728 3.096,1.728 2.808,0 3.672,-3.24 0.648,-2.304 0.648,-10.368 z m -4.464,14.904 q -9,0 -13.608,-4.608 -4.608,-4.608 -4.608,-13.176 0,-8.64 4.896,-13.248 4.968,-4.68 13.896,-4.68 8.928,0 13.32,4.32 4.392,4.248 4.392,13.032 0,18.36 -18.288,18.36 z" transform="translate(0 284.68646508001456) translate(672.2027188723088 88.9975682998942) scale(1.235149260068396) translate(-621.64756 -85.008)"></path> 
   <path id="path396730" style="font-style: normal; font-weight: 400; font-size: 72px; line-height: 1; font-family: &quot;Abril Fatface&quot;; font-variant-ligatures: none; text-align: center; text-anchor: middle; fill: rgb(152, 212, 131);" d="m 676.36531,120.72 q -3.888,0 -6.12,-2.088 -2.232,-2.16 -2.232,-5.256 0,-3.168 2.088,-6.912 2.16,-3.816 9.288,-12.096 l 11.88,-13.752 h -18.432 q -5.112,0 -6.768,1.296 -1.584,1.224 -2.52,5.976 h -1.152 l 0.792,-18.288 h 32.256 v 7.776 l -7.992,13.968 q -5.328,9.432 -6.84,13.536 -1.44,4.032 -1.44,7.704 0,3.672 2.16,6.768 l -0.504,0.864 q -2.016,0.504 -4.464,0.504 z" transform="translate(0 284.68646508001456) translate(731.1807872532596 69.96638850076036) scale(1.235149260068396) translate(-662.39731 -69.6)"></path> 
  </g> 
  <g id="tagline" style="font-style:oblique;font-weight:normal;font-size:32px;line-height:1;font-family:'Droid Serif';font-variant-ligatures:none;text-align:center;text-anchor:middle"></g> 
 </g> 
</svg>