<svg xmlns:dc="http://purl.org/dc/elements/1.1/" xmlns:cc="http://creativecommons.org/ns#" xmlns:rdf="http://www.w3.org/1999/02/22-rdf-syntax-ns#" xmlns:svg="http://www.w3.org/2000/svg" xmlns="http://www.w3.org/2000/svg" id="svg7834" viewbox="0 0 1024 768" height="768px" width="1024px" version="1.1"> <metadata id="metadata7840"> 
  <rdf:rdf> 
   <cc:work rdf:about=""> 
    <dc:format>
     image/svg+xml
    </dc:format> 
    <dc:type rdf:resource="http://purl.org/dc/dcmitype/StillImage"></dc:type> 
   </cc:work> 
  </rdf:rdf> 
 </metadata> <defs id="defs7838"></defs> <g id="logo-group"> 
  <g id="title" style="font-style:normal;font-weight:800;font-size:72px;line-height:1;font-family:'Montserrat ExtraBold Alt1';font-variant-ligatures:none;text-align:center;text-anchor:middle" aria-label="THINKBIGO7"> 
   <path id="path7842" style="font-style: normal; font-weight: 800; font-size: 72px; line-height: 1; font-family: &quot;Montserrat ExtraBold Alt1&quot;; font-variant-ligatures: none; text-align: center; text-anchor: middle; fill: rgb(165, 101, 88);" d="M 286.66644,80.904 V 120 h 14.256 V 80.904 h 15.408 V 69.6 h -45.144 v 11.304 z" transform="translate(0 299.8424704455243) translate(251.99999999999994 56.84436347037452) scale(1.0838557969881397) translate(-271.18644 -69.6)"></path> 
   <path id="path7844" style="font-style: normal; font-weight: 800; font-size: 72px; line-height: 1; font-family: &quot;Montserrat ExtraBold Alt1&quot;; font-variant-ligatures: none; text-align: center; text-anchor: middle; fill: rgb(165, 101, 88);" d="m 369.59356,69.6 h -14.256 v 18.936 h -19.44 V 69.6 h -14.256 V 120 h 14.256 v -19.656 h 19.44 V 120 h 14.256 z" transform="translate(0 299.8424704455243) translate(306.68607429973224 56.84436347037452) scale(1.0838557969881397) translate(-321.64156 -69.6)"></path> 
   <path id="path7846" style="font-style: normal; font-weight: 800; font-size: 72px; line-height: 1; font-family: &quot;Montserrat ExtraBold Alt1&quot;; font-variant-ligatures: none; text-align: center; text-anchor: middle; fill: rgb(165, 101, 88);" d="M 379.71969,69.6 V 120 h 14.256 V 69.6 Z" transform="translate(0 299.8424704455243) translate(369.63439217846303 56.84436347037452) scale(1.0838557969881397) translate(-379.71969 -69.6)"></path> 
   <path id="path7848" style="font-style: normal; font-weight: 800; font-size: 72px; line-height: 1; font-family: &quot;Montserrat ExtraBold Alt1&quot;; font-variant-ligatures: none; text-align: center; text-anchor: middle; fill: rgb(165, 101, 88);" d="m 404.18844,120 h 13.968 v -8.496 l -13.968,-17.784 z m 33.984,-50.4 v 9.144 l 13.968,16.848 V 69.6 Z m 0,26.856 -22.248,-26.856 h -11.736 v 6.696 l 13.968,16.848 22.248,26.856 h 11.736 v -5.832 l -13.968,-17.784 z" transform="translate(0 299.8424704455243) translate(396.1549887110166 56.84436347037452) scale(1.0838557969881397) translate(-404.18844 -69.6)"></path> 
   <path id="path7850" style="font-style: normal; font-weight: 800; font-size: 72px; line-height: 1; font-family: &quot;Montserrat ExtraBold Alt1&quot;; font-variant-ligatures: none; text-align: center; text-anchor: middle; fill: rgb(165, 101, 88);" d="m 476.37856,69.6 h -14.112 v 21.456 l 14.112,-15.336 z m 14.616,22.32 20.592,-22.32 h -15.696 l -19.512,20.952 -14.112,15.192 V 120 h 14.112 v -12.6 l 5.328,-5.688 14.4,18.288 h 16.56 z" transform="translate(0 299.8424704455243) translate(459.1032957511894 56.84436347037452) scale(1.0838557969881397) translate(-462.26656 -69.6)"></path> 
   <path id="path7852" style="font-style: normal; font-weight: 800; font-size: 72px; line-height: 1; font-family: &quot;Montserrat ExtraBold Alt1&quot;; font-variant-ligatures: none; text-align: center; text-anchor: middle; fill: rgb(165, 101, 88);" d="m 561.91119,98.472 c -1.656,-2.16 -3.96,-3.744 -6.768,-4.752 2.088,-1.08 3.816,-2.592 4.968,-4.464 1.152,-1.872 1.8,-4.032 1.8,-6.48 0,-4.032 -1.728,-7.2 -5.04,-9.576 -3.384,-2.376 -8.28,-3.6 -14.688,-3.6 h -25.776 v 10.296 h 23.904 c 4.752,0 7.2,1.656 7.2,4.824 0,3.312 -2.448,4.896 -7.2,4.896 h -23.904 v 9.864 h 26.064 c 4.968,0 7.488,1.728 7.488,5.112 0,3.456 -2.52,5.112 -7.488,5.112 h -26.064 V 120 h 27.216 c 6.696,0 11.808,-1.152 15.408,-3.6 3.528,-2.376 5.328,-5.76 5.328,-10.224 0,-3.024 -0.864,-5.544 -2.448,-7.704 z" transform="translate(0 299.8424704455243) translate(517.7839314292794 56.84436347037452) scale(1.0838557969881397) translate(-516.40719 -69.6)"></path> 
   <path id="path7854" style="font-style: normal; font-weight: 800; font-size: 72px; line-height: 1; font-family: &quot;Montserrat ExtraBold Alt1&quot;; font-variant-ligatures: none; text-align: center; text-anchor: middle; fill: rgb(165, 101, 88);" d="M 571.81344,69.6 V 120 h 14.256 V 69.6 Z" transform="translate(0 299.8424704455243) translate(577.8363166811536 56.84436347037452) scale(1.0838557969881397) translate(-571.81344 -69.6)"></path> 
   <path id="path7856" style="font-style: normal; font-weight: 800; font-size: 72px; line-height: 1; font-family: &quot;Montserrat ExtraBold Alt1&quot;; font-variant-ligatures: none; text-align: center; text-anchor: middle; fill: rgb(165, 101, 88);" d="m 630.05019,93.72 v 13.824 c -2.448,1.152 -4.968,1.656 -7.704,1.656 -2.808,0 -5.256,-0.576 -7.416,-1.8 -2.16,-1.224 -3.888,-2.952 -5.04,-5.112 -1.224,-2.16 -1.8,-4.68 -1.8,-7.488 0,-4.32 1.296,-7.848 3.96,-10.44 2.592,-2.592 6.12,-3.96 10.44,-3.96 4.752,0 8.784,1.872 12.24,5.616 l 9.072,-8.208 c -2.52,-2.952 -5.616,-5.256 -9.36,-6.84 -3.744,-1.584 -7.992,-2.376 -12.672,-2.376 -5.4,0 -10.224,1.152 -14.472,3.384 -4.32,2.232 -7.632,5.328 -10.008,9.288 -2.448,4.032 -3.6,8.496 -3.6,13.536 0,5.04 1.152,9.576 3.6,13.536 2.376,4.032 5.688,7.128 9.936,9.36 4.176,2.232 8.928,3.312 14.256,3.312 3.744,0 7.488,-0.504 11.232,-1.656 3.744,-1.08 7.056,-2.664 9.936,-4.752 V 93.72 Z" transform="translate(0 299.8424704455243) translate(601.5475589879139 55.75183682701048) scale(1.0838557969881397) translate(-593.69019 -68.592)"></path> 
   <path id="path7858" style="font-style: normal; font-weight: 800; font-size: 72px; line-height: 1; font-family: &quot;Montserrat ExtraBold Alt1&quot;; font-variant-ligatures: none; text-align: center; text-anchor: middle; fill: rgb(209, 105, 87);" d="m 662.70444,117.624 c 4.248,2.304 9.072,3.384 14.4,3.384 5.328,0 10.08,-1.08 14.328,-3.384 4.248,-2.232 7.56,-5.328 10.008,-9.36 2.448,-3.96 3.672,-8.424 3.672,-13.464 0,-4.968 -1.224,-9.432 -3.672,-13.464 -2.448,-3.96 -5.76,-7.056 -10.008,-9.36 -4.248,-2.232 -9,-3.384 -14.328,-3.384 -5.328,0 -10.152,1.152 -14.4,3.384 -4.248,2.304 -7.56,5.4 -10.008,9.36 -2.448,4.032 -3.6,8.496 -3.6,13.464 0,5.04 1.152,9.504 3.6,13.464 2.448,4.032 5.76,7.128 10.008,9.36 z m 21.312,-10.224 c -2.088,1.224 -4.392,1.8 -6.912,1.8 -2.592,0 -4.896,-0.576 -6.912,-1.8 -2.088,-1.152 -3.744,-2.88 -4.896,-5.04 -1.224,-2.16 -1.8,-4.68 -1.8,-7.56 0,-2.808 0.576,-5.328 1.8,-7.488 1.152,-2.16 2.808,-3.888 4.896,-5.112 2.016,-1.152 4.32,-1.8 6.912,-1.8 2.52,0 4.824,0.648 6.912,1.8 2.016,1.224 3.672,2.952 4.896,5.112 1.152,2.16 1.8,4.68 1.8,7.488 0,2.88 -0.648,5.4 -1.8,7.56 -1.224,2.16 -2.88,3.888 -4.896,5.04 z" transform="translate(0 299.8424704455243) translate(661.5999442397881 55.75183682701048) scale(1.0838557969881397) translate(-649.09644 -68.592)"></path> 
   <path id="path7860" style="font-style: normal; font-weight: 800; font-size: 72px; line-height: 1; font-family: &quot;Montserrat ExtraBold Alt1&quot;; font-variant-ligatures: none; text-align: center; text-anchor: middle; fill: rgb(209, 105, 87);" d="m 750.95506,69.6 h -41.76 v 19.08 h 12.168 v -7.776 h 13.248 L 717.61906,120 h 15.552 l 17.784,-41.472 z" transform="translate(0 299.8424704455243) translate(726.7381819177755 56.84436347037452) scale(1.0838557969881397) translate(-709.19506 -69.6)"></path> 
  </g> 
  <g id="tagline" style="font-style:normal;font-weight:500;font-size:32px;line-height:1;font-family:Montserrat;font-variant-ligatures:none;text-align:center;text-anchor:middle"></g> 
 </g> 
</svg>