<svg xmlns:dc="http://purl.org/dc/elements/1.1/" xmlns:cc="http://creativecommons.org/ns#" xmlns:rdf="http://www.w3.org/1999/02/22-rdf-syntax-ns#" xmlns:svg="http://www.w3.org/2000/svg" xmlns="http://www.w3.org/2000/svg" id="svg121340" viewbox="0 0 1024 768" height="768px" width="1024px" version="1.1"> <metadata id="metadata121346"> 
  <rdf:rdf> 
   <cc:work rdf:about=""> 
    <dc:format>
     image/svg+xml
    </dc:format> 
    <dc:type rdf:resource="http://purl.org/dc/dcmitype/StillImage"></dc:type> 
   </cc:work> 
  </rdf:rdf> 
 </metadata> <defs id="defs121344"></defs> <g id="logo-group"> 
  <g id="title" style="font-style:normal;font-weight:300;font-size:72px;line-height:1;font-family:'Montserrat Light Alt1';font-variant-ligatures:none;text-align:center;text-anchor:middle" aria-label="TIPTOPO7"> 
   <path id="path121348" style="font-style: normal; font-weight: 300; font-size: 72px; line-height: 1; font-family: &quot;Montserrat Light Alt1&quot;; font-variant-ligatures: none; text-align: center; text-anchor: middle; fill: rgb(35, 31, 32);" d="M 348.182,72.912 V 120 h 3.672 V 72.912 h 18.144 V 69.6 h -39.96 v 3.312 z" transform="translate(0 266.70049590241615) translate(252 81.00419288177041) scale(1.440290127611644) translate(-330.038 -69.6)"></path> 
   <path id="path121350" style="font-style: normal; font-weight: 300; font-size: 72px; line-height: 1; font-family: &quot;Montserrat Light Alt1&quot;; font-variant-ligatures: none; text-align: center; text-anchor: middle; fill: rgb(35, 31, 32);" d="M 379.034,69.6 V 120 h 3.672 V 69.6 Z" transform="translate(0 266.70049590241615) translate(322.5684550924601 81.00419288177041) scale(1.440290127611644) translate(-379.034 -69.6)"></path> 
   <path id="path121352" style="font-style: normal; font-weight: 300; font-size: 72px; line-height: 1; font-family: &quot;Montserrat Light Alt1&quot;; font-variant-ligatures: none; text-align: center; text-anchor: middle; fill: rgb(35, 31, 32);" d="m 433.24437,74.136 c -3.59999,-3.024 -8.568,-4.536 -14.904,-4.536 h -18.072 v 3.312 h 18.072 c 5.328,0 9.432,1.224 12.312,3.6 2.808,2.376 4.248,5.76 4.248,10.08 0,4.392 -1.44,7.776 -4.248,10.08 -2.88,2.376 -6.984,3.528 -12.312,3.528 h -18.072 V 120 h 3.67201 v -16.488 h 14.39999 c 6.336,0 11.30401,-1.44 14.904,-4.464 3.60001,-3.024 5.40001,-7.128 5.40001,-12.456 0,-5.256 -1.8,-9.432 -5.40001,-12.456 z" transform="translate(0 266.70049590241615) translate(353.15210856951296 81.00419288177041) scale(1.440290127611644) translate(-400.26837 -69.6)"></path> 
   <path id="path121354" style="font-style: normal; font-weight: 300; font-size: 72px; line-height: 1; font-family: &quot;Montserrat Light Alt1&quot;; font-variant-ligatures: none; text-align: center; text-anchor: middle; fill: rgb(35, 31, 32);" d="M 458.9945,72.912 V 120 h 3.672 V 72.912 h 18.144 V 69.6 h -39.96 v 3.312 z" transform="translate(0 266.70049590241615) translate(411.6021497659653 81.00419288177041) scale(1.440290127611644) translate(-440.8505 -69.6)"></path> 
   <path id="path121356" style="font-style: normal; font-weight: 300; font-size: 72px; line-height: 1; font-family: &quot;Montserrat Light Alt1&quot;; font-variant-ligatures: none; text-align: center; text-anchor: middle; fill: rgb(35, 31, 32);" d="m 497.13537,117.048 c 3.96,2.232 8.424,3.312 13.392,3.312 4.896,0 9.36001,-1.08 13.392,-3.312 3.96,-2.16 7.056,-5.256 9.36,-9.144 2.30401,-3.888 3.456,-8.208 3.456,-13.104 0,-4.824 -1.15199,-9.216 -3.456,-13.104 -2.304,-3.888 -5.4,-6.912 -9.36,-9.144 -4.03199,-2.16 -8.496,-3.312 -13.392,-3.312 -4.968,0 -9.432,1.152 -13.392,3.384 -4.03199,2.232 -7.12799,5.256 -9.432,9.144 -2.30399,3.888 -3.384,8.28 -3.384,13.032 0,4.824 1.08001,9.144 3.384,13.032 2.30401,3.888 5.40001,6.984 9.432,9.216 z m 24.84,-2.952 c -3.456,1.944 -7.27199,2.88 -11.448,2.88 -4.24799,0 -8.064,-0.936 -11.51999,-2.88 -3.45601,-1.872 -6.12,-4.536 -8.06401,-7.92 -2.016,-3.384 -2.952,-7.2 -2.952,-11.376 0,-4.176 0.936,-7.92 2.952,-11.304 1.94401,-3.384 4.608,-6.048 8.06401,-7.992 3.45599,-1.872 7.272,-2.88 11.51999,-2.88 4.17601,0 7.992,1.008 11.448,2.88 3.384,1.944 6.048,4.608 8.06401,7.992 1.944,3.384 2.95199,7.128 2.95199,11.304 0,4.176 -1.00799,7.992 -2.95199,11.376 -2.01601,3.384 -4.68001,6.048 -8.06401,7.92 z" transform="translate(0 266.70049590241615) translate(474.20993408539925 80.48568843583023) scale(1.440290127611644) translate(-484.31937 -69.24)"></path> 
   <path id="path121358" style="font-style: normal; font-weight: 300; font-size: 72px; line-height: 1; font-family: &quot;Montserrat Light Alt1&quot;; font-variant-ligatures: none; text-align: center; text-anchor: middle; fill: rgb(35, 31, 32);" d="m 582.4475,74.136 c -3.6,-3.024 -8.568,-4.536 -14.904,-4.536 h -18.072 v 3.312 h 18.072 c 5.328,0 9.432,1.224 12.312,3.6 2.808,2.376 4.248,5.76 4.248,10.08 0,4.392 -1.44,7.776 -4.248,10.08 -2.88,2.376 -6.984,3.528 -12.312,3.528 h -18.072 V 120 h 3.672 v -16.488 h 14.4 c 6.336,0 11.304,-1.44 14.904,-4.464 3.6,-3.024 5.4,-7.128 5.4,-12.456 0,-5.256 -1.8,-9.432 -5.4,-12.456 z" transform="translate(0 266.70049590241615) translate(568.0479037172696 81.00419288177041) scale(1.440290127611644) translate(-549.4715 -69.6)"></path> 
   <path id="path121360" style="font-style: normal; font-weight: 300; font-size: 72px; line-height: 1; font-family: &quot;Montserrat Light Alt1&quot;; font-variant-ligatures: none; text-align: center; text-anchor: middle; fill: rgb(240, 90, 57);" d="m 608.93225,117.048 c 3.96,2.232 8.424,3.312 13.392,3.312 4.896,0 9.36,-1.08 13.392,-3.312 3.96,-2.16 7.056,-5.256 9.36,-9.144 2.304,-3.888 3.456,-8.208 3.456,-13.104 0,-4.824 -1.152,-9.216 -3.456,-13.104 -2.304,-3.888 -5.4,-6.912 -9.36,-9.144 -4.032,-2.16 -8.496,-3.312 -13.392,-3.312 -4.968,0 -9.432,1.152 -13.392,3.384 -4.032,2.232 -7.128,5.256 -9.432,9.144 -2.304,3.888 -3.384,8.28 -3.384,13.032 0,4.824 1.08,9.144 3.384,13.032 2.304,3.888 5.4,6.984 9.432,9.216 z m 24.84,-2.952 c -3.456,1.944 -7.272,2.88 -11.448,2.88 -4.248,0 -8.064,-0.936 -11.52,-2.88 -3.456,-1.872 -6.12,-4.536 -8.064,-7.92 -2.016,-3.384 -2.952,-7.2 -2.952,-11.376 0,-4.176 0.936,-7.92 2.952,-11.304 1.944,-3.384 4.608,-6.048 8.064,-7.992 3.456,-1.872 7.272,-2.88 11.52,-2.88 4.176,0 7.992,1.008 11.448,2.88 3.384,1.944 6.048,4.608 8.064,7.992 1.944,3.384 2.952,7.128 2.952,11.304 0,4.176 -1.008,7.992 -2.952,11.376 -2.016,3.384 -4.68,6.048 -8.064,7.92 z" transform="translate(0 266.70049590241615) translate(635.229876647183 80.48568843583023) scale(1.440290127611644) translate(-596.11625 -69.24)"></path> 
   <path id="path121362" style="font-style: normal; font-weight: 300; font-size: 72px; line-height: 1; font-family: &quot;Montserrat Light Alt1&quot;; font-variant-ligatures: none; text-align: center; text-anchor: middle; fill: rgb(240, 90, 57);" d="m 691.07637,69.6 h -36.144 v 12.96 h 3.6 v -9.648 h 28.29601 L 665.37238,120 h 4.03199 l 21.672,-47.808 z" transform="translate(0 266.70049590241615) translate(719.9421536276047 81.00419288177041) scale(1.440290127611644) translate(-654.93237 -69.6)"></path> 
  </g> 
  <g id="tagline" style="font-style:normal;font-weight:400;font-size:32px;line-height:1;font-family:Montserrat;font-variant-ligatures:none;text-align:center;text-anchor:middle"></g> 
 </g> 
</svg>