<svg xmlns:dc="http://purl.org/dc/elements/1.1/" xmlns:cc="http://creativecommons.org/ns#" xmlns:rdf="http://www.w3.org/1999/02/22-rdf-syntax-ns#" xmlns:svg="http://www.w3.org/2000/svg" xmlns="http://www.w3.org/2000/svg" id="svg52933" viewbox="0 0 1024 768" height="768px" width="1024px" version="1.1"> <metadata id="metadata52939"> 
  <rdf:rdf> 
   <cc:work rdf:about=""> 
    <dc:format>
     image/svg+xml
    </dc:format> 
    <dc:type rdf:resource="http://purl.org/dc/dcmitype/StillImage"></dc:type> 
   </cc:work> 
  </rdf:rdf> 
 </metadata> <defs id="defs52937"></defs> <g id="logo-group"> 
  <g id="title" style="font-style:normal;font-weight:400;font-size:72px;line-height:1;font-family:Teko;font-variant-ligatures:none;text-align:center;text-anchor:middle" aria-label="Titanico7"> 
   <path id="path52941" style="font-style: normal; font-weight: 400; font-size: 72px; line-height: 1; font-family: Teko; font-variant-ligatures: none; text-align: center; text-anchor: middle; fill: rgb(0, 0, 0);" d="m 439.60062,74.928 v 5.256 h -7.56 V 120 h -6.47999 V 80.184 h -7.56 v -5.256 z" transform="translate(0 140.55664263834814) translate(251.99999999999983 185.4902832748628) scale(2.765992463096077) translate(-418.00063 -74.928)"></path> 
   <path id="path52943" style="font-style: normal; font-weight: 400; font-size: 72px; line-height: 1; font-family: Teko; font-variant-ligatures: none; text-align: center; text-anchor: middle; fill: rgb(0, 0, 0);" d="M 443.024,78.168 V 71.76 h 6.768 v 6.408 z M 449.648,120 h -6.48 V 84.864 h 6.48 z" transform="translate(0 140.55664263834814) translate(321.21445282126433 176.7276191517745) scale(2.765992463096077) translate(-443.024 -71.76)"></path> 
   <path id="path52945" style="font-style: normal; font-weight: 400; font-size: 72px; line-height: 1; font-family: Teko; font-variant-ligatures: none; text-align: center; text-anchor: middle; fill: rgb(0, 0, 0);" d="m 467.84487,90.12 h -4.824 v 22.248 q 0,1.296 0.36,1.728 0.43201,0.36 1.728,0.36 h 2.736 V 120 h -4.608 q -6.76799,0 -6.76799,-6.336 V 90.12 h -3.312 v -5.256 h 3.312 v -5.976 h 6.55199 v 5.976 h 4.824 z" transform="translate(0 140.55664263834814) translate(349.24192253072135 196.44361342872332) scale(2.765992463096077) translate(-453.15688 -78.888)"></path> 
   <path id="path52947" style="font-style: normal; font-weight: 400; font-size: 72px; line-height: 1; font-family: Teko; font-variant-ligatures: none; text-align: center; text-anchor: middle; fill: rgb(0, 0, 0);" d="m 484.81887,84.864 h 6.48 V 120 h -6.48 v -2.808 q -0.93599,2.808 -4.464,2.808 h -2.592 q -6.48,0 -6.48,-6.336 V 91.272 q 0,-6.408 6.48,-6.408 h 2.592 q 3.52801,0 4.464,2.808 z m -4.896,29.88 h 2.52001 q 1.29599,0 1.8,-0.576 0.57599,-0.576 0.57599,-1.944 V 92.64 q 0,-1.368 -0.57599,-1.944 -0.50401,-0.576 -1.8,-0.576 h -2.52001 q -1.296,0 -1.72799,0.432 -0.43201,0.36 -0.43201,1.656 v 20.448 q 0,1.296 0.43201,1.728 0.43199,0.36 1.72799,0.36 z" transform="translate(0 140.55664263834814) translate(399.3782742568762 212.97318438818547) scale(2.765992463096077) translate(-471.28287 -84.864)"></path> 
   <path id="path52949" style="font-style: normal; font-weight: 400; font-size: 72px; line-height: 1; font-family: Teko; font-variant-ligatures: none; text-align: center; text-anchor: middle; fill: rgb(0, 0, 0);" d="m 508.53388,84.864 h 2.51999 q 6.552,0 6.552,6.408 V 120 h -6.48 V 92.208 q 0,-1.296 -0.432,-1.656 -0.432,-0.432 -1.728,-0.432 h -2.52 q -1.296,0 -1.872,0.576 -0.50399,0.576 -0.50399,1.944 V 120 h -6.48001 V 84.864 h 6.48001 v 2.808 q 0.93599,-2.808 4.464,-2.808 z" transform="translate(0 140.55664263834814) translate(472.1432379835447 212.97318438818547) scale(2.765992463096077) translate(-497.58987 -84.864)"></path> 
   <path id="path52951" style="font-style: normal; font-weight: 400; font-size: 72px; line-height: 1; font-family: Teko; font-variant-ligatures: none; text-align: center; text-anchor: middle; fill: rgb(0, 0, 0);" d="M 523.74275,78.168 V 71.76 h 6.768 v 6.408 z m 6.624,41.832 h -6.48 V 84.864 h 6.48 z" transform="translate(0 140.55664263834814) translate(544.4819069518009 176.7276191517745) scale(2.765992463096077) translate(-523.74275 -71.76)"></path> 
   <path id="path52953" style="font-style: normal; font-weight: 400; font-size: 72px; line-height: 1; font-family: Teko; font-variant-ligatures: none; text-align: center; text-anchor: middle; fill: rgb(0, 0, 0);" d="m 556.55562,95.952 h -6.408 v -3.744 q 0,-1.296 -0.43199,-1.656 -0.432,-0.432 -1.72801,-0.432 h -3.096 q -1.29599,0 -1.72799,0.432 -0.43201,0.36 -0.43201,1.656 v 20.448 q 0,1.296 0.43201,1.728 0.432,0.36 1.72799,0.36 h 3.096 q 1.29601,0 1.72801,-0.36 0.43199,-0.432 0.43199,-1.728 v -3.744 h 6.408 v 4.752 q 0,6.336 -6.76799,6.336 h -6.84 q -6.69601,0 -6.69601,-6.336 V 91.272 q 0,-6.408 6.69601,-6.408 h 6.84 q 6.76799,0 6.76799,6.408 z" transform="translate(0 140.55664263834814) translate(579.0813470936495 212.97318438818547) scale(2.765992463096077) translate(-536.25162 -84.864)"></path> 
   <path id="path52955" style="font-style: normal; font-weight: 400; font-size: 72px; line-height: 1; font-family: Teko; font-variant-ligatures: none; text-align: center; text-anchor: middle; fill: rgb(39, 44, 47);" d="m 568.26013,84.864 h 7.70399 q 6.696,0 6.696,6.408 v 22.392 q 0,6.336 -6.696,6.336 h -7.70399 q -6.62401,0 -6.62401,-6.336 V 91.272 q 0,-6.408 6.62401,-6.408 z m 7.99199,27.864 V 92.136 q 0,-1.296 -0.432,-1.728 -0.432,-0.432 -1.728,-0.432 h -3.96 q -1.29599,0 -1.72799,0.432 -0.36001,0.432 -0.36001,1.728 v 20.592 q 0,1.296 0.36001,1.728 0.432,0.432 1.72799,0.432 h 3.96 q 1.296,0 1.728,-0.432 0.432,-0.432 0.432,-1.728 z" transform="translate(0 140.55664263834814) translate(649.294682773112 212.97318438818547) scale(2.765992463096077) translate(-561.63612 -84.864)"></path> 
   <path id="path52957" style="font-style: normal; font-weight: 400; font-size: 72px; line-height: 1; font-family: Teko; font-variant-ligatures: none; text-align: center; text-anchor: middle; fill: rgb(39, 44, 47);" d="m 605.99825,74.928 v 4.032 l -12.096,41.04 h -6.624 l 11.736,-39.672 h -13.176 v -5.4 z" transform="translate(0 140.55664263834814) translate(716.2375919439835 185.4902832748628) scale(2.765992463096077) translate(-585.83825 -74.928)"></path> 
  </g> 
  <g id="tagline" style="font-style:oblique;font-weight:normal;font-size:32px;line-height:1;font-family:'Fira Sans Condensed';font-variant-ligatures:none;text-align:center;text-anchor:middle"></g> 
 </g> 
</svg>