<svg xmlns:dc="http://purl.org/dc/elements/1.1/" xmlns:cc="http://creativecommons.org/ns#" xmlns:rdf="http://www.w3.org/1999/02/22-rdf-syntax-ns#" xmlns:svg="http://www.w3.org/2000/svg" xmlns="http://www.w3.org/2000/svg" id="svg649063" viewbox="0 0 1024 768" height="768px" width="1024px" version="1.1"> <metadata id="metadata649069"> 
  <rdf:rdf> 
   <cc:work rdf:about=""> 
    <dc:format>
     image/svg+xml
    </dc:format> 
    <dc:type rdf:resource="http://purl.org/dc/dcmitype/StillImage"></dc:type> 
   </cc:work> 
  </rdf:rdf> 
 </metadata> <defs id="defs649067"></defs> <g id="logo-group"> 
  <g id="title" style="font-style:normal;font-weight:700;font-size:72px;line-height:1;font-family:'Comfortaa Bold Alt1';font-variant-ligatures:none;text-align:center;text-anchor:middle" aria-label="turnkeyo7"> 
   <path id="path649071" style="font-style: normal; font-weight: 700; font-size: 72px; line-height: 1; font-family: &quot;Comfortaa Bold Alt1&quot;; font-variant-ligatures: none; text-align: center; text-anchor: middle; fill: rgb(26, 41, 22);" d="m 337.60475,82.056 v 6.192 17.784 c 0,2.664 0.504,5.04 1.656,7.128 1.08,2.16 2.592,3.816 4.536,5.04 1.944,1.224 4.104,1.8 6.48,1.8 h 1.296 c 1.224,0 2.232,-0.288 3.024,-1.008 0.792,-0.648 1.224,-1.512 1.224,-2.592 0,-1.008 -0.36,-1.872 -0.936,-2.592 -0.576,-0.648 -1.296,-1.008 -2.16,-1.008 h -2.448 c -1.584,0 -2.88,-0.648 -3.888,-1.944 -1.08,-1.296 -1.584,-2.88 -1.584,-4.824 V 88.248 h 6.12 c 1.008,0 1.8,-0.288 2.448,-0.864 0.576,-0.576 0.936,-1.296 0.936,-2.16 0,-0.936 -0.36,-1.728 -0.936,-2.304 -0.648,-0.576 -1.44,-0.864 -2.448,-0.864 h -6.12 V 71.688 c 0,-1.008 -0.36,-1.872 -1.008,-2.592 -0.72,-0.648 -1.584,-1.008 -2.592,-1.008 -1.08,0 -1.944,0.36 -2.592,1.008 -0.72,0.72 -1.008,1.584 -1.008,2.592 z" transform="translate(0 259.76414283394774) translate(252 79.70626113885405) scale(1.3728448645701745) translate(-337.60475 -68.088)"></path> 
   <path id="path649073" style="font-style: normal; font-weight: 700; font-size: 72px; line-height: 1; font-family: &quot;Comfortaa Bold Alt1&quot;; font-variant-ligatures: none; text-align: center; text-anchor: middle; fill: rgb(26, 41, 22);" d="M 400.92088,116.328 V 84.216 c 0,-1.08 -0.36001,-1.944 -1.00801,-2.664 -0.71999,-0.648 -1.584,-1.008 -2.664,-1.008 -1.07999,0 -1.944,0.36 -2.664,1.008 -0.72,0.72 -1.008,1.584 -1.008,2.664 v 20.304 c 0,1.8 -0.504,3.312 -1.43999,4.68 -0.93601,1.44 -2.23201,2.52 -3.88801,3.312 -1.656,0.864 -3.528,1.224 -5.47199,1.224 -3.52801,0 -6.26401,-0.936 -8.35201,-2.952 -2.08799,-2.016 -3.096,-4.968 -3.096,-8.856 V 84.216 c 0,-1.008 -0.35999,-1.872 -1.08,-2.592 -0.72,-0.72 -1.584,-1.08 -2.59199,-1.08 -1.08001,0 -1.94401,0.36 -2.664,1.08 -0.72001,0.72 -1.00801,1.584 -1.00801,2.592 v 17.712 c 0,3.96 0.72001,7.272 2.23201,10.008 1.44,2.736 3.52799,4.896 6.192,6.264 2.51999,1.44 5.25599,2.16 8.27999,2.232 0.144,0 5.688,0 16.848,0 0.936,0 1.72801,-0.36 2.376,-1.008 0.648,-0.648 1.00801,-1.44 1.00801,-2.448 z" transform="translate(0 259.76414283394774) translate(292.33434686245545 96.80641677194015) scale(1.3728448645701745) translate(-363.98487 -80.544)"></path> 
   <path id="path649075" style="font-style: normal; font-weight: 700; font-size: 72px; line-height: 1; font-family: &quot;Comfortaa Bold Alt1&quot;; font-variant-ligatures: none; text-align: center; text-anchor: middle; fill: rgb(26, 41, 22);" d="m 439.127,81.336 c -1.44,-0.72 -3.456,-1.152 -5.976,-1.152 -2.448,0 -4.68,0.504 -6.768,1.44 -2.16,1.008 -3.888,2.304 -5.328,3.96 v -1.368 c 0,-2.376 -1.224,-3.6 -3.6,-3.6 -1.152,0 -2.088,0.36 -2.664,0.936 -0.648,0.648 -0.936,1.512 -0.936,2.664 V 116.4 c 0,1.224 0.288,2.16 0.936,2.736 0.576,0.576 1.512,0.864 2.664,0.864 1.152,0 2.088,-0.288 2.664,-0.936 0.576,-0.576 0.936,-1.512 0.936,-2.664 V 95.376 c 0,-2.664 1.008,-4.824 3.168,-6.408 2.088,-1.584 4.896,-2.376 8.352,-2.376 1.152,0 2.736,0.216 4.68,0.504 0.432,0.144 0.792,0.144 1.08,0.144 1.44,0 2.448,-0.72 2.88,-2.304 0,-0.144 0.072,-0.36 0.072,-0.72 0,-1.152 -0.72,-2.088 -2.16,-2.88 z" transform="translate(0 259.76414283394774) translate(364.916833322113 96.31219262069487) scale(1.3728448645701745) translate(-413.855 -80.184)"></path> 
   <path id="path649077" style="font-style: normal; font-weight: 700; font-size: 72px; line-height: 1; font-family: &quot;Comfortaa Bold Alt1&quot;; font-variant-ligatures: none; text-align: center; text-anchor: middle; fill: rgb(26, 41, 22);" d="m 483.57463,88.752 c -1.512,-2.736 -3.60001,-4.896 -6.192,-6.336 -2.52001,-1.296 -5.25601,-2.016 -8.28001,-2.088 -0.072,0 -0.216,-0.072 -0.216,-0.072 h -16.56 c -1.008,0 -1.79999,0.36 -2.448,1.008 -0.72,0.72 -1.00799,1.512 -1.00799,2.448 0,0.072 0,0.216 0,0.288 0,0.144 0,0.216 0,0.288 V 116.4 c 0,1.08 0.28799,1.944 1.00799,2.664 0.72001,0.72 1.584,1.008 2.664,1.008 1.08,0 1.944,-0.288 2.664,-1.008 0.648,-0.72 1.008,-1.584 1.008,-2.664 V 96.096 c 0,-1.728 0.432,-3.24 1.368,-4.68 0.936,-1.368 2.232,-2.448 3.888,-3.312 1.656,-0.792 3.528,-1.224 5.54401,-1.224 3.45599,0 6.19199,1.008 8.27999,3.024 2.08801,2.016 3.168,4.968 3.168,8.784 V 116.4 c 0,1.08 0.28801,1.944 1.008,2.664 0.72,0.72 1.584,1.008 2.66401,1.008 1.00799,0 1.87199,-0.288 2.592,-1.008 0.71999,-0.72 1.07999,-1.584 1.07999,-2.664 V 98.688 c 0,-3.888 -0.79199,-7.2 -2.23199,-9.936 z" transform="translate(0 259.76414283394774) translate(417.1063957410128 96.41103745094392) scale(1.3728448645701745) translate(-448.87063 -80.256)"></path> 
   <path id="path649079" style="font-style: normal; font-weight: 700; font-size: 72px; line-height: 1; font-family: &quot;Comfortaa Bold Alt1&quot;; font-variant-ligatures: none; text-align: center; text-anchor: middle; fill: rgb(26, 41, 22);" d="m 528.47675,116.976 c 0,-0.864 -0.288,-1.584 -0.792,-2.16 l -13.968,-17.136 13.248,-11.808 c 0.72,-0.576 1.152,-1.44 1.152,-2.448 0,-0.864 -0.36,-1.584 -0.936,-2.232 -0.648,-0.72 -1.44,-1.152 -2.448,-1.152 -0.864,0 -1.656,0.36 -2.232,0.936 L 505.00475,96.6 V 67.296 c 0,-1.008 -0.36,-1.872 -1.008,-2.52 -0.648,-0.648 -1.512,-1.008 -2.52,-1.008 -1.08,0 -1.944,0.36 -2.592,1.008 -0.648,0.648 -0.936,1.512 -0.936,2.52 v 49.176 c 0,1.08 0.288,1.944 0.936,2.592 0.648,0.648 1.512,0.936 2.592,0.936 1.008,0 1.872,-0.288 2.52,-0.936 0.648,-0.648 1.008,-1.512 1.008,-2.592 v -11.016 l 3.6,-3.168 13.68,16.92 c 0.648,0.864 1.512,1.296 2.592,1.296 0.792,0 1.584,-0.288 2.304,-0.864 0.864,-0.72 1.296,-1.584 1.296,-2.664 z" transform="translate(0 259.76414283394774) translate(488.6015753394821 73.7755713239109) scale(1.3728448645701745) translate(-497.94875 -63.768)"></path> 
   <path id="path649081" style="font-style: normal; font-weight: 700; font-size: 72px; line-height: 1; font-family: &quot;Comfortaa Bold Alt1&quot;; font-variant-ligatures: none; text-align: center; text-anchor: middle; fill: rgb(26, 41, 22);" d="m 569.63037,102 c 0.576,-0.576 0.936,-1.368 0.936,-2.304 0,-3.744 -0.72,-7.128 -2.15999,-10.08 -1.44001,-2.88 -3.52801,-5.184 -6.192,-6.84 -2.736,-1.584 -5.904,-2.448 -9.57601,-2.448 -3.744,0 -7.128,0.864 -10.08,2.592 -2.952,1.728 -5.256,4.104 -6.91199,7.128 -1.65601,3.024 -2.448,6.48 -2.448,10.296 0,3.888 0.86399,7.272 2.592,10.296 1.72799,3.024 4.17599,5.4 7.34399,7.128 3.096,1.728 6.624,2.52 10.58401,2.52 2.15999,0 4.46399,-0.36 6.91199,-1.224 2.44801,-0.792 4.46401,-1.872 6.12,-3.168 0.72,-0.576 1.152,-1.296 1.152,-2.16 0,-0.864 -0.432,-1.728 -1.296,-2.448 -0.57599,-0.432 -1.29599,-0.72 -2.16,-0.72 -0.936,0 -1.72799,0.288 -2.37599,0.792 -1.00801,0.792 -2.304,1.44 -3.88801,1.944 -1.58399,0.576 -3.024,0.792 -4.46399,0.792 -3.67201,0 -6.76801,-1.008 -9.288,-3.096 -2.52,-2.016 -4.03201,-4.752 -4.53601,-8.136 h 27.36 c 0.93601,0 1.72801,-0.288 2.376,-0.864 z M 544.07038,89.4 c 2.15999,-1.872 5.03999,-2.88 8.56799,-2.88 3.168,0 5.688,1.008 7.704,2.88 1.94401,1.944 3.168,4.536 3.6,7.704 h -23.976 c 0.576,-3.168 1.94401,-5.76 4.10401,-7.704 z" transform="translate(0 259.76414283394774) translate(541.1123834566914 96.509882281193) scale(1.3728448645701745) translate(-533.19838 -80.328)"></path> 
   <path id="path649083" style="font-style: normal; font-weight: 700; font-size: 72px; line-height: 1; font-family: &quot;Comfortaa Bold Alt1&quot;; font-variant-ligatures: none; text-align: center; text-anchor: middle; fill: rgb(26, 41, 22);" d="m 612.26112,83.784 c 0,-1.296 -0.792,-2.232 -2.23199,-2.808 -0.57601,-0.216 -1.15201,-0.36 -1.72801,-0.36 -1.29599,0 -2.232,0.72 -2.808,2.088 l -11.592,26.136 -13.17599,-26.208 c -0.72,-1.296 -1.72801,-2.016 -3.024,-2.016 -0.576,0 -1.00801,0.144 -1.44001,0.288 -0.648,0.288 -1.152,0.72 -1.51199,1.224 -0.432,0.576 -0.576,1.152 -0.576,1.728 0,0.576 0.072,1.08 0.36,1.512 l 16.19999,30.744 -7.19999,16.2 c -0.288,0.576 -0.432,1.152 -0.432,1.728 0,1.296 0.72,2.232 2.15999,2.808 0.64801,0.288 1.22401,0.432 1.728,0.432 1.296,0 2.23201,-0.72 2.80801,-2.232 l 22.03199,-49.536 c 0.288,-0.648 0.432,-1.224 0.432,-1.728 z" transform="translate(0 259.76414283394774) translate(601.4828931649487 96.9052616021892) scale(1.3728448645701745) translate(-574.17313 -80.616)"></path> 
   <path id="path649085" style="font-style: normal; font-weight: 700; font-size: 72px; line-height: 1; font-family: &quot;Comfortaa Bold Alt1&quot;; font-variant-ligatures: none; text-align: center; text-anchor: middle; fill: rgb(251, 251, 251);" d="m 645.34738,82.92 c -3.02401,-1.728 -6.408,-2.592 -10.152,-2.592 -3.88801,0 -7.27201,0.864 -10.29601,2.592 -3.024,1.728 -5.4,4.032 -7.05599,7.056 -1.72801,3.024 -2.52,6.48 -2.52,10.368 0,3.888 0.79199,7.272 2.52,10.296 1.65599,3.024 4.03199,5.4 7.05599,7.128 3.024,1.728 6.408,2.52 10.29601,2.52 3.816,0 7.2,-0.792 10.22399,-2.52 3.02401,-1.728 5.32801,-4.104 7.056,-7.128 1.65601,-3.024 2.52,-6.408 2.52,-10.296 0,-3.888 -0.86399,-7.344 -2.592,-10.368 -1.72799,-3.024 -4.032,-5.328 -7.05599,-7.056 z m -16.77601,5.616 c 1.944,-1.152 4.17601,-1.728 6.62401,-1.728 2.44799,0 4.60799,0.576 6.552,1.728 1.94399,1.152 3.456,2.808 4.53599,4.824 1.08001,2.088 1.65601,4.392 1.65601,6.984 0,2.592 -0.576,4.968 -1.65601,6.984 -1.07999,2.016 -2.592,3.6 -4.53599,4.752 -1.94401,1.152 -4.10401,1.728 -6.552,1.728 -2.448,0 -4.68001,-0.576 -6.62401,-1.728 -1.94399,-1.152 -3.456,-2.736 -4.53599,-4.752 -1.15201,-2.016 -1.65601,-4.392 -1.65601,-6.984 0,-2.592 0.504,-4.896 1.65601,-6.984 1.07999,-2.016 2.592,-3.672 4.53599,-4.824 z" transform="translate(0 259.76414283394774) translate(662.0943371469381 96.509882281193) scale(1.3728448645701745) translate(-615.32338 -80.328)"></path> 
   <path id="path649087" style="font-style: normal; font-weight: 700; font-size: 72px; line-height: 1; font-family: &quot;Comfortaa Bold Alt1&quot;; font-variant-ligatures: none; text-align: center; text-anchor: middle; fill: rgb(251, 251, 251);" d="m 658.61225,70.104 c 0.72,0.72 1.584,1.008 2.664,1.008 h 21.888 l -20.664,42.912 c -0.432,0.864 -0.648,1.656 -0.648,2.304 0,1.008 0.36,1.872 1.08,2.592 0.72,0.72 1.512,1.08 2.52,1.08 0.648,0 1.296,-0.144 1.944,-0.504 0.576,-0.36 1.08,-0.864 1.44,-1.512 l 23.04,-48.6 c 0.288,-0.72 0.504,-1.368 0.504,-1.944 0,-1.008 -0.36,-1.872 -1.08,-2.592 -0.72,-0.72 -1.584,-1.08 -2.592,-1.08 h -27.432 c -1.08,0 -1.944,0.36 -2.664,1.08 -0.72,0.72 -1.008,1.584 -1.008,2.592 0,1.08 0.288,1.944 1.008,2.664 z" transform="translate(0 259.76414283394774) translate(724.2579469897076 73.7755713239109) scale(1.3728448645701745) translate(-657.60425 -63.768)"></path> 
  </g> 
  <g id="tagline" style="font-style:normal;font-weight:500;font-size:32px;line-height:1;font-family:Raleway;font-variant-ligatures:none;text-align:center;text-anchor:middle"></g> 
 </g> 
</svg>