<svg xmlns:dc="http://purl.org/dc/elements/1.1/" xmlns:cc="http://creativecommons.org/ns#" xmlns:rdf="http://www.w3.org/1999/02/22-rdf-syntax-ns#" xmlns:svg="http://www.w3.org/2000/svg" xmlns="http://www.w3.org/2000/svg" id="svg53356" viewbox="0 0 1024 768" height="768px" width="1024px" version="1.1"> <metadata id="metadata53362"> 
  <rdf:rdf> 
   <cc:work rdf:about=""> 
    <dc:format>
     image/svg+xml
    </dc:format> 
    <dc:type rdf:resource="http://purl.org/dc/dcmitype/StillImage"></dc:type> 
   </cc:work> 
  </rdf:rdf> 
 </metadata> <defs id="defs53360"></defs> <g id="logo-group"> 
  <g id="title" style="font-style:normal;font-weight:300;font-size:72px;line-height:1;font-family:'Uni Neue';font-variant-ligatures:none;text-align:center;text-anchor:middle" aria-label="Uncleo7"> 
   <path id="path53364" style="font-style: normal; font-weight: 300; font-size: 72px; line-height: 1; font-family: &quot;Uni Neue&quot;; font-variant-ligatures: none; text-align: center; text-anchor: middle; fill: rgb(207, 34, 100);" d="M 428.67744,102.648 V 68.952 c 0,-0.288 -0.216,-0.432 -0.504,-0.432 h -1.512 c -0.288,0 -0.432,0.144 -0.432,0.432 v 33.624 c 0,9.504 -5.4,15.768 -15.264,15.768 -9.864,0 -15.192,-6.264 -15.192,-15.768 V 68.952 c 0,-0.288 -0.144,-0.432 -0.432,-0.432 h -1.512 c -0.288,0 -0.504,0.144 -0.504,0.432 v 33.696 c 0,10.656 6.48,17.928 17.64,17.928 11.232,0 17.712,-7.272 17.712,-17.928 z" transform="translate(0 213.5627962581541) translate(252.00000000000006 118.31521031907927) scale(1.9970112422515949) translate(-393.32544 -68.52)"></path> 
   <path id="path53366" style="font-style: normal; font-weight: 300; font-size: 72px; line-height: 1; font-family: &quot;Uni Neue&quot;; font-variant-ligatures: none; text-align: center; text-anchor: middle; fill: rgb(207, 34, 100);" d="m 442.63306,120 c 0.288,0 0.432,-0.144 0.432,-0.432 V 86.52 c 3.168,-1.224 7.2,-2.088 11.16,-2.088 8.28,0 12.96,4.104 12.96,12.456 v 22.68 c 0,0.288 0.216,0.432 0.504,0.432 h 1.368 c 0.288,0 0.432,-0.144 0.432,-0.432 V 96.816 c 0,-9.72 -5.688,-14.544 -15.264,-14.544 -4.68,0 -9.216,1.008 -13.104,2.736 -0.216,0.144 -0.36,0.36 -0.36,0.576 v 33.984 c 0,0.288 0.216,0.432 0.432,0.432 z" transform="translate(0 213.5627962581541) translate(352.7205001499294 145.77810892252324) scale(1.9970112422515949) translate(-440.76106 -82.272)"></path> 
   <path id="path53368" style="font-style: normal; font-weight: 300; font-size: 72px; line-height: 1; font-family: &quot;Uni Neue&quot;; font-variant-ligatures: none; text-align: center; text-anchor: middle; fill: rgb(207, 34, 100);" d="m 505.69606,116.256 c 0.288,-0.144 0.288,-0.432 0.144,-0.648 l -0.72,-0.936 c -0.144,-0.216 -0.36,-0.288 -0.648,-0.072 -3.6,2.664 -7.2,4.032 -11.376,4.032 -7.632,0 -11.952,-5.04 -11.952,-11.232 V 95.592 c 0,-6.12 4.248,-11.16 11.952,-11.16 3.888,0 7.128,1.008 10.44,3.384 0.288,0.216 0.432,0.072 0.648,-0.072 l 0.648,-1.008 c 0.144,-0.216 0.144,-0.432 -0.144,-0.648 -3.528,-2.52 -7.2,-3.816 -11.52,-3.816 -9,0 -14.328,5.904 -14.328,13.32 V 107.4 c 0,7.416 5.328,13.32 14.328,13.32 4.824,0 8.784,-1.512 12.528,-4.464 z" transform="translate(0 213.5627962581541) translate(434.7557249703827 145.77810892252324) scale(1.9970112422515949) translate(-478.84006 -82.272)"></path> 
   <path id="path53370" style="font-style: normal; font-weight: 300; font-size: 72px; line-height: 1; font-family: &quot;Uni Neue&quot;; font-variant-ligatures: none; text-align: center; text-anchor: middle; fill: rgb(207, 34, 100);" d="m 526.56819,120.432 c 0.288,-0.072 0.432,-0.288 0.432,-0.576 v -1.224 c 0,-0.288 -0.144,-0.36 -0.432,-0.36 -1.44,0.216 -3.096,0.288 -4.104,0.288 -4.248,0 -6.912,-2.664 -6.912,-9.504 V 68.952 c 0,-0.288 -0.144,-0.432 -0.432,-0.432 h -1.44 c -0.288,0 -0.432,0.144 -0.432,0.432 v 39.888 c 0,8.424 3.6,11.88 9.144,11.88 1.152,0 2.952,-0.144 4.176,-0.288 z" transform="translate(0 213.5627962581541) translate(509.46018113199193 118.31521031907927) scale(1.9970112422515949) translate(-513.24819 -68.52)"></path> 
   <path id="path53372" style="font-style: normal; font-weight: 300; font-size: 72px; line-height: 1; font-family: &quot;Uni Neue&quot;; font-variant-ligatures: none; text-align: center; text-anchor: middle; fill: rgb(207, 34, 100);" d="m 559.24606,95.952 c 0,-8.712 -5.904,-13.68 -14.328,-13.68 -8.424,0 -14.328,4.968 -14.328,13.68 v 11.664 c 0,8.28 6.768,13.104 14.328,13.104 6.12,0 10.584,-2.736 13.608,-5.544 0.288,-0.144 0.288,-0.36 0.072,-0.576 l -0.792,-0.936 c -0.144,-0.216 -0.36,-0.216 -0.576,-0.072 -2.736,2.448 -6.624,5.04 -12.24,5.04 -6.552,0 -12.096,-4.032 -12.096,-11.016 v -4.752 h 25.92 c 0.216,0 0.432,-0.144 0.432,-0.432 z m -2.304,0 v 4.896 h -24.048 v -4.896 c 0,-7.416 4.752,-11.52 12.024,-11.52 7.2,0 12.024,4.176 12.024,11.52 z" transform="translate(0 213.5627962581541) translate(550.0831242104124 145.77810892252324) scale(1.9970112422515949) translate(-530.59006 -82.272)"></path> 
   <path id="path53374" style="font-style: normal; font-weight: 300; font-size: 72px; line-height: 1; font-family: &quot;Uni Neue&quot;; font-variant-ligatures: none; text-align: center; text-anchor: middle; fill: rgb(247, 82, 148);" d="M 597.10456,107.184 V 95.808 c 0,-7.56 -5.184,-13.536 -14.976,-13.536 -9.72,0 -14.976,5.976 -14.976,13.536 v 11.376 c 0,7.632 5.256,13.536 14.976,13.536 9.792,0 14.976,-5.904 14.976,-13.536 z m -27.648,0 V 95.808 c 0,-6.336 4.248,-11.376 12.672,-11.376 8.496,0 12.672,5.04 12.672,11.376 v 11.376 c 0,6.408 -4.176,11.448 -12.672,11.448 -8.424,0 -12.672,-5.04 -12.672,-11.448 z" transform="translate(0 213.5627962581541) translate(629.0898814819913 145.77810892252324) scale(1.9970112422515949) translate(-567.15256 -82.272)"></path> 
   <path id="path53376" style="font-style: normal; font-weight: 300; font-size: 72px; line-height: 1; font-family: &quot;Uni Neue&quot;; font-variant-ligatures: none; text-align: center; text-anchor: middle; fill: rgb(247, 82, 148);" d="m 611.16256,120 c 0.216,0 0.504,-0.144 0.576,-0.36 l 23.832,-49.392 c 0.144,-0.144 0.144,-0.36 0.144,-0.504 v -0.792 c 0,-0.288 -0.216,-0.432 -0.504,-0.432 h -31.68 c -0.288,0 -0.504,0.144 -0.504,0.432 v 1.368 c 0,0.216 0.216,0.432 0.504,0.432 h 29.304 l -23.616,48.672 c -0.144,0.36 0.072,0.576 0.36,0.576 z" transform="translate(0 213.5627962581541) translate(706.7216965132798 118.31521031907927) scale(1.9970112422515949) translate(-603.02656 -68.52)"></path> 
  </g> 
  <g id="tagline" style="font-style:oblique;font-weight:400;font-size:32px;line-height:1;font-family:Lato;font-variant-ligatures:none;text-align:center;text-anchor:middle"></g> 
 </g> 
</svg>