<svg xmlns:dc="http://purl.org/dc/elements/1.1/" xmlns:cc="http://creativecommons.org/ns#" xmlns:rdf="http://www.w3.org/1999/02/22-rdf-syntax-ns#" xmlns:svg="http://www.w3.org/2000/svg" xmlns="http://www.w3.org/2000/svg" id="svg9734" viewbox="0 0 1024 768" height="768px" width="1024px" version="1.1"> <metadata id="metadata9740"> 
  <rdf:rdf> 
   <cc:work rdf:about=""> 
    <dc:format>
     image/svg+xml
    </dc:format> 
    <dc:type rdf:resource="http://purl.org/dc/dcmitype/StillImage"></dc:type> 
   </cc:work> 
  </rdf:rdf> 
 </metadata> <defs id="defs9738"></defs> <g id="logo-group"> 
  <g id="title" style="font-style:normal;font-weight:800;font-size:72px;line-height:1;font-family:'Montserrat ExtraBold Alt1';font-variant-ligatures:none;text-align:center;text-anchor:middle" aria-label="UNITEDSTATESO7"> 
   <path id="path9742" style="font-style: normal; font-weight: 800; font-size: 72px; line-height: 1; font-family: &quot;Montserrat ExtraBold Alt1&quot;; font-variant-ligatures: none; text-align: center; text-anchor: middle; fill: rgb(131, 189, 213);" d="m 181.43281,114.888 c 4.176,4.104 10.008,6.12 17.496,6.12 7.488,0 13.248,-2.016 17.424,-6.12 4.176,-4.032 6.264,-9.864 6.264,-17.352 V 69.6 h -14.04 v 27.504 c 0,8.064 -3.168,12.096 -9.504,12.096 -6.408,0 -9.576,-4.032 -9.576,-12.096 V 69.6 h -14.256 v 27.936 c 0,7.488 2.016,13.32 6.192,17.352 z" transform="translate(0 329.6667525799141) translate(252 34.94805506791117) scale(0.7692536647688388) translate(-175.24081 -69.6)"></path> 
   <path id="path9744" style="font-style: normal; font-weight: 800; font-size: 72px; line-height: 1; font-family: &quot;Montserrat ExtraBold Alt1&quot;; font-variant-ligatures: none; text-align: center; text-anchor: middle; fill: rgb(131, 189, 213);" d="m 232.20406,120 h 13.968 v -8.496 l -13.968,-17.784 z m 33.984,-50.4 v 9.144 l 13.968,16.848 V 69.6 Z m 0,26.856 -22.248,-26.856 h -11.736 v 6.696 l 13.968,16.848 22.248,26.856 h 11.736 v -5.832 l -13.968,-17.784 z" transform="translate(0 329.6667525799141) translate(295.81918881964356 34.94805506791117) scale(0.7692536647688388) translate(-232.20406 -69.6)"></path> 
   <path id="path9746" style="font-style: normal; font-weight: 800; font-size: 72px; line-height: 1; font-family: &quot;Montserrat ExtraBold Alt1&quot;; font-variant-ligatures: none; text-align: center; text-anchor: middle; fill: rgb(131, 189, 213);" d="M 290.28219,69.6 V 120 h 14.256 V 69.6 Z" transform="translate(0 329.6667525799141) translate(340.4960031650646 34.94805506791117) scale(0.7692536647688388) translate(-290.28219 -69.6)"></path> 
   <path id="path9748" style="font-style: normal; font-weight: 800; font-size: 72px; line-height: 1; font-family: &quot;Montserrat ExtraBold Alt1&quot;; font-variant-ligatures: none; text-align: center; text-anchor: middle; fill: rgb(131, 189, 213);" d="M 325.47894,80.904 V 120 h 14.256 V 80.904 h 15.408 V 69.6 h -45.144 v 11.304 z" transform="translate(0 329.6667525799141) translate(355.6631853598957 34.94805506791117) scale(0.7692536647688388) translate(-309.99894 -69.6)"></path> 
   <path id="path9750" style="font-style: normal; font-weight: 800; font-size: 72px; line-height: 1; font-family: &quot;Montserrat ExtraBold Alt1&quot;; font-variant-ligatures: none; text-align: center; text-anchor: middle; fill: rgb(131, 189, 213);" d="m 400.41406,69.6 h -39.96 v 11.016 h 39.96 z m 0,19.512 h -39.96 v 10.656 h 39.96 z m -39.96,19.872 V 120 h 39.96 v -11.016 z" transform="translate(0 329.6667525799141) translate(394.47597132624725 34.94805506791117) scale(0.7692536647688388) translate(-360.45406 -69.6)"></path> 
   <path id="path9752" style="font-style: normal; font-weight: 800; font-size: 72px; line-height: 1; font-family: &quot;Montserrat ExtraBold Alt1&quot;; font-variant-ligatures: none; text-align: center; text-anchor: middle; fill: rgb(131, 189, 213);" d="m 457.28506,81.48 c -2.376,-3.744 -5.688,-6.696 -9.936,-8.784 -4.32,-2.016 -9.216,-3.096 -14.688,-3.096 h -23.832 v 11.376 h 23.256 c 4.32,0 7.776,1.224 10.368,3.672 2.592,2.52 3.96,5.904 3.96,10.152 0,4.32 -1.368,7.704 -3.96,10.152 -2.592,2.448 -6.048,3.672 -10.368,3.672 h -9 V 95.232 h -14.256 V 120 h 23.832 c 5.472,0 10.368,-1.008 14.688,-3.096 4.248,-2.016 7.56,-4.968 9.936,-8.784 2.304,-3.744 3.528,-8.208 3.528,-13.32 0,-5.04 -1.224,-9.504 -3.528,-13.32 z" transform="translate(0 329.6667525799141) translate(431.68861735943983 34.94805506791117) scale(0.7692536647688388) translate(-408.82906 -69.6)"></path> 
   <path id="path9754" style="font-style: normal; font-weight: 800; font-size: 72px; line-height: 1; font-family: &quot;Montserrat ExtraBold Alt1&quot;; font-variant-ligatures: none; text-align: center; text-anchor: middle; fill: rgb(131, 189, 213);" d="m 474.14544,119.496 c 3.816,1.008 7.776,1.512 11.88,1.512 4.752,0 8.856,-0.72 12.24,-2.16 3.312,-1.44 5.832,-3.456 7.56,-5.904 1.656,-2.448 2.52,-5.184 2.52,-8.208 0,-3.456 -0.936,-6.264 -2.808,-8.28 -1.872,-2.016 -4.032,-3.528 -6.552,-4.464 -2.52,-0.936 -5.688,-1.8 -9.504,-2.664 -3.456,-0.72 -5.904,-1.368 -7.416,-2.088 -1.584,-0.648 -2.304,-1.656 -2.304,-3.024 0,-1.296 0.648,-2.376 1.944,-3.24 1.296,-0.864 3.312,-1.296 6.192,-1.296 4.464,0 9.144,1.296 13.968,3.888 l 4.392,-10.584 c -2.448,-1.44 -5.328,-2.52 -8.496,-3.24 -3.24,-0.72 -6.48,-1.152 -9.792,-1.152 -4.896,0 -9,0.72 -12.312,2.16 -3.312,1.44 -5.832,3.456 -7.488,5.904 -1.728,2.448 -2.52,5.256 -2.52,8.28 0,3.528 0.864,6.336 2.736,8.352 1.8,2.088 3.96,3.6 6.552,4.536 2.52,0.936 5.688,1.8 9.504,2.592 3.456,0.792 5.904,1.512 7.488,2.232 1.584,0.72 2.376,1.728 2.376,3.168 0,2.736 -2.736,4.104 -8.208,4.104 -2.88,0 -5.832,-0.432 -8.784,-1.368 -3.024,-0.864 -5.616,-2.088 -7.848,-3.6 l -4.68,10.512 c 2.376,1.728 5.472,3.024 9.36,4.032 z" transform="translate(0 329.6667525799141) translate(474.7332677416376 34.17264737382419) scale(0.7692536647688388) translate(-464.78544 -68.592)"></path> 
   <path id="path9756" style="font-style: normal; font-weight: 800; font-size: 72px; line-height: 1; font-family: &quot;Montserrat ExtraBold Alt1&quot;; font-variant-ligatures: none; text-align: center; text-anchor: middle; fill: rgb(131, 189, 213);" d="M 524.88519,80.904 V 120 h 14.256 V 80.904 h 15.408 V 69.6 h -45.144 v 11.304 z" transform="translate(0 329.6667525799141) translate(509.057173950207 34.94805506791117) scale(0.7692536647688388) translate(-509.40519 -69.6)"></path> 
   <path id="path9758" style="font-style: normal; font-weight: 800; font-size: 72px; line-height: 1; font-family: &quot;Montserrat ExtraBold Alt1&quot;; font-variant-ligatures: none; text-align: center; text-anchor: middle; fill: rgb(131, 189, 213);" d="m 587.49706,69.6 h -14.04 l -22.248,50.4 h 14.544 l 3.96,-9.792 4.176,-10.512 6.48,-16.128 6.48,16.128 4.176,10.512 3.96,9.792 h 14.832 z" transform="translate(0 329.6667525799141) translate(541.2149541492271 34.94805506791117) scale(0.7692536647688388) translate(-551.20906 -69.6)"></path> 
   <path id="path9760" style="font-style: normal; font-weight: 800; font-size: 72px; line-height: 1; font-family: &quot;Montserrat ExtraBold Alt1&quot;; font-variant-ligatures: none; text-align: center; text-anchor: middle; fill: rgb(131, 189, 213);" d="M 622.05706,80.904 V 120 h 14.256 V 80.904 h 15.408 V 69.6 h -45.144 v 11.304 z" transform="translate(0 329.6667525799141) translate(583.8069910601481 34.94805506791117) scale(0.7692536647688388) translate(-606.57706 -69.6)"></path> 
   <path id="path9762" style="font-style: normal; font-weight: 800; font-size: 72px; line-height: 1; font-family: &quot;Montserrat ExtraBold Alt1&quot;; font-variant-ligatures: none; text-align: center; text-anchor: middle; fill: rgb(131, 189, 213);" d="m 696.99219,69.6 h -39.96 v 11.016 h 39.96 z m 0,19.512 h -39.96 v 10.656 h 39.96 z m -39.96,19.872 V 120 h 39.96 v -11.016 z" transform="translate(0 329.6667525799141) translate(622.6197847190363 34.94805506791117) scale(0.7692536647688388) translate(-657.03219 -69.6)"></path> 
   <path id="path9764" style="font-style: normal; font-weight: 800; font-size: 72px; line-height: 1; font-family: &quot;Montserrat ExtraBold Alt1&quot;; font-variant-ligatures: none; text-align: center; text-anchor: middle; fill: rgb(131, 189, 213);" d="m 711.23919,119.496 c 3.816,1.008 7.776,1.512 11.88,1.512 4.752,0 8.856,-0.72 12.24,-2.16 3.312,-1.44 5.832,-3.456 7.56,-5.904 1.656,-2.448 2.52,-5.184 2.52,-8.208 0,-3.456 -0.936,-6.264 -2.808,-8.28 -1.872,-2.016 -4.032,-3.528 -6.552,-4.464 -2.52,-0.936 -5.688,-1.8 -9.504,-2.664 -3.456,-0.72 -5.904,-1.368 -7.416,-2.088 -1.584,-0.648 -2.304,-1.656 -2.304,-3.024 0,-1.296 0.648,-2.376 1.944,-3.24 1.296,-0.864 3.312,-1.296 6.192,-1.296 4.464,0 9.144,1.296 13.968,3.888 l 4.392,-10.584 c -2.448,-1.44 -5.328,-2.52 -8.496,-3.24 -3.24,-0.72 -6.48,-1.152 -9.792,-1.152 -4.896,0 -9,0.72 -12.312,2.16 -3.312,1.44 -5.832,3.456 -7.488,5.904 -1.728,2.448 -2.52,5.256 -2.52,8.28 0,3.528 0.864,6.336 2.736,8.352 1.8,2.088 3.96,3.6 6.552,4.536 2.52,0.936 5.688,1.8 9.504,2.592 3.456,0.792 5.904,1.512 7.488,2.232 1.584,0.72 2.376,1.728 2.376,3.168 0,2.736 -2.736,4.104 -8.208,4.104 -2.88,0 -5.832,-0.432 -8.784,-1.368 -3.024,-0.864 -5.616,-2.088 -7.848,-3.6 l -4.68,10.512 c 2.376,1.728 5.472,3.024 9.36,4.032 z" transform="translate(0 329.6667525799141) translate(657.1185038229243 34.17264737382419) scale(0.7692536647688388) translate(-701.87919 -68.592)"></path> 
   <path id="path9766" style="font-style: normal; font-weight: 800; font-size: 72px; line-height: 1; font-family: &quot;Montserrat ExtraBold Alt1&quot;; font-variant-ligatures: none; text-align: center; text-anchor: middle; fill: rgb(131, 189, 213);" d="m 762.97006,117.624 c 4.248,2.304 9.072,3.384 14.4,3.384 5.328,0 10.08,-1.08 14.328,-3.384 4.248,-2.232 7.56,-5.328 10.008,-9.36 2.448,-3.96 3.672,-8.424 3.672,-13.464 0,-4.968 -1.224,-9.432 -3.672,-13.464 -2.448,-3.96 -5.76,-7.056 -10.008,-9.36 -4.248,-2.232 -9,-3.384 -14.328,-3.384 -5.328,0 -10.152,1.152 -14.4,3.384 -4.248,2.304 -7.56,5.4 -10.008,9.36 -2.448,4.032 -3.6,8.496 -3.6,13.464 0,5.04 1.152,9.504 3.6,13.464 2.448,4.032 5.76,7.128 10.008,9.36 z m 21.312,-10.224 c -2.088,1.224 -4.392,1.8 -6.912,1.8 -2.592,0 -4.896,-0.576 -6.912,-1.8 -2.088,-1.152 -3.744,-2.88 -4.896,-5.04 -1.224,-2.16 -1.8,-4.68 -1.8,-7.56 0,-2.808 0.576,-5.328 1.8,-7.488 1.152,-2.16 2.808,-3.888 4.896,-5.112 2.016,-1.152 4.32,-1.8 6.912,-1.8 2.52,0 4.824,0.648 6.912,1.8 2.016,1.224 3.672,2.952 4.896,5.112 1.152,2.16 1.8,4.68 1.8,7.488 0,2.88 -0.648,5.4 -1.8,7.56 -1.224,2.16 -2.88,3.888 -4.896,5.04 z" transform="translate(0 329.6667525799141) translate(693.6448755841666 34.17264737382419) scale(0.7692536647688388) translate(-749.36206 -68.592)"></path> 
   <path id="path9768" style="font-style: normal; font-weight: 800; font-size: 72px; line-height: 1; font-family: &quot;Montserrat ExtraBold Alt1&quot;; font-variant-ligatures: none; text-align: center; text-anchor: middle; fill: rgb(131, 189, 213);" d="m 851.22069,69.6 h -41.76 v 19.08 h 12.168 v -7.776 h 13.248 L 817.88469,120 h 15.552 l 17.784,-41.472 z" transform="translate(0 329.6667525799141) translate(739.875966959253 34.94805506791117) scale(0.7692536647688388) translate(-809.46069 -69.6)"></path> 
  </g> 
  <g id="tagline" style="font-style:normal;font-weight:500;font-size:32px;line-height:1;font-family:Montserrat;font-variant-ligatures:none;text-align:center;text-anchor:middle"></g> 
 </g> 
</svg>