<svg xmlns:dc="http://purl.org/dc/elements/1.1/" xmlns:cc="http://creativecommons.org/ns#" xmlns:rdf="http://www.w3.org/1999/02/22-rdf-syntax-ns#" xmlns:svg="http://www.w3.org/2000/svg" xmlns="http://www.w3.org/2000/svg" id="svg37759" viewbox="0 0 1024 768" height="768px" width="1024px" version="1.1"> <metadata id="metadata37765"> 
  <rdf:rdf> 
   <cc:work rdf:about=""> 
    <dc:format>
     image/svg+xml
    </dc:format> 
    <dc:type rdf:resource="http://purl.org/dc/dcmitype/StillImage"></dc:type> 
   </cc:work> 
  </rdf:rdf> 
 </metadata> <defs id="defs37763"></defs> <g id="logo-group"> 
  <g id="title" style="font-style:normal;font-weight:300;font-size:72px;line-height:1;font-family:'Montserrat Light Alt1';font-variant-ligatures:none;text-align:center;text-anchor:middle" aria-label="Unleasho7"> 
   <path id="path37767" style="font-style: normal; font-weight: 300; font-size: 72px; line-height: 1; font-family: &quot;Montserrat Light Alt1&quot;; font-variant-ligatures: none; text-align: center; text-anchor: middle; fill: rgb(255, 253, 230);" d="m 337.733,114.816 c 3.528,3.744 8.496,5.544 14.904,5.544 6.336,0 11.304,-1.8 14.904,-5.544 3.528,-3.672 5.328,-9.072 5.328,-16.2 V 69.6 h -3.672 v 28.872 c 0,6.192 -1.44,10.872 -4.248,13.896 -2.88,3.096 -6.912,4.608 -12.24,4.608 -5.4,0 -9.504,-1.512 -12.312,-4.608 -2.88,-3.024 -4.248,-7.704 -4.248,-13.896 V 69.6 h -3.672 v 29.016 c 0,7.128 1.728,12.528 5.256,16.2 z" transform="translate(0 267.13254040941854) translate(251.9999999999999 82.79132130252572) scale(1.4276913980247947) translate(-332.477 -69.6)"></path> 
   <path id="path37769" style="font-style: normal; font-weight: 300; font-size: 72px; line-height: 1; font-family: &quot;Montserrat Light Alt1&quot;; font-variant-ligatures: none; text-align: center; text-anchor: middle; fill: rgb(255, 253, 230);" d="m 418.37075,86.232 c -2.736,-2.736 -6.48,-4.104 -11.16,-4.104 -3.528,0 -6.552,0.792 -9.144,2.232 -2.592,1.512 -4.464,3.6 -5.76,6.192 v -8.136 h -3.456 V 120 h 3.6 V 99.984 c 0,-4.464 1.224,-7.992 3.816,-10.656 2.52,-2.592 5.976,-3.96 10.44,-3.96 3.816,0 6.768,1.152 8.928,3.312 2.16,2.232 3.24,5.472 3.24,9.648 V 120 h 3.6 V 98.04 c 0,-5.112 -1.368,-9.072 -4.104,-11.808 z" transform="translate(0 267.13254040941854) translate(332.48431794940024 100.67743913698035) scale(1.4276913980247947) translate(-388.85075 -82.128)"></path> 
   <path id="path37771" style="font-style: normal; font-weight: 300; font-size: 72px; line-height: 1; font-family: &quot;Montserrat Light Alt1&quot;; font-variant-ligatures: none; text-align: center; text-anchor: middle; fill: rgb(255, 253, 230);" d="M 437.36637,66.576 V 120 h 3.6 V 66.576 Z" transform="translate(0 267.13254040941854) translate(401.74965129323994 78.47398251489872) scale(1.4276913980247947) translate(-437.36637 -66.576)"></path> 
   <path id="path37773" style="font-style: normal; font-weight: 300; font-size: 72px; line-height: 1; font-family: &quot;Montserrat Light Alt1&quot;; font-variant-ligatures: none; text-align: center; text-anchor: middle; fill: rgb(255, 253, 230);" d="m 478.38612,115.752 c -2.08799,0.864 -4.392,1.296 -6.76799,1.296 -3.88801,0 -7.12801,-1.008 -9.86401,-3.024 -2.736,-2.016 -4.608,-4.752 -5.472,-8.208 l 31.75201,-6.192 c -0.21601,-3.312 -1.00801,-6.264 -2.592,-8.928 -1.58401,-2.664 -3.67201,-4.752 -6.264,-6.264 -2.59201,-1.512 -5.54401,-2.304 -8.78401,-2.304 -3.528,0 -6.696,0.864 -9.43199,2.448 -2.808,1.656 -4.96801,3.888 -6.55201,6.768 -1.584,2.88 -2.30399,6.192 -2.30399,9.864 0,3.744 0.79199,6.984 2.44799,9.864 1.656,2.88 3.96,5.184 6.912,6.768 2.952,1.656 6.264,2.448 10.08001,2.448 2.88,0 5.54399,-0.504 8.06399,-1.512 2.37601,-1.008 4.464,-2.52 6.12,-4.608 l -2.08799,-2.376 c -1.44,1.8 -3.168,3.096 -5.25601,3.96 z m -15.62399,-28.44 c 2.23199,-1.296 4.75199,-2.016 7.63199,-2.016 2.448,0 4.752,0.576 6.768,1.656 2.01601,1.08 3.6,2.592 4.89601,4.392 1.22399,1.872 2.01599,3.96 2.37599,6.192 l -28.656,5.616 c -0.144,-0.936 -0.144,-1.656 -0.144,-2.232 0,-2.952 0.576,-5.688 1.872,-8.064 1.224,-2.376 2.952,-4.248 5.25601,-5.544 z" transform="translate(0 267.13254040941854) translate(422.7934798541898 100.67743913698035) scale(1.4276913980247947) translate(-452.10613 -82.128)"></path> 
   <path id="path37775" style="font-style: normal; font-weight: 300; font-size: 72px; line-height: 1; font-family: &quot;Montserrat Light Alt1&quot;; font-variant-ligatures: none; text-align: center; text-anchor: middle; fill: rgb(255, 253, 230);" d="m 521.51638,85.728 c -2.52001,-2.376 -6.12,-3.6 -10.72801,-3.6 -2.88,0 -5.688,0.504 -8.28,1.44 -2.66399,0.936 -4.896,2.232 -6.768,3.888 l 1.8,2.592 c 1.584,-1.44 3.456,-2.592 5.76,-3.456 2.304,-0.864 4.68,-1.296 7.20001,-1.296 3.59999,0 6.40799,0.936 8.28,2.736 1.87199,1.872 2.88,4.536 2.88,7.992 v 3.024 h -12.88801 c -4.896,0 -8.49599,1.008 -10.728,2.952 -2.232,1.944 -3.312,4.464 -3.312,7.56 0,3.24 1.152,5.832 3.60001,7.776 2.44799,2.016 5.75999,2.952 9.93599,2.952 3.168,0 5.976,-0.576 8.28,-1.8 2.30401,-1.224 4.032,-2.952 5.25601,-5.184 V 120 h 3.45599 V 96.168 c 0,-4.608 -1.29599,-8.064 -3.74399,-10.44 z m -4.82401,29.448 c -2.16,1.44 -4.82399,2.16 -7.92,2.16 -3.312,0 -5.90399,-0.648 -7.704,-2.088 -1.872,-1.44 -2.73599,-3.384 -2.73599,-5.832 0,-2.304 0.79199,-4.176 2.44799,-5.544 1.656,-1.296 4.32,-2.016 8.06401,-2.016 h 12.816 v 7.056 c -1.15201,2.736 -2.808,4.824 -4.96801,6.264 z" transform="translate(0 267.13254040941854) translate(483.6505960323302 100.67743913698035) scale(1.4276913980247947) translate(-494.73237 -82.128)"></path> 
   <path id="path37777" style="font-style: normal; font-weight: 300; font-size: 72px; line-height: 1; font-family: &quot;Montserrat Light Alt1&quot;; font-variant-ligatures: none; text-align: center; text-anchor: middle; fill: rgb(255, 253, 230);" d="m 541.02725,118.92 c 2.736,0.936 5.616,1.368 8.64,1.368 4.68,0 8.352,-0.936 10.944,-2.808 2.592,-1.872 3.888,-4.32 3.888,-7.488 0,-2.304 -0.648,-4.176 -1.872,-5.544 -1.296,-1.296 -2.808,-2.304 -4.608,-2.88 -1.8,-0.576 -4.176,-1.152 -7.056,-1.728 -2.664,-0.504 -4.752,-1.008 -6.192,-1.44 -1.44,-0.432 -2.664,-1.152 -3.672,-2.088 -1.008,-0.936 -1.512,-2.232 -1.512,-3.96 0,-2.088 0.864,-3.816 2.664,-5.112 1.728,-1.296 4.392,-1.944 7.92,-1.944 2.016,0 4.032,0.288 6.048,0.864 1.944,0.576 3.672,1.44 5.256,2.52 l 1.656,-2.88 c -1.512,-1.08 -3.456,-1.944 -5.76,-2.664 -2.376,-0.648 -4.752,-1.008 -7.128,-1.008 -4.608,0 -8.136,1.008 -10.584,2.952 -2.448,1.944 -3.672,4.392 -3.672,7.344 0,2.448 0.648,4.392 1.944,5.76 1.296,1.44 2.808,2.448 4.68,3.024 1.8,0.648 4.176,1.224 7.2,1.728 2.52,0.504 4.536,0.936 5.976,1.368 1.44,0.432 2.592,1.152 3.6,2.016 1.008,0.936 1.512,2.16 1.512,3.744 0,2.232 -0.936,3.96 -2.736,5.184 -1.8,1.296 -4.608,1.872 -8.352,1.872 -2.664,0 -5.184,-0.432 -7.632,-1.296 -2.448,-0.864 -4.392,-1.944 -5.904,-3.24 l -1.656,2.88 c 1.512,1.44 3.672,2.592 6.408,3.456 z" transform="translate(0 267.13254040941854) translate(540.5967515023774 100.67743913698035) scale(1.4276913980247947) translate(-534.61925 -82.128)"></path> 
   <path id="path37779" style="font-style: normal; font-weight: 300; font-size: 72px; line-height: 1; font-family: &quot;Montserrat Light Alt1&quot;; font-variant-ligatures: none; text-align: center; text-anchor: middle; fill: rgb(255, 253, 230);" d="m 604.13638,86.232 c -2.736,-2.736 -6.48,-4.104 -11.16001,-4.104 -3.45599,0 -6.48,0.72 -9,2.16 -2.592,1.44 -4.46399,3.384 -5.76,5.976 V 66.576 h -3.6 V 120 h 3.6 V 99.984 c 0,-4.464 1.22401,-7.992 3.816,-10.656 2.52,-2.592 5.976,-3.96 10.44001,-3.96 3.81599,0 6.76799,1.152 8.928,3.312 2.16,2.232 3.23999,5.472 3.23999,9.648 V 120 h 3.6 V 98.04 c 0,-5.112 -1.36799,-9.072 -4.10399,-11.808 z" transform="translate(0 267.13254040941854) translate(597.7002956721429 78.47398251489872) scale(1.4276913980247947) translate(-574.61637 -66.576)"></path> 
   <path id="path37781" style="font-style: normal; font-weight: 300; font-size: 72px; line-height: 1; font-family: &quot;Montserrat Light Alt1&quot;; font-variant-ligatures: none; text-align: center; text-anchor: middle; fill: rgb(196, 215, 220);" d="m 628.31263,117.84 c 2.88,1.656 6.048,2.448 9.648,2.448 3.52799,0 6.69599,-0.792 9.57599,-2.448 2.88,-1.584 5.11201,-3.888 6.768,-6.768 1.58401,-2.88 2.448,-6.192 2.448,-9.864 0,-3.6 -0.86399,-6.912 -2.448,-9.792 -1.65599,-2.88 -3.888,-5.184 -6.768,-6.84 -2.88,-1.584 -6.048,-2.448 -9.57599,-2.448 -3.6,0 -6.768,0.864 -9.648,2.448 -2.88,1.656 -5.11201,3.96 -6.69601,6.84 -1.65599,2.88 -2.44799,6.192 -2.44799,9.792 0,3.672 0.792,6.984 2.44799,9.864 1.584,2.88 3.81601,5.184 6.69601,6.768 z m 17.35199,-2.808 c -2.30399,1.368 -4.82399,2.016 -7.70399,2.016 -2.88,0 -5.47201,-0.648 -7.77601,-2.016 -2.304,-1.296 -4.10399,-3.168 -5.4,-5.616 -1.296,-2.376 -1.94399,-5.112 -1.94399,-8.208 0,-3.024 0.64799,-5.76 1.94399,-8.208 1.29601,-2.376 3.096,-4.248 5.4,-5.616 2.304,-1.296 4.89601,-2.016 7.77601,-2.016 2.88,0 5.4,0.72 7.70399,2.016 2.304,1.368 4.10401,3.24 5.4,5.616 1.29601,2.448 2.01601,5.184 2.01601,8.208 0,3.096 -0.72,5.832 -2.01601,8.208 -1.29599,2.448 -3.096,4.32 -5.4,5.616 z" transform="translate(0 267.13254040941854) translate(661.307174036707 100.67743913698035) scale(1.4276913980247947) translate(-619.16863 -82.128)"></path> 
   <path id="path37783" style="font-style: normal; font-weight: 300; font-size: 72px; line-height: 1; font-family: &quot;Montserrat Light Alt1&quot;; font-variant-ligatures: none; text-align: center; text-anchor: middle; fill: rgb(196, 215, 220);" d="m 696.70137,69.6 h -36.144 v 12.96 h 3.6 v -9.648 h 28.29601 L 670.99738,120 h 4.03199 l 21.672,-47.808 z" transform="translate(0 267.13254040941854) translate(720.3975221097918 82.79132130252572) scale(1.4276913980247947) translate(-660.55737 -69.6)"></path> 
  </g> 
  <g id="tagline" style="font-style:normal;font-weight:400;font-size:32px;line-height:1;font-family:Montserrat;font-variant-ligatures:none;text-align:center;text-anchor:middle"></g> 
 </g> 
</svg>