<svg xmlns:dc="http://purl.org/dc/elements/1.1/" xmlns:cc="http://creativecommons.org/ns#" xmlns:rdf="http://www.w3.org/1999/02/22-rdf-syntax-ns#" xmlns:svg="http://www.w3.org/2000/svg" xmlns="http://www.w3.org/2000/svg" id="svg121676" viewbox="0 0 1024 768" height="768px" width="1024px" version="1.1"> <metadata id="metadata121682"> 
  <rdf:rdf> 
   <cc:work rdf:about=""> 
    <dc:format>
     image/svg+xml
    </dc:format> 
    <dc:type rdf:resource="http://purl.org/dc/dcmitype/StillImage"></dc:type> 
   </cc:work> 
  </rdf:rdf> 
 </metadata> <defs id="defs121680"></defs> <g id="logo-group"> 
  <g id="title" style="font-style:normal;font-weight:300;font-size:72px;line-height:1;font-family:'Uni Neue';font-variant-ligatures:none;text-align:center;text-anchor:middle" aria-label="Upbeato7"> 
   <path id="path121684" style="font-style: normal; font-weight: 300; font-size: 72px; line-height: 1; font-family: &quot;Uni Neue&quot;; font-variant-ligatures: none; text-align: center; text-anchor: middle; fill: rgb(240, 238, 215);" d="M 407.37275,102.648 V 68.952 c 0,-0.288 -0.216,-0.432 -0.504,-0.432 h -1.512 c -0.288,0 -0.432,0.144 -0.432,0.432 v 33.624 c 0,9.504 -5.4,15.768 -15.264,15.768 -9.864,0 -15.192,-6.264 -15.192,-15.768 V 68.952 c 0,-0.288 -0.144,-0.432 -0.432,-0.432 h -1.512 c -0.288,0 -0.504,0.144 -0.504,0.432 v 33.696 c 0,10.656 6.48,17.928 17.64,17.928 11.232,0 17.712,-7.272 17.712,-17.928 z" transform="translate(0 218.0558712414276) translate(252.0000000000001 106.499605366344) scale(1.824571006514069) translate(-372.02075 -68.52)"></path> 
   <path id="path121686" style="font-style: normal; font-weight: 300; font-size: 72px; line-height: 1; font-family: &quot;Uni Neue&quot;; font-variant-ligatures: none; text-align: center; text-anchor: middle; fill: rgb(240, 238, 215);" d="m 419.74437,84.864 c -0.144,0.072 -0.288,0.288 -0.288,0.504 v 47.88 c 0,0.288 0.216,0.432 0.432,0.432 h 1.44 c 0.288,0 0.432,-0.144 0.432,-0.432 V 117.48 c 3.024,2.016 7.056,3.24 11.232,3.24 9.432,0 15.192,-4.968 15.192,-15.408 V 97.68 c 0,-10.656 -5.832,-15.408 -15.264,-15.408 -4.68,0 -9.21599,0.936 -13.176,2.592 z m 13.176,33.768 c -4.032,0 -7.99199,-1.368 -11.16,-3.528 V 86.376 c 3.24001,-1.224 7.128,-2.016 11.16,-2.016 8.208,0 12.888,3.96 12.888,13.32 v 7.632 c 0,9.288 -4.608,13.32 -12.888,13.32 z" transform="translate(0 218.0558712414276) translate(338.54965692801903 131.59110584792552) scale(1.824571006514069) translate(-419.45637 -82.272)"></path> 
   <path id="path121688" style="font-style: normal; font-weight: 300; font-size: 72px; line-height: 1; font-family: &quot;Uni Neue&quot;; font-variant-ligatures: none; text-align: center; text-anchor: middle; fill: rgb(240, 238, 215);" d="M 460.01037,85.584 V 68.952 c 0,-0.288 -0.144,-0.432 -0.432,-0.432 h -1.44 c -0.216,0 -0.432,0.144 -0.432,0.432 v 48.744 c 0,0.216 0.144,0.432 0.36,0.504 3.88801,1.584 8.496,2.52 13.104,2.52 9.432,0 15.264,-4.752 15.264,-15.336 V 97.68 c 0,-10.44 -5.76,-15.408 -15.192,-15.408 -4.176,0 -8.13599,1.296 -11.232,3.312 z m 11.16,33.048 c -4.032,0 -7.91999,-0.792 -11.16,-1.944 v -28.8 c 3.16801,-2.16 7.128,-3.456 11.16,-3.456 8.28,0 12.888,3.96 12.888,13.248 v 7.704 c 0,9.288 -4.68,13.248 -12.888,13.248 z" transform="translate(0 218.0558712414276) translate(408.33949792718215 106.499605366344) scale(1.824571006514069) translate(-457.70637 -68.52)"></path> 
   <path id="path121690" style="font-style: normal; font-weight: 300; font-size: 72px; line-height: 1; font-family: &quot;Uni Neue&quot;; font-variant-ligatures: none; text-align: center; text-anchor: middle; fill: rgb(240, 238, 215);" d="m 523.31637,95.952 c 0,-8.712 -5.904,-13.68 -14.32799,-13.68 -8.42401,0 -14.32801,4.968 -14.32801,13.68 v 11.664 c 0,8.28 6.76801,13.104 14.32801,13.104 6.12,0 10.58399,-2.736 13.60799,-5.544 0.288,-0.144 0.288,-0.36 0.072,-0.576 l -0.79199,-0.936 c -0.144,-0.216 -0.36,-0.216 -0.576,-0.072 -2.736,2.448 -6.62401,5.04 -12.24,5.04 -6.55201,0 -12.096,-4.032 -12.096,-11.016 v -4.752 h 25.91999 c 0.216,0 0.432,-0.144 0.432,-0.432 z m -2.30399,0 v 4.896 h -24.048 v -4.896 c 0,-7.416 4.75199,-11.52 12.024,-11.52 7.19999,0 12.024,4.176 12.024,11.52 z" transform="translate(0 218.0558712414276) translate(475.76469490190306 131.59110584792552) scale(1.824571006514069) translate(-494.66037 -82.272)"></path> 
   <path id="path121692" style="font-style: normal; font-weight: 300; font-size: 72px; line-height: 1; font-family: &quot;Uni Neue&quot;; font-variant-ligatures: none; text-align: center; text-anchor: middle; fill: rgb(240, 238, 215);" d="m 531.79887,85.944 c -0.144,0.144 -0.072,0.36 0,0.576 l 0.648,1.008 c 0.144,0.144 0.36,0.216 0.648,0.072 2.736,-1.728 6.98401,-3.168 11.52,-3.168 7.992,0 11.088,4.32 11.088,11.16 v 3.744 c -2.88,-0.648 -6.83999,-1.368 -11.088,-1.368 -9.288,0 -14.76,4.032 -14.76,11.232 0,7.272 6.336,11.52 14.76,11.52 5.328,0 10.00801,-1.224 13.03201,-2.52 0.288,-0.072 0.36,-0.36 0.36,-0.504 V 95.52 c 0,-8.064 -4.24801,-13.248 -13.32001,-13.248 -5.18399,0 -9.792,1.512 -12.888,3.672 z m 0.36,23.256 c 0,-5.832 4.32001,-9.144 12.456,-9.144 4.10401,0 8.28,0.648 11.088,1.296 v 15.264 c -2.664,1.008 -6.40799,2.016 -11.088,2.016 -7.27199,0 -12.456,-3.672 -12.456,-9.432 z" transform="translate(0 218.0558712414276) translate(539.9795591906625 131.59110584792552) scale(1.824571006514069) translate(-529.85487 -82.272)"></path> 
   <path id="path121694" style="font-style: normal; font-weight: 300; font-size: 72px; line-height: 1; font-family: &quot;Uni Neue&quot;; font-variant-ligatures: none; text-align: center; text-anchor: middle; fill: rgb(240, 238, 215);" d="M 570.60687,108.84 V 85.224 h 12.168 c 0.216,0 0.432,-0.216 0.432,-0.504 v -1.224 c 0,-0.216 -0.216,-0.432 -0.432,-0.432 h -12.168 v -8.928 c -0.072,-0.288 -0.21599,-0.432 -0.50399,-0.432 h -1.36801 c -0.288,0 -0.432,0.144 -0.432,0.432 v 34.776 c 0,7.416 4.17601,11.664 11.08801,11.664 1.00799,0 2.952,-0.072 4.31999,-0.216 0.288,-0.072 0.432,-0.216 0.432,-0.504 v -1.224 c 0,-0.288 -0.144,-0.432 -0.432,-0.432 -1.43999,0.144 -3.24,0.216 -4.31999,0.216 -5.76001,0 -8.78401,-3.528 -8.78401,-9.576 z" transform="translate(0 218.0558712414276) translate(610.1306652491153 115.95818146411294) scale(1.824571006514069) translate(-568.30287 -73.704)"></path> 
   <path id="path121696" style="font-style: normal; font-weight: 300; font-size: 72px; line-height: 1; font-family: &quot;Uni Neue&quot;; font-variant-ligatures: none; text-align: center; text-anchor: middle; fill: rgb(202, 221, 199);" d="M 618.40925,107.184 V 95.808 c 0,-7.56 -5.184,-13.536 -14.976,-13.536 -9.72,0 -14.976,5.976 -14.976,13.536 v 11.376 c 0,7.632 5.256,13.536 14.976,13.536 9.792,0 14.976,-5.904 14.976,-13.536 z m -27.648,0 V 95.808 c 0,-6.336 4.248,-11.376 12.672,-11.376 8.496,0 12.672,5.04 12.672,11.376 v 11.376 c 0,6.408 -4.176,11.448 -12.672,11.448 -8.424,0 -12.672,-5.04 -12.672,-11.448 z" transform="translate(0 218.0558712414276) translate(646.9037626513823 131.59110584792552) scale(1.824571006514069) translate(-588.45725 -82.272)"></path> 
   <path id="path121698" style="font-style: normal; font-weight: 300; font-size: 72px; line-height: 1; font-family: &quot;Uni Neue&quot;; font-variant-ligatures: none; text-align: center; text-anchor: middle; fill: rgb(202, 221, 199);" d="m 632.46725,120 c 0.216,0 0.504,-0.144 0.576,-0.36 l 23.832,-49.392 c 0.144,-0.144 0.144,-0.36 0.144,-0.504 v -0.792 c 0,-0.288 -0.216,-0.432 -0.504,-0.432 h -31.68 c -0.288,0 -0.504,0.144 -0.504,0.432 v 1.368 c 0,0.216 0.216,0.432 0.504,0.432 h 29.304 l -23.616,48.672 c -0.144,0.36 0.072,0.576 0.36,0.576 z" transform="translate(0 218.0558712414276) translate(712.3584229390679 106.499605366344) scale(1.824571006514069) translate(-624.33125 -68.52)"></path> 
  </g> 
  <g id="tagline" style="font-style:oblique;font-weight:400;font-size:32px;line-height:1;font-family:Lato;font-variant-ligatures:none;text-align:center;text-anchor:middle"></g> 
 </g> 
</svg>