<svg xmlns:dc="http://purl.org/dc/elements/1.1/" xmlns:cc="http://creativecommons.org/ns#" xmlns:rdf="http://www.w3.org/1999/02/22-rdf-syntax-ns#" xmlns:svg="http://www.w3.org/2000/svg" xmlns="http://www.w3.org/2000/svg" id="svg294169" viewbox="0 0 1024 768" height="768px" width="1024px" version="1.1"> <metadata id="metadata294175"> 
  <rdf:rdf> 
   <cc:work rdf:about=""> 
    <dc:format>
     image/svg+xml
    </dc:format> 
    <dc:type rdf:resource="http://purl.org/dc/dcmitype/StillImage"></dc:type> 
   </cc:work> 
  </rdf:rdf> 
 </metadata> <defs id="defs294173"></defs> <g id="logo-group"> 
  <g id="title" style="font-style:normal;font-weight:300;font-size:72px;line-height:1;font-family:'Montserrat Light Alt1';font-variant-ligatures:none;text-align:center;text-anchor:middle" aria-label="Velocityo7"> 
   <path id="path294177" style="font-style: normal; font-weight: 300; font-size: 72px; line-height: 1; font-family: &quot;Montserrat Light Alt1&quot;; font-variant-ligatures: none; text-align: center; text-anchor: middle; fill: rgb(22, 22, 22);" d="m 381.10231,69.6 h -3.816 l -20.376,45.648 -20.376,-45.648 h -4.032 l 22.464,50.4 h 3.672 z" transform="translate(0 294.2840480301677) translate(252.00000000000006 57.09672005557208) scale(1.0585160927524724) translate(-332.50231 -69.6)"></path> 
   <path id="path294179" style="font-style: normal; font-weight: 300; font-size: 72px; line-height: 1; font-family: &quot;Montserrat Light Alt1&quot;; font-variant-ligatures: none; text-align: center; text-anchor: middle; fill: rgb(22, 22, 22);" d="m 407.44081,115.752 c -2.088,0.864 -4.392,1.296 -6.768,1.296 -3.888,0 -7.128,-1.008 -9.864,-3.024 -2.736,-2.016 -4.608,-4.752 -5.472,-8.208 l 31.752,-6.192 c -0.216,-3.312 -1.008,-6.264 -2.592,-8.928 -1.584,-2.664 -3.672,-4.752 -6.264,-6.264 -2.592,-1.512 -5.544,-2.304 -8.784,-2.304 -3.528,0 -6.696,0.864 -9.432,2.448 -2.808,1.656 -4.968,3.888 -6.552,6.768 -1.584,2.88 -2.304,6.192 -2.304,9.864 0,3.744 0.792,6.984 2.448,9.864 1.656,2.88 3.96,5.184 6.912,6.768 2.952,1.656 6.264,2.448 10.08,2.448 2.88,0 5.544,-0.504 8.064,-1.512 2.376,-1.008 4.464,-2.52 6.12,-4.608 l -2.088,-2.376 c -1.44,1.8 -3.168,3.096 -5.256,3.96 z m -15.624,-28.44 c 2.232,-1.296 4.752,-2.016 7.632,-2.016 2.448,0 4.752,0.576 6.768,1.656 2.016,1.08 3.6,2.592 4.896,4.392 1.224,1.872 2.016,3.96 2.376,6.192 l -28.656,5.616 c -0.144,-0.936 -0.144,-1.656 -0.144,-2.232 0,-2.952 0.576,-5.688 1.872,-8.064 1.224,-2.376 2.952,-4.248 5.256,-5.544 z" transform="translate(0 294.2840480301677) translate(319.3835466904833 70.35780966557505) scale(1.0585160927524724) translate(-381.16081 -82.128)"></path> 
   <path id="path294181" style="font-style: normal; font-weight: 300; font-size: 72px; line-height: 1; font-family: &quot;Montserrat Light Alt1&quot;; font-variant-ligatures: none; text-align: center; text-anchor: middle; fill: rgb(22, 22, 22);" d="M 428.29606,66.576 V 120 h 3.6 V 66.576 Z" transform="translate(0 294.2840480301677) translate(385.15470874268135 53.8957673910886) scale(1.0585160927524724) translate(-428.29606 -66.576)"></path> 
   <path id="path294183" style="font-style: normal; font-weight: 300; font-size: 72px; line-height: 1; font-family: &quot;Montserrat Light Alt1&quot;; font-variant-ligatures: none; text-align: center; text-anchor: middle; fill: rgb(22, 22, 22);" d="m 452.17981,117.84 c 2.88,1.656 6.048,2.448 9.648,2.448 3.528,0 6.696,-0.792 9.576,-2.448 2.88,-1.584 5.112,-3.888 6.768,-6.768 1.584,-2.88 2.448,-6.192 2.448,-9.864 0,-3.6 -0.864,-6.912 -2.448,-9.792 -1.656,-2.88 -3.888,-5.184 -6.768,-6.84 -2.88,-1.584 -6.048,-2.448 -9.576,-2.448 -3.6,0 -6.768,0.864 -9.648,2.448 -2.88,1.656 -5.112,3.96 -6.696,6.84 -1.656,2.88 -2.448,6.192 -2.448,9.792 0,3.672 0.792,6.984 2.448,9.864 1.584,2.88 3.816,5.184 6.696,6.768 z m 17.352,-2.808 c -2.304,1.368 -4.824,2.016 -7.704,2.016 -2.88,0 -5.472,-0.648 -7.776,-2.016 -2.304,-1.296 -4.104,-3.168 -5.4,-5.616 -1.296,-2.376 -1.944,-5.112 -1.944,-8.208 0,-3.024 0.648,-5.76 1.944,-8.208 1.296,-2.376 3.096,-4.248 5.4,-5.616 2.304,-1.296 4.896,-2.016 7.776,-2.016 2.88,0 5.4,0.72 7.704,2.016 2.304,1.368 4.104,3.24 5.4,5.616 1.296,2.448 2.016,5.184 2.016,8.208 0,3.096 -0.72,5.832 -2.016,8.208 -1.296,2.448 -3.096,4.32 -5.4,5.616 z" transform="translate(0 294.2840480301677) translate(416.63471271211665 70.35780966557505) scale(1.0585160927524724) translate(-443.03581 -82.128)"></path> 
   <path id="path294185" style="font-style: normal; font-weight: 300; font-size: 72px; line-height: 1; font-family: &quot;Montserrat Light Alt1&quot;; font-variant-ligatures: none; text-align: center; text-anchor: middle; fill: rgb(22, 22, 22);" d="m 496.82994,117.84 c 2.88,1.656 6.12,2.448 9.792,2.448 3.024,0 5.76,-0.576 8.208,-1.728 2.448,-1.152 4.464,-2.88 6.048,-5.184 l -2.664,-1.944 c -1.368,1.872 -3.024,3.312 -5.04,4.248 -2.016,0.936 -4.176,1.368 -6.552,1.368 -2.952,0 -5.616,-0.648 -7.92,-1.944 -2.304,-1.296 -4.176,-3.168 -5.472,-5.616 -1.296,-2.376 -1.944,-5.112 -1.944,-8.28 0,-3.096 0.648,-5.832 1.944,-8.28 1.296,-2.376 3.168,-4.248 5.472,-5.544 2.304,-1.296 4.968,-2.016 7.92,-2.016 2.376,0 4.536,0.504 6.552,1.44 2.016,0.936 3.672,2.304 5.04,4.176 l 2.664,-1.944 c -1.584,-2.232 -3.6,-3.96 -6.048,-5.112 -2.448,-1.152 -5.184,-1.8 -8.208,-1.8 -3.672,0 -6.912,0.864 -9.792,2.448 -2.88,1.584 -5.184,3.888 -6.768,6.768 -1.656,2.88 -2.448,6.192 -2.448,9.864 0,3.672 0.792,6.984 2.448,9.864 1.584,2.88 3.888,5.184 6.768,6.768 z" transform="translate(0 294.2840480301677) translate(479.69912209321546 70.35780966557505) scale(1.0585160927524724) translate(-487.61394 -82.128)"></path> 
   <path id="path294187" style="font-style: normal; font-weight: 300; font-size: 72px; line-height: 1; font-family: &quot;Montserrat Light Alt1&quot;; font-variant-ligatures: none; text-align: center; text-anchor: middle; fill: rgb(22, 22, 22);" d="M 531.65544,82.416 V 120 h 3.6 V 82.416 Z m -0.288,-9.936 c 0.576,0.576 1.224,0.792 2.088,0.792 0.792,0 1.512,-0.288 2.088,-0.864 0.576,-0.576 0.864,-1.224 0.864,-2.088 0,-0.792 -0.288,-1.44 -0.864,-2.016 -0.576,-0.576 -1.296,-0.864 -2.088,-0.864 -0.864,0 -1.512,0.288 -2.088,0.864 -0.576,0.576 -0.864,1.296 -0.864,2.088 0,0.864 0.288,1.512 0.864,2.088 z" transform="translate(0 294.2840480301677) translate(540.9760894446097 54.81032529522675) scale(1.0585160927524724) translate(-530.50344 -67.44)"></path> 
   <path id="path294189" style="font-style: normal; font-weight: 300; font-size: 72px; line-height: 1; font-family: &quot;Montserrat Light Alt1&quot;; font-variant-ligatures: none; text-align: center; text-anchor: middle; fill: rgb(22, 22, 22);" d="m 569.14719,117.624 -1.512,-2.52 c -1.584,1.44 -3.528,2.088 -5.832,2.088 -2.304,0 -4.104,-0.576 -5.256,-1.872 -1.152,-1.296 -1.728,-3.168 -1.728,-5.616 V 85.512 h 11.952 v -3.096 h -11.952 v -8.208 h -3.6 v 8.208 h -6.912 v 3.096 h 6.912 v 24.552 c 0,3.24 0.864,5.76 2.664,7.56 1.728,1.8 4.248,2.664 7.56,2.664 1.44,0 2.88,-0.216 4.248,-0.648 1.368,-0.432 2.52,-1.152 3.456,-2.016 z" transform="translate(0 294.2840480301677) translate(571.4653223512287 61.97436221097547) scale(1.0585160927524724) translate(-544.30719 -74.208)"></path> 
   <path id="path294191" style="font-style: normal; font-weight: 300; font-size: 72px; line-height: 1; font-family: &quot;Montserrat Light Alt1&quot;; font-variant-ligatures: none; text-align: center; text-anchor: middle; fill: rgb(22, 22, 22);" d="m 608.65156,82.416 h -3.672 l -15.048,33.624 -15.048,-33.624 h -3.816 l 16.92,37.44 -2.016,4.536 c -1.152,2.448 -2.304,4.176 -3.6,5.184 -1.296,1.008 -2.88,1.512 -4.68,1.512 -2.736,0 -5.112,-0.936 -6.984,-2.952 l -1.8,2.736 c 1.008,1.152 2.304,1.944 3.816,2.52 1.512,0.576 3.168,0.864 4.896,0.864 2.592,0 4.824,-0.648 6.696,-2.088 1.872,-1.368 3.6,-3.744 5.04,-7.056 z" transform="translate(0 294.2840480301677) translate(613.3829512751809 70.66266230028776) scale(1.0585160927524724) translate(-568.90756 -82.416)"></path> 
   <path id="path294193" style="font-style: normal; font-weight: 300; font-size: 72px; line-height: 1; font-family: &quot;Montserrat Light Alt1&quot;; font-variant-ligatures: none; text-align: center; text-anchor: middle; fill: rgb(200, 199, 204);" d="m 620.36731,117.84 c 2.88,1.656 6.048,2.448 9.648,2.448 3.528,0 6.696,-0.792 9.576,-2.448 2.88,-1.584 5.112,-3.888 6.768,-6.768 1.584,-2.88 2.448,-6.192 2.448,-9.864 0,-3.6 -0.864,-6.912 -2.448,-9.792 -1.656,-2.88 -3.888,-5.184 -6.768,-6.84 -2.88,-1.584 -6.048,-2.448 -9.576,-2.448 -3.6,0 -6.768,0.864 -9.648,2.448 -2.88,1.656 -5.112,3.96 -6.696,6.84 -1.656,2.88 -2.448,6.192 -2.448,9.792 0,3.672 0.792,6.984 2.448,9.864 1.584,2.88 3.816,5.184 6.696,6.768 z m 17.352,-2.808 c -2.304,1.368 -4.824,2.016 -7.704,2.016 -2.88,0 -5.472,-0.648 -7.776,-2.016 -2.304,-1.296 -4.104,-3.168 -5.4,-5.616 -1.296,-2.376 -1.944,-5.112 -1.944,-8.208 0,-3.024 0.648,-5.76 1.944,-8.208 1.296,-2.376 3.096,-4.248 5.4,-5.616 2.304,-1.296 4.896,-2.016 7.776,-2.016 2.88,0 5.4,0.72 7.704,2.016 2.304,1.368 4.104,3.24 5.4,5.616 1.296,2.448 2.016,5.184 2.016,8.208 0,3.096 -0.72,5.832 -2.016,8.208 -1.296,2.448 -3.096,4.32 -5.4,5.616 z" transform="translate(0 294.2840480301677) translate(674.0525950183583 70.35780966557505) scale(1.0585160927524724) translate(-611.22331 -82.128)"></path> 
   <path id="path294195" style="font-style: normal; font-weight: 300; font-size: 72px; line-height: 1; font-family: &quot;Montserrat Light Alt1&quot;; font-variant-ligatures: none; text-align: center; text-anchor: middle; fill: rgb(200, 199, 204);" d="m 688.75606,69.6 h -36.144 v 12.96 h 3.6 v -9.648 h 28.296 L 663.05206,120 h 4.032 l 21.672,-47.808 z" transform="translate(0 294.2840480301677) translate(733.7409943435545 57.09672005557208) scale(1.0585160927524724) translate(-652.61206 -69.6)"></path> 
  </g> 
  <g id="tagline" style="font-style:normal;font-weight:400;font-size:32px;line-height:1;font-family:Montserrat;font-variant-ligatures:none;text-align:center;text-anchor:middle"></g> 
 </g> 
</svg>