<svg xmlns:dc="http://purl.org/dc/elements/1.1/" xmlns:cc="http://creativecommons.org/ns#" xmlns:rdf="http://www.w3.org/1999/02/22-rdf-syntax-ns#" xmlns:svg="http://www.w3.org/2000/svg" xmlns="http://www.w3.org/2000/svg" id="svg121792" viewbox="0 0 1024 768" height="768px" width="1024px" version="1.1"> <metadata id="metadata121798"> 
  <rdf:rdf> 
   <cc:work rdf:about=""> 
    <dc:format>
     image/svg+xml
    </dc:format> 
    <dc:type rdf:resource="http://purl.org/dc/dcmitype/StillImage"></dc:type> 
   </cc:work> 
  </rdf:rdf> 
 </metadata> <defs id="defs121796"></defs> <g id="logo-group"> 
  <g id="title" style="font-style:normal;font-weight:800;font-size:72px;line-height:1;font-family:'Montserrat ExtraBold Alt1';font-variant-ligatures:none;text-align:center;text-anchor:middle" aria-label="VICEADMIRALO7"> 
   <path id="path121800" style="font-style: normal; font-weight: 800; font-size: 72px; line-height: 1; font-family: &quot;Montserrat ExtraBold Alt1&quot;; font-variant-ligatures: none; text-align: center; text-anchor: middle; fill: rgb(237, 90, 68);" d="m 202.40506,69.6 h -15.408 l 14.328,33.696 7.704,-17.64 z m 27.648,0 -13.968,32.832 -7.56,17.568 h 14.04 l 21.6,-50.4 z" transform="translate(0 329.6689230769231) translate(240.05100769230756 34.94646153846155) scale(0.7692307692307693) translate(-186.99706 -69.6)"></path> 
   <path id="path121802" style="font-style: normal; font-weight: 800; font-size: 72px; line-height: 1; font-family: &quot;Montserrat ExtraBold Alt1&quot;; font-variant-ligatures: none; text-align: center; text-anchor: middle; fill: rgb(237, 90, 68);" d="M 246.82906,69.6 V 120 h 14.256 V 69.6 Z" transform="translate(0 329.6689230769231) translate(289.9217769230768 34.94646153846155) scale(0.7692307692307693) translate(-246.82906 -69.6)"></path> 
   <path id="path121804" style="font-style: normal; font-weight: 800; font-size: 72px; line-height: 1; font-family: &quot;Montserrat ExtraBold Alt1&quot;; font-variant-ligatures: none; text-align: center; text-anchor: middle; fill: rgb(237, 90, 68);" d="m 282.16981,117.696 c 4.176,2.232 8.928,3.312 14.256,3.312 4.608,0 8.712,-0.792 12.456,-2.448 3.672,-1.584 6.768,-3.96 9.216,-7.056 l -9.072,-8.208 c -3.312,3.96 -7.272,5.904 -11.88,5.904 -2.736,0 -5.184,-0.576 -7.344,-1.8 -2.16,-1.152 -3.816,-2.88 -4.968,-5.04 -1.152,-2.16 -1.728,-4.68 -1.728,-7.56 0,-2.808 0.576,-5.328 1.728,-7.488 1.152,-2.16 2.808,-3.888 4.968,-5.112 2.16,-1.152 4.608,-1.8 7.344,-1.8 4.608,0 8.568,2.016 11.88,5.904 l 9.072,-8.208 c -2.448,-3.024 -5.544,-5.4 -9.216,-7.056 -3.744,-1.584 -7.848,-2.448 -12.456,-2.448 -5.328,0 -10.08,1.152 -14.256,3.384 -4.176,2.232 -7.488,5.328 -9.864,9.288 -2.448,4.032 -3.6,8.496 -3.6,13.536 0,5.04 1.152,9.576 3.6,13.536 2.376,4.032 5.688,7.128 9.864,9.36 z" transform="translate(0 329.6689230769231) translate(310.5961999999999 34.171076923076924) scale(0.7692307692307693) translate(-268.70581 -68.592)"></path> 
   <path id="path121806" style="font-style: normal; font-weight: 800; font-size: 72px; line-height: 1; font-family: &quot;Montserrat ExtraBold Alt1&quot;; font-variant-ligatures: none; text-align: center; text-anchor: middle; fill: rgb(237, 90, 68);" d="m 364.41406,69.6 h -39.96 v 11.016 h 39.96 z m 0,19.512 h -39.96 v 10.656 h 39.96 z m -39.96,19.872 V 120 h 39.96 v -11.016 z" transform="translate(0 329.6689230769231) translate(357.325623076923 34.94646153846155) scale(0.7692307692307693) translate(-324.45406 -69.6)"></path> 
   <path id="path121808" style="font-style: normal; font-weight: 800; font-size: 72px; line-height: 1; font-family: &quot;Montserrat ExtraBold Alt1&quot;; font-variant-ligatures: none; text-align: center; text-anchor: middle; fill: rgb(240, 145, 130);" d="m 402.99706,69.6 h -14.04 l -22.248,50.4 h 14.544 l 3.96,-9.792 4.176,-10.512 6.48,-16.128 6.48,16.128 4.176,10.512 3.96,9.792 h 14.832 z" transform="translate(0 329.6689230769231) translate(393.67562307692305 34.94646153846155) scale(0.7692307692307693) translate(-366.70906 -69.6)"></path> 
   <path id="path121810" style="font-style: normal; font-weight: 800; font-size: 72px; line-height: 1; font-family: &quot;Montserrat ExtraBold Alt1&quot;; font-variant-ligatures: none; text-align: center; text-anchor: middle; fill: rgb(240, 145, 130);" d="m 477.81631,81.48 c -2.376,-3.744 -5.688,-6.696 -9.936,-8.784 -4.32,-2.016 -9.216,-3.096 -14.688,-3.096 h -23.832 v 11.376 h 23.256 c 4.32,0 7.776,1.224 10.368,3.672 2.592,2.52 3.96,5.904 3.96,10.152 0,4.32 -1.368,7.704 -3.96,10.152 -2.592,2.448 -6.048,3.672 -10.368,3.672 h -9 V 95.232 h -14.256 V 120 h 23.832 c 5.472,0 10.368,-1.008 14.688,-3.096 4.248,-2.016 7.56,-4.968 9.936,-8.784 2.304,-3.744 3.528,-8.208 3.528,-13.32 0,-5.04 -1.224,-9.504 -3.528,-13.32 z" transform="translate(0 329.6689230769231) translate(445.7150461538461 34.94646153846155) scale(0.7692307692307693) translate(-429.36031 -69.6)"></path> 
   <path id="path121812" style="font-style: normal; font-weight: 800; font-size: 72px; line-height: 1; font-family: &quot;Montserrat ExtraBold Alt1&quot;; font-variant-ligatures: none; text-align: center; text-anchor: middle; fill: rgb(240, 145, 130);" d="m 547.30869,88.824 -13.032,23.328 0.072,7.848 h 13.104 z M 488.84469,120 h 13.176 v -6.984 l -13.176,-23.544 z m 46.728,-50.4 -17.28,29.088 -17.712,-29.088 h -11.736 l 13.176,24.408 12.888,21.024 h 6.336 l 12.96,-21.744 12.744,-23.688 z" transform="translate(0 329.6689230769231) translate(495.3184153846154 34.94646153846155) scale(0.7692307692307693) translate(-488.84469 -69.6)"></path> 
   <path id="path121814" style="font-style: normal; font-weight: 800; font-size: 72px; line-height: 1; font-family: &quot;Montserrat ExtraBold Alt1&quot;; font-variant-ligatures: none; text-align: center; text-anchor: middle; fill: rgb(240, 145, 130);" d="M 557.46969,69.6 V 120 h 14.256 V 69.6 Z" transform="translate(0 329.6689230769231) translate(551.9530307692307 34.94646153846155) scale(0.7692307692307693) translate(-557.46969 -69.6)"></path> 
   <path id="path121816" style="font-style: normal; font-weight: 800; font-size: 72px; line-height: 1; font-family: &quot;Montserrat ExtraBold Alt1&quot;; font-variant-ligatures: none; text-align: center; text-anchor: middle; fill: rgb(240, 145, 130);" d="m 617.50644,104.16 c 3.096,-1.512 5.544,-3.6 7.272,-6.336 1.728,-2.736 2.592,-5.904 2.592,-9.576 0,-3.744 -0.936,-7.056 -2.736,-9.864 -1.872,-2.808 -4.464,-4.968 -7.776,-6.48 -3.384,-1.512 -7.344,-2.304 -11.88,-2.304 h -23.04 v 11.232 h 22.176 c 2.88,0 5.112,0.648 6.624,1.944 1.44,1.296 2.232,3.168 2.232,5.472 0,2.376 -0.792,4.176 -2.232,5.472 -1.512,1.296 -3.744,1.872 -6.624,1.872 h -22.176 V 120 h 14.256 v -13.392 h 7.776 l 9.144,13.392 h 15.264 z" transform="translate(0 329.6689230769231) translate(574.6212999999999 34.94646153846155) scale(0.7692307692307693) translate(-581.93844 -69.6)"></path> 
   <path id="path121818" style="font-style: normal; font-weight: 800; font-size: 72px; line-height: 1; font-family: &quot;Montserrat ExtraBold Alt1&quot;; font-variant-ligatures: none; text-align: center; text-anchor: middle; fill: rgb(240, 145, 130);" d="m 665.40331,69.6 h -14.04 l -22.248,50.4 h 14.544 l 3.96,-9.792 4.176,-10.512 6.48,-16.128 6.48,16.128 4.176,10.512 3.96,9.792 h 14.832 z" transform="translate(0 329.6689230769231) translate(614.7573538461538 34.94646153846155) scale(0.7692307692307693) translate(-629.11531 -69.6)"></path> 
   <path id="path121820" style="font-style: normal; font-weight: 800; font-size: 72px; line-height: 1; font-family: &quot;Montserrat ExtraBold Alt1&quot;; font-variant-ligatures: none; text-align: center; text-anchor: middle; fill: rgb(240, 145, 130);" d="M 691.76656,69.6 V 120 h 38.304 v -11.304 h -24.048 V 69.6 Z" transform="translate(0 329.6689230769231) translate(666.7967769230769 34.94646153846155) scale(0.7692307692307693) translate(-691.76656 -69.6)"></path> 
   <path id="path121822" style="font-style: normal; font-weight: 800; font-size: 72px; line-height: 1; font-family: &quot;Montserrat ExtraBold Alt1&quot;; font-variant-ligatures: none; text-align: center; text-anchor: middle; fill: rgb(242, 191, 184);" d="m 745.81381,117.624 c 4.248,2.304 9.072,3.384 14.4,3.384 5.328,0 10.08,-1.08 14.328,-3.384 4.248,-2.232 7.56,-5.328 10.008,-9.36 2.448,-3.96 3.672,-8.424 3.672,-13.464 0,-4.968 -1.224,-9.432 -3.672,-13.464 -2.448,-3.96 -5.76,-7.056 -10.008,-9.36 -4.248,-2.232 -9,-3.384 -14.328,-3.384 -5.328,0 -10.152,1.152 -14.4,3.384 -4.248,2.304 -7.56,5.4 -10.008,9.36 -2.448,4.032 -3.6,8.496 -3.6,13.464 0,5.04 1.152,9.504 3.6,13.464 2.448,4.032 5.76,7.128 10.008,9.36 z m 21.312,-10.224 c -2.088,1.224 -4.392,1.8 -6.912,1.8 -2.592,0 -4.896,-0.576 -6.912,-1.8 -2.088,-1.152 -3.744,-2.88 -4.896,-5.04 -1.224,-2.16 -1.8,-4.68 -1.8,-7.56 0,-2.808 0.576,-5.328 1.8,-7.488 1.152,-2.16 2.808,-3.888 4.896,-5.112 2.016,-1.152 4.32,-1.8 6.912,-1.8 2.52,0 4.824,0.648 6.912,1.8 2.016,1.224 3.672,2.952 4.896,5.112 1.152,2.16 1.8,4.68 1.8,7.488 0,2.88 -0.648,5.4 -1.8,7.56 -1.224,2.16 -2.88,3.888 -4.896,5.04 z" transform="translate(0 329.6689230769231) translate(701.7500461538461 34.171076923076924) scale(0.7692307692307693) translate(-732.20581 -68.592)"></path> 
   <path id="path121824" style="font-style: normal; font-weight: 800; font-size: 72px; line-height: 1; font-family: &quot;Montserrat ExtraBold Alt1&quot;; font-variant-ligatures: none; text-align: center; text-anchor: middle; fill: rgb(242, 191, 184);" d="m 834.06444,69.6 h -41.76 v 19.08 h 12.168 v -7.776 h 13.248 L 800.72844,120 h 15.552 l 17.784,-41.472 z" transform="translate(0 329.6689230769231) translate(751.8259153846153 34.94646153846155) scale(0.7692307692307693) translate(-792.30444 -69.6)"></path> 
  </g> 
  <g id="tagline" style="font-style:normal;font-weight:500;font-size:32px;line-height:1;font-family:Montserrat;font-variant-ligatures:none;text-align:center;text-anchor:middle"></g> 
 </g> 
</svg>