<svg xmlns:dc="http://purl.org/dc/elements/1.1/" xmlns:cc="http://creativecommons.org/ns#" xmlns:rdf="http://www.w3.org/1999/02/22-rdf-syntax-ns#" xmlns:svg="http://www.w3.org/2000/svg" xmlns="http://www.w3.org/2000/svg" id="svg413496" viewbox="0 0 1024 768" height="768px" width="1024px" version="1.1"> <metadata id="metadata413502"> 
  <rdf:rdf> 
   <cc:work rdf:about=""> 
    <dc:format>
     image/svg+xml
    </dc:format> 
    <dc:type rdf:resource="http://purl.org/dc/dcmitype/StillImage"></dc:type> 
   </cc:work> 
  </rdf:rdf> 
 </metadata> <defs id="defs413500"></defs> <g id="logo-group"> 
  <g id="title" style="font-style:normal;font-weight:300;font-size:72px;line-height:1;font-family:'Montserrat Light Alt1';font-variant-ligatures:none;text-align:center;text-anchor:middle" aria-label="WEBPAGEO7"> 
   <path id="path413504" style="font-style: normal; font-weight: 300; font-size: 72px; line-height: 1; font-family: &quot;Montserrat Light Alt1&quot;; font-variant-ligatures: none; text-align: center; text-anchor: middle; fill: rgb(32, 181, 189);" d="m 346.01975,69.6 h -3.6 l -15.48,45.432 -15.696,-45.432 h -3.528 l -15.768,45.36 -15.336,-45.36 h -3.888 l 17.136,50.4 h 3.888 l 15.696,-45.216 15.624,45.216 h 3.888 z" transform="translate(0 297.9066666666667) translate(246.30062777777772 58.093333333333334) scale(1.1111111111111112) translate(-272.72375 -69.6)"></path> 
   <path id="path413506" style="font-style: normal; font-weight: 300; font-size: 72px; line-height: 1; font-family: &quot;Montserrat Light Alt1&quot;; font-variant-ligatures: none; text-align: center; text-anchor: middle; fill: rgb(32, 181, 189);" d="m 389.15,92.784 h -32.616 v 3.24 h 32.616 z m 0,-23.184 h -32.616 v 3.312 h 32.616 z m -32.616,47.088 V 120 h 32.616 v -3.312 z" transform="translate(0 297.9066666666667) translate(339.4231277777777 58.093333333333334) scale(1.1111111111111112) translate(-356.534 -69.6)"></path> 
   <path id="path413508" style="font-style: normal; font-weight: 300; font-size: 72px; line-height: 1; font-family: &quot;Montserrat Light Alt1&quot;; font-variant-ligatures: none; text-align: center; text-anchor: middle; fill: rgb(32, 181, 189);" d="m 442.92838,98.256 c -1.87201,-2.16 -4.608,-3.528 -8.20801,-4.248 2.52001,-0.792 4.608,-2.232 6.12,-4.248 1.512,-1.944 2.30401,-4.32 2.30401,-7.272 0,-4.104 -1.584,-7.272 -4.608,-9.504 -3.024,-2.232 -7.27201,-3.384 -12.74401,-3.384 h -21.024 v 3.168 h 20.88 c 4.392,0 7.776,0.864 10.15201,2.592 2.37599,1.728 3.59999,4.176 3.59999,7.416 0,3.312 -1.224,5.832 -3.59999,7.56 -2.37601,1.728 -5.76001,2.52 -10.15201,2.52 h -20.88 v 3.168 h 22.464 c 4.824,0 8.56801,0.864 11.08801,2.52 2.51999,1.728 3.81599,4.32 3.81599,7.848 0,3.6 -1.296,6.192 -3.81599,7.92 -2.52,1.728 -6.19201,2.52 -11.08801,2.52 h -22.464 V 120 h 22.464 c 6.12,0 10.728,-1.152 13.896,-3.456 3.096,-2.304 4.68,-5.544 4.68,-9.864 0,-3.384 -1.00799,-6.192 -2.87999,-8.424 z" transform="translate(0 297.9066666666667) translate(393.0168722222222 58.093333333333334) scale(1.1111111111111112) translate(-404.76837 -69.6)"></path> 
   <path id="path413510" style="font-style: normal; font-weight: 300; font-size: 72px; line-height: 1; font-family: &quot;Montserrat Light Alt1&quot;; font-variant-ligatures: none; text-align: center; text-anchor: middle; fill: rgb(104, 199, 198);" d="m 491.885,74.136 c -3.6,-3.024 -8.568,-4.536 -14.904,-4.536 h -18.072 v 3.312 h 18.072 c 5.328,0 9.432,1.224 12.312,3.6 2.808,2.376 4.248,5.76 4.248,10.08 0,4.392 -1.44,7.776 -4.248,10.08 -2.88,2.376 -6.984,3.528 -12.312,3.528 H 458.909 V 120 h 3.672 v -16.488 h 14.4 c 6.336,0 11.304,-1.44 14.904,-4.464 3.6,-3.024 5.4,-7.128 5.4,-12.456 0,-5.256 -1.8,-9.432 -5.4,-12.456 z" transform="translate(0 297.9066666666667) translate(453.1731277777778 58.093333333333334) scale(1.1111111111111112) translate(-458.909 -69.6)"></path> 
   <path id="path413512" style="font-style: normal; font-weight: 300; font-size: 72px; line-height: 1; font-family: &quot;Montserrat Light Alt1&quot;; font-variant-ligatures: none; text-align: center; text-anchor: middle; fill: rgb(104, 199, 198);" d="m 525.57537,69.6 h -3.672 L 498.71938,120 h 3.95999 l 21.02401,-46.368 21.096,46.368 h 3.95999 z" transform="translate(0 297.9066666666667) translate(497.4068833333334 58.093333333333334) scale(1.1111111111111112) translate(-498.71938 -69.6)"></path> 
   <path id="path413514" style="font-style: normal; font-weight: 300; font-size: 72px; line-height: 1; font-family: &quot;Montserrat Light Alt1&quot;; font-variant-ligatures: none; text-align: center; text-anchor: middle; fill: rgb(104, 199, 198);" d="m 593.20587,95.016 v 17.352 c -3.816,3.096 -8.568,4.608 -14.32799,4.608 -4.32001,0 -8.208,-0.936 -11.664,-2.88 -3.456,-1.944 -6.192,-4.608 -8.20801,-7.992 -2.016,-3.384 -2.952,-7.128 -2.952,-11.304 0,-4.176 0.936,-7.92 2.952,-11.304 1.94401,-3.384 4.68,-6.048 8.13601,-7.992 3.456,-1.872 7.41599,-2.88 11.736,-2.88 3.168,0 6.048,0.504 8.63999,1.44 2.592,0.936 4.968,2.448 7.12801,4.536 l 2.304,-2.448 c -2.232,-2.232 -4.89601,-3.96 -7.992,-5.112 -3.096,-1.152 -6.48,-1.8 -10.152,-1.8 -5.04,0 -9.57601,1.152 -13.60801,3.312 -4.03199,2.232 -7.12799,5.256 -9.43199,9.144 -2.30401,3.888 -3.384,8.28 -3.384,13.104 0,4.896 1.07999,9.216 3.384,13.104 2.304,3.888 5.4,6.984 9.43199,9.144 4.032,2.232 8.49601,3.312 13.536,3.312 3.45601,0 6.76801,-0.504 9.93601,-1.656 3.16799,-1.08 5.832,-2.664 8.06399,-4.824 V 95.016 Z" transform="translate(0 297.9066666666667) translate(557.0318833333333 57.69333333333334) scale(1.1111111111111112) translate(-552.38188 -69.24)"></path> 
   <path id="path413516" style="font-style: normal; font-weight: 300; font-size: 72px; line-height: 1; font-family: &quot;Montserrat Light Alt1&quot;; font-variant-ligatures: none; text-align: center; text-anchor: middle; fill: rgb(104, 199, 198);" d="m 645.50937,92.784 h -32.616 v 3.24 h 32.616 z m 0,-23.184 h -32.616 v 3.312 h 32.616 z m -32.616,47.088 V 120 h 32.616 v -3.312 z" transform="translate(0 297.9066666666667) translate(624.2668722222222 58.093333333333334) scale(1.1111111111111112) translate(-612.89337 -69.6)"></path> 
   <path id="path413518" style="font-style: normal; font-weight: 300; font-size: 72px; line-height: 1; font-family: &quot;Montserrat Light Alt1&quot;; font-variant-ligatures: none; text-align: center; text-anchor: middle; fill: rgb(166, 214, 206);" d="m 668.8385,117.048 c 3.96,2.232 8.424,3.312 13.392,3.312 4.896,0 9.36,-1.08 13.392,-3.312 3.96,-2.16 7.056,-5.256 9.36,-9.144 2.304,-3.888 3.456,-8.208 3.456,-13.104 0,-4.824 -1.152,-9.216 -3.456,-13.104 -2.304,-3.888 -5.4,-6.912 -9.36,-9.144 -4.032,-2.16 -8.496,-3.312 -13.392,-3.312 -4.968,0 -9.432,1.152 -13.392,3.384 -4.032,2.232 -7.128,5.256 -9.432,9.144 -2.304,3.888 -3.384,8.28 -3.384,13.032 0,4.824 1.08,9.144 3.384,13.032 2.304,3.888 5.4,6.984 9.432,9.216 z m 24.84,-2.952 c -3.456,1.944 -7.272,2.88 -11.448,2.88 -4.248,0 -8.064,-0.936 -11.52,-2.88 -3.456,-1.872 -6.12,-4.536 -8.064,-7.92 -2.016,-3.384 -2.952,-7.2 -2.952,-11.376 0,-4.176 0.936,-7.92 2.952,-11.304 1.944,-3.384 4.608,-6.048 8.064,-7.992 3.456,-1.872 7.272,-2.88 11.52,-2.88 4.176,0 7.992,1.008 11.448,2.88 3.384,1.944 6.048,4.608 8.064,7.992 1.944,3.384 2.952,7.128 2.952,11.304 0,4.176 -1.008,7.992 -2.952,11.376 -2.016,3.384 -4.68,6.048 -8.064,7.92 z" transform="translate(0 297.9066666666667) translate(672.1881277777778 57.69333333333334) scale(1.1111111111111112) translate(-656.0225 -69.24)"></path> 
   <path id="path413520" style="font-style: normal; font-weight: 300; font-size: 72px; line-height: 1; font-family: &quot;Montserrat Light Alt1&quot;; font-variant-ligatures: none; text-align: center; text-anchor: middle; fill: rgb(166, 214, 206);" d="m 750.98262,69.6 h -36.144 v 12.96 h 3.6 v -9.648 h 28.29601 L 725.27863,120 h 4.03199 l 21.672,-47.808 z" transform="translate(0 297.9066666666667) translate(737.5393722222223 58.093333333333334) scale(1.1111111111111112) translate(-714.83862 -69.6)"></path> 
  </g> 
  <g id="tagline" style="font-style:normal;font-weight:400;font-size:32px;line-height:1;font-family:Montserrat;font-variant-ligatures:none;text-align:center;text-anchor:middle"></g> 
 </g> 
</svg>