<svg xmlns:dc="http://purl.org/dc/elements/1.1/" xmlns:cc="http://creativecommons.org/ns#" xmlns:rdf="http://www.w3.org/1999/02/22-rdf-syntax-ns#" xmlns:svg="http://www.w3.org/2000/svg" xmlns="http://www.w3.org/2000/svg" id="svg5751" viewbox="0 0 1024 768" height="768px" width="1024px" version="1.1"> <metadata id="metadata5757"> 
  <rdf:rdf> 
   <cc:work rdf:about=""> 
    <dc:format>
     image/svg+xml
    </dc:format> 
    <dc:type rdf:resource="http://purl.org/dc/dcmitype/StillImage"></dc:type> 
   </cc:work> 
  </rdf:rdf> 
 </metadata> <defs id="defs5755"></defs> <g id="logo-group"> 
  <g id="title" style="font-style:normal;font-weight:200;font-size:72px;line-height:1;font-family:Phenomena;font-variant-ligatures:none;text-align:center;text-anchor:middle" aria-label="WESTO7"> 
   <path id="path5759" style="font-style: normal; font-weight: 200; font-size: 72px; line-height: 1; font-family: Phenomena; font-variant-ligatures: none; text-align: center; text-anchor: middle; fill: rgb(252, 254, 252);" d="m 462.96181,69.6 h -0.72 c -0.216,0 -0.36,0.144 -0.36,0.36 v 38.664 c 0,6.048 -3.168,10.512 -8.712,10.512 -4.968,0 -8.568,-4.68 -8.568,-10.512 V 69.96 c 0,-0.216 -0.144,-0.36 -0.36,-0.36 h -0.72 c -0.216,0 -0.36,0.144 -0.36,0.36 v 38.664 c 0,5.832 -3.528,10.512 -8.568,10.512 -5.472,0 -8.712,-4.464 -8.712,-10.512 V 69.96 c 0,-0.216 -0.144,-0.36 -0.36,-0.36 h -0.72 c -0.216,0 -0.36,0.144 -0.36,0.36 v 38.664 c 0,6.696 3.816,11.88 10.152,11.88 4.32,0 7.848,-3.096 9.288,-7.344 1.44,4.248 4.896,7.344 9.288,7.344 6.264,0 10.152,-5.184 10.152,-11.88 V 69.96 c 0,-0.216 -0.144,-0.36 -0.36,-0.36 z" transform="translate(0 159.5063495360279) translate(252 159.74197122671364) scale(2.5695110808435873) translate(-424.44181 -69.6)"></path> 
   <path id="path5761" style="font-style: normal; font-weight: 200; font-size: 72px; line-height: 1; font-family: Phenomena; font-variant-ligatures: none; text-align: center; text-anchor: middle; fill: rgb(252, 254, 252);" d="m 484.10056,120.144 h 6.48 c 0.216,0 0.36,-0.144 0.36,-0.36 v -0.648 c 0,-0.216 -0.144,-0.36 -0.36,-0.36 h -6.48 c -6.048,0 -9.72,-4.32 -9.72,-10.512 V 95.016 h 14.76 c 0.216,0 0.36,-0.144 0.36,-0.36 v -0.648 c 0,-0.216 -0.144,-0.36 -0.36,-0.36 h -14.76 V 81.336 c 0,-6.192 3.672,-10.512 9.72,-10.512 h 6.48 c 0.216,0 0.36,-0.144 0.36,-0.36 v -0.648 c 0,-0.216 -0.144,-0.36 -0.36,-0.36 h -6.48 c -6.912,0 -11.16,5.04 -11.16,11.88 v 26.928 c 0,6.84 4.248,11.88 11.16,11.88 z" transform="translate(0 159.5063495360279) translate(389.46563093628095 159.3719616310722) scale(2.5695110808435873) translate(-472.94056 -69.456)"></path> 
   <path id="path5763" style="font-style: normal; font-weight: 200; font-size: 72px; line-height: 1; font-family: Phenomena; font-variant-ligatures: none; text-align: center; text-anchor: middle; fill: rgb(252, 254, 252);" d="m 509.11156,120.504 c 6.84,0 11.16,-4.968 11.16,-11.232 0,-14.76 -20.592,-16.056 -20.592,-28.944 0,-6.12 4.032,-9.864 9.432,-9.864 5.328,0 9.216,3.744 9.36,10.152 0,0.216 0.144,0.36 0.36,0.36 h 0.72 c 0.216,0 0.36,-0.144 0.36,-0.36 0,-7.056 -4.752,-11.52 -10.8,-11.52 -6.264,0 -10.872,4.464 -10.872,11.232 0,13.968 20.592,14.904 20.592,28.944 0,5.544 -3.6,9.864 -9.72,9.864 -5.976,0 -9.648,-4.32 -9.792,-10.152 0,-0.216 -0.144,-0.36 -0.36,-0.36 h -0.72 c -0.216,0 -0.36,0.144 -0.36,0.36 0,6.624 4.392,11.52 11.232,11.52 z" transform="translate(0 159.5063495360279) translate(466.39422318565715 158.4469376419685) scale(2.5695110808435873) translate(-497.87956 -69.096)"></path> 
   <path id="path5765" style="font-style: normal; font-weight: 200; font-size: 72px; line-height: 1; font-family: Phenomena; font-variant-ligatures: none; text-align: center; text-anchor: middle; fill: rgb(252, 254, 252);" d="m 547.14219,69.6 h -20.88 c -0.216,0 -0.36,0.144 -0.36,0.36 v 0.648 c 0,0.216 0.144,0.36 0.36,0.36 h 9.72 v 48.672 c 0,0.216 0.144,0.36 0.36,0.36 h 0.72 c 0.216,0 0.36,-0.144 0.36,-0.36 V 70.968 h 9.72 c 0.216,0 0.36,-0.144 0.36,-0.36 V 69.96 c 0,-0.216 -0.144,-0.36 -0.36,-0.36 z" transform="translate(0 159.5063495360279) translate(551.246236889255 159.74197122671364) scale(2.5695110808435873) translate(-525.90219 -69.6)"></path> 
   <path id="path5767" style="font-style: normal; font-weight: 200; font-size: 72px; line-height: 1; font-family: Phenomena; font-variant-ligatures: none; text-align: center; text-anchor: middle; fill: rgb(140, 142, 140);" d="m 563.70444,120.504 c 7.056,0 11.592,-4.896 11.592,-13.248 v -24.84 c 0,-8.424 -4.536,-13.32 -11.592,-13.32 -7.056,0 -11.592,4.896 -11.592,13.32 v 24.84 c 0,8.352 4.536,13.248 11.592,13.248 z m 0,-1.368 c -6.192,0 -10.152,-4.32 -10.152,-11.88 v -24.84 c 0,-7.632 3.96,-11.952 10.152,-11.952 6.192,0 10.152,4.32 10.152,11.952 v 24.84 c 0,7.56 -3.96,11.88 -10.152,11.88 z" transform="translate(0 159.5063495360279) translate(631.4413201001533 158.4469376419685) scale(2.5695110808435873) translate(-552.11244 -69.096)"></path> 
   <path id="path5769" style="font-style: normal; font-weight: 200; font-size: 72px; line-height: 1; font-family: Phenomena; font-variant-ligatures: none; text-align: center; text-anchor: middle; fill: rgb(140, 142, 140);" d="m 581.87094,69.96 v 0.648 c 0,0.216 0.144,0.36 0.36,0.36 h 18 l -12.168,48.6 c -0.072,0.288 0.144,0.432 0.36,0.432 h 0.72 c 0.216,0 0.288,-0.072 0.36,-0.288 l 12.24,-48.816 c 0.072,-0.36 0.072,-0.576 0.072,-0.864 0,-0.288 -0.216,-0.432 -0.432,-0.432 h -19.152 c -0.216,0 -0.36,0.144 -0.36,0.36 z" transform="translate(0 159.5063495360279) translate(720.7536710036553 159.74197122671364) scale(2.5695110808435873) translate(-581.87094 -69.6)"></path> 
  </g> 
  <g id="tagline" style="font-style:oblique;font-weight:300;font-size:32px;line-height:1;font-family:'Fira Sans Condensed';font-variant-ligatures:none;text-align:center;text-anchor:middle"></g> 
 </g> 
</svg>