<svg xmlns:dc="http://purl.org/dc/elements/1.1/" xmlns:cc="http://creativecommons.org/ns#" xmlns:rdf="http://www.w3.org/1999/02/22-rdf-syntax-ns#" xmlns:svg="http://www.w3.org/2000/svg" xmlns="http://www.w3.org/2000/svg" id="svg5544" viewbox="0 0 1024 768" height="768px" width="1024px" version="1.1"> <metadata id="metadata5550"> 
  <rdf:rdf> 
   <cc:work rdf:about=""> 
    <dc:format>
     image/svg+xml
    </dc:format> 
    <dc:type rdf:resource="http://purl.org/dc/dcmitype/StillImage"></dc:type> 
   </cc:work> 
  </rdf:rdf> 
 </metadata> <defs id="defs5548"></defs> <g id="logo-group"> 
  <g id="title" style="font-style:oblique;font-weight:700;font-size:72px;line-height:1;font-family:Averta;font-variant-ligatures:none;text-align:center;text-anchor:middle" aria-label="Westcoasto7"> 
   <path id="path5552" style="font-style: oblique; font-weight: 700; font-size: 72px; line-height: 1; font-family: Averta; font-variant-ligatures: none; text-align: center; text-anchor: middle; fill: rgb(20, 16, 13);" d="m 325.5155,68.88 8.064,51.12 h 10.224 l 11.736,-33.048 h 0.144 l 3.456,33.048 h 10.512 l 20.664,-51.12 h -12.312 l -11.088,31.32 h -0.216 l -2.808,-31.32 h -11.664 l -10.8,32.184 h -0.216 l -3.744,-32.184 z" transform="translate(0 272.8766649498066) translate(252.00000000000017 75.36338762163552) scale(1.36822572040702) translate(-325.5155 -68.88)"></path> 
   <path id="path5554" style="font-style: oblique; font-weight: 700; font-size: 72px; line-height: 1; font-family: Averta; font-variant-ligatures: none; text-align: center; text-anchor: middle; fill: rgb(20, 16, 13);" d="m 415.53913,93.864 c 0.072,-6.624 -6.33601,-9.72 -12.02401,-9.72 -11.87999,0 -19.29599,9.792 -19.29599,21.744 -0.072,9.144 5.832,14.76 14.68799,14.76 6.912,0 11.592,-2.592 15.33601,-7.704 l -8.06401,-4.752 c -1.944,2.592 -4.03199,3.528 -6.408,3.528 -2.08799,0 -4.392,-1.296 -5.03999,-4.464 10.368,-1.08 20.66399,-4.464 20.808,-13.392 z m -10.368,1.512 c -0.072,3.456 -4.82401,4.824 -10.08001,5.4 1.22401,-4.896 4.392,-7.632 7.488,-7.632 1.656,0 2.66401,0.792 2.59201,2.232 z" transform="translate(0 272.8766649498066) translate(332.31892710053904 96.24798501792833) scale(1.36822572040702) translate(-384.21848 -84.144)"></path> 
   <path id="path5556" style="font-style: oblique; font-weight: 700; font-size: 72px; line-height: 1; font-family: Averta; font-variant-ligatures: none; text-align: center; text-anchor: middle; fill: rgb(20, 16, 13);" d="m 430.05162,120.648 c 8.568,0 13.96801,-4.536 13.96801,-11.448 0,-5.544 -3.74401,-8.064 -9.21601,-10.8 -3.24,-1.584 -4.968,-2.736 -4.968,-3.888 0,-1.368 1.368,-2.16 2.808,-2.16 1.656,0.072 4.10401,0.936 6.048,3.6 l 6.552,-6.192 c -3.168,-3.816 -7.92,-5.616 -12.672,-5.616 -7.272,0 -13.032,4.68 -13.032,11.736 0,5.184 3.24,8.064 8.568,10.728 4.03201,2.088 5.47201,2.664 5.47201,3.96 0,1.224 -1.368,1.944 -3.24001,1.944 -2.73599,0 -5.90399,-1.656 -7.992,-4.176 l -6.048,6.264 c 3.096,3.888 8.712,6.048 13.752,6.048 z" transform="translate(0 272.8766649498066) translate(376.2131679885175 96.24798501792833) scale(1.36822572040702) translate(-416.29962 -84.144)"></path> 
   <path id="path5558" style="font-style: oblique; font-weight: 700; font-size: 72px; line-height: 1; font-family: Averta; font-variant-ligatures: none; text-align: center; text-anchor: middle; fill: rgb(20, 16, 13);" d="m 458.99,120.648 c 3.24,0 6.408,-0.792 9.432,-2.448 l -1.728,-8.424 c -1.368,0.72 -2.592,1.152 -3.528,1.152 -1.152,0 -1.872,-0.936 -1.584,-2.952 l 1.728,-14.472 h 7.272 l 1.08,-8.712 h -7.272 l 1.512,-12.456 -11.016,2.16 -1.368,10.296 h -3.456 l -1.08,8.712 h 3.456 l -1.872,15.912 c -1.008,8.136 2.952,11.232 8.424,11.232 z" transform="translate(0 272.8766649498066) translate(420.9300409086335 80.09197571136221) scale(1.36822572040702) translate(-448.982 -72.336)"></path> 
   <path id="path5560" style="font-style: oblique; font-weight: 700; font-size: 72px; line-height: 1; font-family: Averta; font-variant-ligatures: none; text-align: center; text-anchor: middle; fill: rgb(20, 16, 13);" d="m 486.45125,120.648 c 6.768,0 11.592,-2.664 15.264,-7.704 l -8.352,-5.328 c -2.088,2.52 -4.104,3.384 -6.12,3.384 -2.952,0 -4.824,-2.304 -4.824,-6.12 0,-5.904 3.312,-11.16 8.136,-11.16 2.016,0 3.816,0.864 4.968,3.096 l 8.28,-6.192 c -2.88,-4.176 -7.272,-6.48 -13.536,-6.48 -12.168,0 -18.72,10.368 -18.72,21.168 0,10.008 5.76,15.336 14.904,15.336 z" transform="translate(0 272.8766649498066) translate(451.804396346048 96.24798501792833) scale(1.36822572040702) translate(-471.54725 -84.144)"></path> 
   <path id="path5562" style="font-style: oblique; font-weight: 700; font-size: 72px; line-height: 1; font-family: Averta; font-variant-ligatures: none; text-align: center; text-anchor: middle; fill: rgb(20, 16, 13);" d="m 521.045,120.648 c 13.464,0 19.584,-10.008 19.584,-21.456 0,-9.576 -5.976,-15.048 -15.048,-15.048 -12.384,0 -19.44,10.08 -19.44,21.384 0,9.648 5.976,15.12 14.904,15.12 z M 521.837,111 c -2.304,0 -4.752,-1.872 -4.752,-6.048 0,-5.4 2.88,-11.16 7.632,-11.16 1.944,0 4.968,1.08 4.968,6.12 0,5.76 -3.096,11.088 -7.848,11.088 z" transform="translate(0 272.8766649498066) translate(499.13645486137835 96.24798501792833) scale(1.36822572040702) translate(-506.141 -84.144)"></path> 
   <path id="path5564" style="font-style: oblique; font-weight: 700; font-size: 72px; line-height: 1; font-family: Averta; font-variant-ligatures: none; text-align: center; text-anchor: middle; fill: rgb(20, 16, 13);" d="m 556.04825,120.648 c 3.96,0 7.488,-2.16 10.08,-5.904 l 0.216,0.072 -0.648,5.184 h 10.872 l 4.32,-35.208 h -10.872 l -0.288,2.448 h -0.216 c -1.872,-1.944 -4.608,-3.096 -8.28,-3.096 -9.216,0 -16.632,9.576 -16.632,22.104 0,8.136 3.888,14.4 11.448,14.4 z m 3.456,-9.576 c -2.448,0 -4.032,-2.232 -4.032,-5.616 0,-5.256 2.88,-11.664 7.632,-11.664 2.232,0 4.248,0.864 5.832,2.52 l -0.144,1.008 c -1.224,8.856 -5.544,13.752 -9.288,13.752 z" transform="translate(0 272.8766649498066) translate(551.7573898989419 96.24798501792833) scale(1.36822572040702) translate(-544.60025 -84.144)"></path> 
   <path id="path5566" style="font-style: oblique; font-weight: 700; font-size: 72px; line-height: 1; font-family: Averta; font-variant-ligatures: none; text-align: center; text-anchor: middle; fill: rgb(20, 16, 13);" d="m 595.98912,120.648 c 8.56801,0 13.96801,-4.536 13.96801,-11.448 0,-5.544 -3.74401,-8.064 -9.21601,-10.8 -3.24,-1.584 -4.96799,-2.736 -4.96799,-3.888 0,-1.368 1.36799,-2.16 2.808,-2.16 1.65599,0.072 4.10399,0.936 6.048,3.6 l 6.55199,-6.192 c -3.168,-3.816 -7.92,-5.616 -12.67199,-5.616 -7.27201,0 -13.03201,4.68 -13.03201,11.736 0,5.184 3.24,8.064 8.568,10.728 4.03201,2.088 5.472,2.664 5.472,3.96 0,1.224 -1.36799,1.944 -3.24,1.944 -2.736,0 -5.904,-1.656 -7.992,-4.176 l -6.048,6.264 c 3.096,3.888 8.712,6.048 13.752,6.048 z" transform="translate(0 272.8766649498066) translate(603.2531234685574 96.24798501792833) scale(1.36822572040702) translate(-582.23712 -84.144)"></path> 
   <path id="path5568" style="font-style: oblique; font-weight: 700; font-size: 72px; line-height: 1; font-family: Averta; font-variant-ligatures: none; text-align: center; text-anchor: middle; fill: rgb(20, 16, 13);" d="m 624.9275,120.648 c 3.24,0 6.408,-0.792 9.432,-2.448 l -1.728,-8.424 c -1.368,0.72 -2.592,1.152 -3.528,1.152 -1.152,0 -1.872,-0.936 -1.584,-2.952 l 1.728,-14.472 h 7.272 l 1.08,-8.712 h -7.272 l 1.512,-12.456 -11.016,2.16 -1.368,10.296 h -3.456 l -1.08,8.712 h 3.456 l -1.872,15.912 c -1.008,8.136 2.952,11.232 8.424,11.232 z" transform="translate(0 272.8766649498066) translate(647.9699963886734 80.09197571136221) scale(1.36822572040702) translate(-614.9195 -72.336)"></path> 
   <path id="path5570" style="font-style: oblique; font-weight: 700; font-size: 72px; line-height: 1; font-family: Averta; font-variant-ligatures: none; text-align: center; text-anchor: middle; fill: rgb(20, 16, 13);" d="m 652.38875,120.648 c 13.464,0 19.584,-10.008 19.584,-21.456 0,-9.576 -5.976,-15.048 -15.048,-15.048 -12.384,0 -19.44,10.08 -19.44,21.384 0,9.648 5.976,15.12 14.904,15.12 z m 0.792,-9.648 c -2.304,0 -4.752,-1.872 -4.752,-6.048 0,-5.4 2.88,-11.16 7.632,-11.16 1.944,0 4.968,1.08 4.968,6.12 0,5.76 -3.096,11.088 -7.848,11.088 z" transform="translate(0 272.8766649498066) translate(678.844351826088 96.24798501792833) scale(1.36822572040702) translate(-637.48475 -84.144)"></path> 
   <path id="path5572" style="font-style: oblique; font-weight: 700; font-size: 72px; line-height: 1; font-family: Averta; font-variant-ligatures: none; text-align: center; text-anchor: middle; fill: rgb(20, 16, 13);" d="m 705.56975,70.536 h -27.864 l -1.224,10.08 h 15.48 l -17.568,38.52 11.088,2.016 19.224,-43.344 z" transform="translate(0 272.8766649498066) translate(729.3441949405908 77.62916941462959) scale(1.36822572040702) translate(-674.39375 -70.536)"></path> 
  </g> 
  <g id="tagline" style="font-style:normal;font-weight:500;font-size:32px;line-height:1;font-family:Raleway;font-variant-ligatures:none;text-align:center;text-anchor:middle"></g> 
 </g> 
</svg>