<svg xmlns:dc="http://purl.org/dc/elements/1.1/" xmlns:cc="http://creativecommons.org/ns#" xmlns:rdf="http://www.w3.org/1999/02/22-rdf-syntax-ns#" xmlns:svg="http://www.w3.org/2000/svg" xmlns="http://www.w3.org/2000/svg" id="svg64699" viewbox="0 0 1024 768" height="768px" width="1024px" version="1.1"> <metadata id="metadata64705"> 
  <rdf:rdf> 
   <cc:work rdf:about=""> 
    <dc:format>
     image/svg+xml
    </dc:format> 
    <dc:type rdf:resource="http://purl.org/dc/dcmitype/StillImage"></dc:type> 
   </cc:work> 
  </rdf:rdf> 
 </metadata> <defs id="defs64703"></defs> <g id="logo-group"> 
  <g id="title" style="font-style:oblique;font-weight:700;font-size:72px;line-height:1;font-family:'Uni Neue';font-variant-ligatures:none;text-align:center;text-anchor:middle" aria-label="WISHEDO7"> 
   <path id="path64707" style="font-style: oblique; font-weight: 700; font-size: 72px; line-height: 1; font-family: &quot;Uni Neue&quot;; font-variant-ligatures: none; text-align: center; text-anchor: middle; fill: rgb(255, 255, 255);" d="m 357.75687,120 c 0.648,0 1.15201,-0.36 1.44,-1.008 l 7.416,-17.496 c 2.448,-5.976 4.752,-12.888 5.90401,-17.496 h 0.43199 c 0.072,4.752 0.144,14.184 0.504,20.664 l 0.936,14.184 c 0.072,0.792 0.504,1.152 1.22401,1.152 h 10.44 c 0.71999,0 1.224,-0.36 1.512,-0.936 L 409.02087,69.96 c 0.36,-0.864 -0.072,-1.44 -1.008,-1.44 h -9.648 c -0.71999,0 -1.152,0.36 -1.44,1.008 l -5.976,15.336 c -2.08799,5.472 -5.544,15.984 -7.416,22.248 h -0.432 c 0,-6.336 -0.28799,-16.056 -0.576,-20.808 l -1.22399,-15.912 c -0.072,-0.792 -0.50401,-1.152 -1.29601,-1.152 h -10.152 c -0.64799,0 -1.152,0.36 -1.44,1.008 l -6.192,15.264 c -2.232,5.616 -5.616,15.192 -7.56,21.6 h -0.35999 c 0.072,-6.048 0.072,-16.128 -0.144,-21.096 l -0.72001,-16.272 c 0,-0.792 -0.57599,-1.224 -1.296,-1.224 h -9.216 c -0.79199,0 -1.296,0.504 -1.224,1.296 l 4.32,49.032 c 0.072,0.792 0.504,1.152 1.296,1.152 z" transform="translate(0 274.44578564246285) translate(252 74.83601323762406) scale(1.3488034623120848) translate(-341.69405 -68.52)"></path> 
   <path id="path64709" style="font-style: oblique; font-weight: 700; font-size: 72px; line-height: 1; font-family: &quot;Uni Neue&quot;; font-variant-ligatures: none; text-align: center; text-anchor: middle; fill: rgb(255, 255, 255);" d="m 426.032,69.888 c 0.144,-0.792 -0.288,-1.368 -1.152,-1.368 h -8.856 c -0.792,0 -1.224,0.432 -1.368,1.152 l -8.64,48.96 c -0.072,0.792 0.36,1.368 1.152,1.368 h 8.928 c 0.72,0 1.152,-0.432 1.296,-1.152 z" transform="translate(0 274.44578564246285) translate(345.49120597132315 74.83601323762406) scale(1.3488034623120848) translate(-406.00823 -68.52)"></path> 
   <path id="path64711" style="font-style: oblique; font-weight: 700; font-size: 72px; line-height: 1; font-family: &quot;Uni Neue&quot;; font-variant-ligatures: none; text-align: center; text-anchor: middle; fill: rgb(255, 255, 255);" d="m 465.76025,106.608 c 2.376,-12.168 -8.064,-15.84 -14.616,-17.856 -4.608,-1.368 -7.632,-2.592 -7.056,-6.048 0.576,-2.88 3.024,-4.752 6.912,-4.752 4.104,0 8.352,1.44 11.592,3.528 0.648,0.432 1.224,0.36 1.728,-0.216 l 5.04,-6.48 c 0.504,-0.648 0.432,-1.296 -0.216,-1.728 -4.968,-3.672 -10.008,-5.472 -16.848,-5.472 -9.72,0 -17.712,3.888 -19.44,13.968 -1.728,10.224 5.256,14.976 12.96,17.208 5.328,1.512 9,2.952 8.424,6.552 -0.576,3.384 -4.248,5.04 -8.424,5.04 -4.464,0 -8.28,-1.656 -12.24,-4.752 -0.648,-0.504 -1.296,-0.504 -1.8,0.144 l -5.184,6.408 c -0.504,0.648 -0.432,1.296 0.144,1.8 4.896,4.32 10.296,6.984 17.856,6.984 9.36,0 18.864,-3.096 21.168,-14.328 z" transform="translate(0 274.44578564246285) translate(379.544420008247 73.57353319689994) scale(1.3488034623120848) translate(-426.25521 -67.584)"></path> 
   <path id="path64713" style="font-style: oblique; font-weight: 700; font-size: 72px; line-height: 1; font-family: &quot;Uni Neue&quot;; font-variant-ligatures: none; text-align: center; text-anchor: middle; fill: rgb(255, 255, 255);" d="m 502.38013,88.752 h -14.832 l 3.31199,-18.864 c 0.072,-0.792 -0.28799,-1.368 -1.152,-1.368 h -8.928 c -0.72,0 -1.152,0.432 -1.296,1.152 l -8.63999,48.96 c -0.144,0.792 0.28799,1.368 1.15199,1.368 h 8.856 c 0.792,0 1.224,-0.432 1.368,-1.152 l 3.45601,-19.656 h 14.90399 l -3.456,19.44 c -0.144,0.792 0.288,1.368 1.08,1.368 h 8.928 c 0.792,0 1.22401,-0.432 1.29601,-1.152 l 8.71199,-48.96 c 0.072,-0.792 -0.36,-1.368 -1.152,-1.368 h -8.928 c -0.72,0 -1.224,0.432 -1.296,1.152 z" transform="translate(0 274.44578564246285) translate(446.39331815007756 74.83601323762406) scale(1.3488034623120848) translate(-470.81684 -68.52)"></path> 
   <path id="path64715" style="font-style: oblique; font-weight: 700; font-size: 72px; line-height: 1; font-family: &quot;Uni Neue&quot;; font-variant-ligatures: none; text-align: center; text-anchor: middle; fill: rgb(255, 255, 255);" d="m 559.40863,69.888 c 0.144,-0.792 -0.288,-1.368 -1.15201,-1.368 h -29.592 c -0.72,0 -1.152,0.432 -1.296,1.152 l -8.712,48.96 c -0.072,0.792 0.288,1.368 1.152,1.368 h 30.74401 c 0.79199,0 1.22399,-0.36 1.36799,-1.152 L 553.21663,111 c 0.072,-0.792 -0.36001,-1.368 -1.15201,-1.368 h -20.376 l 1.872,-10.728 h 17.35201 c 0.71999,0 1.15199,-0.432 1.29599,-1.152 l 1.36801,-7.56 c 0.144,-0.864 -0.288,-1.368 -1.08001,-1.368 h -17.13599 l 1.79999,-10.008 h 19.58401 c 0.71999,0 1.15199,-0.432 1.29599,-1.152 z" transform="translate(0 274.44578564246285) translate(517.6517110828642 74.83601323762406) scale(1.3488034623120848) translate(-518.64766 -68.52)"></path> 
   <path id="path64717" style="font-style: oblique; font-weight: 700; font-size: 72px; line-height: 1; font-family: &quot;Uni Neue&quot;; font-variant-ligatures: none; text-align: center; text-anchor: middle; fill: rgb(255, 255, 255);" d="m 578.14775,120 c 12.096,0 20.304,-4.824 22.752,-19.008 l 2.088,-11.88 c 2.448,-14.256 -5.76,-20.592 -16.272,-20.592 h -16.92 c -0.72,0 -1.224,0.432 -1.296,1.152 l -8.64,48.96 c -0.144,0.792 0.288,1.368 1.08,1.368 z m 0.072,-41.04 h 7.2 c 5.112,0 7.2,2.52 6.12,8.712 l -2.232,12.816 c -1.152,6.408 -4.32,9.072 -9.36,9.072 h -7.128 z" transform="translate(0 274.44578564246285) translate(579.9457269085359 74.83601323762406) scale(1.3488034623120848) translate(-559.83231 -68.52)"></path> 
   <path id="path64719" style="font-style: oblique; font-weight: 700; font-size: 72px; line-height: 1; font-family: &quot;Uni Neue&quot;; font-variant-ligatures: none; text-align: center; text-anchor: middle; fill: rgb(65, 90, 99);" d="m 648.09462,101.64 2.23201,-12.744 c 2.15999,-12.96 -4.32001,-21.312 -16.63201,-21.312 -12.6,0 -21.168,7.056 -23.256,18.864 l -2.23199,12.744 c -2.23201,12.816 4.03199,21.744 16.34399,21.744 12.96,0 21.456,-6.984 23.544,-19.296 z m -28.44,-1.152 2.376,-13.032 c 1.08001,-5.904 4.46401,-9.36 10.15201,-9.36 5.47199,0 7.63199,3.96 6.624,9.72 l -2.30401,13.176 c -1.00799,5.832 -4.60799,9.432 -10.29599,9.432 -5.328,0 -7.56001,-4.032 -6.55201,-9.936 z" transform="translate(0 274.44578564246285) translate(651.336302580629 73.57353319689994) scale(1.3488034623120848) translate(-607.76113 -67.584)"></path> 
   <path id="path64721" style="font-style: oblique; font-weight: 700; font-size: 72px; line-height: 1; font-family: &quot;Uni Neue&quot;; font-variant-ligatures: none; text-align: center; text-anchor: middle; fill: rgb(65, 90, 99);" d="m 664.3295,120 c 0.72,0 1.152,-0.288 1.512,-0.864 l 24.84,-41.688 c 0.288,-0.504 0.432,-0.936 0.504,-1.44 l 1.008,-6.12 c 0.144,-0.792 -0.288,-1.368 -1.08,-1.368 h -31.896 c -0.792,0 -1.224,0.36 -1.296,1.152 l -1.368,7.776 c -0.144,0.792 0.288,1.368 1.152,1.368 h 19.872 l -23.688,39.672 c -0.504,0.864 -0.072,1.512 0.864,1.512 z" transform="translate(0 274.44578564246285) translate(720.01130526598 74.83601323762406) scale(1.3488034623120848) translate(-653.67663 -68.52)"></path> 
  </g> 
  <g id="tagline" style="font-style:oblique;font-weight:400;font-size:32px;line-height:1;font-family:Lato;font-variant-ligatures:none;text-align:center;text-anchor:middle"></g> 
 </g> 
</svg>