<svg xmlns:dc="http://purl.org/dc/elements/1.1/" xmlns:cc="http://creativecommons.org/ns#" xmlns:rdf="http://www.w3.org/1999/02/22-rdf-syntax-ns#" xmlns:svg="http://www.w3.org/2000/svg" xmlns="http://www.w3.org/2000/svg" id="svg3932" viewbox="0 0 1024 768" height="768px" width="1024px" version="1.1"> <metadata id="metadata3938"> 
  <rdf:rdf> 
   <cc:work rdf:about=""> 
    <dc:format>
     image/svg+xml
    </dc:format> 
    <dc:type rdf:resource="http://purl.org/dc/dcmitype/StillImage"></dc:type> 
   </cc:work> 
  </rdf:rdf> 
 </metadata> <defs id="defs3936"></defs> <g id="logo-group"> 
  <g id="title" style="font-style:normal;font-weight:300;font-size:72px;line-height:1;font-family:'Uni Neue';font-variant-ligatures:none;text-align:center;text-anchor:middle" aria-label="WORLDOFO7"> 
   <path id="path3940" style="font-style: normal; font-weight: 300; font-size: 72px; line-height: 1; font-family: &quot;Uni Neue&quot;; font-variant-ligatures: none; text-align: center; text-anchor: middle; fill: rgb(0, 126, 206);" d="m 324.62225,120 c 0.216,0 0.36,-0.144 0.432,-0.36 11.952,-37.08 13.464,-41.904 14.832,-46.656 h 0.072 l 14.832,46.656 c 0.072,0.216 0.216,0.36 0.504,0.36 h 1.944 c 0.216,0 0.36,-0.144 0.432,-0.36 l 14.76,-50.616 c 0.072,-0.288 -0.144,-0.504 -0.432,-0.504 h -1.584 c -0.288,0 -0.432,0.144 -0.504,0.36 -10.944,38.16 -12.312,43.2 -13.68,48.096 l -14.976,-47.088 c -0.144,-0.216 -0.216,-0.432 -0.504,-0.432 h -1.656 c -0.216,0 -0.36,0.216 -0.432,0.432 -11.952,37.008 -13.464,42.264 -14.976,47.088 h -0.072 l -13.68,-48.096 c -0.072,-0.216 -0.144,-0.36 -0.432,-0.36 h -1.656 c -0.288,0 -0.432,0.216 -0.36,0.504 l 14.688,50.616 c 0.144,0.216 0.216,0.36 0.504,0.36 z" transform="translate(0 281.8451820220974) translate(252 69.39821905204634) scale(1.2725951408646576) translate(-307.4679 -68.52)"></path> 
   <path id="path3942" style="font-style: normal; font-weight: 300; font-size: 72px; line-height: 1; font-family: &quot;Uni Neue&quot;; font-variant-ligatures: none; text-align: center; text-anchor: middle; fill: rgb(0, 126, 206);" d="M 416.18038,103.872 V 85.224 c 0,-10.368 -7.41601,-17.424 -18.72001,-17.424 -11.37599,0 -18.79199,7.056 -18.79199,17.424 v 18.648 c 0,9.72 7.488,16.848 18.79199,16.848 11.232,0 18.72001,-7.128 18.72001,-16.848 z m -35.13601,0 V 85.224 c 0,-9.072 6.33601,-15.192 16.416,-15.192 10.008,0 16.344,6.12 16.344,15.192 v 18.648 c 0,8.424 -6.408,14.544 -16.344,14.544 -10.00799,0 -16.416,-6.12 -16.416,-14.544 z" transform="translate(0 281.8451820220974) translate(342.6093848752312 68.48195055062378) scale(1.2725951408646576) translate(-378.66838 -67.8)"></path> 
   <path id="path3944" style="font-style: normal; font-weight: 300; font-size: 72px; line-height: 1; font-family: &quot;Uni Neue&quot;; font-variant-ligatures: none; text-align: center; text-anchor: middle; fill: rgb(0, 126, 206);" d="m 462.19288,120 c 0.36,0 0.43199,-0.288 0.288,-0.576 l -16.632,-21.384 c 9.93599,-0.504 15.83999,-5.904 15.83999,-14.688 0,-9.36 -6.55199,-14.832 -17.136,-14.832 h -15.768 c -0.288,0 -0.504,0.144 -0.504,0.432 v 50.616 c 0,0.288 0.216,0.432 0.504,0.432 h 1.512 c 0.216,0 0.43201,-0.144 0.43201,-0.432 V 98.112 h 12.312 l 16.63199,21.6 c 0.072,0.216 0.36,0.288 0.576,0.288 z M 444.55287,70.752 c 9.288,0 14.76001,4.536 14.76001,12.6 0,8.136 -5.47201,12.528 -14.76001,12.528 H 430.72888 V 70.752 Z" transform="translate(0 281.8451820220974) translate(405.7459985754276 69.39821905204634) scale(1.2725951408646576) translate(-428.28087 -68.52)"></path> 
   <path id="path3946" style="font-style: normal; font-weight: 300; font-size: 72px; line-height: 1; font-family: &quot;Uni Neue&quot;; font-variant-ligatures: none; text-align: center; text-anchor: middle; fill: rgb(0, 126, 206);" d="m 499.93437,120 c 0.288,0 0.432,-0.144 0.432,-0.432 V 118.2 c 0,-0.288 -0.144,-0.432 -0.432,-0.432 H 475.16638 V 68.952 c 0,-0.288 -0.14401,-0.432 -0.43201,-0.432 h -1.512 c -0.288,0 -0.504,0.144 -0.504,0.432 v 50.616 c 0,0.288 0.216,0.432 0.504,0.432 z" transform="translate(0 281.8451820220974) translate(462.29694514760087 69.39821905204634) scale(1.2725951408646576) translate(-472.71837 -68.52)"></path> 
   <path id="path3948" style="font-style: normal; font-weight: 300; font-size: 72px; line-height: 1; font-family: &quot;Uni Neue&quot;; font-variant-ligatures: none; text-align: center; text-anchor: middle; fill: rgb(0, 126, 206);" d="m 525.8645,120 c 10.728,0 17.64,-6.48 17.64,-17.712 v -15.84 c 0,-11.16 -6.84,-17.928 -17.64,-17.928 h -17.064 c -0.288,0 -0.504,0.144 -0.504,0.432 v 50.616 c 0,0.288 0.216,0.432 0.504,0.432 z m -15.12,-49.248 h 15.048 c 9.504,0 15.264,5.76 15.264,15.696 v 15.84 c 0,9.936 -5.76,15.408 -15.264,15.408 h -15.048 z" transform="translate(0 281.8451820220974) translate(507.5735005066519 69.39821905204634) scale(1.2725951408646576) translate(-508.2965 -68.52)"></path> 
   <path id="path3950" style="font-style: normal; font-weight: 300; font-size: 72px; line-height: 1; font-family: &quot;Uni Neue&quot;; font-variant-ligatures: none; text-align: center; text-anchor: middle; fill: rgb(0, 126, 206);" d="M 591.39913,103.872 V 85.224 c 0,-10.368 -7.41601,-17.424 -18.72001,-17.424 -11.37599,0 -18.792,7.056 -18.792,17.424 v 18.648 c 0,9.72 7.48801,16.848 18.792,16.848 11.232,0 18.72001,-7.128 18.72001,-16.848 z m -35.13601,0 V 85.224 c 0,-9.072 6.336,-15.192 16.416,-15.192 10.00801,0 16.34401,6.12 16.34401,15.192 v 18.648 c 0,8.424 -6.408,14.544 -16.34401,14.544 -10.008,0 -16.416,-6.12 -16.416,-14.544 z" transform="translate(0 281.8451820220974) translate(565.591901987659 68.48195055062378) scale(1.2725951408646576) translate(-553.88712 -67.8)"></path> 
   <path id="path3952" style="font-style: normal; font-weight: 300; font-size: 72px; line-height: 1; font-family: &quot;Uni Neue&quot;; font-variant-ligatures: none; text-align: center; text-anchor: middle; fill: rgb(0, 126, 206);" d="m 633.30763,68.952 c 0,-0.288 -0.216,-0.432 -0.50401,-0.432 h -28.79999 c -0.288,0 -0.504,0.144 -0.504,0.432 v 50.616 c 0,0.288 0.216,0.432 0.504,0.432 h 1.51199 c 0.216,0 0.43201,-0.144 0.43201,-0.432 V 95.664 h 24.84 c 0.28799,0 0.43199,-0.144 0.43199,-0.432 v -1.368 c 0,-0.216 -0.144,-0.432 -0.43199,-0.432 h -24.84 v -22.68 h 26.85599 c 0.28801,0 0.50401,-0.144 0.50401,-0.432 z" transform="translate(0 281.8451820220974) translate(628.7285411397582 69.39821905204634) scale(1.2725951408646576) translate(-603.49963 -68.52)"></path> 
   <path id="path3954" style="font-style: normal; font-weight: 300; font-size: 72px; line-height: 1; font-family: &quot;Uni Neue&quot;; font-variant-ligatures: none; text-align: center; text-anchor: middle; fill: rgb(0, 126, 206);" d="M 677.8835,103.872 V 85.224 c 0,-10.368 -7.416,-17.424 -18.72,-17.424 -11.376,0 -18.792,7.056 -18.792,17.424 v 18.648 c 0,9.72 7.488,16.848 18.792,16.848 11.232,0 18.72,-7.128 18.72,-16.848 z m -35.136,0 V 85.224 c 0,-9.072 6.336,-15.192 16.416,-15.192 10.008,0 16.344,6.12 16.344,15.192 v 18.648 c 0,8.424 -6.408,14.544 -16.344,14.544 -10.008,0 -16.416,-6.12 -16.416,-14.544 z" transform="translate(0 281.8451820220974) translate(675.6515037363515 68.48195055062378) scale(1.2725951408646576) translate(-640.3715 -67.8)"></path> 
   <path id="path3956" style="font-style: normal; font-weight: 300; font-size: 72px; line-height: 1; font-family: &quot;Uni Neue&quot;; font-variant-ligatures: none; text-align: center; text-anchor: middle; fill: rgb(0, 126, 206);" d="m 691.52975,120 c 0.216,0 0.504,-0.144 0.576,-0.36 l 23.832,-49.392 c 0.144,-0.144 0.144,-0.36 0.144,-0.504 v -0.792 c 0,-0.288 -0.216,-0.432 -0.504,-0.432 h -31.68 c -0.288,0 -0.504,0.144 -0.504,0.432 v 1.368 c 0,0.216 0.216,0.432 0.504,0.432 h 29.304 l -23.616,48.672 c -0.144,0.36 0.072,0.576 0.36,0.576 z" transform="translate(0 281.8451820220974) translate(730.4014100354161 69.39821905204634) scale(1.2725951408646576) translate(-683.39375 -68.52)"></path> 
  </g> 
  <g id="tagline" style="font-style:oblique;font-weight:400;font-size:32px;line-height:1;font-family:Lato;font-variant-ligatures:none;text-align:center;text-anchor:middle"></g> 
 </g> 
</svg>