<svg xmlns:dc="http://purl.org/dc/elements/1.1/" xmlns:cc="http://creativecommons.org/ns#" xmlns:rdf="http://www.w3.org/1999/02/22-rdf-syntax-ns#" xmlns:svg="http://www.w3.org/2000/svg" xmlns="http://www.w3.org/2000/svg" id="svg475751" viewbox="0 0 1024 768" height="768px" width="1024px" version="1.1"> <metadata id="metadata475757"> 
  <rdf:rdf> 
   <cc:work rdf:about=""> 
    <dc:format>
     image/svg+xml
    </dc:format> 
    <dc:type rdf:resource="http://purl.org/dc/dcmitype/StillImage"></dc:type> 
   </cc:work> 
  </rdf:rdf> 
 </metadata> <defs id="defs475755"></defs> <g id="logo-group"> 
  <g id="title" style="font-style:normal;font-weight:700;font-size:72px;line-height:1;font-family:'Comfortaa Bold Alt1';font-variant-ligatures:none;text-align:center;text-anchor:middle" aria-label="worryfreeo7"> 
   <path id="path475759" style="font-style: normal; font-weight: 700; font-size: 72px; line-height: 1; font-family: &quot;Comfortaa Bold Alt1&quot;; font-variant-ligatures: none; text-align: center; text-anchor: middle; fill: rgb(255, 255, 255);" d="m 343.80181,81.408 c -0.504,-0.504 -1.224,-0.792 -2.232,-0.792 -1.872,0 -3.096,1.152 -3.744,3.312 l -7.92,24.768 -6.48,-25.344 c -0.288,-0.792 -0.72,-1.44 -1.296,-1.944 -0.576,-0.504 -1.368,-0.792 -2.232,-0.792 -1.008,0 -1.8,0.288 -2.376,0.792 -0.576,0.504 -1.008,1.152 -1.224,1.944 l -7.344,24.84 -7.776,-24.264 c -0.432,-1.152 -0.936,-1.944 -1.512,-2.52 -0.576,-0.504 -1.368,-0.792 -2.232,-0.792 -2.016,0 -3.024,1.008 -3.024,3.024 0,0.72 0.072,1.44 0.288,2.016 l 10.656,31.968 c 0.216,0.72 0.648,1.296 1.296,1.728 0.648,0.432 1.368,0.648 2.16,0.648 0.72,0 1.44,-0.216 2.088,-0.648 0.648,-0.432 1.08,-1.008 1.368,-1.728 l 7.416,-26.136 7.056,26.136 c 0.144,0.72 0.576,1.296 1.224,1.728 0.648,0.432 1.368,0.648 2.232,0.648 0.72,0 1.44,-0.216 2.088,-0.648 0.576,-0.432 1.008,-1.008 1.296,-1.728 l 10.656,-31.968 c 0.216,-0.576 0.36,-1.296 0.36,-2.088 0,-0.864 -0.288,-1.584 -0.792,-2.16 z" transform="translate(0 306.38254545454544) translate(246.46300909090917 59.51927272727272) scale(0.9090909090909091) translate(-294.40981 -80.616)"></path> 
   <path id="path475761" style="font-style: normal; font-weight: 700; font-size: 72px; line-height: 1; font-family: &quot;Comfortaa Bold Alt1&quot;; font-variant-ligatures: none; text-align: center; text-anchor: middle; fill: rgb(255, 255, 255);" d="m 378.79269,82.92 c -3.024,-1.728 -6.408,-2.592 -10.152,-2.592 -3.888,0 -7.272,0.864 -10.296,2.592 -3.024,1.728 -5.4,4.032 -7.056,7.056 -1.728,3.024 -2.52,6.48 -2.52,10.368 0,3.888 0.792,7.272 2.52,10.296 1.656,3.024 4.032,5.4 7.056,7.128 3.024,1.728 6.408,2.52 10.296,2.52 3.816,0 7.2,-0.792 10.224,-2.52 3.024,-1.728 5.328,-4.104 7.056,-7.128 1.656,-3.024 2.52,-6.408 2.52,-10.296 0,-3.888 -0.864,-7.344 -2.592,-10.368 -1.728,-3.024 -4.032,-5.328 -7.056,-7.056 z m -16.776,5.616 c 1.944,-1.152 4.176,-1.728 6.624,-1.728 2.448,0 4.608,0.576 6.552,1.728 1.944,1.152 3.456,2.808 4.536,4.824 1.08,2.088 1.656,4.392 1.656,6.984 0,2.592 -0.576,4.968 -1.656,6.984 -1.08,2.016 -2.592,3.6 -4.536,4.752 -1.944,1.152 -4.104,1.728 -6.552,1.728 -2.448,0 -4.68,-0.576 -6.624,-1.728 -1.944,-1.152 -3.456,-2.736 -4.536,-4.752 -1.152,-2.016 -1.656,-4.392 -1.656,-6.984 0,-2.592 0.504,-4.896 1.656,-6.984 1.08,-2.016 2.592,-3.672 4.536,-4.824 z" transform="translate(0 306.38254545454544) translate(309.5165363636365 59.25745454545455) scale(0.9090909090909091) translate(-348.76869 -80.328)"></path> 
   <path id="path475763" style="font-style: normal; font-weight: 700; font-size: 72px; line-height: 1; font-family: &quot;Comfortaa Bold Alt1&quot;; font-variant-ligatures: none; text-align: center; text-anchor: middle; fill: rgb(255, 255, 255);" d="m 424.71294,81.336 c -1.44,-0.72 -3.456,-1.152 -5.976,-1.152 -2.448,0 -4.68,0.504 -6.768,1.44 -2.16,1.008 -3.888,2.304 -5.328,3.96 v -1.368 c 0,-2.376 -1.224,-3.6 -3.6,-3.6 -1.152,0 -2.088,0.36 -2.664,0.936 -0.648,0.648 -0.936,1.512 -0.936,2.664 V 116.4 c 0,1.224 0.288,2.16 0.936,2.736 0.576,0.576 1.512,0.864 2.664,0.864 1.152,0 2.088,-0.288 2.664,-0.936 0.576,-0.576 0.936,-1.512 0.936,-2.664 V 95.376 c 0,-2.664 1.008,-4.824 3.168,-6.408 2.088,-1.584 4.896,-2.376 8.352,-2.376 1.152,0 2.736,0.216 4.68,0.504 0.432,0.144 0.792,0.144 1.08,0.144 1.44,0 2.448,-0.72 2.88,-2.304 0,-0.144 0.072,-0.36 0.072,-0.72 0,-1.152 -0.72,-2.088 -2.16,-2.88 z" transform="translate(0 306.38254545454544) translate(369.2185818181819 59.12654545454545) scale(0.9090909090909091) translate(-399.44094 -80.184)"></path> 
   <path id="path475765" style="font-style: normal; font-weight: 700; font-size: 72px; line-height: 1; font-family: &quot;Comfortaa Bold Alt1&quot;; font-variant-ligatures: none; text-align: center; text-anchor: middle; fill: rgb(255, 255, 255);" d="m 459.72856,81.336 c -1.44,-0.72 -3.456,-1.152 -5.976,-1.152 -2.448,0 -4.68,0.504 -6.768,1.44 -2.16,1.008 -3.888,2.304 -5.328,3.96 v -1.368 c 0,-2.376 -1.224,-3.6 -3.6,-3.6 -1.152,0 -2.088,0.36 -2.664,0.936 -0.648,0.648 -0.936,1.512 -0.936,2.664 V 116.4 c 0,1.224 0.288,2.16 0.936,2.736 0.576,0.576 1.512,0.864 2.664,0.864 1.152,0 2.088,-0.288 2.664,-0.936 0.576,-0.576 0.936,-1.512 0.936,-2.664 V 95.376 c 0,-2.664 1.008,-4.824 3.168,-6.408 2.088,-1.584 4.896,-2.376 8.352,-2.376 1.152,0 2.736,0.216 4.68,0.504 0.432,0.144 0.792,0.144 1.08,0.144 1.44,0 2.448,-0.72 2.88,-2.304 0,-0.144 0.072,-0.36 0.072,-0.72 0,-1.152 -0.72,-2.088 -2.16,-2.88 z" transform="translate(0 306.38254545454544) translate(414.6873272727274 59.12654545454545) scale(0.9090909090909091) translate(-434.45656 -80.184)"></path> 
   <path id="path475767" style="font-style: normal; font-weight: 700; font-size: 72px; line-height: 1; font-family: &quot;Comfortaa Bold Alt1&quot;; font-variant-ligatures: none; text-align: center; text-anchor: middle; fill: rgb(255, 255, 255);" d="m 501.80019,83.784 c 0,-1.296 -0.792,-2.232 -2.232,-2.808 -0.576,-0.216 -1.152,-0.36 -1.728,-0.36 -1.296,0 -2.232,0.72 -2.808,2.088 l -11.592,26.136 -13.176,-26.208 c -0.72,-1.296 -1.728,-2.016 -3.024,-2.016 -0.576,0 -1.008,0.144 -1.44,0.288 -0.648,0.288 -1.152,0.72 -1.512,1.224 -0.432,0.576 -0.576,1.152 -0.576,1.728 0,0.576 0.072,1.08 0.36,1.512 l 16.2,30.744 -7.2,16.2 c -0.288,0.576 -0.432,1.152 -0.432,1.728 0,1.296 0.72,2.232 2.16,2.808 0.648,0.288 1.224,0.432 1.728,0.432 1.296,0 2.232,-0.72 2.808,-2.232 l 22.032,-49.536 c 0.288,-0.648 0.432,-1.224 0.432,-1.728 z" transform="translate(0 306.38254545454544) translate(454.91971818181827 59.51927272727272) scale(0.9090909090909091) translate(-463.71219 -80.616)"></path> 
   <path id="path475769" style="font-style: normal; font-weight: 700; font-size: 72px; line-height: 1; font-family: &quot;Comfortaa Bold Alt1&quot;; font-variant-ligatures: none; text-align: center; text-anchor: middle; fill: rgb(255, 255, 255);" d="m 509.00469,82.056 v 6.192 28.08 c 0,1.152 0.288,2.016 1.008,2.664 0.72,0.72 1.512,1.008 2.52,1.008 1.152,0 2.088,-0.288 2.808,-1.008 0.648,-0.648 1.008,-1.512 1.008,-2.664 v -28.08 h 7.344 c 1.008,0 1.8,-0.288 2.448,-0.864 0.576,-0.576 0.936,-1.296 0.936,-2.16 0,-0.936 -0.36,-1.728 -0.936,-2.304 -0.648,-0.576 -1.44,-0.864 -2.448,-0.864 h -7.344 v -1.944 c 0,-2.88 0.792,-5.256 2.448,-7.056 1.584,-1.728 3.744,-2.664 6.48,-2.664 1.008,0 1.872,-0.288 2.592,-0.936 0.72,-0.576 1.08,-1.368 1.08,-2.376 0,-0.936 -0.36,-1.728 -1.08,-2.376 -0.72,-0.576 -1.584,-0.936 -2.592,-0.936 -3.24,0 -6.048,0.72 -8.496,2.16 -2.448,1.44 -4.392,3.384 -5.76,5.976 -1.368,2.592 -2.016,5.544 -2.016,8.928 z" transform="translate(0 306.38254545454544) translate(509.73108181818185 44.20290909090909) scale(0.9090909090909091) translate(-509.00469 -63.768)"></path> 
   <path id="path475771" style="font-style: normal; font-weight: 700; font-size: 72px; line-height: 1; font-family: &quot;Comfortaa Bold Alt1&quot;; font-variant-ligatures: none; text-align: center; text-anchor: middle; fill: rgb(255, 255, 255);" d="m 559.99419,81.336 c -1.44,-0.72 -3.456,-1.152 -5.976,-1.152 -2.448,0 -4.68,0.504 -6.768,1.44 -2.16,1.008 -3.888,2.304 -5.328,3.96 v -1.368 c 0,-2.376 -1.224,-3.6 -3.6,-3.6 -1.152,0 -2.088,0.36 -2.664,0.936 -0.648,0.648 -0.936,1.512 -0.936,2.664 V 116.4 c 0,1.224 0.288,2.16 0.936,2.736 0.576,0.576 1.512,0.864 2.664,0.864 1.152,0 2.088,-0.288 2.664,-0.936 0.576,-0.576 0.936,-1.512 0.936,-2.664 V 95.376 c 0,-2.664 1.008,-4.824 3.168,-6.408 2.088,-1.584 4.896,-2.376 8.352,-2.376 1.152,0 2.736,0.216 4.68,0.504 0.432,0.144 0.792,0.144 1.08,0.144 1.44,0 2.448,-0.72 2.88,-2.304 0,-0.144 0.072,-0.36 0.072,-0.72 0,-1.152 -0.72,-2.088 -2.16,-2.88 z" transform="translate(0 306.38254545454544) translate(546.746990909091 59.12654545454545) scale(0.9090909090909091) translate(-534.72219 -80.184)"></path> 
   <path id="path475773" style="font-style: normal; font-weight: 700; font-size: 72px; line-height: 1; font-family: &quot;Comfortaa Bold Alt1&quot;; font-variant-ligatures: none; text-align: center; text-anchor: middle; fill: rgb(255, 255, 255);" d="m 601.34131,102 c 0.576,-0.576 0.936,-1.368 0.936,-2.304 0,-3.744 -0.72,-7.128 -2.16,-10.08 -1.44,-2.88 -3.528,-5.184 -6.192,-6.84 -2.736,-1.584 -5.904,-2.448 -9.576,-2.448 -3.744,0 -7.128,0.864 -10.08,2.592 -2.952,1.728 -5.256,4.104 -6.912,7.128 -1.656,3.024 -2.448,6.48 -2.448,10.296 0,3.888 0.864,7.272 2.592,10.296 1.728,3.024 4.176,5.4 7.344,7.128 3.096,1.728 6.624,2.52 10.584,2.52 2.16,0 4.464,-0.36 6.912,-1.224 2.448,-0.792 4.464,-1.872 6.12,-3.168 0.72,-0.576 1.152,-1.296 1.152,-2.16 0,-0.864 -0.432,-1.728 -1.296,-2.448 -0.576,-0.432 -1.296,-0.72 -2.16,-0.72 -0.936,0 -1.728,0.288 -2.376,0.792 -1.008,0.792 -2.304,1.44 -3.888,1.944 -1.584,0.576 -3.024,0.792 -4.464,0.792 -3.672,0 -6.768,-1.008 -9.288,-3.096 -2.52,-2.016 -4.032,-4.752 -4.536,-8.136 h 27.36 c 0.936,0 1.728,-0.288 2.376,-0.864 z m -25.56,-12.6 c 2.16,-1.872 5.04,-2.88 8.568,-2.88 3.168,0 5.688,1.008 7.704,2.88 1.944,1.944 3.168,4.536 3.6,7.704 h -23.976 c 0.576,-3.168 1.944,-5.76 4.104,-7.704 z" transform="translate(0 306.38254545454544) translate(587.8261909090911 59.25745454545455) scale(0.9090909090909091) translate(-564.90931 -80.328)"></path> 
   <path id="path475775" style="font-style: normal; font-weight: 700; font-size: 72px; line-height: 1; font-family: &quot;Comfortaa Bold Alt1&quot;; font-variant-ligatures: none; text-align: center; text-anchor: middle; fill: rgb(255, 255, 255);" d="m 644.65381,102 c 0.576,-0.576 0.936,-1.368 0.936,-2.304 0,-3.744 -0.72,-7.128 -2.16,-10.08 -1.44,-2.88 -3.528,-5.184 -6.192,-6.84 -2.736,-1.584 -5.904,-2.448 -9.576,-2.448 -3.744,0 -7.128,0.864 -10.08,2.592 -2.952,1.728 -5.256,4.104 -6.912,7.128 -1.656,3.024 -2.448,6.48 -2.448,10.296 0,3.888 0.864,7.272 2.592,10.296 1.728,3.024 4.176,5.4 7.344,7.128 3.096,1.728 6.624,2.52 10.584,2.52 2.16,0 4.464,-0.36 6.912,-1.224 2.448,-0.792 4.464,-1.872 6.12,-3.168 0.72,-0.576 1.152,-1.296 1.152,-2.16 0,-0.864 -0.432,-1.728 -1.296,-2.448 -0.576,-0.432 -1.296,-0.72 -2.16,-0.72 -0.936,0 -1.728,0.288 -2.376,0.792 -1.008,0.792 -2.304,1.44 -3.888,1.944 -1.584,0.576 -3.024,0.792 -4.464,0.792 -3.672,0 -6.768,-1.008 -9.288,-3.096 -2.52,-2.016 -4.032,-4.752 -4.536,-8.136 h 27.36 c 0.936,0 1.728,-0.288 2.376,-0.864 z m -25.56,-12.6 c 2.16,-1.872 5.04,-2.88 8.568,-2.88 3.168,0 5.688,1.008 7.704,2.88 1.944,1.944 3.168,4.536 3.6,7.704 h -23.976 c 0.576,-3.168 1.944,-5.76 4.104,-7.704 z" transform="translate(0 306.38254545454544) translate(640.8375545454547 59.25745454545455) scale(0.9090909090909091) translate(-608.22181 -80.328)"></path> 
   <path id="path475777" style="font-style: normal; font-weight: 700; font-size: 72px; line-height: 1; font-family: &quot;Comfortaa Bold Alt1&quot;; font-variant-ligatures: none; text-align: center; text-anchor: middle; fill: rgb(92, 92, 144);" d="m 681.55831,82.92 c -3.024,-1.728 -6.408,-2.592 -10.152,-2.592 -3.888,0 -7.272,0.864 -10.296,2.592 -3.024,1.728 -5.4,4.032 -7.056,7.056 -1.728,3.024 -2.52,6.48 -2.52,10.368 0,3.888 0.792,7.272 2.52,10.296 1.656,3.024 4.032,5.4 7.056,7.128 3.024,1.728 6.408,2.52 10.296,2.52 3.816,0 7.2,-0.792 10.224,-2.52 3.024,-1.728 5.328,-4.104 7.056,-7.128 1.656,-3.024 2.52,-6.408 2.52,-10.296 0,-3.888 -0.864,-7.344 -2.592,-10.368 -1.728,-3.024 -4.032,-5.328 -7.056,-7.056 z m -16.776,5.616 c 1.944,-1.152 4.176,-1.728 6.624,-1.728 2.448,0 4.608,0.576 6.552,1.728 1.944,1.152 3.456,2.808 4.536,4.824 1.08,2.088 1.656,4.392 1.656,6.984 0,2.592 -0.576,4.968 -1.656,6.984 -1.08,2.016 -2.592,3.6 -4.536,4.752 -1.944,1.152 -4.104,1.728 -6.552,1.728 -2.448,0 -4.68,-0.576 -6.624,-1.728 -1.944,-1.152 -3.456,-2.736 -4.536,-4.752 -1.152,-2.016 -1.656,-4.392 -1.656,-6.984 0,-2.592 0.504,-4.896 1.656,-6.984 1.08,-2.016 2.592,-3.672 4.536,-4.824 z" transform="translate(0 306.38254545454544) translate(693.8489181818184 59.25745454545455) scale(0.9090909090909091) translate(-651.53431 -80.328)"></path> 
   <path id="path475779" style="font-style: normal; font-weight: 700; font-size: 72px; line-height: 1; font-family: &quot;Comfortaa Bold Alt1&quot;; font-variant-ligatures: none; text-align: center; text-anchor: middle; fill: rgb(92, 92, 144);" d="m 694.82319,70.104 c 0.72,0.72 1.584,1.008 2.664,1.008 h 21.888 l -20.664,42.912 c -0.432,0.864 -0.648,1.656 -0.648,2.304 0,1.008 0.36,1.872 1.08,2.592 0.72,0.72 1.512,1.08 2.52,1.08 0.648,0 1.296,-0.144 1.944,-0.504 0.576,-0.36 1.08,-0.864 1.44,-1.512 l 23.04,-48.6 c 0.288,-0.72 0.504,-1.368 0.504,-1.944 0,-1.008 -0.36,-1.872 -1.08,-2.592 -0.72,-0.72 -1.584,-1.08 -2.592,-1.08 h -27.432 c -1.08,0 -1.944,0.36 -2.664,1.08 -0.72,0.72 -1.008,1.584 -1.008,2.592 0,1.08 0.288,1.944 1.008,2.664 z" transform="translate(0 306.38254545454544) translate(745.9224454545456 44.20290909090909) scale(0.9090909090909091) translate(-693.81519 -63.768)"></path> 
  </g> 
  <g id="tagline" style="font-style:normal;font-weight:500;font-size:32px;line-height:1;font-family:Raleway;font-variant-ligatures:none;text-align:center;text-anchor:middle"></g> 
 </g> 
</svg>