<?xml version="1.0" encoding="UTF-8" standalone="no"?>
<!-- Created with Inkscape (http://www.inkscape.org/) -->

<svg
   xmlns:osb="http://www.openswatchbook.org/uri/2009/osb"
   xmlns:dc="http://purl.org/dc/elements/1.1/"
   xmlns:cc="http://creativecommons.org/ns#"
   xmlns:rdf="http://www.w3.org/1999/02/22-rdf-syntax-ns#"
   xmlns:svg="http://www.w3.org/2000/svg"
   xmlns="http://www.w3.org/2000/svg"
   xmlns:sodipodi="http://sodipodi.sourceforge.net/DTD/sodipodi-0.dtd"
   xmlns:inkscape="http://www.inkscape.org/namespaces/inkscape"
   width="210mm"
   height="297mm"
   viewBox="0 0 210 297"
   version="1.1"
   id="svg8"
   inkscape:export-filename="E:\Blender\o7AG.png"
   inkscape:export-xdpi="142.86839"
   inkscape:export-ydpi="142.86839"
   sodipodi:docname="o7AG.svg"
   inkscape:version="0.92.5 (2060ec1f9f, 2020-04-08)">
  <defs
     id="defs2">
    <marker
       inkscape:stockid="Arrow2Sstart"
       orient="auto"
       refY="0.0"
       refX="0.0"
       id="Arrow2Sstart"
       style="overflow:visible"
       inkscape:isstock="true">
      <path
         id="path6714"
         style="fill-rule:evenodd;stroke-width:0.625;stroke-linejoin:round;stroke:#00ffff;stroke-opacity:1;fill:#ffff00;fill-opacity:1"
         d="M 8.7185878,4.0337352 L -2.2072895,0.016013256 L 8.7185884,-4.0017078 C 6.9730900,-1.6296469 6.9831476,1.6157441 8.7185878,4.0337352 z "
         transform="scale(0.3) translate(-2.3,0)" />
    </marker>
    <marker
       inkscape:stockid="RazorWire"
       id="RazorWire"
       refX="0"
       refY="0"
       orient="auto"
       style="overflow:visible"
       inkscape:isstock="true">
      <path
         id="path6916"
         transform="scale(0.8,0.8)"
         style="fill:#ffff00;fill-opacity:1;fill-rule:evenodd;stroke:#00ffff;stroke-width:0.1pt;stroke-opacity:1"
         d="M 0.022727273,-0.74009011 L 0.022727273,0.69740989 L -7.7585227,3.0099099 L 10.678977,3.0099099 L 3.4914773,0.69740989 L 3.4914773,-0.74009011 L 10.741477,-2.8963401 L -7.7272727,-2.8963401 L 0.022727273,-0.74009011 z " />
    </marker>
    <marker
       inkscape:stockid="DiamondL"
       orient="auto"
       refY="0.0"
       refX="0.0"
       id="DiamondL"
       style="overflow:visible"
       inkscape:isstock="true">
      <path
         id="path6763"
         d="M 0,-7.0710768 L -7.0710894,0 L 0,7.0710589 L 7.0710462,0 L 0,-7.0710768 z "
         style="fill-rule:evenodd;stroke:#00ffff;stroke-width:1pt;stroke-opacity:1;fill:#ffff00;fill-opacity:1"
         transform="scale(0.8)" />
    </marker>
    <marker
       inkscape:stockid="Arrow1Sstart"
       orient="auto"
       refY="0.0"
       refX="0.0"
       id="Arrow1Sstart"
       style="overflow:visible"
       inkscape:isstock="true">
      <path
         id="path6696"
         d="M 0.0,0.0 L 5.0,-5.0 L -12.5,0.0 L 5.0,5.0 L 0.0,0.0 z "
         style="fill-rule:evenodd;stroke:#00ffff;stroke-width:1pt;stroke-opacity:1;fill:#ffff00;fill-opacity:1"
         transform="scale(0.2) translate(6,0)" />
    </marker>
    <marker
       style="overflow:visible"
       id="DistanceStart"
       refX="0.0"
       refY="0.0"
       orient="auto"
       inkscape:stockid="DistanceStart"
       inkscape:isstock="true">
      <g
         id="g2300"
         style="stroke:#00ffff;stroke-opacity:1;fill:#ffff00;fill-opacity:1">
        <path
           style="fill:#ffff00;stroke:#00ffff;stroke-width:1.15;stroke-linecap:square;stroke-opacity:1;fill-opacity:1"
           d="M 0,0 L 2,0"
           id="path2306" />
        <path
           style="fill:#ffff00;fill-rule:evenodd;stroke:#00ffff;stroke-opacity:1;fill-opacity:1"
           d="M 0,0 L 13,4 L 9,0 13,-4 L 0,0 z "
           id="path2302" />
        <path
           style="fill:#ffff00;stroke:#00ffff;stroke-width:1;stroke-linecap:square;stroke-opacity:1;fill-opacity:1"
           d="M 0,-4 L 0,40"
           id="path2304" />
      </g>
    </marker>
    <marker
       inkscape:stockid="Arrow1Lstart"
       orient="auto"
       refY="0.0"
       refX="0.0"
       id="Arrow1Lstart"
       style="overflow:visible"
       inkscape:isstock="true">
      <path
         id="path6684"
         d="M 0.0,0.0 L 5.0,-5.0 L -12.5,0.0 L 5.0,5.0 L 0.0,0.0 z "
         style="fill-rule:evenodd;stroke:#00ffff;stroke-width:1pt;stroke-opacity:1;fill:#ffff00;fill-opacity:1"
         transform="scale(0.8) translate(12.5,0)" />
    </marker>
    <linearGradient
       id="linearGradient6604"
       osb:paint="solid"
       gradientTransform="translate(0,-1.2429596e-5)">
      <stop
         style="stop-color:#ffff00;stop-opacity:1;"
         offset="0"
         id="stop6602" />
    </linearGradient>
  </defs>
  <sodipodi:namedview
     id="base"
     pagecolor="#ffffff"
     bordercolor="#666666"
     borderopacity="1.0"
     inkscape:pageopacity="0.0"
     inkscape:pageshadow="2"
     inkscape:zoom="0.24748737"
     inkscape:cx="-1301.707"
     inkscape:cy="227.04413"
     inkscape:document-units="mm"
     inkscape:current-layer="layer1"
     showgrid="false"
     showguides="false"
     inkscape:window-width="1360"
     inkscape:window-height="705"
     inkscape:window-x="-8"
     inkscape:window-y="-8"
     inkscape:window-maximized="1" />
  <metadata
     id="metadata5">
    <rdf:RDF>
      <cc:Work
         rdf:about="">
        <dc:format>image/svg+xml</dc:format>
        <dc:type
           rdf:resource="http://purl.org/dc/dcmitype/StillImage" />
        <dc:title />
      </cc:Work>
    </rdf:RDF>
  </metadata>
  <g
     inkscape:label="Layer 1"
     inkscape:groupmode="layer"
     id="layer1">
    <path
       sodipodi:type="star"
       style="fill:#ffff00;stroke-width:0.26458332"
       id="path18-1"
       sodipodi:sides="3"
       sodipodi:cx="-78.57724"
       sodipodi:cy="130.4062"
       sodipodi:r1="39.021351"
       sodipodi:r2="19.678167"
       sodipodi:arg1="1.5707963"
       sodipodi:arg2="2.5336409"
       inkscape:flatsided="false"
       inkscape:rounded="0"
       inkscape:randomized="0"
       d="m -78.577239,169.42756 -16.152228,-27.78143 -17.641253,-30.7506 32.135536,-0.0975 35.451425,0.0975 -15.98331,27.87895 z"
       inkscape:transform-center-x="-2.6937401e-06"
       inkscape:transform-center-y="-1.1086013e-06"
       inkscape:export-xdpi="142"
       inkscape:export-ydpi="142" />
    <rect
       id="rect10"
       width="462.05658"
       height="217.83517"
       x="-81.543976"
       y="-27.185692"
       style="fill:#000080;fill-opacity:1;stroke-width:0.31344491"
       inkscape:export-xdpi="142"
       inkscape:export-ydpi="142"
       transform="matrix(4.757675e-5,1,-1,6.5973575e-5,0,0)" />
    <path
       sodipodi:type="star"
       style="opacity:1;fill:#ffe680;fill-opacity:1;fill-rule:evenodd;stroke-width:0.8;stroke-miterlimit:4;stroke-dasharray:none;stroke:#ffeeaa;stroke-opacity:1;stroke-linecap:square;paint-order:markers stroke fill"
       id="path18"
       sodipodi:sides="3"
       sodipodi:cx="-82.853554"
       sodipodi:cy="131.29288"
       sodipodi:r1="90.362396"
       sodipodi:r2="20.307779"
       sodipodi:arg1="1.5944605"
       sodipodi:arg2="2.5140806"
       inkscape:flatsided="false"
       inkscape:rounded="0"
       inkscape:randomized="0"
       d="M -84.991706,221.62997 -99.292514,143.21624 -160.0187,84.272635 -84.960006,111.09464 -3.5502576,87.976023 -64.308142,139.56775 Z"
       inkscape:export-xdpi="142"
       inkscape:export-ydpi="142"
       inkscape:transform-center-y="1.0049418e-05"
       inkscape:transform-center-x="-2.6937401e-06" />
    <flowRoot
       xml:space="preserve"
       id="flowRoot86"
       style="fill:#0000ff;fill-opacity:1;stroke:none;font-family:sans-serif;font-style:normal;font-weight:normal;font-size:40px;line-height:1.25;letter-spacing:0px;word-spacing:0px;"><flowRegion
         id="flowRegion88"
         style="fill:#0000ff;"><rect
           id="rect90"
           width="234.35539"
           height="169.70563"
           x="-923.27942"
           y="231.56514"
           style="fill:#0000ff;" /></flowRegion><flowPara
         id="flowPara92" /></flowRoot>    <g
       id="g43"
       transform="matrix(2.3529492,0,0,2.3529492,668.1794,-350.35466)"
       style="fill:#d45500">
      <path
         style="fill:#d45500;fill-opacity:1;stroke-width:0.26458335"
         d="m -310.67969,192.3999 c 0.58662,-2.02038 0.4878,-3.2551 -0.48944,-6.11512 -1.01668,-2.97547 -1.21809,-4.39154 -0.86337,-6.0701 l 0.21272,-1.00658 -0.78463,0.40575 c -1.23226,0.63722 -2.37027,2.21737 -2.71891,3.77522 -0.17282,0.77224 -0.40636,1.40406 -0.51898,1.40406 -0.38646,0 -2.08235,-2.29155 -2.65901,-3.59295 -0.60559,-1.3667 -0.80194,-3.83831 -0.41513,-5.2255 l 0.20877,-0.74867 -0.83342,0.48408 c -1.25697,0.7301 -2.80052,2.61229 -3.26841,3.98548 -0.25055,0.73534 -0.41674,2.1192 -0.41674,3.47026 v 2.24719 l -0.81522,-1.23076 c -0.44837,-0.67692 -1.25708,-1.58071 -1.79712,-2.00844 l -0.9819,-0.77768 0.10648,1.67233 c 0.12394,1.94648 -0.17748,3.01189 -1.44363,5.10257 -0.50525,0.83428 -1.05583,2.0229 -1.2235,2.64136 -0.16768,0.61847 -0.3901,1.12448 -0.49427,1.12448 -0.41337,0 -1.79208,-1.37974 -2.7014,-2.70343 -0.58287,-0.84849 -1.13622,-2.11418 -1.40838,-3.22141 -0.57583,-2.34268 -0.23963,-4.54656 1.21323,-7.95315 1.71863,-4.02976 1.97094,-5.77039 1.23635,-8.5295 -0.20107,-0.75522 -0.31569,-1.42302 -0.2547,-1.48401 0.19967,-0.19967 2.85151,0.37441 3.93385,0.85161 1.48666,0.65546 2.70771,1.75628 3.35459,3.02427 l 0.55326,1.08449 1.13885,-1.2579 c 1.74054,-1.92248 2.32379,-3.70184 2.31517,-7.06305 -0.005,-1.77512 -0.15527,-3.23187 -0.41746,-4.0349 -0.22568,-0.69122 -0.34311,-1.25677 -0.26095,-1.25677 0.39682,0 2.69976,1.68695 3.68399,2.69859 2.19036,2.25137 3.40379,5.97454 3.19407,9.80039 l -0.11225,2.04794 0.84983,-1.26192 c 0.89914,-1.33515 3.92771,-4.28917 4.39741,-4.28917 0.16055,0 0.19764,0.19545 0.0879,0.46302 -0.376,0.91663 -0.4577,3.99714 -0.14103,5.31717 0.17695,0.73761 0.74308,2.03077 1.25806,2.87369 3.39708,5.56034 3.81142,9.15919 1.44455,12.54706 -0.88518,1.26702 -3.45455,3.40532 -4.09182,3.40532 -0.13764,0 -0.17247,-0.2679 -0.0774,-0.59532 z"
         id="path59"
         inkscape:connector-curvature="0" />
      <path
         style="fill:#d45500;fill-opacity:1;stroke-width:0.26458335"
         d="m -310.67969,192.3999 c 0.57634,-1.98497 0.47446,-3.23206 -0.5125,-6.27331 -0.86755,-2.6733 -0.96936,-3.26043 -0.86022,-4.96093 0.0681,-1.06083 0.0664,-1.92878 -0.004,-1.92878 -0.0701,0 -0.52248,0.24413 -1.00526,0.5425 -1.10773,0.68462 -1.96922,2.06735 -2.36659,3.79849 l -0.30932,1.34755 -0.97889,-1.05757 c -1.57031,-1.69653 -2.35179,-3.56182 -2.36206,-5.63793 -0.005,-0.97414 0.0827,-2.04768 0.19448,-2.38564 0.19918,-0.60219 0.18795,-0.60656 -0.562,-0.21875 -1.28465,0.66432 -2.87844,2.61979 -3.39168,4.16136 -0.31036,0.93221 -0.47003,2.16357 -0.45607,3.51726 l 0.0215,2.0829 -0.53406,-0.89227 c -0.64685,-1.0807 -1.44429,-1.97339 -2.33059,-2.60898 l -0.66146,-0.47435 v 2.16355 c 0,2.06966 -0.0496,2.24924 -1.14288,4.13823 -0.62858,1.08608 -1.27836,2.48071 -1.44394,3.09917 -0.16558,0.61847 -0.3845,1.12448 -0.48648,1.12448 -0.56996,0 -2.75187,-2.61381 -3.479,-4.16766 -0.72203,-1.54294 -0.8274,-2.04857 -0.81185,-3.89592 0.0151,-1.79135 0.17045,-2.51542 0.9949,-4.63642 1.89218,-4.86787 2.00363,-5.25514 2.00363,-6.9628 0,-0.92639 -0.16694,-2.23905 -0.37098,-2.91702 l -0.37098,-1.23268 h 0.90675 c 2.12579,0 5.28353,1.65999 6.15469,3.23545 0.91431,1.6535 0.90507,1.65006 1.85307,0.68957 2.46392,-2.49638 3.31112,-7.21215 2.04794,-11.3995 -0.20852,-0.69122 -0.32552,-1.25677 -0.26001,-1.25677 0.40879,0 3.03307,1.94504 3.85254,2.8554 2.11314,2.34752 2.95841,4.89961 2.96699,8.9581 l 0.006,2.94997 0.70376,-1.23017 c 0.71003,-1.24113 3.07806,-3.66932 4.12466,-4.22944 0.55005,-0.29438 0.55849,-0.27474 0.29388,0.68361 -0.14984,0.54268 -0.22228,1.94236 -0.16098,3.11039 0.0974,1.85649 0.23983,2.35623 1.13163,3.97178 2.15244,3.89925 2.79917,5.33915 3.07075,6.83684 0.612,3.37504 -0.73926,6.5486 -3.68712,8.65952 -1.65912,1.18806 -2.02185,1.27795 -1.77877,0.44077 z"
         id="path57"
         inkscape:connector-curvature="0" />
      <path
         style="fill:#d45500;fill-opacity:1;stroke-width:0.26458335"
         d="m -310.66517,192.3999 c 0.59143,-1.87905 0.45927,-3.4831 -0.52866,-6.41614 -0.87992,-2.61239 -0.96576,-3.10685 -0.83822,-4.82865 0.0782,-1.05503 0.062,-1.91778 -0.0359,-1.91724 -0.0979,5.6e-4 -0.5477,0.2264 -0.99951,0.50191 -1.05001,0.64028 -1.97042,2.13223 -2.34703,3.80443 l -0.29592,1.31389 -1.2257,-1.36327 c -1.63536,-1.81892 -2.15775,-3.4231 -2.00032,-6.14267 0.0664,-1.14622 0.051,-2.08072 -0.034,-2.07667 -0.30749,0.0146 -2.1535,1.52715 -2.67857,2.19465 -1.16512,1.48121 -1.66171,3.11328 -1.67729,5.51249 l -0.0149,2.29053 -0.49944,-0.83533 c -0.61929,-1.03578 -1.42444,-1.92712 -2.32168,-2.57021 l -0.68717,-0.49253 0.11806,1.90746 c 0.10934,1.76669 0.0542,2.02461 -0.74723,3.49496 -1.64359,3.01541 -2.08101,3.97097 -2.08925,4.56406 -0.0119,0.85537 -0.29379,0.74957 -1.70206,-0.63881 -3.16505,-3.12035 -3.71985,-7.0588 -1.68897,-11.98996 1.88784,-4.58386 2.18727,-6.41604 1.49671,-9.15848 -0.1642,-0.65209 -0.21982,-1.26435 -0.12359,-1.36058 0.27529,-0.27529 2.97678,0.37714 4.30195,1.03896 1.3504,0.67442 2.36262,1.75081 2.93804,3.12429 l 0.38767,0.92531 0.92941,-1.0576 c 0.51118,-0.58169 1.28467,-1.80657 1.71886,-2.72196 0.99353,-2.09463 1.24032,-5.07933 0.64996,-7.86065 -0.21622,-1.01865 -0.35082,-1.89717 -0.29912,-1.95227 0.0517,-0.0551 0.68755,0.2807 1.41301,0.74623 1.55198,0.9959 2.97116,2.50027 3.69243,3.91406 1.19902,2.35029 1.82698,6.24771 1.40741,8.73521 -0.12886,0.76398 -0.19496,1.38906 -0.14689,1.38906 0.0481,0 0.32563,-0.46695 0.61679,-1.03768 0.63866,-1.25187 3.09765,-3.94819 4.16921,-4.57159 l 0.77332,-0.4499 -0.33059,1.60426 c -0.2301,1.11658 -0.25704,2.05766 -0.0886,3.09573 0.3084,1.90075 0.60117,2.60175 2.16752,5.18994 1.55713,2.57295 2.14797,4.46951 2.12074,6.80741 -0.034,2.92122 -1.57408,5.49842 -4.32248,7.23341 -1.26747,0.80012 -1.41491,0.80687 -1.17793,0.0539 z"
         id="path55"
         inkscape:connector-curvature="0" />
      <path
         style="fill:#d45500;fill-opacity:1;stroke-width:0.26458335"
         d="m -310.67006,192.55893 c 0.10884,-0.26936 0.25831,-1.20413 0.33215,-2.07726 0.1141,-1.34908 -0.0133,-2.0246 -0.84809,-4.49791 -0.88055,-2.60879 -0.96793,-3.10922 -0.84316,-4.82865 0.0766,-1.05503 0.0591,-1.91778 -0.0388,-1.91724 -0.0979,5.6e-4 -0.5556,0.23121 -1.01706,0.51259 -1.04371,0.6364 -2.20737,2.57806 -2.39833,4.00182 l -0.14428,1.07565 -0.98196,-0.95886 c -1.74227,-1.70128 -2.25099,-3.06211 -2.25099,-6.02137 0,-1.4189 -0.0595,-2.57681 -0.13229,-2.57313 -0.0728,0.004 -0.68712,0.41382 -1.36524,0.91144 -0.89564,0.65725 -1.46944,1.38515 -2.09742,2.66076 -0.7622,1.54827 -0.86675,2.02179 -0.88372,4.00272 -0.014,1.63896 -0.0908,2.12096 -0.28383,1.78182 -0.40852,-0.71781 -2.2943,-2.75424 -2.80221,-3.02607 -0.41158,-0.22027 -0.441,-0.0984 -0.31406,1.30156 0.16832,1.85618 -0.16636,2.99915 -1.55777,5.31999 -0.56513,0.94263 -1.09933,2.16302 -1.18711,2.71198 -0.0878,0.54896 -0.25063,0.99811 -0.36187,0.99811 -0.11125,0 -0.85984,-0.71026 -1.66355,-1.57835 -2.05734,-2.22217 -2.6512,-3.89093 -2.49842,-7.02061 0.10381,-2.12665 0.26531,-2.74543 1.51043,-5.78748 l 1.39419,-3.40624 -0.13672,-2.4146 c -0.0752,-1.32803 -0.2266,-2.70124 -0.33647,-3.05159 -0.19634,-0.62614 -0.17833,-0.63407 1.05661,-0.4648 2.67489,0.36663 5.06019,1.86634 5.9754,3.7569 l 0.58782,1.21428 0.63496,-0.59652 c 2.5493,-2.39494 3.62126,-6.97214 2.62492,-11.20818 -0.20508,-0.87193 -0.33215,-1.62604 -0.28238,-1.67581 0.25897,-0.25898 3.15043,1.95515 4.06619,3.11367 1.8251,2.30893 2.25174,3.81317 2.27005,8.00373 0.009,1.99262 0.0794,3.54043 0.15711,3.43958 0.0777,-0.10084 0.60284,-0.87468 1.16698,-1.71963 0.96484,-1.44514 2.88685,-3.37073 3.91348,-3.92079 0.41268,-0.2211 0.42928,-0.17154 0.16375,0.48884 -0.43852,1.09061 -0.3584,4.51504 0.13697,5.85422 0.23408,0.63282 0.96725,2.01962 1.62927,3.08178 1.82815,2.93314 2.31891,4.56868 2.18357,7.27702 -0.0795,1.59057 -0.27385,2.56069 -0.66391,3.3138 -0.63024,1.21685 -2.747,3.29299 -4.03816,3.96068 -0.84021,0.43448 -0.86628,0.43302 -0.67601,-0.0378 z"
         id="path53"
         inkscape:connector-curvature="0" />
      <path
         style="fill:#d45500;fill-opacity:1;stroke-width:0.26458335"
         d="m -310.67587,192.57406 c 0.11204,-0.27769 0.26412,-1.21926 0.33796,-2.09239 0.1141,-1.34908 -0.0133,-2.0246 -0.84809,-4.49791 -0.88055,-2.60879 -0.96793,-3.10922 -0.84316,-4.82865 0.0766,-1.05503 0.0469,-1.91823 -0.0659,-1.91823 -0.11278,0 -0.60961,0.26802 -1.10407,0.59559 -1.03737,0.68724 -2.35424,3.07362 -2.35424,4.26626 v 0.79821 l -0.94154,-0.9118 c -0.51785,-0.50149 -1.30682,-1.65335 -1.75327,-2.55968 -0.75738,-1.53754 -0.80381,-1.79884 -0.69339,-3.9026 0.0651,-1.2401 0.0378,-2.25473 -0.0608,-2.25473 -0.0985,0 -0.72436,0.41633 -1.39077,0.92518 -0.85341,0.65162 -1.46994,1.44978 -2.08513,2.69941 -0.77037,1.56485 -0.87385,2.02906 -0.8769,3.93358 -0.003,1.94103 -0.0409,2.10279 -0.37368,1.60006 -0.54725,-0.82668 -2.20722,-2.54818 -2.73535,-2.83673 -0.42041,-0.2297 -0.44584,-0.11807 -0.29717,1.30434 0.19538,1.86929 -0.12379,2.97749 -1.53587,5.33282 -0.56513,0.94263 -1.09933,2.16302 -1.18711,2.71198 -0.0878,0.54896 -0.25063,0.99811 -0.36187,0.99811 -0.11125,0 -0.85984,-0.71026 -1.66355,-1.57835 -2.0507,-2.215 -2.64841,-3.8884 -2.50765,-7.02061 0.0926,-2.05955 0.25206,-2.72082 1.18069,-4.89479 1.64393,-3.8485 1.75022,-4.30442 1.59571,-6.84437 -0.0764,-1.25606 -0.2275,-2.56788 -0.33574,-2.91515 -0.19395,-0.6222 -0.17793,-0.62863 1.10025,-0.44116 2.73722,0.40147 4.93034,1.77897 5.88927,3.69903 0.60929,1.21999 0.63095,1.23432 1.15402,0.76364 0.99167,-0.89237 2.13688,-2.80068 2.62831,-4.37963 0.59315,-1.90581 0.63701,-5.04531 0.0987,-7.06797 -0.21119,-0.7936 -0.33436,-1.49253 -0.2737,-1.55319 0.26511,-0.26512 3.26726,2.09616 4.17159,3.28108 1.78585,2.33997 2.15449,3.69039 2.16857,7.94413 l 0.0124,3.73121 0.61732,-1.08498 c 0.33953,-0.59674 1.02349,-1.58066 1.51992,-2.18648 0.95524,-1.16575 2.96877,-2.87729 3.16,-2.68607 0.0624,0.0624 -0.022,0.84164 -0.18746,1.73163 -0.42622,2.29189 0.15844,4.49304 2.01813,7.59789 1.65978,2.77109 2.26479,4.61263 2.26479,6.89357 0,2.24856 -0.62306,3.87093 -2.11172,5.49861 -1.44305,1.57782 -3.68219,3.02312 -3.32957,2.14914 z"
         id="path51"
         inkscape:connector-curvature="0" />
      <path
         style="fill:#d45500;fill-opacity:1;stroke-width:0.26458335"
         d="m -310.6641,192.57406 c 0.11851,-0.27769 0.27011,-1.22859 0.33689,-2.11312 0.10087,-1.33614 -0.04,-2.10752 -0.83256,-4.55918 -0.96331,-2.9798 -1.16836,-4.74362 -0.69594,-5.9862 0.22204,-0.584 0.18641,-0.67868 -0.25537,-0.67868 -1.31565,0 -3.44225,2.94418 -3.44225,4.76565 v 0.89441 l -0.89683,-0.86925 c -2.04261,-1.97977 -3.04688,-5.43715 -2.33162,-8.02702 l 0.27266,-0.98724 -0.79955,0.41346 c -0.43976,0.2274 -1.31622,0.93013 -1.94771,1.56162 -1.46104,1.46104 -2.35496,4.10733 -2.18433,6.46629 l 0.11139,1.54002 -0.69681,-0.96074 c -0.74813,-1.0315 -2.51789,-2.68053 -2.87678,-2.68053 -0.12027,0 -0.0959,0.53663 0.0542,1.19251 0.37013,1.61745 -0.0356,3.24425 -1.38519,5.55371 -0.59218,1.01336 -1.14996,2.23306 -1.23951,2.71043 -0.0896,0.47737 -0.2533,0.92386 -0.36388,0.9922 -0.35296,0.21814 -2.90194,-2.70727 -3.5044,-4.02192 -0.47182,-1.0296 -0.58268,-1.76427 -0.59053,-3.91339 -0.009,-2.56038 0.0308,-2.74411 1.2431,-5.68854 1.73228,-4.20738 1.97058,-5.53982 1.42378,-7.96113 -0.23753,-1.0518 -0.38082,-1.96342 -0.31842,-2.02581 0.20588,-0.20588 3.17996,0.51396 4.14222,1.00257 1.15553,0.58674 2.81915,2.3828 3.04663,3.28916 0.0922,0.36747 0.26457,0.66812 0.38297,0.66812 0.43249,0 2.1913,-2.28758 2.84796,-3.70416 0.85774,-1.85035 1.10012,-5.92195 0.48825,-8.20173 -0.21476,-0.80017 -0.34622,-1.4991 -0.29214,-1.55319 0.0541,-0.0541 0.78847,0.37166 1.63196,0.9461 2.12105,1.44448 3.3855,3.19222 4.21395,5.82461 0.60559,1.92426 0.67352,2.52286 0.58886,5.18956 l -0.0957,3.01439 0.5738,-1.01018 c 0.88798,-1.56332 2.22399,-3.13188 3.50407,-4.11399 0.64128,-0.49201 1.20884,-0.85168 1.26126,-0.79926 0.0524,0.0524 -0.0463,0.70875 -0.21938,1.45853 -0.55517,2.40513 0.22828,5.28683 2.23282,8.21279 1.85572,2.70875 2.53922,6.6757 1.61669,9.38317 -0.50809,1.49115 -2.49818,3.75379 -4.08433,4.64367 -1.03082,0.57833 -1.11582,0.59055 -0.92025,0.13229 z"
         id="path49"
         inkscape:connector-curvature="0" />
      <path
         style="fill:#d45500;fill-opacity:1;stroke-width:0.26458335"
         d="m -310.64839,192.44046 c 0.75994,-2.37058 0.70061,-2.9802 -0.69565,-7.14778 -0.67177,-2.0051 -0.8048,-2.76123 -0.6928,-3.93797 0.0762,-0.801 0.22114,-1.66271 0.32202,-1.91489 0.16341,-0.40854 0.0947,-0.42761 -0.63017,-0.17491 -1.55871,0.54337 -3.19695,2.98233 -3.21884,4.79212 l -0.0105,0.86839 -1.16404,-1.26461 c -1.90611,-2.07079 -2.80538,-5.58646 -1.98254,-7.75069 0.14959,-0.39346 0.21749,-0.76987 0.15088,-0.83648 -0.0666,-0.0666 -0.67202,0.25794 -1.34537,0.72122 -2.31743,1.59443 -3.57542,4.11876 -3.57542,7.17457 v 1.51983 l -1.49548,-1.56785 c -1.77169,-1.85744 -2.29136,-2.02177 -1.89893,-0.6005 0.39556,1.4326 0.0339,3.18392 -1.05695,5.11805 -1.22691,2.1754 -1.63405,3.10591 -1.63405,3.73455 0,0.84919 -0.69393,0.55527 -1.92699,-0.81618 -1.73208,-1.9265 -2.36878,-3.44143 -2.51172,-5.97629 -0.12646,-2.24255 0.26348,-3.72678 2.15647,-8.20822 0.94189,-2.22982 1.11988,-4.10158 0.58759,-6.17928 -0.23721,-0.92592 -0.37912,-1.73568 -0.31535,-1.79944 0.25255,-0.25255 3.26391,0.54441 4.28881,1.13504 1.29455,0.74602 2.67586,2.25109 2.90542,3.16572 0.0906,0.36113 0.2571,0.6566 0.36991,0.6566 0.44645,0 2.21772,-2.26788 2.86824,-3.67241 0.57407,-1.23945 0.70363,-1.94939 0.77837,-4.26509 0.0588,-1.82139 -0.0383,-3.25453 -0.28198,-4.1615 l -0.37164,-1.38338 1.05765,0.58963 c 2.55844,1.4263 4.55746,4.31645 5.23159,7.56374 0.16582,0.79874 0.25598,2.68171 0.20035,4.18438 -0.0556,1.50267 -0.0767,2.73213 -0.0469,2.73213 0.0298,0 0.3305,-0.55311 0.66812,-1.22913 0.64578,-1.29303 3.11114,-4.02296 4.1143,-4.55582 0.56729,-0.30133 0.58256,-0.28006 0.39687,0.55297 -0.10621,0.4765 -0.18261,1.72849 -0.16978,2.78221 0.0202,1.65563 0.15061,2.15874 0.96051,3.70416 3.35977,6.41108 3.20514,6.02209 3.32855,8.37327 0.10329,1.96798 0.039,2.37648 -0.59736,3.79443 -0.7485,1.6679 -2.22393,3.27823 -3.94417,4.30483 l -1.02289,0.61044 z"
         id="path47"
         inkscape:connector-curvature="0" />
      <path
         style="fill:#d45500;fill-opacity:1;stroke-width:0.26458335"
         d="m -310.35116,191.59907 c 0.42964,-1.65627 0.23037,-2.95812 -0.98097,-6.40906 -0.67937,-1.93545 -0.8106,-2.65369 -0.70098,-3.83646 0.0742,-0.80037 0.21741,-1.66155 0.31829,-1.91373 0.16341,-0.40854 0.0947,-0.42761 -0.63017,-0.17491 -1.55786,0.54307 -3.19545,2.98005 -3.22019,4.79212 l -0.0119,0.86839 -1.18403,-1.32165 c -0.65122,-0.72692 -1.4198,-1.95177 -1.70794,-2.72191 -0.56825,-1.51878 -0.68543,-3.8315 -0.25191,-4.97174 0.14959,-0.39346 0.21749,-0.76987 0.15088,-0.83648 -0.0666,-0.0666 -0.67202,0.25794 -1.34537,0.72122 -2.31743,1.59443 -3.57542,4.11876 -3.57542,7.17457 v 1.51983 l -1.49548,-1.56785 c -1.77805,-1.8641 -2.25645,-2.00758 -1.91943,-0.57567 0.38287,1.62672 0.0182,3.21485 -1.24736,5.43204 -0.64626,1.13224 -1.24623,2.41464 -1.33326,2.84978 -0.087,0.43514 -0.27266,0.86189 -0.41252,0.94833 -0.44794,0.27684 -2.32556,-1.83287 -3.18788,-3.58194 -1.48491,-3.01186 -1.3158,-5.75955 0.63557,-10.32687 1.71856,-4.0224 1.86457,-5.53485 0.86556,-8.96608 -0.17059,-0.58588 -0.13169,-0.60609 0.84916,-0.44102 3.0421,0.51194 5.55468,2.11631 6.22727,3.97631 0.18201,0.50335 0.41222,0.91517 0.51157,0.91517 0.42561,0 2.21034,-2.30477 2.84377,-3.67241 0.57407,-1.23945 0.70363,-1.94939 0.77837,-4.26509 0.0588,-1.82139 -0.0383,-3.25453 -0.28198,-4.1615 l -0.37164,-1.38338 1.05873,0.58963 c 2.5238,1.40555 4.56603,4.36293 5.23367,7.57895 0.17421,0.83917 0.25401,2.69639 0.18639,4.33777 l -0.11827,2.8703 0.47035,-0.96697 c 0.72331,-1.48706 2.35637,-3.50748 3.64965,-4.51535 0.64256,-0.50075 1.20607,-0.87267 1.25225,-0.82649 0.0462,0.0462 -0.0331,0.49201 -0.17609,0.99074 -0.68468,2.38732 -0.13275,4.82744 1.85165,8.1863 0.73077,1.23693 1.58132,3.00809 1.8901,3.93592 1.39763,4.19961 -0.24665,8.38231 -4.19568,10.67294 l -0.78209,0.45365 z"
         id="path45"
         inkscape:connector-curvature="0" />
    </g>
    <flowRoot
       xml:space="preserve"
       id="flowRoot61"
       style="font-style:normal;font-variant:normal;font-weight:normal;font-stretch:normal;font-size:192px;line-height:1.25;font-family:Children;-inkscape-font-specification:Children;letter-spacing:0px;word-spacing:0px;fill:#e3dbdb;fill-opacity:1;stroke:none"
       transform="matrix(0.26458333,0,0,0.26458333,12.828937,-12.828938)"><flowRegion
         id="flowRegion63"
         style="fill:#e3dbdb"><rect
           id="rect65"
           width="674.78192"
           height="286.88333"
           x="-638.41644"
           y="1090.1948"
           style="fill:#e3dbdb" /></flowRegion><flowPara
         id="flowPara67"
         style="font-style:normal;font-variant:normal;font-weight:normal;font-stretch:normal;font-family:'Courier New';-inkscape-font-specification:'Courier New'">G.F.D</flowPara></flowRoot>  </g>
</svg>
